<?xml version="1.0" encoding="UTF-8" standalone="no"?>
<!DOCTYPE svg PUBLIC "-//W3C//DTD SVG 1.1//EN"
 "http://www.w3.org/Graphics/SVG/1.1/DTD/svg11.dtd">
<!-- Generated by graphviz version 2.38.0 (20140413.2041)
 -->
<!-- Title: D:/Users/Victor/OneDrive/Documents/Visual Studio 2017/Projects/Jeu_de_Go/Jeu_de_Go/Sources/Engine/Arbre.h Pages: 1 -->
<svg width="579pt" height="561pt"
 viewBox="0.00 0.00 578.50 561.00" xmlns="http://www.w3.org/2000/svg" xmlns:xlink="http://www.w3.org/1999/xlink">
<g id="graph0" class="graph" transform="scale(1 1) rotate(0) translate(4 557)">
<title>D:/Users/Victor/OneDrive/Documents/Visual Studio 2017/Projects/Jeu_de_Go/Jeu_de_Go/Sources/Engine/Arbre.h</title>
<!-- Node20 -->
<g id="node1" class="node"><title>Node20</title>
<polygon fill="#bfbfbf" stroke="black" points="151.5,-500.5 151.5,-552.5 326.5,-552.5 326.5,-500.5 151.5,-500.5"/>
<text text-anchor="start" x="159.5" y="-540.5" font-family="Helvetica,sans-Serif" font-size="10.00">D:/Users/Victor/OneDrive</text>
<text text-anchor="start" x="159.5" y="-529.5" font-family="Helvetica,sans-Serif" font-size="10.00">/Documents/Visual Studio</text>
<text text-anchor="start" x="159.5" y="-518.5" font-family="Helvetica,sans-Serif" font-size="10.00"> 2017/Projects/Jeu_de_Go</text>
<text text-anchor="middle" x="239" y="-507.5" font-family="Helvetica,sans-Serif" font-size="10.00">/Jeu_de_Go/Sources/Engine/Arbre.h</text>
</g>
<!-- Node21 -->
<g id="node2" class="node"><title>Node21</title>
<g id="a_node2"><a xlink:href="_arbre_8cpp.html" target="_top" xlink:title="D:/Users/Victor/OneDrive\l/Documents/Visual Studio\l 2017/Projects/Jeu_de_Go\l/Jeu_de_Go/Sources/Engine\l/Arbre.cpp">
<polygon fill="none" stroke="black" points="0,-400.5 0,-463.5 140,-463.5 140,-400.5 0,-400.5"/>
<text text-anchor="start" x="8" y="-451.5" font-family="Helvetica,sans-Serif" font-size="10.00">D:/Users/Victor/OneDrive</text>
<text text-anchor="start" x="8" y="-440.5" font-family="Helvetica,sans-Serif" font-size="10.00">/Documents/Visual Studio</text>
<text text-anchor="start" x="8" y="-429.5" font-family="Helvetica,sans-Serif" font-size="10.00"> 2017/Projects/Jeu_de_Go</text>
<text text-anchor="start" x="8" y="-418.5" font-family="Helvetica,sans-Serif" font-size="10.00">/Jeu_de_Go/Sources/Engine</text>
<text text-anchor="middle" x="70" y="-407.5" font-family="Helvetica,sans-Serif" font-size="10.00">/Arbre.cpp</text>
</a>
</g>
</g>
<!-- Node20&#45;&gt;Node21 -->
<g id="edge1" class="edge"><title>Node20&#45;&gt;Node21</title>
<path fill="none" stroke="midnightblue" d="M184.307,-495.564C165.653,-485.355 144.778,-473.929 126.021,-463.663"/>
<polygon fill="midnightblue" stroke="midnightblue" points="182.814,-498.737 193.266,-500.468 186.175,-492.597 182.814,-498.737"/>
</g>
<!-- Node22 -->
<g id="node3" class="node"><title>Node22</title>
<g id="a_node3"><a xlink:href="_i_a_8h.html" target="_top" xlink:title="D:/Users/Victor/OneDrive\l/Documents/Visual Studio\l 2017/Projects/Jeu_de_Go\l/Jeu_de_Go/Sources/Engine/IA.h">
<polygon fill="none" stroke="black" points="158.5,-406 158.5,-458 319.5,-458 319.5,-406 158.5,-406"/>
<text text-anchor="start" x="166.5" y="-446" font-family="Helvetica,sans-Serif" font-size="10.00">D:/Users/Victor/OneDrive</text>
<text text-anchor="start" x="166.5" y="-435" font-family="Helvetica,sans-Serif" font-size="10.00">/Documents/Visual Studio</text>
<text text-anchor="start" x="166.5" y="-424" font-family="Helvetica,sans-Serif" font-size="10.00"> 2017/Projects/Jeu_de_Go</text>
<text text-anchor="middle" x="239" y="-413" font-family="Helvetica,sans-Serif" font-size="10.00">/Jeu_de_Go/Sources/Engine/IA.h</text>
</a>
</g>
</g>
<!-- Node20&#45;&gt;Node22 -->
<g id="edge2" class="edge"><title>Node20&#45;&gt;Node22</title>
<path fill="none" stroke="midnightblue" d="M239,-489.993C239,-479.409 239,-468.031 239,-458.245"/>
<polygon fill="midnightblue" stroke="midnightblue" points="235.5,-490.224 239,-500.224 242.5,-490.224 235.5,-490.224"/>
</g>
<!-- Node30 -->
<g id="node11" class="node"><title>Node30</title>
<g id="a_node11"><a xlink:href="_board_8h.html" target="_top" xlink:title="D:/Users/Victor/OneDrive\l/Documents/Visual Studio\l 2017/Projects/Jeu_de_Go\l/Jeu_de_Go/Sources/Graphics\l/Game/Board.h">
<polygon fill="none" stroke="black" points="337.5,-400.5 337.5,-463.5 486.5,-463.5 486.5,-400.5 337.5,-400.5"/>
<text text-anchor="start" x="345.5" y="-451.5" font-family="Helvetica,sans-Serif" font-size="10.00">D:/Users/Victor/OneDrive</text>
<text text-anchor="start" x="345.5" y="-440.5" font-family="Helvetica,sans-Serif" font-size="10.00">/Documents/Visual Studio</text>
<text text-anchor="start" x="345.5" y="-429.5" font-family="Helvetica,sans-Serif" font-size="10.00"> 2017/Projects/Jeu_de_Go</text>
<text text-anchor="start" x="345.5" y="-418.5" font-family="Helvetica,sans-Serif" font-size="10.00">/Jeu_de_Go/Sources/Graphics</text>
<text text-anchor="middle" x="412" y="-407.5" font-family="Helvetica,sans-Serif" font-size="10.00">/Game/Board.h</text>
</a>
</g>
</g>
<!-- Node20&#45;&gt;Node30 -->
<g id="edge10" class="edge"><title>Node20&#45;&gt;Node30</title>
<path fill="none" stroke="midnightblue" d="M294.728,-495.703C313.888,-485.459 335.365,-473.975 354.653,-463.663"/>
<polygon fill="midnightblue" stroke="midnightblue" points="292.985,-492.666 285.816,-500.468 296.285,-498.839 292.985,-492.666"/>
</g>
<!-- Node23 -->
<g id="node4" class="node"><title>Node23</title>
<g id="a_node4"><a xlink:href="_i_a_8cpp.html" target="_top" xlink:title="D:/Users/Victor/OneDrive\l/Documents/Visual Studio\l 2017/Projects/Jeu_de_Go\l/Jeu_de_Go/Sources/Engine/IA.cpp">
<polygon fill="none" stroke="black" points="65.5,-306 65.5,-358 236.5,-358 236.5,-306 65.5,-306"/>
<text text-anchor="start" x="73.5" y="-346" font-family="Helvetica,sans-Serif" font-size="10.00">D:/Users/Victor/OneDrive</text>
<text text-anchor="start" x="73.5" y="-335" font-family="Helvetica,sans-Serif" font-size="10.00">/Documents/Visual Studio</text>
<text text-anchor="start" x="73.5" y="-324" font-family="Helvetica,sans-Serif" font-size="10.00"> 2017/Projects/Jeu_de_Go</text>
<text text-anchor="middle" x="151" y="-313" font-family="Helvetica,sans-Serif" font-size="10.00">/Jeu_de_Go/Sources/Engine/IA.cpp</text>
</a>
</g>
</g>
<!-- Node22&#45;&gt;Node23 -->
<g id="edge3" class="edge"><title>Node22&#45;&gt;Node23</title>
<path fill="none" stroke="midnightblue" d="M209.63,-398.293C197.879,-385.207 184.558,-370.371 173.585,-358.152"/>
<polygon fill="midnightblue" stroke="midnightblue" points="207.052,-400.661 216.338,-405.763 212.261,-395.984 207.052,-400.661"/>
</g>
<!-- Node24 -->
<g id="node5" class="node"><title>Node24</title>
<g id="a_node5"><a xlink:href="_game__window_8h.html" target="_top" xlink:title="D:/Users/Victor/OneDrive\l/Documents/Visual Studio\l 2017/Projects/Jeu_de_Go\l/Jeu_de_Go/Sources/Graphics\l/Game/Game_window.h">
<polygon fill="none" stroke="black" points="254.5,-300.5 254.5,-363.5 403.5,-363.5 403.5,-300.5 254.5,-300.5"/>
<text text-anchor="start" x="262.5" y="-351.5" font-family="Helvetica,sans-Serif" font-size="10.00">D:/Users/Victor/OneDrive</text>
<text text-anchor="start" x="262.5" y="-340.5" font-family="Helvetica,sans-Serif" font-size="10.00">/Documents/Visual Studio</text>
<text text-anchor="start" x="262.5" y="-329.5" font-family="Helvetica,sans-Serif" font-size="10.00"> 2017/Projects/Jeu_de_Go</text>
<text text-anchor="start" x="262.5" y="-318.5" font-family="Helvetica,sans-Serif" font-size="10.00">/Jeu_de_Go/Sources/Graphics</text>
<text text-anchor="middle" x="329" y="-307.5" font-family="Helvetica,sans-Serif" font-size="10.00">/Game/Game_window.h</text>
</a>
</g>
</g>
<!-- Node22&#45;&gt;Node24 -->
<g id="edge4" class="edge"><title>Node22&#45;&gt;Node24</title>
<path fill="none" stroke="midnightblue" d="M269.045,-398.284C279.278,-387.142 290.675,-374.732 300.761,-363.749"/>
<polygon fill="midnightblue" stroke="midnightblue" points="266.363,-396.03 262.177,-405.763 271.519,-400.765 266.363,-396.03"/>
</g>
<!-- Node25 -->
<g id="node6" class="node"><title>Node25</title>
<g id="a_node6"><a xlink:href="_game__window_8cpp.html" target="_top" xlink:title="D:/Users/Victor/OneDrive\l/Documents/Visual Studio\l 2017/Projects/Jeu_de_Go\l/Jeu_de_Go/Sources/Graphics\l/Game/Game_window.cpp">
<polygon fill="none" stroke="black" points="170.5,-200.5 170.5,-263.5 319.5,-263.5 319.5,-200.5 170.5,-200.5"/>
<text text-anchor="start" x="178.5" y="-251.5" font-family="Helvetica,sans-Serif" font-size="10.00">D:/Users/Victor/OneDrive</text>
<text text-anchor="start" x="178.5" y="-240.5" font-family="Helvetica,sans-Serif" font-size="10.00">/Documents/Visual Studio</text>
<text text-anchor="start" x="178.5" y="-229.5" font-family="Helvetica,sans-Serif" font-size="10.00"> 2017/Projects/Jeu_de_Go</text>
<text text-anchor="start" x="178.5" y="-218.5" font-family="Helvetica,sans-Serif" font-size="10.00">/Jeu_de_Go/Sources/Graphics</text>
<text text-anchor="middle" x="245" y="-207.5" font-family="Helvetica,sans-Serif" font-size="10.00">/Game/Game_window.cpp</text>
</a>
</g>
</g>
<!-- Node24&#45;&gt;Node25 -->
<g id="edge5" class="edge"><title>Node24&#45;&gt;Node25</title>
<path fill="none" stroke="midnightblue" d="M295.915,-292.401C287.728,-282.849 279.066,-272.744 271.254,-263.63"/>
<polygon fill="midnightblue" stroke="midnightblue" points="293.487,-294.946 302.652,-300.261 298.802,-290.391 293.487,-294.946"/>
</g>
<!-- Node26 -->
<g id="node7" class="node"><title>Node26</title>
<g id="a_node7"><a xlink:href="_screens_8h.html" target="_top" xlink:title="D:/Users/Victor/OneDrive\l/Documents/Visual Studio\l 2017/Projects/Jeu_de_Go\l/Jeu_de_Go/Sources/Graphics\l/Screens.h">
<polygon fill="none" stroke="black" points="337.5,-200.5 337.5,-263.5 486.5,-263.5 486.5,-200.5 337.5,-200.5"/>
<text text-anchor="start" x="345.5" y="-251.5" font-family="Helvetica,sans-Serif" font-size="10.00">D:/Users/Victor/OneDrive</text>
<text text-anchor="start" x="345.5" y="-240.5" font-family="Helvetica,sans-Serif" font-size="10.00">/Documents/Visual Studio</text>
<text text-anchor="start" x="345.5" y="-229.5" font-family="Helvetica,sans-Serif" font-size="10.00"> 2017/Projects/Jeu_de_Go</text>
<text text-anchor="start" x="345.5" y="-218.5" font-family="Helvetica,sans-Serif" font-size="10.00">/Jeu_de_Go/Sources/Graphics</text>
<text text-anchor="middle" x="412" y="-207.5" font-family="Helvetica,sans-Serif" font-size="10.00">/Screens.h</text>
</a>
</g>
</g>
<!-- Node24&#45;&gt;Node26 -->
<g id="edge6" class="edge"><title>Node24&#45;&gt;Node26</title>
<path fill="none" stroke="midnightblue" d="M361.691,-292.401C369.781,-282.849 378.34,-272.744 386.058,-263.63"/>
<polygon fill="midnightblue" stroke="midnightblue" points="358.826,-290.368 355.034,-300.261 364.168,-294.892 358.826,-290.368"/>
</g>
<!-- Node27 -->
<g id="node8" class="node"><title>Node27</title>
<g id="a_node8"><a xlink:href="_go___solver_8h.html" target="_top" xlink:title="D:/Users/Victor/OneDrive\l/Documents/Visual Studio\l 2017/Projects/Jeu_de_Go\l/Jeu_de_Go/Sources/Graphics\l/Go_Solver.h">
<polygon fill="none" stroke="black" points="337.5,-100.5 337.5,-163.5 486.5,-163.5 486.5,-100.5 337.5,-100.5"/>
<text text-anchor="start" x="345.5" y="-151.5" font-family="Helvetica,sans-Serif" font-size="10.00">D:/Users/Victor/OneDrive</text>
<text text-anchor="start" x="345.5" y="-140.5" font-family="Helvetica,sans-Serif" font-size="10.00">/Documents/Visual Studio</text>
<text text-anchor="start" x="345.5" y="-129.5" font-family="Helvetica,sans-Serif" font-size="10.00"> 2017/Projects/Jeu_de_Go</text>
<text text-anchor="start" x="345.5" y="-118.5" font-family="Helvetica,sans-Serif" font-size="10.00">/Jeu_de_Go/Sources/Graphics</text>
<text text-anchor="middle" x="412" y="-107.5" font-family="Helvetica,sans-Serif" font-size="10.00">/Go_Solver.h</text>
</a>
</g>
</g>
<!-- Node26&#45;&gt;Node27 -->
<g id="edge7" class="edge"><title>Node26&#45;&gt;Node27</title>
<path fill="none" stroke="midnightblue" d="M412,-190.099C412,-181.238 412,-172.015 412,-163.63"/>
<polygon fill="midnightblue" stroke="midnightblue" points="408.5,-190.261 412,-200.261 415.5,-190.261 408.5,-190.261"/>
</g>
<!-- Node28 -->
<g id="node9" class="node"><title>Node28</title>
<g id="a_node9"><a xlink:href="_go___solver_8cpp.html" target="_top" xlink:title="D:/Users/Victor/OneDrive\l/Documents/Visual Studio\l 2017/Projects/Jeu_de_Go\l/Jeu_de_Go/Sources/Graphics\l/Go_Solver.cpp">
<polygon fill="none" stroke="black" points="254.5,-0.5 254.5,-63.5 403.5,-63.5 403.5,-0.5 254.5,-0.5"/>
<text text-anchor="start" x="262.5" y="-51.5" font-family="Helvetica,sans-Serif" font-size="10.00">D:/Users/Victor/OneDrive</text>
<text text-anchor="start" x="262.5" y="-40.5" font-family="Helvetica,sans-Serif" font-size="10.00">/Documents/Visual Studio</text>
<text text-anchor="start" x="262.5" y="-29.5" font-family="Helvetica,sans-Serif" font-size="10.00"> 2017/Projects/Jeu_de_Go</text>
<text text-anchor="start" x="262.5" y="-18.5" font-family="Helvetica,sans-Serif" font-size="10.00">/Jeu_de_Go/Sources/Graphics</text>
<text text-anchor="middle" x="329" y="-7.5" font-family="Helvetica,sans-Serif" font-size="10.00">/Go_Solver.cpp</text>
</a>
</g>
</g>
<!-- Node27&#45;&gt;Node28 -->
<g id="edge8" class="edge"><title>Node27&#45;&gt;Node28</title>
<path fill="none" stroke="midnightblue" d="M379.309,-92.4011C371.219,-82.8488 362.66,-72.7436 354.942,-63.6299"/>
<polygon fill="midnightblue" stroke="midnightblue" points="376.832,-94.8922 385.966,-100.261 382.174,-90.3681 376.832,-94.8922"/>
</g>
<!-- Node29 -->
<g id="node10" class="node"><title>Node29</title>
<g id="a_node10"><a xlink:href="_main_8cpp.html" target="_top" xlink:title="D:/Users/Victor/OneDrive\l/Documents/Visual Studio\l 2017/Projects/Jeu_de_Go\l/Jeu_de_Go/Sources/Graphics\l/Main.cpp">
<polygon fill="none" stroke="black" points="421.5,-0.5 421.5,-63.5 570.5,-63.5 570.5,-0.5 421.5,-0.5"/>
<text text-anchor="start" x="429.5" y="-51.5" font-family="Helvetica,sans-Serif" font-size="10.00">D:/Users/Victor/OneDrive</text>
<text text-anchor="start" x="429.5" y="-40.5" font-family="Helvetica,sans-Serif" font-size="10.00">/Documents/Visual Studio</text>
<text text-anchor="start" x="429.5" y="-29.5" font-family="Helvetica,sans-Serif" font-size="10.00"> 2017/Projects/Jeu_de_Go</text>
<text text-anchor="start" x="429.5" y="-18.5" font-family="Helvetica,sans-Serif" font-size="10.00">/Jeu_de_Go/Sources/Graphics</text>
<text text-anchor="middle" x="496" y="-7.5" font-family="Helvetica,sans-Serif" font-size="10.00">/Main.cpp</text>
</a>
</g>
</g>
<!-- Node27&#45;&gt;Node29 -->
<g id="edge9" class="edge"><title>Node27&#45;&gt;Node29</title>
<path fill="none" stroke="midnightblue" d="M445.085,-92.4011C453.272,-82.8488 461.934,-72.7436 469.746,-63.6299"/>
<polygon fill="midnightblue" stroke="midnightblue" points="442.198,-90.3907 438.348,-100.261 447.513,-94.9463 442.198,-90.3907"/>
</g>
<!-- Node30&#45;&gt;Node24 -->
<g id="edge12" class="edge"><title>Node30&#45;&gt;Node24</title>
<path fill="none" stroke="midnightblue" d="M379.309,-392.401C371.219,-382.849 362.66,-372.744 354.942,-363.63"/>
<polygon fill="midnightblue" stroke="midnightblue" points="376.832,-394.892 385.966,-400.261 382.174,-390.368 376.832,-394.892"/>
</g>
<!-- Node31 -->
<g id="node12" class="node"><title>Node31</title>
<g id="a_node12"><a xlink:href="_board_8cpp.html" target="_top" xlink:title="D:/Users/Victor/OneDrive\l/Documents/Visual Studio\l 2017/Projects/Jeu_de_Go\l/Jeu_de_Go/Sources/Graphics\l/Game/Board.cpp">
<polygon fill="none" stroke="black" points="421.5,-300.5 421.5,-363.5 570.5,-363.5 570.5,-300.5 421.5,-300.5"/>
<text text-anchor="start" x="429.5" y="-351.5" font-family="Helvetica,sans-Serif" font-size="10.00">D:/Users/Victor/OneDrive</text>
<text text-anchor="start" x="429.5" y="-340.5" font-family="Helvetica,sans-Serif" font-size="10.00">/Documents/Visual Studio</text>
<text text-anchor="start" x="429.5" y="-329.5" font-family="Helvetica,sans-Serif" font-size="10.00"> 2017/Projects/Jeu_de_Go</text>
<text text-anchor="start" x="429.5" y="-318.5" font-family="Helvetica,sans-Serif" font-size="10.00">/Jeu_de_Go/Sources/Graphics</text>
<text text-anchor="middle" x="496" y="-307.5" font-family="Helvetica,sans-Serif" font-size="10.00">/Game/Board.cpp</text>
</a>
</g>
</g>
<!-- Node30&#45;&gt;Node31 -->
<g id="edge11" class="edge"><title>Node30&#45;&gt;Node31</title>
<path fill="none" stroke="midnightblue" d="M445.085,-392.401C453.272,-382.849 461.934,-372.744 469.746,-363.63"/>
<polygon fill="midnightblue" stroke="midnightblue" points="442.198,-390.391 438.348,-400.261 447.513,-394.946 442.198,-390.391"/>
</g>
</g>
</svg>
