<?xml version="1.0" encoding="UTF-8" standalone="no"?>
<!DOCTYPE svg PUBLIC "-//W3C//DTD SVG 1.1//EN"
 "http://www.w3.org/Graphics/SVG/1.1/DTD/svg11.dtd">
<!-- Generated by graphviz version 2.38.0 (20140413.2041)
 -->
<!-- Title: operator&lt;&lt; Pages: 1 -->
<svg width="298pt" height="28pt"
 viewBox="0.00 0.00 298.00 28.00" xmlns="http://www.w3.org/2000/svg" xmlns:xlink="http://www.w3.org/1999/xlink">
<g id="graph0" class="graph" transform="scale(1 1) rotate(0) translate(4 24)">
<title>operator&lt;&lt;</title>
<!-- Node0 -->
<g id="node1" class="node"><title>Node0</title>
<polygon fill="#bfbfbf" stroke="black" points="0,-0.5 0,-19.5 64,-19.5 64,-0.5 0,-0.5"/>
<text text-anchor="middle" x="32" y="-7.5" font-family="Helvetica,sans-Serif" font-size="10.00">operator&lt;&lt;</text>
</g>
<!-- Node1 -->
<g id="node2" class="node"><title>Node1</title>
<g id="a_node2"><a xlink:href="class_arbre.html#a970de955ffdbbd5894e0fa0c40c4e69e" target="_top" xlink:title="Arbre::afficher">
<polygon fill="none" stroke="black" points="100,-0.5 100,-19.5 177,-19.5 177,-0.5 100,-0.5"/>
<text text-anchor="middle" x="138.5" y="-7.5" font-family="Helvetica,sans-Serif" font-size="10.00">Arbre::afficher</text>
</a>
</g>
</g>
<!-- Node0&#45;&gt;Node1 -->
<g id="edge1" class="edge"><title>Node0&#45;&gt;Node1</title>
<path fill="none" stroke="midnightblue" d="M64.0705,-10C72.1136,-10 80.9627,-10 89.6486,-10"/>
<polygon fill="midnightblue" stroke="midnightblue" points="89.712,-13.5001 99.7119,-10 89.7119,-6.5001 89.712,-13.5001"/>
</g>
<!-- Node2 -->
<g id="node3" class="node"><title>Node2</title>
<g id="a_node3"><a xlink:href="class_arbre.html#ae9d294f541cec5e5fac9ccd8fe8496ee" target="_top" xlink:title="Arbre::getGob">
<polygon fill="none" stroke="black" points="213,-0.5 213,-19.5 290,-19.5 290,-0.5 213,-0.5"/>
<text text-anchor="middle" x="251.5" y="-7.5" font-family="Helvetica,sans-Serif" font-size="10.00">Arbre::getGob</text>
</a>
</g>
</g>
<!-- Node1&#45;&gt;Node2 -->
<g id="edge2" class="edge"><title>Node1&#45;&gt;Node2</title>
<path fill="none" stroke="midnightblue" d="M177.08,-10C185.307,-10 194.123,-10 202.69,-10"/>
<polygon fill="midnightblue" stroke="midnightblue" points="202.959,-13.5001 212.959,-10 202.959,-6.5001 202.959,-13.5001"/>
</g>
</g>
</svg>
