<?xml version="1.0" encoding="UTF-8" standalone="no"?>
<!DOCTYPE svg PUBLIC "-//W3C//DTD SVG 1.1//EN"
 "http://www.w3.org/Graphics/SVG/1.1/DTD/svg11.dtd">
<!-- Generated by graphviz version 2.38.0 (20140413.2041)
 -->
<!-- Title: D:/Users/Victor/OneDrive/Documents/Visual Studio 2017/Projects/Jeu_de_Go/Jeu_de_Go/Sources/Engine/Arbre.cpp Pages: 1 -->
<svg width="1012pt" height="352pt"
 viewBox="0.00 0.00 1012.00 352.00" xmlns="http://www.w3.org/2000/svg" xmlns:xlink="http://www.w3.org/1999/xlink">
<g id="graph0" class="graph" transform="scale(1 1) rotate(0) translate(4 348)">
<title>D:/Users/Victor/OneDrive/Documents/Visual Studio 2017/Projects/Jeu_de_Go/Jeu_de_Go/Sources/Engine/Arbre.cpp</title>
<!-- Node0 -->
<g id="node1" class="node"><title>Node0</title>
<polygon fill="#bfbfbf" stroke="black" points="864,-280.5 864,-343.5 1004,-343.5 1004,-280.5 864,-280.5"/>
<text text-anchor="start" x="872" y="-331.5" font-family="Helvetica,sans-Serif" font-size="10.00">D:/Users/Victor/OneDrive</text>
<text text-anchor="start" x="872" y="-320.5" font-family="Helvetica,sans-Serif" font-size="10.00">/Documents/Visual Studio</text>
<text text-anchor="start" x="872" y="-309.5" font-family="Helvetica,sans-Serif" font-size="10.00"> 2017/Projects/Jeu_de_Go</text>
<text text-anchor="start" x="872" y="-298.5" font-family="Helvetica,sans-Serif" font-size="10.00">/Jeu_de_Go/Sources/Engine</text>
<text text-anchor="middle" x="934" y="-287.5" font-family="Helvetica,sans-Serif" font-size="10.00">/Arbre.cpp</text>
</g>
<!-- Node1 -->
<g id="node2" class="node"><title>Node1</title>
<g id="a_node2"><a xlink:href="_arbre_8h.html" target="_top" xlink:title="Arbre.h">
<polygon fill="none" stroke="black" points="872,-224.5 872,-243.5 920,-243.5 920,-224.5 872,-224.5"/>
<text text-anchor="middle" x="896" y="-231.5" font-family="Helvetica,sans-Serif" font-size="10.00">Arbre.h</text>
</a>
</g>
</g>
<!-- Node0&#45;&gt;Node1 -->
<g id="edge1" class="edge"><title>Node0&#45;&gt;Node1</title>
<path fill="none" stroke="midnightblue" d="M918.544,-280.088C913.921,-270.841 909.007,-261.014 904.951,-252.903"/>
<polygon fill="midnightblue" stroke="midnightblue" points="907.962,-251.097 900.359,-243.718 901.701,-254.228 907.962,-251.097"/>
</g>
<!-- Node3 -->
<g id="node4" class="node"><title>Node3</title>
<polygon fill="none" stroke="#bfbfbf" points="921,-0.5 921,-19.5 975,-19.5 975,-0.5 921,-0.5"/>
<text text-anchor="middle" x="948" y="-7.5" font-family="Helvetica,sans-Serif" font-size="10.00">iostream</text>
</g>
<!-- Node0&#45;&gt;Node3 -->
<g id="edge30" class="edge"><title>Node0&#45;&gt;Node3</title>
<path fill="none" stroke="midnightblue" d="M943.534,-280.397C950.954,-253.857 960,-214.269 960,-179 960,-179 960,-179 960,-121 960,-88.7578 954.842,-51.5116 951.289,-29.6812"/>
<polygon fill="midnightblue" stroke="midnightblue" points="954.69,-28.7982 949.569,-19.5232 947.788,-29.9673 954.69,-28.7982"/>
</g>
<!-- Node2 -->
<g id="node3" class="node"><title>Node2</title>
<g id="a_node3"><a xlink:href="_goban_8h.html" target="_top" xlink:title="Goban.h">
<polygon fill="none" stroke="black" points="688.5,-168.5 688.5,-187.5 741.5,-187.5 741.5,-168.5 688.5,-168.5"/>
<text text-anchor="middle" x="715" y="-175.5" font-family="Helvetica,sans-Serif" font-size="10.00">Goban.h</text>
</a>
</g>
</g>
<!-- Node1&#45;&gt;Node2 -->
<g id="edge2" class="edge"><title>Node1&#45;&gt;Node2</title>
<path fill="none" stroke="midnightblue" d="M871.965,-225.829C841.112,-216.625 787.291,-200.567 751.402,-189.86"/>
<polygon fill="midnightblue" stroke="midnightblue" points="752.372,-186.497 741.789,-186.992 750.371,-193.205 752.372,-186.497"/>
</g>
<!-- Node1&#45;&gt;Node3 -->
<g id="edge28" class="edge"><title>Node1&#45;&gt;Node3</title>
<path fill="none" stroke="midnightblue" d="M898.038,-224.297C905.706,-191.563 932.921,-75.3752 943.628,-29.6664"/>
<polygon fill="midnightblue" stroke="midnightblue" points="947.046,-30.4185 945.919,-19.8837 940.231,-28.822 947.046,-30.4185"/>
</g>
<!-- Node5 -->
<g id="node6" class="node"><title>Node5</title>
<polygon fill="none" stroke="#bfbfbf" points="825,-56.5 825,-75.5 867,-75.5 867,-56.5 825,-56.5"/>
<text text-anchor="middle" x="846" y="-63.5" font-family="Helvetica,sans-Serif" font-size="10.00">vector</text>
</g>
<!-- Node1&#45;&gt;Node5 -->
<g id="edge29" class="edge"><title>Node1&#45;&gt;Node5</title>
<path fill="none" stroke="midnightblue" d="M893.312,-224.075C885.441,-197.945 862.328,-121.211 851.595,-85.577"/>
<polygon fill="midnightblue" stroke="midnightblue" points="854.816,-84.1338 848.581,-75.5681 848.114,-86.1526 854.816,-84.1338"/>
</g>
<!-- Node2&#45;&gt;Node3 -->
<g id="edge3" class="edge"><title>Node2&#45;&gt;Node3</title>
<path fill="none" stroke="midnightblue" d="M713.544,-168.241C710.405,-146.088 705.56,-87.3651 736,-56 789.434,-0.94314 830.799,-34.7879 910.935,-19.9655"/>
<polygon fill="midnightblue" stroke="midnightblue" points="911.817,-23.3572 920.903,-17.9074 910.402,-16.5018 911.817,-23.3572"/>
</g>
<!-- Node4 -->
<g id="node5" class="node"><title>Node4</title>
<polygon fill="none" stroke="#bfbfbf" points="0,-0.5 0,-19.5 44,-19.5 44,-0.5 0,-0.5"/>
<text text-anchor="middle" x="22" y="-7.5" font-family="Helvetica,sans-Serif" font-size="10.00">cmath</text>
</g>
<!-- Node2&#45;&gt;Node4 -->
<g id="edge4" class="edge"><title>Node2&#45;&gt;Node4</title>
<path fill="none" stroke="midnightblue" d="M688.349,-172.454C644.518,-164.857 554.537,-148.756 479,-132 317.911,-96.2659 127.987,-42.0322 53.8682,-20.3941"/>
<polygon fill="midnightblue" stroke="midnightblue" points="54.7738,-17.0124 44.1933,-17.5625 52.8075,-23.7306 54.7738,-17.0124"/>
</g>
<!-- Node2&#45;&gt;Node5 -->
<g id="edge5" class="edge"><title>Node2&#45;&gt;Node5</title>
<path fill="none" stroke="midnightblue" d="M741.895,-173.048C767.309,-167.92 804.759,-156.527 827,-132 838.467,-119.355 843.038,-100.146 844.847,-85.8856"/>
<polygon fill="midnightblue" stroke="midnightblue" points="848.351,-86.0093 845.785,-75.7298 841.38,-85.3656 848.351,-86.0093"/>
</g>
<!-- Node6 -->
<g id="node7" class="node"><title>Node6</title>
<g id="a_node7"><a xlink:href="_etat_8h.html" target="_top" xlink:title="Etat.h">
<polygon fill="none" stroke="black" points="744.5,-56.5 744.5,-75.5 787.5,-75.5 787.5,-56.5 744.5,-56.5"/>
<text text-anchor="middle" x="766" y="-63.5" font-family="Helvetica,sans-Serif" font-size="10.00">Etat.h</text>
</a>
</g>
</g>
<!-- Node2&#45;&gt;Node6 -->
<g id="edge6" class="edge"><title>Node2&#45;&gt;Node6</title>
<path fill="none" stroke="midnightblue" d="M719.002,-168.368C727.307,-150.456 746.563,-108.923 757.679,-84.9482"/>
<polygon fill="midnightblue" stroke="midnightblue" points="760.986,-86.136 762.017,-75.5914 754.635,-83.1916 760.986,-86.136"/>
</g>
<!-- Node7 -->
<g id="node8" class="node"><title>Node7</title>
<g id="a_node8"><a xlink:href="_groupe_8h.html" target="_top" xlink:title="Groupe.h">
<polygon fill="none" stroke="black" points="762,-112.5 762,-131.5 818,-131.5 818,-112.5 762,-112.5"/>
<text text-anchor="middle" x="790" y="-119.5" font-family="Helvetica,sans-Serif" font-size="10.00">Groupe.h</text>
</a>
</g>
</g>
<!-- Node2&#45;&gt;Node7 -->
<g id="edge8" class="edge"><title>Node2&#45;&gt;Node7</title>
<path fill="none" stroke="midnightblue" d="M727.05,-168.324C738.463,-160.107 755.831,-147.602 769.435,-137.807"/>
<polygon fill="midnightblue" stroke="midnightblue" points="771.66,-140.517 777.731,-131.834 767.57,-134.837 771.66,-140.517"/>
</g>
<!-- Node8 -->
<g id="node9" class="node"><title>Node8</title>
<g id="a_node9"><a xlink:href="_history_8h.html" target="_top" xlink:title="History.h">
<polygon fill="none" stroke="black" points="598,-112.5 598,-131.5 654,-131.5 654,-112.5 598,-112.5"/>
<text text-anchor="middle" x="626" y="-119.5" font-family="Helvetica,sans-Serif" font-size="10.00">History.h</text>
</a>
</g>
</g>
<!-- Node2&#45;&gt;Node8 -->
<g id="edge11" class="edge"><title>Node2&#45;&gt;Node8</title>
<path fill="none" stroke="midnightblue" d="M700.701,-168.324C686.817,-159.9 665.508,-146.971 649.196,-137.074"/>
<polygon fill="midnightblue" stroke="midnightblue" points="650.629,-133.85 640.264,-131.655 646.998,-139.834 650.629,-133.85"/>
</g>
<!-- Node18 -->
<g id="node19" class="node"><title>Node18</title>
<polygon fill="none" stroke="#bfbfbf" points="62.5,-0.5 62.5,-19.5 121.5,-19.5 121.5,-0.5 62.5,-0.5"/>
<text text-anchor="middle" x="92" y="-7.5" font-family="Helvetica,sans-Serif" font-size="10.00">stdexcept</text>
</g>
<!-- Node2&#45;&gt;Node18 -->
<g id="edge27" class="edge"><title>Node2&#45;&gt;Node18</title>
<path fill="none" stroke="midnightblue" d="M688.23,-169.867C589.886,-143.663 248.222,-52.6258 131.469,-21.5166"/>
<polygon fill="midnightblue" stroke="midnightblue" points="132.089,-18.0598 121.525,-18.867 130.287,-24.8238 132.089,-18.0598"/>
</g>
<!-- Node6&#45;&gt;Node3 -->
<g id="edge7" class="edge"><title>Node6&#45;&gt;Node3</title>
<path fill="none" stroke="midnightblue" d="M787.592,-58.5934C817.975,-49.579 873.77,-33.0244 910.881,-22.0134"/>
<polygon fill="midnightblue" stroke="midnightblue" points="912.224,-25.2656 920.816,-19.0657 910.233,-18.5548 912.224,-25.2656"/>
</g>
<!-- Node7&#45;&gt;Node5 -->
<g id="edge9" class="edge"><title>Node7&#45;&gt;Node5</title>
<path fill="none" stroke="midnightblue" d="M798.997,-112.324C807.194,-104.42 819.506,-92.5482 829.472,-82.9377"/>
<polygon fill="midnightblue" stroke="midnightblue" points="832.07,-85.2947 836.839,-75.8339 827.211,-80.2558 832.07,-85.2947"/>
</g>
<!-- Node7&#45;&gt;Node6 -->
<g id="edge10" class="edge"><title>Node7&#45;&gt;Node6</title>
<path fill="none" stroke="midnightblue" d="M786.037,-112.083C782.787,-104.77 778.081,-94.1814 774.046,-85.1034"/>
<polygon fill="midnightblue" stroke="midnightblue" points="777.149,-83.4677 769.889,-75.7511 770.752,-86.3107 777.149,-83.4677"/>
</g>
<!-- Node8&#45;&gt;Node6 -->
<g id="edge25" class="edge"><title>Node8&#45;&gt;Node6</title>
<path fill="none" stroke="midnightblue" d="M648.183,-112.444C671.565,-103.425 708.581,-89.1472 734.878,-79.0043"/>
<polygon fill="midnightblue" stroke="midnightblue" points="736.31,-82.2033 744.38,-75.339 733.791,-75.6723 736.31,-82.2033"/>
</g>
<!-- Node9 -->
<g id="node10" class="node"><title>Node9</title>
<g id="a_node10"><a xlink:href="_globals_8h.html" target="_top" xlink:title="../Graphics/Globals.h">
<polygon fill="none" stroke="black" points="558.5,-56.5 558.5,-75.5 667.5,-75.5 667.5,-56.5 558.5,-56.5"/>
<text text-anchor="middle" x="613" y="-63.5" font-family="Helvetica,sans-Serif" font-size="10.00">../Graphics/Globals.h</text>
</a>
</g>
</g>
<!-- Node8&#45;&gt;Node9 -->
<g id="edge12" class="edge"><title>Node8&#45;&gt;Node9</title>
<path fill="none" stroke="midnightblue" d="M623.853,-112.083C622.131,-104.927 619.653,-94.6353 617.5,-85.6911"/>
<polygon fill="midnightblue" stroke="midnightblue" points="620.85,-84.6541 615.107,-75.7511 614.045,-86.2925 620.85,-84.6541"/>
</g>
<!-- Node20 -->
<g id="node21" class="node"><title>Node20</title>
<polygon fill="none" stroke="#bfbfbf" points="511.5,-56.5 511.5,-75.5 540.5,-75.5 540.5,-56.5 511.5,-56.5"/>
<text text-anchor="middle" x="526" y="-63.5" font-family="Helvetica,sans-Serif" font-size="10.00">list</text>
</g>
<!-- Node8&#45;&gt;Node20 -->
<g id="edge26" class="edge"><title>Node8&#45;&gt;Node20</title>
<path fill="none" stroke="midnightblue" d="M609.933,-112.324C593.666,-103.54 568.326,-89.8558 549.742,-79.8206"/>
<polygon fill="midnightblue" stroke="midnightblue" points="551.186,-76.6225 540.723,-74.9507 547.859,-82.7819 551.186,-76.6225"/>
</g>
<!-- Node9&#45;&gt;Node3 -->
<g id="edge17" class="edge"><title>Node9&#45;&gt;Node3</title>
<path fill="none" stroke="midnightblue" d="M667.523,-57.4324C736.454,-47.7607 852.298,-31.1355 911.002,-20.0037"/>
<polygon fill="midnightblue" stroke="midnightblue" points="911.794,-23.4153 920.936,-18.0607 910.45,-16.5455 911.794,-23.4153"/>
</g>
<!-- Node9&#45;&gt;Node4 -->
<g id="edge24" class="edge"><title>Node9&#45;&gt;Node4</title>
<path fill="none" stroke="midnightblue" d="M558.217,-57.0493C555.101,-56.674 552.012,-56.3208 549,-56 332.545,-32.9517 272.364,-58.2384 54.3818,-19.8711"/>
<polygon fill="midnightblue" stroke="midnightblue" points="54.6776,-16.3687 44.2181,-18.0566 53.4473,-23.2597 54.6776,-16.3687"/>
</g>
<!-- Node10 -->
<g id="node11" class="node"><title>Node10</title>
<polygon fill="none" stroke="#bfbfbf" points="140,-0.5 140,-19.5 244,-19.5 244,-0.5 140,-0.5"/>
<text text-anchor="middle" x="192" y="-7.5" font-family="Helvetica,sans-Serif" font-size="10.00">SFML/Graphics.hpp</text>
</g>
<!-- Node9&#45;&gt;Node10 -->
<g id="edge13" class="edge"><title>Node9&#45;&gt;Node10</title>
<path fill="none" stroke="midnightblue" d="M558.196,-57.2246C555.086,-56.8047 552.004,-56.3938 549,-56 420.808,-39.1925 386.024,-37.7364 254.305,-20.1468"/>
<polygon fill="midnightblue" stroke="midnightblue" points="254.608,-16.6562 244.231,-18.7955 253.677,-23.594 254.608,-16.6562"/>
</g>
<!-- Node11 -->
<g id="node12" class="node"><title>Node11</title>
<polygon fill="none" stroke="#bfbfbf" points="262,-0.5 262,-19.5 360,-19.5 360,-0.5 262,-0.5"/>
<text text-anchor="middle" x="311" y="-7.5" font-family="Helvetica,sans-Serif" font-size="10.00">SFML/System.hpp</text>
</g>
<!-- Node9&#45;&gt;Node11 -->
<g id="edge14" class="edge"><title>Node9&#45;&gt;Node11</title>
<path fill="none" stroke="midnightblue" d="M565.147,-56.4435C511.801,-46.9049 425.555,-31.4834 368.564,-21.293"/>
<polygon fill="midnightblue" stroke="midnightblue" points="369.089,-17.8313 358.629,-19.5164 367.857,-24.722 369.089,-17.8313"/>
</g>
<!-- Node12 -->
<g id="node13" class="node"><title>Node12</title>
<polygon fill="none" stroke="#bfbfbf" points="378.5,-0.5 378.5,-19.5 477.5,-19.5 477.5,-0.5 378.5,-0.5"/>
<text text-anchor="middle" x="428" y="-7.5" font-family="Helvetica,sans-Serif" font-size="10.00">SFML/Window.hpp</text>
</g>
<!-- Node9&#45;&gt;Node12 -->
<g id="edge15" class="edge"><title>Node9&#45;&gt;Node12</title>
<path fill="none" stroke="midnightblue" d="M583.686,-56.4435C552.158,-47.2406 501.869,-32.5617 467.014,-22.3879"/>
<polygon fill="midnightblue" stroke="midnightblue" points="467.757,-18.9587 457.177,-19.5164 465.795,-25.6783 467.757,-18.9587"/>
</g>
<!-- Node13 -->
<g id="node14" class="node"><title>Node13</title>
<polygon fill="none" stroke="#bfbfbf" points="495.5,-0.5 495.5,-19.5 584.5,-19.5 584.5,-0.5 495.5,-0.5"/>
<text text-anchor="middle" x="540" y="-7.5" font-family="Helvetica,sans-Serif" font-size="10.00">SFML/Audio.hpp</text>
</g>
<!-- Node9&#45;&gt;Node13 -->
<g id="edge16" class="edge"><title>Node9&#45;&gt;Node13</title>
<path fill="none" stroke="midnightblue" d="M601.271,-56.324C590.163,-48.1066 573.258,-35.6017 560.017,-25.8069"/>
<polygon fill="midnightblue" stroke="midnightblue" points="562.063,-22.9671 551.942,-19.8339 557.9,-28.5948 562.063,-22.9671"/>
</g>
<!-- Node14 -->
<g id="node15" class="node"><title>Node14</title>
<polygon fill="none" stroke="#bfbfbf" points="602.5,-0.5 602.5,-19.5 647.5,-19.5 647.5,-0.5 602.5,-0.5"/>
<text text-anchor="middle" x="625" y="-7.5" font-family="Helvetica,sans-Serif" font-size="10.00">cstdlib</text>
</g>
<!-- Node9&#45;&gt;Node14 -->
<g id="edge18" class="edge"><title>Node9&#45;&gt;Node14</title>
<path fill="none" stroke="midnightblue" d="M614.982,-56.083C616.572,-48.9272 618.859,-38.6353 620.846,-29.6911"/>
<polygon fill="midnightblue" stroke="midnightblue" points="624.303,-30.2722 623.055,-19.7511 617.469,-28.7537 624.303,-30.2722"/>
</g>
<!-- Node15 -->
<g id="node16" class="node"><title>Node15</title>
<polygon fill="none" stroke="#bfbfbf" points="665.5,-0.5 665.5,-19.5 706.5,-19.5 706.5,-0.5 665.5,-0.5"/>
<text text-anchor="middle" x="686" y="-7.5" font-family="Helvetica,sans-Serif" font-size="10.00">string</text>
</g>
<!-- Node9&#45;&gt;Node15 -->
<g id="edge19" class="edge"><title>Node9&#45;&gt;Node15</title>
<path fill="none" stroke="midnightblue" d="M624.729,-56.324C635.837,-48.1066 652.742,-35.6017 665.983,-25.8069"/>
<polygon fill="midnightblue" stroke="midnightblue" points="668.1,-28.5948 674.058,-19.8339 663.937,-22.9671 668.1,-28.5948"/>
</g>
<!-- Node16 -->
<g id="node17" class="node"><title>Node16</title>
<polygon fill="none" stroke="#bfbfbf" points="724.5,-0.5 724.5,-19.5 773.5,-19.5 773.5,-0.5 724.5,-0.5"/>
<text text-anchor="middle" x="749" y="-7.5" font-family="Helvetica,sans-Serif" font-size="10.00">fstream</text>
</g>
<!-- Node9&#45;&gt;Node16 -->
<g id="edge20" class="edge"><title>Node9&#45;&gt;Node16</title>
<path fill="none" stroke="midnightblue" d="M634.55,-56.4435C657.031,-47.5171 692.488,-33.4387 717.98,-23.3168"/>
<polygon fill="midnightblue" stroke="midnightblue" points="719.549,-26.4598 727.551,-19.5164 716.965,-19.9539 719.549,-26.4598"/>
</g>
<!-- Node17 -->
<g id="node18" class="node"><title>Node17</title>
<polygon fill="none" stroke="#bfbfbf" points="791.5,-0.5 791.5,-19.5 840.5,-19.5 840.5,-0.5 791.5,-0.5"/>
<text text-anchor="middle" x="816" y="-7.5" font-family="Helvetica,sans-Serif" font-size="10.00">cassert</text>
</g>
<!-- Node9&#45;&gt;Node17 -->
<g id="edge21" class="edge"><title>Node9&#45;&gt;Node17</title>
<path fill="none" stroke="midnightblue" d="M645.609,-56.4455C677.84,-47.9733 728.817,-34.528 781.62,-20.3578"/>
<polygon fill="midnightblue" stroke="midnightblue" points="782.748,-23.6791 791.497,-17.7045 780.932,-16.9188 782.748,-23.6791"/>
</g>
<!-- Node9&#45;&gt;Node18 -->
<g id="edge22" class="edge"><title>Node9&#45;&gt;Node18</title>
<path fill="none" stroke="midnightblue" d="M558.212,-57.0979C555.097,-56.7103 552.01,-56.341 549,-56 366.977,-35.3783 316.939,-48.554 131.796,-19.8933"/>
<polygon fill="midnightblue" stroke="midnightblue" points="132.148,-16.4058 121.726,-18.3143 131.063,-23.3213 132.148,-16.4058"/>
</g>
<!-- Node19 -->
<g id="node20" class="node"><title>Node19</title>
<polygon fill="none" stroke="#bfbfbf" points="859,-0.5 859,-19.5 903,-19.5 903,-0.5 859,-0.5"/>
<text text-anchor="middle" x="881" y="-7.5" font-family="Helvetica,sans-Serif" font-size="10.00">thread</text>
</g>
<!-- Node9&#45;&gt;Node19 -->
<g id="edge23" class="edge"><title>Node9&#45;&gt;Node19</title>
<path fill="none" stroke="midnightblue" d="M665.55,-56.4957C711.518,-48.7246 780.258,-36.3053 848.634,-20.1537"/>
<polygon fill="midnightblue" stroke="midnightblue" points="849.804,-23.4726 858.716,-17.7437 848.177,-16.6643 849.804,-23.4726"/>
</g>
</g>
</svg>
