<?xml version="1.0" encoding="UTF-8" standalone="no"?>
<!DOCTYPE svg PUBLIC "-//W3C//DTD SVG 1.1//EN"
 "http://www.w3.org/Graphics/SVG/1.1/DTD/svg11.dtd">
<!-- Generated by graphviz version 2.38.0 (20140413.2041)
 -->
<!-- Title: D:/Users/Victor/OneDrive/Documents/Visual Studio 2017/Projects/Jeu_de_Go/Jeu_de_Go/Sources/Graphics/Game/Board.h Pages: 1 -->
<svg width="1021pt" height="352pt"
 viewBox="0.00 0.00 1020.97 352.00" xmlns="http://www.w3.org/2000/svg" xmlns:xlink="http://www.w3.org/1999/xlink">
<g id="graph0" class="graph" transform="scale(1 1) rotate(0) translate(4 348)">
<title>D:/Users/Victor/OneDrive/Documents/Visual Studio 2017/Projects/Jeu_de_Go/Jeu_de_Go/Sources/Graphics/Game/Board.h</title>
<!-- Node0 -->
<g id="node1" class="node"><title>Node0</title>
<polygon fill="#bfbfbf" stroke="black" points="663.5,-280.5 663.5,-343.5 812.5,-343.5 812.5,-280.5 663.5,-280.5"/>
<text text-anchor="start" x="671.5" y="-331.5" font-family="Helvetica,sans-Serif" font-size="10.00">D:/Users/Victor/OneDrive</text>
<text text-anchor="start" x="671.5" y="-320.5" font-family="Helvetica,sans-Serif" font-size="10.00">/Documents/Visual Studio</text>
<text text-anchor="start" x="671.5" y="-309.5" font-family="Helvetica,sans-Serif" font-size="10.00"> 2017/Projects/Jeu_de_Go</text>
<text text-anchor="start" x="671.5" y="-298.5" font-family="Helvetica,sans-Serif" font-size="10.00">/Jeu_de_Go/Sources/Graphics</text>
<text text-anchor="middle" x="738" y="-287.5" font-family="Helvetica,sans-Serif" font-size="10.00">/Game/Board.h</text>
</g>
<!-- Node1 -->
<g id="node2" class="node"><title>Node1</title>
<g id="a_node2"><a xlink:href="_globals_8h.html" target="_top" xlink:title="../Globals.h">
<polygon fill="none" stroke="black" points="575.5,-56.5 575.5,-75.5 642.5,-75.5 642.5,-56.5 575.5,-56.5"/>
<text text-anchor="middle" x="609" y="-63.5" font-family="Helvetica,sans-Serif" font-size="10.00">../Globals.h</text>
</a>
</g>
</g>
<!-- Node0&#45;&gt;Node1 -->
<g id="edge1" class="edge"><title>Node0&#45;&gt;Node1</title>
<path fill="none" stroke="midnightblue" d="M703.825,-280.355C670.011,-247.525 620.439,-191.986 600,-132 594.833,-116.836 598.058,-98.7176 602.015,-85.4668"/>
<polygon fill="midnightblue" stroke="midnightblue" points="605.446,-86.2469 605.343,-75.6526 598.817,-83.9992 605.446,-86.2469"/>
</g>
<!-- Node14 -->
<g id="node15" class="node"><title>Node14</title>
<g id="a_node15"><a xlink:href="_square_8h.html" target="_top" xlink:title="Square.h">
<polygon fill="none" stroke="black" points="609,-112.5 609,-131.5 665,-131.5 665,-112.5 609,-112.5"/>
<text text-anchor="middle" x="637" y="-119.5" font-family="Helvetica,sans-Serif" font-size="10.00">Square.h</text>
</a>
</g>
</g>
<!-- Node0&#45;&gt;Node14 -->
<g id="edge14" class="edge"><title>Node0&#45;&gt;Node14</title>
<path fill="none" stroke="midnightblue" d="M721.548,-280.376C700.263,-240.756 663.872,-173.019 646.618,-140.903"/>
<polygon fill="midnightblue" stroke="midnightblue" points="649.548,-138.961 641.732,-131.809 643.382,-142.274 649.548,-138.961"/>
</g>
<!-- Node16 -->
<g id="node17" class="node"><title>Node16</title>
<g id="a_node17"><a xlink:href="_goban_8h.html" target="_top" xlink:title="../../Engine/Goban.h">
<polygon fill="none" stroke="black" points="791,-168.5 791,-187.5 895,-187.5 895,-168.5 791,-168.5"/>
<text text-anchor="middle" x="843" y="-175.5" font-family="Helvetica,sans-Serif" font-size="10.00">../../Engine/Goban.h</text>
</a>
</g>
</g>
<!-- Node0&#45;&gt;Node16 -->
<g id="edge18" class="edge"><title>Node0&#45;&gt;Node16</title>
<path fill="none" stroke="midnightblue" d="M762.353,-280.385C783.345,-253.995 812.86,-216.89 829.748,-195.659"/>
<polygon fill="midnightblue" stroke="midnightblue" points="832.665,-197.615 836.151,-187.61 827.187,-193.257 832.665,-197.615"/>
</g>
<!-- Node21 -->
<g id="node22" class="node"><title>Node21</title>
<g id="a_node22"><a xlink:href="_arbre_8h.html" target="_top" xlink:title="../../Engine/Arbre.h">
<polygon fill="none" stroke="black" points="868.5,-224.5 868.5,-243.5 967.5,-243.5 967.5,-224.5 868.5,-224.5"/>
<text text-anchor="middle" x="918" y="-231.5" font-family="Helvetica,sans-Serif" font-size="10.00">../../Engine/Arbre.h</text>
</a>
</g>
</g>
<!-- Node0&#45;&gt;Node21 -->
<g id="edge31" class="edge"><title>Node0&#45;&gt;Node21</title>
<path fill="none" stroke="midnightblue" d="M810.435,-280.416C837.59,-268.951 866.966,-256.548 888.146,-247.605"/>
<polygon fill="midnightblue" stroke="midnightblue" points="889.7,-250.748 897.551,-243.634 886.977,-244.299 889.7,-250.748"/>
</g>
<!-- Node2 -->
<g id="node3" class="node"><title>Node2</title>
<polygon fill="none" stroke="#bfbfbf" points="0,-0.5 0,-19.5 104,-19.5 104,-0.5 0,-0.5"/>
<text text-anchor="middle" x="52" y="-7.5" font-family="Helvetica,sans-Serif" font-size="10.00">SFML/Graphics.hpp</text>
</g>
<!-- Node1&#45;&gt;Node2 -->
<g id="edge2" class="edge"><title>Node1&#45;&gt;Node2</title>
<path fill="none" stroke="midnightblue" d="M575.253,-62.5938C496.476,-56.8365 294.129,-41.2387 114.387,-20.1052"/>
<polygon fill="midnightblue" stroke="midnightblue" points="114.56,-16.6013 104.218,-18.9006 113.737,-23.5527 114.56,-16.6013"/>
</g>
<!-- Node3 -->
<g id="node4" class="node"><title>Node3</title>
<polygon fill="none" stroke="#bfbfbf" points="122,-0.5 122,-19.5 220,-19.5 220,-0.5 122,-0.5"/>
<text text-anchor="middle" x="171" y="-7.5" font-family="Helvetica,sans-Serif" font-size="10.00">SFML/System.hpp</text>
</g>
<!-- Node1&#45;&gt;Node3 -->
<g id="edge3" class="edge"><title>Node1&#45;&gt;Node3</title>
<path fill="none" stroke="midnightblue" d="M575.399,-61.4328C510.696,-54.4749 364.081,-38.2785 230.066,-20.1034"/>
<polygon fill="midnightblue" stroke="midnightblue" points="230.411,-16.6181 220.03,-18.7353 229.465,-23.554 230.411,-16.6181"/>
</g>
<!-- Node4 -->
<g id="node5" class="node"><title>Node4</title>
<polygon fill="none" stroke="#bfbfbf" points="238.5,-0.5 238.5,-19.5 337.5,-19.5 337.5,-0.5 238.5,-0.5"/>
<text text-anchor="middle" x="288" y="-7.5" font-family="Helvetica,sans-Serif" font-size="10.00">SFML/Window.hpp</text>
</g>
<!-- Node1&#45;&gt;Node4 -->
<g id="edge4" class="edge"><title>Node1&#45;&gt;Node4</title>
<path fill="none" stroke="midnightblue" d="M575.254,-59.3231C521.283,-50.244 414.813,-32.333 347.747,-21.051"/>
<polygon fill="midnightblue" stroke="midnightblue" points="348.185,-17.5755 337.743,-19.368 347.024,-24.4785 348.185,-17.5755"/>
</g>
<!-- Node5 -->
<g id="node6" class="node"><title>Node5</title>
<polygon fill="none" stroke="#bfbfbf" points="355.5,-0.5 355.5,-19.5 444.5,-19.5 444.5,-0.5 355.5,-0.5"/>
<text text-anchor="middle" x="400" y="-7.5" font-family="Helvetica,sans-Serif" font-size="10.00">SFML/Audio.hpp</text>
</g>
<!-- Node1&#45;&gt;Node5 -->
<g id="edge5" class="edge"><title>Node1&#45;&gt;Node5</title>
<path fill="none" stroke="midnightblue" d="M575.883,-56.4435C539.882,-47.1419 482.23,-32.246 442.814,-22.062"/>
<polygon fill="midnightblue" stroke="midnightblue" points="443.519,-18.6294 432.962,-19.5164 441.768,-25.4068 443.519,-18.6294"/>
</g>
<!-- Node6 -->
<g id="node7" class="node"><title>Node6</title>
<polygon fill="none" stroke="#bfbfbf" points="948,-0.5 948,-19.5 1002,-19.5 1002,-0.5 948,-0.5"/>
<text text-anchor="middle" x="975" y="-7.5" font-family="Helvetica,sans-Serif" font-size="10.00">iostream</text>
</g>
<!-- Node1&#45;&gt;Node6 -->
<g id="edge6" class="edge"><title>Node1&#45;&gt;Node6</title>
<path fill="none" stroke="midnightblue" d="M642.776,-60.0166C711.285,-49.9088 866.125,-27.0635 937.579,-16.5211"/>
<polygon fill="midnightblue" stroke="midnightblue" points="938.519,-19.9204 947.901,-14.9982 937.498,-12.9953 938.519,-19.9204"/>
</g>
<!-- Node7 -->
<g id="node8" class="node"><title>Node7</title>
<polygon fill="none" stroke="#bfbfbf" points="462.5,-0.5 462.5,-19.5 507.5,-19.5 507.5,-0.5 462.5,-0.5"/>
<text text-anchor="middle" x="485" y="-7.5" font-family="Helvetica,sans-Serif" font-size="10.00">cstdlib</text>
</g>
<!-- Node1&#45;&gt;Node7 -->
<g id="edge7" class="edge"><title>Node1&#45;&gt;Node7</title>
<path fill="none" stroke="midnightblue" d="M589.352,-56.4435C569.035,-47.5961 537.097,-33.6875 513.902,-23.5865"/>
<polygon fill="midnightblue" stroke="midnightblue" points="515.122,-20.3002 504.556,-19.5164 512.327,-26.7181 515.122,-20.3002"/>
</g>
<!-- Node8 -->
<g id="node9" class="node"><title>Node8</title>
<polygon fill="none" stroke="#bfbfbf" points="525.5,-0.5 525.5,-19.5 566.5,-19.5 566.5,-0.5 525.5,-0.5"/>
<text text-anchor="middle" x="546" y="-7.5" font-family="Helvetica,sans-Serif" font-size="10.00">string</text>
</g>
<!-- Node1&#45;&gt;Node8 -->
<g id="edge8" class="edge"><title>Node1&#45;&gt;Node8</title>
<path fill="none" stroke="midnightblue" d="M598.878,-56.324C589.474,-48.2631 575.256,-36.0765 563.931,-26.3695"/>
<polygon fill="midnightblue" stroke="midnightblue" points="566.177,-23.6844 556.306,-19.8339 561.621,-28.9993 566.177,-23.6844"/>
</g>
<!-- Node9 -->
<g id="node10" class="node"><title>Node9</title>
<polygon fill="none" stroke="#bfbfbf" points="584.5,-0.5 584.5,-19.5 633.5,-19.5 633.5,-0.5 584.5,-0.5"/>
<text text-anchor="middle" x="609" y="-7.5" font-family="Helvetica,sans-Serif" font-size="10.00">fstream</text>
</g>
<!-- Node1&#45;&gt;Node9 -->
<g id="edge9" class="edge"><title>Node1&#45;&gt;Node9</title>
<path fill="none" stroke="midnightblue" d="M609,-56.083C609,-49.0059 609,-38.8611 609,-29.9865"/>
<polygon fill="midnightblue" stroke="midnightblue" points="612.5,-29.751 609,-19.7511 605.5,-29.7511 612.5,-29.751"/>
</g>
<!-- Node10 -->
<g id="node11" class="node"><title>Node10</title>
<polygon fill="none" stroke="#bfbfbf" points="651.5,-0.5 651.5,-19.5 700.5,-19.5 700.5,-0.5 651.5,-0.5"/>
<text text-anchor="middle" x="676" y="-7.5" font-family="Helvetica,sans-Serif" font-size="10.00">cassert</text>
</g>
<!-- Node1&#45;&gt;Node10 -->
<g id="edge10" class="edge"><title>Node1&#45;&gt;Node10</title>
<path fill="none" stroke="midnightblue" d="M619.765,-56.324C629.766,-48.2631 644.887,-36.0765 656.93,-26.3695"/>
<polygon fill="midnightblue" stroke="midnightblue" points="659.45,-28.8343 665.039,-19.8339 655.057,-23.3841 659.45,-28.8343"/>
</g>
<!-- Node11 -->
<g id="node12" class="node"><title>Node11</title>
<polygon fill="none" stroke="#bfbfbf" points="781.5,-0.5 781.5,-19.5 840.5,-19.5 840.5,-0.5 781.5,-0.5"/>
<text text-anchor="middle" x="811" y="-7.5" font-family="Helvetica,sans-Serif" font-size="10.00">stdexcept</text>
</g>
<!-- Node1&#45;&gt;Node11 -->
<g id="edge11" class="edge"><title>Node1&#45;&gt;Node11</title>
<path fill="none" stroke="midnightblue" d="M641.008,-56.4435C676.444,-46.9705 733.584,-31.6953 771.707,-21.5041"/>
<polygon fill="midnightblue" stroke="midnightblue" points="772.686,-24.8654 781.442,-18.9015 770.878,-18.1029 772.686,-24.8654"/>
</g>
<!-- Node12 -->
<g id="node13" class="node"><title>Node12</title>
<polygon fill="none" stroke="#bfbfbf" points="719,-0.5 719,-19.5 763,-19.5 763,-0.5 719,-0.5"/>
<text text-anchor="middle" x="741" y="-7.5" font-family="Helvetica,sans-Serif" font-size="10.00">thread</text>
</g>
<!-- Node1&#45;&gt;Node12 -->
<g id="edge12" class="edge"><title>Node1&#45;&gt;Node12</title>
<path fill="none" stroke="midnightblue" d="M629.916,-56.4435C651.736,-47.5171 686.15,-33.4387 710.892,-23.3168"/>
<polygon fill="midnightblue" stroke="midnightblue" points="712.252,-26.5422 720.182,-19.5164 709.601,-20.0634 712.252,-26.5422"/>
</g>
<!-- Node13 -->
<g id="node14" class="node"><title>Node13</title>
<polygon fill="none" stroke="#bfbfbf" points="859,-0.5 859,-19.5 903,-19.5 903,-0.5 859,-0.5"/>
<text text-anchor="middle" x="881" y="-7.5" font-family="Helvetica,sans-Serif" font-size="10.00">cmath</text>
</g>
<!-- Node1&#45;&gt;Node13 -->
<g id="edge13" class="edge"><title>Node1&#45;&gt;Node13</title>
<path fill="none" stroke="midnightblue" d="M642.586,-59.6709C687.265,-52.371 768.887,-38.3043 848.487,-19.9298"/>
<polygon fill="midnightblue" stroke="midnightblue" points="849.744,-23.2306 858.686,-17.5487 848.152,-16.4139 849.744,-23.2306"/>
</g>
<!-- Node14&#45;&gt;Node1 -->
<g id="edge15" class="edge"><title>Node14&#45;&gt;Node1</title>
<path fill="none" stroke="midnightblue" d="M632.376,-112.083C628.544,-104.691 622.976,-93.9533 618.235,-84.8111"/>
<polygon fill="midnightblue" stroke="midnightblue" points="621.248,-83.0175 613.538,-75.7511 615.034,-86.2398 621.248,-83.0175"/>
</g>
<!-- Node15 -->
<g id="node16" class="node"><title>Node15</title>
<g id="a_node16"><a xlink:href="_etat_8h.html" target="_top" xlink:title="../../Engine/Etat.h">
<polygon fill="none" stroke="black" points="833,-56.5 833,-75.5 927,-75.5 927,-56.5 833,-56.5"/>
<text text-anchor="middle" x="880" y="-63.5" font-family="Helvetica,sans-Serif" font-size="10.00">../../Engine/Etat.h</text>
</a>
</g>
</g>
<!-- Node14&#45;&gt;Node15 -->
<g id="edge16" class="edge"><title>Node14&#45;&gt;Node15</title>
<path fill="none" stroke="midnightblue" d="M665.265,-114.052C668.213,-113.349 671.166,-112.654 674,-112 727.053,-99.7547 787.997,-86.5481 829.753,-77.6309"/>
<polygon fill="midnightblue" stroke="midnightblue" points="830.624,-81.0238 839.675,-75.5156 829.165,-74.1776 830.624,-81.0238"/>
</g>
<!-- Node15&#45;&gt;Node6 -->
<g id="edge17" class="edge"><title>Node15&#45;&gt;Node6</title>
<path fill="none" stroke="midnightblue" d="M895.263,-56.324C910.221,-47.8215 933.255,-34.7288 950.727,-24.7975"/>
<polygon fill="midnightblue" stroke="midnightblue" points="952.81,-27.639 959.774,-19.6545 949.351,-21.5534 952.81,-27.639"/>
</g>
<!-- Node16&#45;&gt;Node6 -->
<g id="edge19" class="edge"><title>Node16&#45;&gt;Node6</title>
<path fill="none" stroke="midnightblue" d="M879.702,-168.44C903.549,-161.53 934.304,-149.952 957,-132 980.788,-113.184 986.916,-104.938 996,-76 1001.04,-59.9508 994.046,-41.7315 986.809,-28.674"/>
<polygon fill="midnightblue" stroke="midnightblue" points="989.608,-26.5416 981.421,-19.8165 983.627,-30.1791 989.608,-26.5416"/>
</g>
<!-- Node16&#45;&gt;Node11 -->
<g id="edge30" class="edge"><title>Node16&#45;&gt;Node11</title>
<path fill="none" stroke="midnightblue" d="M827.217,-168.467C814.797,-160.769 798.395,-148.179 791,-132 776.958,-101.279 783.988,-89.0419 791,-56 792.997,-46.5915 797.101,-36.7618 801.075,-28.6981"/>
<polygon fill="midnightblue" stroke="midnightblue" points="804.307,-30.0721 805.87,-19.5932 798.113,-26.8101 804.307,-30.0721"/>
</g>
<!-- Node16&#45;&gt;Node13 -->
<g id="edge20" class="edge"><title>Node16&#45;&gt;Node13</title>
<path fill="none" stroke="midnightblue" d="M838.32,-168.279C827.927,-147.644 805.268,-94.6543 824,-56 830.397,-42.7996 842.752,-32.3032 854.329,-24.7794"/>
<polygon fill="midnightblue" stroke="midnightblue" points="856.155,-27.7653 862.918,-19.6099 852.546,-21.7678 856.155,-27.7653"/>
</g>
<!-- Node16&#45;&gt;Node15 -->
<g id="edge22" class="edge"><title>Node16&#45;&gt;Node15</title>
<path fill="none" stroke="midnightblue" d="M845.315,-168.084C848.652,-155.479 855.17,-131.782 862,-112 865.128,-102.94 869.036,-93.0338 872.411,-84.8277"/>
<polygon fill="midnightblue" stroke="midnightblue" points="875.668,-86.1102 876.301,-75.5343 869.211,-83.4071 875.668,-86.1102"/>
</g>
<!-- Node17 -->
<g id="node18" class="node"><title>Node17</title>
<polygon fill="none" stroke="#bfbfbf" points="945,-56.5 945,-75.5 987,-75.5 987,-56.5 945,-56.5"/>
<text text-anchor="middle" x="966" y="-63.5" font-family="Helvetica,sans-Serif" font-size="10.00">vector</text>
</g>
<!-- Node16&#45;&gt;Node17 -->
<g id="edge21" class="edge"><title>Node16&#45;&gt;Node17</title>
<path fill="none" stroke="midnightblue" d="M873.008,-168.389C892.988,-161.358 918.658,-149.662 936,-132 948.768,-118.997 956.751,-99.5659 961.243,-85.3359"/>
<polygon fill="midnightblue" stroke="midnightblue" points="964.625,-86.2378 964.018,-75.6604 957.896,-84.3078 964.625,-86.2378"/>
</g>
<!-- Node18 -->
<g id="node19" class="node"><title>Node18</title>
<g id="a_node19"><a xlink:href="_groupe_8h.html" target="_top" xlink:title="Groupe.h">
<polygon fill="none" stroke="black" points="871,-112.5 871,-131.5 927,-131.5 927,-112.5 871,-112.5"/>
<text text-anchor="middle" x="899" y="-119.5" font-family="Helvetica,sans-Serif" font-size="10.00">Groupe.h</text>
</a>
</g>
</g>
<!-- Node16&#45;&gt;Node18 -->
<g id="edge23" class="edge"><title>Node16&#45;&gt;Node18</title>
<path fill="none" stroke="midnightblue" d="M851.997,-168.324C860.194,-160.42 872.506,-148.548 882.472,-138.938"/>
<polygon fill="midnightblue" stroke="midnightblue" points="885.07,-141.295 889.839,-131.834 880.211,-136.256 885.07,-141.295"/>
</g>
<!-- Node19 -->
<g id="node20" class="node"><title>Node19</title>
<g id="a_node20"><a xlink:href="_history_8h.html" target="_top" xlink:title="History.h">
<polygon fill="none" stroke="black" points="683,-112.5 683,-131.5 739,-131.5 739,-112.5 683,-112.5"/>
<text text-anchor="middle" x="711" y="-119.5" font-family="Helvetica,sans-Serif" font-size="10.00">History.h</text>
</a>
</g>
</g>
<!-- Node16&#45;&gt;Node19 -->
<g id="edge26" class="edge"><title>Node16&#45;&gt;Node19</title>
<path fill="none" stroke="midnightblue" d="M822.084,-168.444C800.264,-159.517 765.85,-145.439 741.108,-135.317"/>
<polygon fill="midnightblue" stroke="midnightblue" points="742.399,-132.063 731.818,-131.516 739.748,-138.542 742.399,-132.063"/>
</g>
<!-- Node18&#45;&gt;Node15 -->
<g id="edge25" class="edge"><title>Node18&#45;&gt;Node15</title>
<path fill="none" stroke="midnightblue" d="M895.863,-112.083C893.317,-104.849 889.644,-94.4087 886.473,-85.3968"/>
<polygon fill="midnightblue" stroke="midnightblue" points="889.7,-84.0225 883.079,-75.7511 883.097,-86.3459 889.7,-84.0225"/>
</g>
<!-- Node18&#45;&gt;Node17 -->
<g id="edge24" class="edge"><title>Node18&#45;&gt;Node17</title>
<path fill="none" stroke="midnightblue" d="M909.765,-112.324C919.766,-104.263 934.887,-92.0765 946.93,-82.3695"/>
<polygon fill="midnightblue" stroke="midnightblue" points="949.45,-84.8343 955.039,-75.8339 945.057,-79.3841 949.45,-84.8343"/>
</g>
<!-- Node19&#45;&gt;Node1 -->
<g id="edge27" class="edge"><title>Node19&#45;&gt;Node1</title>
<path fill="none" stroke="midnightblue" d="M694.612,-112.324C678.329,-103.703 653.133,-90.3643 634.284,-80.3855"/>
<polygon fill="midnightblue" stroke="midnightblue" points="635.823,-77.2402 625.347,-75.6545 632.548,-83.4267 635.823,-77.2402"/>
</g>
<!-- Node19&#45;&gt;Node15 -->
<g id="edge28" class="edge"><title>Node19&#45;&gt;Node15</title>
<path fill="none" stroke="midnightblue" d="M737.779,-112.444C766.333,-103.32 811.733,-88.8133 843.537,-78.6509"/>
<polygon fill="midnightblue" stroke="midnightblue" points="844.886,-81.8941 853.347,-75.5164 842.756,-75.2262 844.886,-81.8941"/>
</g>
<!-- Node20 -->
<g id="node21" class="node"><title>Node20</title>
<polygon fill="none" stroke="#bfbfbf" points="696.5,-56.5 696.5,-75.5 725.5,-75.5 725.5,-56.5 696.5,-56.5"/>
<text text-anchor="middle" x="711" y="-63.5" font-family="Helvetica,sans-Serif" font-size="10.00">list</text>
</g>
<!-- Node19&#45;&gt;Node20 -->
<g id="edge29" class="edge"><title>Node19&#45;&gt;Node20</title>
<path fill="none" stroke="midnightblue" d="M711,-112.083C711,-105.006 711,-94.8611 711,-85.9865"/>
<polygon fill="midnightblue" stroke="midnightblue" points="714.5,-85.751 711,-75.7511 707.5,-85.7511 714.5,-85.751"/>
</g>
<!-- Node21&#45;&gt;Node6 -->
<g id="edge33" class="edge"><title>Node21&#45;&gt;Node6</title>
<path fill="none" stroke="midnightblue" d="M926.557,-224.211C934.758,-215.496 947.161,-201.524 956,-188 986.339,-141.579 998.452,-130.018 1011,-76 1013.01,-67.3416 1013.94,-64.3878 1011,-56 1007.21,-45.2094 999.633,-35.084 992.4,-27.1808"/>
<polygon fill="midnightblue" stroke="midnightblue" points="994.667,-24.4943 985.162,-19.8145 989.674,-29.4005 994.667,-24.4943"/>
</g>
<!-- Node21&#45;&gt;Node16 -->
<g id="edge32" class="edge"><title>Node21&#45;&gt;Node16</title>
<path fill="none" stroke="midnightblue" d="M905.95,-224.324C894.537,-216.107 877.169,-203.602 863.565,-193.807"/>
<polygon fill="midnightblue" stroke="midnightblue" points="865.43,-190.837 855.269,-187.834 861.34,-196.517 865.43,-190.837"/>
</g>
<!-- Node21&#45;&gt;Node17 -->
<g id="edge34" class="edge"><title>Node21&#45;&gt;Node17</title>
<path fill="none" stroke="midnightblue" d="M922.148,-224.309C930.181,-207.103 947.871,-167.304 957,-132 960.971,-116.645 963.284,-98.7672 964.569,-85.652"/>
<polygon fill="midnightblue" stroke="midnightblue" points="968.069,-85.8012 965.449,-75.5355 961.095,-85.1947 968.069,-85.8012"/>
</g>
</g>
</svg>
