<?xml version="1.0" encoding="UTF-8" standalone="no"?>
<!DOCTYPE svg PUBLIC "-//W3C//DTD SVG 1.1//EN"
 "http://www.w3.org/Graphics/SVG/1.1/DTD/svg11.dtd">
<!-- Generated by graphviz version 2.38.0 (20140413.2041)
 -->
<!-- Title: D:/Users/Victor/OneDrive/Documents/Visual Studio 2017/Projects/Jeu_de_Go/Jeu_de_Go/Sources/Graphics/Choice.h Pages: 1 -->
<svg width="864pt" height="572pt"
 viewBox="0.00 0.00 864.00 572.00" xmlns="http://www.w3.org/2000/svg" xmlns:xlink="http://www.w3.org/1999/xlink">
<g id="graph0" class="graph" transform="scale(1 1) rotate(0) translate(4 568)">
<title>D:/Users/Victor/OneDrive/Documents/Visual Studio 2017/Projects/Jeu_de_Go/Jeu_de_Go/Sources/Graphics/Choice.h</title>
<!-- Node15 -->
<g id="node1" class="node"><title>Node15</title>
<polygon fill="#bfbfbf" stroke="black" points="259,-500.5 259,-563.5 408,-563.5 408,-500.5 259,-500.5"/>
<text text-anchor="start" x="267" y="-551.5" font-family="Helvetica,sans-Serif" font-size="10.00">D:/Users/Victor/OneDrive</text>
<text text-anchor="start" x="267" y="-540.5" font-family="Helvetica,sans-Serif" font-size="10.00">/Documents/Visual Studio</text>
<text text-anchor="start" x="267" y="-529.5" font-family="Helvetica,sans-Serif" font-size="10.00"> 2017/Projects/Jeu_de_Go</text>
<text text-anchor="start" x="267" y="-518.5" font-family="Helvetica,sans-Serif" font-size="10.00">/Jeu_de_Go/Sources/Graphics</text>
<text text-anchor="middle" x="333.5" y="-507.5" font-family="Helvetica,sans-Serif" font-size="10.00">/Choice.h</text>
</g>
<!-- Node16 -->
<g id="node2" class="node"><title>Node16</title>
<g id="a_node2"><a xlink:href="_choice_8cpp.html" target="_top" xlink:title="D:/Users/Victor/OneDrive\l/Documents/Visual Studio\l 2017/Projects/Jeu_de_Go\l/Jeu_de_Go/Sources/Graphics\l/Choice.cpp">
<polygon fill="none" stroke="black" points="0,-400.5 0,-463.5 149,-463.5 149,-400.5 0,-400.5"/>
<text text-anchor="start" x="8" y="-451.5" font-family="Helvetica,sans-Serif" font-size="10.00">D:/Users/Victor/OneDrive</text>
<text text-anchor="start" x="8" y="-440.5" font-family="Helvetica,sans-Serif" font-size="10.00">/Documents/Visual Studio</text>
<text text-anchor="start" x="8" y="-429.5" font-family="Helvetica,sans-Serif" font-size="10.00"> 2017/Projects/Jeu_de_Go</text>
<text text-anchor="start" x="8" y="-418.5" font-family="Helvetica,sans-Serif" font-size="10.00">/Jeu_de_Go/Sources/Graphics</text>
<text text-anchor="middle" x="74.5" y="-407.5" font-family="Helvetica,sans-Serif" font-size="10.00">/Choice.cpp</text>
</a>
</g>
</g>
<!-- Node15&#45;&gt;Node16 -->
<g id="edge1" class="edge"><title>Node15&#45;&gt;Node16</title>
<path fill="none" stroke="midnightblue" d="M249.525,-499.226C217.298,-487.032 180.761,-473.207 149.437,-461.354"/>
<polygon fill="midnightblue" stroke="midnightblue" points="248.342,-502.52 258.934,-502.786 250.82,-495.973 248.342,-502.52"/>
</g>
<!-- Node17 -->
<g id="node3" class="node"><title>Node17</title>
<g id="a_node3"><a xlink:href="_choice__miniature_8h.html" target="_top" xlink:title="D:/Users/Victor/OneDrive\l/Documents/Visual Studio\l 2017/Projects/Jeu_de_Go\l/Jeu_de_Go/Sources/Graphics\l/Choice_miniature.h">
<polygon fill="none" stroke="black" points="167,-400.5 167,-463.5 316,-463.5 316,-400.5 167,-400.5"/>
<text text-anchor="start" x="175" y="-451.5" font-family="Helvetica,sans-Serif" font-size="10.00">D:/Users/Victor/OneDrive</text>
<text text-anchor="start" x="175" y="-440.5" font-family="Helvetica,sans-Serif" font-size="10.00">/Documents/Visual Studio</text>
<text text-anchor="start" x="175" y="-429.5" font-family="Helvetica,sans-Serif" font-size="10.00"> 2017/Projects/Jeu_de_Go</text>
<text text-anchor="start" x="175" y="-418.5" font-family="Helvetica,sans-Serif" font-size="10.00">/Jeu_de_Go/Sources/Graphics</text>
<text text-anchor="middle" x="241.5" y="-407.5" font-family="Helvetica,sans-Serif" font-size="10.00">/Choice_miniature.h</text>
</a>
</g>
</g>
<!-- Node15&#45;&gt;Node17 -->
<g id="edge2" class="edge"><title>Node15&#45;&gt;Node17</title>
<path fill="none" stroke="midnightblue" d="M297.533,-492.687C288.487,-483.051 278.896,-472.835 270.255,-463.63"/>
<polygon fill="midnightblue" stroke="midnightblue" points="295.247,-495.366 304.643,-500.261 300.35,-490.575 295.247,-495.366"/>
</g>
<!-- Node25 -->
<g id="node11" class="node"><title>Node25</title>
<g id="a_node11"><a xlink:href="_choice___simple_8h.html" target="_top" xlink:title="D:/Users/Victor/OneDrive\l/Documents/Visual Studio\l 2017/Projects/Jeu_de_Go\l/Jeu_de_Go/Sources/Graphics\l/Choice_Simple.h">
<polygon fill="none" stroke="black" points="540,-400.5 540,-463.5 689,-463.5 689,-400.5 540,-400.5"/>
<text text-anchor="start" x="548" y="-451.5" font-family="Helvetica,sans-Serif" font-size="10.00">D:/Users/Victor/OneDrive</text>
<text text-anchor="start" x="548" y="-440.5" font-family="Helvetica,sans-Serif" font-size="10.00">/Documents/Visual Studio</text>
<text text-anchor="start" x="548" y="-429.5" font-family="Helvetica,sans-Serif" font-size="10.00"> 2017/Projects/Jeu_de_Go</text>
<text text-anchor="start" x="548" y="-418.5" font-family="Helvetica,sans-Serif" font-size="10.00">/Jeu_de_Go/Sources/Graphics</text>
<text text-anchor="middle" x="614.5" y="-407.5" font-family="Helvetica,sans-Serif" font-size="10.00">/Choice_Simple.h</text>
</a>
</g>
</g>
<!-- Node15&#45;&gt;Node25 -->
<g id="edge10" class="edge"><title>Node15&#45;&gt;Node25</title>
<path fill="none" stroke="midnightblue" d="M417.674,-502.387C452.076,-490.613 492.235,-476.766 528.5,-464 532.243,-462.683 536.074,-461.327 539.942,-459.953"/>
<polygon fill="midnightblue" stroke="midnightblue" points="416.461,-499.103 408.132,-505.65 418.726,-505.726 416.461,-499.103"/>
</g>
<!-- Node29 -->
<g id="node15" class="node"><title>Node29</title>
<g id="a_node15"><a xlink:href="_menu_8h.html" target="_top" xlink:title="D:/Users/Victor/OneDrive\l/Documents/Visual Studio\l 2017/Projects/Jeu_de_Go\l/Jeu_de_Go/Sources/Graphics/Menu.h">
<polygon fill="none" stroke="black" points="334,-406 334,-458 519,-458 519,-406 334,-406"/>
<text text-anchor="start" x="342" y="-446" font-family="Helvetica,sans-Serif" font-size="10.00">D:/Users/Victor/OneDrive</text>
<text text-anchor="start" x="342" y="-435" font-family="Helvetica,sans-Serif" font-size="10.00">/Documents/Visual Studio</text>
<text text-anchor="start" x="342" y="-424" font-family="Helvetica,sans-Serif" font-size="10.00"> 2017/Projects/Jeu_de_Go</text>
<text text-anchor="middle" x="426.5" y="-413" font-family="Helvetica,sans-Serif" font-size="10.00">/Jeu_de_Go/Sources/Graphics/Menu.h</text>
</a>
</g>
</g>
<!-- Node15&#45;&gt;Node29 -->
<g id="edge15" class="edge"><title>Node15&#45;&gt;Node29</title>
<path fill="none" stroke="midnightblue" d="M369.793,-492.756C380.85,-481.104 392.718,-468.598 402.725,-458.054"/>
<polygon fill="midnightblue" stroke="midnightblue" points="367.015,-490.598 362.671,-500.261 372.093,-495.417 367.015,-490.598"/>
</g>
<!-- Node18 -->
<g id="node4" class="node"><title>Node18</title>
<g id="a_node4"><a xlink:href="_choice__miniature_8cpp.html" target="_top" xlink:title="D:/Users/Victor/OneDrive\l/Documents/Visual Studio\l 2017/Projects/Jeu_de_Go\l/Jeu_de_Go/Sources/Graphics\l/Choice_miniature.cpp">
<polygon fill="none" stroke="black" points="0,-300.5 0,-363.5 149,-363.5 149,-300.5 0,-300.5"/>
<text text-anchor="start" x="8" y="-351.5" font-family="Helvetica,sans-Serif" font-size="10.00">D:/Users/Victor/OneDrive</text>
<text text-anchor="start" x="8" y="-340.5" font-family="Helvetica,sans-Serif" font-size="10.00">/Documents/Visual Studio</text>
<text text-anchor="start" x="8" y="-329.5" font-family="Helvetica,sans-Serif" font-size="10.00"> 2017/Projects/Jeu_de_Go</text>
<text text-anchor="start" x="8" y="-318.5" font-family="Helvetica,sans-Serif" font-size="10.00">/Jeu_de_Go/Sources/Graphics</text>
<text text-anchor="middle" x="74.5" y="-307.5" font-family="Helvetica,sans-Serif" font-size="10.00">/Choice_miniature.cpp</text>
</a>
</g>
</g>
<!-- Node17&#45;&gt;Node18 -->
<g id="edge3" class="edge"><title>Node17&#45;&gt;Node18</title>
<path fill="none" stroke="midnightblue" d="M180.094,-394.966C162.56,-384.676 143.624,-373.564 126.696,-363.63"/>
<polygon fill="midnightblue" stroke="midnightblue" points="178.722,-398.218 189.118,-400.261 182.265,-392.181 178.722,-398.218"/>
</g>
<!-- Node19 -->
<g id="node5" class="node"><title>Node19</title>
<g id="a_node5"><a xlink:href="_menu___miniature_8h.html" target="_top" xlink:title="D:/Users/Victor/OneDrive\l/Documents/Visual Studio\l 2017/Projects/Jeu_de_Go\l/Jeu_de_Go/Sources/Graphics\l/Menu_Miniature.h">
<polygon fill="none" stroke="black" points="167,-300.5 167,-363.5 316,-363.5 316,-300.5 167,-300.5"/>
<text text-anchor="start" x="175" y="-351.5" font-family="Helvetica,sans-Serif" font-size="10.00">D:/Users/Victor/OneDrive</text>
<text text-anchor="start" x="175" y="-340.5" font-family="Helvetica,sans-Serif" font-size="10.00">/Documents/Visual Studio</text>
<text text-anchor="start" x="175" y="-329.5" font-family="Helvetica,sans-Serif" font-size="10.00"> 2017/Projects/Jeu_de_Go</text>
<text text-anchor="start" x="175" y="-318.5" font-family="Helvetica,sans-Serif" font-size="10.00">/Jeu_de_Go/Sources/Graphics</text>
<text text-anchor="middle" x="241.5" y="-307.5" font-family="Helvetica,sans-Serif" font-size="10.00">/Menu_Miniature.h</text>
</a>
</g>
</g>
<!-- Node17&#45;&gt;Node19 -->
<g id="edge4" class="edge"><title>Node17&#45;&gt;Node19</title>
<path fill="none" stroke="midnightblue" d="M241.5,-390.099C241.5,-381.238 241.5,-372.015 241.5,-363.63"/>
<polygon fill="midnightblue" stroke="midnightblue" points="238,-390.261 241.5,-400.261 245,-390.261 238,-390.261"/>
</g>
<!-- Node20 -->
<g id="node6" class="node"><title>Node20</title>
<g id="a_node6"><a xlink:href="_screens_8h.html" target="_top" xlink:title="D:/Users/Victor/OneDrive\l/Documents/Visual Studio\l 2017/Projects/Jeu_de_Go\l/Jeu_de_Go/Sources/Graphics\l/Screens.h">
<polygon fill="none" stroke="black" points="302,-200.5 302,-263.5 451,-263.5 451,-200.5 302,-200.5"/>
<text text-anchor="start" x="310" y="-251.5" font-family="Helvetica,sans-Serif" font-size="10.00">D:/Users/Victor/OneDrive</text>
<text text-anchor="start" x="310" y="-240.5" font-family="Helvetica,sans-Serif" font-size="10.00">/Documents/Visual Studio</text>
<text text-anchor="start" x="310" y="-229.5" font-family="Helvetica,sans-Serif" font-size="10.00"> 2017/Projects/Jeu_de_Go</text>
<text text-anchor="start" x="310" y="-218.5" font-family="Helvetica,sans-Serif" font-size="10.00">/Jeu_de_Go/Sources/Graphics</text>
<text text-anchor="middle" x="376.5" y="-207.5" font-family="Helvetica,sans-Serif" font-size="10.00">/Screens.h</text>
</a>
</g>
</g>
<!-- Node19&#45;&gt;Node20 -->
<g id="edge5" class="edge"><title>Node19&#45;&gt;Node20</title>
<path fill="none" stroke="midnightblue" d="M292.312,-294.114C306.155,-284.065 320.998,-273.29 334.306,-263.63"/>
<polygon fill="midnightblue" stroke="midnightblue" points="289.881,-291.554 283.844,-300.261 293.993,-297.219 289.881,-291.554"/>
</g>
<!-- Node24 -->
<g id="node10" class="node"><title>Node24</title>
<g id="a_node10"><a xlink:href="_menu___miniature_8cpp.html" target="_top" xlink:title="D:/Users/Victor/OneDrive\l/Documents/Visual Studio\l 2017/Projects/Jeu_de_Go\l/Jeu_de_Go/Sources/Graphics\l/Menu_Miniature.cpp">
<polygon fill="none" stroke="black" points="135,-200.5 135,-263.5 284,-263.5 284,-200.5 135,-200.5"/>
<text text-anchor="start" x="143" y="-251.5" font-family="Helvetica,sans-Serif" font-size="10.00">D:/Users/Victor/OneDrive</text>
<text text-anchor="start" x="143" y="-240.5" font-family="Helvetica,sans-Serif" font-size="10.00">/Documents/Visual Studio</text>
<text text-anchor="start" x="143" y="-229.5" font-family="Helvetica,sans-Serif" font-size="10.00"> 2017/Projects/Jeu_de_Go</text>
<text text-anchor="start" x="143" y="-218.5" font-family="Helvetica,sans-Serif" font-size="10.00">/Jeu_de_Go/Sources/Graphics</text>
<text text-anchor="middle" x="209.5" y="-207.5" font-family="Helvetica,sans-Serif" font-size="10.00">/Menu_Miniature.cpp</text>
</a>
</g>
</g>
<!-- Node19&#45;&gt;Node24 -->
<g id="edge9" class="edge"><title>Node19&#45;&gt;Node24</title>
<path fill="none" stroke="midnightblue" d="M228.333,-290.676C225.382,-281.64 222.299,-272.197 219.502,-263.63"/>
<polygon fill="midnightblue" stroke="midnightblue" points="225.032,-291.841 231.463,-300.261 231.686,-289.669 225.032,-291.841"/>
</g>
<!-- Node21 -->
<g id="node7" class="node"><title>Node21</title>
<g id="a_node7"><a xlink:href="_go___solver_8h.html" target="_top" xlink:title="D:/Users/Victor/OneDrive\l/Documents/Visual Studio\l 2017/Projects/Jeu_de_Go\l/Jeu_de_Go/Sources/Graphics\l/Go_Solver.h">
<polygon fill="none" stroke="black" points="302,-100.5 302,-163.5 451,-163.5 451,-100.5 302,-100.5"/>
<text text-anchor="start" x="310" y="-151.5" font-family="Helvetica,sans-Serif" font-size="10.00">D:/Users/Victor/OneDrive</text>
<text text-anchor="start" x="310" y="-140.5" font-family="Helvetica,sans-Serif" font-size="10.00">/Documents/Visual Studio</text>
<text text-anchor="start" x="310" y="-129.5" font-family="Helvetica,sans-Serif" font-size="10.00"> 2017/Projects/Jeu_de_Go</text>
<text text-anchor="start" x="310" y="-118.5" font-family="Helvetica,sans-Serif" font-size="10.00">/Jeu_de_Go/Sources/Graphics</text>
<text text-anchor="middle" x="376.5" y="-107.5" font-family="Helvetica,sans-Serif" font-size="10.00">/Go_Solver.h</text>
</a>
</g>
</g>
<!-- Node20&#45;&gt;Node21 -->
<g id="edge6" class="edge"><title>Node20&#45;&gt;Node21</title>
<path fill="none" stroke="midnightblue" d="M376.5,-190.099C376.5,-181.238 376.5,-172.015 376.5,-163.63"/>
<polygon fill="midnightblue" stroke="midnightblue" points="373,-190.261 376.5,-200.261 380,-190.261 373,-190.261"/>
</g>
<!-- Node22 -->
<g id="node8" class="node"><title>Node22</title>
<g id="a_node8"><a xlink:href="_go___solver_8cpp.html" target="_top" xlink:title="D:/Users/Victor/OneDrive\l/Documents/Visual Studio\l 2017/Projects/Jeu_de_Go\l/Jeu_de_Go/Sources/Graphics\l/Go_Solver.cpp">
<polygon fill="none" stroke="black" points="219,-0.5 219,-63.5 368,-63.5 368,-0.5 219,-0.5"/>
<text text-anchor="start" x="227" y="-51.5" font-family="Helvetica,sans-Serif" font-size="10.00">D:/Users/Victor/OneDrive</text>
<text text-anchor="start" x="227" y="-40.5" font-family="Helvetica,sans-Serif" font-size="10.00">/Documents/Visual Studio</text>
<text text-anchor="start" x="227" y="-29.5" font-family="Helvetica,sans-Serif" font-size="10.00"> 2017/Projects/Jeu_de_Go</text>
<text text-anchor="start" x="227" y="-18.5" font-family="Helvetica,sans-Serif" font-size="10.00">/Jeu_de_Go/Sources/Graphics</text>
<text text-anchor="middle" x="293.5" y="-7.5" font-family="Helvetica,sans-Serif" font-size="10.00">/Go_Solver.cpp</text>
</a>
</g>
</g>
<!-- Node21&#45;&gt;Node22 -->
<g id="edge7" class="edge"><title>Node21&#45;&gt;Node22</title>
<path fill="none" stroke="midnightblue" d="M343.809,-92.4011C335.719,-82.8488 327.16,-72.7436 319.442,-63.6299"/>
<polygon fill="midnightblue" stroke="midnightblue" points="341.332,-94.8922 350.466,-100.261 346.674,-90.3681 341.332,-94.8922"/>
</g>
<!-- Node23 -->
<g id="node9" class="node"><title>Node23</title>
<g id="a_node9"><a xlink:href="_main_8cpp.html" target="_top" xlink:title="D:/Users/Victor/OneDrive\l/Documents/Visual Studio\l 2017/Projects/Jeu_de_Go\l/Jeu_de_Go/Sources/Graphics\l/Main.cpp">
<polygon fill="none" stroke="black" points="386,-0.5 386,-63.5 535,-63.5 535,-0.5 386,-0.5"/>
<text text-anchor="start" x="394" y="-51.5" font-family="Helvetica,sans-Serif" font-size="10.00">D:/Users/Victor/OneDrive</text>
<text text-anchor="start" x="394" y="-40.5" font-family="Helvetica,sans-Serif" font-size="10.00">/Documents/Visual Studio</text>
<text text-anchor="start" x="394" y="-29.5" font-family="Helvetica,sans-Serif" font-size="10.00"> 2017/Projects/Jeu_de_Go</text>
<text text-anchor="start" x="394" y="-18.5" font-family="Helvetica,sans-Serif" font-size="10.00">/Jeu_de_Go/Sources/Graphics</text>
<text text-anchor="middle" x="460.5" y="-7.5" font-family="Helvetica,sans-Serif" font-size="10.00">/Main.cpp</text>
</a>
</g>
</g>
<!-- Node21&#45;&gt;Node23 -->
<g id="edge8" class="edge"><title>Node21&#45;&gt;Node23</title>
<path fill="none" stroke="midnightblue" d="M409.585,-92.4011C417.772,-82.8488 426.434,-72.7436 434.246,-63.6299"/>
<polygon fill="midnightblue" stroke="midnightblue" points="406.698,-90.3907 402.848,-100.261 412.013,-94.9463 406.698,-90.3907"/>
</g>
<!-- Node26 -->
<g id="node12" class="node"><title>Node26</title>
<g id="a_node12"><a xlink:href="_choice___simple_8cpp.html" target="_top" xlink:title="D:/Users/Victor/OneDrive\l/Documents/Visual Studio\l 2017/Projects/Jeu_de_Go\l/Jeu_de_Go/Sources/Graphics\l/Choice_Simple.cpp">
<polygon fill="none" stroke="black" points="707,-300.5 707,-363.5 856,-363.5 856,-300.5 707,-300.5"/>
<text text-anchor="start" x="715" y="-351.5" font-family="Helvetica,sans-Serif" font-size="10.00">D:/Users/Victor/OneDrive</text>
<text text-anchor="start" x="715" y="-340.5" font-family="Helvetica,sans-Serif" font-size="10.00">/Documents/Visual Studio</text>
<text text-anchor="start" x="715" y="-329.5" font-family="Helvetica,sans-Serif" font-size="10.00"> 2017/Projects/Jeu_de_Go</text>
<text text-anchor="start" x="715" y="-318.5" font-family="Helvetica,sans-Serif" font-size="10.00">/Jeu_de_Go/Sources/Graphics</text>
<text text-anchor="middle" x="781.5" y="-307.5" font-family="Helvetica,sans-Serif" font-size="10.00">/Choice_Simple.cpp</text>
</a>
</g>
</g>
<!-- Node25&#45;&gt;Node26 -->
<g id="edge11" class="edge"><title>Node25&#45;&gt;Node26</title>
<path fill="none" stroke="midnightblue" d="M675.906,-394.966C693.44,-384.676 712.376,-373.564 729.304,-363.63"/>
<polygon fill="midnightblue" stroke="midnightblue" points="673.735,-392.181 666.882,-400.261 677.278,-398.218 673.735,-392.181"/>
</g>
<!-- Node27 -->
<g id="node13" class="node"><title>Node27</title>
<g id="a_node13"><a xlink:href="_menu__simple_8h.html" target="_top" xlink:title="D:/Users/Victor/OneDrive\l/Documents/Visual Studio\l 2017/Projects/Jeu_de_Go\l/Jeu_de_Go/Sources/Graphics\l/Menu_simple.h">
<polygon fill="none" stroke="black" points="540,-300.5 540,-363.5 689,-363.5 689,-300.5 540,-300.5"/>
<text text-anchor="start" x="548" y="-351.5" font-family="Helvetica,sans-Serif" font-size="10.00">D:/Users/Victor/OneDrive</text>
<text text-anchor="start" x="548" y="-340.5" font-family="Helvetica,sans-Serif" font-size="10.00">/Documents/Visual Studio</text>
<text text-anchor="start" x="548" y="-329.5" font-family="Helvetica,sans-Serif" font-size="10.00"> 2017/Projects/Jeu_de_Go</text>
<text text-anchor="start" x="548" y="-318.5" font-family="Helvetica,sans-Serif" font-size="10.00">/Jeu_de_Go/Sources/Graphics</text>
<text text-anchor="middle" x="614.5" y="-307.5" font-family="Helvetica,sans-Serif" font-size="10.00">/Menu_simple.h</text>
</a>
</g>
</g>
<!-- Node25&#45;&gt;Node27 -->
<g id="edge12" class="edge"><title>Node25&#45;&gt;Node27</title>
<path fill="none" stroke="midnightblue" d="M614.5,-390.099C614.5,-381.238 614.5,-372.015 614.5,-363.63"/>
<polygon fill="midnightblue" stroke="midnightblue" points="611,-390.261 614.5,-400.261 618,-390.261 611,-390.261"/>
</g>
<!-- Node27&#45;&gt;Node20 -->
<g id="edge13" class="edge"><title>Node27&#45;&gt;Node20</title>
<path fill="none" stroke="midnightblue" d="M530.688,-296.489C504.606,-285.75 476.046,-273.99 450.671,-263.541"/>
<polygon fill="midnightblue" stroke="midnightblue" points="529.595,-299.824 540.174,-300.395 532.26,-293.351 529.595,-299.824"/>
</g>
<!-- Node28 -->
<g id="node14" class="node"><title>Node28</title>
<g id="a_node14"><a xlink:href="_menu__simple_8cpp.html" target="_top" xlink:title="D:/Users/Victor/OneDrive\l/Documents/Visual Studio\l 2017/Projects/Jeu_de_Go\l/Jeu_de_Go/Sources/Graphics\l/Menu_simple.cpp">
<polygon fill="none" stroke="black" points="540,-200.5 540,-263.5 689,-263.5 689,-200.5 540,-200.5"/>
<text text-anchor="start" x="548" y="-251.5" font-family="Helvetica,sans-Serif" font-size="10.00">D:/Users/Victor/OneDrive</text>
<text text-anchor="start" x="548" y="-240.5" font-family="Helvetica,sans-Serif" font-size="10.00">/Documents/Visual Studio</text>
<text text-anchor="start" x="548" y="-229.5" font-family="Helvetica,sans-Serif" font-size="10.00"> 2017/Projects/Jeu_de_Go</text>
<text text-anchor="start" x="548" y="-218.5" font-family="Helvetica,sans-Serif" font-size="10.00">/Jeu_de_Go/Sources/Graphics</text>
<text text-anchor="middle" x="614.5" y="-207.5" font-family="Helvetica,sans-Serif" font-size="10.00">/Menu_simple.cpp</text>
</a>
</g>
</g>
<!-- Node27&#45;&gt;Node28 -->
<g id="edge14" class="edge"><title>Node27&#45;&gt;Node28</title>
<path fill="none" stroke="midnightblue" d="M614.5,-290.099C614.5,-281.238 614.5,-272.015 614.5,-263.63"/>
<polygon fill="midnightblue" stroke="midnightblue" points="611,-290.261 614.5,-300.261 618,-290.261 611,-290.261"/>
</g>
<!-- Node29&#45;&gt;Node19 -->
<g id="edge17" class="edge"><title>Node29&#45;&gt;Node19</title>
<path fill="none" stroke="midnightblue" d="M369.807,-400.968C347.411,-389.104 321.703,-375.486 299.209,-363.57"/>
<polygon fill="midnightblue" stroke="midnightblue" points="368.383,-404.174 378.858,-405.763 371.66,-397.989 368.383,-404.174"/>
</g>
<!-- Node29&#45;&gt;Node20 -->
<g id="edge16" class="edge"><title>Node29&#45;&gt;Node20</title>
<path fill="none" stroke="midnightblue" d="M386.766,-398.513C377.342,-388.532 368.563,-376.775 363.5,-364 350.575,-331.386 357.824,-290.785 365.7,-263.5"/>
<polygon fill="midnightblue" stroke="midnightblue" points="384.499,-401.196 394.047,-405.786 389.446,-396.243 384.499,-401.196"/>
</g>
<!-- Node29&#45;&gt;Node27 -->
<g id="edge18" class="edge"><title>Node29&#45;&gt;Node27</title>
<path fill="none" stroke="midnightblue" d="M483.81,-401.126C506.64,-389.225 532.895,-375.539 555.855,-363.57"/>
<polygon fill="midnightblue" stroke="midnightblue" points="482.164,-398.036 474.915,-405.763 485.4,-404.244 482.164,-398.036"/>
</g>
<!-- Node30 -->
<g id="node16" class="node"><title>Node30</title>
<g id="a_node16"><a xlink:href="_menu_8cpp.html" target="_top" xlink:title="D:/Users/Victor/OneDrive\l/Documents/Visual Studio\l 2017/Projects/Jeu_de_Go\l/Jeu_de_Go/Sources/Graphics\l/Menu.cpp">
<polygon fill="none" stroke="black" points="373,-300.5 373,-363.5 522,-363.5 522,-300.5 373,-300.5"/>
<text text-anchor="start" x="381" y="-351.5" font-family="Helvetica,sans-Serif" font-size="10.00">D:/Users/Victor/OneDrive</text>
<text text-anchor="start" x="381" y="-340.5" font-family="Helvetica,sans-Serif" font-size="10.00">/Documents/Visual Studio</text>
<text text-anchor="start" x="381" y="-329.5" font-family="Helvetica,sans-Serif" font-size="10.00"> 2017/Projects/Jeu_de_Go</text>
<text text-anchor="start" x="381" y="-318.5" font-family="Helvetica,sans-Serif" font-size="10.00">/Jeu_de_Go/Sources/Graphics</text>
<text text-anchor="middle" x="447.5" y="-307.5" font-family="Helvetica,sans-Serif" font-size="10.00">/Menu.cpp</text>
</a>
</g>
</g>
<!-- Node29&#45;&gt;Node30 -->
<g id="edge19" class="edge"><title>Node29&#45;&gt;Node30</title>
<path fill="none" stroke="midnightblue" d="M434.066,-395.692C436.305,-385.241 438.738,-373.887 440.911,-363.749"/>
<polygon fill="midnightblue" stroke="midnightblue" points="430.581,-395.251 431.908,-405.763 437.426,-396.718 430.581,-395.251"/>
</g>
</g>
</svg>
