<?xml version="1.0" encoding="UTF-8" standalone="no"?>
<!DOCTYPE svg PUBLIC "-//W3C//DTD SVG 1.1//EN"
 "http://www.w3.org/Graphics/SVG/1.1/DTD/svg11.dtd">
<!-- Generated by graphviz version 2.38.0 (20140413.2041)
 -->
<!-- Title: D:/Users/Victor/OneDrive/Documents/Visual Studio 2017/Projects/Jeu_de_Go/Jeu_de_Go/Sources/Graphics/Choice.h Pages: 1 -->
<svg width="983pt" height="184pt"
 viewBox="0.00 0.00 982.50 184.00" xmlns="http://www.w3.org/2000/svg" xmlns:xlink="http://www.w3.org/1999/xlink">
<g id="graph0" class="graph" transform="scale(1 1) rotate(0) translate(4 180)">
<title>D:/Users/Victor/OneDrive/Documents/Visual Studio 2017/Projects/Jeu_de_Go/Jeu_de_Go/Sources/Graphics/Choice.h</title>
<!-- Node0 -->
<g id="node1" class="node"><title>Node0</title>
<polygon fill="#bfbfbf" stroke="black" points="542.5,-112.5 542.5,-175.5 691.5,-175.5 691.5,-112.5 542.5,-112.5"/>
<text text-anchor="start" x="550.5" y="-163.5" font-family="Helvetica,sans-Serif" font-size="10.00">D:/Users/Victor/OneDrive</text>
<text text-anchor="start" x="550.5" y="-152.5" font-family="Helvetica,sans-Serif" font-size="10.00">/Documents/Visual Studio</text>
<text text-anchor="start" x="550.5" y="-141.5" font-family="Helvetica,sans-Serif" font-size="10.00"> 2017/Projects/Jeu_de_Go</text>
<text text-anchor="start" x="550.5" y="-130.5" font-family="Helvetica,sans-Serif" font-size="10.00">/Jeu_de_Go/Sources/Graphics</text>
<text text-anchor="middle" x="617" y="-119.5" font-family="Helvetica,sans-Serif" font-size="10.00">/Choice.h</text>
</g>
<!-- Node1 -->
<g id="node2" class="node"><title>Node1</title>
<g id="a_node2"><a xlink:href="_globals_8h.html" target="_top" xlink:title="Globals.h">
<polygon fill="none" stroke="black" points="560,-56.5 560,-75.5 618,-75.5 618,-56.5 560,-56.5"/>
<text text-anchor="middle" x="589" y="-63.5" font-family="Helvetica,sans-Serif" font-size="10.00">Globals.h</text>
</a>
</g>
</g>
<!-- Node0&#45;&gt;Node1 -->
<g id="edge1" class="edge"><title>Node0&#45;&gt;Node1</title>
<path fill="none" stroke="midnightblue" d="M605.611,-112.088C602.243,-102.944 598.665,-93.2326 595.696,-85.1737"/>
<polygon fill="midnightblue" stroke="midnightblue" points="598.953,-83.8916 592.212,-75.7182 592.385,-86.3116 598.953,-83.8916"/>
</g>
<!-- Node6 -->
<g id="node7" class="node"><title>Node6</title>
<polygon fill="none" stroke="#bfbfbf" points="0,-0.5 0,-19.5 54,-19.5 54,-0.5 0,-0.5"/>
<text text-anchor="middle" x="27" y="-7.5" font-family="Helvetica,sans-Serif" font-size="10.00">iostream</text>
</g>
<!-- Node0&#45;&gt;Node6 -->
<g id="edge16" class="edge"><title>Node0&#45;&gt;Node6</title>
<path fill="none" stroke="midnightblue" d="M542.482,-127.112C437.901,-104.667 241.423,-61.9668 63.8875,-20.165"/>
<polygon fill="midnightblue" stroke="midnightblue" points="64.6445,-16.7476 54.1081,-17.8587 63.0377,-23.5607 64.6445,-16.7476"/>
</g>
<!-- Node8 -->
<g id="node9" class="node"><title>Node8</title>
<polygon fill="none" stroke="#bfbfbf" points="933.5,-0.5 933.5,-19.5 974.5,-19.5 974.5,-0.5 933.5,-0.5"/>
<text text-anchor="middle" x="954" y="-7.5" font-family="Helvetica,sans-Serif" font-size="10.00">string</text>
</g>
<!-- Node0&#45;&gt;Node8 -->
<g id="edge14" class="edge"><title>Node0&#45;&gt;Node8</title>
<path fill="none" stroke="midnightblue" d="M626.01,-112.335C633.33,-93.0157 645.669,-69.2928 665,-56 758.144,8.04815 807.701,-41.8733 923.524,-19.6652"/>
<polygon fill="midnightblue" stroke="midnightblue" points="924.365,-23.0654 933.452,-17.6171 922.951,-16.2098 924.365,-23.0654"/>
</g>
<!-- Node14 -->
<g id="node15" class="node"><title>Node14</title>
<polygon fill="none" stroke="#bfbfbf" points="674,-56.5 674,-75.5 732,-75.5 732,-56.5 674,-56.5"/>
<text text-anchor="middle" x="703" y="-63.5" font-family="Helvetica,sans-Serif" font-size="10.00">functional</text>
</g>
<!-- Node0&#45;&gt;Node14 -->
<g id="edge15" class="edge"><title>Node0&#45;&gt;Node14</title>
<path fill="none" stroke="midnightblue" d="M651.979,-112.088C663.489,-101.917 675.793,-91.0431 685.435,-82.5229"/>
<polygon fill="midnightblue" stroke="midnightblue" points="687.959,-84.9628 693.135,-75.7182 683.324,-79.7175 687.959,-84.9628"/>
</g>
<!-- Node2 -->
<g id="node3" class="node"><title>Node2</title>
<polygon fill="none" stroke="#bfbfbf" points="72,-0.5 72,-19.5 176,-19.5 176,-0.5 72,-0.5"/>
<text text-anchor="middle" x="124" y="-7.5" font-family="Helvetica,sans-Serif" font-size="10.00">SFML/Graphics.hpp</text>
</g>
<!-- Node1&#45;&gt;Node2 -->
<g id="edge2" class="edge"><title>Node1&#45;&gt;Node2</title>
<path fill="none" stroke="midnightblue" d="M559.556,-62.0828C494.321,-55.542 332.467,-38.8869 186.277,-20.1266"/>
<polygon fill="midnightblue" stroke="midnightblue" points="186.592,-16.6383 176.226,-18.8302 185.697,-23.5808 186.592,-16.6383"/>
</g>
<!-- Node3 -->
<g id="node4" class="node"><title>Node3</title>
<polygon fill="none" stroke="#bfbfbf" points="194,-0.5 194,-19.5 292,-19.5 292,-0.5 194,-0.5"/>
<text text-anchor="middle" x="243" y="-7.5" font-family="Helvetica,sans-Serif" font-size="10.00">SFML/System.hpp</text>
</g>
<!-- Node1&#45;&gt;Node3 -->
<g id="edge3" class="edge"><title>Node1&#45;&gt;Node3</title>
<path fill="none" stroke="midnightblue" d="M559.798,-60.4425C503.159,-51.6028 377.379,-31.9724 302.464,-20.2805"/>
<polygon fill="midnightblue" stroke="midnightblue" points="302.663,-16.7693 292.243,-18.6854 301.584,-23.6856 302.663,-16.7693"/>
</g>
<!-- Node4 -->
<g id="node5" class="node"><title>Node4</title>
<polygon fill="none" stroke="#bfbfbf" points="310.5,-0.5 310.5,-19.5 409.5,-19.5 409.5,-0.5 310.5,-0.5"/>
<text text-anchor="middle" x="360" y="-7.5" font-family="Helvetica,sans-Serif" font-size="10.00">SFML/Window.hpp</text>
</g>
<!-- Node1&#45;&gt;Node4 -->
<g id="edge4" class="edge"><title>Node1&#45;&gt;Node4</title>
<path fill="none" stroke="midnightblue" d="M559.997,-58.1609C521.283,-49.0318 452.272,-32.7584 406.314,-21.9213"/>
<polygon fill="midnightblue" stroke="midnightblue" points="406.842,-18.4498 396.305,-19.5611 405.235,-25.2629 406.842,-18.4498"/>
</g>
<!-- Node5 -->
<g id="node6" class="node"><title>Node5</title>
<polygon fill="none" stroke="#bfbfbf" points="427.5,-0.5 427.5,-19.5 516.5,-19.5 516.5,-0.5 427.5,-0.5"/>
<text text-anchor="middle" x="472" y="-7.5" font-family="Helvetica,sans-Serif" font-size="10.00">SFML/Audio.hpp</text>
</g>
<!-- Node1&#45;&gt;Node5 -->
<g id="edge5" class="edge"><title>Node1&#45;&gt;Node5</title>
<path fill="none" stroke="midnightblue" d="M570.461,-56.4435C551.377,-47.6356 521.425,-33.8116 499.564,-23.722"/>
<polygon fill="midnightblue" stroke="midnightblue" points="500.999,-20.5292 490.452,-19.5164 498.065,-26.8849 500.999,-20.5292"/>
</g>
<!-- Node1&#45;&gt;Node6 -->
<g id="edge6" class="edge"><title>Node1&#45;&gt;Node6</title>
<path fill="none" stroke="midnightblue" d="M559.715,-64.1333C481.023,-61.4584 258.378,-51.6123 64.1348,-19.922"/>
<polygon fill="midnightblue" stroke="midnightblue" points="64.467,-16.4294 54.0296,-18.2491 63.3236,-23.3354 64.467,-16.4294"/>
</g>
<!-- Node7 -->
<g id="node8" class="node"><title>Node7</title>
<polygon fill="none" stroke="#bfbfbf" points="534.5,-0.5 534.5,-19.5 579.5,-19.5 579.5,-0.5 534.5,-0.5"/>
<text text-anchor="middle" x="557" y="-7.5" font-family="Helvetica,sans-Serif" font-size="10.00">cstdlib</text>
</g>
<!-- Node1&#45;&gt;Node7 -->
<g id="edge7" class="edge"><title>Node1&#45;&gt;Node7</title>
<path fill="none" stroke="midnightblue" d="M583.716,-56.083C579.289,-48.6127 572.837,-37.7244 567.382,-28.5199"/>
<polygon fill="midnightblue" stroke="midnightblue" points="570.295,-26.5697 562.186,-19.7511 564.273,-30.1383 570.295,-26.5697"/>
</g>
<!-- Node1&#45;&gt;Node8 -->
<g id="edge8" class="edge"><title>Node1&#45;&gt;Node8</title>
<path fill="none" stroke="midnightblue" d="M618.082,-58.5692C622.725,-57.6419 627.486,-56.7494 632,-56 757.846,-35.1101 794.266,-46.3023 923.576,-19.727"/>
<polygon fill="midnightblue" stroke="midnightblue" points="924.389,-23.1327 933.461,-17.6598 922.956,-16.2809 924.389,-23.1327"/>
</g>
<!-- Node9 -->
<g id="node10" class="node"><title>Node9</title>
<polygon fill="none" stroke="#bfbfbf" points="597.5,-0.5 597.5,-19.5 646.5,-19.5 646.5,-0.5 597.5,-0.5"/>
<text text-anchor="middle" x="622" y="-7.5" font-family="Helvetica,sans-Serif" font-size="10.00">fstream</text>
</g>
<!-- Node1&#45;&gt;Node9 -->
<g id="edge9" class="edge"><title>Node1&#45;&gt;Node9</title>
<path fill="none" stroke="midnightblue" d="M594.449,-56.083C599.014,-48.6127 605.668,-37.7244 611.293,-28.5199"/>
<polygon fill="midnightblue" stroke="midnightblue" points="614.424,-30.109 616.652,-19.7511 608.451,-26.4588 614.424,-30.109"/>
</g>
<!-- Node10 -->
<g id="node11" class="node"><title>Node10</title>
<polygon fill="none" stroke="#bfbfbf" points="664.5,-0.5 664.5,-19.5 713.5,-19.5 713.5,-0.5 664.5,-0.5"/>
<text text-anchor="middle" x="689" y="-7.5" font-family="Helvetica,sans-Serif" font-size="10.00">cassert</text>
</g>
<!-- Node1&#45;&gt;Node10 -->
<g id="edge10" class="edge"><title>Node1&#45;&gt;Node10</title>
<path fill="none" stroke="midnightblue" d="M605.067,-56.324C620.958,-47.7428 645.507,-34.486 663.958,-24.5224"/>
<polygon fill="midnightblue" stroke="midnightblue" points="665.837,-27.4857 672.973,-19.6545 662.511,-21.3264 665.837,-27.4857"/>
</g>
<!-- Node11 -->
<g id="node12" class="node"><title>Node11</title>
<polygon fill="none" stroke="#bfbfbf" points="731.5,-0.5 731.5,-19.5 790.5,-19.5 790.5,-0.5 731.5,-0.5"/>
<text text-anchor="middle" x="761" y="-7.5" font-family="Helvetica,sans-Serif" font-size="10.00">stdexcept</text>
</g>
<!-- Node1&#45;&gt;Node11 -->
<g id="edge11" class="edge"><title>Node1&#45;&gt;Node11</title>
<path fill="none" stroke="midnightblue" d="M616.254,-56.4435C645.441,-47.2801 691.921,-32.6876 724.309,-22.5192"/>
<polygon fill="midnightblue" stroke="midnightblue" points="725.381,-25.8512 733.874,-19.5164 723.284,-19.1726 725.381,-25.8512"/>
</g>
<!-- Node12 -->
<g id="node13" class="node"><title>Node12</title>
<polygon fill="none" stroke="#bfbfbf" points="809,-0.5 809,-19.5 853,-19.5 853,-0.5 809,-0.5"/>
<text text-anchor="middle" x="831" y="-7.5" font-family="Helvetica,sans-Serif" font-size="10.00">thread</text>
</g>
<!-- Node1&#45;&gt;Node12 -->
<g id="edge12" class="edge"><title>Node1&#45;&gt;Node12</title>
<path fill="none" stroke="midnightblue" d="M618.28,-58.8787C666.773,-48.7241 761.478,-28.8184 798.75,-20.0957"/>
<polygon fill="midnightblue" stroke="midnightblue" points="799.808,-23.4407 808.702,-17.6831 798.158,-16.6377 799.808,-23.4407"/>
</g>
<!-- Node13 -->
<g id="node14" class="node"><title>Node13</title>
<polygon fill="none" stroke="#bfbfbf" points="871,-0.5 871,-19.5 915,-19.5 915,-0.5 871,-0.5"/>
<text text-anchor="middle" x="893" y="-7.5" font-family="Helvetica,sans-Serif" font-size="10.00">cmath</text>
</g>
<!-- Node1&#45;&gt;Node13 -->
<g id="edge13" class="edge"><title>Node1&#45;&gt;Node13</title>
<path fill="none" stroke="midnightblue" d="M618.105,-58.6984C622.745,-57.7544 627.498,-56.8228 632,-56 730.6,-37.9771 759.228,-42.1753 860.686,-20.0556"/>
<polygon fill="midnightblue" stroke="midnightblue" points="861.729,-23.4095 870.737,-17.8312 860.217,-16.5749 861.729,-23.4095"/>
</g>
</g>
</svg>
