<?xml version="1.0" encoding="UTF-8" standalone="no"?>
<!DOCTYPE svg PUBLIC "-//W3C//DTD SVG 1.1//EN"
 "http://www.w3.org/Graphics/SVG/1.1/DTD/svg11.dtd">
<!-- Generated by graphviz version 2.38.0 (20140413.2041)
 -->
<!-- Title: D:/Users/Victor/OneDrive/Documents/Visual Studio 2017/Projects/Jeu_de_Go/Jeu_de_Go/Sources/Graphics/Choice_Simple.h Pages: 1 -->
<svg width="407pt" height="472pt"
 viewBox="0.00 0.00 407.00 472.00" xmlns="http://www.w3.org/2000/svg" xmlns:xlink="http://www.w3.org/1999/xlink">
<g id="graph0" class="graph" transform="scale(1 1) rotate(0) translate(4 468)">
<title>D:/Users/Victor/OneDrive/Documents/Visual Studio 2017/Projects/Jeu_de_Go/Jeu_de_Go/Sources/Graphics/Choice_Simple.h</title>
<!-- Node16 -->
<g id="node1" class="node"><title>Node16</title>
<polygon fill="#bfbfbf" stroke="black" points="83,-400.5 83,-463.5 232,-463.5 232,-400.5 83,-400.5"/>
<text text-anchor="start" x="91" y="-451.5" font-family="Helvetica,sans-Serif" font-size="10.00">D:/Users/Victor/OneDrive</text>
<text text-anchor="start" x="91" y="-440.5" font-family="Helvetica,sans-Serif" font-size="10.00">/Documents/Visual Studio</text>
<text text-anchor="start" x="91" y="-429.5" font-family="Helvetica,sans-Serif" font-size="10.00"> 2017/Projects/Jeu_de_Go</text>
<text text-anchor="start" x="91" y="-418.5" font-family="Helvetica,sans-Serif" font-size="10.00">/Jeu_de_Go/Sources/Graphics</text>
<text text-anchor="middle" x="157.5" y="-407.5" font-family="Helvetica,sans-Serif" font-size="10.00">/Choice_Simple.h</text>
</g>
<!-- Node17 -->
<g id="node2" class="node"><title>Node17</title>
<g id="a_node2"><a xlink:href="_choice___simple_8cpp.html" target="_top" xlink:title="D:/Users/Victor/OneDrive\l/Documents/Visual Studio\l 2017/Projects/Jeu_de_Go\l/Jeu_de_Go/Sources/Graphics\l/Choice_Simple.cpp">
<polygon fill="none" stroke="black" points="0,-300.5 0,-363.5 149,-363.5 149,-300.5 0,-300.5"/>
<text text-anchor="start" x="8" y="-351.5" font-family="Helvetica,sans-Serif" font-size="10.00">D:/Users/Victor/OneDrive</text>
<text text-anchor="start" x="8" y="-340.5" font-family="Helvetica,sans-Serif" font-size="10.00">/Documents/Visual Studio</text>
<text text-anchor="start" x="8" y="-329.5" font-family="Helvetica,sans-Serif" font-size="10.00"> 2017/Projects/Jeu_de_Go</text>
<text text-anchor="start" x="8" y="-318.5" font-family="Helvetica,sans-Serif" font-size="10.00">/Jeu_de_Go/Sources/Graphics</text>
<text text-anchor="middle" x="74.5" y="-307.5" font-family="Helvetica,sans-Serif" font-size="10.00">/Choice_Simple.cpp</text>
</a>
</g>
</g>
<!-- Node16&#45;&gt;Node17 -->
<g id="edge1" class="edge"><title>Node16&#45;&gt;Node17</title>
<path fill="none" stroke="midnightblue" d="M124.809,-392.401C116.719,-382.849 108.16,-372.744 100.442,-363.63"/>
<polygon fill="midnightblue" stroke="midnightblue" points="122.332,-394.892 131.466,-400.261 127.674,-390.368 122.332,-394.892"/>
</g>
<!-- Node18 -->
<g id="node3" class="node"><title>Node18</title>
<g id="a_node3"><a xlink:href="_menu__simple_8h.html" target="_top" xlink:title="D:/Users/Victor/OneDrive\l/Documents/Visual Studio\l 2017/Projects/Jeu_de_Go\l/Jeu_de_Go/Sources/Graphics\l/Menu_simple.h">
<polygon fill="none" stroke="black" points="167,-300.5 167,-363.5 316,-363.5 316,-300.5 167,-300.5"/>
<text text-anchor="start" x="175" y="-351.5" font-family="Helvetica,sans-Serif" font-size="10.00">D:/Users/Victor/OneDrive</text>
<text text-anchor="start" x="175" y="-340.5" font-family="Helvetica,sans-Serif" font-size="10.00">/Documents/Visual Studio</text>
<text text-anchor="start" x="175" y="-329.5" font-family="Helvetica,sans-Serif" font-size="10.00"> 2017/Projects/Jeu_de_Go</text>
<text text-anchor="start" x="175" y="-318.5" font-family="Helvetica,sans-Serif" font-size="10.00">/Jeu_de_Go/Sources/Graphics</text>
<text text-anchor="middle" x="241.5" y="-307.5" font-family="Helvetica,sans-Serif" font-size="10.00">/Menu_simple.h</text>
</a>
</g>
</g>
<!-- Node16&#45;&gt;Node18 -->
<g id="edge2" class="edge"><title>Node16&#45;&gt;Node18</title>
<path fill="none" stroke="midnightblue" d="M190.585,-392.401C198.772,-382.849 207.434,-372.744 215.246,-363.63"/>
<polygon fill="midnightblue" stroke="midnightblue" points="187.698,-390.391 183.848,-400.261 193.013,-394.946 187.698,-390.391"/>
</g>
<!-- Node19 -->
<g id="node4" class="node"><title>Node19</title>
<g id="a_node4"><a xlink:href="_screens_8h.html" target="_top" xlink:title="D:/Users/Victor/OneDrive\l/Documents/Visual Studio\l 2017/Projects/Jeu_de_Go\l/Jeu_de_Go/Sources/Graphics\l/Screens.h">
<polygon fill="none" stroke="black" points="83,-200.5 83,-263.5 232,-263.5 232,-200.5 83,-200.5"/>
<text text-anchor="start" x="91" y="-251.5" font-family="Helvetica,sans-Serif" font-size="10.00">D:/Users/Victor/OneDrive</text>
<text text-anchor="start" x="91" y="-240.5" font-family="Helvetica,sans-Serif" font-size="10.00">/Documents/Visual Studio</text>
<text text-anchor="start" x="91" y="-229.5" font-family="Helvetica,sans-Serif" font-size="10.00"> 2017/Projects/Jeu_de_Go</text>
<text text-anchor="start" x="91" y="-218.5" font-family="Helvetica,sans-Serif" font-size="10.00">/Jeu_de_Go/Sources/Graphics</text>
<text text-anchor="middle" x="157.5" y="-207.5" font-family="Helvetica,sans-Serif" font-size="10.00">/Screens.h</text>
</a>
</g>
</g>
<!-- Node18&#45;&gt;Node19 -->
<g id="edge3" class="edge"><title>Node18&#45;&gt;Node19</title>
<path fill="none" stroke="midnightblue" d="M208.415,-292.401C200.228,-282.849 191.566,-272.744 183.754,-263.63"/>
<polygon fill="midnightblue" stroke="midnightblue" points="205.987,-294.946 215.152,-300.261 211.302,-290.391 205.987,-294.946"/>
</g>
<!-- Node23 -->
<g id="node8" class="node"><title>Node23</title>
<g id="a_node8"><a xlink:href="_menu__simple_8cpp.html" target="_top" xlink:title="D:/Users/Victor/OneDrive\l/Documents/Visual Studio\l 2017/Projects/Jeu_de_Go\l/Jeu_de_Go/Sources/Graphics\l/Menu_simple.cpp">
<polygon fill="none" stroke="black" points="250,-200.5 250,-263.5 399,-263.5 399,-200.5 250,-200.5"/>
<text text-anchor="start" x="258" y="-251.5" font-family="Helvetica,sans-Serif" font-size="10.00">D:/Users/Victor/OneDrive</text>
<text text-anchor="start" x="258" y="-240.5" font-family="Helvetica,sans-Serif" font-size="10.00">/Documents/Visual Studio</text>
<text text-anchor="start" x="258" y="-229.5" font-family="Helvetica,sans-Serif" font-size="10.00"> 2017/Projects/Jeu_de_Go</text>
<text text-anchor="start" x="258" y="-218.5" font-family="Helvetica,sans-Serif" font-size="10.00">/Jeu_de_Go/Sources/Graphics</text>
<text text-anchor="middle" x="324.5" y="-207.5" font-family="Helvetica,sans-Serif" font-size="10.00">/Menu_simple.cpp</text>
</a>
</g>
</g>
<!-- Node18&#45;&gt;Node23 -->
<g id="edge7" class="edge"><title>Node18&#45;&gt;Node23</title>
<path fill="none" stroke="midnightblue" d="M274.191,-292.401C282.281,-282.849 290.84,-272.744 298.558,-263.63"/>
<polygon fill="midnightblue" stroke="midnightblue" points="271.326,-290.368 267.534,-300.261 276.668,-294.892 271.326,-290.368"/>
</g>
<!-- Node20 -->
<g id="node5" class="node"><title>Node20</title>
<g id="a_node5"><a xlink:href="_go___solver_8h.html" target="_top" xlink:title="D:/Users/Victor/OneDrive\l/Documents/Visual Studio\l 2017/Projects/Jeu_de_Go\l/Jeu_de_Go/Sources/Graphics\l/Go_Solver.h">
<polygon fill="none" stroke="black" points="83,-100.5 83,-163.5 232,-163.5 232,-100.5 83,-100.5"/>
<text text-anchor="start" x="91" y="-151.5" font-family="Helvetica,sans-Serif" font-size="10.00">D:/Users/Victor/OneDrive</text>
<text text-anchor="start" x="91" y="-140.5" font-family="Helvetica,sans-Serif" font-size="10.00">/Documents/Visual Studio</text>
<text text-anchor="start" x="91" y="-129.5" font-family="Helvetica,sans-Serif" font-size="10.00"> 2017/Projects/Jeu_de_Go</text>
<text text-anchor="start" x="91" y="-118.5" font-family="Helvetica,sans-Serif" font-size="10.00">/Jeu_de_Go/Sources/Graphics</text>
<text text-anchor="middle" x="157.5" y="-107.5" font-family="Helvetica,sans-Serif" font-size="10.00">/Go_Solver.h</text>
</a>
</g>
</g>
<!-- Node19&#45;&gt;Node20 -->
<g id="edge4" class="edge"><title>Node19&#45;&gt;Node20</title>
<path fill="none" stroke="midnightblue" d="M157.5,-190.099C157.5,-181.238 157.5,-172.015 157.5,-163.63"/>
<polygon fill="midnightblue" stroke="midnightblue" points="154,-190.261 157.5,-200.261 161,-190.261 154,-190.261"/>
</g>
<!-- Node21 -->
<g id="node6" class="node"><title>Node21</title>
<g id="a_node6"><a xlink:href="_go___solver_8cpp.html" target="_top" xlink:title="D:/Users/Victor/OneDrive\l/Documents/Visual Studio\l 2017/Projects/Jeu_de_Go\l/Jeu_de_Go/Sources/Graphics\l/Go_Solver.cpp">
<polygon fill="none" stroke="black" points="0,-0.5 0,-63.5 149,-63.5 149,-0.5 0,-0.5"/>
<text text-anchor="start" x="8" y="-51.5" font-family="Helvetica,sans-Serif" font-size="10.00">D:/Users/Victor/OneDrive</text>
<text text-anchor="start" x="8" y="-40.5" font-family="Helvetica,sans-Serif" font-size="10.00">/Documents/Visual Studio</text>
<text text-anchor="start" x="8" y="-29.5" font-family="Helvetica,sans-Serif" font-size="10.00"> 2017/Projects/Jeu_de_Go</text>
<text text-anchor="start" x="8" y="-18.5" font-family="Helvetica,sans-Serif" font-size="10.00">/Jeu_de_Go/Sources/Graphics</text>
<text text-anchor="middle" x="74.5" y="-7.5" font-family="Helvetica,sans-Serif" font-size="10.00">/Go_Solver.cpp</text>
</a>
</g>
</g>
<!-- Node20&#45;&gt;Node21 -->
<g id="edge5" class="edge"><title>Node20&#45;&gt;Node21</title>
<path fill="none" stroke="midnightblue" d="M124.809,-92.4011C116.719,-82.8488 108.16,-72.7436 100.442,-63.6299"/>
<polygon fill="midnightblue" stroke="midnightblue" points="122.332,-94.8922 131.466,-100.261 127.674,-90.3681 122.332,-94.8922"/>
</g>
<!-- Node22 -->
<g id="node7" class="node"><title>Node22</title>
<g id="a_node7"><a xlink:href="_main_8cpp.html" target="_top" xlink:title="D:/Users/Victor/OneDrive\l/Documents/Visual Studio\l 2017/Projects/Jeu_de_Go\l/Jeu_de_Go/Sources/Graphics\l/Main.cpp">
<polygon fill="none" stroke="black" points="167,-0.5 167,-63.5 316,-63.5 316,-0.5 167,-0.5"/>
<text text-anchor="start" x="175" y="-51.5" font-family="Helvetica,sans-Serif" font-size="10.00">D:/Users/Victor/OneDrive</text>
<text text-anchor="start" x="175" y="-40.5" font-family="Helvetica,sans-Serif" font-size="10.00">/Documents/Visual Studio</text>
<text text-anchor="start" x="175" y="-29.5" font-family="Helvetica,sans-Serif" font-size="10.00"> 2017/Projects/Jeu_de_Go</text>
<text text-anchor="start" x="175" y="-18.5" font-family="Helvetica,sans-Serif" font-size="10.00">/Jeu_de_Go/Sources/Graphics</text>
<text text-anchor="middle" x="241.5" y="-7.5" font-family="Helvetica,sans-Serif" font-size="10.00">/Main.cpp</text>
</a>
</g>
</g>
<!-- Node20&#45;&gt;Node22 -->
<g id="edge6" class="edge"><title>Node20&#45;&gt;Node22</title>
<path fill="none" stroke="midnightblue" d="M190.585,-92.4011C198.772,-82.8488 207.434,-72.7436 215.246,-63.6299"/>
<polygon fill="midnightblue" stroke="midnightblue" points="187.698,-90.3907 183.848,-100.261 193.013,-94.9463 187.698,-90.3907"/>
</g>
</g>
</svg>
