<?xml version="1.0" encoding="UTF-8" standalone="no"?>
<!DOCTYPE svg PUBLIC "-//W3C//DTD SVG 1.1//EN"
 "http://www.w3.org/Graphics/SVG/1.1/DTD/svg11.dtd">
<!-- Generated by graphviz version 2.38.0 (20140413.2041)
 -->
<!-- Title: D:/Users/Victor/OneDrive/Documents/Visual Studio 2017/Projects/Jeu_de_Go/Jeu_de_Go/Sources/Engine/Etat.h Pages: 1 -->
<svg width="1064pt" height="861pt"
 viewBox="0.00 0.00 1063.50 861.00" xmlns="http://www.w3.org/2000/svg" xmlns:xlink="http://www.w3.org/1999/xlink">
<g id="graph0" class="graph" transform="scale(1 1) rotate(0) translate(4 857)">
<title>D:/Users/Victor/OneDrive/Documents/Visual Studio 2017/Projects/Jeu_de_Go/Jeu_de_Go/Sources/Engine/Etat.h</title>
<!-- Node2 -->
<g id="node1" class="node"><title>Node2</title>
<polygon fill="#bfbfbf" stroke="black" points="348,-800.5 348,-852.5 518,-852.5 518,-800.5 348,-800.5"/>
<text text-anchor="start" x="356" y="-840.5" font-family="Helvetica,sans-Serif" font-size="10.00">D:/Users/Victor/OneDrive</text>
<text text-anchor="start" x="356" y="-829.5" font-family="Helvetica,sans-Serif" font-size="10.00">/Documents/Visual Studio</text>
<text text-anchor="start" x="356" y="-818.5" font-family="Helvetica,sans-Serif" font-size="10.00"> 2017/Projects/Jeu_de_Go</text>
<text text-anchor="middle" x="433" y="-807.5" font-family="Helvetica,sans-Serif" font-size="10.00">/Jeu_de_Go/Sources/Engine/Etat.h</text>
</g>
<!-- Node3 -->
<g id="node2" class="node"><title>Node3</title>
<g id="a_node2"><a xlink:href="_goban_8h.html" target="_top" xlink:title="D:/Users/Victor/OneDrive\l/Documents/Visual Studio\l 2017/Projects/Jeu_de_Go\l/Jeu_de_Go/Sources/Engine/Goban.h">
<polygon fill="none" stroke="black" points="294,-606 294,-658 474,-658 474,-606 294,-606"/>
<text text-anchor="start" x="302" y="-646" font-family="Helvetica,sans-Serif" font-size="10.00">D:/Users/Victor/OneDrive</text>
<text text-anchor="start" x="302" y="-635" font-family="Helvetica,sans-Serif" font-size="10.00">/Documents/Visual Studio</text>
<text text-anchor="start" x="302" y="-624" font-family="Helvetica,sans-Serif" font-size="10.00"> 2017/Projects/Jeu_de_Go</text>
<text text-anchor="middle" x="384" y="-613" font-family="Helvetica,sans-Serif" font-size="10.00">/Jeu_de_Go/Sources/Engine/Goban.h</text>
</a>
</g>
</g>
<!-- Node2&#45;&gt;Node3 -->
<g id="edge1" class="edge"><title>Node2&#45;&gt;Node3</title>
<path fill="none" stroke="midnightblue" d="M414.048,-791.395C409.856,-782.678 405.826,-773.171 403,-764 391.968,-728.202 387.282,-684.882 385.333,-658.131"/>
<polygon fill="midnightblue" stroke="midnightblue" points="410.999,-793.123 418.612,-800.492 417.256,-789.984 410.999,-793.123"/>
</g>
<!-- Node17 -->
<g id="node16" class="node"><title>Node17</title>
<g id="a_node16"><a xlink:href="_parser_8h.html" target="_top" xlink:title="D:/Users/Victor/OneDrive\l/Documents/Visual Studio\l 2017/Projects/Jeu_de_Go\l/Jeu_de_Go/Sources/Engine\l/Parser.h">
<polygon fill="none" stroke="black" points="38,-500.5 38,-563.5 178,-563.5 178,-500.5 38,-500.5"/>
<text text-anchor="start" x="46" y="-551.5" font-family="Helvetica,sans-Serif" font-size="10.00">D:/Users/Victor/OneDrive</text>
<text text-anchor="start" x="46" y="-540.5" font-family="Helvetica,sans-Serif" font-size="10.00">/Documents/Visual Studio</text>
<text text-anchor="start" x="46" y="-529.5" font-family="Helvetica,sans-Serif" font-size="10.00"> 2017/Projects/Jeu_de_Go</text>
<text text-anchor="start" x="46" y="-518.5" font-family="Helvetica,sans-Serif" font-size="10.00">/Jeu_de_Go/Sources/Engine</text>
<text text-anchor="middle" x="108" y="-507.5" font-family="Helvetica,sans-Serif" font-size="10.00">/Parser.h</text>
</a>
</g>
</g>
<!-- Node2&#45;&gt;Node17 -->
<g id="edge28" class="edge"><title>Node2&#45;&gt;Node17</title>
<path fill="none" stroke="midnightblue" d="M337.948,-813.338C295.303,-804.567 245.948,-789.566 207,-764 159.419,-732.767 149.656,-716.213 127,-664 112.959,-631.639 108.925,-590.987 107.946,-563.622"/>
<polygon fill="midnightblue" stroke="midnightblue" points="337.295,-816.776 347.783,-815.276 338.648,-809.908 337.295,-816.776"/>
</g>
<!-- Node19 -->
<g id="node18" class="node"><title>Node19</title>
<g id="a_node18"><a xlink:href="_groupe_8h.html" target="_top" xlink:title="D:/Users/Victor/OneDrive\l/Documents/Visual Studio\l 2017/Projects/Jeu_de_Go\l/Jeu_de_Go/Sources/Engine\l/Groupe.h">
<polygon fill="none" stroke="black" points="216,-700.5 216,-763.5 356,-763.5 356,-700.5 216,-700.5"/>
<text text-anchor="start" x="224" y="-751.5" font-family="Helvetica,sans-Serif" font-size="10.00">D:/Users/Victor/OneDrive</text>
<text text-anchor="start" x="224" y="-740.5" font-family="Helvetica,sans-Serif" font-size="10.00">/Documents/Visual Studio</text>
<text text-anchor="start" x="224" y="-729.5" font-family="Helvetica,sans-Serif" font-size="10.00"> 2017/Projects/Jeu_de_Go</text>
<text text-anchor="start" x="224" y="-718.5" font-family="Helvetica,sans-Serif" font-size="10.00">/Jeu_de_Go/Sources/Engine</text>
<text text-anchor="middle" x="286" y="-707.5" font-family="Helvetica,sans-Serif" font-size="10.00">/Groupe.h</text>
</a>
</g>
</g>
<!-- Node2&#45;&gt;Node19 -->
<g id="edge21" class="edge"><title>Node2&#45;&gt;Node19</title>
<path fill="none" stroke="midnightblue" d="M384.54,-795.006C368.542,-784.94 350.747,-773.742 334.729,-763.663"/>
<polygon fill="midnightblue" stroke="midnightblue" points="382.892,-798.105 393.22,-800.468 386.62,-792.18 382.892,-798.105"/>
</g>
<!-- Node21 -->
<g id="node20" class="node"><title>Node21</title>
<g id="a_node20"><a xlink:href="_history_8h.html" target="_top" xlink:title="D:/Users/Victor/OneDrive\l/Documents/Visual Studio\l 2017/Projects/Jeu_de_Go\l/Jeu_de_Go/Sources/Engine\l/History.h">
<polygon fill="none" stroke="black" points="412,-700.5 412,-763.5 552,-763.5 552,-700.5 412,-700.5"/>
<text text-anchor="start" x="420" y="-751.5" font-family="Helvetica,sans-Serif" font-size="10.00">D:/Users/Victor/OneDrive</text>
<text text-anchor="start" x="420" y="-740.5" font-family="Helvetica,sans-Serif" font-size="10.00">/Documents/Visual Studio</text>
<text text-anchor="start" x="420" y="-729.5" font-family="Helvetica,sans-Serif" font-size="10.00"> 2017/Projects/Jeu_de_Go</text>
<text text-anchor="start" x="420" y="-718.5" font-family="Helvetica,sans-Serif" font-size="10.00">/Jeu_de_Go/Sources/Engine</text>
<text text-anchor="middle" x="482" y="-707.5" font-family="Helvetica,sans-Serif" font-size="10.00">/History.h</text>
</a>
</g>
</g>
<!-- Node2&#45;&gt;Node21 -->
<g id="edge24" class="edge"><title>Node2&#45;&gt;Node21</title>
<path fill="none" stroke="midnightblue" d="M451.076,-791.377C455.913,-782.245 461.11,-772.435 465.837,-763.512"/>
<polygon fill="midnightblue" stroke="midnightblue" points="447.978,-789.749 446.389,-800.224 454.163,-793.026 447.978,-789.749"/>
</g>
<!-- Node23 -->
<g id="node22" class="node"><title>Node23</title>
<g id="a_node22"><a xlink:href="_etat_8cpp.html" target="_top" xlink:title="D:/Users/Victor/OneDrive\l/Documents/Visual Studio\l 2017/Projects/Jeu_de_Go\l/Jeu_de_Go/Sources/Engine\l/Etat.cpp">
<polygon fill="none" stroke="black" points="570,-700.5 570,-763.5 710,-763.5 710,-700.5 570,-700.5"/>
<text text-anchor="start" x="578" y="-751.5" font-family="Helvetica,sans-Serif" font-size="10.00">D:/Users/Victor/OneDrive</text>
<text text-anchor="start" x="578" y="-740.5" font-family="Helvetica,sans-Serif" font-size="10.00">/Documents/Visual Studio</text>
<text text-anchor="start" x="578" y="-729.5" font-family="Helvetica,sans-Serif" font-size="10.00"> 2017/Projects/Jeu_de_Go</text>
<text text-anchor="start" x="578" y="-718.5" font-family="Helvetica,sans-Serif" font-size="10.00">/Jeu_de_Go/Sources/Engine</text>
<text text-anchor="middle" x="640" y="-707.5" font-family="Helvetica,sans-Serif" font-size="10.00">/Etat.cpp</text>
</a>
</g>
</g>
<!-- Node2&#45;&gt;Node23 -->
<g id="edge27" class="edge"><title>Node2&#45;&gt;Node23</title>
<path fill="none" stroke="midnightblue" d="M498.438,-796.259C521.675,-785.875 547.886,-774.162 571.382,-763.663"/>
<polygon fill="midnightblue" stroke="midnightblue" points="496.719,-793.193 489.017,-800.468 499.575,-799.584 496.719,-793.193"/>
</g>
<!-- Node24 -->
<g id="node23" class="node"><title>Node24</title>
<g id="a_node23"><a xlink:href="_square_8h.html" target="_top" xlink:title="D:/Users/Victor/OneDrive\l/Documents/Visual Studio\l 2017/Projects/Jeu_de_Go\l/Jeu_de_Go/Sources/Graphics\l/Game/Square.h">
<polygon fill="none" stroke="black" points="672.5,-500.5 672.5,-563.5 821.5,-563.5 821.5,-500.5 672.5,-500.5"/>
<text text-anchor="start" x="680.5" y="-551.5" font-family="Helvetica,sans-Serif" font-size="10.00">D:/Users/Victor/OneDrive</text>
<text text-anchor="start" x="680.5" y="-540.5" font-family="Helvetica,sans-Serif" font-size="10.00">/Documents/Visual Studio</text>
<text text-anchor="start" x="680.5" y="-529.5" font-family="Helvetica,sans-Serif" font-size="10.00"> 2017/Projects/Jeu_de_Go</text>
<text text-anchor="start" x="680.5" y="-518.5" font-family="Helvetica,sans-Serif" font-size="10.00">/Jeu_de_Go/Sources/Graphics</text>
<text text-anchor="middle" x="747" y="-507.5" font-family="Helvetica,sans-Serif" font-size="10.00">/Game/Square.h</text>
</a>
</g>
</g>
<!-- Node2&#45;&gt;Node24 -->
<g id="edge29" class="edge"><title>Node2&#45;&gt;Node24</title>
<path fill="none" stroke="midnightblue" d="M528.47,-816.811C601.395,-808.089 693.576,-791.855 719,-764 769.383,-708.8 761.569,-612.746 753.36,-563.711"/>
<polygon fill="midnightblue" stroke="midnightblue" points="527.846,-813.36 518.317,-817.992 528.655,-820.313 527.846,-813.36"/>
</g>
<!-- Node4 -->
<g id="node3" class="node"><title>Node4</title>
<g id="a_node3"><a xlink:href="_arbre_8h.html" target="_top" xlink:title="D:/Users/Victor/OneDrive\l/Documents/Visual Studio\l 2017/Projects/Jeu_de_Go\l/Jeu_de_Go/Sources/Engine/Arbre.h">
<polygon fill="none" stroke="black" points="396.5,-506 396.5,-558 571.5,-558 571.5,-506 396.5,-506"/>
<text text-anchor="start" x="404.5" y="-546" font-family="Helvetica,sans-Serif" font-size="10.00">D:/Users/Victor/OneDrive</text>
<text text-anchor="start" x="404.5" y="-535" font-family="Helvetica,sans-Serif" font-size="10.00">/Documents/Visual Studio</text>
<text text-anchor="start" x="404.5" y="-524" font-family="Helvetica,sans-Serif" font-size="10.00"> 2017/Projects/Jeu_de_Go</text>
<text text-anchor="middle" x="484" y="-513" font-family="Helvetica,sans-Serif" font-size="10.00">/Jeu_de_Go/Sources/Engine/Arbre.h</text>
</a>
</g>
</g>
<!-- Node3&#45;&gt;Node4 -->
<g id="edge2" class="edge"><title>Node3&#45;&gt;Node4</title>
<path fill="none" stroke="midnightblue" d="M417.001,-598.659C430.445,-585.484 445.75,-570.485 458.335,-558.152"/>
<polygon fill="midnightblue" stroke="midnightblue" points="414.445,-596.263 409.752,-605.763 419.344,-601.263 414.445,-596.263"/>
</g>
<!-- Node8 -->
<g id="node7" class="node"><title>Node8</title>
<g id="a_node7"><a xlink:href="_game__window_8h.html" target="_top" xlink:title="D:/Users/Victor/OneDrive\l/Documents/Visual Studio\l 2017/Projects/Jeu_de_Go\l/Jeu_de_Go/Sources/Graphics\l/Game/Game_window.h">
<polygon fill="none" stroke="black" points="395.5,-300.5 395.5,-363.5 544.5,-363.5 544.5,-300.5 395.5,-300.5"/>
<text text-anchor="start" x="403.5" y="-351.5" font-family="Helvetica,sans-Serif" font-size="10.00">D:/Users/Victor/OneDrive</text>
<text text-anchor="start" x="403.5" y="-340.5" font-family="Helvetica,sans-Serif" font-size="10.00">/Documents/Visual Studio</text>
<text text-anchor="start" x="403.5" y="-329.5" font-family="Helvetica,sans-Serif" font-size="10.00"> 2017/Projects/Jeu_de_Go</text>
<text text-anchor="start" x="403.5" y="-318.5" font-family="Helvetica,sans-Serif" font-size="10.00">/Jeu_de_Go/Sources/Graphics</text>
<text text-anchor="middle" x="470" y="-307.5" font-family="Helvetica,sans-Serif" font-size="10.00">/Game/Game_window.h</text>
</a>
</g>
</g>
<!-- Node3&#45;&gt;Node8 -->
<g id="edge20" class="edge"><title>Node3&#45;&gt;Node8</title>
<path fill="none" stroke="midnightblue" d="M296.181,-602.303C266.133,-590.626 237.831,-576.87 229,-564 187.748,-503.881 179.415,-456.903 225,-400 270.842,-342.775 315.672,-384.739 386,-364 388.982,-363.121 392.011,-362.189 395.061,-361.22"/>
<polygon fill="midnightblue" stroke="midnightblue" points="294.951,-605.58 305.542,-605.857 297.435,-599.036 294.951,-605.58"/>
</g>
<!-- Node14 -->
<g id="node13" class="node"><title>Node14</title>
<g id="a_node13"><a xlink:href="_board_8h.html" target="_top" xlink:title="D:/Users/Victor/OneDrive\l/Documents/Visual Studio\l 2017/Projects/Jeu_de_Go\l/Jeu_de_Go/Sources/Graphics\l/Game/Board.h">
<polygon fill="none" stroke="black" points="572.5,-400.5 572.5,-463.5 721.5,-463.5 721.5,-400.5 572.5,-400.5"/>
<text text-anchor="start" x="580.5" y="-451.5" font-family="Helvetica,sans-Serif" font-size="10.00">D:/Users/Victor/OneDrive</text>
<text text-anchor="start" x="580.5" y="-440.5" font-family="Helvetica,sans-Serif" font-size="10.00">/Documents/Visual Studio</text>
<text text-anchor="start" x="580.5" y="-429.5" font-family="Helvetica,sans-Serif" font-size="10.00"> 2017/Projects/Jeu_de_Go</text>
<text text-anchor="start" x="580.5" y="-418.5" font-family="Helvetica,sans-Serif" font-size="10.00">/Jeu_de_Go/Sources/Graphics</text>
<text text-anchor="middle" x="647" y="-407.5" font-family="Helvetica,sans-Serif" font-size="10.00">/Game/Board.h</text>
</a>
</g>
</g>
<!-- Node3&#45;&gt;Node14 -->
<g id="edge19" class="edge"><title>Node3&#45;&gt;Node14</title>
<path fill="none" stroke="midnightblue" d="M471.367,-602.752C521.497,-586.272 575.427,-567.96 580,-564 610.704,-537.411 629.113,-493.316 638.656,-463.718"/>
<polygon fill="midnightblue" stroke="midnightblue" points="470.147,-599.469 461.737,-605.912 472.329,-606.12 470.147,-599.469"/>
</g>
<!-- Node16 -->
<g id="node15" class="node"><title>Node16</title>
<g id="a_node15"><a xlink:href="_goban_8cpp.html" target="_top" xlink:title="D:/Users/Victor/OneDrive\l/Documents/Visual Studio\l 2017/Projects/Jeu_de_Go\l/Jeu_de_Go/Sources/Engine\l/Goban.cpp">
<polygon fill="none" stroke="black" points="238,-500.5 238,-563.5 378,-563.5 378,-500.5 238,-500.5"/>
<text text-anchor="start" x="246" y="-551.5" font-family="Helvetica,sans-Serif" font-size="10.00">D:/Users/Victor/OneDrive</text>
<text text-anchor="start" x="246" y="-540.5" font-family="Helvetica,sans-Serif" font-size="10.00">/Documents/Visual Studio</text>
<text text-anchor="start" x="246" y="-529.5" font-family="Helvetica,sans-Serif" font-size="10.00"> 2017/Projects/Jeu_de_Go</text>
<text text-anchor="start" x="246" y="-518.5" font-family="Helvetica,sans-Serif" font-size="10.00">/Jeu_de_Go/Sources/Engine</text>
<text text-anchor="middle" x="308" y="-507.5" font-family="Helvetica,sans-Serif" font-size="10.00">/Goban.cpp</text>
</a>
</g>
</g>
<!-- Node3&#45;&gt;Node16 -->
<g id="edge15" class="edge"><title>Node3&#45;&gt;Node16</title>
<path fill="none" stroke="midnightblue" d="M358.129,-597.64C349.618,-586.665 340.2,-574.521 331.846,-563.749"/>
<polygon fill="midnightblue" stroke="midnightblue" points="355.534,-600.005 364.428,-605.763 361.066,-595.715 355.534,-600.005"/>
</g>
<!-- Node3&#45;&gt;Node17 -->
<g id="edge16" class="edge"><title>Node3&#45;&gt;Node17</title>
<path fill="none" stroke="midnightblue" d="M301.098,-602.432C267.223,-590.665 227.687,-576.811 192,-564 187.465,-562.372 182.796,-560.684 178.092,-558.973"/>
<polygon fill="midnightblue" stroke="midnightblue" points="300.36,-605.88 310.954,-605.852 302.655,-599.267 300.36,-605.88"/>
</g>
<!-- Node5 -->
<g id="node4" class="node"><title>Node5</title>
<g id="a_node4"><a xlink:href="_arbre_8cpp.html" target="_top" xlink:title="D:/Users/Victor/OneDrive\l/Documents/Visual Studio\l 2017/Projects/Jeu_de_Go\l/Jeu_de_Go/Sources/Engine\l/Arbre.cpp">
<polygon fill="none" stroke="black" points="414,-400.5 414,-463.5 554,-463.5 554,-400.5 414,-400.5"/>
<text text-anchor="start" x="422" y="-451.5" font-family="Helvetica,sans-Serif" font-size="10.00">D:/Users/Victor/OneDrive</text>
<text text-anchor="start" x="422" y="-440.5" font-family="Helvetica,sans-Serif" font-size="10.00">/Documents/Visual Studio</text>
<text text-anchor="start" x="422" y="-429.5" font-family="Helvetica,sans-Serif" font-size="10.00"> 2017/Projects/Jeu_de_Go</text>
<text text-anchor="start" x="422" y="-418.5" font-family="Helvetica,sans-Serif" font-size="10.00">/Jeu_de_Go/Sources/Engine</text>
<text text-anchor="middle" x="484" y="-407.5" font-family="Helvetica,sans-Serif" font-size="10.00">/Arbre.cpp</text>
</a>
</g>
</g>
<!-- Node4&#45;&gt;Node5 -->
<g id="edge3" class="edge"><title>Node4&#45;&gt;Node5</title>
<path fill="none" stroke="midnightblue" d="M484,-495.692C484,-485.241 484,-473.887 484,-463.749"/>
<polygon fill="midnightblue" stroke="midnightblue" points="480.5,-495.763 484,-505.763 487.5,-495.763 480.5,-495.763"/>
</g>
<!-- Node6 -->
<g id="node5" class="node"><title>Node6</title>
<g id="a_node5"><a xlink:href="_i_a_8h.html" target="_top" xlink:title="D:/Users/Victor/OneDrive\l/Documents/Visual Studio\l 2017/Projects/Jeu_de_Go\l/Jeu_de_Go/Sources/Engine/IA.h">
<polygon fill="none" stroke="black" points="234.5,-406 234.5,-458 395.5,-458 395.5,-406 234.5,-406"/>
<text text-anchor="start" x="242.5" y="-446" font-family="Helvetica,sans-Serif" font-size="10.00">D:/Users/Victor/OneDrive</text>
<text text-anchor="start" x="242.5" y="-435" font-family="Helvetica,sans-Serif" font-size="10.00">/Documents/Visual Studio</text>
<text text-anchor="start" x="242.5" y="-424" font-family="Helvetica,sans-Serif" font-size="10.00"> 2017/Projects/Jeu_de_Go</text>
<text text-anchor="middle" x="315" y="-413" font-family="Helvetica,sans-Serif" font-size="10.00">/Jeu_de_Go/Sources/Engine/IA.h</text>
</a>
</g>
</g>
<!-- Node4&#45;&gt;Node6 -->
<g id="edge4" class="edge"><title>Node4&#45;&gt;Node6</title>
<path fill="none" stroke="midnightblue" d="M431.674,-500.657C408.155,-487.019 380.726,-471.113 358.374,-458.152"/>
<polygon fill="midnightblue" stroke="midnightblue" points="430.072,-503.774 440.478,-505.763 433.583,-497.718 430.072,-503.774"/>
</g>
<!-- Node4&#45;&gt;Node14 -->
<g id="edge12" class="edge"><title>Node4&#45;&gt;Node14</title>
<path fill="none" stroke="midnightblue" d="M534.742,-500.492C554.288,-488.741 576.599,-475.327 596.154,-463.57"/>
<polygon fill="midnightblue" stroke="midnightblue" points="532.743,-497.61 525.977,-505.763 536.35,-503.609 532.743,-497.61"/>
</g>
<!-- Node7 -->
<g id="node6" class="node"><title>Node7</title>
<g id="a_node6"><a xlink:href="_i_a_8cpp.html" target="_top" xlink:title="D:/Users/Victor/OneDrive\l/Documents/Visual Studio\l 2017/Projects/Jeu_de_Go\l/Jeu_de_Go/Sources/Engine/IA.cpp">
<polygon fill="none" stroke="black" points="206.5,-306 206.5,-358 377.5,-358 377.5,-306 206.5,-306"/>
<text text-anchor="start" x="214.5" y="-346" font-family="Helvetica,sans-Serif" font-size="10.00">D:/Users/Victor/OneDrive</text>
<text text-anchor="start" x="214.5" y="-335" font-family="Helvetica,sans-Serif" font-size="10.00">/Documents/Visual Studio</text>
<text text-anchor="start" x="214.5" y="-324" font-family="Helvetica,sans-Serif" font-size="10.00"> 2017/Projects/Jeu_de_Go</text>
<text text-anchor="middle" x="292" y="-313" font-family="Helvetica,sans-Serif" font-size="10.00">/Jeu_de_Go/Sources/Engine/IA.cpp</text>
</a>
</g>
</g>
<!-- Node6&#45;&gt;Node7 -->
<g id="edge5" class="edge"><title>Node6&#45;&gt;Node7</title>
<path fill="none" stroke="midnightblue" d="M306.716,-395.703C303.8,-383.277 300.583,-369.572 297.903,-358.152"/>
<polygon fill="midnightblue" stroke="midnightblue" points="303.385,-396.827 309.077,-405.763 310.199,-395.227 303.385,-396.827"/>
</g>
<!-- Node6&#45;&gt;Node8 -->
<g id="edge6" class="edge"><title>Node6&#45;&gt;Node8</title>
<path fill="none" stroke="midnightblue" d="M363.503,-400.333C382.029,-388.62 403.138,-375.274 421.649,-363.57"/>
<polygon fill="midnightblue" stroke="midnightblue" points="361.498,-397.46 354.916,-405.763 365.239,-403.377 361.498,-397.46"/>
</g>
<!-- Node9 -->
<g id="node8" class="node"><title>Node9</title>
<g id="a_node8"><a xlink:href="_game__window_8cpp.html" target="_top" xlink:title="D:/Users/Victor/OneDrive\l/Documents/Visual Studio\l 2017/Projects/Jeu_de_Go\l/Jeu_de_Go/Sources/Graphics\l/Game/Game_window.cpp">
<polygon fill="none" stroke="black" points="395.5,-200.5 395.5,-263.5 544.5,-263.5 544.5,-200.5 395.5,-200.5"/>
<text text-anchor="start" x="403.5" y="-251.5" font-family="Helvetica,sans-Serif" font-size="10.00">D:/Users/Victor/OneDrive</text>
<text text-anchor="start" x="403.5" y="-240.5" font-family="Helvetica,sans-Serif" font-size="10.00">/Documents/Visual Studio</text>
<text text-anchor="start" x="403.5" y="-229.5" font-family="Helvetica,sans-Serif" font-size="10.00"> 2017/Projects/Jeu_de_Go</text>
<text text-anchor="start" x="403.5" y="-218.5" font-family="Helvetica,sans-Serif" font-size="10.00">/Jeu_de_Go/Sources/Graphics</text>
<text text-anchor="middle" x="470" y="-207.5" font-family="Helvetica,sans-Serif" font-size="10.00">/Game/Game_window.cpp</text>
</a>
</g>
</g>
<!-- Node8&#45;&gt;Node9 -->
<g id="edge7" class="edge"><title>Node8&#45;&gt;Node9</title>
<path fill="none" stroke="midnightblue" d="M470,-290.099C470,-281.238 470,-272.015 470,-263.63"/>
<polygon fill="midnightblue" stroke="midnightblue" points="466.5,-290.261 470,-300.261 473.5,-290.261 466.5,-290.261"/>
</g>
<!-- Node10 -->
<g id="node9" class="node"><title>Node10</title>
<g id="a_node9"><a xlink:href="_screens_8h.html" target="_top" xlink:title="D:/Users/Victor/OneDrive\l/Documents/Visual Studio\l 2017/Projects/Jeu_de_Go\l/Jeu_de_Go/Sources/Graphics\l/Screens.h">
<polygon fill="none" stroke="black" points="212.5,-200.5 212.5,-263.5 361.5,-263.5 361.5,-200.5 212.5,-200.5"/>
<text text-anchor="start" x="220.5" y="-251.5" font-family="Helvetica,sans-Serif" font-size="10.00">D:/Users/Victor/OneDrive</text>
<text text-anchor="start" x="220.5" y="-240.5" font-family="Helvetica,sans-Serif" font-size="10.00">/Documents/Visual Studio</text>
<text text-anchor="start" x="220.5" y="-229.5" font-family="Helvetica,sans-Serif" font-size="10.00"> 2017/Projects/Jeu_de_Go</text>
<text text-anchor="start" x="220.5" y="-218.5" font-family="Helvetica,sans-Serif" font-size="10.00">/Jeu_de_Go/Sources/Graphics</text>
<text text-anchor="middle" x="287" y="-207.5" font-family="Helvetica,sans-Serif" font-size="10.00">/Screens.h</text>
</a>
</g>
</g>
<!-- Node8&#45;&gt;Node10 -->
<g id="edge8" class="edge"><title>Node8&#45;&gt;Node10</title>
<path fill="none" stroke="midnightblue" d="M403.969,-295.639C384.348,-285.131 363.028,-273.715 344.031,-263.541"/>
<polygon fill="midnightblue" stroke="midnightblue" points="402.383,-298.76 412.85,-300.395 405.687,-292.589 402.383,-298.76"/>
</g>
<!-- Node11 -->
<g id="node10" class="node"><title>Node11</title>
<g id="a_node10"><a xlink:href="_go___solver_8h.html" target="_top" xlink:title="D:/Users/Victor/OneDrive\l/Documents/Visual Studio\l 2017/Projects/Jeu_de_Go\l/Jeu_de_Go/Sources/Graphics\l/Go_Solver.h">
<polygon fill="none" stroke="black" points="152.5,-100.5 152.5,-163.5 301.5,-163.5 301.5,-100.5 152.5,-100.5"/>
<text text-anchor="start" x="160.5" y="-151.5" font-family="Helvetica,sans-Serif" font-size="10.00">D:/Users/Victor/OneDrive</text>
<text text-anchor="start" x="160.5" y="-140.5" font-family="Helvetica,sans-Serif" font-size="10.00">/Documents/Visual Studio</text>
<text text-anchor="start" x="160.5" y="-129.5" font-family="Helvetica,sans-Serif" font-size="10.00"> 2017/Projects/Jeu_de_Go</text>
<text text-anchor="start" x="160.5" y="-118.5" font-family="Helvetica,sans-Serif" font-size="10.00">/Jeu_de_Go/Sources/Graphics</text>
<text text-anchor="middle" x="227" y="-107.5" font-family="Helvetica,sans-Serif" font-size="10.00">/Go_Solver.h</text>
</a>
</g>
</g>
<!-- Node10&#45;&gt;Node11 -->
<g id="edge9" class="edge"><title>Node10&#45;&gt;Node11</title>
<path fill="none" stroke="midnightblue" d="M262.841,-191.54C257.149,-182.243 251.165,-172.47 245.753,-163.63"/>
<polygon fill="midnightblue" stroke="midnightblue" points="259.974,-193.56 268.18,-200.261 265.944,-189.905 259.974,-193.56"/>
</g>
<!-- Node12 -->
<g id="node11" class="node"><title>Node12</title>
<g id="a_node11"><a xlink:href="_go___solver_8cpp.html" target="_top" xlink:title="D:/Users/Victor/OneDrive\l/Documents/Visual Studio\l 2017/Projects/Jeu_de_Go\l/Jeu_de_Go/Sources/Graphics\l/Go_Solver.cpp">
<polygon fill="none" stroke="black" points="69.5,-0.5 69.5,-63.5 218.5,-63.5 218.5,-0.5 69.5,-0.5"/>
<text text-anchor="start" x="77.5" y="-51.5" font-family="Helvetica,sans-Serif" font-size="10.00">D:/Users/Victor/OneDrive</text>
<text text-anchor="start" x="77.5" y="-40.5" font-family="Helvetica,sans-Serif" font-size="10.00">/Documents/Visual Studio</text>
<text text-anchor="start" x="77.5" y="-29.5" font-family="Helvetica,sans-Serif" font-size="10.00"> 2017/Projects/Jeu_de_Go</text>
<text text-anchor="start" x="77.5" y="-18.5" font-family="Helvetica,sans-Serif" font-size="10.00">/Jeu_de_Go/Sources/Graphics</text>
<text text-anchor="middle" x="144" y="-7.5" font-family="Helvetica,sans-Serif" font-size="10.00">/Go_Solver.cpp</text>
</a>
</g>
</g>
<!-- Node11&#45;&gt;Node12 -->
<g id="edge10" class="edge"><title>Node11&#45;&gt;Node12</title>
<path fill="none" stroke="midnightblue" d="M194.309,-92.4011C186.219,-82.8488 177.66,-72.7436 169.942,-63.6299"/>
<polygon fill="midnightblue" stroke="midnightblue" points="191.832,-94.8922 200.966,-100.261 197.174,-90.3681 191.832,-94.8922"/>
</g>
<!-- Node13 -->
<g id="node12" class="node"><title>Node13</title>
<g id="a_node12"><a xlink:href="_main_8cpp.html" target="_top" xlink:title="D:/Users/Victor/OneDrive\l/Documents/Visual Studio\l 2017/Projects/Jeu_de_Go\l/Jeu_de_Go/Sources/Graphics\l/Main.cpp">
<polygon fill="none" stroke="black" points="236.5,-0.5 236.5,-63.5 385.5,-63.5 385.5,-0.5 236.5,-0.5"/>
<text text-anchor="start" x="244.5" y="-51.5" font-family="Helvetica,sans-Serif" font-size="10.00">D:/Users/Victor/OneDrive</text>
<text text-anchor="start" x="244.5" y="-40.5" font-family="Helvetica,sans-Serif" font-size="10.00">/Documents/Visual Studio</text>
<text text-anchor="start" x="244.5" y="-29.5" font-family="Helvetica,sans-Serif" font-size="10.00"> 2017/Projects/Jeu_de_Go</text>
<text text-anchor="start" x="244.5" y="-18.5" font-family="Helvetica,sans-Serif" font-size="10.00">/Jeu_de_Go/Sources/Graphics</text>
<text text-anchor="middle" x="311" y="-7.5" font-family="Helvetica,sans-Serif" font-size="10.00">/Main.cpp</text>
</a>
</g>
</g>
<!-- Node11&#45;&gt;Node13 -->
<g id="edge11" class="edge"><title>Node11&#45;&gt;Node13</title>
<path fill="none" stroke="midnightblue" d="M260.085,-92.4011C268.272,-82.8488 276.934,-72.7436 284.746,-63.6299"/>
<polygon fill="midnightblue" stroke="midnightblue" points="257.198,-90.3907 253.348,-100.261 262.513,-94.9463 257.198,-90.3907"/>
</g>
<!-- Node14&#45;&gt;Node8 -->
<g id="edge14" class="edge"><title>Node14&#45;&gt;Node8</title>
<path fill="none" stroke="midnightblue" d="M582.684,-395.39C563.885,-384.982 543.51,-373.701 525.321,-363.63"/>
<polygon fill="midnightblue" stroke="midnightblue" points="581.038,-398.479 591.482,-400.261 584.429,-392.355 581.038,-398.479"/>
</g>
<!-- Node15 -->
<g id="node14" class="node"><title>Node15</title>
<g id="a_node14"><a xlink:href="_board_8cpp.html" target="_top" xlink:title="D:/Users/Victor/OneDrive\l/Documents/Visual Studio\l 2017/Projects/Jeu_de_Go\l/Jeu_de_Go/Sources/Graphics\l/Game/Board.cpp">
<polygon fill="none" stroke="black" points="572.5,-300.5 572.5,-363.5 721.5,-363.5 721.5,-300.5 572.5,-300.5"/>
<text text-anchor="start" x="580.5" y="-351.5" font-family="Helvetica,sans-Serif" font-size="10.00">D:/Users/Victor/OneDrive</text>
<text text-anchor="start" x="580.5" y="-340.5" font-family="Helvetica,sans-Serif" font-size="10.00">/Documents/Visual Studio</text>
<text text-anchor="start" x="580.5" y="-329.5" font-family="Helvetica,sans-Serif" font-size="10.00"> 2017/Projects/Jeu_de_Go</text>
<text text-anchor="start" x="580.5" y="-318.5" font-family="Helvetica,sans-Serif" font-size="10.00">/Jeu_de_Go/Sources/Graphics</text>
<text text-anchor="middle" x="647" y="-307.5" font-family="Helvetica,sans-Serif" font-size="10.00">/Game/Board.cpp</text>
</a>
</g>
</g>
<!-- Node14&#45;&gt;Node15 -->
<g id="edge13" class="edge"><title>Node14&#45;&gt;Node15</title>
<path fill="none" stroke="midnightblue" d="M647,-390.099C647,-381.238 647,-372.015 647,-363.63"/>
<polygon fill="midnightblue" stroke="midnightblue" points="643.5,-390.261 647,-400.261 650.5,-390.261 643.5,-390.261"/>
</g>
<!-- Node17&#45;&gt;Node11 -->
<g id="edge18" class="edge"><title>Node17&#45;&gt;Node11</title>
<path fill="none" stroke="midnightblue" d="M135.039,-491.884C140.279,-483.012 145.287,-473.42 149,-464 192.917,-352.58 170.725,-315.332 203,-200 206.363,-187.982 210.808,-175.019 214.958,-163.726"/>
<polygon fill="midnightblue" stroke="midnightblue" points="132.01,-490.129 129.762,-500.482 137.976,-493.79 132.01,-490.129"/>
</g>
<!-- Node18 -->
<g id="node17" class="node"><title>Node18</title>
<g id="a_node17"><a xlink:href="_parser_8cpp.html" target="_top" xlink:title="D:/Users/Victor/OneDrive\l/Documents/Visual Studio\l 2017/Projects/Jeu_de_Go\l/Jeu_de_Go/Sources/Engine\l/Parser.cpp">
<polygon fill="none" stroke="black" points="0,-400.5 0,-463.5 140,-463.5 140,-400.5 0,-400.5"/>
<text text-anchor="start" x="8" y="-451.5" font-family="Helvetica,sans-Serif" font-size="10.00">D:/Users/Victor/OneDrive</text>
<text text-anchor="start" x="8" y="-440.5" font-family="Helvetica,sans-Serif" font-size="10.00">/Documents/Visual Studio</text>
<text text-anchor="start" x="8" y="-429.5" font-family="Helvetica,sans-Serif" font-size="10.00"> 2017/Projects/Jeu_de_Go</text>
<text text-anchor="start" x="8" y="-418.5" font-family="Helvetica,sans-Serif" font-size="10.00">/Jeu_de_Go/Sources/Engine</text>
<text text-anchor="middle" x="70" y="-407.5" font-family="Helvetica,sans-Serif" font-size="10.00">/Parser.cpp</text>
</a>
</g>
</g>
<!-- Node17&#45;&gt;Node18 -->
<g id="edge17" class="edge"><title>Node17&#45;&gt;Node18</title>
<path fill="none" stroke="midnightblue" d="M92.3642,-490.676C88.8603,-481.64 85.1988,-472.197 81.8769,-463.63"/>
<polygon fill="midnightblue" stroke="midnightblue" points="89.2022,-492.203 96.0808,-500.261 95.7287,-489.672 89.2022,-492.203"/>
</g>
<!-- Node19&#45;&gt;Node3 -->
<g id="edge22" class="edge"><title>Node19&#45;&gt;Node3</title>
<path fill="none" stroke="midnightblue" d="M323.911,-693.089C335.658,-681.342 348.302,-668.698 358.946,-658.054"/>
<polygon fill="midnightblue" stroke="midnightblue" points="321.335,-690.715 316.739,-700.261 326.285,-695.665 321.335,-690.715"/>
</g>
<!-- Node20 -->
<g id="node19" class="node"><title>Node20</title>
<g id="a_node19"><a xlink:href="_groupe_8cpp.html" target="_top" xlink:title="D:/Users/Victor/OneDrive\l/Documents/Visual Studio\l 2017/Projects/Jeu_de_Go\l/Jeu_de_Go/Sources/Engine\l/Groupe.cpp">
<polygon fill="none" stroke="black" points="136,-600.5 136,-663.5 276,-663.5 276,-600.5 136,-600.5"/>
<text text-anchor="start" x="144" y="-651.5" font-family="Helvetica,sans-Serif" font-size="10.00">D:/Users/Victor/OneDrive</text>
<text text-anchor="start" x="144" y="-640.5" font-family="Helvetica,sans-Serif" font-size="10.00">/Documents/Visual Studio</text>
<text text-anchor="start" x="144" y="-629.5" font-family="Helvetica,sans-Serif" font-size="10.00"> 2017/Projects/Jeu_de_Go</text>
<text text-anchor="start" x="144" y="-618.5" font-family="Helvetica,sans-Serif" font-size="10.00">/Jeu_de_Go/Sources/Engine</text>
<text text-anchor="middle" x="206" y="-607.5" font-family="Helvetica,sans-Serif" font-size="10.00">/Groupe.cpp</text>
</a>
</g>
</g>
<!-- Node19&#45;&gt;Node20 -->
<g id="edge23" class="edge"><title>Node19&#45;&gt;Node20</title>
<path fill="none" stroke="midnightblue" d="M254.491,-692.401C246.693,-682.849 238.444,-672.744 231.004,-663.63"/>
<polygon fill="midnightblue" stroke="midnightblue" points="251.872,-694.728 260.907,-700.261 257.295,-690.301 251.872,-694.728"/>
</g>
<!-- Node21&#45;&gt;Node3 -->
<g id="edge25" class="edge"><title>Node21&#45;&gt;Node3</title>
<path fill="none" stroke="midnightblue" d="M444.089,-693.089C432.342,-681.342 419.698,-668.698 409.054,-658.054"/>
<polygon fill="midnightblue" stroke="midnightblue" points="441.715,-695.665 451.261,-700.261 446.665,-690.715 441.715,-695.665"/>
</g>
<!-- Node22 -->
<g id="node21" class="node"><title>Node22</title>
<g id="a_node21"><a xlink:href="_history_8cpp.html" target="_top" xlink:title="D:/Users/Victor/OneDrive\l/Documents/Visual Studio\l 2017/Projects/Jeu_de_Go\l/Jeu_de_Go/Sources/Engine\l/History.cpp">
<polygon fill="none" stroke="black" points="492,-600.5 492,-663.5 632,-663.5 632,-600.5 492,-600.5"/>
<text text-anchor="start" x="500" y="-651.5" font-family="Helvetica,sans-Serif" font-size="10.00">D:/Users/Victor/OneDrive</text>
<text text-anchor="start" x="500" y="-640.5" font-family="Helvetica,sans-Serif" font-size="10.00">/Documents/Visual Studio</text>
<text text-anchor="start" x="500" y="-629.5" font-family="Helvetica,sans-Serif" font-size="10.00"> 2017/Projects/Jeu_de_Go</text>
<text text-anchor="start" x="500" y="-618.5" font-family="Helvetica,sans-Serif" font-size="10.00">/Jeu_de_Go/Sources/Engine</text>
<text text-anchor="middle" x="562" y="-607.5" font-family="Helvetica,sans-Serif" font-size="10.00">/History.cpp</text>
</a>
</g>
</g>
<!-- Node21&#45;&gt;Node22 -->
<g id="edge26" class="edge"><title>Node21&#45;&gt;Node22</title>
<path fill="none" stroke="midnightblue" d="M513.509,-692.401C521.307,-682.849 529.556,-672.744 536.996,-663.63"/>
<polygon fill="midnightblue" stroke="midnightblue" points="510.705,-690.301 507.093,-700.261 516.128,-694.728 510.705,-690.301"/>
</g>
<!-- Node24&#45;&gt;Node14 -->
<g id="edge30" class="edge"><title>Node24&#45;&gt;Node14</title>
<path fill="none" stroke="midnightblue" d="M708.489,-493.259C698.486,-483.456 687.834,-473.017 678.255,-463.63"/>
<polygon fill="midnightblue" stroke="midnightblue" points="706.042,-495.762 715.634,-500.261 710.941,-490.762 706.042,-495.762"/>
</g>
<!-- Node25 -->
<g id="node24" class="node"><title>Node25</title>
<g id="a_node24"><a xlink:href="_infos_8h.html" target="_top" xlink:title="D:/Users/Victor/OneDrive\l/Documents/Visual Studio\l 2017/Projects/Jeu_de_Go\l/Jeu_de_Go/Sources/Graphics\l/Game/Infos.h">
<polygon fill="none" stroke="black" points="739.5,-400.5 739.5,-463.5 888.5,-463.5 888.5,-400.5 739.5,-400.5"/>
<text text-anchor="start" x="747.5" y="-451.5" font-family="Helvetica,sans-Serif" font-size="10.00">D:/Users/Victor/OneDrive</text>
<text text-anchor="start" x="747.5" y="-440.5" font-family="Helvetica,sans-Serif" font-size="10.00">/Documents/Visual Studio</text>
<text text-anchor="start" x="747.5" y="-429.5" font-family="Helvetica,sans-Serif" font-size="10.00"> 2017/Projects/Jeu_de_Go</text>
<text text-anchor="start" x="747.5" y="-418.5" font-family="Helvetica,sans-Serif" font-size="10.00">/Jeu_de_Go/Sources/Graphics</text>
<text text-anchor="middle" x="814" y="-407.5" font-family="Helvetica,sans-Serif" font-size="10.00">/Game/Infos.h</text>
</a>
</g>
</g>
<!-- Node24&#45;&gt;Node25 -->
<g id="edge31" class="edge"><title>Node24&#45;&gt;Node25</title>
<path fill="none" stroke="midnightblue" d="M773.781,-491.827C780.196,-482.445 786.953,-472.561 793.059,-463.63"/>
<polygon fill="midnightblue" stroke="midnightblue" points="770.77,-490.031 768.015,-500.261 776.549,-493.981 770.77,-490.031"/>
</g>
<!-- Node27 -->
<g id="node26" class="node"><title>Node27</title>
<g id="a_node26"><a xlink:href="_square_8cpp.html" target="_top" xlink:title="D:/Users/Victor/OneDrive\l/Documents/Visual Studio\l 2017/Projects/Jeu_de_Go\l/Jeu_de_Go/Sources/Graphics\l/Game/Square.cpp">
<polygon fill="none" stroke="black" points="906.5,-400.5 906.5,-463.5 1055.5,-463.5 1055.5,-400.5 906.5,-400.5"/>
<text text-anchor="start" x="914.5" y="-451.5" font-family="Helvetica,sans-Serif" font-size="10.00">D:/Users/Victor/OneDrive</text>
<text text-anchor="start" x="914.5" y="-440.5" font-family="Helvetica,sans-Serif" font-size="10.00">/Documents/Visual Studio</text>
<text text-anchor="start" x="914.5" y="-429.5" font-family="Helvetica,sans-Serif" font-size="10.00"> 2017/Projects/Jeu_de_Go</text>
<text text-anchor="start" x="914.5" y="-418.5" font-family="Helvetica,sans-Serif" font-size="10.00">/Jeu_de_Go/Sources/Graphics</text>
<text text-anchor="middle" x="981" y="-407.5" font-family="Helvetica,sans-Serif" font-size="10.00">/Game/Square.cpp</text>
</a>
</g>
</g>
<!-- Node24&#45;&gt;Node27 -->
<g id="edge34" class="edge"><title>Node24&#45;&gt;Node27</title>
<path fill="none" stroke="midnightblue" d="M829.404,-496.489C855.047,-485.75 883.127,-473.99 908.075,-463.541"/>
<polygon fill="midnightblue" stroke="midnightblue" points="827.948,-493.304 820.077,-500.395 830.652,-499.761 827.948,-493.304"/>
</g>
<!-- Node25&#45;&gt;Node8 -->
<g id="edge32" class="edge"><title>Node25&#45;&gt;Node8</title>
<path fill="none" stroke="midnightblue" d="M729.283,-399.948C655.293,-379.19 633.232,-383.213 563,-364 557.008,-362.361 550.834,-360.559 544.652,-358.674"/>
<polygon fill="midnightblue" stroke="midnightblue" points="728.492,-403.362 739.069,-402.751 730.42,-396.633 728.492,-403.362"/>
</g>
<!-- Node26 -->
<g id="node25" class="node"><title>Node26</title>
<g id="a_node25"><a xlink:href="_infos_8cpp.html" target="_top" xlink:title="D:/Users/Victor/OneDrive\l/Documents/Visual Studio\l 2017/Projects/Jeu_de_Go\l/Jeu_de_Go/Sources/Graphics\l/Game/Infos.cpp">
<polygon fill="none" stroke="black" points="739.5,-300.5 739.5,-363.5 888.5,-363.5 888.5,-300.5 739.5,-300.5"/>
<text text-anchor="start" x="747.5" y="-351.5" font-family="Helvetica,sans-Serif" font-size="10.00">D:/Users/Victor/OneDrive</text>
<text text-anchor="start" x="747.5" y="-340.5" font-family="Helvetica,sans-Serif" font-size="10.00">/Documents/Visual Studio</text>
<text text-anchor="start" x="747.5" y="-329.5" font-family="Helvetica,sans-Serif" font-size="10.00"> 2017/Projects/Jeu_de_Go</text>
<text text-anchor="start" x="747.5" y="-318.5" font-family="Helvetica,sans-Serif" font-size="10.00">/Jeu_de_Go/Sources/Graphics</text>
<text text-anchor="middle" x="814" y="-307.5" font-family="Helvetica,sans-Serif" font-size="10.00">/Game/Infos.cpp</text>
</a>
</g>
</g>
<!-- Node25&#45;&gt;Node26 -->
<g id="edge33" class="edge"><title>Node25&#45;&gt;Node26</title>
<path fill="none" stroke="midnightblue" d="M814,-390.099C814,-381.238 814,-372.015 814,-363.63"/>
<polygon fill="midnightblue" stroke="midnightblue" points="810.5,-390.261 814,-400.261 817.5,-390.261 810.5,-390.261"/>
</g>
</g>
</svg>
