<?xml version="1.0" encoding="UTF-8" standalone="no"?>
<!DOCTYPE svg PUBLIC "-//W3C//DTD SVG 1.1//EN"
 "http://www.w3.org/Graphics/SVG/1.1/DTD/svg11.dtd">
<!-- Generated by graphviz version 2.38.0 (20140413.2041)
 -->
<!-- Title: D:/Users/Victor/OneDrive/Documents/Visual Studio 2017/Projects/Jeu_de_Go/Jeu_de_Go/Sources/Graphics/Game/Game_window.h Pages: 1 -->
<svg width="1003pt" height="408pt"
 viewBox="0.00 0.00 1003.00 408.00" xmlns="http://www.w3.org/2000/svg" xmlns:xlink="http://www.w3.org/1999/xlink">
<g id="graph0" class="graph" transform="scale(1 1) rotate(0) translate(4 404)">
<title>D:/Users/Victor/OneDrive/Documents/Visual Studio 2017/Projects/Jeu_de_Go/Jeu_de_Go/Sources/Graphics/Game/Game_window.h</title>
<!-- Node0 -->
<g id="node1" class="node"><title>Node0</title>
<polygon fill="#bfbfbf" stroke="black" points="390.5,-336.5 390.5,-399.5 539.5,-399.5 539.5,-336.5 390.5,-336.5"/>
<text text-anchor="start" x="398.5" y="-387.5" font-family="Helvetica,sans-Serif" font-size="10.00">D:/Users/Victor/OneDrive</text>
<text text-anchor="start" x="398.5" y="-376.5" font-family="Helvetica,sans-Serif" font-size="10.00">/Documents/Visual Studio</text>
<text text-anchor="start" x="398.5" y="-365.5" font-family="Helvetica,sans-Serif" font-size="10.00"> 2017/Projects/Jeu_de_Go</text>
<text text-anchor="start" x="398.5" y="-354.5" font-family="Helvetica,sans-Serif" font-size="10.00">/Jeu_de_Go/Sources/Graphics</text>
<text text-anchor="middle" x="465" y="-343.5" font-family="Helvetica,sans-Serif" font-size="10.00">/Game/Game_window.h</text>
</g>
<!-- Node1 -->
<g id="node2" class="node"><title>Node1</title>
<g id="a_node2"><a xlink:href="_globals_8h.html" target="_top" xlink:title="../Globals.h">
<polygon fill="none" stroke="black" points="486.5,-56.5 486.5,-75.5 553.5,-75.5 553.5,-56.5 486.5,-56.5"/>
<text text-anchor="middle" x="520" y="-63.5" font-family="Helvetica,sans-Serif" font-size="10.00">../Globals.h</text>
</a>
</g>
</g>
<!-- Node0&#45;&gt;Node1 -->
<g id="edge1" class="edge"><title>Node0&#45;&gt;Node1</title>
<path fill="none" stroke="midnightblue" d="M533.725,-336.34C571.593,-314.301 611,-280.447 611,-235 611,-235 611,-235 611,-177 611,-134.468 570.111,-99.5303 543.151,-81.1161"/>
<polygon fill="midnightblue" stroke="midnightblue" points="544.901,-78.0787 534.621,-75.5177 541.06,-83.9308 544.901,-78.0787"/>
</g>
<!-- Node14 -->
<g id="node15" class="node"><title>Node14</title>
<g id="a_node15"><a xlink:href="_board_8h.html" target="_top" xlink:title="Board.h">
<polygon fill="none" stroke="black" points="386,-280.5 386,-299.5 436,-299.5 436,-280.5 386,-280.5"/>
<text text-anchor="middle" x="411" y="-287.5" font-family="Helvetica,sans-Serif" font-size="10.00">Board.h</text>
</a>
</g>
</g>
<!-- Node0&#45;&gt;Node14 -->
<g id="edge14" class="edge"><title>Node0&#45;&gt;Node14</title>
<path fill="none" stroke="midnightblue" d="M443.036,-336.088C436.247,-326.533 429.018,-316.359 423.148,-308.097"/>
<polygon fill="midnightblue" stroke="midnightblue" points="425.84,-305.843 417.194,-299.718 420.133,-309.897 425.84,-305.843"/>
</g>
<!-- Node17 -->
<g id="node18" class="node"><title>Node17</title>
<g id="a_node18"><a xlink:href="_goban_8h.html" target="_top" xlink:title="../../Engine/Goban.h">
<polygon fill="none" stroke="black" points="191,-168.5 191,-187.5 295,-187.5 295,-168.5 191,-168.5"/>
<text text-anchor="middle" x="243" y="-175.5" font-family="Helvetica,sans-Serif" font-size="10.00">../../Engine/Goban.h</text>
</a>
</g>
</g>
<!-- Node0&#45;&gt;Node17 -->
<g id="edge45" class="edge"><title>Node0&#45;&gt;Node17</title>
<path fill="none" stroke="midnightblue" d="M422.456,-336.422C407.72,-325.361 391.316,-312.507 377,-300 341.026,-268.571 336.83,-255.592 301,-224 288.812,-213.253 274.377,-202.049 262.957,-193.509"/>
<polygon fill="midnightblue" stroke="midnightblue" points="265.02,-190.681 254.899,-187.549 260.858,-196.309 265.02,-190.681"/>
</g>
<!-- Node23 -->
<g id="node24" class="node"><title>Node23</title>
<g id="a_node24"><a xlink:href="_infos_8h.html" target="_top" xlink:title="Infos.h">
<polygon fill="none" stroke="black" points="496.5,-168.5 496.5,-187.5 541.5,-187.5 541.5,-168.5 496.5,-168.5"/>
<text text-anchor="middle" x="519" y="-175.5" font-family="Helvetica,sans-Serif" font-size="10.00">Infos.h</text>
</a>
</g>
</g>
<!-- Node0&#45;&gt;Node23 -->
<g id="edge37" class="edge"><title>Node0&#45;&gt;Node23</title>
<path fill="none" stroke="midnightblue" d="M473.796,-336.376C485.078,-297.099 504.296,-230.19 513.616,-197.746"/>
<polygon fill="midnightblue" stroke="midnightblue" points="517.073,-198.386 516.47,-187.809 510.345,-196.454 517.073,-198.386"/>
</g>
<!-- Node25 -->
<g id="node26" class="node"><title>Node25</title>
<g id="a_node26"><a xlink:href="_screen_8h.html" target="_top" xlink:title="../Screen.h">
<polygon fill="none" stroke="black" points="639.5,-112.5 639.5,-131.5 704.5,-131.5 704.5,-112.5 639.5,-112.5"/>
<text text-anchor="middle" x="672" y="-119.5" font-family="Helvetica,sans-Serif" font-size="10.00">../Screen.h</text>
</a>
</g>
</g>
<!-- Node0&#45;&gt;Node25 -->
<g id="edge42" class="edge"><title>Node0&#45;&gt;Node25</title>
<path fill="none" stroke="midnightblue" d="M539.705,-351.119C570.039,-341.142 603.037,-325.199 625,-300 665.164,-253.918 671.51,-177.216 672.179,-141.881"/>
<polygon fill="midnightblue" stroke="midnightblue" points="675.681,-141.605 672.23,-131.588 668.681,-141.57 675.681,-141.605"/>
</g>
<!-- Node26 -->
<g id="node27" class="node"><title>Node26</title>
<g id="a_node27"><a xlink:href="_i_a_8h.html" target="_top" xlink:title="../../Engine/IA.h">
<polygon fill="none" stroke="black" points="200.5,-280.5 200.5,-299.5 285.5,-299.5 285.5,-280.5 200.5,-280.5"/>
<text text-anchor="middle" x="243" y="-287.5" font-family="Helvetica,sans-Serif" font-size="10.00">../../Engine/IA.h</text>
</a>
</g>
</g>
<!-- Node0&#45;&gt;Node26 -->
<g id="edge46" class="edge"><title>Node0&#45;&gt;Node26</title>
<path fill="none" stroke="midnightblue" d="M390.46,-341.482C352.321,-328.425 307.723,-313.157 277.642,-302.859"/>
<polygon fill="midnightblue" stroke="midnightblue" points="278.622,-299.495 268.027,-299.568 276.354,-306.118 278.622,-299.495"/>
</g>
<!-- Node2 -->
<g id="node3" class="node"><title>Node2</title>
<polygon fill="none" stroke="#bfbfbf" points="891,-0.5 891,-19.5 995,-19.5 995,-0.5 891,-0.5"/>
<text text-anchor="middle" x="943" y="-7.5" font-family="Helvetica,sans-Serif" font-size="10.00">SFML/Graphics.hpp</text>
</g>
<!-- Node1&#45;&gt;Node2 -->
<g id="edge2" class="edge"><title>Node1&#45;&gt;Node2</title>
<path fill="none" stroke="midnightblue" d="M553.971,-61.0391C616.439,-53.6989 754.006,-37.2716 880.516,-20.1766"/>
<polygon fill="midnightblue" stroke="midnightblue" points="881.329,-23.5984 890.768,-18.7864 880.388,-16.6619 881.329,-23.5984"/>
</g>
<!-- Node3 -->
<g id="node4" class="node"><title>Node3</title>
<polygon fill="none" stroke="#bfbfbf" points="232,-0.5 232,-19.5 330,-19.5 330,-0.5 232,-0.5"/>
<text text-anchor="middle" x="281" y="-7.5" font-family="Helvetica,sans-Serif" font-size="10.00">SFML/System.hpp</text>
</g>
<!-- Node1&#45;&gt;Node3 -->
<g id="edge3" class="edge"><title>Node1&#45;&gt;Node3</title>
<path fill="none" stroke="midnightblue" d="M486.264,-57.3776C445.146,-48.0874 375.397,-32.3281 328.772,-21.7936"/>
<polygon fill="midnightblue" stroke="midnightblue" points="329.428,-18.3537 318.902,-19.5637 327.885,-25.1816 329.428,-18.3537"/>
</g>
<!-- Node4 -->
<g id="node5" class="node"><title>Node4</title>
<polygon fill="none" stroke="#bfbfbf" points="348.5,-0.5 348.5,-19.5 447.5,-19.5 447.5,-0.5 348.5,-0.5"/>
<text text-anchor="middle" x="398" y="-7.5" font-family="Helvetica,sans-Serif" font-size="10.00">SFML/Window.hpp</text>
</g>
<!-- Node1&#45;&gt;Node4 -->
<g id="edge4" class="edge"><title>Node1&#45;&gt;Node4</title>
<path fill="none" stroke="midnightblue" d="M500.669,-56.4435C480.68,-47.5961 449.257,-33.6875 426.436,-23.5865"/>
<polygon fill="midnightblue" stroke="midnightblue" points="427.802,-20.3635 417.241,-19.5164 424.968,-26.7645 427.802,-20.3635"/>
</g>
<!-- Node5 -->
<g id="node6" class="node"><title>Node5</title>
<polygon fill="none" stroke="#bfbfbf" points="465.5,-0.5 465.5,-19.5 554.5,-19.5 554.5,-0.5 465.5,-0.5"/>
<text text-anchor="middle" x="510" y="-7.5" font-family="Helvetica,sans-Serif" font-size="10.00">SFML/Audio.hpp</text>
</g>
<!-- Node1&#45;&gt;Node5 -->
<g id="edge5" class="edge"><title>Node1&#45;&gt;Node5</title>
<path fill="none" stroke="midnightblue" d="M518.349,-56.083C517.024,-48.9272 515.118,-38.6353 513.461,-29.6911"/>
<polygon fill="midnightblue" stroke="midnightblue" points="516.883,-28.9466 511.621,-19.7511 510,-30.2212 516.883,-28.9466"/>
</g>
<!-- Node6 -->
<g id="node7" class="node"><title>Node6</title>
<polygon fill="none" stroke="#bfbfbf" points="0,-0.5 0,-19.5 54,-19.5 54,-0.5 0,-0.5"/>
<text text-anchor="middle" x="27" y="-7.5" font-family="Helvetica,sans-Serif" font-size="10.00">iostream</text>
</g>
<!-- Node1&#45;&gt;Node6 -->
<g id="edge6" class="edge"><title>Node1&#45;&gt;Node6</title>
<path fill="none" stroke="midnightblue" d="M486.482,-62.2018C413.164,-55.9379 233.098,-39.7734 83,-20 76.9334,-19.2008 70.5124,-18.2593 64.2665,-17.2917"/>
<polygon fill="midnightblue" stroke="midnightblue" points="64.4399,-13.7753 54.0139,-15.6591 63.3391,-20.6882 64.4399,-13.7753"/>
</g>
<!-- Node7 -->
<g id="node8" class="node"><title>Node7</title>
<polygon fill="none" stroke="#bfbfbf" points="572.5,-0.5 572.5,-19.5 617.5,-19.5 617.5,-0.5 572.5,-0.5"/>
<text text-anchor="middle" x="595" y="-7.5" font-family="Helvetica,sans-Serif" font-size="10.00">cstdlib</text>
</g>
<!-- Node1&#45;&gt;Node7 -->
<g id="edge7" class="edge"><title>Node1&#45;&gt;Node7</title>
<path fill="none" stroke="midnightblue" d="M532.05,-56.324C543.463,-48.1066 560.831,-35.6017 574.435,-25.8069"/>
<polygon fill="midnightblue" stroke="midnightblue" points="576.66,-28.5174 582.731,-19.8339 572.57,-22.8366 576.66,-28.5174"/>
</g>
<!-- Node8 -->
<g id="node9" class="node"><title>Node8</title>
<polygon fill="none" stroke="#bfbfbf" points="635.5,-0.5 635.5,-19.5 676.5,-19.5 676.5,-0.5 635.5,-0.5"/>
<text text-anchor="middle" x="656" y="-7.5" font-family="Helvetica,sans-Serif" font-size="10.00">string</text>
</g>
<!-- Node1&#45;&gt;Node8 -->
<g id="edge8" class="edge"><title>Node1&#45;&gt;Node8</title>
<path fill="none" stroke="midnightblue" d="M541.55,-56.4435C564.296,-47.4121 600.324,-33.1067 625.875,-22.9612"/>
<polygon fill="midnightblue" stroke="midnightblue" points="627.439,-26.1063 635.441,-19.1629 624.856,-19.6004 627.439,-26.1063"/>
</g>
<!-- Node9 -->
<g id="node10" class="node"><title>Node9</title>
<polygon fill="none" stroke="#bfbfbf" points="694.5,-0.5 694.5,-19.5 743.5,-19.5 743.5,-0.5 694.5,-0.5"/>
<text text-anchor="middle" x="719" y="-7.5" font-family="Helvetica,sans-Serif" font-size="10.00">fstream</text>
</g>
<!-- Node1&#45;&gt;Node9 -->
<g id="edge9" class="edge"><title>Node1&#45;&gt;Node9</title>
<path fill="none" stroke="midnightblue" d="M551.532,-56.4435C587.696,-46.6303 646.805,-30.5905 684.263,-20.4261"/>
<polygon fill="midnightblue" stroke="midnightblue" points="685.483,-23.7218 694.217,-17.7251 683.649,-16.9662 685.483,-23.7218"/>
</g>
<!-- Node10 -->
<g id="node11" class="node"><title>Node10</title>
<polygon fill="none" stroke="#bfbfbf" points="761.5,-0.5 761.5,-19.5 810.5,-19.5 810.5,-0.5 761.5,-0.5"/>
<text text-anchor="middle" x="786" y="-7.5" font-family="Helvetica,sans-Serif" font-size="10.00">cassert</text>
</g>
<!-- Node1&#45;&gt;Node10 -->
<g id="edge10" class="edge"><title>Node1&#45;&gt;Node10</title>
<path fill="none" stroke="midnightblue" d="M553.573,-59.2187C596.969,-51.5864 675.069,-37.3106 751.386,-20.0154"/>
<polygon fill="midnightblue" stroke="midnightblue" points="752.197,-23.4203 761.165,-17.7799 750.637,-16.5964 752.197,-23.4203"/>
</g>
<!-- Node11 -->
<g id="node12" class="node"><title>Node11</title>
<polygon fill="none" stroke="#bfbfbf" points="92.5,-0.5 92.5,-19.5 151.5,-19.5 151.5,-0.5 92.5,-0.5"/>
<text text-anchor="middle" x="122" y="-7.5" font-family="Helvetica,sans-Serif" font-size="10.00">stdexcept</text>
</g>
<!-- Node1&#45;&gt;Node11 -->
<g id="edge11" class="edge"><title>Node1&#45;&gt;Node11</title>
<path fill="none" stroke="midnightblue" d="M486.171,-61.9225C423.994,-56.0159 287.209,-41.8596 161.9,-19.9879"/>
<polygon fill="midnightblue" stroke="midnightblue" points="162.203,-16.4872 151.746,-18.1939 160.985,-23.3805 162.203,-16.4872"/>
</g>
<!-- Node12 -->
<g id="node13" class="node"><title>Node12</title>
<polygon fill="none" stroke="#bfbfbf" points="829,-0.5 829,-19.5 873,-19.5 873,-0.5 829,-0.5"/>
<text text-anchor="middle" x="851" y="-7.5" font-family="Helvetica,sans-Serif" font-size="10.00">thread</text>
</g>
<!-- Node1&#45;&gt;Node12 -->
<g id="edge12" class="edge"><title>Node1&#45;&gt;Node12</title>
<path fill="none" stroke="midnightblue" d="M553.879,-61.2982C607.832,-55.101 716.716,-41.3623 818.849,-19.767"/>
<polygon fill="midnightblue" stroke="midnightblue" points="819.665,-23.1715 828.709,-17.6526 818.198,-16.3271 819.665,-23.1715"/>
</g>
<!-- Node13 -->
<g id="node14" class="node"><title>Node13</title>
<polygon fill="none" stroke="#bfbfbf" points="170,-0.5 170,-19.5 214,-19.5 214,-0.5 170,-0.5"/>
<text text-anchor="middle" x="192" y="-7.5" font-family="Helvetica,sans-Serif" font-size="10.00">cmath</text>
</g>
<!-- Node1&#45;&gt;Node13 -->
<g id="edge13" class="edge"><title>Node1&#45;&gt;Node13</title>
<path fill="none" stroke="midnightblue" d="M486.329,-61.3686C432.765,-55.2744 324.737,-41.6905 224.27,-20.0348"/>
<polygon fill="midnightblue" stroke="midnightblue" points="224.777,-16.5631 214.26,-17.8445 223.281,-23.4013 224.777,-16.5631"/>
</g>
<!-- Node14&#45;&gt;Node1 -->
<g id="edge15" class="edge"><title>Node14&#45;&gt;Node1</title>
<path fill="none" stroke="midnightblue" d="M413.872,-280.167C422.665,-253.679 450.771,-172.973 486,-112 491.817,-101.932 499.553,-91.5217 506.177,-83.2529"/>
<polygon fill="midnightblue" stroke="midnightblue" points="508.893,-85.4597 512.549,-75.5154 503.49,-81.0097 508.893,-85.4597"/>
</g>
<!-- Node15 -->
<g id="node16" class="node"><title>Node15</title>
<g id="a_node16"><a xlink:href="_square_8h.html" target="_top" xlink:title="Square.h">
<polygon fill="none" stroke="black" points="383,-112.5 383,-131.5 439,-131.5 439,-112.5 383,-112.5"/>
<text text-anchor="middle" x="411" y="-119.5" font-family="Helvetica,sans-Serif" font-size="10.00">Square.h</text>
</a>
</g>
</g>
<!-- Node14&#45;&gt;Node15 -->
<g id="edge16" class="edge"><title>Node14&#45;&gt;Node15</title>
<path fill="none" stroke="midnightblue" d="M411,-280.075C411,-253.945 411,-177.211 411,-141.577"/>
<polygon fill="midnightblue" stroke="midnightblue" points="414.5,-141.568 411,-131.568 407.5,-141.568 414.5,-141.568"/>
</g>
<!-- Node14&#45;&gt;Node17 -->
<g id="edge20" class="edge"><title>Node14&#45;&gt;Node17</title>
<path fill="none" stroke="midnightblue" d="M402.829,-280.097C390.151,-266.657 364.53,-240.959 339,-224 319.154,-210.817 294.835,-199.461 275.639,-191.455"/>
<polygon fill="midnightblue" stroke="midnightblue" points="276.701,-188.108 266.119,-187.581 274.063,-194.592 276.701,-188.108"/>
</g>
<!-- Node22 -->
<g id="node23" class="node"><title>Node22</title>
<g id="a_node23"><a xlink:href="_arbre_8h.html" target="_top" xlink:title="../../Engine/Arbre.h">
<polygon fill="none" stroke="black" points="193.5,-224.5 193.5,-243.5 292.5,-243.5 292.5,-224.5 193.5,-224.5"/>
<text text-anchor="middle" x="243" y="-231.5" font-family="Helvetica,sans-Serif" font-size="10.00">../../Engine/Arbre.h</text>
</a>
</g>
</g>
<!-- Node14&#45;&gt;Node22 -->
<g id="edge33" class="edge"><title>Node14&#45;&gt;Node22</title>
<path fill="none" stroke="midnightblue" d="M385.849,-280.916C357.683,-271.862 311.778,-257.107 279.629,-246.773"/>
<polygon fill="midnightblue" stroke="midnightblue" points="280.305,-243.315 269.714,-243.587 278.163,-249.979 280.305,-243.315"/>
</g>
<!-- Node15&#45;&gt;Node1 -->
<g id="edge17" class="edge"><title>Node15&#45;&gt;Node1</title>
<path fill="none" stroke="midnightblue" d="M428.513,-112.324C446.072,-103.625 473.331,-90.1202 493.531,-80.113"/>
<polygon fill="midnightblue" stroke="midnightblue" points="495.124,-83.23 502.531,-75.6545 492.016,-76.9575 495.124,-83.23"/>
</g>
<!-- Node16 -->
<g id="node17" class="node"><title>Node16</title>
<g id="a_node17"><a xlink:href="_etat_8h.html" target="_top" xlink:title="../../Engine/Etat.h">
<polygon fill="none" stroke="black" points="121,-56.5 121,-75.5 215,-75.5 215,-56.5 121,-56.5"/>
<text text-anchor="middle" x="168" y="-63.5" font-family="Helvetica,sans-Serif" font-size="10.00">../../Engine/Etat.h</text>
</a>
</g>
</g>
<!-- Node15&#45;&gt;Node16 -->
<g id="edge18" class="edge"><title>Node15&#45;&gt;Node16</title>
<path fill="none" stroke="midnightblue" d="M382.649,-114.7C341.889,-105.642 266.174,-88.8164 216.44,-77.7643"/>
<polygon fill="midnightblue" stroke="midnightblue" points="217.071,-74.3194 206.55,-75.5667 215.553,-81.1527 217.071,-74.3194"/>
</g>
<!-- Node16&#45;&gt;Node6 -->
<g id="edge19" class="edge"><title>Node16&#45;&gt;Node6</title>
<path fill="none" stroke="midnightblue" d="M145.658,-56.4435C122.247,-47.4776 85.2644,-33.314 58.8104,-23.1827"/>
<polygon fill="midnightblue" stroke="midnightblue" points="59.8277,-19.8245 49.2373,-19.5164 57.3241,-26.3615 59.8277,-19.8245"/>
</g>
<!-- Node17&#45;&gt;Node6 -->
<g id="edge21" class="edge"><title>Node17&#45;&gt;Node6</title>
<path fill="none" stroke="midnightblue" d="M190.816,-169.586C160.469,-163.335 122.676,-152.055 94,-132 58.3728,-107.084 39.6268,-56.8876 31.7043,-29.6327"/>
<polygon fill="midnightblue" stroke="midnightblue" points="35.0319,-28.531 29.0302,-19.8 28.2772,-30.368 35.0319,-28.531"/>
</g>
<!-- Node17&#45;&gt;Node11 -->
<g id="edge32" class="edge"><title>Node17&#45;&gt;Node11</title>
<path fill="none" stroke="midnightblue" d="M244.24,-168.307C246.808,-146.806 250.443,-90.3879 224,-56 215.474,-44.9118 184.061,-31.9999 158.323,-22.858"/>
<polygon fill="midnightblue" stroke="midnightblue" points="159.391,-19.5239 148.796,-19.5506 157.095,-26.1367 159.391,-19.5239"/>
</g>
<!-- Node17&#45;&gt;Node13 -->
<g id="edge22" class="edge"><title>Node17&#45;&gt;Node13</title>
<path fill="none" stroke="midnightblue" d="M282.255,-168.475C301.996,-161.99 324.184,-150.843 336,-132 347.664,-113.398 334.843,-70.0297 322,-56 315.146,-48.5122 260.058,-31.1223 223.826,-20.2854"/>
<polygon fill="midnightblue" stroke="midnightblue" points="224.745,-16.9073 214.162,-17.4162 222.752,-23.6178 224.745,-16.9073"/>
</g>
<!-- Node17&#45;&gt;Node16 -->
<g id="edge24" class="edge"><title>Node17&#45;&gt;Node16</title>
<path fill="none" stroke="midnightblue" d="M237.115,-168.368C224.738,-150.215 195.819,-107.802 179.584,-83.9902"/>
<polygon fill="midnightblue" stroke="midnightblue" points="182.383,-81.882 173.858,-75.5914 176.599,-85.8254 182.383,-81.882"/>
</g>
<!-- Node18 -->
<g id="node19" class="node"><title>Node18</title>
<polygon fill="none" stroke="#bfbfbf" points="61,-56.5 61,-75.5 103,-75.5 103,-56.5 61,-56.5"/>
<text text-anchor="middle" x="82" y="-63.5" font-family="Helvetica,sans-Serif" font-size="10.00">vector</text>
</g>
<!-- Node17&#45;&gt;Node18 -->
<g id="edge23" class="edge"><title>Node17&#45;&gt;Node18</title>
<path fill="none" stroke="midnightblue" d="M190.793,-169.084C164.543,-162.808 133.771,-151.666 112,-132 98.4768,-119.784 90.6031,-100.239 86.3436,-85.7671"/>
<polygon fill="midnightblue" stroke="midnightblue" points="89.6774,-84.6814 83.7572,-75.8949 82.9059,-86.4555 89.6774,-84.6814"/>
</g>
<!-- Node19 -->
<g id="node20" class="node"><title>Node19</title>
<g id="a_node20"><a xlink:href="_groupe_8h.html" target="_top" xlink:title="Groupe.h">
<polygon fill="none" stroke="black" points="121,-112.5 121,-131.5 177,-131.5 177,-112.5 121,-112.5"/>
<text text-anchor="middle" x="149" y="-119.5" font-family="Helvetica,sans-Serif" font-size="10.00">Groupe.h</text>
</a>
</g>
</g>
<!-- Node17&#45;&gt;Node19 -->
<g id="edge25" class="edge"><title>Node17&#45;&gt;Node19</title>
<path fill="none" stroke="midnightblue" d="M227.897,-168.324C213.097,-159.822 190.306,-146.729 173.018,-136.797"/>
<polygon fill="midnightblue" stroke="midnightblue" points="174.48,-133.601 164.065,-131.655 170.993,-139.671 174.48,-133.601"/>
</g>
<!-- Node20 -->
<g id="node21" class="node"><title>Node20</title>
<g id="a_node21"><a xlink:href="_history_8h.html" target="_top" xlink:title="History.h">
<polygon fill="none" stroke="black" points="271,-112.5 271,-131.5 327,-131.5 327,-112.5 271,-112.5"/>
<text text-anchor="middle" x="299" y="-119.5" font-family="Helvetica,sans-Serif" font-size="10.00">History.h</text>
</a>
</g>
</g>
<!-- Node17&#45;&gt;Node20 -->
<g id="edge28" class="edge"><title>Node17&#45;&gt;Node20</title>
<path fill="none" stroke="midnightblue" d="M251.997,-168.324C260.194,-160.42 272.506,-148.548 282.472,-138.938"/>
<polygon fill="midnightblue" stroke="midnightblue" points="285.07,-141.295 289.839,-131.834 280.211,-136.256 285.07,-141.295"/>
</g>
<!-- Node19&#45;&gt;Node16 -->
<g id="edge27" class="edge"><title>Node19&#45;&gt;Node16</title>
<path fill="none" stroke="midnightblue" d="M152.137,-112.083C154.683,-104.849 158.356,-94.4087 161.527,-85.3968"/>
<polygon fill="midnightblue" stroke="midnightblue" points="164.903,-86.3459 164.921,-75.7511 158.3,-84.0225 164.903,-86.3459"/>
</g>
<!-- Node19&#45;&gt;Node18 -->
<g id="edge26" class="edge"><title>Node19&#45;&gt;Node18</title>
<path fill="none" stroke="midnightblue" d="M138.235,-112.324C128.234,-104.263 113.113,-92.0765 101.07,-82.3695"/>
<polygon fill="midnightblue" stroke="midnightblue" points="102.943,-79.3841 92.9606,-75.8339 98.5502,-84.8343 102.943,-79.3841"/>
</g>
<!-- Node20&#45;&gt;Node1 -->
<g id="edge29" class="edge"><title>Node20&#45;&gt;Node1</title>
<path fill="none" stroke="midnightblue" d="M327.439,-114.051C365.185,-104.828 432.198,-88.4539 476.367,-77.6615"/>
<polygon fill="midnightblue" stroke="midnightblue" points="477.364,-81.0208 486.248,-75.2471 475.703,-74.2208 477.364,-81.0208"/>
</g>
<!-- Node20&#45;&gt;Node16 -->
<g id="edge30" class="edge"><title>Node20&#45;&gt;Node16</title>
<path fill="none" stroke="midnightblue" d="M278.243,-112.444C256.684,-103.557 222.737,-89.5632 198.206,-79.4514"/>
<polygon fill="midnightblue" stroke="midnightblue" points="199.239,-76.0917 188.66,-75.5164 196.572,-82.5634 199.239,-76.0917"/>
</g>
<!-- Node21 -->
<g id="node22" class="node"><title>Node21</title>
<polygon fill="none" stroke="#bfbfbf" points="284.5,-56.5 284.5,-75.5 313.5,-75.5 313.5,-56.5 284.5,-56.5"/>
<text text-anchor="middle" x="299" y="-63.5" font-family="Helvetica,sans-Serif" font-size="10.00">list</text>
</g>
<!-- Node20&#45;&gt;Node21 -->
<g id="edge31" class="edge"><title>Node20&#45;&gt;Node21</title>
<path fill="none" stroke="midnightblue" d="M299,-112.083C299,-105.006 299,-94.8611 299,-85.9865"/>
<polygon fill="midnightblue" stroke="midnightblue" points="302.5,-85.751 299,-75.7511 295.5,-85.7511 302.5,-85.751"/>
</g>
<!-- Node22&#45;&gt;Node6 -->
<g id="edge35" class="edge"><title>Node22&#45;&gt;Node6</title>
<path fill="none" stroke="midnightblue" d="M208.515,-224.496C183.441,-217.294 149.408,-205.346 123,-188 70.5444,-153.545 57.6866,-135.252 37,-76 31.7606,-60.993 29.2624,-43.085 28.0734,-29.8694"/>
<polygon fill="midnightblue" stroke="midnightblue" points="31.5467,-29.374 27.3296,-19.6546 24.5652,-29.8824 31.5467,-29.374"/>
</g>
<!-- Node22&#45;&gt;Node17 -->
<g id="edge34" class="edge"><title>Node22&#45;&gt;Node17</title>
<path fill="none" stroke="midnightblue" d="M243,-224.083C243,-217.006 243,-206.861 243,-197.986"/>
<polygon fill="midnightblue" stroke="midnightblue" points="246.5,-197.751 243,-187.751 239.5,-197.751 246.5,-197.751"/>
</g>
<!-- Node22&#45;&gt;Node18 -->
<g id="edge36" class="edge"><title>Node22&#45;&gt;Node18</title>
<path fill="none" stroke="midnightblue" d="M220.647,-224.496C187.297,-210.574 125.114,-179.612 94,-132 85.0742,-118.341 82.3616,-99.8033 81.7139,-86.0197"/>
<polygon fill="midnightblue" stroke="midnightblue" points="85.21,-85.719 81.5644,-75.7712 78.2107,-85.8212 85.21,-85.719"/>
</g>
<!-- Node23&#45;&gt;Node1 -->
<g id="edge38" class="edge"><title>Node23&#45;&gt;Node1</title>
<path fill="none" stroke="midnightblue" d="M528.288,-168.395C536.581,-160.025 548.144,-146.483 553,-132 558.809,-114.676 547.57,-96.2187 536.664,-83.4163"/>
<polygon fill="midnightblue" stroke="midnightblue" points="539.078,-80.8712 529.728,-75.8886 533.93,-85.6145 539.078,-80.8712"/>
</g>
<!-- Node23&#45;&gt;Node15 -->
<g id="edge39" class="edge"><title>Node23&#45;&gt;Node15</title>
<path fill="none" stroke="midnightblue" d="M501.648,-168.324C484.328,-159.664 457.485,-146.242 437.498,-136.249"/>
<polygon fill="midnightblue" stroke="midnightblue" points="438.819,-132.996 428.309,-131.655 435.688,-139.257 438.819,-132.996"/>
</g>
<!-- Node24 -->
<g id="node25" class="node"><title>Node24</title>
<g id="a_node25"><a xlink:href="_timer_8h.html" target="_top" xlink:title="Timer.h">
<polygon fill="none" stroke="black" points="495.5,-112.5 495.5,-131.5 544.5,-131.5 544.5,-112.5 495.5,-112.5"/>
<text text-anchor="middle" x="520" y="-119.5" font-family="Helvetica,sans-Serif" font-size="10.00">Timer.h</text>
</a>
</g>
</g>
<!-- Node23&#45;&gt;Node24 -->
<g id="edge40" class="edge"><title>Node23&#45;&gt;Node24</title>
<path fill="none" stroke="midnightblue" d="M519.165,-168.083C519.296,-161.006 519.484,-150.861 519.648,-141.986"/>
<polygon fill="midnightblue" stroke="midnightblue" points="523.152,-141.814 519.838,-131.751 516.153,-141.685 523.152,-141.814"/>
</g>
<!-- Node24&#45;&gt;Node1 -->
<g id="edge41" class="edge"><title>Node24&#45;&gt;Node1</title>
<path fill="none" stroke="midnightblue" d="M520,-112.083C520,-105.006 520,-94.8611 520,-85.9865"/>
<polygon fill="midnightblue" stroke="midnightblue" points="523.5,-85.751 520,-75.7511 516.5,-85.7511 523.5,-85.751"/>
</g>
<!-- Node25&#45;&gt;Node1 -->
<g id="edge44" class="edge"><title>Node25&#45;&gt;Node1</title>
<path fill="none" stroke="midnightblue" d="M647.915,-112.444C622.455,-103.399 582.106,-89.064 553.541,-78.9158"/>
<polygon fill="midnightblue" stroke="midnightblue" points="554.567,-75.5661 543.972,-75.5164 552.223,-82.1622 554.567,-75.5661"/>
</g>
<!-- Node25&#45;&gt;Node2 -->
<g id="edge43" class="edge"><title>Node25&#45;&gt;Node2</title>
<path fill="none" stroke="midnightblue" d="M693.265,-112.368C741.055,-92.9703 857.094,-45.8696 912.532,-23.3673"/>
<polygon fill="midnightblue" stroke="midnightblue" points="913.884,-26.5955 921.834,-19.5914 911.252,-20.1095 913.884,-26.5955"/>
</g>
<!-- Node26&#45;&gt;Node22 -->
<g id="edge48" class="edge"><title>Node26&#45;&gt;Node22</title>
<path fill="none" stroke="midnightblue" d="M243,-280.083C243,-273.006 243,-262.861 243,-253.986"/>
<polygon fill="midnightblue" stroke="midnightblue" points="246.5,-253.751 243,-243.751 239.5,-253.751 246.5,-253.751"/>
</g>
<!-- Node27 -->
<g id="node28" class="node"><title>Node27</title>
<polygon fill="none" stroke="#bfbfbf" points="129,-224.5 129,-243.5 175,-243.5 175,-224.5 129,-224.5"/>
<text text-anchor="middle" x="152" y="-231.5" font-family="Helvetica,sans-Serif" font-size="10.00">chrono</text>
</g>
<!-- Node26&#45;&gt;Node27 -->
<g id="edge47" class="edge"><title>Node26&#45;&gt;Node27</title>
<path fill="none" stroke="midnightblue" d="M228.379,-280.324C214.051,-271.822 191.987,-258.729 175.251,-248.797"/>
<polygon fill="midnightblue" stroke="midnightblue" points="176.97,-245.748 166.584,-243.655 173.398,-251.768 176.97,-245.748"/>
</g>
</g>
</svg>
