<?xml version="1.0" encoding="UTF-8" standalone="no"?>
<!DOCTYPE svg PUBLIC "-//W3C//DTD SVG 1.1//EN"
 "http://www.w3.org/Graphics/SVG/1.1/DTD/svg11.dtd">
<!-- Generated by graphviz version 2.38.0 (20140413.2041)
 -->
<!-- Title: D:/Users/Victor/OneDrive/Documents/Visual Studio 2017/Projects/Jeu_de_Go/Jeu_de_Go/Sources/Graphics/Go_Solver.cpp Pages: 1 -->
<svg width="1351pt" height="576pt"
 viewBox="0.00 0.00 1351.00 576.00" xmlns="http://www.w3.org/2000/svg" xmlns:xlink="http://www.w3.org/1999/xlink">
<g id="graph0" class="graph" transform="scale(1 1) rotate(0) translate(4 572)">
<title>D:/Users/Victor/OneDrive/Documents/Visual Studio 2017/Projects/Jeu_de_Go/Jeu_de_Go/Sources/Graphics/Go_Solver.cpp</title>
<!-- Node0 -->
<g id="node1" class="node"><title>Node0</title>
<polygon fill="#bfbfbf" stroke="black" points="456.5,-504.5 456.5,-567.5 605.5,-567.5 605.5,-504.5 456.5,-504.5"/>
<text text-anchor="start" x="464.5" y="-555.5" font-family="Helvetica,sans-Serif" font-size="10.00">D:/Users/Victor/OneDrive</text>
<text text-anchor="start" x="464.5" y="-544.5" font-family="Helvetica,sans-Serif" font-size="10.00">/Documents/Visual Studio</text>
<text text-anchor="start" x="464.5" y="-533.5" font-family="Helvetica,sans-Serif" font-size="10.00"> 2017/Projects/Jeu_de_Go</text>
<text text-anchor="start" x="464.5" y="-522.5" font-family="Helvetica,sans-Serif" font-size="10.00">/Jeu_de_Go/Sources/Graphics</text>
<text text-anchor="middle" x="531" y="-511.5" font-family="Helvetica,sans-Serif" font-size="10.00">/Go_Solver.cpp</text>
</g>
<!-- Node1 -->
<g id="node2" class="node"><title>Node1</title>
<g id="a_node2"><a xlink:href="_go___solver_8h.html" target="_top" xlink:title="Go_Solver.h">
<polygon fill="none" stroke="black" points="496.5,-448.5 496.5,-467.5 565.5,-467.5 565.5,-448.5 496.5,-448.5"/>
<text text-anchor="middle" x="531" y="-455.5" font-family="Helvetica,sans-Serif" font-size="10.00">Go_Solver.h</text>
</a>
</g>
</g>
<!-- Node0&#45;&gt;Node1 -->
<g id="edge1" class="edge"><title>Node0&#45;&gt;Node1</title>
<path fill="none" stroke="midnightblue" d="M531,-504.088C531,-495.15 531,-485.669 531,-477.719"/>
<polygon fill="midnightblue" stroke="midnightblue" points="534.5,-477.718 531,-467.718 527.5,-477.718 534.5,-477.718"/>
</g>
<!-- Node2 -->
<g id="node3" class="node"><title>Node2</title>
<g id="a_node3"><a xlink:href="_globals_8h.html" target="_top" xlink:title="Globals.h">
<polygon fill="none" stroke="black" points="502,-56.5 502,-75.5 560,-75.5 560,-56.5 502,-56.5"/>
<text text-anchor="middle" x="531" y="-63.5" font-family="Helvetica,sans-Serif" font-size="10.00">Globals.h</text>
</a>
</g>
</g>
<!-- Node1&#45;&gt;Node2 -->
<g id="edge2" class="edge"><title>Node1&#45;&gt;Node2</title>
<path fill="none" stroke="midnightblue" d="M531,-448.442C531,-429.936 531,-384.813 531,-347 531,-347 531,-347 531,-177 531,-144.948 531,-107.643 531,-85.7489"/>
<polygon fill="midnightblue" stroke="midnightblue" points="534.5,-85.5577 531,-75.5578 527.5,-85.5578 534.5,-85.5577"/>
</g>
<!-- Node15 -->
<g id="node16" class="node"><title>Node15</title>
<g id="a_node16"><a xlink:href="_screens_8h.html" target="_top" xlink:title="Screens.h">
<polygon fill="none" stroke="black" points="188.5,-392.5 188.5,-411.5 249.5,-411.5 249.5,-392.5 188.5,-392.5"/>
<text text-anchor="middle" x="219" y="-399.5" font-family="Helvetica,sans-Serif" font-size="10.00">Screens.h</text>
</a>
</g>
</g>
<!-- Node1&#45;&gt;Node15 -->
<g id="edge15" class="edge"><title>Node1&#45;&gt;Node15</title>
<path fill="none" stroke="midnightblue" d="M496.418,-451.015C438.376,-440.969 321.644,-420.765 259.727,-410.049"/>
<polygon fill="midnightblue" stroke="midnightblue" points="260.003,-406.545 249.553,-408.288 258.81,-413.442 260.003,-406.545"/>
</g>
<!-- Node38 -->
<g id="node39" class="node"><title>Node38</title>
<g id="a_node39"><a xlink:href="_parser_8h.html" target="_top" xlink:title="../Engine/Parser.h">
<polygon fill="none" stroke="black" points="1085.5,-224.5 1085.5,-243.5 1180.5,-243.5 1180.5,-224.5 1085.5,-224.5"/>
<text text-anchor="middle" x="1133" y="-231.5" font-family="Helvetica,sans-Serif" font-size="10.00">../Engine/Parser.h</text>
</a>
</g>
</g>
<!-- Node1&#45;&gt;Node38 -->
<g id="edge72" class="edge"><title>Node1&#45;&gt;Node38</title>
<path fill="none" stroke="midnightblue" d="M554.23,-448.433C647.161,-414.163 992.338,-286.872 1100.42,-247.013"/>
<polygon fill="midnightblue" stroke="midnightblue" points="1101.67,-250.285 1109.84,-243.541 1099.25,-243.717 1101.67,-250.285"/>
</g>
<!-- Node3 -->
<g id="node4" class="node"><title>Node3</title>
<polygon fill="none" stroke="#bfbfbf" points="72,-0.5 72,-19.5 176,-19.5 176,-0.5 72,-0.5"/>
<text text-anchor="middle" x="124" y="-7.5" font-family="Helvetica,sans-Serif" font-size="10.00">SFML/Graphics.hpp</text>
</g>
<!-- Node2&#45;&gt;Node3 -->
<g id="edge3" class="edge"><title>Node2&#45;&gt;Node3</title>
<path fill="none" stroke="midnightblue" d="M501.815,-61.3758C443.799,-54.1347 309.624,-37.2041 186.234,-20.1524"/>
<polygon fill="midnightblue" stroke="midnightblue" points="186.621,-16.6726 176.235,-18.7669 185.66,-23.6063 186.621,-16.6726"/>
</g>
<!-- Node4 -->
<g id="node5" class="node"><title>Node4</title>
<polygon fill="none" stroke="#bfbfbf" points="316,-0.5 316,-19.5 414,-19.5 414,-0.5 316,-0.5"/>
<text text-anchor="middle" x="365" y="-7.5" font-family="Helvetica,sans-Serif" font-size="10.00">SFML/System.hpp</text>
</g>
<!-- Node2&#45;&gt;Node4 -->
<g id="edge4" class="edge"><title>Node2&#45;&gt;Node4</title>
<path fill="none" stroke="midnightblue" d="M504.697,-56.4435C476.649,-47.3196 432.056,-32.8133 400.816,-22.6509"/>
<polygon fill="midnightblue" stroke="midnightblue" points="401.772,-19.2816 391.18,-19.5164 399.607,-25.9383 401.772,-19.2816"/>
</g>
<!-- Node5 -->
<g id="node6" class="node"><title>Node5</title>
<polygon fill="none" stroke="#bfbfbf" points="432.5,-0.5 432.5,-19.5 531.5,-19.5 531.5,-0.5 432.5,-0.5"/>
<text text-anchor="middle" x="482" y="-7.5" font-family="Helvetica,sans-Serif" font-size="10.00">SFML/Window.hpp</text>
</g>
<!-- Node2&#45;&gt;Node5 -->
<g id="edge5" class="edge"><title>Node2&#45;&gt;Node5</title>
<path fill="none" stroke="midnightblue" d="M522.909,-56.083C515.845,-48.2982 505.412,-36.8015 496.851,-27.3665"/>
<polygon fill="midnightblue" stroke="midnightblue" points="499.253,-24.8047 489.941,-19.7511 494.069,-29.5087 499.253,-24.8047"/>
</g>
<!-- Node6 -->
<g id="node7" class="node"><title>Node6</title>
<polygon fill="none" stroke="#bfbfbf" points="549.5,-0.5 549.5,-19.5 638.5,-19.5 638.5,-0.5 549.5,-0.5"/>
<text text-anchor="middle" x="594" y="-7.5" font-family="Helvetica,sans-Serif" font-size="10.00">SFML/Audio.hpp</text>
</g>
<!-- Node2&#45;&gt;Node6 -->
<g id="edge6" class="edge"><title>Node2&#45;&gt;Node6</title>
<path fill="none" stroke="midnightblue" d="M541.122,-56.324C550.526,-48.2631 564.744,-36.0765 576.069,-26.3695"/>
<polygon fill="midnightblue" stroke="midnightblue" points="578.379,-28.9993 583.694,-19.8339 573.823,-23.6844 578.379,-28.9993"/>
</g>
<!-- Node7 -->
<g id="node8" class="node"><title>Node7</title>
<polygon fill="none" stroke="#bfbfbf" points="1069,-0.5 1069,-19.5 1123,-19.5 1123,-0.5 1069,-0.5"/>
<text text-anchor="middle" x="1096" y="-7.5" font-family="Helvetica,sans-Serif" font-size="10.00">iostream</text>
</g>
<!-- Node2&#45;&gt;Node7 -->
<g id="edge7" class="edge"><title>Node2&#45;&gt;Node7</title>
<path fill="none" stroke="midnightblue" d="M560.409,-62.223C579.408,-60.4339 604.664,-58.0648 627,-56 802.535,-39.7728 846.705,-38.6436 1022,-20 1034.04,-18.7191 1047.17,-17.1719 1058.98,-15.7243"/>
<polygon fill="midnightblue" stroke="midnightblue" points="1059.47,-19.1911 1068.96,-14.4871 1058.6,-12.2443 1059.47,-19.1911"/>
</g>
<!-- Node8 -->
<g id="node9" class="node"><title>Node8</title>
<polygon fill="none" stroke="#bfbfbf" points="656.5,-0.5 656.5,-19.5 701.5,-19.5 701.5,-0.5 656.5,-0.5"/>
<text text-anchor="middle" x="679" y="-7.5" font-family="Helvetica,sans-Serif" font-size="10.00">cstdlib</text>
</g>
<!-- Node2&#45;&gt;Node8 -->
<g id="edge8" class="edge"><title>Node2&#45;&gt;Node8</title>
<path fill="none" stroke="midnightblue" d="M554.451,-56.4435C579.278,-47.3851 618.645,-33.0213 646.466,-22.8705"/>
<polygon fill="midnightblue" stroke="midnightblue" points="647.95,-26.0547 656.145,-19.339 645.551,-19.4787 647.95,-26.0547"/>
</g>
<!-- Node9 -->
<g id="node10" class="node"><title>Node9</title>
<polygon fill="none" stroke="#bfbfbf" points="194.5,-0.5 194.5,-19.5 235.5,-19.5 235.5,-0.5 194.5,-0.5"/>
<text text-anchor="middle" x="215" y="-7.5" font-family="Helvetica,sans-Serif" font-size="10.00">string</text>
</g>
<!-- Node2&#45;&gt;Node9 -->
<g id="edge9" class="edge"><title>Node2&#45;&gt;Node9</title>
<path fill="none" stroke="midnightblue" d="M501.931,-61.7466C451.639,-55.8351 345.037,-42.0617 245.479,-19.8178"/>
<polygon fill="midnightblue" stroke="midnightblue" points="246.086,-16.3666 235.559,-17.5675 244.537,-23.1931 246.086,-16.3666"/>
</g>
<!-- Node10 -->
<g id="node11" class="node"><title>Node10</title>
<polygon fill="none" stroke="#bfbfbf" points="964.5,-0.5 964.5,-19.5 1013.5,-19.5 1013.5,-0.5 964.5,-0.5"/>
<text text-anchor="middle" x="989" y="-7.5" font-family="Helvetica,sans-Serif" font-size="10.00">fstream</text>
</g>
<!-- Node2&#45;&gt;Node10 -->
<g id="edge10" class="edge"><title>Node2&#45;&gt;Node10</title>
<path fill="none" stroke="midnightblue" d="M560.063,-61.6952C624.398,-54.3614 783.708,-36.1001 917,-20 929.188,-18.5279 942.53,-16.8723 954.382,-15.3863"/>
<polygon fill="midnightblue" stroke="midnightblue" points="954.862,-18.8536 964.347,-14.133 953.988,-11.9083 954.862,-18.8536"/>
</g>
<!-- Node11 -->
<g id="node12" class="node"><title>Node11</title>
<polygon fill="none" stroke="#bfbfbf" points="719.5,-0.5 719.5,-19.5 768.5,-19.5 768.5,-0.5 719.5,-0.5"/>
<text text-anchor="middle" x="744" y="-7.5" font-family="Helvetica,sans-Serif" font-size="10.00">cassert</text>
</g>
<!-- Node2&#45;&gt;Node11 -->
<g id="edge11" class="edge"><title>Node2&#45;&gt;Node11</title>
<path fill="none" stroke="midnightblue" d="M560.172,-57.7848C593.756,-49.4525 650.827,-35.2142 709.658,-20.0635"/>
<polygon fill="midnightblue" stroke="midnightblue" points="710.687,-23.4126 719.496,-17.5255 708.938,-16.6345 710.687,-23.4126"/>
</g>
<!-- Node12 -->
<g id="node13" class="node"><title>Node12</title>
<polygon fill="none" stroke="#bfbfbf" points="849.5,-0.5 849.5,-19.5 908.5,-19.5 908.5,-0.5 849.5,-0.5"/>
<text text-anchor="middle" x="879" y="-7.5" font-family="Helvetica,sans-Serif" font-size="10.00">stdexcept</text>
</g>
<!-- Node2&#45;&gt;Node12 -->
<g id="edge12" class="edge"><title>Node2&#45;&gt;Node12</title>
<path fill="none" stroke="midnightblue" d="M560.101,-61.5722C613.43,-55.1167 730.574,-40.131 839.413,-19.9717"/>
<polygon fill="midnightblue" stroke="midnightblue" points="840.057,-23.4119 849.242,-18.1323 838.769,-16.5314 840.057,-23.4119"/>
</g>
<!-- Node13 -->
<g id="node14" class="node"><title>Node13</title>
<polygon fill="none" stroke="#bfbfbf" points="254,-0.5 254,-19.5 298,-19.5 298,-0.5 254,-0.5"/>
<text text-anchor="middle" x="276" y="-7.5" font-family="Helvetica,sans-Serif" font-size="10.00">thread</text>
</g>
<!-- Node2&#45;&gt;Node13 -->
<g id="edge13" class="edge"><title>Node2&#45;&gt;Node13</title>
<path fill="none" stroke="midnightblue" d="M501.831,-59.9514C460.76,-52.6679 383.368,-38.3038 308.374,-20.1788"/>
<polygon fill="midnightblue" stroke="midnightblue" points="308.836,-16.6887 298.291,-17.715 307.174,-23.4887 308.836,-16.6887"/>
</g>
<!-- Node14 -->
<g id="node15" class="node"><title>Node14</title>
<polygon fill="none" stroke="#bfbfbf" points="787,-0.5 787,-19.5 831,-19.5 831,-0.5 787,-0.5"/>
<text text-anchor="middle" x="809" y="-7.5" font-family="Helvetica,sans-Serif" font-size="10.00">cmath</text>
</g>
<!-- Node2&#45;&gt;Node14 -->
<g id="edge14" class="edge"><title>Node2&#45;&gt;Node14</title>
<path fill="none" stroke="midnightblue" d="M560.34,-60.5412C604.88,-53.5765 692.387,-39.1285 776.693,-19.8713"/>
<polygon fill="midnightblue" stroke="midnightblue" points="777.734,-23.2231 786.689,-17.5615 776.158,-16.4028 777.734,-23.2231"/>
</g>
<!-- Node16 -->
<g id="node17" class="node"><title>Node16</title>
<g id="a_node17"><a xlink:href="_screen_8h.html" target="_top" xlink:title="Screen.h">
<polygon fill="none" stroke="black" points="66,-112.5 66,-131.5 122,-131.5 122,-112.5 66,-112.5"/>
<text text-anchor="middle" x="94" y="-119.5" font-family="Helvetica,sans-Serif" font-size="10.00">Screen.h</text>
</a>
</g>
</g>
<!-- Node15&#45;&gt;Node16 -->
<g id="edge16" class="edge"><title>Node15&#45;&gt;Node16</title>
<path fill="none" stroke="midnightblue" d="M188.087,-399.41C127.72,-394.467 0,-374.18 0,-291 0,-291 0,-291 0,-233 0,-189.932 42.1599,-155.214 70.01,-136.978"/>
<polygon fill="midnightblue" stroke="midnightblue" points="71.8801,-139.937 78.4778,-131.647 68.1505,-134.013 71.8801,-139.937"/>
</g>
<!-- Node17 -->
<g id="node18" class="node"><title>Node17</title>
<g id="a_node18"><a xlink:href="_game__window_8h.html" target="_top" xlink:title="Game/Game_window.h">
<polygon fill="none" stroke="black" points="385.5,-336.5 385.5,-355.5 502.5,-355.5 502.5,-336.5 385.5,-336.5"/>
<text text-anchor="middle" x="444" y="-343.5" font-family="Helvetica,sans-Serif" font-size="10.00">Game/Game_window.h</text>
</a>
</g>
</g>
<!-- Node15&#45;&gt;Node17 -->
<g id="edge19" class="edge"><title>Node15&#45;&gt;Node17</title>
<path fill="none" stroke="midnightblue" d="M249.814,-393.605C288.224,-384.386 354.197,-368.553 398.449,-357.932"/>
<polygon fill="midnightblue" stroke="midnightblue" points="399.464,-361.288 408.371,-355.551 397.831,-354.481 399.464,-361.288"/>
</g>
<!-- Node31 -->
<g id="node32" class="node"><title>Node31</title>
<g id="a_node32"><a xlink:href="_menu_8h.html" target="_top" xlink:title="Menu.h">
<polygon fill="none" stroke="black" points="174.5,-168.5 174.5,-187.5 223.5,-187.5 223.5,-168.5 174.5,-168.5"/>
<text text-anchor="middle" x="199" y="-175.5" font-family="Helvetica,sans-Serif" font-size="10.00">Menu.h</text>
</a>
</g>
</g>
<!-- Node15&#45;&gt;Node31 -->
<g id="edge54" class="edge"><title>Node15&#45;&gt;Node31</title>
<path fill="none" stroke="midnightblue" d="M217.726,-392.172C214.343,-368.334 205.111,-300.642 201,-244 199.875,-228.498 199.381,-210.87 199.166,-197.887"/>
<polygon fill="midnightblue" stroke="midnightblue" points="202.665,-197.798 199.039,-187.843 195.665,-197.887 202.665,-197.798"/>
</g>
<!-- Node34 -->
<g id="node35" class="node"><title>Node34</title>
<g id="a_node35"><a xlink:href="_menu___miniature_8h.html" target="_top" xlink:title="Menu_Miniature.h">
<polygon fill="none" stroke="black" points="210,-224.5 210,-243.5 304,-243.5 304,-224.5 210,-224.5"/>
<text text-anchor="middle" x="257" y="-231.5" font-family="Helvetica,sans-Serif" font-size="10.00">Menu_Miniature.h</text>
</a>
</g>
</g>
<!-- Node15&#45;&gt;Node34 -->
<g id="edge64" class="edge"><title>Node15&#45;&gt;Node34</title>
<path fill="none" stroke="midnightblue" d="M221.043,-392.075C227.025,-365.945 244.59,-289.211 252.747,-253.577"/>
<polygon fill="midnightblue" stroke="midnightblue" points="256.219,-254.097 255.039,-243.568 249.395,-252.535 256.219,-254.097"/>
</g>
<!-- Node36 -->
<g id="node37" class="node"><title>Node36</title>
<g id="a_node37"><a xlink:href="_menu__simple_8h.html" target="_top" xlink:title="Menu_simple.h">
<polygon fill="none" stroke="black" points="69.5,-224.5 69.5,-243.5 152.5,-243.5 152.5,-224.5 69.5,-224.5"/>
<text text-anchor="middle" x="111" y="-231.5" font-family="Helvetica,sans-Serif" font-size="10.00">Menu_simple.h</text>
</a>
</g>
</g>
<!-- Node15&#45;&gt;Node36 -->
<g id="edge68" class="edge"><title>Node15&#45;&gt;Node36</title>
<path fill="none" stroke="midnightblue" d="M206.08,-392.256C194.631,-383.988 178.06,-370.687 167,-356 142.377,-323.302 125.051,-278.043 116.69,-253.177"/>
<polygon fill="midnightblue" stroke="midnightblue" points="119.992,-252.013 113.572,-243.585 113.335,-254.177 119.992,-252.013"/>
</g>
<!-- Node16&#45;&gt;Node2 -->
<g id="edge18" class="edge"><title>Node16&#45;&gt;Node2</title>
<path fill="none" stroke="midnightblue" d="M122.001,-117.54C197.396,-108.223 404.84,-82.5896 491.816,-71.8419"/>
<polygon fill="midnightblue" stroke="midnightblue" points="492.314,-75.3072 501.809,-70.6071 491.455,-68.36 492.314,-75.3072"/>
</g>
<!-- Node16&#45;&gt;Node3 -->
<g id="edge17" class="edge"><title>Node16&#45;&gt;Node3</title>
<path fill="none" stroke="midnightblue" d="M96.354,-112.368C101.217,-94.5366 112.465,-53.2953 119.017,-29.2717"/>
<polygon fill="midnightblue" stroke="midnightblue" points="122.402,-30.16 121.657,-19.5914 115.649,-28.3181 122.402,-30.16"/>
</g>
<!-- Node17&#45;&gt;Node2 -->
<g id="edge20" class="edge"><title>Node17&#45;&gt;Node2</title>
<path fill="none" stroke="midnightblue" d="M438.614,-336.407C418.89,-303.743 354.387,-185.436 406,-112 425.194,-84.6896 462.637,-73.8761 491.56,-69.6354"/>
<polygon fill="midnightblue" stroke="midnightblue" points="492.295,-73.0707 501.781,-68.3521 491.423,-66.1253 492.295,-73.0707"/>
</g>
<!-- Node17&#45;&gt;Node16 -->
<g id="edge49" class="edge"><title>Node17&#45;&gt;Node16</title>
<path fill="none" stroke="midnightblue" d="M385.387,-337.99C288.335,-325.078 100.869,-294.173 60,-244 38.6508,-217.791 45.5971,-199.823 57,-168 60.9406,-157.003 68.857,-146.769 76.3595,-138.848"/>
<polygon fill="midnightblue" stroke="midnightblue" points="78.8923,-141.266 83.5615,-131.755 73.9806,-136.278 78.8923,-141.266"/>
</g>
<!-- Node18 -->
<g id="node19" class="node"><title>Node18</title>
<g id="a_node19"><a xlink:href="_board_8h.html" target="_top" xlink:title="Board.h">
<polygon fill="none" stroke="black" points="600,-280.5 600,-299.5 650,-299.5 650,-280.5 600,-280.5"/>
<text text-anchor="middle" x="625" y="-287.5" font-family="Helvetica,sans-Serif" font-size="10.00">Board.h</text>
</a>
</g>
</g>
<!-- Node17&#45;&gt;Node18 -->
<g id="edge21" class="edge"><title>Node17&#45;&gt;Node18</title>
<path fill="none" stroke="midnightblue" d="M472.68,-336.444C504.478,-326.957 555.782,-311.651 589.941,-301.46"/>
<polygon fill="midnightblue" stroke="midnightblue" points="591.37,-304.686 599.952,-298.473 589.368,-297.978 591.37,-304.686"/>
</g>
<!-- Node21 -->
<g id="node22" class="node"><title>Node21</title>
<g id="a_node22"><a xlink:href="_goban_8h.html" target="_top" xlink:title="../../Engine/Goban.h">
<polygon fill="none" stroke="black" points="798,-168.5 798,-187.5 902,-187.5 902,-168.5 798,-168.5"/>
<text text-anchor="middle" x="850" y="-175.5" font-family="Helvetica,sans-Serif" font-size="10.00">../../Engine/Goban.h</text>
</a>
</g>
</g>
<!-- Node17&#45;&gt;Node21 -->
<g id="edge50" class="edge"><title>Node17&#45;&gt;Node21</title>
<path fill="none" stroke="midnightblue" d="M502.691,-338.489C546.877,-332.226 608.292,-320.578 659,-300 694.665,-285.526 787.774,-222.22 829.387,-193.392"/>
<polygon fill="midnightblue" stroke="midnightblue" points="831.456,-196.216 837.672,-187.636 827.462,-190.467 831.456,-196.216"/>
</g>
<!-- Node27 -->
<g id="node28" class="node"><title>Node27</title>
<g id="a_node28"><a xlink:href="_infos_8h.html" target="_top" xlink:title="Infos.h">
<polygon fill="none" stroke="black" points="450.5,-168.5 450.5,-187.5 495.5,-187.5 495.5,-168.5 450.5,-168.5"/>
<text text-anchor="middle" x="473" y="-175.5" font-family="Helvetica,sans-Serif" font-size="10.00">Infos.h</text>
</a>
</g>
</g>
<!-- Node17&#45;&gt;Node27 -->
<g id="edge44" class="edge"><title>Node17&#45;&gt;Node27</title>
<path fill="none" stroke="midnightblue" d="M445.559,-336.075C450.124,-309.945 463.529,-233.211 469.755,-197.577"/>
<polygon fill="midnightblue" stroke="midnightblue" points="473.23,-198.021 471.503,-187.568 466.334,-196.817 473.23,-198.021"/>
</g>
<!-- Node29 -->
<g id="node30" class="node"><title>Node29</title>
<g id="a_node30"><a xlink:href="_i_a_8h.html" target="_top" xlink:title="../../Engine/IA.h">
<polygon fill="none" stroke="black" points="807.5,-280.5 807.5,-299.5 892.5,-299.5 892.5,-280.5 807.5,-280.5"/>
<text text-anchor="middle" x="850" y="-287.5" font-family="Helvetica,sans-Serif" font-size="10.00">../../Engine/IA.h</text>
</a>
</g>
</g>
<!-- Node17&#45;&gt;Node29 -->
<g id="edge51" class="edge"><title>Node17&#45;&gt;Node29</title>
<path fill="none" stroke="midnightblue" d="M502.602,-337.206C581.567,-326.703 720.969,-308.162 796.967,-298.054"/>
<polygon fill="midnightblue" stroke="midnightblue" points="797.805,-301.473 807.257,-296.685 796.882,-294.534 797.805,-301.473"/>
</g>
<!-- Node18&#45;&gt;Node2 -->
<g id="edge22" class="edge"><title>Node18&#45;&gt;Node2</title>
<path fill="none" stroke="midnightblue" d="M621.315,-280.297C607.425,-247.494 558.05,-130.884 538.781,-85.3774"/>
<polygon fill="midnightblue" stroke="midnightblue" points="541.884,-83.7276 534.762,-75.8837 535.438,-86.457 541.884,-83.7276"/>
</g>
<!-- Node19 -->
<g id="node20" class="node"><title>Node19</title>
<g id="a_node20"><a xlink:href="_square_8h.html" target="_top" xlink:title="Square.h">
<polygon fill="none" stroke="black" points="597,-112.5 597,-131.5 653,-131.5 653,-112.5 597,-112.5"/>
<text text-anchor="middle" x="625" y="-119.5" font-family="Helvetica,sans-Serif" font-size="10.00">Square.h</text>
</a>
</g>
</g>
<!-- Node18&#45;&gt;Node19 -->
<g id="edge23" class="edge"><title>Node18&#45;&gt;Node19</title>
<path fill="none" stroke="midnightblue" d="M625,-280.075C625,-253.945 625,-177.211 625,-141.577"/>
<polygon fill="midnightblue" stroke="midnightblue" points="628.5,-141.568 625,-131.568 621.5,-141.568 628.5,-141.568"/>
</g>
<!-- Node18&#45;&gt;Node21 -->
<g id="edge27" class="edge"><title>Node18&#45;&gt;Node21</title>
<path fill="none" stroke="midnightblue" d="M636.613,-280.291C654.888,-266.876 691.807,-240.94 726,-224 753.505,-210.373 786.2,-198.68 811.11,-190.631"/>
<polygon fill="midnightblue" stroke="midnightblue" points="812.456,-193.876 820.929,-187.516 810.339,-187.204 812.456,-193.876"/>
</g>
<!-- Node26 -->
<g id="node27" class="node"><title>Node26</title>
<g id="a_node27"><a xlink:href="_arbre_8h.html" target="_top" xlink:title="../../Engine/Arbre.h">
<polygon fill="none" stroke="black" points="800.5,-224.5 800.5,-243.5 899.5,-243.5 899.5,-224.5 800.5,-224.5"/>
<text text-anchor="middle" x="850" y="-231.5" font-family="Helvetica,sans-Serif" font-size="10.00">../../Engine/Arbre.h</text>
</a>
</g>
</g>
<!-- Node18&#45;&gt;Node26 -->
<g id="edge40" class="edge"><title>Node18&#45;&gt;Node26</title>
<path fill="none" stroke="midnightblue" d="M650.373,-282.91C687.741,-273.942 758.154,-257.043 804.572,-245.903"/>
<polygon fill="midnightblue" stroke="midnightblue" points="805.473,-249.286 814.38,-243.549 803.839,-242.479 805.473,-249.286"/>
</g>
<!-- Node19&#45;&gt;Node2 -->
<g id="edge24" class="edge"><title>Node19&#45;&gt;Node2</title>
<path fill="none" stroke="midnightblue" d="M609.897,-112.324C595.097,-103.822 572.306,-90.7288 555.018,-80.7975"/>
<polygon fill="midnightblue" stroke="midnightblue" points="556.48,-77.6009 546.065,-75.6545 552.993,-83.6707 556.48,-77.6009"/>
</g>
<!-- Node20 -->
<g id="node21" class="node"><title>Node20</title>
<g id="a_node21"><a xlink:href="_etat_8h.html" target="_top" xlink:title="../../Engine/Etat.h">
<polygon fill="none" stroke="black" points="869,-56.5 869,-75.5 963,-75.5 963,-56.5 869,-56.5"/>
<text text-anchor="middle" x="916" y="-63.5" font-family="Helvetica,sans-Serif" font-size="10.00">../../Engine/Etat.h</text>
</a>
</g>
</g>
<!-- Node19&#45;&gt;Node20 -->
<g id="edge25" class="edge"><title>Node19&#45;&gt;Node20</title>
<path fill="none" stroke="midnightblue" d="M653.167,-115.773C700.795,-106.935 798.089,-88.8803 860.011,-77.3897"/>
<polygon fill="midnightblue" stroke="midnightblue" points="860.816,-80.8003 870.009,-75.5344 859.538,-73.9177 860.816,-80.8003"/>
</g>
<!-- Node20&#45;&gt;Node7 -->
<g id="edge26" class="edge"><title>Node20&#45;&gt;Node7</title>
<path fill="none" stroke="midnightblue" d="M944.522,-56.4435C975.426,-47.1723 1024.86,-32.3435 1058.79,-22.1622"/>
<polygon fill="midnightblue" stroke="midnightblue" points="1060.22,-25.3889 1068.79,-19.1629 1058.21,-18.6841 1060.22,-25.3889"/>
</g>
<!-- Node21&#45;&gt;Node7 -->
<g id="edge28" class="edge"><title>Node21&#45;&gt;Node7</title>
<path fill="none" stroke="midnightblue" d="M902.174,-172.007C937.358,-166.592 983.48,-155.339 1018,-132 1055.65,-106.542 1079.17,-56.1913 1089.64,-29.1623"/>
<polygon fill="midnightblue" stroke="midnightblue" points="1092.93,-30.3374 1093.12,-19.7441 1086.37,-27.9114 1092.93,-30.3374"/>
</g>
<!-- Node21&#45;&gt;Node12 -->
<g id="edge39" class="edge"><title>Node21&#45;&gt;Node12</title>
<path fill="none" stroke="midnightblue" d="M849.786,-168.342C849.49,-148.272 849.888,-97.1436 860,-56 862.277,-46.7353 866.222,-36.9231 869.929,-28.8337"/>
<polygon fill="midnightblue" stroke="midnightblue" points="873.153,-30.206 874.354,-19.6795 866.851,-27.1594 873.153,-30.206"/>
</g>
<!-- Node21&#45;&gt;Node14 -->
<g id="edge29" class="edge"><title>Node21&#45;&gt;Node14</title>
<path fill="none" stroke="midnightblue" d="M847.796,-168.075C841.342,-141.945 822.389,-65.2106 813.588,-29.577"/>
<polygon fill="midnightblue" stroke="midnightblue" points="816.912,-28.4371 811.116,-19.5681 810.116,-30.1156 816.912,-28.4371"/>
</g>
<!-- Node21&#45;&gt;Node20 -->
<g id="edge31" class="edge"><title>Node21&#45;&gt;Node20</title>
<path fill="none" stroke="midnightblue" d="M855.086,-168.123C862.305,-155.565 875.981,-131.923 888,-112 893.594,-102.726 899.963,-92.4676 905.212,-84.09"/>
<polygon fill="midnightblue" stroke="midnightblue" points="908.201,-85.912 910.561,-75.5834 902.275,-82.1857 908.201,-85.912"/>
</g>
<!-- Node22 -->
<g id="node23" class="node"><title>Node22</title>
<polygon fill="none" stroke="#bfbfbf" points="1009,-56.5 1009,-75.5 1051,-75.5 1051,-56.5 1009,-56.5"/>
<text text-anchor="middle" x="1030" y="-63.5" font-family="Helvetica,sans-Serif" font-size="10.00">vector</text>
</g>
<!-- Node21&#45;&gt;Node22 -->
<g id="edge30" class="edge"><title>Node21&#45;&gt;Node22</title>
<path fill="none" stroke="midnightblue" d="M902.271,-170.722C932.139,-164.872 968.752,-153.614 995,-132 1009.66,-119.924 1019.08,-100.043 1024.41,-85.4419"/>
<polygon fill="midnightblue" stroke="midnightblue" points="1027.87,-86.1164 1027.71,-75.5229 1021.23,-83.9078 1027.87,-86.1164"/>
</g>
<!-- Node23 -->
<g id="node24" class="node"><title>Node23</title>
<g id="a_node24"><a xlink:href="_groupe_8h.html" target="_top" xlink:title="Groupe.h">
<polygon fill="none" stroke="black" points="897,-112.5 897,-131.5 953,-131.5 953,-112.5 897,-112.5"/>
<text text-anchor="middle" x="925" y="-119.5" font-family="Helvetica,sans-Serif" font-size="10.00">Groupe.h</text>
</a>
</g>
</g>
<!-- Node21&#45;&gt;Node23 -->
<g id="edge32" class="edge"><title>Node21&#45;&gt;Node23</title>
<path fill="none" stroke="midnightblue" d="M862.05,-168.324C873.463,-160.107 890.831,-147.602 904.435,-137.807"/>
<polygon fill="midnightblue" stroke="midnightblue" points="906.66,-140.517 912.731,-131.834 902.57,-134.837 906.66,-140.517"/>
</g>
<!-- Node24 -->
<g id="node25" class="node"><title>Node24</title>
<g id="a_node25"><a xlink:href="_history_8h.html" target="_top" xlink:title="History.h">
<polygon fill="none" stroke="black" points="709,-112.5 709,-131.5 765,-131.5 765,-112.5 709,-112.5"/>
<text text-anchor="middle" x="737" y="-119.5" font-family="Helvetica,sans-Serif" font-size="10.00">History.h</text>
</a>
</g>
</g>
<!-- Node21&#45;&gt;Node24 -->
<g id="edge35" class="edge"><title>Node21&#45;&gt;Node24</title>
<path fill="none" stroke="midnightblue" d="M832.095,-168.444C813.746,-159.675 784.995,-145.935 763.906,-135.858"/>
<polygon fill="midnightblue" stroke="midnightblue" points="765.353,-132.67 754.821,-131.516 762.335,-138.986 765.353,-132.67"/>
</g>
<!-- Node23&#45;&gt;Node20 -->
<g id="edge34" class="edge"><title>Node23&#45;&gt;Node20</title>
<path fill="none" stroke="midnightblue" d="M923.514,-112.083C922.321,-104.927 920.606,-94.6353 919.115,-85.6911"/>
<polygon fill="midnightblue" stroke="midnightblue" points="922.555,-85.0396 917.459,-75.7511 915.65,-86.1904 922.555,-85.0396"/>
</g>
<!-- Node23&#45;&gt;Node22 -->
<g id="edge33" class="edge"><title>Node23&#45;&gt;Node22</title>
<path fill="none" stroke="midnightblue" d="M941.87,-112.324C958.709,-103.664 984.807,-90.2424 1004.24,-80.249"/>
<polygon fill="midnightblue" stroke="midnightblue" points="1005.88,-83.3405 1013.17,-75.6545 1002.68,-77.1155 1005.88,-83.3405"/>
</g>
<!-- Node24&#45;&gt;Node2 -->
<g id="edge36" class="edge"><title>Node24&#45;&gt;Node2</title>
<path fill="none" stroke="midnightblue" d="M708.789,-113.605C672.828,-104.178 610.48,-87.8345 569.992,-77.2212"/>
<polygon fill="midnightblue" stroke="midnightblue" points="570.759,-73.8042 560.199,-74.6541 568.984,-80.5754 570.759,-73.8042"/>
</g>
<!-- Node24&#45;&gt;Node20 -->
<g id="edge37" class="edge"><title>Node24&#45;&gt;Node20</title>
<path fill="none" stroke="midnightblue" d="M765.363,-112.444C795.738,-103.28 844.11,-88.6876 877.816,-78.5192"/>
<polygon fill="midnightblue" stroke="midnightblue" points="879.207,-81.7555 887.77,-75.5164 877.185,-75.0538 879.207,-81.7555"/>
</g>
<!-- Node25 -->
<g id="node26" class="node"><title>Node25</title>
<polygon fill="none" stroke="#bfbfbf" points="722.5,-56.5 722.5,-75.5 751.5,-75.5 751.5,-56.5 722.5,-56.5"/>
<text text-anchor="middle" x="737" y="-63.5" font-family="Helvetica,sans-Serif" font-size="10.00">list</text>
</g>
<!-- Node24&#45;&gt;Node25 -->
<g id="edge38" class="edge"><title>Node24&#45;&gt;Node25</title>
<path fill="none" stroke="midnightblue" d="M737,-112.083C737,-105.006 737,-94.8611 737,-85.9865"/>
<polygon fill="midnightblue" stroke="midnightblue" points="740.5,-85.751 737,-75.7511 733.5,-85.7511 740.5,-85.751"/>
</g>
<!-- Node26&#45;&gt;Node7 -->
<g id="edge42" class="edge"><title>Node26&#45;&gt;Node7</title>
<path fill="none" stroke="midnightblue" d="M889.77,-224.49C917.512,-217.426 954.666,-205.65 984,-188 1041.95,-153.135 1060.55,-138.242 1087,-76 1093.2,-61.4027 1095.32,-43.4587 1095.96,-30.1252"/>
<polygon fill="midnightblue" stroke="midnightblue" points="1099.47,-29.8763 1096.21,-19.7946 1092.47,-29.7072 1099.47,-29.8763"/>
</g>
<!-- Node26&#45;&gt;Node21 -->
<g id="edge41" class="edge"><title>Node26&#45;&gt;Node21</title>
<path fill="none" stroke="midnightblue" d="M850,-224.083C850,-217.006 850,-206.861 850,-197.986"/>
<polygon fill="midnightblue" stroke="midnightblue" points="853.5,-197.751 850,-187.751 846.5,-197.751 853.5,-197.751"/>
</g>
<!-- Node26&#45;&gt;Node22 -->
<g id="edge43" class="edge"><title>Node26&#45;&gt;Node22</title>
<path fill="none" stroke="midnightblue" d="M877.675,-224.451C915.752,-211.169 983.495,-181.789 1018,-132 1027.29,-118.589 1029.97,-100.024 1030.5,-86.1667"/>
<polygon fill="midnightblue" stroke="midnightblue" points="1034.01,-85.8674 1030.55,-75.8507 1027.01,-85.8339 1034.01,-85.8674"/>
</g>
<!-- Node27&#45;&gt;Node2 -->
<g id="edge45" class="edge"><title>Node27&#45;&gt;Node2</title>
<path fill="none" stroke="midnightblue" d="M477.551,-168.368C487.038,-150.376 509.092,-108.55 521.706,-84.6267"/>
<polygon fill="midnightblue" stroke="midnightblue" points="524.902,-86.0696 526.47,-75.5914 518.71,-82.8047 524.902,-86.0696"/>
</g>
<!-- Node27&#45;&gt;Node19 -->
<g id="edge46" class="edge"><title>Node27&#45;&gt;Node19</title>
<path fill="none" stroke="midnightblue" d="M495.756,-168.916C521.018,-159.941 562.054,-145.362 591.101,-135.043"/>
<polygon fill="midnightblue" stroke="midnightblue" points="592.579,-138.232 600.831,-131.587 590.236,-131.636 592.579,-138.232"/>
</g>
<!-- Node28 -->
<g id="node29" class="node"><title>Node28</title>
<g id="a_node29"><a xlink:href="_timer_8h.html" target="_top" xlink:title="Timer.h">
<polygon fill="none" stroke="black" points="415.5,-112.5 415.5,-131.5 464.5,-131.5 464.5,-112.5 415.5,-112.5"/>
<text text-anchor="middle" x="440" y="-119.5" font-family="Helvetica,sans-Serif" font-size="10.00">Timer.h</text>
</a>
</g>
</g>
<!-- Node27&#45;&gt;Node28 -->
<g id="edge47" class="edge"><title>Node27&#45;&gt;Node28</title>
<path fill="none" stroke="midnightblue" d="M467.551,-168.083C462.986,-160.613 456.332,-149.724 450.707,-140.52"/>
<polygon fill="midnightblue" stroke="midnightblue" points="453.549,-138.459 445.348,-131.751 447.576,-142.109 453.549,-138.459"/>
</g>
<!-- Node28&#45;&gt;Node2 -->
<g id="edge48" class="edge"><title>Node28&#45;&gt;Node2</title>
<path fill="none" stroke="midnightblue" d="M454.621,-112.324C468.949,-103.822 491.013,-90.7288 507.749,-80.7975"/>
<polygon fill="midnightblue" stroke="midnightblue" points="509.602,-83.7677 516.416,-75.6545 506.03,-77.7478 509.602,-83.7677"/>
</g>
<!-- Node29&#45;&gt;Node26 -->
<g id="edge53" class="edge"><title>Node29&#45;&gt;Node26</title>
<path fill="none" stroke="midnightblue" d="M850,-280.083C850,-273.006 850,-262.861 850,-253.986"/>
<polygon fill="midnightblue" stroke="midnightblue" points="853.5,-253.751 850,-243.751 846.5,-253.751 853.5,-253.751"/>
</g>
<!-- Node30 -->
<g id="node31" class="node"><title>Node30</title>
<polygon fill="none" stroke="#bfbfbf" points="918,-224.5 918,-243.5 964,-243.5 964,-224.5 918,-224.5"/>
<text text-anchor="middle" x="941" y="-231.5" font-family="Helvetica,sans-Serif" font-size="10.00">chrono</text>
</g>
<!-- Node29&#45;&gt;Node30 -->
<g id="edge52" class="edge"><title>Node29&#45;&gt;Node30</title>
<path fill="none" stroke="midnightblue" d="M864.621,-280.324C878.949,-271.822 901.013,-258.729 917.749,-248.797"/>
<polygon fill="midnightblue" stroke="midnightblue" points="919.602,-251.768 926.416,-243.655 916.03,-245.748 919.602,-251.768"/>
</g>
<!-- Node31&#45;&gt;Node2 -->
<g id="edge61" class="edge"><title>Node31&#45;&gt;Node2</title>
<path fill="none" stroke="midnightblue" d="M220.235,-168.439C252.82,-155.445 317.243,-130.322 373,-112 413.22,-98.7836 459.918,-85.7647 492.06,-77.1576"/>
<polygon fill="midnightblue" stroke="midnightblue" points="493.194,-80.4777 501.958,-74.5234 491.394,-73.7131 493.194,-80.4777"/>
</g>
<!-- Node31&#45;&gt;Node3 -->
<g id="edge63" class="edge"><title>Node31&#45;&gt;Node3</title>
<path fill="none" stroke="midnightblue" d="M194.968,-168.075C183.111,-141.832 148.192,-64.5453 132.185,-29.1165"/>
<polygon fill="midnightblue" stroke="midnightblue" points="135.178,-27.2401 127.871,-19.5681 128.799,-30.1222 135.178,-27.2401"/>
</g>
<!-- Node31&#45;&gt;Node16 -->
<g id="edge55" class="edge"><title>Node31&#45;&gt;Node16</title>
<path fill="none" stroke="midnightblue" d="M182.13,-168.324C165.291,-159.664 139.193,-146.242 119.762,-136.249"/>
<polygon fill="midnightblue" stroke="midnightblue" points="121.322,-133.116 110.828,-131.655 118.12,-139.341 121.322,-133.116"/>
</g>
<!-- Node31&#45;&gt;Node22 -->
<g id="edge62" class="edge"><title>Node31&#45;&gt;Node22</title>
<path fill="none" stroke="midnightblue" d="M223.755,-169.806C226.848,-169.097 229.983,-168.468 233,-168 393.276,-143.111 812.994,-196.072 962,-132 985.578,-121.861 1005.83,-99.6747 1017.96,-84.0532"/>
<polygon fill="midnightblue" stroke="midnightblue" points="1020.97,-85.8695 1024.13,-75.7549 1015.35,-81.6952 1020.97,-85.8695"/>
</g>
<!-- Node32 -->
<g id="node33" class="node"><title>Node32</title>
<g id="a_node33"><a xlink:href="_choice_8h.html" target="_top" xlink:title="Choice.h">
<polygon fill="none" stroke="black" points="227.5,-112.5 227.5,-131.5 282.5,-131.5 282.5,-112.5 227.5,-112.5"/>
<text text-anchor="middle" x="255" y="-119.5" font-family="Helvetica,sans-Serif" font-size="10.00">Choice.h</text>
</a>
</g>
</g>
<!-- Node31&#45;&gt;Node32 -->
<g id="edge56" class="edge"><title>Node31&#45;&gt;Node32</title>
<path fill="none" stroke="midnightblue" d="M207.997,-168.324C216.194,-160.42 228.506,-148.548 238.472,-138.938"/>
<polygon fill="midnightblue" stroke="midnightblue" points="241.07,-141.295 245.839,-131.834 236.211,-136.256 241.07,-141.295"/>
</g>
<!-- Node32&#45;&gt;Node2 -->
<g id="edge57" class="edge"><title>Node32&#45;&gt;Node2</title>
<path fill="none" stroke="midnightblue" d="M282.728,-115.575C332.016,-105.932 435.008,-85.781 491.623,-74.7042"/>
<polygon fill="midnightblue" stroke="midnightblue" points="492.489,-78.1011 501.631,-72.7461 491.145,-71.2314 492.489,-78.1011"/>
</g>
<!-- Node32&#45;&gt;Node7 -->
<g id="edge60" class="edge"><title>Node32&#45;&gt;Node7</title>
<path fill="none" stroke="midnightblue" d="M282.54,-117.05C374.874,-103.815 670.089,-61.5438 713,-56 850.123,-38.2848 884.707,-36.3464 1022,-20 1034.03,-18.5681 1047.15,-16.9803 1058.96,-15.542"/>
<polygon fill="midnightblue" stroke="midnightblue" points="1059.44,-19.0097 1068.94,-14.3242 1058.59,-12.0613 1059.44,-19.0097"/>
</g>
<!-- Node32&#45;&gt;Node9 -->
<g id="edge58" class="edge"><title>Node32&#45;&gt;Node9</title>
<path fill="none" stroke="midnightblue" d="M254.846,-112.281C254.36,-99.5102 252.438,-75.1583 245,-56 241.099,-45.9519 234.664,-35.8666 228.752,-27.798"/>
<polygon fill="midnightblue" stroke="midnightblue" points="231.345,-25.4296 222.463,-19.6547 225.805,-29.7084 231.345,-25.4296"/>
</g>
<!-- Node33 -->
<g id="node34" class="node"><title>Node33</title>
<polygon fill="none" stroke="#bfbfbf" points="178,-56.5 178,-75.5 236,-75.5 236,-56.5 178,-56.5"/>
<text text-anchor="middle" x="207" y="-63.5" font-family="Helvetica,sans-Serif" font-size="10.00">functional</text>
</g>
<!-- Node32&#45;&gt;Node33 -->
<g id="edge59" class="edge"><title>Node32&#45;&gt;Node33</title>
<path fill="none" stroke="midnightblue" d="M247.074,-112.083C240.154,-104.298 229.935,-92.8015 221.548,-83.3665"/>
<polygon fill="midnightblue" stroke="midnightblue" points="224.038,-80.8999 214.779,-75.7511 218.806,-85.5505 224.038,-80.8999"/>
</g>
<!-- Node34&#45;&gt;Node31 -->
<g id="edge65" class="edge"><title>Node34&#45;&gt;Node31</title>
<path fill="none" stroke="midnightblue" d="M247.681,-224.324C239.107,-216.341 226.188,-204.313 215.812,-194.653"/>
<polygon fill="midnightblue" stroke="midnightblue" points="218.192,-192.086 208.488,-187.834 213.422,-197.21 218.192,-192.086"/>
</g>
<!-- Node35 -->
<g id="node36" class="node"><title>Node35</title>
<g id="a_node36"><a xlink:href="_choice__miniature_8h.html" target="_top" xlink:title="Choice_miniature.h">
<polygon fill="none" stroke="black" points="242,-168.5 242,-187.5 342,-187.5 342,-168.5 242,-168.5"/>
<text text-anchor="middle" x="292" y="-175.5" font-family="Helvetica,sans-Serif" font-size="10.00">Choice_miniature.h</text>
</a>
</g>
</g>
<!-- Node34&#45;&gt;Node35 -->
<g id="edge66" class="edge"><title>Node34&#45;&gt;Node35</title>
<path fill="none" stroke="midnightblue" d="M262.78,-224.083C267.672,-216.534 274.827,-205.495 280.833,-196.23"/>
<polygon fill="midnightblue" stroke="midnightblue" points="283.826,-198.046 286.328,-187.751 277.952,-194.239 283.826,-198.046"/>
</g>
<!-- Node35&#45;&gt;Node32 -->
<g id="edge67" class="edge"><title>Node35&#45;&gt;Node32</title>
<path fill="none" stroke="midnightblue" d="M285.89,-168.083C280.718,-160.534 273.154,-149.495 266.806,-140.23"/>
<polygon fill="midnightblue" stroke="midnightblue" points="269.536,-138.022 260.996,-131.751 263.761,-141.979 269.536,-138.022"/>
</g>
<!-- Node36&#45;&gt;Node31 -->
<g id="edge69" class="edge"><title>Node36&#45;&gt;Node31</title>
<path fill="none" stroke="midnightblue" d="M125.139,-224.324C138.866,-215.9 159.936,-202.971 176.064,-193.074"/>
<polygon fill="midnightblue" stroke="midnightblue" points="178.204,-195.868 184.896,-187.655 174.543,-189.902 178.204,-195.868"/>
</g>
<!-- Node37 -->
<g id="node38" class="node"><title>Node37</title>
<g id="a_node38"><a xlink:href="_choice___simple_8h.html" target="_top" xlink:title="Choice_Simple.h">
<polygon fill="none" stroke="black" points="66,-168.5 66,-187.5 156,-187.5 156,-168.5 66,-168.5"/>
<text text-anchor="middle" x="111" y="-175.5" font-family="Helvetica,sans-Serif" font-size="10.00">Choice_Simple.h</text>
</a>
</g>
</g>
<!-- Node36&#45;&gt;Node37 -->
<g id="edge70" class="edge"><title>Node36&#45;&gt;Node37</title>
<path fill="none" stroke="midnightblue" d="M111,-224.083C111,-217.006 111,-206.861 111,-197.986"/>
<polygon fill="midnightblue" stroke="midnightblue" points="114.5,-197.751 111,-187.751 107.5,-197.751 114.5,-197.751"/>
</g>
<!-- Node37&#45;&gt;Node32 -->
<g id="edge71" class="edge"><title>Node37&#45;&gt;Node32</title>
<path fill="none" stroke="midnightblue" d="M133.817,-168.444C157.832,-159.438 195.829,-145.189 222.869,-135.049"/>
<polygon fill="midnightblue" stroke="midnightblue" points="224.155,-138.305 232.29,-131.516 221.697,-131.751 224.155,-138.305"/>
</g>
<!-- Node38&#45;&gt;Node2 -->
<g id="edge78" class="edge"><title>Node38&#45;&gt;Node2</title>
<path fill="none" stroke="midnightblue" d="M1085.37,-229.181C1004.21,-222.272 842.689,-206.67 789,-188 726.87,-166.394 721.651,-139.724 662,-112 631.931,-98.0248 596.25,-86.0494 569.725,-77.9738"/>
<polygon fill="midnightblue" stroke="midnightblue" points="570.622,-74.5889 560.038,-75.0736 568.614,-81.2948 570.622,-74.5889"/>
</g>
<!-- Node38&#45;&gt;Node7 -->
<g id="edge73" class="edge"><title>Node38&#45;&gt;Node7</title>
<path fill="none" stroke="midnightblue" d="M1174.05,-224.383C1193.96,-217.916 1216.09,-206.814 1228,-188 1245.05,-161.054 1311.52,-175.534 1223,-56 1202.27,-28.0021 1162.67,-17.3505 1133.18,-13.338"/>
<polygon fill="midnightblue" stroke="midnightblue" points="1133.55,-9.85809 1123.22,-12.1781 1132.74,-16.8111 1133.55,-9.85809"/>
</g>
<!-- Node38&#45;&gt;Node9 -->
<g id="edge79" class="edge"><title>Node38&#45;&gt;Node9</title>
<path fill="none" stroke="midnightblue" d="M1085.26,-230.274C931.161,-221.427 456.07,-193.753 441,-188 392.994,-169.674 275.688,-66.0264 231.874,-26.4022"/>
<polygon fill="midnightblue" stroke="midnightblue" points="234.113,-23.7082 224.356,-19.5788 229.409,-28.8914 234.113,-23.7082"/>
</g>
<!-- Node38&#45;&gt;Node10 -->
<g id="edge74" class="edge"><title>Node38&#45;&gt;Node10</title>
<path fill="none" stroke="midnightblue" d="M1131.37,-224.285C1125.83,-196.747 1105.53,-110.219 1060,-56 1048.68,-42.5238 1032.27,-31.7587 1018.08,-24.1407"/>
<polygon fill="midnightblue" stroke="midnightblue" points="1019.65,-21.0118 1009.15,-19.5923 1016.47,-27.2494 1019.65,-21.0118"/>
</g>
<!-- Node38&#45;&gt;Node20 -->
<g id="edge76" class="edge"><title>Node38&#45;&gt;Node20</title>
<path fill="none" stroke="midnightblue" d="M1158.63,-224.469C1187.6,-213.409 1228.58,-192.596 1211,-168 1182.5,-128.114 1046.66,-94.1112 969.639,-77.6315"/>
<polygon fill="midnightblue" stroke="midnightblue" points="970.142,-74.1606 959.635,-75.5188 968.696,-81.0096 970.142,-74.1606"/>
</g>
<!-- Node38&#45;&gt;Node21 -->
<g id="edge77" class="edge"><title>Node38&#45;&gt;Node21</title>
<path fill="none" stroke="midnightblue" d="M1088.16,-224.444C1038.38,-214.944 958.017,-199.611 904.608,-189.42"/>
<polygon fill="midnightblue" stroke="midnightblue" points="905.111,-185.953 894.632,-187.516 903.799,-192.829 905.111,-185.953"/>
</g>
<!-- Node39 -->
<g id="node40" class="node"><title>Node39</title>
<polygon fill="none" stroke="#bfbfbf" points="1297,-168.5 1297,-187.5 1343,-187.5 1343,-168.5 1297,-168.5"/>
<text text-anchor="middle" x="1320" y="-175.5" font-family="Helvetica,sans-Serif" font-size="10.00">stdio.h</text>
</g>
<!-- Node38&#45;&gt;Node39 -->
<g id="edge75" class="edge"><title>Node38&#45;&gt;Node39</title>
<path fill="none" stroke="midnightblue" d="M1162.63,-224.444C1196.56,-214.645 1251.99,-198.639 1287.2,-188.472"/>
<polygon fill="midnightblue" stroke="midnightblue" points="1288.36,-191.781 1296.99,-185.644 1286.41,-185.056 1288.36,-191.781"/>
</g>
<!-- Node40 -->
<g id="node41" class="node"><title>Node40</title>
<polygon fill="none" stroke="#bfbfbf" points="1161.5,-168.5 1161.5,-187.5 1202.5,-187.5 1202.5,-168.5 1161.5,-168.5"/>
<text text-anchor="middle" x="1182" y="-175.5" font-family="Helvetica,sans-Serif" font-size="10.00">regex</text>
</g>
<!-- Node38&#45;&gt;Node40 -->
<g id="edge80" class="edge"><title>Node38&#45;&gt;Node40</title>
<path fill="none" stroke="midnightblue" d="M1141.09,-224.083C1148.16,-216.298 1158.59,-204.801 1167.15,-195.367"/>
<polygon fill="midnightblue" stroke="midnightblue" points="1169.93,-197.509 1174.06,-187.751 1164.75,-192.805 1169.93,-197.509"/>
</g>
</g>
</svg>
