<?xml version="1.0" encoding="UTF-8" standalone="no"?>
<!DOCTYPE svg PUBLIC "-//W3C//DTD SVG 1.1//EN"
 "http://www.w3.org/Graphics/SVG/1.1/DTD/svg11.dtd">
<!-- Generated by graphviz version 2.38.0 (20140413.2041)
 -->
<!-- Title: D:/Users/Victor/OneDrive/Documents/Visual Studio 2017/Projects/Jeu_de_Go/Jeu_de_Go/Sources/Engine/Goban.h Pages: 1 -->
<svg width="820pt" height="661pt"
 viewBox="0.00 0.00 820.00 661.00" xmlns="http://www.w3.org/2000/svg" xmlns:xlink="http://www.w3.org/1999/xlink">
<g id="graph0" class="graph" transform="scale(1 1) rotate(0) translate(4 657)">
<title>D:/Users/Victor/OneDrive/Documents/Visual Studio 2017/Projects/Jeu_de_Go/Jeu_de_Go/Sources/Engine/Goban.h</title>
<!-- Node19 -->
<g id="node1" class="node"><title>Node19</title>
<polygon fill="#bfbfbf" stroke="black" points="364,-600.5 364,-652.5 544,-652.5 544,-600.5 364,-600.5"/>
<text text-anchor="start" x="372" y="-640.5" font-family="Helvetica,sans-Serif" font-size="10.00">D:/Users/Victor/OneDrive</text>
<text text-anchor="start" x="372" y="-629.5" font-family="Helvetica,sans-Serif" font-size="10.00">/Documents/Visual Studio</text>
<text text-anchor="start" x="372" y="-618.5" font-family="Helvetica,sans-Serif" font-size="10.00"> 2017/Projects/Jeu_de_Go</text>
<text text-anchor="middle" x="454" y="-607.5" font-family="Helvetica,sans-Serif" font-size="10.00">/Jeu_de_Go/Sources/Engine/Goban.h</text>
</g>
<!-- Node20 -->
<g id="node2" class="node"><title>Node20</title>
<g id="a_node2"><a xlink:href="_arbre_8h.html" target="_top" xlink:title="D:/Users/Victor/OneDrive\l/Documents/Visual Studio\l 2017/Projects/Jeu_de_Go\l/Jeu_de_Go/Sources/Engine/Arbre.h">
<polygon fill="none" stroke="black" points="147.5,-506 147.5,-558 322.5,-558 322.5,-506 147.5,-506"/>
<text text-anchor="start" x="155.5" y="-546" font-family="Helvetica,sans-Serif" font-size="10.00">D:/Users/Victor/OneDrive</text>
<text text-anchor="start" x="155.5" y="-535" font-family="Helvetica,sans-Serif" font-size="10.00">/Documents/Visual Studio</text>
<text text-anchor="start" x="155.5" y="-524" font-family="Helvetica,sans-Serif" font-size="10.00"> 2017/Projects/Jeu_de_Go</text>
<text text-anchor="middle" x="235" y="-513" font-family="Helvetica,sans-Serif" font-size="10.00">/Jeu_de_Go/Sources/Engine/Arbre.h</text>
</a>
</g>
</g>
<!-- Node19&#45;&gt;Node20 -->
<g id="edge1" class="edge"><title>Node19&#45;&gt;Node20</title>
<path fill="none" stroke="midnightblue" d="M385.421,-596.534C356.199,-584.192 322.437,-569.931 294.312,-558.052"/>
<polygon fill="midnightblue" stroke="midnightblue" points="384.162,-599.801 394.735,-600.468 386.885,-593.353 384.162,-599.801"/>
</g>
<!-- Node24 -->
<g id="node6" class="node"><title>Node24</title>
<g id="a_node6"><a xlink:href="_game__window_8h.html" target="_top" xlink:title="D:/Users/Victor/OneDrive\l/Documents/Visual Studio\l 2017/Projects/Jeu_de_Go\l/Jeu_de_Go/Sources/Graphics\l/Game/Game_window.h">
<polygon fill="none" stroke="black" points="309.5,-300.5 309.5,-363.5 458.5,-363.5 458.5,-300.5 309.5,-300.5"/>
<text text-anchor="start" x="317.5" y="-351.5" font-family="Helvetica,sans-Serif" font-size="10.00">D:/Users/Victor/OneDrive</text>
<text text-anchor="start" x="317.5" y="-340.5" font-family="Helvetica,sans-Serif" font-size="10.00">/Documents/Visual Studio</text>
<text text-anchor="start" x="317.5" y="-329.5" font-family="Helvetica,sans-Serif" font-size="10.00"> 2017/Projects/Jeu_de_Go</text>
<text text-anchor="start" x="317.5" y="-318.5" font-family="Helvetica,sans-Serif" font-size="10.00">/Jeu_de_Go/Sources/Graphics</text>
<text text-anchor="middle" x="384" y="-307.5" font-family="Helvetica,sans-Serif" font-size="10.00">/Game/Game_window.h</text>
</a>
</g>
</g>
<!-- Node19&#45;&gt;Node24 -->
<g id="edge19" class="edge"><title>Node19&#45;&gt;Node24</title>
<path fill="none" stroke="midnightblue" d="M430.499,-592.101C409.95,-560.71 381.63,-511.564 370,-464 361.742,-430.229 368.226,-390.378 374.857,-363.573"/>
<polygon fill="midnightblue" stroke="midnightblue" points="427.613,-594.083 436.068,-600.468 433.441,-590.204 427.613,-594.083"/>
</g>
<!-- Node30 -->
<g id="node12" class="node"><title>Node30</title>
<g id="a_node12"><a xlink:href="_board_8h.html" target="_top" xlink:title="D:/Users/Victor/OneDrive\l/Documents/Visual Studio\l 2017/Projects/Jeu_de_Go\l/Jeu_de_Go/Sources/Graphics\l/Game/Board.h">
<polygon fill="none" stroke="black" points="379.5,-400.5 379.5,-463.5 528.5,-463.5 528.5,-400.5 379.5,-400.5"/>
<text text-anchor="start" x="387.5" y="-451.5" font-family="Helvetica,sans-Serif" font-size="10.00">D:/Users/Victor/OneDrive</text>
<text text-anchor="start" x="387.5" y="-440.5" font-family="Helvetica,sans-Serif" font-size="10.00">/Documents/Visual Studio</text>
<text text-anchor="start" x="387.5" y="-429.5" font-family="Helvetica,sans-Serif" font-size="10.00"> 2017/Projects/Jeu_de_Go</text>
<text text-anchor="start" x="387.5" y="-418.5" font-family="Helvetica,sans-Serif" font-size="10.00">/Jeu_de_Go/Sources/Graphics</text>
<text text-anchor="middle" x="454" y="-407.5" font-family="Helvetica,sans-Serif" font-size="10.00">/Game/Board.h</text>
</a>
</g>
</g>
<!-- Node19&#45;&gt;Node30 -->
<g id="edge18" class="edge"><title>Node19&#45;&gt;Node30</title>
<path fill="none" stroke="midnightblue" d="M454,-590.204C454,-553.927 454,-498.02 454,-463.572"/>
<polygon fill="midnightblue" stroke="midnightblue" points="450.5,-590.334 454,-600.334 457.5,-590.334 450.5,-590.334"/>
</g>
<!-- Node32 -->
<g id="node14" class="node"><title>Node32</title>
<g id="a_node14"><a xlink:href="_goban_8cpp.html" target="_top" xlink:title="D:/Users/Victor/OneDrive\l/Documents/Visual Studio\l 2017/Projects/Jeu_de_Go\l/Jeu_de_Go/Sources/Engine\l/Goban.cpp">
<polygon fill="none" stroke="black" points="672,-500.5 672,-563.5 812,-563.5 812,-500.5 672,-500.5"/>
<text text-anchor="start" x="680" y="-551.5" font-family="Helvetica,sans-Serif" font-size="10.00">D:/Users/Victor/OneDrive</text>
<text text-anchor="start" x="680" y="-540.5" font-family="Helvetica,sans-Serif" font-size="10.00">/Documents/Visual Studio</text>
<text text-anchor="start" x="680" y="-529.5" font-family="Helvetica,sans-Serif" font-size="10.00"> 2017/Projects/Jeu_de_Go</text>
<text text-anchor="start" x="680" y="-518.5" font-family="Helvetica,sans-Serif" font-size="10.00">/Jeu_de_Go/Sources/Engine</text>
<text text-anchor="middle" x="742" y="-507.5" font-family="Helvetica,sans-Serif" font-size="10.00">/Goban.cpp</text>
</a>
</g>
</g>
<!-- Node19&#45;&gt;Node32 -->
<g id="edge14" class="edge"><title>Node19&#45;&gt;Node32</title>
<path fill="none" stroke="midnightblue" d="M553.733,-598.086C588.518,-588.015 627.677,-576.101 663,-564 665.927,-562.997 668.905,-561.95 671.907,-560.873"/>
<polygon fill="midnightblue" stroke="midnightblue" points="552.686,-594.745 544.045,-600.876 554.623,-601.472 552.686,-594.745"/>
</g>
<!-- Node33 -->
<g id="node15" class="node"><title>Node33</title>
<g id="a_node15"><a xlink:href="_parser_8h.html" target="_top" xlink:title="D:/Users/Victor/OneDrive\l/Documents/Visual Studio\l 2017/Projects/Jeu_de_Go\l/Jeu_de_Go/Sources/Engine\l/Parser.h">
<polygon fill="none" stroke="black" points="514,-500.5 514,-563.5 654,-563.5 654,-500.5 514,-500.5"/>
<text text-anchor="start" x="522" y="-551.5" font-family="Helvetica,sans-Serif" font-size="10.00">D:/Users/Victor/OneDrive</text>
<text text-anchor="start" x="522" y="-540.5" font-family="Helvetica,sans-Serif" font-size="10.00">/Documents/Visual Studio</text>
<text text-anchor="start" x="522" y="-529.5" font-family="Helvetica,sans-Serif" font-size="10.00"> 2017/Projects/Jeu_de_Go</text>
<text text-anchor="start" x="522" y="-518.5" font-family="Helvetica,sans-Serif" font-size="10.00">/Jeu_de_Go/Sources/Engine</text>
<text text-anchor="middle" x="584" y="-507.5" font-family="Helvetica,sans-Serif" font-size="10.00">/Parser.h</text>
</a>
</g>
</g>
<!-- Node19&#45;&gt;Node33 -->
<g id="edge15" class="edge"><title>Node19&#45;&gt;Node33</title>
<path fill="none" stroke="midnightblue" d="M497.644,-594.446C511.586,-584.525 527.003,-573.555 540.907,-563.663"/>
<polygon fill="midnightblue" stroke="midnightblue" points="495.299,-591.819 489.18,-600.468 499.357,-597.522 495.299,-591.819"/>
</g>
<!-- Node21 -->
<g id="node3" class="node"><title>Node21</title>
<g id="a_node3"><a xlink:href="_arbre_8cpp.html" target="_top" xlink:title="D:/Users/Victor/OneDrive\l/Documents/Visual Studio\l 2017/Projects/Jeu_de_Go\l/Jeu_de_Go/Sources/Engine\l/Arbre.cpp">
<polygon fill="none" stroke="black" points="0,-400.5 0,-463.5 140,-463.5 140,-400.5 0,-400.5"/>
<text text-anchor="start" x="8" y="-451.5" font-family="Helvetica,sans-Serif" font-size="10.00">D:/Users/Victor/OneDrive</text>
<text text-anchor="start" x="8" y="-440.5" font-family="Helvetica,sans-Serif" font-size="10.00">/Documents/Visual Studio</text>
<text text-anchor="start" x="8" y="-429.5" font-family="Helvetica,sans-Serif" font-size="10.00"> 2017/Projects/Jeu_de_Go</text>
<text text-anchor="start" x="8" y="-418.5" font-family="Helvetica,sans-Serif" font-size="10.00">/Jeu_de_Go/Sources/Engine</text>
<text text-anchor="middle" x="70" y="-407.5" font-family="Helvetica,sans-Serif" font-size="10.00">/Arbre.cpp</text>
</a>
</g>
</g>
<!-- Node20&#45;&gt;Node21 -->
<g id="edge2" class="edge"><title>Node20&#45;&gt;Node21</title>
<path fill="none" stroke="midnightblue" d="M183.902,-500.651C164.053,-488.862 141.354,-475.38 121.47,-463.57"/>
<polygon fill="midnightblue" stroke="midnightblue" points="182.123,-503.665 192.508,-505.763 185.698,-497.647 182.123,-503.665"/>
</g>
<!-- Node22 -->
<g id="node4" class="node"><title>Node22</title>
<g id="a_node4"><a xlink:href="_i_a_8h.html" target="_top" xlink:title="D:/Users/Victor/OneDrive\l/Documents/Visual Studio\l 2017/Projects/Jeu_de_Go\l/Jeu_de_Go/Sources/Engine/IA.h">
<polygon fill="none" stroke="black" points="158.5,-406 158.5,-458 319.5,-458 319.5,-406 158.5,-406"/>
<text text-anchor="start" x="166.5" y="-446" font-family="Helvetica,sans-Serif" font-size="10.00">D:/Users/Victor/OneDrive</text>
<text text-anchor="start" x="166.5" y="-435" font-family="Helvetica,sans-Serif" font-size="10.00">/Documents/Visual Studio</text>
<text text-anchor="start" x="166.5" y="-424" font-family="Helvetica,sans-Serif" font-size="10.00"> 2017/Projects/Jeu_de_Go</text>
<text text-anchor="middle" x="239" y="-413" font-family="Helvetica,sans-Serif" font-size="10.00">/Jeu_de_Go/Sources/Engine/IA.h</text>
</a>
</g>
</g>
<!-- Node20&#45;&gt;Node22 -->
<g id="edge3" class="edge"><title>Node20&#45;&gt;Node22</title>
<path fill="none" stroke="midnightblue" d="M236.441,-495.703C236.948,-483.277 237.507,-469.572 237.973,-458.152"/>
<polygon fill="midnightblue" stroke="midnightblue" points="232.941,-495.628 236.03,-505.763 239.935,-495.914 232.941,-495.628"/>
</g>
<!-- Node20&#45;&gt;Node30 -->
<g id="edge11" class="edge"><title>Node20&#45;&gt;Node30</title>
<path fill="none" stroke="midnightblue" d="M300.42,-501.725C327.268,-489.711 358.361,-475.797 385.518,-463.645"/>
<polygon fill="midnightblue" stroke="midnightblue" points="298.812,-498.61 291.114,-505.89 301.671,-505 298.812,-498.61"/>
</g>
<!-- Node23 -->
<g id="node5" class="node"><title>Node23</title>
<g id="a_node5"><a xlink:href="_i_a_8cpp.html" target="_top" xlink:title="D:/Users/Victor/OneDrive\l/Documents/Visual Studio\l 2017/Projects/Jeu_de_Go\l/Jeu_de_Go/Sources/Engine/IA.cpp">
<polygon fill="none" stroke="black" points="120.5,-306 120.5,-358 291.5,-358 291.5,-306 120.5,-306"/>
<text text-anchor="start" x="128.5" y="-346" font-family="Helvetica,sans-Serif" font-size="10.00">D:/Users/Victor/OneDrive</text>
<text text-anchor="start" x="128.5" y="-335" font-family="Helvetica,sans-Serif" font-size="10.00">/Documents/Visual Studio</text>
<text text-anchor="start" x="128.5" y="-324" font-family="Helvetica,sans-Serif" font-size="10.00"> 2017/Projects/Jeu_de_Go</text>
<text text-anchor="middle" x="206" y="-313" font-family="Helvetica,sans-Serif" font-size="10.00">/Jeu_de_Go/Sources/Engine/IA.cpp</text>
</a>
</g>
</g>
<!-- Node22&#45;&gt;Node23 -->
<g id="edge4" class="edge"><title>Node22&#45;&gt;Node23</title>
<path fill="none" stroke="midnightblue" d="M227.24,-396.076C223.022,-383.551 218.353,-369.686 214.47,-358.152"/>
<polygon fill="midnightblue" stroke="midnightblue" points="223.993,-397.402 230.502,-405.763 230.627,-395.168 223.993,-397.402"/>
</g>
<!-- Node22&#45;&gt;Node24 -->
<g id="edge5" class="edge"><title>Node22&#45;&gt;Node24</title>
<path fill="none" stroke="midnightblue" d="M285.081,-399.856C302.24,-388.258 321.687,-375.115 338.769,-363.57"/>
<polygon fill="midnightblue" stroke="midnightblue" points="282.666,-397.263 276.341,-405.763 286.586,-403.063 282.666,-397.263"/>
</g>
<!-- Node25 -->
<g id="node7" class="node"><title>Node25</title>
<g id="a_node7"><a xlink:href="_game__window_8cpp.html" target="_top" xlink:title="D:/Users/Victor/OneDrive\l/Documents/Visual Studio\l 2017/Projects/Jeu_de_Go\l/Jeu_de_Go/Sources/Graphics\l/Game/Game_window.cpp">
<polygon fill="none" stroke="black" points="309.5,-200.5 309.5,-263.5 458.5,-263.5 458.5,-200.5 309.5,-200.5"/>
<text text-anchor="start" x="317.5" y="-251.5" font-family="Helvetica,sans-Serif" font-size="10.00">D:/Users/Victor/OneDrive</text>
<text text-anchor="start" x="317.5" y="-240.5" font-family="Helvetica,sans-Serif" font-size="10.00">/Documents/Visual Studio</text>
<text text-anchor="start" x="317.5" y="-229.5" font-family="Helvetica,sans-Serif" font-size="10.00"> 2017/Projects/Jeu_de_Go</text>
<text text-anchor="start" x="317.5" y="-218.5" font-family="Helvetica,sans-Serif" font-size="10.00">/Jeu_de_Go/Sources/Graphics</text>
<text text-anchor="middle" x="384" y="-207.5" font-family="Helvetica,sans-Serif" font-size="10.00">/Game/Game_window.cpp</text>
</a>
</g>
</g>
<!-- Node24&#45;&gt;Node25 -->
<g id="edge6" class="edge"><title>Node24&#45;&gt;Node25</title>
<path fill="none" stroke="midnightblue" d="M384,-290.099C384,-281.238 384,-272.015 384,-263.63"/>
<polygon fill="midnightblue" stroke="midnightblue" points="380.5,-290.261 384,-300.261 387.5,-290.261 380.5,-290.261"/>
</g>
<!-- Node26 -->
<g id="node8" class="node"><title>Node26</title>
<g id="a_node8"><a xlink:href="_screens_8h.html" target="_top" xlink:title="D:/Users/Victor/OneDrive\l/Documents/Visual Studio\l 2017/Projects/Jeu_de_Go\l/Jeu_de_Go/Sources/Graphics\l/Screens.h">
<polygon fill="none" stroke="black" points="506.5,-200.5 506.5,-263.5 655.5,-263.5 655.5,-200.5 506.5,-200.5"/>
<text text-anchor="start" x="514.5" y="-251.5" font-family="Helvetica,sans-Serif" font-size="10.00">D:/Users/Victor/OneDrive</text>
<text text-anchor="start" x="514.5" y="-240.5" font-family="Helvetica,sans-Serif" font-size="10.00">/Documents/Visual Studio</text>
<text text-anchor="start" x="514.5" y="-229.5" font-family="Helvetica,sans-Serif" font-size="10.00"> 2017/Projects/Jeu_de_Go</text>
<text text-anchor="start" x="514.5" y="-218.5" font-family="Helvetica,sans-Serif" font-size="10.00">/Jeu_de_Go/Sources/Graphics</text>
<text text-anchor="middle" x="581" y="-207.5" font-family="Helvetica,sans-Serif" font-size="10.00">/Screens.h</text>
</a>
</g>
</g>
<!-- Node24&#45;&gt;Node26 -->
<g id="edge7" class="edge"><title>Node24&#45;&gt;Node26</title>
<path fill="none" stroke="midnightblue" d="M454.512,-295.923C475.791,-285.337 498.971,-273.806 519.606,-263.541"/>
<polygon fill="midnightblue" stroke="midnightblue" points="452.916,-292.808 445.522,-300.395 456.034,-299.075 452.916,-292.808"/>
</g>
<!-- Node27 -->
<g id="node9" class="node"><title>Node27</title>
<g id="a_node9"><a xlink:href="_go___solver_8h.html" target="_top" xlink:title="D:/Users/Victor/OneDrive\l/Documents/Visual Studio\l 2017/Projects/Jeu_de_Go\l/Jeu_de_Go/Sources/Graphics\l/Go_Solver.h">
<polygon fill="none" stroke="black" points="573.5,-100.5 573.5,-163.5 722.5,-163.5 722.5,-100.5 573.5,-100.5"/>
<text text-anchor="start" x="581.5" y="-151.5" font-family="Helvetica,sans-Serif" font-size="10.00">D:/Users/Victor/OneDrive</text>
<text text-anchor="start" x="581.5" y="-140.5" font-family="Helvetica,sans-Serif" font-size="10.00">/Documents/Visual Studio</text>
<text text-anchor="start" x="581.5" y="-129.5" font-family="Helvetica,sans-Serif" font-size="10.00"> 2017/Projects/Jeu_de_Go</text>
<text text-anchor="start" x="581.5" y="-118.5" font-family="Helvetica,sans-Serif" font-size="10.00">/Jeu_de_Go/Sources/Graphics</text>
<text text-anchor="middle" x="648" y="-107.5" font-family="Helvetica,sans-Serif" font-size="10.00">/Go_Solver.h</text>
</a>
</g>
</g>
<!-- Node26&#45;&gt;Node27 -->
<g id="edge8" class="edge"><title>Node26&#45;&gt;Node27</title>
<path fill="none" stroke="midnightblue" d="M607.781,-191.827C614.196,-182.445 620.953,-172.561 627.059,-163.63"/>
<polygon fill="midnightblue" stroke="midnightblue" points="604.77,-190.031 602.015,-200.261 610.549,-193.981 604.77,-190.031"/>
</g>
<!-- Node28 -->
<g id="node10" class="node"><title>Node28</title>
<g id="a_node10"><a xlink:href="_go___solver_8cpp.html" target="_top" xlink:title="D:/Users/Victor/OneDrive\l/Documents/Visual Studio\l 2017/Projects/Jeu_de_Go\l/Jeu_de_Go/Sources/Graphics\l/Go_Solver.cpp">
<polygon fill="none" stroke="black" points="490.5,-0.5 490.5,-63.5 639.5,-63.5 639.5,-0.5 490.5,-0.5"/>
<text text-anchor="start" x="498.5" y="-51.5" font-family="Helvetica,sans-Serif" font-size="10.00">D:/Users/Victor/OneDrive</text>
<text text-anchor="start" x="498.5" y="-40.5" font-family="Helvetica,sans-Serif" font-size="10.00">/Documents/Visual Studio</text>
<text text-anchor="start" x="498.5" y="-29.5" font-family="Helvetica,sans-Serif" font-size="10.00"> 2017/Projects/Jeu_de_Go</text>
<text text-anchor="start" x="498.5" y="-18.5" font-family="Helvetica,sans-Serif" font-size="10.00">/Jeu_de_Go/Sources/Graphics</text>
<text text-anchor="middle" x="565" y="-7.5" font-family="Helvetica,sans-Serif" font-size="10.00">/Go_Solver.cpp</text>
</a>
</g>
</g>
<!-- Node27&#45;&gt;Node28 -->
<g id="edge9" class="edge"><title>Node27&#45;&gt;Node28</title>
<path fill="none" stroke="midnightblue" d="M615.309,-92.4011C607.219,-82.8488 598.66,-72.7436 590.942,-63.6299"/>
<polygon fill="midnightblue" stroke="midnightblue" points="612.832,-94.8922 621.966,-100.261 618.174,-90.3681 612.832,-94.8922"/>
</g>
<!-- Node29 -->
<g id="node11" class="node"><title>Node29</title>
<g id="a_node11"><a xlink:href="_main_8cpp.html" target="_top" xlink:title="D:/Users/Victor/OneDrive\l/Documents/Visual Studio\l 2017/Projects/Jeu_de_Go\l/Jeu_de_Go/Sources/Graphics\l/Main.cpp">
<polygon fill="none" stroke="black" points="657.5,-0.5 657.5,-63.5 806.5,-63.5 806.5,-0.5 657.5,-0.5"/>
<text text-anchor="start" x="665.5" y="-51.5" font-family="Helvetica,sans-Serif" font-size="10.00">D:/Users/Victor/OneDrive</text>
<text text-anchor="start" x="665.5" y="-40.5" font-family="Helvetica,sans-Serif" font-size="10.00">/Documents/Visual Studio</text>
<text text-anchor="start" x="665.5" y="-29.5" font-family="Helvetica,sans-Serif" font-size="10.00"> 2017/Projects/Jeu_de_Go</text>
<text text-anchor="start" x="665.5" y="-18.5" font-family="Helvetica,sans-Serif" font-size="10.00">/Jeu_de_Go/Sources/Graphics</text>
<text text-anchor="middle" x="732" y="-7.5" font-family="Helvetica,sans-Serif" font-size="10.00">/Main.cpp</text>
</a>
</g>
</g>
<!-- Node27&#45;&gt;Node29 -->
<g id="edge10" class="edge"><title>Node27&#45;&gt;Node29</title>
<path fill="none" stroke="midnightblue" d="M681.085,-92.4011C689.272,-82.8488 697.934,-72.7436 705.746,-63.6299"/>
<polygon fill="midnightblue" stroke="midnightblue" points="678.198,-90.3907 674.348,-100.261 683.513,-94.9463 678.198,-90.3907"/>
</g>
<!-- Node30&#45;&gt;Node24 -->
<g id="edge13" class="edge"><title>Node30&#45;&gt;Node24</title>
<path fill="none" stroke="midnightblue" d="M426.225,-392.114C419.462,-382.647 412.323,-372.652 405.878,-363.63"/>
<polygon fill="midnightblue" stroke="midnightblue" points="423.383,-394.158 432.044,-400.261 429.079,-390.089 423.383,-394.158"/>
</g>
<!-- Node31 -->
<g id="node13" class="node"><title>Node31</title>
<g id="a_node13"><a xlink:href="_board_8cpp.html" target="_top" xlink:title="D:/Users/Victor/OneDrive\l/Documents/Visual Studio\l 2017/Projects/Jeu_de_Go\l/Jeu_de_Go/Sources/Graphics\l/Game/Board.cpp">
<polygon fill="none" stroke="black" points="476.5,-300.5 476.5,-363.5 625.5,-363.5 625.5,-300.5 476.5,-300.5"/>
<text text-anchor="start" x="484.5" y="-351.5" font-family="Helvetica,sans-Serif" font-size="10.00">D:/Users/Victor/OneDrive</text>
<text text-anchor="start" x="484.5" y="-340.5" font-family="Helvetica,sans-Serif" font-size="10.00">/Documents/Visual Studio</text>
<text text-anchor="start" x="484.5" y="-329.5" font-family="Helvetica,sans-Serif" font-size="10.00"> 2017/Projects/Jeu_de_Go</text>
<text text-anchor="start" x="484.5" y="-318.5" font-family="Helvetica,sans-Serif" font-size="10.00">/Jeu_de_Go/Sources/Graphics</text>
<text text-anchor="middle" x="551" y="-307.5" font-family="Helvetica,sans-Serif" font-size="10.00">/Game/Board.cpp</text>
</a>
</g>
</g>
<!-- Node30&#45;&gt;Node31 -->
<g id="edge12" class="edge"><title>Node30&#45;&gt;Node31</title>
<path fill="none" stroke="midnightblue" d="M491.638,-392.974C501.259,-383.253 511.482,-372.926 520.683,-363.63"/>
<polygon fill="midnightblue" stroke="midnightblue" points="488.972,-390.692 484.425,-400.261 493.948,-395.616 488.972,-390.692"/>
</g>
<!-- Node33&#45;&gt;Node27 -->
<g id="edge17" class="edge"><title>Node33&#45;&gt;Node27</title>
<path fill="none" stroke="midnightblue" d="M662.612,-498.451C675.983,-489.317 688.086,-477.955 696,-464 751.853,-365.504 694.767,-225.009 664.391,-163.647"/>
<polygon fill="midnightblue" stroke="midnightblue" points="660.695,-495.522 654.149,-503.854 664.461,-501.423 660.695,-495.522"/>
</g>
<!-- Node34 -->
<g id="node16" class="node"><title>Node34</title>
<g id="a_node16"><a xlink:href="_parser_8cpp.html" target="_top" xlink:title="D:/Users/Victor/OneDrive\l/Documents/Visual Studio\l 2017/Projects/Jeu_de_Go\l/Jeu_de_Go/Sources/Engine\l/Parser.cpp">
<polygon fill="none" stroke="black" points="547,-400.5 547,-463.5 687,-463.5 687,-400.5 547,-400.5"/>
<text text-anchor="start" x="555" y="-451.5" font-family="Helvetica,sans-Serif" font-size="10.00">D:/Users/Victor/OneDrive</text>
<text text-anchor="start" x="555" y="-440.5" font-family="Helvetica,sans-Serif" font-size="10.00">/Documents/Visual Studio</text>
<text text-anchor="start" x="555" y="-429.5" font-family="Helvetica,sans-Serif" font-size="10.00"> 2017/Projects/Jeu_de_Go</text>
<text text-anchor="start" x="555" y="-418.5" font-family="Helvetica,sans-Serif" font-size="10.00">/Jeu_de_Go/Sources/Engine</text>
<text text-anchor="middle" x="617" y="-407.5" font-family="Helvetica,sans-Serif" font-size="10.00">/Parser.cpp</text>
</a>
</g>
</g>
<!-- Node33&#45;&gt;Node34 -->
<g id="edge16" class="edge"><title>Node33&#45;&gt;Node34</title>
<path fill="none" stroke="midnightblue" d="M597.578,-490.676C600.621,-481.64 603.801,-472.197 606.686,-463.63"/>
<polygon fill="midnightblue" stroke="midnightblue" points="594.225,-489.667 594.351,-500.261 600.859,-491.901 594.225,-489.667"/>
</g>
</g>
</svg>
