<?xml version="1.0" encoding="UTF-8" standalone="no"?>
<!DOCTYPE svg PUBLIC "-//W3C//DTD SVG 1.1//EN"
 "http://www.w3.org/Graphics/SVG/1.1/DTD/svg11.dtd">
<!-- Generated by graphviz version 2.38.0 (20140413.2041)
 -->
<!-- Title: operator&lt;&lt; Pages: 1 -->
<svg width="183pt" height="66pt"
 viewBox="0.00 0.00 183.00 66.00" xmlns="http://www.w3.org/2000/svg" xmlns:xlink="http://www.w3.org/1999/xlink">
<g id="graph0" class="graph" transform="scale(1 1) rotate(0) translate(4 62)">
<title>operator&lt;&lt;</title>
<!-- Node0 -->
<g id="node1" class="node"><title>Node0</title>
<polygon fill="#bfbfbf" stroke="black" points="0,-19.5 0,-38.5 64,-38.5 64,-19.5 0,-19.5"/>
<text text-anchor="middle" x="32" y="-26.5" font-family="Helvetica,sans-Serif" font-size="10.00">operator&lt;&lt;</text>
</g>
<!-- Node1 -->
<g id="node2" class="node"><title>Node1</title>
<g id="a_node2"><a xlink:href="class_goban.html#a29aaf8df380fe614845d48cba057747c" target="_top" xlink:title="Goban::coord">
<polygon fill="none" stroke="black" points="100,-38.5 100,-57.5 175,-57.5 175,-38.5 100,-38.5"/>
<text text-anchor="middle" x="137.5" y="-45.5" font-family="Helvetica,sans-Serif" font-size="10.00">Goban::coord</text>
</a>
</g>
</g>
<!-- Node0&#45;&gt;Node1 -->
<g id="edge1" class="edge"><title>Node0&#45;&gt;Node1</title>
<path fill="none" stroke="midnightblue" d="M64.0534,-34.7006C72.0993,-36.1777 80.9443,-37.8014 89.6063,-39.3915"/>
<polygon fill="midnightblue" stroke="midnightblue" points="89.1641,-42.8687 99.6317,-41.2319 90.4281,-35.9838 89.1641,-42.8687"/>
</g>
<!-- Node2 -->
<g id="node3" class="node"><title>Node2</title>
<g id="a_node3"><a xlink:href="class_etat.html#ac0b81bbcf64cb3cc574e5a9dcdf94382" target="_top" xlink:title="Etat::getVal">
<polygon fill="none" stroke="black" points="103.5,-0.5 103.5,-19.5 171.5,-19.5 171.5,-0.5 103.5,-0.5"/>
<text text-anchor="middle" x="137.5" y="-7.5" font-family="Helvetica,sans-Serif" font-size="10.00">Etat::getVal</text>
</a>
</g>
</g>
<!-- Node0&#45;&gt;Node2 -->
<g id="edge2" class="edge"><title>Node0&#45;&gt;Node2</title>
<path fill="none" stroke="midnightblue" d="M64.0534,-23.2994C73.2455,-21.6119 83.4807,-19.733 93.2943,-17.9315"/>
<polygon fill="midnightblue" stroke="midnightblue" points="94.1034,-21.3415 103.307,-16.0934 92.8394,-14.4566 94.1034,-21.3415"/>
</g>
</g>
</svg>
