<?xml version="1.0" encoding="UTF-8" standalone="no"?>
<!DOCTYPE svg PUBLIC "-//W3C//DTD SVG 1.1//EN"
 "http://www.w3.org/Graphics/SVG/1.1/DTD/svg11.dtd">
<!-- Generated by graphviz version 2.38.0 (20140413.2041)
 -->
<!-- Title: D:/Users/Victor/OneDrive/Documents/Visual Studio 2017/Projects/Jeu_de_Go/Jeu_de_Go/Sources/Engine/Goban.cpp Pages: 1 -->
<svg width="983pt" height="296pt"
 viewBox="0.00 0.00 982.50 296.00" xmlns="http://www.w3.org/2000/svg" xmlns:xlink="http://www.w3.org/1999/xlink">
<g id="graph0" class="graph" transform="scale(1 1) rotate(0) translate(4 292)">
<title>D:/Users/Victor/OneDrive/Documents/Visual Studio 2017/Projects/Jeu_de_Go/Jeu_de_Go/Sources/Engine/Goban.cpp</title>
<!-- Node0 -->
<g id="node1" class="node"><title>Node0</title>
<polygon fill="#bfbfbf" stroke="black" points="159,-224.5 159,-287.5 299,-287.5 299,-224.5 159,-224.5"/>
<text text-anchor="start" x="167" y="-275.5" font-family="Helvetica,sans-Serif" font-size="10.00">D:/Users/Victor/OneDrive</text>
<text text-anchor="start" x="167" y="-264.5" font-family="Helvetica,sans-Serif" font-size="10.00">/Documents/Visual Studio</text>
<text text-anchor="start" x="167" y="-253.5" font-family="Helvetica,sans-Serif" font-size="10.00"> 2017/Projects/Jeu_de_Go</text>
<text text-anchor="start" x="167" y="-242.5" font-family="Helvetica,sans-Serif" font-size="10.00">/Jeu_de_Go/Sources/Engine</text>
<text text-anchor="middle" x="229" y="-231.5" font-family="Helvetica,sans-Serif" font-size="10.00">/Goban.cpp</text>
</g>
<!-- Node1 -->
<g id="node2" class="node"><title>Node1</title>
<g id="a_node2"><a xlink:href="_goban_8h.html" target="_top" xlink:title="Goban.h">
<polygon fill="none" stroke="black" points="202.5,-168.5 202.5,-187.5 255.5,-187.5 255.5,-168.5 202.5,-168.5"/>
<text text-anchor="middle" x="229" y="-175.5" font-family="Helvetica,sans-Serif" font-size="10.00">Goban.h</text>
</a>
</g>
</g>
<!-- Node0&#45;&gt;Node1 -->
<g id="edge1" class="edge"><title>Node0&#45;&gt;Node1</title>
<path fill="none" stroke="midnightblue" d="M229,-224.088C229,-215.15 229,-205.669 229,-197.719"/>
<polygon fill="midnightblue" stroke="midnightblue" points="232.5,-197.718 229,-187.718 225.5,-197.718 232.5,-197.718"/>
</g>
<!-- Node2 -->
<g id="node3" class="node"><title>Node2</title>
<polygon fill="none" stroke="#bfbfbf" points="0,-0.5 0,-19.5 54,-19.5 54,-0.5 0,-0.5"/>
<text text-anchor="middle" x="27" y="-7.5" font-family="Helvetica,sans-Serif" font-size="10.00">iostream</text>
</g>
<!-- Node1&#45;&gt;Node2 -->
<g id="edge2" class="edge"><title>Node1&#45;&gt;Node2</title>
<path fill="none" stroke="midnightblue" d="M216.188,-168.383C203.269,-159.572 182.88,-145.326 166,-132 120.227,-95.8652 69.1688,-49.8456 43.5565,-26.3358"/>
<polygon fill="midnightblue" stroke="midnightblue" points="45.9001,-23.736 36.1738,-19.5348 41.1573,-28.8845 45.9001,-23.736"/>
</g>
<!-- Node3 -->
<g id="node4" class="node"><title>Node3</title>
<polygon fill="none" stroke="#bfbfbf" points="72,-0.5 72,-19.5 116,-19.5 116,-0.5 72,-0.5"/>
<text text-anchor="middle" x="94" y="-7.5" font-family="Helvetica,sans-Serif" font-size="10.00">cmath</text>
</g>
<!-- Node1&#45;&gt;Node3 -->
<g id="edge3" class="edge"><title>Node1&#45;&gt;Node3</title>
<path fill="none" stroke="midnightblue" d="M219.883,-168.357C210.729,-159.526 196.389,-145.264 185,-132 154.465,-96.4377 122.314,-51.7059 105.615,-27.8359"/>
<polygon fill="midnightblue" stroke="midnightblue" points="108.404,-25.7159 99.8218,-19.5031 102.656,-29.7117 108.404,-25.7159"/>
</g>
<!-- Node4 -->
<g id="node5" class="node"><title>Node4</title>
<polygon fill="none" stroke="#bfbfbf" points="173,-56.5 173,-75.5 215,-75.5 215,-56.5 173,-56.5"/>
<text text-anchor="middle" x="194" y="-63.5" font-family="Helvetica,sans-Serif" font-size="10.00">vector</text>
</g>
<!-- Node1&#45;&gt;Node4 -->
<g id="edge4" class="edge"><title>Node1&#45;&gt;Node4</title>
<path fill="none" stroke="midnightblue" d="M218.562,-168.245C209.576,-159.969 197.254,-146.663 192,-132 186.644,-117.054 187.776,-98.9144 189.884,-85.5999"/>
<polygon fill="midnightblue" stroke="midnightblue" points="193.332,-86.2046 191.763,-75.7265 186.455,-84.8957 193.332,-86.2046"/>
</g>
<!-- Node5 -->
<g id="node6" class="node"><title>Node5</title>
<g id="a_node6"><a xlink:href="_etat_8h.html" target="_top" xlink:title="Etat.h">
<polygon fill="none" stroke="black" points="249.5,-56.5 249.5,-75.5 292.5,-75.5 292.5,-56.5 249.5,-56.5"/>
<text text-anchor="middle" x="271" y="-63.5" font-family="Helvetica,sans-Serif" font-size="10.00">Etat.h</text>
</a>
</g>
</g>
<!-- Node1&#45;&gt;Node5 -->
<g id="edge5" class="edge"><title>Node1&#45;&gt;Node5</title>
<path fill="none" stroke="midnightblue" d="M238.831,-168.466C247.66,-160.146 260.112,-146.638 266,-132 271.88,-117.382 272.844,-99.4395 272.499,-86.112"/>
<polygon fill="midnightblue" stroke="midnightblue" points="275.976,-85.5874 271.95,-75.7874 268.986,-85.9592 275.976,-85.5874"/>
</g>
<!-- Node6 -->
<g id="node7" class="node"><title>Node6</title>
<g id="a_node7"><a xlink:href="_groupe_8h.html" target="_top" xlink:title="Groupe.h">
<polygon fill="none" stroke="black" points="201,-112.5 201,-131.5 257,-131.5 257,-112.5 201,-112.5"/>
<text text-anchor="middle" x="229" y="-119.5" font-family="Helvetica,sans-Serif" font-size="10.00">Groupe.h</text>
</a>
</g>
</g>
<!-- Node1&#45;&gt;Node6 -->
<g id="edge7" class="edge"><title>Node1&#45;&gt;Node6</title>
<path fill="none" stroke="midnightblue" d="M229,-168.083C229,-161.006 229,-150.861 229,-141.986"/>
<polygon fill="midnightblue" stroke="midnightblue" points="232.5,-141.751 229,-131.751 225.5,-141.751 232.5,-141.751"/>
</g>
<!-- Node7 -->
<g id="node8" class="node"><title>Node7</title>
<g id="a_node8"><a xlink:href="_history_8h.html" target="_top" xlink:title="History.h">
<polygon fill="none" stroke="black" points="332,-112.5 332,-131.5 388,-131.5 388,-112.5 332,-112.5"/>
<text text-anchor="middle" x="360" y="-119.5" font-family="Helvetica,sans-Serif" font-size="10.00">History.h</text>
</a>
</g>
</g>
<!-- Node1&#45;&gt;Node7 -->
<g id="edge10" class="edge"><title>Node1&#45;&gt;Node7</title>
<path fill="none" stroke="midnightblue" d="M249.757,-168.444C271.316,-159.557 305.263,-145.563 329.794,-135.451"/>
<polygon fill="midnightblue" stroke="midnightblue" points="331.428,-138.563 339.34,-131.516 328.761,-132.092 331.428,-138.563"/>
</g>
<!-- Node17 -->
<g id="node18" class="node"><title>Node17</title>
<polygon fill="none" stroke="#bfbfbf" points="915.5,-0.5 915.5,-19.5 974.5,-19.5 974.5,-0.5 915.5,-0.5"/>
<text text-anchor="middle" x="945" y="-7.5" font-family="Helvetica,sans-Serif" font-size="10.00">stdexcept</text>
</g>
<!-- Node1&#45;&gt;Node17 -->
<g id="edge26" class="edge"><title>Node1&#45;&gt;Node17</title>
<path fill="none" stroke="midnightblue" d="M255.503,-170.913C345.188,-150.305 645.723,-81.1595 905.146,-20.4272"/>
<polygon fill="midnightblue" stroke="midnightblue" points="906.194,-23.7766 915.133,-18.0888 904.598,-16.961 906.194,-23.7766"/>
</g>
<!-- Node5&#45;&gt;Node2 -->
<g id="edge6" class="edge"><title>Node5&#45;&gt;Node2</title>
<path fill="none" stroke="midnightblue" d="M249.39,-60.5619C213.167,-53.0721 137.683,-37.2486 64.0126,-20.1804"/>
<polygon fill="midnightblue" stroke="midnightblue" points="64.6375,-16.7323 54.1044,-17.8745 63.0508,-23.5501 64.6375,-16.7323"/>
</g>
<!-- Node6&#45;&gt;Node4 -->
<g id="edge8" class="edge"><title>Node6&#45;&gt;Node4</title>
<path fill="none" stroke="midnightblue" d="M223.22,-112.083C218.328,-104.534 211.173,-93.4948 205.167,-84.2298"/>
<polygon fill="midnightblue" stroke="midnightblue" points="208.048,-82.239 199.672,-75.7511 202.174,-86.0463 208.048,-82.239"/>
</g>
<!-- Node6&#45;&gt;Node5 -->
<g id="edge9" class="edge"><title>Node6&#45;&gt;Node5</title>
<path fill="none" stroke="midnightblue" d="M235.935,-112.083C241.929,-104.377 250.752,-93.0333 258.048,-83.6531"/>
<polygon fill="midnightblue" stroke="midnightblue" points="260.817,-85.7934 264.194,-75.7511 255.291,-81.4958 260.817,-85.7934"/>
</g>
<!-- Node7&#45;&gt;Node5 -->
<g id="edge24" class="edge"><title>Node7&#45;&gt;Node5</title>
<path fill="none" stroke="midnightblue" d="M345.701,-112.324C331.817,-103.9 310.508,-90.9709 294.196,-81.0741"/>
<polygon fill="midnightblue" stroke="midnightblue" points="295.629,-77.8495 285.264,-75.6545 291.998,-83.8341 295.629,-77.8495"/>
</g>
<!-- Node8 -->
<g id="node9" class="node"><title>Node8</title>
<g id="a_node9"><a xlink:href="_globals_8h.html" target="_top" xlink:title="../Graphics/Globals.h">
<polygon fill="none" stroke="black" points="318.5,-56.5 318.5,-75.5 427.5,-75.5 427.5,-56.5 318.5,-56.5"/>
<text text-anchor="middle" x="373" y="-63.5" font-family="Helvetica,sans-Serif" font-size="10.00">../Graphics/Globals.h</text>
</a>
</g>
</g>
<!-- Node7&#45;&gt;Node8 -->
<g id="edge11" class="edge"><title>Node7&#45;&gt;Node8</title>
<path fill="none" stroke="midnightblue" d="M362.147,-112.083C363.869,-104.927 366.347,-94.6353 368.5,-85.6911"/>
<polygon fill="midnightblue" stroke="midnightblue" points="371.955,-86.2925 370.893,-75.7511 365.15,-84.6541 371.955,-86.2925"/>
</g>
<!-- Node19 -->
<g id="node20" class="node"><title>Node19</title>
<polygon fill="none" stroke="#bfbfbf" points="445.5,-56.5 445.5,-75.5 474.5,-75.5 474.5,-56.5 445.5,-56.5"/>
<text text-anchor="middle" x="460" y="-63.5" font-family="Helvetica,sans-Serif" font-size="10.00">list</text>
</g>
<!-- Node7&#45;&gt;Node19 -->
<g id="edge25" class="edge"><title>Node7&#45;&gt;Node19</title>
<path fill="none" stroke="midnightblue" d="M376.067,-112.324C392.334,-103.54 417.674,-89.8558 436.258,-79.8206"/>
<polygon fill="midnightblue" stroke="midnightblue" points="438.141,-82.7819 445.277,-74.9507 434.814,-76.6225 438.141,-82.7819"/>
</g>
<!-- Node8&#45;&gt;Node2 -->
<g id="edge16" class="edge"><title>Node8&#45;&gt;Node2</title>
<path fill="none" stroke="midnightblue" d="M318.379,-57.7473C247.045,-48.1652 124.981,-31.3653 64.0081,-19.9928"/>
<polygon fill="midnightblue" stroke="midnightblue" points="64.5427,-16.5315 54.061,-18.076 63.2181,-23.4051 64.5427,-16.5315"/>
</g>
<!-- Node8&#45;&gt;Node3 -->
<g id="edge23" class="edge"><title>Node8&#45;&gt;Node3</title>
<path fill="none" stroke="midnightblue" d="M318.483,-56.7658C270.279,-49.1113 197.887,-36.7079 126.362,-20.1322"/>
<polygon fill="midnightblue" stroke="midnightblue" points="126.814,-16.643 116.278,-17.7657 125.214,-23.4579 126.814,-16.643"/>
</g>
<!-- Node9 -->
<g id="node10" class="node"><title>Node9</title>
<polygon fill="none" stroke="#bfbfbf" points="331,-0.5 331,-19.5 435,-19.5 435,-0.5 331,-0.5"/>
<text text-anchor="middle" x="383" y="-7.5" font-family="Helvetica,sans-Serif" font-size="10.00">SFML/Graphics.hpp</text>
</g>
<!-- Node8&#45;&gt;Node9 -->
<g id="edge12" class="edge"><title>Node8&#45;&gt;Node9</title>
<path fill="none" stroke="midnightblue" d="M374.651,-56.083C375.976,-48.9272 377.882,-38.6353 379.539,-29.6911"/>
<polygon fill="midnightblue" stroke="midnightblue" points="383,-30.2212 381.379,-19.7511 376.117,-28.9466 383,-30.2212"/>
</g>
<!-- Node10 -->
<g id="node11" class="node"><title>Node10</title>
<polygon fill="none" stroke="#bfbfbf" points="453,-0.5 453,-19.5 551,-19.5 551,-0.5 453,-0.5"/>
<text text-anchor="middle" x="502" y="-7.5" font-family="Helvetica,sans-Serif" font-size="10.00">SFML/System.hpp</text>
</g>
<!-- Node8&#45;&gt;Node10 -->
<g id="edge13" class="edge"><title>Node8&#45;&gt;Node10</title>
<path fill="none" stroke="midnightblue" d="M393.44,-56.4435C414.67,-47.5566 448.099,-33.5632 472.255,-23.4514"/>
<polygon fill="midnightblue" stroke="midnightblue" points="473.782,-26.6064 481.655,-19.5164 471.079,-20.1493 473.782,-26.6064"/>
</g>
<!-- Node11 -->
<g id="node12" class="node"><title>Node11</title>
<polygon fill="none" stroke="#bfbfbf" points="569.5,-0.5 569.5,-19.5 668.5,-19.5 668.5,-0.5 569.5,-0.5"/>
<text text-anchor="middle" x="619" y="-7.5" font-family="Helvetica,sans-Serif" font-size="10.00">SFML/Window.hpp</text>
</g>
<!-- Node8&#45;&gt;Node11 -->
<g id="edge14" class="edge"><title>Node8&#45;&gt;Node11</title>
<path fill="none" stroke="midnightblue" d="M411.979,-56.4435C454.894,-47.0234 523.946,-31.8656 570.369,-21.6752"/>
<polygon fill="midnightblue" stroke="midnightblue" points="571.186,-25.0792 580.203,-19.5164 569.685,-18.242 571.186,-25.0792"/>
</g>
<!-- Node12 -->
<g id="node13" class="node"><title>Node12</title>
<polygon fill="none" stroke="#bfbfbf" points="686.5,-0.5 686.5,-19.5 775.5,-19.5 775.5,-0.5 686.5,-0.5"/>
<text text-anchor="middle" x="731" y="-7.5" font-family="Helvetica,sans-Serif" font-size="10.00">SFML/Audio.hpp</text>
</g>
<!-- Node8&#45;&gt;Node12 -->
<g id="edge15" class="edge"><title>Node8&#45;&gt;Node12</title>
<path fill="none" stroke="midnightblue" d="M427.716,-57.0228C497.609,-46.8129 615.793,-29.4771 676.022,-20.1229"/>
<polygon fill="midnightblue" stroke="midnightblue" points="676.882,-23.531 686.221,-18.5276 675.8,-16.6151 676.882,-23.531"/>
</g>
<!-- Node13 -->
<g id="node14" class="node"><title>Node13</title>
<polygon fill="none" stroke="#bfbfbf" points="793.5,-0.5 793.5,-19.5 838.5,-19.5 838.5,-0.5 793.5,-0.5"/>
<text text-anchor="middle" x="816" y="-7.5" font-family="Helvetica,sans-Serif" font-size="10.00">cstdlib</text>
</g>
<!-- Node8&#45;&gt;Node13 -->
<g id="edge17" class="edge"><title>Node8&#45;&gt;Node13</title>
<path fill="none" stroke="midnightblue" d="M427.618,-57.0651C430.452,-56.6949 433.259,-56.3375 436,-56 587.011,-37.4096 629.454,-48.6481 783.105,-19.8328"/>
<polygon fill="midnightblue" stroke="midnightblue" points="784.219,-23.1836 793.389,-17.8761 782.911,-16.307 784.219,-23.1836"/>
</g>
<!-- Node14 -->
<g id="node15" class="node"><title>Node14</title>
<polygon fill="none" stroke="#bfbfbf" points="856.5,-0.5 856.5,-19.5 897.5,-19.5 897.5,-0.5 856.5,-0.5"/>
<text text-anchor="middle" x="877" y="-7.5" font-family="Helvetica,sans-Serif" font-size="10.00">string</text>
</g>
<!-- Node8&#45;&gt;Node14 -->
<g id="edge18" class="edge"><title>Node8&#45;&gt;Node14</title>
<path fill="none" stroke="midnightblue" d="M427.612,-57.0118C430.447,-56.6555 433.256,-56.3156 436,-56 615.395,-35.3641 665.875,-54.7366 846.41,-19.9497"/>
<polygon fill="midnightblue" stroke="midnightblue" points="847.085,-23.3842 856.228,-18.0299 845.742,-16.5143 847.085,-23.3842"/>
</g>
<!-- Node15 -->
<g id="node16" class="node"><title>Node15</title>
<polygon fill="none" stroke="#bfbfbf" points="134.5,-0.5 134.5,-19.5 183.5,-19.5 183.5,-0.5 134.5,-0.5"/>
<text text-anchor="middle" x="159" y="-7.5" font-family="Helvetica,sans-Serif" font-size="10.00">fstream</text>
</g>
<!-- Node8&#45;&gt;Node15 -->
<g id="edge19" class="edge"><title>Node8&#45;&gt;Node15</title>
<path fill="none" stroke="midnightblue" d="M337.564,-56.4404C303.1,-48.0602 249.013,-34.7629 193.803,-20.4333"/>
<polygon fill="midnightblue" stroke="midnightblue" points="194.409,-16.9746 183.85,-17.8418 192.646,-23.7487 194.409,-16.9746"/>
</g>
<!-- Node16 -->
<g id="node17" class="node"><title>Node16</title>
<polygon fill="none" stroke="#bfbfbf" points="201.5,-0.5 201.5,-19.5 250.5,-19.5 250.5,-0.5 201.5,-0.5"/>
<text text-anchor="middle" x="226" y="-7.5" font-family="Helvetica,sans-Serif" font-size="10.00">cassert</text>
</g>
<!-- Node8&#45;&gt;Node16 -->
<g id="edge20" class="edge"><title>Node8&#45;&gt;Node16</title>
<path fill="none" stroke="midnightblue" d="M349.707,-56.4435C325.193,-47.4381 286.404,-33.1891 258.8,-23.049"/>
<polygon fill="midnightblue" stroke="midnightblue" points="259.777,-19.6793 249.184,-19.5164 257.363,-26.25 259.777,-19.6793"/>
</g>
<!-- Node8&#45;&gt;Node17 -->
<g id="edge21" class="edge"><title>Node8&#45;&gt;Node17</title>
<path fill="none" stroke="midnightblue" d="M427.608,-56.9753C430.444,-56.6285 433.254,-56.3007 436,-56 641.435,-33.4996 697.802,-51.7029 905.224,-20.0633"/>
<polygon fill="midnightblue" stroke="midnightblue" points="905.868,-23.5053 915.216,-18.5186 904.799,-16.5875 905.868,-23.5053"/>
</g>
<!-- Node18 -->
<g id="node19" class="node"><title>Node18</title>
<polygon fill="none" stroke="#bfbfbf" points="269,-0.5 269,-19.5 313,-19.5 313,-0.5 269,-0.5"/>
<text text-anchor="middle" x="291" y="-7.5" font-family="Helvetica,sans-Serif" font-size="10.00">thread</text>
</g>
<!-- Node8&#45;&gt;Node18 -->
<g id="edge22" class="edge"><title>Node8&#45;&gt;Node18</title>
<path fill="none" stroke="midnightblue" d="M359.825,-56.324C347.153,-47.979 327.767,-35.2122 312.794,-25.3524"/>
<polygon fill="midnightblue" stroke="midnightblue" points="314.419,-22.2313 304.142,-19.6545 310.569,-28.0776 314.419,-22.2313"/>
</g>
</g>
</svg>
