<?xml version="1.0" encoding="UTF-8" standalone="no"?>
<!DOCTYPE svg PUBLIC "-//W3C//DTD SVG 1.1//EN"
 "http://www.w3.org/Graphics/SVG/1.1/DTD/svg11.dtd">
<!-- Generated by graphviz version 2.38.0 (20140413.2041)
 -->
<!-- Title: D:/Users/Victor/OneDrive/Documents/Visual Studio 2017/Projects/Jeu_de_Go/Jeu_de_Go/Sources/Engine/Groupe.h Pages: 1 -->
<svg width="148pt" height="184pt"
 viewBox="0.00 0.00 148.00 184.00" xmlns="http://www.w3.org/2000/svg" xmlns:xlink="http://www.w3.org/1999/xlink">
<g id="graph0" class="graph" transform="scale(1 1) rotate(0) translate(4 180)">
<title>D:/Users/Victor/OneDrive/Documents/Visual Studio 2017/Projects/Jeu_de_Go/Jeu_de_Go/Sources/Engine/Groupe.h</title>
<!-- Node0 -->
<g id="node1" class="node"><title>Node0</title>
<polygon fill="#bfbfbf" stroke="black" points="0,-112.5 0,-175.5 140,-175.5 140,-112.5 0,-112.5"/>
<text text-anchor="start" x="8" y="-163.5" font-family="Helvetica,sans-Serif" font-size="10.00">D:/Users/Victor/OneDrive</text>
<text text-anchor="start" x="8" y="-152.5" font-family="Helvetica,sans-Serif" font-size="10.00">/Documents/Visual Studio</text>
<text text-anchor="start" x="8" y="-141.5" font-family="Helvetica,sans-Serif" font-size="10.00"> 2017/Projects/Jeu_de_Go</text>
<text text-anchor="start" x="8" y="-130.5" font-family="Helvetica,sans-Serif" font-size="10.00">/Jeu_de_Go/Sources/Engine</text>
<text text-anchor="middle" x="70" y="-119.5" font-family="Helvetica,sans-Serif" font-size="10.00">/Groupe.h</text>
</g>
<!-- Node1 -->
<g id="node2" class="node"><title>Node1</title>
<polygon fill="none" stroke="#bfbfbf" points="19,-56.5 19,-75.5 61,-75.5 61,-56.5 19,-56.5"/>
<text text-anchor="middle" x="40" y="-63.5" font-family="Helvetica,sans-Serif" font-size="10.00">vector</text>
</g>
<!-- Node0&#45;&gt;Node1 -->
<g id="edge1" class="edge"><title>Node0&#45;&gt;Node1</title>
<path fill="none" stroke="midnightblue" d="M57.7979,-112.088C54.1885,-102.944 50.355,-93.2326 47.1738,-85.1737"/>
<polygon fill="midnightblue" stroke="midnightblue" points="50.3687,-83.7346 43.4414,-75.7182 43.8576,-86.3048 50.3687,-83.7346"/>
</g>
<!-- Node2 -->
<g id="node3" class="node"><title>Node2</title>
<g id="a_node3"><a xlink:href="_etat_8h.html" target="_top" xlink:title="Etat.h">
<polygon fill="none" stroke="black" points="79.5,-56.5 79.5,-75.5 122.5,-75.5 122.5,-56.5 79.5,-56.5"/>
<text text-anchor="middle" x="101" y="-63.5" font-family="Helvetica,sans-Serif" font-size="10.00">Etat.h</text>
</a>
</g>
</g>
<!-- Node0&#45;&gt;Node2 -->
<g id="edge2" class="edge"><title>Node0&#45;&gt;Node2</title>
<path fill="none" stroke="midnightblue" d="M82.6089,-112.088C86.3386,-102.944 90.2998,-93.2326 93.587,-85.1737"/>
<polygon fill="midnightblue" stroke="midnightblue" points="96.9078,-86.2994 97.4439,-75.7182 90.4262,-83.6556 96.9078,-86.2994"/>
</g>
<!-- Node3 -->
<g id="node4" class="node"><title>Node3</title>
<polygon fill="none" stroke="#bfbfbf" points="74,-0.5 74,-19.5 128,-19.5 128,-0.5 74,-0.5"/>
<text text-anchor="middle" x="101" y="-7.5" font-family="Helvetica,sans-Serif" font-size="10.00">iostream</text>
</g>
<!-- Node2&#45;&gt;Node3 -->
<g id="edge3" class="edge"><title>Node2&#45;&gt;Node3</title>
<path fill="none" stroke="midnightblue" d="M101,-56.083C101,-49.0059 101,-38.8611 101,-29.9865"/>
<polygon fill="midnightblue" stroke="midnightblue" points="104.5,-29.751 101,-19.7511 97.5001,-29.7511 104.5,-29.751"/>
</g>
</g>
</svg>
