<?xml version="1.0" encoding="UTF-8" standalone="no"?>
<!DOCTYPE svg PUBLIC "-//W3C//DTD SVG 1.1//EN"
 "http://www.w3.org/Graphics/SVG/1.1/DTD/svg11.dtd">
<!-- Generated by graphviz version 2.38.0 (20140413.2041)
 -->
<!-- Title: D:/Users/Victor/OneDrive/Documents/Visual Studio 2017/Projects/Jeu_de_Go/Jeu_de_Go/Sources/Engine/IA.h Pages: 1 -->
<svg width="983pt" height="341pt"
 viewBox="0.00 0.00 982.50 341.00" xmlns="http://www.w3.org/2000/svg" xmlns:xlink="http://www.w3.org/1999/xlink">
<g id="graph0" class="graph" transform="scale(1 1) rotate(0) translate(4 337)">
<title>D:/Users/Victor/OneDrive/Documents/Visual Studio 2017/Projects/Jeu_de_Go/Jeu_de_Go/Sources/Engine/IA.h</title>
<!-- Node0 -->
<g id="node1" class="node"><title>Node0</title>
<polygon fill="#bfbfbf" stroke="black" points="338.5,-280.5 338.5,-332.5 499.5,-332.5 499.5,-280.5 338.5,-280.5"/>
<text text-anchor="start" x="346.5" y="-320.5" font-family="Helvetica,sans-Serif" font-size="10.00">D:/Users/Victor/OneDrive</text>
<text text-anchor="start" x="346.5" y="-309.5" font-family="Helvetica,sans-Serif" font-size="10.00">/Documents/Visual Studio</text>
<text text-anchor="start" x="346.5" y="-298.5" font-family="Helvetica,sans-Serif" font-size="10.00"> 2017/Projects/Jeu_de_Go</text>
<text text-anchor="middle" x="419" y="-287.5" font-family="Helvetica,sans-Serif" font-size="10.00">/Jeu_de_Go/Sources/Engine/IA.h</text>
</g>
<!-- Node1 -->
<g id="node2" class="node"><title>Node1</title>
<polygon fill="none" stroke="#bfbfbf" points="364,-224.5 364,-243.5 410,-243.5 410,-224.5 364,-224.5"/>
<text text-anchor="middle" x="387" y="-231.5" font-family="Helvetica,sans-Serif" font-size="10.00">chrono</text>
</g>
<!-- Node0&#45;&gt;Node1 -->
<g id="edge1" class="edge"><title>Node0&#45;&gt;Node1</title>
<path fill="none" stroke="midnightblue" d="M407.628,-280.446C403.49,-271.329 398.9,-261.217 395.103,-252.851"/>
<polygon fill="midnightblue" stroke="midnightblue" points="398.267,-251.355 390.947,-243.695 391.893,-254.248 398.267,-251.355"/>
</g>
<!-- Node2 -->
<g id="node3" class="node"><title>Node2</title>
<g id="a_node3"><a xlink:href="_arbre_8h.html" target="_top" xlink:title="Arbre.h">
<polygon fill="none" stroke="black" points="428,-224.5 428,-243.5 476,-243.5 476,-224.5 428,-224.5"/>
<text text-anchor="middle" x="452" y="-231.5" font-family="Helvetica,sans-Serif" font-size="10.00">Arbre.h</text>
</a>
</g>
</g>
<!-- Node0&#45;&gt;Node2 -->
<g id="edge2" class="edge"><title>Node0&#45;&gt;Node2</title>
<path fill="none" stroke="midnightblue" d="M430.727,-280.446C434.995,-271.329 439.728,-261.217 443.644,-252.851"/>
<polygon fill="midnightblue" stroke="midnightblue" points="446.86,-254.236 447.93,-243.695 440.52,-251.269 446.86,-254.236"/>
</g>
<!-- Node3 -->
<g id="node4" class="node"><title>Node3</title>
<g id="a_node4"><a xlink:href="_goban_8h.html" target="_top" xlink:title="Goban.h">
<polygon fill="none" stroke="black" points="425.5,-168.5 425.5,-187.5 478.5,-187.5 478.5,-168.5 425.5,-168.5"/>
<text text-anchor="middle" x="452" y="-175.5" font-family="Helvetica,sans-Serif" font-size="10.00">Goban.h</text>
</a>
</g>
</g>
<!-- Node2&#45;&gt;Node3 -->
<g id="edge3" class="edge"><title>Node2&#45;&gt;Node3</title>
<path fill="none" stroke="midnightblue" d="M452,-224.083C452,-217.006 452,-206.861 452,-197.986"/>
<polygon fill="midnightblue" stroke="midnightblue" points="455.5,-197.751 452,-187.751 448.5,-197.751 455.5,-197.751"/>
</g>
<!-- Node4 -->
<g id="node5" class="node"><title>Node4</title>
<polygon fill="none" stroke="#bfbfbf" points="0,-0.5 0,-19.5 54,-19.5 54,-0.5 0,-0.5"/>
<text text-anchor="middle" x="27" y="-7.5" font-family="Helvetica,sans-Serif" font-size="10.00">iostream</text>
</g>
<!-- Node2&#45;&gt;Node4 -->
<g id="edge29" class="edge"><title>Node2&#45;&gt;Node4</title>
<path fill="none" stroke="midnightblue" d="M430.702,-224.488C376.928,-202.673 231.919,-141.832 119,-76 92.5753,-60.5943 64.0983,-39.7504 45.9404,-25.8638"/>
<polygon fill="midnightblue" stroke="midnightblue" points="47.9631,-23.0037 37.9097,-19.66 43.6837,-28.5433 47.9631,-23.0037"/>
</g>
<!-- Node6 -->
<g id="node7" class="node"><title>Node6</title>
<polygon fill="none" stroke="#bfbfbf" points="516,-56.5 516,-75.5 558,-75.5 558,-56.5 516,-56.5"/>
<text text-anchor="middle" x="537" y="-63.5" font-family="Helvetica,sans-Serif" font-size="10.00">vector</text>
</g>
<!-- Node2&#45;&gt;Node6 -->
<g id="edge30" class="edge"><title>Node2&#45;&gt;Node6</title>
<path fill="none" stroke="midnightblue" d="M459.967,-224.187C467.585,-215.454 479.055,-201.469 487,-188 507.23,-153.706 523.186,-109.69 531.244,-85.3138"/>
<polygon fill="midnightblue" stroke="midnightblue" points="534.638,-86.1931 534.378,-75.6015 527.977,-84.0435 534.638,-86.1931"/>
</g>
<!-- Node3&#45;&gt;Node4 -->
<g id="edge4" class="edge"><title>Node3&#45;&gt;Node4</title>
<path fill="none" stroke="midnightblue" d="M425.307,-169.979C395.243,-161.832 345.087,-147.518 303,-132 209.543,-97.5422 102.444,-47.4146 53.6822,-23.9816"/>
<polygon fill="midnightblue" stroke="midnightblue" points="54.9858,-20.7245 44.4583,-19.5324 51.9446,-27.0294 54.9858,-20.7245"/>
</g>
<!-- Node5 -->
<g id="node6" class="node"><title>Node5</title>
<polygon fill="none" stroke="#bfbfbf" points="853,-0.5 853,-19.5 897,-19.5 897,-0.5 853,-0.5"/>
<text text-anchor="middle" x="875" y="-7.5" font-family="Helvetica,sans-Serif" font-size="10.00">cmath</text>
</g>
<!-- Node3&#45;&gt;Node5 -->
<g id="edge5" class="edge"><title>Node3&#45;&gt;Node5</title>
<path fill="none" stroke="midnightblue" d="M473.852,-168.425C543.766,-140.988 762.165,-55.2805 843.799,-23.2444"/>
<polygon fill="midnightblue" stroke="midnightblue" points="845.249,-26.4354 853.279,-19.5241 842.692,-19.9192 845.249,-26.4354"/>
</g>
<!-- Node3&#45;&gt;Node6 -->
<g id="edge6" class="edge"><title>Node3&#45;&gt;Node6</title>
<path fill="none" stroke="midnightblue" d="M459.228,-168.481C466.786,-159.511 478.927,-144.923 489,-132 501.613,-115.819 515.48,-96.9119 525.053,-83.6745"/>
<polygon fill="midnightblue" stroke="midnightblue" points="527.922,-85.6795 530.925,-75.5192 522.241,-81.5891 527.922,-85.6795"/>
</g>
<!-- Node7 -->
<g id="node8" class="node"><title>Node7</title>
<g id="a_node8"><a xlink:href="_etat_8h.html" target="_top" xlink:title="Etat.h">
<polygon fill="none" stroke="black" points="327.5,-56.5 327.5,-75.5 370.5,-75.5 370.5,-56.5 327.5,-56.5"/>
<text text-anchor="middle" x="349" y="-63.5" font-family="Helvetica,sans-Serif" font-size="10.00">Etat.h</text>
</a>
</g>
</g>
<!-- Node3&#45;&gt;Node7 -->
<g id="edge7" class="edge"><title>Node3&#45;&gt;Node7</title>
<path fill="none" stroke="midnightblue" d="M443.918,-168.368C426.694,-149.974 386.147,-106.671 364.03,-83.0519"/>
<polygon fill="midnightblue" stroke="midnightblue" points="366.435,-80.4987 357.045,-75.5914 361.325,-85.2832 366.435,-80.4987"/>
</g>
<!-- Node8 -->
<g id="node9" class="node"><title>Node8</title>
<g id="a_node9"><a xlink:href="_groupe_8h.html" target="_top" xlink:title="Groupe.h">
<polygon fill="none" stroke="black" points="424,-112.5 424,-131.5 480,-131.5 480,-112.5 424,-112.5"/>
<text text-anchor="middle" x="452" y="-119.5" font-family="Helvetica,sans-Serif" font-size="10.00">Groupe.h</text>
</a>
</g>
</g>
<!-- Node3&#45;&gt;Node8 -->
<g id="edge9" class="edge"><title>Node3&#45;&gt;Node8</title>
<path fill="none" stroke="midnightblue" d="M452,-168.083C452,-161.006 452,-150.861 452,-141.986"/>
<polygon fill="midnightblue" stroke="midnightblue" points="455.5,-141.751 452,-131.751 448.5,-141.751 455.5,-141.751"/>
</g>
<!-- Node9 -->
<g id="node10" class="node"><title>Node9</title>
<g id="a_node10"><a xlink:href="_history_8h.html" target="_top" xlink:title="History.h">
<polygon fill="none" stroke="black" points="312,-112.5 312,-131.5 368,-131.5 368,-112.5 312,-112.5"/>
<text text-anchor="middle" x="340" y="-119.5" font-family="Helvetica,sans-Serif" font-size="10.00">History.h</text>
</a>
</g>
</g>
<!-- Node3&#45;&gt;Node9 -->
<g id="edge12" class="edge"><title>Node3&#45;&gt;Node9</title>
<path fill="none" stroke="midnightblue" d="M434.005,-168.324C415.962,-159.625 387.953,-146.12 367.197,-136.113"/>
<polygon fill="midnightblue" stroke="midnightblue" points="368.478,-132.845 357.95,-131.655 365.438,-139.15 368.478,-132.845"/>
</g>
<!-- Node19 -->
<g id="node20" class="node"><title>Node19</title>
<polygon fill="none" stroke="#bfbfbf" points="915.5,-0.5 915.5,-19.5 974.5,-19.5 974.5,-0.5 915.5,-0.5"/>
<text text-anchor="middle" x="945" y="-7.5" font-family="Helvetica,sans-Serif" font-size="10.00">stdexcept</text>
</g>
<!-- Node3&#45;&gt;Node19 -->
<g id="edge28" class="edge"><title>Node3&#45;&gt;Node19</title>
<path fill="none" stroke="midnightblue" d="M478.673,-169.415C508.76,-160.762 559.092,-145.996 602,-132 716.871,-94.5315 851.649,-45.474 912.399,-23.085"/>
<polygon fill="midnightblue" stroke="midnightblue" points="913.671,-26.3465 921.841,-19.6004 911.247,-19.7795 913.671,-26.3465"/>
</g>
<!-- Node7&#45;&gt;Node4 -->
<g id="edge8" class="edge"><title>Node7&#45;&gt;Node4</title>
<path fill="none" stroke="midnightblue" d="M327.42,-58.3094C324.278,-57.4596 321.068,-56.6585 318,-56 209.26,-32.6635 177.147,-41.375 64.1491,-20.0318"/>
<polygon fill="midnightblue" stroke="midnightblue" points="64.5404,-16.5429 54.0588,-18.0875 63.2159,-23.4164 64.5404,-16.5429"/>
</g>
<!-- Node8&#45;&gt;Node6 -->
<g id="edge10" class="edge"><title>Node8&#45;&gt;Node6</title>
<path fill="none" stroke="midnightblue" d="M465.657,-112.324C478.916,-103.9 499.268,-90.9709 514.846,-81.0741"/>
<polygon fill="midnightblue" stroke="midnightblue" points="516.813,-83.9711 523.377,-75.6545 513.06,-78.0626 516.813,-83.9711"/>
</g>
<!-- Node8&#45;&gt;Node7 -->
<g id="edge11" class="edge"><title>Node8&#45;&gt;Node7</title>
<path fill="none" stroke="midnightblue" d="M435.451,-112.324C419.008,-103.703 393.565,-90.3643 374.532,-80.3855"/>
<polygon fill="midnightblue" stroke="midnightblue" points="375.989,-77.198 365.508,-75.6545 372.739,-83.3977 375.989,-77.198"/>
</g>
<!-- Node9&#45;&gt;Node7 -->
<g id="edge26" class="edge"><title>Node9&#45;&gt;Node7</title>
<path fill="none" stroke="midnightblue" d="M341.486,-112.083C342.679,-104.927 344.394,-94.6353 345.885,-85.6911"/>
<polygon fill="midnightblue" stroke="midnightblue" points="349.35,-86.1904 347.541,-75.7511 342.445,-85.0396 349.35,-86.1904"/>
</g>
<!-- Node10 -->
<g id="node11" class="node"><title>Node10</title>
<g id="a_node11"><a xlink:href="_globals_8h.html" target="_top" xlink:title="../Graphics/Globals.h">
<polygon fill="none" stroke="black" points="388.5,-56.5 388.5,-75.5 497.5,-75.5 497.5,-56.5 388.5,-56.5"/>
<text text-anchor="middle" x="443" y="-63.5" font-family="Helvetica,sans-Serif" font-size="10.00">../Graphics/Globals.h</text>
</a>
</g>
</g>
<!-- Node9&#45;&gt;Node10 -->
<g id="edge13" class="edge"><title>Node9&#45;&gt;Node10</title>
<path fill="none" stroke="midnightblue" d="M356.549,-112.324C372.992,-103.703 398.435,-90.3643 417.468,-80.3855"/>
<polygon fill="midnightblue" stroke="midnightblue" points="419.261,-83.3977 426.492,-75.6545 416.011,-77.198 419.261,-83.3977"/>
</g>
<!-- Node21 -->
<g id="node22" class="node"><title>Node21</title>
<polygon fill="none" stroke="#bfbfbf" points="280.5,-56.5 280.5,-75.5 309.5,-75.5 309.5,-56.5 280.5,-56.5"/>
<text text-anchor="middle" x="295" y="-63.5" font-family="Helvetica,sans-Serif" font-size="10.00">list</text>
</g>
<!-- Node9&#45;&gt;Node21 -->
<g id="edge27" class="edge"><title>Node9&#45;&gt;Node21</title>
<path fill="none" stroke="midnightblue" d="M332.569,-112.083C326.147,-104.377 316.694,-93.0333 308.878,-83.6531"/>
<polygon fill="midnightblue" stroke="midnightblue" points="311.383,-81.1927 302.293,-75.7511 306.006,-85.674 311.383,-81.1927"/>
</g>
<!-- Node10&#45;&gt;Node4 -->
<g id="edge18" class="edge"><title>Node10&#45;&gt;Node4</title>
<path fill="none" stroke="midnightblue" d="M388.2,-57.1973C385.089,-56.7843 382.005,-56.3824 379,-56 242.064,-38.5746 203.866,-44.8797 64.2727,-20.0114"/>
<polygon fill="midnightblue" stroke="midnightblue" points="64.5065,-16.4972 54.044,-18.1663 63.2638,-23.386 64.5065,-16.4972"/>
</g>
<!-- Node10&#45;&gt;Node5 -->
<g id="edge25" class="edge"><title>Node10&#45;&gt;Node5</title>
<path fill="none" stroke="midnightblue" d="M497.797,-57.172C500.909,-56.7654 503.993,-56.3719 507,-56 653.279,-37.9067 694.453,-48.6268 842.834,-19.913"/>
<polygon fill="midnightblue" stroke="midnightblue" points="843.626,-23.3244 852.764,-17.9639 842.278,-16.4554 843.626,-23.3244"/>
</g>
<!-- Node11 -->
<g id="node12" class="node"><title>Node11</title>
<polygon fill="none" stroke="#bfbfbf" points="615,-0.5 615,-19.5 719,-19.5 719,-0.5 615,-0.5"/>
<text text-anchor="middle" x="667" y="-7.5" font-family="Helvetica,sans-Serif" font-size="10.00">SFML/Graphics.hpp</text>
</g>
<!-- Node10&#45;&gt;Node11 -->
<g id="edge14" class="edge"><title>Node10&#45;&gt;Node11</title>
<path fill="none" stroke="midnightblue" d="M478.493,-56.4435C517.324,-47.0826 579.656,-32.0561 621.918,-21.868"/>
<polygon fill="midnightblue" stroke="midnightblue" points="622.771,-25.2626 631.673,-19.5164 621.131,-18.4576 622.771,-25.2626"/>
</g>
<!-- Node12 -->
<g id="node13" class="node"><title>Node12</title>
<polygon fill="none" stroke="#bfbfbf" points="737,-0.5 737,-19.5 835,-19.5 835,-0.5 737,-0.5"/>
<text text-anchor="middle" x="786" y="-7.5" font-family="Helvetica,sans-Serif" font-size="10.00">SFML/System.hpp</text>
</g>
<!-- Node10&#45;&gt;Node12 -->
<g id="edge15" class="edge"><title>Node10&#45;&gt;Node12</title>
<path fill="none" stroke="midnightblue" d="M497.349,-56.4435C559.928,-46.5916 662.368,-30.464 726.889,-20.3062"/>
<polygon fill="midnightblue" stroke="midnightblue" points="727.572,-23.7417 736.906,-18.729 726.484,-16.8269 727.572,-23.7417"/>
</g>
<!-- Node13 -->
<g id="node14" class="node"><title>Node13</title>
<polygon fill="none" stroke="#bfbfbf" points="72.5,-0.5 72.5,-19.5 171.5,-19.5 171.5,-0.5 72.5,-0.5"/>
<text text-anchor="middle" x="122" y="-7.5" font-family="Helvetica,sans-Serif" font-size="10.00">SFML/Window.hpp</text>
</g>
<!-- Node10&#45;&gt;Node13 -->
<g id="edge16" class="edge"><title>Node10&#45;&gt;Node13</title>
<path fill="none" stroke="midnightblue" d="M392.137,-56.4435C334.983,-46.8289 242.3,-31.2373 181.745,-21.0505"/>
<polygon fill="midnightblue" stroke="midnightblue" points="182.013,-17.5465 171.571,-19.339 180.851,-24.4495 182.013,-17.5465"/>
</g>
<!-- Node14 -->
<g id="node15" class="node"><title>Node14</title>
<polygon fill="none" stroke="#bfbfbf" points="189.5,-0.5 189.5,-19.5 278.5,-19.5 278.5,-0.5 189.5,-0.5"/>
<text text-anchor="middle" x="234" y="-7.5" font-family="Helvetica,sans-Serif" font-size="10.00">SFML/Audio.hpp</text>
</g>
<!-- Node10&#45;&gt;Node14 -->
<g id="edge17" class="edge"><title>Node10&#45;&gt;Node14</title>
<path fill="none" stroke="midnightblue" d="M409.883,-56.4435C373.882,-47.1419 316.23,-32.246 276.814,-22.062"/>
<polygon fill="midnightblue" stroke="midnightblue" points="277.519,-18.6294 266.962,-19.5164 275.768,-25.4068 277.519,-18.6294"/>
</g>
<!-- Node15 -->
<g id="node16" class="node"><title>Node15</title>
<polygon fill="none" stroke="#bfbfbf" points="296.5,-0.5 296.5,-19.5 341.5,-19.5 341.5,-0.5 296.5,-0.5"/>
<text text-anchor="middle" x="319" y="-7.5" font-family="Helvetica,sans-Serif" font-size="10.00">cstdlib</text>
</g>
<!-- Node10&#45;&gt;Node15 -->
<g id="edge19" class="edge"><title>Node10&#45;&gt;Node15</title>
<path fill="none" stroke="midnightblue" d="M423.352,-56.4435C403.035,-47.5961 371.097,-33.6875 347.902,-23.5865"/>
<polygon fill="midnightblue" stroke="midnightblue" points="349.122,-20.3002 338.556,-19.5164 346.327,-26.7181 349.122,-20.3002"/>
</g>
<!-- Node16 -->
<g id="node17" class="node"><title>Node16</title>
<polygon fill="none" stroke="#bfbfbf" points="359.5,-0.5 359.5,-19.5 400.5,-19.5 400.5,-0.5 359.5,-0.5"/>
<text text-anchor="middle" x="380" y="-7.5" font-family="Helvetica,sans-Serif" font-size="10.00">string</text>
</g>
<!-- Node10&#45;&gt;Node16 -->
<g id="edge20" class="edge"><title>Node10&#45;&gt;Node16</title>
<path fill="none" stroke="midnightblue" d="M432.878,-56.324C423.474,-48.2631 409.256,-36.0765 397.931,-26.3695"/>
<polygon fill="midnightblue" stroke="midnightblue" points="400.177,-23.6844 390.306,-19.8339 395.621,-28.9993 400.177,-23.6844"/>
</g>
<!-- Node17 -->
<g id="node18" class="node"><title>Node17</title>
<polygon fill="none" stroke="#bfbfbf" points="418.5,-0.5 418.5,-19.5 467.5,-19.5 467.5,-0.5 418.5,-0.5"/>
<text text-anchor="middle" x="443" y="-7.5" font-family="Helvetica,sans-Serif" font-size="10.00">fstream</text>
</g>
<!-- Node10&#45;&gt;Node17 -->
<g id="edge21" class="edge"><title>Node10&#45;&gt;Node17</title>
<path fill="none" stroke="midnightblue" d="M443,-56.083C443,-49.0059 443,-38.8611 443,-29.9865"/>
<polygon fill="midnightblue" stroke="midnightblue" points="446.5,-29.751 443,-19.7511 439.5,-29.7511 446.5,-29.751"/>
</g>
<!-- Node18 -->
<g id="node19" class="node"><title>Node18</title>
<polygon fill="none" stroke="#bfbfbf" points="485.5,-0.5 485.5,-19.5 534.5,-19.5 534.5,-0.5 485.5,-0.5"/>
<text text-anchor="middle" x="510" y="-7.5" font-family="Helvetica,sans-Serif" font-size="10.00">cassert</text>
</g>
<!-- Node10&#45;&gt;Node18 -->
<g id="edge22" class="edge"><title>Node10&#45;&gt;Node18</title>
<path fill="none" stroke="midnightblue" d="M453.765,-56.324C463.766,-48.2631 478.887,-36.0765 490.93,-26.3695"/>
<polygon fill="midnightblue" stroke="midnightblue" points="493.45,-28.8343 499.039,-19.8339 489.057,-23.3841 493.45,-28.8343"/>
</g>
<!-- Node10&#45;&gt;Node19 -->
<g id="edge23" class="edge"><title>Node10&#45;&gt;Node19</title>
<path fill="none" stroke="midnightblue" d="M497.79,-57.1126C500.904,-56.7212 503.99,-56.3472 507,-56 680.685,-35.9649 728.46,-47.6437 905.374,-19.8749"/>
<polygon fill="midnightblue" stroke="midnightblue" points="905.945,-23.3281 915.272,-18.3016 904.846,-16.4149 905.945,-23.3281"/>
</g>
<!-- Node20 -->
<g id="node21" class="node"><title>Node20</title>
<polygon fill="none" stroke="#bfbfbf" points="553,-0.5 553,-19.5 597,-19.5 597,-0.5 553,-0.5"/>
<text text-anchor="middle" x="575" y="-7.5" font-family="Helvetica,sans-Serif" font-size="10.00">thread</text>
</g>
<!-- Node10&#45;&gt;Node20 -->
<g id="edge24" class="edge"><title>Node10&#45;&gt;Node20</title>
<path fill="none" stroke="midnightblue" d="M463.916,-56.4435C485.736,-47.5171 520.15,-33.4387 544.892,-23.3168"/>
<polygon fill="midnightblue" stroke="midnightblue" points="546.252,-26.5422 554.182,-19.5164 543.601,-20.0634 546.252,-26.5422"/>
</g>
</g>
</svg>
