<?xml version="1.0" encoding="UTF-8" standalone="no"?>
<!DOCTYPE svg PUBLIC "-//W3C//DTD SVG 1.1//EN"
 "http://www.w3.org/Graphics/SVG/1.1/DTD/svg11.dtd">
<!-- Generated by graphviz version 2.38.0 (20140413.2041)
 -->
<!-- Title: D:/Users/Victor/OneDrive/Documents/Visual Studio 2017/Projects/Jeu_de_Go/Jeu_de_Go/Sources/Engine/IA.h Pages: 1 -->
<svg width="513pt" height="461pt"
 viewBox="0.00 0.00 513.00 461.00" xmlns="http://www.w3.org/2000/svg" xmlns:xlink="http://www.w3.org/1999/xlink">
<g id="graph0" class="graph" transform="scale(1 1) rotate(0) translate(4 457)">
<title>D:/Users/Victor/OneDrive/Documents/Visual Studio 2017/Projects/Jeu_de_Go/Jeu_de_Go/Sources/Engine/IA.h</title>
<!-- Node22 -->
<g id="node1" class="node"><title>Node22</title>
<polygon fill="#bfbfbf" stroke="black" points="94,-400.5 94,-452.5 255,-452.5 255,-400.5 94,-400.5"/>
<text text-anchor="start" x="102" y="-440.5" font-family="Helvetica,sans-Serif" font-size="10.00">D:/Users/Victor/OneDrive</text>
<text text-anchor="start" x="102" y="-429.5" font-family="Helvetica,sans-Serif" font-size="10.00">/Documents/Visual Studio</text>
<text text-anchor="start" x="102" y="-418.5" font-family="Helvetica,sans-Serif" font-size="10.00"> 2017/Projects/Jeu_de_Go</text>
<text text-anchor="middle" x="174.5" y="-407.5" font-family="Helvetica,sans-Serif" font-size="10.00">/Jeu_de_Go/Sources/Engine/IA.h</text>
</g>
<!-- Node23 -->
<g id="node2" class="node"><title>Node23</title>
<g id="a_node2"><a xlink:href="_i_a_8cpp.html" target="_top" xlink:title="D:/Users/Victor/OneDrive\l/Documents/Visual Studio\l 2017/Projects/Jeu_de_Go\l/Jeu_de_Go/Sources/Engine/IA.cpp">
<polygon fill="none" stroke="black" points="0,-306 0,-358 171,-358 171,-306 0,-306"/>
<text text-anchor="start" x="8" y="-346" font-family="Helvetica,sans-Serif" font-size="10.00">D:/Users/Victor/OneDrive</text>
<text text-anchor="start" x="8" y="-335" font-family="Helvetica,sans-Serif" font-size="10.00">/Documents/Visual Studio</text>
<text text-anchor="start" x="8" y="-324" font-family="Helvetica,sans-Serif" font-size="10.00"> 2017/Projects/Jeu_de_Go</text>
<text text-anchor="middle" x="85.5" y="-313" font-family="Helvetica,sans-Serif" font-size="10.00">/Jeu_de_Go/Sources/Engine/IA.cpp</text>
</a>
</g>
</g>
<!-- Node22&#45;&gt;Node23 -->
<g id="edge1" class="edge"><title>Node22&#45;&gt;Node23</title>
<path fill="none" stroke="midnightblue" d="M143.179,-392.947C132.22,-381.557 120.088,-368.948 109.79,-358.245"/>
<polygon fill="midnightblue" stroke="midnightblue" points="140.725,-395.445 150.18,-400.224 145.769,-390.591 140.725,-395.445"/>
</g>
<!-- Node24 -->
<g id="node3" class="node"><title>Node24</title>
<g id="a_node3"><a xlink:href="_game__window_8h.html" target="_top" xlink:title="D:/Users/Victor/OneDrive\l/Documents/Visual Studio\l 2017/Projects/Jeu_de_Go\l/Jeu_de_Go/Sources/Graphics\l/Game/Game_window.h">
<polygon fill="none" stroke="black" points="189,-300.5 189,-363.5 338,-363.5 338,-300.5 189,-300.5"/>
<text text-anchor="start" x="197" y="-351.5" font-family="Helvetica,sans-Serif" font-size="10.00">D:/Users/Victor/OneDrive</text>
<text text-anchor="start" x="197" y="-340.5" font-family="Helvetica,sans-Serif" font-size="10.00">/Documents/Visual Studio</text>
<text text-anchor="start" x="197" y="-329.5" font-family="Helvetica,sans-Serif" font-size="10.00"> 2017/Projects/Jeu_de_Go</text>
<text text-anchor="start" x="197" y="-318.5" font-family="Helvetica,sans-Serif" font-size="10.00">/Jeu_de_Go/Sources/Graphics</text>
<text text-anchor="middle" x="263.5" y="-307.5" font-family="Helvetica,sans-Serif" font-size="10.00">/Game/Game_window.h</text>
</a>
</g>
</g>
<!-- Node22&#45;&gt;Node24 -->
<g id="edge2" class="edge"><title>Node22&#45;&gt;Node24</title>
<path fill="none" stroke="midnightblue" d="M205.965,-392.798C215.133,-383.269 225.11,-372.9 234.142,-363.512"/>
<polygon fill="midnightblue" stroke="midnightblue" points="203.231,-390.591 198.82,-400.224 208.275,-395.445 203.231,-390.591"/>
</g>
<!-- Node25 -->
<g id="node4" class="node"><title>Node25</title>
<g id="a_node4"><a xlink:href="_game__window_8cpp.html" target="_top" xlink:title="D:/Users/Victor/OneDrive\l/Documents/Visual Studio\l 2017/Projects/Jeu_de_Go\l/Jeu_de_Go/Sources/Graphics\l/Game/Game_window.cpp">
<polygon fill="none" stroke="black" points="105,-200.5 105,-263.5 254,-263.5 254,-200.5 105,-200.5"/>
<text text-anchor="start" x="113" y="-251.5" font-family="Helvetica,sans-Serif" font-size="10.00">D:/Users/Victor/OneDrive</text>
<text text-anchor="start" x="113" y="-240.5" font-family="Helvetica,sans-Serif" font-size="10.00">/Documents/Visual Studio</text>
<text text-anchor="start" x="113" y="-229.5" font-family="Helvetica,sans-Serif" font-size="10.00"> 2017/Projects/Jeu_de_Go</text>
<text text-anchor="start" x="113" y="-218.5" font-family="Helvetica,sans-Serif" font-size="10.00">/Jeu_de_Go/Sources/Graphics</text>
<text text-anchor="middle" x="179.5" y="-207.5" font-family="Helvetica,sans-Serif" font-size="10.00">/Game/Game_window.cpp</text>
</a>
</g>
</g>
<!-- Node24&#45;&gt;Node25 -->
<g id="edge3" class="edge"><title>Node24&#45;&gt;Node25</title>
<path fill="none" stroke="midnightblue" d="M230.415,-292.401C222.228,-282.849 213.566,-272.744 205.754,-263.63"/>
<polygon fill="midnightblue" stroke="midnightblue" points="227.987,-294.946 237.152,-300.261 233.302,-290.391 227.987,-294.946"/>
</g>
<!-- Node26 -->
<g id="node5" class="node"><title>Node26</title>
<g id="a_node5"><a xlink:href="_screens_8h.html" target="_top" xlink:title="D:/Users/Victor/OneDrive\l/Documents/Visual Studio\l 2017/Projects/Jeu_de_Go\l/Jeu_de_Go/Sources/Graphics\l/Screens.h">
<polygon fill="none" stroke="black" points="272,-200.5 272,-263.5 421,-263.5 421,-200.5 272,-200.5"/>
<text text-anchor="start" x="280" y="-251.5" font-family="Helvetica,sans-Serif" font-size="10.00">D:/Users/Victor/OneDrive</text>
<text text-anchor="start" x="280" y="-240.5" font-family="Helvetica,sans-Serif" font-size="10.00">/Documents/Visual Studio</text>
<text text-anchor="start" x="280" y="-229.5" font-family="Helvetica,sans-Serif" font-size="10.00"> 2017/Projects/Jeu_de_Go</text>
<text text-anchor="start" x="280" y="-218.5" font-family="Helvetica,sans-Serif" font-size="10.00">/Jeu_de_Go/Sources/Graphics</text>
<text text-anchor="middle" x="346.5" y="-207.5" font-family="Helvetica,sans-Serif" font-size="10.00">/Screens.h</text>
</a>
</g>
</g>
<!-- Node24&#45;&gt;Node26 -->
<g id="edge4" class="edge"><title>Node24&#45;&gt;Node26</title>
<path fill="none" stroke="midnightblue" d="M296.191,-292.401C304.281,-282.849 312.84,-272.744 320.558,-263.63"/>
<polygon fill="midnightblue" stroke="midnightblue" points="293.326,-290.368 289.534,-300.261 298.668,-294.892 293.326,-290.368"/>
</g>
<!-- Node27 -->
<g id="node6" class="node"><title>Node27</title>
<g id="a_node6"><a xlink:href="_go___solver_8h.html" target="_top" xlink:title="D:/Users/Victor/OneDrive\l/Documents/Visual Studio\l 2017/Projects/Jeu_de_Go\l/Jeu_de_Go/Sources/Graphics\l/Go_Solver.h">
<polygon fill="none" stroke="black" points="272,-100.5 272,-163.5 421,-163.5 421,-100.5 272,-100.5"/>
<text text-anchor="start" x="280" y="-151.5" font-family="Helvetica,sans-Serif" font-size="10.00">D:/Users/Victor/OneDrive</text>
<text text-anchor="start" x="280" y="-140.5" font-family="Helvetica,sans-Serif" font-size="10.00">/Documents/Visual Studio</text>
<text text-anchor="start" x="280" y="-129.5" font-family="Helvetica,sans-Serif" font-size="10.00"> 2017/Projects/Jeu_de_Go</text>
<text text-anchor="start" x="280" y="-118.5" font-family="Helvetica,sans-Serif" font-size="10.00">/Jeu_de_Go/Sources/Graphics</text>
<text text-anchor="middle" x="346.5" y="-107.5" font-family="Helvetica,sans-Serif" font-size="10.00">/Go_Solver.h</text>
</a>
</g>
</g>
<!-- Node26&#45;&gt;Node27 -->
<g id="edge5" class="edge"><title>Node26&#45;&gt;Node27</title>
<path fill="none" stroke="midnightblue" d="M346.5,-190.099C346.5,-181.238 346.5,-172.015 346.5,-163.63"/>
<polygon fill="midnightblue" stroke="midnightblue" points="343,-190.261 346.5,-200.261 350,-190.261 343,-190.261"/>
</g>
<!-- Node28 -->
<g id="node7" class="node"><title>Node28</title>
<g id="a_node7"><a xlink:href="_go___solver_8cpp.html" target="_top" xlink:title="D:/Users/Victor/OneDrive\l/Documents/Visual Studio\l 2017/Projects/Jeu_de_Go\l/Jeu_de_Go/Sources/Graphics\l/Go_Solver.cpp">
<polygon fill="none" stroke="black" points="189,-0.5 189,-63.5 338,-63.5 338,-0.5 189,-0.5"/>
<text text-anchor="start" x="197" y="-51.5" font-family="Helvetica,sans-Serif" font-size="10.00">D:/Users/Victor/OneDrive</text>
<text text-anchor="start" x="197" y="-40.5" font-family="Helvetica,sans-Serif" font-size="10.00">/Documents/Visual Studio</text>
<text text-anchor="start" x="197" y="-29.5" font-family="Helvetica,sans-Serif" font-size="10.00"> 2017/Projects/Jeu_de_Go</text>
<text text-anchor="start" x="197" y="-18.5" font-family="Helvetica,sans-Serif" font-size="10.00">/Jeu_de_Go/Sources/Graphics</text>
<text text-anchor="middle" x="263.5" y="-7.5" font-family="Helvetica,sans-Serif" font-size="10.00">/Go_Solver.cpp</text>
</a>
</g>
</g>
<!-- Node27&#45;&gt;Node28 -->
<g id="edge6" class="edge"><title>Node27&#45;&gt;Node28</title>
<path fill="none" stroke="midnightblue" d="M313.809,-92.4011C305.719,-82.8488 297.16,-72.7436 289.442,-63.6299"/>
<polygon fill="midnightblue" stroke="midnightblue" points="311.332,-94.8922 320.466,-100.261 316.674,-90.3681 311.332,-94.8922"/>
</g>
<!-- Node29 -->
<g id="node8" class="node"><title>Node29</title>
<g id="a_node8"><a xlink:href="_main_8cpp.html" target="_top" xlink:title="D:/Users/Victor/OneDrive\l/Documents/Visual Studio\l 2017/Projects/Jeu_de_Go\l/Jeu_de_Go/Sources/Graphics\l/Main.cpp">
<polygon fill="none" stroke="black" points="356,-0.5 356,-63.5 505,-63.5 505,-0.5 356,-0.5"/>
<text text-anchor="start" x="364" y="-51.5" font-family="Helvetica,sans-Serif" font-size="10.00">D:/Users/Victor/OneDrive</text>
<text text-anchor="start" x="364" y="-40.5" font-family="Helvetica,sans-Serif" font-size="10.00">/Documents/Visual Studio</text>
<text text-anchor="start" x="364" y="-29.5" font-family="Helvetica,sans-Serif" font-size="10.00"> 2017/Projects/Jeu_de_Go</text>
<text text-anchor="start" x="364" y="-18.5" font-family="Helvetica,sans-Serif" font-size="10.00">/Jeu_de_Go/Sources/Graphics</text>
<text text-anchor="middle" x="430.5" y="-7.5" font-family="Helvetica,sans-Serif" font-size="10.00">/Main.cpp</text>
</a>
</g>
</g>
<!-- Node27&#45;&gt;Node29 -->
<g id="edge7" class="edge"><title>Node27&#45;&gt;Node29</title>
<path fill="none" stroke="midnightblue" d="M379.585,-92.4011C387.772,-82.8488 396.434,-72.7436 404.246,-63.6299"/>
<polygon fill="midnightblue" stroke="midnightblue" points="376.698,-90.3907 372.848,-100.261 382.013,-94.9463 376.698,-90.3907"/>
</g>
</g>
</svg>
