<?xml version="1.0" encoding="UTF-8" standalone="no"?>
<!DOCTYPE svg PUBLIC "-//W3C//DTD SVG 1.1//EN"
 "http://www.w3.org/Graphics/SVG/1.1/DTD/svg11.dtd">
<!-- Generated by graphviz version 2.38.0 (20140413.2041)
 -->
<!-- Title: D:/Users/Victor/OneDrive/Documents/Visual Studio 2017/Projects/Jeu_de_Go/Jeu_de_Go/Sources/Graphics/Game/Infos.h Pages: 1 -->
<svg width="982pt" height="240pt"
 viewBox="0.00 0.00 982.00 240.00" xmlns="http://www.w3.org/2000/svg" xmlns:xlink="http://www.w3.org/1999/xlink">
<g id="graph0" class="graph" transform="scale(1 1) rotate(0) translate(4 236)">
<title>D:/Users/Victor/OneDrive/Documents/Visual Studio 2017/Projects/Jeu_de_Go/Jeu_de_Go/Sources/Graphics/Game/Infos.h</title>
<!-- Node0 -->
<g id="node1" class="node"><title>Node0</title>
<polygon fill="#bfbfbf" stroke="black" points="434.5,-168.5 434.5,-231.5 583.5,-231.5 583.5,-168.5 434.5,-168.5"/>
<text text-anchor="start" x="442.5" y="-219.5" font-family="Helvetica,sans-Serif" font-size="10.00">D:/Users/Victor/OneDrive</text>
<text text-anchor="start" x="442.5" y="-208.5" font-family="Helvetica,sans-Serif" font-size="10.00">/Documents/Visual Studio</text>
<text text-anchor="start" x="442.5" y="-197.5" font-family="Helvetica,sans-Serif" font-size="10.00"> 2017/Projects/Jeu_de_Go</text>
<text text-anchor="start" x="442.5" y="-186.5" font-family="Helvetica,sans-Serif" font-size="10.00">/Jeu_de_Go/Sources/Graphics</text>
<text text-anchor="middle" x="509" y="-175.5" font-family="Helvetica,sans-Serif" font-size="10.00">/Game/Infos.h</text>
</g>
<!-- Node1 -->
<g id="node2" class="node"><title>Node1</title>
<g id="a_node2"><a xlink:href="_globals_8h.html" target="_top" xlink:title="../Globals.h">
<polygon fill="none" stroke="black" points="523.5,-56.5 523.5,-75.5 590.5,-75.5 590.5,-56.5 523.5,-56.5"/>
<text text-anchor="middle" x="557" y="-63.5" font-family="Helvetica,sans-Serif" font-size="10.00">../Globals.h</text>
</a>
</g>
</g>
<!-- Node0&#45;&gt;Node1 -->
<g id="edge1" class="edge"><title>Node0&#45;&gt;Node1</title>
<path fill="none" stroke="midnightblue" d="M512.941,-168.397C515.807,-151.346 520.527,-129.989 528,-112 532.093,-102.147 538.347,-92.0817 544,-83.976"/>
<polygon fill="midnightblue" stroke="midnightblue" points="546.918,-85.9151 549.981,-75.7726 541.262,-81.7912 546.918,-85.9151"/>
</g>
<!-- Node14 -->
<g id="node15" class="node"><title>Node14</title>
<g id="a_node15"><a xlink:href="_square_8h.html" target="_top" xlink:title="Square.h">
<polygon fill="none" stroke="black" points="425,-112.5 425,-131.5 481,-131.5 481,-112.5 425,-112.5"/>
<text text-anchor="middle" x="453" y="-119.5" font-family="Helvetica,sans-Serif" font-size="10.00">Square.h</text>
</a>
</g>
</g>
<!-- Node0&#45;&gt;Node14 -->
<g id="edge14" class="edge"><title>Node0&#45;&gt;Node14</title>
<path fill="none" stroke="midnightblue" d="M486.223,-168.088C479.107,-158.43 471.524,-148.14 465.402,-139.831"/>
<polygon fill="midnightblue" stroke="midnightblue" points="468.174,-137.693 459.424,-131.718 462.538,-141.845 468.174,-137.693"/>
</g>
<!-- Node16 -->
<g id="node17" class="node"><title>Node16</title>
<g id="a_node17"><a xlink:href="_timer_8h.html" target="_top" xlink:title="Timer.h">
<polygon fill="none" stroke="black" points="537.5,-112.5 537.5,-131.5 586.5,-131.5 586.5,-112.5 537.5,-112.5"/>
<text text-anchor="middle" x="562" y="-119.5" font-family="Helvetica,sans-Serif" font-size="10.00">Timer.h</text>
</a>
</g>
</g>
<!-- Node0&#45;&gt;Node16 -->
<g id="edge18" class="edge"><title>Node0&#45;&gt;Node16</title>
<path fill="none" stroke="midnightblue" d="M530.557,-168.088C537.22,-158.533 544.316,-148.359 550.077,-140.097"/>
<polygon fill="midnightblue" stroke="midnightblue" points="553.071,-141.923 555.92,-131.718 547.329,-137.919 553.071,-141.923"/>
</g>
<!-- Node2 -->
<g id="node3" class="node"><title>Node2</title>
<polygon fill="none" stroke="#bfbfbf" points="72,-0.5 72,-19.5 176,-19.5 176,-0.5 72,-0.5"/>
<text text-anchor="middle" x="124" y="-7.5" font-family="Helvetica,sans-Serif" font-size="10.00">SFML/Graphics.hpp</text>
</g>
<!-- Node1&#45;&gt;Node2 -->
<g id="edge2" class="edge"><title>Node1&#45;&gt;Node2</title>
<path fill="none" stroke="midnightblue" d="M523.364,-61.229C459.724,-54.03 317.085,-37.5881 186.417,-20.1616"/>
<polygon fill="midnightblue" stroke="midnightblue" points="186.607,-16.6558 176.231,-18.7977 185.678,-23.5939 186.607,-16.6558"/>
</g>
<!-- Node3 -->
<g id="node4" class="node"><title>Node3</title>
<polygon fill="none" stroke="#bfbfbf" points="194,-0.5 194,-19.5 292,-19.5 292,-0.5 194,-0.5"/>
<text text-anchor="middle" x="243" y="-7.5" font-family="Helvetica,sans-Serif" font-size="10.00">SFML/System.hpp</text>
</g>
<!-- Node1&#45;&gt;Node3 -->
<g id="edge3" class="edge"><title>Node1&#45;&gt;Node3</title>
<path fill="none" stroke="midnightblue" d="M523.396,-59.2211C470.685,-50.156 367.84,-32.4694 302.431,-21.2205"/>
<polygon fill="midnightblue" stroke="midnightblue" points="302.716,-17.7183 292.267,-19.4728 301.53,-24.6171 302.716,-17.7183"/>
</g>
<!-- Node4 -->
<g id="node5" class="node"><title>Node4</title>
<polygon fill="none" stroke="#bfbfbf" points="310.5,-0.5 310.5,-19.5 409.5,-19.5 409.5,-0.5 310.5,-0.5"/>
<text text-anchor="middle" x="360" y="-7.5" font-family="Helvetica,sans-Serif" font-size="10.00">SFML/Window.hpp</text>
</g>
<!-- Node1&#45;&gt;Node4 -->
<g id="edge4" class="edge"><title>Node1&#45;&gt;Node4</title>
<path fill="none" stroke="midnightblue" d="M525.785,-56.4435C492.067,-47.2011 438.2,-32.4356 401.068,-22.2572"/>
<polygon fill="midnightblue" stroke="midnightblue" points="401.639,-18.7846 391.069,-19.5164 399.788,-25.5356 401.639,-18.7846"/>
</g>
<!-- Node5 -->
<g id="node6" class="node"><title>Node5</title>
<polygon fill="none" stroke="#bfbfbf" points="427.5,-0.5 427.5,-19.5 516.5,-19.5 516.5,-0.5 427.5,-0.5"/>
<text text-anchor="middle" x="472" y="-7.5" font-family="Helvetica,sans-Serif" font-size="10.00">SFML/Audio.hpp</text>
</g>
<!-- Node1&#45;&gt;Node5 -->
<g id="edge5" class="edge"><title>Node1&#45;&gt;Node5</title>
<path fill="none" stroke="midnightblue" d="M543.343,-56.324C530.084,-47.9002 509.732,-34.9709 494.154,-25.0741"/>
<polygon fill="midnightblue" stroke="midnightblue" points="495.94,-22.0626 485.623,-19.6545 492.187,-27.9711 495.94,-22.0626"/>
</g>
<!-- Node6 -->
<g id="node7" class="node"><title>Node6</title>
<polygon fill="none" stroke="#bfbfbf" points="0,-0.5 0,-19.5 54,-19.5 54,-0.5 0,-0.5"/>
<text text-anchor="middle" x="27" y="-7.5" font-family="Helvetica,sans-Serif" font-size="10.00">iostream</text>
</g>
<!-- Node1&#45;&gt;Node6 -->
<g id="edge6" class="edge"><title>Node1&#45;&gt;Node6</title>
<path fill="none" stroke="midnightblue" d="M523.226,-63.7187C444.421,-60.3467 242.204,-49.486 64.1065,-19.9293"/>
<polygon fill="midnightblue" stroke="midnightblue" points="64.4747,-16.4421 54.0323,-18.2329 63.3122,-23.3449 64.4747,-16.4421"/>
</g>
<!-- Node7 -->
<g id="node8" class="node"><title>Node7</title>
<polygon fill="none" stroke="#bfbfbf" points="534.5,-0.5 534.5,-19.5 579.5,-19.5 579.5,-0.5 534.5,-0.5"/>
<text text-anchor="middle" x="557" y="-7.5" font-family="Helvetica,sans-Serif" font-size="10.00">cstdlib</text>
</g>
<!-- Node1&#45;&gt;Node7 -->
<g id="edge7" class="edge"><title>Node1&#45;&gt;Node7</title>
<path fill="none" stroke="midnightblue" d="M557,-56.083C557,-49.0059 557,-38.8611 557,-29.9865"/>
<polygon fill="midnightblue" stroke="midnightblue" points="560.5,-29.751 557,-19.7511 553.5,-29.7511 560.5,-29.751"/>
</g>
<!-- Node8 -->
<g id="node9" class="node"><title>Node8</title>
<polygon fill="none" stroke="#bfbfbf" points="597.5,-0.5 597.5,-19.5 638.5,-19.5 638.5,-0.5 597.5,-0.5"/>
<text text-anchor="middle" x="618" y="-7.5" font-family="Helvetica,sans-Serif" font-size="10.00">string</text>
</g>
<!-- Node1&#45;&gt;Node8 -->
<g id="edge8" class="edge"><title>Node1&#45;&gt;Node8</title>
<path fill="none" stroke="midnightblue" d="M566.801,-56.324C575.818,-48.3414 589.406,-36.3128 600.318,-26.6529"/>
<polygon fill="midnightblue" stroke="midnightblue" points="602.853,-29.083 608.021,-19.8339 598.213,-23.8416 602.853,-29.083"/>
</g>
<!-- Node9 -->
<g id="node10" class="node"><title>Node9</title>
<polygon fill="none" stroke="#bfbfbf" points="656.5,-0.5 656.5,-19.5 705.5,-19.5 705.5,-0.5 656.5,-0.5"/>
<text text-anchor="middle" x="681" y="-7.5" font-family="Helvetica,sans-Serif" font-size="10.00">fstream</text>
</g>
<!-- Node1&#45;&gt;Node9 -->
<g id="edge9" class="edge"><title>Node1&#45;&gt;Node9</title>
<path fill="none" stroke="midnightblue" d="M576.648,-56.4435C596.965,-47.5961 628.903,-33.6875 652.098,-23.5865"/>
<polygon fill="midnightblue" stroke="midnightblue" points="653.673,-26.7181 661.444,-19.5164 650.878,-20.3002 653.673,-26.7181"/>
</g>
<!-- Node10 -->
<g id="node11" class="node"><title>Node10</title>
<polygon fill="none" stroke="#bfbfbf" points="723.5,-0.5 723.5,-19.5 772.5,-19.5 772.5,-0.5 723.5,-0.5"/>
<text text-anchor="middle" x="748" y="-7.5" font-family="Helvetica,sans-Serif" font-size="10.00">cassert</text>
</g>
<!-- Node1&#45;&gt;Node10 -->
<g id="edge10" class="edge"><title>Node1&#45;&gt;Node10</title>
<path fill="none" stroke="midnightblue" d="M587.265,-56.4435C621.539,-46.7534 677.287,-30.9921 713.296,-20.8115"/>
<polygon fill="midnightblue" stroke="midnightblue" points="714.673,-24.0596 723.343,-17.971 712.768,-17.3236 714.673,-24.0596"/>
</g>
<!-- Node11 -->
<g id="node12" class="node"><title>Node11</title>
<polygon fill="none" stroke="#bfbfbf" points="790.5,-0.5 790.5,-19.5 849.5,-19.5 849.5,-0.5 790.5,-0.5"/>
<text text-anchor="middle" x="820" y="-7.5" font-family="Helvetica,sans-Serif" font-size="10.00">stdexcept</text>
</g>
<!-- Node1&#45;&gt;Node11 -->
<g id="edge11" class="edge"><title>Node1&#45;&gt;Node11</title>
<path fill="none" stroke="midnightblue" d="M590.622,-58.6581C632.78,-50.6223 707.505,-36.1033 780.354,-20.3086"/>
<polygon fill="midnightblue" stroke="midnightblue" points="781.126,-23.7226 790.152,-18.1739 779.636,-16.883 781.126,-23.7226"/>
</g>
<!-- Node12 -->
<g id="node13" class="node"><title>Node12</title>
<polygon fill="none" stroke="#bfbfbf" points="868,-0.5 868,-19.5 912,-19.5 912,-0.5 868,-0.5"/>
<text text-anchor="middle" x="890" y="-7.5" font-family="Helvetica,sans-Serif" font-size="10.00">thread</text>
</g>
<!-- Node1&#45;&gt;Node12 -->
<g id="edge12" class="edge"><title>Node1&#45;&gt;Node12</title>
<path fill="none" stroke="midnightblue" d="M590.786,-61.4698C645.146,-55.4652 755.5,-41.9388 857.862,-20.0005"/>
<polygon fill="midnightblue" stroke="midnightblue" points="858.714,-23.3972 867.741,-17.8511 857.226,-16.5572 858.714,-23.3972"/>
</g>
<!-- Node13 -->
<g id="node14" class="node"><title>Node13</title>
<polygon fill="none" stroke="#bfbfbf" points="930,-0.5 930,-19.5 974,-19.5 974,-0.5 930,-0.5"/>
<text text-anchor="middle" x="952" y="-7.5" font-family="Helvetica,sans-Serif" font-size="10.00">cmath</text>
</g>
<!-- Node1&#45;&gt;Node13 -->
<g id="edge13" class="edge"><title>Node1&#45;&gt;Node13</title>
<path fill="none" stroke="midnightblue" d="M590.664,-62.6431C653.602,-57.8496 793.442,-45.373 919.901,-19.9335"/>
<polygon fill="midnightblue" stroke="midnightblue" points="920.659,-23.351 929.755,-17.9188 919.257,-16.4928 920.659,-23.351"/>
</g>
<!-- Node14&#45;&gt;Node1 -->
<g id="edge15" class="edge"><title>Node14&#45;&gt;Node1</title>
<path fill="none" stroke="midnightblue" d="M469.709,-112.324C486.312,-103.703 512.002,-90.3643 531.22,-80.3855"/>
<polygon fill="midnightblue" stroke="midnightblue" points="533.07,-83.3689 540.332,-75.6545 529.844,-77.1565 533.07,-83.3689"/>
</g>
<!-- Node15 -->
<g id="node16" class="node"><title>Node15</title>
<g id="a_node16"><a xlink:href="_etat_8h.html" target="_top" xlink:title="../../Engine/Etat.h">
<polygon fill="none" stroke="black" points="193,-56.5 193,-75.5 287,-75.5 287,-56.5 193,-56.5"/>
<text text-anchor="middle" x="240" y="-63.5" font-family="Helvetica,sans-Serif" font-size="10.00">../../Engine/Etat.h</text>
</a>
</g>
</g>
<!-- Node14&#45;&gt;Node15 -->
<g id="edge16" class="edge"><title>Node14&#45;&gt;Node15</title>
<path fill="none" stroke="midnightblue" d="M424.715,-113.829C388.571,-104.666 325.64,-88.7116 283.408,-78.0048"/>
<polygon fill="midnightblue" stroke="midnightblue" points="284.228,-74.602 273.674,-75.5371 282.507,-81.3873 284.228,-74.602"/>
</g>
<!-- Node15&#45;&gt;Node6 -->
<g id="edge17" class="edge"><title>Node15&#45;&gt;Node6</title>
<path fill="none" stroke="midnightblue" d="M206.25,-56.4435C167.509,-46.6221 104.168,-30.5637 64.0804,-20.4007"/>
<polygon fill="midnightblue" stroke="midnightblue" points="64.7253,-16.9535 54.1718,-17.8886 63.005,-23.7388 64.7253,-16.9535"/>
</g>
<!-- Node16&#45;&gt;Node1 -->
<g id="edge19" class="edge"><title>Node16&#45;&gt;Node1</title>
<path fill="none" stroke="midnightblue" d="M561.174,-112.083C560.519,-105.006 559.58,-94.8611 558.758,-85.9865"/>
<polygon fill="midnightblue" stroke="midnightblue" points="562.217,-85.3858 557.81,-75.7511 555.247,-86.0312 562.217,-85.3858"/>
</g>
</g>
</svg>
