<?xml version="1.0" encoding="UTF-8" standalone="no"?>
<!DOCTYPE svg PUBLIC "-//W3C//DTD SVG 1.1//EN"
 "http://www.w3.org/Graphics/SVG/1.1/DTD/svg11.dtd">
<!-- Generated by graphviz version 2.38.0 (20140413.2041)
 -->
<!-- Title: test Pages: 1 -->
<svg width="292pt" height="121pt"
 viewBox="0.00 0.00 292.00 120.93" xmlns="http://www.w3.org/2000/svg" xmlns:xlink="http://www.w3.org/1999/xlink">
<g id="graph0" class="graph" transform="scale(1 1) rotate(0) translate(4 116.925)">
<title>test</title>
<!-- Node13 -->
<g id="node1" class="node"><title>Node13</title>
<polygon fill="#bfbfbf" stroke="black" points="0,-57.5 0,-76.5 33,-76.5 33,-57.5 0,-57.5"/>
<text text-anchor="middle" x="16.5" y="-64.5" font-family="Helvetica,sans-Serif" font-size="10.00">test</text>
</g>
<!-- Node14 -->
<g id="node2" class="node"><title>Node14</title>
<g id="a_node2"><a xlink:href="class_goban.html#a29aaf8df380fe614845d48cba057747c" target="_top" xlink:title="Goban::coord">
<polygon fill="none" stroke="black" points="209,-76.5 209,-95.5 284,-95.5 284,-76.5 209,-76.5"/>
<text text-anchor="middle" x="246.5" y="-83.5" font-family="Helvetica,sans-Serif" font-size="10.00">Goban::coord</text>
</a>
</g>
</g>
<!-- Node13&#45;&gt;Node14 -->
<g id="edge1" class="edge"><title>Node13&#45;&gt;Node14</title>
<path fill="none" stroke="midnightblue" d="M26.6704,-76.6795C36.2169,-85.9892 52.1122,-99.4439 69,-105 115.83,-120.407 173.048,-109.142 209.389,-98.5209"/>
<polygon fill="midnightblue" stroke="midnightblue" points="210.519,-101.835 219.059,-95.5651 208.473,-95.1411 210.519,-101.835"/>
</g>
<!-- Node15 -->
<g id="node3" class="node"><title>Node15</title>
<g id="a_node3"><a xlink:href="class_etat.html#aa88987ca54aee676717f05e4570c0aec" target="_top" xlink:title="Etat::setVal">
<polygon fill="none" stroke="black" points="87,-0.5 87,-19.5 155,-19.5 155,-0.5 87,-0.5"/>
<text text-anchor="middle" x="121" y="-7.5" font-family="Helvetica,sans-Serif" font-size="10.00">Etat::setVal</text>
</a>
</g>
</g>
<!-- Node13&#45;&gt;Node15 -->
<g id="edge2" class="edge"><title>Node13&#45;&gt;Node15</title>
<path fill="none" stroke="midnightblue" d="M28.7388,-57.2619C38.7763,-48.9291 54.1471,-37.0402 69,-29 72.6925,-27.0012 76.6397,-25.1238 80.6421,-23.3859"/>
<polygon fill="midnightblue" stroke="midnightblue" points="82.0376,-26.5969 89.9868,-19.5925 79.4047,-20.1109 82.0376,-26.5969"/>
</g>
<!-- Node16 -->
<g id="node4" class="node"><title>Node16</title>
<g id="a_node4"><a xlink:href="class_goban.html#a8ad67a618a510bb378d00281228b1b13" target="_top" xlink:title="Goban::compress">
<polygon fill="none" stroke="black" points="74,-76.5 74,-95.5 168,-95.5 168,-76.5 74,-76.5"/>
<text text-anchor="middle" x="121" y="-83.5" font-family="Helvetica,sans-Serif" font-size="10.00">Goban::compress</text>
</a>
</g>
</g>
<!-- Node13&#45;&gt;Node16 -->
<g id="edge3" class="edge"><title>Node13&#45;&gt;Node16</title>
<path fill="none" stroke="midnightblue" d="M33.0675,-69.8857C41.4708,-71.4434 52.4148,-73.472 63.6888,-75.5618"/>
<polygon fill="midnightblue" stroke="midnightblue" points="63.1551,-79.0224 73.6255,-77.4038 64.431,-72.1397 63.1551,-79.0224"/>
</g>
<!-- Node18 -->
<g id="node6" class="node"><title>Node18</title>
<g id="a_node6"><a xlink:href="class_goban.html#aa23b735d8d72bb0fe189005e968e9329" target="_top" xlink:title="Goban::uncompress">
<polygon fill="none" stroke="black" points="69,-38.5 69,-57.5 173,-57.5 173,-38.5 69,-38.5"/>
<text text-anchor="middle" x="121" y="-45.5" font-family="Helvetica,sans-Serif" font-size="10.00">Goban::uncompress</text>
</a>
</g>
</g>
<!-- Node13&#45;&gt;Node18 -->
<g id="edge6" class="edge"><title>Node13&#45;&gt;Node18</title>
<path fill="none" stroke="midnightblue" d="M33.0675,-64.1143C40.2168,-62.7891 49.2052,-61.1229 58.6711,-59.3683"/>
<polygon fill="midnightblue" stroke="midnightblue" points="59.4569,-62.7823 68.6515,-57.5183 58.181,-55.8996 59.4569,-62.7823"/>
</g>
<!-- Node16&#45;&gt;Node14 -->
<g id="edge4" class="edge"><title>Node16&#45;&gt;Node14</title>
<path fill="none" stroke="midnightblue" d="M168.338,-86C178.295,-86 188.822,-86 198.793,-86"/>
<polygon fill="midnightblue" stroke="midnightblue" points="198.934,-89.5001 208.934,-86 198.934,-82.5001 198.934,-89.5001"/>
</g>
<!-- Node17 -->
<g id="node5" class="node"><title>Node17</title>
<g id="a_node5"><a xlink:href="class_etat.html#ac0b81bbcf64cb3cc574e5a9dcdf94382" target="_top" xlink:title="Etat::getVal">
<polygon fill="none" stroke="black" points="212.5,-38.5 212.5,-57.5 280.5,-57.5 280.5,-38.5 212.5,-38.5"/>
<text text-anchor="middle" x="246.5" y="-45.5" font-family="Helvetica,sans-Serif" font-size="10.00">Etat::getVal</text>
</a>
</g>
</g>
<!-- Node16&#45;&gt;Node17 -->
<g id="edge5" class="edge"><title>Node16&#45;&gt;Node17</title>
<path fill="none" stroke="midnightblue" d="M153.164,-76.411C168.814,-71.5956 187.971,-65.7012 204.771,-60.532"/>
<polygon fill="midnightblue" stroke="midnightblue" points="205.817,-63.8721 214.346,-57.5859 203.759,-57.1816 205.817,-63.8721"/>
</g>
<!-- Node18&#45;&gt;Node14 -->
<g id="edge7" class="edge"><title>Node18&#45;&gt;Node14</title>
<path fill="none" stroke="midnightblue" d="M153.164,-57.589C168.814,-62.4044 187.971,-68.2988 204.771,-73.468"/>
<polygon fill="midnightblue" stroke="midnightblue" points="203.759,-76.8184 214.346,-76.4141 205.817,-70.1279 203.759,-76.8184"/>
</g>
<!-- Node18&#45;&gt;Node17 -->
<g id="edge8" class="edge"><title>Node18&#45;&gt;Node17</title>
<path fill="none" stroke="midnightblue" d="M173.302,-48C182.836,-48 192.712,-48 201.986,-48"/>
<polygon fill="midnightblue" stroke="midnightblue" points="202.149,-51.5001 212.149,-48 202.149,-44.5001 202.149,-51.5001"/>
</g>
</g>
</svg>
