<?xml version="1.0" encoding="UTF-8" standalone="no"?>
<!DOCTYPE svg PUBLIC "-//W3C//DTD SVG 1.1//EN"
 "http://www.w3.org/Graphics/SVG/1.1/DTD/svg11.dtd">
<!-- Generated by graphviz version 2.38.0 (20140413.2041)
 -->
<!-- Title: D:/Users/Victor/OneDrive/Documents/Visual Studio 2017/Projects/Jeu_de_Go/Jeu_de_Go/Sources/Graphics/Main.cpp Pages: 1 -->
<svg width="1363pt" height="576pt"
 viewBox="0.00 0.00 1362.81 576.00" xmlns="http://www.w3.org/2000/svg" xmlns:xlink="http://www.w3.org/1999/xlink">
<g id="graph0" class="graph" transform="scale(1 1) rotate(0) translate(4 572)">
<title>D:/Users/Victor/OneDrive/Documents/Visual Studio 2017/Projects/Jeu_de_Go/Jeu_de_Go/Sources/Graphics/Main.cpp</title>
<!-- Node0 -->
<g id="node1" class="node"><title>Node0</title>
<polygon fill="#bfbfbf" stroke="black" points="0,-504.5 0,-567.5 149,-567.5 149,-504.5 0,-504.5"/>
<text text-anchor="start" x="8" y="-555.5" font-family="Helvetica,sans-Serif" font-size="10.00">D:/Users/Victor/OneDrive</text>
<text text-anchor="start" x="8" y="-544.5" font-family="Helvetica,sans-Serif" font-size="10.00">/Documents/Visual Studio</text>
<text text-anchor="start" x="8" y="-533.5" font-family="Helvetica,sans-Serif" font-size="10.00"> 2017/Projects/Jeu_de_Go</text>
<text text-anchor="start" x="8" y="-522.5" font-family="Helvetica,sans-Serif" font-size="10.00">/Jeu_de_Go/Sources/Graphics</text>
<text text-anchor="middle" x="74.5" y="-511.5" font-family="Helvetica,sans-Serif" font-size="10.00">/Main.cpp</text>
</g>
<!-- Node1 -->
<g id="node2" class="node"><title>Node1</title>
<g id="a_node2"><a xlink:href="_globals_8h.html" target="_top" xlink:title="Globals.h">
<polygon fill="none" stroke="black" points="482.5,-56.5 482.5,-75.5 540.5,-75.5 540.5,-56.5 482.5,-56.5"/>
<text text-anchor="middle" x="511.5" y="-63.5" font-family="Helvetica,sans-Serif" font-size="10.00">Globals.h</text>
</a>
</g>
</g>
<!-- Node0&#45;&gt;Node1 -->
<g id="edge1" class="edge"><title>Node0&#45;&gt;Node1</title>
<path fill="none" stroke="midnightblue" d="M54.0849,-504.432C38.7931,-478.556 20.5,-439.893 20.5,-403 20.5,-403 20.5,-403 20.5,-177 20.5,-133.558 53.7871,-129.609 93.5,-112 127.701,-96.8348 375.238,-77.0966 472.454,-69.8378"/>
<polygon fill="midnightblue" stroke="midnightblue" points="472.751,-73.3255 482.465,-69.0949 472.233,-66.3447 472.751,-73.3255"/>
</g>
<!-- Node14 -->
<g id="node15" class="node"><title>Node14</title>
<g id="a_node15"><a xlink:href="_go___solver_8h.html" target="_top" xlink:title="Go_Solver.h">
<polygon fill="none" stroke="black" points="95,-448.5 95,-467.5 164,-467.5 164,-448.5 95,-448.5"/>
<text text-anchor="middle" x="129.5" y="-455.5" font-family="Helvetica,sans-Serif" font-size="10.00">Go_Solver.h</text>
</a>
</g>
</g>
<!-- Node0&#45;&gt;Node14 -->
<g id="edge14" class="edge"><title>Node0&#45;&gt;Node14</title>
<path fill="none" stroke="midnightblue" d="M96.8706,-504.088C103.86,-494.43 111.307,-484.14 117.319,-475.831"/>
<polygon fill="midnightblue" stroke="midnightblue" points="120.163,-477.871 123.191,-467.718 114.493,-473.767 120.163,-477.871"/>
</g>
<!-- Node2 -->
<g id="node3" class="node"><title>Node2</title>
<polygon fill="none" stroke="#bfbfbf" points="93.5,-0.5 93.5,-19.5 197.5,-19.5 197.5,-0.5 93.5,-0.5"/>
<text text-anchor="middle" x="145.5" y="-7.5" font-family="Helvetica,sans-Serif" font-size="10.00">SFML/Graphics.hpp</text>
</g>
<!-- Node1&#45;&gt;Node2 -->
<g id="edge2" class="edge"><title>Node1&#45;&gt;Node2</title>
<path fill="none" stroke="midnightblue" d="M482.475,-60.7176C423.293,-51.9859 287.536,-31.9561 207.565,-20.1572"/>
<polygon fill="midnightblue" stroke="midnightblue" points="208.025,-16.6871 197.621,-18.6899 207.003,-23.6122 208.025,-16.6871"/>
</g>
<!-- Node3 -->
<g id="node4" class="node"><title>Node3</title>
<polygon fill="none" stroke="#bfbfbf" points="345.5,-0.5 345.5,-19.5 443.5,-19.5 443.5,-0.5 345.5,-0.5"/>
<text text-anchor="middle" x="394.5" y="-7.5" font-family="Helvetica,sans-Serif" font-size="10.00">SFML/System.hpp</text>
</g>
<!-- Node1&#45;&gt;Node3 -->
<g id="edge3" class="edge"><title>Node1&#45;&gt;Node3</title>
<path fill="none" stroke="midnightblue" d="M492.961,-56.4435C473.877,-47.6356 443.925,-33.8116 422.064,-23.722"/>
<polygon fill="midnightblue" stroke="midnightblue" points="423.499,-20.5292 412.952,-19.5164 420.565,-26.8849 423.499,-20.5292"/>
</g>
<!-- Node4 -->
<g id="node5" class="node"><title>Node4</title>
<polygon fill="none" stroke="#bfbfbf" points="462,-0.5 462,-19.5 561,-19.5 561,-0.5 462,-0.5"/>
<text text-anchor="middle" x="511.5" y="-7.5" font-family="Helvetica,sans-Serif" font-size="10.00">SFML/Window.hpp</text>
</g>
<!-- Node1&#45;&gt;Node4 -->
<g id="edge4" class="edge"><title>Node1&#45;&gt;Node4</title>
<path fill="none" stroke="midnightblue" d="M511.5,-56.083C511.5,-49.0059 511.5,-38.8611 511.5,-29.9865"/>
<polygon fill="midnightblue" stroke="midnightblue" points="515,-29.751 511.5,-19.7511 508,-29.7511 515,-29.751"/>
</g>
<!-- Node5 -->
<g id="node6" class="node"><title>Node5</title>
<polygon fill="none" stroke="#bfbfbf" points="579,-0.5 579,-19.5 668,-19.5 668,-0.5 579,-0.5"/>
<text text-anchor="middle" x="623.5" y="-7.5" font-family="Helvetica,sans-Serif" font-size="10.00">SFML/Audio.hpp</text>
</g>
<!-- Node1&#45;&gt;Node5 -->
<g id="edge5" class="edge"><title>Node1&#45;&gt;Node5</title>
<path fill="none" stroke="midnightblue" d="M529.495,-56.324C547.538,-47.6247 575.547,-34.1202 596.303,-24.113"/>
<polygon fill="midnightblue" stroke="midnightblue" points="598.062,-27.1502 605.55,-19.6545 595.022,-20.8449 598.062,-27.1502"/>
</g>
<!-- Node6 -->
<g id="node7" class="node"><title>Node6</title>
<polygon fill="none" stroke="#bfbfbf" points="948.5,-0.5 948.5,-19.5 1002.5,-19.5 1002.5,-0.5 948.5,-0.5"/>
<text text-anchor="middle" x="975.5" y="-7.5" font-family="Helvetica,sans-Serif" font-size="10.00">iostream</text>
</g>
<!-- Node1&#45;&gt;Node6 -->
<g id="edge6" class="edge"><title>Node1&#45;&gt;Node6</title>
<path fill="none" stroke="midnightblue" d="M540.733,-62.4331C621.009,-55.3054 844.516,-34.9126 938.139,-19.7744"/>
<polygon fill="midnightblue" stroke="midnightblue" points="938.827,-23.2079 948.107,-18.095 937.664,-16.3052 938.827,-23.2079"/>
</g>
<!-- Node7 -->
<g id="node8" class="node"><title>Node7</title>
<polygon fill="none" stroke="#bfbfbf" points="686,-0.5 686,-19.5 731,-19.5 731,-0.5 686,-0.5"/>
<text text-anchor="middle" x="708.5" y="-7.5" font-family="Helvetica,sans-Serif" font-size="10.00">cstdlib</text>
</g>
<!-- Node1&#45;&gt;Node7 -->
<g id="edge7" class="edge"><title>Node1&#45;&gt;Node7</title>
<path fill="none" stroke="midnightblue" d="M540.728,-57.1036C571.79,-48.6954 622.598,-34.8956 675.819,-20.1725"/>
<polygon fill="midnightblue" stroke="midnightblue" points="677.078,-23.4559 685.781,-17.4138 675.209,-16.7098 677.078,-23.4559"/>
</g>
<!-- Node8 -->
<g id="node9" class="node"><title>Node8</title>
<polygon fill="none" stroke="#bfbfbf" points="889,-0.5 889,-19.5 930,-19.5 930,-0.5 889,-0.5"/>
<text text-anchor="middle" x="909.5" y="-7.5" font-family="Helvetica,sans-Serif" font-size="10.00">string</text>
</g>
<!-- Node1&#45;&gt;Node8 -->
<g id="edge8" class="edge"><title>Node1&#45;&gt;Node8</title>
<path fill="none" stroke="midnightblue" d="M540.756,-60.1428C549.654,-58.7297 559.467,-57.2354 568.5,-56 703.131,-37.5872 741.439,-47.6034 878.894,-19.752"/>
<polygon fill="midnightblue" stroke="midnightblue" points="879.876,-23.1236 888.965,-17.6804 878.465,-16.2671 879.876,-23.1236"/>
</g>
<!-- Node9 -->
<g id="node10" class="node"><title>Node9</title>
<polygon fill="none" stroke="#bfbfbf" points="1174,-0.5 1174,-19.5 1223,-19.5 1223,-0.5 1174,-0.5"/>
<text text-anchor="middle" x="1198.5" y="-7.5" font-family="Helvetica,sans-Serif" font-size="10.00">fstream</text>
</g>
<!-- Node1&#45;&gt;Node9 -->
<g id="edge9" class="edge"><title>Node1&#45;&gt;Node9</title>
<path fill="none" stroke="midnightblue" d="M540.581,-62.7142C651.024,-54.033 1044.26,-23.124 1163.79,-13.7287"/>
<polygon fill="midnightblue" stroke="midnightblue" points="1164.15,-17.2109 1173.84,-12.938 1163.6,-10.2324 1164.15,-17.2109"/>
</g>
<!-- Node10 -->
<g id="node11" class="node"><title>Node10</title>
<polygon fill="none" stroke="#bfbfbf" points="216,-0.5 216,-19.5 265,-19.5 265,-0.5 216,-0.5"/>
<text text-anchor="middle" x="240.5" y="-7.5" font-family="Helvetica,sans-Serif" font-size="10.00">cassert</text>
</g>
<!-- Node1&#45;&gt;Node10 -->
<g id="edge10" class="edge"><title>Node1&#45;&gt;Node10</title>
<path fill="none" stroke="midnightblue" d="M482.173,-60.123C439.015,-52.7967 355.675,-38.0811 275.137,-20.0113"/>
<polygon fill="midnightblue" stroke="midnightblue" points="275.858,-16.5861 265.332,-17.7913 274.312,-23.4133 275.858,-16.5861"/>
</g>
<!-- Node11 -->
<g id="node12" class="node"><title>Node11</title>
<polygon fill="none" stroke="#bfbfbf" points="812,-0.5 812,-19.5 871,-19.5 871,-0.5 812,-0.5"/>
<text text-anchor="middle" x="841.5" y="-7.5" font-family="Helvetica,sans-Serif" font-size="10.00">stdexcept</text>
</g>
<!-- Node1&#45;&gt;Node11 -->
<g id="edge11" class="edge"><title>Node1&#45;&gt;Node11</title>
<path fill="none" stroke="midnightblue" d="M540.787,-60.353C549.686,-58.9472 559.492,-57.4041 568.5,-56 669.321,-40.2851 697.477,-39.8558 801.745,-20.0228"/>
<polygon fill="midnightblue" stroke="midnightblue" points="802.575,-23.4275 811.738,-18.1075 801.258,-16.5526 802.575,-23.4275"/>
</g>
<!-- Node12 -->
<g id="node13" class="node"><title>Node12</title>
<polygon fill="none" stroke="#bfbfbf" points="283.5,-0.5 283.5,-19.5 327.5,-19.5 327.5,-0.5 283.5,-0.5"/>
<text text-anchor="middle" x="305.5" y="-7.5" font-family="Helvetica,sans-Serif" font-size="10.00">thread</text>
</g>
<!-- Node1&#45;&gt;Node12 -->
<g id="edge12" class="edge"><title>Node1&#45;&gt;Node12</title>
<path fill="none" stroke="midnightblue" d="M482.321,-57.7895C449.425,-49.5967 394.111,-35.6293 337.637,-20.2533"/>
<polygon fill="midnightblue" stroke="midnightblue" points="338.397,-16.8328 327.828,-17.5715 336.551,-23.585 338.397,-16.8328"/>
</g>
<!-- Node13 -->
<g id="node14" class="node"><title>Node13</title>
<polygon fill="none" stroke="#bfbfbf" points="749.5,-0.5 749.5,-19.5 793.5,-19.5 793.5,-0.5 749.5,-0.5"/>
<text text-anchor="middle" x="771.5" y="-7.5" font-family="Helvetica,sans-Serif" font-size="10.00">cmath</text>
</g>
<!-- Node1&#45;&gt;Node13 -->
<g id="edge13" class="edge"><title>Node1&#45;&gt;Node13</title>
<path fill="none" stroke="midnightblue" d="M540.813,-59.9823C582.586,-52.6658 661.821,-38.1754 739.257,-19.8883"/>
<polygon fill="midnightblue" stroke="midnightblue" points="740.265,-23.2462 749.179,-17.5213 738.64,-16.4372 740.265,-23.2462"/>
</g>
<!-- Node14&#45;&gt;Node1 -->
<g id="edge15" class="edge"><title>Node14&#45;&gt;Node1</title>
<path fill="none" stroke="midnightblue" d="M118.717,-448.264C98.8546,-431.113 58.5,-390.869 58.5,-347 58.5,-347 58.5,-347 58.5,-177 58.5,-92.1296 362.559,-72.4903 472.461,-68.1637"/>
<polygon fill="midnightblue" stroke="midnightblue" points="472.611,-71.6607 482.474,-67.7911 472.35,-64.6655 472.611,-71.6607"/>
</g>
<!-- Node15 -->
<g id="node16" class="node"><title>Node15</title>
<g id="a_node16"><a xlink:href="_screens_8h.html" target="_top" xlink:title="Screens.h">
<polygon fill="none" stroke="black" points="139,-392.5 139,-411.5 200,-411.5 200,-392.5 139,-392.5"/>
<text text-anchor="middle" x="169.5" y="-399.5" font-family="Helvetica,sans-Serif" font-size="10.00">Screens.h</text>
</a>
</g>
</g>
<!-- Node14&#45;&gt;Node15 -->
<g id="edge16" class="edge"><title>Node14&#45;&gt;Node15</title>
<path fill="none" stroke="midnightblue" d="M136.105,-448.083C141.755,-440.455 150.045,-429.264 156.951,-419.941"/>
<polygon fill="midnightblue" stroke="midnightblue" points="159.878,-421.87 163.018,-411.751 154.253,-417.703 159.878,-421.87"/>
</g>
<!-- Node38 -->
<g id="node39" class="node"><title>Node38</title>
<g id="a_node39"><a xlink:href="_parser_8h.html" target="_top" xlink:title="../Engine/Parser.h">
<polygon fill="none" stroke="black" points="1105,-224.5 1105,-243.5 1200,-243.5 1200,-224.5 1105,-224.5"/>
<text text-anchor="middle" x="1152.5" y="-231.5" font-family="Helvetica,sans-Serif" font-size="10.00">../Engine/Parser.h</text>
</a>
</g>
</g>
<!-- Node14&#45;&gt;Node38 -->
<g id="edge73" class="edge"><title>Node14&#45;&gt;Node38</title>
<path fill="none" stroke="midnightblue" d="M164.123,-449.486C316.223,-416.479 925.443,-284.273 1103.43,-245.648"/>
<polygon fill="midnightblue" stroke="midnightblue" points="1104.28,-249.047 1113.31,-243.505 1102.79,-242.206 1104.28,-249.047"/>
</g>
<!-- Node16 -->
<g id="node17" class="node"><title>Node16</title>
<g id="a_node17"><a xlink:href="_screen_8h.html" target="_top" xlink:title="Screen.h">
<polygon fill="none" stroke="black" points="172.5,-112.5 172.5,-131.5 228.5,-131.5 228.5,-112.5 172.5,-112.5"/>
<text text-anchor="middle" x="200.5" y="-119.5" font-family="Helvetica,sans-Serif" font-size="10.00">Screen.h</text>
</a>
</g>
</g>
<!-- Node15&#45;&gt;Node16 -->
<g id="edge17" class="edge"><title>Node15&#45;&gt;Node16</title>
<path fill="none" stroke="midnightblue" d="M158.413,-392.33C137.991,-375.293 96.5,-335.236 96.5,-291 96.5,-291 96.5,-291 96.5,-233 96.5,-202.902 96.478,-191.325 115.5,-168 127.674,-153.073 146.136,-142.461 162.748,-135.306"/>
<polygon fill="midnightblue" stroke="midnightblue" points="164.279,-138.463 172.253,-131.487 161.669,-131.968 164.279,-138.463"/>
</g>
<!-- Node17 -->
<g id="node18" class="node"><title>Node17</title>
<g id="a_node18"><a xlink:href="_game__window_8h.html" target="_top" xlink:title="Game/Game_window.h">
<polygon fill="none" stroke="black" points="459,-336.5 459,-355.5 576,-355.5 576,-336.5 459,-336.5"/>
<text text-anchor="middle" x="517.5" y="-343.5" font-family="Helvetica,sans-Serif" font-size="10.00">Game/Game_window.h</text>
</a>
</g>
</g>
<!-- Node15&#45;&gt;Node17 -->
<g id="edge20" class="edge"><title>Node15&#45;&gt;Node17</title>
<path fill="none" stroke="midnightblue" d="M200.078,-396.255C256.233,-387.542 376.925,-368.813 452.244,-357.126"/>
<polygon fill="midnightblue" stroke="midnightblue" points="453.215,-360.517 462.56,-355.525 452.141,-353.6 453.215,-360.517"/>
</g>
<!-- Node31 -->
<g id="node32" class="node"><title>Node31</title>
<g id="a_node32"><a xlink:href="_menu_8h.html" target="_top" xlink:title="Menu.h">
<polygon fill="none" stroke="black" points="125,-168.5 125,-187.5 174,-187.5 174,-168.5 125,-168.5"/>
<text text-anchor="middle" x="149.5" y="-175.5" font-family="Helvetica,sans-Serif" font-size="10.00">Menu.h</text>
</a>
</g>
</g>
<!-- Node15&#45;&gt;Node31 -->
<g id="edge55" class="edge"><title>Node15&#45;&gt;Node31</title>
<path fill="none" stroke="midnightblue" d="M168.716,-392.297C165.773,-359.633 155.344,-243.866 151.208,-197.957"/>
<polygon fill="midnightblue" stroke="midnightblue" points="154.684,-197.529 150.3,-187.884 147.712,-198.157 154.684,-197.529"/>
</g>
<!-- Node34 -->
<g id="node35" class="node"><title>Node34</title>
<g id="a_node35"><a xlink:href="_menu___miniature_8h.html" target="_top" xlink:title="Menu_Miniature.h">
<polygon fill="none" stroke="black" points="272.5,-224.5 272.5,-243.5 366.5,-243.5 366.5,-224.5 272.5,-224.5"/>
<text text-anchor="middle" x="319.5" y="-231.5" font-family="Helvetica,sans-Serif" font-size="10.00">Menu_Miniature.h</text>
</a>
</g>
</g>
<!-- Node15&#45;&gt;Node34 -->
<g id="edge65" class="edge"><title>Node15&#45;&gt;Node34</title>
<path fill="none" stroke="midnightblue" d="M177.565,-392.075C201.687,-365.38 273.538,-285.865 304.751,-251.322"/>
<polygon fill="midnightblue" stroke="midnightblue" points="307.65,-253.334 311.758,-243.568 302.456,-248.641 307.65,-253.334"/>
</g>
<!-- Node36 -->
<g id="node37" class="node"><title>Node36</title>
<g id="a_node37"><a xlink:href="_menu__simple_8h.html" target="_top" xlink:title="Menu_simple.h">
<polygon fill="none" stroke="black" points="171,-224.5 171,-243.5 254,-243.5 254,-224.5 171,-224.5"/>
<text text-anchor="middle" x="212.5" y="-231.5" font-family="Helvetica,sans-Serif" font-size="10.00">Menu_simple.h</text>
</a>
</g>
</g>
<!-- Node15&#45;&gt;Node36 -->
<g id="edge69" class="edge"><title>Node15&#45;&gt;Node36</title>
<path fill="none" stroke="midnightblue" d="M171.812,-392.075C178.58,-365.945 198.457,-289.211 207.688,-253.577"/>
<polygon fill="midnightblue" stroke="midnightblue" points="211.161,-254.126 210.281,-243.568 204.385,-252.371 211.161,-254.126"/>
</g>
<!-- Node16&#45;&gt;Node1 -->
<g id="edge19" class="edge"><title>Node16&#45;&gt;Node1</title>
<path fill="none" stroke="midnightblue" d="M228.931,-114.725C233.463,-113.778 238.105,-112.838 242.5,-112 324.042,-96.4512 420.055,-81.0948 472.478,-72.9592"/>
<polygon fill="midnightblue" stroke="midnightblue" points="473.017,-76.4176 482.364,-71.4305 471.947,-69.4998 473.017,-76.4176"/>
</g>
<!-- Node16&#45;&gt;Node2 -->
<g id="edge18" class="edge"><title>Node16&#45;&gt;Node2</title>
<path fill="none" stroke="midnightblue" d="M196.184,-112.368C187.188,-94.376 166.275,-52.5503 154.313,-28.6267"/>
<polygon fill="midnightblue" stroke="midnightblue" points="157.398,-26.9704 149.796,-19.5914 151.137,-30.101 157.398,-26.9704"/>
</g>
<!-- Node17&#45;&gt;Node1 -->
<g id="edge21" class="edge"><title>Node17&#45;&gt;Node1</title>
<path fill="none" stroke="midnightblue" d="M512.293,-336.498C495.515,-308.542 442.952,-216.417 425.5,-132 423.7,-123.295 420.897,-119.604 425.5,-112 435.882,-94.8502 455.188,-83.9217 472.881,-77.1359"/>
<polygon fill="midnightblue" stroke="midnightblue" points="474.194,-80.3846 482.477,-73.7791 471.882,-73.7772 474.194,-80.3846"/>
</g>
<!-- Node17&#45;&gt;Node16 -->
<g id="edge50" class="edge"><title>Node17&#45;&gt;Node16</title>
<path fill="none" stroke="midnightblue" d="M499.033,-336.429C484.462,-328.787 464.632,-316.292 452.5,-300 415.648,-250.513 455.314,-209.329 409.5,-168 396.884,-156.619 295.395,-138.498 238.62,-129.1"/>
<polygon fill="midnightblue" stroke="midnightblue" points="239.005,-125.616 228.57,-127.45 237.871,-132.524 239.005,-125.616"/>
</g>
<!-- Node18 -->
<g id="node19" class="node"><title>Node18</title>
<g id="a_node19"><a xlink:href="_board_8h.html" target="_top" xlink:title="Board.h">
<polygon fill="none" stroke="black" points="579.5,-280.5 579.5,-299.5 629.5,-299.5 629.5,-280.5 579.5,-280.5"/>
<text text-anchor="middle" x="604.5" y="-287.5" font-family="Helvetica,sans-Serif" font-size="10.00">Board.h</text>
</a>
</g>
</g>
<!-- Node17&#45;&gt;Node18 -->
<g id="edge22" class="edge"><title>Node17&#45;&gt;Node18</title>
<path fill="none" stroke="midnightblue" d="M531.478,-336.324C545.05,-327.9 565.88,-314.971 581.825,-305.074"/>
<polygon fill="midnightblue" stroke="midnightblue" points="583.906,-307.902 590.557,-299.655 580.214,-301.954 583.906,-307.902"/>
</g>
<!-- Node21 -->
<g id="node22" class="node"><title>Node21</title>
<g id="a_node22"><a xlink:href="_goban_8h.html" target="_top" xlink:title="../../Engine/Goban.h">
<polygon fill="none" stroke="black" points="818.5,-168.5 818.5,-187.5 922.5,-187.5 922.5,-168.5 818.5,-168.5"/>
<text text-anchor="middle" x="870.5" y="-175.5" font-family="Helvetica,sans-Serif" font-size="10.00">../../Engine/Goban.h</text>
</a>
</g>
</g>
<!-- Node17&#45;&gt;Node21 -->
<g id="edge51" class="edge"><title>Node17&#45;&gt;Node21</title>
<path fill="none" stroke="midnightblue" d="M576.286,-337.908C622.205,-331.252 687.131,-319.363 741.5,-300 791.693,-282.124 812.671,-284.322 847.5,-244 858.861,-230.848 864.733,-211.707 867.688,-197.6"/>
<polygon fill="midnightblue" stroke="midnightblue" points="871.165,-198.037 869.482,-187.577 864.275,-196.804 871.165,-198.037"/>
</g>
<!-- Node27 -->
<g id="node28" class="node"><title>Node27</title>
<g id="a_node28"><a xlink:href="_infos_8h.html" target="_top" xlink:title="Infos.h">
<polygon fill="none" stroke="black" points="495,-168.5 495,-187.5 540,-187.5 540,-168.5 495,-168.5"/>
<text text-anchor="middle" x="517.5" y="-175.5" font-family="Helvetica,sans-Serif" font-size="10.00">Infos.h</text>
</a>
</g>
</g>
<!-- Node17&#45;&gt;Node27 -->
<g id="edge45" class="edge"><title>Node17&#45;&gt;Node27</title>
<path fill="none" stroke="midnightblue" d="M517.5,-336.075C517.5,-309.945 517.5,-233.211 517.5,-197.577"/>
<polygon fill="midnightblue" stroke="midnightblue" points="521,-197.568 517.5,-187.568 514,-197.568 521,-197.568"/>
</g>
<!-- Node29 -->
<g id="node30" class="node"><title>Node29</title>
<g id="a_node30"><a xlink:href="_i_a_8h.html" target="_top" xlink:title="../../Engine/IA.h">
<polygon fill="none" stroke="black" points="648,-280.5 648,-299.5 733,-299.5 733,-280.5 648,-280.5"/>
<text text-anchor="middle" x="690.5" y="-287.5" font-family="Helvetica,sans-Serif" font-size="10.00">../../Engine/IA.h</text>
</a>
</g>
</g>
<!-- Node17&#45;&gt;Node29 -->
<g id="edge52" class="edge"><title>Node17&#45;&gt;Node29</title>
<path fill="none" stroke="midnightblue" d="M544.912,-336.444C574.269,-327.28 621.019,-312.688 653.596,-302.519"/>
<polygon fill="midnightblue" stroke="midnightblue" points="654.713,-305.837 663.216,-299.516 652.627,-299.155 654.713,-305.837"/>
</g>
<!-- Node18&#45;&gt;Node1 -->
<g id="edge23" class="edge"><title>Node18&#45;&gt;Node1</title>
<path fill="none" stroke="midnightblue" d="M600.854,-280.297C587.112,-247.494 538.262,-130.884 519.199,-85.3774"/>
<polygon fill="midnightblue" stroke="midnightblue" points="522.314,-83.7548 515.222,-75.8837 515.857,-86.4595 522.314,-83.7548"/>
</g>
<!-- Node19 -->
<g id="node20" class="node"><title>Node19</title>
<g id="a_node20"><a xlink:href="_square_8h.html" target="_top" xlink:title="Square.h">
<polygon fill="none" stroke="black" points="578.5,-112.5 578.5,-131.5 634.5,-131.5 634.5,-112.5 578.5,-112.5"/>
<text text-anchor="middle" x="606.5" y="-119.5" font-family="Helvetica,sans-Serif" font-size="10.00">Square.h</text>
</a>
</g>
</g>
<!-- Node18&#45;&gt;Node19 -->
<g id="edge24" class="edge"><title>Node18&#45;&gt;Node19</title>
<path fill="none" stroke="midnightblue" d="M604.608,-280.075C604.922,-253.945 605.847,-177.211 606.276,-141.577"/>
<polygon fill="midnightblue" stroke="midnightblue" points="609.776,-141.61 606.397,-131.568 602.776,-141.525 609.776,-141.61"/>
</g>
<!-- Node18&#45;&gt;Node21 -->
<g id="edge28" class="edge"><title>Node18&#45;&gt;Node21</title>
<path fill="none" stroke="midnightblue" d="M629.732,-282.252C658.114,-274.35 705.361,-260.255 744.5,-244 745.788,-243.465 808.446,-211.087 844.904,-192.237"/>
<polygon fill="midnightblue" stroke="midnightblue" points="846.713,-195.242 853.988,-187.54 843.498,-189.024 846.713,-195.242"/>
</g>
<!-- Node26 -->
<g id="node27" class="node"><title>Node26</title>
<g id="a_node27"><a xlink:href="_arbre_8h.html" target="_top" xlink:title="../../Engine/Arbre.h">
<polygon fill="none" stroke="black" points="637,-224.5 637,-243.5 736,-243.5 736,-224.5 637,-224.5"/>
<text text-anchor="middle" x="686.5" y="-231.5" font-family="Helvetica,sans-Serif" font-size="10.00">../../Engine/Arbre.h</text>
</a>
</g>
</g>
<!-- Node18&#45;&gt;Node26 -->
<g id="edge41" class="edge"><title>Node18&#45;&gt;Node26</title>
<path fill="none" stroke="midnightblue" d="M617.675,-280.324C630.347,-271.979 649.733,-259.212 664.706,-249.352"/>
<polygon fill="midnightblue" stroke="midnightblue" points="666.931,-252.078 673.358,-243.655 663.081,-246.231 666.931,-252.078"/>
</g>
<!-- Node19&#45;&gt;Node1 -->
<g id="edge25" class="edge"><title>Node19&#45;&gt;Node1</title>
<path fill="none" stroke="midnightblue" d="M591.237,-112.324C576.279,-103.822 553.245,-90.7288 535.773,-80.7975"/>
<polygon fill="midnightblue" stroke="midnightblue" points="537.149,-77.5534 526.726,-75.6545 533.69,-83.639 537.149,-77.5534"/>
</g>
<!-- Node20 -->
<g id="node21" class="node"><title>Node20</title>
<g id="a_node21"><a xlink:href="_etat_8h.html" target="_top" xlink:title="../../Engine/Etat.h">
<polygon fill="none" stroke="black" points="910.5,-56.5 910.5,-75.5 1004.5,-75.5 1004.5,-56.5 910.5,-56.5"/>
<text text-anchor="middle" x="957.5" y="-63.5" font-family="Helvetica,sans-Serif" font-size="10.00">../../Engine/Etat.h</text>
</a>
</g>
</g>
<!-- Node19&#45;&gt;Node20 -->
<g id="edge26" class="edge"><title>Node19&#45;&gt;Node20</title>
<path fill="none" stroke="midnightblue" d="M634.63,-116.672C692.157,-107.822 824.237,-87.502 900.445,-75.7777"/>
<polygon fill="midnightblue" stroke="midnightblue" points="901.008,-79.2323 910.36,-74.2523 899.944,-72.3137 901.008,-79.2323"/>
</g>
<!-- Node20&#45;&gt;Node6 -->
<g id="edge27" class="edge"><title>Node20&#45;&gt;Node6</title>
<path fill="none" stroke="midnightblue" d="M960.472,-56.083C962.884,-48.8486 966.364,-38.4087 969.368,-29.3968"/>
<polygon fill="midnightblue" stroke="midnightblue" points="972.741,-30.3447 972.583,-19.7511 966.1,-28.1311 972.741,-30.3447"/>
</g>
<!-- Node21&#45;&gt;Node6 -->
<g id="edge29" class="edge"><title>Node21&#45;&gt;Node6</title>
<path fill="none" stroke="midnightblue" d="M922.672,-174.423C955.257,-170.014 995.61,-158.975 1020.5,-132 1043.69,-106.868 1047.41,-86.7732 1032.5,-56 1026.1,-42.7996 1013.75,-32.3032 1002.17,-24.7794"/>
<polygon fill="midnightblue" stroke="midnightblue" points="1003.95,-21.7678 993.582,-19.6099 1000.34,-27.7653 1003.95,-21.7678"/>
</g>
<!-- Node21&#45;&gt;Node11 -->
<g id="edge40" class="edge"><title>Node21&#45;&gt;Node11</title>
<path fill="none" stroke="midnightblue" d="M922.624,-170.32C948.738,-164.381 978.89,-153.168 998.5,-132 1021.9,-106.743 1034.54,-83.2526 1013.5,-56 1011.43,-53.3214 931.441,-33.1852 881.285,-20.7736"/>
<polygon fill="midnightblue" stroke="midnightblue" points="881.927,-17.3269 871.379,-18.3265 880.248,-24.1226 881.927,-17.3269"/>
</g>
<!-- Node21&#45;&gt;Node13 -->
<g id="edge30" class="edge"><title>Node21&#45;&gt;Node13</title>
<path fill="none" stroke="midnightblue" d="M862.539,-168.469C854.613,-159.725 842.38,-145.529 833.5,-132 810.71,-97.2773 789.957,-53.1217 779.209,-28.9052"/>
<polygon fill="midnightblue" stroke="midnightblue" points="782.335,-27.3181 775.12,-19.5594 775.922,-30.1239 782.335,-27.3181"/>
</g>
<!-- Node21&#45;&gt;Node20 -->
<g id="edge32" class="edge"><title>Node21&#45;&gt;Node20</title>
<path fill="none" stroke="midnightblue" d="M922.556,-169.052C944.59,-162.832 968.198,-151.747 981.5,-132 991.534,-117.105 981.702,-97.476 971.762,-83.7006"/>
<polygon fill="midnightblue" stroke="midnightblue" points="974.343,-81.3191 965.423,-75.6021 968.831,-85.6339 974.343,-81.3191"/>
</g>
<!-- Node22 -->
<g id="node23" class="node"><title>Node22</title>
<polygon fill="none" stroke="#bfbfbf" points="736.5,-56.5 736.5,-75.5 778.5,-75.5 778.5,-56.5 736.5,-56.5"/>
<text text-anchor="middle" x="757.5" y="-63.5" font-family="Helvetica,sans-Serif" font-size="10.00">vector</text>
</g>
<!-- Node21&#45;&gt;Node22 -->
<g id="edge31" class="edge"><title>Node21&#45;&gt;Node22</title>
<path fill="none" stroke="midnightblue" d="M852.967,-168.392C837.877,-160.398 816.129,-147.426 800.5,-132 786.397,-118.08 774.357,-98.8138 766.635,-84.8739"/>
<polygon fill="midnightblue" stroke="midnightblue" points="769.601,-82.996 761.808,-75.8175 763.423,-86.2885 769.601,-82.996"/>
</g>
<!-- Node23 -->
<g id="node24" class="node"><title>Node23</title>
<g id="a_node24"><a xlink:href="_groupe_8h.html" target="_top" xlink:title="Groupe.h">
<polygon fill="none" stroke="black" points="916.5,-112.5 916.5,-131.5 972.5,-131.5 972.5,-112.5 916.5,-112.5"/>
<text text-anchor="middle" x="944.5" y="-119.5" font-family="Helvetica,sans-Serif" font-size="10.00">Groupe.h</text>
</a>
</g>
</g>
<!-- Node21&#45;&gt;Node23 -->
<g id="edge33" class="edge"><title>Node21&#45;&gt;Node23</title>
<path fill="none" stroke="midnightblue" d="M882.389,-168.324C893.65,-160.107 910.787,-147.602 924.209,-137.807"/>
<polygon fill="midnightblue" stroke="midnightblue" points="926.38,-140.556 932.394,-131.834 922.253,-134.901 926.38,-140.556"/>
</g>
<!-- Node24 -->
<g id="node25" class="node"><title>Node24</title>
<g id="a_node25"><a xlink:href="_history_8h.html" target="_top" xlink:title="History.h">
<polygon fill="none" stroke="black" points="842.5,-112.5 842.5,-131.5 898.5,-131.5 898.5,-112.5 842.5,-112.5"/>
<text text-anchor="middle" x="870.5" y="-119.5" font-family="Helvetica,sans-Serif" font-size="10.00">History.h</text>
</a>
</g>
</g>
<!-- Node21&#45;&gt;Node24 -->
<g id="edge36" class="edge"><title>Node21&#45;&gt;Node24</title>
<path fill="none" stroke="midnightblue" d="M870.5,-168.083C870.5,-161.006 870.5,-150.861 870.5,-141.986"/>
<polygon fill="midnightblue" stroke="midnightblue" points="874,-141.751 870.5,-131.751 867,-141.751 874,-141.751"/>
</g>
<!-- Node23&#45;&gt;Node20 -->
<g id="edge35" class="edge"><title>Node23&#45;&gt;Node20</title>
<path fill="none" stroke="midnightblue" d="M946.647,-112.083C948.369,-104.927 950.847,-94.6353 953,-85.6911"/>
<polygon fill="midnightblue" stroke="midnightblue" points="956.455,-86.2925 955.393,-75.7511 949.65,-84.6541 956.455,-86.2925"/>
</g>
<!-- Node23&#45;&gt;Node22 -->
<g id="edge34" class="edge"><title>Node23&#45;&gt;Node22</title>
<path fill="none" stroke="midnightblue" d="M916.099,-112.799C881.691,-102.863 823.934,-86.1842 788.428,-75.9311"/>
<polygon fill="midnightblue" stroke="midnightblue" points="789.186,-72.507 778.608,-73.0952 787.244,-79.2323 789.186,-72.507"/>
</g>
<!-- Node24&#45;&gt;Node1 -->
<g id="edge37" class="edge"><title>Node24&#45;&gt;Node1</title>
<path fill="none" stroke="midnightblue" d="M842.33,-116.763C778.681,-107.189 623.647,-83.8688 550.685,-72.8941"/>
<polygon fill="midnightblue" stroke="midnightblue" points="550.946,-69.3941 540.536,-71.3676 549.905,-76.3162 550.946,-69.3941"/>
</g>
<!-- Node24&#45;&gt;Node20 -->
<g id="edge38" class="edge"><title>Node24&#45;&gt;Node20</title>
<path fill="none" stroke="midnightblue" d="M884.478,-112.324C898.05,-103.9 918.88,-90.9709 934.825,-81.0741"/>
<polygon fill="midnightblue" stroke="midnightblue" points="936.906,-83.9019 943.557,-75.6545 933.214,-77.9544 936.906,-83.9019"/>
</g>
<!-- Node25 -->
<g id="node26" class="node"><title>Node25</title>
<polygon fill="none" stroke="#bfbfbf" points="856,-56.5 856,-75.5 885,-75.5 885,-56.5 856,-56.5"/>
<text text-anchor="middle" x="870.5" y="-63.5" font-family="Helvetica,sans-Serif" font-size="10.00">list</text>
</g>
<!-- Node24&#45;&gt;Node25 -->
<g id="edge39" class="edge"><title>Node24&#45;&gt;Node25</title>
<path fill="none" stroke="midnightblue" d="M870.5,-112.083C870.5,-105.006 870.5,-94.8611 870.5,-85.9865"/>
<polygon fill="midnightblue" stroke="midnightblue" points="874,-85.751 870.5,-75.7511 867,-85.7511 874,-85.751"/>
</g>
<!-- Node26&#45;&gt;Node6 -->
<g id="edge43" class="edge"><title>Node26&#45;&gt;Node6</title>
<path fill="none" stroke="midnightblue" d="M685.521,-224.414C682.777,-195.748 678.161,-102.528 727.5,-56 796.712,9.26834 845.336,-39.2541 938.5,-20 938.601,-19.9791 938.702,-19.9581 938.804,-19.937"/>
<polygon fill="midnightblue" stroke="midnightblue" points="939.46,-23.3766 948.471,-17.8046 937.952,-16.5409 939.46,-23.3766"/>
</g>
<!-- Node26&#45;&gt;Node21 -->
<g id="edge42" class="edge"><title>Node26&#45;&gt;Node21</title>
<path fill="none" stroke="midnightblue" d="M715.655,-224.444C747.013,-215.241 797.031,-200.562 831.697,-190.388"/>
<polygon fill="midnightblue" stroke="midnightblue" points="832.871,-193.691 841.481,-187.516 830.9,-186.974 832.871,-193.691"/>
</g>
<!-- Node26&#45;&gt;Node22 -->
<g id="edge44" class="edge"><title>Node26&#45;&gt;Node22</title>
<path fill="none" stroke="midnightblue" d="M690.317,-224.075C701.542,-197.832 734.598,-120.545 749.751,-85.1165"/>
<polygon fill="midnightblue" stroke="midnightblue" points="753.121,-86.1388 753.835,-75.5681 746.685,-83.386 753.121,-86.1388"/>
</g>
<!-- Node27&#45;&gt;Node1 -->
<g id="edge46" class="edge"><title>Node27&#45;&gt;Node1</title>
<path fill="none" stroke="midnightblue" d="M517.029,-168.368C516.061,-150.617 513.827,-109.666 512.514,-85.5974"/>
<polygon fill="midnightblue" stroke="midnightblue" points="516.008,-85.3859 511.969,-75.5914 509.019,-85.7672 516.008,-85.3859"/>
</g>
<!-- Node27&#45;&gt;Node19 -->
<g id="edge47" class="edge"><title>Node27&#45;&gt;Node19</title>
<path fill="none" stroke="midnightblue" d="M531.799,-168.324C545.683,-159.9 566.992,-146.971 583.304,-137.074"/>
<polygon fill="midnightblue" stroke="midnightblue" points="585.502,-139.834 592.236,-131.655 581.871,-133.85 585.502,-139.834"/>
</g>
<!-- Node28 -->
<g id="node29" class="node"><title>Node28</title>
<g id="a_node29"><a xlink:href="_timer_8h.html" target="_top" xlink:title="Timer.h">
<polygon fill="none" stroke="black" points="435,-112.5 435,-131.5 484,-131.5 484,-112.5 435,-112.5"/>
<text text-anchor="middle" x="459.5" y="-119.5" font-family="Helvetica,sans-Serif" font-size="10.00">Timer.h</text>
</a>
</g>
</g>
<!-- Node27&#45;&gt;Node28 -->
<g id="edge48" class="edge"><title>Node27&#45;&gt;Node28</title>
<path fill="none" stroke="midnightblue" d="M508.181,-168.324C499.607,-160.341 486.688,-148.313 476.312,-138.653"/>
<polygon fill="midnightblue" stroke="midnightblue" points="478.692,-136.086 468.988,-131.834 473.922,-141.21 478.692,-136.086"/>
</g>
<!-- Node28&#45;&gt;Node1 -->
<g id="edge49" class="edge"><title>Node28&#45;&gt;Node1</title>
<path fill="none" stroke="midnightblue" d="M468.087,-112.083C475.659,-104.22 486.878,-92.5688 496.014,-83.0813"/>
<polygon fill="midnightblue" stroke="midnightblue" points="498.658,-85.3821 503.073,-75.7511 493.615,-80.5266 498.658,-85.3821"/>
</g>
<!-- Node29&#45;&gt;Node26 -->
<g id="edge54" class="edge"><title>Node29&#45;&gt;Node26</title>
<path fill="none" stroke="midnightblue" d="M689.839,-280.083C689.315,-273.006 688.564,-262.861 687.906,-253.986"/>
<polygon fill="midnightblue" stroke="midnightblue" points="691.377,-253.465 687.148,-243.751 684.397,-253.982 691.377,-253.465"/>
</g>
<!-- Node30 -->
<g id="node31" class="node"><title>Node30</title>
<polygon fill="none" stroke="#bfbfbf" points="792.5,-224.5 792.5,-243.5 838.5,-243.5 838.5,-224.5 792.5,-224.5"/>
<text text-anchor="middle" x="815.5" y="-231.5" font-family="Helvetica,sans-Serif" font-size="10.00">chrono</text>
</g>
<!-- Node29&#45;&gt;Node30 -->
<g id="edge53" class="edge"><title>Node29&#45;&gt;Node30</title>
<path fill="none" stroke="midnightblue" d="M710.307,-280.444C730.787,-271.596 762.983,-257.687 786.365,-247.586"/>
<polygon fill="midnightblue" stroke="midnightblue" points="787.994,-250.695 795.786,-243.516 785.218,-244.269 787.994,-250.695"/>
</g>
<!-- Node31&#45;&gt;Node1 -->
<g id="edge62" class="edge"><title>Node31&#45;&gt;Node1</title>
<path fill="none" stroke="midnightblue" d="M166.401,-168.432C184.14,-159.422 212.825,-144.802 237.5,-132 254.441,-123.211 257.485,-118.301 275.5,-112 342.484,-88.5726 424.669,-76.4089 472.266,-70.8848"/>
<polygon fill="midnightblue" stroke="midnightblue" points="472.902,-74.3355 482.45,-69.7434 472.123,-67.3791 472.902,-74.3355"/>
</g>
<!-- Node31&#45;&gt;Node2 -->
<g id="edge64" class="edge"><title>Node31&#45;&gt;Node2</title>
<path fill="none" stroke="midnightblue" d="M149.285,-168.075C148.655,-141.945 146.806,-65.2106 145.948,-29.577"/>
<polygon fill="midnightblue" stroke="midnightblue" points="149.446,-29.4809 145.706,-19.5681 142.448,-29.6496 149.446,-29.4809"/>
</g>
<!-- Node31&#45;&gt;Node16 -->
<g id="edge56" class="edge"><title>Node31&#45;&gt;Node16</title>
<path fill="none" stroke="midnightblue" d="M157.922,-168.083C165.348,-160.22 176.352,-148.569 185.312,-139.081"/>
<polygon fill="midnightblue" stroke="midnightblue" points="187.913,-141.424 192.235,-131.751 182.824,-136.618 187.913,-141.424"/>
</g>
<!-- Node31&#45;&gt;Node22 -->
<g id="edge63" class="edge"><title>Node31&#45;&gt;Node22</title>
<path fill="none" stroke="midnightblue" d="M174.35,-170.287C177.427,-169.496 180.532,-168.716 183.5,-168 256.464,-150.392 275.495,-149.438 348.5,-132 382.89,-123.785 390.808,-118.831 425.5,-112 535.101,-90.4184 667.102,-75.8922 726.214,-69.9814"/>
<polygon fill="midnightblue" stroke="midnightblue" points="726.773,-73.4432 736.381,-68.9782 726.086,-66.4771 726.773,-73.4432"/>
</g>
<!-- Node32 -->
<g id="node33" class="node"><title>Node32</title>
<g id="a_node33"><a xlink:href="_choice_8h.html" target="_top" xlink:title="Choice.h">
<polygon fill="none" stroke="black" points="285,-112.5 285,-131.5 340,-131.5 340,-112.5 285,-112.5"/>
<text text-anchor="middle" x="312.5" y="-119.5" font-family="Helvetica,sans-Serif" font-size="10.00">Choice.h</text>
</a>
</g>
</g>
<!-- Node31&#45;&gt;Node32 -->
<g id="edge57" class="edge"><title>Node31&#45;&gt;Node32</title>
<path fill="none" stroke="midnightblue" d="M174.256,-168.799C201.66,-159.72 246.055,-145.012 277.122,-134.72"/>
<polygon fill="midnightblue" stroke="midnightblue" points="278.31,-138.014 286.702,-131.547 276.108,-131.369 278.31,-138.014"/>
</g>
<!-- Node32&#45;&gt;Node1 -->
<g id="edge58" class="edge"><title>Node32&#45;&gt;Node1</title>
<path fill="none" stroke="midnightblue" d="M340.17,-113.492C374.581,-104.154 433.533,-88.1568 472.511,-77.5798"/>
<polygon fill="midnightblue" stroke="midnightblue" points="473.716,-80.8795 482.451,-74.8828 471.883,-74.1239 473.716,-80.8795"/>
</g>
<!-- Node32&#45;&gt;Node6 -->
<g id="edge61" class="edge"><title>Node32&#45;&gt;Node6</title>
<path fill="none" stroke="midnightblue" d="M340.02,-113.001C341.53,-112.643 343.031,-112.306 344.5,-112 459.569,-88.0318 491.094,-98.2864 606.5,-76 642.485,-69.0509 650.534,-63.0453 686.5,-56 797.527,-34.2512 827.404,-41.3951 938.5,-20 938.601,-19.9805 938.703,-19.9608 938.805,-19.9411"/>
<polygon fill="midnightblue" stroke="midnightblue" points="939.431,-23.3863 948.488,-17.8899 937.98,-16.5382 939.431,-23.3863"/>
</g>
<!-- Node32&#45;&gt;Node8 -->
<g id="edge59" class="edge"><title>Node32&#45;&gt;Node8</title>
<path fill="none" stroke="midnightblue" d="M340.308,-116.124C384.665,-108.256 474.122,-92.0163 549.5,-76 587.462,-67.9339 596.378,-63.2721 634.5,-56 739.441,-35.9816 770.27,-43.4027 878.895,-19.8174"/>
<polygon fill="midnightblue" stroke="midnightblue" points="879.938,-23.1714 888.947,-17.5956 878.427,-16.3363 879.938,-23.1714"/>
</g>
<!-- Node33 -->
<g id="node34" class="node"><title>Node33</title>
<polygon fill="none" stroke="#bfbfbf" points="283.5,-56.5 283.5,-75.5 341.5,-75.5 341.5,-56.5 283.5,-56.5"/>
<text text-anchor="middle" x="312.5" y="-63.5" font-family="Helvetica,sans-Serif" font-size="10.00">functional</text>
</g>
<!-- Node32&#45;&gt;Node33 -->
<g id="edge60" class="edge"><title>Node32&#45;&gt;Node33</title>
<path fill="none" stroke="midnightblue" d="M312.5,-112.083C312.5,-105.006 312.5,-94.8611 312.5,-85.9865"/>
<polygon fill="midnightblue" stroke="midnightblue" points="316,-85.751 312.5,-75.7511 309,-85.7511 316,-85.751"/>
</g>
<!-- Node34&#45;&gt;Node31 -->
<g id="edge66" class="edge"><title>Node34&#45;&gt;Node31</title>
<path fill="none" stroke="midnightblue" d="M292.563,-224.444C263.164,-215.105 216.013,-200.128 183.944,-189.941"/>
<polygon fill="midnightblue" stroke="midnightblue" points="184.693,-186.507 174.103,-186.815 182.574,-193.178 184.693,-186.507"/>
</g>
<!-- Node35 -->
<g id="node36" class="node"><title>Node35</title>
<g id="a_node36"><a xlink:href="_choice__miniature_8h.html" target="_top" xlink:title="Choice_miniature.h">
<polygon fill="none" stroke="black" points="300.5,-168.5 300.5,-187.5 400.5,-187.5 400.5,-168.5 300.5,-168.5"/>
<text text-anchor="middle" x="350.5" y="-175.5" font-family="Helvetica,sans-Serif" font-size="10.00">Choice_miniature.h</text>
</a>
</g>
</g>
<!-- Node34&#45;&gt;Node35 -->
<g id="edge67" class="edge"><title>Node34&#45;&gt;Node35</title>
<path fill="none" stroke="midnightblue" d="M324.619,-224.083C328.908,-216.613 335.158,-205.724 340.442,-196.52"/>
<polygon fill="midnightblue" stroke="midnightblue" points="343.533,-198.166 345.476,-187.751 337.462,-194.681 343.533,-198.166"/>
</g>
<!-- Node35&#45;&gt;Node32 -->
<g id="edge68" class="edge"><title>Node35&#45;&gt;Node32</title>
<path fill="none" stroke="midnightblue" d="M344.225,-168.083C338.858,-160.455 330.982,-149.264 324.421,-139.941"/>
<polygon fill="midnightblue" stroke="midnightblue" points="327.275,-137.915 318.658,-131.751 321.551,-141.943 327.275,-137.915"/>
</g>
<!-- Node36&#45;&gt;Node31 -->
<g id="edge70" class="edge"><title>Node36&#45;&gt;Node31</title>
<path fill="none" stroke="midnightblue" d="M202.378,-224.324C192.974,-216.263 178.756,-204.077 167.431,-194.369"/>
<polygon fill="midnightblue" stroke="midnightblue" points="169.677,-191.684 159.806,-187.834 165.121,-196.999 169.677,-191.684"/>
</g>
<!-- Node37 -->
<g id="node38" class="node"><title>Node37</title>
<g id="a_node38"><a xlink:href="_choice___simple_8h.html" target="_top" xlink:title="Choice_Simple.h">
<polygon fill="none" stroke="black" points="192.5,-168.5 192.5,-187.5 282.5,-187.5 282.5,-168.5 192.5,-168.5"/>
<text text-anchor="middle" x="237.5" y="-175.5" font-family="Helvetica,sans-Serif" font-size="10.00">Choice_Simple.h</text>
</a>
</g>
</g>
<!-- Node36&#45;&gt;Node37 -->
<g id="edge71" class="edge"><title>Node36&#45;&gt;Node37</title>
<path fill="none" stroke="midnightblue" d="M216.628,-224.083C220.014,-216.77 224.916,-206.181 229.119,-197.103"/>
<polygon fill="midnightblue" stroke="midnightblue" points="232.423,-198.296 233.449,-187.751 226.071,-195.355 232.423,-198.296"/>
</g>
<!-- Node37&#45;&gt;Node32 -->
<g id="edge72" class="edge"><title>Node37&#45;&gt;Node32</title>
<path fill="none" stroke="midnightblue" d="M249.55,-168.324C260.963,-160.107 278.331,-147.602 291.935,-137.807"/>
<polygon fill="midnightblue" stroke="midnightblue" points="294.16,-140.517 300.231,-131.834 290.07,-134.837 294.16,-140.517"/>
</g>
<!-- Node38&#45;&gt;Node1 -->
<g id="edge79" class="edge"><title>Node38&#45;&gt;Node1</title>
<path fill="none" stroke="midnightblue" d="M1104.99,-231.238C1037.94,-227.753 912.244,-217.533 809.5,-188 731.515,-165.584 718.886,-142.018 643.5,-112 611.986,-99.4511 575.43,-87.1597 548.79,-78.6025"/>
<polygon fill="midnightblue" stroke="midnightblue" points="549.687,-75.215 539.097,-75.5129 547.562,-81.8845 549.687,-75.215"/>
</g>
<!-- Node38&#45;&gt;Node6 -->
<g id="edge74" class="edge"><title>Node38&#45;&gt;Node6</title>
<path fill="none" stroke="midnightblue" d="M1200.17,-229.022C1250.58,-222.724 1319.73,-206.882 1295.5,-168 1232.46,-66.8458 1083.13,-29.0301 1013.05,-16.5049"/>
<polygon fill="midnightblue" stroke="midnightblue" points="1013.35,-13.0059 1002.9,-14.7708 1012.17,-19.9058 1013.35,-13.0059"/>
</g>
<!-- Node38&#45;&gt;Node8 -->
<g id="edge80" class="edge"><title>Node38&#45;&gt;Node8</title>
<path fill="none" stroke="midnightblue" d="M1148.93,-224.219C1136.9,-195.729 1095.12,-104.891 1032.5,-56 1024.95,-50.1033 974.014,-32.4621 940.102,-21.0991"/>
<polygon fill="midnightblue" stroke="midnightblue" points="940.784,-17.6374 930.191,-17.7942 938.57,-24.2779 940.784,-17.6374"/>
</g>
<!-- Node38&#45;&gt;Node9 -->
<g id="edge75" class="edge"><title>Node38&#45;&gt;Node9</title>
<path fill="none" stroke="midnightblue" d="M1200.36,-227.354C1246.92,-220.76 1312.88,-208.115 1328.5,-188 1364.48,-141.662 1362.53,-103.789 1328.5,-56 1307.06,-25.8924 1264.04,-15.741 1233.36,-12.4207"/>
<polygon fill="midnightblue" stroke="midnightblue" points="1233.35,-8.9061 1223.08,-11.5096 1232.73,-15.8788 1233.35,-8.9061"/>
</g>
<!-- Node38&#45;&gt;Node20 -->
<g id="edge77" class="edge"><title>Node38&#45;&gt;Node20</title>
<path fill="none" stroke="midnightblue" d="M1142.29,-224.309C1110.83,-197.528 1015.1,-116.035 975.226,-82.09"/>
<polygon fill="midnightblue" stroke="midnightblue" points="977.492,-79.4222 967.608,-75.6051 972.954,-84.7524 977.492,-79.4222"/>
</g>
<!-- Node38&#45;&gt;Node21 -->
<g id="edge78" class="edge"><title>Node38&#45;&gt;Node21</title>
<path fill="none" stroke="midnightblue" d="M1107.82,-224.444C1058.21,-214.944 978.135,-199.611 924.915,-189.42"/>
<polygon fill="midnightblue" stroke="midnightblue" points="925.455,-185.96 914.975,-187.516 924.138,-192.835 925.455,-185.96"/>
</g>
<!-- Node39 -->
<g id="node40" class="node"><title>Node39</title>
<polygon fill="none" stroke="#bfbfbf" points="1240.5,-168.5 1240.5,-187.5 1286.5,-187.5 1286.5,-168.5 1240.5,-168.5"/>
<text text-anchor="middle" x="1263.5" y="-175.5" font-family="Helvetica,sans-Serif" font-size="10.00">stdio.h</text>
</g>
<!-- Node38&#45;&gt;Node39 -->
<g id="edge76" class="edge"><title>Node38&#45;&gt;Node39</title>
<path fill="none" stroke="midnightblue" d="M1170.33,-224.324C1188.22,-215.625 1215.98,-202.12 1236.55,-192.113"/>
<polygon fill="midnightblue" stroke="midnightblue" points="1238.25,-195.177 1245.71,-187.655 1235.19,-188.882 1238.25,-195.177"/>
</g>
<!-- Node40 -->
<g id="node41" class="node"><title>Node40</title>
<polygon fill="none" stroke="#bfbfbf" points="1181,-168.5 1181,-187.5 1222,-187.5 1222,-168.5 1181,-168.5"/>
<text text-anchor="middle" x="1201.5" y="-175.5" font-family="Helvetica,sans-Serif" font-size="10.00">regex</text>
</g>
<!-- Node38&#45;&gt;Node40 -->
<g id="edge81" class="edge"><title>Node38&#45;&gt;Node40</title>
<path fill="none" stroke="midnightblue" d="M1160.59,-224.083C1167.66,-216.298 1178.09,-204.801 1186.65,-195.367"/>
<polygon fill="midnightblue" stroke="midnightblue" points="1189.43,-197.509 1193.56,-187.751 1184.25,-192.805 1189.43,-197.509"/>
</g>
</g>
</svg>
