<?xml version="1.0" encoding="UTF-8" standalone="no"?>
<!DOCTYPE svg PUBLIC "-//W3C//DTD SVG 1.1//EN"
 "http://www.w3.org/Graphics/SVG/1.1/DTD/svg11.dtd">
<!-- Generated by graphviz version 2.38.0 (20140413.2041)
 -->
<!-- Title: main Pages: 1 -->
<svg width="198pt" height="180pt"
 viewBox="0.00 0.00 198.00 180.00" xmlns="http://www.w3.org/2000/svg" xmlns:xlink="http://www.w3.org/1999/xlink">
<g id="graph0" class="graph" transform="scale(1 1) rotate(0) translate(4 176)">
<title>main</title>
<!-- Node3 -->
<g id="node1" class="node"><title>Node3</title>
<polygon fill="#bfbfbf" stroke="black" points="0,-76.5 0,-95.5 38,-95.5 38,-76.5 0,-76.5"/>
<text text-anchor="middle" x="19" y="-83.5" font-family="Helvetica,sans-Serif" font-size="10.00">main</text>
</g>
<!-- Node4 -->
<g id="node2" class="node"><title>Node4</title>
<g id="a_node2"><a xlink:href="_main_8cpp.html#af015020f3a1b3f64c4b3905e14688120" target="_top" xlink:title="renderingThread">
<polygon fill="none" stroke="black" points="89,-152.5 89,-171.5 175,-171.5 175,-152.5 89,-152.5"/>
<text text-anchor="middle" x="132" y="-159.5" font-family="Helvetica,sans-Serif" font-size="10.00">renderingThread</text>
</a>
</g>
</g>
<!-- Node3&#45;&gt;Node4 -->
<g id="edge1" class="edge"><title>Node3&#45;&gt;Node4</title>
<path fill="none" stroke="midnightblue" d="M26.914,-95.8764C36.2369,-108.505 53.9939,-130.259 74,-143 77.1784,-145.024 80.5948,-146.855 84.1188,-148.508"/>
<polygon fill="midnightblue" stroke="midnightblue" points="83.0322,-151.847 93.6085,-152.474 85.7317,-145.389 83.0322,-151.847"/>
</g>
<!-- Node5 -->
<g id="node3" class="node"><title>Node5</title>
<g id="a_node3"><a xlink:href="class_go___solver.html#aa86fa44c1be38ba004ff2f0475094cd1" target="_top" xlink:title="Go_Solver::getScreens">
<polygon fill="none" stroke="black" points="74,-114.5 74,-133.5 190,-133.5 190,-114.5 74,-114.5"/>
<text text-anchor="middle" x="132" y="-121.5" font-family="Helvetica,sans-Serif" font-size="10.00">Go_Solver::getScreens</text>
</a>
</g>
</g>
<!-- Node3&#45;&gt;Node5 -->
<g id="edge2" class="edge"><title>Node3&#45;&gt;Node5</title>
<path fill="none" stroke="midnightblue" d="M38.468,-92.5831C48.8869,-96.2756 62.1535,-100.942 74,-105 79.9579,-107.041 86.2759,-109.176 92.4529,-111.247"/>
<polygon fill="midnightblue" stroke="midnightblue" points="91.3775,-114.578 101.971,-114.427 93.5955,-107.939 91.3775,-114.578"/>
</g>
<!-- Node6 -->
<g id="node4" class="node"><title>Node6</title>
<g id="a_node4"><a xlink:href="class_go___solver.html#a40386a16847e889ffd280d5c6b993462" target="_top" xlink:title="Go_Solver::getScreen">
<polygon fill="none" stroke="black" points="76.5,-76.5 76.5,-95.5 187.5,-95.5 187.5,-76.5 76.5,-76.5"/>
<text text-anchor="middle" x="132" y="-83.5" font-family="Helvetica,sans-Serif" font-size="10.00">Go_Solver::getScreen</text>
</a>
</g>
</g>
<!-- Node3&#45;&gt;Node6 -->
<g id="edge3" class="edge"><title>Node3&#45;&gt;Node6</title>
<path fill="none" stroke="midnightblue" d="M38.3294,-86C46.1804,-86 55.868,-86 65.9906,-86"/>
<polygon fill="midnightblue" stroke="midnightblue" points="66.2063,-89.5001 76.2063,-86 66.2062,-82.5001 66.2063,-89.5001"/>
</g>
<!-- Node7 -->
<g id="node5" class="node"><title>Node7</title>
<g id="a_node5"><a xlink:href="class_go___solver.html#a84c021a62506ef8f5d43aae109298fe0" target="_top" xlink:title="Go_Solver::Run">
<polygon fill="none" stroke="black" points="90,-38.5 90,-57.5 174,-57.5 174,-38.5 90,-38.5"/>
<text text-anchor="middle" x="132" y="-45.5" font-family="Helvetica,sans-Serif" font-size="10.00">Go_Solver::Run</text>
</a>
</g>
</g>
<!-- Node3&#45;&gt;Node7 -->
<g id="edge4" class="edge"><title>Node3&#45;&gt;Node7</title>
<path fill="none" stroke="midnightblue" d="M38.468,-79.4169C48.8869,-75.7244 62.1535,-71.0582 74,-67 79.9579,-64.959 86.2759,-62.8239 92.4529,-60.7527"/>
<polygon fill="midnightblue" stroke="midnightblue" points="93.5955,-64.0612 101.971,-57.573 91.3775,-57.4218 93.5955,-64.0612"/>
</g>
<!-- Node8 -->
<g id="node6" class="node"><title>Node8</title>
<g id="a_node6"><a xlink:href="_main_8cpp.html#ad43822cd5cf43d5891d7dbdd6fdb1802" target="_top" xlink:title="log_file">
<polygon fill="none" stroke="black" points="108.5,-0.5 108.5,-19.5 155.5,-19.5 155.5,-0.5 108.5,-0.5"/>
<text text-anchor="middle" x="132" y="-7.5" font-family="Helvetica,sans-Serif" font-size="10.00">log_file</text>
</a>
</g>
</g>
<!-- Node3&#45;&gt;Node8 -->
<g id="edge5" class="edge"><title>Node3&#45;&gt;Node8</title>
<path fill="none" stroke="midnightblue" d="M26.914,-76.1236C36.2369,-63.4949 53.9939,-41.7412 74,-29 81.5253,-24.2074 90.3849,-20.4964 98.8471,-17.6791"/>
<polygon fill="midnightblue" stroke="midnightblue" points="99.9302,-21.0083 108.495,-14.7713 97.9101,-14.3061 99.9302,-21.0083"/>
</g>
</g>
</svg>
