<?xml version="1.0" encoding="UTF-8" standalone="no"?>
<!DOCTYPE svg PUBLIC "-//W3C//DTD SVG 1.1//EN"
 "http://www.w3.org/Graphics/SVG/1.1/DTD/svg11.dtd">
<!-- Generated by graphviz version 2.38.0 (20140413.2041)
 -->
<!-- Title: D:/Users/Victor/OneDrive/Documents/Visual Studio 2017/Projects/Jeu_de_Go/Jeu_de_Go/Sources/Graphics/Menu_simple.cpp Pages: 1 -->
<svg width="984pt" height="352pt"
 viewBox="0.00 0.00 983.50 352.00" xmlns="http://www.w3.org/2000/svg" xmlns:xlink="http://www.w3.org/1999/xlink">
<g id="graph0" class="graph" transform="scale(1 1) rotate(0) translate(4 348)">
<title>D:/Users/Victor/OneDrive/Documents/Visual Studio 2017/Projects/Jeu_de_Go/Jeu_de_Go/Sources/Graphics/Menu_simple.cpp</title>
<!-- Node0 -->
<g id="node1" class="node"><title>Node0</title>
<polygon fill="#bfbfbf" stroke="black" points="375.5,-280.5 375.5,-343.5 524.5,-343.5 524.5,-280.5 375.5,-280.5"/>
<text text-anchor="start" x="383.5" y="-331.5" font-family="Helvetica,sans-Serif" font-size="10.00">D:/Users/Victor/OneDrive</text>
<text text-anchor="start" x="383.5" y="-320.5" font-family="Helvetica,sans-Serif" font-size="10.00">/Documents/Visual Studio</text>
<text text-anchor="start" x="383.5" y="-309.5" font-family="Helvetica,sans-Serif" font-size="10.00"> 2017/Projects/Jeu_de_Go</text>
<text text-anchor="start" x="383.5" y="-298.5" font-family="Helvetica,sans-Serif" font-size="10.00">/Jeu_de_Go/Sources/Graphics</text>
<text text-anchor="middle" x="450" y="-287.5" font-family="Helvetica,sans-Serif" font-size="10.00">/Menu_simple.cpp</text>
</g>
<!-- Node1 -->
<g id="node2" class="node"><title>Node1</title>
<g id="a_node2"><a xlink:href="_menu__simple_8h.html" target="_top" xlink:title="Menu_simple.h">
<polygon fill="none" stroke="black" points="408.5,-224.5 408.5,-243.5 491.5,-243.5 491.5,-224.5 408.5,-224.5"/>
<text text-anchor="middle" x="450" y="-231.5" font-family="Helvetica,sans-Serif" font-size="10.00">Menu_simple.h</text>
</a>
</g>
</g>
<!-- Node0&#45;&gt;Node1 -->
<g id="edge1" class="edge"><title>Node0&#45;&gt;Node1</title>
<path fill="none" stroke="midnightblue" d="M450,-280.088C450,-271.15 450,-261.669 450,-253.719"/>
<polygon fill="midnightblue" stroke="midnightblue" points="453.5,-253.718 450,-243.718 446.5,-253.718 453.5,-253.718"/>
</g>
<!-- Node2 -->
<g id="node3" class="node"><title>Node2</title>
<g id="a_node3"><a xlink:href="_menu_8h.html" target="_top" xlink:title="Menu.h">
<polygon fill="none" stroke="black" points="375.5,-168.5 375.5,-187.5 424.5,-187.5 424.5,-168.5 375.5,-168.5"/>
<text text-anchor="middle" x="400" y="-175.5" font-family="Helvetica,sans-Serif" font-size="10.00">Menu.h</text>
</a>
</g>
</g>
<!-- Node1&#45;&gt;Node2 -->
<g id="edge2" class="edge"><title>Node1&#45;&gt;Node2</title>
<path fill="none" stroke="midnightblue" d="M441.744,-224.083C434.535,-216.298 423.89,-204.801 415.154,-195.367"/>
<polygon fill="midnightblue" stroke="midnightblue" points="417.465,-192.711 408.103,-187.751 412.329,-197.467 417.465,-192.711"/>
</g>
<!-- Node20 -->
<g id="node21" class="node"><title>Node20</title>
<g id="a_node21"><a xlink:href="_choice___simple_8h.html" target="_top" xlink:title="Choice_Simple.h">
<polygon fill="none" stroke="black" points="455,-168.5 455,-187.5 545,-187.5 545,-168.5 455,-168.5"/>
<text text-anchor="middle" x="500" y="-175.5" font-family="Helvetica,sans-Serif" font-size="10.00">Choice_Simple.h</text>
</a>
</g>
</g>
<!-- Node1&#45;&gt;Node20 -->
<g id="edge26" class="edge"><title>Node1&#45;&gt;Node20</title>
<path fill="none" stroke="midnightblue" d="M458.256,-224.083C465.465,-216.298 476.11,-204.801 484.846,-195.367"/>
<polygon fill="midnightblue" stroke="midnightblue" points="487.671,-197.467 491.897,-187.751 482.535,-192.711 487.671,-197.467"/>
</g>
<!-- Node3 -->
<g id="node4" class="node"><title>Node3</title>
<g id="a_node4"><a xlink:href="_screen_8h.html" target="_top" xlink:title="Screen.h">
<polygon fill="none" stroke="black" points="366,-112.5 366,-131.5 422,-131.5 422,-112.5 366,-112.5"/>
<text text-anchor="middle" x="394" y="-119.5" font-family="Helvetica,sans-Serif" font-size="10.00">Screen.h</text>
</a>
</g>
</g>
<!-- Node2&#45;&gt;Node3 -->
<g id="edge3" class="edge"><title>Node2&#45;&gt;Node3</title>
<path fill="none" stroke="midnightblue" d="M399.009,-168.083C398.214,-160.927 397.071,-150.635 396.077,-141.691"/>
<polygon fill="midnightblue" stroke="midnightblue" points="399.555,-141.303 394.972,-131.751 392.598,-142.076 399.555,-141.303"/>
</g>
<!-- Node4 -->
<g id="node5" class="node"><title>Node4</title>
<polygon fill="none" stroke="#bfbfbf" points="0,-0.5 0,-19.5 104,-19.5 104,-0.5 0,-0.5"/>
<text text-anchor="middle" x="52" y="-7.5" font-family="Helvetica,sans-Serif" font-size="10.00">SFML/Graphics.hpp</text>
</g>
<!-- Node2&#45;&gt;Node4 -->
<g id="edge25" class="edge"><title>Node2&#45;&gt;Node4</title>
<path fill="none" stroke="midnightblue" d="M379.744,-168.482C358.882,-159.632 325.488,-145.249 297,-132 216.25,-94.4452 122.184,-46.9027 77.7529,-24.2151"/>
<polygon fill="midnightblue" stroke="midnightblue" points="79.2961,-21.0731 68.7991,-19.6361 76.1088,-27.3055 79.2961,-21.0731"/>
</g>
<!-- Node5 -->
<g id="node6" class="node"><title>Node5</title>
<g id="a_node6"><a xlink:href="_globals_8h.html" target="_top" xlink:title="Globals.h">
<polygon fill="none" stroke="black" points="421,-56.5 421,-75.5 479,-75.5 479,-56.5 421,-56.5"/>
<text text-anchor="middle" x="450" y="-63.5" font-family="Helvetica,sans-Serif" font-size="10.00">Globals.h</text>
</a>
</g>
</g>
<!-- Node2&#45;&gt;Node5 -->
<g id="edge23" class="edge"><title>Node2&#45;&gt;Node5</title>
<path fill="none" stroke="midnightblue" d="M407.321,-168.217C414.264,-159.506 424.564,-145.537 431,-132 438.099,-117.068 443.132,-98.9276 446.227,-85.6088"/>
<polygon fill="midnightblue" stroke="midnightblue" points="449.67,-86.2466 448.373,-75.7314 442.829,-84.7601 449.67,-86.2466"/>
</g>
<!-- Node17 -->
<g id="node18" class="node"><title>Node17</title>
<g id="a_node18"><a xlink:href="_choice_8h.html" target="_top" xlink:title="Choice.h">
<polygon fill="none" stroke="black" points="478.5,-112.5 478.5,-131.5 533.5,-131.5 533.5,-112.5 478.5,-112.5"/>
<text text-anchor="middle" x="506" y="-119.5" font-family="Helvetica,sans-Serif" font-size="10.00">Choice.h</text>
</a>
</g>
</g>
<!-- Node2&#45;&gt;Node17 -->
<g id="edge18" class="edge"><title>Node2&#45;&gt;Node17</title>
<path fill="none" stroke="midnightblue" d="M417.031,-168.324C434.03,-159.664 460.376,-146.242 479.993,-136.249"/>
<polygon fill="midnightblue" stroke="midnightblue" points="481.69,-139.312 489.012,-131.655 478.512,-133.075 481.69,-139.312"/>
</g>
<!-- Node19 -->
<g id="node20" class="node"><title>Node19</title>
<polygon fill="none" stroke="#bfbfbf" points="306,-112.5 306,-131.5 348,-131.5 348,-112.5 306,-112.5"/>
<text text-anchor="middle" x="327" y="-119.5" font-family="Helvetica,sans-Serif" font-size="10.00">vector</text>
</g>
<!-- Node2&#45;&gt;Node19 -->
<g id="edge24" class="edge"><title>Node2&#45;&gt;Node19</title>
<path fill="none" stroke="midnightblue" d="M388.271,-168.324C377.163,-160.107 360.258,-147.602 347.017,-137.807"/>
<polygon fill="midnightblue" stroke="midnightblue" points="349.063,-134.967 338.942,-131.834 344.9,-140.595 349.063,-134.967"/>
</g>
<!-- Node3&#45;&gt;Node4 -->
<g id="edge4" class="edge"><title>Node3&#45;&gt;Node4</title>
<path fill="none" stroke="midnightblue" d="M368.269,-112.497C330.371,-99.9954 257.297,-75.9753 195,-56 159.085,-44.4839 118.008,-31.586 89.1225,-22.5609"/>
<polygon fill="midnightblue" stroke="midnightblue" points="90.0307,-19.1779 79.442,-19.5388 87.9446,-25.8599 90.0307,-19.1779"/>
</g>
<!-- Node3&#45;&gt;Node5 -->
<g id="edge5" class="edge"><title>Node3&#45;&gt;Node5</title>
<path fill="none" stroke="midnightblue" d="M402.997,-112.324C411.194,-104.42 423.506,-92.5482 433.472,-82.9377"/>
<polygon fill="midnightblue" stroke="midnightblue" points="436.07,-85.2947 440.839,-75.8339 431.211,-80.2558 436.07,-85.2947"/>
</g>
<!-- Node5&#45;&gt;Node4 -->
<g id="edge6" class="edge"><title>Node5&#45;&gt;Node4</title>
<path fill="none" stroke="midnightblue" d="M420.681,-61.2228C363.755,-53.8592 234.04,-36.9357 114.309,-20.1687"/>
<polygon fill="midnightblue" stroke="midnightblue" points="114.626,-16.679 104.237,-18.7552 113.653,-23.6111 114.626,-16.679"/>
</g>
<!-- Node6 -->
<g id="node7" class="node"><title>Node6</title>
<polygon fill="none" stroke="#bfbfbf" points="521,-0.5 521,-19.5 619,-19.5 619,-0.5 521,-0.5"/>
<text text-anchor="middle" x="570" y="-7.5" font-family="Helvetica,sans-Serif" font-size="10.00">SFML/System.hpp</text>
</g>
<!-- Node5&#45;&gt;Node6 -->
<g id="edge7" class="edge"><title>Node5&#45;&gt;Node6</title>
<path fill="none" stroke="midnightblue" d="M469.014,-56.4435C488.588,-47.6356 519.308,-33.8116 541.729,-23.722"/>
<polygon fill="midnightblue" stroke="midnightblue" points="543.392,-26.8119 551.075,-19.5164 540.519,-20.4284 543.392,-26.8119"/>
</g>
<!-- Node7 -->
<g id="node8" class="node"><title>Node7</title>
<polygon fill="none" stroke="#bfbfbf" points="637.5,-0.5 637.5,-19.5 736.5,-19.5 736.5,-0.5 637.5,-0.5"/>
<text text-anchor="middle" x="687" y="-7.5" font-family="Helvetica,sans-Serif" font-size="10.00">SFML/Window.hpp</text>
</g>
<!-- Node5&#45;&gt;Node7 -->
<g id="edge8" class="edge"><title>Node5&#45;&gt;Node7</title>
<path fill="none" stroke="midnightblue" d="M479.061,-58.3785C519.104,-49.2549 591.721,-32.709 639.661,-21.7861"/>
<polygon fill="midnightblue" stroke="midnightblue" points="640.523,-25.1794 649.496,-19.5453 638.968,-18.3544 640.523,-25.1794"/>
</g>
<!-- Node8 -->
<g id="node9" class="node"><title>Node8</title>
<polygon fill="none" stroke="#bfbfbf" points="754.5,-0.5 754.5,-19.5 843.5,-19.5 843.5,-0.5 754.5,-0.5"/>
<text text-anchor="middle" x="799" y="-7.5" font-family="Helvetica,sans-Serif" font-size="10.00">SFML/Audio.hpp</text>
</g>
<!-- Node5&#45;&gt;Node8 -->
<g id="edge9" class="edge"><title>Node5&#45;&gt;Node8</title>
<path fill="none" stroke="midnightblue" d="M479.095,-58.6433C483.736,-57.7064 488.493,-56.7915 493,-56 601.697,-36.9121 632.076,-37.4602 744.443,-20.2041"/>
<polygon fill="midnightblue" stroke="midnightblue" points="745.135,-23.6388 754.481,-18.649 744.063,-16.7213 745.135,-23.6388"/>
</g>
<!-- Node9 -->
<g id="node10" class="node"><title>Node9</title>
<polygon fill="none" stroke="#bfbfbf" points="862,-0.5 862,-19.5 916,-19.5 916,-0.5 862,-0.5"/>
<text text-anchor="middle" x="889" y="-7.5" font-family="Helvetica,sans-Serif" font-size="10.00">iostream</text>
</g>
<!-- Node5&#45;&gt;Node9 -->
<g id="edge10" class="edge"><title>Node5&#45;&gt;Node9</title>
<path fill="none" stroke="midnightblue" d="M479.068,-58.4779C483.712,-57.5623 488.477,-56.6974 493,-56 648.661,-31.9969 692.785,-46.93 851.821,-19.9569"/>
<polygon fill="midnightblue" stroke="midnightblue" points="852.704,-23.3563 861.963,-18.2068 851.514,-16.4582 852.704,-23.3563"/>
</g>
<!-- Node10 -->
<g id="node11" class="node"><title>Node10</title>
<polygon fill="none" stroke="#bfbfbf" points="122.5,-0.5 122.5,-19.5 167.5,-19.5 167.5,-0.5 122.5,-0.5"/>
<text text-anchor="middle" x="145" y="-7.5" font-family="Helvetica,sans-Serif" font-size="10.00">cstdlib</text>
</g>
<!-- Node5&#45;&gt;Node10 -->
<g id="edge11" class="edge"><title>Node5&#45;&gt;Node10</title>
<path fill="none" stroke="midnightblue" d="M420.983,-61.3979C372.446,-55.1231 271.595,-41.0216 177.561,-20.144"/>
<polygon fill="midnightblue" stroke="midnightblue" points="178.13,-16.6847 167.605,-17.9021 176.592,-23.5137 178.13,-16.6847"/>
</g>
<!-- Node11 -->
<g id="node12" class="node"><title>Node11</title>
<polygon fill="none" stroke="#bfbfbf" points="934.5,-0.5 934.5,-19.5 975.5,-19.5 975.5,-0.5 934.5,-0.5"/>
<text text-anchor="middle" x="955" y="-7.5" font-family="Helvetica,sans-Serif" font-size="10.00">string</text>
</g>
<!-- Node5&#45;&gt;Node11 -->
<g id="edge12" class="edge"><title>Node5&#45;&gt;Node11</title>
<path fill="none" stroke="midnightblue" d="M479.229,-61.6128C494.625,-59.864 513.826,-57.7385 531,-56 702.7,-38.6186 750.6,-52.8807 924.48,-19.6817"/>
<polygon fill="midnightblue" stroke="midnightblue" points="925.326,-23.0831 934.479,-17.7473 923.996,-16.2105 925.326,-23.0831"/>
</g>
<!-- Node12 -->
<g id="node13" class="node"><title>Node12</title>
<polygon fill="none" stroke="#bfbfbf" points="185.5,-0.5 185.5,-19.5 234.5,-19.5 234.5,-0.5 185.5,-0.5"/>
<text text-anchor="middle" x="210" y="-7.5" font-family="Helvetica,sans-Serif" font-size="10.00">fstream</text>
</g>
<!-- Node5&#45;&gt;Node12 -->
<g id="edge13" class="edge"><title>Node5&#45;&gt;Node12</title>
<path fill="none" stroke="midnightblue" d="M420.751,-59.143C382.44,-51.3625 312.958,-36.8801 244.863,-20.3709"/>
<polygon fill="midnightblue" stroke="midnightblue" points="245.375,-16.8932 234.83,-17.921 243.714,-23.6934 245.375,-16.8932"/>
</g>
<!-- Node13 -->
<g id="node14" class="node"><title>Node13</title>
<polygon fill="none" stroke="#bfbfbf" points="252.5,-0.5 252.5,-19.5 301.5,-19.5 301.5,-0.5 252.5,-0.5"/>
<text text-anchor="middle" x="277" y="-7.5" font-family="Helvetica,sans-Serif" font-size="10.00">cassert</text>
</g>
<!-- Node5&#45;&gt;Node13 -->
<g id="edge14" class="edge"><title>Node5&#45;&gt;Node13</title>
<path fill="none" stroke="midnightblue" d="M422.588,-56.4435C392.454,-47.0375 343.993,-31.9112 311.347,-21.7212"/>
<polygon fill="midnightblue" stroke="midnightblue" points="312.35,-18.3677 301.762,-18.729 310.264,-25.0497 312.35,-18.3677"/>
</g>
<!-- Node14 -->
<g id="node15" class="node"><title>Node14</title>
<polygon fill="none" stroke="#bfbfbf" points="319.5,-0.5 319.5,-19.5 378.5,-19.5 378.5,-0.5 319.5,-0.5"/>
<text text-anchor="middle" x="349" y="-7.5" font-family="Helvetica,sans-Serif" font-size="10.00">stdexcept</text>
</g>
<!-- Node5&#45;&gt;Node14 -->
<g id="edge15" class="edge"><title>Node5&#45;&gt;Node14</title>
<path fill="none" stroke="midnightblue" d="M433.773,-56.324C417.649,-47.7034 392.7,-34.3643 374.036,-24.3855"/>
<polygon fill="midnightblue" stroke="midnightblue" points="375.656,-21.283 365.187,-19.6545 372.356,-27.456 375.656,-21.283"/>
</g>
<!-- Node15 -->
<g id="node16" class="node"><title>Node15</title>
<polygon fill="none" stroke="#bfbfbf" points="397,-0.5 397,-19.5 441,-19.5 441,-0.5 397,-0.5"/>
<text text-anchor="middle" x="419" y="-7.5" font-family="Helvetica,sans-Serif" font-size="10.00">thread</text>
</g>
<!-- Node5&#45;&gt;Node15 -->
<g id="edge16" class="edge"><title>Node5&#45;&gt;Node15</title>
<path fill="none" stroke="midnightblue" d="M444.881,-56.083C440.592,-48.6127 434.342,-37.7244 429.058,-28.5199"/>
<polygon fill="midnightblue" stroke="midnightblue" points="432.038,-26.6811 424.024,-19.7511 425.967,-30.1662 432.038,-26.6811"/>
</g>
<!-- Node16 -->
<g id="node17" class="node"><title>Node16</title>
<polygon fill="none" stroke="#bfbfbf" points="459,-0.5 459,-19.5 503,-19.5 503,-0.5 459,-0.5"/>
<text text-anchor="middle" x="481" y="-7.5" font-family="Helvetica,sans-Serif" font-size="10.00">cmath</text>
</g>
<!-- Node5&#45;&gt;Node16 -->
<g id="edge17" class="edge"><title>Node5&#45;&gt;Node16</title>
<path fill="none" stroke="midnightblue" d="M455.119,-56.083C459.408,-48.6127 465.658,-37.7244 470.942,-28.5199"/>
<polygon fill="midnightblue" stroke="midnightblue" points="474.033,-30.1662 475.976,-19.7511 467.962,-26.6811 474.033,-30.1662"/>
</g>
<!-- Node17&#45;&gt;Node5 -->
<g id="edge19" class="edge"><title>Node17&#45;&gt;Node5</title>
<path fill="none" stroke="midnightblue" d="M497.003,-112.324C488.806,-104.42 476.494,-92.5482 466.528,-82.9377"/>
<polygon fill="midnightblue" stroke="midnightblue" points="468.789,-80.2558 459.161,-75.8339 463.93,-85.2947 468.789,-80.2558"/>
</g>
<!-- Node17&#45;&gt;Node9 -->
<g id="edge22" class="edge"><title>Node17&#45;&gt;Node9</title>
<path fill="none" stroke="midnightblue" d="M506.593,-112.161C508.068,-97.8289 513.2,-69.7433 531,-56 585.71,-13.76 766.811,-31.2012 851.836,-19.7611"/>
<polygon fill="midnightblue" stroke="midnightblue" points="852.621,-23.1808 861.957,-18.1725 851.535,-16.2655 852.621,-23.1808"/>
</g>
<!-- Node17&#45;&gt;Node11 -->
<g id="edge20" class="edge"><title>Node17&#45;&gt;Node11</title>
<path fill="none" stroke="midnightblue" d="M510.739,-112.408C519.259,-97.9069 538.66,-68.8979 564,-56 704.75,15.6415 764.368,-48.5622 924.295,-19.664"/>
<polygon fill="midnightblue" stroke="midnightblue" points="925.306,-23.0345 934.474,-17.7243 923.996,-16.1582 925.306,-23.0345"/>
</g>
<!-- Node18 -->
<g id="node19" class="node"><title>Node18</title>
<polygon fill="none" stroke="#bfbfbf" points="573,-56.5 573,-75.5 631,-75.5 631,-56.5 573,-56.5"/>
<text text-anchor="middle" x="602" y="-63.5" font-family="Helvetica,sans-Serif" font-size="10.00">functional</text>
</g>
<!-- Node17&#45;&gt;Node18 -->
<g id="edge21" class="edge"><title>Node17&#45;&gt;Node18</title>
<path fill="none" stroke="midnightblue" d="M521.424,-112.324C536.54,-103.822 559.815,-90.7288 577.471,-80.7975"/>
<polygon fill="midnightblue" stroke="midnightblue" points="579.614,-83.6077 586.614,-75.6545 576.183,-77.5066 579.614,-83.6077"/>
</g>
<!-- Node20&#45;&gt;Node17 -->
<g id="edge27" class="edge"><title>Node20&#45;&gt;Node17</title>
<path fill="none" stroke="midnightblue" d="M500.991,-168.083C501.786,-160.927 502.929,-150.635 503.923,-141.691"/>
<polygon fill="midnightblue" stroke="midnightblue" points="507.402,-142.076 505.028,-131.751 500.445,-141.303 507.402,-142.076"/>
</g>
</g>
</svg>
