<?xml version="1.0" encoding="UTF-8" standalone="no"?>
<!DOCTYPE svg PUBLIC "-//W3C//DTD SVG 1.1//EN"
 "http://www.w3.org/Graphics/SVG/1.1/DTD/svg11.dtd">
<!-- Generated by graphviz version 2.38.0 (20140413.2041)
 -->
<!-- Title: D:/Users/Victor/OneDrive/Documents/Visual Studio 2017/Projects/Jeu_de_Go/Jeu_de_Go/Sources/Graphics/Menu.cpp Pages: 1 -->
<svg width="983pt" height="296pt"
 viewBox="0.00 0.00 982.50 296.00" xmlns="http://www.w3.org/2000/svg" xmlns:xlink="http://www.w3.org/1999/xlink">
<g id="graph0" class="graph" transform="scale(1 1) rotate(0) translate(4 292)">
<title>D:/Users/Victor/OneDrive/Documents/Visual Studio 2017/Projects/Jeu_de_Go/Jeu_de_Go/Sources/Graphics/Menu.cpp</title>
<!-- Node0 -->
<g id="node1" class="node"><title>Node0</title>
<polygon fill="#bfbfbf" stroke="black" points="504.5,-224.5 504.5,-287.5 653.5,-287.5 653.5,-224.5 504.5,-224.5"/>
<text text-anchor="start" x="512.5" y="-275.5" font-family="Helvetica,sans-Serif" font-size="10.00">D:/Users/Victor/OneDrive</text>
<text text-anchor="start" x="512.5" y="-264.5" font-family="Helvetica,sans-Serif" font-size="10.00">/Documents/Visual Studio</text>
<text text-anchor="start" x="512.5" y="-253.5" font-family="Helvetica,sans-Serif" font-size="10.00"> 2017/Projects/Jeu_de_Go</text>
<text text-anchor="start" x="512.5" y="-242.5" font-family="Helvetica,sans-Serif" font-size="10.00">/Jeu_de_Go/Sources/Graphics</text>
<text text-anchor="middle" x="579" y="-231.5" font-family="Helvetica,sans-Serif" font-size="10.00">/Menu.cpp</text>
</g>
<!-- Node1 -->
<g id="node2" class="node"><title>Node1</title>
<g id="a_node2"><a xlink:href="_menu_8h.html" target="_top" xlink:title="Menu.h">
<polygon fill="none" stroke="black" points="554.5,-168.5 554.5,-187.5 603.5,-187.5 603.5,-168.5 554.5,-168.5"/>
<text text-anchor="middle" x="579" y="-175.5" font-family="Helvetica,sans-Serif" font-size="10.00">Menu.h</text>
</a>
</g>
</g>
<!-- Node0&#45;&gt;Node1 -->
<g id="edge1" class="edge"><title>Node0&#45;&gt;Node1</title>
<path fill="none" stroke="midnightblue" d="M579,-224.088C579,-215.15 579,-205.669 579,-197.719"/>
<polygon fill="midnightblue" stroke="midnightblue" points="582.5,-197.718 579,-187.718 575.5,-197.718 582.5,-197.718"/>
</g>
<!-- Node2 -->
<g id="node3" class="node"><title>Node2</title>
<g id="a_node3"><a xlink:href="_screen_8h.html" target="_top" xlink:title="Screen.h">
<polygon fill="none" stroke="black" points="495,-112.5 495,-131.5 551,-131.5 551,-112.5 495,-112.5"/>
<text text-anchor="middle" x="523" y="-119.5" font-family="Helvetica,sans-Serif" font-size="10.00">Screen.h</text>
</a>
</g>
</g>
<!-- Node1&#45;&gt;Node2 -->
<g id="edge2" class="edge"><title>Node1&#45;&gt;Node2</title>
<path fill="none" stroke="midnightblue" d="M570.003,-168.324C561.806,-160.42 549.494,-148.548 539.528,-138.938"/>
<polygon fill="midnightblue" stroke="midnightblue" points="541.789,-136.256 532.161,-131.834 536.93,-141.295 541.789,-136.256"/>
</g>
<!-- Node3 -->
<g id="node4" class="node"><title>Node3</title>
<polygon fill="none" stroke="#bfbfbf" points="0,-0.5 0,-19.5 104,-19.5 104,-0.5 0,-0.5"/>
<text text-anchor="middle" x="52" y="-7.5" font-family="Helvetica,sans-Serif" font-size="10.00">SFML/Graphics.hpp</text>
</g>
<!-- Node1&#45;&gt;Node3 -->
<g id="edge24" class="edge"><title>Node1&#45;&gt;Node3</title>
<path fill="none" stroke="midnightblue" d="M554.289,-169.216C469.494,-142.507 190.03,-54.4781 88.9221,-22.6301"/>
<polygon fill="midnightblue" stroke="midnightblue" points="89.7407,-19.2185 79.1511,-19.5523 87.6375,-25.8951 89.7407,-19.2185"/>
</g>
<!-- Node4 -->
<g id="node5" class="node"><title>Node4</title>
<g id="a_node5"><a xlink:href="_globals_8h.html" target="_top" xlink:title="Globals.h">
<polygon fill="none" stroke="black" points="550,-56.5 550,-75.5 608,-75.5 608,-56.5 550,-56.5"/>
<text text-anchor="middle" x="579" y="-63.5" font-family="Helvetica,sans-Serif" font-size="10.00">Globals.h</text>
</a>
</g>
</g>
<!-- Node1&#45;&gt;Node4 -->
<g id="edge22" class="edge"><title>Node1&#45;&gt;Node4</title>
<path fill="none" stroke="midnightblue" d="M579,-168.368C579,-150.617 579,-109.666 579,-85.5974"/>
<polygon fill="midnightblue" stroke="midnightblue" points="582.5,-85.5914 579,-75.5914 575.5,-85.5915 582.5,-85.5914"/>
</g>
<!-- Node16 -->
<g id="node17" class="node"><title>Node16</title>
<g id="a_node17"><a xlink:href="_choice_8h.html" target="_top" xlink:title="Choice.h">
<polygon fill="none" stroke="black" points="607.5,-112.5 607.5,-131.5 662.5,-131.5 662.5,-112.5 607.5,-112.5"/>
<text text-anchor="middle" x="635" y="-119.5" font-family="Helvetica,sans-Serif" font-size="10.00">Choice.h</text>
</a>
</g>
</g>
<!-- Node1&#45;&gt;Node16 -->
<g id="edge17" class="edge"><title>Node1&#45;&gt;Node16</title>
<path fill="none" stroke="midnightblue" d="M587.997,-168.324C596.194,-160.42 608.506,-148.548 618.472,-138.938"/>
<polygon fill="midnightblue" stroke="midnightblue" points="621.07,-141.295 625.839,-131.834 616.211,-136.256 621.07,-141.295"/>
</g>
<!-- Node18 -->
<g id="node19" class="node"><title>Node18</title>
<polygon fill="none" stroke="#bfbfbf" points="681,-112.5 681,-131.5 723,-131.5 723,-112.5 681,-112.5"/>
<text text-anchor="middle" x="702" y="-119.5" font-family="Helvetica,sans-Serif" font-size="10.00">vector</text>
</g>
<!-- Node1&#45;&gt;Node18 -->
<g id="edge23" class="edge"><title>Node1&#45;&gt;Node18</title>
<path fill="none" stroke="midnightblue" d="M598.49,-168.444C618.642,-159.596 650.323,-145.687 673.331,-135.586"/>
<polygon fill="midnightblue" stroke="midnightblue" points="674.852,-138.741 682.601,-131.516 672.038,-132.332 674.852,-138.741"/>
</g>
<!-- Node2&#45;&gt;Node3 -->
<g id="edge3" class="edge"><title>Node2&#45;&gt;Node3</title>
<path fill="none" stroke="midnightblue" d="M495.223,-112.422C451.745,-99.1844 364.838,-73.4804 290,-56 230.743,-42.1591 162.432,-29.5872 114.236,-21.2722"/>
<polygon fill="midnightblue" stroke="midnightblue" points="114.715,-17.8033 104.267,-19.5635 113.532,-24.7027 114.715,-17.8033"/>
</g>
<!-- Node2&#45;&gt;Node4 -->
<g id="edge4" class="edge"><title>Node2&#45;&gt;Node4</title>
<path fill="none" stroke="midnightblue" d="M531.997,-112.324C540.194,-104.42 552.506,-92.5482 562.472,-82.9377"/>
<polygon fill="midnightblue" stroke="midnightblue" points="565.07,-85.2947 569.839,-75.8339 560.211,-80.2558 565.07,-85.2947"/>
</g>
<!-- Node4&#45;&gt;Node3 -->
<g id="edge5" class="edge"><title>Node4&#45;&gt;Node3</title>
<path fill="none" stroke="midnightblue" d="M549.773,-62.691C477.665,-56.8848 285.305,-40.7316 114.162,-20.088"/>
<polygon fill="midnightblue" stroke="midnightblue" points="114.569,-16.6118 104.22,-18.8807 113.725,-23.5607 114.569,-16.6118"/>
</g>
<!-- Node5 -->
<g id="node6" class="node"><title>Node5</title>
<polygon fill="none" stroke="#bfbfbf" points="184,-0.5 184,-19.5 282,-19.5 282,-0.5 184,-0.5"/>
<text text-anchor="middle" x="233" y="-7.5" font-family="Helvetica,sans-Serif" font-size="10.00">SFML/System.hpp</text>
</g>
<!-- Node4&#45;&gt;Node5 -->
<g id="edge6" class="edge"><title>Node4&#45;&gt;Node5</title>
<path fill="none" stroke="midnightblue" d="M549.798,-60.4425C493.159,-51.6028 367.379,-31.9724 292.464,-20.2805"/>
<polygon fill="midnightblue" stroke="midnightblue" points="292.663,-16.7693 282.243,-18.6854 291.584,-23.6856 292.663,-16.7693"/>
</g>
<!-- Node6 -->
<g id="node7" class="node"><title>Node6</title>
<polygon fill="none" stroke="#bfbfbf" points="300.5,-0.5 300.5,-19.5 399.5,-19.5 399.5,-0.5 300.5,-0.5"/>
<text text-anchor="middle" x="350" y="-7.5" font-family="Helvetica,sans-Serif" font-size="10.00">SFML/Window.hpp</text>
</g>
<!-- Node4&#45;&gt;Node6 -->
<g id="edge7" class="edge"><title>Node4&#45;&gt;Node6</title>
<path fill="none" stroke="midnightblue" d="M549.997,-58.1609C511.283,-49.0318 442.272,-32.7584 396.314,-21.9213"/>
<polygon fill="midnightblue" stroke="midnightblue" points="396.842,-18.4498 386.305,-19.5611 395.235,-25.2629 396.842,-18.4498"/>
</g>
<!-- Node7 -->
<g id="node8" class="node"><title>Node7</title>
<polygon fill="none" stroke="#bfbfbf" points="417.5,-0.5 417.5,-19.5 506.5,-19.5 506.5,-0.5 417.5,-0.5"/>
<text text-anchor="middle" x="462" y="-7.5" font-family="Helvetica,sans-Serif" font-size="10.00">SFML/Audio.hpp</text>
</g>
<!-- Node4&#45;&gt;Node7 -->
<g id="edge8" class="edge"><title>Node4&#45;&gt;Node7</title>
<path fill="none" stroke="midnightblue" d="M560.461,-56.4435C541.377,-47.6356 511.425,-33.8116 489.564,-23.722"/>
<polygon fill="midnightblue" stroke="midnightblue" points="490.999,-20.5292 480.452,-19.5164 488.065,-26.8849 490.999,-20.5292"/>
</g>
<!-- Node8 -->
<g id="node9" class="node"><title>Node8</title>
<polygon fill="none" stroke="#bfbfbf" points="861,-0.5 861,-19.5 915,-19.5 915,-0.5 861,-0.5"/>
<text text-anchor="middle" x="888" y="-7.5" font-family="Helvetica,sans-Serif" font-size="10.00">iostream</text>
</g>
<!-- Node4&#45;&gt;Node8 -->
<g id="edge9" class="edge"><title>Node4&#45;&gt;Node8</title>
<path fill="none" stroke="midnightblue" d="M608.105,-58.6984C612.745,-57.7544 617.498,-56.8228 622,-56 720.6,-37.9771 748.849,-40.3909 850.828,-20.0813"/>
<polygon fill="midnightblue" stroke="midnightblue" points="851.822,-23.4515 860.932,-18.0434 850.438,-16.5896 851.822,-23.4515"/>
</g>
<!-- Node9 -->
<g id="node10" class="node"><title>Node9</title>
<polygon fill="none" stroke="#bfbfbf" points="524.5,-0.5 524.5,-19.5 569.5,-19.5 569.5,-0.5 524.5,-0.5"/>
<text text-anchor="middle" x="547" y="-7.5" font-family="Helvetica,sans-Serif" font-size="10.00">cstdlib</text>
</g>
<!-- Node4&#45;&gt;Node9 -->
<g id="edge10" class="edge"><title>Node4&#45;&gt;Node9</title>
<path fill="none" stroke="midnightblue" d="M573.716,-56.083C569.289,-48.6127 562.837,-37.7244 557.382,-28.5199"/>
<polygon fill="midnightblue" stroke="midnightblue" points="560.295,-26.5697 552.186,-19.7511 554.273,-30.1383 560.295,-26.5697"/>
</g>
<!-- Node10 -->
<g id="node11" class="node"><title>Node10</title>
<polygon fill="none" stroke="#bfbfbf" points="933.5,-0.5 933.5,-19.5 974.5,-19.5 974.5,-0.5 933.5,-0.5"/>
<text text-anchor="middle" x="954" y="-7.5" font-family="Helvetica,sans-Serif" font-size="10.00">string</text>
</g>
<!-- Node4&#45;&gt;Node10 -->
<g id="edge11" class="edge"><title>Node4&#45;&gt;Node10</title>
<path fill="none" stroke="midnightblue" d="M608.199,-61.8075C676.77,-54.2157 847.399,-34.7514 923.384,-19.7289"/>
<polygon fill="midnightblue" stroke="midnightblue" points="924.376,-23.0977 933.457,-17.6403 922.955,-16.2435 924.376,-23.0977"/>
</g>
<!-- Node11 -->
<g id="node12" class="node"><title>Node11</title>
<polygon fill="none" stroke="#bfbfbf" points="587.5,-0.5 587.5,-19.5 636.5,-19.5 636.5,-0.5 587.5,-0.5"/>
<text text-anchor="middle" x="612" y="-7.5" font-family="Helvetica,sans-Serif" font-size="10.00">fstream</text>
</g>
<!-- Node4&#45;&gt;Node11 -->
<g id="edge12" class="edge"><title>Node4&#45;&gt;Node11</title>
<path fill="none" stroke="midnightblue" d="M584.449,-56.083C589.014,-48.6127 595.668,-37.7244 601.293,-28.5199"/>
<polygon fill="midnightblue" stroke="midnightblue" points="604.424,-30.109 606.652,-19.7511 598.451,-26.4588 604.424,-30.109"/>
</g>
<!-- Node12 -->
<g id="node13" class="node"><title>Node12</title>
<polygon fill="none" stroke="#bfbfbf" points="654.5,-0.5 654.5,-19.5 703.5,-19.5 703.5,-0.5 654.5,-0.5"/>
<text text-anchor="middle" x="679" y="-7.5" font-family="Helvetica,sans-Serif" font-size="10.00">cassert</text>
</g>
<!-- Node4&#45;&gt;Node12 -->
<g id="edge13" class="edge"><title>Node4&#45;&gt;Node12</title>
<path fill="none" stroke="midnightblue" d="M595.067,-56.324C610.958,-47.7428 635.507,-34.486 653.958,-24.5224"/>
<polygon fill="midnightblue" stroke="midnightblue" points="655.837,-27.4857 662.973,-19.6545 652.511,-21.3264 655.837,-27.4857"/>
</g>
<!-- Node13 -->
<g id="node14" class="node"><title>Node13</title>
<polygon fill="none" stroke="#bfbfbf" points="721.5,-0.5 721.5,-19.5 780.5,-19.5 780.5,-0.5 721.5,-0.5"/>
<text text-anchor="middle" x="751" y="-7.5" font-family="Helvetica,sans-Serif" font-size="10.00">stdexcept</text>
</g>
<!-- Node4&#45;&gt;Node13 -->
<g id="edge14" class="edge"><title>Node4&#45;&gt;Node13</title>
<path fill="none" stroke="midnightblue" d="M606.254,-56.4435C635.441,-47.2801 681.921,-32.6876 714.309,-22.5192"/>
<polygon fill="midnightblue" stroke="midnightblue" points="715.381,-25.8512 723.874,-19.5164 713.284,-19.1726 715.381,-25.8512"/>
</g>
<!-- Node14 -->
<g id="node15" class="node"><title>Node14</title>
<polygon fill="none" stroke="#bfbfbf" points="799,-0.5 799,-19.5 843,-19.5 843,-0.5 799,-0.5"/>
<text text-anchor="middle" x="821" y="-7.5" font-family="Helvetica,sans-Serif" font-size="10.00">thread</text>
</g>
<!-- Node4&#45;&gt;Node14 -->
<g id="edge15" class="edge"><title>Node4&#45;&gt;Node14</title>
<path fill="none" stroke="midnightblue" d="M608.28,-58.8787C656.773,-48.7241 751.478,-28.8184 788.75,-20.0957"/>
<polygon fill="midnightblue" stroke="midnightblue" points="789.808,-23.4407 798.702,-17.6831 788.158,-16.6377 789.808,-23.4407"/>
</g>
<!-- Node15 -->
<g id="node16" class="node"><title>Node15</title>
<polygon fill="none" stroke="#bfbfbf" points="122,-0.5 122,-19.5 166,-19.5 166,-0.5 122,-0.5"/>
<text text-anchor="middle" x="144" y="-7.5" font-family="Helvetica,sans-Serif" font-size="10.00">cmath</text>
</g>
<!-- Node4&#45;&gt;Node15 -->
<g id="edge16" class="edge"><title>Node4&#45;&gt;Node15</title>
<path fill="none" stroke="midnightblue" d="M549.835,-63.472C484.487,-59.6833 321.318,-48.1915 176.21,-19.9267"/>
<polygon fill="midnightblue" stroke="midnightblue" points="176.727,-16.4611 166.238,-17.9516 175.367,-23.3278 176.727,-16.4611"/>
</g>
<!-- Node16&#45;&gt;Node4 -->
<g id="edge18" class="edge"><title>Node16&#45;&gt;Node4</title>
<path fill="none" stroke="midnightblue" d="M626.003,-112.324C617.806,-104.42 605.494,-92.5482 595.528,-82.9377"/>
<polygon fill="midnightblue" stroke="midnightblue" points="597.789,-80.2558 588.161,-75.8339 592.93,-85.2947 597.789,-80.2558"/>
</g>
<!-- Node16&#45;&gt;Node8 -->
<g id="edge21" class="edge"><title>Node16&#45;&gt;Node8</title>
<path fill="none" stroke="midnightblue" d="M635.709,-112.306C637.353,-98.1839 642.72,-70.3924 660,-56 724.301,-2.44352 764.223,-35.9057 850.958,-19.9637"/>
<polygon fill="midnightblue" stroke="midnightblue" points="851.803,-23.3638 860.914,-17.9554 850.419,-16.502 851.803,-23.3638"/>
</g>
<!-- Node16&#45;&gt;Node10 -->
<g id="edge19" class="edge"><title>Node16&#45;&gt;Node10</title>
<path fill="none" stroke="midnightblue" d="M640.096,-112.094C648.87,-97.6673 668.292,-69.4477 693,-56 781.502,-7.83234 820.294,-40.8422 923.577,-19.7128"/>
<polygon fill="midnightblue" stroke="midnightblue" points="924.412,-23.1131 933.442,-17.5715 922.927,-16.2724 924.412,-23.1131"/>
</g>
<!-- Node17 -->
<g id="node18" class="node"><title>Node17</title>
<polygon fill="none" stroke="#bfbfbf" points="702,-56.5 702,-75.5 760,-75.5 760,-56.5 702,-56.5"/>
<text text-anchor="middle" x="731" y="-63.5" font-family="Helvetica,sans-Serif" font-size="10.00">functional</text>
</g>
<!-- Node16&#45;&gt;Node17 -->
<g id="edge20" class="edge"><title>Node16&#45;&gt;Node17</title>
<path fill="none" stroke="midnightblue" d="M650.424,-112.324C665.54,-103.822 688.815,-90.7288 706.471,-80.7975"/>
<polygon fill="midnightblue" stroke="midnightblue" points="708.614,-83.6077 715.614,-75.6545 705.183,-77.5066 708.614,-83.6077"/>
</g>
</g>
</svg>
