<?xml version="1.0" encoding="UTF-8" standalone="no"?>
<!DOCTYPE svg PUBLIC "-//W3C//DTD SVG 1.1//EN"
 "http://www.w3.org/Graphics/SVG/1.1/DTD/svg11.dtd">
<!-- Generated by graphviz version 2.38.0 (20140413.2041)
 -->
<!-- Title: D:/Users/Victor/OneDrive/Documents/Visual Studio 2017/Projects/Jeu_de_Go/Jeu_de_Go/Sources/Engine/Parser.cpp Pages: 1 -->
<svg width="984pt" height="352pt"
 viewBox="0.00 0.00 983.50 352.00" xmlns="http://www.w3.org/2000/svg" xmlns:xlink="http://www.w3.org/1999/xlink">
<g id="graph0" class="graph" transform="scale(1 1) rotate(0) translate(4 348)">
<title>D:/Users/Victor/OneDrive/Documents/Visual Studio 2017/Projects/Jeu_de_Go/Jeu_de_Go/Sources/Engine/Parser.cpp</title>
<!-- Node0 -->
<g id="node1" class="node"><title>Node0</title>
<polygon fill="#bfbfbf" stroke="black" points="620,-280.5 620,-343.5 760,-343.5 760,-280.5 620,-280.5"/>
<text text-anchor="start" x="628" y="-331.5" font-family="Helvetica,sans-Serif" font-size="10.00">D:/Users/Victor/OneDrive</text>
<text text-anchor="start" x="628" y="-320.5" font-family="Helvetica,sans-Serif" font-size="10.00">/Documents/Visual Studio</text>
<text text-anchor="start" x="628" y="-309.5" font-family="Helvetica,sans-Serif" font-size="10.00"> 2017/Projects/Jeu_de_Go</text>
<text text-anchor="start" x="628" y="-298.5" font-family="Helvetica,sans-Serif" font-size="10.00">/Jeu_de_Go/Sources/Engine</text>
<text text-anchor="middle" x="690" y="-287.5" font-family="Helvetica,sans-Serif" font-size="10.00">/Parser.cpp</text>
</g>
<!-- Node1 -->
<g id="node2" class="node"><title>Node1</title>
<g id="a_node2"><a xlink:href="_parser_8h.html" target="_top" xlink:title="Parser.h">
<polygon fill="none" stroke="black" points="663.5,-224.5 663.5,-243.5 716.5,-243.5 716.5,-224.5 663.5,-224.5"/>
<text text-anchor="middle" x="690" y="-231.5" font-family="Helvetica,sans-Serif" font-size="10.00">Parser.h</text>
</a>
</g>
</g>
<!-- Node0&#45;&gt;Node1 -->
<g id="edge1" class="edge"><title>Node0&#45;&gt;Node1</title>
<path fill="none" stroke="midnightblue" d="M690,-280.088C690,-271.15 690,-261.669 690,-253.719"/>
<polygon fill="midnightblue" stroke="midnightblue" points="693.5,-253.718 690,-243.718 686.5,-253.718 693.5,-253.718"/>
</g>
<!-- Node2 -->
<g id="node3" class="node"><title>Node2</title>
<polygon fill="none" stroke="#bfbfbf" points="0,-0.5 0,-19.5 54,-19.5 54,-0.5 0,-0.5"/>
<text text-anchor="middle" x="27" y="-7.5" font-family="Helvetica,sans-Serif" font-size="10.00">iostream</text>
</g>
<!-- Node1&#45;&gt;Node2 -->
<g id="edge2" class="edge"><title>Node1&#45;&gt;Node2</title>
<path fill="none" stroke="midnightblue" d="M663.213,-232.251C579.527,-229.603 324.029,-219.108 248,-188 157.023,-150.776 73.3296,-63.7069 41.0518,-27.3762"/>
<polygon fill="midnightblue" stroke="midnightblue" points="43.5238,-24.8863 34.3028,-19.6685 38.2573,-29.4977 43.5238,-24.8863"/>
</g>
<!-- Node3 -->
<g id="node4" class="node"><title>Node3</title>
<polygon fill="none" stroke="#bfbfbf" points="867.5,-0.5 867.5,-19.5 916.5,-19.5 916.5,-0.5 867.5,-0.5"/>
<text text-anchor="middle" x="892" y="-7.5" font-family="Helvetica,sans-Serif" font-size="10.00">fstream</text>
</g>
<!-- Node1&#45;&gt;Node3 -->
<g id="edge3" class="edge"><title>Node1&#45;&gt;Node3</title>
<path fill="none" stroke="midnightblue" d="M689.302,-224.206C687.548,-195.679 686.053,-104.741 733,-56 735.215,-53.7009 811.249,-32.8353 857.357,-20.3394"/>
<polygon fill="midnightblue" stroke="midnightblue" points="858.521,-23.6502 867.26,-17.6594 856.693,-16.8933 858.521,-23.6502"/>
</g>
<!-- Node4 -->
<g id="node5" class="node"><title>Node4</title>
<polygon fill="none" stroke="#bfbfbf" points="775,-168.5 775,-187.5 821,-187.5 821,-168.5 775,-168.5"/>
<text text-anchor="middle" x="798" y="-175.5" font-family="Helvetica,sans-Serif" font-size="10.00">stdio.h</text>
</g>
<!-- Node1&#45;&gt;Node4 -->
<g id="edge4" class="edge"><title>Node1&#45;&gt;Node4</title>
<path fill="none" stroke="midnightblue" d="M707.352,-224.324C724.672,-215.664 751.515,-202.242 771.502,-192.249"/>
<polygon fill="midnightblue" stroke="midnightblue" points="773.312,-195.257 780.691,-187.655 770.181,-188.996 773.312,-195.257"/>
</g>
<!-- Node5 -->
<g id="node6" class="node"><title>Node5</title>
<g id="a_node6"><a xlink:href="_etat_8h.html" target="_top" xlink:title="Etat.h">
<polygon fill="none" stroke="black" points="183.5,-56.5 183.5,-75.5 226.5,-75.5 226.5,-56.5 183.5,-56.5"/>
<text text-anchor="middle" x="205" y="-63.5" font-family="Helvetica,sans-Serif" font-size="10.00">Etat.h</text>
</a>
</g>
</g>
<!-- Node1&#45;&gt;Node5 -->
<g id="edge5" class="edge"><title>Node1&#45;&gt;Node5</title>
<path fill="none" stroke="midnightblue" d="M663.111,-231.151C607.02,-226.886 473.719,-214.617 365,-188 293.042,-170.383 252.073,-191.548 208,-132 198.243,-118.817 198.588,-99.6798 200.715,-85.5828"/>
<polygon fill="midnightblue" stroke="midnightblue" points="204.189,-86.0493 202.644,-75.5678 197.316,-84.7254 204.189,-86.0493"/>
</g>
<!-- Node6 -->
<g id="node7" class="node"><title>Node6</title>
<g id="a_node7"><a xlink:href="_goban_8h.html" target="_top" xlink:title="Goban.h">
<polygon fill="none" stroke="black" points="374.5,-168.5 374.5,-187.5 427.5,-187.5 427.5,-168.5 374.5,-168.5"/>
<text text-anchor="middle" x="401" y="-175.5" font-family="Helvetica,sans-Serif" font-size="10.00">Goban.h</text>
</a>
</g>
</g>
<!-- Node1&#45;&gt;Node6 -->
<g id="edge7" class="edge"><title>Node1&#45;&gt;Node6</title>
<path fill="none" stroke="midnightblue" d="M663.33,-228.017C611.392,-218.312 496.616,-196.866 437.606,-185.84"/>
<polygon fill="midnightblue" stroke="midnightblue" points="438.079,-182.368 427.606,-183.971 436.793,-189.249 438.079,-182.368"/>
</g>
<!-- Node11 -->
<g id="node12" class="node"><title>Node11</title>
<g id="a_node12"><a xlink:href="_globals_8h.html" target="_top" xlink:title="../Graphics/Globals.h">
<polygon fill="none" stroke="black" points="495.5,-56.5 495.5,-75.5 604.5,-75.5 604.5,-56.5 495.5,-56.5"/>
<text text-anchor="middle" x="550" y="-63.5" font-family="Helvetica,sans-Serif" font-size="10.00">../Graphics/Globals.h</text>
</a>
</g>
</g>
<!-- Node1&#45;&gt;Node11 -->
<g id="edge32" class="edge"><title>Node1&#45;&gt;Node11</title>
<path fill="none" stroke="midnightblue" d="M682.473,-224.075C659.959,-197.38 592.898,-117.865 563.765,-83.3218"/>
<polygon fill="midnightblue" stroke="midnightblue" points="566.349,-80.956 557.226,-75.5681 560.998,-85.4689 566.349,-80.956"/>
</g>
<!-- Node17 -->
<g id="node18" class="node"><title>Node17</title>
<polygon fill="none" stroke="#bfbfbf" points="934.5,-0.5 934.5,-19.5 975.5,-19.5 975.5,-0.5 934.5,-0.5"/>
<text text-anchor="middle" x="955" y="-7.5" font-family="Helvetica,sans-Serif" font-size="10.00">string</text>
</g>
<!-- Node1&#45;&gt;Node17 -->
<g id="edge33" class="edge"><title>Node1&#45;&gt;Node17</title>
<path fill="none" stroke="midnightblue" d="M700.286,-224.122C714.858,-211.562 742.37,-187.918 766,-168 827.977,-115.76 902.078,-54.5717 936.158,-26.501"/>
<polygon fill="midnightblue" stroke="midnightblue" points="938.803,-28.8572 944.298,-19.7991 934.354,-23.453 938.803,-28.8572"/>
</g>
<!-- Node22 -->
<g id="node23" class="node"><title>Node22</title>
<polygon fill="none" stroke="#bfbfbf" points="839.5,-168.5 839.5,-187.5 880.5,-187.5 880.5,-168.5 839.5,-168.5"/>
<text text-anchor="middle" x="860" y="-175.5" font-family="Helvetica,sans-Serif" font-size="10.00">regex</text>
</g>
<!-- Node1&#45;&gt;Node22 -->
<g id="edge34" class="edge"><title>Node1&#45;&gt;Node22</title>
<path fill="none" stroke="midnightblue" d="M716.563,-224.563C747.235,-214.82 797.583,-198.826 829.741,-188.612"/>
<polygon fill="midnightblue" stroke="midnightblue" points="831.023,-191.877 839.494,-185.514 828.904,-185.205 831.023,-191.877"/>
</g>
<!-- Node5&#45;&gt;Node2 -->
<g id="edge6" class="edge"><title>Node5&#45;&gt;Node2</title>
<path fill="none" stroke="midnightblue" d="M183.174,-58.3785C153.474,-49.3685 99.9143,-33.1201 63.9081,-22.1968"/>
<polygon fill="midnightblue" stroke="midnightblue" points="64.8378,-18.8214 54.2524,-19.2676 62.8056,-25.52 64.8378,-18.8214"/>
</g>
<!-- Node6&#45;&gt;Node2 -->
<g id="edge8" class="edge"><title>Node6&#45;&gt;Node2</title>
<path fill="none" stroke="midnightblue" d="M404.239,-168.212C411.993,-145.465 428.654,-84.4529 396,-56 342.02,-8.96542 151.572,-31.1885 63.9504,-19.7114"/>
<polygon fill="midnightblue" stroke="midnightblue" points="64.4576,-16.2483 54.0409,-18.1832 63.3906,-23.1665 64.4576,-16.2483"/>
</g>
<!-- Node6&#45;&gt;Node5 -->
<g id="edge11" class="edge"><title>Node6&#45;&gt;Node5</title>
<path fill="none" stroke="midnightblue" d="M374.32,-177.936C335.888,-177.781 265.064,-171.635 224,-132 211.585,-120.017 207.16,-100.41 205.644,-85.8588"/>
<polygon fill="midnightblue" stroke="midnightblue" points="209.112,-85.2609 204.956,-75.5156 202.128,-85.7261 209.112,-85.2609"/>
</g>
<!-- Node7 -->
<g id="node8" class="node"><title>Node7</title>
<polygon fill="none" stroke="#bfbfbf" points="805,-0.5 805,-19.5 849,-19.5 849,-0.5 805,-0.5"/>
<text text-anchor="middle" x="827" y="-7.5" font-family="Helvetica,sans-Serif" font-size="10.00">cmath</text>
</g>
<!-- Node6&#45;&gt;Node7 -->
<g id="edge9" class="edge"><title>Node6&#45;&gt;Node7</title>
<path fill="none" stroke="midnightblue" d="M420.794,-168.356C467.92,-147.885 590.632,-95.224 695,-56 728.963,-43.2357 768.395,-29.9954 795.256,-21.2102"/>
<polygon fill="midnightblue" stroke="midnightblue" points="796.472,-24.4952 804.897,-18.0716 794.305,-17.839 796.472,-24.4952"/>
</g>
<!-- Node8 -->
<g id="node9" class="node"><title>Node8</title>
<polygon fill="none" stroke="#bfbfbf" points="270,-56.5 270,-75.5 312,-75.5 312,-56.5 270,-56.5"/>
<text text-anchor="middle" x="291" y="-63.5" font-family="Helvetica,sans-Serif" font-size="10.00">vector</text>
</g>
<!-- Node6&#45;&gt;Node8 -->
<g id="edge10" class="edge"><title>Node6&#45;&gt;Node8</title>
<path fill="none" stroke="midnightblue" d="M385.384,-168.379C371.432,-160.195 350.946,-146.946 336,-132 321.786,-117.786 309.108,-98.5625 300.86,-84.7126"/>
<polygon fill="midnightblue" stroke="midnightblue" points="303.706,-82.641 295.679,-75.726 297.642,-86.1375 303.706,-82.641"/>
</g>
<!-- Node9 -->
<g id="node10" class="node"><title>Node9</title>
<g id="a_node10"><a xlink:href="_groupe_8h.html" target="_top" xlink:title="Groupe.h">
<polygon fill="none" stroke="black" points="233,-112.5 233,-131.5 289,-131.5 289,-112.5 233,-112.5"/>
<text text-anchor="middle" x="261" y="-119.5" font-family="Helvetica,sans-Serif" font-size="10.00">Groupe.h</text>
</a>
</g>
</g>
<!-- Node6&#45;&gt;Node9 -->
<g id="edge12" class="edge"><title>Node6&#45;&gt;Node9</title>
<path fill="none" stroke="midnightblue" d="M378.817,-168.444C355.572,-159.478 318.851,-145.314 292.585,-135.183"/>
<polygon fill="midnightblue" stroke="midnightblue" points="293.669,-131.85 283.08,-131.516 291.15,-138.381 293.669,-131.85"/>
</g>
<!-- Node10 -->
<g id="node11" class="node"><title>Node10</title>
<g id="a_node11"><a xlink:href="_history_8h.html" target="_top" xlink:title="History.h">
<polygon fill="none" stroke="black" points="345,-112.5 345,-131.5 401,-131.5 401,-112.5 345,-112.5"/>
<text text-anchor="middle" x="373" y="-119.5" font-family="Helvetica,sans-Serif" font-size="10.00">History.h</text>
</a>
</g>
</g>
<!-- Node6&#45;&gt;Node10 -->
<g id="edge15" class="edge"><title>Node6&#45;&gt;Node10</title>
<path fill="none" stroke="midnightblue" d="M396.376,-168.083C392.544,-160.691 386.976,-149.953 382.235,-140.811"/>
<polygon fill="midnightblue" stroke="midnightblue" points="385.248,-139.018 377.538,-131.751 379.034,-142.24 385.248,-139.018"/>
</g>
<!-- Node19 -->
<g id="node20" class="node"><title>Node19</title>
<polygon fill="none" stroke="#bfbfbf" points="72.5,-0.5 72.5,-19.5 131.5,-19.5 131.5,-0.5 72.5,-0.5"/>
<text text-anchor="middle" x="102" y="-7.5" font-family="Helvetica,sans-Serif" font-size="10.00">stdexcept</text>
</g>
<!-- Node6&#45;&gt;Node19 -->
<g id="edge31" class="edge"><title>Node6&#45;&gt;Node19</title>
<path fill="none" stroke="midnightblue" d="M413.214,-168.236C423.354,-160.143 437.043,-147.112 443,-132 455.386,-100.575 465.426,-81.2585 443,-56 400.055,-7.6316 223.687,-29.5095 142.134,-19.7305"/>
<polygon fill="midnightblue" stroke="midnightblue" points="142.144,-16.195 131.743,-18.2127 141.132,-23.1215 142.144,-16.195"/>
</g>
<!-- Node9&#45;&gt;Node5 -->
<g id="edge14" class="edge"><title>Node9&#45;&gt;Node5</title>
<path fill="none" stroke="midnightblue" d="M252.003,-112.324C243.806,-104.42 231.494,-92.5482 221.528,-82.9377"/>
<polygon fill="midnightblue" stroke="midnightblue" points="223.789,-80.2558 214.161,-75.8339 218.93,-85.2947 223.789,-80.2558"/>
</g>
<!-- Node9&#45;&gt;Node8 -->
<g id="edge13" class="edge"><title>Node9&#45;&gt;Node8</title>
<path fill="none" stroke="midnightblue" d="M265.954,-112.083C270.104,-104.613 276.153,-93.7244 281.267,-84.5199"/>
<polygon fill="midnightblue" stroke="midnightblue" points="284.341,-86.1924 286.138,-75.7511 278.222,-82.7929 284.341,-86.1924"/>
</g>
<!-- Node10&#45;&gt;Node5 -->
<g id="edge29" class="edge"><title>Node10&#45;&gt;Node5</title>
<path fill="none" stroke="midnightblue" d="M346.38,-112.444C316.492,-102.837 268.038,-87.2622 236.344,-77.0749"/>
<polygon fill="midnightblue" stroke="midnightblue" points="237.279,-73.699 226.687,-73.971 235.137,-80.3632 237.279,-73.699"/>
</g>
<!-- Node10&#45;&gt;Node11 -->
<g id="edge16" class="edge"><title>Node10&#45;&gt;Node11</title>
<path fill="none" stroke="midnightblue" d="M401.046,-112.444C431.082,-103.28 478.913,-88.6876 512.243,-78.5192"/>
<polygon fill="midnightblue" stroke="midnightblue" points="513.542,-81.7822 522.085,-75.5164 511.499,-75.0869 513.542,-81.7822"/>
</g>
<!-- Node21 -->
<g id="node22" class="node"><title>Node21</title>
<polygon fill="none" stroke="#bfbfbf" points="358.5,-56.5 358.5,-75.5 387.5,-75.5 387.5,-56.5 358.5,-56.5"/>
<text text-anchor="middle" x="373" y="-63.5" font-family="Helvetica,sans-Serif" font-size="10.00">list</text>
</g>
<!-- Node10&#45;&gt;Node21 -->
<g id="edge30" class="edge"><title>Node10&#45;&gt;Node21</title>
<path fill="none" stroke="midnightblue" d="M373,-112.083C373,-105.006 373,-94.8611 373,-85.9865"/>
<polygon fill="midnightblue" stroke="midnightblue" points="376.5,-85.751 373,-75.7511 369.5,-85.7511 376.5,-85.751"/>
</g>
<!-- Node11&#45;&gt;Node2 -->
<g id="edge21" class="edge"><title>Node11&#45;&gt;Node2</title>
<path fill="none" stroke="midnightblue" d="M495.406,-60.4299C383.65,-51.0096 134.085,-29.6194 64.2812,-19.8106"/>
<polygon fill="midnightblue" stroke="midnightblue" points="64.4498,-16.2952 54.033,-18.229 63.3821,-23.2133 64.4498,-16.2952"/>
</g>
<!-- Node11&#45;&gt;Node3 -->
<g id="edge24" class="edge"><title>Node11&#45;&gt;Node3</title>
<path fill="none" stroke="midnightblue" d="M604.571,-58.9291C664.277,-51.8621 762.951,-38.9401 857.206,-19.9533"/>
<polygon fill="midnightblue" stroke="midnightblue" points="858.097,-23.3438 867.195,-17.9147 856.697,-16.4852 858.097,-23.3438"/>
</g>
<!-- Node11&#45;&gt;Node7 -->
<g id="edge28" class="edge"><title>Node11&#45;&gt;Node7</title>
<path fill="none" stroke="midnightblue" d="M604.56,-56.653C652.38,-48.9685 723.931,-36.5818 794.737,-20.1127"/>
<polygon fill="midnightblue" stroke="midnightblue" points="795.789,-23.4608 804.721,-17.7618 794.185,-16.6471 795.789,-23.4608"/>
</g>
<!-- Node12 -->
<g id="node13" class="node"><title>Node12</title>
<polygon fill="none" stroke="#bfbfbf" points="150,-0.5 150,-19.5 254,-19.5 254,-0.5 150,-0.5"/>
<text text-anchor="middle" x="202" y="-7.5" font-family="Helvetica,sans-Serif" font-size="10.00">SFML/Graphics.hpp</text>
</g>
<!-- Node11&#45;&gt;Node12 -->
<g id="edge17" class="edge"><title>Node11&#45;&gt;Node12</title>
<path fill="none" stroke="midnightblue" d="M495.242,-56.5031C432.559,-46.7764 330.096,-30.877 264.384,-20.6802"/>
<polygon fill="midnightblue" stroke="midnightblue" points="264.583,-17.1693 254.165,-19.0945 263.51,-24.0866 264.583,-17.1693"/>
</g>
<!-- Node13 -->
<g id="node14" class="node"><title>Node13</title>
<polygon fill="none" stroke="#bfbfbf" points="272,-0.5 272,-19.5 370,-19.5 370,-0.5 272,-0.5"/>
<text text-anchor="middle" x="321" y="-7.5" font-family="Helvetica,sans-Serif" font-size="10.00">SFML/System.hpp</text>
</g>
<!-- Node11&#45;&gt;Node13 -->
<g id="edge18" class="edge"><title>Node11&#45;&gt;Node13</title>
<path fill="none" stroke="midnightblue" d="M513.714,-56.4435C474.017,-47.0826 410.293,-32.0561 367.088,-21.868"/>
<polygon fill="midnightblue" stroke="midnightblue" points="367.652,-18.4051 357.116,-19.5164 366.046,-25.2182 367.652,-18.4051"/>
</g>
<!-- Node14 -->
<g id="node15" class="node"><title>Node14</title>
<polygon fill="none" stroke="#bfbfbf" points="388.5,-0.5 388.5,-19.5 487.5,-19.5 487.5,-0.5 388.5,-0.5"/>
<text text-anchor="middle" x="438" y="-7.5" font-family="Helvetica,sans-Serif" font-size="10.00">SFML/Window.hpp</text>
</g>
<!-- Node11&#45;&gt;Node14 -->
<g id="edge19" class="edge"><title>Node11&#45;&gt;Node14</title>
<path fill="none" stroke="midnightblue" d="M532.005,-56.324C513.962,-47.6247 485.953,-34.1202 465.197,-24.113"/>
<polygon fill="midnightblue" stroke="midnightblue" points="466.478,-20.8449 455.95,-19.6545 463.438,-27.1502 466.478,-20.8449"/>
</g>
<!-- Node15 -->
<g id="node16" class="node"><title>Node15</title>
<polygon fill="none" stroke="#bfbfbf" points="505.5,-0.5 505.5,-19.5 594.5,-19.5 594.5,-0.5 505.5,-0.5"/>
<text text-anchor="middle" x="550" y="-7.5" font-family="Helvetica,sans-Serif" font-size="10.00">SFML/Audio.hpp</text>
</g>
<!-- Node11&#45;&gt;Node15 -->
<g id="edge20" class="edge"><title>Node11&#45;&gt;Node15</title>
<path fill="none" stroke="midnightblue" d="M550,-56.083C550,-49.0059 550,-38.8611 550,-29.9865"/>
<polygon fill="midnightblue" stroke="midnightblue" points="553.5,-29.751 550,-19.7511 546.5,-29.7511 553.5,-29.751"/>
</g>
<!-- Node16 -->
<g id="node17" class="node"><title>Node16</title>
<polygon fill="none" stroke="#bfbfbf" points="612.5,-0.5 612.5,-19.5 657.5,-19.5 657.5,-0.5 612.5,-0.5"/>
<text text-anchor="middle" x="635" y="-7.5" font-family="Helvetica,sans-Serif" font-size="10.00">cstdlib</text>
</g>
<!-- Node11&#45;&gt;Node16 -->
<g id="edge22" class="edge"><title>Node11&#45;&gt;Node16</title>
<path fill="none" stroke="midnightblue" d="M563.657,-56.324C576.916,-47.9002 597.268,-34.9709 612.846,-25.0741"/>
<polygon fill="midnightblue" stroke="midnightblue" points="614.813,-27.9711 621.377,-19.6545 611.06,-22.0626 614.813,-27.9711"/>
</g>
<!-- Node11&#45;&gt;Node17 -->
<g id="edge23" class="edge"><title>Node11&#45;&gt;Node17</title>
<path fill="none" stroke="midnightblue" d="M604.681,-61.585C676.307,-56.4218 805.827,-44.7173 924.251,-20.0587"/>
<polygon fill="midnightblue" stroke="midnightblue" points="925.154,-23.4452 934.211,-17.9481 923.703,-16.5973 925.154,-23.4452"/>
</g>
<!-- Node18 -->
<g id="node19" class="node"><title>Node18</title>
<polygon fill="none" stroke="#bfbfbf" points="675.5,-0.5 675.5,-19.5 724.5,-19.5 724.5,-0.5 675.5,-0.5"/>
<text text-anchor="middle" x="700" y="-7.5" font-family="Helvetica,sans-Serif" font-size="10.00">cassert</text>
</g>
<!-- Node11&#45;&gt;Node18 -->
<g id="edge25" class="edge"><title>Node11&#45;&gt;Node18</title>
<path fill="none" stroke="midnightblue" d="M573.768,-56.4435C598.893,-47.3986 638.711,-33.064 666.9,-22.9158"/>
<polygon fill="midnightblue" stroke="midnightblue" points="668.12,-26.1968 676.343,-19.5164 665.749,-19.6106 668.12,-26.1968"/>
</g>
<!-- Node11&#45;&gt;Node19 -->
<g id="edge26" class="edge"><title>Node11&#45;&gt;Node19</title>
<path fill="none" stroke="midnightblue" d="M495.402,-57.7545C490.534,-57.146 485.679,-56.5528 481,-56 333.336,-38.5548 292.601,-44.843 141.829,-19.9395"/>
<polygon fill="midnightblue" stroke="midnightblue" points="142.176,-16.4492 131.736,-18.2535 141.023,-23.3535 142.176,-16.4492"/>
</g>
<!-- Node20 -->
<g id="node21" class="node"><title>Node20</title>
<polygon fill="none" stroke="#bfbfbf" points="743,-0.5 743,-19.5 787,-19.5 787,-0.5 743,-0.5"/>
<text text-anchor="middle" x="765" y="-7.5" font-family="Helvetica,sans-Serif" font-size="10.00">thread</text>
</g>
<!-- Node11&#45;&gt;Node20 -->
<g id="edge27" class="edge"><title>Node11&#45;&gt;Node20</title>
<path fill="none" stroke="midnightblue" d="M586.774,-56.4943C621.965,-48.2464 676.762,-35.123 732.924,-20.2089"/>
<polygon fill="midnightblue" stroke="midnightblue" points="733.922,-23.5649 742.681,-17.6032 732.116,-16.8019 733.922,-23.5649"/>
</g>
</g>
</svg>
