<?xml version="1.0" encoding="UTF-8" standalone="no"?>
<!DOCTYPE svg PUBLIC "-//W3C//DTD SVG 1.1//EN"
 "http://www.w3.org/Graphics/SVG/1.1/DTD/svg11.dtd">
<!-- Generated by graphviz version 2.38.0 (20140413.2041)
 -->
<!-- Title: D:/Users/Victor/OneDrive/Documents/Visual Studio 2017/Projects/Jeu_de_Go/Jeu_de_Go/Sources/Engine/Parser.h Pages: 1 -->
<svg width="984pt" height="296pt"
 viewBox="0.00 0.00 983.50 296.00" xmlns="http://www.w3.org/2000/svg" xmlns:xlink="http://www.w3.org/1999/xlink">
<g id="graph0" class="graph" transform="scale(1 1) rotate(0) translate(4 292)">
<title>D:/Users/Victor/OneDrive/Documents/Visual Studio 2017/Projects/Jeu_de_Go/Jeu_de_Go/Sources/Engine/Parser.h</title>
<!-- Node0 -->
<g id="node1" class="node"><title>Node0</title>
<polygon fill="#bfbfbf" stroke="black" points="620,-224.5 620,-287.5 760,-287.5 760,-224.5 620,-224.5"/>
<text text-anchor="start" x="628" y="-275.5" font-family="Helvetica,sans-Serif" font-size="10.00">D:/Users/Victor/OneDrive</text>
<text text-anchor="start" x="628" y="-264.5" font-family="Helvetica,sans-Serif" font-size="10.00">/Documents/Visual Studio</text>
<text text-anchor="start" x="628" y="-253.5" font-family="Helvetica,sans-Serif" font-size="10.00"> 2017/Projects/Jeu_de_Go</text>
<text text-anchor="start" x="628" y="-242.5" font-family="Helvetica,sans-Serif" font-size="10.00">/Jeu_de_Go/Sources/Engine</text>
<text text-anchor="middle" x="690" y="-231.5" font-family="Helvetica,sans-Serif" font-size="10.00">/Parser.h</text>
</g>
<!-- Node1 -->
<g id="node2" class="node"><title>Node1</title>
<polygon fill="none" stroke="#bfbfbf" points="0,-0.5 0,-19.5 54,-19.5 54,-0.5 0,-0.5"/>
<text text-anchor="middle" x="27" y="-7.5" font-family="Helvetica,sans-Serif" font-size="10.00">iostream</text>
</g>
<!-- Node0&#45;&gt;Node1 -->
<g id="edge1" class="edge"><title>Node0&#45;&gt;Node1</title>
<path fill="none" stroke="midnightblue" d="M619.761,-254.662C531.789,-251.908 378.041,-239.297 258,-188 165.526,-148.483 77.206,-63.4153 42.4833,-27.518"/>
<polygon fill="midnightblue" stroke="midnightblue" points="44.6286,-24.6966 35.1912,-19.8814 39.566,-29.5308 44.6286,-24.6966"/>
</g>
<!-- Node2 -->
<g id="node3" class="node"><title>Node2</title>
<polygon fill="none" stroke="#bfbfbf" points="867.5,-0.5 867.5,-19.5 916.5,-19.5 916.5,-0.5 867.5,-0.5"/>
<text text-anchor="middle" x="892" y="-7.5" font-family="Helvetica,sans-Serif" font-size="10.00">fstream</text>
</g>
<!-- Node0&#45;&gt;Node2 -->
<g id="edge2" class="edge"><title>Node0&#45;&gt;Node2</title>
<path fill="none" stroke="midnightblue" d="M687.576,-224.339C685.925,-181.039 689.693,-102.125 733,-56 735.185,-53.6728 811.231,-32.8182 857.348,-20.3316"/>
<polygon fill="midnightblue" stroke="midnightblue" points="858.514,-23.6423 867.254,-17.6537 856.687,-16.8849 858.514,-23.6423"/>
</g>
<!-- Node3 -->
<g id="node4" class="node"><title>Node3</title>
<polygon fill="none" stroke="#bfbfbf" points="775,-168.5 775,-187.5 821,-187.5 821,-168.5 775,-168.5"/>
<text text-anchor="middle" x="798" y="-175.5" font-family="Helvetica,sans-Serif" font-size="10.00">stdio.h</text>
</g>
<!-- Node0&#45;&gt;Node3 -->
<g id="edge3" class="edge"><title>Node0&#45;&gt;Node3</title>
<path fill="none" stroke="midnightblue" d="M733.616,-224.307C748.691,-213.699 764.888,-202.301 777.265,-193.591"/>
<polygon fill="midnightblue" stroke="midnightblue" points="779.368,-196.391 785.532,-187.774 775.34,-190.666 779.368,-196.391"/>
</g>
<!-- Node4 -->
<g id="node5" class="node"><title>Node4</title>
<g id="a_node5"><a xlink:href="_etat_8h.html" target="_top" xlink:title="Etat.h">
<polygon fill="none" stroke="black" points="183.5,-56.5 183.5,-75.5 226.5,-75.5 226.5,-56.5 183.5,-56.5"/>
<text text-anchor="middle" x="205" y="-63.5" font-family="Helvetica,sans-Serif" font-size="10.00">Etat.h</text>
</a>
</g>
</g>
<!-- Node0&#45;&gt;Node4 -->
<g id="edge4" class="edge"><title>Node0&#45;&gt;Node4</title>
<path fill="none" stroke="midnightblue" d="M619.66,-247.783C498.037,-233.663 256.744,-197.86 208,-132 198.243,-118.817 198.588,-99.6798 200.715,-85.5828"/>
<polygon fill="midnightblue" stroke="midnightblue" points="204.189,-86.0493 202.644,-75.5678 197.316,-84.7254 204.189,-86.0493"/>
</g>
<!-- Node5 -->
<g id="node6" class="node"><title>Node5</title>
<g id="a_node6"><a xlink:href="_goban_8h.html" target="_top" xlink:title="Goban.h">
<polygon fill="none" stroke="black" points="374.5,-168.5 374.5,-187.5 427.5,-187.5 427.5,-168.5 374.5,-168.5"/>
<text text-anchor="middle" x="401" y="-175.5" font-family="Helvetica,sans-Serif" font-size="10.00">Goban.h</text>
</a>
</g>
</g>
<!-- Node0&#45;&gt;Node5 -->
<g id="edge6" class="edge"><title>Node0&#45;&gt;Node5</title>
<path fill="none" stroke="midnightblue" d="M619.672,-236.505C562.044,-221.351 482.822,-200.517 437.253,-188.534"/>
<polygon fill="midnightblue" stroke="midnightblue" points="438.076,-185.131 427.515,-185.973 436.296,-191.901 438.076,-185.131"/>
</g>
<!-- Node10 -->
<g id="node11" class="node"><title>Node10</title>
<g id="a_node11"><a xlink:href="_globals_8h.html" target="_top" xlink:title="../Graphics/Globals.h">
<polygon fill="none" stroke="black" points="495.5,-56.5 495.5,-75.5 604.5,-75.5 604.5,-56.5 495.5,-56.5"/>
<text text-anchor="middle" x="550" y="-63.5" font-family="Helvetica,sans-Serif" font-size="10.00">../Graphics/Globals.h</text>
</a>
</g>
</g>
<!-- Node0&#45;&gt;Node10 -->
<g id="edge31" class="edge"><title>Node0&#45;&gt;Node10</title>
<path fill="none" stroke="midnightblue" d="M667.195,-224.376C637.435,-184.413 586.373,-115.844 562.717,-84.0773"/>
<polygon fill="midnightblue" stroke="midnightblue" points="565.339,-81.7386 556.56,-75.8086 559.725,-85.9195 565.339,-81.7386"/>
</g>
<!-- Node16 -->
<g id="node17" class="node"><title>Node16</title>
<polygon fill="none" stroke="#bfbfbf" points="934.5,-0.5 934.5,-19.5 975.5,-19.5 975.5,-0.5 934.5,-0.5"/>
<text text-anchor="middle" x="955" y="-7.5" font-family="Helvetica,sans-Serif" font-size="10.00">string</text>
</g>
<!-- Node0&#45;&gt;Node16 -->
<g id="edge32" class="edge"><title>Node0&#45;&gt;Node16</title>
<path fill="none" stroke="midnightblue" d="M714.896,-224.131C729.217,-206.997 747.911,-185.645 766,-168 823.988,-111.435 899.949,-52.3951 935.307,-25.6801"/>
<polygon fill="midnightblue" stroke="midnightblue" points="937.496,-28.4129 943.386,-19.6058 933.289,-22.818 937.496,-28.4129"/>
</g>
<!-- Node21 -->
<g id="node22" class="node"><title>Node21</title>
<polygon fill="none" stroke="#bfbfbf" points="839.5,-168.5 839.5,-187.5 880.5,-187.5 880.5,-168.5 839.5,-168.5"/>
<text text-anchor="middle" x="860" y="-175.5" font-family="Helvetica,sans-Serif" font-size="10.00">regex</text>
</g>
<!-- Node0&#45;&gt;Node21 -->
<g id="edge33" class="edge"><title>Node0&#45;&gt;Node21</title>
<path fill="none" stroke="midnightblue" d="M758.655,-224.307C784.039,-212.959 811.444,-200.707 831.348,-191.809"/>
<polygon fill="midnightblue" stroke="midnightblue" points="833.047,-194.883 840.748,-187.607 830.19,-188.493 833.047,-194.883"/>
</g>
<!-- Node4&#45;&gt;Node1 -->
<g id="edge5" class="edge"><title>Node4&#45;&gt;Node1</title>
<path fill="none" stroke="midnightblue" d="M183.174,-58.3785C153.474,-49.3685 99.9143,-33.1201 63.9081,-22.1968"/>
<polygon fill="midnightblue" stroke="midnightblue" points="64.8378,-18.8214 54.2524,-19.2676 62.8056,-25.52 64.8378,-18.8214"/>
</g>
<!-- Node5&#45;&gt;Node1 -->
<g id="edge7" class="edge"><title>Node5&#45;&gt;Node1</title>
<path fill="none" stroke="midnightblue" d="M404.239,-168.212C411.993,-145.465 428.654,-84.4529 396,-56 342.02,-8.96542 151.572,-31.1885 63.9504,-19.7114"/>
<polygon fill="midnightblue" stroke="midnightblue" points="64.4576,-16.2483 54.0409,-18.1832 63.3906,-23.1665 64.4576,-16.2483"/>
</g>
<!-- Node5&#45;&gt;Node4 -->
<g id="edge10" class="edge"><title>Node5&#45;&gt;Node4</title>
<path fill="none" stroke="midnightblue" d="M374.32,-177.936C335.888,-177.781 265.064,-171.635 224,-132 211.585,-120.017 207.16,-100.41 205.644,-85.8588"/>
<polygon fill="midnightblue" stroke="midnightblue" points="209.112,-85.2609 204.956,-75.5156 202.128,-85.7261 209.112,-85.2609"/>
</g>
<!-- Node6 -->
<g id="node7" class="node"><title>Node6</title>
<polygon fill="none" stroke="#bfbfbf" points="805,-0.5 805,-19.5 849,-19.5 849,-0.5 805,-0.5"/>
<text text-anchor="middle" x="827" y="-7.5" font-family="Helvetica,sans-Serif" font-size="10.00">cmath</text>
</g>
<!-- Node5&#45;&gt;Node6 -->
<g id="edge8" class="edge"><title>Node5&#45;&gt;Node6</title>
<path fill="none" stroke="midnightblue" d="M420.794,-168.356C467.92,-147.885 590.632,-95.224 695,-56 728.963,-43.2357 768.395,-29.9954 795.256,-21.2102"/>
<polygon fill="midnightblue" stroke="midnightblue" points="796.472,-24.4952 804.897,-18.0716 794.305,-17.839 796.472,-24.4952"/>
</g>
<!-- Node7 -->
<g id="node8" class="node"><title>Node7</title>
<polygon fill="none" stroke="#bfbfbf" points="270,-56.5 270,-75.5 312,-75.5 312,-56.5 270,-56.5"/>
<text text-anchor="middle" x="291" y="-63.5" font-family="Helvetica,sans-Serif" font-size="10.00">vector</text>
</g>
<!-- Node5&#45;&gt;Node7 -->
<g id="edge9" class="edge"><title>Node5&#45;&gt;Node7</title>
<path fill="none" stroke="midnightblue" d="M385.384,-168.379C371.432,-160.195 350.946,-146.946 336,-132 321.786,-117.786 309.108,-98.5625 300.86,-84.7126"/>
<polygon fill="midnightblue" stroke="midnightblue" points="303.706,-82.641 295.679,-75.726 297.642,-86.1375 303.706,-82.641"/>
</g>
<!-- Node8 -->
<g id="node9" class="node"><title>Node8</title>
<g id="a_node9"><a xlink:href="_groupe_8h.html" target="_top" xlink:title="Groupe.h">
<polygon fill="none" stroke="black" points="233,-112.5 233,-131.5 289,-131.5 289,-112.5 233,-112.5"/>
<text text-anchor="middle" x="261" y="-119.5" font-family="Helvetica,sans-Serif" font-size="10.00">Groupe.h</text>
</a>
</g>
</g>
<!-- Node5&#45;&gt;Node8 -->
<g id="edge11" class="edge"><title>Node5&#45;&gt;Node8</title>
<path fill="none" stroke="midnightblue" d="M378.817,-168.444C355.572,-159.478 318.851,-145.314 292.585,-135.183"/>
<polygon fill="midnightblue" stroke="midnightblue" points="293.669,-131.85 283.08,-131.516 291.15,-138.381 293.669,-131.85"/>
</g>
<!-- Node9 -->
<g id="node10" class="node"><title>Node9</title>
<g id="a_node10"><a xlink:href="_history_8h.html" target="_top" xlink:title="History.h">
<polygon fill="none" stroke="black" points="345,-112.5 345,-131.5 401,-131.5 401,-112.5 345,-112.5"/>
<text text-anchor="middle" x="373" y="-119.5" font-family="Helvetica,sans-Serif" font-size="10.00">History.h</text>
</a>
</g>
</g>
<!-- Node5&#45;&gt;Node9 -->
<g id="edge14" class="edge"><title>Node5&#45;&gt;Node9</title>
<path fill="none" stroke="midnightblue" d="M396.376,-168.083C392.544,-160.691 386.976,-149.953 382.235,-140.811"/>
<polygon fill="midnightblue" stroke="midnightblue" points="385.248,-139.018 377.538,-131.751 379.034,-142.24 385.248,-139.018"/>
</g>
<!-- Node18 -->
<g id="node19" class="node"><title>Node18</title>
<polygon fill="none" stroke="#bfbfbf" points="72.5,-0.5 72.5,-19.5 131.5,-19.5 131.5,-0.5 72.5,-0.5"/>
<text text-anchor="middle" x="102" y="-7.5" font-family="Helvetica,sans-Serif" font-size="10.00">stdexcept</text>
</g>
<!-- Node5&#45;&gt;Node18 -->
<g id="edge30" class="edge"><title>Node5&#45;&gt;Node18</title>
<path fill="none" stroke="midnightblue" d="M413.214,-168.236C423.354,-160.143 437.043,-147.112 443,-132 455.386,-100.575 465.426,-81.2585 443,-56 400.055,-7.6316 223.687,-29.5095 142.134,-19.7305"/>
<polygon fill="midnightblue" stroke="midnightblue" points="142.144,-16.195 131.743,-18.2127 141.132,-23.1215 142.144,-16.195"/>
</g>
<!-- Node8&#45;&gt;Node4 -->
<g id="edge13" class="edge"><title>Node8&#45;&gt;Node4</title>
<path fill="none" stroke="midnightblue" d="M252.003,-112.324C243.806,-104.42 231.494,-92.5482 221.528,-82.9377"/>
<polygon fill="midnightblue" stroke="midnightblue" points="223.789,-80.2558 214.161,-75.8339 218.93,-85.2947 223.789,-80.2558"/>
</g>
<!-- Node8&#45;&gt;Node7 -->
<g id="edge12" class="edge"><title>Node8&#45;&gt;Node7</title>
<path fill="none" stroke="midnightblue" d="M265.954,-112.083C270.104,-104.613 276.153,-93.7244 281.267,-84.5199"/>
<polygon fill="midnightblue" stroke="midnightblue" points="284.341,-86.1924 286.138,-75.7511 278.222,-82.7929 284.341,-86.1924"/>
</g>
<!-- Node9&#45;&gt;Node4 -->
<g id="edge28" class="edge"><title>Node9&#45;&gt;Node4</title>
<path fill="none" stroke="midnightblue" d="M346.38,-112.444C316.492,-102.837 268.038,-87.2622 236.344,-77.0749"/>
<polygon fill="midnightblue" stroke="midnightblue" points="237.279,-73.699 226.687,-73.971 235.137,-80.3632 237.279,-73.699"/>
</g>
<!-- Node9&#45;&gt;Node10 -->
<g id="edge15" class="edge"><title>Node9&#45;&gt;Node10</title>
<path fill="none" stroke="midnightblue" d="M401.046,-112.444C431.082,-103.28 478.913,-88.6876 512.243,-78.5192"/>
<polygon fill="midnightblue" stroke="midnightblue" points="513.542,-81.7822 522.085,-75.5164 511.499,-75.0869 513.542,-81.7822"/>
</g>
<!-- Node20 -->
<g id="node21" class="node"><title>Node20</title>
<polygon fill="none" stroke="#bfbfbf" points="358.5,-56.5 358.5,-75.5 387.5,-75.5 387.5,-56.5 358.5,-56.5"/>
<text text-anchor="middle" x="373" y="-63.5" font-family="Helvetica,sans-Serif" font-size="10.00">list</text>
</g>
<!-- Node9&#45;&gt;Node20 -->
<g id="edge29" class="edge"><title>Node9&#45;&gt;Node20</title>
<path fill="none" stroke="midnightblue" d="M373,-112.083C373,-105.006 373,-94.8611 373,-85.9865"/>
<polygon fill="midnightblue" stroke="midnightblue" points="376.5,-85.751 373,-75.7511 369.5,-85.7511 376.5,-85.751"/>
</g>
<!-- Node10&#45;&gt;Node1 -->
<g id="edge20" class="edge"><title>Node10&#45;&gt;Node1</title>
<path fill="none" stroke="midnightblue" d="M495.406,-60.4299C383.65,-51.0096 134.085,-29.6194 64.2812,-19.8106"/>
<polygon fill="midnightblue" stroke="midnightblue" points="64.4498,-16.2952 54.033,-18.229 63.3821,-23.2133 64.4498,-16.2952"/>
</g>
<!-- Node10&#45;&gt;Node2 -->
<g id="edge23" class="edge"><title>Node10&#45;&gt;Node2</title>
<path fill="none" stroke="midnightblue" d="M604.571,-58.9291C664.277,-51.8621 762.951,-38.9401 857.206,-19.9533"/>
<polygon fill="midnightblue" stroke="midnightblue" points="858.097,-23.3438 867.195,-17.9147 856.697,-16.4852 858.097,-23.3438"/>
</g>
<!-- Node10&#45;&gt;Node6 -->
<g id="edge27" class="edge"><title>Node10&#45;&gt;Node6</title>
<path fill="none" stroke="midnightblue" d="M604.56,-56.653C652.38,-48.9685 723.931,-36.5818 794.737,-20.1127"/>
<polygon fill="midnightblue" stroke="midnightblue" points="795.789,-23.4608 804.721,-17.7618 794.185,-16.6471 795.789,-23.4608"/>
</g>
<!-- Node11 -->
<g id="node12" class="node"><title>Node11</title>
<polygon fill="none" stroke="#bfbfbf" points="150,-0.5 150,-19.5 254,-19.5 254,-0.5 150,-0.5"/>
<text text-anchor="middle" x="202" y="-7.5" font-family="Helvetica,sans-Serif" font-size="10.00">SFML/Graphics.hpp</text>
</g>
<!-- Node10&#45;&gt;Node11 -->
<g id="edge16" class="edge"><title>Node10&#45;&gt;Node11</title>
<path fill="none" stroke="midnightblue" d="M495.242,-56.5031C432.559,-46.7764 330.096,-30.877 264.384,-20.6802"/>
<polygon fill="midnightblue" stroke="midnightblue" points="264.583,-17.1693 254.165,-19.0945 263.51,-24.0866 264.583,-17.1693"/>
</g>
<!-- Node12 -->
<g id="node13" class="node"><title>Node12</title>
<polygon fill="none" stroke="#bfbfbf" points="272,-0.5 272,-19.5 370,-19.5 370,-0.5 272,-0.5"/>
<text text-anchor="middle" x="321" y="-7.5" font-family="Helvetica,sans-Serif" font-size="10.00">SFML/System.hpp</text>
</g>
<!-- Node10&#45;&gt;Node12 -->
<g id="edge17" class="edge"><title>Node10&#45;&gt;Node12</title>
<path fill="none" stroke="midnightblue" d="M513.714,-56.4435C474.017,-47.0826 410.293,-32.0561 367.088,-21.868"/>
<polygon fill="midnightblue" stroke="midnightblue" points="367.652,-18.4051 357.116,-19.5164 366.046,-25.2182 367.652,-18.4051"/>
</g>
<!-- Node13 -->
<g id="node14" class="node"><title>Node13</title>
<polygon fill="none" stroke="#bfbfbf" points="388.5,-0.5 388.5,-19.5 487.5,-19.5 487.5,-0.5 388.5,-0.5"/>
<text text-anchor="middle" x="438" y="-7.5" font-family="Helvetica,sans-Serif" font-size="10.00">SFML/Window.hpp</text>
</g>
<!-- Node10&#45;&gt;Node13 -->
<g id="edge18" class="edge"><title>Node10&#45;&gt;Node13</title>
<path fill="none" stroke="midnightblue" d="M532.005,-56.324C513.962,-47.6247 485.953,-34.1202 465.197,-24.113"/>
<polygon fill="midnightblue" stroke="midnightblue" points="466.478,-20.8449 455.95,-19.6545 463.438,-27.1502 466.478,-20.8449"/>
</g>
<!-- Node14 -->
<g id="node15" class="node"><title>Node14</title>
<polygon fill="none" stroke="#bfbfbf" points="505.5,-0.5 505.5,-19.5 594.5,-19.5 594.5,-0.5 505.5,-0.5"/>
<text text-anchor="middle" x="550" y="-7.5" font-family="Helvetica,sans-Serif" font-size="10.00">SFML/Audio.hpp</text>
</g>
<!-- Node10&#45;&gt;Node14 -->
<g id="edge19" class="edge"><title>Node10&#45;&gt;Node14</title>
<path fill="none" stroke="midnightblue" d="M550,-56.083C550,-49.0059 550,-38.8611 550,-29.9865"/>
<polygon fill="midnightblue" stroke="midnightblue" points="553.5,-29.751 550,-19.7511 546.5,-29.7511 553.5,-29.751"/>
</g>
<!-- Node15 -->
<g id="node16" class="node"><title>Node15</title>
<polygon fill="none" stroke="#bfbfbf" points="612.5,-0.5 612.5,-19.5 657.5,-19.5 657.5,-0.5 612.5,-0.5"/>
<text text-anchor="middle" x="635" y="-7.5" font-family="Helvetica,sans-Serif" font-size="10.00">cstdlib</text>
</g>
<!-- Node10&#45;&gt;Node15 -->
<g id="edge21" class="edge"><title>Node10&#45;&gt;Node15</title>
<path fill="none" stroke="midnightblue" d="M563.657,-56.324C576.916,-47.9002 597.268,-34.9709 612.846,-25.0741"/>
<polygon fill="midnightblue" stroke="midnightblue" points="614.813,-27.9711 621.377,-19.6545 611.06,-22.0626 614.813,-27.9711"/>
</g>
<!-- Node10&#45;&gt;Node16 -->
<g id="edge22" class="edge"><title>Node10&#45;&gt;Node16</title>
<path fill="none" stroke="midnightblue" d="M604.681,-61.585C676.307,-56.4218 805.827,-44.7173 924.251,-20.0587"/>
<polygon fill="midnightblue" stroke="midnightblue" points="925.154,-23.4452 934.211,-17.9481 923.703,-16.5973 925.154,-23.4452"/>
</g>
<!-- Node17 -->
<g id="node18" class="node"><title>Node17</title>
<polygon fill="none" stroke="#bfbfbf" points="675.5,-0.5 675.5,-19.5 724.5,-19.5 724.5,-0.5 675.5,-0.5"/>
<text text-anchor="middle" x="700" y="-7.5" font-family="Helvetica,sans-Serif" font-size="10.00">cassert</text>
</g>
<!-- Node10&#45;&gt;Node17 -->
<g id="edge24" class="edge"><title>Node10&#45;&gt;Node17</title>
<path fill="none" stroke="midnightblue" d="M573.768,-56.4435C598.893,-47.3986 638.711,-33.064 666.9,-22.9158"/>
<polygon fill="midnightblue" stroke="midnightblue" points="668.12,-26.1968 676.343,-19.5164 665.749,-19.6106 668.12,-26.1968"/>
</g>
<!-- Node10&#45;&gt;Node18 -->
<g id="edge25" class="edge"><title>Node10&#45;&gt;Node18</title>
<path fill="none" stroke="midnightblue" d="M495.402,-57.7545C490.534,-57.146 485.679,-56.5528 481,-56 333.336,-38.5548 292.601,-44.843 141.829,-19.9395"/>
<polygon fill="midnightblue" stroke="midnightblue" points="142.176,-16.4492 131.736,-18.2535 141.023,-23.3535 142.176,-16.4492"/>
</g>
<!-- Node19 -->
<g id="node20" class="node"><title>Node19</title>
<polygon fill="none" stroke="#bfbfbf" points="743,-0.5 743,-19.5 787,-19.5 787,-0.5 743,-0.5"/>
<text text-anchor="middle" x="765" y="-7.5" font-family="Helvetica,sans-Serif" font-size="10.00">thread</text>
</g>
<!-- Node10&#45;&gt;Node19 -->
<g id="edge26" class="edge"><title>Node10&#45;&gt;Node19</title>
<path fill="none" stroke="midnightblue" d="M586.774,-56.4943C621.965,-48.2464 676.762,-35.123 732.924,-20.2089"/>
<polygon fill="midnightblue" stroke="midnightblue" points="733.922,-23.5649 742.681,-17.6032 732.116,-16.8019 733.922,-23.5649"/>
</g>
</g>
</svg>
