<?xml version="1.0" encoding="UTF-8" standalone="no"?>
<!DOCTYPE svg PUBLIC "-//W3C//DTD SVG 1.1//EN"
 "http://www.w3.org/Graphics/SVG/1.1/DTD/svg11.dtd">
<!-- Generated by graphviz version 2.38.0 (20140413.2041)
 -->
<!-- Title: D:/Users/Victor/OneDrive/Documents/Visual Studio 2017/Projects/Jeu_de_Go/Jeu_de_Go/Sources/Graphics/Screen.h Pages: 1 -->
<svg width="983pt" height="184pt"
 viewBox="0.00 0.00 983.00 184.00" xmlns="http://www.w3.org/2000/svg" xmlns:xlink="http://www.w3.org/1999/xlink">
<g id="graph0" class="graph" transform="scale(1 1) rotate(0) translate(4 180)">
<title>D:/Users/Victor/OneDrive/Documents/Visual Studio 2017/Projects/Jeu_de_Go/Jeu_de_Go/Sources/Graphics/Screen.h</title>
<!-- Node0 -->
<g id="node1" class="node"><title>Node0</title>
<polygon fill="#bfbfbf" stroke="black" points="356.5,-112.5 356.5,-175.5 505.5,-175.5 505.5,-112.5 356.5,-112.5"/>
<text text-anchor="start" x="364.5" y="-163.5" font-family="Helvetica,sans-Serif" font-size="10.00">D:/Users/Victor/OneDrive</text>
<text text-anchor="start" x="364.5" y="-152.5" font-family="Helvetica,sans-Serif" font-size="10.00">/Documents/Visual Studio</text>
<text text-anchor="start" x="364.5" y="-141.5" font-family="Helvetica,sans-Serif" font-size="10.00"> 2017/Projects/Jeu_de_Go</text>
<text text-anchor="start" x="364.5" y="-130.5" font-family="Helvetica,sans-Serif" font-size="10.00">/Jeu_de_Go/Sources/Graphics</text>
<text text-anchor="middle" x="431" y="-119.5" font-family="Helvetica,sans-Serif" font-size="10.00">/Screen.h</text>
</g>
<!-- Node1 -->
<g id="node2" class="node"><title>Node1</title>
<polygon fill="none" stroke="#bfbfbf" points="0,-0.5 0,-19.5 104,-19.5 104,-0.5 0,-0.5"/>
<text text-anchor="middle" x="52" y="-7.5" font-family="Helvetica,sans-Serif" font-size="10.00">SFML/Graphics.hpp</text>
</g>
<!-- Node0&#45;&gt;Node1 -->
<g id="edge1" class="edge"><title>Node0&#45;&gt;Node1</title>
<path fill="none" stroke="midnightblue" d="M356.122,-116.921C274.177,-88.381 146.428,-43.8879 85.9433,-22.8219"/>
<polygon fill="midnightblue" stroke="midnightblue" points="87.0814,-19.5122 76.4865,-19.5283 84.779,-26.1227 87.0814,-19.5122"/>
</g>
<!-- Node2 -->
<g id="node3" class="node"><title>Node2</title>
<g id="a_node3"><a xlink:href="_globals_8h.html" target="_top" xlink:title="Globals.h">
<polygon fill="none" stroke="black" points="529,-56.5 529,-75.5 587,-75.5 587,-56.5 529,-56.5"/>
<text text-anchor="middle" x="558" y="-63.5" font-family="Helvetica,sans-Serif" font-size="10.00">Globals.h</text>
</a>
</g>
</g>
<!-- Node0&#45;&gt;Node2 -->
<g id="edge2" class="edge"><title>Node0&#45;&gt;Node2</title>
<path fill="none" stroke="midnightblue" d="M482.29,-112.307C500.474,-101.425 520.046,-89.7127 534.734,-80.9228"/>
<polygon fill="midnightblue" stroke="midnightblue" points="536.834,-83.7451 543.618,-75.6067 533.24,-77.7384 536.834,-83.7451"/>
</g>
<!-- Node2&#45;&gt;Node1 -->
<g id="edge3" class="edge"><title>Node2&#45;&gt;Node1</title>
<path fill="none" stroke="midnightblue" d="M528.791,-62.5118C459.047,-56.4713 277.097,-40.1277 114.414,-20.1262"/>
<polygon fill="midnightblue" stroke="midnightblue" points="114.576,-16.6197 104.222,-18.8651 113.717,-23.5667 114.576,-16.6197"/>
</g>
<!-- Node3 -->
<g id="node4" class="node"><title>Node3</title>
<polygon fill="none" stroke="#bfbfbf" points="122,-0.5 122,-19.5 220,-19.5 220,-0.5 122,-0.5"/>
<text text-anchor="middle" x="171" y="-7.5" font-family="Helvetica,sans-Serif" font-size="10.00">SFML/System.hpp</text>
</g>
<!-- Node2&#45;&gt;Node3 -->
<g id="edge4" class="edge"><title>Node2&#45;&gt;Node3</title>
<path fill="none" stroke="midnightblue" d="M528.929,-61.2025C473.168,-53.8803 347.078,-37.1374 230.23,-20.1579"/>
<polygon fill="midnightblue" stroke="midnightblue" points="230.439,-16.6515 220.038,-18.6729 229.429,-23.5783 230.439,-16.6515"/>
</g>
<!-- Node4 -->
<g id="node5" class="node"><title>Node4</title>
<polygon fill="none" stroke="#bfbfbf" points="238.5,-0.5 238.5,-19.5 337.5,-19.5 337.5,-0.5 238.5,-0.5"/>
<text text-anchor="middle" x="288" y="-7.5" font-family="Helvetica,sans-Serif" font-size="10.00">SFML/Window.hpp</text>
</g>
<!-- Node2&#45;&gt;Node4 -->
<g id="edge5" class="edge"><title>Node2&#45;&gt;Node4</title>
<path fill="none" stroke="midnightblue" d="M528.849,-59.1697C483.919,-50.1839 397.072,-32.8144 340.865,-21.5731"/>
<polygon fill="midnightblue" stroke="midnightblue" points="341.236,-18.078 330.744,-19.5488 339.863,-24.942 341.236,-18.078"/>
</g>
<!-- Node5 -->
<g id="node6" class="node"><title>Node5</title>
<polygon fill="none" stroke="#bfbfbf" points="355.5,-0.5 355.5,-19.5 444.5,-19.5 444.5,-0.5 355.5,-0.5"/>
<text text-anchor="middle" x="400" y="-7.5" font-family="Helvetica,sans-Serif" font-size="10.00">SFML/Audio.hpp</text>
</g>
<!-- Node2&#45;&gt;Node5 -->
<g id="edge6" class="edge"><title>Node2&#45;&gt;Node5</title>
<path fill="none" stroke="midnightblue" d="M532.964,-56.4435C506.384,-47.3591 464.191,-32.9388 434.477,-22.7831"/>
<polygon fill="midnightblue" stroke="midnightblue" points="435.513,-19.4386 424.918,-19.5164 433.249,-26.0625 435.513,-19.4386"/>
</g>
<!-- Node6 -->
<g id="node7" class="node"><title>Node6</title>
<polygon fill="none" stroke="#bfbfbf" points="463,-0.5 463,-19.5 517,-19.5 517,-0.5 463,-0.5"/>
<text text-anchor="middle" x="490" y="-7.5" font-family="Helvetica,sans-Serif" font-size="10.00">iostream</text>
</g>
<!-- Node2&#45;&gt;Node6 -->
<g id="edge7" class="edge"><title>Node2&#45;&gt;Node6</title>
<path fill="none" stroke="midnightblue" d="M547.075,-56.324C536.825,-48.1849 521.279,-35.8395 508.999,-26.0874"/>
<polygon fill="midnightblue" stroke="midnightblue" points="511.132,-23.3119 501.124,-19.8339 506.779,-28.7937 511.132,-23.3119"/>
</g>
<!-- Node7 -->
<g id="node8" class="node"><title>Node7</title>
<polygon fill="none" stroke="#bfbfbf" points="535.5,-0.5 535.5,-19.5 580.5,-19.5 580.5,-0.5 535.5,-0.5"/>
<text text-anchor="middle" x="558" y="-7.5" font-family="Helvetica,sans-Serif" font-size="10.00">cstdlib</text>
</g>
<!-- Node2&#45;&gt;Node7 -->
<g id="edge8" class="edge"><title>Node2&#45;&gt;Node7</title>
<path fill="none" stroke="midnightblue" d="M558,-56.083C558,-49.0059 558,-38.8611 558,-29.9865"/>
<polygon fill="midnightblue" stroke="midnightblue" points="561.5,-29.751 558,-19.7511 554.5,-29.7511 561.5,-29.751"/>
</g>
<!-- Node8 -->
<g id="node9" class="node"><title>Node8</title>
<polygon fill="none" stroke="#bfbfbf" points="598.5,-0.5 598.5,-19.5 639.5,-19.5 639.5,-0.5 598.5,-0.5"/>
<text text-anchor="middle" x="619" y="-7.5" font-family="Helvetica,sans-Serif" font-size="10.00">string</text>
</g>
<!-- Node2&#45;&gt;Node8 -->
<g id="edge9" class="edge"><title>Node2&#45;&gt;Node8</title>
<path fill="none" stroke="midnightblue" d="M567.801,-56.324C576.818,-48.3414 590.406,-36.3128 601.318,-26.6529"/>
<polygon fill="midnightblue" stroke="midnightblue" points="603.853,-29.083 609.021,-19.8339 599.213,-23.8416 603.853,-29.083"/>
</g>
<!-- Node9 -->
<g id="node10" class="node"><title>Node9</title>
<polygon fill="none" stroke="#bfbfbf" points="657.5,-0.5 657.5,-19.5 706.5,-19.5 706.5,-0.5 657.5,-0.5"/>
<text text-anchor="middle" x="682" y="-7.5" font-family="Helvetica,sans-Serif" font-size="10.00">fstream</text>
</g>
<!-- Node2&#45;&gt;Node9 -->
<g id="edge10" class="edge"><title>Node2&#45;&gt;Node9</title>
<path fill="none" stroke="midnightblue" d="M577.648,-56.4435C597.965,-47.5961 629.903,-33.6875 653.098,-23.5865"/>
<polygon fill="midnightblue" stroke="midnightblue" points="654.673,-26.7181 662.444,-19.5164 651.878,-20.3002 654.673,-26.7181"/>
</g>
<!-- Node10 -->
<g id="node11" class="node"><title>Node10</title>
<polygon fill="none" stroke="#bfbfbf" points="724.5,-0.5 724.5,-19.5 773.5,-19.5 773.5,-0.5 724.5,-0.5"/>
<text text-anchor="middle" x="749" y="-7.5" font-family="Helvetica,sans-Serif" font-size="10.00">cassert</text>
</g>
<!-- Node2&#45;&gt;Node10 -->
<g id="edge11" class="edge"><title>Node2&#45;&gt;Node10</title>
<path fill="none" stroke="midnightblue" d="M587.009,-56.7986C621.254,-47.1167 678.144,-31.0326 714.585,-20.7298"/>
<polygon fill="midnightblue" stroke="midnightblue" points="715.615,-24.076 724.285,-17.9874 713.71,-17.34 715.615,-24.076"/>
</g>
<!-- Node11 -->
<g id="node12" class="node"><title>Node11</title>
<polygon fill="none" stroke="#bfbfbf" points="791.5,-0.5 791.5,-19.5 850.5,-19.5 850.5,-0.5 791.5,-0.5"/>
<text text-anchor="middle" x="821" y="-7.5" font-family="Helvetica,sans-Serif" font-size="10.00">stdexcept</text>
</g>
<!-- Node2&#45;&gt;Node11 -->
<g id="edge12" class="edge"><title>Node2&#45;&gt;Node11</title>
<path fill="none" stroke="midnightblue" d="M587.194,-59.5011C628.322,-51.6807 705.905,-36.6597 781.049,-20.3746"/>
<polygon fill="midnightblue" stroke="midnightblue" points="782.126,-23.7221 791.152,-18.1739 780.636,-16.8825 782.126,-23.7221"/>
</g>
<!-- Node12 -->
<g id="node13" class="node"><title>Node12</title>
<polygon fill="none" stroke="#bfbfbf" points="869,-0.5 869,-19.5 913,-19.5 913,-0.5 869,-0.5"/>
<text text-anchor="middle" x="891" y="-7.5" font-family="Helvetica,sans-Serif" font-size="10.00">thread</text>
</g>
<!-- Node2&#45;&gt;Node12 -->
<g id="edge13" class="edge"><title>Node2&#45;&gt;Node12</title>
<path fill="none" stroke="midnightblue" d="M587.391,-61.9522C640.018,-56.2099 753.917,-42.4889 858.934,-19.9845"/>
<polygon fill="midnightblue" stroke="midnightblue" points="859.714,-23.3968 868.741,-17.8511 858.226,-16.5568 859.714,-23.3968"/>
</g>
<!-- Node13 -->
<g id="node14" class="node"><title>Node13</title>
<polygon fill="none" stroke="#bfbfbf" points="931,-0.5 931,-19.5 975,-19.5 975,-0.5 931,-0.5"/>
<text text-anchor="middle" x="953" y="-7.5" font-family="Helvetica,sans-Serif" font-size="10.00">cmath</text>
</g>
<!-- Node2&#45;&gt;Node13 -->
<g id="edge14" class="edge"><title>Node2&#45;&gt;Node13</title>
<path fill="none" stroke="midnightblue" d="M587.039,-62.992C647.479,-58.4763 791.269,-45.9832 920.673,-19.9788"/>
<polygon fill="midnightblue" stroke="midnightblue" points="921.658,-23.3498 930.755,-17.9188 920.257,-16.4915 921.658,-23.3498"/>
</g>
</g>
</svg>
