<?xml version="1.0" encoding="UTF-8" standalone="no"?>
<!DOCTYPE svg PUBLIC "-//W3C//DTD SVG 1.1//EN"
 "http://www.w3.org/Graphics/SVG/1.1/DTD/svg11.dtd">
<!-- Generated by graphviz version 2.38.0 (20140413.2041)
 -->
<!-- Title: D:/Users/Victor/OneDrive/Documents/Visual Studio 2017/Projects/Jeu_de_Go/Jeu_de_Go/Sources/Graphics/Screens.h Pages: 1 -->
<svg width="1110pt" height="464pt"
 viewBox="0.00 0.00 1110.19 464.00" xmlns="http://www.w3.org/2000/svg" xmlns:xlink="http://www.w3.org/1999/xlink">
<g id="graph0" class="graph" transform="scale(1 1) rotate(0) translate(4 460)">
<title>D:/Users/Victor/OneDrive/Documents/Visual Studio 2017/Projects/Jeu_de_Go/Jeu_de_Go/Sources/Graphics/Screens.h</title>
<!-- Node0 -->
<g id="node1" class="node"><title>Node0</title>
<polygon fill="#bfbfbf" stroke="black" points="301,-392.5 301,-455.5 450,-455.5 450,-392.5 301,-392.5"/>
<text text-anchor="start" x="309" y="-443.5" font-family="Helvetica,sans-Serif" font-size="10.00">D:/Users/Victor/OneDrive</text>
<text text-anchor="start" x="309" y="-432.5" font-family="Helvetica,sans-Serif" font-size="10.00">/Documents/Visual Studio</text>
<text text-anchor="start" x="309" y="-421.5" font-family="Helvetica,sans-Serif" font-size="10.00"> 2017/Projects/Jeu_de_Go</text>
<text text-anchor="start" x="309" y="-410.5" font-family="Helvetica,sans-Serif" font-size="10.00">/Jeu_de_Go/Sources/Graphics</text>
<text text-anchor="middle" x="375.5" y="-399.5" font-family="Helvetica,sans-Serif" font-size="10.00">/Screens.h</text>
</g>
<!-- Node1 -->
<g id="node2" class="node"><title>Node1</title>
<g id="a_node2"><a xlink:href="_screen_8h.html" target="_top" xlink:title="Screen.h">
<polygon fill="none" stroke="black" points="345.5,-112.5 345.5,-131.5 401.5,-131.5 401.5,-112.5 345.5,-112.5"/>
<text text-anchor="middle" x="373.5" y="-119.5" font-family="Helvetica,sans-Serif" font-size="10.00">Screen.h</text>
</a>
</g>
</g>
<!-- Node0&#45;&gt;Node1 -->
<g id="edge1" class="edge"><title>Node0&#45;&gt;Node1</title>
<path fill="none" stroke="midnightblue" d="M359.721,-392.383C341.611,-353.652 315.493,-284.679 324.5,-224 328.319,-198.271 330.036,-191.348 341.5,-168 346.403,-158.015 353.435,-147.837 359.659,-139.692"/>
<polygon fill="midnightblue" stroke="midnightblue" points="362.482,-141.766 365.957,-131.757 356.999,-137.414 362.482,-141.766"/>
</g>
<!-- Node15 -->
<g id="node16" class="node"><title>Node15</title>
<g id="a_node16"><a xlink:href="_game__window_8h.html" target="_top" xlink:title="Game/Game_window.h">
<polygon fill="none" stroke="black" points="540,-336.5 540,-355.5 657,-355.5 657,-336.5 540,-336.5"/>
<text text-anchor="middle" x="598.5" y="-343.5" font-family="Helvetica,sans-Serif" font-size="10.00">Game/Game_window.h</text>
</a>
</g>
</g>
<!-- Node0&#45;&gt;Node15 -->
<g id="edge16" class="edge"><title>Node0&#45;&gt;Node15</title>
<path fill="none" stroke="midnightblue" d="M450.066,-397.587C488.516,-384.483 533.572,-369.128 563.871,-358.802"/>
<polygon fill="midnightblue" stroke="midnightblue" points="565.214,-362.042 573.551,-355.503 562.956,-355.416 565.214,-362.042"/>
</g>
<!-- Node29 -->
<g id="node30" class="node"><title>Node29</title>
<g id="a_node30"><a xlink:href="_menu_8h.html" target="_top" xlink:title="Menu.h">
<polygon fill="none" stroke="black" points="351,-168.5 351,-187.5 400,-187.5 400,-168.5 351,-168.5"/>
<text text-anchor="middle" x="375.5" y="-175.5" font-family="Helvetica,sans-Serif" font-size="10.00">Menu.h</text>
</a>
</g>
</g>
<!-- Node0&#45;&gt;Node29 -->
<g id="edge51" class="edge"><title>Node0&#45;&gt;Node29</title>
<path fill="none" stroke="midnightblue" d="M395.365,-392.256C418.556,-352.206 450.717,-280.622 425.5,-224 419.932,-211.498 408.984,-201.012 398.749,-193.317"/>
<polygon fill="midnightblue" stroke="midnightblue" points="400.656,-190.379 390.452,-187.526 396.649,-196.119 400.656,-190.379"/>
</g>
<!-- Node32 -->
<g id="node33" class="node"><title>Node32</title>
<g id="a_node33"><a xlink:href="_menu___miniature_8h.html" target="_top" xlink:title="Menu_Miniature.h">
<polygon fill="none" stroke="black" points="183.5,-224.5 183.5,-243.5 277.5,-243.5 277.5,-224.5 183.5,-224.5"/>
<text text-anchor="middle" x="230.5" y="-231.5" font-family="Helvetica,sans-Serif" font-size="10.00">Menu_Miniature.h</text>
</a>
</g>
</g>
<!-- Node0&#45;&gt;Node32 -->
<g id="edge61" class="edge"><title>Node0&#45;&gt;Node32</title>
<path fill="none" stroke="midnightblue" d="M330.007,-392.479C316.515,-381.989 302.439,-369.465 291.5,-356 265.27,-323.711 246.171,-278.296 236.868,-253.295"/>
<polygon fill="midnightblue" stroke="midnightblue" points="240.073,-251.866 233.389,-243.645 233.488,-254.239 240.073,-251.866"/>
</g>
<!-- Node34 -->
<g id="node35" class="node"><title>Node34</title>
<g id="a_node35"><a xlink:href="_menu__simple_8h.html" target="_top" xlink:title="Menu_simple.h">
<polygon fill="none" stroke="black" points="334,-224.5 334,-243.5 417,-243.5 417,-224.5 334,-224.5"/>
<text text-anchor="middle" x="375.5" y="-231.5" font-family="Helvetica,sans-Serif" font-size="10.00">Menu_simple.h</text>
</a>
</g>
</g>
<!-- Node0&#45;&gt;Node34 -->
<g id="edge65" class="edge"><title>Node0&#45;&gt;Node34</title>
<path fill="none" stroke="midnightblue" d="M375.5,-392.376C375.5,-353.271 375.5,-286.774 375.5,-254.173"/>
<polygon fill="midnightblue" stroke="midnightblue" points="379,-253.809 375.5,-243.809 372,-253.809 379,-253.809"/>
</g>
<!-- Node2 -->
<g id="node3" class="node"><title>Node2</title>
<polygon fill="none" stroke="#bfbfbf" points="59.5,-0.5 59.5,-19.5 163.5,-19.5 163.5,-0.5 59.5,-0.5"/>
<text text-anchor="middle" x="111.5" y="-7.5" font-family="Helvetica,sans-Serif" font-size="10.00">SFML/Graphics.hpp</text>
</g>
<!-- Node1&#45;&gt;Node2 -->
<g id="edge2" class="edge"><title>Node1&#45;&gt;Node2</title>
<path fill="none" stroke="midnightblue" d="M369.487,-112.242C362.496,-98.0281 346.679,-70.1074 324.5,-56 311.537,-47.7545 229.118,-31.8303 170.699,-21.3076"/>
<polygon fill="midnightblue" stroke="midnightblue" points="171.28,-17.856 160.82,-19.5381 170.046,-24.7463 171.28,-17.856"/>
</g>
<!-- Node3 -->
<g id="node4" class="node"><title>Node3</title>
<g id="a_node4"><a xlink:href="_globals_8h.html" target="_top" xlink:title="Globals.h">
<polygon fill="none" stroke="black" points="515.5,-56.5 515.5,-75.5 573.5,-75.5 573.5,-56.5 515.5,-56.5"/>
<text text-anchor="middle" x="544.5" y="-63.5" font-family="Helvetica,sans-Serif" font-size="10.00">Globals.h</text>
</a>
</g>
</g>
<!-- Node1&#45;&gt;Node3 -->
<g id="edge3" class="edge"><title>Node1&#45;&gt;Node3</title>
<path fill="none" stroke="midnightblue" d="M400.595,-112.444C429.488,-103.32 475.425,-88.8133 507.605,-78.6509"/>
<polygon fill="midnightblue" stroke="midnightblue" points="509.049,-81.8654 517.531,-75.5164 506.941,-75.1903 509.049,-81.8654"/>
</g>
<!-- Node3&#45;&gt;Node2 -->
<g id="edge4" class="edge"><title>Node3&#45;&gt;Node2</title>
<path fill="none" stroke="midnightblue" d="M515.05,-61.7021C453.645,-54.769 307.222,-37.9414 173.727,-20.1361"/>
<polygon fill="midnightblue" stroke="midnightblue" points="174.107,-16.6558 163.731,-18.7977 173.178,-23.5939 174.107,-16.6558"/>
</g>
<!-- Node4 -->
<g id="node5" class="node"><title>Node4</title>
<polygon fill="none" stroke="#bfbfbf" points="181.5,-0.5 181.5,-19.5 279.5,-19.5 279.5,-0.5 181.5,-0.5"/>
<text text-anchor="middle" x="230.5" y="-7.5" font-family="Helvetica,sans-Serif" font-size="10.00">SFML/System.hpp</text>
</g>
<!-- Node3&#45;&gt;Node4 -->
<g id="edge5" class="edge"><title>Node3&#45;&gt;Node4</title>
<path fill="none" stroke="midnightblue" d="M515.242,-59.9683C463.978,-51.1522 356.991,-32.7531 289.744,-21.1885"/>
<polygon fill="midnightblue" stroke="midnightblue" points="290.163,-17.7093 279.715,-19.4637 288.977,-24.608 290.163,-17.7093"/>
</g>
<!-- Node5 -->
<g id="node6" class="node"><title>Node5</title>
<polygon fill="none" stroke="#bfbfbf" points="298,-0.5 298,-19.5 397,-19.5 397,-0.5 298,-0.5"/>
<text text-anchor="middle" x="347.5" y="-7.5" font-family="Helvetica,sans-Serif" font-size="10.00">SFML/Window.hpp</text>
</g>
<!-- Node3&#45;&gt;Node5 -->
<g id="edge6" class="edge"><title>Node3&#45;&gt;Node5</title>
<path fill="none" stroke="midnightblue" d="M515.432,-57.0321C481.831,-47.8216 426.297,-32.5991 388.361,-22.2004"/>
<polygon fill="midnightblue" stroke="midnightblue" points="389.21,-18.8042 378.64,-19.536 387.359,-25.5551 389.21,-18.8042"/>
</g>
<!-- Node6 -->
<g id="node7" class="node"><title>Node6</title>
<polygon fill="none" stroke="#bfbfbf" points="415,-0.5 415,-19.5 504,-19.5 504,-0.5 415,-0.5"/>
<text text-anchor="middle" x="459.5" y="-7.5" font-family="Helvetica,sans-Serif" font-size="10.00">SFML/Audio.hpp</text>
</g>
<!-- Node3&#45;&gt;Node6 -->
<g id="edge7" class="edge"><title>Node3&#45;&gt;Node6</title>
<path fill="none" stroke="midnightblue" d="M530.843,-56.324C517.584,-47.9002 497.232,-34.9709 481.654,-25.0741"/>
<polygon fill="midnightblue" stroke="midnightblue" points="483.44,-22.0626 473.123,-19.6545 479.687,-27.9711 483.44,-22.0626"/>
</g>
<!-- Node7 -->
<g id="node8" class="node"><title>Node7</title>
<polygon fill="none" stroke="#bfbfbf" points="921.5,-0.5 921.5,-19.5 975.5,-19.5 975.5,-0.5 921.5,-0.5"/>
<text text-anchor="middle" x="948.5" y="-7.5" font-family="Helvetica,sans-Serif" font-size="10.00">iostream</text>
</g>
<!-- Node3&#45;&gt;Node7 -->
<g id="edge8" class="edge"><title>Node3&#45;&gt;Node7</title>
<path fill="none" stroke="midnightblue" d="M573.587,-61.8777C648.451,-53.7702 846.454,-31.8572 911.5,-20 911.602,-19.9815 911.703,-19.9628 911.805,-19.9441"/>
<polygon fill="midnightblue" stroke="midnightblue" points="912.409,-23.3933 921.5,-17.9526 911,-16.5365 912.409,-23.3933"/>
</g>
<!-- Node8 -->
<g id="node9" class="node"><title>Node8</title>
<polygon fill="none" stroke="#bfbfbf" points="522,-0.5 522,-19.5 567,-19.5 567,-0.5 522,-0.5"/>
<text text-anchor="middle" x="544.5" y="-7.5" font-family="Helvetica,sans-Serif" font-size="10.00">cstdlib</text>
</g>
<!-- Node3&#45;&gt;Node8 -->
<g id="edge9" class="edge"><title>Node3&#45;&gt;Node8</title>
<path fill="none" stroke="midnightblue" d="M544.5,-56.083C544.5,-49.0059 544.5,-38.8611 544.5,-29.9865"/>
<polygon fill="midnightblue" stroke="midnightblue" points="548,-29.751 544.5,-19.7511 541,-29.7511 548,-29.751"/>
</g>
<!-- Node9 -->
<g id="node10" class="node"><title>Node9</title>
<polygon fill="none" stroke="#bfbfbf" points="0,-0.5 0,-19.5 41,-19.5 41,-0.5 0,-0.5"/>
<text text-anchor="middle" x="20.5" y="-7.5" font-family="Helvetica,sans-Serif" font-size="10.00">string</text>
</g>
<!-- Node3&#45;&gt;Node9 -->
<g id="edge10" class="edge"><title>Node3&#45;&gt;Node9</title>
<path fill="none" stroke="midnightblue" d="M515.26,-64.3779C439.801,-62.3419 232.352,-54.0134 51.0035,-19.6702"/>
<polygon fill="midnightblue" stroke="midnightblue" points="51.5026,-16.2021 41.0212,-17.7481 50.179,-23.0759 51.5026,-16.2021"/>
</g>
<!-- Node10 -->
<g id="node11" class="node"><title>Node10</title>
<polygon fill="none" stroke="#bfbfbf" points="585,-0.5 585,-19.5 634,-19.5 634,-0.5 585,-0.5"/>
<text text-anchor="middle" x="609.5" y="-7.5" font-family="Helvetica,sans-Serif" font-size="10.00">fstream</text>
</g>
<!-- Node3&#45;&gt;Node10 -->
<g id="edge11" class="edge"><title>Node3&#45;&gt;Node10</title>
<path fill="none" stroke="midnightblue" d="M554.943,-56.324C564.646,-48.2631 579.315,-36.0765 591,-26.3695"/>
<polygon fill="midnightblue" stroke="midnightblue" points="593.411,-28.9163 598.867,-19.8339 588.938,-23.532 593.411,-28.9163"/>
</g>
<!-- Node11 -->
<g id="node12" class="node"><title>Node11</title>
<polygon fill="none" stroke="#bfbfbf" points="652,-0.5 652,-19.5 701,-19.5 701,-0.5 652,-0.5"/>
<text text-anchor="middle" x="676.5" y="-7.5" font-family="Helvetica,sans-Serif" font-size="10.00">cassert</text>
</g>
<!-- Node3&#45;&gt;Node11 -->
<g id="edge12" class="edge"><title>Node3&#45;&gt;Node11</title>
<path fill="none" stroke="midnightblue" d="M565.416,-56.4435C587.236,-47.5171 621.65,-33.4387 646.392,-23.3168"/>
<polygon fill="midnightblue" stroke="midnightblue" points="647.752,-26.5422 655.682,-19.5164 645.101,-20.0634 647.752,-26.5422"/>
</g>
<!-- Node12 -->
<g id="node13" class="node"><title>Node12</title>
<polygon fill="none" stroke="#bfbfbf" points="844,-0.5 844,-19.5 903,-19.5 903,-0.5 844,-0.5"/>
<text text-anchor="middle" x="873.5" y="-7.5" font-family="Helvetica,sans-Serif" font-size="10.00">stdexcept</text>
</g>
<!-- Node3&#45;&gt;Node12 -->
<g id="edge13" class="edge"><title>Node3&#45;&gt;Node12</title>
<path fill="none" stroke="midnightblue" d="M573.848,-61.1664C624.649,-54.3753 732.452,-39.2838 833.652,-20.0396"/>
<polygon fill="midnightblue" stroke="midnightblue" points="834.576,-23.4261 843.737,-18.1035 833.256,-16.5517 834.576,-23.4261"/>
</g>
<!-- Node13 -->
<g id="node14" class="node"><title>Node13</title>
<polygon fill="none" stroke="#bfbfbf" points="719.5,-0.5 719.5,-19.5 763.5,-19.5 763.5,-0.5 719.5,-0.5"/>
<text text-anchor="middle" x="741.5" y="-7.5" font-family="Helvetica,sans-Serif" font-size="10.00">thread</text>
</g>
<!-- Node3&#45;&gt;Node13 -->
<g id="edge14" class="edge"><title>Node3&#45;&gt;Node13</title>
<path fill="none" stroke="midnightblue" d="M573.728,-57.1036C606.724,-48.1721 662,-33.1568 709.5,-20 709.601,-19.9721 709.702,-19.9441 709.803,-19.9161"/>
<polygon fill="midnightblue" stroke="midnightblue" points="710.78,-23.2772 719.472,-17.2199 708.9,-16.5344 710.78,-23.2772"/>
</g>
<!-- Node14 -->
<g id="node15" class="node"><title>Node14</title>
<polygon fill="none" stroke="#bfbfbf" points="781.5,-0.5 781.5,-19.5 825.5,-19.5 825.5,-0.5 781.5,-0.5"/>
<text text-anchor="middle" x="803.5" y="-7.5" font-family="Helvetica,sans-Serif" font-size="10.00">cmath</text>
</g>
<!-- Node3&#45;&gt;Node14 -->
<g id="edge15" class="edge"><title>Node3&#45;&gt;Node14</title>
<path fill="none" stroke="midnightblue" d="M573.832,-60.0598C615.628,-52.8369 694.89,-38.4624 771.411,-20.1017"/>
<polygon fill="midnightblue" stroke="midnightblue" points="772.319,-23.4832 781.212,-17.7242 770.668,-16.6805 772.319,-23.4832"/>
</g>
<!-- Node15&#45;&gt;Node1 -->
<g id="edge46" class="edge"><title>Node15&#45;&gt;Node1</title>
<path fill="none" stroke="midnightblue" d="M573.895,-336.478C554.475,-328.937 527.428,-316.557 507.5,-300 451.095,-253.136 453.013,-226.278 408.5,-168 401.277,-158.543 393.118,-148.043 386.496,-139.566"/>
<polygon fill="midnightblue" stroke="midnightblue" points="389.175,-137.309 380.255,-131.592 383.662,-141.624 389.175,-137.309"/>
</g>
<!-- Node15&#45;&gt;Node3 -->
<g id="edge17" class="edge"><title>Node15&#45;&gt;Node3</title>
<path fill="none" stroke="midnightblue" d="M591.887,-336.303C571.2,-308.479 507.83,-218.397 486.5,-132 484.369,-123.37 482.59,-119.983 486.5,-112 493.023,-98.6839 505.596,-88.177 517.373,-80.6761"/>
<polygon fill="midnightblue" stroke="midnightblue" points="519.271,-83.6205 526.111,-75.5294 515.718,-77.5891 519.271,-83.6205"/>
</g>
<!-- Node16 -->
<g id="node17" class="node"><title>Node16</title>
<g id="a_node17"><a xlink:href="_board_8h.html" target="_top" xlink:title="Board.h">
<polygon fill="none" stroke="black" points="671.5,-280.5 671.5,-299.5 721.5,-299.5 721.5,-280.5 671.5,-280.5"/>
<text text-anchor="middle" x="696.5" y="-287.5" font-family="Helvetica,sans-Serif" font-size="10.00">Board.h</text>
</a>
</g>
</g>
<!-- Node15&#45;&gt;Node16 -->
<g id="edge18" class="edge"><title>Node15&#45;&gt;Node16</title>
<path fill="none" stroke="midnightblue" d="M614.245,-336.324C629.819,-327.743 653.877,-314.486 671.959,-304.522"/>
<polygon fill="midnightblue" stroke="midnightblue" points="673.724,-307.546 680.794,-299.655 670.346,-301.415 673.724,-307.546"/>
</g>
<!-- Node19 -->
<g id="node20" class="node"><title>Node19</title>
<g id="a_node20"><a xlink:href="_goban_8h.html" target="_top" xlink:title="../../Engine/Goban.h">
<polygon fill="none" stroke="black" points="781.5,-168.5 781.5,-187.5 885.5,-187.5 885.5,-168.5 781.5,-168.5"/>
<text text-anchor="middle" x="833.5" y="-175.5" font-family="Helvetica,sans-Serif" font-size="10.00">../../Engine/Goban.h</text>
</a>
</g>
</g>
<!-- Node15&#45;&gt;Node19 -->
<g id="edge47" class="edge"><title>Node15&#45;&gt;Node19</title>
<path fill="none" stroke="midnightblue" d="M642.989,-336.469C670.055,-329.739 704.332,-318.348 730.5,-300 765.963,-275.134 763.148,-256.743 791.5,-224 799.982,-214.204 809.851,-203.593 817.89,-195.136"/>
<polygon fill="midnightblue" stroke="midnightblue" points="820.542,-197.427 824.933,-187.785 815.488,-192.585 820.542,-197.427"/>
</g>
<!-- Node25 -->
<g id="node26" class="node"><title>Node25</title>
<g id="a_node26"><a xlink:href="_infos_8h.html" target="_top" xlink:title="Infos.h">
<polygon fill="none" stroke="black" points="576,-168.5 576,-187.5 621,-187.5 621,-168.5 576,-168.5"/>
<text text-anchor="middle" x="598.5" y="-175.5" font-family="Helvetica,sans-Serif" font-size="10.00">Infos.h</text>
</a>
</g>
</g>
<!-- Node15&#45;&gt;Node25 -->
<g id="edge41" class="edge"><title>Node15&#45;&gt;Node25</title>
<path fill="none" stroke="midnightblue" d="M598.5,-336.075C598.5,-309.945 598.5,-233.211 598.5,-197.577"/>
<polygon fill="midnightblue" stroke="midnightblue" points="602,-197.568 598.5,-187.568 595,-197.568 602,-197.568"/>
</g>
<!-- Node27 -->
<g id="node28" class="node"><title>Node27</title>
<g id="a_node28"><a xlink:href="_i_a_8h.html" target="_top" xlink:title="../../Engine/IA.h">
<polygon fill="none" stroke="black" points="808,-280.5 808,-299.5 893,-299.5 893,-280.5 808,-280.5"/>
<text text-anchor="middle" x="850.5" y="-287.5" font-family="Helvetica,sans-Serif" font-size="10.00">../../Engine/IA.h</text>
</a>
</g>
</g>
<!-- Node15&#45;&gt;Node27 -->
<g id="edge48" class="edge"><title>Node15&#45;&gt;Node27</title>
<path fill="none" stroke="midnightblue" d="M638.43,-336.444C682.391,-327.023 753.127,-311.866 800.683,-301.675"/>
<polygon fill="midnightblue" stroke="midnightblue" points="801.712,-305.034 810.757,-299.516 800.245,-298.189 801.712,-305.034"/>
</g>
<!-- Node16&#45;&gt;Node3 -->
<g id="edge19" class="edge"><title>Node16&#45;&gt;Node3</title>
<path fill="none" stroke="midnightblue" d="M692.246,-280.214C682.27,-259.874 656.185,-208.217 629.5,-168 612,-141.626 605.95,-136.159 585.5,-112 577.221,-102.219 567.586,-91.6083 559.738,-83.1482"/>
<polygon fill="midnightblue" stroke="midnightblue" points="562.249,-80.7087 552.863,-75.7931 557.135,-85.4887 562.249,-80.7087"/>
</g>
<!-- Node17 -->
<g id="node18" class="node"><title>Node17</title>
<g id="a_node18"><a xlink:href="_square_8h.html" target="_top" xlink:title="Square.h">
<polygon fill="none" stroke="black" points="677.5,-112.5 677.5,-131.5 733.5,-131.5 733.5,-112.5 677.5,-112.5"/>
<text text-anchor="middle" x="705.5" y="-119.5" font-family="Helvetica,sans-Serif" font-size="10.00">Square.h</text>
</a>
</g>
</g>
<!-- Node16&#45;&gt;Node17 -->
<g id="edge20" class="edge"><title>Node16&#45;&gt;Node17</title>
<path fill="none" stroke="midnightblue" d="M696.984,-280.075C698.401,-253.945 702.561,-177.211 704.493,-141.577"/>
<polygon fill="midnightblue" stroke="midnightblue" points="707.989,-141.743 705.035,-131.568 700.999,-141.364 707.989,-141.743"/>
</g>
<!-- Node16&#45;&gt;Node19 -->
<g id="edge24" class="edge"><title>Node16&#45;&gt;Node19</title>
<path fill="none" stroke="midnightblue" d="M703.491,-280.291C714.35,-267.103 736.336,-241.73 758.5,-224 773.577,-211.939 792.178,-200.758 807.084,-192.558"/>
<polygon fill="midnightblue" stroke="midnightblue" points="809.12,-195.438 816.272,-187.621 805.806,-189.272 809.12,-195.438"/>
</g>
<!-- Node24 -->
<g id="node25" class="node"><title>Node24</title>
<g id="a_node25"><a xlink:href="_arbre_8h.html" target="_top" xlink:title="../../Engine/Arbre.h">
<polygon fill="none" stroke="black" points="801,-224.5 801,-243.5 900,-243.5 900,-224.5 801,-224.5"/>
<text text-anchor="middle" x="850.5" y="-231.5" font-family="Helvetica,sans-Serif" font-size="10.00">../../Engine/Arbre.h</text>
</a>
</g>
</g>
<!-- Node16&#45;&gt;Node24 -->
<g id="edge37" class="edge"><title>Node16&#45;&gt;Node24</title>
<path fill="none" stroke="midnightblue" d="M720.902,-280.444C746.697,-271.399 787.577,-257.064 816.518,-246.916"/>
<polygon fill="midnightblue" stroke="midnightblue" points="817.934,-250.128 826.212,-243.516 815.618,-243.523 817.934,-250.128"/>
</g>
<!-- Node17&#45;&gt;Node3 -->
<g id="edge21" class="edge"><title>Node17&#45;&gt;Node3</title>
<path fill="none" stroke="midnightblue" d="M679.989,-112.444C652.904,-103.359 609.91,-88.9388 579.631,-78.7831"/>
<polygon fill="midnightblue" stroke="midnightblue" points="580.486,-75.3781 569.892,-75.5164 578.26,-82.0148 580.486,-75.3781"/>
</g>
<!-- Node18 -->
<g id="node19" class="node"><title>Node18</title>
<g id="a_node19"><a xlink:href="_etat_8h.html" target="_top" xlink:title="../../Engine/Etat.h">
<polygon fill="none" stroke="black" points="925.5,-56.5 925.5,-75.5 1019.5,-75.5 1019.5,-56.5 925.5,-56.5"/>
<text text-anchor="middle" x="972.5" y="-63.5" font-family="Helvetica,sans-Serif" font-size="10.00">../../Engine/Etat.h</text>
</a>
</g>
</g>
<!-- Node17&#45;&gt;Node18 -->
<g id="edge22" class="edge"><title>Node17&#45;&gt;Node18</title>
<path fill="none" stroke="midnightblue" d="M733.569,-115.323C777.81,-106.375 864.465,-88.8498 920.36,-77.5451"/>
<polygon fill="midnightblue" stroke="midnightblue" points="921.314,-80.9231 930.422,-75.5102 919.927,-74.062 921.314,-80.9231"/>
</g>
<!-- Node18&#45;&gt;Node7 -->
<g id="edge23" class="edge"><title>Node18&#45;&gt;Node7</title>
<path fill="none" stroke="midnightblue" d="M968.537,-56.083C965.287,-48.77 960.581,-38.1814 956.546,-29.1034"/>
<polygon fill="midnightblue" stroke="midnightblue" points="959.649,-27.4677 952.389,-19.7511 953.252,-30.3107 959.649,-27.4677"/>
</g>
<!-- Node19&#45;&gt;Node7 -->
<g id="edge25" class="edge"><title>Node19&#45;&gt;Node7</title>
<path fill="none" stroke="midnightblue" d="M832.686,-168.343C831.144,-146.924 830.036,-90.6771 856.5,-56 870.003,-38.3062 892.298,-27.1566 911.558,-20.3819"/>
<polygon fill="midnightblue" stroke="midnightblue" points="912.858,-23.64 921.291,-17.2265 910.699,-16.9813 912.858,-23.64"/>
</g>
<!-- Node19&#45;&gt;Node12 -->
<g id="edge36" class="edge"><title>Node19&#45;&gt;Node12</title>
<path fill="none" stroke="midnightblue" d="M830.041,-168.312C822.418,-147.746 806.177,-94.8956 823.5,-56 829.068,-43.4981 840.016,-33.0124 850.251,-25.3167"/>
<polygon fill="midnightblue" stroke="midnightblue" points="852.351,-28.1193 858.548,-19.5256 848.344,-22.3794 852.351,-28.1193"/>
</g>
<!-- Node19&#45;&gt;Node14 -->
<g id="edge26" class="edge"><title>Node19&#45;&gt;Node14</title>
<path fill="none" stroke="midnightblue" d="M819.13,-168.33C807.62,-160.469 792.311,-147.722 785.5,-132 770.644,-97.709 784.715,-53.3916 794.965,-29.0318"/>
<polygon fill="midnightblue" stroke="midnightblue" points="798.283,-30.1842 799.159,-19.6256 791.89,-27.3338 798.283,-30.1842"/>
</g>
<!-- Node19&#45;&gt;Node18 -->
<g id="edge28" class="edge"><title>Node19&#45;&gt;Node18</title>
<path fill="none" stroke="midnightblue" d="M885.534,-175.085C950.527,-171.473 1056.17,-161.16 1080.5,-132 1101.54,-106.779 1060.79,-88.7893 1023.47,-78.2205"/>
<polygon fill="midnightblue" stroke="midnightblue" points="1024.15,-74.7816 1013.59,-75.5651 1022.34,-81.5415 1024.15,-74.7816"/>
</g>
<!-- Node20 -->
<g id="node21" class="node"><title>Node20</title>
<polygon fill="none" stroke="#bfbfbf" points="865.5,-56.5 865.5,-75.5 907.5,-75.5 907.5,-56.5 865.5,-56.5"/>
<text text-anchor="middle" x="886.5" y="-63.5" font-family="Helvetica,sans-Serif" font-size="10.00">vector</text>
</g>
<!-- Node19&#45;&gt;Node20 -->
<g id="edge27" class="edge"><title>Node19&#45;&gt;Node20</title>
<path fill="none" stroke="midnightblue" d="M837.659,-168.368C846.328,-150.376 866.48,-108.55 878.007,-84.6267"/>
<polygon fill="midnightblue" stroke="midnightblue" points="881.173,-86.1195 882.36,-75.5914 874.867,-83.081 881.173,-86.1195"/>
</g>
<!-- Node21 -->
<g id="node22" class="node"><title>Node21</title>
<g id="a_node22"><a xlink:href="_groupe_8h.html" target="_top" xlink:title="Groupe.h">
<polygon fill="none" stroke="black" points="941.5,-112.5 941.5,-131.5 997.5,-131.5 997.5,-112.5 941.5,-112.5"/>
<text text-anchor="middle" x="969.5" y="-119.5" font-family="Helvetica,sans-Serif" font-size="10.00">Groupe.h</text>
</a>
</g>
</g>
<!-- Node19&#45;&gt;Node21 -->
<g id="edge29" class="edge"><title>Node19&#45;&gt;Node21</title>
<path fill="none" stroke="midnightblue" d="M855.05,-168.444C877.531,-159.517 912.988,-145.439 938.48,-135.317"/>
<polygon fill="midnightblue" stroke="midnightblue" points="940.049,-138.46 948.051,-131.516 937.465,-131.954 940.049,-138.46"/>
</g>
<!-- Node22 -->
<g id="node23" class="node"><title>Node22</title>
<g id="a_node23"><a xlink:href="_history_8h.html" target="_top" xlink:title="History.h">
<polygon fill="none" stroke="black" points="1015.5,-112.5 1015.5,-131.5 1071.5,-131.5 1071.5,-112.5 1015.5,-112.5"/>
<text text-anchor="middle" x="1043.5" y="-119.5" font-family="Helvetica,sans-Serif" font-size="10.00">History.h</text>
</a>
</g>
</g>
<!-- Node19&#45;&gt;Node22 -->
<g id="edge32" class="edge"><title>Node19&#45;&gt;Node22</title>
<path fill="none" stroke="midnightblue" d="M866.775,-168.444C904.544,-158.731 966.03,-142.921 1005.61,-132.743"/>
<polygon fill="midnightblue" stroke="midnightblue" points="1006.61,-136.101 1015.42,-130.22 1004.86,-129.321 1006.61,-136.101"/>
</g>
<!-- Node21&#45;&gt;Node18 -->
<g id="edge31" class="edge"><title>Node21&#45;&gt;Node18</title>
<path fill="none" stroke="midnightblue" d="M969.995,-112.083C970.389,-105.006 970.952,-94.8611 971.445,-85.9865"/>
<polygon fill="midnightblue" stroke="midnightblue" points="974.954,-85.9299 972.014,-75.7511 967.964,-85.5415 974.954,-85.9299"/>
</g>
<!-- Node21&#45;&gt;Node20 -->
<g id="edge30" class="edge"><title>Node21&#45;&gt;Node20</title>
<path fill="none" stroke="midnightblue" d="M956.165,-112.324C943.338,-103.979 923.715,-91.2122 908.56,-81.3524"/>
<polygon fill="midnightblue" stroke="midnightblue" points="910.093,-78.1742 899.802,-75.6545 906.276,-84.0417 910.093,-78.1742"/>
</g>
<!-- Node22&#45;&gt;Node3 -->
<g id="edge33" class="edge"><title>Node22&#45;&gt;Node3</title>
<path fill="none" stroke="midnightblue" d="M1015.3,-113.706C1012.34,-113.071 1009.37,-112.486 1006.5,-112 851.186,-85.6824 663.694,-73.3187 583.719,-68.9436"/>
<polygon fill="midnightblue" stroke="midnightblue" points="583.782,-65.442 573.61,-68.402 583.408,-72.432 583.782,-65.442"/>
</g>
<!-- Node22&#45;&gt;Node18 -->
<g id="edge34" class="edge"><title>Node22&#45;&gt;Node18</title>
<path fill="none" stroke="midnightblue" d="M1032.09,-112.324C1021.39,-104.185 1005.16,-91.8395 992.337,-82.0874"/>
<polygon fill="midnightblue" stroke="midnightblue" points="994.193,-79.1018 984.115,-75.8339 989.956,-84.6734 994.193,-79.1018"/>
</g>
<!-- Node23 -->
<g id="node24" class="node"><title>Node23</title>
<polygon fill="none" stroke="#bfbfbf" points="1038,-56.5 1038,-75.5 1067,-75.5 1067,-56.5 1038,-56.5"/>
<text text-anchor="middle" x="1052.5" y="-63.5" font-family="Helvetica,sans-Serif" font-size="10.00">list</text>
</g>
<!-- Node22&#45;&gt;Node23 -->
<g id="edge35" class="edge"><title>Node22&#45;&gt;Node23</title>
<path fill="none" stroke="midnightblue" d="M1044.99,-112.083C1046.18,-104.927 1047.89,-94.6353 1049.38,-85.6911"/>
<polygon fill="midnightblue" stroke="midnightblue" points="1052.85,-86.1904 1051.04,-75.7511 1045.95,-85.0396 1052.85,-86.1904"/>
</g>
<!-- Node24&#45;&gt;Node7 -->
<g id="edge39" class="edge"><title>Node24&#45;&gt;Node7</title>
<path fill="none" stroke="midnightblue" d="M883.486,-224.404C944.845,-207.674 1072.58,-169.116 1097.5,-132 1112.28,-109.984 1087.39,-67.4939 1075.5,-56 1051.19,-32.5007 1013.85,-21.192 985.939,-15.7993"/>
<polygon fill="midnightblue" stroke="midnightblue" points="986.206,-12.2926 975.751,-14.009 984.994,-19.1869 986.206,-12.2926"/>
</g>
<!-- Node24&#45;&gt;Node19 -->
<g id="edge38" class="edge"><title>Node24&#45;&gt;Node19</title>
<path fill="none" stroke="midnightblue" d="M847.693,-224.083C845.415,-216.849 842.129,-206.409 839.292,-197.397"/>
<polygon fill="midnightblue" stroke="midnightblue" points="842.596,-196.239 836.255,-187.751 835.919,-198.341 842.596,-196.239"/>
</g>
<!-- Node24&#45;&gt;Node20 -->
<g id="edge40" class="edge"><title>Node24&#45;&gt;Node20</title>
<path fill="none" stroke="midnightblue" d="M863.281,-224.369C873.894,-216.36 888.231,-203.379 894.5,-188 908.421,-153.85 899.545,-109.781 892.552,-85.3568"/>
<polygon fill="midnightblue" stroke="midnightblue" points="895.844,-84.1539 889.561,-75.6236 889.153,-86.2106 895.844,-84.1539"/>
</g>
<!-- Node25&#45;&gt;Node3 -->
<g id="edge42" class="edge"><title>Node25&#45;&gt;Node3</title>
<path fill="none" stroke="midnightblue" d="M594.263,-168.368C585.43,-150.376 564.897,-108.55 553.153,-84.6267"/>
<polygon fill="midnightblue" stroke="midnightblue" points="556.266,-83.0257 548.718,-75.5914 549.983,-86.1105 556.266,-83.0257"/>
</g>
<!-- Node25&#45;&gt;Node17 -->
<g id="edge43" class="edge"><title>Node25&#45;&gt;Node17</title>
<path fill="none" stroke="midnightblue" d="M615.691,-168.324C632.851,-159.664 659.446,-146.242 679.247,-136.249"/>
<polygon fill="midnightblue" stroke="midnightblue" points="681.001,-139.285 688.351,-131.655 677.847,-133.035 681.001,-139.285"/>
</g>
<!-- Node26 -->
<g id="node27" class="node"><title>Node26</title>
<g id="a_node27"><a xlink:href="_timer_8h.html" target="_top" xlink:title="Timer.h">
<polygon fill="none" stroke="black" points="496,-112.5 496,-131.5 545,-131.5 545,-112.5 496,-112.5"/>
<text text-anchor="middle" x="520.5" y="-119.5" font-family="Helvetica,sans-Serif" font-size="10.00">Timer.h</text>
</a>
</g>
</g>
<!-- Node25&#45;&gt;Node26 -->
<g id="edge44" class="edge"><title>Node25&#45;&gt;Node26</title>
<path fill="none" stroke="midnightblue" d="M585.968,-168.324C573.914,-159.979 555.473,-147.212 541.231,-137.352"/>
<polygon fill="midnightblue" stroke="midnightblue" points="543.215,-134.469 533.001,-131.655 539.231,-140.224 543.215,-134.469"/>
</g>
<!-- Node26&#45;&gt;Node3 -->
<g id="edge45" class="edge"><title>Node26&#45;&gt;Node3</title>
<path fill="none" stroke="midnightblue" d="M524.463,-112.083C527.713,-104.77 532.419,-94.1814 536.454,-85.1034"/>
<polygon fill="midnightblue" stroke="midnightblue" points="539.748,-86.3107 540.611,-75.7511 533.351,-83.4677 539.748,-86.3107"/>
</g>
<!-- Node27&#45;&gt;Node24 -->
<g id="edge50" class="edge"><title>Node27&#45;&gt;Node24</title>
<path fill="none" stroke="midnightblue" d="M850.5,-280.083C850.5,-273.006 850.5,-262.861 850.5,-253.986"/>
<polygon fill="midnightblue" stroke="midnightblue" points="854,-253.751 850.5,-243.751 847,-253.751 854,-253.751"/>
</g>
<!-- Node28 -->
<g id="node29" class="node"><title>Node28</title>
<polygon fill="none" stroke="#bfbfbf" points="918.5,-224.5 918.5,-243.5 964.5,-243.5 964.5,-224.5 918.5,-224.5"/>
<text text-anchor="middle" x="941.5" y="-231.5" font-family="Helvetica,sans-Serif" font-size="10.00">chrono</text>
</g>
<!-- Node27&#45;&gt;Node28 -->
<g id="edge49" class="edge"><title>Node27&#45;&gt;Node28</title>
<path fill="none" stroke="midnightblue" d="M865.121,-280.324C879.449,-271.822 901.513,-258.729 918.249,-248.797"/>
<polygon fill="midnightblue" stroke="midnightblue" points="920.102,-251.768 926.916,-243.655 916.53,-245.748 920.102,-251.768"/>
</g>
<!-- Node29&#45;&gt;Node1 -->
<g id="edge52" class="edge"><title>Node29&#45;&gt;Node1</title>
<path fill="none" stroke="midnightblue" d="M375.17,-168.083C374.908,-161.006 374.532,-150.861 374.203,-141.986"/>
<polygon fill="midnightblue" stroke="midnightblue" points="377.692,-141.615 373.824,-131.751 370.697,-141.874 377.692,-141.615"/>
</g>
<!-- Node29&#45;&gt;Node2 -->
<g id="edge60" class="edge"><title>Node29&#45;&gt;Node2</title>
<path fill="none" stroke="midnightblue" d="M367.694,-168.254C345.227,-143.249 280.3,-72.2139 253.5,-56 226.896,-39.9047 193.959,-29.0018 166.506,-21.9644"/>
<polygon fill="midnightblue" stroke="midnightblue" points="167.208,-18.5329 156.662,-19.5441 165.537,-25.3305 167.208,-18.5329"/>
</g>
<!-- Node29&#45;&gt;Node3 -->
<g id="edge58" class="edge"><title>Node29&#45;&gt;Node3</title>
<path fill="none" stroke="midnightblue" d="M384.544,-168.233C398.532,-154.971 426.612,-129.501 453.5,-112 472.908,-99.368 496.364,-87.849 514.601,-79.6279"/>
<polygon fill="midnightblue" stroke="midnightblue" points="516.144,-82.7727 523.874,-75.5276 513.313,-76.3706 516.144,-82.7727"/>
</g>
<!-- Node29&#45;&gt;Node20 -->
<g id="edge59" class="edge"><title>Node29&#45;&gt;Node20</title>
<path fill="none" stroke="midnightblue" d="M400.169,-171.398C450.544,-159.988 568.893,-133.328 668.5,-112 735.037,-97.753 813.176,-81.8159 855.48,-73.2535"/>
<polygon fill="midnightblue" stroke="midnightblue" points="856.326,-76.6534 865.434,-71.2411 854.938,-69.7922 856.326,-76.6534"/>
</g>
<!-- Node30 -->
<g id="node31" class="node"><title>Node30</title>
<g id="a_node31"><a xlink:href="_choice_8h.html" target="_top" xlink:title="Choice.h">
<polygon fill="none" stroke="black" points="224,-112.5 224,-131.5 279,-131.5 279,-112.5 224,-112.5"/>
<text text-anchor="middle" x="251.5" y="-119.5" font-family="Helvetica,sans-Serif" font-size="10.00">Choice.h</text>
</a>
</g>
</g>
<!-- Node29&#45;&gt;Node30 -->
<g id="edge53" class="edge"><title>Node29&#45;&gt;Node30</title>
<path fill="none" stroke="midnightblue" d="M355.852,-168.444C335.535,-159.596 303.597,-145.687 280.402,-135.586"/>
<polygon fill="midnightblue" stroke="midnightblue" points="281.622,-132.3 271.056,-131.516 278.827,-138.718 281.622,-132.3"/>
</g>
<!-- Node30&#45;&gt;Node3 -->
<g id="edge54" class="edge"><title>Node30&#45;&gt;Node3</title>
<path fill="none" stroke="midnightblue" d="M279.065,-115.92C331.45,-106.265 445.508,-85.2442 505.628,-74.1641"/>
<polygon fill="midnightblue" stroke="midnightblue" points="506.298,-77.5997 515.498,-72.3451 505.029,-70.7156 506.298,-77.5997"/>
</g>
<!-- Node30&#45;&gt;Node7 -->
<g id="edge57" class="edge"><title>Node30&#45;&gt;Node7</title>
<path fill="none" stroke="midnightblue" d="M279.029,-117.824C369.887,-107.122 668.277,-70.2168 911.5,-20 911.601,-19.9791 911.702,-19.9581 911.804,-19.9371"/>
<polygon fill="midnightblue" stroke="midnightblue" points="912.459,-23.3767 921.471,-17.8058 910.952,-16.5409 912.459,-23.3767"/>
</g>
<!-- Node30&#45;&gt;Node9 -->
<g id="edge55" class="edge"><title>Node30&#45;&gt;Node9</title>
<path fill="none" stroke="midnightblue" d="M251.635,-112.388C251.354,-98.3843 248.636,-70.7589 232.5,-56 173.914,-2.41447 133.606,-37.0677 50.8461,-19.7066"/>
<polygon fill="midnightblue" stroke="midnightblue" points="51.6152,-16.2922 41.0849,-17.4595 50.0448,-23.1137 51.6152,-16.2922"/>
</g>
<!-- Node31 -->
<g id="node32" class="node"><title>Node31</title>
<polygon fill="none" stroke="#bfbfbf" points="165.5,-56.5 165.5,-75.5 223.5,-75.5 223.5,-56.5 165.5,-56.5"/>
<text text-anchor="middle" x="194.5" y="-63.5" font-family="Helvetica,sans-Serif" font-size="10.00">functional</text>
</g>
<!-- Node30&#45;&gt;Node31 -->
<g id="edge56" class="edge"><title>Node30&#45;&gt;Node31</title>
<path fill="none" stroke="midnightblue" d="M242.342,-112.324C233.999,-104.42 221.468,-92.5482 211.323,-82.9377"/>
<polygon fill="midnightblue" stroke="midnightblue" points="213.491,-80.1705 203.825,-75.8339 208.677,-85.2522 213.491,-80.1705"/>
</g>
<!-- Node32&#45;&gt;Node29 -->
<g id="edge62" class="edge"><title>Node32&#45;&gt;Node29</title>
<path fill="none" stroke="midnightblue" d="M253.476,-224.444C277.657,-215.438 315.918,-201.189 343.146,-191.049"/>
<polygon fill="midnightblue" stroke="midnightblue" points="344.482,-194.286 352.632,-187.516 342.039,-187.727 344.482,-194.286"/>
</g>
<!-- Node33 -->
<g id="node34" class="node"><title>Node33</title>
<g id="a_node34"><a xlink:href="_choice__miniature_8h.html" target="_top" xlink:title="Choice_miniature.h">
<polygon fill="none" stroke="black" points="86.5,-168.5 86.5,-187.5 186.5,-187.5 186.5,-168.5 86.5,-168.5"/>
<text text-anchor="middle" x="136.5" y="-175.5" font-family="Helvetica,sans-Serif" font-size="10.00">Choice_miniature.h</text>
</a>
</g>
</g>
<!-- Node32&#45;&gt;Node33 -->
<g id="edge63" class="edge"><title>Node32&#45;&gt;Node33</title>
<path fill="none" stroke="midnightblue" d="M215.397,-224.324C200.597,-215.822 177.806,-202.729 160.518,-192.797"/>
<polygon fill="midnightblue" stroke="midnightblue" points="161.98,-189.601 151.565,-187.655 158.493,-195.671 161.98,-189.601"/>
</g>
<!-- Node33&#45;&gt;Node30 -->
<g id="edge64" class="edge"><title>Node33&#45;&gt;Node30</title>
<path fill="none" stroke="midnightblue" d="M154.722,-168.444C173.396,-159.675 202.656,-145.935 224.117,-135.858"/>
<polygon fill="midnightblue" stroke="midnightblue" points="225.799,-138.935 233.363,-131.516 222.824,-132.599 225.799,-138.935"/>
</g>
<!-- Node34&#45;&gt;Node29 -->
<g id="edge66" class="edge"><title>Node34&#45;&gt;Node29</title>
<path fill="none" stroke="midnightblue" d="M375.5,-224.083C375.5,-217.006 375.5,-206.861 375.5,-197.986"/>
<polygon fill="midnightblue" stroke="midnightblue" points="379,-197.751 375.5,-187.751 372,-197.751 379,-197.751"/>
</g>
<!-- Node35 -->
<g id="node36" class="node"><title>Node35</title>
<g id="a_node36"><a xlink:href="_choice___simple_8h.html" target="_top" xlink:title="Choice_Simple.h">
<polygon fill="none" stroke="black" points="204.5,-168.5 204.5,-187.5 294.5,-187.5 294.5,-168.5 204.5,-168.5"/>
<text text-anchor="middle" x="249.5" y="-175.5" font-family="Helvetica,sans-Serif" font-size="10.00">Choice_Simple.h</text>
</a>
</g>
</g>
<!-- Node34&#45;&gt;Node35 -->
<g id="edge67" class="edge"><title>Node34&#45;&gt;Node35</title>
<path fill="none" stroke="midnightblue" d="M355.535,-224.444C334.891,-215.596 302.437,-201.687 278.868,-191.586"/>
<polygon fill="midnightblue" stroke="midnightblue" points="279.942,-188.239 269.372,-187.516 277.184,-194.673 279.942,-188.239"/>
</g>
<!-- Node35&#45;&gt;Node30 -->
<g id="edge68" class="edge"><title>Node35&#45;&gt;Node30</title>
<path fill="none" stroke="midnightblue" d="M249.83,-168.083C250.092,-161.006 250.468,-150.861 250.797,-141.986"/>
<polygon fill="midnightblue" stroke="midnightblue" points="254.303,-141.874 251.176,-131.751 247.308,-141.615 254.303,-141.874"/>
</g>
</g>
</svg>
