<?xml version="1.0" encoding="UTF-8" standalone="no"?>
<!DOCTYPE svg PUBLIC "-//W3C//DTD SVG 1.1//EN"
 "http://www.w3.org/Graphics/SVG/1.1/DTD/svg11.dtd">
<!-- Generated by graphviz version 2.38.0 (20140413.2041)
 -->
<!-- Title: D:/Users/Victor/OneDrive/Documents/Visual Studio 2017/Projects/Jeu_de_Go/Jeu_de_Go/Sources/Graphics/Game/Timer.h Pages: 1 -->
<svg width="983pt" height="184pt"
 viewBox="0.00 0.00 983.00 184.00" xmlns="http://www.w3.org/2000/svg" xmlns:xlink="http://www.w3.org/1999/xlink">
<g id="graph0" class="graph" transform="scale(1 1) rotate(0) translate(4 180)">
<title>D:/Users/Victor/OneDrive/Documents/Visual Studio 2017/Projects/Jeu_de_Go/Jeu_de_Go/Sources/Graphics/Game/Timer.h</title>
<!-- Node0 -->
<g id="node1" class="node"><title>Node0</title>
<polygon fill="#bfbfbf" stroke="black" points="513.5,-112.5 513.5,-175.5 662.5,-175.5 662.5,-112.5 513.5,-112.5"/>
<text text-anchor="start" x="521.5" y="-163.5" font-family="Helvetica,sans-Serif" font-size="10.00">D:/Users/Victor/OneDrive</text>
<text text-anchor="start" x="521.5" y="-152.5" font-family="Helvetica,sans-Serif" font-size="10.00">/Documents/Visual Studio</text>
<text text-anchor="start" x="521.5" y="-141.5" font-family="Helvetica,sans-Serif" font-size="10.00"> 2017/Projects/Jeu_de_Go</text>
<text text-anchor="start" x="521.5" y="-130.5" font-family="Helvetica,sans-Serif" font-size="10.00">/Jeu_de_Go/Sources/Graphics</text>
<text text-anchor="middle" x="588" y="-119.5" font-family="Helvetica,sans-Serif" font-size="10.00">/Game/Timer.h</text>
</g>
<!-- Node1 -->
<g id="node2" class="node"><title>Node1</title>
<g id="a_node2"><a xlink:href="_globals_8h.html" target="_top" xlink:title="../Globals.h">
<polygon fill="none" stroke="black" points="554.5,-56.5 554.5,-75.5 621.5,-75.5 621.5,-56.5 554.5,-56.5"/>
<text text-anchor="middle" x="588" y="-63.5" font-family="Helvetica,sans-Serif" font-size="10.00">../Globals.h</text>
</a>
</g>
</g>
<!-- Node0&#45;&gt;Node1 -->
<g id="edge1" class="edge"><title>Node0&#45;&gt;Node1</title>
<path fill="none" stroke="midnightblue" d="M588,-112.088C588,-103.15 588,-93.6688 588,-85.7195"/>
<polygon fill="midnightblue" stroke="midnightblue" points="591.5,-85.7181 588,-75.7182 584.5,-85.7182 591.5,-85.7181"/>
</g>
<!-- Node2 -->
<g id="node3" class="node"><title>Node2</title>
<polygon fill="none" stroke="#bfbfbf" points="0,-0.5 0,-19.5 104,-19.5 104,-0.5 0,-0.5"/>
<text text-anchor="middle" x="52" y="-7.5" font-family="Helvetica,sans-Serif" font-size="10.00">SFML/Graphics.hpp</text>
</g>
<!-- Node1&#45;&gt;Node2 -->
<g id="edge2" class="edge"><title>Node1&#45;&gt;Node2</title>
<path fill="none" stroke="midnightblue" d="M554.244,-62.4092C477.836,-56.4147 285.593,-40.6021 114.178,-20.087"/>
<polygon fill="midnightblue" stroke="midnightblue" points="114.566,-16.6086 104.219,-18.8869 113.729,-23.5583 114.566,-16.6086"/>
</g>
<!-- Node3 -->
<g id="node4" class="node"><title>Node3</title>
<polygon fill="none" stroke="#bfbfbf" points="122,-0.5 122,-19.5 220,-19.5 220,-0.5 122,-0.5"/>
<text text-anchor="middle" x="171" y="-7.5" font-family="Helvetica,sans-Serif" font-size="10.00">SFML/System.hpp</text>
</g>
<!-- Node1&#45;&gt;Node3 -->
<g id="edge3" class="edge"><title>Node1&#45;&gt;Node3</title>
<path fill="none" stroke="midnightblue" d="M554.3,-61.1091C492.333,-53.8823 355.88,-37.6349 230.217,-20.136"/>
<polygon fill="midnightblue" stroke="midnightblue" points="230.421,-16.6306 220.033,-18.7117 229.452,-23.5631 230.421,-16.6306"/>
</g>
<!-- Node4 -->
<g id="node5" class="node"><title>Node4</title>
<polygon fill="none" stroke="#bfbfbf" points="238.5,-0.5 238.5,-19.5 337.5,-19.5 337.5,-0.5 238.5,-0.5"/>
<text text-anchor="middle" x="288" y="-7.5" font-family="Helvetica,sans-Serif" font-size="10.00">SFML/Window.hpp</text>
</g>
<!-- Node1&#45;&gt;Node4 -->
<g id="edge4" class="edge"><title>Node1&#45;&gt;Node4</title>
<path fill="none" stroke="midnightblue" d="M554.459,-58.9627C503.839,-49.8511 407.272,-32.469 345.343,-21.3218"/>
<polygon fill="midnightblue" stroke="midnightblue" points="345.798,-17.8475 335.336,-19.5206 344.558,-24.7368 345.798,-17.8475"/>
</g>
<!-- Node5 -->
<g id="node6" class="node"><title>Node5</title>
<polygon fill="none" stroke="#bfbfbf" points="355.5,-0.5 355.5,-19.5 444.5,-19.5 444.5,-0.5 355.5,-0.5"/>
<text text-anchor="middle" x="400" y="-7.5" font-family="Helvetica,sans-Serif" font-size="10.00">SFML/Audio.hpp</text>
</g>
<!-- Node1&#45;&gt;Node5 -->
<g id="edge5" class="edge"><title>Node1&#45;&gt;Node5</title>
<path fill="none" stroke="midnightblue" d="M558.211,-56.4435C526.171,-47.2406 475.067,-32.5617 439.647,-22.3879"/>
<polygon fill="midnightblue" stroke="midnightblue" points="440.227,-18.9132 429.65,-19.5164 438.295,-25.6412 440.227,-18.9132"/>
</g>
<!-- Node6 -->
<g id="node7" class="node"><title>Node6</title>
<polygon fill="none" stroke="#bfbfbf" points="463,-0.5 463,-19.5 517,-19.5 517,-0.5 463,-0.5"/>
<text text-anchor="middle" x="490" y="-7.5" font-family="Helvetica,sans-Serif" font-size="10.00">iostream</text>
</g>
<!-- Node1&#45;&gt;Node6 -->
<g id="edge6" class="edge"><title>Node1&#45;&gt;Node6</title>
<path fill="none" stroke="midnightblue" d="M572.255,-56.324C556.681,-47.7428 532.623,-34.486 514.541,-24.5224"/>
<polygon fill="midnightblue" stroke="midnightblue" points="516.154,-21.4152 505.706,-19.6545 512.776,-27.546 516.154,-21.4152"/>
</g>
<!-- Node7 -->
<g id="node8" class="node"><title>Node7</title>
<polygon fill="none" stroke="#bfbfbf" points="535.5,-0.5 535.5,-19.5 580.5,-19.5 580.5,-0.5 535.5,-0.5"/>
<text text-anchor="middle" x="558" y="-7.5" font-family="Helvetica,sans-Serif" font-size="10.00">cstdlib</text>
</g>
<!-- Node1&#45;&gt;Node7 -->
<g id="edge7" class="edge"><title>Node1&#45;&gt;Node7</title>
<path fill="none" stroke="midnightblue" d="M583.046,-56.083C578.896,-48.6127 572.847,-37.7244 567.733,-28.5199"/>
<polygon fill="midnightblue" stroke="midnightblue" points="570.778,-26.7929 562.862,-19.7511 564.659,-30.1924 570.778,-26.7929"/>
</g>
<!-- Node8 -->
<g id="node9" class="node"><title>Node8</title>
<polygon fill="none" stroke="#bfbfbf" points="598.5,-0.5 598.5,-19.5 639.5,-19.5 639.5,-0.5 598.5,-0.5"/>
<text text-anchor="middle" x="619" y="-7.5" font-family="Helvetica,sans-Serif" font-size="10.00">string</text>
</g>
<!-- Node1&#45;&gt;Node8 -->
<g id="edge8" class="edge"><title>Node1&#45;&gt;Node8</title>
<path fill="none" stroke="midnightblue" d="M593.119,-56.083C597.408,-48.6127 603.658,-37.7244 608.942,-28.5199"/>
<polygon fill="midnightblue" stroke="midnightblue" points="612.033,-30.1662 613.976,-19.7511 605.962,-26.6811 612.033,-30.1662"/>
</g>
<!-- Node9 -->
<g id="node10" class="node"><title>Node9</title>
<polygon fill="none" stroke="#bfbfbf" points="657.5,-0.5 657.5,-19.5 706.5,-19.5 706.5,-0.5 657.5,-0.5"/>
<text text-anchor="middle" x="682" y="-7.5" font-family="Helvetica,sans-Serif" font-size="10.00">fstream</text>
</g>
<!-- Node1&#45;&gt;Node9 -->
<g id="edge9" class="edge"><title>Node1&#45;&gt;Node9</title>
<path fill="none" stroke="midnightblue" d="M603.103,-56.324C617.903,-47.8215 640.694,-34.7288 657.982,-24.7975"/>
<polygon fill="midnightblue" stroke="midnightblue" points="660.007,-27.6707 666.935,-19.6545 656.52,-21.6009 660.007,-27.6707"/>
</g>
<!-- Node10 -->
<g id="node11" class="node"><title>Node10</title>
<polygon fill="none" stroke="#bfbfbf" points="724.5,-0.5 724.5,-19.5 773.5,-19.5 773.5,-0.5 724.5,-0.5"/>
<text text-anchor="middle" x="749" y="-7.5" font-family="Helvetica,sans-Serif" font-size="10.00">cassert</text>
</g>
<!-- Node1&#45;&gt;Node10 -->
<g id="edge10" class="edge"><title>Node1&#45;&gt;Node10</title>
<path fill="none" stroke="midnightblue" d="M613.511,-56.4435C640.835,-47.2789 684.35,-32.6839 714.667,-22.5153"/>
<polygon fill="midnightblue" stroke="midnightblue" points="716.032,-25.7491 724.4,-19.2508 713.806,-19.1125 716.032,-25.7491"/>
</g>
<!-- Node11 -->
<g id="node12" class="node"><title>Node11</title>
<polygon fill="none" stroke="#bfbfbf" points="791.5,-0.5 791.5,-19.5 850.5,-19.5 850.5,-0.5 791.5,-0.5"/>
<text text-anchor="middle" x="821" y="-7.5" font-family="Helvetica,sans-Serif" font-size="10.00">stdexcept</text>
</g>
<!-- Node1&#45;&gt;Node11 -->
<g id="edge11" class="edge"><title>Node1&#45;&gt;Node11</title>
<path fill="none" stroke="midnightblue" d="M621.832,-57.2547C658.758,-48.7876 719.891,-34.7297 781.282,-20.3934"/>
<polygon fill="midnightblue" stroke="midnightblue" points="782.192,-23.775 791.133,-18.0909 780.599,-16.9587 782.192,-23.775"/>
</g>
<!-- Node12 -->
<g id="node13" class="node"><title>Node12</title>
<polygon fill="none" stroke="#bfbfbf" points="869,-0.5 869,-19.5 913,-19.5 913,-0.5 869,-0.5"/>
<text text-anchor="middle" x="891" y="-7.5" font-family="Helvetica,sans-Serif" font-size="10.00">thread</text>
</g>
<!-- Node1&#45;&gt;Node12 -->
<g id="edge12" class="edge"><title>Node1&#45;&gt;Node12</title>
<path fill="none" stroke="midnightblue" d="M621.749,-60.7283C671.594,-54.1351 767.965,-40.3047 858.824,-20.0476"/>
<polygon fill="midnightblue" stroke="midnightblue" points="859.749,-23.4268 868.731,-17.8077 858.206,-16.5991 859.749,-23.4268"/>
</g>
<!-- Node13 -->
<g id="node14" class="node"><title>Node13</title>
<polygon fill="none" stroke="#bfbfbf" points="931,-0.5 931,-19.5 975,-19.5 975,-0.5 931,-0.5"/>
<text text-anchor="middle" x="953" y="-7.5" font-family="Helvetica,sans-Serif" font-size="10.00">cmath</text>
</g>
<!-- Node1&#45;&gt;Node13 -->
<g id="edge13" class="edge"><title>Node1&#45;&gt;Node13</title>
<path fill="none" stroke="midnightblue" d="M621.944,-62.1083C680.908,-56.7234 806.161,-43.6887 920.758,-19.9886"/>
<polygon fill="midnightblue" stroke="midnightblue" points="921.683,-23.3709 930.749,-17.8891 920.243,-16.5205 921.683,-23.3709"/>
</g>
</g>
</svg>
