<?xml version="1.0" encoding="UTF-8" standalone="no"?>
<!DOCTYPE svg PUBLIC "-//W3C//DTD SVG 1.1//EN"
 "http://www.w3.org/Graphics/SVG/1.1/DTD/svg11.dtd">
<!-- Generated by graphviz version 2.38.0 (20140413.2041)
 -->
<!-- Title: Board::turnSoundsDown Pages: 1 -->
<svg width="261pt" height="66pt"
 viewBox="0.00 0.00 261.00 66.00" xmlns="http://www.w3.org/2000/svg" xmlns:xlink="http://www.w3.org/1999/xlink">
<g id="graph0" class="graph" transform="scale(1 1) rotate(0) translate(4 62)">
<title>Board::turnSoundsDown</title>
<!-- Node101 -->
<g id="node1" class="node"><title>Node101</title>
<polygon fill="#bfbfbf" stroke="black" points="0,-19.5 0,-38.5 122,-38.5 122,-19.5 0,-19.5"/>
<text text-anchor="middle" x="61" y="-26.5" font-family="Helvetica,sans-Serif" font-size="10.00">Board::turnSoundsDown</text>
</g>
<!-- Node102 -->
<g id="node2" class="node"><title>Node102</title>
<g id="a_node2"><a xlink:href="class_board.html#a061962e73609a58802ad83674ec9b413" target="_top" xlink:title="Board::getVolume">
<polygon fill="none" stroke="black" points="158,-38.5 158,-57.5 253,-57.5 253,-38.5 158,-38.5"/>
<text text-anchor="middle" x="205.5" y="-45.5" font-family="Helvetica,sans-Serif" font-size="10.00">Board::getVolume</text>
</a>
</g>
</g>
<!-- Node101&#45;&gt;Node102 -->
<g id="edge1" class="edge"><title>Node101&#45;&gt;Node102</title>
<path fill="none" stroke="midnightblue" d="M122.02,-37.0026C130.564,-38.1418 139.329,-39.3105 147.807,-40.4409"/>
<polygon fill="midnightblue" stroke="midnightblue" points="147.596,-43.9437 157.971,-41.7962 148.521,-37.0051 147.596,-43.9437"/>
</g>
<!-- Node103 -->
<g id="node3" class="node"><title>Node103</title>
<g id="a_node3"><a xlink:href="class_board.html#a4450fe85fda29736cd835fed63d40a41" target="_top" xlink:title="Board::setVolume">
<polygon fill="none" stroke="black" points="158,-0.5 158,-19.5 253,-19.5 253,-0.5 158,-0.5"/>
<text text-anchor="middle" x="205.5" y="-7.5" font-family="Helvetica,sans-Serif" font-size="10.00">Board::setVolume</text>
</a>
</g>
</g>
<!-- Node101&#45;&gt;Node103 -->
<g id="edge2" class="edge"><title>Node101&#45;&gt;Node103</title>
<path fill="none" stroke="midnightblue" d="M122.02,-20.9974C130.564,-19.8582 139.329,-18.6895 147.807,-17.5591"/>
<polygon fill="midnightblue" stroke="midnightblue" points="148.521,-20.9949 157.971,-16.2038 147.596,-14.0563 148.521,-20.9949"/>
</g>
</g>
</svg>
