<?xml version="1.0" encoding="UTF-8" standalone="no"?>
<!DOCTYPE svg PUBLIC "-//W3C//DTD SVG 1.1//EN"
 "http://www.w3.org/Graphics/SVG/1.1/DTD/svg11.dtd">
<!-- Generated by graphviz version 2.38.0 (20140413.2041)
 -->
<!-- Title: Go_Solver::getMusic Pages: 1 -->
<svg width="285pt" height="66pt"
 viewBox="0.00 0.00 285.00 66.00" xmlns="http://www.w3.org/2000/svg" xmlns:xlink="http://www.w3.org/1999/xlink">
<g id="graph0" class="graph" transform="scale(1 1) rotate(0) translate(4 62)">
<title>Go_Solver::getMusic</title>
<!-- Node24 -->
<g id="node1" class="node"><title>Node24</title>
<polygon fill="#bfbfbf" stroke="black" points="0,-19.5 0,-38.5 107,-38.5 107,-19.5 0,-19.5"/>
<text text-anchor="middle" x="53.5" y="-26.5" font-family="Helvetica,sans-Serif" font-size="10.00">Go_Solver::getMusic</text>
</g>
<!-- Node25 -->
<g id="node2" class="node"><title>Node25</title>
<g id="a_node2"><a xlink:href="class_go___solver.html#a840b3c44ffd48baf0b7f2b4d15a831a0" target="_top" xlink:title="Go_Solver::turnMusicUp">
<polygon fill="none" stroke="black" points="149,-38.5 149,-57.5 271,-57.5 271,-38.5 149,-38.5"/>
<text text-anchor="middle" x="210" y="-45.5" font-family="Helvetica,sans-Serif" font-size="10.00">Go_Solver::turnMusicUp</text>
</a>
</g>
</g>
<!-- Node24&#45;&gt;Node25 -->
<g id="edge1" class="edge"><title>Node24&#45;&gt;Node25</title>
<path fill="none" stroke="midnightblue" d="M117.445,-36.7408C127.8,-38.0142 138.51,-39.3313 148.795,-40.5962"/>
<polygon fill="midnightblue" stroke="midnightblue" points="117.59,-33.2324 107.238,-35.4856 116.736,-40.1801 117.59,-33.2324"/>
</g>
<!-- Node26 -->
<g id="node3" class="node"><title>Node26</title>
<g id="a_node3"><a xlink:href="class_go___solver.html#a9bf8a0287fac1692ddf3b640ae1b04fe" target="_top" xlink:title="Go_Solver::turnMusicDown">
<polygon fill="none" stroke="black" points="143,-0.5 143,-19.5 277,-19.5 277,-0.5 143,-0.5"/>
<text text-anchor="middle" x="210" y="-7.5" font-family="Helvetica,sans-Serif" font-size="10.00">Go_Solver::turnMusicDown</text>
</a>
</g>
</g>
<!-- Node24&#45;&gt;Node26 -->
<g id="edge2" class="edge"><title>Node24&#45;&gt;Node26</title>
<path fill="none" stroke="midnightblue" d="M117.342,-21.2719C125.744,-20.2386 134.381,-19.1764 142.838,-18.1364"/>
<polygon fill="midnightblue" stroke="midnightblue" points="116.736,-17.8199 107.238,-22.5144 117.59,-24.7676 116.736,-17.8199"/>
</g>
</g>
</svg>
