<?xml version="1.0" encoding="UTF-8" standalone="no"?>
<!DOCTYPE svg PUBLIC "-//W3C//DTD SVG 1.1//EN"
 "http://www.w3.org/Graphics/SVG/1.1/DTD/svg11.dtd">
<!-- Generated by graphviz version 2.38.0 (20140413.2041)
 -->
<!-- Title: Go_Solver::turnSoundsDown Pages: 1 -->
<svg width="632pt" height="66pt"
 viewBox="0.00 0.00 632.00 66.00" xmlns="http://www.w3.org/2000/svg" xmlns:xlink="http://www.w3.org/1999/xlink">
<g id="graph0" class="graph" transform="scale(1 1) rotate(0) translate(4 62)">
<title>Go_Solver::turnSoundsDown</title>
<!-- Node143 -->
<g id="node1" class="node"><title>Node143</title>
<polygon fill="#bfbfbf" stroke="black" points="0,-19.5 0,-38.5 140,-38.5 140,-19.5 0,-19.5"/>
<text text-anchor="middle" x="70" y="-26.5" font-family="Helvetica,sans-Serif" font-size="10.00">Go_Solver::turnSoundsDown</text>
</g>
<!-- Node144 -->
<g id="node2" class="node"><title>Node144</title>
<g id="a_node2"><a xlink:href="class_game__window.html#aa934e0cb8983cf30af634deff8581848" target="_top" xlink:title="Game_window::turnSoundsDown">
<polygon fill="none" stroke="black" points="176,-19.5 176,-38.5 335,-38.5 335,-19.5 176,-19.5"/>
<text text-anchor="middle" x="255.5" y="-26.5" font-family="Helvetica,sans-Serif" font-size="10.00">Game_window::turnSoundsDown</text>
</a>
</g>
</g>
<!-- Node143&#45;&gt;Node144 -->
<g id="edge1" class="edge"><title>Node143&#45;&gt;Node144</title>
<path fill="none" stroke="midnightblue" d="M140.112,-29C148.509,-29 157.177,-29 165.808,-29"/>
<polygon fill="midnightblue" stroke="midnightblue" points="165.905,-32.5001 175.905,-29 165.905,-25.5001 165.905,-32.5001"/>
</g>
<!-- Node145 -->
<g id="node3" class="node"><title>Node145</title>
<g id="a_node3"><a xlink:href="class_board.html#a648552cb139f9c0cc61f6372251739b2" target="_top" xlink:title="Board::turnSoundsDown">
<polygon fill="none" stroke="black" points="371,-19.5 371,-38.5 493,-38.5 493,-19.5 371,-19.5"/>
<text text-anchor="middle" x="432" y="-26.5" font-family="Helvetica,sans-Serif" font-size="10.00">Board::turnSoundsDown</text>
</a>
</g>
</g>
<!-- Node144&#45;&gt;Node145 -->
<g id="edge2" class="edge"><title>Node144&#45;&gt;Node145</title>
<path fill="none" stroke="midnightblue" d="M335.072,-29C343.626,-29 352.292,-29 360.737,-29"/>
<polygon fill="midnightblue" stroke="midnightblue" points="360.906,-32.5001 370.906,-29 360.906,-25.5001 360.906,-32.5001"/>
</g>
<!-- Node146 -->
<g id="node4" class="node"><title>Node146</title>
<g id="a_node4"><a xlink:href="class_board.html#a061962e73609a58802ad83674ec9b413" target="_top" xlink:title="Board::getVolume">
<polygon fill="none" stroke="black" points="529,-38.5 529,-57.5 624,-57.5 624,-38.5 529,-38.5"/>
<text text-anchor="middle" x="576.5" y="-45.5" font-family="Helvetica,sans-Serif" font-size="10.00">Board::getVolume</text>
</a>
</g>
</g>
<!-- Node145&#45;&gt;Node146 -->
<g id="edge3" class="edge"><title>Node145&#45;&gt;Node146</title>
<path fill="none" stroke="midnightblue" d="M493.02,-37.0026C501.564,-38.1418 510.329,-39.3105 518.807,-40.4409"/>
<polygon fill="midnightblue" stroke="midnightblue" points="518.596,-43.9437 528.971,-41.7962 519.521,-37.0051 518.596,-43.9437"/>
</g>
<!-- Node147 -->
<g id="node5" class="node"><title>Node147</title>
<g id="a_node5"><a xlink:href="class_board.html#a4450fe85fda29736cd835fed63d40a41" target="_top" xlink:title="Board::setVolume">
<polygon fill="none" stroke="black" points="529,-0.5 529,-19.5 624,-19.5 624,-0.5 529,-0.5"/>
<text text-anchor="middle" x="576.5" y="-7.5" font-family="Helvetica,sans-Serif" font-size="10.00">Board::setVolume</text>
</a>
</g>
</g>
<!-- Node145&#45;&gt;Node147 -->
<g id="edge4" class="edge"><title>Node145&#45;&gt;Node147</title>
<path fill="none" stroke="midnightblue" d="M493.02,-20.9974C501.564,-19.8582 510.329,-18.6895 518.807,-17.5591"/>
<polygon fill="midnightblue" stroke="midnightblue" points="519.521,-20.9949 528.971,-16.2038 518.596,-14.0563 519.521,-20.9949"/>
</g>
</g>
</svg>
