<?xml version="1.0" encoding="UTF-8" standalone="no"?>
<!DOCTYPE svg PUBLIC "-//W3C//DTD SVG 1.1//EN"
 "http://www.w3.org/Graphics/SVG/1.1/DTD/svg11.dtd">
<!-- Generated by graphviz version 2.38.0 (20140413.2041)
 -->
<!-- Title: Choice_Simple::setFont Pages: 1 -->
<svg width="722pt" height="180pt"
 viewBox="0.00 0.00 722.00 180.00" xmlns="http://www.w3.org/2000/svg" xmlns:xlink="http://www.w3.org/1999/xlink">
<g id="graph0" class="graph" transform="scale(1 1) rotate(0) translate(4 176)">
<title>Choice_Simple::setFont</title>
<!-- Node10 -->
<g id="node1" class="node"><title>Node10</title>
<polygon fill="#bfbfbf" stroke="black" points="0,-76.5 0,-95.5 121,-95.5 121,-76.5 0,-76.5"/>
<text text-anchor="middle" x="60.5" y="-83.5" font-family="Helvetica,sans-Serif" font-size="10.00">Choice_Simple::setFont</text>
</g>
<!-- Node11 -->
<g id="node2" class="node"><title>Node11</title>
<g id="a_node2"><a xlink:href="class_menu__simple.html#a0fc5b4ec10c844f34495364f70cd333e" target="_top" xlink:title="Menu_simple::addItem">
<polygon fill="none" stroke="black" points="157,-76.5 157,-95.5 272,-95.5 272,-76.5 157,-76.5"/>
<text text-anchor="middle" x="214.5" y="-83.5" font-family="Helvetica,sans-Serif" font-size="10.00">Menu_simple::addItem</text>
</a>
</g>
</g>
<!-- Node10&#45;&gt;Node11 -->
<g id="edge1" class="edge"><title>Node10&#45;&gt;Node11</title>
<path fill="none" stroke="midnightblue" d="M131.342,-86C139.772,-86 148.304,-86 156.519,-86"/>
<polygon fill="midnightblue" stroke="midnightblue" points="131.138,-82.5001 121.138,-86 131.138,-89.5001 131.138,-82.5001"/>
</g>
<!-- Node12 -->
<g id="node3" class="node"><title>Node12</title>
<g id="a_node3"><a xlink:href="class_go___solver.html#aefc904642aa7fcc3a5f700f921b9c0ab" target="_top" xlink:title="Go_Solver::loadMenu1">
<polygon fill="none" stroke="black" points="308,-152.5 308,-171.5 422,-171.5 422,-152.5 308,-152.5"/>
<text text-anchor="middle" x="365" y="-159.5" font-family="Helvetica,sans-Serif" font-size="10.00">Go_Solver::loadMenu1</text>
</a>
</g>
</g>
<!-- Node11&#45;&gt;Node12 -->
<g id="edge2" class="edge"><title>Node11&#45;&gt;Node12</title>
<path fill="none" stroke="midnightblue" d="M237.511,-101.531C255.77,-113.924 282.738,-131.117 308,-143 315.525,-146.54 323.894,-149.742 331.821,-152.465"/>
<polygon fill="midnightblue" stroke="midnightblue" points="239.275,-98.4958 229.053,-95.7095 235.306,-104.262 239.275,-98.4958"/>
</g>
<!-- Node15 -->
<g id="node6" class="node"><title>Node15</title>
<g id="a_node6"><a xlink:href="class_go___solver.html#a48def38f87effdb973b5f02329a0af4f" target="_top" xlink:title="Go_Solver::loadMenu3">
<polygon fill="none" stroke="black" points="308,-114.5 308,-133.5 422,-133.5 422,-114.5 308,-114.5"/>
<text text-anchor="middle" x="365" y="-121.5" font-family="Helvetica,sans-Serif" font-size="10.00">Go_Solver::loadMenu3</text>
</a>
</g>
</g>
<!-- Node11&#45;&gt;Node15 -->
<g id="edge5" class="edge"><title>Node11&#45;&gt;Node15</title>
<path fill="none" stroke="midnightblue" d="M262.833,-98.1121C283.515,-103.404 307.419,-109.521 326.797,-114.48"/>
<polygon fill="midnightblue" stroke="midnightblue" points="263.528,-94.6774 252.973,-95.589 261.793,-101.459 263.528,-94.6774"/>
</g>
<!-- Node16 -->
<g id="node7" class="node"><title>Node16</title>
<g id="a_node7"><a xlink:href="class_go___solver.html#a99b82aef6960441ba24e3b28c7ec9ad5" target="_top" xlink:title="Go_Solver::loadMenu4">
<polygon fill="none" stroke="black" points="308,-76.5 308,-95.5 422,-95.5 422,-76.5 308,-76.5"/>
<text text-anchor="middle" x="365" y="-83.5" font-family="Helvetica,sans-Serif" font-size="10.00">Go_Solver::loadMenu4</text>
</a>
</g>
</g>
<!-- Node11&#45;&gt;Node16 -->
<g id="edge7" class="edge"><title>Node11&#45;&gt;Node16</title>
<path fill="none" stroke="midnightblue" d="M282.283,-86C290.737,-86 299.322,-86 307.592,-86"/>
<polygon fill="midnightblue" stroke="midnightblue" points="282.065,-82.5001 272.065,-86 282.065,-89.5001 282.065,-82.5001"/>
</g>
<!-- Node17 -->
<g id="node8" class="node"><title>Node17</title>
<g id="a_node8"><a xlink:href="class_go___solver.html#a480bbc610bbc9bb3b1c675d69128d1fd" target="_top" xlink:title="Go_Solver::loadMenu5">
<polygon fill="none" stroke="black" points="308,-38.5 308,-57.5 422,-57.5 422,-38.5 308,-38.5"/>
<text text-anchor="middle" x="365" y="-45.5" font-family="Helvetica,sans-Serif" font-size="10.00">Go_Solver::loadMenu5</text>
</a>
</g>
</g>
<!-- Node11&#45;&gt;Node17 -->
<g id="edge9" class="edge"><title>Node11&#45;&gt;Node17</title>
<path fill="none" stroke="midnightblue" d="M262.833,-73.8879C283.515,-68.5956 307.419,-62.4787 326.797,-57.5201"/>
<polygon fill="midnightblue" stroke="midnightblue" points="261.793,-70.5411 252.973,-76.411 263.528,-77.3226 261.793,-70.5411"/>
</g>
<!-- Node18 -->
<g id="node9" class="node"><title>Node18</title>
<g id="a_node9"><a xlink:href="class_go___solver.html#a9aa3c644c34232cbc9bd3341930373c9" target="_top" xlink:title="Go_Solver::loadMenu6">
<polygon fill="none" stroke="black" points="308,-0.5 308,-19.5 422,-19.5 422,-0.5 308,-0.5"/>
<text text-anchor="middle" x="365" y="-7.5" font-family="Helvetica,sans-Serif" font-size="10.00">Go_Solver::loadMenu6</text>
</a>
</g>
</g>
<!-- Node11&#45;&gt;Node18 -->
<g id="edge11" class="edge"><title>Node11&#45;&gt;Node18</title>
<path fill="none" stroke="midnightblue" d="M237.511,-70.4691C255.77,-58.0764 282.738,-40.8827 308,-29 315.525,-25.4603 323.894,-22.2585 331.821,-19.535"/>
<polygon fill="midnightblue" stroke="midnightblue" points="235.306,-67.7379 229.053,-76.2905 239.275,-73.5042 235.306,-67.7379"/>
</g>
<!-- Node13 -->
<g id="node4" class="node"><title>Node13</title>
<g id="a_node4"><a xlink:href="class_go___solver.html#a27ceb252dd57ac88d0dc2dbb04a25e32" target="_top" xlink:title="Go_Solver::loadMenu">
<polygon fill="none" stroke="black" points="458,-76.5 458,-95.5 567,-95.5 567,-76.5 458,-76.5"/>
<text text-anchor="middle" x="512.5" y="-83.5" font-family="Helvetica,sans-Serif" font-size="10.00">Go_Solver::loadMenu</text>
</a>
</g>
</g>
<!-- Node12&#45;&gt;Node13 -->
<g id="edge3" class="edge"><title>Node12&#45;&gt;Node13</title>
<path fill="none" stroke="midnightblue" d="M408.181,-148.915C412.909,-147.089 417.603,-145.108 422,-143 450.903,-129.142 481.863,-107.789 498.731,-95.5325"/>
<polygon fill="midnightblue" stroke="midnightblue" points="406.706,-145.728 398.51,-152.442 409.104,-152.304 406.706,-145.728"/>
</g>
<!-- Node14 -->
<g id="node5" class="node"><title>Node14</title>
<g id="a_node5"><a xlink:href="class_go___solver.html#a30bd2f9d195a5553cc683f8314ea4b58" target="_top" xlink:title="Go_Solver::Go_Solver">
<polygon fill="none" stroke="black" points="603,-76.5 603,-95.5 714,-95.5 714,-76.5 603,-76.5"/>
<text text-anchor="middle" x="658.5" y="-83.5" font-family="Helvetica,sans-Serif" font-size="10.00">Go_Solver::Go_Solver</text>
</a>
</g>
</g>
<!-- Node13&#45;&gt;Node14 -->
<g id="edge4" class="edge"><title>Node13&#45;&gt;Node14</title>
<path fill="none" stroke="midnightblue" d="M577.385,-86C585.889,-86 594.546,-86 602.874,-86"/>
<polygon fill="midnightblue" stroke="midnightblue" points="577.12,-82.5001 567.12,-86 577.12,-89.5001 577.12,-82.5001"/>
</g>
<!-- Node15&#45;&gt;Node13 -->
<g id="edge6" class="edge"><title>Node15&#45;&gt;Node13</title>
<path fill="none" stroke="midnightblue" d="M412.653,-111.816C432.853,-106.54 456.148,-100.456 475.048,-95.5201"/>
<polygon fill="midnightblue" stroke="midnightblue" points="411.507,-108.498 402.716,-114.411 413.276,-115.27 411.507,-108.498"/>
</g>
<!-- Node16&#45;&gt;Node13 -->
<g id="edge8" class="edge"><title>Node16&#45;&gt;Node13</title>
<path fill="none" stroke="midnightblue" d="M432.498,-86C440.967,-86 449.551,-86 457.785,-86"/>
<polygon fill="midnightblue" stroke="midnightblue" points="432.254,-82.5001 422.254,-86 432.254,-89.5001 432.254,-82.5001"/>
</g>
<!-- Node17&#45;&gt;Node13 -->
<g id="edge10" class="edge"><title>Node17&#45;&gt;Node13</title>
<path fill="none" stroke="midnightblue" d="M412.653,-60.1843C432.853,-65.46 456.148,-71.5438 475.048,-76.4799"/>
<polygon fill="midnightblue" stroke="midnightblue" points="413.276,-56.7296 402.716,-57.589 411.507,-63.5024 413.276,-56.7296"/>
</g>
<!-- Node18&#45;&gt;Node13 -->
<g id="edge12" class="edge"><title>Node18&#45;&gt;Node13</title>
<path fill="none" stroke="midnightblue" d="M408.181,-23.0847C412.909,-24.9115 417.603,-26.8916 422,-29 450.903,-42.8584 481.863,-64.2106 498.731,-76.4675"/>
<polygon fill="midnightblue" stroke="midnightblue" points="409.104,-19.6959 398.51,-19.5581 406.706,-26.2723 409.104,-19.6959"/>
</g>
</g>
</svg>
