<?xml version="1.0" encoding="UTF-8" standalone="no"?>
<!DOCTYPE svg PUBLIC "-//W3C//DTD SVG 1.1//EN"
 "http://www.w3.org/Graphics/SVG/1.1/DTD/svg11.dtd">
<!-- Generated by graphviz version 2.38.0 (20140413.2041)
 -->
<!-- Title: Goban::ctoi Pages: 1 -->
<svg width="1119pt" height="142pt"
 viewBox="0.00 0.00 1119.00 142.00" xmlns="http://www.w3.org/2000/svg" xmlns:xlink="http://www.w3.org/1999/xlink">
<g id="graph0" class="graph" transform="scale(1 1) rotate(0) translate(4 138)">
<title>Goban::ctoi</title>
<!-- Node75 -->
<g id="node1" class="node"><title>Node75</title>
<polygon fill="#bfbfbf" stroke="black" points="0,-19.5 0,-38.5 67,-38.5 67,-19.5 0,-19.5"/>
<text text-anchor="middle" x="33.5" y="-26.5" font-family="Helvetica,sans-Serif" font-size="10.00">Goban::ctoi</text>
</g>
<!-- Node76 -->
<g id="node2" class="node"><title>Node76</title>
<g id="a_node2"><a xlink:href="class_goban.html#a0e2596110cdbb9b007b2b2fd8d5a9973" target="_top" xlink:title="Goban::DefineStone">
<polygon fill="none" stroke="black" points="103,-19.5 103,-38.5 207,-38.5 207,-19.5 103,-19.5"/>
<text text-anchor="middle" x="155" y="-26.5" font-family="Helvetica,sans-Serif" font-size="10.00">Goban::DefineStone</text>
</a>
</g>
</g>
<!-- Node75&#45;&gt;Node76 -->
<g id="edge1" class="edge"><title>Node75&#45;&gt;Node76</title>
<path fill="none" stroke="midnightblue" d="M77.3627,-29C85.6649,-29 94.4411,-29 102.975,-29"/>
<polygon fill="midnightblue" stroke="midnightblue" points="77.1539,-25.5001 67.1539,-29 77.1539,-32.5001 77.1539,-25.5001"/>
</g>
<!-- Node77 -->
<g id="node3" class="node"><title>Node77</title>
<g id="a_node3"><a xlink:href="class_goban.html#a84f36324eb9ddc29f522d481f04c13e7" target="_top" xlink:title="Goban::listOfLiberties">
<polygon fill="none" stroke="black" points="243,-19.5 243,-38.5 353,-38.5 353,-19.5 243,-19.5"/>
<text text-anchor="middle" x="298" y="-26.5" font-family="Helvetica,sans-Serif" font-size="10.00">Goban::listOfLiberties</text>
</a>
</g>
</g>
<!-- Node76&#45;&gt;Node77 -->
<g id="edge2" class="edge"><title>Node76&#45;&gt;Node77</title>
<path fill="none" stroke="midnightblue" d="M217.425,-29C225.82,-29 234.39,-29 242.648,-29"/>
<polygon fill="midnightblue" stroke="midnightblue" points="217.303,-25.5001 207.303,-29 217.303,-32.5001 217.303,-25.5001"/>
</g>
<!-- Node78 -->
<g id="node4" class="node"><title>Node78</title>
<g id="a_node4"><a xlink:href="class_goban.html#a1ec70508987f66afff5f8df381731fac" target="_top" xlink:title="Goban::eliminateGroups">
<polygon fill="none" stroke="black" points="389,-38.5 389,-57.5 511,-57.5 511,-38.5 389,-38.5"/>
<text text-anchor="middle" x="450" y="-45.5" font-family="Helvetica,sans-Serif" font-size="10.00">Goban::eliminateGroups</text>
</a>
</g>
</g>
<!-- Node77&#45;&gt;Node78 -->
<g id="edge3" class="edge"><title>Node77&#45;&gt;Node78</title>
<path fill="none" stroke="midnightblue" d="M363.347,-37.1506C371.803,-38.2217 380.443,-39.3162 388.827,-40.378"/>
<polygon fill="midnightblue" stroke="midnightblue" points="363.514,-33.6439 353.153,-35.8594 362.634,-40.5884 363.514,-33.6439"/>
</g>
<!-- Node81 -->
<g id="node7" class="node"><title>Node81</title>
<g id="a_node7"><a xlink:href="class_goban.html#a8b95ea2b51c078381562e361ff7febac" target="_top" xlink:title="Goban::isSuicide">
<polygon fill="none" stroke="black" points="731,-0.5 731,-19.5 822,-19.5 822,-0.5 731,-0.5"/>
<text text-anchor="middle" x="776.5" y="-7.5" font-family="Helvetica,sans-Serif" font-size="10.00">Goban::isSuicide</text>
</a>
</g>
</g>
<!-- Node77&#45;&gt;Node81 -->
<g id="edge13" class="edge"><title>Node77&#45;&gt;Node81</title>
<path fill="none" stroke="midnightblue" d="M363.281,-26.4369C461.401,-22.5244 646.06,-15.1613 730.861,-11.78"/>
<polygon fill="midnightblue" stroke="midnightblue" points="363.049,-22.9432 353.197,-26.839 363.328,-29.9377 363.049,-22.9432"/>
</g>
<!-- Node79 -->
<g id="node5" class="node"><title>Node79</title>
<g id="a_node5"><a xlink:href="class_goban.html#a7858b815885e4af36f05f9d26182cb07" target="_top" xlink:title="Goban::eliminateOppGroups">
<polygon fill="none" stroke="black" points="547,-38.5 547,-57.5 687,-57.5 687,-38.5 547,-38.5"/>
<text text-anchor="middle" x="617" y="-45.5" font-family="Helvetica,sans-Serif" font-size="10.00">Goban::eliminateOppGroups</text>
</a>
</g>
</g>
<!-- Node78&#45;&gt;Node79 -->
<g id="edge4" class="edge"><title>Node78&#45;&gt;Node79</title>
<path fill="none" stroke="midnightblue" d="M521.24,-48C529.698,-48 538.331,-48 546.774,-48"/>
<polygon fill="midnightblue" stroke="midnightblue" points="521.036,-44.5001 511.036,-48 521.036,-51.5001 521.036,-44.5001"/>
</g>
<!-- Node80 -->
<g id="node6" class="node"><title>Node80</title>
<g id="a_node6"><a xlink:href="class_goban.html#a799390f04139eec16f7bb8c79b381303" target="_top" xlink:title="Goban::legalEvenKO">
<polygon fill="none" stroke="black" points="723,-114.5 723,-133.5 830,-133.5 830,-114.5 723,-114.5"/>
<text text-anchor="middle" x="776.5" y="-121.5" font-family="Helvetica,sans-Serif" font-size="10.00">Goban::legalEvenKO</text>
</a>
</g>
</g>
<!-- Node79&#45;&gt;Node80 -->
<g id="edge5" class="edge"><title>Node79&#45;&gt;Node80</title>
<path fill="none" stroke="midnightblue" d="M642.856,-62.8724C663.8,-75.0659 694.78,-92.32 723,-105 730.515,-108.377 738.828,-111.606 746.58,-114.413"/>
<polygon fill="midnightblue" stroke="midnightblue" points="644.38,-59.7086 633.985,-57.6606 640.834,-65.744 644.38,-59.7086"/>
</g>
<!-- Node79&#45;&gt;Node81 -->
<g id="edge6" class="edge"><title>Node79&#45;&gt;Node81</title>
<path fill="none" stroke="midnightblue" d="M667.604,-36.032C689.675,-30.7069 715.303,-24.5238 736.042,-19.5201"/>
<polygon fill="midnightblue" stroke="midnightblue" points="666.644,-32.6631 657.744,-38.411 668.286,-39.4679 666.644,-32.6631"/>
</g>
<!-- Node82 -->
<g id="node8" class="node"><title>Node82</title>
<g id="a_node8"><a xlink:href="class_goban.html#a36ab256c9430e070b620052a0f13f051" target="_top" xlink:title="Goban::listFils">
<polygon fill="none" stroke="black" points="736.5,-76.5 736.5,-95.5 816.5,-95.5 816.5,-76.5 736.5,-76.5"/>
<text text-anchor="middle" x="776.5" y="-83.5" font-family="Helvetica,sans-Serif" font-size="10.00">Goban::listFils</text>
</a>
</g>
</g>
<!-- Node79&#45;&gt;Node82 -->
<g id="edge7" class="edge"><title>Node79&#45;&gt;Node82</title>
<path fill="none" stroke="midnightblue" d="M667.643,-59.9773C689.802,-65.3237 715.54,-71.5334 736.314,-76.5457"/>
<polygon fill="midnightblue" stroke="midnightblue" points="668.286,-56.5321 657.744,-57.589 666.644,-63.3369 668.286,-56.5321"/>
</g>
<!-- Node85 -->
<g id="node11" class="node"><title>Node85</title>
<g id="a_node11"><a xlink:href="class_board.html#a5fda73da080403d8a71a8593d581c350" target="_top" xlink:title="Board::click">
<polygon fill="none" stroke="black" points="742.5,-38.5 742.5,-57.5 810.5,-57.5 810.5,-38.5 742.5,-38.5"/>
<text text-anchor="middle" x="776.5" y="-45.5" font-family="Helvetica,sans-Serif" font-size="10.00">Board::click</text>
</a>
</g>
</g>
<!-- Node79&#45;&gt;Node85 -->
<g id="edge10" class="edge"><title>Node79&#45;&gt;Node85</title>
<path fill="none" stroke="midnightblue" d="M697.467,-48C713.303,-48 729.1,-48 742.297,-48"/>
<polygon fill="midnightblue" stroke="midnightblue" points="697.082,-44.5001 687.082,-48 697.082,-51.5001 697.082,-44.5001"/>
</g>
<!-- Node83 -->
<g id="node9" class="node"><title>Node83</title>
<g id="a_node9"><a xlink:href="class_arbre.html#ac82e543d8cbf0aced4d741c346f9950d" target="_top" xlink:title="Arbre::Arbre">
<polygon fill="none" stroke="black" points="884.5,-114.5 884.5,-133.5 953.5,-133.5 953.5,-114.5 884.5,-114.5"/>
<text text-anchor="middle" x="919" y="-121.5" font-family="Helvetica,sans-Serif" font-size="10.00">Arbre::Arbre</text>
</a>
</g>
</g>
<!-- Node82&#45;&gt;Node83 -->
<g id="edge8" class="edge"><title>Node82&#45;&gt;Node83</title>
<path fill="none" stroke="midnightblue" d="M822.813,-98.2556C842.866,-103.679 866.034,-109.945 884.492,-114.937"/>
<polygon fill="midnightblue" stroke="midnightblue" points="823.521,-94.8213 812.954,-95.589 821.693,-101.579 823.521,-94.8213"/>
</g>
<!-- Node84 -->
<g id="node10" class="node"><title>Node84</title>
<g id="a_node10"><a xlink:href="class_arbre.html#a70585b1d341c1e0c262b2b4a4f769b6d" target="_top" xlink:title="Arbre::resetFils">
<polygon fill="none" stroke="black" points="877.5,-76.5 877.5,-95.5 960.5,-95.5 960.5,-76.5 877.5,-76.5"/>
<text text-anchor="middle" x="919" y="-83.5" font-family="Helvetica,sans-Serif" font-size="10.00">Arbre::resetFils</text>
</a>
</g>
</g>
<!-- Node82&#45;&gt;Node84 -->
<g id="edge9" class="edge"><title>Node82&#45;&gt;Node84</title>
<path fill="none" stroke="midnightblue" d="M826.645,-86C843.132,-86 861.329,-86 877.114,-86"/>
<polygon fill="midnightblue" stroke="midnightblue" points="826.637,-82.5001 816.637,-86 826.637,-89.5001 826.637,-82.5001"/>
</g>
<!-- Node86 -->
<g id="node12" class="node"><title>Node86</title>
<g id="a_node12"><a xlink:href="class_game__window.html#afa942088809bf10731bb31d0d37b878d" target="_top" xlink:title="Game_window::click">
<polygon fill="none" stroke="black" points="866,-38.5 866,-57.5 972,-57.5 972,-38.5 866,-38.5"/>
<text text-anchor="middle" x="919" y="-45.5" font-family="Helvetica,sans-Serif" font-size="10.00">Game_window::click</text>
</a>
</g>
</g>
<!-- Node85&#45;&gt;Node86 -->
<g id="edge11" class="edge"><title>Node85&#45;&gt;Node86</title>
<path fill="none" stroke="midnightblue" d="M820.841,-48C835.116,-48 851.137,-48 865.99,-48"/>
<polygon fill="midnightblue" stroke="midnightblue" points="820.797,-44.5001 810.797,-48 820.797,-51.5001 820.797,-44.5001"/>
</g>
<!-- Node87 -->
<g id="node13" class="node"><title>Node87</title>
<g id="a_node13"><a xlink:href="class_game__window.html#a555769f4e8511e45d6623658dc736be5" target="_top" xlink:title="Game_window::Run">
<polygon fill="none" stroke="black" points="1008,-38.5 1008,-57.5 1111,-57.5 1111,-38.5 1008,-38.5"/>
<text text-anchor="middle" x="1059.5" y="-45.5" font-family="Helvetica,sans-Serif" font-size="10.00">Game_window::Run</text>
</a>
</g>
</g>
<!-- Node86&#45;&gt;Node87 -->
<g id="edge12" class="edge"><title>Node86&#45;&gt;Node87</title>
<path fill="none" stroke="midnightblue" d="M982.594,-48C991.066,-48 999.672,-48 1007.9,-48"/>
<polygon fill="midnightblue" stroke="midnightblue" points="982.361,-44.5001 972.361,-48 982.361,-51.5001 982.361,-44.5001"/>
</g>
</g>
</svg>
