<?xml version="1.0" encoding="UTF-8" standalone="no"?>
<!DOCTYPE svg PUBLIC "-//W3C//DTD SVG 1.1//EN"
 "http://www.w3.org/Graphics/SVG/1.1/DTD/svg11.dtd">
<!-- Generated by graphviz version 2.38.0 (20140413.2041)
 -->
<!-- Title: Board::load Pages: 1 -->
<svg width="550pt" height="142pt"
 viewBox="0.00 0.00 550.00 142.00" xmlns="http://www.w3.org/2000/svg" xmlns:xlink="http://www.w3.org/1999/xlink">
<g id="graph0" class="graph" transform="scale(1 1) rotate(0) translate(4 138)">
<title>Board::load</title>
<!-- Node75 -->
<g id="node1" class="node"><title>Node75</title>
<polygon fill="#bfbfbf" stroke="black" points="0,-57.5 0,-76.5 66,-76.5 66,-57.5 0,-57.5"/>
<text text-anchor="middle" x="33" y="-64.5" font-family="Helvetica,sans-Serif" font-size="10.00">Board::load</text>
</g>
<!-- Node76 -->
<g id="node2" class="node"><title>Node76</title>
<g id="a_node2"><a xlink:href="class_board.html#a5fda73da080403d8a71a8593d581c350" target="_top" xlink:title="Board::click">
<polygon fill="none" stroke="black" points="132,-114.5 132,-133.5 200,-133.5 200,-114.5 132,-114.5"/>
<text text-anchor="middle" x="166" y="-121.5" font-family="Helvetica,sans-Serif" font-size="10.00">Board::click</text>
</a>
</g>
</g>
<!-- Node75&#45;&gt;Node76 -->
<g id="edge1" class="edge"><title>Node75&#45;&gt;Node76</title>
<path fill="none" stroke="midnightblue" d="M57.555,-81.8301C70.3599,-89.4598 86.6723,-98.4969 102,-105 111.465,-109.016 122.062,-112.556 131.824,-115.459"/>
<polygon fill="midnightblue" stroke="midnightblue" points="59.2786,-78.782 48.9152,-76.5797 55.6433,-84.764 59.2786,-78.782"/>
</g>
<!-- Node79 -->
<g id="node5" class="node"><title>Node79</title>
<g id="a_node5"><a xlink:href="class_board.html#ac7ec911a62371650afd340d1535a1742" target="_top" xlink:title="Board::cancel">
<polygon fill="none" stroke="black" points="127.5,-76.5 127.5,-95.5 204.5,-95.5 204.5,-76.5 127.5,-76.5"/>
<text text-anchor="middle" x="166" y="-83.5" font-family="Helvetica,sans-Serif" font-size="10.00">Board::cancel</text>
</a>
</g>
</g>
<!-- Node75&#45;&gt;Node79 -->
<g id="edge4" class="edge"><title>Node75&#45;&gt;Node79</title>
<path fill="none" stroke="midnightblue" d="M75.9618,-73.0861C92.4343,-75.4752 111.198,-78.1966 127.238,-80.5231"/>
<polygon fill="midnightblue" stroke="midnightblue" points="76.4451,-69.6196 66.0462,-71.6479 75.4402,-76.5471 76.4451,-69.6196"/>
</g>
<!-- Node81 -->
<g id="node7" class="node"><title>Node81</title>
<g id="a_node7"><a xlink:href="class_board.html#a3cea4df16e41c21666cf51789b7e9e78" target="_top" xlink:title="Board::load">
<polygon fill="none" stroke="black" points="133,-38.5 133,-57.5 199,-57.5 199,-38.5 133,-38.5"/>
<text text-anchor="middle" x="166" y="-45.5" font-family="Helvetica,sans-Serif" font-size="10.00">Board::load</text>
</a>
</g>
</g>
<!-- Node75&#45;&gt;Node81 -->
<g id="edge7" class="edge"><title>Node75&#45;&gt;Node81</title>
<path fill="none" stroke="midnightblue" d="M75.9465,-60.9162C94.379,-58.2427 115.682,-55.1529 132.831,-52.6658"/>
<polygon fill="midnightblue" stroke="midnightblue" points="75.4402,-57.4529 66.0462,-62.3521 76.4451,-64.3804 75.4402,-57.4529"/>
</g>
<!-- Node82 -->
<g id="node8" class="node"><title>Node82</title>
<g id="a_node8"><a xlink:href="class_game__window.html#ac674f6d0db2bf60e92a0072d94e4c019" target="_top" xlink:title="Game_window::setGoban">
<polygon fill="none" stroke="black" points="102,-0.5 102,-19.5 230,-19.5 230,-0.5 102,-0.5"/>
<text text-anchor="middle" x="166" y="-7.5" font-family="Helvetica,sans-Serif" font-size="10.00">Game_window::setGoban</text>
</a>
</g>
</g>
<!-- Node75&#45;&gt;Node82 -->
<g id="edge8" class="edge"><title>Node75&#45;&gt;Node82</title>
<path fill="none" stroke="midnightblue" d="M57.555,-52.1699C70.3599,-44.5402 86.6723,-35.5031 102,-29 110.413,-25.4305 119.721,-22.2364 128.542,-19.5318"/>
<polygon fill="midnightblue" stroke="midnightblue" points="55.6433,-49.236 48.9152,-57.4203 59.2786,-55.218 55.6433,-49.236"/>
</g>
<!-- Node77 -->
<g id="node3" class="node"><title>Node77</title>
<g id="a_node3"><a xlink:href="class_game__window.html#afa942088809bf10731bb31d0d37b878d" target="_top" xlink:title="Game_window::click">
<polygon fill="none" stroke="black" points="281.5,-114.5 281.5,-133.5 387.5,-133.5 387.5,-114.5 281.5,-114.5"/>
<text text-anchor="middle" x="334.5" y="-121.5" font-family="Helvetica,sans-Serif" font-size="10.00">Game_window::click</text>
</a>
</g>
</g>
<!-- Node76&#45;&gt;Node77 -->
<g id="edge2" class="edge"><title>Node76&#45;&gt;Node77</title>
<path fill="none" stroke="midnightblue" d="M210.512,-124C232.167,-124 258.509,-124 281.25,-124"/>
<polygon fill="midnightblue" stroke="midnightblue" points="210.294,-120.5 200.294,-124 210.294,-127.5 210.294,-120.5"/>
</g>
<!-- Node78 -->
<g id="node4" class="node"><title>Node78</title>
<g id="a_node4"><a xlink:href="class_game__window.html#a555769f4e8511e45d6623658dc736be5" target="_top" xlink:title="Game_window::Run">
<polygon fill="none" stroke="black" points="439,-95.5 439,-114.5 542,-114.5 542,-95.5 439,-95.5"/>
<text text-anchor="middle" x="490.5" y="-102.5" font-family="Helvetica,sans-Serif" font-size="10.00">Game_window::Run</text>
</a>
</g>
</g>
<!-- Node77&#45;&gt;Node78 -->
<g id="edge3" class="edge"><title>Node77&#45;&gt;Node78</title>
<path fill="none" stroke="midnightblue" d="M397.924,-116.298C411.576,-114.614 425.862,-112.851 438.981,-111.233"/>
<polygon fill="midnightblue" stroke="midnightblue" points="397.134,-112.869 387.637,-117.567 397.991,-119.817 397.134,-112.869"/>
</g>
<!-- Node80 -->
<g id="node6" class="node"><title>Node80</title>
<g id="a_node6"><a xlink:href="class_game__window.html#a72304de2044c29f1373037bd818f674f" target="_top" xlink:title="Game_window::keyPressed">
<polygon fill="none" stroke="black" points="266,-76.5 266,-95.5 403,-95.5 403,-76.5 266,-76.5"/>
<text text-anchor="middle" x="334.5" y="-83.5" font-family="Helvetica,sans-Serif" font-size="10.00">Game_window::keyPressed</text>
</a>
</g>
</g>
<!-- Node79&#45;&gt;Node80 -->
<g id="edge5" class="edge"><title>Node79&#45;&gt;Node80</title>
<path fill="none" stroke="midnightblue" d="M214.871,-86C230.735,-86 248.704,-86 265.771,-86"/>
<polygon fill="midnightblue" stroke="midnightblue" points="214.781,-82.5001 204.781,-86 214.781,-89.5001 214.781,-82.5001"/>
</g>
<!-- Node80&#45;&gt;Node78 -->
<g id="edge6" class="edge"><title>Node80&#45;&gt;Node78</title>
<path fill="none" stroke="midnightblue" d="M413.186,-95.5846C421.84,-96.6524 430.484,-97.7188 438.678,-98.7297"/>
<polygon fill="midnightblue" stroke="midnightblue" points="413.4,-92.0846 403.047,-94.3337 412.543,-99.0319 413.4,-92.0846"/>
</g>
<!-- Node83 -->
<g id="node9" class="node"><title>Node83</title>
<g id="a_node9"><a xlink:href="class_go___solver.html#a8452c66187c526e0a6051bbb42b9bbda" target="_top" xlink:title="Go_Solver::setGoban">
<polygon fill="none" stroke="black" points="280,-0.5 280,-19.5 389,-19.5 389,-0.5 280,-0.5"/>
<text text-anchor="middle" x="334.5" y="-7.5" font-family="Helvetica,sans-Serif" font-size="10.00">Go_Solver::setGoban</text>
</a>
</g>
</g>
<!-- Node82&#45;&gt;Node83 -->
<g id="edge9" class="edge"><title>Node82&#45;&gt;Node83</title>
<path fill="none" stroke="midnightblue" d="M240.444,-10C253.665,-10 267.221,-10 279.752,-10"/>
<polygon fill="midnightblue" stroke="midnightblue" points="240.422,-6.5001 230.421,-10 240.421,-13.5001 240.422,-6.5001"/>
</g>
</g>
</svg>
