<?xml version="1.0" encoding="UTF-8" standalone="no"?>
<!DOCTYPE svg PUBLIC "-//W3C//DTD SVG 1.1//EN"
 "http://www.w3.org/Graphics/SVG/1.1/DTD/svg11.dtd">
<!-- Generated by graphviz version 2.38.0 (20140413.2041)
 -->
<!-- Title: Arbre::getGob Pages: 1 -->
<svg width="559pt" height="332pt"
 viewBox="0.00 0.00 559.00 332.00" xmlns="http://www.w3.org/2000/svg" xmlns:xlink="http://www.w3.org/1999/xlink">
<g id="graph0" class="graph" transform="scale(1 1) rotate(0) translate(4 328)">
<title>Arbre::getGob</title>
<!-- Node78 -->
<g id="node1" class="node"><title>Node78</title>
<polygon fill="#bfbfbf" stroke="black" points="0,-152.5 0,-171.5 77,-171.5 77,-152.5 0,-152.5"/>
<text text-anchor="middle" x="38.5" y="-159.5" font-family="Helvetica,sans-Serif" font-size="10.00">Arbre::getGob</text>
</g>
<!-- Node79 -->
<g id="node2" class="node"><title>Node79</title>
<g id="a_node2"><a xlink:href="class_arbre.html#a3284c47c1ea92a6c5be4a210008dfb4f" target="_top" xlink:title="Arbre::Arbre">
<polygon fill="none" stroke="black" points="141,-304.5 141,-323.5 210,-323.5 210,-304.5 141,-304.5"/>
<text text-anchor="middle" x="175.5" y="-311.5" font-family="Helvetica,sans-Serif" font-size="10.00">Arbre::Arbre</text>
</a>
</g>
</g>
<!-- Node78&#45;&gt;Node79 -->
<g id="edge1" class="edge"><title>Node78&#45;&gt;Node79</title>
<path fill="none" stroke="midnightblue" d="M45.0703,-181.427C54.3678,-210.396 75.7951,-264.742 113,-295 120.976,-301.487 131.162,-305.765 140.94,-308.585"/>
<polygon fill="midnightblue" stroke="midnightblue" points="48.3593,-180.213 42.0933,-171.669 41.664,-182.256 48.3593,-180.213"/>
</g>
<!-- Node80 -->
<g id="node3" class="node"><title>Node80</title>
<g id="a_node3"><a xlink:href="class_arbre.html#a970de955ffdbbd5894e0fa0c40c4e69e" target="_top" xlink:title="Arbre::afficher">
<polygon fill="none" stroke="black" points="137,-266.5 137,-285.5 214,-285.5 214,-266.5 137,-266.5"/>
<text text-anchor="middle" x="175.5" y="-273.5" font-family="Helvetica,sans-Serif" font-size="10.00">Arbre::afficher</text>
</a>
</g>
</g>
<!-- Node78&#45;&gt;Node80 -->
<g id="edge2" class="edge"><title>Node78&#45;&gt;Node80</title>
<path fill="none" stroke="midnightblue" d="M49.1384,-180.465C61.2525,-201.913 84.0158,-236.916 113,-257 120.073,-261.901 128.455,-265.573 136.718,-268.311"/>
<polygon fill="midnightblue" stroke="midnightblue" points="52.1997,-178.768 44.3377,-171.666 46.0549,-182.121 52.1997,-178.768"/>
</g>
<!-- Node82 -->
<g id="node5" class="node"><title>Node82</title>
<g id="a_node5"><a xlink:href="class_arbre.html#ac6329911b0037ca669e6ef2e12a178c9" target="_top" xlink:title="Arbre::printArbo">
<polygon fill="none" stroke="black" points="133,-228.5 133,-247.5 218,-247.5 218,-228.5 133,-228.5"/>
<text text-anchor="middle" x="175.5" y="-235.5" font-family="Helvetica,sans-Serif" font-size="10.00">Arbre::printArbo</text>
</a>
</g>
</g>
<!-- Node78&#45;&gt;Node82 -->
<g id="edge4" class="edge"><title>Node78&#45;&gt;Node82</title>
<path fill="none" stroke="midnightblue" d="M57.1234,-178.644C71.2762,-191.238 92.1626,-208.161 113,-219 120.138,-222.713 128.126,-225.84 135.921,-228.418"/>
<polygon fill="midnightblue" stroke="midnightblue" points="59.369,-175.955 49.6198,-171.807 54.6546,-181.129 59.369,-175.955"/>
</g>
<!-- Node83 -->
<g id="node6" class="node"><title>Node83</title>
<g id="a_node6"><a xlink:href="class_i_a.html#a5c0a6371478dedeb16372d13ce13cc34" target="_top" xlink:title="IA::loadNumber">
<polygon fill="none" stroke="black" points="134,-190.5 134,-209.5 217,-209.5 217,-190.5 134,-190.5"/>
<text text-anchor="middle" x="175.5" y="-197.5" font-family="Helvetica,sans-Serif" font-size="10.00">IA::loadNumber</text>
</a>
</g>
</g>
<!-- Node78&#45;&gt;Node83 -->
<g id="edge5" class="edge"><title>Node78&#45;&gt;Node83</title>
<path fill="none" stroke="midnightblue" d="M83.2625,-174.318C101.811,-179.539 123.099,-185.532 140.445,-190.414"/>
<polygon fill="midnightblue" stroke="midnightblue" points="84.1405,-170.93 73.5662,-171.589 82.2438,-177.668 84.1405,-170.93"/>
</g>
<!-- Node86 -->
<g id="node9" class="node"><title>Node86</title>
<g id="a_node9"><a xlink:href="class_i_a.html#a42202360406fe67babfd01a9b7902fd2" target="_top" xlink:title="IA::Tsumego_naif">
<polygon fill="none" stroke="black" points="129.5,-152.5 129.5,-171.5 221.5,-171.5 221.5,-152.5 129.5,-152.5"/>
<text text-anchor="middle" x="175.5" y="-159.5" font-family="Helvetica,sans-Serif" font-size="10.00">IA::Tsumego_naif</text>
</a>
</g>
</g>
<!-- Node78&#45;&gt;Node86 -->
<g id="edge8" class="edge"><title>Node78&#45;&gt;Node86</title>
<path fill="none" stroke="midnightblue" d="M87.3093,-162C101.011,-162 115.899,-162 129.43,-162"/>
<polygon fill="midnightblue" stroke="midnightblue" points="87.1051,-158.5 77.105,-162 87.105,-165.5 87.1051,-158.5"/>
</g>
<!-- Node87 -->
<g id="node10" class="node"><title>Node87</title>
<g id="a_node10"><a xlink:href="class_i_a.html#af1f6e5abe41a2225b17ca319c1fc0e4e" target="_top" xlink:title="IA::Tsumego_abr">
<polygon fill="none" stroke="black" points="130.5,-76.5 130.5,-95.5 220.5,-95.5 220.5,-76.5 130.5,-76.5"/>
<text text-anchor="middle" x="175.5" y="-83.5" font-family="Helvetica,sans-Serif" font-size="10.00">IA::Tsumego_abr</text>
</a>
</g>
</g>
<!-- Node78&#45;&gt;Node87 -->
<g id="edge9" class="edge"><title>Node78&#45;&gt;Node87</title>
<path fill="none" stroke="midnightblue" d="M57.1234,-145.356C71.2762,-132.762 92.1626,-115.839 113,-105 120.138,-101.287 128.126,-98.1598 135.921,-95.5824"/>
<polygon fill="midnightblue" stroke="midnightblue" points="54.6546,-142.871 49.6198,-152.193 59.369,-148.045 54.6546,-142.871"/>
</g>
<!-- Node88 -->
<g id="node11" class="node"><title>Node88</title>
<g id="a_node11"><a xlink:href="class_i_a.html#a6f616b7d3d9d39eef4780b7a03226260" target="_top" xlink:title="IA::Tsumego_abrFils">
<polygon fill="none" stroke="black" points="274,-57.5 274,-76.5 380,-76.5 380,-57.5 274,-57.5"/>
<text text-anchor="middle" x="327" y="-64.5" font-family="Helvetica,sans-Serif" font-size="10.00">IA::Tsumego_abrFils</text>
</a>
</g>
</g>
<!-- Node78&#45;&gt;Node88 -->
<g id="edge14" class="edge"><title>Node78&#45;&gt;Node88</title>
<path fill="none" stroke="midnightblue" d="M47.7039,-143.012C58.7661,-120.124 80.8557,-82.7722 113,-67 169.105,-39.4711 243.961,-48.289 288.359,-57.4618"/>
<polygon fill="midnightblue" stroke="midnightblue" points="44.394,-141.833 43.4008,-152.381 50.7552,-144.755 44.394,-141.833"/>
</g>
<!-- Node89 -->
<g id="node12" class="node"><title>Node89</title>
<g id="a_node12"><a xlink:href="class_i_a.html#a8113a453920dfbee224ae38a6367e059" target="_top" xlink:title="IA::Solution">
<polygon fill="none" stroke="black" points="142,-114.5 142,-133.5 209,-133.5 209,-114.5 142,-114.5"/>
<text text-anchor="middle" x="175.5" y="-121.5" font-family="Helvetica,sans-Serif" font-size="10.00">IA::Solution</text>
</a>
</g>
</g>
<!-- Node78&#45;&gt;Node89 -->
<g id="edge12" class="edge"><title>Node78&#45;&gt;Node89</title>
<path fill="none" stroke="midnightblue" d="M83.2292,-149.691C102.286,-144.327 124.241,-138.147 141.842,-133.193"/>
<polygon fill="midnightblue" stroke="midnightblue" points="82.2438,-146.332 73.5662,-152.411 84.1405,-153.07 82.2438,-146.332"/>
</g>
<!-- Node90 -->
<g id="node13" class="node"><title>Node90</title>
<g id="a_node13"><a xlink:href="class_i_a.html#a5d86a3548f2410f7fc0676b89d07f4fd" target="_top" xlink:title="IA::Tsumego_compresse">
<polygon fill="none" stroke="black" points="113,-0.5 113,-19.5 238,-19.5 238,-0.5 113,-0.5"/>
<text text-anchor="middle" x="175.5" y="-7.5" font-family="Helvetica,sans-Serif" font-size="10.00">IA::Tsumego_compresse</text>
</a>
</g>
</g>
<!-- Node78&#45;&gt;Node90 -->
<g id="edge15" class="edge"><title>Node78&#45;&gt;Node90</title>
<path fill="none" stroke="midnightblue" d="M45.9781,-142.446C56.1022,-114.703 78.1977,-63.9625 113,-34 120.209,-27.7934 129.208,-23.0885 138.079,-19.5641"/>
<polygon fill="midnightblue" stroke="midnightblue" points="42.5727,-141.582 42.5775,-152.177 49.1808,-143.891 42.5727,-141.582"/>
</g>
<!-- Node81 -->
<g id="node4" class="node"><title>Node81</title>
<g id="a_node4"><a xlink:href="_arbre_8h.html#a6e35eae742ee5bca0d8a5642b9a854c2" target="_top" xlink:title="operator\&lt;\&lt;">
<polygon fill="none" stroke="black" points="295,-266.5 295,-285.5 359,-285.5 359,-266.5 295,-266.5"/>
<text text-anchor="middle" x="327" y="-273.5" font-family="Helvetica,sans-Serif" font-size="10.00">operator&lt;&lt;</text>
</a>
</g>
</g>
<!-- Node80&#45;&gt;Node81 -->
<g id="edge3" class="edge"><title>Node80&#45;&gt;Node81</title>
<path fill="none" stroke="midnightblue" d="M224.502,-276C247.549,-276 274.504,-276 294.842,-276"/>
<polygon fill="midnightblue" stroke="midnightblue" points="224.225,-272.5 214.225,-276 224.225,-279.5 224.225,-272.5"/>
</g>
<!-- Node84 -->
<g id="node7" class="node"><title>Node84</title>
<g id="a_node7"><a xlink:href="class_i_a.html#a364aef554d81e9a93bff08c28d437497" target="_top" xlink:title="IA::Tsumego">
<polygon fill="none" stroke="black" points="291.5,-114.5 291.5,-133.5 362.5,-133.5 362.5,-114.5 291.5,-114.5"/>
<text text-anchor="middle" x="327" y="-121.5" font-family="Helvetica,sans-Serif" font-size="10.00">IA::Tsumego</text>
</a>
</g>
</g>
<!-- Node83&#45;&gt;Node84 -->
<g id="edge6" class="edge"><title>Node83&#45;&gt;Node84</title>
<path fill="none" stroke="midnightblue" d="M223.054,-187.124C228.175,-185.265 233.25,-183.22 238,-181 266.693,-167.589 297.036,-146.076 313.53,-133.67"/>
<polygon fill="midnightblue" stroke="midnightblue" points="221.563,-183.934 213.222,-190.467 223.816,-190.561 221.563,-183.934"/>
</g>
<!-- Node85 -->
<g id="node8" class="node"><title>Node85</title>
<g id="a_node8"><a xlink:href="class_go___solver.html#a6ca744f1f4586c3f90f2e47915034baf" target="_top" xlink:title="Go_Solver::launchTsumego">
<polygon fill="none" stroke="black" points="416,-114.5 416,-133.5 551,-133.5 551,-114.5 416,-114.5"/>
<text text-anchor="middle" x="483.5" y="-121.5" font-family="Helvetica,sans-Serif" font-size="10.00">Go_Solver::launchTsumego</text>
</a>
</g>
</g>
<!-- Node84&#45;&gt;Node85 -->
<g id="edge7" class="edge"><title>Node84&#45;&gt;Node85</title>
<path fill="none" stroke="midnightblue" d="M373.056,-124C386.475,-124 401.473,-124 415.958,-124"/>
<polygon fill="midnightblue" stroke="midnightblue" points="372.673,-120.5 362.673,-124 372.673,-127.5 372.673,-120.5"/>
</g>
<!-- Node87&#45;&gt;Node84 -->
<g id="edge10" class="edge"><title>Node87&#45;&gt;Node84</title>
<path fill="none" stroke="midnightblue" d="M223.988,-98.0704C245.859,-103.63 271.338,-110.106 291.361,-115.195"/>
<polygon fill="midnightblue" stroke="midnightblue" points="224.779,-94.6604 214.225,-95.589 223.055,-101.445 224.779,-94.6604"/>
</g>
<!-- Node87&#45;&gt;Node88 -->
<g id="edge11" class="edge"><title>Node87&#45;&gt;Node88</title>
<path fill="none" stroke="midnightblue" d="M230.589,-79.1259C244.682,-77.3347 259.838,-75.4085 273.83,-73.6303"/>
<polygon fill="midnightblue" stroke="midnightblue" points="230.025,-75.6692 220.546,-80.4021 230.908,-82.6134 230.025,-75.6692"/>
</g>
<!-- Node89&#45;&gt;Node84 -->
<g id="edge13" class="edge"><title>Node89&#45;&gt;Node84</title>
<path fill="none" stroke="midnightblue" d="M219.424,-124C242.274,-124 270.003,-124 291.449,-124"/>
<polygon fill="midnightblue" stroke="midnightblue" points="219.308,-120.5 209.308,-124 219.308,-127.5 219.308,-120.5"/>
</g>
</g>
</svg>
