<?xml version="1.0" encoding="UTF-8" standalone="no"?>
<!DOCTYPE svg PUBLIC "-//W3C//DTD SVG 1.1//EN"
 "http://www.w3.org/Graphics/SVG/1.1/DTD/svg11.dtd">
<!-- Generated by graphviz version 2.38.0 (20140413.2041)
 -->
<!-- Title: Game_window::turnSoundsDown Pages: 1 -->
<svg width="456pt" height="66pt"
 viewBox="0.00 0.00 456.00 66.00" xmlns="http://www.w3.org/2000/svg" xmlns:xlink="http://www.w3.org/1999/xlink">
<g id="graph0" class="graph" transform="scale(1 1) rotate(0) translate(4 62)">
<title>Game_window::turnSoundsDown</title>
<!-- Node111 -->
<g id="node1" class="node"><title>Node111</title>
<polygon fill="#bfbfbf" stroke="black" points="0,-19.5 0,-38.5 159,-38.5 159,-19.5 0,-19.5"/>
<text text-anchor="middle" x="79.5" y="-26.5" font-family="Helvetica,sans-Serif" font-size="10.00">Game_window::turnSoundsDown</text>
</g>
<!-- Node112 -->
<g id="node2" class="node"><title>Node112</title>
<g id="a_node2"><a xlink:href="class_board.html#a648552cb139f9c0cc61f6372251739b2" target="_top" xlink:title="Board::turnSoundsDown">
<polygon fill="none" stroke="black" points="195,-19.5 195,-38.5 317,-38.5 317,-19.5 195,-19.5"/>
<text text-anchor="middle" x="256" y="-26.5" font-family="Helvetica,sans-Serif" font-size="10.00">Board::turnSoundsDown</text>
</a>
</g>
</g>
<!-- Node111&#45;&gt;Node112 -->
<g id="edge1" class="edge"><title>Node111&#45;&gt;Node112</title>
<path fill="none" stroke="midnightblue" d="M159.072,-29C167.626,-29 176.292,-29 184.737,-29"/>
<polygon fill="midnightblue" stroke="midnightblue" points="184.906,-32.5001 194.906,-29 184.906,-25.5001 184.906,-32.5001"/>
</g>
<!-- Node113 -->
<g id="node3" class="node"><title>Node113</title>
<g id="a_node3"><a xlink:href="class_board.html#a061962e73609a58802ad83674ec9b413" target="_top" xlink:title="Board::getVolume">
<polygon fill="none" stroke="black" points="353,-38.5 353,-57.5 448,-57.5 448,-38.5 353,-38.5"/>
<text text-anchor="middle" x="400.5" y="-45.5" font-family="Helvetica,sans-Serif" font-size="10.00">Board::getVolume</text>
</a>
</g>
</g>
<!-- Node112&#45;&gt;Node113 -->
<g id="edge2" class="edge"><title>Node112&#45;&gt;Node113</title>
<path fill="none" stroke="midnightblue" d="M317.02,-37.0026C325.564,-38.1418 334.329,-39.3105 342.807,-40.4409"/>
<polygon fill="midnightblue" stroke="midnightblue" points="342.596,-43.9437 352.971,-41.7962 343.521,-37.0051 342.596,-43.9437"/>
</g>
<!-- Node114 -->
<g id="node4" class="node"><title>Node114</title>
<g id="a_node4"><a xlink:href="class_board.html#a4450fe85fda29736cd835fed63d40a41" target="_top" xlink:title="Board::setVolume">
<polygon fill="none" stroke="black" points="353,-0.5 353,-19.5 448,-19.5 448,-0.5 353,-0.5"/>
<text text-anchor="middle" x="400.5" y="-7.5" font-family="Helvetica,sans-Serif" font-size="10.00">Board::setVolume</text>
</a>
</g>
</g>
<!-- Node112&#45;&gt;Node114 -->
<g id="edge3" class="edge"><title>Node112&#45;&gt;Node114</title>
<path fill="none" stroke="midnightblue" d="M317.02,-20.9974C325.564,-19.8582 334.329,-18.6895 342.807,-17.5591"/>
<polygon fill="midnightblue" stroke="midnightblue" points="343.521,-20.9949 352.971,-16.2038 342.596,-14.0563 343.521,-20.9949"/>
</g>
</g>
</svg>
