<?xml version="1.0" encoding="UTF-8" standalone="no"?>
<!DOCTYPE svg PUBLIC "-//W3C//DTD SVG 1.1//EN"
 "http://www.w3.org/Graphics/SVG/1.1/DTD/svg11.dtd">
<!-- Generated by graphviz version 2.38.0 (20140413.2041)
 -->
<!-- Title: Go_Solver::loadMenu2 Pages: 1 -->
<svg width="414pt" height="28pt"
 viewBox="0.00 0.00 414.00 28.00" xmlns="http://www.w3.org/2000/svg" xmlns:xlink="http://www.w3.org/1999/xlink">
<g id="graph0" class="graph" transform="scale(1 1) rotate(0) translate(4 24)">
<title>Go_Solver::loadMenu2</title>
<!-- Node83 -->
<g id="node1" class="node"><title>Node83</title>
<polygon fill="#bfbfbf" stroke="black" points="0,-0.5 0,-19.5 114,-19.5 114,-0.5 0,-0.5"/>
<text text-anchor="middle" x="57" y="-7.5" font-family="Helvetica,sans-Serif" font-size="10.00">Go_Solver::loadMenu2</text>
</g>
<!-- Node84 -->
<g id="node2" class="node"><title>Node84</title>
<g id="a_node2"><a xlink:href="class_go___solver.html#a27ceb252dd57ac88d0dc2dbb04a25e32" target="_top" xlink:title="Go_Solver::loadMenu">
<polygon fill="none" stroke="black" points="150,-0.5 150,-19.5 259,-19.5 259,-0.5 150,-0.5"/>
<text text-anchor="middle" x="204.5" y="-7.5" font-family="Helvetica,sans-Serif" font-size="10.00">Go_Solver::loadMenu</text>
</a>
</g>
</g>
<!-- Node83&#45;&gt;Node84 -->
<g id="edge1" class="edge"><title>Node83&#45;&gt;Node84</title>
<path fill="none" stroke="midnightblue" d="M124.498,-10C132.967,-10 141.551,-10 149.785,-10"/>
<polygon fill="midnightblue" stroke="midnightblue" points="124.254,-6.5001 114.254,-10 124.254,-13.5001 124.254,-6.5001"/>
</g>
<!-- Node85 -->
<g id="node3" class="node"><title>Node85</title>
<g id="a_node3"><a xlink:href="class_go___solver.html#a30bd2f9d195a5553cc683f8314ea4b58" target="_top" xlink:title="Go_Solver::Go_Solver">
<polygon fill="none" stroke="black" points="295,-0.5 295,-19.5 406,-19.5 406,-0.5 295,-0.5"/>
<text text-anchor="middle" x="350.5" y="-7.5" font-family="Helvetica,sans-Serif" font-size="10.00">Go_Solver::Go_Solver</text>
</a>
</g>
</g>
<!-- Node84&#45;&gt;Node85 -->
<g id="edge2" class="edge"><title>Node84&#45;&gt;Node85</title>
<path fill="none" stroke="midnightblue" d="M269.385,-10C277.889,-10 286.546,-10 294.874,-10"/>
<polygon fill="midnightblue" stroke="midnightblue" points="269.12,-6.5001 259.12,-10 269.12,-13.5001 269.12,-6.5001"/>
</g>
</g>
</svg>
