<?xml version="1.0" encoding="UTF-8" standalone="no"?>
<!DOCTYPE svg PUBLIC "-//W3C//DTD SVG 1.1//EN"
 "http://www.w3.org/Graphics/SVG/1.1/DTD/svg11.dtd">
<!-- Generated by graphviz version 2.38.0 (20140413.2041)
 -->
<!-- Title: Go_Solver::Go_Solver Pages: 1 -->
<svg width="762pt" height="246pt"
 viewBox="0.00 0.00 762.00 246.00" xmlns="http://www.w3.org/2000/svg" xmlns:xlink="http://www.w3.org/1999/xlink">
<g id="graph0" class="graph" transform="scale(1 1) rotate(0) translate(4 242)">
<title>Go_Solver::Go_Solver</title>
<!-- Node0 -->
<g id="node1" class="node"><title>Node0</title>
<polygon fill="#bfbfbf" stroke="black" points="0,-123.5 0,-142.5 111,-142.5 111,-123.5 0,-123.5"/>
<text text-anchor="middle" x="55.5" y="-130.5" font-family="Helvetica,sans-Serif" font-size="10.00">Go_Solver::Go_Solver</text>
</g>
<!-- Node1 -->
<g id="node2" class="node"><title>Node1</title>
<g id="a_node2"><a xlink:href="class_go___solver.html#a27ceb252dd57ac88d0dc2dbb04a25e32" target="_top" xlink:title="Go_Solver::loadMenu">
<polygon fill="none" stroke="black" points="147,-123.5 147,-142.5 256,-142.5 256,-123.5 147,-123.5"/>
<text text-anchor="middle" x="201.5" y="-130.5" font-family="Helvetica,sans-Serif" font-size="10.00">Go_Solver::loadMenu</text>
</a>
</g>
</g>
<!-- Node0&#45;&gt;Node1 -->
<g id="edge1" class="edge"><title>Node0&#45;&gt;Node1</title>
<path fill="none" stroke="midnightblue" d="M111.351,-133C119.601,-133 128.17,-133 136.589,-133"/>
<polygon fill="midnightblue" stroke="midnightblue" points="136.753,-136.5 146.753,-133 136.753,-129.5 136.753,-136.5"/>
</g>
<!-- Node2 -->
<g id="node3" class="node"><title>Node2</title>
<g id="a_node3"><a xlink:href="class_go___solver.html#aefc904642aa7fcc3a5f700f921b9c0ab" target="_top" xlink:title="Go_Solver::loadMenu1">
<polygon fill="none" stroke="black" points="292,-66.5 292,-85.5 406,-85.5 406,-66.5 292,-66.5"/>
<text text-anchor="middle" x="349" y="-73.5" font-family="Helvetica,sans-Serif" font-size="10.00">Go_Solver::loadMenu1</text>
</a>
</g>
</g>
<!-- Node1&#45;&gt;Node2 -->
<g id="edge2" class="edge"><title>Node1&#45;&gt;Node2</title>
<path fill="none" stroke="midnightblue" d="M223.658,-123.491C241.68,-115.518 268.341,-104.022 292,-95 297.469,-92.9144 303.28,-90.8153 309.009,-88.8122"/>
<polygon fill="midnightblue" stroke="midnightblue" points="310.179,-92.1112 318.499,-85.5511 307.904,-85.4912 310.179,-92.1112"/>
</g>
<!-- Node7 -->
<g id="node8" class="node"><title>Node7</title>
<g id="a_node8"><a xlink:href="class_go___solver.html#acbb6d35d88e5c9bb05ceaae81db6287c" target="_top" xlink:title="Go_Solver::loadMenu2">
<polygon fill="none" stroke="black" points="292,-28.5 292,-47.5 406,-47.5 406,-28.5 292,-28.5"/>
<text text-anchor="middle" x="349" y="-35.5" font-family="Helvetica,sans-Serif" font-size="10.00">Go_Solver::loadMenu2</text>
</a>
</g>
</g>
<!-- Node1&#45;&gt;Node7 -->
<g id="edge7" class="edge"><title>Node1&#45;&gt;Node7</title>
<path fill="none" stroke="midnightblue" d="M211.517,-123.253C226.714,-107.342 259.013,-75.6928 292,-57 295.668,-54.9216 299.6,-53.0211 303.617,-51.2949"/>
<polygon fill="midnightblue" stroke="midnightblue" points="305.034,-54.4985 313.06,-47.5818 302.472,-47.984 305.034,-54.4985"/>
</g>
<!-- Node10 -->
<g id="node11" class="node"><title>Node10</title>
<g id="a_node11"><a xlink:href="class_go___solver.html#a48def38f87effdb973b5f02329a0af4f" target="_top" xlink:title="Go_Solver::loadMenu3">
<polygon fill="none" stroke="black" points="292,-218.5 292,-237.5 406,-237.5 406,-218.5 292,-218.5"/>
<text text-anchor="middle" x="349" y="-225.5" font-family="Helvetica,sans-Serif" font-size="10.00">Go_Solver::loadMenu3</text>
</a>
</g>
</g>
<!-- Node1&#45;&gt;Node10 -->
<g id="edge10" class="edge"><title>Node1&#45;&gt;Node10</title>
<path fill="none" stroke="midnightblue" d="M211.517,-142.747C226.714,-158.658 259.013,-190.307 292,-209 295.668,-211.078 299.6,-212.979 303.617,-214.705"/>
<polygon fill="midnightblue" stroke="midnightblue" points="302.472,-218.016 313.06,-218.418 305.034,-211.502 302.472,-218.016"/>
</g>
<!-- Node11 -->
<g id="node12" class="node"><title>Node11</title>
<g id="a_node12"><a xlink:href="class_go___solver.html#a99b82aef6960441ba24e3b28c7ec9ad5" target="_top" xlink:title="Go_Solver::loadMenu4">
<polygon fill="none" stroke="black" points="292,-180.5 292,-199.5 406,-199.5 406,-180.5 292,-180.5"/>
<text text-anchor="middle" x="349" y="-187.5" font-family="Helvetica,sans-Serif" font-size="10.00">Go_Solver::loadMenu4</text>
</a>
</g>
</g>
<!-- Node1&#45;&gt;Node11 -->
<g id="edge14" class="edge"><title>Node1&#45;&gt;Node11</title>
<path fill="none" stroke="midnightblue" d="M223.658,-142.509C241.68,-150.482 268.341,-161.978 292,-171 297.469,-173.086 303.28,-175.185 309.009,-177.188"/>
<polygon fill="midnightblue" stroke="midnightblue" points="307.904,-180.509 318.499,-180.449 310.179,-173.889 307.904,-180.509"/>
</g>
<!-- Node12 -->
<g id="node13" class="node"><title>Node12</title>
<g id="a_node13"><a xlink:href="class_go___solver.html#a480bbc610bbc9bb3b1c675d69128d1fd" target="_top" xlink:title="Go_Solver::loadMenu5">
<polygon fill="none" stroke="black" points="292,-142.5 292,-161.5 406,-161.5 406,-142.5 292,-142.5"/>
<text text-anchor="middle" x="349" y="-149.5" font-family="Helvetica,sans-Serif" font-size="10.00">Go_Solver::loadMenu5</text>
</a>
</g>
</g>
<!-- Node1&#45;&gt;Node12 -->
<g id="edge18" class="edge"><title>Node1&#45;&gt;Node12</title>
<path fill="none" stroke="midnightblue" d="M256.265,-140.021C264.438,-141.088 272.954,-142.2 281.36,-143.298"/>
<polygon fill="midnightblue" stroke="midnightblue" points="281.16,-146.801 291.53,-144.626 282.067,-139.86 281.16,-146.801"/>
</g>
<!-- Node13 -->
<g id="node14" class="node"><title>Node13</title>
<g id="a_node14"><a xlink:href="class_go___solver.html#a9aa3c644c34232cbc9bd3341930373c9" target="_top" xlink:title="Go_Solver::loadMenu6">
<polygon fill="none" stroke="black" points="292,-104.5 292,-123.5 406,-123.5 406,-104.5 292,-104.5"/>
<text text-anchor="middle" x="349" y="-111.5" font-family="Helvetica,sans-Serif" font-size="10.00">Go_Solver::loadMenu6</text>
</a>
</g>
</g>
<!-- Node1&#45;&gt;Node13 -->
<g id="edge22" class="edge"><title>Node1&#45;&gt;Node13</title>
<path fill="none" stroke="midnightblue" d="M256.265,-125.979C264.438,-124.912 272.954,-123.8 281.36,-122.702"/>
<polygon fill="midnightblue" stroke="midnightblue" points="282.067,-126.14 291.53,-121.374 281.16,-119.199 282.067,-126.14"/>
</g>
<!-- Node3 -->
<g id="node4" class="node"><title>Node3</title>
<g id="a_node4"><a xlink:href="class_menu__simple.html#a1273e6743ee892cd8651968efd595b73" target="_top" xlink:title="Menu_simple::setItemsFonts">
<polygon fill="none" stroke="black" points="448,-180.5 448,-199.5 591,-199.5 591,-180.5 448,-180.5"/>
<text text-anchor="middle" x="519.5" y="-187.5" font-family="Helvetica,sans-Serif" font-size="10.00">Menu_simple::setItemsFonts</text>
</a>
</g>
</g>
<!-- Node2&#45;&gt;Node3 -->
<g id="edge3" class="edge"><title>Node2&#45;&gt;Node3</title>
<path fill="none" stroke="midnightblue" d="M390.987,-85.537C396.431,-88.0061 401.631,-91.1073 406,-95 433.907,-119.862 413.078,-147.327 442,-171 444.039,-172.669 446.203,-174.194 448.463,-175.587"/>
<polygon fill="midnightblue" stroke="midnightblue" points="447.103,-178.825 457.589,-180.337 450.335,-172.616 447.103,-178.825"/>
</g>
<!-- Node4 -->
<g id="node5" class="node"><title>Node4</title>
<g id="a_node5"><a xlink:href="class_menu__simple.html#a0fc5b4ec10c844f34495364f70cd333e" target="_top" xlink:title="Menu_simple::addItem">
<polygon fill="none" stroke="black" points="462,-142.5 462,-161.5 577,-161.5 577,-142.5 462,-142.5"/>
<text text-anchor="middle" x="519.5" y="-149.5" font-family="Helvetica,sans-Serif" font-size="10.00">Menu_simple::addItem</text>
</a>
</g>
</g>
<!-- Node2&#45;&gt;Node4 -->
<g id="edge4" class="edge"><title>Node2&#45;&gt;Node4</title>
<path fill="none" stroke="midnightblue" d="M386.735,-85.5975C393.415,-88.1283 400.122,-91.2341 406,-95 425.589,-107.55 421.903,-121.281 442,-133 445.724,-135.171 449.689,-137.096 453.781,-138.802"/>
<polygon fill="midnightblue" stroke="midnightblue" points="452.909,-142.211 463.502,-142.398 455.338,-135.646 452.909,-142.211"/>
</g>
<!-- Node6 -->
<g id="node7" class="node"><title>Node6</title>
<g id="a_node7"><a xlink:href="class_menu__simple.html#a4717470decb5666cbac7aa879aade5fa" target="_top" xlink:title="Menu_simple::setItemsTextures">
<polygon fill="none" stroke="black" points="442,-104.5 442,-123.5 597,-123.5 597,-104.5 442,-104.5"/>
<text text-anchor="middle" x="519.5" y="-111.5" font-family="Helvetica,sans-Serif" font-size="10.00">Menu_simple::setItemsTextures</text>
</a>
</g>
</g>
<!-- Node2&#45;&gt;Node6 -->
<g id="edge6" class="edge"><title>Node2&#45;&gt;Node6</title>
<path fill="none" stroke="midnightblue" d="M392.52,-85.589C414.955,-90.6487 442.673,-96.8996 466.393,-102.249"/>
<polygon fill="midnightblue" stroke="midnightblue" points="465.761,-105.694 476.286,-104.48 467.301,-98.8657 465.761,-105.694"/>
</g>
<!-- Node5 -->
<g id="node6" class="node"><title>Node5</title>
<g id="a_node6"><a xlink:href="class_choice___simple.html#a035e32f90e4561b666b6571bce06e207" target="_top" xlink:title="Choice_Simple::setFont">
<polygon fill="none" stroke="black" points="633,-142.5 633,-161.5 754,-161.5 754,-142.5 633,-142.5"/>
<text text-anchor="middle" x="693.5" y="-149.5" font-family="Helvetica,sans-Serif" font-size="10.00">Choice_Simple::setFont</text>
</a>
</g>
</g>
<!-- Node4&#45;&gt;Node5 -->
<g id="edge5" class="edge"><title>Node4&#45;&gt;Node5</title>
<path fill="none" stroke="midnightblue" d="M577.296,-152C591.766,-152 607.487,-152 622.53,-152"/>
<polygon fill="midnightblue" stroke="midnightblue" points="622.812,-155.5 632.812,-152 622.812,-148.5 622.812,-155.5"/>
</g>
<!-- Node8 -->
<g id="node9" class="node"><title>Node8</title>
<g id="a_node9"><a xlink:href="class_menu.html#aa8032782ee75fba5fa17bf7a20635c68" target="_top" xlink:title="Menu::addItem">
<polygon fill="none" stroke="black" points="479,-0.5 479,-19.5 560,-19.5 560,-0.5 479,-0.5"/>
<text text-anchor="middle" x="519.5" y="-7.5" font-family="Helvetica,sans-Serif" font-size="10.00">Menu::addItem</text>
</a>
</g>
</g>
<!-- Node7&#45;&gt;Node8 -->
<g id="edge8" class="edge"><title>Node7&#45;&gt;Node8</title>
<path fill="none" stroke="midnightblue" d="M406.108,-28.6764C426.408,-25.3032 449.17,-21.5207 468.874,-18.2465"/>
<polygon fill="midnightblue" stroke="midnightblue" points="469.578,-21.6775 478.869,-16.5855 468.431,-14.7722 469.578,-21.6775"/>
</g>
<!-- Node9 -->
<g id="node10" class="node"><title>Node9</title>
<g id="a_node10"><a xlink:href="class_menu___miniature.html#afad04c066c7e436bbf9cccde310d07dc" target="_top" xlink:title="Menu_Miniature::setItems\lTextures">
<polygon fill="none" stroke="black" points="455,-39 455,-69 584,-69 584,-39 455,-39"/>
<text text-anchor="start" x="463" y="-57" font-family="Helvetica,sans-Serif" font-size="10.00">Menu_Miniature::setItems</text>
<text text-anchor="middle" x="519.5" y="-46" font-family="Helvetica,sans-Serif" font-size="10.00">Textures</text>
</a>
</g>
</g>
<!-- Node7&#45;&gt;Node9 -->
<g id="edge9" class="edge"><title>Node7&#45;&gt;Node9</title>
<path fill="none" stroke="midnightblue" d="M406.108,-43.3278C418.421,-44.497 431.641,-45.7522 444.534,-46.9765"/>
<polygon fill="midnightblue" stroke="midnightblue" points="444.494,-50.4884 454.78,-47.9495 445.156,-43.5198 444.494,-50.4884"/>
</g>
<!-- Node10&#45;&gt;Node3 -->
<g id="edge11" class="edge"><title>Node10&#45;&gt;Node3</title>
<path fill="none" stroke="midnightblue" d="M392.52,-218.411C414.955,-213.351 442.673,-207.1 466.393,-201.751"/>
<polygon fill="midnightblue" stroke="midnightblue" points="467.301,-205.134 476.286,-199.52 465.761,-198.306 467.301,-205.134"/>
</g>
<!-- Node10&#45;&gt;Node4 -->
<g id="edge12" class="edge"><title>Node10&#45;&gt;Node4</title>
<path fill="none" stroke="midnightblue" d="M386.735,-218.402C393.415,-215.872 400.122,-212.766 406,-209 425.589,-196.45 421.903,-182.719 442,-171 445.724,-168.829 449.689,-166.904 453.781,-165.198"/>
<polygon fill="midnightblue" stroke="midnightblue" points="455.338,-168.354 463.502,-161.602 452.909,-161.789 455.338,-168.354"/>
</g>
<!-- Node10&#45;&gt;Node6 -->
<g id="edge13" class="edge"><title>Node10&#45;&gt;Node6</title>
<path fill="none" stroke="midnightblue" d="M390.987,-218.463C396.431,-215.994 401.631,-212.893 406,-209 433.907,-184.138 413.078,-156.673 442,-133 444.039,-131.331 446.203,-129.806 448.463,-128.413"/>
<polygon fill="midnightblue" stroke="midnightblue" points="450.335,-131.384 457.589,-123.663 447.103,-125.175 450.335,-131.384"/>
</g>
<!-- Node11&#45;&gt;Node3 -->
<g id="edge15" class="edge"><title>Node11&#45;&gt;Node3</title>
<path fill="none" stroke="midnightblue" d="M406.108,-190C416.265,-190 427.039,-190 437.737,-190"/>
<polygon fill="midnightblue" stroke="midnightblue" points="437.949,-193.5 447.949,-190 437.949,-186.5 437.949,-193.5"/>
</g>
<!-- Node11&#45;&gt;Node4 -->
<g id="edge16" class="edge"><title>Node11&#45;&gt;Node4</title>
<path fill="none" stroke="midnightblue" d="M392.52,-180.411C414.955,-175.351 442.673,-169.1 466.393,-163.751"/>
<polygon fill="midnightblue" stroke="midnightblue" points="467.301,-167.134 476.286,-161.52 465.761,-160.306 467.301,-167.134"/>
</g>
<!-- Node11&#45;&gt;Node6 -->
<g id="edge17" class="edge"><title>Node11&#45;&gt;Node6</title>
<path fill="none" stroke="midnightblue" d="M386.735,-180.402C393.415,-177.872 400.122,-174.766 406,-171 425.589,-158.45 421.903,-144.719 442,-133 445.724,-130.829 449.689,-128.904 453.781,-127.198"/>
<polygon fill="midnightblue" stroke="midnightblue" points="455.338,-130.354 463.502,-123.602 452.909,-123.789 455.338,-130.354"/>
</g>
<!-- Node12&#45;&gt;Node3 -->
<g id="edge19" class="edge"><title>Node12&#45;&gt;Node3</title>
<path fill="none" stroke="midnightblue" d="M392.52,-161.589C414.955,-166.649 442.673,-172.9 466.393,-178.249"/>
<polygon fill="midnightblue" stroke="midnightblue" points="465.761,-181.694 476.286,-180.48 467.301,-174.866 465.761,-181.694"/>
</g>
<!-- Node12&#45;&gt;Node4 -->
<g id="edge20" class="edge"><title>Node12&#45;&gt;Node4</title>
<path fill="none" stroke="midnightblue" d="M406.108,-152C420.654,-152 436.464,-152 451.508,-152"/>
<polygon fill="midnightblue" stroke="midnightblue" points="451.775,-155.5 461.775,-152 451.775,-148.5 451.775,-155.5"/>
</g>
<!-- Node12&#45;&gt;Node6 -->
<g id="edge21" class="edge"><title>Node12&#45;&gt;Node6</title>
<path fill="none" stroke="midnightblue" d="M392.52,-142.411C414.955,-137.351 442.673,-131.1 466.393,-125.751"/>
<polygon fill="midnightblue" stroke="midnightblue" points="467.301,-129.134 476.286,-123.52 465.761,-122.306 467.301,-129.134"/>
</g>
<!-- Node13&#45;&gt;Node3 -->
<g id="edge23" class="edge"><title>Node13&#45;&gt;Node3</title>
<path fill="none" stroke="midnightblue" d="M386.735,-123.598C393.415,-126.128 400.122,-129.234 406,-133 425.589,-145.55 421.903,-159.281 442,-171 445.724,-173.171 449.689,-175.096 453.781,-176.802"/>
<polygon fill="midnightblue" stroke="midnightblue" points="452.909,-180.211 463.502,-180.398 455.338,-173.646 452.909,-180.211"/>
</g>
<!-- Node13&#45;&gt;Node4 -->
<g id="edge24" class="edge"><title>Node13&#45;&gt;Node4</title>
<path fill="none" stroke="midnightblue" d="M392.52,-123.589C414.955,-128.649 442.673,-134.9 466.393,-140.249"/>
<polygon fill="midnightblue" stroke="midnightblue" points="465.761,-143.694 476.286,-142.48 467.301,-136.866 465.761,-143.694"/>
</g>
<!-- Node13&#45;&gt;Node6 -->
<g id="edge25" class="edge"><title>Node13&#45;&gt;Node6</title>
<path fill="none" stroke="midnightblue" d="M406.108,-114C414.365,-114 423.03,-114 431.73,-114"/>
<polygon fill="midnightblue" stroke="midnightblue" points="431.938,-117.5 441.938,-114 431.938,-110.5 431.938,-117.5"/>
</g>
</g>
</svg>
