<?xml version="1.0" encoding="UTF-8" standalone="no"?>
<!DOCTYPE svg PUBLIC "-//W3C//DTD SVG 1.1//EN"
 "http://www.w3.org/Graphics/SVG/1.1/DTD/svg11.dtd">
<!-- Generated by graphviz version 2.38.0 (20140413.2041)
 -->
<!-- Title: Goban::eliminateGroups Pages: 1 -->
<svg width="526pt" height="256pt"
 viewBox="0.00 0.00 526.00 256.00" xmlns="http://www.w3.org/2000/svg" xmlns:xlink="http://www.w3.org/1999/xlink">
<g id="graph0" class="graph" transform="scale(1 1) rotate(0) translate(4 252)">
<title>Goban::eliminateGroups</title>
<!-- Node105 -->
<g id="node1" class="node"><title>Node105</title>
<polygon fill="#bfbfbf" stroke="black" points="0,-76.5 0,-95.5 122,-95.5 122,-76.5 0,-76.5"/>
<text text-anchor="middle" x="61" y="-83.5" font-family="Helvetica,sans-Serif" font-size="10.00">Goban::eliminateGroups</text>
</g>
<!-- Node106 -->
<g id="node2" class="node"><title>Node106</title>
<g id="a_node2"><a xlink:href="class_goban.html#a84f36324eb9ddc29f522d481f04c13e7" target="_top" xlink:title="Goban::listOfLiberties">
<polygon fill="none" stroke="black" points="161,-171.5 161,-190.5 271,-190.5 271,-171.5 161,-171.5"/>
<text text-anchor="middle" x="216" y="-178.5" font-family="Helvetica,sans-Serif" font-size="10.00">Goban::listOfLiberties</text>
</a>
</g>
</g>
<!-- Node105&#45;&gt;Node106 -->
<g id="edge1" class="edge"><title>Node105&#45;&gt;Node106</title>
<path fill="none" stroke="midnightblue" d="M77.5124,-95.6319C104.203,-112.204 158.998,-146.228 190.762,-165.951"/>
<polygon fill="midnightblue" stroke="midnightblue" points="189.105,-169.041 199.447,-171.343 192.797,-163.094 189.105,-169.041"/>
</g>
<!-- Node112 -->
<g id="node8" class="node"><title>Node112</title>
<g id="a_node8"><a xlink:href="class_etat.html#aa88987ca54aee676717f05e4570c0aec" target="_top" xlink:title="Etat::setVal">
<polygon fill="none" stroke="black" points="450,-114.5 450,-133.5 518,-133.5 518,-114.5 450,-114.5"/>
<text text-anchor="middle" x="484" y="-121.5" font-family="Helvetica,sans-Serif" font-size="10.00">Etat::setVal</text>
</a>
</g>
</g>
<!-- Node105&#45;&gt;Node112 -->
<g id="edge10" class="edge"><title>Node105&#45;&gt;Node112</title>
<path fill="none" stroke="midnightblue" d="M103.853,-95.5777C120.606,-99.0716 140.135,-102.721 158,-105 258.169,-117.779 376.82,-121.976 439.365,-123.345"/>
<polygon fill="midnightblue" stroke="midnightblue" points="439.573,-126.849 449.643,-123.555 439.716,-119.851 439.573,-126.849"/>
</g>
<!-- Node114 -->
<g id="node10" class="node"><title>Node114</title>
<g id="a_node10"><a xlink:href="class_goban.html#a29aaf8df380fe614845d48cba057747c" target="_top" xlink:title="Goban::coord">
<polygon fill="none" stroke="black" points="178.5,-76.5 178.5,-95.5 253.5,-95.5 253.5,-76.5 178.5,-76.5"/>
<text text-anchor="middle" x="216" y="-83.5" font-family="Helvetica,sans-Serif" font-size="10.00">Goban::coord</text>
</a>
</g>
</g>
<!-- Node105&#45;&gt;Node114 -->
<g id="edge9" class="edge"><title>Node105&#45;&gt;Node114</title>
<path fill="none" stroke="midnightblue" d="M122.031,-86C137.255,-86 153.394,-86 167.877,-86"/>
<polygon fill="midnightblue" stroke="midnightblue" points="168.093,-89.5001 178.093,-86 168.092,-82.5001 168.093,-89.5001"/>
</g>
<!-- Node115 -->
<g id="node11" class="node"><title>Node115</title>
<g id="a_node11"><a xlink:href="class_goban.html#a1d3ccccfb3f539e0271ee321686d9ef4" target="_top" xlink:title="Goban::setScoreWhite">
<polygon fill="none" stroke="black" points="158,-38.5 158,-57.5 274,-57.5 274,-38.5 158,-38.5"/>
<text text-anchor="middle" x="216" y="-45.5" font-family="Helvetica,sans-Serif" font-size="10.00">Goban::setScoreWhite</text>
</a>
</g>
</g>
<!-- Node105&#45;&gt;Node115 -->
<g id="edge11" class="edge"><title>Node105&#45;&gt;Node115</title>
<path fill="none" stroke="midnightblue" d="M100.608,-76.411C120.707,-71.4191 145.475,-65.2676 166.819,-59.9666"/>
<polygon fill="midnightblue" stroke="midnightblue" points="167.808,-63.3274 176.669,-57.5201 166.12,-56.5338 167.808,-63.3274"/>
</g>
<!-- Node116 -->
<g id="node12" class="node"><title>Node116</title>
<g id="a_node12"><a xlink:href="class_goban.html#a868b44b0c3ebec7ca88082ebe85a2960" target="_top" xlink:title="Goban::setScoreBlack">
<polygon fill="none" stroke="black" points="158.5,-0.5 158.5,-19.5 273.5,-19.5 273.5,-0.5 158.5,-0.5"/>
<text text-anchor="middle" x="216" y="-7.5" font-family="Helvetica,sans-Serif" font-size="10.00">Goban::setScoreBlack</text>
</a>
</g>
</g>
<!-- Node105&#45;&gt;Node116 -->
<g id="edge12" class="edge"><title>Node105&#45;&gt;Node116</title>
<path fill="none" stroke="midnightblue" d="M76.113,-76.3067C94.3832,-64.0711 127.503,-42.9417 158,-29 162.683,-26.8593 167.679,-24.8378 172.693,-22.9691"/>
<polygon fill="midnightblue" stroke="midnightblue" points="174.024,-26.2109 182.281,-19.5726 171.686,-19.6127 174.024,-26.2109"/>
</g>
<!-- Node107 -->
<g id="node3" class="node"><title>Node107</title>
<g id="a_node3"><a xlink:href="class_etat.html#aa25e66b110bc835523819392435e78c6" target="_top" xlink:title="Etat::getX">
<polygon fill="none" stroke="black" points="332.5,-228.5 332.5,-247.5 391.5,-247.5 391.5,-228.5 332.5,-228.5"/>
<text text-anchor="middle" x="362" y="-235.5" font-family="Helvetica,sans-Serif" font-size="10.00">Etat::getX</text>
</a>
</g>
</g>
<!-- Node106&#45;&gt;Node107 -->
<g id="edge2" class="edge"><title>Node106&#45;&gt;Node107</title>
<path fill="none" stroke="midnightblue" d="M239.851,-190.57C258.628,-198.377 285.954,-209.611 310,-219 314.934,-220.927 320.153,-222.921 325.296,-224.86"/>
<polygon fill="midnightblue" stroke="midnightblue" points="324.403,-228.263 334.995,-228.491 326.857,-221.707 324.403,-228.263"/>
</g>
<!-- Node108 -->
<g id="node4" class="node"><title>Node108</title>
<g id="a_node4"><a xlink:href="class_etat.html#a3e3e915f2261c83989a983e84b1273c1" target="_top" xlink:title="Etat::getY">
<polygon fill="none" stroke="black" points="331.5,-190.5 331.5,-209.5 392.5,-209.5 392.5,-190.5 331.5,-190.5"/>
<text text-anchor="middle" x="362" y="-197.5" font-family="Helvetica,sans-Serif" font-size="10.00">Etat::getY</text>
</a>
</g>
</g>
<!-- Node106&#45;&gt;Node108 -->
<g id="edge3" class="edge"><title>Node106&#45;&gt;Node108</title>
<path fill="none" stroke="midnightblue" d="M271.03,-188.129C287.63,-190.319 305.591,-192.689 321.067,-194.731"/>
<polygon fill="midnightblue" stroke="midnightblue" points="320.966,-198.248 331.338,-196.086 321.882,-191.308 320.966,-198.248"/>
</g>
<!-- Node109 -->
<g id="node5" class="node"><title>Node109</title>
<g id="a_node5"><a xlink:href="class_goban.html#a0e2596110cdbb9b007b2b2fd8d5a9973" target="_top" xlink:title="Goban::DefineStone">
<polygon fill="none" stroke="black" points="310,-152.5 310,-171.5 414,-171.5 414,-152.5 310,-152.5"/>
<text text-anchor="middle" x="362" y="-159.5" font-family="Helvetica,sans-Serif" font-size="10.00">Goban::DefineStone</text>
</a>
</g>
</g>
<!-- Node106&#45;&gt;Node109 -->
<g id="edge4" class="edge"><title>Node106&#45;&gt;Node109</title>
<path fill="none" stroke="midnightblue" d="M271.03,-173.871C280.29,-172.649 289.974,-171.372 299.413,-170.126"/>
<polygon fill="midnightblue" stroke="midnightblue" points="300.073,-173.569 309.529,-168.791 299.157,-166.63 300.073,-173.569"/>
</g>
<!-- Node110 -->
<g id="node6" class="node"><title>Node110</title>
<g id="a_node6"><a xlink:href="class_etat.html#ac020c4fe222274ac849a03fc8f19a99a" target="_top" xlink:title="Etat::setX">
<polygon fill="none" stroke="black" points="454.5,-228.5 454.5,-247.5 513.5,-247.5 513.5,-228.5 454.5,-228.5"/>
<text text-anchor="middle" x="484" y="-235.5" font-family="Helvetica,sans-Serif" font-size="10.00">Etat::setX</text>
</a>
</g>
</g>
<!-- Node109&#45;&gt;Node110 -->
<g id="edge5" class="edge"><title>Node109&#45;&gt;Node110</title>
<path fill="none" stroke="midnightblue" d="M395.374,-171.519C401.81,-174.101 408.326,-177.246 414,-181 433.402,-193.837 431.727,-204.6 450,-219 451.772,-220.396 453.658,-221.758 455.596,-223.069"/>
<polygon fill="midnightblue" stroke="midnightblue" points="453.895,-226.134 464.234,-228.449 457.596,-220.192 453.895,-226.134"/>
</g>
<!-- Node111 -->
<g id="node7" class="node"><title>Node111</title>
<g id="a_node7"><a xlink:href="class_etat.html#a8a54fc9ecb1b97d84d2f1f259e3bf70e" target="_top" xlink:title="Etat::setY">
<polygon fill="none" stroke="black" points="453.5,-190.5 453.5,-209.5 514.5,-209.5 514.5,-190.5 453.5,-190.5"/>
<text text-anchor="middle" x="484" y="-197.5" font-family="Helvetica,sans-Serif" font-size="10.00">Etat::setY</text>
</a>
</g>
</g>
<!-- Node109&#45;&gt;Node111 -->
<g id="edge6" class="edge"><title>Node109&#45;&gt;Node111</title>
<path fill="none" stroke="midnightblue" d="M393.281,-171.589C408.461,-176.396 427.035,-182.278 443.338,-187.44"/>
<polygon fill="midnightblue" stroke="midnightblue" points="442.554,-190.863 453.144,-190.546 444.668,-184.19 442.554,-190.863"/>
</g>
<!-- Node109&#45;&gt;Node112 -->
<g id="edge7" class="edge"><title>Node109&#45;&gt;Node112</title>
<path fill="none" stroke="midnightblue" d="M393.281,-152.411C408.346,-147.641 426.754,-141.811 442.967,-136.677"/>
<polygon fill="midnightblue" stroke="midnightblue" points="444.252,-139.942 452.729,-133.586 442.139,-133.268 444.252,-139.942"/>
</g>
<!-- Node113 -->
<g id="node9" class="node"><title>Node113</title>
<g id="a_node9"><a xlink:href="class_goban.html#a579840586df08a58983f6b497979344b" target="_top" xlink:title="Goban::ctoi">
<polygon fill="none" stroke="black" points="450.5,-152.5 450.5,-171.5 517.5,-171.5 517.5,-152.5 450.5,-152.5"/>
<text text-anchor="middle" x="484" y="-159.5" font-family="Helvetica,sans-Serif" font-size="10.00">Goban::ctoi</text>
</a>
</g>
</g>
<!-- Node109&#45;&gt;Node113 -->
<g id="edge8" class="edge"><title>Node109&#45;&gt;Node113</title>
<path fill="none" stroke="midnightblue" d="M414.239,-162C422.934,-162 431.881,-162 440.326,-162"/>
<polygon fill="midnightblue" stroke="midnightblue" points="440.328,-165.5 450.328,-162 440.328,-158.5 440.328,-165.5"/>
</g>
</g>
</svg>
