<?xml version="1.0" encoding="UTF-8" standalone="no"?>
<!DOCTYPE svg PUBLIC "-//W3C//DTD SVG 1.1//EN"
 "http://www.w3.org/Graphics/SVG/1.1/DTD/svg11.dtd">
<!-- Generated by graphviz version 2.38.0 (20140413.2041)
 -->
<!-- Title: Board::getGoban Pages: 1 -->
<svg width="578pt" height="66pt"
 viewBox="0.00 0.00 578.00 66.00" xmlns="http://www.w3.org/2000/svg" xmlns:xlink="http://www.w3.org/1999/xlink">
<g id="graph0" class="graph" transform="scale(1 1) rotate(0) translate(4 62)">
<title>Board::getGoban</title>
<!-- Node52 -->
<g id="node1" class="node"><title>Node52</title>
<polygon fill="#bfbfbf" stroke="black" points="0,-19.5 0,-38.5 90,-38.5 90,-19.5 0,-19.5"/>
<text text-anchor="middle" x="45" y="-26.5" font-family="Helvetica,sans-Serif" font-size="10.00">Board::getGoban</text>
</g>
<!-- Node53 -->
<g id="node2" class="node"><title>Node53</title>
<g id="a_node2"><a xlink:href="class_game__window.html#a782f1aca3d28de1350375b10459073d4" target="_top" xlink:title="Game_window::getGoban">
<polygon fill="none" stroke="black" points="126,-19.5 126,-38.5 254,-38.5 254,-19.5 126,-19.5"/>
<text text-anchor="middle" x="190" y="-26.5" font-family="Helvetica,sans-Serif" font-size="10.00">Game_window::getGoban</text>
</a>
</g>
</g>
<!-- Node52&#45;&gt;Node53 -->
<g id="edge1" class="edge"><title>Node52&#45;&gt;Node53</title>
<path fill="none" stroke="midnightblue" d="M100.13,-29C108.542,-29 117.296,-29 125.886,-29"/>
<polygon fill="midnightblue" stroke="midnightblue" points="100.072,-25.5001 90.0715,-29 100.072,-32.5001 100.072,-25.5001"/>
</g>
<!-- Node54 -->
<g id="node3" class="node"><title>Node54</title>
<g id="a_node3"><a xlink:href="class_go___solver.html#a95c1c268123a76b4f2db5b183bc721b6" target="_top" xlink:title="Go_Solver::getGoban">
<polygon fill="none" stroke="black" points="290,-38.5 290,-57.5 399,-57.5 399,-38.5 290,-38.5"/>
<text text-anchor="middle" x="344.5" y="-45.5" font-family="Helvetica,sans-Serif" font-size="10.00">Go_Solver::getGoban</text>
</a>
</g>
</g>
<!-- Node53&#45;&gt;Node54 -->
<g id="edge2" class="edge"><title>Node53&#45;&gt;Node54</title>
<path fill="none" stroke="midnightblue" d="M264.366,-38.1407C272.941,-39.209 281.564,-40.2834 289.801,-41.3097"/>
<polygon fill="midnightblue" stroke="midnightblue" points="264.705,-34.6559 254.349,-36.8926 263.839,-41.6022 264.705,-34.6559"/>
</g>
<!-- Node56 -->
<g id="node5" class="node"><title>Node56</title>
<g id="a_node5"><a xlink:href="class_go___solver.html#ab2a2c57a24b076a6729e01504ef25377" target="_top" xlink:title="Go_Solver::setTarget">
<polygon fill="none" stroke="black" points="291,-0.5 291,-19.5 398,-19.5 398,-0.5 291,-0.5"/>
<text text-anchor="middle" x="344.5" y="-7.5" font-family="Helvetica,sans-Serif" font-size="10.00">Go_Solver::setTarget</text>
</a>
</g>
</g>
<!-- Node53&#45;&gt;Node56 -->
<g id="edge4" class="edge"><title>Node53&#45;&gt;Node56</title>
<path fill="none" stroke="midnightblue" d="M264.358,-19.8603C273.267,-18.7504 282.228,-17.6339 290.755,-16.5716"/>
<polygon fill="midnightblue" stroke="midnightblue" points="263.839,-16.3978 254.349,-21.1074 264.705,-23.3441 263.839,-16.3978"/>
</g>
<!-- Node55 -->
<g id="node4" class="node"><title>Node55</title>
<g id="a_node4"><a xlink:href="class_go___solver.html#a6ca744f1f4586c3f90f2e47915034baf" target="_top" xlink:title="Go_Solver::launchTsumego">
<polygon fill="none" stroke="black" points="435,-38.5 435,-57.5 570,-57.5 570,-38.5 435,-38.5"/>
<text text-anchor="middle" x="502.5" y="-45.5" font-family="Helvetica,sans-Serif" font-size="10.00">Go_Solver::launchTsumego</text>
</a>
</g>
</g>
<!-- Node54&#45;&gt;Node55 -->
<g id="edge3" class="edge"><title>Node54&#45;&gt;Node55</title>
<path fill="none" stroke="midnightblue" d="M409.29,-48C417.688,-48 426.313,-48 434.759,-48"/>
<polygon fill="midnightblue" stroke="midnightblue" points="409.186,-44.5001 399.186,-48 409.186,-51.5001 409.186,-44.5001"/>
</g>
</g>
</svg>
