<?xml version="1.0" encoding="UTF-8" standalone="no"?>
<!DOCTYPE svg PUBLIC "-//W3C//DTD SVG 1.1//EN"
 "http://www.w3.org/Graphics/SVG/1.1/DTD/svg11.dtd">
<!-- Generated by graphviz version 2.38.0 (20140413.2041)
 -->
<!-- Title: Board::turnSoundsUp Pages: 1 -->
<svg width="465pt" height="28pt"
 viewBox="0.00 0.00 465.00 28.00" xmlns="http://www.w3.org/2000/svg" xmlns:xlink="http://www.w3.org/1999/xlink">
<g id="graph0" class="graph" transform="scale(1 1) rotate(0) translate(4 24)">
<title>Board::turnSoundsUp</title>
<!-- Node110 -->
<g id="node1" class="node"><title>Node110</title>
<polygon fill="#bfbfbf" stroke="black" points="0,-0.5 0,-19.5 110,-19.5 110,-0.5 0,-0.5"/>
<text text-anchor="middle" x="55" y="-7.5" font-family="Helvetica,sans-Serif" font-size="10.00">Board::turnSoundsUp</text>
</g>
<!-- Node111 -->
<g id="node2" class="node"><title>Node111</title>
<g id="a_node2"><a xlink:href="class_game__window.html#a1ba4f62d58089e3de5da00538889cb25" target="_top" xlink:title="Game_window::turnSoundsUp">
<polygon fill="none" stroke="black" points="146,-0.5 146,-19.5 293,-19.5 293,-0.5 146,-0.5"/>
<text text-anchor="middle" x="219.5" y="-7.5" font-family="Helvetica,sans-Serif" font-size="10.00">Game_window::turnSoundsUp</text>
</a>
</g>
</g>
<!-- Node110&#45;&gt;Node111 -->
<g id="edge1" class="edge"><title>Node110&#45;&gt;Node111</title>
<path fill="none" stroke="midnightblue" d="M120.216,-10C128.626,-10 137.29,-10 145.827,-10"/>
<polygon fill="midnightblue" stroke="midnightblue" points="120.11,-6.5001 110.11,-10 120.11,-13.5001 120.11,-6.5001"/>
</g>
<!-- Node112 -->
<g id="node3" class="node"><title>Node112</title>
<g id="a_node3"><a xlink:href="class_go___solver.html#a461b1fecf636b55d6b9f31b0035366c3" target="_top" xlink:title="Go_Solver::turnSoundsUp">
<polygon fill="none" stroke="black" points="329,-0.5 329,-19.5 457,-19.5 457,-0.5 329,-0.5"/>
<text text-anchor="middle" x="393" y="-7.5" font-family="Helvetica,sans-Serif" font-size="10.00">Go_Solver::turnSoundsUp</text>
</a>
</g>
</g>
<!-- Node111&#45;&gt;Node112 -->
<g id="edge2" class="edge"><title>Node111&#45;&gt;Node112</title>
<path fill="none" stroke="midnightblue" d="M303.305,-10C311.92,-10 320.574,-10 328.92,-10"/>
<polygon fill="midnightblue" stroke="midnightblue" points="303.231,-6.5001 293.231,-10 303.231,-13.5001 303.231,-6.5001"/>
</g>
</g>
</svg>
