<?xml version="1.0" encoding="UTF-8" standalone="no"?>
<!DOCTYPE svg PUBLIC "-//W3C//DTD SVG 1.1//EN"
 "http://www.w3.org/Graphics/SVG/1.1/DTD/svg11.dtd">
<!-- Generated by graphviz version 2.38.0 (20140413.2041)
 -->
<!-- Title: History::current Pages: 1 -->
<svg width="632pt" height="28pt"
 viewBox="0.00 0.00 632.00 28.00" xmlns="http://www.w3.org/2000/svg" xmlns:xlink="http://www.w3.org/1999/xlink">
<g id="graph0" class="graph" transform="scale(1 1) rotate(0) translate(4 24)">
<title>History::current</title>
<!-- Node22 -->
<g id="node1" class="node"><title>Node22</title>
<polygon fill="#bfbfbf" stroke="black" points="0,-0.5 0,-19.5 83,-19.5 83,-0.5 0,-0.5"/>
<text text-anchor="middle" x="41.5" y="-7.5" font-family="Helvetica,sans-Serif" font-size="10.00">History::current</text>
</g>
<!-- Node23 -->
<g id="node2" class="node"><title>Node23</title>
<g id="a_node2"><a xlink:href="class_goban.html#ae7ee3b39f3c0d28c9bca286ca538f8ac" target="_top" xlink:title="Goban::cancel">
<polygon fill="none" stroke="black" points="119,-0.5 119,-19.5 199,-19.5 199,-0.5 119,-0.5"/>
<text text-anchor="middle" x="159" y="-7.5" font-family="Helvetica,sans-Serif" font-size="10.00">Goban::cancel</text>
</a>
</g>
</g>
<!-- Node22&#45;&gt;Node23 -->
<g id="edge1" class="edge"><title>Node22&#45;&gt;Node23</title>
<path fill="none" stroke="midnightblue" d="M93.4463,-10C101.952,-10 110.657,-10 118.81,-10"/>
<polygon fill="midnightblue" stroke="midnightblue" points="93.221,-6.5001 83.221,-10 93.2209,-13.5001 93.221,-6.5001"/>
</g>
<!-- Node24 -->
<g id="node3" class="node"><title>Node24</title>
<g id="a_node3"><a xlink:href="class_board.html#ac7ec911a62371650afd340d1535a1742" target="_top" xlink:title="Board::cancel">
<polygon fill="none" stroke="black" points="235,-0.5 235,-19.5 312,-19.5 312,-0.5 235,-0.5"/>
<text text-anchor="middle" x="273.5" y="-7.5" font-family="Helvetica,sans-Serif" font-size="10.00">Board::cancel</text>
</a>
</g>
</g>
<!-- Node23&#45;&gt;Node24 -->
<g id="edge2" class="edge"><title>Node23&#45;&gt;Node24</title>
<path fill="none" stroke="midnightblue" d="M209.262,-10C217.783,-10 226.52,-10 234.676,-10"/>
<polygon fill="midnightblue" stroke="midnightblue" points="209.031,-6.5001 199.031,-10 209.031,-13.5001 209.031,-6.5001"/>
</g>
<!-- Node25 -->
<g id="node4" class="node"><title>Node25</title>
<g id="a_node4"><a xlink:href="class_game__window.html#a72304de2044c29f1373037bd818f674f" target="_top" xlink:title="Game_window::keyPressed">
<polygon fill="none" stroke="black" points="348,-0.5 348,-19.5 485,-19.5 485,-0.5 348,-0.5"/>
<text text-anchor="middle" x="416.5" y="-7.5" font-family="Helvetica,sans-Serif" font-size="10.00">Game_window::keyPressed</text>
</a>
</g>
</g>
<!-- Node24&#45;&gt;Node25 -->
<g id="edge3" class="edge"><title>Node24&#45;&gt;Node25</title>
<path fill="none" stroke="midnightblue" d="M322.416,-10C330.639,-10 339.319,-10 347.941,-10"/>
<polygon fill="midnightblue" stroke="midnightblue" points="322.285,-6.5001 312.285,-10 322.285,-13.5001 322.285,-6.5001"/>
</g>
<!-- Node26 -->
<g id="node5" class="node"><title>Node26</title>
<g id="a_node5"><a xlink:href="class_game__window.html#a555769f4e8511e45d6623658dc736be5" target="_top" xlink:title="Game_window::Run">
<polygon fill="none" stroke="black" points="521,-0.5 521,-19.5 624,-19.5 624,-0.5 521,-0.5"/>
<text text-anchor="middle" x="572.5" y="-7.5" font-family="Helvetica,sans-Serif" font-size="10.00">Game_window::Run</text>
</a>
</g>
</g>
<!-- Node25&#45;&gt;Node26 -->
<g id="edge4" class="edge"><title>Node25&#45;&gt;Node26</title>
<path fill="none" stroke="midnightblue" d="M495.186,-10C503.84,-10 512.484,-10 520.678,-10"/>
<polygon fill="midnightblue" stroke="midnightblue" points="495.047,-6.5001 485.047,-10 495.047,-13.5001 495.047,-6.5001"/>
</g>
</g>
</svg>
