<?xml version="1.0" encoding="UTF-8" standalone="no"?>
<!DOCTYPE svg PUBLIC "-//W3C//DTD SVG 1.1//EN"
 "http://www.w3.org/Graphics/SVG/1.1/DTD/svg11.dtd">
<!-- Generated by graphviz version 2.38.0 (20140413.2041)
 -->
<!-- Title: Goban::DefineStone Pages: 1 -->
<svg width="1016pt" height="142pt"
 viewBox="0.00 0.00 1016.00 142.00" xmlns="http://www.w3.org/2000/svg" xmlns:xlink="http://www.w3.org/1999/xlink">
<g id="graph0" class="graph" transform="scale(1 1) rotate(0) translate(4 138)">
<title>Goban::DefineStone</title>
<!-- Node93 -->
<g id="node1" class="node"><title>Node93</title>
<polygon fill="#bfbfbf" stroke="black" points="0,-19.5 0,-38.5 104,-38.5 104,-19.5 0,-19.5"/>
<text text-anchor="middle" x="52" y="-26.5" font-family="Helvetica,sans-Serif" font-size="10.00">Goban::DefineStone</text>
</g>
<!-- Node94 -->
<g id="node2" class="node"><title>Node94</title>
<g id="a_node2"><a xlink:href="class_goban.html#a84f36324eb9ddc29f522d481f04c13e7" target="_top" xlink:title="Goban::listOfLiberties">
<polygon fill="none" stroke="black" points="140,-19.5 140,-38.5 250,-38.5 250,-19.5 140,-19.5"/>
<text text-anchor="middle" x="195" y="-26.5" font-family="Helvetica,sans-Serif" font-size="10.00">Goban::listOfLiberties</text>
</a>
</g>
</g>
<!-- Node93&#45;&gt;Node94 -->
<g id="edge1" class="edge"><title>Node93&#45;&gt;Node94</title>
<path fill="none" stroke="midnightblue" d="M114.425,-29C122.82,-29 131.39,-29 139.648,-29"/>
<polygon fill="midnightblue" stroke="midnightblue" points="114.303,-25.5001 104.303,-29 114.303,-32.5001 114.303,-25.5001"/>
</g>
<!-- Node95 -->
<g id="node3" class="node"><title>Node95</title>
<g id="a_node3"><a xlink:href="class_goban.html#a1ec70508987f66afff5f8df381731fac" target="_top" xlink:title="Goban::eliminateGroups">
<polygon fill="none" stroke="black" points="286,-38.5 286,-57.5 408,-57.5 408,-38.5 286,-38.5"/>
<text text-anchor="middle" x="347" y="-45.5" font-family="Helvetica,sans-Serif" font-size="10.00">Goban::eliminateGroups</text>
</a>
</g>
</g>
<!-- Node94&#45;&gt;Node95 -->
<g id="edge2" class="edge"><title>Node94&#45;&gt;Node95</title>
<path fill="none" stroke="midnightblue" d="M260.347,-37.1506C268.803,-38.2217 277.443,-39.3162 285.827,-40.378"/>
<polygon fill="midnightblue" stroke="midnightblue" points="260.514,-33.6439 250.153,-35.8594 259.634,-40.5884 260.514,-33.6439"/>
</g>
<!-- Node98 -->
<g id="node6" class="node"><title>Node98</title>
<g id="a_node6"><a xlink:href="class_goban.html#a8b95ea2b51c078381562e361ff7febac" target="_top" xlink:title="Goban::isSuicide">
<polygon fill="none" stroke="black" points="628,-0.5 628,-19.5 719,-19.5 719,-0.5 628,-0.5"/>
<text text-anchor="middle" x="673.5" y="-7.5" font-family="Helvetica,sans-Serif" font-size="10.00">Goban::isSuicide</text>
</a>
</g>
</g>
<!-- Node94&#45;&gt;Node98 -->
<g id="edge12" class="edge"><title>Node94&#45;&gt;Node98</title>
<path fill="none" stroke="midnightblue" d="M260.281,-26.4369C358.401,-22.5244 543.06,-15.1613 627.861,-11.78"/>
<polygon fill="midnightblue" stroke="midnightblue" points="260.049,-22.9432 250.197,-26.839 260.328,-29.9377 260.049,-22.9432"/>
</g>
<!-- Node96 -->
<g id="node4" class="node"><title>Node96</title>
<g id="a_node4"><a xlink:href="class_goban.html#a7858b815885e4af36f05f9d26182cb07" target="_top" xlink:title="Goban::eliminateOppGroups">
<polygon fill="none" stroke="black" points="444,-38.5 444,-57.5 584,-57.5 584,-38.5 444,-38.5"/>
<text text-anchor="middle" x="514" y="-45.5" font-family="Helvetica,sans-Serif" font-size="10.00">Goban::eliminateOppGroups</text>
</a>
</g>
</g>
<!-- Node95&#45;&gt;Node96 -->
<g id="edge3" class="edge"><title>Node95&#45;&gt;Node96</title>
<path fill="none" stroke="midnightblue" d="M418.24,-48C426.698,-48 435.331,-48 443.774,-48"/>
<polygon fill="midnightblue" stroke="midnightblue" points="418.036,-44.5001 408.036,-48 418.036,-51.5001 418.036,-44.5001"/>
</g>
<!-- Node97 -->
<g id="node5" class="node"><title>Node97</title>
<g id="a_node5"><a xlink:href="class_goban.html#a799390f04139eec16f7bb8c79b381303" target="_top" xlink:title="Goban::legalEvenKO">
<polygon fill="none" stroke="black" points="620,-114.5 620,-133.5 727,-133.5 727,-114.5 620,-114.5"/>
<text text-anchor="middle" x="673.5" y="-121.5" font-family="Helvetica,sans-Serif" font-size="10.00">Goban::legalEvenKO</text>
</a>
</g>
</g>
<!-- Node96&#45;&gt;Node97 -->
<g id="edge4" class="edge"><title>Node96&#45;&gt;Node97</title>
<path fill="none" stroke="midnightblue" d="M539.856,-62.8724C560.8,-75.0659 591.78,-92.32 620,-105 627.515,-108.377 635.828,-111.606 643.58,-114.413"/>
<polygon fill="midnightblue" stroke="midnightblue" points="541.38,-59.7086 530.985,-57.6606 537.834,-65.744 541.38,-59.7086"/>
</g>
<!-- Node96&#45;&gt;Node98 -->
<g id="edge5" class="edge"><title>Node96&#45;&gt;Node98</title>
<path fill="none" stroke="midnightblue" d="M564.604,-36.032C586.675,-30.7069 612.303,-24.5238 633.042,-19.5201"/>
<polygon fill="midnightblue" stroke="midnightblue" points="563.644,-32.6631 554.744,-38.411 565.286,-39.4679 563.644,-32.6631"/>
</g>
<!-- Node99 -->
<g id="node7" class="node"><title>Node99</title>
<g id="a_node7"><a xlink:href="class_goban.html#a36ab256c9430e070b620052a0f13f051" target="_top" xlink:title="Goban::listFils">
<polygon fill="none" stroke="black" points="633.5,-76.5 633.5,-95.5 713.5,-95.5 713.5,-76.5 633.5,-76.5"/>
<text text-anchor="middle" x="673.5" y="-83.5" font-family="Helvetica,sans-Serif" font-size="10.00">Goban::listFils</text>
</a>
</g>
</g>
<!-- Node96&#45;&gt;Node99 -->
<g id="edge6" class="edge"><title>Node96&#45;&gt;Node99</title>
<path fill="none" stroke="midnightblue" d="M564.643,-59.9773C586.802,-65.3237 612.54,-71.5334 633.314,-76.5457"/>
<polygon fill="midnightblue" stroke="midnightblue" points="565.286,-56.5321 554.744,-57.589 563.644,-63.3369 565.286,-56.5321"/>
</g>
<!-- Node102 -->
<g id="node10" class="node"><title>Node102</title>
<g id="a_node10"><a xlink:href="class_board.html#a5fda73da080403d8a71a8593d581c350" target="_top" xlink:title="Board::click">
<polygon fill="none" stroke="black" points="639.5,-38.5 639.5,-57.5 707.5,-57.5 707.5,-38.5 639.5,-38.5"/>
<text text-anchor="middle" x="673.5" y="-45.5" font-family="Helvetica,sans-Serif" font-size="10.00">Board::click</text>
</a>
</g>
</g>
<!-- Node96&#45;&gt;Node102 -->
<g id="edge9" class="edge"><title>Node96&#45;&gt;Node102</title>
<path fill="none" stroke="midnightblue" d="M594.467,-48C610.303,-48 626.1,-48 639.297,-48"/>
<polygon fill="midnightblue" stroke="midnightblue" points="594.082,-44.5001 584.082,-48 594.082,-51.5001 594.082,-44.5001"/>
</g>
<!-- Node100 -->
<g id="node8" class="node"><title>Node100</title>
<g id="a_node8"><a xlink:href="class_arbre.html#ac82e543d8cbf0aced4d741c346f9950d" target="_top" xlink:title="Arbre::Arbre">
<polygon fill="none" stroke="black" points="781.5,-114.5 781.5,-133.5 850.5,-133.5 850.5,-114.5 781.5,-114.5"/>
<text text-anchor="middle" x="816" y="-121.5" font-family="Helvetica,sans-Serif" font-size="10.00">Arbre::Arbre</text>
</a>
</g>
</g>
<!-- Node99&#45;&gt;Node100 -->
<g id="edge7" class="edge"><title>Node99&#45;&gt;Node100</title>
<path fill="none" stroke="midnightblue" d="M719.813,-98.2556C739.866,-103.679 763.034,-109.945 781.492,-114.937"/>
<polygon fill="midnightblue" stroke="midnightblue" points="720.521,-94.8213 709.954,-95.589 718.693,-101.579 720.521,-94.8213"/>
</g>
<!-- Node101 -->
<g id="node9" class="node"><title>Node101</title>
<g id="a_node9"><a xlink:href="class_arbre.html#a70585b1d341c1e0c262b2b4a4f769b6d" target="_top" xlink:title="Arbre::resetFils">
<polygon fill="none" stroke="black" points="774.5,-76.5 774.5,-95.5 857.5,-95.5 857.5,-76.5 774.5,-76.5"/>
<text text-anchor="middle" x="816" y="-83.5" font-family="Helvetica,sans-Serif" font-size="10.00">Arbre::resetFils</text>
</a>
</g>
</g>
<!-- Node99&#45;&gt;Node101 -->
<g id="edge8" class="edge"><title>Node99&#45;&gt;Node101</title>
<path fill="none" stroke="midnightblue" d="M723.645,-86C740.132,-86 758.329,-86 774.114,-86"/>
<polygon fill="midnightblue" stroke="midnightblue" points="723.637,-82.5001 713.637,-86 723.637,-89.5001 723.637,-82.5001"/>
</g>
<!-- Node103 -->
<g id="node11" class="node"><title>Node103</title>
<g id="a_node11"><a xlink:href="class_game__window.html#afa942088809bf10731bb31d0d37b878d" target="_top" xlink:title="Game_window::click">
<polygon fill="none" stroke="black" points="763,-38.5 763,-57.5 869,-57.5 869,-38.5 763,-38.5"/>
<text text-anchor="middle" x="816" y="-45.5" font-family="Helvetica,sans-Serif" font-size="10.00">Game_window::click</text>
</a>
</g>
</g>
<!-- Node102&#45;&gt;Node103 -->
<g id="edge10" class="edge"><title>Node102&#45;&gt;Node103</title>
<path fill="none" stroke="midnightblue" d="M717.841,-48C732.116,-48 748.137,-48 762.99,-48"/>
<polygon fill="midnightblue" stroke="midnightblue" points="717.797,-44.5001 707.797,-48 717.797,-51.5001 717.797,-44.5001"/>
</g>
<!-- Node104 -->
<g id="node12" class="node"><title>Node104</title>
<g id="a_node12"><a xlink:href="class_game__window.html#a555769f4e8511e45d6623658dc736be5" target="_top" xlink:title="Game_window::Run">
<polygon fill="none" stroke="black" points="905,-38.5 905,-57.5 1008,-57.5 1008,-38.5 905,-38.5"/>
<text text-anchor="middle" x="956.5" y="-45.5" font-family="Helvetica,sans-Serif" font-size="10.00">Game_window::Run</text>
</a>
</g>
</g>
<!-- Node103&#45;&gt;Node104 -->
<g id="edge11" class="edge"><title>Node103&#45;&gt;Node104</title>
<path fill="none" stroke="midnightblue" d="M879.594,-48C888.066,-48 896.672,-48 904.898,-48"/>
<polygon fill="midnightblue" stroke="midnightblue" points="879.361,-44.5001 869.361,-48 879.361,-51.5001 879.361,-44.5001"/>
</g>
</g>
</svg>
