<?xml version="1.0" encoding="UTF-8" standalone="no"?>
<!DOCTYPE svg PUBLIC "-//W3C//DTD SVG 1.1//EN"
 "http://www.w3.org/Graphics/SVG/1.1/DTD/svg11.dtd">
<!-- Generated by graphviz version 2.38.0 (20140413.2041)
 -->
<!-- Title: Choice_miniature::Choice_miniature Pages: 1 -->
<svg width="430pt" height="39pt"
 viewBox="0.00 0.00 430.00 39.00" xmlns="http://www.w3.org/2000/svg" xmlns:xlink="http://www.w3.org/1999/xlink">
<g id="graph0" class="graph" transform="scale(1 1) rotate(0) translate(4 35)">
<title>Choice_miniature::Choice_miniature</title>
<!-- Node0 -->
<g id="node1" class="node"><title>Node0</title>
<polygon fill="#bfbfbf" stroke="black" points="0,-0.5 0,-30.5 128,-30.5 128,-0.5 0,-0.5"/>
<text text-anchor="start" x="8" y="-18.5" font-family="Helvetica,sans-Serif" font-size="10.00">Choice_miniature::Choice</text>
<text text-anchor="middle" x="64" y="-7.5" font-family="Helvetica,sans-Serif" font-size="10.00">_miniature</text>
</g>
<!-- Node1 -->
<g id="node2" class="node"><title>Node1</title>
<g id="a_node2"><a xlink:href="class_choice.html#a70d994feb4c3215eb477bae3df7c5052" target="_top" xlink:title="Choice::loadTextures">
<polygon fill="none" stroke="black" points="164,-6 164,-25 272,-25 272,-6 164,-6"/>
<text text-anchor="middle" x="218" y="-13" font-family="Helvetica,sans-Serif" font-size="10.00">Choice::loadTextures</text>
</a>
</g>
</g>
<!-- Node0&#45;&gt;Node1 -->
<g id="edge1" class="edge"><title>Node0&#45;&gt;Node1</title>
<path fill="none" stroke="midnightblue" d="M128.141,-15.5C136.607,-15.5 145.293,-15.5 153.761,-15.5"/>
<polygon fill="midnightblue" stroke="midnightblue" points="153.953,-19.0001 163.953,-15.5 153.953,-12.0001 153.953,-19.0001"/>
</g>
<!-- Node2 -->
<g id="node3" class="node"><title>Node2</title>
<g id="a_node3"><a xlink:href="class_choice.html#aa3113d895017610a03fff73795cf22fd" target="_top" xlink:title="Choice::updateTexture">
<polygon fill="none" stroke="black" points="308,-6 308,-25 422,-25 422,-6 308,-6"/>
<text text-anchor="middle" x="365" y="-13" font-family="Helvetica,sans-Serif" font-size="10.00">Choice::updateTexture</text>
</a>
</g>
</g>
<!-- Node1&#45;&gt;Node2 -->
<g id="edge2" class="edge"><title>Node1&#45;&gt;Node2</title>
<path fill="none" stroke="midnightblue" d="M272.169,-15.5C280.535,-15.5 289.271,-15.5 297.885,-15.5"/>
<polygon fill="midnightblue" stroke="midnightblue" points="297.913,-19.0001 307.913,-15.5 297.913,-12.0001 297.913,-19.0001"/>
</g>
</g>
</svg>
