<?xml version="1.0" encoding="UTF-8" standalone="no"?>
<!DOCTYPE svg PUBLIC "-//W3C//DTD SVG 1.1//EN"
 "http://www.w3.org/Graphics/SVG/1.1/DTD/svg11.dtd">
<!-- Generated by graphviz version 2.38.0 (20140413.2041)
 -->
<!-- Title: Etat::estVoisine Pages: 1 -->
<svg width="360pt" height="28pt"
 viewBox="0.00 0.00 360.00 28.00" xmlns="http://www.w3.org/2000/svg" xmlns:xlink="http://www.w3.org/1999/xlink">
<g id="graph0" class="graph" transform="scale(1 1) rotate(0) translate(4 24)">
<title>Etat::estVoisine</title>
<!-- Node9 -->
<g id="node1" class="node"><title>Node9</title>
<polygon fill="#bfbfbf" stroke="black" points="0,-0.5 0,-19.5 86,-19.5 86,-0.5 0,-0.5"/>
<text text-anchor="middle" x="43" y="-7.5" font-family="Helvetica,sans-Serif" font-size="10.00">Etat::estVoisine</text>
</g>
<!-- Node10 -->
<g id="node2" class="node"><title>Node10</title>
<g id="a_node2"><a xlink:href="class_groupe.html#a51ae2500f67ac071215ba3ff49e91b17" target="_top" xlink:title="Groupe::shouldContain">
<polygon fill="none" stroke="black" points="122,-0.5 122,-19.5 238,-19.5 238,-0.5 122,-0.5"/>
<text text-anchor="middle" x="180" y="-7.5" font-family="Helvetica,sans-Serif" font-size="10.00">Groupe::shouldContain</text>
</a>
</g>
</g>
<!-- Node9&#45;&gt;Node10 -->
<g id="edge1" class="edge"><title>Node9&#45;&gt;Node10</title>
<path fill="none" stroke="midnightblue" d="M96.372,-10C104.757,-10 113.47,-10 121.957,-10"/>
<polygon fill="midnightblue" stroke="midnightblue" points="96.3445,-6.5001 86.3444,-10 96.3444,-13.5001 96.3445,-6.5001"/>
</g>
<!-- Node11 -->
<g id="node3" class="node"><title>Node11</title>
<g id="a_node3"><a xlink:href="class_groupe.html#a13537bf2de72a097dd9ee102d14686d5" target="_top" xlink:title="Groupe::voisin">
<polygon fill="none" stroke="black" points="274,-0.5 274,-19.5 352,-19.5 352,-0.5 274,-0.5"/>
<text text-anchor="middle" x="313" y="-7.5" font-family="Helvetica,sans-Serif" font-size="10.00">Groupe::voisin</text>
</a>
</g>
</g>
<!-- Node10&#45;&gt;Node11 -->
<g id="edge2" class="edge"><title>Node10&#45;&gt;Node11</title>
<path fill="none" stroke="midnightblue" d="M248.085,-10C256.965,-10 265.806,-10 273.955,-10"/>
<polygon fill="midnightblue" stroke="midnightblue" points="248.077,-6.5001 238.077,-10 248.077,-13.5001 248.077,-6.5001"/>
</g>
</g>
</svg>
