<?xml version="1.0" encoding="UTF-8" standalone="no"?>
<!DOCTYPE svg PUBLIC "-//W3C//DTD SVG 1.1//EN"
 "http://www.w3.org/Graphics/SVG/1.1/DTD/svg11.dtd">
<!-- Generated by graphviz version 2.38.0 (20140413.2041)
 -->
<!-- Title: Arbre::getNbF Pages: 1 -->
<svg width="559pt" height="218pt"
 viewBox="0.00 0.00 559.00 218.00" xmlns="http://www.w3.org/2000/svg" xmlns:xlink="http://www.w3.org/1999/xlink">
<g id="graph0" class="graph" transform="scale(1 1) rotate(0) translate(4 214)">
<title>Arbre::getNbF</title>
<!-- Node101 -->
<g id="node1" class="node"><title>Node101</title>
<polygon fill="#bfbfbf" stroke="black" points="0,-95.5 0,-114.5 77,-114.5 77,-95.5 0,-95.5"/>
<text text-anchor="middle" x="38.5" y="-102.5" font-family="Helvetica,sans-Serif" font-size="10.00">Arbre::getNbF</text>
</g>
<!-- Node102 -->
<g id="node2" class="node"><title>Node102</title>
<g id="a_node2"><a xlink:href="class_arbre.html#a3284c47c1ea92a6c5be4a210008dfb4f" target="_top" xlink:title="Arbre::Arbre">
<polygon fill="none" stroke="black" points="141,-190.5 141,-209.5 210,-209.5 210,-190.5 141,-190.5"/>
<text text-anchor="middle" x="175.5" y="-197.5" font-family="Helvetica,sans-Serif" font-size="10.00">Arbre::Arbre</text>
</a>
</g>
</g>
<!-- Node101&#45;&gt;Node102 -->
<g id="edge1" class="edge"><title>Node101&#45;&gt;Node102</title>
<path fill="none" stroke="midnightblue" d="M53.9172,-122.427C67.7169,-138.187 89.8119,-161.134 113,-176 122.166,-181.876 132.999,-186.696 142.998,-190.435"/>
<polygon fill="midnightblue" stroke="midnightblue" points="56.3074,-119.837 47.1499,-114.509 50.9858,-124.385 56.3074,-119.837"/>
</g>
<!-- Node103 -->
<g id="node3" class="node"><title>Node103</title>
<g id="a_node3"><a xlink:href="class_i_a.html#a364aef554d81e9a93bff08c28d437497" target="_top" xlink:title="IA::Tsumego">
<polygon fill="none" stroke="black" points="291.5,-95.5 291.5,-114.5 362.5,-114.5 362.5,-95.5 291.5,-95.5"/>
<text text-anchor="middle" x="327" y="-102.5" font-family="Helvetica,sans-Serif" font-size="10.00">IA::Tsumego</text>
</a>
</g>
</g>
<!-- Node101&#45;&gt;Node103 -->
<g id="edge2" class="edge"><title>Node101&#45;&gt;Node103</title>
<path fill="none" stroke="midnightblue" d="M61.5371,-119.942C75.5896,-128.545 94.5656,-138.517 113,-143 166.982,-156.129 183.594,-154.245 238,-143 264.238,-137.577 292.28,-123.945 309.478,-114.575"/>
<polygon fill="midnightblue" stroke="midnightblue" points="63.3854,-116.97 53.0689,-114.557 59.6293,-122.876 63.3854,-116.97"/>
</g>
<!-- Node105 -->
<g id="node5" class="node"><title>Node105</title>
<g id="a_node5"><a xlink:href="class_i_a.html#a42202360406fe67babfd01a9b7902fd2" target="_top" xlink:title="IA::Tsumego_naif">
<polygon fill="none" stroke="black" points="129.5,-114.5 129.5,-133.5 221.5,-133.5 221.5,-114.5 129.5,-114.5"/>
<text text-anchor="middle" x="175.5" y="-121.5" font-family="Helvetica,sans-Serif" font-size="10.00">IA::Tsumego_naif</text>
</a>
</g>
</g>
<!-- Node101&#45;&gt;Node105 -->
<g id="edge4" class="edge"><title>Node101&#45;&gt;Node105</title>
<path fill="none" stroke="midnightblue" d="M87.3093,-111.729C101.011,-113.657 115.899,-115.752 129.43,-117.657"/>
<polygon fill="midnightblue" stroke="midnightblue" points="87.4952,-108.22 77.105,-110.293 86.5196,-115.152 87.4952,-108.22"/>
</g>
<!-- Node106 -->
<g id="node6" class="node"><title>Node106</title>
<g id="a_node6"><a xlink:href="class_i_a.html#af1f6e5abe41a2225b17ca319c1fc0e4e" target="_top" xlink:title="IA::Tsumego_abr">
<polygon fill="none" stroke="black" points="130.5,-76.5 130.5,-95.5 220.5,-95.5 220.5,-76.5 130.5,-76.5"/>
<text text-anchor="middle" x="175.5" y="-83.5" font-family="Helvetica,sans-Serif" font-size="10.00">IA::Tsumego_abr</text>
</a>
</g>
</g>
<!-- Node101&#45;&gt;Node106 -->
<g id="edge5" class="edge"><title>Node101&#45;&gt;Node106</title>
<path fill="none" stroke="midnightblue" d="M87.1002,-98.3007C101.19,-96.3178 116.549,-94.156 130.407,-92.2057"/>
<polygon fill="midnightblue" stroke="midnightblue" points="86.5196,-94.8478 77.105,-99.7074 87.4953,-101.78 86.5196,-94.8478"/>
</g>
<!-- Node107 -->
<g id="node7" class="node"><title>Node107</title>
<g id="a_node7"><a xlink:href="class_i_a.html#a6f616b7d3d9d39eef4780b7a03226260" target="_top" xlink:title="IA::Tsumego_abrFils">
<polygon fill="none" stroke="black" points="274,-48.5 274,-67.5 380,-67.5 380,-48.5 274,-48.5"/>
<text text-anchor="middle" x="327" y="-55.5" font-family="Helvetica,sans-Serif" font-size="10.00">IA::Tsumego_abrFils</text>
</a>
</g>
</g>
<!-- Node101&#45;&gt;Node107 -->
<g id="edge8" class="edge"><title>Node101&#45;&gt;Node107</title>
<path fill="none" stroke="midnightblue" d="M61.8695,-90.1725C75.9209,-81.707 94.7782,-71.8414 113,-67 166.478,-52.7913 230.136,-52.1085 273.847,-53.9996"/>
<polygon fill="midnightblue" stroke="midnightblue" points="60.016,-87.2035 53.3847,-95.4664 63.7215,-93.1424 60.016,-87.2035"/>
</g>
<!-- Node108 -->
<g id="node8" class="node"><title>Node108</title>
<g id="a_node8"><a xlink:href="class_i_a.html#a5d86a3548f2410f7fc0676b89d07f4fd" target="_top" xlink:title="IA::Tsumego_compresse">
<polygon fill="none" stroke="black" points="113,-0.5 113,-19.5 238,-19.5 238,-0.5 113,-0.5"/>
<text text-anchor="middle" x="175.5" y="-7.5" font-family="Helvetica,sans-Serif" font-size="10.00">IA::Tsumego_compresse</text>
</a>
</g>
</g>
<!-- Node101&#45;&gt;Node108 -->
<g id="edge9" class="edge"><title>Node101&#45;&gt;Node108</title>
<path fill="none" stroke="midnightblue" d="M53.9172,-87.5725C67.7169,-71.8129 89.8119,-48.8656 113,-34 122.166,-28.1236 132.999,-23.3035 142.998,-19.5651"/>
<polygon fill="midnightblue" stroke="midnightblue" points="50.9858,-85.6154 47.1499,-95.4914 56.3074,-90.1631 50.9858,-85.6154"/>
</g>
<!-- Node104 -->
<g id="node4" class="node"><title>Node104</title>
<g id="a_node4"><a xlink:href="class_go___solver.html#a6ca744f1f4586c3f90f2e47915034baf" target="_top" xlink:title="Go_Solver::launchTsumego">
<polygon fill="none" stroke="black" points="416,-95.5 416,-114.5 551,-114.5 551,-95.5 416,-95.5"/>
<text text-anchor="middle" x="483.5" y="-102.5" font-family="Helvetica,sans-Serif" font-size="10.00">Go_Solver::launchTsumego</text>
</a>
</g>
</g>
<!-- Node103&#45;&gt;Node104 -->
<g id="edge3" class="edge"><title>Node103&#45;&gt;Node104</title>
<path fill="none" stroke="midnightblue" d="M373.056,-105C386.475,-105 401.473,-105 415.958,-105"/>
<polygon fill="midnightblue" stroke="midnightblue" points="372.673,-101.5 362.673,-105 372.673,-108.5 372.673,-101.5"/>
</g>
<!-- Node106&#45;&gt;Node103 -->
<g id="edge6" class="edge"><title>Node106&#45;&gt;Node103</title>
<path fill="none" stroke="midnightblue" d="M230.582,-92.8733C250.816,-95.4449 273.243,-98.295 291.267,-100.586"/>
<polygon fill="midnightblue" stroke="midnightblue" points="230.908,-89.3866 220.546,-91.5979 230.025,-96.3308 230.908,-89.3866"/>
</g>
<!-- Node106&#45;&gt;Node107 -->
<g id="edge7" class="edge"><title>Node106&#45;&gt;Node107</title>
<path fill="none" stroke="midnightblue" d="M230.432,-75.899C245.021,-73.1667 260.759,-70.2191 275.171,-67.5198"/>
<polygon fill="midnightblue" stroke="midnightblue" points="229.731,-72.4694 220.546,-77.7505 231.02,-79.3497 229.731,-72.4694"/>
</g>
</g>
</svg>
