<?xml version="1.0" encoding="UTF-8" standalone="no"?>
<!DOCTYPE svg PUBLIC "-//W3C//DTD SVG 1.1//EN"
 "http://www.w3.org/Graphics/SVG/1.1/DTD/svg11.dtd">
<!-- Generated by graphviz version 2.38.0 (20140413.2041)
 -->
<!-- Title: IA::stop_tsumego Pages: 1 -->
<svg width="425pt" height="104pt"
 viewBox="0.00 0.00 425.00 104.00" xmlns="http://www.w3.org/2000/svg" xmlns:xlink="http://www.w3.org/1999/xlink">
<g id="graph0" class="graph" transform="scale(1 1) rotate(0) translate(4 100)">
<title>IA::stop_tsumego</title>
<!-- Node14 -->
<g id="node1" class="node"><title>Node14</title>
<polygon fill="#bfbfbf" stroke="black" points="0,-38.5 0,-57.5 93,-57.5 93,-38.5 0,-38.5"/>
<text text-anchor="middle" x="46.5" y="-45.5" font-family="Helvetica,sans-Serif" font-size="10.00">IA::stop_tsumego</text>
</g>
<!-- Node15 -->
<g id="node2" class="node"><title>Node15</title>
<g id="a_node2"><a xlink:href="class_i_a.html#a364aef554d81e9a93bff08c28d437497" target="_top" xlink:title="IA::Tsumego">
<polygon fill="none" stroke="black" points="152,-76.5 152,-95.5 223,-95.5 223,-76.5 152,-76.5"/>
<text text-anchor="middle" x="187.5" y="-83.5" font-family="Helvetica,sans-Serif" font-size="10.00">IA::Tsumego</text>
</a>
</g>
</g>
<!-- Node14&#45;&gt;Node15 -->
<g id="edge1" class="edge"><title>Node14&#45;&gt;Node15</title>
<path fill="none" stroke="midnightblue" d="M92.3718,-60.2671C111.685,-65.547 133.913,-71.6237 151.917,-76.5457"/>
<polygon fill="midnightblue" stroke="midnightblue" points="93.1446,-56.85 82.5756,-57.589 91.2986,-63.6022 93.1446,-56.85"/>
</g>
<!-- Node16 -->
<g id="node3" class="node"><title>Node16</title>
<g id="a_node3"><a xlink:href="class_go___solver.html#a6ca744f1f4586c3f90f2e47915034baf" target="_top" xlink:title="Go_Solver::launchTsumego">
<polygon fill="none" stroke="black" points="282,-57.5 282,-76.5 417,-76.5 417,-57.5 282,-57.5"/>
<text text-anchor="middle" x="349.5" y="-64.5" font-family="Helvetica,sans-Serif" font-size="10.00">Go_Solver::launchTsumego</text>
</a>
</g>
</g>
<!-- Node14&#45;&gt;Node16 -->
<g id="edge4" class="edge"><title>Node14&#45;&gt;Node16</title>
<path fill="none" stroke="midnightblue" d="M103.301,-51.5223C153.823,-54.7114 228.325,-59.4142 281.936,-62.7983"/>
<polygon fill="midnightblue" stroke="midnightblue" points="103.416,-48.0227 93.2154,-50.8857 102.975,-55.0088 103.416,-48.0227"/>
</g>
<!-- Node17 -->
<g id="node4" class="node"><title>Node17</title>
<g id="a_node4"><a xlink:href="class_go___solver.html#a63f22d429ea0e1c881d0b276edfe4b0e" target="_top" xlink:title="Go_Solver::~Go_Solver">
<polygon fill="none" stroke="black" points="129,-0.5 129,-19.5 246,-19.5 246,-0.5 129,-0.5"/>
<text text-anchor="middle" x="187.5" y="-7.5" font-family="Helvetica,sans-Serif" font-size="10.00">Go_Solver::~Go_Solver</text>
</a>
</g>
</g>
<!-- Node14&#45;&gt;Node17 -->
<g id="edge3" class="edge"><title>Node14&#45;&gt;Node17</title>
<path fill="none" stroke="midnightblue" d="M92.2953,-35.7538C111.455,-30.516 133.494,-24.4909 151.436,-19.5859"/>
<polygon fill="midnightblue" stroke="midnightblue" points="91.2986,-32.3978 82.5756,-38.411 93.1446,-39.15 91.2986,-32.3978"/>
</g>
<!-- Node15&#45;&gt;Node16 -->
<g id="edge2" class="edge"><title>Node15&#45;&gt;Node16</title>
<path fill="none" stroke="midnightblue" d="M233.289,-80.6813C248.368,-78.8907 265.532,-76.8525 281.922,-74.9062"/>
<polygon fill="midnightblue" stroke="midnightblue" points="232.735,-77.2224 223.218,-81.8773 233.561,-84.1736 232.735,-77.2224"/>
</g>
</g>
</svg>
