<?xml version="1.0" encoding="UTF-8" standalone="no"?>
<!DOCTYPE svg PUBLIC "-//W3C//DTD SVG 1.1//EN"
 "http://www.w3.org/Graphics/SVG/1.1/DTD/svg11.dtd">
<!-- Generated by graphviz version 2.38.0 (20140413.2041)
 -->
<!-- Title: Goban::eliminateOppGroups Pages: 1 -->
<svg width="572pt" height="142pt"
 viewBox="0.00 0.00 572.00 142.00" xmlns="http://www.w3.org/2000/svg" xmlns:xlink="http://www.w3.org/1999/xlink">
<g id="graph0" class="graph" transform="scale(1 1) rotate(0) translate(4 138)">
<title>Goban::eliminateOppGroups</title>
<!-- Node140 -->
<g id="node1" class="node"><title>Node140</title>
<polygon fill="#bfbfbf" stroke="black" points="0,-57.5 0,-76.5 140,-76.5 140,-57.5 0,-57.5"/>
<text text-anchor="middle" x="70" y="-64.5" font-family="Helvetica,sans-Serif" font-size="10.00">Goban::eliminateOppGroups</text>
</g>
<!-- Node141 -->
<g id="node2" class="node"><title>Node141</title>
<g id="a_node2"><a xlink:href="class_goban.html#a799390f04139eec16f7bb8c79b381303" target="_top" xlink:title="Goban::legalEvenKO">
<polygon fill="none" stroke="black" points="176,-114.5 176,-133.5 283,-133.5 283,-114.5 176,-114.5"/>
<text text-anchor="middle" x="229.5" y="-121.5" font-family="Helvetica,sans-Serif" font-size="10.00">Goban::legalEvenKO</text>
</a>
</g>
</g>
<!-- Node140&#45;&gt;Node141 -->
<g id="edge1" class="edge"><title>Node140&#45;&gt;Node141</title>
<path fill="none" stroke="midnightblue" d="M107.102,-80.0655C136.052,-90.5428 176.014,-105.005 202.052,-114.428"/>
<polygon fill="midnightblue" stroke="midnightblue" points="107.956,-76.6525 97.362,-76.5405 105.574,-83.2347 107.956,-76.6525"/>
</g>
<!-- Node142 -->
<g id="node3" class="node"><title>Node142</title>
<g id="a_node3"><a xlink:href="class_goban.html#a8b95ea2b51c078381562e361ff7febac" target="_top" xlink:title="Goban::isSuicide">
<polygon fill="none" stroke="black" points="184,-76.5 184,-95.5 275,-95.5 275,-76.5 184,-76.5"/>
<text text-anchor="middle" x="229.5" y="-83.5" font-family="Helvetica,sans-Serif" font-size="10.00">Goban::isSuicide</text>
</a>
</g>
</g>
<!-- Node140&#45;&gt;Node142 -->
<g id="edge2" class="edge"><title>Node140&#45;&gt;Node142</title>
<path fill="none" stroke="midnightblue" d="M150.241,-76.5592C161.825,-77.9567 173.396,-79.3525 183.949,-80.6256"/>
<polygon fill="midnightblue" stroke="midnightblue" points="150.429,-73.0566 140.082,-75.3337 149.591,-80.0062 150.429,-73.0566"/>
</g>
<!-- Node143 -->
<g id="node4" class="node"><title>Node143</title>
<g id="a_node4"><a xlink:href="class_goban.html#a36ab256c9430e070b620052a0f13f051" target="_top" xlink:title="Goban::listFils">
<polygon fill="none" stroke="black" points="189.5,-38.5 189.5,-57.5 269.5,-57.5 269.5,-38.5 189.5,-38.5"/>
<text text-anchor="middle" x="229.5" y="-45.5" font-family="Helvetica,sans-Serif" font-size="10.00">Goban::listFils</text>
</a>
</g>
</g>
<!-- Node140&#45;&gt;Node143 -->
<g id="edge3" class="edge"><title>Node140&#45;&gt;Node143</title>
<path fill="none" stroke="midnightblue" d="M150.404,-57.4211C163.931,-55.7892 177.432,-54.1605 189.311,-52.7275"/>
<polygon fill="midnightblue" stroke="midnightblue" points="149.591,-53.9938 140.082,-58.6663 150.429,-60.9434 149.591,-53.9938"/>
</g>
<!-- Node146 -->
<g id="node7" class="node"><title>Node146</title>
<g id="a_node7"><a xlink:href="class_board.html#a5fda73da080403d8a71a8593d581c350" target="_top" xlink:title="Board::click">
<polygon fill="none" stroke="black" points="195.5,-0.5 195.5,-19.5 263.5,-19.5 263.5,-0.5 195.5,-0.5"/>
<text text-anchor="middle" x="229.5" y="-7.5" font-family="Helvetica,sans-Serif" font-size="10.00">Board::click</text>
</a>
</g>
</g>
<!-- Node140&#45;&gt;Node146 -->
<g id="edge6" class="edge"><title>Node140&#45;&gt;Node146</title>
<path fill="none" stroke="midnightblue" d="M107.102,-53.9345C136.052,-43.4572 176.014,-28.9949 202.052,-19.5716"/>
<polygon fill="midnightblue" stroke="midnightblue" points="105.574,-50.7653 97.362,-57.4595 107.956,-57.3475 105.574,-50.7653"/>
</g>
<!-- Node144 -->
<g id="node5" class="node"><title>Node144</title>
<g id="a_node5"><a xlink:href="class_arbre.html#ac82e543d8cbf0aced4d741c346f9950d" target="_top" xlink:title="Arbre::Arbre">
<polygon fill="none" stroke="black" points="337.5,-76.5 337.5,-95.5 406.5,-95.5 406.5,-76.5 337.5,-76.5"/>
<text text-anchor="middle" x="372" y="-83.5" font-family="Helvetica,sans-Serif" font-size="10.00">Arbre::Arbre</text>
</a>
</g>
</g>
<!-- Node143&#45;&gt;Node144 -->
<g id="edge4" class="edge"><title>Node143&#45;&gt;Node144</title>
<path fill="none" stroke="midnightblue" d="M275.813,-60.2556C295.866,-65.6791 319.034,-71.9451 337.492,-76.9373"/>
<polygon fill="midnightblue" stroke="midnightblue" points="276.521,-56.8213 265.954,-57.589 274.693,-63.5785 276.521,-56.8213"/>
</g>
<!-- Node145 -->
<g id="node6" class="node"><title>Node145</title>
<g id="a_node6"><a xlink:href="class_arbre.html#a70585b1d341c1e0c262b2b4a4f769b6d" target="_top" xlink:title="Arbre::resetFils">
<polygon fill="none" stroke="black" points="330.5,-38.5 330.5,-57.5 413.5,-57.5 413.5,-38.5 330.5,-38.5"/>
<text text-anchor="middle" x="372" y="-45.5" font-family="Helvetica,sans-Serif" font-size="10.00">Arbre::resetFils</text>
</a>
</g>
</g>
<!-- Node143&#45;&gt;Node145 -->
<g id="edge5" class="edge"><title>Node143&#45;&gt;Node145</title>
<path fill="none" stroke="midnightblue" d="M279.645,-48C296.132,-48 314.329,-48 330.114,-48"/>
<polygon fill="midnightblue" stroke="midnightblue" points="279.637,-44.5001 269.637,-48 279.637,-51.5001 279.637,-44.5001"/>
</g>
<!-- Node147 -->
<g id="node8" class="node"><title>Node147</title>
<g id="a_node8"><a xlink:href="class_game__window.html#afa942088809bf10731bb31d0d37b878d" target="_top" xlink:title="Game_window::click">
<polygon fill="none" stroke="black" points="319,-0.5 319,-19.5 425,-19.5 425,-0.5 319,-0.5"/>
<text text-anchor="middle" x="372" y="-7.5" font-family="Helvetica,sans-Serif" font-size="10.00">Game_window::click</text>
</a>
</g>
</g>
<!-- Node146&#45;&gt;Node147 -->
<g id="edge7" class="edge"><title>Node146&#45;&gt;Node147</title>
<path fill="none" stroke="midnightblue" d="M273.841,-10C288.116,-10 304.137,-10 318.99,-10"/>
<polygon fill="midnightblue" stroke="midnightblue" points="273.797,-6.5001 263.797,-10 273.797,-13.5001 273.797,-6.5001"/>
</g>
<!-- Node148 -->
<g id="node9" class="node"><title>Node148</title>
<g id="a_node9"><a xlink:href="class_game__window.html#a555769f4e8511e45d6623658dc736be5" target="_top" xlink:title="Game_window::Run">
<polygon fill="none" stroke="black" points="461,-0.5 461,-19.5 564,-19.5 564,-0.5 461,-0.5"/>
<text text-anchor="middle" x="512.5" y="-7.5" font-family="Helvetica,sans-Serif" font-size="10.00">Game_window::Run</text>
</a>
</g>
</g>
<!-- Node147&#45;&gt;Node148 -->
<g id="edge8" class="edge"><title>Node147&#45;&gt;Node148</title>
<path fill="none" stroke="midnightblue" d="M435.594,-10C444.066,-10 452.672,-10 460.898,-10"/>
<polygon fill="midnightblue" stroke="midnightblue" points="435.361,-6.5001 425.361,-10 435.361,-13.5001 435.361,-6.5001"/>
</g>
</g>
</svg>
