<?xml version="1.0" encoding="UTF-8" standalone="no"?>
<!DOCTYPE svg PUBLIC "-//W3C//DTD SVG 1.1//EN"
 "http://www.w3.org/Graphics/SVG/1.1/DTD/svg11.dtd">
<!-- Generated by graphviz version 2.38.0 (20140413.2041)
 -->
<!-- Title: Arbre::Arbre Pages: 1 -->
<svg width="962pt" height="332pt"
 viewBox="0.00 0.00 962.00 332.00" xmlns="http://www.w3.org/2000/svg" xmlns:xlink="http://www.w3.org/1999/xlink">
<g id="graph0" class="graph" transform="scale(1 1) rotate(0) translate(4 328)">
<title>Arbre::Arbre</title>
<!-- Node18 -->
<g id="node1" class="node"><title>Node18</title>
<polygon fill="#bfbfbf" stroke="black" points="0,-200.5 0,-219.5 69,-219.5 69,-200.5 0,-200.5"/>
<text text-anchor="middle" x="34.5" y="-207.5" font-family="Helvetica,sans-Serif" font-size="10.00">Arbre::Arbre</text>
</g>
<!-- Node19 -->
<g id="node2" class="node"><title>Node19</title>
<g id="a_node2"><a xlink:href="class_goban.html#a36ab256c9430e070b620052a0f13f051" target="_top" xlink:title="Goban::listFils">
<polygon fill="none" stroke="black" points="105,-200.5 105,-219.5 185,-219.5 185,-200.5 105,-200.5"/>
<text text-anchor="middle" x="145" y="-207.5" font-family="Helvetica,sans-Serif" font-size="10.00">Goban::listFils</text>
</a>
</g>
</g>
<!-- Node18&#45;&gt;Node19 -->
<g id="edge1" class="edge"><title>Node18&#45;&gt;Node19</title>
<path fill="none" stroke="midnightblue" d="M69.2353,-210C77.3729,-210 86.2327,-210 94.9144,-210"/>
<polygon fill="midnightblue" stroke="midnightblue" points="94.9704,-213.5 104.97,-210 94.9703,-206.5 94.9704,-213.5"/>
</g>
<!-- Node20 -->
<g id="node3" class="node"><title>Node20</title>
<g id="a_node3"><a xlink:href="class_goban.html#aa2aaa3b4db4549d169bd0ff234d601cb" target="_top" xlink:title="Goban::itoc">
<polygon fill="none" stroke="black" points="257.5,-257.5 257.5,-276.5 324.5,-276.5 324.5,-257.5 257.5,-257.5"/>
<text text-anchor="middle" x="291" y="-264.5" font-family="Helvetica,sans-Serif" font-size="10.00">Goban::itoc</text>
</a>
</g>
</g>
<!-- Node19&#45;&gt;Node20 -->
<g id="edge2" class="edge"><title>Node19&#45;&gt;Node20</title>
<path fill="none" stroke="midnightblue" d="M166.506,-219.552C181.477,-226.395 202.333,-235.66 221,-243 230.738,-246.829 241.365,-250.682 251.298,-254.147"/>
<polygon fill="midnightblue" stroke="midnightblue" points="250.345,-257.521 260.94,-257.467 252.624,-250.902 250.345,-257.521"/>
</g>
<!-- Node21 -->
<g id="node4" class="node"><title>Node21</title>
<g id="a_node4"><a xlink:href="class_goban.html#a7dd1a7b53322bde2a831a923059e43a3" target="_top" xlink:title="Goban::move">
<polygon fill="none" stroke="black" points="421,-228.5 421,-247.5 495,-247.5 495,-228.5 421,-228.5"/>
<text text-anchor="middle" x="458" y="-235.5" font-family="Helvetica,sans-Serif" font-size="10.00">Goban::move</text>
</a>
</g>
</g>
<!-- Node19&#45;&gt;Node21 -->
<g id="edge3" class="edge"><title>Node19&#45;&gt;Node21</title>
<path fill="none" stroke="midnightblue" d="M185.073,-213.518C242.443,-218.683 349.283,-228.302 410.575,-233.82"/>
<polygon fill="midnightblue" stroke="midnightblue" points="410.464,-237.324 420.737,-234.735 411.091,-230.352 410.464,-237.324"/>
</g>
<!-- Node26 -->
<g id="node9" class="node"><title>Node26</title>
<g id="a_node9"><a xlink:href="class_goban.html#a8584a53688e7bcf9de7c4cf48454acdc" target="_top" xlink:title="Goban::rechercheGroupes">
<polygon fill="none" stroke="black" points="225.5,-181.5 225.5,-200.5 356.5,-200.5 356.5,-181.5 225.5,-181.5"/>
<text text-anchor="middle" x="291" y="-188.5" font-family="Helvetica,sans-Serif" font-size="10.00">Goban::rechercheGroupes</text>
</a>
</g>
</g>
<!-- Node19&#45;&gt;Node26 -->
<g id="edge9" class="edge"><title>Node19&#45;&gt;Node26</title>
<path fill="none" stroke="midnightblue" d="M185.349,-204.808C194.751,-203.568 205.097,-202.203 215.511,-200.828"/>
<polygon fill="midnightblue" stroke="midnightblue" points="216.033,-204.29 225.489,-199.512 215.117,-197.35 216.033,-204.29"/>
</g>
<!-- Node27 -->
<g id="node10" class="node"><title>Node27</title>
<g id="a_node10"><a xlink:href="class_goban.html#a7858b815885e4af36f05f9d26182cb07" target="_top" xlink:title="Goban::eliminateOppGroups">
<polygon fill="none" stroke="black" points="221,-124.5 221,-143.5 361,-143.5 361,-124.5 221,-124.5"/>
<text text-anchor="middle" x="291" y="-131.5" font-family="Helvetica,sans-Serif" font-size="10.00">Goban::eliminateOppGroups</text>
</a>
</g>
</g>
<!-- Node19&#45;&gt;Node27 -->
<g id="edge10" class="edge"><title>Node19&#45;&gt;Node27</title>
<path fill="none" stroke="midnightblue" d="M164.238,-200.375C189.124,-187.24 233.918,-163.599 262.784,-148.364"/>
<polygon fill="midnightblue" stroke="midnightblue" points="264.7,-151.31 271.91,-143.547 261.433,-145.12 264.7,-151.31"/>
</g>
<!-- Node22 -->
<g id="node5" class="node"><title>Node22</title>
<g id="a_node5"><a xlink:href="class_goban.html#a6c4b62a9469b3876d250ab94bcd562e5" target="_top" xlink:title="Goban::eliminateOppositeKO">
<polygon fill="none" stroke="black" points="707,-304.5 707,-323.5 850,-323.5 850,-304.5 707,-304.5"/>
<text text-anchor="middle" x="778.5" y="-311.5" font-family="Helvetica,sans-Serif" font-size="10.00">Goban::eliminateOppositeKO</text>
</a>
</g>
</g>
<!-- Node21&#45;&gt;Node22 -->
<g id="edge4" class="edge"><title>Node21&#45;&gt;Node22</title>
<path fill="none" stroke="midnightblue" d="M472.547,-247.569C490.478,-259.694 523.511,-280.192 555,-290 600.675,-304.226 653.885,-310.319 696.815,-312.812"/>
<polygon fill="midnightblue" stroke="midnightblue" points="696.763,-316.314 706.933,-313.345 697.131,-309.324 696.763,-316.314"/>
</g>
<!-- Node23 -->
<g id="node6" class="node"><title>Node23</title>
<g id="a_node6"><a xlink:href="class_etat.html#aa88987ca54aee676717f05e4570c0aec" target="_top" xlink:title="Etat::setVal">
<polygon fill="none" stroke="black" points="886,-209.5 886,-228.5 954,-228.5 954,-209.5 886,-209.5"/>
<text text-anchor="middle" x="920" y="-216.5" font-family="Helvetica,sans-Serif" font-size="10.00">Etat::setVal</text>
</a>
</g>
</g>
<!-- Node21&#45;&gt;Node23 -->
<g id="edge7" class="edge"><title>Node21&#45;&gt;Node23</title>
<path fill="none" stroke="midnightblue" d="M495.22,-246.906C513.092,-250.855 535.047,-255.044 555,-257 671.084,-268.377 807.859,-243.897 875.958,-229.135"/>
<polygon fill="midnightblue" stroke="midnightblue" points="876.878,-232.516 885.89,-226.945 875.371,-225.68 876.878,-232.516"/>
</g>
<!-- Node24 -->
<g id="node7" class="node"><title>Node24</title>
<g id="a_node7"><a xlink:href="class_goban.html#a29aaf8df380fe614845d48cba057747c" target="_top" xlink:title="Goban::coord">
<polygon fill="none" stroke="black" points="575.5,-190.5 575.5,-209.5 650.5,-209.5 650.5,-190.5 575.5,-190.5"/>
<text text-anchor="middle" x="613" y="-197.5" font-family="Helvetica,sans-Serif" font-size="10.00">Goban::coord</text>
</a>
</g>
</g>
<!-- Node21&#45;&gt;Node24 -->
<g id="edge6" class="edge"><title>Node21&#45;&gt;Node24</title>
<path fill="none" stroke="midnightblue" d="M495.259,-228.995C516.35,-223.756 543.147,-217.101 565.746,-211.488"/>
<polygon fill="midnightblue" stroke="midnightblue" points="566.61,-214.88 575.471,-209.073 564.922,-208.086 566.61,-214.88"/>
</g>
<!-- Node25 -->
<g id="node8" class="node"><title>Node25</title>
<g id="a_node8"><a xlink:href="class_history.html#a90222df7f73ae9cfda56bdb66cb1985e" target="_top" xlink:title="Add new state in history. ">
<polygon fill="none" stroke="black" points="578.5,-228.5 578.5,-247.5 647.5,-247.5 647.5,-228.5 578.5,-228.5"/>
<text text-anchor="middle" x="613" y="-235.5" font-family="Helvetica,sans-Serif" font-size="10.00">History::add</text>
</a>
</g>
</g>
<!-- Node21&#45;&gt;Node25 -->
<g id="edge8" class="edge"><title>Node21&#45;&gt;Node25</title>
<path fill="none" stroke="midnightblue" d="M495.259,-238C517.099,-238 545.056,-238 568.135,-238"/>
<polygon fill="midnightblue" stroke="midnightblue" points="568.357,-241.5 578.357,-238 568.357,-234.5 568.357,-241.5"/>
</g>
<!-- Node22&#45;&gt;Node23 -->
<g id="edge5" class="edge"><title>Node22&#45;&gt;Node23</title>
<path fill="none" stroke="midnightblue" d="M818.311,-304.415C829.048,-300.818 840.384,-296.081 850,-290 872.553,-275.737 893.129,-252.662 905.83,-236.708"/>
<polygon fill="midnightblue" stroke="midnightblue" points="908.691,-238.73 912.039,-228.678 903.153,-234.448 908.691,-238.73"/>
</g>
<!-- Node28 -->
<g id="node11" class="node"><title>Node28</title>
<g id="a_node11"><a xlink:href="class_goban.html#a1ec70508987f66afff5f8df381731fac" target="_top" xlink:title="Goban::eliminateGroups">
<polygon fill="none" stroke="black" points="397,-119.5 397,-138.5 519,-138.5 519,-119.5 397,-119.5"/>
<text text-anchor="middle" x="458" y="-126.5" font-family="Helvetica,sans-Serif" font-size="10.00">Goban::eliminateGroups</text>
</a>
</g>
</g>
<!-- Node27&#45;&gt;Node28 -->
<g id="edge11" class="edge"><title>Node27&#45;&gt;Node28</title>
<path fill="none" stroke="midnightblue" d="M361.019,-131.909C369.494,-131.652 378.165,-131.389 386.66,-131.132"/>
<polygon fill="midnightblue" stroke="midnightblue" points="387.02,-134.622 396.91,-130.821 386.808,-127.626 387.02,-134.622"/>
</g>
<!-- Node28&#45;&gt;Node23 -->
<g id="edge21" class="edge"><title>Node28&#45;&gt;Node23</title>
<path fill="none" stroke="midnightblue" d="M507.793,-138.546C598.113,-156.218 789.966,-193.754 875.855,-210.559"/>
<polygon fill="midnightblue" stroke="midnightblue" points="875.304,-214.017 885.79,-212.502 876.648,-207.147 875.304,-214.017"/>
</g>
<!-- Node28&#45;&gt;Node24 -->
<g id="edge20" class="edge"><title>Node28&#45;&gt;Node24</title>
<path fill="none" stroke="midnightblue" d="M477.614,-138.503C496.846,-148.229 527.805,-163.63 555,-176 562.782,-179.54 571.238,-183.2 579.195,-186.562"/>
<polygon fill="midnightblue" stroke="midnightblue" points="577.999,-189.856 588.575,-190.488 580.701,-183.398 577.999,-189.856"/>
</g>
<!-- Node29 -->
<g id="node12" class="node"><title>Node29</title>
<g id="a_node12"><a xlink:href="class_goban.html#a84f36324eb9ddc29f522d481f04c13e7" target="_top" xlink:title="Goban::listOfLiberties">
<polygon fill="none" stroke="black" points="558,-114.5 558,-133.5 668,-133.5 668,-114.5 558,-114.5"/>
<text text-anchor="middle" x="613" y="-121.5" font-family="Helvetica,sans-Serif" font-size="10.00">Goban::listOfLiberties</text>
</a>
</g>
</g>
<!-- Node28&#45;&gt;Node29 -->
<g id="edge12" class="edge"><title>Node28&#45;&gt;Node29</title>
<path fill="none" stroke="midnightblue" d="M519.031,-127.038C528.376,-126.733 538.065,-126.416 547.504,-126.108"/>
<polygon fill="midnightblue" stroke="midnightblue" points="547.74,-129.602 557.62,-125.777 547.511,-122.606 547.74,-129.602"/>
</g>
<!-- Node36 -->
<g id="node19" class="node"><title>Node36</title>
<g id="a_node19"><a xlink:href="class_goban.html#a1d3ccccfb3f539e0271ee321686d9ef4" target="_top" xlink:title="Goban::setScoreWhite">
<polygon fill="none" stroke="black" points="555,-76.5 555,-95.5 671,-95.5 671,-76.5 555,-76.5"/>
<text text-anchor="middle" x="613" y="-83.5" font-family="Helvetica,sans-Serif" font-size="10.00">Goban::setScoreWhite</text>
</a>
</g>
</g>
<!-- Node28&#45;&gt;Node36 -->
<g id="edge22" class="edge"><title>Node28&#45;&gt;Node36</title>
<path fill="none" stroke="midnightblue" d="M492.956,-119.457C515.141,-113.222 544.326,-105.019 568.246,-98.2969"/>
<polygon fill="midnightblue" stroke="midnightblue" points="569.459,-101.592 578.139,-95.5164 567.565,-94.8527 569.459,-101.592"/>
</g>
<!-- Node37 -->
<g id="node20" class="node"><title>Node37</title>
<g id="a_node20"><a xlink:href="class_goban.html#a868b44b0c3ebec7ca88082ebe85a2960" target="_top" xlink:title="Goban::setScoreBlack">
<polygon fill="none" stroke="black" points="555.5,-38.5 555.5,-57.5 670.5,-57.5 670.5,-38.5 555.5,-38.5"/>
<text text-anchor="middle" x="613" y="-45.5" font-family="Helvetica,sans-Serif" font-size="10.00">Goban::setScoreBlack</text>
</a>
</g>
</g>
<!-- Node28&#45;&gt;Node37 -->
<g id="edge23" class="edge"><title>Node28&#45;&gt;Node37</title>
<path fill="none" stroke="midnightblue" d="M471.439,-119.497C489.187,-106.289 523.163,-82.2847 555,-67 559.411,-64.8824 564.119,-62.9029 568.867,-61.082"/>
<polygon fill="midnightblue" stroke="midnightblue" points="570.37,-64.2607 578.588,-57.5738 567.994,-57.6764 570.37,-64.2607"/>
</g>
<!-- Node30 -->
<g id="node13" class="node"><title>Node30</title>
<g id="a_node13"><a xlink:href="class_etat.html#aa25e66b110bc835523819392435e78c6" target="_top" xlink:title="Etat::getX">
<polygon fill="none" stroke="black" points="749,-114.5 749,-133.5 808,-133.5 808,-114.5 749,-114.5"/>
<text text-anchor="middle" x="778.5" y="-121.5" font-family="Helvetica,sans-Serif" font-size="10.00">Etat::getX</text>
</a>
</g>
</g>
<!-- Node29&#45;&gt;Node30 -->
<g id="edge13" class="edge"><title>Node29&#45;&gt;Node30</title>
<path fill="none" stroke="midnightblue" d="M668.443,-124C691.489,-124 717.806,-124 738.813,-124"/>
<polygon fill="midnightblue" stroke="midnightblue" points="738.965,-127.5 748.965,-124 738.965,-120.5 738.965,-127.5"/>
</g>
<!-- Node31 -->
<g id="node14" class="node"><title>Node31</title>
<g id="a_node14"><a xlink:href="class_etat.html#a3e3e915f2261c83989a983e84b1273c1" target="_top" xlink:title="Etat::getY">
<polygon fill="none" stroke="black" points="748,-76.5 748,-95.5 809,-95.5 809,-76.5 748,-76.5"/>
<text text-anchor="middle" x="778.5" y="-83.5" font-family="Helvetica,sans-Serif" font-size="10.00">Etat::getY</text>
</a>
</g>
</g>
<!-- Node29&#45;&gt;Node31 -->
<g id="edge14" class="edge"><title>Node29&#45;&gt;Node31</title>
<path fill="none" stroke="midnightblue" d="M655.258,-114.411C680.617,-108.517 712.931,-101.007 737.966,-95.1884"/>
<polygon fill="midnightblue" stroke="midnightblue" points="738.914,-98.5614 747.862,-92.8884 737.329,-91.7432 738.914,-98.5614"/>
</g>
<!-- Node32 -->
<g id="node15" class="node"><title>Node32</title>
<g id="a_node15"><a xlink:href="class_goban.html#a0e2596110cdbb9b007b2b2fd8d5a9973" target="_top" xlink:title="Goban::DefineStone">
<polygon fill="none" stroke="black" points="726.5,-38.5 726.5,-57.5 830.5,-57.5 830.5,-38.5 726.5,-38.5"/>
<text text-anchor="middle" x="778.5" y="-45.5" font-family="Helvetica,sans-Serif" font-size="10.00">Goban::DefineStone</text>
</a>
</g>
</g>
<!-- Node29&#45;&gt;Node32 -->
<g id="edge15" class="edge"><title>Node29&#45;&gt;Node32</title>
<path fill="none" stroke="midnightblue" d="M651.392,-114.474C658.191,-111.937 665.017,-108.81 671,-105 690.623,-92.5029 687.02,-78.9178 707,-67 710.674,-64.8084 714.605,-62.8643 718.661,-61.1408"/>
<polygon fill="midnightblue" stroke="midnightblue" points="720.17,-64.3123 728.29,-57.5064 717.698,-57.7633 720.17,-64.3123"/>
</g>
<!-- Node32&#45;&gt;Node23 -->
<g id="edge18" class="edge"><title>Node32&#45;&gt;Node23</title>
<path fill="none" stroke="midnightblue" d="M830.725,-55.9761C837.712,-58.6637 844.395,-62.2413 850,-67 891.302,-102.068 909.078,-166.983 915.663,-199.448"/>
<polygon fill="midnightblue" stroke="midnightblue" points="912.26,-200.293 917.546,-209.475 919.14,-199.001 912.26,-200.293"/>
</g>
<!-- Node33 -->
<g id="node16" class="node"><title>Node33</title>
<g id="a_node16"><a xlink:href="class_etat.html#ac020c4fe222274ac849a03fc8f19a99a" target="_top" xlink:title="Etat::setX">
<polygon fill="none" stroke="black" points="890.5,-76.5 890.5,-95.5 949.5,-95.5 949.5,-76.5 890.5,-76.5"/>
<text text-anchor="middle" x="920" y="-83.5" font-family="Helvetica,sans-Serif" font-size="10.00">Etat::setX</text>
</a>
</g>
</g>
<!-- Node32&#45;&gt;Node33 -->
<g id="edge16" class="edge"><title>Node32&#45;&gt;Node33</title>
<path fill="none" stroke="midnightblue" d="M815.014,-57.5306C826.211,-60.5465 838.626,-63.9013 850,-67 859.98,-69.7189 870.766,-72.6787 880.779,-75.4353"/>
<polygon fill="midnightblue" stroke="midnightblue" points="879.904,-78.8247 890.474,-78.1076 881.764,-72.0763 879.904,-78.8247"/>
</g>
<!-- Node34 -->
<g id="node17" class="node"><title>Node34</title>
<g id="a_node17"><a xlink:href="class_etat.html#a8a54fc9ecb1b97d84d2f1f259e3bf70e" target="_top" xlink:title="Etat::setY">
<polygon fill="none" stroke="black" points="889.5,-38.5 889.5,-57.5 950.5,-57.5 950.5,-38.5 889.5,-38.5"/>
<text text-anchor="middle" x="920" y="-45.5" font-family="Helvetica,sans-Serif" font-size="10.00">Etat::setY</text>
</a>
</g>
</g>
<!-- Node32&#45;&gt;Node34 -->
<g id="edge17" class="edge"><title>Node32&#45;&gt;Node34</title>
<path fill="none" stroke="midnightblue" d="M830.653,-48C846.7,-48 864.165,-48 879.297,-48"/>
<polygon fill="midnightblue" stroke="midnightblue" points="879.354,-51.5001 889.354,-48 879.354,-44.5001 879.354,-51.5001"/>
</g>
<!-- Node35 -->
<g id="node18" class="node"><title>Node35</title>
<g id="a_node18"><a xlink:href="class_goban.html#a579840586df08a58983f6b497979344b" target="_top" xlink:title="Goban::ctoi">
<polygon fill="none" stroke="black" points="886.5,-0.5 886.5,-19.5 953.5,-19.5 953.5,-0.5 886.5,-0.5"/>
<text text-anchor="middle" x="920" y="-7.5" font-family="Helvetica,sans-Serif" font-size="10.00">Goban::ctoi</text>
</a>
</g>
</g>
<!-- Node32&#45;&gt;Node35 -->
<g id="edge19" class="edge"><title>Node32&#45;&gt;Node35</title>
<path fill="none" stroke="midnightblue" d="M814.702,-38.411C833.483,-33.295 856.735,-26.961 876.515,-21.5729"/>
<polygon fill="midnightblue" stroke="midnightblue" points="877.477,-24.9386 886.205,-18.9333 875.637,-18.1847 877.477,-24.9386"/>
</g>
</g>
</svg>
