<?xml version="1.0" encoding="UTF-8" standalone="no"?>
<!DOCTYPE svg PUBLIC "-//W3C//DTD SVG 1.1//EN"
 "http://www.w3.org/Graphics/SVG/1.1/DTD/svg11.dtd">
<!-- Generated by graphviz version 2.38.0 (20140413.2041)
 -->
<!-- Title: Go_Solver::loadMenu2 Pages: 1 -->
<svg width="287pt" height="78pt"
 viewBox="0.00 0.00 287.00 77.50" xmlns="http://www.w3.org/2000/svg" xmlns:xlink="http://www.w3.org/1999/xlink">
<g id="graph0" class="graph" transform="scale(1 1) rotate(0) translate(4 73.5)">
<title>Go_Solver::loadMenu2</title>
<!-- Node80 -->
<g id="node1" class="node"><title>Node80</title>
<polygon fill="#bfbfbf" stroke="black" points="0,-28 0,-47 114,-47 114,-28 0,-28"/>
<text text-anchor="middle" x="57" y="-35" font-family="Helvetica,sans-Serif" font-size="10.00">Go_Solver::loadMenu2</text>
</g>
<!-- Node81 -->
<g id="node2" class="node"><title>Node81</title>
<g id="a_node2"><a xlink:href="class_menu.html#aa8032782ee75fba5fa17bf7a20635c68" target="_top" xlink:title="Menu::addItem">
<polygon fill="none" stroke="black" points="174,-50 174,-69 255,-69 255,-50 174,-50"/>
<text text-anchor="middle" x="214.5" y="-57" font-family="Helvetica,sans-Serif" font-size="10.00">Menu::addItem</text>
</a>
</g>
</g>
<!-- Node80&#45;&gt;Node81 -->
<g id="edge1" class="edge"><title>Node80&#45;&gt;Node81</title>
<path fill="none" stroke="midnightblue" d="M114.139,-45.4425C130.267,-47.7243 147.743,-50.1967 163.475,-52.4226"/>
<polygon fill="midnightblue" stroke="midnightblue" points="163.139,-55.9097 173.531,-53.8452 164.12,-48.9788 163.139,-55.9097"/>
</g>
<!-- Node82 -->
<g id="node3" class="node"><title>Node82</title>
<g id="a_node3"><a xlink:href="class_menu___miniature.html#afad04c066c7e436bbf9cccde310d07dc" target="_top" xlink:title="Menu_Miniature::setItems\lTextures">
<polygon fill="none" stroke="black" points="150,-0.5 150,-30.5 279,-30.5 279,-0.5 150,-0.5"/>
<text text-anchor="start" x="158" y="-18.5" font-family="Helvetica,sans-Serif" font-size="10.00">Menu_Miniature::setItems</text>
<text text-anchor="middle" x="214.5" y="-7.5" font-family="Helvetica,sans-Serif" font-size="10.00">Textures</text>
</a>
</g>
</g>
<!-- Node80&#45;&gt;Node82 -->
<g id="edge2" class="edge"><title>Node80&#45;&gt;Node82</title>
<path fill="none" stroke="midnightblue" d="M114.139,-29.5575C122.455,-28.3809 131.13,-27.1537 139.739,-25.9357"/>
<polygon fill="midnightblue" stroke="midnightblue" points="140.378,-29.3801 149.79,-24.5137 139.398,-22.4491 140.378,-29.3801"/>
</g>
</g>
</svg>
