<?xml version="1.0" encoding="UTF-8" standalone="no"?>
<!DOCTYPE svg PUBLIC "-//W3C//DTD SVG 1.1//EN"
 "http://www.w3.org/Graphics/SVG/1.1/DTD/svg11.dtd">
<!-- Generated by graphviz version 2.38.0 (20140413.2041)
 -->
<!-- Title: Board::getVolume Pages: 1 -->
<svg width="632pt" height="66pt"
 viewBox="0.00 0.00 632.00 66.00" xmlns="http://www.w3.org/2000/svg" xmlns:xlink="http://www.w3.org/1999/xlink">
<g id="graph0" class="graph" transform="scale(1 1) rotate(0) translate(4 62)">
<title>Board::getVolume</title>
<!-- Node64 -->
<g id="node1" class="node"><title>Node64</title>
<polygon fill="#bfbfbf" stroke="black" points="0,-19.5 0,-38.5 95,-38.5 95,-19.5 0,-19.5"/>
<text text-anchor="middle" x="47.5" y="-26.5" font-family="Helvetica,sans-Serif" font-size="10.00">Board::getVolume</text>
</g>
<!-- Node65 -->
<g id="node2" class="node"><title>Node65</title>
<g id="a_node2"><a xlink:href="class_board.html#a77d145afa8d71a85c4097aca08c30525" target="_top" xlink:title="Board::turnSoundsUp">
<polygon fill="none" stroke="black" points="137,-38.5 137,-57.5 247,-57.5 247,-38.5 137,-38.5"/>
<text text-anchor="middle" x="192" y="-45.5" font-family="Helvetica,sans-Serif" font-size="10.00">Board::turnSoundsUp</text>
</a>
</g>
</g>
<!-- Node64&#45;&gt;Node65 -->
<g id="edge1" class="edge"><title>Node64&#45;&gt;Node65</title>
<path fill="none" stroke="midnightblue" d="M105.354,-36.5805C115.724,-37.9632 126.519,-39.4025 136.809,-40.7746"/>
<polygon fill="midnightblue" stroke="midnightblue" points="105.535,-33.0737 95.1598,-35.2213 104.61,-40.0123 105.535,-33.0737"/>
</g>
<!-- Node68 -->
<g id="node5" class="node"><title>Node68</title>
<g id="a_node5"><a xlink:href="class_board.html#a648552cb139f9c0cc61f6372251739b2" target="_top" xlink:title="Board::turnSoundsDown">
<polygon fill="none" stroke="black" points="131,-0.5 131,-19.5 253,-19.5 253,-0.5 131,-0.5"/>
<text text-anchor="middle" x="192" y="-7.5" font-family="Helvetica,sans-Serif" font-size="10.00">Board::turnSoundsDown</text>
</a>
</g>
</g>
<!-- Node64&#45;&gt;Node68 -->
<g id="edge4" class="edge"><title>Node64&#45;&gt;Node68</title>
<path fill="none" stroke="midnightblue" d="M105.293,-21.4276C113.743,-20.3009 122.476,-19.1365 130.99,-18.0014"/>
<polygon fill="midnightblue" stroke="midnightblue" points="104.61,-17.9877 95.1598,-22.7787 105.535,-24.9263 104.61,-17.9877"/>
</g>
<!-- Node66 -->
<g id="node3" class="node"><title>Node66</title>
<g id="a_node3"><a xlink:href="class_game__window.html#a1ba4f62d58089e3de5da00538889cb25" target="_top" xlink:title="Game_window::turnSoundsUp">
<polygon fill="none" stroke="black" points="295,-38.5 295,-57.5 442,-57.5 442,-38.5 295,-38.5"/>
<text text-anchor="middle" x="368.5" y="-45.5" font-family="Helvetica,sans-Serif" font-size="10.00">Game_window::turnSoundsUp</text>
</a>
</g>
</g>
<!-- Node65&#45;&gt;Node66 -->
<g id="edge2" class="edge"><title>Node65&#45;&gt;Node66</title>
<path fill="none" stroke="midnightblue" d="M257.369,-48C269.618,-48 282.513,-48 294.995,-48"/>
<polygon fill="midnightblue" stroke="midnightblue" points="257.256,-44.5001 247.256,-48 257.256,-51.5001 257.256,-44.5001"/>
</g>
<!-- Node67 -->
<g id="node4" class="node"><title>Node67</title>
<g id="a_node4"><a xlink:href="class_go___solver.html#a461b1fecf636b55d6b9f31b0035366c3" target="_top" xlink:title="Go_Solver::turnSoundsUp">
<polygon fill="none" stroke="black" points="490,-38.5 490,-57.5 618,-57.5 618,-38.5 490,-38.5"/>
<text text-anchor="middle" x="554" y="-45.5" font-family="Helvetica,sans-Serif" font-size="10.00">Go_Solver::turnSoundsUp</text>
</a>
</g>
</g>
<!-- Node66&#45;&gt;Node67 -->
<g id="edge3" class="edge"><title>Node66&#45;&gt;Node67</title>
<path fill="none" stroke="midnightblue" d="M452.128,-48C464.814,-48 477.734,-48 489.906,-48"/>
<polygon fill="midnightblue" stroke="midnightblue" points="452.024,-44.5001 442.024,-48 452.024,-51.5001 452.024,-44.5001"/>
</g>
<!-- Node69 -->
<g id="node6" class="node"><title>Node69</title>
<g id="a_node6"><a xlink:href="class_game__window.html#aa934e0cb8983cf30af634deff8581848" target="_top" xlink:title="Game_window::turnSoundsDown">
<polygon fill="none" stroke="black" points="289,-0.5 289,-19.5 448,-19.5 448,-0.5 289,-0.5"/>
<text text-anchor="middle" x="368.5" y="-7.5" font-family="Helvetica,sans-Serif" font-size="10.00">Game_window::turnSoundsDown</text>
</a>
</g>
</g>
<!-- Node68&#45;&gt;Node69 -->
<g id="edge5" class="edge"><title>Node68&#45;&gt;Node69</title>
<path fill="none" stroke="midnightblue" d="M263.21,-10C271.645,-10 280.301,-10 288.847,-10"/>
<polygon fill="midnightblue" stroke="midnightblue" points="263.053,-6.5001 253.053,-10 263.053,-13.5001 263.053,-6.5001"/>
</g>
<!-- Node70 -->
<g id="node7" class="node"><title>Node70</title>
<g id="a_node7"><a xlink:href="class_go___solver.html#a1d7d0fad019f2d33caebb6cfe11d1f42" target="_top" xlink:title="Go_Solver::turnSoundsDown">
<polygon fill="none" stroke="black" points="484,-0.5 484,-19.5 624,-19.5 624,-0.5 484,-0.5"/>
<text text-anchor="middle" x="554" y="-7.5" font-family="Helvetica,sans-Serif" font-size="10.00">Go_Solver::turnSoundsDown</text>
</a>
</g>
</g>
<!-- Node69&#45;&gt;Node70 -->
<g id="edge6" class="edge"><title>Node69&#45;&gt;Node70</title>
<path fill="none" stroke="midnightblue" d="M458.185,-10C466.79,-10 475.43,-10 483.803,-10"/>
<polygon fill="midnightblue" stroke="midnightblue" points="458.119,-6.5001 448.119,-10 458.119,-13.5001 458.119,-6.5001"/>
</g>
</g>
</svg>
