<?xml version="1.0" encoding="UTF-8" standalone="no"?>
<!DOCTYPE svg PUBLIC "-//W3C//DTD SVG 1.1//EN"
 "http://www.w3.org/Graphics/SVG/1.1/DTD/svg11.dtd">
<!-- Generated by graphviz version 2.38.0 (20140413.2041)
 -->
<!-- Title: Goban::listFils Pages: 1 -->
<svg width="207pt" height="66pt"
 viewBox="0.00 0.00 207.00 66.00" xmlns="http://www.w3.org/2000/svg" xmlns:xlink="http://www.w3.org/1999/xlink">
<g id="graph0" class="graph" transform="scale(1 1) rotate(0) translate(4 62)">
<title>Goban::listFils</title>
<!-- Node233 -->
<g id="node1" class="node"><title>Node233</title>
<polygon fill="#bfbfbf" stroke="black" points="0,-19.5 0,-38.5 80,-38.5 80,-19.5 0,-19.5"/>
<text text-anchor="middle" x="40" y="-26.5" font-family="Helvetica,sans-Serif" font-size="10.00">Goban::listFils</text>
</g>
<!-- Node234 -->
<g id="node2" class="node"><title>Node234</title>
<g id="a_node2"><a xlink:href="class_arbre.html#ac82e543d8cbf0aced4d741c346f9950d" target="_top" xlink:title="Arbre::Arbre">
<polygon fill="none" stroke="black" points="123,-38.5 123,-57.5 192,-57.5 192,-38.5 123,-38.5"/>
<text text-anchor="middle" x="157.5" y="-45.5" font-family="Helvetica,sans-Serif" font-size="10.00">Arbre::Arbre</text>
</a>
</g>
</g>
<!-- Node233&#45;&gt;Node234 -->
<g id="edge1" class="edge"><title>Node233&#45;&gt;Node234</title>
<path fill="none" stroke="midnightblue" d="M90.0756,-37.073C101.119,-38.8897 112.596,-40.7777 122.84,-42.4629"/>
<polygon fill="midnightblue" stroke="midnightblue" points="90.5386,-33.6022 80.103,-35.4325 89.4023,-40.5094 90.5386,-33.6022"/>
</g>
<!-- Node235 -->
<g id="node3" class="node"><title>Node235</title>
<g id="a_node3"><a xlink:href="class_arbre.html#a70585b1d341c1e0c262b2b4a4f769b6d" target="_top" xlink:title="Arbre::resetFils">
<polygon fill="none" stroke="black" points="116,-0.5 116,-19.5 199,-19.5 199,-0.5 116,-0.5"/>
<text text-anchor="middle" x="157.5" y="-7.5" font-family="Helvetica,sans-Serif" font-size="10.00">Arbre::resetFils</text>
</a>
</g>
</g>
<!-- Node233&#45;&gt;Node235 -->
<g id="edge2" class="edge"><title>Node233&#45;&gt;Node235</title>
<path fill="none" stroke="midnightblue" d="M90.0373,-20.9333C98.6435,-19.5175 107.514,-18.0583 115.86,-16.6853"/>
<polygon fill="midnightblue" stroke="midnightblue" points="89.4023,-17.4906 80.103,-22.5675 90.5386,-24.3978 89.4023,-17.4906"/>
</g>
</g>
</svg>
