<?xml version="1.0" encoding="UTF-8" standalone="no"?>
<!DOCTYPE svg PUBLIC "-//W3C//DTD SVG 1.1//EN"
 "http://www.w3.org/Graphics/SVG/1.1/DTD/svg11.dtd">
<!-- Generated by graphviz version 2.38.0 (20140413.2041)
 -->
<!-- Title: Square::setPosition Pages: 1 -->
<svg width="230pt" height="66pt"
 viewBox="0.00 0.00 230.00 66.00" xmlns="http://www.w3.org/2000/svg" xmlns:xlink="http://www.w3.org/1999/xlink">
<g id="graph0" class="graph" transform="scale(1 1) rotate(0) translate(4 62)">
<title>Square::setPosition</title>
<!-- Node13 -->
<g id="node1" class="node"><title>Node13</title>
<polygon fill="#bfbfbf" stroke="black" points="0,-19.5 0,-38.5 102,-38.5 102,-19.5 0,-19.5"/>
<text text-anchor="middle" x="51" y="-26.5" font-family="Helvetica,sans-Serif" font-size="10.00">Square::setPosition</text>
</g>
<!-- Node14 -->
<g id="node2" class="node"><title>Node14</title>
<g id="a_node2"><a xlink:href="class_board.html#a3ab3bc5a15b6f8fb4aa8473fed2afdcb" target="_top" xlink:title="Board::Board">
<polygon fill="none" stroke="black" points="143,-38.5 143,-57.5 217,-57.5 217,-38.5 143,-38.5"/>
<text text-anchor="middle" x="180" y="-45.5" font-family="Helvetica,sans-Serif" font-size="10.00">Board::Board</text>
</a>
</g>
</g>
<!-- Node13&#45;&gt;Node14 -->
<g id="edge1" class="edge"><title>Node13&#45;&gt;Node14</title>
<path fill="none" stroke="midnightblue" d="M112.18,-38.0032C122.673,-39.5731 133.287,-41.1611 142.872,-42.5951"/>
<polygon fill="midnightblue" stroke="midnightblue" points="112.602,-34.5275 102.194,-36.5093 111.566,-41.4505 112.602,-34.5275"/>
</g>
<!-- Node15 -->
<g id="node3" class="node"><title>Node15</title>
<g id="a_node3"><a xlink:href="class_square.html#a53fbf885454472fc818f541ecae5a80f" target="_top" xlink:title="Square::Square">
<polygon fill="none" stroke="black" points="138,-0.5 138,-19.5 222,-19.5 222,-0.5 138,-0.5"/>
<text text-anchor="middle" x="180" y="-7.5" font-family="Helvetica,sans-Serif" font-size="10.00">Square::Square</text>
</a>
</g>
</g>
<!-- Node13&#45;&gt;Node15 -->
<g id="edge2" class="edge"><title>Node13&#45;&gt;Node15</title>
<path fill="none" stroke="midnightblue" d="M112.252,-19.9859C120.885,-18.6944 129.598,-17.3909 137.75,-16.1712"/>
<polygon fill="midnightblue" stroke="midnightblue" points="111.566,-16.5495 102.194,-21.4907 112.602,-23.4725 111.566,-16.5495"/>
</g>
</g>
</svg>
