<?xml version="1.0" encoding="UTF-8" standalone="no"?>
<!DOCTYPE svg PUBLIC "-//W3C//DTD SVG 1.1//EN"
 "http://www.w3.org/Graphics/SVG/1.1/DTD/svg11.dtd">
<!-- Generated by graphviz version 2.38.0 (20140413.2041)
 -->
<!-- Title: Menu_simple::setItemsFonts Pages: 1 -->
<svg width="593pt" height="180pt"
 viewBox="0.00 0.00 593.00 180.00" xmlns="http://www.w3.org/2000/svg" xmlns:xlink="http://www.w3.org/1999/xlink">
<g id="graph0" class="graph" transform="scale(1 1) rotate(0) translate(4 176)">
<title>Menu_simple::setItemsFonts</title>
<!-- Node15 -->
<g id="node1" class="node"><title>Node15</title>
<polygon fill="#bfbfbf" stroke="black" points="0,-76.5 0,-95.5 143,-95.5 143,-76.5 0,-76.5"/>
<text text-anchor="middle" x="71.5" y="-83.5" font-family="Helvetica,sans-Serif" font-size="10.00">Menu_simple::setItemsFonts</text>
</g>
<!-- Node16 -->
<g id="node2" class="node"><title>Node16</title>
<g id="a_node2"><a xlink:href="class_go___solver.html#aefc904642aa7fcc3a5f700f921b9c0ab" target="_top" xlink:title="Go_Solver::loadMenu1">
<polygon fill="none" stroke="black" points="179,-152.5 179,-171.5 293,-171.5 293,-152.5 179,-152.5"/>
<text text-anchor="middle" x="236" y="-159.5" font-family="Helvetica,sans-Serif" font-size="10.00">Go_Solver::loadMenu1</text>
</a>
</g>
</g>
<!-- Node15&#45;&gt;Node16 -->
<g id="edge1" class="edge"><title>Node15&#45;&gt;Node16</title>
<path fill="none" stroke="midnightblue" d="M97.0171,-100.615C118.243,-112.902 150.006,-130.424 179,-143 186.912,-146.432 195.661,-149.657 203.846,-152.442"/>
<polygon fill="midnightblue" stroke="midnightblue" points="98.7292,-97.5617 88.3296,-95.5372 95.1968,-103.605 98.7292,-97.5617"/>
</g>
<!-- Node19 -->
<g id="node5" class="node"><title>Node19</title>
<g id="a_node5"><a xlink:href="class_go___solver.html#a48def38f87effdb973b5f02329a0af4f" target="_top" xlink:title="Go_Solver::loadMenu3">
<polygon fill="none" stroke="black" points="179,-114.5 179,-133.5 293,-133.5 293,-114.5 179,-114.5"/>
<text text-anchor="middle" x="236" y="-121.5" font-family="Helvetica,sans-Serif" font-size="10.00">Go_Solver::loadMenu3</text>
</a>
</g>
</g>
<!-- Node15&#45;&gt;Node19 -->
<g id="edge4" class="edge"><title>Node15&#45;&gt;Node19</title>
<path fill="none" stroke="midnightblue" d="M123.371,-97.8961C146.212,-103.237 172.795,-109.454 194.289,-114.48"/>
<polygon fill="midnightblue" stroke="midnightblue" points="124.04,-94.4581 113.506,-95.589 122.446,-101.274 124.04,-94.4581"/>
</g>
<!-- Node20 -->
<g id="node6" class="node"><title>Node20</title>
<g id="a_node6"><a xlink:href="class_go___solver.html#a99b82aef6960441ba24e3b28c7ec9ad5" target="_top" xlink:title="Go_Solver::loadMenu4">
<polygon fill="none" stroke="black" points="179,-76.5 179,-95.5 293,-95.5 293,-76.5 179,-76.5"/>
<text text-anchor="middle" x="236" y="-83.5" font-family="Helvetica,sans-Serif" font-size="10.00">Go_Solver::loadMenu4</text>
</a>
</g>
</g>
<!-- Node15&#45;&gt;Node20 -->
<g id="edge6" class="edge"><title>Node15&#45;&gt;Node20</title>
<path fill="none" stroke="midnightblue" d="M153.309,-86C161.855,-86 170.408,-86 178.589,-86"/>
<polygon fill="midnightblue" stroke="midnightblue" points="153.302,-82.5001 143.302,-86 153.302,-89.5001 153.302,-82.5001"/>
</g>
<!-- Node21 -->
<g id="node7" class="node"><title>Node21</title>
<g id="a_node7"><a xlink:href="class_go___solver.html#a480bbc610bbc9bb3b1c675d69128d1fd" target="_top" xlink:title="Go_Solver::loadMenu5">
<polygon fill="none" stroke="black" points="179,-38.5 179,-57.5 293,-57.5 293,-38.5 179,-38.5"/>
<text text-anchor="middle" x="236" y="-45.5" font-family="Helvetica,sans-Serif" font-size="10.00">Go_Solver::loadMenu5</text>
</a>
</g>
</g>
<!-- Node15&#45;&gt;Node21 -->
<g id="edge8" class="edge"><title>Node15&#45;&gt;Node21</title>
<path fill="none" stroke="midnightblue" d="M123.371,-74.1039C146.212,-68.7626 172.795,-62.5463 194.289,-57.5201"/>
<polygon fill="midnightblue" stroke="midnightblue" points="122.446,-70.7258 113.506,-76.411 124.04,-77.5419 122.446,-70.7258"/>
</g>
<!-- Node22 -->
<g id="node8" class="node"><title>Node22</title>
<g id="a_node8"><a xlink:href="class_go___solver.html#a9aa3c644c34232cbc9bd3341930373c9" target="_top" xlink:title="Go_Solver::loadMenu6">
<polygon fill="none" stroke="black" points="179,-0.5 179,-19.5 293,-19.5 293,-0.5 179,-0.5"/>
<text text-anchor="middle" x="236" y="-7.5" font-family="Helvetica,sans-Serif" font-size="10.00">Go_Solver::loadMenu6</text>
</a>
</g>
</g>
<!-- Node15&#45;&gt;Node22 -->
<g id="edge10" class="edge"><title>Node15&#45;&gt;Node22</title>
<path fill="none" stroke="midnightblue" d="M97.0171,-71.385C118.243,-59.098 150.006,-41.5759 179,-29 186.912,-25.5683 195.661,-22.343 203.846,-19.5581"/>
<polygon fill="midnightblue" stroke="midnightblue" points="95.1968,-68.3949 88.3296,-76.4628 98.7292,-74.4383 95.1968,-68.3949"/>
</g>
<!-- Node17 -->
<g id="node3" class="node"><title>Node17</title>
<g id="a_node3"><a xlink:href="class_go___solver.html#a27ceb252dd57ac88d0dc2dbb04a25e32" target="_top" xlink:title="Go_Solver::loadMenu">
<polygon fill="none" stroke="black" points="329,-76.5 329,-95.5 438,-95.5 438,-76.5 329,-76.5"/>
<text text-anchor="middle" x="383.5" y="-83.5" font-family="Helvetica,sans-Serif" font-size="10.00">Go_Solver::loadMenu</text>
</a>
</g>
</g>
<!-- Node16&#45;&gt;Node17 -->
<g id="edge2" class="edge"><title>Node16&#45;&gt;Node17</title>
<path fill="none" stroke="midnightblue" d="M279.181,-148.915C283.909,-147.089 288.603,-145.108 293,-143 321.903,-129.142 352.863,-107.789 369.731,-95.5325"/>
<polygon fill="midnightblue" stroke="midnightblue" points="277.706,-145.728 269.51,-152.442 280.104,-152.304 277.706,-145.728"/>
</g>
<!-- Node18 -->
<g id="node4" class="node"><title>Node18</title>
<g id="a_node4"><a xlink:href="class_go___solver.html#a30bd2f9d195a5553cc683f8314ea4b58" target="_top" xlink:title="Go_Solver::Go_Solver">
<polygon fill="none" stroke="black" points="474,-76.5 474,-95.5 585,-95.5 585,-76.5 474,-76.5"/>
<text text-anchor="middle" x="529.5" y="-83.5" font-family="Helvetica,sans-Serif" font-size="10.00">Go_Solver::Go_Solver</text>
</a>
</g>
</g>
<!-- Node17&#45;&gt;Node18 -->
<g id="edge3" class="edge"><title>Node17&#45;&gt;Node18</title>
<path fill="none" stroke="midnightblue" d="M448.385,-86C456.889,-86 465.546,-86 473.874,-86"/>
<polygon fill="midnightblue" stroke="midnightblue" points="448.12,-82.5001 438.12,-86 448.12,-89.5001 448.12,-82.5001"/>
</g>
<!-- Node19&#45;&gt;Node17 -->
<g id="edge5" class="edge"><title>Node19&#45;&gt;Node17</title>
<path fill="none" stroke="midnightblue" d="M283.653,-111.816C303.853,-106.54 327.148,-100.456 346.048,-95.5201"/>
<polygon fill="midnightblue" stroke="midnightblue" points="282.507,-108.498 273.716,-114.411 284.276,-115.27 282.507,-108.498"/>
</g>
<!-- Node20&#45;&gt;Node17 -->
<g id="edge7" class="edge"><title>Node20&#45;&gt;Node17</title>
<path fill="none" stroke="midnightblue" d="M303.498,-86C311.967,-86 320.551,-86 328.785,-86"/>
<polygon fill="midnightblue" stroke="midnightblue" points="303.254,-82.5001 293.254,-86 303.254,-89.5001 303.254,-82.5001"/>
</g>
<!-- Node21&#45;&gt;Node17 -->
<g id="edge9" class="edge"><title>Node21&#45;&gt;Node17</title>
<path fill="none" stroke="midnightblue" d="M283.653,-60.1843C303.853,-65.46 327.148,-71.5438 346.048,-76.4799"/>
<polygon fill="midnightblue" stroke="midnightblue" points="284.276,-56.7296 273.716,-57.589 282.507,-63.5024 284.276,-56.7296"/>
</g>
<!-- Node22&#45;&gt;Node17 -->
<g id="edge11" class="edge"><title>Node22&#45;&gt;Node17</title>
<path fill="none" stroke="midnightblue" d="M279.181,-23.0847C283.909,-24.9115 288.603,-26.8916 293,-29 321.903,-42.8584 352.863,-64.2106 369.731,-76.4675"/>
<polygon fill="midnightblue" stroke="midnightblue" points="280.104,-19.6959 269.51,-19.5581 277.706,-26.2723 280.104,-19.6959"/>
</g>
</g>
</svg>
