<?xml version="1.0" encoding="UTF-8" standalone="no"?>
<!DOCTYPE svg PUBLIC "-//W3C//DTD SVG 1.1//EN"
 "http://www.w3.org/Graphics/SVG/1.1/DTD/svg11.dtd">
<!-- Generated by graphviz version 2.38.0 (20140413.2041)
 -->
<!-- Title: Menu_simple::addItem Pages: 1 -->
<svg width="565pt" height="180pt"
 viewBox="0.00 0.00 565.00 180.00" xmlns="http://www.w3.org/2000/svg" xmlns:xlink="http://www.w3.org/1999/xlink">
<g id="graph0" class="graph" transform="scale(1 1) rotate(0) translate(4 176)">
<title>Menu_simple::addItem</title>
<!-- Node6 -->
<g id="node1" class="node"><title>Node6</title>
<polygon fill="#bfbfbf" stroke="black" points="0,-76.5 0,-95.5 115,-95.5 115,-76.5 0,-76.5"/>
<text text-anchor="middle" x="57.5" y="-83.5" font-family="Helvetica,sans-Serif" font-size="10.00">Menu_simple::addItem</text>
</g>
<!-- Node7 -->
<g id="node2" class="node"><title>Node7</title>
<g id="a_node2"><a xlink:href="class_go___solver.html#aefc904642aa7fcc3a5f700f921b9c0ab" target="_top" xlink:title="Go_Solver::loadMenu1">
<polygon fill="none" stroke="black" points="151,-152.5 151,-171.5 265,-171.5 265,-152.5 151,-152.5"/>
<text text-anchor="middle" x="208" y="-159.5" font-family="Helvetica,sans-Serif" font-size="10.00">Go_Solver::loadMenu1</text>
</a>
</g>
</g>
<!-- Node6&#45;&gt;Node7 -->
<g id="edge1" class="edge"><title>Node6&#45;&gt;Node7</title>
<path fill="none" stroke="midnightblue" d="M80.5114,-101.531C98.7703,-113.924 125.738,-131.117 151,-143 158.525,-146.54 166.894,-149.742 174.821,-152.465"/>
<polygon fill="midnightblue" stroke="midnightblue" points="82.2749,-98.4958 72.0529,-95.7095 78.3063,-104.262 82.2749,-98.4958"/>
</g>
<!-- Node10 -->
<g id="node5" class="node"><title>Node10</title>
<g id="a_node5"><a xlink:href="class_go___solver.html#a48def38f87effdb973b5f02329a0af4f" target="_top" xlink:title="Go_Solver::loadMenu3">
<polygon fill="none" stroke="black" points="151,-114.5 151,-133.5 265,-133.5 265,-114.5 151,-114.5"/>
<text text-anchor="middle" x="208" y="-121.5" font-family="Helvetica,sans-Serif" font-size="10.00">Go_Solver::loadMenu3</text>
</a>
</g>
</g>
<!-- Node6&#45;&gt;Node10 -->
<g id="edge4" class="edge"><title>Node6&#45;&gt;Node10</title>
<path fill="none" stroke="midnightblue" d="M105.833,-98.1121C126.515,-103.404 150.419,-109.521 169.797,-114.48"/>
<polygon fill="midnightblue" stroke="midnightblue" points="106.528,-94.6774 95.9728,-95.589 104.793,-101.459 106.528,-94.6774"/>
</g>
<!-- Node11 -->
<g id="node6" class="node"><title>Node11</title>
<g id="a_node6"><a xlink:href="class_go___solver.html#a99b82aef6960441ba24e3b28c7ec9ad5" target="_top" xlink:title="Go_Solver::loadMenu4">
<polygon fill="none" stroke="black" points="151,-76.5 151,-95.5 265,-95.5 265,-76.5 151,-76.5"/>
<text text-anchor="middle" x="208" y="-83.5" font-family="Helvetica,sans-Serif" font-size="10.00">Go_Solver::loadMenu4</text>
</a>
</g>
</g>
<!-- Node6&#45;&gt;Node11 -->
<g id="edge6" class="edge"><title>Node6&#45;&gt;Node11</title>
<path fill="none" stroke="midnightblue" d="M125.283,-86C133.737,-86 142.322,-86 150.592,-86"/>
<polygon fill="midnightblue" stroke="midnightblue" points="125.065,-82.5001 115.065,-86 125.065,-89.5001 125.065,-82.5001"/>
</g>
<!-- Node12 -->
<g id="node7" class="node"><title>Node12</title>
<g id="a_node7"><a xlink:href="class_go___solver.html#a480bbc610bbc9bb3b1c675d69128d1fd" target="_top" xlink:title="Go_Solver::loadMenu5">
<polygon fill="none" stroke="black" points="151,-38.5 151,-57.5 265,-57.5 265,-38.5 151,-38.5"/>
<text text-anchor="middle" x="208" y="-45.5" font-family="Helvetica,sans-Serif" font-size="10.00">Go_Solver::loadMenu5</text>
</a>
</g>
</g>
<!-- Node6&#45;&gt;Node12 -->
<g id="edge8" class="edge"><title>Node6&#45;&gt;Node12</title>
<path fill="none" stroke="midnightblue" d="M105.833,-73.8879C126.515,-68.5956 150.419,-62.4787 169.797,-57.5201"/>
<polygon fill="midnightblue" stroke="midnightblue" points="104.793,-70.5411 95.9728,-76.411 106.528,-77.3226 104.793,-70.5411"/>
</g>
<!-- Node13 -->
<g id="node8" class="node"><title>Node13</title>
<g id="a_node8"><a xlink:href="class_go___solver.html#a9aa3c644c34232cbc9bd3341930373c9" target="_top" xlink:title="Go_Solver::loadMenu6">
<polygon fill="none" stroke="black" points="151,-0.5 151,-19.5 265,-19.5 265,-0.5 151,-0.5"/>
<text text-anchor="middle" x="208" y="-7.5" font-family="Helvetica,sans-Serif" font-size="10.00">Go_Solver::loadMenu6</text>
</a>
</g>
</g>
<!-- Node6&#45;&gt;Node13 -->
<g id="edge10" class="edge"><title>Node6&#45;&gt;Node13</title>
<path fill="none" stroke="midnightblue" d="M80.5114,-70.4691C98.7703,-58.0764 125.738,-40.8827 151,-29 158.525,-25.4603 166.894,-22.2585 174.821,-19.535"/>
<polygon fill="midnightblue" stroke="midnightblue" points="78.3063,-67.7379 72.0529,-76.2905 82.2749,-73.5042 78.3063,-67.7379"/>
</g>
<!-- Node8 -->
<g id="node3" class="node"><title>Node8</title>
<g id="a_node3"><a xlink:href="class_go___solver.html#a27ceb252dd57ac88d0dc2dbb04a25e32" target="_top" xlink:title="Go_Solver::loadMenu">
<polygon fill="none" stroke="black" points="301,-76.5 301,-95.5 410,-95.5 410,-76.5 301,-76.5"/>
<text text-anchor="middle" x="355.5" y="-83.5" font-family="Helvetica,sans-Serif" font-size="10.00">Go_Solver::loadMenu</text>
</a>
</g>
</g>
<!-- Node7&#45;&gt;Node8 -->
<g id="edge2" class="edge"><title>Node7&#45;&gt;Node8</title>
<path fill="none" stroke="midnightblue" d="M251.181,-148.915C255.909,-147.089 260.603,-145.108 265,-143 293.903,-129.142 324.863,-107.789 341.731,-95.5325"/>
<polygon fill="midnightblue" stroke="midnightblue" points="249.706,-145.728 241.51,-152.442 252.104,-152.304 249.706,-145.728"/>
</g>
<!-- Node9 -->
<g id="node4" class="node"><title>Node9</title>
<g id="a_node4"><a xlink:href="class_go___solver.html#a30bd2f9d195a5553cc683f8314ea4b58" target="_top" xlink:title="Go_Solver::Go_Solver">
<polygon fill="none" stroke="black" points="446,-76.5 446,-95.5 557,-95.5 557,-76.5 446,-76.5"/>
<text text-anchor="middle" x="501.5" y="-83.5" font-family="Helvetica,sans-Serif" font-size="10.00">Go_Solver::Go_Solver</text>
</a>
</g>
</g>
<!-- Node8&#45;&gt;Node9 -->
<g id="edge3" class="edge"><title>Node8&#45;&gt;Node9</title>
<path fill="none" stroke="midnightblue" d="M420.385,-86C428.889,-86 437.546,-86 445.874,-86"/>
<polygon fill="midnightblue" stroke="midnightblue" points="420.12,-82.5001 410.12,-86 420.12,-89.5001 420.12,-82.5001"/>
</g>
<!-- Node10&#45;&gt;Node8 -->
<g id="edge5" class="edge"><title>Node10&#45;&gt;Node8</title>
<path fill="none" stroke="midnightblue" d="M255.653,-111.816C275.853,-106.54 299.148,-100.456 318.048,-95.5201"/>
<polygon fill="midnightblue" stroke="midnightblue" points="254.507,-108.498 245.716,-114.411 256.276,-115.27 254.507,-108.498"/>
</g>
<!-- Node11&#45;&gt;Node8 -->
<g id="edge7" class="edge"><title>Node11&#45;&gt;Node8</title>
<path fill="none" stroke="midnightblue" d="M275.498,-86C283.967,-86 292.551,-86 300.785,-86"/>
<polygon fill="midnightblue" stroke="midnightblue" points="275.254,-82.5001 265.254,-86 275.254,-89.5001 275.254,-82.5001"/>
</g>
<!-- Node12&#45;&gt;Node8 -->
<g id="edge9" class="edge"><title>Node12&#45;&gt;Node8</title>
<path fill="none" stroke="midnightblue" d="M255.653,-60.1843C275.853,-65.46 299.148,-71.5438 318.048,-76.4799"/>
<polygon fill="midnightblue" stroke="midnightblue" points="256.276,-56.7296 245.716,-57.589 254.507,-63.5024 256.276,-56.7296"/>
</g>
<!-- Node13&#45;&gt;Node8 -->
<g id="edge11" class="edge"><title>Node13&#45;&gt;Node8</title>
<path fill="none" stroke="midnightblue" d="M251.181,-23.0847C255.909,-24.9115 260.603,-26.8916 265,-29 293.903,-42.8584 324.863,-64.2106 341.731,-76.4675"/>
<polygon fill="midnightblue" stroke="midnightblue" points="252.104,-19.6959 241.51,-19.5581 249.706,-26.2723 252.104,-19.6959"/>
</g>
</g>
</svg>
