<?xml version="1.0" encoding="UTF-8" standalone="no"?>
<!DOCTYPE svg PUBLIC "-//W3C//DTD SVG 1.1//EN"
 "http://www.w3.org/Graphics/SVG/1.1/DTD/svg11.dtd">
<!-- Generated by graphviz version 2.38.0 (20140413.2041)
 -->
<!-- Title: Etat::setVal Pages: 1 -->
<svg width="1153pt" height="294pt"
 viewBox="0.00 0.00 1153.00 293.53" xmlns="http://www.w3.org/2000/svg" xmlns:xlink="http://www.w3.org/1999/xlink">
<g id="graph0" class="graph" transform="scale(1 1) rotate(0) translate(4 289.527)">
<title>Etat::setVal</title>
<!-- Node95 -->
<g id="node1" class="node"><title>Node95</title>
<polygon fill="#bfbfbf" stroke="black" points="0,-133.5 0,-152.5 68,-152.5 68,-133.5 0,-133.5"/>
<text text-anchor="middle" x="34" y="-140.5" font-family="Helvetica,sans-Serif" font-size="10.00">Etat::setVal</text>
</g>
<!-- Node96 -->
<g id="node2" class="node"><title>Node96</title>
<g id="a_node2"><a xlink:href="class_goban.html#a799390f04139eec16f7bb8c79b381303" target="_top" xlink:title="Goban::legalEvenKO">
<polygon fill="none" stroke="black" points="757,-264.5 757,-283.5 864,-283.5 864,-264.5 757,-264.5"/>
<text text-anchor="middle" x="810.5" y="-271.5" font-family="Helvetica,sans-Serif" font-size="10.00">Goban::legalEvenKO</text>
</a>
</g>
</g>
<!-- Node95&#45;&gt;Node96 -->
<g id="edge1" class="edge"><title>Node95&#45;&gt;Node96</title>
<path fill="none" stroke="midnightblue" d="M40.6543,-162.43C49.4596,-188.834 69.1629,-235.243 104,-257 183.674,-306.759 220.564,-276 314.5,-276 314.5,-276 314.5,-276 485,-276 580.915,-276 692.775,-275.115 756.95,-274.523"/>
<polygon fill="midnightblue" stroke="midnightblue" points="43.9574,-161.267 37.6243,-152.773 37.2784,-163.362 43.9574,-161.267"/>
</g>
<!-- Node97 -->
<g id="node3" class="node"><title>Node97</title>
<g id="a_node3"><a xlink:href="class_goban.html#a3544d30f54fbb54bd9e4fed08aa4bce6" target="_top" xlink:title="Goban::Goban">
<polygon fill="none" stroke="black" points="116,-76.5 116,-95.5 196,-95.5 196,-76.5 116,-76.5"/>
<text text-anchor="middle" x="156" y="-83.5" font-family="Helvetica,sans-Serif" font-size="10.00">Goban::Goban</text>
</a>
</g>
</g>
<!-- Node95&#45;&gt;Node97 -->
<g id="edge2" class="edge"><title>Node95&#45;&gt;Node97</title>
<path fill="none" stroke="midnightblue" d="M64.2269,-128.972C76.5021,-123.093 90.9363,-116.198 104,-110 114.079,-105.218 125.295,-99.9362 134.636,-95.5473"/>
<polygon fill="midnightblue" stroke="midnightblue" points="62.4179,-125.958 54.9127,-133.436 65.4432,-132.27 62.4179,-125.958"/>
</g>
<!-- Node98 -->
<g id="node4" class="node"><title>Node98</title>
<g id="a_node4"><a xlink:href="class_goban.html#a0e2596110cdbb9b007b2b2fd8d5a9973" target="_top" xlink:title="Goban::DefineStone">
<polygon fill="none" stroke="black" points="104,-228.5 104,-247.5 208,-247.5 208,-228.5 104,-228.5"/>
<text text-anchor="middle" x="156" y="-235.5" font-family="Helvetica,sans-Serif" font-size="10.00">Goban::DefineStone</text>
</a>
</g>
</g>
<!-- Node95&#45;&gt;Node98 -->
<g id="edge3" class="edge"><title>Node95&#45;&gt;Node98</title>
<path fill="none" stroke="midnightblue" d="M48.9818,-160.643C61.9771,-176.183 82.5141,-198.669 104,-214 111.966,-219.684 121.49,-224.589 130.14,-228.457"/>
<polygon fill="midnightblue" stroke="midnightblue" points="51.6195,-158.339 42.5799,-152.813 46.2004,-162.77 51.6195,-158.339"/>
</g>
<!-- Node100 -->
<g id="node6" class="node"><title>Node100</title>
<g id="a_node6"><a xlink:href="class_goban.html#a1ec70508987f66afff5f8df381731fac" target="_top" xlink:title="Goban::eliminateGroups">
<polygon fill="none" stroke="black" points="423,-190.5 423,-209.5 545,-209.5 545,-190.5 423,-190.5"/>
<text text-anchor="middle" x="484" y="-197.5" font-family="Helvetica,sans-Serif" font-size="10.00">Goban::eliminateGroups</text>
</a>
</g>
</g>
<!-- Node95&#45;&gt;Node100 -->
<g id="edge16" class="edge"><title>Node95&#45;&gt;Node100</title>
<path fill="none" stroke="midnightblue" d="M70.6607,-155.828C81.2743,-159.248 93.0066,-162.643 104,-165 214.968,-188.794 347.629,-196.415 422.928,-198.854"/>
<polygon fill="midnightblue" stroke="midnightblue" points="71.4818,-152.413 60.8882,-152.575 69.2707,-159.054 71.4818,-152.413"/>
</g>
<!-- Node109 -->
<g id="node15" class="node"><title>Node109</title>
<g id="a_node15"><a xlink:href="class_goban.html#a7dd1a7b53322bde2a831a923059e43a3" target="_top" xlink:title="Goban::move">
<polygon fill="none" stroke="black" points="447,-133.5 447,-152.5 521,-152.5 521,-133.5 447,-133.5"/>
<text text-anchor="middle" x="484" y="-140.5" font-family="Helvetica,sans-Serif" font-size="10.00">Goban::move</text>
</a>
</g>
</g>
<!-- Node95&#45;&gt;Node109 -->
<g id="edge17" class="edge"><title>Node95&#45;&gt;Node109</title>
<path fill="none" stroke="midnightblue" d="M78.5088,-143C166.778,-143 365.425,-143 446.996,-143"/>
<polygon fill="midnightblue" stroke="midnightblue" points="78.3068,-139.5 68.3068,-143 78.3068,-146.5 78.3068,-139.5"/>
</g>
<!-- Node110 -->
<g id="node16" class="node"><title>Node110</title>
<g id="a_node16"><a xlink:href="class_goban.html#a6c4b62a9469b3876d250ab94bcd562e5" target="_top" xlink:title="Goban::eliminateOppositeKO">
<polygon fill="none" stroke="black" points="244,-152.5 244,-171.5 387,-171.5 387,-152.5 244,-152.5"/>
<text text-anchor="middle" x="315.5" y="-159.5" font-family="Helvetica,sans-Serif" font-size="10.00">Goban::eliminateOppositeKO</text>
</a>
</g>
</g>
<!-- Node95&#45;&gt;Node110 -->
<g id="edge20" class="edge"><title>Node95&#45;&gt;Node110</title>
<path fill="none" stroke="midnightblue" d="M78.2828,-145.942C122.479,-148.947 191.812,-153.66 243.953,-157.204"/>
<polygon fill="midnightblue" stroke="midnightblue" points="78.3743,-142.441 68.1599,-145.254 77.8995,-149.424 78.3743,-142.441"/>
</g>
<!-- Node111 -->
<g id="node17" class="node"><title>Node111</title>
<g id="a_node17"><a xlink:href="_parser_8h.html#a0d953eb90c8a03cbbe46abaf3d8d96e9" target="_top" xlink:title="parseur">
<polygon fill="none" stroke="black" points="131.5,-38.5 131.5,-57.5 180.5,-57.5 180.5,-38.5 131.5,-38.5"/>
<text text-anchor="middle" x="156" y="-45.5" font-family="Helvetica,sans-Serif" font-size="10.00">parseur</text>
</a>
</g>
</g>
<!-- Node95&#45;&gt;Node111 -->
<g id="edge22" class="edge"><title>Node95&#45;&gt;Node111</title>
<path fill="none" stroke="midnightblue" d="M47.3945,-124.984C59.9224,-107.966 80.7158,-82.7636 104,-67 112.215,-61.4381 122.271,-57.2423 131.276,-54.2278"/>
<polygon fill="midnightblue" stroke="midnightblue" points="44.2867,-123.313 41.3215,-133.484 49.9825,-127.382 44.2867,-123.313"/>
</g>
<!-- Node112 -->
<g id="node18" class="node"><title>Node112</title>
<g id="a_node18"><a xlink:href="_main_8cpp.html#ae1a3968e7947464bee7714f6d43b7002" target="_top" xlink:title="test">
<polygon fill="none" stroke="black" points="139.5,-0.5 139.5,-19.5 172.5,-19.5 172.5,-0.5 139.5,-0.5"/>
<text text-anchor="middle" x="156" y="-7.5" font-family="Helvetica,sans-Serif" font-size="10.00">test</text>
</a>
</g>
</g>
<!-- Node95&#45;&gt;Node112 -->
<g id="edge23" class="edge"><title>Node95&#45;&gt;Node112</title>
<path fill="none" stroke="midnightblue" d="M41.9863,-123.738C52.0227,-98.6112 72.8161,-54.8195 104,-29 114.189,-20.5638 128.486,-15.6723 139.351,-12.9716"/>
<polygon fill="midnightblue" stroke="midnightblue" points="38.6488,-122.667 38.3446,-133.257 45.1867,-125.168 38.6488,-122.667"/>
</g>
<!-- Node99 -->
<g id="node5" class="node"><title>Node99</title>
<g id="a_node5"><a xlink:href="class_goban.html#a84f36324eb9ddc29f522d481f04c13e7" target="_top" xlink:title="Goban::listOfLiberties">
<polygon fill="none" stroke="black" points="260.5,-228.5 260.5,-247.5 370.5,-247.5 370.5,-228.5 260.5,-228.5"/>
<text text-anchor="middle" x="315.5" y="-235.5" font-family="Helvetica,sans-Serif" font-size="10.00">Goban::listOfLiberties</text>
</a>
</g>
</g>
<!-- Node98&#45;&gt;Node99 -->
<g id="edge4" class="edge"><title>Node98&#45;&gt;Node99</title>
<path fill="none" stroke="midnightblue" d="M218.521,-238C232.332,-238 246.885,-238 260.368,-238"/>
<polygon fill="midnightblue" stroke="midnightblue" points="218.136,-234.5 208.136,-238 218.136,-241.5 218.136,-234.5"/>
</g>
<!-- Node99&#45;&gt;Node100 -->
<g id="edge5" class="edge"><title>Node99&#45;&gt;Node100</title>
<path fill="none" stroke="midnightblue" d="M368.309,-226.176C391.783,-220.818 419.165,-214.569 441.287,-209.52"/>
<polygon fill="midnightblue" stroke="midnightblue" points="367.485,-222.774 358.515,-228.411 369.043,-229.598 367.485,-222.774"/>
</g>
<!-- Node102 -->
<g id="node8" class="node"><title>Node102</title>
<g id="a_node8"><a xlink:href="class_goban.html#a8b95ea2b51c078381562e361ff7febac" target="_top" xlink:title="Goban::isSuicide">
<polygon fill="none" stroke="black" points="765,-207.5 765,-226.5 856,-226.5 856,-207.5 765,-207.5"/>
<text text-anchor="middle" x="810.5" y="-214.5" font-family="Helvetica,sans-Serif" font-size="10.00">Goban::isSuicide</text>
</a>
</g>
</g>
<!-- Node99&#45;&gt;Node102 -->
<g id="edge15" class="edge"><title>Node99&#45;&gt;Node102</title>
<path fill="none" stroke="midnightblue" d="M380.796,-235.261C482.37,-230.935 677.398,-222.627 764.988,-218.896"/>
<polygon fill="midnightblue" stroke="midnightblue" points="380.512,-231.77 370.67,-235.693 380.81,-238.764 380.512,-231.77"/>
</g>
<!-- Node101 -->
<g id="node7" class="node"><title>Node101</title>
<g id="a_node7"><a xlink:href="class_goban.html#a7858b815885e4af36f05f9d26182cb07" target="_top" xlink:title="Goban::eliminateOppGroups">
<polygon fill="none" stroke="black" points="581,-190.5 581,-209.5 721,-209.5 721,-190.5 581,-190.5"/>
<text text-anchor="middle" x="651" y="-197.5" font-family="Helvetica,sans-Serif" font-size="10.00">Goban::eliminateOppGroups</text>
</a>
</g>
</g>
<!-- Node100&#45;&gt;Node101 -->
<g id="edge6" class="edge"><title>Node100&#45;&gt;Node101</title>
<path fill="none" stroke="midnightblue" d="M555.24,-200C563.698,-200 572.331,-200 580.774,-200"/>
<polygon fill="midnightblue" stroke="midnightblue" points="555.036,-196.5 545.036,-200 555.036,-203.5 555.036,-196.5"/>
</g>
<!-- Node101&#45;&gt;Node96 -->
<g id="edge7" class="edge"><title>Node101&#45;&gt;Node96</title>
<path fill="none" stroke="midnightblue" d="M681.398,-213.813C712.768,-228.551 761.639,-251.513 789.06,-264.397"/>
<polygon fill="midnightblue" stroke="midnightblue" points="682.807,-210.607 672.268,-209.523 679.83,-216.943 682.807,-210.607"/>
</g>
<!-- Node101&#45;&gt;Node102 -->
<g id="edge8" class="edge"><title>Node101&#45;&gt;Node102</title>
<path fill="none" stroke="midnightblue" d="M731.241,-208.553C742.825,-209.803 754.396,-211.052 764.949,-212.191"/>
<polygon fill="midnightblue" stroke="midnightblue" points="731.4,-205.05 721.082,-207.456 730.648,-212.009 731.4,-205.05"/>
</g>
<!-- Node103 -->
<g id="node9" class="node"><title>Node103</title>
<g id="a_node9"><a xlink:href="class_goban.html#a36ab256c9430e070b620052a0f13f051" target="_top" xlink:title="Goban::listFils">
<polygon fill="none" stroke="black" points="770.5,-115.5 770.5,-134.5 850.5,-134.5 850.5,-115.5 770.5,-115.5"/>
<text text-anchor="middle" x="810.5" y="-122.5" font-family="Helvetica,sans-Serif" font-size="10.00">Goban::listFils</text>
</a>
</g>
</g>
<!-- Node101&#45;&gt;Node103 -->
<g id="edge9" class="edge"><title>Node101&#45;&gt;Node103</title>
<path fill="none" stroke="midnightblue" d="M681.425,-185.988C712.891,-171.004 761.944,-147.646 789.31,-134.614"/>
<polygon fill="midnightblue" stroke="midnightblue" points="679.792,-182.889 672.268,-190.349 682.801,-189.209 679.792,-182.889"/>
</g>
<!-- Node106 -->
<g id="node12" class="node"><title>Node106</title>
<g id="a_node12"><a xlink:href="class_board.html#a5fda73da080403d8a71a8593d581c350" target="_top" xlink:title="Board::click">
<polygon fill="none" stroke="black" points="776.5,-160.5 776.5,-179.5 844.5,-179.5 844.5,-160.5 776.5,-160.5"/>
<text text-anchor="middle" x="810.5" y="-167.5" font-family="Helvetica,sans-Serif" font-size="10.00">Board::click</text>
</a>
</g>
</g>
<!-- Node101&#45;&gt;Node106 -->
<g id="edge12" class="edge"><title>Node101&#45;&gt;Node106</title>
<path fill="none" stroke="midnightblue" d="M712.366,-188.502C733.991,-184.383 757.576,-179.89 776.089,-176.364"/>
<polygon fill="midnightblue" stroke="midnightblue" points="711.435,-185.116 702.267,-190.425 712.745,-191.992 711.435,-185.116"/>
</g>
<!-- Node104 -->
<g id="node10" class="node"><title>Node104</title>
<g id="a_node10"><a xlink:href="class_arbre.html#ac82e543d8cbf0aced4d741c346f9950d" target="_top" xlink:title="Arbre::Arbre">
<polygon fill="none" stroke="black" points="918.5,-82.5 918.5,-101.5 987.5,-101.5 987.5,-82.5 918.5,-82.5"/>
<text text-anchor="middle" x="953" y="-89.5" font-family="Helvetica,sans-Serif" font-size="10.00">Arbre::Arbre</text>
</a>
</g>
</g>
<!-- Node103&#45;&gt;Node104 -->
<g id="edge10" class="edge"><title>Node103&#45;&gt;Node104</title>
<path fill="none" stroke="midnightblue" d="M860.392,-113.517C879.517,-109.024 900.977,-103.984 918.316,-99.9115"/>
<polygon fill="midnightblue" stroke="midnightblue" points="859.572,-110.114 850.637,-115.808 861.172,-116.928 859.572,-110.114"/>
</g>
<!-- Node105 -->
<g id="node11" class="node"><title>Node105</title>
<g id="a_node11"><a xlink:href="class_arbre.html#a70585b1d341c1e0c262b2b4a4f769b6d" target="_top" xlink:title="Arbre::resetFils">
<polygon fill="none" stroke="black" points="911.5,-120.5 911.5,-139.5 994.5,-139.5 994.5,-120.5 911.5,-120.5"/>
<text text-anchor="middle" x="953" y="-127.5" font-family="Helvetica,sans-Serif" font-size="10.00">Arbre::resetFils</text>
</a>
</g>
</g>
<!-- Node103&#45;&gt;Node105 -->
<g id="edge11" class="edge"><title>Node103&#45;&gt;Node105</title>
<path fill="none" stroke="midnightblue" d="M860.645,-126.749C877.132,-127.336 895.329,-127.983 911.114,-128.545"/>
<polygon fill="midnightblue" stroke="midnightblue" points="860.755,-123.251 850.637,-126.393 860.506,-130.246 860.755,-123.251"/>
</g>
<!-- Node107 -->
<g id="node13" class="node"><title>Node107</title>
<g id="a_node13"><a xlink:href="class_game__window.html#afa942088809bf10731bb31d0d37b878d" target="_top" xlink:title="Game_window::click">
<polygon fill="none" stroke="black" points="900,-160.5 900,-179.5 1006,-179.5 1006,-160.5 900,-160.5"/>
<text text-anchor="middle" x="953" y="-167.5" font-family="Helvetica,sans-Serif" font-size="10.00">Game_window::click</text>
</a>
</g>
</g>
<!-- Node106&#45;&gt;Node107 -->
<g id="edge13" class="edge"><title>Node106&#45;&gt;Node107</title>
<path fill="none" stroke="midnightblue" d="M854.841,-170C869.116,-170 885.137,-170 899.99,-170"/>
<polygon fill="midnightblue" stroke="midnightblue" points="854.797,-166.5 844.797,-170 854.797,-173.5 854.797,-166.5"/>
</g>
<!-- Node108 -->
<g id="node14" class="node"><title>Node108</title>
<g id="a_node14"><a xlink:href="class_game__window.html#a555769f4e8511e45d6623658dc736be5" target="_top" xlink:title="Game_window::Run">
<polygon fill="none" stroke="black" points="1042,-160.5 1042,-179.5 1145,-179.5 1145,-160.5 1042,-160.5"/>
<text text-anchor="middle" x="1093.5" y="-167.5" font-family="Helvetica,sans-Serif" font-size="10.00">Game_window::Run</text>
</a>
</g>
</g>
<!-- Node107&#45;&gt;Node108 -->
<g id="edge14" class="edge"><title>Node107&#45;&gt;Node108</title>
<path fill="none" stroke="midnightblue" d="M1016.59,-170C1025.07,-170 1033.67,-170 1041.9,-170"/>
<polygon fill="midnightblue" stroke="midnightblue" points="1016.36,-166.5 1006.36,-170 1016.36,-173.5 1016.36,-166.5"/>
</g>
<!-- Node109&#45;&gt;Node103 -->
<g id="edge18" class="edge"><title>Node109&#45;&gt;Node103</title>
<path fill="none" stroke="midnightblue" d="M531.518,-140.42C595.74,-136.857 710.416,-130.496 770.436,-127.167"/>
<polygon fill="midnightblue" stroke="midnightblue" points="531.07,-136.939 521.28,-140.988 531.458,-143.928 531.07,-136.939"/>
</g>
<!-- Node109&#45;&gt;Node106 -->
<g id="edge19" class="edge"><title>Node109&#45;&gt;Node106</title>
<path fill="none" stroke="midnightblue" d="M531.454,-146.865C597.85,-152.39 718.266,-162.409 776.373,-167.244"/>
<polygon fill="midnightblue" stroke="midnightblue" points="531.536,-143.36 521.28,-146.019 530.955,-150.336 531.536,-143.36"/>
</g>
<!-- Node110&#45;&gt;Node109 -->
<g id="edge21" class="edge"><title>Node110&#45;&gt;Node109</title>
<path fill="none" stroke="midnightblue" d="M397.294,-152.78C414.655,-150.799 432.159,-148.802 446.782,-147.133"/>
<polygon fill="midnightblue" stroke="midnightblue" points="396.65,-149.331 387.111,-153.942 397.443,-156.286 396.65,-149.331"/>
</g>
</g>
</svg>
