<?xml version="1.0" encoding="UTF-8" standalone="no"?>
<!DOCTYPE svg PUBLIC "-//W3C//DTD SVG 1.1//EN"
 "http://www.w3.org/Graphics/SVG/1.1/DTD/svg11.dtd">
<!-- Generated by graphviz version 2.38.0 (20140413.2041)
 -->
<!-- Title: Go_Solver::setGoban Pages: 1 -->
<svg width="511pt" height="104pt"
 viewBox="0.00 0.00 511.00 104.00" xmlns="http://www.w3.org/2000/svg" xmlns:xlink="http://www.w3.org/1999/xlink">
<g id="graph0" class="graph" transform="scale(1 1) rotate(0) translate(4 100)">
<title>Go_Solver::setGoban</title>
<!-- Node121 -->
<g id="node1" class="node"><title>Node121</title>
<polygon fill="#bfbfbf" stroke="black" points="0,-38.5 0,-57.5 109,-57.5 109,-38.5 0,-38.5"/>
<text text-anchor="middle" x="54.5" y="-45.5" font-family="Helvetica,sans-Serif" font-size="10.00">Go_Solver::setGoban</text>
</g>
<!-- Node122 -->
<g id="node2" class="node"><title>Node122</title>
<g id="a_node2"><a xlink:href="class_game__window.html#ac674f6d0db2bf60e92a0072d94e4c019" target="_top" xlink:title="Game_window::setGoban">
<polygon fill="none" stroke="black" points="145,-38.5 145,-57.5 273,-57.5 273,-38.5 145,-38.5"/>
<text text-anchor="middle" x="209" y="-45.5" font-family="Helvetica,sans-Serif" font-size="10.00">Game_window::setGoban</text>
</a>
</g>
</g>
<!-- Node121&#45;&gt;Node122 -->
<g id="edge1" class="edge"><title>Node121&#45;&gt;Node122</title>
<path fill="none" stroke="midnightblue" d="M109.266,-48C117.525,-48 126.171,-48 134.765,-48"/>
<polygon fill="midnightblue" stroke="midnightblue" points="134.804,-51.5001 144.804,-48 134.804,-44.5001 134.804,-51.5001"/>
</g>
<!-- Node123 -->
<g id="node3" class="node"><title>Node123</title>
<g id="a_node3"><a xlink:href="class_board.html#a841a248dac4743611ba1825afd5d1297" target="_top" xlink:title="Board::load">
<polygon fill="none" stroke="black" points="309,-38.5 309,-57.5 375,-57.5 375,-38.5 309,-38.5"/>
<text text-anchor="middle" x="342" y="-45.5" font-family="Helvetica,sans-Serif" font-size="10.00">Board::load</text>
</a>
</g>
</g>
<!-- Node122&#45;&gt;Node123 -->
<g id="edge2" class="edge"><title>Node122&#45;&gt;Node123</title>
<path fill="none" stroke="midnightblue" d="M273.198,-48C281.75,-48 290.355,-48 298.429,-48"/>
<polygon fill="midnightblue" stroke="midnightblue" points="298.686,-51.5001 308.686,-48 298.686,-44.5001 298.686,-51.5001"/>
</g>
<!-- Node124 -->
<g id="node4" class="node"><title>Node124</title>
<g id="a_node4"><a xlink:href="class_square.html#a5fa0cbfce721c687308eec8e1a029d25" target="_top" xlink:title="Square::setValue">
<polygon fill="none" stroke="black" points="411,-76.5 411,-95.5 503,-95.5 503,-76.5 411,-76.5"/>
<text text-anchor="middle" x="457" y="-83.5" font-family="Helvetica,sans-Serif" font-size="10.00">Square::setValue</text>
</a>
</g>
</g>
<!-- Node123&#45;&gt;Node124 -->
<g id="edge3" class="edge"><title>Node123&#45;&gt;Node124</title>
<path fill="none" stroke="midnightblue" d="M371.515,-57.589C385.567,-62.3144 402.708,-68.0789 417.87,-73.1774"/>
<polygon fill="midnightblue" stroke="midnightblue" points="416.9,-76.544 427.494,-76.4141 419.132,-69.9091 416.9,-76.544"/>
</g>
<!-- Node125 -->
<g id="node5" class="node"><title>Node125</title>
<g id="a_node5"><a xlink:href="class_goban.html#a29aaf8df380fe614845d48cba057747c" target="_top" xlink:title="Goban::coord">
<polygon fill="none" stroke="black" points="419.5,-38.5 419.5,-57.5 494.5,-57.5 494.5,-38.5 419.5,-38.5"/>
<text text-anchor="middle" x="457" y="-45.5" font-family="Helvetica,sans-Serif" font-size="10.00">Goban::coord</text>
</a>
</g>
</g>
<!-- Node123&#45;&gt;Node125 -->
<g id="edge4" class="edge"><title>Node123&#45;&gt;Node125</title>
<path fill="none" stroke="midnightblue" d="M375.079,-48C385.67,-48 397.678,-48 409.141,-48"/>
<polygon fill="midnightblue" stroke="midnightblue" points="409.458,-51.5001 419.458,-48 409.458,-44.5001 409.458,-51.5001"/>
</g>
<!-- Node126 -->
<g id="node6" class="node"><title>Node126</title>
<g id="a_node6"><a xlink:href="class_etat.html#ac0b81bbcf64cb3cc574e5a9dcdf94382" target="_top" xlink:title="Etat::getVal">
<polygon fill="none" stroke="black" points="423,-0.5 423,-19.5 491,-19.5 491,-0.5 423,-0.5"/>
<text text-anchor="middle" x="457" y="-7.5" font-family="Helvetica,sans-Serif" font-size="10.00">Etat::getVal</text>
</a>
</g>
</g>
<!-- Node123&#45;&gt;Node126 -->
<g id="edge5" class="edge"><title>Node123&#45;&gt;Node126</title>
<path fill="none" stroke="midnightblue" d="M371.515,-38.411C385.567,-33.6856 402.708,-27.9211 417.87,-22.8226"/>
<polygon fill="midnightblue" stroke="midnightblue" points="419.132,-26.0909 427.494,-19.5859 416.9,-19.456 419.132,-26.0909"/>
</g>
</g>
</svg>
