<?xml version="1.0" encoding="UTF-8" standalone="no"?>
<!DOCTYPE svg PUBLIC "-//W3C//DTD SVG 1.1//EN"
 "http://www.w3.org/Graphics/SVG/1.1/DTD/svg11.dtd">
<!-- Generated by graphviz version 2.38.0 (20140413.2041)
 -->
<!-- Title: Etat::getVal Pages: 1 -->
<svg width="713pt" height="484pt"
 viewBox="0.00 0.00 713.00 484.00" xmlns="http://www.w3.org/2000/svg" xmlns:xlink="http://www.w3.org/1999/xlink">
<g id="graph0" class="graph" transform="scale(1 1) rotate(0) translate(4 480)">
<title>Etat::getVal</title>
<!-- Node13 -->
<g id="node1" class="node"><title>Node13</title>
<polygon fill="#bfbfbf" stroke="black" points="0,-247.5 0,-266.5 68,-266.5 68,-247.5 0,-247.5"/>
<text text-anchor="middle" x="34" y="-254.5" font-family="Helvetica,sans-Serif" font-size="10.00">Etat::getVal</text>
</g>
<!-- Node14 -->
<g id="node2" class="node"><title>Node14</title>
<g id="a_node2"><a xlink:href="_etat_8h.html#a1a56483b3043376a37fcc4b81aac6f98" target="_top" xlink:title="operator\&lt;\&lt;">
<polygon fill="none" stroke="black" points="134.5,-456.5 134.5,-475.5 198.5,-475.5 198.5,-456.5 134.5,-456.5"/>
<text text-anchor="middle" x="166.5" y="-463.5" font-family="Helvetica,sans-Serif" font-size="10.00">operator&lt;&lt;</text>
</a>
</g>
</g>
<!-- Node13&#45;&gt;Node14 -->
<g id="edge1" class="edge"><title>Node13&#45;&gt;Node14</title>
<path fill="none" stroke="midnightblue" d="M36.5668,-277.351C40.638,-315.99 54.9468,-400.28 104,-447 112.254,-454.861 123.694,-459.474 134.47,-462.18"/>
<polygon fill="midnightblue" stroke="midnightblue" points="40.0082,-276.554 35.6048,-266.917 33.0378,-277.196 40.0082,-276.554"/>
</g>
<!-- Node15 -->
<g id="node3" class="node"><title>Node15</title>
<g id="a_node3"><a xlink:href="class_goban.html#a8c49da36e406f11d33671a4c8a4c19b2" target="_top" xlink:title="Goban::Goban">
<polygon fill="none" stroke="black" points="126.5,-418.5 126.5,-437.5 206.5,-437.5 206.5,-418.5 126.5,-418.5"/>
<text text-anchor="middle" x="166.5" y="-425.5" font-family="Helvetica,sans-Serif" font-size="10.00">Goban::Goban</text>
</a>
</g>
</g>
<!-- Node13&#45;&gt;Node15 -->
<g id="edge2" class="edge"><title>Node13&#45;&gt;Node15</title>
<path fill="none" stroke="midnightblue" d="M38.5759,-276.854C45.4429,-309.232 63.5378,-373.357 104,-409 110.373,-414.614 118.382,-418.569 126.495,-421.356"/>
<polygon fill="midnightblue" stroke="midnightblue" points="41.9667,-275.958 36.597,-266.825 35.0991,-277.313 41.9667,-275.958"/>
</g>
<!-- Node16 -->
<g id="node4" class="node"><title>Node16</title>
<g id="a_node4"><a xlink:href="class_goban.html#a8b95ea2b51c078381562e361ff7febac" target="_top" xlink:title="Goban::isSuicide">
<polygon fill="none" stroke="black" points="121,-380.5 121,-399.5 212,-399.5 212,-380.5 121,-380.5"/>
<text text-anchor="middle" x="166.5" y="-387.5" font-family="Helvetica,sans-Serif" font-size="10.00">Goban::isSuicide</text>
</a>
</g>
</g>
<!-- Node13&#45;&gt;Node16 -->
<g id="edge3" class="edge"><title>Node13&#45;&gt;Node16</title>
<path fill="none" stroke="midnightblue" d="M41.6231,-276.152C51.3603,-301.516 71.9337,-345.955 104,-371 109.02,-374.921 114.853,-378.038 120.889,-380.514"/>
<polygon fill="midnightblue" stroke="midnightblue" points="44.8365,-274.748 38.1115,-266.561 38.2633,-277.155 44.8365,-274.748"/>
</g>
<!-- Node17 -->
<g id="node5" class="node"><title>Node17</title>
<g id="a_node5"><a xlink:href="class_goban.html#a8ad67a618a510bb378d00281228b1b13" target="_top" xlink:title="Goban::compress">
<polygon fill="none" stroke="black" points="119.5,-342.5 119.5,-361.5 213.5,-361.5 213.5,-342.5 119.5,-342.5"/>
<text text-anchor="middle" x="166.5" y="-349.5" font-family="Helvetica,sans-Serif" font-size="10.00">Goban::compress</text>
</a>
</g>
</g>
<!-- Node13&#45;&gt;Node17 -->
<g id="edge4" class="edge"><title>Node13&#45;&gt;Node17</title>
<path fill="none" stroke="midnightblue" d="M47.2003,-275.312C59.5851,-292.548 80.2762,-317.906 104,-333 110.034,-336.839 116.895,-339.946 123.792,-342.447"/>
<polygon fill="midnightblue" stroke="midnightblue" points="49.7887,-272.903 41.2079,-266.688 44.0403,-276.898 49.7887,-272.903"/>
</g>
<!-- Node19 -->
<g id="node7" class="node"><title>Node19</title>
<g id="a_node7"><a xlink:href="class_goban.html#aa23b735d8d72bb0fe189005e968e9329" target="_top" xlink:title="Goban::uncompress">
<polygon fill="none" stroke="black" points="114.5,-304.5 114.5,-323.5 218.5,-323.5 218.5,-304.5 114.5,-304.5"/>
<text text-anchor="middle" x="166.5" y="-311.5" font-family="Helvetica,sans-Serif" font-size="10.00">Goban::uncompress</text>
</a>
</g>
</g>
<!-- Node13&#45;&gt;Node19 -->
<g id="edge6" class="edge"><title>Node13&#45;&gt;Node19</title>
<path fill="none" stroke="midnightblue" d="M58.9459,-271.768C71.9518,-279.38 88.502,-288.42 104,-295 112.332,-298.538 121.548,-301.739 130.255,-304.462"/>
<polygon fill="midnightblue" stroke="midnightblue" points="60.5493,-268.649 50.1678,-266.533 56.964,-274.661 60.5493,-268.649"/>
</g>
<!-- Node20 -->
<g id="node8" class="node"><title>Node20</title>
<g id="a_node8"><a xlink:href="class_i_a.html#a5c0a6371478dedeb16372d13ce13cc34" target="_top" xlink:title="IA::loadNumber">
<polygon fill="none" stroke="black" points="125,-266.5 125,-285.5 208,-285.5 208,-266.5 125,-266.5"/>
<text text-anchor="middle" x="166.5" y="-273.5" font-family="Helvetica,sans-Serif" font-size="10.00">IA::loadNumber</text>
</a>
</g>
</g>
<!-- Node13&#45;&gt;Node20 -->
<g id="edge8" class="edge"><title>Node13&#45;&gt;Node20</title>
<path fill="none" stroke="midnightblue" d="M78.3238,-263.308C93.3177,-265.491 110.059,-267.928 124.832,-270.079"/>
<polygon fill="midnightblue" stroke="midnightblue" points="78.6683,-259.821 68.2683,-261.844 77.6597,-266.748 78.6683,-259.821"/>
</g>
<!-- Node21 -->
<g id="node9" class="node"><title>Node21</title>
<g id="a_node9"><a xlink:href="class_i_a.html#a364aef554d81e9a93bff08c28d437497" target="_top" xlink:title="IA::Tsumego">
<polygon fill="none" stroke="black" points="293.5,-228.5 293.5,-247.5 364.5,-247.5 364.5,-228.5 293.5,-228.5"/>
<text text-anchor="middle" x="329" y="-235.5" font-family="Helvetica,sans-Serif" font-size="10.00">IA::Tsumego</text>
</a>
</g>
</g>
<!-- Node13&#45;&gt;Node21 -->
<g id="edge11" class="edge"><title>Node13&#45;&gt;Node21</title>
<path fill="none" stroke="midnightblue" d="M78.0517,-254.208C136.426,-250.423 239.547,-243.736 293.267,-240.252"/>
<polygon fill="midnightblue" stroke="midnightblue" points="77.7938,-250.718 68.0413,-254.857 78.2468,-257.703 77.7938,-250.718"/>
</g>
<!-- Node23 -->
<g id="node11" class="node"><title>Node23</title>
<g id="a_node11"><a xlink:href="class_i_a.html#a42202360406fe67babfd01a9b7902fd2" target="_top" xlink:title="IA::Tsumego_naif">
<polygon fill="none" stroke="black" points="120.5,-190.5 120.5,-209.5 212.5,-209.5 212.5,-190.5 120.5,-190.5"/>
<text text-anchor="middle" x="166.5" y="-197.5" font-family="Helvetica,sans-Serif" font-size="10.00">IA::Tsumego_naif</text>
</a>
</g>
</g>
<!-- Node13&#45;&gt;Node23 -->
<g id="edge12" class="edge"><title>Node13&#45;&gt;Node23</title>
<path fill="none" stroke="midnightblue" d="M63.4954,-242.788C75.8499,-236.779 90.5416,-229.835 104,-224 115.672,-218.94 128.785,-213.755 139.894,-209.506"/>
<polygon fill="midnightblue" stroke="midnightblue" points="61.5938,-239.823 54.1566,-247.368 64.6761,-246.107 61.5938,-239.823"/>
</g>
<!-- Node24 -->
<g id="node12" class="node"><title>Node24</title>
<g id="a_node12"><a xlink:href="class_i_a.html#af1f6e5abe41a2225b17ca319c1fc0e4e" target="_top" xlink:title="IA::Tsumego_abr">
<polygon fill="none" stroke="black" points="121.5,-152.5 121.5,-171.5 211.5,-171.5 211.5,-152.5 121.5,-152.5"/>
<text text-anchor="middle" x="166.5" y="-159.5" font-family="Helvetica,sans-Serif" font-size="10.00">IA::Tsumego_abr</text>
</a>
</g>
</g>
<!-- Node13&#45;&gt;Node24 -->
<g id="edge13" class="edge"><title>Node13&#45;&gt;Node24</title>
<path fill="none" stroke="midnightblue" d="M47.2003,-238.688C59.5851,-221.452 80.2762,-196.094 104,-181 110.034,-177.161 116.895,-174.054 123.792,-171.553"/>
<polygon fill="midnightblue" stroke="midnightblue" points="44.0403,-237.102 41.2079,-247.312 49.7887,-241.097 44.0403,-237.102"/>
</g>
<!-- Node25 -->
<g id="node13" class="node"><title>Node25</title>
<g id="a_node13"><a xlink:href="class_i_a.html#a6f616b7d3d9d39eef4780b7a03226260" target="_top" xlink:title="IA::Tsumego_abrFils">
<polygon fill="none" stroke="black" points="276,-152.5 276,-171.5 382,-171.5 382,-152.5 276,-152.5"/>
<text text-anchor="middle" x="329" y="-159.5" font-family="Helvetica,sans-Serif" font-size="10.00">IA::Tsumego_abrFils</text>
</a>
</g>
</g>
<!-- Node13&#45;&gt;Node25 -->
<g id="edge16" class="edge"><title>Node13&#45;&gt;Node25</title>
<path fill="none" stroke="midnightblue" d="M40.263,-237.52C48.6901,-210.658 68.0422,-163.267 104,-143 133.75,-126.232 227.501,-141.268 283.85,-152.461"/>
<polygon fill="midnightblue" stroke="midnightblue" points="36.8419,-236.749 37.3871,-247.33 43.5592,-238.718 36.8419,-236.749"/>
</g>
<!-- Node26 -->
<g id="node14" class="node"><title>Node26</title>
<g id="a_node14"><a xlink:href="class_i_a.html#a5d86a3548f2410f7fc0676b89d07f4fd" target="_top" xlink:title="IA::Tsumego_compresse">
<polygon fill="none" stroke="black" points="104,-76.5 104,-95.5 229,-95.5 229,-76.5 104,-76.5"/>
<text text-anchor="middle" x="166.5" y="-83.5" font-family="Helvetica,sans-Serif" font-size="10.00">IA::Tsumego_compresse</text>
</a>
</g>
</g>
<!-- Node13&#45;&gt;Node26 -->
<g id="edge17" class="edge"><title>Node13&#45;&gt;Node26</title>
<path fill="none" stroke="midnightblue" d="M39.2685,-237.248C46.9699,-206.109 66.0412,-145.505 104,-110 110.696,-103.737 119.213,-99.0441 127.759,-95.5523"/>
<polygon fill="midnightblue" stroke="midnightblue" points="35.7902,-236.753 36.9316,-247.287 42.6079,-238.341 35.7902,-236.753"/>
</g>
<!-- Node27 -->
<g id="node15" class="node"><title>Node27</title>
<g id="a_node15"><a xlink:href="class_board.html#a841a248dac4743611ba1825afd5d1297" target="_top" xlink:title="Board::load">
<polygon fill="none" stroke="black" points="133.5,-38.5 133.5,-57.5 199.5,-57.5 199.5,-38.5 133.5,-38.5"/>
<text text-anchor="middle" x="166.5" y="-45.5" font-family="Helvetica,sans-Serif" font-size="10.00">Board::load</text>
</a>
</g>
</g>
<!-- Node13&#45;&gt;Node27 -->
<g id="edge18" class="edge"><title>Node13&#45;&gt;Node27</title>
<path fill="none" stroke="midnightblue" d="M36.5668,-236.649C40.638,-198.01 54.9468,-113.72 104,-67 111.93,-59.447 122.801,-54.8924 133.2,-52.1474"/>
<polygon fill="midnightblue" stroke="midnightblue" points="33.0378,-236.804 35.6048,-247.083 40.0082,-237.446 33.0378,-236.804"/>
</g>
<!-- Node18 -->
<g id="node6" class="node"><title>Node18</title>
<g id="a_node6"><a xlink:href="_main_8cpp.html#ae1a3968e7947464bee7714f6d43b7002" target="_top" xlink:title="test">
<polygon fill="none" stroke="black" points="312.5,-323.5 312.5,-342.5 345.5,-342.5 345.5,-323.5 312.5,-323.5"/>
<text text-anchor="middle" x="329" y="-330.5" font-family="Helvetica,sans-Serif" font-size="10.00">test</text>
</a>
</g>
</g>
<!-- Node17&#45;&gt;Node18 -->
<g id="edge5" class="edge"><title>Node17&#45;&gt;Node18</title>
<path fill="none" stroke="midnightblue" d="M223.876,-345.326C255.191,-341.619 291.842,-337.28 312.243,-334.865"/>
<polygon fill="midnightblue" stroke="midnightblue" points="223.442,-341.853 213.923,-346.504 224.265,-348.804 223.442,-341.853"/>
</g>
<!-- Node19&#45;&gt;Node18 -->
<g id="edge7" class="edge"><title>Node19&#45;&gt;Node18</title>
<path fill="none" stroke="midnightblue" d="M228.82,-321.259C259.097,-324.843 293.188,-328.879 312.482,-331.163"/>
<polygon fill="midnightblue" stroke="midnightblue" points="229.067,-317.764 218.724,-320.064 228.244,-324.715 229.067,-317.764"/>
</g>
<!-- Node20&#45;&gt;Node21 -->
<g id="edge9" class="edge"><title>Node20&#45;&gt;Node21</title>
<path fill="none" stroke="midnightblue" d="M217.89,-264.07C242.486,-258.246 271.449,-251.389 293.495,-246.169"/>
<polygon fill="midnightblue" stroke="midnightblue" points="216.926,-260.701 208.001,-266.411 218.538,-267.513 216.926,-260.701"/>
</g>
<!-- Node22 -->
<g id="node10" class="node"><title>Node22</title>
<g id="a_node10"><a xlink:href="class_go___solver.html#a6ca744f1f4586c3f90f2e47915034baf" target="_top" xlink:title="Go_Solver::launchTsumego">
<polygon fill="none" stroke="black" points="430,-228.5 430,-247.5 565,-247.5 565,-228.5 430,-228.5"/>
<text text-anchor="middle" x="497.5" y="-235.5" font-family="Helvetica,sans-Serif" font-size="10.00">Go_Solver::launchTsumego</text>
</a>
</g>
</g>
<!-- Node21&#45;&gt;Node22 -->
<g id="edge10" class="edge"><title>Node21&#45;&gt;Node22</title>
<path fill="none" stroke="midnightblue" d="M375.002,-238C391.827,-238 411.315,-238 429.69,-238"/>
<polygon fill="midnightblue" stroke="midnightblue" points="374.904,-234.5 364.904,-238 374.904,-241.5 374.904,-234.5"/>
</g>
<!-- Node24&#45;&gt;Node21 -->
<g id="edge14" class="edge"><title>Node24&#45;&gt;Node21</title>
<path fill="none" stroke="midnightblue" d="M212.928,-174.772C218.411,-176.682 223.878,-178.768 229,-181 260.635,-194.788 295.002,-216.165 313.772,-228.446"/>
<polygon fill="midnightblue" stroke="midnightblue" points="213.708,-171.344 203.115,-171.528 211.511,-177.99 213.708,-171.344"/>
</g>
<!-- Node24&#45;&gt;Node25 -->
<g id="edge15" class="edge"><title>Node24&#45;&gt;Node25</title>
<path fill="none" stroke="midnightblue" d="M221.825,-162C239.293,-162 258.595,-162 275.899,-162"/>
<polygon fill="midnightblue" stroke="midnightblue" points="221.782,-158.5 211.782,-162 221.782,-165.5 221.782,-158.5"/>
</g>
<!-- Node28 -->
<g id="node16" class="node"><title>Node28</title>
<g id="a_node16"><a xlink:href="class_board.html#a5fda73da080403d8a71a8593d581c350" target="_top" xlink:title="Board::click">
<polygon fill="none" stroke="black" points="295,-114.5 295,-133.5 363,-133.5 363,-114.5 295,-114.5"/>
<text text-anchor="middle" x="329" y="-121.5" font-family="Helvetica,sans-Serif" font-size="10.00">Board::click</text>
</a>
</g>
</g>
<!-- Node27&#45;&gt;Node28 -->
<g id="edge19" class="edge"><title>Node27&#45;&gt;Node28</title>
<path fill="none" stroke="midnightblue" d="M209.63,-57.8388C216.37,-60.2961 223.069,-63.3144 229,-67 248.76,-79.2794 245.199,-92.7871 265,-105 274.043,-110.577 284.83,-114.61 294.9,-117.484"/>
<polygon fill="midnightblue" stroke="midnightblue" points="210.405,-54.4097 199.812,-54.6277 208.229,-61.0629 210.405,-54.4097"/>
</g>
<!-- Node31 -->
<g id="node19" class="node"><title>Node31</title>
<g id="a_node19"><a xlink:href="class_board.html#ac7ec911a62371650afd340d1535a1742" target="_top" xlink:title="Board::cancel">
<polygon fill="none" stroke="black" points="290.5,-76.5 290.5,-95.5 367.5,-95.5 367.5,-76.5 290.5,-76.5"/>
<text text-anchor="middle" x="329" y="-83.5" font-family="Helvetica,sans-Serif" font-size="10.00">Board::cancel</text>
</a>
</g>
</g>
<!-- Node27&#45;&gt;Node31 -->
<g id="edge22" class="edge"><title>Node27&#45;&gt;Node31</title>
<path fill="none" stroke="midnightblue" d="M209.539,-57.9532C234.58,-63.8818 266.096,-71.3435 290.324,-77.0798"/>
<polygon fill="midnightblue" stroke="midnightblue" points="210.131,-54.4967 199.594,-55.5985 208.518,-61.3084 210.131,-54.4967"/>
</g>
<!-- Node33 -->
<g id="node21" class="node"><title>Node33</title>
<g id="a_node21"><a xlink:href="class_board.html#a3cea4df16e41c21666cf51789b7e9e78" target="_top" xlink:title="Board::load">
<polygon fill="none" stroke="black" points="296,-38.5 296,-57.5 362,-57.5 362,-38.5 296,-38.5"/>
<text text-anchor="middle" x="329" y="-45.5" font-family="Helvetica,sans-Serif" font-size="10.00">Board::load</text>
</a>
</g>
</g>
<!-- Node27&#45;&gt;Node33 -->
<g id="edge25" class="edge"><title>Node27&#45;&gt;Node33</title>
<path fill="none" stroke="midnightblue" d="M209.906,-48C236.885,-48 271.264,-48 295.962,-48"/>
<polygon fill="midnightblue" stroke="midnightblue" points="209.594,-44.5001 199.594,-48 209.594,-51.5001 209.594,-44.5001"/>
</g>
<!-- Node34 -->
<g id="node22" class="node"><title>Node34</title>
<g id="a_node22"><a xlink:href="class_game__window.html#ac674f6d0db2bf60e92a0072d94e4c019" target="_top" xlink:title="Game_window::setGoban">
<polygon fill="none" stroke="black" points="265,-0.5 265,-19.5 393,-19.5 393,-0.5 265,-0.5"/>
<text text-anchor="middle" x="329" y="-7.5" font-family="Helvetica,sans-Serif" font-size="10.00">Game_window::setGoban</text>
</a>
</g>
</g>
<!-- Node27&#45;&gt;Node34 -->
<g id="edge26" class="edge"><title>Node27&#45;&gt;Node34</title>
<path fill="none" stroke="midnightblue" d="M209.537,-38.0473C233.681,-32.3309 263.846,-25.189 287.694,-19.5428"/>
<polygon fill="midnightblue" stroke="midnightblue" points="208.518,-34.6916 199.594,-40.4015 210.131,-41.5033 208.518,-34.6916"/>
</g>
<!-- Node29 -->
<g id="node17" class="node"><title>Node29</title>
<g id="a_node17"><a xlink:href="class_game__window.html#afa942088809bf10731bb31d0d37b878d" target="_top" xlink:title="Game_window::click">
<polygon fill="none" stroke="black" points="444.5,-114.5 444.5,-133.5 550.5,-133.5 550.5,-114.5 444.5,-114.5"/>
<text text-anchor="middle" x="497.5" y="-121.5" font-family="Helvetica,sans-Serif" font-size="10.00">Game_window::click</text>
</a>
</g>
</g>
<!-- Node28&#45;&gt;Node29 -->
<g id="edge20" class="edge"><title>Node28&#45;&gt;Node29</title>
<path fill="none" stroke="midnightblue" d="M373.512,-124C395.167,-124 421.509,-124 444.25,-124"/>
<polygon fill="midnightblue" stroke="midnightblue" points="373.294,-120.5 363.294,-124 373.294,-127.5 373.294,-120.5"/>
</g>
<!-- Node30 -->
<g id="node18" class="node"><title>Node30</title>
<g id="a_node18"><a xlink:href="class_game__window.html#a555769f4e8511e45d6623658dc736be5" target="_top" xlink:title="Game_window::Run">
<polygon fill="none" stroke="black" points="602,-95.5 602,-114.5 705,-114.5 705,-95.5 602,-95.5"/>
<text text-anchor="middle" x="653.5" y="-102.5" font-family="Helvetica,sans-Serif" font-size="10.00">Game_window::Run</text>
</a>
</g>
</g>
<!-- Node29&#45;&gt;Node30 -->
<g id="edge21" class="edge"><title>Node29&#45;&gt;Node30</title>
<path fill="none" stroke="midnightblue" d="M560.924,-116.298C574.576,-114.614 588.862,-112.851 601.981,-111.233"/>
<polygon fill="midnightblue" stroke="midnightblue" points="560.134,-112.869 550.637,-117.567 560.991,-119.817 560.134,-112.869"/>
</g>
<!-- Node32 -->
<g id="node20" class="node"><title>Node32</title>
<g id="a_node20"><a xlink:href="class_game__window.html#a72304de2044c29f1373037bd818f674f" target="_top" xlink:title="Game_window::keyPressed">
<polygon fill="none" stroke="black" points="429,-76.5 429,-95.5 566,-95.5 566,-76.5 429,-76.5"/>
<text text-anchor="middle" x="497.5" y="-83.5" font-family="Helvetica,sans-Serif" font-size="10.00">Game_window::keyPressed</text>
</a>
</g>
</g>
<!-- Node31&#45;&gt;Node32 -->
<g id="edge23" class="edge"><title>Node31&#45;&gt;Node32</title>
<path fill="none" stroke="midnightblue" d="M377.871,-86C393.735,-86 411.704,-86 428.771,-86"/>
<polygon fill="midnightblue" stroke="midnightblue" points="377.781,-82.5001 367.781,-86 377.781,-89.5001 377.781,-82.5001"/>
</g>
<!-- Node32&#45;&gt;Node30 -->
<g id="edge24" class="edge"><title>Node32&#45;&gt;Node30</title>
<path fill="none" stroke="midnightblue" d="M576.186,-95.5846C584.84,-96.6524 593.484,-97.7188 601.678,-98.7297"/>
<polygon fill="midnightblue" stroke="midnightblue" points="576.4,-92.0846 566.047,-94.3337 575.543,-99.0319 576.4,-92.0846"/>
</g>
<!-- Node35 -->
<g id="node23" class="node"><title>Node35</title>
<g id="a_node23"><a xlink:href="class_go___solver.html#a8452c66187c526e0a6051bbb42b9bbda" target="_top" xlink:title="Go_Solver::setGoban">
<polygon fill="none" stroke="black" points="443,-0.5 443,-19.5 552,-19.5 552,-0.5 443,-0.5"/>
<text text-anchor="middle" x="497.5" y="-7.5" font-family="Helvetica,sans-Serif" font-size="10.00">Go_Solver::setGoban</text>
</a>
</g>
</g>
<!-- Node34&#45;&gt;Node35 -->
<g id="edge27" class="edge"><title>Node34&#45;&gt;Node35</title>
<path fill="none" stroke="midnightblue" d="M403.444,-10C416.665,-10 430.221,-10 442.752,-10"/>
<polygon fill="midnightblue" stroke="midnightblue" points="403.422,-6.5001 393.421,-10 403.421,-13.5001 403.422,-6.5001"/>
</g>
</g>
</svg>
