<?xml version="1.0" encoding="UTF-8" standalone="no"?>
<!DOCTYPE svg PUBLIC "-//W3C//DTD SVG 1.1//EN"
 "http://www.w3.org/Graphics/SVG/1.1/DTD/svg11.dtd">
<!-- Generated by graphviz version 2.38.0 (20140413.2041)
 -->
<!-- Title: Game_window::getGoban Pages: 1 -->
<svg width="452pt" height="66pt"
 viewBox="0.00 0.00 452.00 66.00" xmlns="http://www.w3.org/2000/svg" xmlns:xlink="http://www.w3.org/1999/xlink">
<g id="graph0" class="graph" transform="scale(1 1) rotate(0) translate(4 62)">
<title>Game_window::getGoban</title>
<!-- Node42 -->
<g id="node1" class="node"><title>Node42</title>
<polygon fill="#bfbfbf" stroke="black" points="0,-19.5 0,-38.5 128,-38.5 128,-19.5 0,-19.5"/>
<text text-anchor="middle" x="64" y="-26.5" font-family="Helvetica,sans-Serif" font-size="10.00">Game_window::getGoban</text>
</g>
<!-- Node43 -->
<g id="node2" class="node"><title>Node43</title>
<g id="a_node2"><a xlink:href="class_go___solver.html#a95c1c268123a76b4f2db5b183bc721b6" target="_top" xlink:title="Go_Solver::getGoban">
<polygon fill="none" stroke="black" points="164,-38.5 164,-57.5 273,-57.5 273,-38.5 164,-38.5"/>
<text text-anchor="middle" x="218.5" y="-45.5" font-family="Helvetica,sans-Serif" font-size="10.00">Go_Solver::getGoban</text>
</a>
</g>
</g>
<!-- Node42&#45;&gt;Node43 -->
<g id="edge1" class="edge"><title>Node42&#45;&gt;Node43</title>
<path fill="none" stroke="midnightblue" d="M138.366,-38.1407C146.941,-39.209 155.564,-40.2834 163.801,-41.3097"/>
<polygon fill="midnightblue" stroke="midnightblue" points="138.705,-34.6559 128.349,-36.8926 137.839,-41.6022 138.705,-34.6559"/>
</g>
<!-- Node45 -->
<g id="node4" class="node"><title>Node45</title>
<g id="a_node4"><a xlink:href="class_go___solver.html#ab2a2c57a24b076a6729e01504ef25377" target="_top" xlink:title="Go_Solver::setTarget">
<polygon fill="none" stroke="black" points="165,-0.5 165,-19.5 272,-19.5 272,-0.5 165,-0.5"/>
<text text-anchor="middle" x="218.5" y="-7.5" font-family="Helvetica,sans-Serif" font-size="10.00">Go_Solver::setTarget</text>
</a>
</g>
</g>
<!-- Node42&#45;&gt;Node45 -->
<g id="edge3" class="edge"><title>Node42&#45;&gt;Node45</title>
<path fill="none" stroke="midnightblue" d="M138.358,-19.8603C147.267,-18.7504 156.228,-17.6339 164.755,-16.5716"/>
<polygon fill="midnightblue" stroke="midnightblue" points="137.839,-16.3978 128.349,-21.1074 138.705,-23.3441 137.839,-16.3978"/>
</g>
<!-- Node44 -->
<g id="node3" class="node"><title>Node44</title>
<g id="a_node3"><a xlink:href="class_go___solver.html#a6ca744f1f4586c3f90f2e47915034baf" target="_top" xlink:title="Go_Solver::launchTsumego">
<polygon fill="none" stroke="black" points="309,-38.5 309,-57.5 444,-57.5 444,-38.5 309,-38.5"/>
<text text-anchor="middle" x="376.5" y="-45.5" font-family="Helvetica,sans-Serif" font-size="10.00">Go_Solver::launchTsumego</text>
</a>
</g>
</g>
<!-- Node43&#45;&gt;Node44 -->
<g id="edge2" class="edge"><title>Node43&#45;&gt;Node44</title>
<path fill="none" stroke="midnightblue" d="M283.29,-48C291.688,-48 300.313,-48 308.759,-48"/>
<polygon fill="midnightblue" stroke="midnightblue" points="283.186,-44.5001 273.186,-48 283.186,-51.5001 283.186,-44.5001"/>
</g>
</g>
</svg>
