<?xml version="1.0" encoding="UTF-8" standalone="no"?>
<!DOCTYPE svg PUBLIC "-//W3C//DTD SVG 1.1//EN"
 "http://www.w3.org/Graphics/SVG/1.1/DTD/svg11.dtd">
<!-- Generated by graphviz version 2.38.0 (20140413.2041)
 -->
<!-- Title: Go_Solver::setTarget Pages: 1 -->
<svg width="405pt" height="66pt"
 viewBox="0.00 0.00 405.00 66.00" xmlns="http://www.w3.org/2000/svg" xmlns:xlink="http://www.w3.org/1999/xlink">
<g id="graph0" class="graph" transform="scale(1 1) rotate(0) translate(4 62)">
<title>Go_Solver::setTarget</title>
<!-- Node132 -->
<g id="node1" class="node"><title>Node132</title>
<polygon fill="#bfbfbf" stroke="black" points="0,-19.5 0,-38.5 107,-38.5 107,-19.5 0,-19.5"/>
<text text-anchor="middle" x="53.5" y="-26.5" font-family="Helvetica,sans-Serif" font-size="10.00">Go_Solver::setTarget</text>
</g>
<!-- Node133 -->
<g id="node2" class="node"><title>Node133</title>
<g id="a_node2"><a xlink:href="class_game__window.html#a782f1aca3d28de1350375b10459073d4" target="_top" xlink:title="Game_window::getGoban">
<polygon fill="none" stroke="black" points="143,-38.5 143,-57.5 271,-57.5 271,-38.5 143,-38.5"/>
<text text-anchor="middle" x="207" y="-45.5" font-family="Helvetica,sans-Serif" font-size="10.00">Game_window::getGoban</text>
</a>
</g>
</g>
<!-- Node132&#45;&gt;Node133 -->
<g id="edge1" class="edge"><title>Node132&#45;&gt;Node133</title>
<path fill="none" stroke="midnightblue" d="M107.062,-35.592C115.355,-36.6319 124.058,-37.7234 132.717,-38.8094"/>
<polygon fill="midnightblue" stroke="midnightblue" points="132.478,-42.3068 142.836,-40.0785 133.35,-35.3612 132.478,-42.3068"/>
</g>
<!-- Node135 -->
<g id="node4" class="node"><title>Node135</title>
<g id="a_node4"><a xlink:href="class_goban.html#a29aaf8df380fe614845d48cba057747c" target="_top" xlink:title="Goban::coord">
<polygon fill="none" stroke="black" points="169.5,-0.5 169.5,-19.5 244.5,-19.5 244.5,-0.5 169.5,-0.5"/>
<text text-anchor="middle" x="207" y="-7.5" font-family="Helvetica,sans-Serif" font-size="10.00">Goban::coord</text>
</a>
</g>
</g>
<!-- Node132&#45;&gt;Node135 -->
<g id="edge3" class="edge"><title>Node132&#45;&gt;Node135</title>
<path fill="none" stroke="midnightblue" d="M107.062,-22.408C124.048,-20.2778 142.755,-17.9317 159.288,-15.8583"/>
<polygon fill="midnightblue" stroke="midnightblue" points="159.779,-19.3242 169.266,-14.6069 158.908,-12.3786 159.779,-19.3242"/>
</g>
<!-- Node134 -->
<g id="node3" class="node"><title>Node134</title>
<g id="a_node3"><a xlink:href="class_board.html#a19af96f42f5c38336010da2983abbf5c" target="_top" xlink:title="Board::getGoban">
<polygon fill="none" stroke="black" points="307,-38.5 307,-57.5 397,-57.5 397,-38.5 307,-38.5"/>
<text text-anchor="middle" x="352" y="-45.5" font-family="Helvetica,sans-Serif" font-size="10.00">Board::getGoban</text>
</a>
</g>
</g>
<!-- Node133&#45;&gt;Node134 -->
<g id="edge2" class="edge"><title>Node133&#45;&gt;Node134</title>
<path fill="none" stroke="midnightblue" d="M271.138,-48C279.555,-48 288.129,-48 296.385,-48"/>
<polygon fill="midnightblue" stroke="midnightblue" points="296.636,-51.5001 306.636,-48 296.635,-44.5001 296.636,-51.5001"/>
</g>
</g>
</svg>
