<?xml version="1.0" encoding="UTF-8" standalone="no"?>
<!DOCTYPE svg PUBLIC "-//W3C//DTD SVG 1.1//EN"
 "http://www.w3.org/Graphics/SVG/1.1/DTD/svg11.dtd">
<!-- Generated by graphviz version 2.38.0 (20140413.2041)
 -->
<!-- Title: Game_window::turnSoundsUp Pages: 1 -->
<svg width="432pt" height="66pt"
 viewBox="0.00 0.00 432.00 66.00" xmlns="http://www.w3.org/2000/svg" xmlns:xlink="http://www.w3.org/1999/xlink">
<g id="graph0" class="graph" transform="scale(1 1) rotate(0) translate(4 62)">
<title>Game_window::turnSoundsUp</title>
<!-- Node117 -->
<g id="node1" class="node"><title>Node117</title>
<polygon fill="#bfbfbf" stroke="black" points="0,-19.5 0,-38.5 147,-38.5 147,-19.5 0,-19.5"/>
<text text-anchor="middle" x="73.5" y="-26.5" font-family="Helvetica,sans-Serif" font-size="10.00">Game_window::turnSoundsUp</text>
</g>
<!-- Node118 -->
<g id="node2" class="node"><title>Node118</title>
<g id="a_node2"><a xlink:href="class_board.html#a77d145afa8d71a85c4097aca08c30525" target="_top" xlink:title="Board::turnSoundsUp">
<polygon fill="none" stroke="black" points="183,-19.5 183,-38.5 293,-38.5 293,-19.5 183,-19.5"/>
<text text-anchor="middle" x="238" y="-26.5" font-family="Helvetica,sans-Serif" font-size="10.00">Board::turnSoundsUp</text>
</a>
</g>
</g>
<!-- Node117&#45;&gt;Node118 -->
<g id="edge1" class="edge"><title>Node117&#45;&gt;Node118</title>
<path fill="none" stroke="midnightblue" d="M147.195,-29C155.726,-29 164.384,-29 172.788,-29"/>
<polygon fill="midnightblue" stroke="midnightblue" points="172.886,-32.5001 182.886,-29 172.886,-25.5001 172.886,-32.5001"/>
</g>
<!-- Node119 -->
<g id="node3" class="node"><title>Node119</title>
<g id="a_node3"><a xlink:href="class_board.html#a061962e73609a58802ad83674ec9b413" target="_top" xlink:title="Board::getVolume">
<polygon fill="none" stroke="black" points="329,-38.5 329,-57.5 424,-57.5 424,-38.5 329,-38.5"/>
<text text-anchor="middle" x="376.5" y="-45.5" font-family="Helvetica,sans-Serif" font-size="10.00">Board::getVolume</text>
</a>
</g>
</g>
<!-- Node118&#45;&gt;Node119 -->
<g id="edge2" class="edge"><title>Node118&#45;&gt;Node119</title>
<path fill="none" stroke="midnightblue" d="M293.341,-36.5639C301.692,-37.7263 310.333,-38.9292 318.735,-40.0987"/>
<polygon fill="midnightblue" stroke="midnightblue" points="318.443,-43.5917 328.83,-41.5038 319.408,-36.6585 318.443,-43.5917"/>
</g>
<!-- Node120 -->
<g id="node4" class="node"><title>Node120</title>
<g id="a_node4"><a xlink:href="class_board.html#a4450fe85fda29736cd835fed63d40a41" target="_top" xlink:title="Board::setVolume">
<polygon fill="none" stroke="black" points="329,-0.5 329,-19.5 424,-19.5 424,-0.5 329,-0.5"/>
<text text-anchor="middle" x="376.5" y="-7.5" font-family="Helvetica,sans-Serif" font-size="10.00">Board::setVolume</text>
</a>
</g>
</g>
<!-- Node118&#45;&gt;Node120 -->
<g id="edge3" class="edge"><title>Node118&#45;&gt;Node120</title>
<path fill="none" stroke="midnightblue" d="M293.341,-21.4361C301.692,-20.2737 310.333,-19.0708 318.735,-17.9013"/>
<polygon fill="midnightblue" stroke="midnightblue" points="319.408,-21.3415 328.83,-16.4962 318.443,-14.4083 319.408,-21.3415"/>
</g>
</g>
</svg>
