<?xml version="1.0" encoding="UTF-8" standalone="no"?>
<!DOCTYPE svg PUBLIC "-//W3C//DTD SVG 1.1//EN"
 "http://www.w3.org/Graphics/SVG/1.1/DTD/svg11.dtd">
<!-- Generated by graphviz version 2.38.0 (20140413.2041)
 -->
<!-- Title: IA::Tsumego_compresse Pages: 1 -->
<svg width="358pt" height="446pt"
 viewBox="0.00 0.00 358.00 446.00" xmlns="http://www.w3.org/2000/svg" xmlns:xlink="http://www.w3.org/1999/xlink">
<g id="graph0" class="graph" transform="scale(1 1) rotate(0) translate(4 442)">
<title>IA::Tsumego_compresse</title>
<!-- Node76 -->
<g id="node1" class="node"><title>Node76</title>
<polygon fill="#bfbfbf" stroke="black" points="0,-209.5 0,-228.5 125,-228.5 125,-209.5 0,-209.5"/>
<text text-anchor="middle" x="62.5" y="-216.5" font-family="Helvetica,sans-Serif" font-size="10.00">IA::Tsumego_compresse</text>
</g>
<!-- Node77 -->
<g id="node2" class="node"><title>Node77</title>
<g id="a_node2"><a xlink:href="class_arbre.html#a0aef1f091d76bca13229a21fcd45a076" target="_top" xlink:title="Arbre::getNbF">
<polygon fill="none" stroke="black" points="164.5,-418.5 164.5,-437.5 241.5,-437.5 241.5,-418.5 164.5,-418.5"/>
<text text-anchor="middle" x="203" y="-425.5" font-family="Helvetica,sans-Serif" font-size="10.00">Arbre::getNbF</text>
</a>
</g>
</g>
<!-- Node76&#45;&gt;Node77 -->
<g id="edge1" class="edge"><title>Node76&#45;&gt;Node77</title>
<path fill="none" stroke="midnightblue" d="M66.008,-228.65C74.371,-259.089 104.049,-354.291 161,-409 162.443,-410.386 164.005,-411.684 165.648,-412.899"/>
<polygon fill="midnightblue" stroke="midnightblue" points="164.02,-416.007 174.366,-418.289 167.701,-410.053 164.02,-416.007"/>
</g>
<!-- Node78 -->
<g id="node3" class="node"><title>Node78</title>
<g id="a_node3"><a xlink:href="class_arbre.html#ae9d294f541cec5e5fac9ccd8fe8496ee" target="_top" xlink:title="Arbre::getGob">
<polygon fill="none" stroke="black" points="164.5,-380.5 164.5,-399.5 241.5,-399.5 241.5,-380.5 164.5,-380.5"/>
<text text-anchor="middle" x="203" y="-387.5" font-family="Helvetica,sans-Serif" font-size="10.00">Arbre::getGob</text>
</a>
</g>
</g>
<!-- Node76&#45;&gt;Node78 -->
<g id="edge2" class="edge"><title>Node76&#45;&gt;Node78</title>
<path fill="none" stroke="midnightblue" d="M67.3145,-228.507C78.2051,-254.583 111.854,-328.138 161,-371 162.729,-372.508 164.599,-373.92 166.554,-375.237"/>
<polygon fill="midnightblue" stroke="midnightblue" points="165.095,-378.437 175.503,-380.417 168.601,-372.379 165.095,-378.437"/>
</g>
<!-- Node79 -->
<g id="node4" class="node"><title>Node79</title>
<g id="a_node4"><a xlink:href="class_goban.html#a29aaf8df380fe614845d48cba057747c" target="_top" xlink:title="Goban::coord">
<polygon fill="none" stroke="black" points="165.5,-342.5 165.5,-361.5 240.5,-361.5 240.5,-342.5 165.5,-342.5"/>
<text text-anchor="middle" x="203" y="-349.5" font-family="Helvetica,sans-Serif" font-size="10.00">Goban::coord</text>
</a>
</g>
</g>
<!-- Node76&#45;&gt;Node79 -->
<g id="edge3" class="edge"><title>Node76&#45;&gt;Node79</title>
<path fill="none" stroke="midnightblue" d="M69.7058,-228.782C83.6924,-250.173 119.699,-301.694 161,-333 163.079,-334.576 165.309,-336.063 167.617,-337.457"/>
<polygon fill="midnightblue" stroke="midnightblue" points="166.278,-340.712 176.742,-342.371 169.597,-334.548 166.278,-340.712"/>
</g>
<!-- Node80 -->
<g id="node5" class="node"><title>Node80</title>
<g id="a_node5"><a xlink:href="class_etat.html#aa25e66b110bc835523819392435e78c6" target="_top" xlink:title="Etat::getX">
<polygon fill="none" stroke="black" points="173.5,-304.5 173.5,-323.5 232.5,-323.5 232.5,-304.5 173.5,-304.5"/>
<text text-anchor="middle" x="203" y="-311.5" font-family="Helvetica,sans-Serif" font-size="10.00">Etat::getX</text>
</a>
</g>
</g>
<!-- Node76&#45;&gt;Node80 -->
<g id="edge4" class="edge"><title>Node76&#45;&gt;Node80</title>
<path fill="none" stroke="midnightblue" d="M74.0186,-228.521C91.284,-243.836 127.11,-274.314 161,-295 163.812,-296.717 166.806,-298.382 169.845,-299.965"/>
<polygon fill="midnightblue" stroke="midnightblue" points="168.445,-303.177 178.964,-304.444 171.531,-296.894 168.445,-303.177"/>
</g>
<!-- Node81 -->
<g id="node6" class="node"><title>Node81</title>
<g id="a_node6"><a xlink:href="class_etat.html#a3e3e915f2261c83989a983e84b1273c1" target="_top" xlink:title="Etat::getY">
<polygon fill="none" stroke="black" points="172.5,-266.5 172.5,-285.5 233.5,-285.5 233.5,-266.5 172.5,-266.5"/>
<text text-anchor="middle" x="203" y="-273.5" font-family="Helvetica,sans-Serif" font-size="10.00">Etat::getY</text>
</a>
</g>
</g>
<!-- Node76&#45;&gt;Node81 -->
<g id="edge5" class="edge"><title>Node76&#45;&gt;Node81</title>
<path fill="none" stroke="midnightblue" d="M86.6818,-228.541C109.252,-237.829 143.771,-252.036 169.163,-262.486"/>
<polygon fill="midnightblue" stroke="midnightblue" points="168.163,-265.859 178.743,-266.428 170.827,-259.386 168.163,-265.859"/>
</g>
<!-- Node82 -->
<g id="node7" class="node"><title>Node82</title>
<g id="a_node7"><a xlink:href="class_etat.html#ac0b81bbcf64cb3cc574e5a9dcdf94382" target="_top" xlink:title="Etat::getVal">
<polygon fill="none" stroke="black" points="169,-228.5 169,-247.5 237,-247.5 237,-228.5 169,-228.5"/>
<text text-anchor="middle" x="203" y="-235.5" font-family="Helvetica,sans-Serif" font-size="10.00">Etat::getVal</text>
</a>
</g>
</g>
<!-- Node76&#45;&gt;Node82 -->
<g id="edge6" class="edge"><title>Node76&#45;&gt;Node82</title>
<path fill="none" stroke="midnightblue" d="M125.055,-227.444C136.442,-229.007 148.111,-230.607 158.809,-232.075"/>
<polygon fill="midnightblue" stroke="midnightblue" points="158.344,-235.544 168.727,-233.435 159.295,-228.609 158.344,-235.544"/>
</g>
<!-- Node83 -->
<g id="node8" class="node"><title>Node83</title>
<g id="a_node8"><a xlink:href="class_arbre.html#aeaa93d0b192e3cce04adb509b6b29c40" target="_top" xlink:title="Arbre::getValue">
<polygon fill="none" stroke="black" points="161,-190.5 161,-209.5 245,-209.5 245,-190.5 161,-190.5"/>
<text text-anchor="middle" x="203" y="-197.5" font-family="Helvetica,sans-Serif" font-size="10.00">Arbre::getValue</text>
</a>
</g>
</g>
<!-- Node76&#45;&gt;Node83 -->
<g id="edge7" class="edge"><title>Node76&#45;&gt;Node83</title>
<path fill="none" stroke="midnightblue" d="M125.055,-210.556C133.684,-209.372 142.474,-208.166 150.881,-207.013"/>
<polygon fill="midnightblue" stroke="midnightblue" points="151.477,-210.464 160.908,-205.637 150.525,-203.529 151.477,-210.464"/>
</g>
<!-- Node84 -->
<g id="node9" class="node"><title>Node84</title>
<g id="a_node9"><a xlink:href="class_arbre.html#a051e5328c63ba7ab6f6359f9f2f77105" target="_top" xlink:title="Arbre::setInfo">
<polygon fill="none" stroke="black" points="166,-152.5 166,-171.5 240,-171.5 240,-152.5 166,-152.5"/>
<text text-anchor="middle" x="203" y="-159.5" font-family="Helvetica,sans-Serif" font-size="10.00">Arbre::setInfo</text>
</a>
</g>
</g>
<!-- Node76&#45;&gt;Node84 -->
<g id="edge8" class="edge"><title>Node76&#45;&gt;Node84</title>
<path fill="none" stroke="midnightblue" d="M86.6818,-209.459C109.252,-200.171 143.771,-185.964 169.163,-175.514"/>
<polygon fill="midnightblue" stroke="midnightblue" points="170.827,-178.614 178.743,-171.572 168.163,-172.141 170.827,-178.614"/>
</g>
<!-- Node85 -->
<g id="node10" class="node"><title>Node85</title>
<g id="a_node10"><a xlink:href="class_arbre.html#afc71a182e86352b06193c2dc746fab79" target="_top" xlink:title="Arbre::getInfo">
<polygon fill="none" stroke="black" points="166,-114.5 166,-133.5 240,-133.5 240,-114.5 166,-114.5"/>
<text text-anchor="middle" x="203" y="-121.5" font-family="Helvetica,sans-Serif" font-size="10.00">Arbre::getInfo</text>
</a>
</g>
</g>
<!-- Node76&#45;&gt;Node85 -->
<g id="edge9" class="edge"><title>Node76&#45;&gt;Node85</title>
<path fill="none" stroke="midnightblue" d="M74.0186,-209.479C91.284,-194.164 127.11,-163.686 161,-143 163.812,-141.283 166.806,-139.618 169.845,-138.035"/>
<polygon fill="midnightblue" stroke="midnightblue" points="171.531,-141.106 178.964,-133.556 168.445,-134.823 171.531,-141.106"/>
</g>
<!-- Node86 -->
<g id="node11" class="node"><title>Node86</title>
<g id="a_node11"><a xlink:href="class_arbre.html#aceca304216a7f620926c2147c7c84acd" target="_top" xlink:title="Arbre::setFilsA">
<polygon fill="none" stroke="black" points="162,-76.5 162,-95.5 244,-95.5 244,-76.5 162,-76.5"/>
<text text-anchor="middle" x="203" y="-83.5" font-family="Helvetica,sans-Serif" font-size="10.00">Arbre::setFilsA</text>
</a>
</g>
</g>
<!-- Node76&#45;&gt;Node86 -->
<g id="edge10" class="edge"><title>Node76&#45;&gt;Node86</title>
<path fill="none" stroke="midnightblue" d="M69.7058,-209.218C83.6924,-187.827 119.699,-136.306 161,-105 163.079,-103.424 165.309,-101.937 167.617,-100.543"/>
<polygon fill="midnightblue" stroke="midnightblue" points="169.597,-103.452 176.742,-95.6287 166.278,-97.2883 169.597,-103.452"/>
</g>
<!-- Node88 -->
<g id="node13" class="node"><title>Node88</title>
<g id="a_node13"><a xlink:href="class_arbre.html#ab8761bfdaadb8d6846199f269c6bbbc4" target="_top" xlink:title="Arbre::at">
<polygon fill="none" stroke="black" points="176,-38.5 176,-57.5 230,-57.5 230,-38.5 176,-38.5"/>
<text text-anchor="middle" x="203" y="-45.5" font-family="Helvetica,sans-Serif" font-size="10.00">Arbre::at</text>
</a>
</g>
</g>
<!-- Node76&#45;&gt;Node88 -->
<g id="edge12" class="edge"><title>Node76&#45;&gt;Node88</title>
<path fill="none" stroke="midnightblue" d="M67.3145,-209.493C78.2051,-183.417 111.854,-109.862 161,-67 162.914,-65.3306 165,-63.7795 167.183,-62.3436"/>
<polygon fill="midnightblue" stroke="midnightblue" points="168.968,-65.3548 175.931,-57.3691 165.508,-59.2698 168.968,-65.3548"/>
</g>
<!-- Node89 -->
<g id="node14" class="node"><title>Node89</title>
<g id="a_node14"><a xlink:href="class_arbre.html#af2b7629b3686bcf3e49f737adb3b2d24" target="_top" xlink:title="Arbre::getFilsA">
<polygon fill="none" stroke="black" points="162,-0.5 162,-19.5 244,-19.5 244,-0.5 162,-0.5"/>
<text text-anchor="middle" x="203" y="-7.5" font-family="Helvetica,sans-Serif" font-size="10.00">Arbre::getFilsA</text>
</a>
</g>
</g>
<!-- Node76&#45;&gt;Node89 -->
<g id="edge13" class="edge"><title>Node76&#45;&gt;Node89</title>
<path fill="none" stroke="midnightblue" d="M66.008,-209.35C74.371,-178.911 104.049,-83.7085 161,-29 162.443,-27.6141 164.005,-26.3158 165.648,-25.1013"/>
<polygon fill="midnightblue" stroke="midnightblue" points="167.701,-27.947 174.366,-19.7111 164.02,-21.9931 167.701,-27.947"/>
</g>
<!-- Node87 -->
<g id="node12" class="node"><title>Node87</title>
<g id="a_node12"><a xlink:href="class_arbre.html#a761f4a2c6a43f44b38d4ac6fc1cf5cae" target="_top" xlink:title="Arbre::Arbre">
<polygon fill="none" stroke="black" points="281,-76.5 281,-95.5 350,-95.5 350,-76.5 281,-76.5"/>
<text text-anchor="middle" x="315.5" y="-83.5" font-family="Helvetica,sans-Serif" font-size="10.00">Arbre::Arbre</text>
</a>
</g>
</g>
<!-- Node86&#45;&gt;Node87 -->
<g id="edge11" class="edge"><title>Node86&#45;&gt;Node87</title>
<path fill="none" stroke="midnightblue" d="M244.206,-86C252.81,-86 261.942,-86 270.675,-86"/>
<polygon fill="midnightblue" stroke="midnightblue" points="270.688,-89.5001 280.688,-86 270.688,-82.5001 270.688,-89.5001"/>
</g>
</g>
</svg>
