<?xml version="1.0" encoding="UTF-8" standalone="no"?>
<!DOCTYPE svg PUBLIC "-//W3C//DTD SVG 1.1//EN"
 "http://www.w3.org/Graphics/SVG/1.1/DTD/svg11.dtd">
<!-- Generated by graphviz version 2.38.0 (20140413.2041)
 -->
<!-- Title: Goban::isSuicide Pages: 1 -->
<svg width="829pt" height="332pt"
 viewBox="0.00 0.00 829.00 332.00" xmlns="http://www.w3.org/2000/svg" xmlns:xlink="http://www.w3.org/1999/xlink">
<g id="graph0" class="graph" transform="scale(1 1) rotate(0) translate(4 328)">
<title>Goban::isSuicide</title>
<!-- Node174 -->
<g id="node1" class="node"><title>Node174</title>
<polygon fill="#bfbfbf" stroke="black" points="0,-152.5 0,-171.5 91,-171.5 91,-152.5 0,-152.5"/>
<text text-anchor="middle" x="45.5" y="-159.5" font-family="Helvetica,sans-Serif" font-size="10.00">Goban::isSuicide</text>
</g>
<!-- Node175 -->
<g id="node2" class="node"><title>Node175</title>
<g id="a_node2"><a xlink:href="class_etat.html#ac0b81bbcf64cb3cc574e5a9dcdf94382" target="_top" xlink:title="Etat::getVal">
<polygon fill="none" stroke="black" points="163,-304.5 163,-323.5 231,-323.5 231,-304.5 163,-304.5"/>
<text text-anchor="middle" x="197" y="-311.5" font-family="Helvetica,sans-Serif" font-size="10.00">Etat::getVal</text>
</a>
</g>
</g>
<!-- Node174&#45;&gt;Node175 -->
<g id="edge1" class="edge"><title>Node174&#45;&gt;Node175</title>
<path fill="none" stroke="midnightblue" d="M49.9276,-171.571C58.8568,-195.173 85.0925,-256.658 127,-290 134.661,-296.095 143.975,-300.697 153.249,-304.151"/>
<polygon fill="midnightblue" stroke="midnightblue" points="152.234,-307.502 162.827,-307.35 154.451,-300.862 152.234,-307.502"/>
</g>
<!-- Node176 -->
<g id="node3" class="node"><title>Node176</title>
<g id="a_node3"><a xlink:href="class_goban.html#a84f36324eb9ddc29f522d481f04c13e7" target="_top" xlink:title="Goban::listOfLiberties">
<polygon fill="none" stroke="black" points="464,-228.5 464,-247.5 574,-247.5 574,-228.5 464,-228.5"/>
<text text-anchor="middle" x="519" y="-235.5" font-family="Helvetica,sans-Serif" font-size="10.00">Goban::listOfLiberties</text>
</a>
</g>
</g>
<!-- Node174&#45;&gt;Node176 -->
<g id="edge2" class="edge"><title>Node174&#45;&gt;Node176</title>
<path fill="none" stroke="midnightblue" d="M57.2694,-171.594C71.8775,-183.95 99.3381,-204.912 127,-214 237.377,-250.262 374.555,-248.815 453.614,-243.839"/>
<polygon fill="midnightblue" stroke="midnightblue" points="454.16,-247.311 463.904,-243.151 453.692,-240.326 454.16,-247.311"/>
</g>
<!-- Node177 -->
<g id="node4" class="node"><title>Node177</title>
<g id="a_node4"><a xlink:href="class_etat.html#aa25e66b110bc835523819392435e78c6" target="_top" xlink:title="Etat::getX">
<polygon fill="none" stroke="black" points="635.5,-266.5 635.5,-285.5 694.5,-285.5 694.5,-266.5 635.5,-266.5"/>
<text text-anchor="middle" x="665" y="-273.5" font-family="Helvetica,sans-Serif" font-size="10.00">Etat::getX</text>
</a>
</g>
</g>
<!-- Node174&#45;&gt;Node177 -->
<g id="edge13" class="edge"><title>Node174&#45;&gt;Node177</title>
<path fill="none" stroke="midnightblue" d="M52.8861,-171.619C64.9974,-188.953 93.1454,-225.105 127,-241 298.006,-321.288 533.899,-296.578 625.484,-282.648"/>
<polygon fill="midnightblue" stroke="midnightblue" points="626.08,-286.098 635.418,-281.093 624.997,-279.182 626.08,-286.098"/>
</g>
<!-- Node178 -->
<g id="node5" class="node"><title>Node178</title>
<g id="a_node5"><a xlink:href="class_etat.html#a3e3e915f2261c83989a983e84b1273c1" target="_top" xlink:title="Etat::getY">
<polygon fill="none" stroke="black" points="634.5,-190.5 634.5,-209.5 695.5,-209.5 695.5,-190.5 634.5,-190.5"/>
<text text-anchor="middle" x="665" y="-197.5" font-family="Helvetica,sans-Serif" font-size="10.00">Etat::getY</text>
</a>
</g>
</g>
<!-- Node174&#45;&gt;Node178 -->
<g id="edge14" class="edge"><title>Node174&#45;&gt;Node178</title>
<path fill="none" stroke="midnightblue" d="M80.3013,-171.538C94.5909,-175.162 111.487,-178.915 127,-181 311.575,-205.802 534.841,-203.476 624.209,-201.249"/>
<polygon fill="midnightblue" stroke="midnightblue" points="624.528,-204.742 634.432,-200.98 624.344,-197.745 624.528,-204.742"/>
</g>
<!-- Node184 -->
<g id="node11" class="node"><title>Node184</title>
<g id="a_node11"><a xlink:href="class_goban.html#a0a8ed1098b25c0c42cb5faadaa0605d4" target="_top" xlink:title="Goban::getGroupsBlack">
<polygon fill="none" stroke="black" points="136.5,-76.5 136.5,-95.5 257.5,-95.5 257.5,-76.5 136.5,-76.5"/>
<text text-anchor="middle" x="197" y="-83.5" font-family="Helvetica,sans-Serif" font-size="10.00">Goban::getGroupsBlack</text>
</a>
</g>
</g>
<!-- Node174&#45;&gt;Node184 -->
<g id="edge10" class="edge"><title>Node174&#45;&gt;Node184</title>
<path fill="none" stroke="midnightblue" d="M59.3176,-152.339C74.7432,-141.046 101.732,-122.335 127,-110 135.454,-105.873 144.801,-102.123 153.815,-98.8777"/>
<polygon fill="midnightblue" stroke="midnightblue" points="155.099,-102.137 163.406,-95.5603 152.811,-95.5213 155.099,-102.137"/>
</g>
<!-- Node185 -->
<g id="node12" class="node"><title>Node185</title>
<g id="a_node12"><a xlink:href="class_goban.html#a0d5ecea357ff85e7d08f2c0855d83e6b" target="_top" xlink:title="Goban::getGroupsWhite">
<polygon fill="none" stroke="black" points="136,-38.5 136,-57.5 258,-57.5 258,-38.5 136,-38.5"/>
<text text-anchor="middle" x="197" y="-45.5" font-family="Helvetica,sans-Serif" font-size="10.00">Goban::getGroupsWhite</text>
</a>
</g>
</g>
<!-- Node174&#45;&gt;Node185 -->
<g id="edge11" class="edge"><title>Node174&#45;&gt;Node185</title>
<path fill="none" stroke="midnightblue" d="M51.9817,-152.253C63.3604,-132.932 91.4701,-89.6868 127,-67 130.322,-64.879 133.879,-62.992 137.564,-61.3134"/>
<polygon fill="midnightblue" stroke="midnightblue" points="138.945,-64.5304 146.921,-57.5559 136.337,-58.0345 138.945,-64.5304"/>
</g>
<!-- Node186 -->
<g id="node13" class="node"><title>Node186</title>
<g id="a_node13"><a xlink:href="class_goban.html#a29aaf8df380fe614845d48cba057747c" target="_top" xlink:title="Goban::coord">
<polygon fill="none" stroke="black" points="481.5,-38.5 481.5,-57.5 556.5,-57.5 556.5,-38.5 481.5,-38.5"/>
<text text-anchor="middle" x="519" y="-45.5" font-family="Helvetica,sans-Serif" font-size="10.00">Goban::coord</text>
</a>
</g>
</g>
<!-- Node174&#45;&gt;Node186 -->
<g id="edge12" class="edge"><title>Node174&#45;&gt;Node186</title>
<path fill="none" stroke="midnightblue" d="M85.8888,-152.477C172.395,-131.561 378.637,-81.6954 471.397,-59.2677"/>
<polygon fill="midnightblue" stroke="midnightblue" points="472.441,-62.6162 481.339,-56.864 470.796,-55.8122 472.441,-62.6162"/>
</g>
<!-- Node187 -->
<g id="node14" class="node"><title>Node187</title>
<g id="a_node14"><a xlink:href="class_goban.html#a8584a53688e7bcf9de7c4cf48454acdc" target="_top" xlink:title="Goban::rechercheGroupes">
<polygon fill="none" stroke="black" points="131.5,-0.5 131.5,-19.5 262.5,-19.5 262.5,-0.5 131.5,-0.5"/>
<text text-anchor="middle" x="197" y="-7.5" font-family="Helvetica,sans-Serif" font-size="10.00">Goban::rechercheGroupes</text>
</a>
</g>
</g>
<!-- Node174&#45;&gt;Node187 -->
<g id="edge15" class="edge"><title>Node174&#45;&gt;Node187</title>
<path fill="none" stroke="midnightblue" d="M49.5577,-152.242C57.7973,-127.586 82.8725,-62.3797 127,-29 129.496,-27.112 132.169,-25.4116 134.959,-23.8801"/>
<polygon fill="midnightblue" stroke="midnightblue" points="136.636,-26.9594 144.201,-19.5412 133.661,-20.6231 136.636,-26.9594"/>
</g>
<!-- Node188 -->
<g id="node15" class="node"><title>Node188</title>
<g id="a_node15"><a xlink:href="class_goban.html#a7858b815885e4af36f05f9d26182cb07" target="_top" xlink:title="Goban::eliminateOppGroups">
<polygon fill="none" stroke="black" points="127,-152.5 127,-171.5 267,-171.5 267,-152.5 127,-152.5"/>
<text text-anchor="middle" x="197" y="-159.5" font-family="Helvetica,sans-Serif" font-size="10.00">Goban::eliminateOppGroups</text>
</a>
</g>
</g>
<!-- Node174&#45;&gt;Node188 -->
<g id="edge16" class="edge"><title>Node174&#45;&gt;Node188</title>
<path fill="none" stroke="midnightblue" d="M91.3549,-162C99.3913,-162 107.98,-162 116.651,-162"/>
<polygon fill="midnightblue" stroke="midnightblue" points="116.84,-165.5 126.84,-162 116.84,-158.5 116.84,-165.5"/>
</g>
<!-- Node176&#45;&gt;Node177 -->
<g id="edge3" class="edge"><title>Node176&#45;&gt;Node177</title>
<path fill="none" stroke="midnightblue" d="M556.337,-247.589C577.484,-253.169 604.121,-260.199 625.609,-265.869"/>
<polygon fill="midnightblue" stroke="midnightblue" points="624.827,-269.282 635.389,-268.45 626.613,-262.514 624.827,-269.282"/>
</g>
<!-- Node176&#45;&gt;Node178 -->
<g id="edge4" class="edge"><title>Node176&#45;&gt;Node178</title>
<path fill="none" stroke="midnightblue" d="M556.337,-228.411C577.196,-222.907 603.397,-215.992 624.729,-210.363"/>
<polygon fill="midnightblue" stroke="midnightblue" points="625.682,-213.732 634.458,-207.796 623.895,-206.963 625.682,-213.732"/>
</g>
<!-- Node179 -->
<g id="node6" class="node"><title>Node179</title>
<g id="a_node6"><a xlink:href="class_goban.html#a0e2596110cdbb9b007b2b2fd8d5a9973" target="_top" xlink:title="Goban::DefineStone">
<polygon fill="none" stroke="black" points="613,-228.5 613,-247.5 717,-247.5 717,-228.5 613,-228.5"/>
<text text-anchor="middle" x="665" y="-235.5" font-family="Helvetica,sans-Serif" font-size="10.00">Goban::DefineStone</text>
</a>
</g>
</g>
<!-- Node176&#45;&gt;Node179 -->
<g id="edge5" class="edge"><title>Node176&#45;&gt;Node179</title>
<path fill="none" stroke="midnightblue" d="M574.03,-238C583.29,-238 592.974,-238 602.413,-238"/>
<polygon fill="midnightblue" stroke="midnightblue" points="602.529,-241.5 612.529,-238 602.529,-234.5 602.529,-241.5"/>
</g>
<!-- Node180 -->
<g id="node7" class="node"><title>Node180</title>
<g id="a_node7"><a xlink:href="class_etat.html#ac020c4fe222274ac849a03fc8f19a99a" target="_top" xlink:title="Etat::setX">
<polygon fill="none" stroke="black" points="757.5,-266.5 757.5,-285.5 816.5,-285.5 816.5,-266.5 757.5,-266.5"/>
<text text-anchor="middle" x="787" y="-273.5" font-family="Helvetica,sans-Serif" font-size="10.00">Etat::setX</text>
</a>
</g>
</g>
<!-- Node179&#45;&gt;Node180 -->
<g id="edge6" class="edge"><title>Node179&#45;&gt;Node180</title>
<path fill="none" stroke="midnightblue" d="M696.281,-247.589C711.806,-252.505 730.881,-258.546 747.446,-263.791"/>
<polygon fill="midnightblue" stroke="midnightblue" points="746.791,-267.255 757.381,-266.937 748.904,-260.582 746.791,-267.255"/>
</g>
<!-- Node181 -->
<g id="node8" class="node"><title>Node181</title>
<g id="a_node8"><a xlink:href="class_etat.html#a8a54fc9ecb1b97d84d2f1f259e3bf70e" target="_top" xlink:title="Etat::setY">
<polygon fill="none" stroke="black" points="756.5,-228.5 756.5,-247.5 817.5,-247.5 817.5,-228.5 756.5,-228.5"/>
<text text-anchor="middle" x="787" y="-235.5" font-family="Helvetica,sans-Serif" font-size="10.00">Etat::setY</text>
</a>
</g>
</g>
<!-- Node179&#45;&gt;Node181 -->
<g id="edge7" class="edge"><title>Node179&#45;&gt;Node181</title>
<path fill="none" stroke="midnightblue" d="M717.239,-238C726.958,-238 736.992,-238 746.288,-238"/>
<polygon fill="midnightblue" stroke="midnightblue" points="746.415,-241.5 756.415,-238 746.415,-234.5 746.415,-241.5"/>
</g>
<!-- Node182 -->
<g id="node9" class="node"><title>Node182</title>
<g id="a_node9"><a xlink:href="class_etat.html#aa88987ca54aee676717f05e4570c0aec" target="_top" xlink:title="Etat::setVal">
<polygon fill="none" stroke="black" points="753,-152.5 753,-171.5 821,-171.5 821,-152.5 753,-152.5"/>
<text text-anchor="middle" x="787" y="-159.5" font-family="Helvetica,sans-Serif" font-size="10.00">Etat::setVal</text>
</a>
</g>
</g>
<!-- Node179&#45;&gt;Node182 -->
<g id="edge8" class="edge"><title>Node179&#45;&gt;Node182</title>
<path fill="none" stroke="midnightblue" d="M698.374,-228.481C704.81,-225.899 711.326,-222.754 717,-219 736.402,-206.163 734.727,-195.4 753,-181 754.772,-179.604 756.658,-178.242 758.596,-176.931"/>
<polygon fill="midnightblue" stroke="midnightblue" points="760.596,-179.808 767.234,-171.551 756.895,-173.866 760.596,-179.808"/>
</g>
<!-- Node183 -->
<g id="node10" class="node"><title>Node183</title>
<g id="a_node10"><a xlink:href="class_goban.html#a579840586df08a58983f6b497979344b" target="_top" xlink:title="Goban::ctoi">
<polygon fill="none" stroke="black" points="753.5,-190.5 753.5,-209.5 820.5,-209.5 820.5,-190.5 753.5,-190.5"/>
<text text-anchor="middle" x="787" y="-197.5" font-family="Helvetica,sans-Serif" font-size="10.00">Goban::ctoi</text>
</a>
</g>
</g>
<!-- Node179&#45;&gt;Node183 -->
<g id="edge9" class="edge"><title>Node179&#45;&gt;Node183</title>
<path fill="none" stroke="midnightblue" d="M696.281,-228.411C711.346,-223.641 729.754,-217.811 745.967,-212.677"/>
<polygon fill="midnightblue" stroke="midnightblue" points="747.252,-215.942 755.729,-209.586 745.139,-209.268 747.252,-215.942"/>
</g>
<!-- Node189 -->
<g id="node16" class="node"><title>Node189</title>
<g id="a_node16"><a xlink:href="class_goban.html#a1ec70508987f66afff5f8df381731fac" target="_top" xlink:title="Goban::eliminateGroups">
<polygon fill="none" stroke="black" points="303,-152.5 303,-171.5 425,-171.5 425,-152.5 303,-152.5"/>
<text text-anchor="middle" x="364" y="-159.5" font-family="Helvetica,sans-Serif" font-size="10.00">Goban::eliminateGroups</text>
</a>
</g>
</g>
<!-- Node188&#45;&gt;Node189 -->
<g id="edge17" class="edge"><title>Node188&#45;&gt;Node189</title>
<path fill="none" stroke="midnightblue" d="M267.019,-162C275.494,-162 284.165,-162 292.66,-162"/>
<polygon fill="midnightblue" stroke="midnightblue" points="292.91,-165.5 302.91,-162 292.91,-158.5 292.91,-165.5"/>
</g>
<!-- Node189&#45;&gt;Node176 -->
<g id="edge18" class="edge"><title>Node189&#45;&gt;Node176</title>
<path fill="none" stroke="midnightblue" d="M384.378,-171.625C410.934,-184.817 458.827,-208.607 489.482,-223.834"/>
<polygon fill="midnightblue" stroke="midnightblue" points="488.267,-227.139 498.78,-228.453 491.381,-220.869 488.267,-227.139"/>
</g>
<!-- Node189&#45;&gt;Node182 -->
<g id="edge20" class="edge"><title>Node189&#45;&gt;Node182</title>
<path fill="none" stroke="midnightblue" d="M425.319,-162C511.419,-162 667.465,-162 742.888,-162"/>
<polygon fill="midnightblue" stroke="midnightblue" points="742.98,-165.5 752.98,-162 742.98,-158.5 742.98,-165.5"/>
</g>
<!-- Node189&#45;&gt;Node186 -->
<g id="edge19" class="edge"><title>Node189&#45;&gt;Node186</title>
<path fill="none" stroke="midnightblue" d="M401.069,-152.417C409.617,-148.904 418.213,-144.21 425,-138 451.103,-114.117 434.207,-90.1059 461,-67 464.288,-64.1644 468.014,-61.7485 471.948,-59.691"/>
<polygon fill="midnightblue" stroke="midnightblue" points="473.669,-62.7571 481.398,-55.5112 470.837,-56.3553 473.669,-62.7571"/>
</g>
<!-- Node190 -->
<g id="node17" class="node"><title>Node190</title>
<g id="a_node17"><a xlink:href="class_goban.html#a1d3ccccfb3f539e0271ee321686d9ef4" target="_top" xlink:title="Goban::setScoreWhite">
<polygon fill="none" stroke="black" points="461,-114.5 461,-133.5 577,-133.5 577,-114.5 461,-114.5"/>
<text text-anchor="middle" x="519" y="-121.5" font-family="Helvetica,sans-Serif" font-size="10.00">Goban::setScoreWhite</text>
</a>
</g>
</g>
<!-- Node189&#45;&gt;Node190 -->
<g id="edge21" class="edge"><title>Node189&#45;&gt;Node190</title>
<path fill="none" stroke="midnightblue" d="M403.608,-152.411C423.707,-147.419 448.475,-141.268 469.819,-135.967"/>
<polygon fill="midnightblue" stroke="midnightblue" points="470.808,-139.327 479.669,-133.52 469.12,-132.534 470.808,-139.327"/>
</g>
<!-- Node191 -->
<g id="node18" class="node"><title>Node191</title>
<g id="a_node18"><a xlink:href="class_goban.html#a868b44b0c3ebec7ca88082ebe85a2960" target="_top" xlink:title="Goban::setScoreBlack">
<polygon fill="none" stroke="black" points="461.5,-76.5 461.5,-95.5 576.5,-95.5 576.5,-76.5 461.5,-76.5"/>
<text text-anchor="middle" x="519" y="-83.5" font-family="Helvetica,sans-Serif" font-size="10.00">Goban::setScoreBlack</text>
</a>
</g>
</g>
<!-- Node189&#45;&gt;Node191 -->
<g id="edge22" class="edge"><title>Node189&#45;&gt;Node191</title>
<path fill="none" stroke="midnightblue" d="M395.023,-152.429C404.941,-148.64 415.787,-143.792 425,-138 443.376,-126.448 442.293,-116.007 461,-105 464.59,-102.887 468.448,-100.971 472.402,-99.2423"/>
<polygon fill="midnightblue" stroke="midnightblue" points="473.719,-102.485 481.722,-95.542 471.136,-95.9792 473.719,-102.485"/>
</g>
</g>
</svg>
