<?xml version="1.0" encoding="UTF-8" standalone="no"?>
<!DOCTYPE svg PUBLIC "-//W3C//DTD SVG 1.1//EN"
 "http://www.w3.org/Graphics/SVG/1.1/DTD/svg11.dtd">
<!-- Generated by graphviz version 2.38.0 (20140413.2041)
 -->
<!-- Title: Go_Solver::getGoban Pages: 1 -->
<svg width="407pt" height="28pt"
 viewBox="0.00 0.00 407.00 28.00" xmlns="http://www.w3.org/2000/svg" xmlns:xlink="http://www.w3.org/1999/xlink">
<g id="graph0" class="graph" transform="scale(1 1) rotate(0) translate(4 24)">
<title>Go_Solver::getGoban</title>
<!-- Node18 -->
<g id="node1" class="node"><title>Node18</title>
<polygon fill="#bfbfbf" stroke="black" points="0,-0.5 0,-19.5 109,-19.5 109,-0.5 0,-0.5"/>
<text text-anchor="middle" x="54.5" y="-7.5" font-family="Helvetica,sans-Serif" font-size="10.00">Go_Solver::getGoban</text>
</g>
<!-- Node19 -->
<g id="node2" class="node"><title>Node19</title>
<g id="a_node2"><a xlink:href="class_game__window.html#a782f1aca3d28de1350375b10459073d4" target="_top" xlink:title="Game_window::getGoban">
<polygon fill="none" stroke="black" points="145,-0.5 145,-19.5 273,-19.5 273,-0.5 145,-0.5"/>
<text text-anchor="middle" x="209" y="-7.5" font-family="Helvetica,sans-Serif" font-size="10.00">Game_window::getGoban</text>
</a>
</g>
</g>
<!-- Node18&#45;&gt;Node19 -->
<g id="edge1" class="edge"><title>Node18&#45;&gt;Node19</title>
<path fill="none" stroke="midnightblue" d="M109.266,-10C117.525,-10 126.171,-10 134.765,-10"/>
<polygon fill="midnightblue" stroke="midnightblue" points="134.804,-13.5001 144.804,-10 134.804,-6.5001 134.804,-13.5001"/>
</g>
<!-- Node20 -->
<g id="node3" class="node"><title>Node20</title>
<g id="a_node3"><a xlink:href="class_board.html#a19af96f42f5c38336010da2983abbf5c" target="_top" xlink:title="Board::getGoban">
<polygon fill="none" stroke="black" points="309,-0.5 309,-19.5 399,-19.5 399,-0.5 309,-0.5"/>
<text text-anchor="middle" x="354" y="-7.5" font-family="Helvetica,sans-Serif" font-size="10.00">Board::getGoban</text>
</a>
</g>
</g>
<!-- Node19&#45;&gt;Node20 -->
<g id="edge2" class="edge"><title>Node19&#45;&gt;Node20</title>
<path fill="none" stroke="midnightblue" d="M273.138,-10C281.555,-10 290.129,-10 298.385,-10"/>
<polygon fill="midnightblue" stroke="midnightblue" points="298.636,-13.5001 308.636,-10 298.635,-6.5001 298.636,-13.5001"/>
</g>
</g>
</svg>
