<?xml version="1.0" encoding="UTF-8" standalone="no"?>
<!DOCTYPE svg PUBLIC "-//W3C//DTD SVG 1.1//EN"
 "http://www.w3.org/Graphics/SVG/1.1/DTD/svg11.dtd">
<!-- Generated by graphviz version 2.38.0 (20140413.2041)
 -->
<!-- Title: Go_Solver::launchTsumego Pages: 1 -->
<svg width="683pt" height="484pt"
 viewBox="0.00 0.00 683.00 484.00" xmlns="http://www.w3.org/2000/svg" xmlns:xlink="http://www.w3.org/1999/xlink">
<g id="graph0" class="graph" transform="scale(1 1) rotate(0) translate(4 480)">
<title>Go_Solver::launchTsumego</title>
<!-- Node33 -->
<g id="node1" class="node"><title>Node33</title>
<polygon fill="#bfbfbf" stroke="black" points="0,-418.5 0,-437.5 135,-437.5 135,-418.5 0,-418.5"/>
<text text-anchor="middle" x="67.5" y="-425.5" font-family="Helvetica,sans-Serif" font-size="10.00">Go_Solver::launchTsumego</text>
</g>
<!-- Node34 -->
<g id="node2" class="node"><title>Node34</title>
<g id="a_node2"><a xlink:href="class_go___solver.html#a95c1c268123a76b4f2db5b183bc721b6" target="_top" xlink:title="Go_Solver::getGoban">
<polygon fill="none" stroke="black" points="171,-456.5 171,-475.5 280,-475.5 280,-456.5 171,-456.5"/>
<text text-anchor="middle" x="225.5" y="-463.5" font-family="Helvetica,sans-Serif" font-size="10.00">Go_Solver::getGoban</text>
</a>
</g>
</g>
<!-- Node33&#45;&gt;Node34 -->
<g id="edge1" class="edge"><title>Node33&#45;&gt;Node34</title>
<path fill="none" stroke="midnightblue" d="M107.865,-437.589C128.451,-442.604 153.84,-448.788 175.669,-454.105"/>
<polygon fill="midnightblue" stroke="midnightblue" points="174.873,-457.514 185.418,-456.48 176.53,-450.713 174.873,-457.514"/>
</g>
<!-- Node37 -->
<g id="node5" class="node"><title>Node37</title>
<g id="a_node5"><a xlink:href="class_i_a.html#a61a236c15bade2bb202d2f6e25825894" target="_top" xlink:title="IA::stop_tsumego">
<polygon fill="none" stroke="black" points="333.5,-418.5 333.5,-437.5 426.5,-437.5 426.5,-418.5 333.5,-418.5"/>
<text text-anchor="middle" x="380" y="-425.5" font-family="Helvetica,sans-Serif" font-size="10.00">IA::stop_tsumego</text>
</a>
</g>
</g>
<!-- Node33&#45;&gt;Node37 -->
<g id="edge4" class="edge"><title>Node33&#45;&gt;Node37</title>
<path fill="none" stroke="midnightblue" d="M135.11,-428C191.074,-428 270.148,-428 322.923,-428"/>
<polygon fill="midnightblue" stroke="midnightblue" points="323.113,-431.5 333.113,-428 323.113,-424.5 323.113,-431.5"/>
</g>
<!-- Node38 -->
<g id="node6" class="node"><title>Node38</title>
<g id="a_node6"><a xlink:href="class_i_a.html#a364aef554d81e9a93bff08c28d437497" target="_top" xlink:title="IA::Tsumego">
<polygon fill="none" stroke="black" points="190,-285.5 190,-304.5 261,-304.5 261,-285.5 190,-285.5"/>
<text text-anchor="middle" x="225.5" y="-292.5" font-family="Helvetica,sans-Serif" font-size="10.00">IA::Tsumego</text>
</a>
</g>
</g>
<!-- Node33&#45;&gt;Node38 -->
<g id="edge5" class="edge"><title>Node33&#45;&gt;Node38</title>
<path fill="none" stroke="midnightblue" d="M79.7191,-418.435C106.013,-396.018 171.884,-339.859 204.938,-311.678"/>
<polygon fill="midnightblue" stroke="midnightblue" points="207.623,-313.988 212.962,-304.837 203.081,-308.662 207.623,-313.988"/>
</g>
<!-- Node35 -->
<g id="node3" class="node"><title>Node35</title>
<g id="a_node3"><a xlink:href="class_game__window.html#a782f1aca3d28de1350375b10459073d4" target="_top" xlink:title="Game_window::getGoban">
<polygon fill="none" stroke="black" points="316,-456.5 316,-475.5 444,-475.5 444,-456.5 316,-456.5"/>
<text text-anchor="middle" x="380" y="-463.5" font-family="Helvetica,sans-Serif" font-size="10.00">Game_window::getGoban</text>
</a>
</g>
</g>
<!-- Node34&#45;&gt;Node35 -->
<g id="edge2" class="edge"><title>Node34&#45;&gt;Node35</title>
<path fill="none" stroke="midnightblue" d="M280.266,-466C288.525,-466 297.171,-466 305.765,-466"/>
<polygon fill="midnightblue" stroke="midnightblue" points="305.804,-469.5 315.804,-466 305.804,-462.5 305.804,-469.5"/>
</g>
<!-- Node36 -->
<g id="node4" class="node"><title>Node36</title>
<g id="a_node4"><a xlink:href="class_board.html#a19af96f42f5c38336010da2983abbf5c" target="_top" xlink:title="Board::getGoban">
<polygon fill="none" stroke="black" points="480,-456.5 480,-475.5 570,-475.5 570,-456.5 480,-456.5"/>
<text text-anchor="middle" x="525" y="-463.5" font-family="Helvetica,sans-Serif" font-size="10.00">Board::getGoban</text>
</a>
</g>
</g>
<!-- Node35&#45;&gt;Node36 -->
<g id="edge3" class="edge"><title>Node35&#45;&gt;Node36</title>
<path fill="none" stroke="midnightblue" d="M444.138,-466C452.555,-466 461.129,-466 469.385,-466"/>
<polygon fill="midnightblue" stroke="midnightblue" points="469.636,-469.5 479.636,-466 469.635,-462.5 469.636,-469.5"/>
</g>
<!-- Node38&#45;&gt;Node37 -->
<g id="edge32" class="edge"><title>Node38&#45;&gt;Node37</title>
<path fill="none" stroke="midnightblue" d="M231.953,-304.573C244.305,-325.463 276.446,-375.544 316,-404 321.681,-408.087 328.146,-411.575 334.718,-414.519"/>
<polygon fill="midnightblue" stroke="midnightblue" points="333.763,-417.91 344.344,-418.452 336.411,-411.43 333.763,-417.91"/>
</g>
<!-- Node39 -->
<g id="node7" class="node"><title>Node39</title>
<g id="a_node7"><a xlink:href="class_i_a.html#a5c0a6371478dedeb16372d13ce13cc34" target="_top" xlink:title="IA::loadNumber">
<polygon fill="none" stroke="black" points="338.5,-95.5 338.5,-114.5 421.5,-114.5 421.5,-95.5 338.5,-95.5"/>
<text text-anchor="middle" x="380" y="-102.5" font-family="Helvetica,sans-Serif" font-size="10.00">IA::loadNumber</text>
</a>
</g>
</g>
<!-- Node38&#45;&gt;Node39 -->
<g id="edge6" class="edge"><title>Node38&#45;&gt;Node39</title>
<path fill="none" stroke="midnightblue" d="M230.559,-285.476C241.494,-260.623 273.624,-192.64 316,-148 326.462,-136.979 340.203,-127.199 352.181,-119.761"/>
<polygon fill="midnightblue" stroke="midnightblue" points="354.121,-122.679 360.914,-114.548 350.534,-116.669 354.121,-122.679"/>
</g>
<!-- Node42 -->
<g id="node10" class="node"><title>Node42</title>
<g id="a_node10"><a xlink:href="class_etat.html#ac0b81bbcf64cb3cc574e5a9dcdf94382" target="_top" xlink:title="Etat::getVal">
<polygon fill="none" stroke="black" points="491,-76.5 491,-95.5 559,-95.5 559,-76.5 491,-76.5"/>
<text text-anchor="middle" x="525" y="-83.5" font-family="Helvetica,sans-Serif" font-size="10.00">Etat::getVal</text>
</a>
</g>
</g>
<!-- Node38&#45;&gt;Node42 -->
<g id="edge27" class="edge"><title>Node38&#45;&gt;Node42</title>
<path fill="none" stroke="midnightblue" d="M237.361,-285.113C271.123,-254.781 378.098,-161.671 480,-105 483.245,-103.195 486.696,-101.442 490.182,-99.7783"/>
<polygon fill="midnightblue" stroke="midnightblue" points="491.716,-102.926 499.375,-95.6051 488.823,-96.5515 491.716,-102.926"/>
</g>
<!-- Node43 -->
<g id="node11" class="node"><title>Node43</title>
<g id="a_node11"><a xlink:href="class_i_a.html#af1f6e5abe41a2225b17ca319c1fc0e4e" target="_top" xlink:title="IA::Tsumego_abr">
<polygon fill="none" stroke="black" points="335,-228.5 335,-247.5 425,-247.5 425,-228.5 335,-228.5"/>
<text text-anchor="middle" x="380" y="-235.5" font-family="Helvetica,sans-Serif" font-size="10.00">IA::Tsumego_abr</text>
</a>
</g>
</g>
<!-- Node38&#45;&gt;Node43 -->
<g id="edge10" class="edge"><title>Node38&#45;&gt;Node43</title>
<path fill="none" stroke="midnightblue" d="M247.222,-285.443C265.2,-277.336 292.031,-265.674 316,-257 322.063,-254.806 328.514,-252.656 334.888,-250.637"/>
<polygon fill="midnightblue" stroke="midnightblue" points="336.252,-253.879 344.774,-247.585 334.187,-247.191 336.252,-253.879"/>
</g>
<!-- Node44 -->
<g id="node12" class="node"><title>Node44</title>
<g id="a_node12"><a xlink:href="class_arbre.html#a0aef1f091d76bca13229a21fcd45a076" target="_top" xlink:title="Arbre::getNbF">
<polygon fill="none" stroke="black" points="486.5,-418.5 486.5,-437.5 563.5,-437.5 563.5,-418.5 486.5,-418.5"/>
<text text-anchor="middle" x="525" y="-425.5" font-family="Helvetica,sans-Serif" font-size="10.00">Arbre::getNbF</text>
</a>
</g>
</g>
<!-- Node38&#45;&gt;Node44 -->
<g id="edge25" class="edge"><title>Node38&#45;&gt;Node44</title>
<path fill="none" stroke="midnightblue" d="M235.469,-304.661C250.598,-320.4 282.801,-351.562 316,-369 343.785,-383.594 424.022,-404.296 476.331,-416.9"/>
<polygon fill="midnightblue" stroke="midnightblue" points="475.535,-420.308 486.075,-419.232 477.164,-413.501 475.535,-420.308"/>
</g>
<!-- Node47 -->
<g id="node15" class="node"><title>Node47</title>
<g id="a_node15"><a xlink:href="class_arbre.html#aeaa93d0b192e3cce04adb509b6b29c40" target="_top" xlink:title="Arbre::getValue">
<polygon fill="none" stroke="black" points="483,-380.5 483,-399.5 567,-399.5 567,-380.5 483,-380.5"/>
<text text-anchor="middle" x="525" y="-387.5" font-family="Helvetica,sans-Serif" font-size="10.00">Arbre::getValue</text>
</a>
</g>
</g>
<!-- Node38&#45;&gt;Node47 -->
<g id="edge26" class="edge"><title>Node38&#45;&gt;Node47</title>
<path fill="none" stroke="midnightblue" d="M243.874,-304.655C261.582,-314.179 290.057,-328.635 316,-338 368.184,-356.838 430.112,-371.367 472.748,-380.22"/>
<polygon fill="midnightblue" stroke="midnightblue" points="472.116,-383.663 482.615,-382.238 473.52,-376.805 472.116,-383.663"/>
</g>
<!-- Node49 -->
<g id="node17" class="node"><title>Node49</title>
<g id="a_node17"><a xlink:href="class_arbre.html#afc71a182e86352b06193c2dc746fab79" target="_top" xlink:title="Arbre::getInfo">
<polygon fill="none" stroke="black" points="488,-342.5 488,-361.5 562,-361.5 562,-342.5 488,-342.5"/>
<text text-anchor="middle" x="525" y="-349.5" font-family="Helvetica,sans-Serif" font-size="10.00">Arbre::getInfo</text>
</a>
</g>
</g>
<!-- Node38&#45;&gt;Node49 -->
<g id="edge28" class="edge"><title>Node38&#45;&gt;Node49</title>
<path fill="none" stroke="midnightblue" d="M261.209,-301.65C314.82,-311.922 417.822,-331.657 477.714,-343.132"/>
<polygon fill="midnightblue" stroke="midnightblue" points="477.178,-346.593 487.658,-345.037 478.495,-339.718 477.178,-346.593"/>
</g>
<!-- Node54 -->
<g id="node22" class="node"><title>Node54</title>
<g id="a_node22"><a xlink:href="_i_a_8cpp.html#a2f7deb8e736801498741ae99e142daee" target="_top" xlink:title="factoriel">
<polygon fill="none" stroke="black" points="355,-266.5 355,-285.5 405,-285.5 405,-266.5 355,-266.5"/>
<text text-anchor="middle" x="380" y="-273.5" font-family="Helvetica,sans-Serif" font-size="10.00">factoriel</text>
</a>
</g>
</g>
<!-- Node38&#45;&gt;Node54 -->
<g id="edge24" class="edge"><title>Node38&#45;&gt;Node54</title>
<path fill="none" stroke="midnightblue" d="M261.105,-290.689C286.172,-287.565 319.902,-283.363 344.861,-280.253"/>
<polygon fill="midnightblue" stroke="midnightblue" points="345.479,-283.703 354.97,-278.994 344.614,-276.757 345.479,-283.703"/>
</g>
<!-- Node55 -->
<g id="node23" class="node"><title>Node55</title>
<g id="a_node23"><a xlink:href="class_i_a.html#a8113a453920dfbee224ae38a6367e059" target="_top" xlink:title="IA::Solution">
<polygon fill="none" stroke="black" points="346.5,-38.5 346.5,-57.5 413.5,-57.5 413.5,-38.5 346.5,-38.5"/>
<text text-anchor="middle" x="380" y="-45.5" font-family="Helvetica,sans-Serif" font-size="10.00">IA::Solution</text>
</a>
</g>
</g>
<!-- Node38&#45;&gt;Node55 -->
<g id="edge29" class="edge"><title>Node38&#45;&gt;Node55</title>
<path fill="none" stroke="midnightblue" d="M228.458,-285.114C235.259,-252.952 260.536,-149.709 316,-86 324.453,-76.2909 336.014,-68.3371 346.926,-62.2611"/>
<polygon fill="midnightblue" stroke="midnightblue" points="348.61,-65.3303 355.857,-57.6017 345.372,-59.1241 348.61,-65.3303"/>
</g>
<!-- Node40 -->
<g id="node8" class="node"><title>Node40</title>
<g id="a_node8"><a xlink:href="class_arbre.html#ae9d294f541cec5e5fac9ccd8fe8496ee" target="_top" xlink:title="Arbre::getGob">
<polygon fill="none" stroke="black" points="486.5,-38.5 486.5,-57.5 563.5,-57.5 563.5,-38.5 486.5,-38.5"/>
<text text-anchor="middle" x="525" y="-45.5" font-family="Helvetica,sans-Serif" font-size="10.00">Arbre::getGob</text>
</a>
</g>
</g>
<!-- Node39&#45;&gt;Node40 -->
<g id="edge7" class="edge"><title>Node39&#45;&gt;Node40</title>
<path fill="none" stroke="midnightblue" d="M404.935,-95.4595C428.342,-86.1295 464.195,-71.8384 490.443,-61.3758"/>
<polygon fill="midnightblue" stroke="midnightblue" points="491.994,-64.5256 499.987,-57.5716 489.402,-58.0232 491.994,-64.5256"/>
</g>
<!-- Node41 -->
<g id="node9" class="node"><title>Node41</title>
<g id="a_node9"><a xlink:href="class_goban.html#a29aaf8df380fe614845d48cba057747c" target="_top" xlink:title="Goban::coord">
<polygon fill="none" stroke="black" points="487.5,-114.5 487.5,-133.5 562.5,-133.5 562.5,-114.5 487.5,-114.5"/>
<text text-anchor="middle" x="525" y="-121.5" font-family="Helvetica,sans-Serif" font-size="10.00">Goban::coord</text>
</a>
</g>
</g>
<!-- Node39&#45;&gt;Node41 -->
<g id="edge8" class="edge"><title>Node39&#45;&gt;Node41</title>
<path fill="none" stroke="midnightblue" d="M421.596,-110.394C438.933,-112.697 459.271,-115.4 477.234,-117.786"/>
<polygon fill="midnightblue" stroke="midnightblue" points="476.841,-121.265 487.215,-119.112 477.763,-114.326 476.841,-121.265"/>
</g>
<!-- Node39&#45;&gt;Node42 -->
<g id="edge9" class="edge"><title>Node39&#45;&gt;Node42</title>
<path fill="none" stroke="midnightblue" d="M421.596,-99.6062C439.989,-97.1624 461.76,-94.2696 480.489,-91.7811"/>
<polygon fill="midnightblue" stroke="midnightblue" points="481.089,-95.2324 490.541,-90.4457 480.167,-88.2933 481.089,-95.2324"/>
</g>
<!-- Node43&#45;&gt;Node40 -->
<g id="edge12" class="edge"><title>Node43&#45;&gt;Node40</title>
<path fill="none" stroke="midnightblue" d="M386.435,-228.226C406.135,-192.846 473.014,-73.2116 480,-67 481.718,-65.4726 483.577,-64.0536 485.528,-62.7374"/>
<polygon fill="midnightblue" stroke="midnightblue" points="487.559,-65.6077 494.505,-57.6075 484.086,-59.5299 487.559,-65.6077"/>
</g>
<!-- Node43&#45;&gt;Node41 -->
<g id="edge13" class="edge"><title>Node43&#45;&gt;Node41</title>
<path fill="none" stroke="midnightblue" d="M390.968,-228.249C415.078,-204.691 474.94,-146.36 480,-143 482.703,-141.205 485.604,-139.516 488.579,-137.942"/>
<polygon fill="midnightblue" stroke="midnightblue" points="490.128,-141.081 497.607,-133.576 487.08,-134.779 490.128,-141.081"/>
</g>
<!-- Node43&#45;&gt;Node42 -->
<g id="edge16" class="edge"><title>Node43&#45;&gt;Node42</title>
<path fill="none" stroke="midnightblue" d="M392.821,-228.436C406.407,-217.009 428.784,-196.811 444,-176 464.882,-147.44 454.224,-129.235 480,-105 481.625,-103.472 483.393,-102.055 485.255,-100.744"/>
<polygon fill="midnightblue" stroke="midnightblue" points="487.051,-103.748 493.877,-95.6463 483.488,-97.7227 487.051,-103.748"/>
</g>
<!-- Node43&#45;&gt;Node44 -->
<g id="edge11" class="edge"><title>Node43&#45;&gt;Node44</title>
<path fill="none" stroke="midnightblue" d="M425.056,-244.79C432.141,-247.588 438.832,-251.51 444,-257 491.587,-307.549 435.389,-355.806 480,-409 481.003,-410.195 482.094,-411.318 483.257,-412.371"/>
<polygon fill="midnightblue" stroke="midnightblue" points="481.57,-415.465 491.759,-418.369 485.605,-409.745 481.57,-415.465"/>
</g>
<!-- Node45 -->
<g id="node13" class="node"><title>Node45</title>
<g id="a_node13"><a xlink:href="class_etat.html#aa25e66b110bc835523819392435e78c6" target="_top" xlink:title="Etat::getX">
<polygon fill="none" stroke="black" points="495.5,-190.5 495.5,-209.5 554.5,-209.5 554.5,-190.5 495.5,-190.5"/>
<text text-anchor="middle" x="525" y="-197.5" font-family="Helvetica,sans-Serif" font-size="10.00">Etat::getX</text>
</a>
</g>
</g>
<!-- Node43&#45;&gt;Node45 -->
<g id="edge14" class="edge"><title>Node43&#45;&gt;Node45</title>
<path fill="none" stroke="midnightblue" d="M417.085,-228.411C437.942,-222.869 464.177,-215.897 485.44,-210.247"/>
<polygon fill="midnightblue" stroke="midnightblue" points="486.361,-213.624 495.126,-207.673 484.563,-206.858 486.361,-213.624"/>
</g>
<!-- Node46 -->
<g id="node14" class="node"><title>Node46</title>
<g id="a_node14"><a xlink:href="class_etat.html#a3e3e915f2261c83989a983e84b1273c1" target="_top" xlink:title="Etat::getY">
<polygon fill="none" stroke="black" points="494.5,-152.5 494.5,-171.5 555.5,-171.5 555.5,-152.5 494.5,-152.5"/>
<text text-anchor="middle" x="525" y="-159.5" font-family="Helvetica,sans-Serif" font-size="10.00">Etat::getY</text>
</a>
</g>
</g>
<!-- Node43&#45;&gt;Node46 -->
<g id="edge15" class="edge"><title>Node43&#45;&gt;Node46</title>
<path fill="none" stroke="midnightblue" d="M396.469,-228.351C415.698,-216.532 449.687,-196.208 480,-181 483.579,-179.204 487.368,-177.412 491.16,-175.686"/>
<polygon fill="midnightblue" stroke="midnightblue" points="492.748,-178.811 500.479,-171.566 489.918,-172.409 492.748,-178.811"/>
</g>
<!-- Node43&#45;&gt;Node47 -->
<g id="edge17" class="edge"><title>Node43&#45;&gt;Node47</title>
<path fill="none" stroke="midnightblue" d="M425.053,-245.236C432.053,-247.991 438.715,-251.783 444,-257 481.813,-294.326 444.389,-331.567 480,-371 481.189,-372.316 482.484,-373.545 483.861,-374.691"/>
<polygon fill="midnightblue" stroke="midnightblue" points="482.184,-377.779 492.449,-380.4 486.058,-371.949 482.184,-377.779"/>
</g>
<!-- Node48 -->
<g id="node16" class="node"><title>Node48</title>
<g id="a_node16"><a xlink:href="class_arbre.html#a051e5328c63ba7ab6f6359f9f2f77105" target="_top" xlink:title="Arbre::setInfo">
<polygon fill="none" stroke="black" points="488,-304.5 488,-323.5 562,-323.5 562,-304.5 488,-304.5"/>
<text text-anchor="middle" x="525" y="-311.5" font-family="Helvetica,sans-Serif" font-size="10.00">Arbre::setInfo</text>
</a>
</g>
</g>
<!-- Node43&#45;&gt;Node48 -->
<g id="edge18" class="edge"><title>Node43&#45;&gt;Node48</title>
<path fill="none" stroke="midnightblue" d="M423.655,-247.554C430.728,-250.055 437.777,-253.162 444,-257 463.801,-269.213 460.932,-281.672 480,-295 482.511,-296.755 485.209,-298.398 487.989,-299.925"/>
<polygon fill="midnightblue" stroke="midnightblue" points="486.505,-303.095 497.019,-304.403 489.615,-296.824 486.505,-303.095"/>
</g>
<!-- Node43&#45;&gt;Node49 -->
<g id="edge19" class="edge"><title>Node43&#45;&gt;Node49</title>
<path fill="none" stroke="midnightblue" d="M425.13,-246.109C431.96,-248.77 438.545,-252.305 444,-257 472.328,-281.382 453.116,-307.034 480,-333 481.605,-334.55 483.356,-335.984 485.205,-337.308"/>
<polygon fill="midnightblue" stroke="midnightblue" points="483.414,-340.315 493.793,-342.442 487.006,-334.307 483.414,-340.315"/>
</g>
<!-- Node50 -->
<g id="node18" class="node"><title>Node50</title>
<g id="a_node18"><a xlink:href="class_arbre.html#aceca304216a7f620926c2147c7c84acd" target="_top" xlink:title="Arbre::setFilsA">
<polygon fill="none" stroke="black" points="484,-266.5 484,-285.5 566,-285.5 566,-266.5 484,-266.5"/>
<text text-anchor="middle" x="525" y="-273.5" font-family="Helvetica,sans-Serif" font-size="10.00">Arbre::setFilsA</text>
</a>
</g>
</g>
<!-- Node43&#45;&gt;Node50 -->
<g id="edge20" class="edge"><title>Node43&#45;&gt;Node50</title>
<path fill="none" stroke="midnightblue" d="M417.085,-247.589C435.63,-252.517 458.426,-258.575 478.199,-263.829"/>
<polygon fill="midnightblue" stroke="midnightblue" points="477.363,-267.228 487.927,-266.414 479.161,-260.463 477.363,-267.228"/>
</g>
<!-- Node52 -->
<g id="node20" class="node"><title>Node52</title>
<g id="a_node20"><a xlink:href="class_arbre.html#ab8761bfdaadb8d6846199f269c6bbbc4" target="_top" xlink:title="Arbre::at">
<polygon fill="none" stroke="black" points="498,-228.5 498,-247.5 552,-247.5 552,-228.5 498,-228.5"/>
<text text-anchor="middle" x="525" y="-235.5" font-family="Helvetica,sans-Serif" font-size="10.00">Arbre::at</text>
</a>
</g>
</g>
<!-- Node43&#45;&gt;Node52 -->
<g id="edge22" class="edge"><title>Node43&#45;&gt;Node52</title>
<path fill="none" stroke="midnightblue" d="M425.072,-238C445.152,-238 468.634,-238 487.68,-238"/>
<polygon fill="midnightblue" stroke="midnightblue" points="487.755,-241.5 497.755,-238 487.755,-234.5 487.755,-241.5"/>
</g>
<!-- Node53 -->
<g id="node21" class="node"><title>Node53</title>
<g id="a_node21"><a xlink:href="class_arbre.html#af2b7629b3686bcf3e49f737adb3b2d24" target="_top" xlink:title="Arbre::getFilsA">
<polygon fill="none" stroke="black" points="484,-0.5 484,-19.5 566,-19.5 566,-0.5 484,-0.5"/>
<text text-anchor="middle" x="525" y="-7.5" font-family="Helvetica,sans-Serif" font-size="10.00">Arbre::getFilsA</text>
</a>
</g>
</g>
<!-- Node43&#45;&gt;Node53 -->
<g id="edge23" class="edge"><title>Node43&#45;&gt;Node53</title>
<path fill="none" stroke="midnightblue" d="M386.871,-228.483C398.619,-209.214 425.476,-164.015 444,-124 462.968,-83.0252 448.806,-61.6439 480,-29 481.38,-27.5562 482.887,-26.2162 484.487,-24.9731"/>
<polygon fill="midnightblue" stroke="midnightblue" points="486.504,-27.8387 493.083,-19.5344 482.761,-21.9232 486.504,-27.8387"/>
</g>
<!-- Node51 -->
<g id="node19" class="node"><title>Node51</title>
<g id="a_node19"><a xlink:href="class_arbre.html#a761f4a2c6a43f44b38d4ac6fc1cf5cae" target="_top" xlink:title="Arbre::Arbre">
<polygon fill="none" stroke="black" points="606,-266.5 606,-285.5 675,-285.5 675,-266.5 606,-266.5"/>
<text text-anchor="middle" x="640.5" y="-273.5" font-family="Helvetica,sans-Serif" font-size="10.00">Arbre::Arbre</text>
</a>
</g>
</g>
<!-- Node50&#45;&gt;Node51 -->
<g id="edge21" class="edge"><title>Node50&#45;&gt;Node51</title>
<path fill="none" stroke="midnightblue" d="M566.016,-276C575.577,-276 585.835,-276 595.562,-276"/>
<polygon fill="midnightblue" stroke="midnightblue" points="595.852,-279.5 605.852,-276 595.852,-272.5 595.852,-279.5"/>
</g>
<!-- Node55&#45;&gt;Node40 -->
<g id="edge30" class="edge"><title>Node55&#45;&gt;Node40</title>
<path fill="none" stroke="midnightblue" d="M413.807,-48C432.289,-48 455.706,-48 476.196,-48"/>
<polygon fill="midnightblue" stroke="midnightblue" points="476.293,-51.5001 486.293,-48 476.293,-44.5001 476.293,-51.5001"/>
</g>
<!-- Node55&#45;&gt;Node53 -->
<g id="edge31" class="edge"><title>Node55&#45;&gt;Node53</title>
<path fill="none" stroke="midnightblue" d="M413.807,-39.282C432.956,-34.1936 457.403,-27.6972 478.403,-22.1168"/>
<polygon fill="midnightblue" stroke="midnightblue" points="479.32,-25.4945 488.086,-19.5436 477.522,-18.7293 479.32,-25.4945"/>
</g>
</g>
</svg>
