<?xml version="1.0" encoding="UTF-8" standalone="no"?>
<!DOCTYPE svg PUBLIC "-//W3C//DTD SVG 1.1//EN"
 "http://www.w3.org/Graphics/SVG/1.1/DTD/svg11.dtd">
<!-- Generated by graphviz version 2.38.0 (20140413.2041)
 -->
<!-- Title: Timer Pages: 1 -->
<svg width="130pt" height="248pt"
 viewBox="0.00 0.00 130.00 248.00" xmlns="http://www.w3.org/2000/svg" xmlns:xlink="http://www.w3.org/1999/xlink">
<g id="graph0" class="graph" transform="scale(1 1) rotate(0) translate(4 244)">
<title>Timer</title>
<!-- Node0 -->
<g id="node1" class="node"><title>Node0</title>
<polygon fill="#bfbfbf" stroke="black" points="25.5,-0.5 25.5,-145.5 99.5,-145.5 99.5,-0.5 25.5,-0.5"/>
<text text-anchor="middle" x="62.5" y="-133.5" font-family="Helvetica,sans-Serif" font-size="10.00">Timer</text>
<polyline fill="none" stroke="black" points="25.5,-126.5 99.5,-126.5 "/>
<text text-anchor="middle" x="62.5" y="-114.5" font-family="Helvetica,sans-Serif" font-size="10.00"> </text>
<polyline fill="none" stroke="black" points="25.5,-107.5 99.5,-107.5 "/>
<text text-anchor="start" x="33.5" y="-95.5" font-family="Helvetica,sans-Serif" font-size="10.00">+ Timer()</text>
<text text-anchor="start" x="33.5" y="-84.5" font-family="Helvetica,sans-Serif" font-size="10.00">+ Timer()</text>
<text text-anchor="start" x="33.5" y="-73.5" font-family="Helvetica,sans-Serif" font-size="10.00">+ ~Timer()</text>
<text text-anchor="start" x="33.5" y="-62.5" font-family="Helvetica,sans-Serif" font-size="10.00">+ applyFont()</text>
<text text-anchor="start" x="33.5" y="-51.5" font-family="Helvetica,sans-Serif" font-size="10.00">+ pause()</text>
<text text-anchor="start" x="33.5" y="-40.5" font-family="Helvetica,sans-Serif" font-size="10.00">+ play()</text>
<text text-anchor="start" x="33.5" y="-29.5" font-family="Helvetica,sans-Serif" font-size="10.00">+ restart()</text>
<text text-anchor="start" x="33.5" y="-18.5" font-family="Helvetica,sans-Serif" font-size="10.00">+ draw()</text>
<text text-anchor="start" x="33.5" y="-7.5" font-family="Helvetica,sans-Serif" font-size="10.00">+ initFont()</text>
</g>
<!-- Node1 -->
<g id="node2" class="node"><title>Node1</title>
<polygon fill="none" stroke="#bfbfbf" points="0,-182.5 0,-239.5 55,-239.5 55,-182.5 0,-182.5"/>
<text text-anchor="middle" x="27.5" y="-227.5" font-family="Helvetica,sans-Serif" font-size="10.00">sf::Clock</text>
<polyline fill="none" stroke="#bfbfbf" points="0,-220.5 55,-220.5 "/>
<text text-anchor="middle" x="27.5" y="-208.5" font-family="Helvetica,sans-Serif" font-size="10.00"> </text>
<polyline fill="none" stroke="#bfbfbf" points="0,-201.5 55,-201.5 "/>
<text text-anchor="middle" x="27.5" y="-189.5" font-family="Helvetica,sans-Serif" font-size="10.00"> </text>
</g>
<!-- Node1&#45;&gt;Node0 -->
<g id="edge1" class="edge"><title>Node1&#45;&gt;Node0</title>
<path fill="none" stroke="midnightblue" d="M37.1162,-172.634C39.2863,-164.202 41.6609,-154.975 44.0591,-145.656"/>
<polygon fill="none" stroke="midnightblue" points="33.6856,-171.922 34.5828,-182.478 40.4647,-173.666 33.6856,-171.922"/>
</g>
<!-- Node2 -->
<g id="node3" class="node"><title>Node2</title>
<polygon fill="none" stroke="#bfbfbf" points="73,-182.5 73,-239.5 122,-239.5 122,-182.5 73,-182.5"/>
<text text-anchor="middle" x="97.5" y="-227.5" font-family="Helvetica,sans-Serif" font-size="10.00">sf::Text</text>
<polyline fill="none" stroke="#bfbfbf" points="73,-220.5 122,-220.5 "/>
<text text-anchor="middle" x="97.5" y="-208.5" font-family="Helvetica,sans-Serif" font-size="10.00"> </text>
<polyline fill="none" stroke="#bfbfbf" points="73,-201.5 122,-201.5 "/>
<text text-anchor="middle" x="97.5" y="-189.5" font-family="Helvetica,sans-Serif" font-size="10.00"> </text>
</g>
<!-- Node2&#45;&gt;Node0 -->
<g id="edge2" class="edge"><title>Node2&#45;&gt;Node0</title>
<path fill="none" stroke="midnightblue" d="M87.8838,-172.634C85.7137,-164.202 83.3391,-154.975 80.9409,-145.656"/>
<polygon fill="none" stroke="midnightblue" points="84.5353,-173.666 90.4172,-182.478 91.3144,-171.922 84.5353,-173.666"/>
</g>
</g>
</svg>
