<?xml version="1.0" encoding="UTF-8" standalone="no"?>
<!DOCTYPE svg PUBLIC "-//W3C//DTD SVG 1.1//EN"
 "http://www.w3.org/Graphics/SVG/1.1/DTD/svg11.dtd">
<!-- Generated by graphviz version 2.38.0 (20140413.2041)
 -->
<!-- Title: Goban::uncompress Pages: 1 -->
<svg width="223pt" height="66pt"
 viewBox="0.00 0.00 223.00 66.00" xmlns="http://www.w3.org/2000/svg" xmlns:xlink="http://www.w3.org/1999/xlink">
<g id="graph0" class="graph" transform="scale(1 1) rotate(0) translate(4 62)">
<title>Goban::uncompress</title>
<!-- Node310 -->
<g id="node1" class="node"><title>Node310</title>
<polygon fill="#bfbfbf" stroke="black" points="0,-19.5 0,-38.5 104,-38.5 104,-19.5 0,-19.5"/>
<text text-anchor="middle" x="52" y="-26.5" font-family="Helvetica,sans-Serif" font-size="10.00">Goban::uncompress</text>
</g>
<!-- Node311 -->
<g id="node2" class="node"><title>Node311</title>
<g id="a_node2"><a xlink:href="class_goban.html#a29aaf8df380fe614845d48cba057747c" target="_top" xlink:title="Goban::coord">
<polygon fill="none" stroke="black" points="140,-38.5 140,-57.5 215,-57.5 215,-38.5 140,-38.5"/>
<text text-anchor="middle" x="177.5" y="-45.5" font-family="Helvetica,sans-Serif" font-size="10.00">Goban::coord</text>
</a>
</g>
</g>
<!-- Node310&#45;&gt;Node311 -->
<g id="edge1" class="edge"><title>Node310&#45;&gt;Node311</title>
<path fill="none" stroke="midnightblue" d="M104.302,-36.8926C112.783,-38.1974 121.535,-39.5438 129.892,-40.8295"/>
<polygon fill="midnightblue" stroke="midnightblue" points="129.43,-44.2995 139.846,-42.3608 130.494,-37.3809 129.43,-44.2995"/>
</g>
<!-- Node312 -->
<g id="node3" class="node"><title>Node312</title>
<g id="a_node3"><a xlink:href="class_etat.html#ac0b81bbcf64cb3cc574e5a9dcdf94382" target="_top" xlink:title="Etat::getVal">
<polygon fill="none" stroke="black" points="143.5,-0.5 143.5,-19.5 211.5,-19.5 211.5,-0.5 143.5,-0.5"/>
<text text-anchor="middle" x="177.5" y="-7.5" font-family="Helvetica,sans-Serif" font-size="10.00">Etat::getVal</text>
</a>
</g>
</g>
<!-- Node310&#45;&gt;Node312 -->
<g id="edge2" class="edge"><title>Node310&#45;&gt;Node312</title>
<path fill="none" stroke="midnightblue" d="M104.302,-21.1074C113.836,-19.6406 123.712,-18.1212 132.986,-16.6945"/>
<polygon fill="midnightblue" stroke="midnightblue" points="133.798,-20.1109 143.149,-15.1309 132.733,-13.1923 133.798,-20.1109"/>
</g>
</g>
</svg>
