<?xml version="1.0" encoding="UTF-8" standalone="no"?>
<!DOCTYPE svg PUBLIC "-//W3C//DTD SVG 1.1//EN"
 "http://www.w3.org/Graphics/SVG/1.1/DTD/svg11.dtd">
<!-- Generated by graphviz version 2.38.0 (20140413.2041)
 -->
<!-- Title: Goban::eliminateGroups Pages: 1 -->
<svg width="730pt" height="142pt"
 viewBox="0.00 0.00 730.00 142.00" xmlns="http://www.w3.org/2000/svg" xmlns:xlink="http://www.w3.org/1999/xlink">
<g id="graph0" class="graph" transform="scale(1 1) rotate(0) translate(4 138)">
<title>Goban::eliminateGroups</title>
<!-- Node117 -->
<g id="node1" class="node"><title>Node117</title>
<polygon fill="#bfbfbf" stroke="black" points="0,-57.5 0,-76.5 122,-76.5 122,-57.5 0,-57.5"/>
<text text-anchor="middle" x="61" y="-64.5" font-family="Helvetica,sans-Serif" font-size="10.00">Goban::eliminateGroups</text>
</g>
<!-- Node118 -->
<g id="node2" class="node"><title>Node118</title>
<g id="a_node2"><a xlink:href="class_goban.html#a7858b815885e4af36f05f9d26182cb07" target="_top" xlink:title="Goban::eliminateOppGroups">
<polygon fill="none" stroke="black" points="158,-57.5 158,-76.5 298,-76.5 298,-57.5 158,-57.5"/>
<text text-anchor="middle" x="228" y="-64.5" font-family="Helvetica,sans-Serif" font-size="10.00">Goban::eliminateOppGroups</text>
</a>
</g>
</g>
<!-- Node117&#45;&gt;Node118 -->
<g id="edge1" class="edge"><title>Node117&#45;&gt;Node118</title>
<path fill="none" stroke="midnightblue" d="M132.24,-67C140.698,-67 149.331,-67 157.774,-67"/>
<polygon fill="midnightblue" stroke="midnightblue" points="132.036,-63.5001 122.036,-67 132.036,-70.5001 132.036,-63.5001"/>
</g>
<!-- Node119 -->
<g id="node3" class="node"><title>Node119</title>
<g id="a_node3"><a xlink:href="class_goban.html#a799390f04139eec16f7bb8c79b381303" target="_top" xlink:title="Goban::legalEvenKO">
<polygon fill="none" stroke="black" points="334,-114.5 334,-133.5 441,-133.5 441,-114.5 334,-114.5"/>
<text text-anchor="middle" x="387.5" y="-121.5" font-family="Helvetica,sans-Serif" font-size="10.00">Goban::legalEvenKO</text>
</a>
</g>
</g>
<!-- Node118&#45;&gt;Node119 -->
<g id="edge2" class="edge"><title>Node118&#45;&gt;Node119</title>
<path fill="none" stroke="midnightblue" d="M265.102,-80.0655C294.052,-90.5428 334.014,-105.005 360.052,-114.428"/>
<polygon fill="midnightblue" stroke="midnightblue" points="265.956,-76.6525 255.362,-76.5405 263.574,-83.2347 265.956,-76.6525"/>
</g>
<!-- Node120 -->
<g id="node4" class="node"><title>Node120</title>
<g id="a_node4"><a xlink:href="class_goban.html#a8b95ea2b51c078381562e361ff7febac" target="_top" xlink:title="Goban::isSuicide">
<polygon fill="none" stroke="black" points="342,-76.5 342,-95.5 433,-95.5 433,-76.5 342,-76.5"/>
<text text-anchor="middle" x="387.5" y="-83.5" font-family="Helvetica,sans-Serif" font-size="10.00">Goban::isSuicide</text>
</a>
</g>
</g>
<!-- Node118&#45;&gt;Node120 -->
<g id="edge3" class="edge"><title>Node118&#45;&gt;Node120</title>
<path fill="none" stroke="midnightblue" d="M308.241,-76.5592C319.825,-77.9567 331.396,-79.3525 341.949,-80.6256"/>
<polygon fill="midnightblue" stroke="midnightblue" points="308.429,-73.0566 298.082,-75.3337 307.591,-80.0062 308.429,-73.0566"/>
</g>
<!-- Node121 -->
<g id="node5" class="node"><title>Node121</title>
<g id="a_node5"><a xlink:href="class_goban.html#a36ab256c9430e070b620052a0f13f051" target="_top" xlink:title="Goban::listFils">
<polygon fill="none" stroke="black" points="347.5,-38.5 347.5,-57.5 427.5,-57.5 427.5,-38.5 347.5,-38.5"/>
<text text-anchor="middle" x="387.5" y="-45.5" font-family="Helvetica,sans-Serif" font-size="10.00">Goban::listFils</text>
</a>
</g>
</g>
<!-- Node118&#45;&gt;Node121 -->
<g id="edge4" class="edge"><title>Node118&#45;&gt;Node121</title>
<path fill="none" stroke="midnightblue" d="M308.404,-57.4211C321.931,-55.7892 335.432,-54.1605 347.311,-52.7275"/>
<polygon fill="midnightblue" stroke="midnightblue" points="307.591,-53.9938 298.082,-58.6663 308.429,-60.9434 307.591,-53.9938"/>
</g>
<!-- Node124 -->
<g id="node8" class="node"><title>Node124</title>
<g id="a_node8"><a xlink:href="class_board.html#a5fda73da080403d8a71a8593d581c350" target="_top" xlink:title="Board::click">
<polygon fill="none" stroke="black" points="353.5,-0.5 353.5,-19.5 421.5,-19.5 421.5,-0.5 353.5,-0.5"/>
<text text-anchor="middle" x="387.5" y="-7.5" font-family="Helvetica,sans-Serif" font-size="10.00">Board::click</text>
</a>
</g>
</g>
<!-- Node118&#45;&gt;Node124 -->
<g id="edge7" class="edge"><title>Node118&#45;&gt;Node124</title>
<path fill="none" stroke="midnightblue" d="M265.102,-53.9345C294.052,-43.4572 334.014,-28.9949 360.052,-19.5716"/>
<polygon fill="midnightblue" stroke="midnightblue" points="263.574,-50.7653 255.362,-57.4595 265.956,-57.3475 263.574,-50.7653"/>
</g>
<!-- Node122 -->
<g id="node6" class="node"><title>Node122</title>
<g id="a_node6"><a xlink:href="class_arbre.html#ac82e543d8cbf0aced4d741c346f9950d" target="_top" xlink:title="Arbre::Arbre">
<polygon fill="none" stroke="black" points="495.5,-76.5 495.5,-95.5 564.5,-95.5 564.5,-76.5 495.5,-76.5"/>
<text text-anchor="middle" x="530" y="-83.5" font-family="Helvetica,sans-Serif" font-size="10.00">Arbre::Arbre</text>
</a>
</g>
</g>
<!-- Node121&#45;&gt;Node122 -->
<g id="edge5" class="edge"><title>Node121&#45;&gt;Node122</title>
<path fill="none" stroke="midnightblue" d="M433.813,-60.2556C453.866,-65.6791 477.034,-71.9451 495.492,-76.9373"/>
<polygon fill="midnightblue" stroke="midnightblue" points="434.521,-56.8213 423.954,-57.589 432.693,-63.5785 434.521,-56.8213"/>
</g>
<!-- Node123 -->
<g id="node7" class="node"><title>Node123</title>
<g id="a_node7"><a xlink:href="class_arbre.html#a70585b1d341c1e0c262b2b4a4f769b6d" target="_top" xlink:title="Arbre::resetFils">
<polygon fill="none" stroke="black" points="488.5,-38.5 488.5,-57.5 571.5,-57.5 571.5,-38.5 488.5,-38.5"/>
<text text-anchor="middle" x="530" y="-45.5" font-family="Helvetica,sans-Serif" font-size="10.00">Arbre::resetFils</text>
</a>
</g>
</g>
<!-- Node121&#45;&gt;Node123 -->
<g id="edge6" class="edge"><title>Node121&#45;&gt;Node123</title>
<path fill="none" stroke="midnightblue" d="M437.645,-48C454.132,-48 472.329,-48 488.114,-48"/>
<polygon fill="midnightblue" stroke="midnightblue" points="437.637,-44.5001 427.637,-48 437.637,-51.5001 437.637,-44.5001"/>
</g>
<!-- Node125 -->
<g id="node9" class="node"><title>Node125</title>
<g id="a_node9"><a xlink:href="class_game__window.html#afa942088809bf10731bb31d0d37b878d" target="_top" xlink:title="Game_window::click">
<polygon fill="none" stroke="black" points="477,-0.5 477,-19.5 583,-19.5 583,-0.5 477,-0.5"/>
<text text-anchor="middle" x="530" y="-7.5" font-family="Helvetica,sans-Serif" font-size="10.00">Game_window::click</text>
</a>
</g>
</g>
<!-- Node124&#45;&gt;Node125 -->
<g id="edge8" class="edge"><title>Node124&#45;&gt;Node125</title>
<path fill="none" stroke="midnightblue" d="M431.841,-10C446.116,-10 462.137,-10 476.99,-10"/>
<polygon fill="midnightblue" stroke="midnightblue" points="431.797,-6.5001 421.797,-10 431.797,-13.5001 431.797,-6.5001"/>
</g>
<!-- Node126 -->
<g id="node10" class="node"><title>Node126</title>
<g id="a_node10"><a xlink:href="class_game__window.html#a555769f4e8511e45d6623658dc736be5" target="_top" xlink:title="Game_window::Run">
<polygon fill="none" stroke="black" points="619,-0.5 619,-19.5 722,-19.5 722,-0.5 619,-0.5"/>
<text text-anchor="middle" x="670.5" y="-7.5" font-family="Helvetica,sans-Serif" font-size="10.00">Game_window::Run</text>
</a>
</g>
</g>
<!-- Node125&#45;&gt;Node126 -->
<g id="edge9" class="edge"><title>Node125&#45;&gt;Node126</title>
<path fill="none" stroke="midnightblue" d="M593.594,-10C602.066,-10 610.672,-10 618.898,-10"/>
<polygon fill="midnightblue" stroke="midnightblue" points="593.361,-6.5001 583.361,-10 593.361,-13.5001 593.361,-6.5001"/>
</g>
</g>
</svg>
