<?xml version="1.0" encoding="UTF-8" standalone="no"?>
<!DOCTYPE svg PUBLIC "-//W3C//DTD SVG 1.1//EN"
 "http://www.w3.org/Graphics/SVG/1.1/DTD/svg11.dtd">
<!-- Generated by graphviz version 2.38.0 (20140413.2041)
 -->
<!-- Title: Arbre::setInfo Pages: 1 -->
<svg width="556pt" height="142pt"
 viewBox="0.00 0.00 556.00 142.00" xmlns="http://www.w3.org/2000/svg" xmlns:xlink="http://www.w3.org/1999/xlink">
<g id="graph0" class="graph" transform="scale(1 1) rotate(0) translate(4 138)">
<title>Arbre::setInfo</title>
<!-- Node165 -->
<g id="node1" class="node"><title>Node165</title>
<polygon fill="#bfbfbf" stroke="black" points="0,-57.5 0,-76.5 74,-76.5 74,-57.5 0,-57.5"/>
<text text-anchor="middle" x="37" y="-64.5" font-family="Helvetica,sans-Serif" font-size="10.00">Arbre::setInfo</text>
</g>
<!-- Node166 -->
<g id="node2" class="node"><title>Node166</title>
<g id="a_node2"><a xlink:href="class_i_a.html#a42202360406fe67babfd01a9b7902fd2" target="_top" xlink:title="IA::Tsumego_naif">
<polygon fill="none" stroke="black" points="126.5,-114.5 126.5,-133.5 218.5,-133.5 218.5,-114.5 126.5,-114.5"/>
<text text-anchor="middle" x="172.5" y="-121.5" font-family="Helvetica,sans-Serif" font-size="10.00">IA::Tsumego_naif</text>
</a>
</g>
</g>
<!-- Node165&#45;&gt;Node166 -->
<g id="edge1" class="edge"><title>Node165&#45;&gt;Node166</title>
<path fill="none" stroke="midnightblue" d="M62.9367,-81.634C76.549,-89.2425 93.8726,-98.3211 110,-105 118.466,-108.506 127.819,-111.716 136.621,-114.459"/>
<polygon fill="midnightblue" stroke="midnightblue" points="64.5894,-78.5475 54.166,-76.6489 61.1304,-84.6332 64.5894,-78.5475"/>
</g>
<!-- Node167 -->
<g id="node3" class="node"><title>Node167</title>
<g id="a_node3"><a xlink:href="class_i_a.html#af1f6e5abe41a2225b17ca319c1fc0e4e" target="_top" xlink:title="IA::Tsumego_abr">
<polygon fill="none" stroke="black" points="127.5,-76.5 127.5,-95.5 217.5,-95.5 217.5,-76.5 127.5,-76.5"/>
<text text-anchor="middle" x="172.5" y="-83.5" font-family="Helvetica,sans-Serif" font-size="10.00">IA::Tsumego_abr</text>
</a>
</g>
</g>
<!-- Node165&#45;&gt;Node167 -->
<g id="edge2" class="edge"><title>Node165&#45;&gt;Node167</title>
<path fill="none" stroke="midnightblue" d="M84.038,-73.5522C98.0315,-75.5438 113.373,-77.7272 127.246,-79.7017"/>
<polygon fill="midnightblue" stroke="midnightblue" points="84.5204,-70.0857 74.127,-72.1417 83.5341,-77.0159 84.5204,-70.0857"/>
</g>
<!-- Node170 -->
<g id="node6" class="node"><title>Node170</title>
<g id="a_node6"><a xlink:href="class_i_a.html#a6f616b7d3d9d39eef4780b7a03226260" target="_top" xlink:title="IA::Tsumego_abrFils">
<polygon fill="none" stroke="black" points="271,-38.5 271,-57.5 377,-57.5 377,-38.5 271,-38.5"/>
<text text-anchor="middle" x="324" y="-45.5" font-family="Helvetica,sans-Serif" font-size="10.00">IA::Tsumego_abrFils</text>
</a>
</g>
</g>
<!-- Node165&#45;&gt;Node170 -->
<g id="edge6" class="edge"><title>Node165&#45;&gt;Node170</title>
<path fill="none" stroke="midnightblue" d="M84.1919,-63.9205C135.275,-60.515 217.396,-55.0403 270.778,-51.4814"/>
<polygon fill="midnightblue" stroke="midnightblue" points="83.8404,-60.4361 74.0954,-64.5936 84.3061,-67.4206 83.8404,-60.4361"/>
</g>
<!-- Node171 -->
<g id="node7" class="node"><title>Node171</title>
<g id="a_node7"><a xlink:href="class_i_a.html#a5d86a3548f2410f7fc0676b89d07f4fd" target="_top" xlink:title="IA::Tsumego_compresse">
<polygon fill="none" stroke="black" points="110,-0.5 110,-19.5 235,-19.5 235,-0.5 110,-0.5"/>
<text text-anchor="middle" x="172.5" y="-7.5" font-family="Helvetica,sans-Serif" font-size="10.00">IA::Tsumego_compresse</text>
</a>
</g>
</g>
<!-- Node165&#45;&gt;Node171 -->
<g id="edge7" class="edge"><title>Node165&#45;&gt;Node171</title>
<path fill="none" stroke="midnightblue" d="M67.4082,-53.0564C80.3886,-47.0227 95.8761,-39.9867 110,-34 121.713,-29.0351 134.831,-23.8636 145.933,-19.5981"/>
<polygon fill="midnightblue" stroke="midnightblue" points="65.6098,-50.0336 58.0349,-57.4411 68.5759,-56.3742 65.6098,-50.0336"/>
</g>
<!-- Node168 -->
<g id="node4" class="node"><title>Node168</title>
<g id="a_node4"><a xlink:href="class_i_a.html#a364aef554d81e9a93bff08c28d437497" target="_top" xlink:title="IA::Tsumego">
<polygon fill="none" stroke="black" points="288.5,-76.5 288.5,-95.5 359.5,-95.5 359.5,-76.5 288.5,-76.5"/>
<text text-anchor="middle" x="324" y="-83.5" font-family="Helvetica,sans-Serif" font-size="10.00">IA::Tsumego</text>
</a>
</g>
</g>
<!-- Node167&#45;&gt;Node168 -->
<g id="edge3" class="edge"><title>Node167&#45;&gt;Node168</title>
<path fill="none" stroke="midnightblue" d="M227.582,-86C247.816,-86 270.243,-86 288.267,-86"/>
<polygon fill="midnightblue" stroke="midnightblue" points="227.546,-82.5001 217.546,-86 227.546,-89.5001 227.546,-82.5001"/>
</g>
<!-- Node167&#45;&gt;Node170 -->
<g id="edge5" class="edge"><title>Node167&#45;&gt;Node170</title>
<path fill="none" stroke="midnightblue" d="M221.152,-73.8879C241.973,-68.5956 266.038,-62.4787 285.546,-57.5201"/>
<polygon fill="midnightblue" stroke="midnightblue" points="220.055,-70.5553 211.225,-76.411 221.779,-77.3396 220.055,-70.5553"/>
</g>
<!-- Node169 -->
<g id="node5" class="node"><title>Node169</title>
<g id="a_node5"><a xlink:href="class_go___solver.html#a6ca744f1f4586c3f90f2e47915034baf" target="_top" xlink:title="Go_Solver::launchTsumego">
<polygon fill="none" stroke="black" points="413,-76.5 413,-95.5 548,-95.5 548,-76.5 413,-76.5"/>
<text text-anchor="middle" x="480.5" y="-83.5" font-family="Helvetica,sans-Serif" font-size="10.00">Go_Solver::launchTsumego</text>
</a>
</g>
</g>
<!-- Node168&#45;&gt;Node169 -->
<g id="edge4" class="edge"><title>Node168&#45;&gt;Node169</title>
<path fill="none" stroke="midnightblue" d="M370.056,-86C383.475,-86 398.473,-86 412.958,-86"/>
<polygon fill="midnightblue" stroke="midnightblue" points="369.673,-82.5001 359.673,-86 369.673,-89.5001 369.673,-82.5001"/>
</g>
</g>
</svg>
