<?xml version="1.0" encoding="UTF-8" standalone="no"?>
<!DOCTYPE svg PUBLIC "-//W3C//DTD SVG 1.1//EN"
 "http://www.w3.org/Graphics/SVG/1.1/DTD/svg11.dtd">
<!-- Generated by graphviz version 2.38.0 (20140413.2041)
 -->
<!-- Title: Menu_simple::setItemsTextures Pages: 1 -->
<svg width="605pt" height="180pt"
 viewBox="0.00 0.00 605.00 180.00" xmlns="http://www.w3.org/2000/svg" xmlns:xlink="http://www.w3.org/1999/xlink">
<g id="graph0" class="graph" transform="scale(1 1) rotate(0) translate(4 176)">
<title>Menu_simple::setItemsTextures</title>
<!-- Node24 -->
<g id="node1" class="node"><title>Node24</title>
<polygon fill="#bfbfbf" stroke="black" points="0,-76.5 0,-95.5 155,-95.5 155,-76.5 0,-76.5"/>
<text text-anchor="middle" x="77.5" y="-83.5" font-family="Helvetica,sans-Serif" font-size="10.00">Menu_simple::setItemsTextures</text>
</g>
<!-- Node25 -->
<g id="node2" class="node"><title>Node25</title>
<g id="a_node2"><a xlink:href="class_go___solver.html#aefc904642aa7fcc3a5f700f921b9c0ab" target="_top" xlink:title="Go_Solver::loadMenu1">
<polygon fill="none" stroke="black" points="191,-152.5 191,-171.5 305,-171.5 305,-152.5 191,-152.5"/>
<text text-anchor="middle" x="248" y="-159.5" font-family="Helvetica,sans-Serif" font-size="10.00">Go_Solver::loadMenu1</text>
</a>
</g>
</g>
<!-- Node24&#45;&gt;Node25 -->
<g id="edge1" class="edge"><title>Node24&#45;&gt;Node25</title>
<path fill="none" stroke="midnightblue" d="M104.594,-100.555C127.082,-112.773 160.624,-130.228 191,-143 199.044,-146.382 207.921,-149.613 216.189,-152.421"/>
<polygon fill="midnightblue" stroke="midnightblue" points="106.127,-97.404 95.6754,-95.6687 102.764,-103.543 106.127,-97.404"/>
</g>
<!-- Node28 -->
<g id="node5" class="node"><title>Node28</title>
<g id="a_node5"><a xlink:href="class_go___solver.html#a48def38f87effdb973b5f02329a0af4f" target="_top" xlink:title="Go_Solver::loadMenu3">
<polygon fill="none" stroke="black" points="191,-114.5 191,-133.5 305,-133.5 305,-114.5 191,-114.5"/>
<text text-anchor="middle" x="248" y="-121.5" font-family="Helvetica,sans-Serif" font-size="10.00">Go_Solver::loadMenu3</text>
</a>
</g>
</g>
<!-- Node24&#45;&gt;Node28 -->
<g id="edge4" class="edge"><title>Node24&#45;&gt;Node28</title>
<path fill="none" stroke="midnightblue" d="M130.931,-97.8243C154.687,-103.182 182.399,-109.431 204.786,-114.48"/>
<polygon fill="midnightblue" stroke="midnightblue" points="131.545,-94.3748 121.02,-95.589 130.005,-101.203 131.545,-94.3748"/>
</g>
<!-- Node29 -->
<g id="node6" class="node"><title>Node29</title>
<g id="a_node6"><a xlink:href="class_go___solver.html#a99b82aef6960441ba24e3b28c7ec9ad5" target="_top" xlink:title="Go_Solver::loadMenu4">
<polygon fill="none" stroke="black" points="191,-76.5 191,-95.5 305,-95.5 305,-76.5 191,-76.5"/>
<text text-anchor="middle" x="248" y="-83.5" font-family="Helvetica,sans-Serif" font-size="10.00">Go_Solver::loadMenu4</text>
</a>
</g>
</g>
<!-- Node24&#45;&gt;Node29 -->
<g id="edge6" class="edge"><title>Node24&#45;&gt;Node29</title>
<path fill="none" stroke="midnightblue" d="M165.486,-86C174.121,-86 182.717,-86 190.912,-86"/>
<polygon fill="midnightblue" stroke="midnightblue" points="165.354,-82.5001 155.354,-86 165.354,-89.5001 165.354,-82.5001"/>
</g>
<!-- Node30 -->
<g id="node7" class="node"><title>Node30</title>
<g id="a_node7"><a xlink:href="class_go___solver.html#a480bbc610bbc9bb3b1c675d69128d1fd" target="_top" xlink:title="Go_Solver::loadMenu5">
<polygon fill="none" stroke="black" points="191,-38.5 191,-57.5 305,-57.5 305,-38.5 191,-38.5"/>
<text text-anchor="middle" x="248" y="-45.5" font-family="Helvetica,sans-Serif" font-size="10.00">Go_Solver::loadMenu5</text>
</a>
</g>
</g>
<!-- Node24&#45;&gt;Node30 -->
<g id="edge8" class="edge"><title>Node24&#45;&gt;Node30</title>
<path fill="none" stroke="midnightblue" d="M130.931,-74.1757C154.687,-68.8184 182.399,-62.5689 204.786,-57.5201"/>
<polygon fill="midnightblue" stroke="midnightblue" points="130.005,-70.7967 121.02,-76.411 131.545,-77.6252 130.005,-70.7967"/>
</g>
<!-- Node31 -->
<g id="node8" class="node"><title>Node31</title>
<g id="a_node8"><a xlink:href="class_go___solver.html#a9aa3c644c34232cbc9bd3341930373c9" target="_top" xlink:title="Go_Solver::loadMenu6">
<polygon fill="none" stroke="black" points="191,-0.5 191,-19.5 305,-19.5 305,-0.5 191,-0.5"/>
<text text-anchor="middle" x="248" y="-7.5" font-family="Helvetica,sans-Serif" font-size="10.00">Go_Solver::loadMenu6</text>
</a>
</g>
</g>
<!-- Node24&#45;&gt;Node31 -->
<g id="edge10" class="edge"><title>Node24&#45;&gt;Node31</title>
<path fill="none" stroke="midnightblue" d="M104.594,-71.4448C127.082,-59.2274 160.624,-41.7724 191,-29 199.044,-25.6175 207.921,-22.3866 216.189,-19.5794"/>
<polygon fill="midnightblue" stroke="midnightblue" points="102.764,-68.4569 95.6754,-76.3313 106.127,-74.596 102.764,-68.4569"/>
</g>
<!-- Node26 -->
<g id="node3" class="node"><title>Node26</title>
<g id="a_node3"><a xlink:href="class_go___solver.html#a27ceb252dd57ac88d0dc2dbb04a25e32" target="_top" xlink:title="Go_Solver::loadMenu">
<polygon fill="none" stroke="black" points="341,-76.5 341,-95.5 450,-95.5 450,-76.5 341,-76.5"/>
<text text-anchor="middle" x="395.5" y="-83.5" font-family="Helvetica,sans-Serif" font-size="10.00">Go_Solver::loadMenu</text>
</a>
</g>
</g>
<!-- Node25&#45;&gt;Node26 -->
<g id="edge2" class="edge"><title>Node25&#45;&gt;Node26</title>
<path fill="none" stroke="midnightblue" d="M291.181,-148.915C295.909,-147.089 300.603,-145.108 305,-143 333.903,-129.142 364.863,-107.789 381.731,-95.5325"/>
<polygon fill="midnightblue" stroke="midnightblue" points="289.706,-145.728 281.51,-152.442 292.104,-152.304 289.706,-145.728"/>
</g>
<!-- Node27 -->
<g id="node4" class="node"><title>Node27</title>
<g id="a_node4"><a xlink:href="class_go___solver.html#a30bd2f9d195a5553cc683f8314ea4b58" target="_top" xlink:title="Go_Solver::Go_Solver">
<polygon fill="none" stroke="black" points="486,-76.5 486,-95.5 597,-95.5 597,-76.5 486,-76.5"/>
<text text-anchor="middle" x="541.5" y="-83.5" font-family="Helvetica,sans-Serif" font-size="10.00">Go_Solver::Go_Solver</text>
</a>
</g>
</g>
<!-- Node26&#45;&gt;Node27 -->
<g id="edge3" class="edge"><title>Node26&#45;&gt;Node27</title>
<path fill="none" stroke="midnightblue" d="M460.385,-86C468.889,-86 477.546,-86 485.874,-86"/>
<polygon fill="midnightblue" stroke="midnightblue" points="460.12,-82.5001 450.12,-86 460.12,-89.5001 460.12,-82.5001"/>
</g>
<!-- Node28&#45;&gt;Node26 -->
<g id="edge5" class="edge"><title>Node28&#45;&gt;Node26</title>
<path fill="none" stroke="midnightblue" d="M295.653,-111.816C315.853,-106.54 339.148,-100.456 358.048,-95.5201"/>
<polygon fill="midnightblue" stroke="midnightblue" points="294.507,-108.498 285.716,-114.411 296.276,-115.27 294.507,-108.498"/>
</g>
<!-- Node29&#45;&gt;Node26 -->
<g id="edge7" class="edge"><title>Node29&#45;&gt;Node26</title>
<path fill="none" stroke="midnightblue" d="M315.498,-86C323.967,-86 332.551,-86 340.785,-86"/>
<polygon fill="midnightblue" stroke="midnightblue" points="315.254,-82.5001 305.254,-86 315.254,-89.5001 315.254,-82.5001"/>
</g>
<!-- Node30&#45;&gt;Node26 -->
<g id="edge9" class="edge"><title>Node30&#45;&gt;Node26</title>
<path fill="none" stroke="midnightblue" d="M295.653,-60.1843C315.853,-65.46 339.148,-71.5438 358.048,-76.4799"/>
<polygon fill="midnightblue" stroke="midnightblue" points="296.276,-56.7296 285.716,-57.589 294.507,-63.5024 296.276,-56.7296"/>
</g>
<!-- Node31&#45;&gt;Node26 -->
<g id="edge11" class="edge"><title>Node31&#45;&gt;Node26</title>
<path fill="none" stroke="midnightblue" d="M291.181,-23.0847C295.909,-24.9115 300.603,-26.8916 305,-29 333.903,-42.8584 364.863,-64.2106 381.731,-76.4675"/>
<polygon fill="midnightblue" stroke="midnightblue" points="292.104,-19.6959 281.51,-19.5581 289.706,-26.2723 292.104,-19.6959"/>
</g>
</g>
</svg>
