<?xml version="1.0" encoding="UTF-8" standalone="no"?>
<!DOCTYPE svg PUBLIC "-//W3C//DTD SVG 1.1//EN"
 "http://www.w3.org/Graphics/SVG/1.1/DTD/svg11.dtd">
<!-- Generated by graphviz version 2.38.0 (20140413.2041)
 -->
<!-- Title: Choice::updateTexture Pages: 1 -->
<svg width="430pt" height="113pt"
 viewBox="0.00 0.00 430.00 112.50" xmlns="http://www.w3.org/2000/svg" xmlns:xlink="http://www.w3.org/1999/xlink">
<g id="graph0" class="graph" transform="scale(1 1) rotate(0) translate(4 108.5)">
<title>Choice::updateTexture</title>
<!-- Node31 -->
<g id="node1" class="node"><title>Node31</title>
<polygon fill="#bfbfbf" stroke="black" points="0,-38.5 0,-57.5 114,-57.5 114,-38.5 0,-38.5"/>
<text text-anchor="middle" x="57" y="-45.5" font-family="Helvetica,sans-Serif" font-size="10.00">Choice::updateTexture</text>
</g>
<!-- Node32 -->
<g id="node2" class="node"><title>Node32</title>
<g id="a_node2"><a xlink:href="class_choice.html#a70d994feb4c3215eb477bae3df7c5052" target="_top" xlink:title="Choice::loadTextures">
<polygon fill="none" stroke="black" points="150,-77.5 150,-96.5 258,-96.5 258,-77.5 150,-77.5"/>
<text text-anchor="middle" x="204" y="-84.5" font-family="Helvetica,sans-Serif" font-size="10.00">Choice::loadTextures</text>
</a>
</g>
</g>
<!-- Node31&#45;&gt;Node32 -->
<g id="edge1" class="edge"><title>Node31&#45;&gt;Node32</title>
<path fill="none" stroke="midnightblue" d="M103.337,-60.1941C124.076,-65.7722 148.281,-72.2826 167.644,-77.4905"/>
<polygon fill="midnightblue" stroke="midnightblue" points="104.037,-56.758 93.471,-57.5405 102.219,-63.5178 104.037,-56.758"/>
</g>
<!-- Node34 -->
<g id="node4" class="node"><title>Node34</title>
<g id="a_node4"><a xlink:href="class_choice.html#aa4bbe520ca9f933327fc1f678d6626f8" target="_top" xlink:title="Choice::setSelected">
<polygon fill="none" stroke="black" points="152,-38.5 152,-57.5 256,-57.5 256,-38.5 152,-38.5"/>
<text text-anchor="middle" x="204" y="-45.5" font-family="Helvetica,sans-Serif" font-size="10.00">Choice::setSelected</text>
</a>
</g>
</g>
<!-- Node31&#45;&gt;Node34 -->
<g id="edge3" class="edge"><title>Node31&#45;&gt;Node34</title>
<path fill="none" stroke="midnightblue" d="M124.082,-48C133.397,-48 142.853,-48 151.831,-48"/>
<polygon fill="midnightblue" stroke="midnightblue" points="124.061,-44.5001 114.061,-48 124.061,-51.5001 124.061,-44.5001"/>
</g>
<!-- Node36 -->
<g id="node6" class="node"><title>Node36</title>
<g id="a_node6"><a xlink:href="class_choice.html#a377e5d456c5c7c7e8914af52cf184a3a" target="_top" xlink:title="Choice::setHover">
<polygon fill="none" stroke="black" points="159,-0.5 159,-19.5 249,-19.5 249,-0.5 159,-0.5"/>
<text text-anchor="middle" x="204" y="-7.5" font-family="Helvetica,sans-Serif" font-size="10.00">Choice::setHover</text>
</a>
</g>
</g>
<!-- Node31&#45;&gt;Node36 -->
<g id="edge5" class="edge"><title>Node31&#45;&gt;Node36</title>
<path fill="none" stroke="midnightblue" d="M104.493,-35.8157C124.624,-30.54 147.838,-24.4562 166.673,-19.5201"/>
<polygon fill="midnightblue" stroke="midnightblue" points="103.376,-32.4902 94.5896,-38.411 105.15,-39.2615 103.376,-32.4902"/>
</g>
<!-- Node33 -->
<g id="node3" class="node"><title>Node33</title>
<g id="a_node3"><a xlink:href="class_choice__miniature.html#a156cdcafd4f44bdcf262669612fa8b82" target="_top" xlink:title="Choice_miniature::Choice\l_miniature">
<polygon fill="none" stroke="black" points="294,-74 294,-104 422,-104 422,-74 294,-74"/>
<text text-anchor="start" x="302" y="-92" font-family="Helvetica,sans-Serif" font-size="10.00">Choice_miniature::Choice</text>
<text text-anchor="middle" x="358" y="-81" font-family="Helvetica,sans-Serif" font-size="10.00">_miniature</text>
</a>
</g>
</g>
<!-- Node32&#45;&gt;Node33 -->
<g id="edge2" class="edge"><title>Node32&#45;&gt;Node33</title>
<path fill="none" stroke="midnightblue" d="M268.35,-87.8336C276.814,-87.9449 285.493,-88.0591 293.952,-88.1704"/>
<polygon fill="midnightblue" stroke="midnightblue" points="268.207,-84.3315 258.162,-87.6995 268.115,-91.3309 268.207,-84.3315"/>
</g>
<!-- Node35 -->
<g id="node5" class="node"><title>Node35</title>
<g id="a_node5"><a xlink:href="class_menu.html#a589f53bbd6436b381b5ec92a609d5d66" target="_top" xlink:title="Menu::getPosition">
<polygon fill="none" stroke="black" points="310.5,-35.5 310.5,-54.5 405.5,-54.5 405.5,-35.5 310.5,-35.5"/>
<text text-anchor="middle" x="358" y="-42.5" font-family="Helvetica,sans-Serif" font-size="10.00">Menu::getPosition</text>
</a>
</g>
</g>
<!-- Node34&#45;&gt;Node35 -->
<g id="edge4" class="edge"><title>Node34&#45;&gt;Node35</title>
<path fill="none" stroke="midnightblue" d="M266.116,-46.7938C280.898,-46.502 296.461,-46.1949 310.449,-45.9188"/>
<polygon fill="midnightblue" stroke="midnightblue" points="265.966,-43.296 256.037,-46.9927 266.104,-50.2946 265.966,-43.296"/>
</g>
</g>
</svg>
