<?xml version="1.0" encoding="UTF-8" standalone="no"?>
<!DOCTYPE svg PUBLIC "-//W3C//DTD SVG 1.1//EN"
 "http://www.w3.org/Graphics/SVG/1.1/DTD/svg11.dtd">
<!-- Generated by graphviz version 2.38.0 (20140413.2041)
 -->
<!-- Title: IA::Tsumego Pages: 1 -->
<svg width="433pt" height="446pt"
 viewBox="0.00 0.00 433.00 446.00" xmlns="http://www.w3.org/2000/svg" xmlns:xlink="http://www.w3.org/1999/xlink">
<g id="graph0" class="graph" transform="scale(1 1) rotate(0) translate(4 442)">
<title>IA::Tsumego</title>
<!-- Node18 -->
<g id="node1" class="node"><title>Node18</title>
<polygon fill="#bfbfbf" stroke="black" points="0,-171.5 0,-190.5 71,-190.5 71,-171.5 0,-171.5"/>
<text text-anchor="middle" x="35.5" y="-178.5" font-family="Helvetica,sans-Serif" font-size="10.00">IA::Tsumego</text>
</g>
<!-- Node19 -->
<g id="node2" class="node"><title>Node19</title>
<g id="a_node2"><a xlink:href="class_i_a.html#a5c0a6371478dedeb16372d13ce13cc34" target="_top" xlink:title="IA::loadNumber">
<polygon fill="none" stroke="black" points="112,-351.5 112,-370.5 195,-370.5 195,-351.5 112,-351.5"/>
<text text-anchor="middle" x="153.5" y="-358.5" font-family="Helvetica,sans-Serif" font-size="10.00">IA::loadNumber</text>
</a>
</g>
</g>
<!-- Node18&#45;&gt;Node19 -->
<g id="edge1" class="edge"><title>Node18&#45;&gt;Node19</title>
<path fill="none" stroke="midnightblue" d="M38.8626,-190.628C45.59,-216.391 66.9924,-287.998 107,-333 111.368,-337.913 116.805,-342.252 122.384,-345.958"/>
<polygon fill="midnightblue" stroke="midnightblue" points="120.767,-349.07 131.135,-351.252 124.39,-343.081 120.767,-349.07"/>
</g>
<!-- Node22 -->
<g id="node5" class="node"><title>Node22</title>
<g id="a_node5"><a xlink:href="class_etat.html#ac0b81bbcf64cb3cc574e5a9dcdf94382" target="_top" xlink:title="Etat::getVal">
<polygon fill="none" stroke="black" points="244,-418.5 244,-437.5 312,-437.5 312,-418.5 244,-418.5"/>
<text text-anchor="middle" x="278" y="-425.5" font-family="Helvetica,sans-Serif" font-size="10.00">Etat::getVal</text>
</a>
</g>
</g>
<!-- Node18&#45;&gt;Node22 -->
<g id="edge22" class="edge"><title>Node18&#45;&gt;Node22</title>
<path fill="none" stroke="midnightblue" d="M36.9203,-190.532C38.8522,-222.381 49.4889,-326.126 107,-380 141.37,-412.196 195.676,-423.038 233.634,-426.559"/>
<polygon fill="midnightblue" stroke="midnightblue" points="233.631,-430.07 243.876,-427.37 234.183,-423.092 233.631,-430.07"/>
</g>
<!-- Node23 -->
<g id="node6" class="node"><title>Node23</title>
<g id="a_node6"><a xlink:href="class_i_a.html#af1f6e5abe41a2225b17ca319c1fc0e4e" target="_top" xlink:title="IA::Tsumego_abr">
<polygon fill="none" stroke="black" points="108.5,-209.5 108.5,-228.5 198.5,-228.5 198.5,-209.5 108.5,-209.5"/>
<text text-anchor="middle" x="153.5" y="-216.5" font-family="Helvetica,sans-Serif" font-size="10.00">IA::Tsumego_abr</text>
</a>
</g>
</g>
<!-- Node18&#45;&gt;Node23 -->
<g id="edge5" class="edge"><title>Node18&#45;&gt;Node23</title>
<path fill="none" stroke="midnightblue" d="M65.7717,-190.589C80.1967,-195.314 97.7934,-201.079 113.357,-206.177"/>
<polygon fill="midnightblue" stroke="midnightblue" points="112.645,-209.627 123.238,-209.414 114.824,-202.975 112.645,-209.627"/>
</g>
<!-- Node24 -->
<g id="node7" class="node"><title>Node24</title>
<g id="a_node7"><a xlink:href="class_arbre.html#a0aef1f091d76bca13229a21fcd45a076" target="_top" xlink:title="Arbre::getNbF">
<polygon fill="none" stroke="black" points="239.5,-76.5 239.5,-95.5 316.5,-95.5 316.5,-76.5 239.5,-76.5"/>
<text text-anchor="middle" x="278" y="-83.5" font-family="Helvetica,sans-Serif" font-size="10.00">Arbre::getNbF</text>
</a>
</g>
</g>
<!-- Node18&#45;&gt;Node24 -->
<g id="edge20" class="edge"><title>Node18&#45;&gt;Node24</title>
<path fill="none" stroke="midnightblue" d="M71.1228,-183.601C106.205,-184.572 160.755,-181.359 200,-157 223.883,-142.176 214.494,-123.1 236,-105 237.756,-103.522 239.645,-102.134 241.616,-100.835"/>
<polygon fill="midnightblue" stroke="midnightblue" points="243.657,-103.7 250.603,-95.6997 240.184,-97.6218 243.657,-103.7"/>
</g>
<!-- Node27 -->
<g id="node10" class="node"><title>Node27</title>
<g id="a_node10"><a xlink:href="class_arbre.html#aeaa93d0b192e3cce04adb509b6b29c40" target="_top" xlink:title="Arbre::getValue">
<polygon fill="none" stroke="black" points="236,-38.5 236,-57.5 320,-57.5 320,-38.5 236,-38.5"/>
<text text-anchor="middle" x="278" y="-45.5" font-family="Helvetica,sans-Serif" font-size="10.00">Arbre::getValue</text>
</a>
</g>
</g>
<!-- Node18&#45;&gt;Node27 -->
<g id="edge21" class="edge"><title>Node18&#45;&gt;Node27</title>
<path fill="none" stroke="midnightblue" d="M64.3471,-171.457C108.046,-156.331 188.911,-127.674 200,-119 222.139,-101.68 214.494,-85.0999 236,-67 237.756,-65.5224 239.645,-64.1344 241.616,-62.8348"/>
<polygon fill="midnightblue" stroke="midnightblue" points="243.657,-65.6997 250.603,-57.6997 240.184,-59.6218 243.657,-65.6997"/>
</g>
<!-- Node29 -->
<g id="node12" class="node"><title>Node29</title>
<g id="a_node12"><a xlink:href="class_arbre.html#afc71a182e86352b06193c2dc746fab79" target="_top" xlink:title="Arbre::getInfo">
<polygon fill="none" stroke="black" points="241,-0.5 241,-19.5 315,-19.5 315,-0.5 241,-0.5"/>
<text text-anchor="middle" x="278" y="-7.5" font-family="Helvetica,sans-Serif" font-size="10.00">Arbre::getInfo</text>
</a>
</g>
</g>
<!-- Node18&#45;&gt;Node29 -->
<g id="edge23" class="edge"><title>Node18&#45;&gt;Node29</title>
<path fill="none" stroke="midnightblue" d="M45.1793,-171.333C57.6723,-157.93 81.9845,-133.696 107,-119 144.816,-96.7844 165.738,-113.381 200,-86 223.407,-67.2943 213.488,-48.7732 236,-29 237.724,-27.4857 239.589,-26.0693 241.541,-24.7484"/>
<polygon fill="midnightblue" stroke="midnightblue" points="243.59,-27.6061 250.483,-19.5595 240.077,-21.5517 243.59,-27.6061"/>
</g>
<!-- Node34 -->
<g id="node17" class="node"><title>Node34</title>
<g id="a_node17"><a xlink:href="_i_a_8cpp.html#a2f7deb8e736801498741ae99e142daee" target="_top" xlink:title="factoriel">
<polygon fill="none" stroke="black" points="128.5,-57.5 128.5,-76.5 178.5,-76.5 178.5,-57.5 128.5,-57.5"/>
<text text-anchor="middle" x="153.5" y="-64.5" font-family="Helvetica,sans-Serif" font-size="10.00">factoriel</text>
</a>
</g>
</g>
<!-- Node18&#45;&gt;Node34 -->
<g id="edge19" class="edge"><title>Node18&#45;&gt;Node34</title>
<path fill="none" stroke="midnightblue" d="M42.1997,-171.24C52.9802,-153.44 77.9036,-115.301 107,-91 111.093,-87.5811 115.753,-84.4513 120.492,-81.6617"/>
<polygon fill="midnightblue" stroke="midnightblue" points="122.457,-84.5776 129.575,-76.7301 119.117,-78.4259 122.457,-84.5776"/>
</g>
<!-- Node35 -->
<g id="node18" class="node"><title>Node35</title>
<g id="a_node18"><a xlink:href="class_i_a.html#a8113a453920dfbee224ae38a6367e059" target="_top" xlink:title="IA::Solution">
<polygon fill="none" stroke="black" points="120,-304.5 120,-323.5 187,-323.5 187,-304.5 120,-304.5"/>
<text text-anchor="middle" x="153.5" y="-311.5" font-family="Helvetica,sans-Serif" font-size="10.00">IA::Solution</text>
</a>
</g>
</g>
<!-- Node18&#45;&gt;Node35 -->
<g id="edge24" class="edge"><title>Node18&#45;&gt;Node35</title>
<path fill="none" stroke="midnightblue" d="M44.8424,-190.565C64.2278,-212.791 112.544,-268.188 137.321,-296.597"/>
<polygon fill="midnightblue" stroke="midnightblue" points="134.709,-298.927 143.92,-304.163 139.985,-294.326 134.709,-298.927"/>
</g>
<!-- Node36 -->
<g id="node19" class="node"><title>Node36</title>
<g id="a_node19"><a xlink:href="class_i_a.html#a61a236c15bade2bb202d2f6e25825894" target="_top" xlink:title="IA::stop_tsumego">
<polygon fill="none" stroke="black" points="107,-19.5 107,-38.5 200,-38.5 200,-19.5 107,-19.5"/>
<text text-anchor="middle" x="153.5" y="-26.5" font-family="Helvetica,sans-Serif" font-size="10.00">IA::stop_tsumego</text>
</a>
</g>
</g>
<!-- Node18&#45;&gt;Node36 -->
<g id="edge27" class="edge"><title>Node18&#45;&gt;Node36</title>
<path fill="none" stroke="midnightblue" d="M39.1692,-171.214C46.2302,-147.052 67.6114,-83.9274 107,-48 108.696,-46.4532 110.535,-45.022 112.47,-43.6992"/>
<polygon fill="midnightblue" stroke="midnightblue" points="114.479,-46.5822 121.411,-38.5707 110.996,-40.5102 114.479,-46.5822"/>
</g>
<!-- Node20 -->
<g id="node3" class="node"><title>Node20</title>
<g id="a_node3"><a xlink:href="class_arbre.html#ae9d294f541cec5e5fac9ccd8fe8496ee" target="_top" xlink:title="Arbre::getGob">
<polygon fill="none" stroke="black" points="239.5,-342.5 239.5,-361.5 316.5,-361.5 316.5,-342.5 239.5,-342.5"/>
<text text-anchor="middle" x="278" y="-349.5" font-family="Helvetica,sans-Serif" font-size="10.00">Arbre::getGob</text>
</a>
</g>
</g>
<!-- Node19&#45;&gt;Node20 -->
<g id="edge2" class="edge"><title>Node19&#45;&gt;Node20</title>
<path fill="none" stroke="midnightblue" d="M195.291,-358.003C206.161,-357.204 218.003,-356.334 229.213,-355.511"/>
<polygon fill="midnightblue" stroke="midnightblue" points="229.566,-358.994 239.283,-354.771 229.053,-352.013 229.566,-358.994"/>
</g>
<!-- Node21 -->
<g id="node4" class="node"><title>Node21</title>
<g id="a_node4"><a xlink:href="class_goban.html#a29aaf8df380fe614845d48cba057747c" target="_top" xlink:title="Goban::coord">
<polygon fill="none" stroke="black" points="240.5,-380.5 240.5,-399.5 315.5,-399.5 315.5,-380.5 240.5,-380.5"/>
<text text-anchor="middle" x="278" y="-387.5" font-family="Helvetica,sans-Serif" font-size="10.00">Goban::coord</text>
</a>
</g>
</g>
<!-- Node19&#45;&gt;Node21 -->
<g id="edge3" class="edge"><title>Node19&#45;&gt;Node21</title>
<path fill="none" stroke="midnightblue" d="M194.951,-370.576C206.27,-373.256 218.665,-376.19 230.313,-378.948"/>
<polygon fill="midnightblue" stroke="midnightblue" points="229.775,-382.417 240.312,-381.315 231.387,-375.605 229.775,-382.417"/>
</g>
<!-- Node19&#45;&gt;Node22 -->
<g id="edge4" class="edge"><title>Node19&#45;&gt;Node22</title>
<path fill="none" stroke="midnightblue" d="M169.867,-370.664C186.063,-380.703 212.443,-396.643 236,-409 239.152,-410.654 242.475,-412.318 245.809,-413.937"/>
<polygon fill="midnightblue" stroke="midnightblue" points="244.566,-417.221 255.102,-418.335 247.561,-410.894 244.566,-417.221"/>
</g>
<!-- Node23&#45;&gt;Node20 -->
<g id="edge7" class="edge"><title>Node23&#45;&gt;Node20</title>
<path fill="none" stroke="midnightblue" d="M159.115,-228.521C169.866,-249.836 198.536,-301.95 236,-333 237.956,-334.621 240.072,-336.135 242.278,-337.545"/>
<polygon fill="midnightblue" stroke="midnightblue" points="240.638,-340.638 251.075,-342.462 244.054,-334.528 240.638,-340.638"/>
</g>
<!-- Node23&#45;&gt;Node21 -->
<g id="edge8" class="edge"><title>Node23&#45;&gt;Node21</title>
<path fill="none" stroke="midnightblue" d="M160.699,-228.663C169.757,-242.932 186.95,-270.588 200,-295 217.62,-327.962 209.46,-344.683 236,-371 237.421,-372.409 238.965,-373.725 240.594,-374.954"/>
<polygon fill="midnightblue" stroke="midnightblue" points="238.937,-378.046 249.27,-380.387 242.653,-372.113 238.937,-378.046"/>
</g>
<!-- Node23&#45;&gt;Node22 -->
<g id="edge11" class="edge"><title>Node23&#45;&gt;Node22</title>
<path fill="none" stroke="midnightblue" d="M161.471,-228.914C171.16,-243.044 188.772,-270.035 200,-295 221.795,-343.457 200.911,-369.102 236,-409 237.14,-410.296 238.387,-411.51 239.713,-412.645"/>
<polygon fill="midnightblue" stroke="midnightblue" points="237.776,-415.56 248.002,-418.331 241.735,-409.788 237.776,-415.56"/>
</g>
<!-- Node23&#45;&gt;Node24 -->
<g id="edge6" class="edge"><title>Node23&#45;&gt;Node24</title>
<path fill="none" stroke="midnightblue" d="M180.3,-209.348C187.402,-205.713 194.622,-200.974 200,-195 228.825,-162.982 206.362,-136.266 236,-105 237.224,-103.708 238.554,-102.496 239.96,-101.36"/>
<polygon fill="midnightblue" stroke="midnightblue" points="242.217,-104.065 248.657,-95.6526 238.376,-98.2132 242.217,-104.065"/>
</g>
<!-- Node25 -->
<g id="node8" class="node"><title>Node25</title>
<g id="a_node8"><a xlink:href="class_etat.html#aa25e66b110bc835523819392435e78c6" target="_top" xlink:title="Etat::getX">
<polygon fill="none" stroke="black" points="248.5,-228.5 248.5,-247.5 307.5,-247.5 307.5,-228.5 248.5,-228.5"/>
<text text-anchor="middle" x="278" y="-235.5" font-family="Helvetica,sans-Serif" font-size="10.00">Etat::getX</text>
</a>
</g>
</g>
<!-- Node23&#45;&gt;Node25 -->
<g id="edge9" class="edge"><title>Node23&#45;&gt;Node25</title>
<path fill="none" stroke="midnightblue" d="M198.725,-225.859C211.682,-227.869 225.743,-230.05 238.326,-232.002"/>
<polygon fill="midnightblue" stroke="midnightblue" points="238.073,-235.504 248.492,-233.578 239.146,-228.587 238.073,-235.504"/>
</g>
<!-- Node26 -->
<g id="node9" class="node"><title>Node26</title>
<g id="a_node9"><a xlink:href="class_etat.html#a3e3e915f2261c83989a983e84b1273c1" target="_top" xlink:title="Etat::getY">
<polygon fill="none" stroke="black" points="247.5,-190.5 247.5,-209.5 308.5,-209.5 308.5,-190.5 247.5,-190.5"/>
<text text-anchor="middle" x="278" y="-197.5" font-family="Helvetica,sans-Serif" font-size="10.00">Etat::getY</text>
</a>
</g>
</g>
<!-- Node23&#45;&gt;Node26 -->
<g id="edge10" class="edge"><title>Node23&#45;&gt;Node26</title>
<path fill="none" stroke="midnightblue" d="M198.725,-212.141C211.361,-210.181 225.047,-208.058 237.388,-206.144"/>
<polygon fill="midnightblue" stroke="midnightblue" points="238.04,-209.585 247.385,-204.593 236.967,-202.667 238.04,-209.585"/>
</g>
<!-- Node23&#45;&gt;Node27 -->
<g id="edge12" class="edge"><title>Node23&#45;&gt;Node27</title>
<path fill="none" stroke="midnightblue" d="M162.725,-209.429C172.533,-197.674 188.983,-176.844 200,-157 220.911,-119.334 206.362,-98.2662 236,-67 237.224,-65.7083 238.554,-64.4962 239.96,-63.36"/>
<polygon fill="midnightblue" stroke="midnightblue" points="242.217,-66.0655 248.657,-57.6526 238.376,-60.2132 242.217,-66.0655"/>
</g>
<!-- Node28 -->
<g id="node11" class="node"><title>Node28</title>
<g id="a_node11"><a xlink:href="class_arbre.html#a051e5328c63ba7ab6f6359f9f2f77105" target="_top" xlink:title="Arbre::setInfo">
<polygon fill="none" stroke="black" points="241,-152.5 241,-171.5 315,-171.5 315,-152.5 241,-152.5"/>
<text text-anchor="middle" x="278" y="-159.5" font-family="Helvetica,sans-Serif" font-size="10.00">Arbre::setInfo</text>
</a>
</g>
</g>
<!-- Node23&#45;&gt;Node28 -->
<g id="edge13" class="edge"><title>Node23&#45;&gt;Node28</title>
<path fill="none" stroke="midnightblue" d="M174.925,-209.461C191.406,-201.767 215.189,-190.674 236,-181 239.579,-179.336 243.335,-177.593 247.06,-175.865"/>
<polygon fill="midnightblue" stroke="midnightblue" points="248.537,-179.038 256.138,-171.656 245.593,-172.687 248.537,-179.038"/>
</g>
<!-- Node23&#45;&gt;Node29 -->
<g id="edge14" class="edge"><title>Node23&#45;&gt;Node29</title>
<path fill="none" stroke="midnightblue" d="M159.042,-209.413C167.404,-191.678 185.687,-152.502 200,-119 216.926,-79.3828 206.362,-60.2662 236,-29 237.224,-27.7083 238.554,-26.4962 239.96,-25.36"/>
<polygon fill="midnightblue" stroke="midnightblue" points="242.217,-28.0655 248.657,-19.6526 238.376,-22.2132 242.217,-28.0655"/>
</g>
<!-- Node30 -->
<g id="node13" class="node"><title>Node30</title>
<g id="a_node13"><a xlink:href="class_arbre.html#aceca304216a7f620926c2147c7c84acd" target="_top" xlink:title="Arbre::setFilsA">
<polygon fill="none" stroke="black" points="237,-114.5 237,-133.5 319,-133.5 319,-114.5 237,-114.5"/>
<text text-anchor="middle" x="278" y="-121.5" font-family="Helvetica,sans-Serif" font-size="10.00">Arbre::setFilsA</text>
</a>
</g>
</g>
<!-- Node23&#45;&gt;Node30 -->
<g id="edge15" class="edge"><title>Node23&#45;&gt;Node30</title>
<path fill="none" stroke="midnightblue" d="M177.617,-209.493C185.248,-205.684 193.451,-200.806 200,-195 221.034,-176.353 214.494,-161.1 236,-143 237.756,-141.522 239.645,-140.134 241.616,-138.835"/>
<polygon fill="midnightblue" stroke="midnightblue" points="243.657,-141.7 250.603,-133.7 240.184,-135.622 243.657,-141.7"/>
</g>
<!-- Node32 -->
<g id="node15" class="node"><title>Node32</title>
<g id="a_node15"><a xlink:href="class_arbre.html#ab8761bfdaadb8d6846199f269c6bbbc4" target="_top" xlink:title="Arbre::at">
<polygon fill="none" stroke="black" points="251,-266.5 251,-285.5 305,-285.5 305,-266.5 251,-266.5"/>
<text text-anchor="middle" x="278" y="-273.5" font-family="Helvetica,sans-Serif" font-size="10.00">Arbre::at</text>
</a>
</g>
</g>
<!-- Node23&#45;&gt;Node32 -->
<g id="edge17" class="edge"><title>Node23&#45;&gt;Node32</title>
<path fill="none" stroke="midnightblue" d="M174.925,-228.539C191.406,-236.233 215.189,-247.326 236,-257 239.579,-258.664 243.335,-260.407 247.06,-262.135"/>
<polygon fill="midnightblue" stroke="midnightblue" points="245.593,-265.313 256.138,-266.344 248.537,-258.962 245.593,-265.313"/>
</g>
<!-- Node33 -->
<g id="node16" class="node"><title>Node33</title>
<g id="a_node16"><a xlink:href="class_arbre.html#af2b7629b3686bcf3e49f737adb3b2d24" target="_top" xlink:title="Arbre::getFilsA">
<polygon fill="none" stroke="black" points="237,-304.5 237,-323.5 319,-323.5 319,-304.5 237,-304.5"/>
<text text-anchor="middle" x="278" y="-311.5" font-family="Helvetica,sans-Serif" font-size="10.00">Arbre::getFilsA</text>
</a>
</g>
</g>
<!-- Node23&#45;&gt;Node33 -->
<g id="edge18" class="edge"><title>Node23&#45;&gt;Node33</title>
<path fill="none" stroke="midnightblue" d="M163.205,-228.938C177.283,-244.561 206.464,-275.129 236,-295 238.441,-296.642 241.047,-298.211 243.716,-299.693"/>
<polygon fill="midnightblue" stroke="midnightblue" points="242.395,-302.948 252.893,-304.374 245.576,-296.712 242.395,-302.948"/>
</g>
<!-- Node31 -->
<g id="node14" class="node"><title>Node31</title>
<g id="a_node14"><a xlink:href="class_arbre.html#a761f4a2c6a43f44b38d4ac6fc1cf5cae" target="_top" xlink:title="Arbre::Arbre">
<polygon fill="none" stroke="black" points="356,-114.5 356,-133.5 425,-133.5 425,-114.5 356,-114.5"/>
<text text-anchor="middle" x="390.5" y="-121.5" font-family="Helvetica,sans-Serif" font-size="10.00">Arbre::Arbre</text>
</a>
</g>
</g>
<!-- Node30&#45;&gt;Node31 -->
<g id="edge16" class="edge"><title>Node30&#45;&gt;Node31</title>
<path fill="none" stroke="midnightblue" d="M319.206,-124C327.81,-124 336.942,-124 345.675,-124"/>
<polygon fill="midnightblue" stroke="midnightblue" points="345.688,-127.5 355.688,-124 345.688,-120.5 345.688,-127.5"/>
</g>
<!-- Node35&#45;&gt;Node20 -->
<g id="edge25" class="edge"><title>Node35&#45;&gt;Node20</title>
<path fill="none" stroke="midnightblue" d="M185.412,-323.589C200.79,-328.359 219.582,-334.189 236.133,-339.323"/>
<polygon fill="midnightblue" stroke="midnightblue" points="235.51,-342.794 246.098,-342.414 237.584,-336.108 235.51,-342.794"/>
</g>
<!-- Node35&#45;&gt;Node33 -->
<g id="edge26" class="edge"><title>Node35&#45;&gt;Node33</title>
<path fill="none" stroke="midnightblue" d="M187.006,-314C199.207,-314 213.375,-314 226.809,-314"/>
<polygon fill="midnightblue" stroke="midnightblue" points="226.894,-317.5 236.894,-314 226.894,-310.5 226.894,-317.5"/>
</g>
</g>
</svg>
