<?xml version="1.0" encoding="UTF-8" standalone="no"?>
<!DOCTYPE svg PUBLIC "-//W3C//DTD SVG 1.1//EN"
 "http://www.w3.org/Graphics/SVG/1.1/DTD/svg11.dtd">
<!-- Generated by graphviz version 2.38.0 (20140413.2041)
 -->
<!-- Title: Board::turnSoundsDown Pages: 1 -->
<svg width="501pt" height="28pt"
 viewBox="0.00 0.00 501.00 28.00" xmlns="http://www.w3.org/2000/svg" xmlns:xlink="http://www.w3.org/1999/xlink">
<g id="graph0" class="graph" transform="scale(1 1) rotate(0) translate(4 24)">
<title>Board::turnSoundsDown</title>
<!-- Node104 -->
<g id="node1" class="node"><title>Node104</title>
<polygon fill="#bfbfbf" stroke="black" points="0,-0.5 0,-19.5 122,-19.5 122,-0.5 0,-0.5"/>
<text text-anchor="middle" x="61" y="-7.5" font-family="Helvetica,sans-Serif" font-size="10.00">Board::turnSoundsDown</text>
</g>
<!-- Node105 -->
<g id="node2" class="node"><title>Node105</title>
<g id="a_node2"><a xlink:href="class_game__window.html#aa934e0cb8983cf30af634deff8581848" target="_top" xlink:title="Game_window::turnSoundsDown">
<polygon fill="none" stroke="black" points="158,-0.5 158,-19.5 317,-19.5 317,-0.5 158,-0.5"/>
<text text-anchor="middle" x="237.5" y="-7.5" font-family="Helvetica,sans-Serif" font-size="10.00">Game_window::turnSoundsDown</text>
</a>
</g>
</g>
<!-- Node104&#45;&gt;Node105 -->
<g id="edge1" class="edge"><title>Node104&#45;&gt;Node105</title>
<path fill="none" stroke="midnightblue" d="M132.21,-10C140.645,-10 149.301,-10 157.847,-10"/>
<polygon fill="midnightblue" stroke="midnightblue" points="132.053,-6.5001 122.053,-10 132.053,-13.5001 132.053,-6.5001"/>
</g>
<!-- Node106 -->
<g id="node3" class="node"><title>Node106</title>
<g id="a_node3"><a xlink:href="class_go___solver.html#a1d7d0fad019f2d33caebb6cfe11d1f42" target="_top" xlink:title="Go_Solver::turnSoundsDown">
<polygon fill="none" stroke="black" points="353,-0.5 353,-19.5 493,-19.5 493,-0.5 353,-0.5"/>
<text text-anchor="middle" x="423" y="-7.5" font-family="Helvetica,sans-Serif" font-size="10.00">Go_Solver::turnSoundsDown</text>
</a>
</g>
</g>
<!-- Node105&#45;&gt;Node106 -->
<g id="edge2" class="edge"><title>Node105&#45;&gt;Node106</title>
<path fill="none" stroke="midnightblue" d="M327.185,-10C335.79,-10 344.43,-10 352.803,-10"/>
<polygon fill="midnightblue" stroke="midnightblue" points="327.119,-6.5001 317.119,-10 327.119,-13.5001 327.119,-6.5001"/>
</g>
</g>
</svg>
