<?xml version="1.0" encoding="UTF-8" standalone="no"?>
<!DOCTYPE svg PUBLIC "-//W3C//DTD SVG 1.1//EN"
 "http://www.w3.org/Graphics/SVG/1.1/DTD/svg11.dtd">
<!-- Generated by graphviz version 2.38.0 (20140413.2041)
 -->
<!-- Title: Goban::eliminateOppGroups Pages: 1 -->
<svg width="702pt" height="256pt"
 viewBox="0.00 0.00 702.00 256.00" xmlns="http://www.w3.org/2000/svg" xmlns:xlink="http://www.w3.org/1999/xlink">
<g id="graph0" class="graph" transform="scale(1 1) rotate(0) translate(4 252)">
<title>Goban::eliminateOppGroups</title>
<!-- Node127 -->
<g id="node1" class="node"><title>Node127</title>
<polygon fill="#bfbfbf" stroke="black" points="0,-76.5 0,-95.5 140,-95.5 140,-76.5 0,-76.5"/>
<text text-anchor="middle" x="70" y="-83.5" font-family="Helvetica,sans-Serif" font-size="10.00">Goban::eliminateOppGroups</text>
</g>
<!-- Node128 -->
<g id="node2" class="node"><title>Node128</title>
<g id="a_node2"><a xlink:href="class_goban.html#a1ec70508987f66afff5f8df381731fac" target="_top" xlink:title="Goban::eliminateGroups">
<polygon fill="none" stroke="black" points="176,-76.5 176,-95.5 298,-95.5 298,-76.5 176,-76.5"/>
<text text-anchor="middle" x="237" y="-83.5" font-family="Helvetica,sans-Serif" font-size="10.00">Goban::eliminateGroups</text>
</a>
</g>
</g>
<!-- Node127&#45;&gt;Node128 -->
<g id="edge1" class="edge"><title>Node127&#45;&gt;Node128</title>
<path fill="none" stroke="midnightblue" d="M140.019,-86C148.494,-86 157.165,-86 165.66,-86"/>
<polygon fill="midnightblue" stroke="midnightblue" points="165.91,-89.5001 175.91,-86 165.91,-82.5001 165.91,-89.5001"/>
</g>
<!-- Node129 -->
<g id="node3" class="node"><title>Node129</title>
<g id="a_node3"><a xlink:href="class_goban.html#a84f36324eb9ddc29f522d481f04c13e7" target="_top" xlink:title="Goban::listOfLiberties">
<polygon fill="none" stroke="black" points="337,-171.5 337,-190.5 447,-190.5 447,-171.5 337,-171.5"/>
<text text-anchor="middle" x="392" y="-178.5" font-family="Helvetica,sans-Serif" font-size="10.00">Goban::listOfLiberties</text>
</a>
</g>
</g>
<!-- Node128&#45;&gt;Node129 -->
<g id="edge2" class="edge"><title>Node128&#45;&gt;Node129</title>
<path fill="none" stroke="midnightblue" d="M253.512,-95.6319C280.203,-112.204 334.998,-146.228 366.762,-165.951"/>
<polygon fill="midnightblue" stroke="midnightblue" points="365.105,-169.041 375.447,-171.343 368.797,-163.094 365.105,-169.041"/>
</g>
<!-- Node135 -->
<g id="node9" class="node"><title>Node135</title>
<g id="a_node9"><a xlink:href="class_etat.html#aa88987ca54aee676717f05e4570c0aec" target="_top" xlink:title="Etat::setVal">
<polygon fill="none" stroke="black" points="626,-114.5 626,-133.5 694,-133.5 694,-114.5 626,-114.5"/>
<text text-anchor="middle" x="660" y="-121.5" font-family="Helvetica,sans-Serif" font-size="10.00">Etat::setVal</text>
</a>
</g>
</g>
<!-- Node128&#45;&gt;Node135 -->
<g id="edge11" class="edge"><title>Node128&#45;&gt;Node135</title>
<path fill="none" stroke="midnightblue" d="M279.853,-95.5777C296.606,-99.0716 316.135,-102.721 334,-105 434.169,-117.779 552.82,-121.976 615.365,-123.345"/>
<polygon fill="midnightblue" stroke="midnightblue" points="615.573,-126.849 625.643,-123.555 615.716,-119.851 615.573,-126.849"/>
</g>
<!-- Node137 -->
<g id="node11" class="node"><title>Node137</title>
<g id="a_node11"><a xlink:href="class_goban.html#a29aaf8df380fe614845d48cba057747c" target="_top" xlink:title="Goban::coord">
<polygon fill="none" stroke="black" points="354.5,-76.5 354.5,-95.5 429.5,-95.5 429.5,-76.5 354.5,-76.5"/>
<text text-anchor="middle" x="392" y="-83.5" font-family="Helvetica,sans-Serif" font-size="10.00">Goban::coord</text>
</a>
</g>
</g>
<!-- Node128&#45;&gt;Node137 -->
<g id="edge10" class="edge"><title>Node128&#45;&gt;Node137</title>
<path fill="none" stroke="midnightblue" d="M298.031,-86C313.255,-86 329.394,-86 343.877,-86"/>
<polygon fill="midnightblue" stroke="midnightblue" points="344.093,-89.5001 354.093,-86 344.092,-82.5001 344.093,-89.5001"/>
</g>
<!-- Node138 -->
<g id="node12" class="node"><title>Node138</title>
<g id="a_node12"><a xlink:href="class_goban.html#a1d3ccccfb3f539e0271ee321686d9ef4" target="_top" xlink:title="Goban::setScoreWhite">
<polygon fill="none" stroke="black" points="334,-38.5 334,-57.5 450,-57.5 450,-38.5 334,-38.5"/>
<text text-anchor="middle" x="392" y="-45.5" font-family="Helvetica,sans-Serif" font-size="10.00">Goban::setScoreWhite</text>
</a>
</g>
</g>
<!-- Node128&#45;&gt;Node138 -->
<g id="edge12" class="edge"><title>Node128&#45;&gt;Node138</title>
<path fill="none" stroke="midnightblue" d="M276.608,-76.411C296.707,-71.4191 321.475,-65.2676 342.819,-59.9666"/>
<polygon fill="midnightblue" stroke="midnightblue" points="343.808,-63.3274 352.669,-57.5201 342.12,-56.5338 343.808,-63.3274"/>
</g>
<!-- Node139 -->
<g id="node13" class="node"><title>Node139</title>
<g id="a_node13"><a xlink:href="class_goban.html#a868b44b0c3ebec7ca88082ebe85a2960" target="_top" xlink:title="Goban::setScoreBlack">
<polygon fill="none" stroke="black" points="334.5,-0.5 334.5,-19.5 449.5,-19.5 449.5,-0.5 334.5,-0.5"/>
<text text-anchor="middle" x="392" y="-7.5" font-family="Helvetica,sans-Serif" font-size="10.00">Goban::setScoreBlack</text>
</a>
</g>
</g>
<!-- Node128&#45;&gt;Node139 -->
<g id="edge13" class="edge"><title>Node128&#45;&gt;Node139</title>
<path fill="none" stroke="midnightblue" d="M252.113,-76.3067C270.383,-64.0711 303.503,-42.9417 334,-29 338.683,-26.8593 343.679,-24.8378 348.693,-22.9691"/>
<polygon fill="midnightblue" stroke="midnightblue" points="350.024,-26.2109 358.281,-19.5726 347.686,-19.6127 350.024,-26.2109"/>
</g>
<!-- Node130 -->
<g id="node4" class="node"><title>Node130</title>
<g id="a_node4"><a xlink:href="class_etat.html#aa25e66b110bc835523819392435e78c6" target="_top" xlink:title="Etat::getX">
<polygon fill="none" stroke="black" points="508.5,-228.5 508.5,-247.5 567.5,-247.5 567.5,-228.5 508.5,-228.5"/>
<text text-anchor="middle" x="538" y="-235.5" font-family="Helvetica,sans-Serif" font-size="10.00">Etat::getX</text>
</a>
</g>
</g>
<!-- Node129&#45;&gt;Node130 -->
<g id="edge3" class="edge"><title>Node129&#45;&gt;Node130</title>
<path fill="none" stroke="midnightblue" d="M415.851,-190.57C434.628,-198.377 461.954,-209.611 486,-219 490.934,-220.927 496.153,-222.921 501.296,-224.86"/>
<polygon fill="midnightblue" stroke="midnightblue" points="500.403,-228.263 510.995,-228.491 502.857,-221.707 500.403,-228.263"/>
</g>
<!-- Node131 -->
<g id="node5" class="node"><title>Node131</title>
<g id="a_node5"><a xlink:href="class_etat.html#a3e3e915f2261c83989a983e84b1273c1" target="_top" xlink:title="Etat::getY">
<polygon fill="none" stroke="black" points="507.5,-190.5 507.5,-209.5 568.5,-209.5 568.5,-190.5 507.5,-190.5"/>
<text text-anchor="middle" x="538" y="-197.5" font-family="Helvetica,sans-Serif" font-size="10.00">Etat::getY</text>
</a>
</g>
</g>
<!-- Node129&#45;&gt;Node131 -->
<g id="edge4" class="edge"><title>Node129&#45;&gt;Node131</title>
<path fill="none" stroke="midnightblue" d="M447.03,-188.129C463.63,-190.319 481.591,-192.689 497.067,-194.731"/>
<polygon fill="midnightblue" stroke="midnightblue" points="496.966,-198.248 507.338,-196.086 497.882,-191.308 496.966,-198.248"/>
</g>
<!-- Node132 -->
<g id="node6" class="node"><title>Node132</title>
<g id="a_node6"><a xlink:href="class_goban.html#a0e2596110cdbb9b007b2b2fd8d5a9973" target="_top" xlink:title="Goban::DefineStone">
<polygon fill="none" stroke="black" points="486,-152.5 486,-171.5 590,-171.5 590,-152.5 486,-152.5"/>
<text text-anchor="middle" x="538" y="-159.5" font-family="Helvetica,sans-Serif" font-size="10.00">Goban::DefineStone</text>
</a>
</g>
</g>
<!-- Node129&#45;&gt;Node132 -->
<g id="edge5" class="edge"><title>Node129&#45;&gt;Node132</title>
<path fill="none" stroke="midnightblue" d="M447.03,-173.871C456.29,-172.649 465.974,-171.372 475.413,-170.126"/>
<polygon fill="midnightblue" stroke="midnightblue" points="476.073,-173.569 485.529,-168.791 475.157,-166.63 476.073,-173.569"/>
</g>
<!-- Node133 -->
<g id="node7" class="node"><title>Node133</title>
<g id="a_node7"><a xlink:href="class_etat.html#ac020c4fe222274ac849a03fc8f19a99a" target="_top" xlink:title="Etat::setX">
<polygon fill="none" stroke="black" points="630.5,-228.5 630.5,-247.5 689.5,-247.5 689.5,-228.5 630.5,-228.5"/>
<text text-anchor="middle" x="660" y="-235.5" font-family="Helvetica,sans-Serif" font-size="10.00">Etat::setX</text>
</a>
</g>
</g>
<!-- Node132&#45;&gt;Node133 -->
<g id="edge6" class="edge"><title>Node132&#45;&gt;Node133</title>
<path fill="none" stroke="midnightblue" d="M571.374,-171.519C577.81,-174.101 584.326,-177.246 590,-181 609.402,-193.837 607.727,-204.6 626,-219 627.772,-220.396 629.658,-221.758 631.596,-223.069"/>
<polygon fill="midnightblue" stroke="midnightblue" points="629.895,-226.134 640.234,-228.449 633.596,-220.192 629.895,-226.134"/>
</g>
<!-- Node134 -->
<g id="node8" class="node"><title>Node134</title>
<g id="a_node8"><a xlink:href="class_etat.html#a8a54fc9ecb1b97d84d2f1f259e3bf70e" target="_top" xlink:title="Etat::setY">
<polygon fill="none" stroke="black" points="629.5,-190.5 629.5,-209.5 690.5,-209.5 690.5,-190.5 629.5,-190.5"/>
<text text-anchor="middle" x="660" y="-197.5" font-family="Helvetica,sans-Serif" font-size="10.00">Etat::setY</text>
</a>
</g>
</g>
<!-- Node132&#45;&gt;Node134 -->
<g id="edge7" class="edge"><title>Node132&#45;&gt;Node134</title>
<path fill="none" stroke="midnightblue" d="M569.281,-171.589C584.461,-176.396 603.035,-182.278 619.338,-187.44"/>
<polygon fill="midnightblue" stroke="midnightblue" points="618.554,-190.863 629.144,-190.546 620.668,-184.19 618.554,-190.863"/>
</g>
<!-- Node132&#45;&gt;Node135 -->
<g id="edge8" class="edge"><title>Node132&#45;&gt;Node135</title>
<path fill="none" stroke="midnightblue" d="M569.281,-152.411C584.346,-147.641 602.754,-141.811 618.967,-136.677"/>
<polygon fill="midnightblue" stroke="midnightblue" points="620.252,-139.942 628.729,-133.586 618.139,-133.268 620.252,-139.942"/>
</g>
<!-- Node136 -->
<g id="node10" class="node"><title>Node136</title>
<g id="a_node10"><a xlink:href="class_goban.html#a579840586df08a58983f6b497979344b" target="_top" xlink:title="Goban::ctoi">
<polygon fill="none" stroke="black" points="626.5,-152.5 626.5,-171.5 693.5,-171.5 693.5,-152.5 626.5,-152.5"/>
<text text-anchor="middle" x="660" y="-159.5" font-family="Helvetica,sans-Serif" font-size="10.00">Goban::ctoi</text>
</a>
</g>
</g>
<!-- Node132&#45;&gt;Node136 -->
<g id="edge9" class="edge"><title>Node132&#45;&gt;Node136</title>
<path fill="none" stroke="midnightblue" d="M590.239,-162C598.934,-162 607.881,-162 616.326,-162"/>
<polygon fill="midnightblue" stroke="midnightblue" points="616.328,-165.5 626.328,-162 616.328,-158.5 616.328,-165.5"/>
</g>
</g>
</svg>
