<?xml version="1.0" encoding="UTF-8" standalone="no"?>
<!DOCTYPE svg PUBLIC "-//W3C//DTD SVG 1.1//EN"
 "http://www.w3.org/Graphics/SVG/1.1/DTD/svg11.dtd">
<!-- Generated by graphviz version 2.38.0 (20140413.2041)
 -->
<!-- Title: Game_window::click Pages: 1 -->
<svg width="1018pt" height="427pt"
 viewBox="0.00 0.00 1018.00 427.00" xmlns="http://www.w3.org/2000/svg" xmlns:xlink="http://www.w3.org/1999/xlink">
<g id="graph0" class="graph" transform="scale(1 1) rotate(0) translate(4 423)">
<title>Game_window::click</title>
<!-- Node7 -->
<g id="node1" class="node"><title>Node7</title>
<polygon fill="#bfbfbf" stroke="black" points="0,-133.5 0,-152.5 106,-152.5 106,-133.5 0,-133.5"/>
<text text-anchor="middle" x="53" y="-140.5" font-family="Helvetica,sans-Serif" font-size="10.00">Game_window::click</text>
</g>
<!-- Node8 -->
<g id="node2" class="node"><title>Node8</title>
<g id="a_node2"><a xlink:href="class_board.html#ad3c413e185668418d3a16c1fec68e70d" target="_top" xlink:title="Board::getView">
<polygon fill="none" stroke="black" points="150,-171.5 150,-190.5 233,-190.5 233,-171.5 150,-171.5"/>
<text text-anchor="middle" x="191.5" y="-178.5" font-family="Helvetica,sans-Serif" font-size="10.00">Board::getView</text>
</a>
</g>
</g>
<!-- Node7&#45;&gt;Node8 -->
<g id="edge1" class="edge"><title>Node7&#45;&gt;Node8</title>
<path fill="none" stroke="midnightblue" d="M88.4447,-152.589C105.985,-157.472 127.51,-163.464 146.263,-168.685"/>
<polygon fill="midnightblue" stroke="midnightblue" points="145.494,-172.104 156.066,-171.414 147.371,-165.36 145.494,-172.104"/>
</g>
<!-- Node9 -->
<g id="node3" class="node"><title>Node9</title>
<g id="a_node3"><a xlink:href="class_board.html#a5fda73da080403d8a71a8593d581c350" target="_top" xlink:title="Board::click">
<polygon fill="none" stroke="black" points="157.5,-133.5 157.5,-152.5 225.5,-152.5 225.5,-133.5 157.5,-133.5"/>
<text text-anchor="middle" x="191.5" y="-140.5" font-family="Helvetica,sans-Serif" font-size="10.00">Board::click</text>
</a>
</g>
</g>
<!-- Node7&#45;&gt;Node9 -->
<g id="edge2" class="edge"><title>Node7&#45;&gt;Node9</title>
<path fill="none" stroke="midnightblue" d="M106.384,-143C119.91,-143 134.316,-143 147.314,-143"/>
<polygon fill="midnightblue" stroke="midnightblue" points="147.392,-146.5 157.392,-143 147.392,-139.5 147.392,-146.5"/>
</g>
<!-- Node31 -->
<g id="node25" class="node"><title>Node31</title>
<g id="a_node25"><a xlink:href="class_infos.html#a5dee8a8817c307c570db905429480d79" target="_top" xlink:title="Infos::setCurPlayer">
<polygon fill="none" stroke="black" points="142,-38.5 142,-57.5 241,-57.5 241,-38.5 142,-38.5"/>
<text text-anchor="middle" x="191.5" y="-45.5" font-family="Helvetica,sans-Serif" font-size="10.00">Infos::setCurPlayer</text>
</a>
</g>
</g>
<!-- Node7&#45;&gt;Node31 -->
<g id="edge29" class="edge"><title>Node7&#45;&gt;Node31</title>
<path fill="none" stroke="midnightblue" d="M67.8395,-133.368C91.4469,-116.938 139.7,-83.3551 168.142,-63.5605"/>
<polygon fill="midnightblue" stroke="midnightblue" points="170.415,-66.2426 176.624,-57.6574 166.417,-60.4971 170.415,-66.2426"/>
</g>
<!-- Node10 -->
<g id="node4" class="node"><title>Node10</title>
<g id="a_node4"><a xlink:href="class_goban.html#a7dd1a7b53322bde2a831a923059e43a3" target="_top" xlink:title="Goban::move">
<polygon fill="none" stroke="black" points="477,-114.5 477,-133.5 551,-133.5 551,-114.5 477,-114.5"/>
<text text-anchor="middle" x="514" y="-121.5" font-family="Helvetica,sans-Serif" font-size="10.00">Goban::move</text>
</a>
</g>
</g>
<!-- Node9&#45;&gt;Node10 -->
<g id="edge3" class="edge"><title>Node9&#45;&gt;Node10</title>
<path fill="none" stroke="midnightblue" d="M225.692,-145.017C269.591,-147.224 349.312,-149.634 417,-143 433.367,-141.396 451.082,-138.288 466.786,-135.044"/>
<polygon fill="midnightblue" stroke="midnightblue" points="467.734,-138.42 476.78,-132.906 466.27,-131.575 467.734,-138.42"/>
</g>
<!-- Node15 -->
<g id="node9" class="node"><title>Node15</title>
<g id="a_node9"><a xlink:href="class_goban.html#a8584a53688e7bcf9de7c4cf48454acdc" target="_top" xlink:title="Goban::rechercheGroupes">
<polygon fill="none" stroke="black" points="281.5,-114.5 281.5,-133.5 412.5,-133.5 412.5,-114.5 281.5,-114.5"/>
<text text-anchor="middle" x="347" y="-121.5" font-family="Helvetica,sans-Serif" font-size="10.00">Goban::rechercheGroupes</text>
</a>
</g>
</g>
<!-- Node9&#45;&gt;Node15 -->
<g id="edge9" class="edge"><title>Node9&#45;&gt;Node15</title>
<path fill="none" stroke="midnightblue" d="M225.807,-138.877C239.116,-137.23 255.024,-135.261 270.841,-133.303"/>
<polygon fill="midnightblue" stroke="midnightblue" points="271.7,-136.724 281.194,-132.022 270.84,-129.777 271.7,-136.724"/>
</g>
<!-- Node16 -->
<g id="node10" class="node"><title>Node16</title>
<g id="a_node10"><a xlink:href="class_goban.html#aefd43ab2cf0746f2f8c653d825bf080c" target="_top" xlink:title="Goban::afficheGroupes">
<polygon fill="none" stroke="black" points="289,-76.5 289,-95.5 405,-95.5 405,-76.5 289,-76.5"/>
<text text-anchor="middle" x="347" y="-83.5" font-family="Helvetica,sans-Serif" font-size="10.00">Goban::afficheGroupes</text>
</a>
</g>
</g>
<!-- Node9&#45;&gt;Node16 -->
<g id="edge10" class="edge"><title>Node9&#45;&gt;Node16</title>
<path fill="none" stroke="midnightblue" d="M211.617,-133.383C228.52,-125.127 253.996,-113.284 277,-105 283.519,-102.652 290.472,-100.426 297.361,-98.3794"/>
<polygon fill="midnightblue" stroke="midnightblue" points="298.701,-101.636 307.349,-95.5163 296.772,-94.9072 298.701,-101.636"/>
</g>
<!-- Node17 -->
<g id="node11" class="node"><title>Node17</title>
<g id="a_node11"><a xlink:href="class_goban.html#a7858b815885e4af36f05f9d26182cb07" target="_top" xlink:title="Goban::eliminateOppGroups">
<polygon fill="none" stroke="black" points="277,-247.5 277,-266.5 417,-266.5 417,-247.5 277,-247.5"/>
<text text-anchor="middle" x="347" y="-254.5" font-family="Helvetica,sans-Serif" font-size="10.00">Goban::eliminateOppGroups</text>
</a>
</g>
</g>
<!-- Node9&#45;&gt;Node17 -->
<g id="edge11" class="edge"><title>Node9&#45;&gt;Node17</title>
<path fill="none" stroke="midnightblue" d="M225.387,-152.581C230.946,-155.095 236.398,-158.199 241,-162 264.101,-181.082 255.188,-198.457 277,-219 287.393,-228.788 300.783,-236.912 312.998,-243.101"/>
<polygon fill="midnightblue" stroke="midnightblue" points="311.512,-246.271 322.041,-247.453 314.548,-239.963 311.512,-246.271"/>
</g>
<!-- Node28 -->
<g id="node22" class="node"><title>Node28</title>
<g id="a_node22"><a xlink:href="class_board.html#a841a248dac4743611ba1825afd5d1297" target="_top" xlink:title="Board::load">
<polygon fill="none" stroke="black" points="314,-190.5 314,-209.5 380,-209.5 380,-190.5 314,-190.5"/>
<text text-anchor="middle" x="347" y="-197.5" font-family="Helvetica,sans-Serif" font-size="10.00">Board::load</text>
</a>
</g>
</g>
<!-- Node9&#45;&gt;Node28 -->
<g id="edge25" class="edge"><title>Node9&#45;&gt;Node28</title>
<path fill="none" stroke="midnightblue" d="M217.102,-152.634C240.965,-161.974 274.008,-174.896 277,-176 287.099,-179.727 298.086,-183.621 308.262,-187.161"/>
<polygon fill="midnightblue" stroke="midnightblue" points="307.12,-190.469 317.715,-190.43 309.408,-183.854 307.12,-190.469"/>
</g>
<!-- Node11 -->
<g id="node5" class="node"><title>Node11</title>
<g id="a_node5"><a xlink:href="class_goban.html#a6c4b62a9469b3876d250ab94bcd562e5" target="_top" xlink:title="Goban::eliminateOppositeKO">
<polygon fill="none" stroke="black" points="763,-114.5 763,-133.5 906,-133.5 906,-114.5 763,-114.5"/>
<text text-anchor="middle" x="834.5" y="-121.5" font-family="Helvetica,sans-Serif" font-size="10.00">Goban::eliminateOppositeKO</text>
</a>
</g>
</g>
<!-- Node10&#45;&gt;Node11 -->
<g id="edge4" class="edge"><title>Node10&#45;&gt;Node11</title>
<path fill="none" stroke="midnightblue" d="M551.226,-124C599.899,-124 687.776,-124 752.593,-124"/>
<polygon fill="midnightblue" stroke="midnightblue" points="752.789,-127.5 762.789,-124 752.789,-120.5 752.789,-127.5"/>
</g>
<!-- Node12 -->
<g id="node6" class="node"><title>Node12</title>
<g id="a_node6"><a xlink:href="class_etat.html#aa88987ca54aee676717f05e4570c0aec" target="_top" xlink:title="Etat::setVal">
<polygon fill="none" stroke="black" points="942,-190.5 942,-209.5 1010,-209.5 1010,-190.5 942,-190.5"/>
<text text-anchor="middle" x="976" y="-197.5" font-family="Helvetica,sans-Serif" font-size="10.00">Etat::setVal</text>
</a>
</g>
</g>
<!-- Node10&#45;&gt;Node12 -->
<g id="edge7" class="edge"><title>Node10&#45;&gt;Node12</title>
<path fill="none" stroke="midnightblue" d="M551.095,-129.964C634.812,-143.795 841.913,-178.012 931.997,-192.895"/>
<polygon fill="midnightblue" stroke="midnightblue" points="931.441,-196.351 941.877,-194.528 932.582,-189.444 931.441,-196.351"/>
</g>
<!-- Node13 -->
<g id="node7" class="node"><title>Node13</title>
<g id="a_node7"><a xlink:href="class_goban.html#a29aaf8df380fe614845d48cba057747c" target="_top" xlink:title="Goban::coord">
<polygon fill="none" stroke="black" points="631.5,-190.5 631.5,-209.5 706.5,-209.5 706.5,-190.5 631.5,-190.5"/>
<text text-anchor="middle" x="669" y="-197.5" font-family="Helvetica,sans-Serif" font-size="10.00">Goban::coord</text>
</a>
</g>
</g>
<!-- Node10&#45;&gt;Node13 -->
<g id="edge6" class="edge"><title>Node10&#45;&gt;Node13</title>
<path fill="none" stroke="midnightblue" d="M551.298,-132.7C559.387,-135.391 567.717,-138.788 575,-143 593.789,-153.866 592.729,-164.283 611,-176 617.012,-179.855 623.748,-183.328 630.426,-186.355"/>
<polygon fill="midnightblue" stroke="midnightblue" points="629.505,-189.767 640.077,-190.466 632.248,-183.327 629.505,-189.767"/>
</g>
<!-- Node14 -->
<g id="node8" class="node"><title>Node14</title>
<g id="a_node8"><a xlink:href="class_history.html#a90222df7f73ae9cfda56bdb66cb1985e" target="_top" xlink:title="Add new state in history. ">
<polygon fill="none" stroke="black" points="634.5,-76.5 634.5,-95.5 703.5,-95.5 703.5,-76.5 634.5,-76.5"/>
<text text-anchor="middle" x="669" y="-83.5" font-family="Helvetica,sans-Serif" font-size="10.00">History::add</text>
</a>
</g>
</g>
<!-- Node10&#45;&gt;Node14 -->
<g id="edge8" class="edge"><title>Node10&#45;&gt;Node14</title>
<path fill="none" stroke="midnightblue" d="M551.259,-114.995C573.197,-109.546 601.308,-102.564 624.447,-96.8171"/>
<polygon fill="midnightblue" stroke="midnightblue" points="625.495,-100.163 634.357,-94.3558 623.808,-93.3695 625.495,-100.163"/>
</g>
<!-- Node11&#45;&gt;Node12 -->
<g id="edge5" class="edge"><title>Node11&#45;&gt;Node12</title>
<path fill="none" stroke="midnightblue" d="M870.839,-133.6C882.374,-137.365 895.031,-142.192 906,-148 924.486,-157.789 943.307,-172.343 956.613,-183.567"/>
<polygon fill="midnightblue" stroke="midnightblue" points="954.644,-186.491 964.501,-190.378 959.219,-181.193 954.644,-186.491"/>
</g>
<!-- Node18 -->
<g id="node12" class="node"><title>Node18</title>
<g id="a_node12"><a xlink:href="class_goban.html#a1ec70508987f66afff5f8df381731fac" target="_top" xlink:title="Goban::eliminateGroups">
<polygon fill="none" stroke="black" points="453,-266.5 453,-285.5 575,-285.5 575,-266.5 453,-266.5"/>
<text text-anchor="middle" x="514" y="-273.5" font-family="Helvetica,sans-Serif" font-size="10.00">Goban::eliminateGroups</text>
</a>
</g>
</g>
<!-- Node17&#45;&gt;Node18 -->
<g id="edge12" class="edge"><title>Node17&#45;&gt;Node18</title>
<path fill="none" stroke="midnightblue" d="M417.019,-264.948C425.588,-265.934 434.356,-266.944 442.94,-267.932"/>
<polygon fill="midnightblue" stroke="midnightblue" points="442.575,-271.413 452.91,-269.081 443.376,-264.459 442.575,-271.413"/>
</g>
<!-- Node18&#45;&gt;Node12 -->
<g id="edge22" class="edge"><title>Node18&#45;&gt;Node12</title>
<path fill="none" stroke="midnightblue" d="M561.317,-266.444C577.06,-263.299 594.772,-259.875 611,-257 726.623,-236.514 863.598,-216.098 931.847,-206.186"/>
<polygon fill="midnightblue" stroke="midnightblue" points="932.407,-209.641 941.802,-204.744 931.403,-202.714 932.407,-209.641"/>
</g>
<!-- Node18&#45;&gt;Node13 -->
<g id="edge21" class="edge"><title>Node18&#45;&gt;Node13</title>
<path fill="none" stroke="midnightblue" d="M553.826,-266.439C561.106,-263.894 568.473,-260.774 575,-257 593.789,-246.134 592.729,-235.717 611,-224 617.012,-220.145 623.748,-216.672 630.426,-213.645"/>
<polygon fill="midnightblue" stroke="midnightblue" points="632.248,-216.673 640.077,-209.534 629.505,-210.233 632.248,-216.673"/>
</g>
<!-- Node19 -->
<g id="node13" class="node"><title>Node19</title>
<g id="a_node13"><a xlink:href="class_goban.html#a84f36324eb9ddc29f522d481f04c13e7" target="_top" xlink:title="Goban::listOfLiberties">
<polygon fill="none" stroke="black" points="614,-342.5 614,-361.5 724,-361.5 724,-342.5 614,-342.5"/>
<text text-anchor="middle" x="669" y="-349.5" font-family="Helvetica,sans-Serif" font-size="10.00">Goban::listOfLiberties</text>
</a>
</g>
</g>
<!-- Node18&#45;&gt;Node19 -->
<g id="edge13" class="edge"><title>Node18&#45;&gt;Node19</title>
<path fill="none" stroke="midnightblue" d="M529.113,-285.693C547.383,-297.929 580.503,-319.058 611,-333 615.683,-335.141 620.679,-337.162 625.693,-339.031"/>
<polygon fill="midnightblue" stroke="midnightblue" points="624.686,-342.387 635.281,-342.427 627.024,-335.789 624.686,-342.387"/>
</g>
<!-- Node26 -->
<g id="node20" class="node"><title>Node26</title>
<g id="a_node20"><a xlink:href="class_goban.html#a1d3ccccfb3f539e0271ee321686d9ef4" target="_top" xlink:title="Goban::setScoreWhite">
<polygon fill="none" stroke="black" points="611,-304.5 611,-323.5 727,-323.5 727,-304.5 611,-304.5"/>
<text text-anchor="middle" x="669" y="-311.5" font-family="Helvetica,sans-Serif" font-size="10.00">Goban::setScoreWhite</text>
</a>
</g>
</g>
<!-- Node18&#45;&gt;Node26 -->
<g id="edge23" class="edge"><title>Node18&#45;&gt;Node26</title>
<path fill="none" stroke="midnightblue" d="M553.608,-285.589C573.707,-290.581 598.475,-296.732 619.819,-302.033"/>
<polygon fill="midnightblue" stroke="midnightblue" points="619.12,-305.466 629.669,-304.48 620.808,-298.673 619.12,-305.466"/>
</g>
<!-- Node27 -->
<g id="node21" class="node"><title>Node27</title>
<g id="a_node21"><a xlink:href="class_goban.html#a868b44b0c3ebec7ca88082ebe85a2960" target="_top" xlink:title="Goban::setScoreBlack">
<polygon fill="none" stroke="black" points="611.5,-266.5 611.5,-285.5 726.5,-285.5 726.5,-266.5 611.5,-266.5"/>
<text text-anchor="middle" x="669" y="-273.5" font-family="Helvetica,sans-Serif" font-size="10.00">Goban::setScoreBlack</text>
</a>
</g>
</g>
<!-- Node18&#45;&gt;Node27 -->
<g id="edge24" class="edge"><title>Node18&#45;&gt;Node27</title>
<path fill="none" stroke="midnightblue" d="M575.031,-276C583.575,-276 592.407,-276 601.073,-276"/>
<polygon fill="midnightblue" stroke="midnightblue" points="601.142,-279.5 611.142,-276 601.142,-272.5 601.142,-279.5"/>
</g>
<!-- Node20 -->
<g id="node14" class="node"><title>Node20</title>
<g id="a_node14"><a xlink:href="class_etat.html#aa25e66b110bc835523819392435e78c6" target="_top" xlink:title="Etat::getX">
<polygon fill="none" stroke="black" points="805,-323.5 805,-342.5 864,-342.5 864,-323.5 805,-323.5"/>
<text text-anchor="middle" x="834.5" y="-330.5" font-family="Helvetica,sans-Serif" font-size="10.00">Etat::getX</text>
</a>
</g>
</g>
<!-- Node19&#45;&gt;Node20 -->
<g id="edge14" class="edge"><title>Node19&#45;&gt;Node20</title>
<path fill="none" stroke="midnightblue" d="M724.443,-345.673C747.489,-342.995 773.806,-339.937 794.813,-337.496"/>
<polygon fill="midnightblue" stroke="midnightblue" points="795.436,-340.947 804.965,-336.316 794.628,-333.994 795.436,-340.947"/>
</g>
<!-- Node21 -->
<g id="node15" class="node"><title>Node21</title>
<g id="a_node15"><a xlink:href="class_etat.html#a3e3e915f2261c83989a983e84b1273c1" target="_top" xlink:title="Etat::getY">
<polygon fill="none" stroke="black" points="804,-285.5 804,-304.5 865,-304.5 865,-285.5 804,-285.5"/>
<text text-anchor="middle" x="834.5" y="-292.5" font-family="Helvetica,sans-Serif" font-size="10.00">Etat::getY</text>
</a>
</g>
</g>
<!-- Node19&#45;&gt;Node21 -->
<g id="edge15" class="edge"><title>Node19&#45;&gt;Node21</title>
<path fill="none" stroke="midnightblue" d="M701.704,-342.456C710.035,-339.671 718.942,-336.442 727,-333 743.637,-325.893 746.162,-320.617 763,-314 772.822,-310.14 783.711,-306.782 793.935,-304.006"/>
<polygon fill="midnightblue" stroke="midnightblue" points="795.072,-307.327 803.873,-301.428 793.314,-300.551 795.072,-307.327"/>
</g>
<!-- Node22 -->
<g id="node16" class="node"><title>Node22</title>
<g id="a_node16"><a xlink:href="class_goban.html#a0e2596110cdbb9b007b2b2fd8d5a9973" target="_top" xlink:title="Goban::DefineStone">
<polygon fill="none" stroke="black" points="782.5,-361.5 782.5,-380.5 886.5,-380.5 886.5,-361.5 782.5,-361.5"/>
<text text-anchor="middle" x="834.5" y="-368.5" font-family="Helvetica,sans-Serif" font-size="10.00">Goban::DefineStone</text>
</a>
</g>
</g>
<!-- Node19&#45;&gt;Node22 -->
<g id="edge16" class="edge"><title>Node19&#45;&gt;Node22</title>
<path fill="none" stroke="midnightblue" d="M724.443,-358.327C739.76,-360.107 756.522,-362.054 772.209,-363.878"/>
<polygon fill="midnightblue" stroke="midnightblue" points="772,-367.377 782.337,-365.054 772.808,-360.423 772,-367.377"/>
</g>
<!-- Node22&#45;&gt;Node12 -->
<g id="edge19" class="edge"><title>Node22&#45;&gt;Node12</title>
<path fill="none" stroke="midnightblue" d="M886.725,-363.024C893.712,-360.336 900.395,-356.759 906,-352 947.302,-316.932 965.078,-252.017 971.663,-219.552"/>
<polygon fill="midnightblue" stroke="midnightblue" points="975.14,-219.999 973.546,-209.525 968.26,-218.707 975.14,-219.999"/>
</g>
<!-- Node23 -->
<g id="node17" class="node"><title>Node23</title>
<g id="a_node17"><a xlink:href="class_etat.html#ac020c4fe222274ac849a03fc8f19a99a" target="_top" xlink:title="Etat::setX">
<polygon fill="none" stroke="black" points="946.5,-361.5 946.5,-380.5 1005.5,-380.5 1005.5,-361.5 946.5,-361.5"/>
<text text-anchor="middle" x="976" y="-368.5" font-family="Helvetica,sans-Serif" font-size="10.00">Etat::setX</text>
</a>
</g>
</g>
<!-- Node22&#45;&gt;Node23 -->
<g id="edge17" class="edge"><title>Node22&#45;&gt;Node23</title>
<path fill="none" stroke="midnightblue" d="M886.653,-371C902.953,-371 920.715,-371 936.01,-371"/>
<polygon fill="midnightblue" stroke="midnightblue" points="936.156,-374.5 946.156,-371 936.156,-367.5 936.156,-374.5"/>
</g>
<!-- Node24 -->
<g id="node18" class="node"><title>Node24</title>
<g id="a_node18"><a xlink:href="class_etat.html#a8a54fc9ecb1b97d84d2f1f259e3bf70e" target="_top" xlink:title="Etat::setY">
<polygon fill="none" stroke="black" points="945.5,-323.5 945.5,-342.5 1006.5,-342.5 1006.5,-323.5 945.5,-323.5"/>
<text text-anchor="middle" x="976" y="-330.5" font-family="Helvetica,sans-Serif" font-size="10.00">Etat::setY</text>
</a>
</g>
</g>
<!-- Node22&#45;&gt;Node24 -->
<g id="edge18" class="edge"><title>Node22&#45;&gt;Node24</title>
<path fill="none" stroke="midnightblue" d="M871.014,-361.469C882.211,-358.454 894.626,-355.099 906,-352 915.609,-349.382 925.966,-346.541 935.659,-343.873"/>
<polygon fill="midnightblue" stroke="midnightblue" points="936.751,-347.203 945.462,-341.172 934.891,-340.454 936.751,-347.203"/>
</g>
<!-- Node25 -->
<g id="node19" class="node"><title>Node25</title>
<g id="a_node19"><a xlink:href="class_goban.html#a579840586df08a58983f6b497979344b" target="_top" xlink:title="Goban::ctoi">
<polygon fill="none" stroke="black" points="942.5,-399.5 942.5,-418.5 1009.5,-418.5 1009.5,-399.5 942.5,-399.5"/>
<text text-anchor="middle" x="976" y="-406.5" font-family="Helvetica,sans-Serif" font-size="10.00">Goban::ctoi</text>
</a>
</g>
</g>
<!-- Node22&#45;&gt;Node25 -->
<g id="edge20" class="edge"><title>Node22&#45;&gt;Node25</title>
<path fill="none" stroke="midnightblue" d="M870.702,-380.589C889.483,-385.705 912.735,-392.039 932.515,-397.427"/>
<polygon fill="midnightblue" stroke="midnightblue" points="931.637,-400.815 942.205,-400.067 933.477,-394.061 931.637,-400.815"/>
</g>
<!-- Node28&#45;&gt;Node13 -->
<g id="edge27" class="edge"><title>Node28&#45;&gt;Node13</title>
<path fill="none" stroke="midnightblue" d="M380.148,-200C437.015,-200 555.545,-200 621.384,-200"/>
<polygon fill="midnightblue" stroke="midnightblue" points="621.481,-203.5 631.481,-200 621.481,-196.5 621.481,-203.5"/>
</g>
<!-- Node29 -->
<g id="node23" class="node"><title>Node29</title>
<g id="a_node23"><a xlink:href="class_square.html#a5fa0cbfce721c687308eec8e1a029d25" target="_top" xlink:title="Square::setValue">
<polygon fill="none" stroke="black" points="468,-228.5 468,-247.5 560,-247.5 560,-228.5 468,-228.5"/>
<text text-anchor="middle" x="514" y="-235.5" font-family="Helvetica,sans-Serif" font-size="10.00">Square::setValue</text>
</a>
</g>
</g>
<!-- Node28&#45;&gt;Node29 -->
<g id="edge26" class="edge"><title>Node28&#45;&gt;Node29</title>
<path fill="none" stroke="midnightblue" d="M380.205,-207.417C403.324,-212.741 434.964,-220.028 461.56,-226.153"/>
<polygon fill="midnightblue" stroke="midnightblue" points="460.948,-229.604 471.478,-228.437 462.519,-222.782 460.948,-229.604"/>
</g>
<!-- Node30 -->
<g id="node24" class="node"><title>Node30</title>
<g id="a_node24"><a xlink:href="class_etat.html#ac0b81bbcf64cb3cc574e5a9dcdf94382" target="_top" xlink:title="Etat::getVal">
<polygon fill="none" stroke="black" points="480,-152.5 480,-171.5 548,-171.5 548,-152.5 480,-152.5"/>
<text text-anchor="middle" x="514" y="-159.5" font-family="Helvetica,sans-Serif" font-size="10.00">Etat::getVal</text>
</a>
</g>
</g>
<!-- Node28&#45;&gt;Node30 -->
<g id="edge28" class="edge"><title>Node28&#45;&gt;Node30</title>
<path fill="none" stroke="midnightblue" d="M380.205,-192.583C405.765,-186.697 441.739,-178.412 469.799,-171.949"/>
<polygon fill="midnightblue" stroke="midnightblue" points="470.785,-175.314 479.745,-169.659 469.214,-168.492 470.785,-175.314"/>
</g>
<!-- Node32 -->
<g id="node26" class="node"><title>Node32</title>
<g id="a_node26"><a xlink:href="class_timer.html#a0289effad7b573c508bc27e405900a23" target="_top" xlink:title="Timer::pause">
<polygon fill="none" stroke="black" points="310.5,-0.5 310.5,-19.5 383.5,-19.5 383.5,-0.5 310.5,-0.5"/>
<text text-anchor="middle" x="347" y="-7.5" font-family="Helvetica,sans-Serif" font-size="10.00">Timer::pause</text>
</a>
</g>
</g>
<!-- Node31&#45;&gt;Node32 -->
<g id="edge30" class="edge"><title>Node31&#45;&gt;Node32</title>
<path fill="none" stroke="midnightblue" d="M231.235,-38.411C252.338,-33.1868 278.571,-26.6925 300.628,-21.2323"/>
<polygon fill="midnightblue" stroke="midnightblue" points="301.569,-24.6051 310.434,-18.8045 299.886,-17.8102 301.569,-24.6051"/>
</g>
<!-- Node33 -->
<g id="node27" class="node"><title>Node33</title>
<g id="a_node27"><a xlink:href="class_timer.html#a84acbe09a8dddae46c997c57a70c5076" target="_top" xlink:title="Timer::play">
<polygon fill="none" stroke="black" points="314.5,-38.5 314.5,-57.5 379.5,-57.5 379.5,-38.5 314.5,-38.5"/>
<text text-anchor="middle" x="347" y="-45.5" font-family="Helvetica,sans-Serif" font-size="10.00">Timer::play</text>
</a>
</g>
</g>
<!-- Node31&#45;&gt;Node33 -->
<g id="edge31" class="edge"><title>Node31&#45;&gt;Node33</title>
<path fill="none" stroke="midnightblue" d="M241.068,-48C261.319,-48 284.61,-48 304.097,-48"/>
<polygon fill="midnightblue" stroke="midnightblue" points="304.195,-51.5001 314.195,-48 304.195,-44.5001 304.195,-51.5001"/>
</g>
</g>
</svg>
