<?xml version="1.0" encoding="UTF-8" standalone="no"?>
<!DOCTYPE svg PUBLIC "-//W3C//DTD SVG 1.1//EN"
 "http://www.w3.org/Graphics/SVG/1.1/DTD/svg11.dtd">
<!-- Generated by graphviz version 2.38.0 (20140413.2041)
 -->
<!-- Title: Goban::legalEvenKO Pages: 1 -->
<svg width="845pt" height="256pt"
 viewBox="0.00 0.00 845.00 256.00" xmlns="http://www.w3.org/2000/svg" xmlns:xlink="http://www.w3.org/1999/xlink">
<g id="graph0" class="graph" transform="scale(1 1) rotate(0) translate(4 252)">
<title>Goban::legalEvenKO</title>
<!-- Node198 -->
<g id="node1" class="node"><title>Node198</title>
<polygon fill="#bfbfbf" stroke="black" points="0,-71.5 0,-90.5 107,-90.5 107,-71.5 0,-71.5"/>
<text text-anchor="middle" x="53.5" y="-78.5" font-family="Helvetica,sans-Serif" font-size="10.00">Goban::legalEvenKO</text>
</g>
<!-- Node199 -->
<g id="node2" class="node"><title>Node199</title>
<g id="a_node2"><a xlink:href="class_goban.html#a29aaf8df380fe614845d48cba057747c" target="_top" xlink:title="Goban::coord">
<polygon fill="none" stroke="black" points="497.5,-228.5 497.5,-247.5 572.5,-247.5 572.5,-228.5 497.5,-228.5"/>
<text text-anchor="middle" x="535" y="-235.5" font-family="Helvetica,sans-Serif" font-size="10.00">Goban::coord</text>
</a>
</g>
</g>
<!-- Node198&#45;&gt;Node199 -->
<g id="edge1" class="edge"><title>Node198&#45;&gt;Node199</title>
<path fill="none" stroke="midnightblue" d="M63.8052,-90.977C78.8904,-106.521 110.306,-136.356 143,-152 259.017,-207.516 411.606,-227.708 487.278,-234.637"/>
<polygon fill="midnightblue" stroke="midnightblue" points="487.165,-238.14 497.433,-235.529 487.778,-231.167 487.165,-238.14"/>
</g>
<!-- Node200 -->
<g id="node3" class="node"><title>Node200</title>
<g id="a_node3"><a xlink:href="class_etat.html#aa88987ca54aee676717f05e4570c0aec" target="_top" xlink:title="Etat::setVal">
<polygon fill="none" stroke="black" points="769,-114.5 769,-133.5 837,-133.5 837,-114.5 769,-114.5"/>
<text text-anchor="middle" x="803" y="-121.5" font-family="Helvetica,sans-Serif" font-size="10.00">Etat::setVal</text>
</a>
</g>
</g>
<!-- Node198&#45;&gt;Node200 -->
<g id="edge2" class="edge"><title>Node198&#45;&gt;Node200</title>
<path fill="none" stroke="midnightblue" d="M107.166,-72.3296C171.223,-62.5523 282.733,-48 379,-48 379,-48 379,-48 536,-48 625.417,-48 725.46,-88.1949 773.384,-110.122"/>
<polygon fill="midnightblue" stroke="midnightblue" points="771.983,-113.33 782.526,-114.375 774.935,-106.983 771.983,-113.33"/>
</g>
<!-- Node201 -->
<g id="node4" class="node"><title>Node201</title>
<g id="a_node4"><a xlink:href="class_goban.html#a8584a53688e7bcf9de7c4cf48454acdc" target="_top" xlink:title="Goban::rechercheGroupes">
<polygon fill="none" stroke="black" points="147.5,-0.5 147.5,-19.5 278.5,-19.5 278.5,-0.5 147.5,-0.5"/>
<text text-anchor="middle" x="213" y="-7.5" font-family="Helvetica,sans-Serif" font-size="10.00">Goban::rechercheGroupes</text>
</a>
</g>
</g>
<!-- Node198&#45;&gt;Node201 -->
<g id="edge3" class="edge"><title>Node198&#45;&gt;Node201</title>
<path fill="none" stroke="midnightblue" d="M70.7629,-71.3888C88.2377,-61.2946 117.01,-45.3415 143,-34 152.145,-30.0092 162.186,-26.2047 171.708,-22.8489"/>
<polygon fill="midnightblue" stroke="midnightblue" points="173.064,-26.084 181.384,-19.5251 170.79,-19.4637 173.064,-26.084"/>
</g>
<!-- Node202 -->
<g id="node5" class="node"><title>Node202</title>
<g id="a_node5"><a xlink:href="class_goban.html#a7858b815885e4af36f05f9d26182cb07" target="_top" xlink:title="Goban::eliminateOppGroups">
<polygon fill="none" stroke="black" points="143,-123.5 143,-142.5 283,-142.5 283,-123.5 143,-123.5"/>
<text text-anchor="middle" x="213" y="-130.5" font-family="Helvetica,sans-Serif" font-size="10.00">Goban::eliminateOppGroups</text>
</a>
</g>
</g>
<!-- Node198&#45;&gt;Node202 -->
<g id="edge4" class="edge"><title>Node198&#45;&gt;Node202</title>
<path fill="none" stroke="midnightblue" d="M83.3879,-90.5376C108.619,-98.8678 145.45,-111.028 173.238,-120.203"/>
<polygon fill="midnightblue" stroke="midnightblue" points="172.436,-123.623 183.029,-123.435 174.63,-116.976 172.436,-123.623"/>
</g>
<!-- Node203 -->
<g id="node6" class="node"><title>Node203</title>
<g id="a_node6"><a xlink:href="class_goban.html#a1ec70508987f66afff5f8df381731fac" target="_top" xlink:title="Goban::eliminateGroups">
<polygon fill="none" stroke="black" points="319,-133.5 319,-152.5 441,-152.5 441,-133.5 319,-133.5"/>
<text text-anchor="middle" x="380" y="-140.5" font-family="Helvetica,sans-Serif" font-size="10.00">Goban::eliminateGroups</text>
</a>
</g>
</g>
<!-- Node202&#45;&gt;Node203 -->
<g id="edge5" class="edge"><title>Node202&#45;&gt;Node203</title>
<path fill="none" stroke="midnightblue" d="M283.019,-137.183C291.494,-137.697 300.165,-138.222 308.66,-138.737"/>
<polygon fill="midnightblue" stroke="midnightblue" points="308.716,-142.247 318.91,-139.358 309.14,-135.26 308.716,-142.247"/>
</g>
<!-- Node203&#45;&gt;Node199 -->
<g id="edge14" class="edge"><title>Node203&#45;&gt;Node199</title>
<path fill="none" stroke="midnightblue" d="M402.753,-152.525C414.716,-158.342 429.431,-166.485 441,-176 460.25,-191.833 456.397,-204.973 477,-219 480.348,-221.279 483.991,-223.305 487.764,-225.1"/>
<polygon fill="midnightblue" stroke="midnightblue" points="486.737,-228.464 497.312,-229.104 489.444,-222.009 486.737,-228.464"/>
</g>
<!-- Node203&#45;&gt;Node200 -->
<g id="edge15" class="edge"><title>Node203&#45;&gt;Node200</title>
<path fill="none" stroke="midnightblue" d="M441.319,-140.278C527.419,-136.392 683.465,-129.35 758.888,-125.946"/>
<polygon fill="midnightblue" stroke="midnightblue" points="759.148,-129.438 768.98,-125.49 758.832,-122.445 759.148,-129.438"/>
</g>
<!-- Node204 -->
<g id="node7" class="node"><title>Node204</title>
<g id="a_node7"><a xlink:href="class_goban.html#a84f36324eb9ddc29f522d481f04c13e7" target="_top" xlink:title="Goban::listOfLiberties">
<polygon fill="none" stroke="black" points="480,-152.5 480,-171.5 590,-171.5 590,-152.5 480,-152.5"/>
<text text-anchor="middle" x="535" y="-159.5" font-family="Helvetica,sans-Serif" font-size="10.00">Goban::listOfLiberties</text>
</a>
</g>
</g>
<!-- Node203&#45;&gt;Node204 -->
<g id="edge6" class="edge"><title>Node203&#45;&gt;Node204</title>
<path fill="none" stroke="midnightblue" d="M441.031,-150.455C450.376,-151.615 460.065,-152.819 469.504,-153.991"/>
<polygon fill="midnightblue" stroke="midnightblue" points="469.265,-157.488 479.62,-155.247 470.128,-150.541 469.265,-157.488"/>
</g>
<!-- Node211 -->
<g id="node14" class="node"><title>Node211</title>
<g id="a_node14"><a xlink:href="class_goban.html#a1d3ccccfb3f539e0271ee321686d9ef4" target="_top" xlink:title="Goban::setScoreWhite">
<polygon fill="none" stroke="black" points="477,-76.5 477,-95.5 593,-95.5 593,-76.5 477,-76.5"/>
<text text-anchor="middle" x="535" y="-83.5" font-family="Helvetica,sans-Serif" font-size="10.00">Goban::setScoreWhite</text>
</a>
</g>
</g>
<!-- Node203&#45;&gt;Node211 -->
<g id="edge16" class="edge"><title>Node203&#45;&gt;Node211</title>
<path fill="none" stroke="midnightblue" d="M406.609,-133.459C431.873,-124.047 470.69,-109.586 498.837,-99.1001"/>
<polygon fill="midnightblue" stroke="midnightblue" points="500.159,-102.343 508.308,-95.5716 497.715,-95.783 500.159,-102.343"/>
</g>
<!-- Node212 -->
<g id="node15" class="node"><title>Node212</title>
<g id="a_node15"><a xlink:href="class_goban.html#a868b44b0c3ebec7ca88082ebe85a2960" target="_top" xlink:title="Goban::setScoreBlack">
<polygon fill="none" stroke="black" points="477.5,-190.5 477.5,-209.5 592.5,-209.5 592.5,-190.5 477.5,-190.5"/>
<text text-anchor="middle" x="535" y="-197.5" font-family="Helvetica,sans-Serif" font-size="10.00">Goban::setScoreBlack</text>
</a>
</g>
</g>
<!-- Node203&#45;&gt;Node212 -->
<g id="edge17" class="edge"><title>Node203&#45;&gt;Node212</title>
<path fill="none" stroke="midnightblue" d="M404.141,-152.575C423.501,-160.486 451.905,-171.859 477,-181 482.651,-183.058 488.648,-185.153 494.548,-187.164"/>
<polygon fill="midnightblue" stroke="midnightblue" points="493.714,-190.576 504.308,-190.447 495.946,-183.942 493.714,-190.576"/>
</g>
<!-- Node205 -->
<g id="node8" class="node"><title>Node205</title>
<g id="a_node8"><a xlink:href="class_etat.html#aa25e66b110bc835523819392435e78c6" target="_top" xlink:title="Etat::getX">
<polygon fill="none" stroke="black" points="651.5,-152.5 651.5,-171.5 710.5,-171.5 710.5,-152.5 651.5,-152.5"/>
<text text-anchor="middle" x="681" y="-159.5" font-family="Helvetica,sans-Serif" font-size="10.00">Etat::getX</text>
</a>
</g>
</g>
<!-- Node204&#45;&gt;Node205 -->
<g id="edge7" class="edge"><title>Node204&#45;&gt;Node205</title>
<path fill="none" stroke="midnightblue" d="M590.03,-162C606.889,-162 625.152,-162 640.791,-162"/>
<polygon fill="midnightblue" stroke="midnightblue" points="641.149,-165.5 651.149,-162 641.149,-158.5 641.149,-165.5"/>
</g>
<!-- Node206 -->
<g id="node9" class="node"><title>Node206</title>
<g id="a_node9"><a xlink:href="class_etat.html#a3e3e915f2261c83989a983e84b1273c1" target="_top" xlink:title="Etat::getY">
<polygon fill="none" stroke="black" points="650.5,-228.5 650.5,-247.5 711.5,-247.5 711.5,-228.5 650.5,-228.5"/>
<text text-anchor="middle" x="681" y="-235.5" font-family="Helvetica,sans-Serif" font-size="10.00">Etat::getY</text>
</a>
</g>
</g>
<!-- Node204&#45;&gt;Node206 -->
<g id="edge8" class="edge"><title>Node204&#45;&gt;Node206</title>
<path fill="none" stroke="midnightblue" d="M573.392,-171.526C580.191,-174.063 587.017,-177.19 593,-181 612.623,-193.497 609.598,-206.163 629,-219 632.736,-221.472 636.837,-223.679 641.039,-225.636"/>
<polygon fill="midnightblue" stroke="midnightblue" points="639.726,-228.881 650.301,-229.525 642.435,-222.426 639.726,-228.881"/>
</g>
<!-- Node207 -->
<g id="node10" class="node"><title>Node207</title>
<g id="a_node10"><a xlink:href="class_goban.html#a0e2596110cdbb9b007b2b2fd8d5a9973" target="_top" xlink:title="Goban::DefineStone">
<polygon fill="none" stroke="black" points="629,-190.5 629,-209.5 733,-209.5 733,-190.5 629,-190.5"/>
<text text-anchor="middle" x="681" y="-197.5" font-family="Helvetica,sans-Serif" font-size="10.00">Goban::DefineStone</text>
</a>
</g>
</g>
<!-- Node204&#45;&gt;Node207 -->
<g id="edge9" class="edge"><title>Node204&#45;&gt;Node207</title>
<path fill="none" stroke="midnightblue" d="M572.337,-171.589C591.083,-176.536 614.143,-182.621 634.107,-187.889"/>
<polygon fill="midnightblue" stroke="midnightblue" points="633.362,-191.312 643.924,-190.48 635.148,-184.544 633.362,-191.312"/>
</g>
<!-- Node207&#45;&gt;Node200 -->
<g id="edge12" class="edge"><title>Node207&#45;&gt;Node200</title>
<path fill="none" stroke="midnightblue" d="M714.374,-190.481C720.81,-187.899 727.326,-184.754 733,-181 752.402,-168.163 750.727,-157.4 769,-143 770.772,-141.604 772.658,-140.242 774.596,-138.931"/>
<polygon fill="midnightblue" stroke="midnightblue" points="776.596,-141.808 783.234,-133.551 772.895,-135.866 776.596,-141.808"/>
</g>
<!-- Node208 -->
<g id="node11" class="node"><title>Node208</title>
<g id="a_node11"><a xlink:href="class_etat.html#ac020c4fe222274ac849a03fc8f19a99a" target="_top" xlink:title="Etat::setX">
<polygon fill="none" stroke="black" points="773.5,-152.5 773.5,-171.5 832.5,-171.5 832.5,-152.5 773.5,-152.5"/>
<text text-anchor="middle" x="803" y="-159.5" font-family="Helvetica,sans-Serif" font-size="10.00">Etat::setX</text>
</a>
</g>
</g>
<!-- Node207&#45;&gt;Node208 -->
<g id="edge10" class="edge"><title>Node207&#45;&gt;Node208</title>
<path fill="none" stroke="midnightblue" d="M712.281,-190.411C727.806,-185.495 746.881,-179.454 763.446,-174.209"/>
<polygon fill="midnightblue" stroke="midnightblue" points="764.904,-177.418 773.381,-171.063 762.791,-170.745 764.904,-177.418"/>
</g>
<!-- Node209 -->
<g id="node12" class="node"><title>Node209</title>
<g id="a_node12"><a xlink:href="class_etat.html#a8a54fc9ecb1b97d84d2f1f259e3bf70e" target="_top" xlink:title="Etat::setY">
<polygon fill="none" stroke="black" points="772.5,-228.5 772.5,-247.5 833.5,-247.5 833.5,-228.5 772.5,-228.5"/>
<text text-anchor="middle" x="803" y="-235.5" font-family="Helvetica,sans-Serif" font-size="10.00">Etat::setY</text>
</a>
</g>
</g>
<!-- Node207&#45;&gt;Node209 -->
<g id="edge11" class="edge"><title>Node207&#45;&gt;Node209</title>
<path fill="none" stroke="midnightblue" d="M712.281,-209.589C727.461,-214.396 746.035,-220.278 762.338,-225.44"/>
<polygon fill="midnightblue" stroke="midnightblue" points="761.554,-228.863 772.144,-228.546 763.668,-222.19 761.554,-228.863"/>
</g>
<!-- Node210 -->
<g id="node13" class="node"><title>Node210</title>
<g id="a_node13"><a xlink:href="class_goban.html#a579840586df08a58983f6b497979344b" target="_top" xlink:title="Goban::ctoi">
<polygon fill="none" stroke="black" points="769.5,-190.5 769.5,-209.5 836.5,-209.5 836.5,-190.5 769.5,-190.5"/>
<text text-anchor="middle" x="803" y="-197.5" font-family="Helvetica,sans-Serif" font-size="10.00">Goban::ctoi</text>
</a>
</g>
</g>
<!-- Node207&#45;&gt;Node210 -->
<g id="edge13" class="edge"><title>Node207&#45;&gt;Node210</title>
<path fill="none" stroke="midnightblue" d="M733.239,-200C741.934,-200 750.881,-200 759.326,-200"/>
<polygon fill="midnightblue" stroke="midnightblue" points="759.328,-203.5 769.328,-200 759.328,-196.5 759.328,-203.5"/>
</g>
</g>
</svg>
