<?xml version="1.0" encoding="UTF-8" standalone="no"?>
<!DOCTYPE svg PUBLIC "-//W3C//DTD SVG 1.1//EN"
 "http://www.w3.org/Graphics/SVG/1.1/DTD/svg11.dtd">
<!-- Generated by graphviz version 2.38.0 (20140413.2041)
 -->
<!-- Title: Board::turnSoundsUp Pages: 1 -->
<svg width="249pt" height="66pt"
 viewBox="0.00 0.00 249.00 66.00" xmlns="http://www.w3.org/2000/svg" xmlns:xlink="http://www.w3.org/1999/xlink">
<g id="graph0" class="graph" transform="scale(1 1) rotate(0) translate(4 62)">
<title>Board::turnSoundsUp</title>
<!-- Node107 -->
<g id="node1" class="node"><title>Node107</title>
<polygon fill="#bfbfbf" stroke="black" points="0,-19.5 0,-38.5 110,-38.5 110,-19.5 0,-19.5"/>
<text text-anchor="middle" x="55" y="-26.5" font-family="Helvetica,sans-Serif" font-size="10.00">Board::turnSoundsUp</text>
</g>
<!-- Node108 -->
<g id="node2" class="node"><title>Node108</title>
<g id="a_node2"><a xlink:href="class_board.html#a061962e73609a58802ad83674ec9b413" target="_top" xlink:title="Board::getVolume">
<polygon fill="none" stroke="black" points="146,-38.5 146,-57.5 241,-57.5 241,-38.5 146,-38.5"/>
<text text-anchor="middle" x="193.5" y="-45.5" font-family="Helvetica,sans-Serif" font-size="10.00">Board::getVolume</text>
</a>
</g>
</g>
<!-- Node107&#45;&gt;Node108 -->
<g id="edge1" class="edge"><title>Node107&#45;&gt;Node108</title>
<path fill="none" stroke="midnightblue" d="M110.341,-36.5639C118.692,-37.7263 127.333,-38.9292 135.735,-40.0987"/>
<polygon fill="midnightblue" stroke="midnightblue" points="135.443,-43.5917 145.83,-41.5038 136.408,-36.6585 135.443,-43.5917"/>
</g>
<!-- Node109 -->
<g id="node3" class="node"><title>Node109</title>
<g id="a_node3"><a xlink:href="class_board.html#a4450fe85fda29736cd835fed63d40a41" target="_top" xlink:title="Board::setVolume">
<polygon fill="none" stroke="black" points="146,-0.5 146,-19.5 241,-19.5 241,-0.5 146,-0.5"/>
<text text-anchor="middle" x="193.5" y="-7.5" font-family="Helvetica,sans-Serif" font-size="10.00">Board::setVolume</text>
</a>
</g>
</g>
<!-- Node107&#45;&gt;Node109 -->
<g id="edge2" class="edge"><title>Node107&#45;&gt;Node109</title>
<path fill="none" stroke="midnightblue" d="M110.341,-21.4361C118.692,-20.2737 127.333,-19.0708 135.735,-17.9013"/>
<polygon fill="midnightblue" stroke="midnightblue" points="136.408,-21.3415 145.83,-16.4962 135.443,-14.4083 136.408,-21.3415"/>
</g>
</g>
</svg>
