<?xml version="1.0" encoding="UTF-8" standalone="no"?>
<!DOCTYPE svg PUBLIC "-//W3C//DTD SVG 1.1//EN"
 "http://www.w3.org/Graphics/SVG/1.1/DTD/svg11.dtd">
<!-- Generated by graphviz version 2.38.0 (20140413.2041)
 -->
<!-- Title: IA::Tsumego_abrFils Pages: 1 -->
<svg width="473pt" height="559pt"
 viewBox="0.00 0.00 473.00 559.00" xmlns="http://www.w3.org/2000/svg" xmlns:xlink="http://www.w3.org/1999/xlink">
<g id="graph0" class="graph" transform="scale(1 1) rotate(0) translate(4 555)">
<title>IA::Tsumego_abrFils</title>
<!-- Node57 -->
<g id="node1" class="node"><title>Node57</title>
<polygon fill="#bfbfbf" stroke="black" points="0,-247.5 0,-266.5 106,-266.5 106,-247.5 0,-247.5"/>
<text text-anchor="middle" x="53" y="-254.5" font-family="Helvetica,sans-Serif" font-size="10.00">IA::Tsumego_abrFils</text>
</g>
<!-- Node58 -->
<g id="node2" class="node"><title>Node58</title>
<g id="a_node2"><a xlink:href="class_arbre.html#afecc9a49515e88dba06b10d1e0fadb76" target="_top" xlink:title="Arbre::defineSABR">
<polygon fill="none" stroke="black" points="142,-474.5 142,-493.5 240,-493.5 240,-474.5 142,-474.5"/>
<text text-anchor="middle" x="191" y="-481.5" font-family="Helvetica,sans-Serif" font-size="10.00">Arbre::defineSABR</text>
</a>
</g>
</g>
<!-- Node57&#45;&gt;Node58 -->
<g id="edge1" class="edge"><title>Node57&#45;&gt;Node58</title>
<path fill="none" stroke="midnightblue" d="M56.4439,-266.896C64.3457,-297.294 91.6592,-390.89 142,-451 147.787,-457.91 155.362,-464.008 162.779,-469.023"/>
<polygon fill="midnightblue" stroke="midnightblue" points="160.972,-472.02 171.297,-474.395 164.706,-466.1 160.972,-472.02"/>
</g>
<!-- Node60 -->
<g id="node4" class="node"><title>Node60</title>
<g id="a_node4"><a xlink:href="class_arbre.html#a0aef1f091d76bca13229a21fcd45a076" target="_top" xlink:title="Arbre::getNbF">
<polygon fill="none" stroke="black" points="279.5,-456.5 279.5,-475.5 356.5,-475.5 356.5,-456.5 279.5,-456.5"/>
<text text-anchor="middle" x="318" y="-463.5" font-family="Helvetica,sans-Serif" font-size="10.00">Arbre::getNbF</text>
</a>
</g>
</g>
<!-- Node57&#45;&gt;Node60 -->
<g id="edge3" class="edge"><title>Node57&#45;&gt;Node60</title>
<path fill="none" stroke="midnightblue" d="M57.551,-266.614C67.2396,-291.596 96.4872,-359.237 142,-397 179.145,-427.82 231.728,-446.052 269.543,-455.958"/>
<polygon fill="midnightblue" stroke="midnightblue" points="268.753,-459.368 279.305,-458.417 270.463,-452.58 268.753,-459.368"/>
</g>
<!-- Node61 -->
<g id="node5" class="node"><title>Node61</title>
<g id="a_node5"><a xlink:href="class_arbre.html#ae9d294f541cec5e5fac9ccd8fe8496ee" target="_top" xlink:title="Arbre::getGob">
<polygon fill="none" stroke="black" points="279.5,-418.5 279.5,-437.5 356.5,-437.5 356.5,-418.5 279.5,-418.5"/>
<text text-anchor="middle" x="318" y="-425.5" font-family="Helvetica,sans-Serif" font-size="10.00">Arbre::getGob</text>
</a>
</g>
</g>
<!-- Node57&#45;&gt;Node61 -->
<g id="edge4" class="edge"><title>Node57&#45;&gt;Node61</title>
<path fill="none" stroke="midnightblue" d="M59.8471,-266.618C72.4716,-286.645 104.215,-333.184 142,-360 180.754,-387.503 232.125,-405.734 269.174,-416.335"/>
<polygon fill="midnightblue" stroke="midnightblue" points="268.649,-419.821 279.221,-419.124 270.521,-413.076 268.649,-419.821"/>
</g>
<!-- Node62 -->
<g id="node6" class="node"><title>Node62</title>
<g id="a_node6"><a xlink:href="class_goban.html#a29aaf8df380fe614845d48cba057747c" target="_top" xlink:title="Goban::coord">
<polygon fill="none" stroke="black" points="280.5,-380.5 280.5,-399.5 355.5,-399.5 355.5,-380.5 280.5,-380.5"/>
<text text-anchor="middle" x="318" y="-387.5" font-family="Helvetica,sans-Serif" font-size="10.00">Goban::coord</text>
</a>
</g>
</g>
<!-- Node57&#45;&gt;Node62 -->
<g id="edge5" class="edge"><title>Node57&#45;&gt;Node62</title>
<path fill="none" stroke="midnightblue" d="M64.0685,-266.656C79.672,-281.193 111.124,-308.819 142,-326 183.471,-349.077 234.883,-366.723 271.222,-377.584"/>
<polygon fill="midnightblue" stroke="midnightblue" points="270.47,-381.01 281.051,-380.466 272.44,-374.293 270.47,-381.01"/>
</g>
<!-- Node63 -->
<g id="node7" class="node"><title>Node63</title>
<g id="a_node7"><a xlink:href="class_etat.html#aa25e66b110bc835523819392435e78c6" target="_top" xlink:title="Etat::getX">
<polygon fill="none" stroke="black" points="288.5,-342.5 288.5,-361.5 347.5,-361.5 347.5,-342.5 288.5,-342.5"/>
<text text-anchor="middle" x="318" y="-349.5" font-family="Helvetica,sans-Serif" font-size="10.00">Etat::getX</text>
</a>
</g>
</g>
<!-- Node57&#45;&gt;Node63 -->
<g id="edge6" class="edge"><title>Node57&#45;&gt;Node63</title>
<path fill="none" stroke="midnightblue" d="M74.7576,-266.612C92.4502,-274.647 118.649,-286.177 142,-295 188.249,-312.474 242.519,-329.648 278.22,-340.501"/>
<polygon fill="midnightblue" stroke="midnightblue" points="277.639,-343.981 288.224,-343.524 279.665,-337.281 277.639,-343.981"/>
</g>
<!-- Node64 -->
<g id="node8" class="node"><title>Node64</title>
<g id="a_node8"><a xlink:href="class_etat.html#a3e3e915f2261c83989a983e84b1273c1" target="_top" xlink:title="Etat::getY">
<polygon fill="none" stroke="black" points="287.5,-228.5 287.5,-247.5 348.5,-247.5 348.5,-228.5 287.5,-228.5"/>
<text text-anchor="middle" x="318" y="-235.5" font-family="Helvetica,sans-Serif" font-size="10.00">Etat::getY</text>
</a>
</g>
</g>
<!-- Node57&#45;&gt;Node64 -->
<g id="edge7" class="edge"><title>Node57&#45;&gt;Node64</title>
<path fill="none" stroke="midnightblue" d="M106.275,-253.223C156.584,-249.589 231.559,-244.173 277.196,-240.876"/>
<polygon fill="midnightblue" stroke="midnightblue" points="277.579,-244.357 287.301,-240.146 277.075,-237.375 277.579,-244.357"/>
</g>
<!-- Node65 -->
<g id="node9" class="node"><title>Node65</title>
<g id="a_node9"><a xlink:href="class_etat.html#ac0b81bbcf64cb3cc574e5a9dcdf94382" target="_top" xlink:title="Etat::getVal">
<polygon fill="none" stroke="black" points="284,-190.5 284,-209.5 352,-209.5 352,-190.5 284,-190.5"/>
<text text-anchor="middle" x="318" y="-197.5" font-family="Helvetica,sans-Serif" font-size="10.00">Etat::getVal</text>
</a>
</g>
</g>
<!-- Node57&#45;&gt;Node65 -->
<g id="edge8" class="edge"><title>Node57&#45;&gt;Node65</title>
<path fill="none" stroke="midnightblue" d="M98.0203,-247.459C146.894,-236.867 225.273,-219.88 273.81,-209.361"/>
<polygon fill="midnightblue" stroke="midnightblue" points="274.661,-212.757 283.693,-207.219 273.178,-205.916 274.661,-212.757"/>
</g>
<!-- Node66 -->
<g id="node10" class="node"><title>Node66</title>
<g id="a_node10"><a xlink:href="class_arbre.html#aeaa93d0b192e3cce04adb509b6b29c40" target="_top" xlink:title="Arbre::getValue">
<polygon fill="none" stroke="black" points="276,-152.5 276,-171.5 360,-171.5 360,-152.5 276,-152.5"/>
<text text-anchor="middle" x="318" y="-159.5" font-family="Helvetica,sans-Serif" font-size="10.00">Arbre::getValue</text>
</a>
</g>
</g>
<!-- Node57&#45;&gt;Node66 -->
<g id="edge9" class="edge"><title>Node57&#45;&gt;Node66</title>
<path fill="none" stroke="midnightblue" d="M70.7838,-247.466C88.1914,-237.852 116.397,-223.037 142,-213 183.028,-196.916 231.202,-183.24 266.608,-174.111"/>
<polygon fill="midnightblue" stroke="midnightblue" points="267.873,-177.4 276.701,-171.542 266.146,-170.617 267.873,-177.4"/>
</g>
<!-- Node67 -->
<g id="node11" class="node"><title>Node67</title>
<g id="a_node11"><a xlink:href="class_arbre.html#a051e5328c63ba7ab6f6359f9f2f77105" target="_top" xlink:title="Arbre::setInfo">
<polygon fill="none" stroke="black" points="281,-114.5 281,-133.5 355,-133.5 355,-114.5 281,-114.5"/>
<text text-anchor="middle" x="318" y="-121.5" font-family="Helvetica,sans-Serif" font-size="10.00">Arbre::setInfo</text>
</a>
</g>
</g>
<!-- Node57&#45;&gt;Node67 -->
<g id="edge10" class="edge"><title>Node57&#45;&gt;Node67</title>
<path fill="none" stroke="midnightblue" d="M62.2576,-247.414C76.7946,-231.106 108.595,-197.9 142,-179 182.665,-155.993 234.194,-141.293 270.781,-132.934"/>
<polygon fill="midnightblue" stroke="midnightblue" points="271.675,-136.321 280.682,-130.743 270.162,-129.486 271.675,-136.321"/>
</g>
<!-- Node68 -->
<g id="node12" class="node"><title>Node68</title>
<g id="a_node12"><a xlink:href="class_arbre.html#afc71a182e86352b06193c2dc746fab79" target="_top" xlink:title="Arbre::getInfo">
<polygon fill="none" stroke="black" points="281,-76.5 281,-95.5 355,-95.5 355,-76.5 281,-76.5"/>
<text text-anchor="middle" x="318" y="-83.5" font-family="Helvetica,sans-Serif" font-size="10.00">Arbre::getInfo</text>
</a>
</g>
</g>
<!-- Node57&#45;&gt;Node68 -->
<g id="edge11" class="edge"><title>Node57&#45;&gt;Node68</title>
<path fill="none" stroke="midnightblue" d="M58.4216,-247.326C69.2798,-224.662 99.5,-167.795 142,-138 180.548,-110.975 233.278,-97.8048 270.755,-91.5099"/>
<polygon fill="midnightblue" stroke="midnightblue" points="271.563,-94.9257 280.896,-89.9109 270.473,-88.0111 271.563,-94.9257"/>
</g>
<!-- Node69 -->
<g id="node13" class="node"><title>Node69</title>
<g id="a_node13"><a xlink:href="class_arbre.html#a08c9dd0d84f493d89cb8e2e4bd740a8b" target="_top" xlink:title="Arbre::setSABR">
<polygon fill="none" stroke="black" points="148,-531.5 148,-550.5 234,-550.5 234,-531.5 148,-531.5"/>
<text text-anchor="middle" x="191" y="-538.5" font-family="Helvetica,sans-Serif" font-size="10.00">Arbre::setSABR</text>
</a>
</g>
</g>
<!-- Node57&#45;&gt;Node69 -->
<g id="edge12" class="edge"><title>Node57&#45;&gt;Node69</title>
<path fill="none" stroke="midnightblue" d="M55.5098,-266.82C61.2877,-301.877 84.6217,-423.026 142,-503 148.162,-511.589 156.781,-519.239 165.017,-525.384"/>
<polygon fill="midnightblue" stroke="midnightblue" points="163.145,-528.346 173.343,-531.219 167.163,-522.614 163.145,-528.346"/>
</g>
<!-- Node70 -->
<g id="node14" class="node"><title>Node70</title>
<g id="a_node14"><a xlink:href="class_arbre.html#ab8761bfdaadb8d6846199f269c6bbbc4" target="_top" xlink:title="Arbre::at">
<polygon fill="none" stroke="black" points="291,-38.5 291,-57.5 345,-57.5 345,-38.5 291,-38.5"/>
<text text-anchor="middle" x="318" y="-45.5" font-family="Helvetica,sans-Serif" font-size="10.00">Arbre::at</text>
</a>
</g>
</g>
<!-- Node57&#45;&gt;Node70 -->
<g id="edge14" class="edge"><title>Node57&#45;&gt;Node70</title>
<path fill="none" stroke="midnightblue" d="M56.3908,-247.22C63.8172,-218.97 89.2237,-136.622 142,-95 182.303,-63.2155 242.318,-52.8545 280.548,-49.5199"/>
<polygon fill="midnightblue" stroke="midnightblue" points="281.009,-52.9952 290.718,-48.7538 280.484,-46.0149 281.009,-52.9952"/>
</g>
<!-- Node71 -->
<g id="node15" class="node"><title>Node71</title>
<g id="a_node15"><a xlink:href="class_arbre.html#afb60b996a0b7225303ff20256483f383" target="_top" xlink:title="Arbre::getSABR">
<polygon fill="none" stroke="black" points="148,-0.5 148,-19.5 234,-19.5 234,-0.5 148,-0.5"/>
<text text-anchor="middle" x="191" y="-7.5" font-family="Helvetica,sans-Serif" font-size="10.00">Arbre::getSABR</text>
</a>
</g>
</g>
<!-- Node57&#45;&gt;Node71 -->
<g id="edge15" class="edge"><title>Node57&#45;&gt;Node71</title>
<path fill="none" stroke="midnightblue" d="M55.3268,-247.224C60.377,-213.475 81.2813,-100.298 142,-34 145.288,-30.41 149.233,-27.2857 153.431,-24.5865"/>
<polygon fill="midnightblue" stroke="midnightblue" points="155.26,-27.5736 162.271,-19.6301 151.836,-21.4678 155.26,-27.5736"/>
</g>
<!-- Node72 -->
<g id="node16" class="node"><title>Node72</title>
<g id="a_node16"><a xlink:href="class_i_a.html#af1f6e5abe41a2225b17ca319c1fc0e4e" target="_top" xlink:title="IA::Tsumego_abr">
<polygon fill="none" stroke="black" points="146,-266.5 146,-285.5 236,-285.5 236,-266.5 146,-266.5"/>
<text text-anchor="middle" x="191" y="-273.5" font-family="Helvetica,sans-Serif" font-size="10.00">IA::Tsumego_abr</text>
</a>
</g>
</g>
<!-- Node57&#45;&gt;Node72 -->
<g id="edge16" class="edge"><title>Node57&#45;&gt;Node72</title>
<path fill="none" stroke="midnightblue" d="M106.192,-264.292C115.866,-265.643 125.991,-267.058 135.725,-268.417"/>
<polygon fill="midnightblue" stroke="midnightblue" points="135.304,-271.893 145.692,-269.81 136.272,-264.96 135.304,-271.893"/>
</g>
<!-- Node59 -->
<g id="node3" class="node"><title>Node59</title>
<g id="a_node3"><a xlink:href="class_arbre.html#a761f4a2c6a43f44b38d4ac6fc1cf5cae" target="_top" xlink:title="Arbre::Arbre">
<polygon fill="none" stroke="black" points="396,-494.5 396,-513.5 465,-513.5 465,-494.5 396,-494.5"/>
<text text-anchor="middle" x="430.5" y="-501.5" font-family="Helvetica,sans-Serif" font-size="10.00">Arbre::Arbre</text>
</a>
</g>
</g>
<!-- Node58&#45;&gt;Node59 -->
<g id="edge2" class="edge"><title>Node58&#45;&gt;Node59</title>
<path fill="none" stroke="midnightblue" d="M240.062,-488.047C282.671,-491.635 344.371,-496.831 385.656,-500.308"/>
<polygon fill="midnightblue" stroke="midnightblue" points="385.43,-503.801 395.689,-501.153 386.018,-496.826 385.43,-503.801"/>
</g>
<!-- Node69&#45;&gt;Node59 -->
<g id="edge13" class="edge"><title>Node69&#45;&gt;Node59</title>
<path fill="none" stroke="midnightblue" d="M234.187,-534.428C276.884,-527.776 342.604,-517.538 385.826,-510.804"/>
<polygon fill="midnightblue" stroke="midnightblue" points="386.423,-514.253 395.765,-509.256 385.345,-507.337 386.423,-514.253"/>
</g>
<!-- Node72&#45;&gt;Node60 -->
<g id="edge17" class="edge"><title>Node72&#45;&gt;Node60</title>
<path fill="none" stroke="midnightblue" d="M194.351,-285.876C201.626,-314.482 226.332,-398.444 276,-447 277.431,-448.398 278.983,-449.707 280.619,-450.929"/>
<polygon fill="midnightblue" stroke="midnightblue" points="278.975,-454.029 289.314,-456.343 282.675,-448.086 278.975,-454.029"/>
</g>
<!-- Node72&#45;&gt;Node61 -->
<g id="edge18" class="edge"><title>Node72&#45;&gt;Node61</title>
<path fill="none" stroke="midnightblue" d="M195.808,-285.682C205.654,-309.608 234.141,-372.234 276,-409 277.724,-410.514 279.589,-411.931 281.541,-413.252"/>
<polygon fill="midnightblue" stroke="midnightblue" points="280.077,-416.448 290.483,-418.44 283.59,-410.394 280.077,-416.448"/>
</g>
<!-- Node72&#45;&gt;Node62 -->
<g id="edge19" class="edge"><title>Node72&#45;&gt;Node62</title>
<path fill="none" stroke="midnightblue" d="M198.368,-285.527C211.171,-304.083 241.751,-345.481 276,-371 278.092,-372.559 280.332,-374.033 282.646,-375.418"/>
<polygon fill="midnightblue" stroke="midnightblue" points="281.318,-378.677 291.786,-380.313 284.623,-372.507 281.318,-378.677"/>
</g>
<!-- Node72&#45;&gt;Node63 -->
<g id="edge20" class="edge"><title>Node72&#45;&gt;Node63</title>
<path fill="none" stroke="midnightblue" d="M213.201,-285.632C221.796,-289.893 231.644,-295.242 240,-301 257.627,-313.148 258.097,-321.263 276,-333 278.606,-334.708 281.39,-336.344 284.235,-337.888"/>
<polygon fill="midnightblue" stroke="midnightblue" points="282.875,-341.122 293.381,-342.488 286.019,-334.868 282.875,-341.122"/>
</g>
<!-- Node72&#45;&gt;Node64 -->
<g id="edge21" class="edge"><title>Node72&#45;&gt;Node64</title>
<path fill="none" stroke="midnightblue" d="M223.543,-266.411C239.867,-261.449 259.96,-255.34 277.327,-250.061"/>
<polygon fill="midnightblue" stroke="midnightblue" points="278.639,-253.32 287.188,-247.063 276.603,-246.623 278.639,-253.32"/>
</g>
<!-- Node72&#45;&gt;Node65 -->
<g id="edge22" class="edge"><title>Node72&#45;&gt;Node65</title>
<path fill="none" stroke="midnightblue" d="M204.676,-266.44C220.769,-254.53 249.62,-233.932 276,-219 279.028,-217.286 282.236,-215.596 285.473,-213.973"/>
<polygon fill="midnightblue" stroke="midnightblue" points="287.046,-217.1 294.54,-209.611 284.011,-210.792 287.046,-217.1"/>
</g>
<!-- Node72&#45;&gt;Node66 -->
<g id="edge23" class="edge"><title>Node72&#45;&gt;Node66</title>
<path fill="none" stroke="midnightblue" d="M198.368,-266.473C211.171,-247.917 241.751,-206.519 276,-181 278.092,-179.441 280.332,-177.967 282.646,-176.582"/>
<polygon fill="midnightblue" stroke="midnightblue" points="284.623,-179.493 291.786,-171.687 281.318,-173.323 284.623,-179.493"/>
</g>
<!-- Node72&#45;&gt;Node67 -->
<g id="edge24" class="edge"><title>Node72&#45;&gt;Node67</title>
<path fill="none" stroke="midnightblue" d="M195.808,-266.318C205.654,-242.392 234.141,-179.766 276,-143 277.724,-141.486 279.589,-140.069 281.541,-138.748"/>
<polygon fill="midnightblue" stroke="midnightblue" points="283.59,-141.606 290.483,-133.56 280.077,-135.552 283.59,-141.606"/>
</g>
<!-- Node72&#45;&gt;Node68 -->
<g id="edge25" class="edge"><title>Node72&#45;&gt;Node68</title>
<path fill="none" stroke="midnightblue" d="M194.351,-266.124C201.626,-237.518 226.332,-153.556 276,-105 277.431,-103.602 278.983,-102.293 280.619,-101.071"/>
<polygon fill="midnightblue" stroke="midnightblue" points="282.675,-103.914 289.314,-95.6568 278.975,-97.9713 282.675,-103.914"/>
</g>
<!-- Node72&#45;&gt;Node70 -->
<g id="edge28" class="edge"><title>Node72&#45;&gt;Node70</title>
<path fill="none" stroke="midnightblue" d="M193.319,-266.326C198.208,-233.945 218.108,-127.971 276,-67 277.796,-65.1083 279.817,-63.3875 281.975,-61.8251"/>
<polygon fill="midnightblue" stroke="midnightblue" points="283.998,-64.6937 290.784,-56.5577 280.405,-58.6858 283.998,-64.6937"/>
</g>
<!-- Node73 -->
<g id="node17" class="node"><title>Node73</title>
<g id="a_node17"><a xlink:href="class_arbre.html#aceca304216a7f620926c2147c7c84acd" target="_top" xlink:title="Arbre::setFilsA">
<polygon fill="none" stroke="black" points="277,-304.5 277,-323.5 359,-323.5 359,-304.5 277,-304.5"/>
<text text-anchor="middle" x="318" y="-311.5" font-family="Helvetica,sans-Serif" font-size="10.00">Arbre::setFilsA</text>
</a>
</g>
</g>
<!-- Node72&#45;&gt;Node73 -->
<g id="edge26" class="edge"><title>Node72&#45;&gt;Node73</title>
<path fill="none" stroke="midnightblue" d="M223.543,-285.589C239.383,-290.404 258.773,-296.299 275.776,-301.468"/>
<polygon fill="midnightblue" stroke="midnightblue" points="274.882,-304.854 285.467,-304.414 276.918,-298.157 274.882,-304.854"/>
</g>
<!-- Node74 -->
<g id="node18" class="node"><title>Node74</title>
<g id="a_node18"><a xlink:href="class_arbre.html#af2b7629b3686bcf3e49f737adb3b2d24" target="_top" xlink:title="Arbre::getFilsA">
<polygon fill="none" stroke="black" points="277,-266.5 277,-285.5 359,-285.5 359,-266.5 277,-266.5"/>
<text text-anchor="middle" x="318" y="-273.5" font-family="Helvetica,sans-Serif" font-size="10.00">Arbre::getFilsA</text>
</a>
</g>
</g>
<!-- Node72&#45;&gt;Node74 -->
<g id="edge29" class="edge"><title>Node72&#45;&gt;Node74</title>
<path fill="none" stroke="midnightblue" d="M236.07,-276C245.878,-276 256.35,-276 266.397,-276"/>
<polygon fill="midnightblue" stroke="midnightblue" points="266.667,-279.5 276.667,-276 266.667,-272.5 266.667,-279.5"/>
</g>
<!-- Node73&#45;&gt;Node59 -->
<g id="edge27" class="edge"><title>Node73&#45;&gt;Node59</title>
<path fill="none" stroke="midnightblue" d="M347.326,-323.669C351.972,-326.174 356.427,-329.252 360,-333 401.898,-376.955 419.849,-449.53 426.348,-484.272"/>
<polygon fill="midnightblue" stroke="midnightblue" points="422.903,-484.891 428.072,-494.139 429.799,-483.686 422.903,-484.891"/>
</g>
</g>
</svg>
