<?xml version="1.0" encoding="UTF-8" standalone="no"?>
<!DOCTYPE svg PUBLIC "-//W3C//DTD SVG 1.1//EN"
 "http://www.w3.org/Graphics/SVG/1.1/DTD/svg11.dtd">
<!-- Generated by graphviz version 2.38.0 (20140413.2041)
 -->
<!-- Title: Goban::setScoreWhite Pages: 1 -->
<svg width="882pt" height="142pt"
 viewBox="0.00 0.00 882.00 142.00" xmlns="http://www.w3.org/2000/svg" xmlns:xlink="http://www.w3.org/1999/xlink">
<g id="graph0" class="graph" transform="scale(1 1) rotate(0) translate(4 138)">
<title>Goban::setScoreWhite</title>
<!-- Node299 -->
<g id="node1" class="node"><title>Node299</title>
<polygon fill="#bfbfbf" stroke="black" points="0,-57.5 0,-76.5 116,-76.5 116,-57.5 0,-57.5"/>
<text text-anchor="middle" x="58" y="-64.5" font-family="Helvetica,sans-Serif" font-size="10.00">Goban::setScoreWhite</text>
</g>
<!-- Node300 -->
<g id="node2" class="node"><title>Node300</title>
<g id="a_node2"><a xlink:href="class_goban.html#a1ec70508987f66afff5f8df381731fac" target="_top" xlink:title="Goban::eliminateGroups">
<polygon fill="none" stroke="black" points="152,-57.5 152,-76.5 274,-76.5 274,-57.5 152,-57.5"/>
<text text-anchor="middle" x="213" y="-64.5" font-family="Helvetica,sans-Serif" font-size="10.00">Goban::eliminateGroups</text>
</a>
</g>
</g>
<!-- Node299&#45;&gt;Node300 -->
<g id="edge1" class="edge"><title>Node299&#45;&gt;Node300</title>
<path fill="none" stroke="midnightblue" d="M126.61,-67C135.057,-67 143.651,-67 151.972,-67"/>
<polygon fill="midnightblue" stroke="midnightblue" points="126.407,-63.5001 116.407,-67 126.407,-70.5001 126.407,-63.5001"/>
</g>
<!-- Node301 -->
<g id="node3" class="node"><title>Node301</title>
<g id="a_node3"><a xlink:href="class_goban.html#a7858b815885e4af36f05f9d26182cb07" target="_top" xlink:title="Goban::eliminateOppGroups">
<polygon fill="none" stroke="black" points="310,-57.5 310,-76.5 450,-76.5 450,-57.5 310,-57.5"/>
<text text-anchor="middle" x="380" y="-64.5" font-family="Helvetica,sans-Serif" font-size="10.00">Goban::eliminateOppGroups</text>
</a>
</g>
</g>
<!-- Node300&#45;&gt;Node301 -->
<g id="edge2" class="edge"><title>Node300&#45;&gt;Node301</title>
<path fill="none" stroke="midnightblue" d="M284.24,-67C292.698,-67 301.331,-67 309.774,-67"/>
<polygon fill="midnightblue" stroke="midnightblue" points="284.036,-63.5001 274.036,-67 284.036,-70.5001 284.036,-63.5001"/>
</g>
<!-- Node302 -->
<g id="node4" class="node"><title>Node302</title>
<g id="a_node4"><a xlink:href="class_goban.html#a799390f04139eec16f7bb8c79b381303" target="_top" xlink:title="Goban::legalEvenKO">
<polygon fill="none" stroke="black" points="486,-114.5 486,-133.5 593,-133.5 593,-114.5 486,-114.5"/>
<text text-anchor="middle" x="539.5" y="-121.5" font-family="Helvetica,sans-Serif" font-size="10.00">Goban::legalEvenKO</text>
</a>
</g>
</g>
<!-- Node301&#45;&gt;Node302 -->
<g id="edge3" class="edge"><title>Node301&#45;&gt;Node302</title>
<path fill="none" stroke="midnightblue" d="M417.102,-80.0655C446.052,-90.5428 486.014,-105.005 512.052,-114.428"/>
<polygon fill="midnightblue" stroke="midnightblue" points="417.956,-76.6525 407.362,-76.5405 415.574,-83.2347 417.956,-76.6525"/>
</g>
<!-- Node303 -->
<g id="node5" class="node"><title>Node303</title>
<g id="a_node5"><a xlink:href="class_goban.html#a8b95ea2b51c078381562e361ff7febac" target="_top" xlink:title="Goban::isSuicide">
<polygon fill="none" stroke="black" points="494,-76.5 494,-95.5 585,-95.5 585,-76.5 494,-76.5"/>
<text text-anchor="middle" x="539.5" y="-83.5" font-family="Helvetica,sans-Serif" font-size="10.00">Goban::isSuicide</text>
</a>
</g>
</g>
<!-- Node301&#45;&gt;Node303 -->
<g id="edge4" class="edge"><title>Node301&#45;&gt;Node303</title>
<path fill="none" stroke="midnightblue" d="M460.241,-76.5592C471.825,-77.9567 483.396,-79.3525 493.949,-80.6256"/>
<polygon fill="midnightblue" stroke="midnightblue" points="460.429,-73.0566 450.082,-75.3337 459.591,-80.0062 460.429,-73.0566"/>
</g>
<!-- Node304 -->
<g id="node6" class="node"><title>Node304</title>
<g id="a_node6"><a xlink:href="class_goban.html#a36ab256c9430e070b620052a0f13f051" target="_top" xlink:title="Goban::listFils">
<polygon fill="none" stroke="black" points="499.5,-38.5 499.5,-57.5 579.5,-57.5 579.5,-38.5 499.5,-38.5"/>
<text text-anchor="middle" x="539.5" y="-45.5" font-family="Helvetica,sans-Serif" font-size="10.00">Goban::listFils</text>
</a>
</g>
</g>
<!-- Node301&#45;&gt;Node304 -->
<g id="edge5" class="edge"><title>Node301&#45;&gt;Node304</title>
<path fill="none" stroke="midnightblue" d="M460.404,-57.4211C473.931,-55.7892 487.432,-54.1605 499.311,-52.7275"/>
<polygon fill="midnightblue" stroke="midnightblue" points="459.591,-53.9938 450.082,-58.6663 460.429,-60.9434 459.591,-53.9938"/>
</g>
<!-- Node307 -->
<g id="node9" class="node"><title>Node307</title>
<g id="a_node9"><a xlink:href="class_board.html#a5fda73da080403d8a71a8593d581c350" target="_top" xlink:title="Board::click">
<polygon fill="none" stroke="black" points="505.5,-0.5 505.5,-19.5 573.5,-19.5 573.5,-0.5 505.5,-0.5"/>
<text text-anchor="middle" x="539.5" y="-7.5" font-family="Helvetica,sans-Serif" font-size="10.00">Board::click</text>
</a>
</g>
</g>
<!-- Node301&#45;&gt;Node307 -->
<g id="edge8" class="edge"><title>Node301&#45;&gt;Node307</title>
<path fill="none" stroke="midnightblue" d="M417.102,-53.9345C446.052,-43.4572 486.014,-28.9949 512.052,-19.5716"/>
<polygon fill="midnightblue" stroke="midnightblue" points="415.574,-50.7653 407.362,-57.4595 417.956,-57.3475 415.574,-50.7653"/>
</g>
<!-- Node305 -->
<g id="node7" class="node"><title>Node305</title>
<g id="a_node7"><a xlink:href="class_arbre.html#ac82e543d8cbf0aced4d741c346f9950d" target="_top" xlink:title="Arbre::Arbre">
<polygon fill="none" stroke="black" points="647.5,-76.5 647.5,-95.5 716.5,-95.5 716.5,-76.5 647.5,-76.5"/>
<text text-anchor="middle" x="682" y="-83.5" font-family="Helvetica,sans-Serif" font-size="10.00">Arbre::Arbre</text>
</a>
</g>
</g>
<!-- Node304&#45;&gt;Node305 -->
<g id="edge6" class="edge"><title>Node304&#45;&gt;Node305</title>
<path fill="none" stroke="midnightblue" d="M585.813,-60.2556C605.866,-65.6791 629.034,-71.9451 647.492,-76.9373"/>
<polygon fill="midnightblue" stroke="midnightblue" points="586.521,-56.8213 575.954,-57.589 584.693,-63.5785 586.521,-56.8213"/>
</g>
<!-- Node306 -->
<g id="node8" class="node"><title>Node306</title>
<g id="a_node8"><a xlink:href="class_arbre.html#a70585b1d341c1e0c262b2b4a4f769b6d" target="_top" xlink:title="Arbre::resetFils">
<polygon fill="none" stroke="black" points="640.5,-38.5 640.5,-57.5 723.5,-57.5 723.5,-38.5 640.5,-38.5"/>
<text text-anchor="middle" x="682" y="-45.5" font-family="Helvetica,sans-Serif" font-size="10.00">Arbre::resetFils</text>
</a>
</g>
</g>
<!-- Node304&#45;&gt;Node306 -->
<g id="edge7" class="edge"><title>Node304&#45;&gt;Node306</title>
<path fill="none" stroke="midnightblue" d="M589.645,-48C606.132,-48 624.329,-48 640.114,-48"/>
<polygon fill="midnightblue" stroke="midnightblue" points="589.637,-44.5001 579.637,-48 589.637,-51.5001 589.637,-44.5001"/>
</g>
<!-- Node308 -->
<g id="node10" class="node"><title>Node308</title>
<g id="a_node10"><a xlink:href="class_game__window.html#afa942088809bf10731bb31d0d37b878d" target="_top" xlink:title="Game_window::click">
<polygon fill="none" stroke="black" points="629,-0.5 629,-19.5 735,-19.5 735,-0.5 629,-0.5"/>
<text text-anchor="middle" x="682" y="-7.5" font-family="Helvetica,sans-Serif" font-size="10.00">Game_window::click</text>
</a>
</g>
</g>
<!-- Node307&#45;&gt;Node308 -->
<g id="edge9" class="edge"><title>Node307&#45;&gt;Node308</title>
<path fill="none" stroke="midnightblue" d="M583.841,-10C598.116,-10 614.137,-10 628.99,-10"/>
<polygon fill="midnightblue" stroke="midnightblue" points="583.797,-6.5001 573.797,-10 583.797,-13.5001 583.797,-6.5001"/>
</g>
<!-- Node309 -->
<g id="node11" class="node"><title>Node309</title>
<g id="a_node11"><a xlink:href="class_game__window.html#a555769f4e8511e45d6623658dc736be5" target="_top" xlink:title="Game_window::Run">
<polygon fill="none" stroke="black" points="771,-0.5 771,-19.5 874,-19.5 874,-0.5 771,-0.5"/>
<text text-anchor="middle" x="822.5" y="-7.5" font-family="Helvetica,sans-Serif" font-size="10.00">Game_window::Run</text>
</a>
</g>
</g>
<!-- Node308&#45;&gt;Node309 -->
<g id="edge10" class="edge"><title>Node308&#45;&gt;Node309</title>
<path fill="none" stroke="midnightblue" d="M745.594,-10C754.066,-10 762.672,-10 770.898,-10"/>
<polygon fill="midnightblue" stroke="midnightblue" points="745.361,-6.5001 735.361,-10 745.361,-13.5001 745.361,-6.5001"/>
</g>
</g>
</svg>
