<?xml version="1.0" encoding="UTF-8" standalone="no"?>
<!DOCTYPE svg PUBLIC "-//W3C//DTD SVG 1.1//EN"
 "http://www.w3.org/Graphics/SVG/1.1/DTD/svg11.dtd">
<!-- Generated by graphviz version 2.38.0 (20140413.2041)
 -->
<!-- Title: IA::Tsumego_abr Pages: 1 -->
<svg width="323pt" height="446pt"
 viewBox="0.00 0.00 323.00 446.00" xmlns="http://www.w3.org/2000/svg" xmlns:xlink="http://www.w3.org/1999/xlink">
<g id="graph0" class="graph" transform="scale(1 1) rotate(0) translate(4 442)">
<title>IA::Tsumego_abr</title>
<!-- Node39 -->
<g id="node1" class="node"><title>Node39</title>
<polygon fill="#bfbfbf" stroke="black" points="0,-209.5 0,-228.5 90,-228.5 90,-209.5 0,-209.5"/>
<text text-anchor="middle" x="45" y="-216.5" font-family="Helvetica,sans-Serif" font-size="10.00">IA::Tsumego_abr</text>
</g>
<!-- Node40 -->
<g id="node2" class="node"><title>Node40</title>
<g id="a_node2"><a xlink:href="class_arbre.html#a0aef1f091d76bca13229a21fcd45a076" target="_top" xlink:title="Arbre::getNbF">
<polygon fill="none" stroke="black" points="129.5,-418.5 129.5,-437.5 206.5,-437.5 206.5,-418.5 129.5,-418.5"/>
<text text-anchor="middle" x="168" y="-425.5" font-family="Helvetica,sans-Serif" font-size="10.00">Arbre::getNbF</text>
</a>
</g>
</g>
<!-- Node39&#45;&gt;Node40 -->
<g id="edge1" class="edge"><title>Node39&#45;&gt;Node40</title>
<path fill="none" stroke="midnightblue" d="M47.5319,-228.638C52.8325,-259.041 73.0574,-354.148 126,-409 127.236,-410.281 128.575,-411.484 129.989,-412.612"/>
<polygon fill="midnightblue" stroke="midnightblue" points="128.423,-415.769 138.713,-418.294 132.243,-409.904 128.423,-415.769"/>
</g>
<!-- Node41 -->
<g id="node3" class="node"><title>Node41</title>
<g id="a_node3"><a xlink:href="class_arbre.html#ae9d294f541cec5e5fac9ccd8fe8496ee" target="_top" xlink:title="Arbre::getGob">
<polygon fill="none" stroke="black" points="129.5,-380.5 129.5,-399.5 206.5,-399.5 206.5,-380.5 129.5,-380.5"/>
<text text-anchor="middle" x="168" y="-387.5" font-family="Helvetica,sans-Serif" font-size="10.00">Arbre::getGob</text>
</a>
</g>
</g>
<!-- Node39&#45;&gt;Node41 -->
<g id="edge2" class="edge"><title>Node39&#45;&gt;Node41</title>
<path fill="none" stroke="midnightblue" d="M48.6416,-228.52C56.3299,-254.63 81.0463,-328.262 126,-371 127.617,-372.537 129.38,-373.967 131.238,-375.295"/>
<polygon fill="midnightblue" stroke="midnightblue" points="129.453,-378.306 139.823,-380.477 133.071,-372.313 129.453,-378.306"/>
</g>
<!-- Node42 -->
<g id="node4" class="node"><title>Node42</title>
<g id="a_node4"><a xlink:href="class_goban.html#a29aaf8df380fe614845d48cba057747c" target="_top" xlink:title="Goban::coord">
<polygon fill="none" stroke="black" points="130.5,-342.5 130.5,-361.5 205.5,-361.5 205.5,-342.5 130.5,-342.5"/>
<text text-anchor="middle" x="168" y="-349.5" font-family="Helvetica,sans-Serif" font-size="10.00">Goban::coord</text>
</a>
</g>
</g>
<!-- Node39&#45;&gt;Node42 -->
<g id="edge3" class="edge"><title>Node39&#45;&gt;Node42</title>
<path fill="none" stroke="midnightblue" d="M50.4841,-228.526C60.9419,-249.849 88.903,-301.98 126,-333 127.948,-334.629 130.06,-336.15 132.262,-337.565"/>
<polygon fill="midnightblue" stroke="midnightblue" points="130.616,-340.654 141.05,-342.492 134.039,-334.548 130.616,-340.654"/>
</g>
<!-- Node43 -->
<g id="node5" class="node"><title>Node43</title>
<g id="a_node5"><a xlink:href="class_etat.html#aa25e66b110bc835523819392435e78c6" target="_top" xlink:title="Etat::getX">
<polygon fill="none" stroke="black" points="138.5,-304.5 138.5,-323.5 197.5,-323.5 197.5,-304.5 138.5,-304.5"/>
<text text-anchor="middle" x="168" y="-311.5" font-family="Helvetica,sans-Serif" font-size="10.00">Etat::getX</text>
</a>
</g>
</g>
<!-- Node39&#45;&gt;Node43 -->
<g id="edge4" class="edge"><title>Node39&#45;&gt;Node43</title>
<path fill="none" stroke="midnightblue" d="M54.5063,-228.952C68.2724,-244.594 96.8453,-275.188 126,-295 128.433,-296.654 131.034,-298.23 133.699,-299.717"/>
<polygon fill="midnightblue" stroke="midnightblue" points="132.373,-302.97 142.87,-304.409 135.561,-296.738 132.373,-302.97"/>
</g>
<!-- Node44 -->
<g id="node6" class="node"><title>Node44</title>
<g id="a_node6"><a xlink:href="class_etat.html#a3e3e915f2261c83989a983e84b1273c1" target="_top" xlink:title="Etat::getY">
<polygon fill="none" stroke="black" points="137.5,-266.5 137.5,-285.5 198.5,-285.5 198.5,-266.5 137.5,-266.5"/>
<text text-anchor="middle" x="168" y="-273.5" font-family="Helvetica,sans-Serif" font-size="10.00">Etat::getY</text>
</a>
</g>
</g>
<!-- Node39&#45;&gt;Node44 -->
<g id="edge5" class="edge"><title>Node39&#45;&gt;Node44</title>
<path fill="none" stroke="midnightblue" d="M66.0303,-228.579C82.1967,-236.295 105.538,-247.399 126,-257 129.573,-258.677 133.326,-260.428 137.049,-262.16"/>
<polygon fill="midnightblue" stroke="midnightblue" points="135.58,-265.337 146.124,-266.372 138.527,-258.988 135.58,-265.337"/>
</g>
<!-- Node45 -->
<g id="node7" class="node"><title>Node45</title>
<g id="a_node7"><a xlink:href="class_etat.html#ac0b81bbcf64cb3cc574e5a9dcdf94382" target="_top" xlink:title="Etat::getVal">
<polygon fill="none" stroke="black" points="134,-228.5 134,-247.5 202,-247.5 202,-228.5 134,-228.5"/>
<text text-anchor="middle" x="168" y="-235.5" font-family="Helvetica,sans-Serif" font-size="10.00">Etat::getVal</text>
</a>
</g>
</g>
<!-- Node39&#45;&gt;Node45 -->
<g id="edge6" class="edge"><title>Node39&#45;&gt;Node45</title>
<path fill="none" stroke="midnightblue" d="M90.0261,-225.913C100.984,-227.634 112.723,-229.477 123.649,-231.193"/>
<polygon fill="midnightblue" stroke="midnightblue" points="123.401,-234.697 133.822,-232.79 124.486,-227.781 123.401,-234.697"/>
</g>
<!-- Node46 -->
<g id="node8" class="node"><title>Node46</title>
<g id="a_node8"><a xlink:href="class_arbre.html#aeaa93d0b192e3cce04adb509b6b29c40" target="_top" xlink:title="Arbre::getValue">
<polygon fill="none" stroke="black" points="126,-190.5 126,-209.5 210,-209.5 210,-190.5 126,-190.5"/>
<text text-anchor="middle" x="168" y="-197.5" font-family="Helvetica,sans-Serif" font-size="10.00">Arbre::getValue</text>
</a>
</g>
</g>
<!-- Node39&#45;&gt;Node46 -->
<g id="edge7" class="edge"><title>Node39&#45;&gt;Node46</title>
<path fill="none" stroke="midnightblue" d="M90.0261,-212.087C98.3797,-210.775 107.187,-209.392 115.742,-208.049"/>
<polygon fill="midnightblue" stroke="midnightblue" points="116.29,-211.506 125.626,-206.497 115.204,-204.59 116.29,-211.506"/>
</g>
<!-- Node47 -->
<g id="node9" class="node"><title>Node47</title>
<g id="a_node9"><a xlink:href="class_arbre.html#a051e5328c63ba7ab6f6359f9f2f77105" target="_top" xlink:title="Arbre::setInfo">
<polygon fill="none" stroke="black" points="131,-152.5 131,-171.5 205,-171.5 205,-152.5 131,-152.5"/>
<text text-anchor="middle" x="168" y="-159.5" font-family="Helvetica,sans-Serif" font-size="10.00">Arbre::setInfo</text>
</a>
</g>
</g>
<!-- Node39&#45;&gt;Node47 -->
<g id="edge8" class="edge"><title>Node39&#45;&gt;Node47</title>
<path fill="none" stroke="midnightblue" d="M66.0303,-209.421C82.1967,-201.705 105.538,-190.601 126,-181 129.573,-179.323 133.326,-177.572 137.049,-175.84"/>
<polygon fill="midnightblue" stroke="midnightblue" points="138.527,-179.012 146.124,-171.628 135.58,-172.663 138.527,-179.012"/>
</g>
<!-- Node48 -->
<g id="node10" class="node"><title>Node48</title>
<g id="a_node10"><a xlink:href="class_arbre.html#afc71a182e86352b06193c2dc746fab79" target="_top" xlink:title="Arbre::getInfo">
<polygon fill="none" stroke="black" points="131,-114.5 131,-133.5 205,-133.5 205,-114.5 131,-114.5"/>
<text text-anchor="middle" x="168" y="-121.5" font-family="Helvetica,sans-Serif" font-size="10.00">Arbre::getInfo</text>
</a>
</g>
</g>
<!-- Node39&#45;&gt;Node48 -->
<g id="edge9" class="edge"><title>Node39&#45;&gt;Node48</title>
<path fill="none" stroke="midnightblue" d="M54.5063,-209.048C68.2724,-193.406 96.8453,-162.812 126,-143 128.433,-141.346 131.034,-139.77 133.699,-138.283"/>
<polygon fill="midnightblue" stroke="midnightblue" points="135.561,-141.262 142.87,-133.591 132.373,-135.03 135.561,-141.262"/>
</g>
<!-- Node49 -->
<g id="node11" class="node"><title>Node49</title>
<g id="a_node11"><a xlink:href="class_arbre.html#aceca304216a7f620926c2147c7c84acd" target="_top" xlink:title="Arbre::setFilsA">
<polygon fill="none" stroke="black" points="127,-76.5 127,-95.5 209,-95.5 209,-76.5 127,-76.5"/>
<text text-anchor="middle" x="168" y="-83.5" font-family="Helvetica,sans-Serif" font-size="10.00">Arbre::setFilsA</text>
</a>
</g>
</g>
<!-- Node39&#45;&gt;Node49 -->
<g id="edge10" class="edge"><title>Node39&#45;&gt;Node49</title>
<path fill="none" stroke="midnightblue" d="M50.4841,-209.474C60.9419,-188.151 88.903,-136.02 126,-105 127.948,-103.371 130.06,-101.85 132.262,-100.435"/>
<polygon fill="midnightblue" stroke="midnightblue" points="134.039,-103.452 141.05,-95.5083 130.616,-97.3458 134.039,-103.452"/>
</g>
<!-- Node51 -->
<g id="node13" class="node"><title>Node51</title>
<g id="a_node13"><a xlink:href="class_arbre.html#ab8761bfdaadb8d6846199f269c6bbbc4" target="_top" xlink:title="Arbre::at">
<polygon fill="none" stroke="black" points="141,-38.5 141,-57.5 195,-57.5 195,-38.5 141,-38.5"/>
<text text-anchor="middle" x="168" y="-45.5" font-family="Helvetica,sans-Serif" font-size="10.00">Arbre::at</text>
</a>
</g>
</g>
<!-- Node39&#45;&gt;Node51 -->
<g id="edge12" class="edge"><title>Node39&#45;&gt;Node51</title>
<path fill="none" stroke="midnightblue" d="M48.6416,-209.48C56.3299,-183.37 81.0463,-109.738 126,-67 127.841,-65.25 129.872,-63.6387 132.015,-62.1591"/>
<polygon fill="midnightblue" stroke="midnightblue" points="133.814,-65.1617 140.677,-57.0898 130.278,-59.1203 133.814,-65.1617"/>
</g>
<!-- Node52 -->
<g id="node14" class="node"><title>Node52</title>
<g id="a_node14"><a xlink:href="class_arbre.html#af2b7629b3686bcf3e49f737adb3b2d24" target="_top" xlink:title="Arbre::getFilsA">
<polygon fill="none" stroke="black" points="127,-0.5 127,-19.5 209,-19.5 209,-0.5 127,-0.5"/>
<text text-anchor="middle" x="168" y="-7.5" font-family="Helvetica,sans-Serif" font-size="10.00">Arbre::getFilsA</text>
</a>
</g>
</g>
<!-- Node39&#45;&gt;Node52 -->
<g id="edge13" class="edge"><title>Node39&#45;&gt;Node52</title>
<path fill="none" stroke="midnightblue" d="M47.5319,-209.362C52.8325,-178.959 73.0574,-83.8524 126,-29 127.236,-27.7193 128.575,-26.5164 129.989,-25.3876"/>
<polygon fill="midnightblue" stroke="midnightblue" points="132.243,-28.0963 138.713,-19.7059 128.423,-22.2307 132.243,-28.0963"/>
</g>
<!-- Node50 -->
<g id="node12" class="node"><title>Node50</title>
<g id="a_node12"><a xlink:href="class_arbre.html#a761f4a2c6a43f44b38d4ac6fc1cf5cae" target="_top" xlink:title="Arbre::Arbre">
<polygon fill="none" stroke="black" points="246,-76.5 246,-95.5 315,-95.5 315,-76.5 246,-76.5"/>
<text text-anchor="middle" x="280.5" y="-83.5" font-family="Helvetica,sans-Serif" font-size="10.00">Arbre::Arbre</text>
</a>
</g>
</g>
<!-- Node49&#45;&gt;Node50 -->
<g id="edge11" class="edge"><title>Node49&#45;&gt;Node50</title>
<path fill="none" stroke="midnightblue" d="M209.206,-86C217.81,-86 226.942,-86 235.675,-86"/>
<polygon fill="midnightblue" stroke="midnightblue" points="235.688,-89.5001 245.688,-86 235.688,-82.5001 235.688,-89.5001"/>
</g>
</g>
</svg>
