<?xml version="1.0" encoding="UTF-8" standalone="no"?>
<!DOCTYPE svg PUBLIC "-//W3C//DTD SVG 1.1//EN"
 "http://www.w3.org/Graphics/SVG/1.1/DTD/svg11.dtd">
<!-- Generated by graphviz version 2.38.0 (20140413.2041)
 -->
<!-- Title: Goban::rechercheGroupes Pages: 1 -->
<svg width="306pt" height="66pt"
 viewBox="0.00 0.00 306.00 66.00" xmlns="http://www.w3.org/2000/svg" xmlns:xlink="http://www.w3.org/1999/xlink">
<g id="graph0" class="graph" transform="scale(1 1) rotate(0) translate(4 62)">
<title>Goban::rechercheGroupes</title>
<!-- Node282 -->
<g id="node1" class="node"><title>Node282</title>
<polygon fill="#bfbfbf" stroke="black" points="0,-19.5 0,-38.5 131,-38.5 131,-19.5 0,-19.5"/>
<text text-anchor="middle" x="65.5" y="-26.5" font-family="Helvetica,sans-Serif" font-size="10.00">Goban::rechercheGroupes</text>
</g>
<!-- Node283 -->
<g id="node2" class="node"><title>Node283</title>
<g id="a_node2"><a xlink:href="class_goban.html#a8584a53688e7bcf9de7c4cf48454acdc" target="_top" xlink:title="Goban::rechercheGroupes">
<polygon fill="none" stroke="black" points="167,-38.5 167,-57.5 298,-57.5 298,-38.5 167,-38.5"/>
<text text-anchor="middle" x="232.5" y="-45.5" font-family="Helvetica,sans-Serif" font-size="10.00">Goban::rechercheGroupes</text>
</a>
</g>
</g>
<!-- Node282&#45;&gt;Node283 -->
<g id="edge1" class="edge"><title>Node282&#45;&gt;Node283</title>
<path fill="none" stroke="midnightblue" d="M131.239,-36.4548C139.675,-37.4262 148.371,-38.4275 156.951,-39.4156"/>
<polygon fill="midnightblue" stroke="midnightblue" points="156.613,-42.8997 166.948,-40.5667 157.414,-35.9457 156.613,-42.8997"/>
</g>
<!-- Node284 -->
<g id="node3" class="node"><title>Node284</title>
<g id="a_node3"><a xlink:href="class_goban.html#abc771312b6931c4217285ee1b306e51b" target="_top" xlink:title="Goban::fusionGroupes">
<polygon fill="none" stroke="black" points="176,-0.5 176,-19.5 289,-19.5 289,-0.5 176,-0.5"/>
<text text-anchor="middle" x="232.5" y="-7.5" font-family="Helvetica,sans-Serif" font-size="10.00">Goban::fusionGroupes</text>
</a>
</g>
</g>
<!-- Node282&#45;&gt;Node284 -->
<g id="edge2" class="edge"><title>Node282&#45;&gt;Node284</title>
<path fill="none" stroke="midnightblue" d="M131.239,-21.5452C142.506,-20.2478 154.237,-18.8969 165.537,-17.5958"/>
<polygon fill="midnightblue" stroke="midnightblue" points="166.233,-21.0388 175.767,-16.4177 165.432,-14.0848 166.233,-21.0388"/>
</g>
</g>
</svg>
