<?xml version="1.0" encoding="UTF-8" standalone="no"?>
<!DOCTYPE svg PUBLIC "-//W3C//DTD SVG 1.1//EN"
 "http://www.w3.org/Graphics/SVG/1.1/DTD/svg11.dtd">
<!-- Generated by graphviz version 2.38.0 (20140413.2041)
 -->
<!-- Title: Arbre::getValue Pages: 1 -->
<svg width="566pt" height="218pt"
 viewBox="0.00 0.00 566.00 218.00" xmlns="http://www.w3.org/2000/svg" xmlns:xlink="http://www.w3.org/1999/xlink">
<g id="graph0" class="graph" transform="scale(1 1) rotate(0) translate(4 214)">
<title>Arbre::getValue</title>
<!-- Node115 -->
<g id="node1" class="node"><title>Node115</title>
<polygon fill="#bfbfbf" stroke="black" points="0,-95.5 0,-114.5 84,-114.5 84,-95.5 0,-95.5"/>
<text text-anchor="middle" x="42" y="-102.5" font-family="Helvetica,sans-Serif" font-size="10.00">Arbre::getValue</text>
</g>
<!-- Node116 -->
<g id="node2" class="node"><title>Node116</title>
<g id="a_node2"><a xlink:href="class_arbre.html#a3284c47c1ea92a6c5be4a210008dfb4f" target="_top" xlink:title="Arbre::Arbre">
<polygon fill="none" stroke="black" points="148,-190.5 148,-209.5 217,-209.5 217,-190.5 148,-190.5"/>
<text text-anchor="middle" x="182.5" y="-197.5" font-family="Helvetica,sans-Serif" font-size="10.00">Arbre::Arbre</text>
</a>
</g>
</g>
<!-- Node115&#45;&gt;Node116 -->
<g id="edge1" class="edge"><title>Node115&#45;&gt;Node116</title>
<path fill="none" stroke="midnightblue" d="M58.3419,-122.465C72.9166,-138.192 96.1,-161.067 120,-176 129.331,-181.83 140.312,-186.663 150.394,-190.426"/>
<polygon fill="midnightblue" stroke="midnightblue" points="60.8572,-120.028 51.5467,-114.972 55.6719,-124.731 60.8572,-120.028"/>
</g>
<!-- Node117 -->
<g id="node3" class="node"><title>Node117</title>
<g id="a_node3"><a xlink:href="class_i_a.html#a364aef554d81e9a93bff08c28d437497" target="_top" xlink:title="IA::Tsumego">
<polygon fill="none" stroke="black" points="298.5,-95.5 298.5,-114.5 369.5,-114.5 369.5,-95.5 298.5,-95.5"/>
<text text-anchor="middle" x="334" y="-102.5" font-family="Helvetica,sans-Serif" font-size="10.00">IA::Tsumego</text>
</a>
</g>
</g>
<!-- Node115&#45;&gt;Node117 -->
<g id="edge2" class="edge"><title>Node115&#45;&gt;Node117</title>
<path fill="none" stroke="midnightblue" d="M66.1843,-119.949C80.9428,-128.555 100.827,-138.527 120,-143 174.102,-155.623 190.594,-154.245 245,-143 271.238,-137.577 299.28,-123.945 316.478,-114.575"/>
<polygon fill="midnightblue" stroke="midnightblue" points="67.6523,-116.746 57.2851,-114.562 64.0275,-122.735 67.6523,-116.746"/>
</g>
<!-- Node119 -->
<g id="node5" class="node"><title>Node119</title>
<g id="a_node5"><a xlink:href="class_i_a.html#a42202360406fe67babfd01a9b7902fd2" target="_top" xlink:title="IA::Tsumego_naif">
<polygon fill="none" stroke="black" points="136.5,-114.5 136.5,-133.5 228.5,-133.5 228.5,-114.5 136.5,-114.5"/>
<text text-anchor="middle" x="182.5" y="-121.5" font-family="Helvetica,sans-Serif" font-size="10.00">IA::Tsumego_naif</text>
</a>
</g>
</g>
<!-- Node115&#45;&gt;Node119 -->
<g id="edge4" class="edge"><title>Node115&#45;&gt;Node119</title>
<path fill="none" stroke="midnightblue" d="M94.4638,-112.06C108.22,-113.947 122.98,-115.972 136.367,-117.808"/>
<polygon fill="midnightblue" stroke="midnightblue" points="94.5625,-108.541 84.1796,-110.649 93.6111,-115.476 94.5625,-108.541"/>
</g>
<!-- Node120 -->
<g id="node6" class="node"><title>Node120</title>
<g id="a_node6"><a xlink:href="class_i_a.html#af1f6e5abe41a2225b17ca319c1fc0e4e" target="_top" xlink:title="IA::Tsumego_abr">
<polygon fill="none" stroke="black" points="137.5,-76.5 137.5,-95.5 227.5,-95.5 227.5,-76.5 137.5,-76.5"/>
<text text-anchor="middle" x="182.5" y="-83.5" font-family="Helvetica,sans-Serif" font-size="10.00">IA::Tsumego_abr</text>
</a>
</g>
</g>
<!-- Node115&#45;&gt;Node120 -->
<g id="edge5" class="edge"><title>Node115&#45;&gt;Node120</title>
<path fill="none" stroke="midnightblue" d="M94.2557,-97.9685C108.406,-96.0273 123.633,-93.9384 137.343,-92.0576"/>
<polygon fill="midnightblue" stroke="midnightblue" points="93.6111,-94.5241 84.1796,-99.3508 94.5625,-101.459 93.6111,-94.5241"/>
</g>
<!-- Node121 -->
<g id="node7" class="node"><title>Node121</title>
<g id="a_node7"><a xlink:href="class_i_a.html#a6f616b7d3d9d39eef4780b7a03226260" target="_top" xlink:title="IA::Tsumego_abrFils">
<polygon fill="none" stroke="black" points="281,-48.5 281,-67.5 387,-67.5 387,-48.5 281,-48.5"/>
<text text-anchor="middle" x="334" y="-55.5" font-family="Helvetica,sans-Serif" font-size="10.00">IA::Tsumego_abrFils</text>
</a>
</g>
</g>
<!-- Node115&#45;&gt;Node121 -->
<g id="edge8" class="edge"><title>Node115&#45;&gt;Node121</title>
<path fill="none" stroke="midnightblue" d="M66.5298,-90.1765C81.2854,-81.7125 101.044,-71.847 120,-67 173.608,-53.2925 237.245,-52.5256 280.915,-54.2598"/>
<polygon fill="midnightblue" stroke="midnightblue" points="64.4266,-87.3547 57.6145,-95.4693 68.0001,-93.3739 64.4266,-87.3547"/>
</g>
<!-- Node122 -->
<g id="node8" class="node"><title>Node122</title>
<g id="a_node8"><a xlink:href="class_i_a.html#a5d86a3548f2410f7fc0676b89d07f4fd" target="_top" xlink:title="IA::Tsumego_compresse">
<polygon fill="none" stroke="black" points="120,-0.5 120,-19.5 245,-19.5 245,-0.5 120,-0.5"/>
<text text-anchor="middle" x="182.5" y="-7.5" font-family="Helvetica,sans-Serif" font-size="10.00">IA::Tsumego_compresse</text>
</a>
</g>
</g>
<!-- Node115&#45;&gt;Node122 -->
<g id="edge9" class="edge"><title>Node115&#45;&gt;Node122</title>
<path fill="none" stroke="midnightblue" d="M58.3419,-87.5351C72.9166,-71.808 96.1,-48.9333 120,-34 129.331,-28.1697 140.312,-23.3371 150.394,-19.5738"/>
<polygon fill="midnightblue" stroke="midnightblue" points="55.6719,-85.2692 51.5467,-95.028 60.8572,-89.9716 55.6719,-85.2692"/>
</g>
<!-- Node118 -->
<g id="node4" class="node"><title>Node118</title>
<g id="a_node4"><a xlink:href="class_go___solver.html#a6ca744f1f4586c3f90f2e47915034baf" target="_top" xlink:title="Go_Solver::launchTsumego">
<polygon fill="none" stroke="black" points="423,-95.5 423,-114.5 558,-114.5 558,-95.5 423,-95.5"/>
<text text-anchor="middle" x="490.5" y="-102.5" font-family="Helvetica,sans-Serif" font-size="10.00">Go_Solver::launchTsumego</text>
</a>
</g>
</g>
<!-- Node117&#45;&gt;Node118 -->
<g id="edge3" class="edge"><title>Node117&#45;&gt;Node118</title>
<path fill="none" stroke="midnightblue" d="M380.056,-105C393.475,-105 408.473,-105 422.958,-105"/>
<polygon fill="midnightblue" stroke="midnightblue" points="379.673,-101.5 369.673,-105 379.673,-108.5 379.673,-101.5"/>
</g>
<!-- Node120&#45;&gt;Node117 -->
<g id="edge6" class="edge"><title>Node120&#45;&gt;Node117</title>
<path fill="none" stroke="midnightblue" d="M237.582,-92.8733C257.816,-95.4449 280.243,-98.295 298.267,-100.586"/>
<polygon fill="midnightblue" stroke="midnightblue" points="237.908,-89.3866 227.546,-91.5979 237.025,-96.3308 237.908,-89.3866"/>
</g>
<!-- Node120&#45;&gt;Node121 -->
<g id="edge7" class="edge"><title>Node120&#45;&gt;Node121</title>
<path fill="none" stroke="midnightblue" d="M237.432,-75.899C252.021,-73.1667 267.759,-70.2191 282.171,-67.5198"/>
<polygon fill="midnightblue" stroke="midnightblue" points="236.731,-72.4694 227.546,-77.7505 238.02,-79.3497 236.731,-72.4694"/>
</g>
</g>
</svg>
