<?xml version="1.0" encoding="UTF-8" standalone="no"?>
<!DOCTYPE svg PUBLIC "-//W3C//DTD SVG 1.1//EN"
 "http://www.w3.org/Graphics/SVG/1.1/DTD/svg11.dtd">
<!-- Generated by graphviz version 2.38.0 (20140413.2041)
 -->
<!-- Title: Goban::itoc Pages: 1 -->
<svg width="310pt" height="66pt"
 viewBox="0.00 0.00 310.00 66.00" xmlns="http://www.w3.org/2000/svg" xmlns:xlink="http://www.w3.org/1999/xlink">
<g id="graph0" class="graph" transform="scale(1 1) rotate(0) translate(4 62)">
<title>Goban::itoc</title>
<!-- Node194 -->
<g id="node1" class="node"><title>Node194</title>
<polygon fill="#bfbfbf" stroke="black" points="0,-19.5 0,-38.5 67,-38.5 67,-19.5 0,-19.5"/>
<text text-anchor="middle" x="33.5" y="-26.5" font-family="Helvetica,sans-Serif" font-size="10.00">Goban::itoc</text>
</g>
<!-- Node195 -->
<g id="node2" class="node"><title>Node195</title>
<g id="a_node2"><a xlink:href="class_goban.html#a36ab256c9430e070b620052a0f13f051" target="_top" xlink:title="Goban::listFils">
<polygon fill="none" stroke="black" points="103,-19.5 103,-38.5 183,-38.5 183,-19.5 103,-19.5"/>
<text text-anchor="middle" x="143" y="-26.5" font-family="Helvetica,sans-Serif" font-size="10.00">Goban::listFils</text>
</a>
</g>
</g>
<!-- Node194&#45;&gt;Node195 -->
<g id="edge1" class="edge"><title>Node194&#45;&gt;Node195</title>
<path fill="none" stroke="midnightblue" d="M77.1087,-29C85.5642,-29 94.4045,-29 102.742,-29"/>
<polygon fill="midnightblue" stroke="midnightblue" points="77.0453,-25.5001 67.0453,-29 77.0452,-32.5001 77.0453,-25.5001"/>
</g>
<!-- Node196 -->
<g id="node3" class="node"><title>Node196</title>
<g id="a_node3"><a xlink:href="class_arbre.html#ac82e543d8cbf0aced4d741c346f9950d" target="_top" xlink:title="Arbre::Arbre">
<polygon fill="none" stroke="black" points="226,-38.5 226,-57.5 295,-57.5 295,-38.5 226,-38.5"/>
<text text-anchor="middle" x="260.5" y="-45.5" font-family="Helvetica,sans-Serif" font-size="10.00">Arbre::Arbre</text>
</a>
</g>
</g>
<!-- Node195&#45;&gt;Node196 -->
<g id="edge2" class="edge"><title>Node195&#45;&gt;Node196</title>
<path fill="none" stroke="midnightblue" d="M193.076,-37.073C204.119,-38.8897 215.596,-40.7777 225.84,-42.4629"/>
<polygon fill="midnightblue" stroke="midnightblue" points="193.539,-33.6022 183.103,-35.4325 192.402,-40.5094 193.539,-33.6022"/>
</g>
<!-- Node197 -->
<g id="node4" class="node"><title>Node197</title>
<g id="a_node4"><a xlink:href="class_arbre.html#a70585b1d341c1e0c262b2b4a4f769b6d" target="_top" xlink:title="Arbre::resetFils">
<polygon fill="none" stroke="black" points="219,-0.5 219,-19.5 302,-19.5 302,-0.5 219,-0.5"/>
<text text-anchor="middle" x="260.5" y="-7.5" font-family="Helvetica,sans-Serif" font-size="10.00">Arbre::resetFils</text>
</a>
</g>
</g>
<!-- Node195&#45;&gt;Node197 -->
<g id="edge3" class="edge"><title>Node195&#45;&gt;Node197</title>
<path fill="none" stroke="midnightblue" d="M193.037,-20.9333C201.644,-19.5175 210.514,-18.0583 218.86,-16.6853"/>
<polygon fill="midnightblue" stroke="midnightblue" points="192.402,-17.4906 183.103,-22.5675 193.539,-24.3978 192.402,-17.4906"/>
</g>
</g>
</svg>
