<?xml version="1.0" encoding="UTF-8" standalone="no"?>
<!DOCTYPE svg PUBLIC "-//W3C//DTD SVG 1.1//EN"
 "http://www.w3.org/Graphics/SVG/1.1/DTD/svg11.dtd">
<!-- Generated by graphviz version 2.38.0 (20140413.2041)
 -->
<!-- Title: Goban::rechercheGroupes Pages: 1 -->
<svg width="587pt" height="180pt"
 viewBox="0.00 0.00 587.00 180.00" xmlns="http://www.w3.org/2000/svg" xmlns:xlink="http://www.w3.org/1999/xlink">
<g id="graph0" class="graph" transform="scale(1 1) rotate(0) translate(4 176)">
<title>Goban::rechercheGroupes</title>
<!-- Node272 -->
<g id="node1" class="node"><title>Node272</title>
<polygon fill="#bfbfbf" stroke="black" points="0,-76.5 0,-95.5 131,-95.5 131,-76.5 0,-76.5"/>
<text text-anchor="middle" x="65.5" y="-83.5" font-family="Helvetica,sans-Serif" font-size="10.00">Goban::rechercheGroupes</text>
</g>
<!-- Node273 -->
<g id="node2" class="node"><title>Node273</title>
<g id="a_node2"><a xlink:href="class_goban.html#a799390f04139eec16f7bb8c79b381303" target="_top" xlink:title="Goban::legalEvenKO">
<polygon fill="none" stroke="black" points="179,-152.5 179,-171.5 286,-171.5 286,-152.5 179,-152.5"/>
<text text-anchor="middle" x="232.5" y="-159.5" font-family="Helvetica,sans-Serif" font-size="10.00">Goban::legalEvenKO</text>
</a>
</g>
</g>
<!-- Node272&#45;&gt;Node273 -->
<g id="edge1" class="edge"><title>Node272&#45;&gt;Node273</title>
<path fill="none" stroke="midnightblue" d="M89.5918,-101.128C109.474,-113.651 139.262,-131.233 167,-143 175.49,-146.601 184.882,-149.79 193.812,-152.476"/>
<polygon fill="midnightblue" stroke="midnightblue" points="91.2503,-98.0347 80.9383,-95.6027 87.483,-103.934 91.2503,-98.0347"/>
</g>
<!-- Node274 -->
<g id="node3" class="node"><title>Node274</title>
<g id="a_node3"><a xlink:href="class_goban.html#abd6663ff5c440bf6def073db02df83f0" target="_top" xlink:title="Goban::rechercheGroupes">
<polygon fill="none" stroke="black" points="167,-114.5 167,-133.5 298,-133.5 298,-114.5 167,-114.5"/>
<text text-anchor="middle" x="232.5" y="-121.5" font-family="Helvetica,sans-Serif" font-size="10.00">Goban::rechercheGroupes</text>
</a>
</g>
</g>
<!-- Node272&#45;&gt;Node274 -->
<g id="edge2" class="edge"><title>Node272&#45;&gt;Node274</title>
<path fill="none" stroke="midnightblue" d="M118.154,-97.8961C141.346,-103.237 168.338,-109.454 190.163,-114.48"/>
<polygon fill="midnightblue" stroke="midnightblue" points="118.667,-94.4226 108.136,-95.589 117.096,-101.244 118.667,-94.4226"/>
</g>
<!-- Node275 -->
<g id="node4" class="node"><title>Node275</title>
<g id="a_node4"><a xlink:href="class_goban.html#a8b95ea2b51c078381562e361ff7febac" target="_top" xlink:title="Goban::isSuicide">
<polygon fill="none" stroke="black" points="187,-76.5 187,-95.5 278,-95.5 278,-76.5 187,-76.5"/>
<text text-anchor="middle" x="232.5" y="-83.5" font-family="Helvetica,sans-Serif" font-size="10.00">Goban::isSuicide</text>
</a>
</g>
</g>
<!-- Node272&#45;&gt;Node275 -->
<g id="edge3" class="edge"><title>Node272&#45;&gt;Node275</title>
<path fill="none" stroke="midnightblue" d="M141.364,-86C156.886,-86 172.773,-86 186.799,-86"/>
<polygon fill="midnightblue" stroke="midnightblue" points="141.239,-82.5001 131.239,-86 141.239,-89.5001 141.239,-82.5001"/>
</g>
<!-- Node276 -->
<g id="node5" class="node"><title>Node276</title>
<g id="a_node5"><a xlink:href="class_goban.html#a36ab256c9430e070b620052a0f13f051" target="_top" xlink:title="Goban::listFils">
<polygon fill="none" stroke="black" points="192.5,-38.5 192.5,-57.5 272.5,-57.5 272.5,-38.5 192.5,-38.5"/>
<text text-anchor="middle" x="232.5" y="-45.5" font-family="Helvetica,sans-Serif" font-size="10.00">Goban::listFils</text>
</a>
</g>
</g>
<!-- Node272&#45;&gt;Node276 -->
<g id="edge4" class="edge"><title>Node272&#45;&gt;Node276</title>
<path fill="none" stroke="midnightblue" d="M118.146,-74.1058C142.15,-68.5776 170.226,-62.1117 192.43,-56.9979"/>
<polygon fill="midnightblue" stroke="midnightblue" points="117.096,-70.7559 108.136,-76.411 118.667,-77.5774 117.096,-70.7559"/>
</g>
<!-- Node279 -->
<g id="node8" class="node"><title>Node279</title>
<g id="a_node8"><a xlink:href="class_board.html#a5fda73da080403d8a71a8593d581c350" target="_top" xlink:title="Board::click">
<polygon fill="none" stroke="black" points="198.5,-0.5 198.5,-19.5 266.5,-19.5 266.5,-0.5 198.5,-0.5"/>
<text text-anchor="middle" x="232.5" y="-7.5" font-family="Helvetica,sans-Serif" font-size="10.00">Board::click</text>
</a>
</g>
</g>
<!-- Node272&#45;&gt;Node279 -->
<g id="edge7" class="edge"><title>Node272&#45;&gt;Node279</title>
<path fill="none" stroke="midnightblue" d="M89.5918,-70.8717C109.474,-58.3493 139.262,-40.7666 167,-29 176.887,-24.8059 187.998,-21.1724 198.176,-18.2383"/>
<polygon fill="midnightblue" stroke="midnightblue" points="87.483,-68.0655 80.9383,-76.3973 91.2503,-73.9653 87.483,-68.0655"/>
</g>
<!-- Node277 -->
<g id="node6" class="node"><title>Node277</title>
<g id="a_node6"><a xlink:href="class_arbre.html#ac82e543d8cbf0aced4d741c346f9950d" target="_top" xlink:title="Arbre::Arbre">
<polygon fill="none" stroke="black" points="352.5,-76.5 352.5,-95.5 421.5,-95.5 421.5,-76.5 352.5,-76.5"/>
<text text-anchor="middle" x="387" y="-83.5" font-family="Helvetica,sans-Serif" font-size="10.00">Arbre::Arbre</text>
</a>
</g>
</g>
<!-- Node276&#45;&gt;Node277 -->
<g id="edge5" class="edge"><title>Node276&#45;&gt;Node277</title>
<path fill="none" stroke="midnightblue" d="M281.893,-60.0586C304.871,-65.7842 331.761,-72.4848 352.457,-77.6416"/>
<polygon fill="midnightblue" stroke="midnightblue" points="282.532,-56.6108 271.982,-57.589 280.839,-63.4031 282.532,-56.6108"/>
</g>
<!-- Node278 -->
<g id="node7" class="node"><title>Node278</title>
<g id="a_node7"><a xlink:href="class_arbre.html#a70585b1d341c1e0c262b2b4a4f769b6d" target="_top" xlink:title="Arbre::resetFils">
<polygon fill="none" stroke="black" points="345.5,-38.5 345.5,-57.5 428.5,-57.5 428.5,-38.5 345.5,-38.5"/>
<text text-anchor="middle" x="387" y="-45.5" font-family="Helvetica,sans-Serif" font-size="10.00">Arbre::resetFils</text>
</a>
</g>
</g>
<!-- Node276&#45;&gt;Node278 -->
<g id="edge6" class="edge"><title>Node276&#45;&gt;Node278</title>
<path fill="none" stroke="midnightblue" d="M283.007,-48C303.141,-48 326.125,-48 345.264,-48"/>
<polygon fill="midnightblue" stroke="midnightblue" points="282.773,-44.5001 272.773,-48 282.773,-51.5001 282.773,-44.5001"/>
</g>
<!-- Node280 -->
<g id="node9" class="node"><title>Node280</title>
<g id="a_node9"><a xlink:href="class_game__window.html#afa942088809bf10731bb31d0d37b878d" target="_top" xlink:title="Game_window::click">
<polygon fill="none" stroke="black" points="334,-0.5 334,-19.5 440,-19.5 440,-0.5 334,-0.5"/>
<text text-anchor="middle" x="387" y="-7.5" font-family="Helvetica,sans-Serif" font-size="10.00">Game_window::click</text>
</a>
</g>
</g>
<!-- Node279&#45;&gt;Node280 -->
<g id="edge8" class="edge"><title>Node279&#45;&gt;Node280</title>
<path fill="none" stroke="midnightblue" d="M276.669,-10C294.435,-10 315.174,-10 333.785,-10"/>
<polygon fill="midnightblue" stroke="midnightblue" points="276.59,-6.5001 266.59,-10 276.59,-13.5001 276.59,-6.5001"/>
</g>
<!-- Node281 -->
<g id="node10" class="node"><title>Node281</title>
<g id="a_node10"><a xlink:href="class_game__window.html#a555769f4e8511e45d6623658dc736be5" target="_top" xlink:title="Game_window::Run">
<polygon fill="none" stroke="black" points="476,-0.5 476,-19.5 579,-19.5 579,-0.5 476,-0.5"/>
<text text-anchor="middle" x="527.5" y="-7.5" font-family="Helvetica,sans-Serif" font-size="10.00">Game_window::Run</text>
</a>
</g>
</g>
<!-- Node280&#45;&gt;Node281 -->
<g id="edge9" class="edge"><title>Node280&#45;&gt;Node281</title>
<path fill="none" stroke="midnightblue" d="M450.594,-10C459.066,-10 467.672,-10 475.898,-10"/>
<polygon fill="midnightblue" stroke="midnightblue" points="450.361,-6.5001 440.361,-10 450.361,-13.5001 450.361,-6.5001"/>
</g>
</g>
</svg>
