<?xml version="1.0" encoding="UTF-8" standalone="no"?>
<!DOCTYPE svg PUBLIC "-//W3C//DTD SVG 1.1//EN"
 "http://www.w3.org/Graphics/SVG/1.1/DTD/svg11.dtd">
<!-- Generated by graphviz version 2.38.0 (20140413.2041)
 -->
<!-- Title: Game_window::keyPressed Pages: 1 -->
<svg width="546pt" height="256pt"
 viewBox="0.00 0.00 546.00 256.00" xmlns="http://www.w3.org/2000/svg" xmlns:xlink="http://www.w3.org/1999/xlink">
<g id="graph0" class="graph" transform="scale(1 1) rotate(0) translate(4 252)">
<title>Game_window::keyPressed</title>
<!-- Node46 -->
<g id="node1" class="node"><title>Node46</title>
<polygon fill="#bfbfbf" stroke="black" points="0,-76.5 0,-95.5 137,-95.5 137,-76.5 0,-76.5"/>
<text text-anchor="middle" x="68.5" y="-83.5" font-family="Helvetica,sans-Serif" font-size="10.00">Game_window::keyPressed</text>
</g>
<!-- Node47 -->
<g id="node2" class="node"><title>Node47</title>
<g id="a_node2"><a xlink:href="class_board.html#ac7ec911a62371650afd340d1535a1742" target="_top" xlink:title="Board::cancel">
<polygon fill="none" stroke="black" points="195,-95.5 195,-114.5 272,-114.5 272,-95.5 195,-95.5"/>
<text text-anchor="middle" x="233.5" y="-102.5" font-family="Helvetica,sans-Serif" font-size="10.00">Board::cancel</text>
</a>
</g>
</g>
<!-- Node46&#45;&gt;Node47 -->
<g id="edge1" class="edge"><title>Node46&#45;&gt;Node47</title>
<path fill="none" stroke="midnightblue" d="M137.211,-93.8926C153.13,-95.7483 169.772,-97.6882 184.612,-99.418"/>
<polygon fill="midnightblue" stroke="midnightblue" points="184.228,-102.897 194.567,-100.578 185.039,-95.9439 184.228,-102.897"/>
</g>
<!-- Node57 -->
<g id="node12" class="node"><title>Node57</title>
<g id="a_node12"><a xlink:href="class_game__window.html#a8ad36b6ebe4760954dd01e94fc5762f1" target="_top" xlink:title="Game_window::territoire">
<polygon fill="none" stroke="black" points="173,-57.5 173,-76.5 294,-76.5 294,-57.5 173,-57.5"/>
<text text-anchor="middle" x="233.5" y="-64.5" font-family="Helvetica,sans-Serif" font-size="10.00">Game_window::territoire</text>
</a>
</g>
</g>
<!-- Node46&#45;&gt;Node57 -->
<g id="edge12" class="edge"><title>Node46&#45;&gt;Node57</title>
<path fill="none" stroke="midnightblue" d="M137.211,-78.1074C145.606,-77.1288 154.202,-76.1268 162.628,-75.1446"/>
<polygon fill="midnightblue" stroke="midnightblue" points="163.271,-78.5935 172.798,-73.9591 162.46,-71.6406 163.271,-78.5935"/>
</g>
<!-- Node48 -->
<g id="node3" class="node"><title>Node48</title>
<g id="a_node3"><a xlink:href="class_goban.html#ae7ee3b39f3c0d28c9bca286ca538f8ac" target="_top" xlink:title="Goban::cancel">
<polygon fill="none" stroke="black" points="330,-133.5 330,-152.5 410,-152.5 410,-133.5 330,-133.5"/>
<text text-anchor="middle" x="370" y="-140.5" font-family="Helvetica,sans-Serif" font-size="10.00">Goban::cancel</text>
</a>
</g>
</g>
<!-- Node47&#45;&gt;Node48 -->
<g id="edge2" class="edge"><title>Node47&#45;&gt;Node48</title>
<path fill="none" stroke="midnightblue" d="M268.44,-114.589C285.723,-119.472 306.933,-125.464 325.411,-130.685"/>
<polygon fill="midnightblue" stroke="midnightblue" points="324.496,-134.063 335.071,-133.414 326.399,-127.327 324.496,-134.063"/>
</g>
<!-- Node54 -->
<g id="node9" class="node"><title>Node54</title>
<g id="a_node9"><a xlink:href="class_board.html#a841a248dac4743611ba1825afd5d1297" target="_top" xlink:title="Board::load">
<polygon fill="none" stroke="black" points="337,-57.5 337,-76.5 403,-76.5 403,-57.5 337,-57.5"/>
<text text-anchor="middle" x="370" y="-64.5" font-family="Helvetica,sans-Serif" font-size="10.00">Board::load</text>
</a>
</g>
</g>
<!-- Node47&#45;&gt;Node54 -->
<g id="edge8" class="edge"><title>Node47&#45;&gt;Node54</title>
<path fill="none" stroke="midnightblue" d="M268.44,-95.411C286.251,-90.379 308.232,-84.1687 327.096,-78.839"/>
<polygon fill="midnightblue" stroke="midnightblue" points="328.251,-82.1498 336.923,-76.0627 326.348,-75.4135 328.251,-82.1498"/>
</g>
<!-- Node49 -->
<g id="node4" class="node"><title>Node49</title>
<g id="a_node4"><a xlink:href="class_goban.html#a29aaf8df380fe614845d48cba057747c" target="_top" xlink:title="Goban::coord">
<polygon fill="none" stroke="black" points="454.5,-76.5 454.5,-95.5 529.5,-95.5 529.5,-76.5 454.5,-76.5"/>
<text text-anchor="middle" x="492" y="-83.5" font-family="Helvetica,sans-Serif" font-size="10.00">Goban::coord</text>
</a>
</g>
</g>
<!-- Node48&#45;&gt;Node49 -->
<g id="edge3" class="edge"><title>Node48&#45;&gt;Node49</title>
<path fill="none" stroke="midnightblue" d="M389.014,-133.429C404.099,-125.522 426.269,-114.15 446,-105 449.895,-103.194 454.009,-101.359 458.103,-99.5773"/>
<polygon fill="midnightblue" stroke="midnightblue" points="459.69,-102.705 467.509,-95.5557 456.938,-96.2691 459.69,-102.705"/>
</g>
<!-- Node50 -->
<g id="node5" class="node"><title>Node50</title>
<g id="a_node5"><a xlink:href="class_history.html#a0ca66ba5a026689877e027754fc5bd52" target="_top" xlink:title="Access current position. ">
<polygon fill="none" stroke="black" points="450.5,-228.5 450.5,-247.5 533.5,-247.5 533.5,-228.5 450.5,-228.5"/>
<text text-anchor="middle" x="492" y="-235.5" font-family="Helvetica,sans-Serif" font-size="10.00">History::current</text>
</a>
</g>
</g>
<!-- Node48&#45;&gt;Node50 -->
<g id="edge4" class="edge"><title>Node48&#45;&gt;Node50</title>
<path fill="none" stroke="midnightblue" d="M378.355,-152.6C390.801,-168.299 417.461,-199.652 446,-219 448.584,-220.752 451.355,-222.393 454.207,-223.918"/>
<polygon fill="midnightblue" stroke="midnightblue" points="452.929,-227.188 463.456,-228.393 455.978,-220.887 452.929,-227.188"/>
</g>
<!-- Node51 -->
<g id="node6" class="node"><title>Node51</title>
<g id="a_node6"><a xlink:href="class_etat.html#aa25e66b110bc835523819392435e78c6" target="_top" xlink:title="Etat::getX">
<polygon fill="none" stroke="black" points="462.5,-190.5 462.5,-209.5 521.5,-209.5 521.5,-190.5 462.5,-190.5"/>
<text text-anchor="middle" x="492" y="-197.5" font-family="Helvetica,sans-Serif" font-size="10.00">Etat::getX</text>
</a>
</g>
</g>
<!-- Node48&#45;&gt;Node51 -->
<g id="edge5" class="edge"><title>Node48&#45;&gt;Node51</title>
<path fill="none" stroke="midnightblue" d="M389.014,-152.571C404.099,-160.478 426.269,-171.85 446,-181 449.895,-182.806 454.009,-184.641 458.103,-186.423"/>
<polygon fill="midnightblue" stroke="midnightblue" points="456.938,-189.731 467.509,-190.444 459.69,-183.295 456.938,-189.731"/>
</g>
<!-- Node52 -->
<g id="node7" class="node"><title>Node52</title>
<g id="a_node7"><a xlink:href="class_etat.html#a3e3e915f2261c83989a983e84b1273c1" target="_top" xlink:title="Etat::getY">
<polygon fill="none" stroke="black" points="461.5,-152.5 461.5,-171.5 522.5,-171.5 522.5,-152.5 461.5,-152.5"/>
<text text-anchor="middle" x="492" y="-159.5" font-family="Helvetica,sans-Serif" font-size="10.00">Etat::getY</text>
</a>
</g>
</g>
<!-- Node48&#45;&gt;Node52 -->
<g id="edge6" class="edge"><title>Node48&#45;&gt;Node52</title>
<path fill="none" stroke="midnightblue" d="M410.292,-149.221C423.345,-151.288 437.887,-153.59 450.993,-155.666"/>
<polygon fill="midnightblue" stroke="midnightblue" points="450.715,-159.165 461.139,-157.272 451.81,-152.251 450.715,-159.165"/>
</g>
<!-- Node53 -->
<g id="node8" class="node"><title>Node53</title>
<g id="a_node8"><a xlink:href="class_history.html#a6e1bcaa1d3ecc646131e6f73a2544f35" target="_top" xlink:title="History::cancel">
<polygon fill="none" stroke="black" points="451,-114.5 451,-133.5 533,-133.5 533,-114.5 451,-114.5"/>
<text text-anchor="middle" x="492" y="-121.5" font-family="Helvetica,sans-Serif" font-size="10.00">History::cancel</text>
</a>
</g>
</g>
<!-- Node48&#45;&gt;Node53 -->
<g id="edge7" class="edge"><title>Node48&#45;&gt;Node53</title>
<path fill="none" stroke="midnightblue" d="M410.292,-136.779C420.033,-135.236 430.603,-133.563 440.787,-131.95"/>
<polygon fill="midnightblue" stroke="midnightblue" points="441.467,-135.386 450.797,-130.366 440.372,-128.473 441.467,-135.386"/>
</g>
<!-- Node54&#45;&gt;Node49 -->
<g id="edge10" class="edge"><title>Node54&#45;&gt;Node49</title>
<path fill="none" stroke="midnightblue" d="M403.158,-72.0917C415.661,-74.0713 430.236,-76.3791 443.879,-78.5392"/>
<polygon fill="midnightblue" stroke="midnightblue" points="443.656,-82.0475 454.081,-80.1545 444.751,-75.1336 443.656,-82.0475"/>
</g>
<!-- Node55 -->
<g id="node10" class="node"><title>Node55</title>
<g id="a_node10"><a xlink:href="class_square.html#a5fa0cbfce721c687308eec8e1a029d25" target="_top" xlink:title="Square::setValue">
<polygon fill="none" stroke="black" points="446,-38.5 446,-57.5 538,-57.5 538,-38.5 446,-38.5"/>
<text text-anchor="middle" x="492" y="-45.5" font-family="Helvetica,sans-Serif" font-size="10.00">Square::setValue</text>
</a>
</g>
</g>
<!-- Node54&#45;&gt;Node55 -->
<g id="edge9" class="edge"><title>Node54&#45;&gt;Node55</title>
<path fill="none" stroke="midnightblue" d="M403.158,-61.9083C413.151,-60.3262 424.467,-58.5343 435.574,-56.7758"/>
<polygon fill="midnightblue" stroke="midnightblue" points="436.341,-60.198 445.671,-55.1772 435.246,-53.2842 436.341,-60.198"/>
</g>
<!-- Node56 -->
<g id="node11" class="node"><title>Node56</title>
<g id="a_node11"><a xlink:href="class_etat.html#ac0b81bbcf64cb3cc574e5a9dcdf94382" target="_top" xlink:title="Etat::getVal">
<polygon fill="none" stroke="black" points="458,-0.5 458,-19.5 526,-19.5 526,-0.5 458,-0.5"/>
<text text-anchor="middle" x="492" y="-7.5" font-family="Helvetica,sans-Serif" font-size="10.00">Etat::getVal</text>
</a>
</g>
</g>
<!-- Node54&#45;&gt;Node56 -->
<g id="edge11" class="edge"><title>Node54&#45;&gt;Node56</title>
<path fill="none" stroke="midnightblue" d="M389.014,-57.4295C404.099,-49.522 426.269,-38.1504 446,-29 449.895,-27.1938 454.009,-25.3589 458.103,-23.5773"/>
<polygon fill="midnightblue" stroke="midnightblue" points="459.69,-26.7054 467.509,-19.5557 456.938,-20.2691 459.69,-26.7054"/>
</g>
</g>
</svg>
