<?xml version="1.0" encoding="UTF-8" standalone="no"?>
<!DOCTYPE svg PUBLIC "-//W3C//DTD SVG 1.1//EN"
 "http://www.w3.org/Graphics/SVG/1.1/DTD/svg11.dtd">
<!-- Generated by graphviz version 2.38.0 (20140413.2041)
 -->
<!-- Title: Goban::listOfLiberties Pages: 1 -->
<svg width="876pt" height="142pt"
 viewBox="0.00 0.00 876.00 142.00" xmlns="http://www.w3.org/2000/svg" xmlns:xlink="http://www.w3.org/1999/xlink">
<g id="graph0" class="graph" transform="scale(1 1) rotate(0) translate(4 138)">
<title>Goban::listOfLiberties</title>
<!-- Node244 -->
<g id="node1" class="node"><title>Node244</title>
<polygon fill="#bfbfbf" stroke="black" points="0,-19.5 0,-38.5 110,-38.5 110,-19.5 0,-19.5"/>
<text text-anchor="middle" x="55" y="-26.5" font-family="Helvetica,sans-Serif" font-size="10.00">Goban::listOfLiberties</text>
</g>
<!-- Node245 -->
<g id="node2" class="node"><title>Node245</title>
<g id="a_node2"><a xlink:href="class_goban.html#a1ec70508987f66afff5f8df381731fac" target="_top" xlink:title="Goban::eliminateGroups">
<polygon fill="none" stroke="black" points="146,-38.5 146,-57.5 268,-57.5 268,-38.5 146,-38.5"/>
<text text-anchor="middle" x="207" y="-45.5" font-family="Helvetica,sans-Serif" font-size="10.00">Goban::eliminateGroups</text>
</a>
</g>
</g>
<!-- Node244&#45;&gt;Node245 -->
<g id="edge1" class="edge"><title>Node244&#45;&gt;Node245</title>
<path fill="none" stroke="midnightblue" d="M120.347,-37.1506C128.803,-38.2217 137.443,-39.3162 145.827,-40.378"/>
<polygon fill="midnightblue" stroke="midnightblue" points="120.514,-33.6439 110.153,-35.8594 119.634,-40.5884 120.514,-33.6439"/>
</g>
<!-- Node248 -->
<g id="node5" class="node"><title>Node248</title>
<g id="a_node5"><a xlink:href="class_goban.html#a8b95ea2b51c078381562e361ff7febac" target="_top" xlink:title="Goban::isSuicide">
<polygon fill="none" stroke="black" points="488,-0.5 488,-19.5 579,-19.5 579,-0.5 488,-0.5"/>
<text text-anchor="middle" x="533.5" y="-7.5" font-family="Helvetica,sans-Serif" font-size="10.00">Goban::isSuicide</text>
</a>
</g>
</g>
<!-- Node244&#45;&gt;Node248 -->
<g id="edge11" class="edge"><title>Node244&#45;&gt;Node248</title>
<path fill="none" stroke="midnightblue" d="M120.281,-26.4369C218.401,-22.5244 403.06,-15.1613 487.861,-11.78"/>
<polygon fill="midnightblue" stroke="midnightblue" points="120.049,-22.9432 110.197,-26.839 120.328,-29.9377 120.049,-22.9432"/>
</g>
<!-- Node246 -->
<g id="node3" class="node"><title>Node246</title>
<g id="a_node3"><a xlink:href="class_goban.html#a7858b815885e4af36f05f9d26182cb07" target="_top" xlink:title="Goban::eliminateOppGroups">
<polygon fill="none" stroke="black" points="304,-38.5 304,-57.5 444,-57.5 444,-38.5 304,-38.5"/>
<text text-anchor="middle" x="374" y="-45.5" font-family="Helvetica,sans-Serif" font-size="10.00">Goban::eliminateOppGroups</text>
</a>
</g>
</g>
<!-- Node245&#45;&gt;Node246 -->
<g id="edge2" class="edge"><title>Node245&#45;&gt;Node246</title>
<path fill="none" stroke="midnightblue" d="M278.24,-48C286.698,-48 295.331,-48 303.774,-48"/>
<polygon fill="midnightblue" stroke="midnightblue" points="278.036,-44.5001 268.036,-48 278.036,-51.5001 278.036,-44.5001"/>
</g>
<!-- Node247 -->
<g id="node4" class="node"><title>Node247</title>
<g id="a_node4"><a xlink:href="class_goban.html#a799390f04139eec16f7bb8c79b381303" target="_top" xlink:title="Goban::legalEvenKO">
<polygon fill="none" stroke="black" points="480,-114.5 480,-133.5 587,-133.5 587,-114.5 480,-114.5"/>
<text text-anchor="middle" x="533.5" y="-121.5" font-family="Helvetica,sans-Serif" font-size="10.00">Goban::legalEvenKO</text>
</a>
</g>
</g>
<!-- Node246&#45;&gt;Node247 -->
<g id="edge3" class="edge"><title>Node246&#45;&gt;Node247</title>
<path fill="none" stroke="midnightblue" d="M399.856,-62.8724C420.8,-75.0659 451.78,-92.32 480,-105 487.515,-108.377 495.828,-111.606 503.58,-114.413"/>
<polygon fill="midnightblue" stroke="midnightblue" points="401.38,-59.7086 390.985,-57.6606 397.834,-65.744 401.38,-59.7086"/>
</g>
<!-- Node246&#45;&gt;Node248 -->
<g id="edge4" class="edge"><title>Node246&#45;&gt;Node248</title>
<path fill="none" stroke="midnightblue" d="M424.604,-36.032C446.675,-30.7069 472.303,-24.5238 493.042,-19.5201"/>
<polygon fill="midnightblue" stroke="midnightblue" points="423.644,-32.6631 414.744,-38.411 425.286,-39.4679 423.644,-32.6631"/>
</g>
<!-- Node249 -->
<g id="node6" class="node"><title>Node249</title>
<g id="a_node6"><a xlink:href="class_goban.html#a36ab256c9430e070b620052a0f13f051" target="_top" xlink:title="Goban::listFils">
<polygon fill="none" stroke="black" points="493.5,-76.5 493.5,-95.5 573.5,-95.5 573.5,-76.5 493.5,-76.5"/>
<text text-anchor="middle" x="533.5" y="-83.5" font-family="Helvetica,sans-Serif" font-size="10.00">Goban::listFils</text>
</a>
</g>
</g>
<!-- Node246&#45;&gt;Node249 -->
<g id="edge5" class="edge"><title>Node246&#45;&gt;Node249</title>
<path fill="none" stroke="midnightblue" d="M424.643,-59.9773C446.802,-65.3237 472.54,-71.5334 493.314,-76.5457"/>
<polygon fill="midnightblue" stroke="midnightblue" points="425.286,-56.5321 414.744,-57.589 423.644,-63.3369 425.286,-56.5321"/>
</g>
<!-- Node252 -->
<g id="node9" class="node"><title>Node252</title>
<g id="a_node9"><a xlink:href="class_board.html#a5fda73da080403d8a71a8593d581c350" target="_top" xlink:title="Board::click">
<polygon fill="none" stroke="black" points="499.5,-38.5 499.5,-57.5 567.5,-57.5 567.5,-38.5 499.5,-38.5"/>
<text text-anchor="middle" x="533.5" y="-45.5" font-family="Helvetica,sans-Serif" font-size="10.00">Board::click</text>
</a>
</g>
</g>
<!-- Node246&#45;&gt;Node252 -->
<g id="edge8" class="edge"><title>Node246&#45;&gt;Node252</title>
<path fill="none" stroke="midnightblue" d="M454.467,-48C470.303,-48 486.1,-48 499.297,-48"/>
<polygon fill="midnightblue" stroke="midnightblue" points="454.082,-44.5001 444.082,-48 454.082,-51.5001 454.082,-44.5001"/>
</g>
<!-- Node250 -->
<g id="node7" class="node"><title>Node250</title>
<g id="a_node7"><a xlink:href="class_arbre.html#ac82e543d8cbf0aced4d741c346f9950d" target="_top" xlink:title="Arbre::Arbre">
<polygon fill="none" stroke="black" points="641.5,-114.5 641.5,-133.5 710.5,-133.5 710.5,-114.5 641.5,-114.5"/>
<text text-anchor="middle" x="676" y="-121.5" font-family="Helvetica,sans-Serif" font-size="10.00">Arbre::Arbre</text>
</a>
</g>
</g>
<!-- Node249&#45;&gt;Node250 -->
<g id="edge6" class="edge"><title>Node249&#45;&gt;Node250</title>
<path fill="none" stroke="midnightblue" d="M579.813,-98.2556C599.866,-103.679 623.034,-109.945 641.492,-114.937"/>
<polygon fill="midnightblue" stroke="midnightblue" points="580.521,-94.8213 569.954,-95.589 578.693,-101.579 580.521,-94.8213"/>
</g>
<!-- Node251 -->
<g id="node8" class="node"><title>Node251</title>
<g id="a_node8"><a xlink:href="class_arbre.html#a70585b1d341c1e0c262b2b4a4f769b6d" target="_top" xlink:title="Arbre::resetFils">
<polygon fill="none" stroke="black" points="634.5,-76.5 634.5,-95.5 717.5,-95.5 717.5,-76.5 634.5,-76.5"/>
<text text-anchor="middle" x="676" y="-83.5" font-family="Helvetica,sans-Serif" font-size="10.00">Arbre::resetFils</text>
</a>
</g>
</g>
<!-- Node249&#45;&gt;Node251 -->
<g id="edge7" class="edge"><title>Node249&#45;&gt;Node251</title>
<path fill="none" stroke="midnightblue" d="M583.645,-86C600.132,-86 618.329,-86 634.114,-86"/>
<polygon fill="midnightblue" stroke="midnightblue" points="583.637,-82.5001 573.637,-86 583.637,-89.5001 583.637,-82.5001"/>
</g>
<!-- Node253 -->
<g id="node10" class="node"><title>Node253</title>
<g id="a_node10"><a xlink:href="class_game__window.html#afa942088809bf10731bb31d0d37b878d" target="_top" xlink:title="Game_window::click">
<polygon fill="none" stroke="black" points="623,-38.5 623,-57.5 729,-57.5 729,-38.5 623,-38.5"/>
<text text-anchor="middle" x="676" y="-45.5" font-family="Helvetica,sans-Serif" font-size="10.00">Game_window::click</text>
</a>
</g>
</g>
<!-- Node252&#45;&gt;Node253 -->
<g id="edge9" class="edge"><title>Node252&#45;&gt;Node253</title>
<path fill="none" stroke="midnightblue" d="M577.841,-48C592.116,-48 608.137,-48 622.99,-48"/>
<polygon fill="midnightblue" stroke="midnightblue" points="577.797,-44.5001 567.797,-48 577.797,-51.5001 577.797,-44.5001"/>
</g>
<!-- Node254 -->
<g id="node11" class="node"><title>Node254</title>
<g id="a_node11"><a xlink:href="class_game__window.html#a555769f4e8511e45d6623658dc736be5" target="_top" xlink:title="Game_window::Run">
<polygon fill="none" stroke="black" points="765,-38.5 765,-57.5 868,-57.5 868,-38.5 765,-38.5"/>
<text text-anchor="middle" x="816.5" y="-45.5" font-family="Helvetica,sans-Serif" font-size="10.00">Game_window::Run</text>
</a>
</g>
</g>
<!-- Node253&#45;&gt;Node254 -->
<g id="edge10" class="edge"><title>Node253&#45;&gt;Node254</title>
<path fill="none" stroke="midnightblue" d="M739.594,-48C748.066,-48 756.672,-48 764.898,-48"/>
<polygon fill="midnightblue" stroke="midnightblue" points="739.361,-44.5001 729.361,-48 739.361,-51.5001 739.361,-44.5001"/>
</g>
</g>
</svg>
