<?xml version="1.0" encoding="UTF-8" standalone="no"?>
<!DOCTYPE svg PUBLIC "-//W3C//DTD SVG 1.1//EN"
 "http://www.w3.org/Graphics/SVG/1.1/DTD/svg11.dtd">
<!-- Generated by graphviz version 2.38.0 (20140413.2041)
 -->
<!-- Title: Goban::listOfLiberties Pages: 1 -->
<svg width="362pt" height="161pt"
 viewBox="0.00 0.00 362.00 161.00" xmlns="http://www.w3.org/2000/svg" xmlns:xlink="http://www.w3.org/1999/xlink">
<g id="graph0" class="graph" transform="scale(1 1) rotate(0) translate(4 157)">
<title>Goban::listOfLiberties</title>
<!-- Node236 -->
<g id="node1" class="node"><title>Node236</title>
<polygon fill="#bfbfbf" stroke="black" points="0,-95.5 0,-114.5 110,-114.5 110,-95.5 0,-95.5"/>
<text text-anchor="middle" x="55" y="-102.5" font-family="Helvetica,sans-Serif" font-size="10.00">Goban::listOfLiberties</text>
</g>
<!-- Node237 -->
<g id="node2" class="node"><title>Node237</title>
<g id="a_node2"><a xlink:href="class_etat.html#aa25e66b110bc835523819392435e78c6" target="_top" xlink:title="Etat::getX">
<polygon fill="none" stroke="black" points="168.5,-133.5 168.5,-152.5 227.5,-152.5 227.5,-133.5 168.5,-133.5"/>
<text text-anchor="middle" x="198" y="-140.5" font-family="Helvetica,sans-Serif" font-size="10.00">Etat::getX</text>
</a>
</g>
</g>
<!-- Node236&#45;&gt;Node237 -->
<g id="edge1" class="edge"><title>Node236&#45;&gt;Node237</title>
<path fill="none" stroke="midnightblue" d="M91.5803,-114.589C111.912,-120.069 137.428,-126.945 158.264,-132.56"/>
<polygon fill="midnightblue" stroke="midnightblue" points="157.507,-135.981 168.073,-135.204 159.328,-129.222 157.507,-135.981"/>
</g>
<!-- Node238 -->
<g id="node3" class="node"><title>Node238</title>
<g id="a_node3"><a xlink:href="class_etat.html#a3e3e915f2261c83989a983e84b1273c1" target="_top" xlink:title="Etat::getY">
<polygon fill="none" stroke="black" points="167.5,-95.5 167.5,-114.5 228.5,-114.5 228.5,-95.5 167.5,-95.5"/>
<text text-anchor="middle" x="198" y="-102.5" font-family="Helvetica,sans-Serif" font-size="10.00">Etat::getY</text>
</a>
</g>
</g>
<!-- Node236&#45;&gt;Node238 -->
<g id="edge2" class="edge"><title>Node236&#45;&gt;Node238</title>
<path fill="none" stroke="midnightblue" d="M110.111,-105C125.734,-105 142.494,-105 157.086,-105"/>
<polygon fill="midnightblue" stroke="midnightblue" points="157.281,-108.5 167.281,-105 157.281,-101.5 157.281,-108.5"/>
</g>
<!-- Node239 -->
<g id="node4" class="node"><title>Node239</title>
<g id="a_node4"><a xlink:href="class_goban.html#a0e2596110cdbb9b007b2b2fd8d5a9973" target="_top" xlink:title="Goban::DefineStone">
<polygon fill="none" stroke="black" points="146,-57.5 146,-76.5 250,-76.5 250,-57.5 146,-57.5"/>
<text text-anchor="middle" x="198" y="-64.5" font-family="Helvetica,sans-Serif" font-size="10.00">Goban::DefineStone</text>
</a>
</g>
</g>
<!-- Node236&#45;&gt;Node239 -->
<g id="edge3" class="edge"><title>Node236&#45;&gt;Node239</title>
<path fill="none" stroke="midnightblue" d="M91.5803,-95.411C109.782,-90.5056 132.138,-84.4804 151.572,-79.2429"/>
<polygon fill="midnightblue" stroke="midnightblue" points="152.686,-82.5676 161.431,-76.5859 150.865,-75.8088 152.686,-82.5676"/>
</g>
<!-- Node240 -->
<g id="node5" class="node"><title>Node240</title>
<g id="a_node5"><a xlink:href="class_etat.html#ac020c4fe222274ac849a03fc8f19a99a" target="_top" xlink:title="Etat::setX">
<polygon fill="none" stroke="black" points="290.5,-114.5 290.5,-133.5 349.5,-133.5 349.5,-114.5 290.5,-114.5"/>
<text text-anchor="middle" x="320" y="-121.5" font-family="Helvetica,sans-Serif" font-size="10.00">Etat::setX</text>
</a>
</g>
</g>
<!-- Node239&#45;&gt;Node240 -->
<g id="edge4" class="edge"><title>Node239&#45;&gt;Node240</title>
<path fill="none" stroke="midnightblue" d="M226.829,-76.5265C234.435,-79.3568 242.614,-82.6125 250,-86 258.469,-89.8841 277.47,-100.399 293.393,-109.385"/>
<polygon fill="midnightblue" stroke="midnightblue" points="291.883,-112.553 302.309,-114.438 295.334,-106.463 291.883,-112.553"/>
</g>
<!-- Node241 -->
<g id="node6" class="node"><title>Node241</title>
<g id="a_node6"><a xlink:href="class_etat.html#a8a54fc9ecb1b97d84d2f1f259e3bf70e" target="_top" xlink:title="Etat::setY">
<polygon fill="none" stroke="black" points="289.5,-76.5 289.5,-95.5 350.5,-95.5 350.5,-76.5 289.5,-76.5"/>
<text text-anchor="middle" x="320" y="-83.5" font-family="Helvetica,sans-Serif" font-size="10.00">Etat::setY</text>
</a>
</g>
</g>
<!-- Node239&#45;&gt;Node241 -->
<g id="edge5" class="edge"><title>Node239&#45;&gt;Node241</title>
<path fill="none" stroke="midnightblue" d="M250.239,-75.1128C259.958,-76.6518 269.992,-78.2403 279.288,-79.7123"/>
<polygon fill="midnightblue" stroke="midnightblue" points="278.991,-83.2088 289.415,-81.3158 280.086,-76.2949 278.991,-83.2088"/>
</g>
<!-- Node242 -->
<g id="node7" class="node"><title>Node242</title>
<g id="a_node7"><a xlink:href="class_etat.html#aa88987ca54aee676717f05e4570c0aec" target="_top" xlink:title="Etat::setVal">
<polygon fill="none" stroke="black" points="286,-38.5 286,-57.5 354,-57.5 354,-38.5 286,-38.5"/>
<text text-anchor="middle" x="320" y="-45.5" font-family="Helvetica,sans-Serif" font-size="10.00">Etat::setVal</text>
</a>
</g>
</g>
<!-- Node239&#45;&gt;Node242 -->
<g id="edge6" class="edge"><title>Node239&#45;&gt;Node242</title>
<path fill="none" stroke="midnightblue" d="M250.239,-58.8872C258.844,-57.5248 267.694,-56.1234 276.062,-54.7985"/>
<polygon fill="midnightblue" stroke="midnightblue" points="276.65,-58.249 285.98,-53.2282 275.556,-51.3352 276.65,-58.249"/>
</g>
<!-- Node243 -->
<g id="node8" class="node"><title>Node243</title>
<g id="a_node8"><a xlink:href="class_goban.html#a579840586df08a58983f6b497979344b" target="_top" xlink:title="Goban::ctoi">
<polygon fill="none" stroke="black" points="286.5,-0.5 286.5,-19.5 353.5,-19.5 353.5,-0.5 286.5,-0.5"/>
<text text-anchor="middle" x="320" y="-7.5" font-family="Helvetica,sans-Serif" font-size="10.00">Goban::ctoi</text>
</a>
</g>
</g>
<!-- Node239&#45;&gt;Node243 -->
<g id="edge7" class="edge"><title>Node239&#45;&gt;Node243</title>
<path fill="none" stroke="midnightblue" d="M219.085,-57.4595C238.381,-48.2939 267.757,-34.3405 289.669,-23.9324"/>
<polygon fill="midnightblue" stroke="midnightblue" points="291.318,-27.0237 298.849,-19.5716 288.315,-20.7008 291.318,-27.0237"/>
</g>
</g>
</svg>
