<?xml version="1.0" encoding="UTF-8" standalone="no"?>
<!DOCTYPE svg PUBLIC "-//W3C//DTD SVG 1.1//EN"
 "http://www.w3.org/Graphics/SVG/1.1/DTD/svg11.dtd">
<!-- Generated by graphviz version 2.38.0 (20140413.2041)
 -->
<!-- Title: Square::setValue Pages: 1 -->
<svg width="696pt" height="142pt"
 viewBox="0.00 0.00 696.00 142.00" xmlns="http://www.w3.org/2000/svg" xmlns:xlink="http://www.w3.org/1999/xlink">
<g id="graph0" class="graph" transform="scale(1 1) rotate(0) translate(4 138)">
<title>Square::setValue</title>
<!-- Node17 -->
<g id="node1" class="node"><title>Node17</title>
<polygon fill="#bfbfbf" stroke="black" points="0,-38.5 0,-57.5 92,-57.5 92,-38.5 0,-38.5"/>
<text text-anchor="middle" x="46" y="-45.5" font-family="Helvetica,sans-Serif" font-size="10.00">Square::setValue</text>
</g>
<!-- Node18 -->
<g id="node2" class="node"><title>Node18</title>
<g id="a_node2"><a xlink:href="class_board.html#a841a248dac4743611ba1825afd5d1297" target="_top" xlink:title="Board::load">
<polygon fill="none" stroke="black" points="137,-57.5 137,-76.5 203,-76.5 203,-57.5 137,-57.5"/>
<text text-anchor="middle" x="170" y="-64.5" font-family="Helvetica,sans-Serif" font-size="10.00">Board::load</text>
</a>
</g>
</g>
<!-- Node17&#45;&gt;Node18 -->
<g id="edge1" class="edge"><title>Node17&#45;&gt;Node18</title>
<path fill="none" stroke="midnightblue" d="M102.302,-56.6125C114.065,-58.4446 126.114,-60.3211 136.678,-61.9662"/>
<polygon fill="midnightblue" stroke="midnightblue" points="102.501,-53.1015 92.0817,-55.0209 101.424,-60.0181 102.501,-53.1015"/>
</g>
<!-- Node27 -->
<g id="node11" class="node"><title>Node27</title>
<g id="a_node11"><a xlink:href="class_square.html#a53fbf885454472fc818f541ecae5a80f" target="_top" xlink:title="Square::Square">
<polygon fill="none" stroke="black" points="128,-19.5 128,-38.5 212,-38.5 212,-19.5 128,-19.5"/>
<text text-anchor="middle" x="170" y="-26.5" font-family="Helvetica,sans-Serif" font-size="10.00">Square::Square</text>
</a>
</g>
</g>
<!-- Node17&#45;&gt;Node27 -->
<g id="edge11" class="edge"><title>Node17&#45;&gt;Node27</title>
<path fill="none" stroke="midnightblue" d="M102.089,-39.4206C110.712,-38.0777 119.493,-36.71 127.736,-35.4263"/>
<polygon fill="midnightblue" stroke="midnightblue" points="101.424,-35.9819 92.0817,-40.9791 102.501,-42.8985 101.424,-35.9819"/>
</g>
<!-- Node19 -->
<g id="node3" class="node"><title>Node19</title>
<g id="a_node3"><a xlink:href="class_board.html#a5fda73da080403d8a71a8593d581c350" target="_top" xlink:title="Board::click">
<polygon fill="none" stroke="black" points="278,-114.5 278,-133.5 346,-133.5 346,-114.5 278,-114.5"/>
<text text-anchor="middle" x="312" y="-121.5" font-family="Helvetica,sans-Serif" font-size="10.00">Board::click</text>
</a>
</g>
</g>
<!-- Node18&#45;&gt;Node19 -->
<g id="edge2" class="edge"><title>Node18&#45;&gt;Node19</title>
<path fill="none" stroke="midnightblue" d="M197.346,-81.3544C211.995,-88.989 230.709,-98.1802 248,-105 257.565,-108.772 268.191,-112.241 277.95,-115.152"/>
<polygon fill="midnightblue" stroke="midnightblue" points="198.838,-78.1844 188.362,-76.6026 195.565,-84.3722 198.838,-78.1844"/>
</g>
<!-- Node22 -->
<g id="node6" class="node"><title>Node22</title>
<g id="a_node6"><a xlink:href="class_board.html#ac7ec911a62371650afd340d1535a1742" target="_top" xlink:title="Board::cancel">
<polygon fill="none" stroke="black" points="273.5,-76.5 273.5,-95.5 350.5,-95.5 350.5,-76.5 273.5,-76.5"/>
<text text-anchor="middle" x="312" y="-83.5" font-family="Helvetica,sans-Serif" font-size="10.00">Board::cancel</text>
</a>
</g>
</g>
<!-- Node18&#45;&gt;Node22 -->
<g id="edge5" class="edge"><title>Node18&#45;&gt;Node22</title>
<path fill="none" stroke="midnightblue" d="M213.082,-72.7111C232.238,-75.3109 254.73,-78.3634 273.324,-80.8868"/>
<polygon fill="midnightblue" stroke="midnightblue" points="213.499,-69.2357 203.119,-71.359 212.557,-76.1721 213.499,-69.2357"/>
</g>
<!-- Node24 -->
<g id="node8" class="node"><title>Node24</title>
<g id="a_node8"><a xlink:href="class_board.html#a3cea4df16e41c21666cf51789b7e9e78" target="_top" xlink:title="Board::load">
<polygon fill="none" stroke="black" points="279,-38.5 279,-57.5 345,-57.5 345,-38.5 279,-38.5"/>
<text text-anchor="middle" x="312" y="-45.5" font-family="Helvetica,sans-Serif" font-size="10.00">Board::load</text>
</a>
</g>
</g>
<!-- Node18&#45;&gt;Node24 -->
<g id="edge8" class="edge"><title>Node18&#45;&gt;Node24</title>
<path fill="none" stroke="midnightblue" d="M213.06,-61.2918C234.053,-58.4428 259.057,-55.0494 278.546,-52.4045"/>
<polygon fill="midnightblue" stroke="midnightblue" points="212.557,-57.8279 203.119,-62.641 213.499,-64.7643 212.557,-57.8279"/>
</g>
<!-- Node25 -->
<g id="node9" class="node"><title>Node25</title>
<g id="a_node9"><a xlink:href="class_game__window.html#ac674f6d0db2bf60e92a0072d94e4c019" target="_top" xlink:title="Game_window::setGoban">
<polygon fill="none" stroke="black" points="248,-0.5 248,-19.5 376,-19.5 376,-0.5 248,-0.5"/>
<text text-anchor="middle" x="312" y="-7.5" font-family="Helvetica,sans-Serif" font-size="10.00">Game_window::setGoban</text>
</a>
</g>
</g>
<!-- Node18&#45;&gt;Node25 -->
<g id="edge9" class="edge"><title>Node18&#45;&gt;Node25</title>
<path fill="none" stroke="midnightblue" d="M201.574,-53.0432C205.103,-51.3701 208.639,-49.6645 212,-48 228.213,-39.9717 231.262,-35.866 248,-29 256.561,-25.4882 266.012,-22.2966 274.932,-19.5741"/>
<polygon fill="midnightblue" stroke="midnightblue" points="199.953,-49.9376 192.379,-57.3461 202.92,-56.2778 199.953,-49.9376"/>
</g>
<!-- Node20 -->
<g id="node4" class="node"><title>Node20</title>
<g id="a_node4"><a xlink:href="class_game__window.html#afa942088809bf10731bb31d0d37b878d" target="_top" xlink:title="Game_window::click">
<polygon fill="none" stroke="black" points="427.5,-114.5 427.5,-133.5 533.5,-133.5 533.5,-114.5 427.5,-114.5"/>
<text text-anchor="middle" x="480.5" y="-121.5" font-family="Helvetica,sans-Serif" font-size="10.00">Game_window::click</text>
</a>
</g>
</g>
<!-- Node19&#45;&gt;Node20 -->
<g id="edge3" class="edge"><title>Node19&#45;&gt;Node20</title>
<path fill="none" stroke="midnightblue" d="M356.512,-124C378.167,-124 404.509,-124 427.25,-124"/>
<polygon fill="midnightblue" stroke="midnightblue" points="356.294,-120.5 346.294,-124 356.294,-127.5 356.294,-120.5"/>
</g>
<!-- Node21 -->
<g id="node5" class="node"><title>Node21</title>
<g id="a_node5"><a xlink:href="class_game__window.html#a555769f4e8511e45d6623658dc736be5" target="_top" xlink:title="Game_window::Run">
<polygon fill="none" stroke="black" points="585,-95.5 585,-114.5 688,-114.5 688,-95.5 585,-95.5"/>
<text text-anchor="middle" x="636.5" y="-102.5" font-family="Helvetica,sans-Serif" font-size="10.00">Game_window::Run</text>
</a>
</g>
</g>
<!-- Node20&#45;&gt;Node21 -->
<g id="edge4" class="edge"><title>Node20&#45;&gt;Node21</title>
<path fill="none" stroke="midnightblue" d="M543.924,-116.298C557.576,-114.614 571.862,-112.851 584.981,-111.233"/>
<polygon fill="midnightblue" stroke="midnightblue" points="543.134,-112.869 533.637,-117.567 543.991,-119.817 543.134,-112.869"/>
</g>
<!-- Node23 -->
<g id="node7" class="node"><title>Node23</title>
<g id="a_node7"><a xlink:href="class_game__window.html#a72304de2044c29f1373037bd818f674f" target="_top" xlink:title="Game_window::keyPressed">
<polygon fill="none" stroke="black" points="412,-76.5 412,-95.5 549,-95.5 549,-76.5 412,-76.5"/>
<text text-anchor="middle" x="480.5" y="-83.5" font-family="Helvetica,sans-Serif" font-size="10.00">Game_window::keyPressed</text>
</a>
</g>
</g>
<!-- Node22&#45;&gt;Node23 -->
<g id="edge6" class="edge"><title>Node22&#45;&gt;Node23</title>
<path fill="none" stroke="midnightblue" d="M360.871,-86C376.735,-86 394.704,-86 411.771,-86"/>
<polygon fill="midnightblue" stroke="midnightblue" points="360.781,-82.5001 350.781,-86 360.781,-89.5001 360.781,-82.5001"/>
</g>
<!-- Node23&#45;&gt;Node21 -->
<g id="edge7" class="edge"><title>Node23&#45;&gt;Node21</title>
<path fill="none" stroke="midnightblue" d="M559.186,-95.5846C567.84,-96.6524 576.484,-97.7188 584.678,-98.7297"/>
<polygon fill="midnightblue" stroke="midnightblue" points="559.4,-92.0846 549.047,-94.3337 558.543,-99.0319 559.4,-92.0846"/>
</g>
<!-- Node26 -->
<g id="node10" class="node"><title>Node26</title>
<g id="a_node10"><a xlink:href="class_go___solver.html#a8452c66187c526e0a6051bbb42b9bbda" target="_top" xlink:title="Go_Solver::setGoban">
<polygon fill="none" stroke="black" points="426,-0.5 426,-19.5 535,-19.5 535,-0.5 426,-0.5"/>
<text text-anchor="middle" x="480.5" y="-7.5" font-family="Helvetica,sans-Serif" font-size="10.00">Go_Solver::setGoban</text>
</a>
</g>
</g>
<!-- Node25&#45;&gt;Node26 -->
<g id="edge10" class="edge"><title>Node25&#45;&gt;Node26</title>
<path fill="none" stroke="midnightblue" d="M386.444,-10C399.665,-10 413.221,-10 425.752,-10"/>
<polygon fill="midnightblue" stroke="midnightblue" points="386.422,-6.5001 376.421,-10 386.421,-13.5001 386.422,-6.5001"/>
</g>
</g>
</svg>
