<?xml version="1.0" encoding="UTF-8" standalone="no"?>
<!DOCTYPE svg PUBLIC "-//W3C//DTD SVG 1.1//EN"
 "http://www.w3.org/Graphics/SVG/1.1/DTD/svg11.dtd">
<!-- Generated by graphviz version 2.38.0 (20140413.2041)
 -->
<!-- Title: Goban::coord Pages: 1 -->
<svg width="903pt" height="693pt"
 viewBox="0.00 0.00 903.00 693.48" xmlns="http://www.w3.org/2000/svg" xmlns:xlink="http://www.w3.org/1999/xlink">
<g id="graph0" class="graph" transform="scale(1 1) rotate(0) translate(4 689.48)">
<title>Goban::coord</title>
<!-- Node39 -->
<g id="node1" class="node"><title>Node39</title>
<polygon fill="#bfbfbf" stroke="black" points="0,-323.5 0,-342.5 75,-342.5 75,-323.5 0,-323.5"/>
<text text-anchor="middle" x="37.5" y="-330.5" font-family="Helvetica,sans-Serif" font-size="10.00">Goban::coord</text>
</g>
<!-- Node40 -->
<g id="node2" class="node"><title>Node40</title>
<g id="a_node2"><a xlink:href="class_goban.html#a799390f04139eec16f7bb8c79b381303" target="_top" xlink:title="Goban::legalEvenKO">
<polygon fill="none" stroke="black" points="462,-643.5 462,-662.5 569,-662.5 569,-643.5 462,-643.5"/>
<text text-anchor="middle" x="515.5" y="-650.5" font-family="Helvetica,sans-Serif" font-size="10.00">Goban::legalEvenKO</text>
</a>
</g>
</g>
<!-- Node39&#45;&gt;Node40 -->
<g id="edge1" class="edge"><title>Node39&#45;&gt;Node40</title>
<path fill="none" stroke="midnightblue" d="M40.3904,-352.559C46.5894,-412.258 68.3888,-590.238 111,-626 218.827,-716.494 405.263,-681.8 481.032,-662.503"/>
<polygon fill="midnightblue" stroke="midnightblue" points="43.868,-352.159 39.3849,-342.56 36.9031,-352.86 43.868,-352.159"/>
</g>
<!-- Node41 -->
<g id="node3" class="node"><title>Node41</title>
<g id="a_node3"><a xlink:href="class_goban.html#a8c49da36e406f11d33671a4c8a4c19b2" target="_top" xlink:title="Goban::Goban">
<polygon fill="none" stroke="black" points="133.5,-418.5 133.5,-437.5 213.5,-437.5 213.5,-418.5 133.5,-418.5"/>
<text text-anchor="middle" x="173.5" y="-425.5" font-family="Helvetica,sans-Serif" font-size="10.00">Goban::Goban</text>
</a>
</g>
</g>
<!-- Node39&#45;&gt;Node41 -->
<g id="edge2" class="edge"><title>Node39&#45;&gt;Node41</title>
<path fill="none" stroke="midnightblue" d="M52.6736,-350.439C66.2526,-366.207 88.0252,-389.16 111,-404 120.146,-409.908 130.973,-414.736 140.974,-418.472"/>
<polygon fill="midnightblue" stroke="midnightblue" points="55.1293,-347.921 46.0171,-342.516 49.7696,-352.424 55.1293,-347.921"/>
</g>
<!-- Node42 -->
<g id="node4" class="node"><title>Node42</title>
<g id="a_node4"><a xlink:href="class_goban.html#a1ec70508987f66afff5f8df381731fac" target="_top" xlink:title="Goban::eliminateGroups">
<polygon fill="none" stroke="black" points="112.5,-570.5 112.5,-589.5 234.5,-589.5 234.5,-570.5 112.5,-570.5"/>
<text text-anchor="middle" x="173.5" y="-577.5" font-family="Helvetica,sans-Serif" font-size="10.00">Goban::eliminateGroups</text>
</a>
</g>
</g>
<!-- Node39&#45;&gt;Node42 -->
<g id="edge3" class="edge"><title>Node39&#45;&gt;Node42</title>
<path fill="none" stroke="midnightblue" d="M39.4449,-352.944C42.5224,-395.751 55.5934,-497.299 111,-556 116.979,-562.335 124.828,-567.023 132.91,-570.485"/>
<polygon fill="midnightblue" stroke="midnightblue" points="42.9376,-352.717 38.8362,-342.948 35.9506,-353.142 42.9376,-352.717"/>
</g>
<!-- Node44 -->
<g id="node6" class="node"><title>Node44</title>
<g id="a_node6"><a xlink:href="class_goban.html#a8b95ea2b51c078381562e361ff7febac" target="_top" xlink:title="Goban::isSuicide">
<polygon fill="none" stroke="black" points="470,-600.5 470,-619.5 561,-619.5 561,-600.5 470,-600.5"/>
<text text-anchor="middle" x="515.5" y="-607.5" font-family="Helvetica,sans-Serif" font-size="10.00">Goban::isSuicide</text>
</a>
</g>
</g>
<!-- Node39&#45;&gt;Node44 -->
<g id="edge13" class="edge"><title>Node39&#45;&gt;Node44</title>
<path fill="none" stroke="midnightblue" d="M40.8503,-352.647C48.005,-408.8 71.4755,-567.944 111,-599 165.483,-641.809 376.561,-625.045 469.797,-615.2"/>
<polygon fill="midnightblue" stroke="midnightblue" points="44.3066,-352.077 39.604,-342.583 37.3596,-352.938 44.3066,-352.077"/>
</g>
<!-- Node51 -->
<g id="node13" class="node"><title>Node51</title>
<g id="a_node13"><a xlink:href="class_goban.html#a7dd1a7b53322bde2a831a923059e43a3" target="_top" xlink:title="Goban::move">
<polygon fill="none" stroke="black" points="305,-532.5 305,-551.5 379,-551.5 379,-532.5 305,-532.5"/>
<text text-anchor="middle" x="342" y="-539.5" font-family="Helvetica,sans-Serif" font-size="10.00">Goban::move</text>
</a>
</g>
</g>
<!-- Node39&#45;&gt;Node51 -->
<g id="edge14" class="edge"><title>Node39&#45;&gt;Node51</title>
<path fill="none" stroke="midnightblue" d="M39.4787,-352.761C42.6108,-392.429 55.7647,-481.501 111,-523 167.538,-565.478 255.445,-558.415 304.591,-549.931"/>
<polygon fill="midnightblue" stroke="midnightblue" points="42.9563,-352.302 38.8133,-342.551 35.9711,-352.757 42.9563,-352.302"/>
</g>
<!-- Node52 -->
<g id="node14" class="node"><title>Node52</title>
<g id="a_node14"><a xlink:href="class_goban.html#ae7ee3b39f3c0d28c9bca286ca538f8ac" target="_top" xlink:title="Goban::cancel">
<polygon fill="none" stroke="black" points="133.5,-456.5 133.5,-475.5 213.5,-475.5 213.5,-456.5 133.5,-456.5"/>
<text text-anchor="middle" x="173.5" y="-463.5" font-family="Helvetica,sans-Serif" font-size="10.00">Goban::cancel</text>
</a>
</g>
</g>
<!-- Node39&#45;&gt;Node52 -->
<g id="edge17" class="edge"><title>Node39&#45;&gt;Node52</title>
<path fill="none" stroke="midnightblue" d="M45.7244,-352.156C56.2555,-377.525 78.2102,-421.97 111,-447 117.573,-452.018 125.485,-455.722 133.412,-458.453"/>
<polygon fill="midnightblue" stroke="midnightblue" points="48.8581,-350.564 41.9122,-342.564 42.3529,-353.149 48.8581,-350.564"/>
</g>
<!-- Node55 -->
<g id="node17" class="node"><title>Node55</title>
<g id="a_node17"><a xlink:href="class_goban.html#a8ad67a618a510bb378d00281228b1b13" target="_top" xlink:title="Goban::compress">
<polygon fill="none" stroke="black" points="126.5,-342.5 126.5,-361.5 220.5,-361.5 220.5,-342.5 126.5,-342.5"/>
<text text-anchor="middle" x="173.5" y="-349.5" font-family="Helvetica,sans-Serif" font-size="10.00">Goban::compress</text>
</a>
</g>
</g>
<!-- Node39&#45;&gt;Node55 -->
<g id="edge21" class="edge"><title>Node39&#45;&gt;Node55</title>
<path fill="none" stroke="midnightblue" d="M85.0633,-339.602C98.4296,-341.497 112.996,-343.563 126.338,-345.455"/>
<polygon fill="midnightblue" stroke="midnightblue" points="85.5084,-336.13 75.1161,-338.192 84.5257,-343.061 85.5084,-336.13"/>
</g>
<!-- Node56 -->
<g id="node18" class="node"><title>Node56</title>
<g id="a_node18"><a xlink:href="_main_8cpp.html#ae1a3968e7947464bee7714f6d43b7002" target="_top" xlink:title="test">
<polygon fill="none" stroke="black" points="325.5,-342.5 325.5,-361.5 358.5,-361.5 358.5,-342.5 325.5,-342.5"/>
<text text-anchor="middle" x="342" y="-349.5" font-family="Helvetica,sans-Serif" font-size="10.00">test</text>
</a>
</g>
</g>
<!-- Node39&#45;&gt;Node56 -->
<g id="edge43" class="edge"><title>Node39&#45;&gt;Node56</title>
<path fill="none" stroke="midnightblue" d="M60.6058,-348.186C74.4156,-356.732 92.9493,-366.556 111,-371 189.783,-390.395 287.841,-367.218 325.386,-356.684"/>
<polygon fill="midnightblue" stroke="midnightblue" points="62.1662,-345.028 51.8638,-342.556 58.3759,-350.913 62.1662,-345.028"/>
</g>
<!-- Node57 -->
<g id="node19" class="node"><title>Node57</title>
<g id="a_node19"><a xlink:href="class_goban.html#aa23b735d8d72bb0fe189005e968e9329" target="_top" xlink:title="Goban::uncompress">
<polygon fill="none" stroke="black" points="121.5,-304.5 121.5,-323.5 225.5,-323.5 225.5,-304.5 121.5,-304.5"/>
<text text-anchor="middle" x="173.5" y="-311.5" font-family="Helvetica,sans-Serif" font-size="10.00">Goban::uncompress</text>
</a>
</g>
</g>
<!-- Node39&#45;&gt;Node57 -->
<g id="edge23" class="edge"><title>Node39&#45;&gt;Node57</title>
<path fill="none" stroke="midnightblue" d="M85.125,-326.389C96.8295,-324.729 109.451,-322.94 121.362,-321.251"/>
<polygon fill="midnightblue" stroke="midnightblue" points="84.5257,-322.939 75.1161,-327.808 85.5084,-329.87 84.5257,-322.939"/>
</g>
<!-- Node58 -->
<g id="node20" class="node"><title>Node58</title>
<g id="a_node20"><a xlink:href="_goban_8h.html#af268768f99a138526e0bf82ff4d6cc39" target="_top" xlink:title="operator\&lt;\&lt;">
<polygon fill="none" stroke="black" points="141.5,-266.5 141.5,-285.5 205.5,-285.5 205.5,-266.5 141.5,-266.5"/>
<text text-anchor="middle" x="173.5" y="-273.5" font-family="Helvetica,sans-Serif" font-size="10.00">operator&lt;&lt;</text>
</a>
</g>
</g>
<!-- Node39&#45;&gt;Node58 -->
<g id="edge25" class="edge"><title>Node39&#45;&gt;Node58</title>
<path fill="none" stroke="midnightblue" d="M63.6218,-318.377C77.332,-310.771 94.7754,-301.692 111,-295 120.711,-290.995 131.582,-287.369 141.452,-284.384"/>
<polygon fill="midnightblue" stroke="midnightblue" points="61.7782,-315.398 54.7873,-323.359 65.2169,-321.495 61.7782,-315.398"/>
</g>
<!-- Node59 -->
<g id="node21" class="node"><title>Node59</title>
<g id="a_node21"><a xlink:href="class_i_a.html#a5c0a6371478dedeb16372d13ce13cc34" target="_top" xlink:title="IA::loadNumber">
<polygon fill="none" stroke="black" points="132,-228.5 132,-247.5 215,-247.5 215,-228.5 132,-228.5"/>
<text text-anchor="middle" x="173.5" y="-235.5" font-family="Helvetica,sans-Serif" font-size="10.00">IA::loadNumber</text>
</a>
</g>
</g>
<!-- Node39&#45;&gt;Node59 -->
<g id="edge26" class="edge"><title>Node39&#45;&gt;Node59</title>
<path fill="none" stroke="midnightblue" d="M51.1605,-315.186C64.2835,-297.961 86.3099,-272.284 111,-257 117.366,-253.059 124.613,-249.88 131.842,-247.333"/>
<polygon fill="midnightblue" stroke="midnightblue" points="48.2742,-313.203 45.1426,-323.324 53.9025,-317.365 48.2742,-313.203"/>
</g>
<!-- Node62 -->
<g id="node24" class="node"><title>Node62</title>
<g id="a_node24"><a xlink:href="class_i_a.html#a42202360406fe67babfd01a9b7902fd2" target="_top" xlink:title="IA::Tsumego_naif">
<polygon fill="none" stroke="black" points="127.5,-114.5 127.5,-133.5 219.5,-133.5 219.5,-114.5 127.5,-114.5"/>
<text text-anchor="middle" x="173.5" y="-121.5" font-family="Helvetica,sans-Serif" font-size="10.00">IA::Tsumego_naif</text>
</a>
</g>
</g>
<!-- Node39&#45;&gt;Node62 -->
<g id="edge29" class="edge"><title>Node39&#45;&gt;Node62</title>
<path fill="none" stroke="midnightblue" d="M40.949,-313.468C46.5996,-276.33 63.881,-195.052 111,-148 117.326,-141.683 125.506,-136.988 133.824,-133.512"/>
<polygon fill="midnightblue" stroke="midnightblue" points="37.4663,-313.101 39.5485,-323.489 44.3989,-314.07 37.4663,-313.101"/>
</g>
<!-- Node63 -->
<g id="node25" class="node"><title>Node63</title>
<g id="a_node25"><a xlink:href="class_i_a.html#af1f6e5abe41a2225b17ca319c1fc0e4e" target="_top" xlink:title="IA::Tsumego_abr">
<polygon fill="none" stroke="black" points="128.5,-190.5 128.5,-209.5 218.5,-209.5 218.5,-190.5 128.5,-190.5"/>
<text text-anchor="middle" x="173.5" y="-197.5" font-family="Helvetica,sans-Serif" font-size="10.00">IA::Tsumego_abr</text>
</a>
</g>
</g>
<!-- Node39&#45;&gt;Node63 -->
<g id="edge30" class="edge"><title>Node39&#45;&gt;Node63</title>
<path fill="none" stroke="midnightblue" d="M45.7244,-313.844C56.2555,-288.475 78.2102,-244.03 111,-219 116.152,-215.067 122.126,-211.941 128.286,-209.458"/>
<polygon fill="midnightblue" stroke="midnightblue" points="42.3529,-312.851 41.9122,-323.436 48.8581,-315.436 42.3529,-312.851"/>
</g>
<!-- Node64 -->
<g id="node26" class="node"><title>Node64</title>
<g id="a_node26"><a xlink:href="class_i_a.html#a6f616b7d3d9d39eef4780b7a03226260" target="_top" xlink:title="IA::Tsumego_abrFils">
<polygon fill="none" stroke="black" points="289,-162.5 289,-181.5 395,-181.5 395,-162.5 289,-162.5"/>
<text text-anchor="middle" x="342" y="-169.5" font-family="Helvetica,sans-Serif" font-size="10.00">IA::Tsumego_abrFils</text>
</a>
</g>
</g>
<!-- Node39&#45;&gt;Node64 -->
<g id="edge33" class="edge"><title>Node39&#45;&gt;Node64</title>
<path fill="none" stroke="midnightblue" d="M41.3472,-313.285C47.3888,-279.521 64.9325,-211.342 111,-181 169.236,-142.644 254.945,-152.396 303.616,-162.493"/>
<polygon fill="midnightblue" stroke="midnightblue" points="37.8673,-312.879 39.7147,-323.312 44.7763,-314.004 37.8673,-312.879"/>
</g>
<!-- Node65 -->
<g id="node27" class="node"><title>Node65</title>
<g id="a_node27"><a xlink:href="class_i_a.html#a5d86a3548f2410f7fc0676b89d07f4fd" target="_top" xlink:title="IA::Tsumego_compresse">
<polygon fill="none" stroke="black" points="111,-76.5 111,-95.5 236,-95.5 236,-76.5 111,-76.5"/>
<text text-anchor="middle" x="173.5" y="-83.5" font-family="Helvetica,sans-Serif" font-size="10.00">IA::Tsumego_compresse</text>
</a>
</g>
</g>
<!-- Node39&#45;&gt;Node65 -->
<g id="edge34" class="edge"><title>Node39&#45;&gt;Node65</title>
<path fill="none" stroke="midnightblue" d="M38.9474,-312.913C41.0341,-268.903 52.2537,-163.265 111,-105 114.888,-101.144 119.541,-98.0681 124.523,-95.6148"/>
<polygon fill="midnightblue" stroke="midnightblue" points="35.4408,-313.038 38.5794,-323.157 42.4363,-313.289 35.4408,-313.038"/>
</g>
<!-- Node66 -->
<g id="node28" class="node"><title>Node66</title>
<g id="a_node28"><a xlink:href="_parser_8h.html#a0d953eb90c8a03cbbe46abaf3d8d96e9" target="_top" xlink:title="parseur">
<polygon fill="none" stroke="black" points="149,-38.5 149,-57.5 198,-57.5 198,-38.5 149,-38.5"/>
<text text-anchor="middle" x="173.5" y="-45.5" font-family="Helvetica,sans-Serif" font-size="10.00">parseur</text>
</a>
</g>
</g>
<!-- Node39&#45;&gt;Node66 -->
<g id="edge35" class="edge"><title>Node39&#45;&gt;Node66</title>
<path fill="none" stroke="midnightblue" d="M37.8579,-313.318C37.379,-264.597 43.0776,-137.24 111,-67 120.866,-56.7976 136.078,-52.0419 148.905,-49.8395"/>
<polygon fill="midnightblue" stroke="midnightblue" points="34.3612,-313.523 38.0633,-323.45 41.3598,-313.381 34.3612,-313.523"/>
</g>
<!-- Node67 -->
<g id="node29" class="node"><title>Node67</title>
<g id="a_node29"><a xlink:href="class_board.html#a841a248dac4743611ba1825afd5d1297" target="_top" xlink:title="Board::load">
<polygon fill="none" stroke="black" points="140.5,-494.5 140.5,-513.5 206.5,-513.5 206.5,-494.5 140.5,-494.5"/>
<text text-anchor="middle" x="173.5" y="-501.5" font-family="Helvetica,sans-Serif" font-size="10.00">Board::load</text>
</a>
</g>
</g>
<!-- Node39&#45;&gt;Node67 -->
<g id="edge36" class="edge"><title>Node39&#45;&gt;Node67</title>
<path fill="none" stroke="midnightblue" d="M42.5609,-352.871C50.2135,-385.271 69.8414,-449.43 111,-485 119.201,-492.088 130.017,-496.532 140.289,-499.319"/>
<polygon fill="midnightblue" stroke="midnightblue" points="45.9176,-351.84 40.3379,-342.834 39.0832,-353.354 45.9176,-351.84"/>
</g>
<!-- Node71 -->
<g id="node33" class="node"><title>Node71</title>
<g id="a_node33"><a xlink:href="class_go___solver.html#ab2a2c57a24b076a6729e01504ef25377" target="_top" xlink:title="Go_Solver::setTarget">
<polygon fill="none" stroke="black" points="120,-0.5 120,-19.5 227,-19.5 227,-0.5 120,-0.5"/>
<text text-anchor="middle" x="173.5" y="-7.5" font-family="Helvetica,sans-Serif" font-size="10.00">Go_Solver::setTarget</text>
</a>
</g>
</g>
<!-- Node39&#45;&gt;Node71 -->
<g id="edge42" class="edge"><title>Node39&#45;&gt;Node71</title>
<path fill="none" stroke="midnightblue" d="M40.6733,-313.138C47.6946,-252.451 71.6272,-71.0411 111,-29 114.59,-25.1664 118.935,-22.1001 123.637,-19.6484"/>
<polygon fill="midnightblue" stroke="midnightblue" points="37.1703,-312.968 39.5269,-323.298 44.1262,-313.753 37.1703,-312.968"/>
</g>
<!-- Node43 -->
<g id="node5" class="node"><title>Node43</title>
<g id="a_node5"><a xlink:href="class_goban.html#a7858b815885e4af36f05f9d26182cb07" target="_top" xlink:title="Goban::eliminateOppGroups">
<polygon fill="none" stroke="black" points="272,-570.5 272,-589.5 412,-589.5 412,-570.5 272,-570.5"/>
<text text-anchor="middle" x="342" y="-577.5" font-family="Helvetica,sans-Serif" font-size="10.00">Goban::eliminateOppGroups</text>
</a>
</g>
</g>
<!-- Node42&#45;&gt;Node43 -->
<g id="edge4" class="edge"><title>Node42&#45;&gt;Node43</title>
<path fill="none" stroke="midnightblue" d="M244.68,-580C253.698,-580 262.926,-580 271.926,-580"/>
<polygon fill="midnightblue" stroke="midnightblue" points="244.61,-576.5 234.61,-580 244.61,-583.5 244.61,-576.5"/>
</g>
<!-- Node43&#45;&gt;Node40 -->
<g id="edge5" class="edge"><title>Node43&#45;&gt;Node40</title>
<path fill="none" stroke="midnightblue" d="M371.116,-593.965C392.087,-604.174 421.555,-618.084 448,-629 460.366,-634.105 474.258,-639.214 486.134,-643.397"/>
<polygon fill="midnightblue" stroke="midnightblue" points="372.641,-590.814 362.12,-589.559 369.562,-597.101 372.641,-590.814"/>
</g>
<!-- Node43&#45;&gt;Node44 -->
<g id="edge6" class="edge"><title>Node43&#45;&gt;Node44</title>
<path fill="none" stroke="midnightblue" d="M407.722,-591.322C428.396,-594.938 450.809,-598.859 469.737,-602.17"/>
<polygon fill="midnightblue" stroke="midnightblue" points="408.189,-587.85 397.735,-589.575 406.983,-594.746 408.189,-587.85"/>
</g>
<!-- Node45 -->
<g id="node7" class="node"><title>Node45</title>
<g id="a_node7"><a xlink:href="class_goban.html#a36ab256c9430e070b620052a0f13f051" target="_top" xlink:title="Goban::listFils">
<polygon fill="none" stroke="black" points="475.5,-553.5 475.5,-572.5 555.5,-572.5 555.5,-553.5 475.5,-553.5"/>
<text text-anchor="middle" x="515.5" y="-560.5" font-family="Helvetica,sans-Serif" font-size="10.00">Goban::listFils</text>
</a>
</g>
</g>
<!-- Node43&#45;&gt;Node45 -->
<g id="edge7" class="edge"><title>Node43&#45;&gt;Node45</title>
<path fill="none" stroke="midnightblue" d="M422.367,-572.133C440.667,-570.319 459.357,-568.466 475.079,-566.908"/>
<polygon fill="midnightblue" stroke="midnightblue" points="421.867,-568.665 412.261,-573.134 422.558,-575.631 421.867,-568.665"/>
</g>
<!-- Node48 -->
<g id="node10" class="node"><title>Node48</title>
<g id="a_node10"><a xlink:href="class_board.html#a5fda73da080403d8a71a8593d581c350" target="_top" xlink:title="Board::click">
<polygon fill="none" stroke="black" points="481.5,-496.5 481.5,-515.5 549.5,-515.5 549.5,-496.5 481.5,-496.5"/>
<text text-anchor="middle" x="515.5" y="-503.5" font-family="Helvetica,sans-Serif" font-size="10.00">Board::click</text>
</a>
</g>
</g>
<!-- Node43&#45;&gt;Node48 -->
<g id="edge10" class="edge"><title>Node43&#45;&gt;Node48</title>
<path fill="none" stroke="midnightblue" d="M393.488,-567.512C399.793,-565.54 406.095,-563.363 412,-561 428.969,-554.211 473.182,-529.528 497.631,-515.648"/>
<polygon fill="midnightblue" stroke="midnightblue" points="392.226,-564.236 383.636,-570.438 394.219,-570.946 392.226,-564.236"/>
</g>
<!-- Node46 -->
<g id="node8" class="node"><title>Node46</title>
<g id="a_node8"><a xlink:href="class_arbre.html#ac82e543d8cbf0aced4d741c346f9950d" target="_top" xlink:title="Arbre::Arbre">
<polygon fill="none" stroke="black" points="653,-572.5 653,-591.5 722,-591.5 722,-572.5 653,-572.5"/>
<text text-anchor="middle" x="687.5" y="-579.5" font-family="Helvetica,sans-Serif" font-size="10.00">Arbre::Arbre</text>
</a>
</g>
</g>
<!-- Node45&#45;&gt;Node46 -->
<g id="edge8" class="edge"><title>Node45&#45;&gt;Node46</title>
<path fill="none" stroke="midnightblue" d="M565.499,-568.476C593.5,-571.606 627.894,-575.45 652.847,-578.239"/>
<polygon fill="midnightblue" stroke="midnightblue" points="565.828,-564.991 555.501,-567.359 565.051,-571.948 565.828,-564.991"/>
</g>
<!-- Node47 -->
<g id="node9" class="node"><title>Node47</title>
<g id="a_node9"><a xlink:href="class_arbre.html#a70585b1d341c1e0c262b2b4a4f769b6d" target="_top" xlink:title="Arbre::resetFils">
<polygon fill="none" stroke="black" points="646,-534.5 646,-553.5 729,-553.5 729,-534.5 646,-534.5"/>
<text text-anchor="middle" x="687.5" y="-541.5" font-family="Helvetica,sans-Serif" font-size="10.00">Arbre::resetFils</text>
</a>
</g>
</g>
<!-- Node45&#45;&gt;Node47 -->
<g id="edge9" class="edge"><title>Node45&#45;&gt;Node47</title>
<path fill="none" stroke="midnightblue" d="M565.691,-557.502C591.139,-554.658 621.827,-551.228 645.906,-548.537"/>
<polygon fill="midnightblue" stroke="midnightblue" points="565.051,-554.052 555.501,-558.641 565.828,-561.009 565.051,-554.052"/>
</g>
<!-- Node49 -->
<g id="node11" class="node"><title>Node49</title>
<g id="a_node11"><a xlink:href="class_game__window.html#afa942088809bf10731bb31d0d37b878d" target="_top" xlink:title="Game_window::click">
<polygon fill="none" stroke="black" points="634.5,-485.5 634.5,-504.5 740.5,-504.5 740.5,-485.5 634.5,-485.5"/>
<text text-anchor="middle" x="687.5" y="-492.5" font-family="Helvetica,sans-Serif" font-size="10.00">Game_window::click</text>
</a>
</g>
</g>
<!-- Node48&#45;&gt;Node49 -->
<g id="edge11" class="edge"><title>Node48&#45;&gt;Node49</title>
<path fill="none" stroke="midnightblue" d="M559.708,-503.204C582.416,-501.735 610.421,-499.923 634.331,-498.376"/>
<polygon fill="midnightblue" stroke="midnightblue" points="559.434,-499.714 549.681,-503.853 559.886,-506.7 559.434,-499.714"/>
</g>
<!-- Node50 -->
<g id="node12" class="node"><title>Node50</title>
<g id="a_node12"><a xlink:href="class_game__window.html#a555769f4e8511e45d6623658dc736be5" target="_top" xlink:title="Game_window::Run">
<polygon fill="none" stroke="black" points="792,-447.5 792,-466.5 895,-466.5 895,-447.5 792,-447.5"/>
<text text-anchor="middle" x="843.5" y="-454.5" font-family="Helvetica,sans-Serif" font-size="10.00">Game_window::Run</text>
</a>
</g>
</g>
<!-- Node49&#45;&gt;Node50 -->
<g id="edge12" class="edge"><title>Node49&#45;&gt;Node50</title>
<path fill="none" stroke="midnightblue" d="M737.294,-482.96C758.808,-477.651 783.732,-471.501 803.919,-466.52"/>
<polygon fill="midnightblue" stroke="midnightblue" points="736.231,-479.617 727.361,-485.411 737.908,-486.413 736.231,-479.617"/>
</g>
<!-- Node51&#45;&gt;Node45 -->
<g id="edge15" class="edge"><title>Node51&#45;&gt;Node45</title>
<path fill="none" stroke="midnightblue" d="M389.347,-547.675C416.305,-550.976 449.902,-555.09 475.497,-558.224"/>
<polygon fill="midnightblue" stroke="midnightblue" points="389.722,-544.195 379.371,-546.454 388.871,-551.143 389.722,-544.195"/>
</g>
<!-- Node51&#45;&gt;Node48 -->
<g id="edge16" class="edge"><title>Node51&#45;&gt;Node48</title>
<path fill="none" stroke="midnightblue" d="M389.305,-532.28C418.388,-526.175 455.211,-518.445 481.376,-512.953"/>
<polygon fill="midnightblue" stroke="midnightblue" points="388.438,-528.886 379.371,-534.365 389.876,-535.736 388.438,-528.886"/>
</g>
<!-- Node53 -->
<g id="node15" class="node"><title>Node53</title>
<g id="a_node15"><a xlink:href="class_board.html#ac7ec911a62371650afd340d1535a1742" target="_top" xlink:title="Board::cancel">
<polygon fill="none" stroke="black" points="303.5,-380.5 303.5,-399.5 380.5,-399.5 380.5,-380.5 303.5,-380.5"/>
<text text-anchor="middle" x="342" y="-387.5" font-family="Helvetica,sans-Serif" font-size="10.00">Board::cancel</text>
</a>
</g>
</g>
<!-- Node52&#45;&gt;Node53 -->
<g id="edge18" class="edge"><title>Node52&#45;&gt;Node53</title>
<path fill="none" stroke="midnightblue" d="M222.981,-453.662C227.525,-451.731 231.942,-449.522 236,-447 255.76,-434.721 252.053,-420.972 272,-409 281.482,-403.309 292.71,-399.279 303.325,-396.442"/>
<polygon fill="midnightblue" stroke="midnightblue" points="221.655,-450.421 213.551,-457.245 224.142,-456.965 221.655,-450.421"/>
</g>
<!-- Node54 -->
<g id="node16" class="node"><title>Node54</title>
<g id="a_node16"><a xlink:href="class_game__window.html#a72304de2044c29f1373037bd818f674f" target="_top" xlink:title="Game_window::keyPressed">
<polygon fill="none" stroke="black" points="619,-409.5 619,-428.5 756,-428.5 756,-409.5 619,-409.5"/>
<text text-anchor="middle" x="687.5" y="-416.5" font-family="Helvetica,sans-Serif" font-size="10.00">Game_window::keyPressed</text>
</a>
</g>
</g>
<!-- Node53&#45;&gt;Node54 -->
<g id="edge19" class="edge"><title>Node53&#45;&gt;Node54</title>
<path fill="none" stroke="midnightblue" d="M390.959,-394.049C450.293,-399.058 551.682,-407.618 618.891,-413.292"/>
<polygon fill="midnightblue" stroke="midnightblue" points="391.002,-390.54 380.743,-393.186 390.413,-397.515 391.002,-390.54"/>
</g>
<!-- Node54&#45;&gt;Node50 -->
<g id="edge20" class="edge"><title>Node54&#45;&gt;Node50</title>
<path fill="none" stroke="midnightblue" d="M737.294,-431.04C758.808,-436.349 783.732,-442.499 803.919,-447.48"/>
<polygon fill="midnightblue" stroke="midnightblue" points="737.908,-427.587 727.361,-428.589 736.231,-434.383 737.908,-427.587"/>
</g>
<!-- Node55&#45;&gt;Node56 -->
<g id="edge22" class="edge"><title>Node55&#45;&gt;Node56</title>
<path fill="none" stroke="midnightblue" d="M230.991,-352C264.322,-352 304.056,-352 325.472,-352"/>
<polygon fill="midnightblue" stroke="midnightblue" points="230.88,-348.5 220.88,-352 230.879,-355.5 230.88,-348.5"/>
</g>
<!-- Node57&#45;&gt;Node56 -->
<g id="edge24" class="edge"><title>Node57&#45;&gt;Node56</title>
<path fill="none" stroke="midnightblue" d="M226.366,-325.837C260.54,-333.637 302.98,-343.323 325.411,-348.442"/>
<polygon fill="midnightblue" stroke="midnightblue" points="227.043,-322.402 216.515,-323.589 225.485,-329.226 227.043,-322.402"/>
</g>
<!-- Node60 -->
<g id="node22" class="node"><title>Node60</title>
<g id="a_node22"><a xlink:href="class_i_a.html#a364aef554d81e9a93bff08c28d437497" target="_top" xlink:title="IA::Tsumego">
<polygon fill="none" stroke="black" points="306.5,-219.5 306.5,-238.5 377.5,-238.5 377.5,-219.5 306.5,-219.5"/>
<text text-anchor="middle" x="342" y="-226.5" font-family="Helvetica,sans-Serif" font-size="10.00">IA::Tsumego</text>
</a>
</g>
</g>
<!-- Node59&#45;&gt;Node60 -->
<g id="edge27" class="edge"><title>Node59&#45;&gt;Node60</title>
<path fill="none" stroke="midnightblue" d="M225.375,-235.25C251.599,-233.833 282.899,-232.141 306.316,-230.875"/>
<polygon fill="midnightblue" stroke="midnightblue" points="225.027,-231.764 215.23,-235.798 225.405,-238.753 225.027,-231.764"/>
</g>
<!-- Node61 -->
<g id="node23" class="node"><title>Node61</title>
<g id="a_node23"><a xlink:href="class_go___solver.html#a6ca744f1f4586c3f90f2e47915034baf" target="_top" xlink:title="Go_Solver::launchTsumego">
<polygon fill="none" stroke="black" points="448,-219.5 448,-238.5 583,-238.5 583,-219.5 448,-219.5"/>
<text text-anchor="middle" x="515.5" y="-226.5" font-family="Helvetica,sans-Serif" font-size="10.00">Go_Solver::launchTsumego</text>
</a>
</g>
</g>
<!-- Node60&#45;&gt;Node61 -->
<g id="edge28" class="edge"><title>Node60&#45;&gt;Node61</title>
<path fill="none" stroke="midnightblue" d="M387.816,-229C406.169,-229 427.79,-229 447.925,-229"/>
<polygon fill="midnightblue" stroke="midnightblue" points="387.706,-225.5 377.706,-229 387.706,-232.5 387.706,-225.5"/>
</g>
<!-- Node63&#45;&gt;Node60 -->
<g id="edge31" class="edge"><title>Node63&#45;&gt;Node60</title>
<path fill="none" stroke="midnightblue" d="M228.61,-209.425C254.165,-213.876 283.911,-219.057 306.38,-222.97"/>
<polygon fill="midnightblue" stroke="midnightblue" points="229.134,-205.963 218.682,-207.695 227.933,-212.859 229.134,-205.963"/>
</g>
<!-- Node63&#45;&gt;Node64 -->
<g id="edge32" class="edge"><title>Node63&#45;&gt;Node64</title>
<path fill="none" stroke="midnightblue" d="M228.565,-190.908C247.935,-187.651 269.719,-183.987 288.918,-180.759"/>
<polygon fill="midnightblue" stroke="midnightblue" points="227.963,-187.46 218.682,-192.57 229.124,-194.363 227.963,-187.46"/>
</g>
<!-- Node67&#45;&gt;Node48 -->
<g id="edge37" class="edge"><title>Node67&#45;&gt;Node48</title>
<path fill="none" stroke="midnightblue" d="M216.817,-504.249C285.381,-504.652 419.325,-505.44 481.425,-505.805"/>
<polygon fill="midnightblue" stroke="midnightblue" points="216.813,-500.749 206.793,-504.19 216.772,-507.749 216.813,-500.749"/>
</g>
<!-- Node67&#45;&gt;Node53 -->
<g id="edge38" class="edge"><title>Node67&#45;&gt;Node53</title>
<path fill="none" stroke="midnightblue" d="M216.415,-496.203C223.497,-493.508 230.368,-489.88 236,-485 264.246,-460.523 243.379,-433.037 272,-409 280.849,-401.569 292.374,-397.029 303.464,-394.261"/>
<polygon fill="midnightblue" stroke="midnightblue" points="215.164,-492.929 206.722,-499.332 217.314,-499.59 215.164,-492.929"/>
</g>
<!-- Node68 -->
<g id="node30" class="node"><title>Node68</title>
<g id="a_node30"><a xlink:href="class_board.html#a3cea4df16e41c21666cf51789b7e9e78" target="_top" xlink:title="Board::load">
<polygon fill="none" stroke="black" points="309,-418.5 309,-437.5 375,-437.5 375,-418.5 309,-418.5"/>
<text text-anchor="middle" x="342" y="-425.5" font-family="Helvetica,sans-Serif" font-size="10.00">Board::load</text>
</a>
</g>
</g>
<!-- Node67&#45;&gt;Node68 -->
<g id="edge39" class="edge"><title>Node67&#45;&gt;Node68</title>
<path fill="none" stroke="midnightblue" d="M216.63,-494.161C223.37,-491.704 230.069,-488.686 236,-485 255.76,-472.721 252.053,-458.972 272,-447 283.186,-440.286 296.804,-435.883 308.977,-433.025"/>
<polygon fill="midnightblue" stroke="midnightblue" points="215.229,-490.937 206.812,-497.372 217.405,-497.59 215.229,-490.937"/>
</g>
<!-- Node69 -->
<g id="node31" class="node"><title>Node69</title>
<g id="a_node31"><a xlink:href="class_game__window.html#ac674f6d0db2bf60e92a0072d94e4c019" target="_top" xlink:title="Game_window::setGoban">
<polygon fill="none" stroke="black" points="278,-456.5 278,-475.5 406,-475.5 406,-456.5 278,-456.5"/>
<text text-anchor="middle" x="342" y="-463.5" font-family="Helvetica,sans-Serif" font-size="10.00">Game_window::setGoban</text>
</a>
</g>
</g>
<!-- Node67&#45;&gt;Node69 -->
<g id="edge40" class="edge"><title>Node67&#45;&gt;Node69</title>
<path fill="none" stroke="midnightblue" d="M216.637,-494.383C241.93,-488.611 273.983,-481.295 299.213,-475.537"/>
<polygon fill="midnightblue" stroke="midnightblue" points="215.573,-491.036 206.603,-496.673 217.131,-497.86 215.573,-491.036"/>
</g>
<!-- Node70 -->
<g id="node32" class="node"><title>Node70</title>
<g id="a_node32"><a xlink:href="class_go___solver.html#a8452c66187c526e0a6051bbb42b9bbda" target="_top" xlink:title="Go_Solver::setGoban">
<polygon fill="none" stroke="black" points="461,-456.5 461,-475.5 570,-475.5 570,-456.5 461,-456.5"/>
<text text-anchor="middle" x="515.5" y="-463.5" font-family="Helvetica,sans-Serif" font-size="10.00">Go_Solver::setGoban</text>
</a>
</g>
</g>
<!-- Node69&#45;&gt;Node70 -->
<g id="edge41" class="edge"><title>Node69&#45;&gt;Node70</title>
<path fill="none" stroke="midnightblue" d="M416.589,-466C431.493,-466 446.898,-466 460.953,-466"/>
<polygon fill="midnightblue" stroke="midnightblue" points="416.373,-462.5 406.373,-466 416.373,-469.5 416.373,-462.5"/>
</g>
</g>
</svg>
