<?xml version="1.0" encoding="UTF-8" standalone="no"?>
<!DOCTYPE svg PUBLIC "-//W3C//DTD SVG 1.1//EN"
 "http://www.w3.org/Graphics/SVG/1.1/DTD/svg11.dtd">
<!-- Generated by graphviz version 2.38.0 (20140413.2041)
 -->
<!-- Title: Arbre::getInfo Pages: 1 -->
<svg width="556pt" height="218pt"
 viewBox="0.00 0.00 556.00 218.00" xmlns="http://www.w3.org/2000/svg" xmlns:xlink="http://www.w3.org/1999/xlink">
<g id="graph0" class="graph" transform="scale(1 1) rotate(0) translate(4 214)">
<title>Arbre::getInfo</title>
<!-- Node92 -->
<g id="node1" class="node"><title>Node92</title>
<polygon fill="#bfbfbf" stroke="black" points="0,-95.5 0,-114.5 74,-114.5 74,-95.5 0,-95.5"/>
<text text-anchor="middle" x="37" y="-102.5" font-family="Helvetica,sans-Serif" font-size="10.00">Arbre::getInfo</text>
</g>
<!-- Node93 -->
<g id="node2" class="node"><title>Node93</title>
<g id="a_node2"><a xlink:href="class_arbre.html#a3284c47c1ea92a6c5be4a210008dfb4f" target="_top" xlink:title="Arbre::Arbre">
<polygon fill="none" stroke="black" points="138,-190.5 138,-209.5 207,-209.5 207,-190.5 138,-190.5"/>
<text text-anchor="middle" x="172.5" y="-197.5" font-family="Helvetica,sans-Serif" font-size="10.00">Arbre::Arbre</text>
</a>
</g>
</g>
<!-- Node92&#45;&gt;Node93 -->
<g id="edge1" class="edge"><title>Node92&#45;&gt;Node93</title>
<path fill="none" stroke="midnightblue" d="M52.0516,-122.445C65.5202,-138.217 87.1316,-161.173 110,-176 119.136,-181.924 129.96,-186.756 139.962,-190.491"/>
<polygon fill="midnightblue" stroke="midnightblue" points="54.5397,-119.963 45.4506,-114.519 49.1608,-124.443 54.5397,-119.963"/>
</g>
<!-- Node94 -->
<g id="node3" class="node"><title>Node94</title>
<g id="a_node3"><a xlink:href="class_i_a.html#a364aef554d81e9a93bff08c28d437497" target="_top" xlink:title="IA::Tsumego">
<polygon fill="none" stroke="black" points="288.5,-95.5 288.5,-114.5 359.5,-114.5 359.5,-95.5 288.5,-95.5"/>
<text text-anchor="middle" x="324" y="-102.5" font-family="Helvetica,sans-Serif" font-size="10.00">IA::Tsumego</text>
</a>
</g>
</g>
<!-- Node92&#45;&gt;Node94 -->
<g id="edge2" class="edge"><title>Node92&#45;&gt;Node94</title>
<path fill="none" stroke="midnightblue" d="M59.9386,-120.185C73.6478,-128.73 92.0532,-138.555 110,-143 163.926,-156.357 180.594,-154.245 235,-143 261.238,-137.577 289.28,-123.945 306.478,-114.575"/>
<polygon fill="midnightblue" stroke="midnightblue" points="61.5552,-117.062 51.2612,-114.555 57.7452,-122.934 61.5552,-117.062"/>
</g>
<!-- Node96 -->
<g id="node5" class="node"><title>Node96</title>
<g id="a_node5"><a xlink:href="class_i_a.html#a42202360406fe67babfd01a9b7902fd2" target="_top" xlink:title="IA::Tsumego_naif">
<polygon fill="none" stroke="black" points="126.5,-114.5 126.5,-133.5 218.5,-133.5 218.5,-114.5 126.5,-114.5"/>
<text text-anchor="middle" x="172.5" y="-121.5" font-family="Helvetica,sans-Serif" font-size="10.00">IA::Tsumego_naif</text>
</a>
</g>
</g>
<!-- Node92&#45;&gt;Node96 -->
<g id="edge4" class="edge"><title>Node92&#45;&gt;Node96</title>
<path fill="none" stroke="midnightblue" d="M84.2457,-111.582C97.8548,-113.519 112.723,-115.635 126.268,-117.562"/>
<polygon fill="midnightblue" stroke="midnightblue" points="84.5204,-108.086 74.127,-110.142 83.5341,-115.016 84.5204,-108.086"/>
</g>
<!-- Node97 -->
<g id="node6" class="node"><title>Node97</title>
<g id="a_node6"><a xlink:href="class_i_a.html#af1f6e5abe41a2225b17ca319c1fc0e4e" target="_top" xlink:title="IA::Tsumego_abr">
<polygon fill="none" stroke="black" points="127.5,-76.5 127.5,-95.5 217.5,-95.5 217.5,-76.5 127.5,-76.5"/>
<text text-anchor="middle" x="172.5" y="-83.5" font-family="Helvetica,sans-Serif" font-size="10.00">IA::Tsumego_abr</text>
</a>
</g>
</g>
<!-- Node92&#45;&gt;Node97 -->
<g id="edge5" class="edge"><title>Node92&#45;&gt;Node97</title>
<path fill="none" stroke="midnightblue" d="M84.038,-98.4478C98.0315,-96.4562 113.373,-94.2728 127.246,-92.2983"/>
<polygon fill="midnightblue" stroke="midnightblue" points="83.5341,-94.9841 74.127,-99.8583 84.5204,-101.914 83.5341,-94.9841"/>
</g>
<!-- Node98 -->
<g id="node7" class="node"><title>Node98</title>
<g id="a_node7"><a xlink:href="class_i_a.html#a6f616b7d3d9d39eef4780b7a03226260" target="_top" xlink:title="IA::Tsumego_abrFils">
<polygon fill="none" stroke="black" points="271,-48.5 271,-67.5 377,-67.5 377,-48.5 271,-48.5"/>
<text text-anchor="middle" x="324" y="-55.5" font-family="Helvetica,sans-Serif" font-size="10.00">IA::Tsumego_abrFils</text>
</a>
</g>
</g>
<!-- Node92&#45;&gt;Node98 -->
<g id="edge8" class="edge"><title>Node92&#45;&gt;Node98</title>
<path fill="none" stroke="midnightblue" d="M60.2652,-89.9288C73.9721,-81.5177 92.2619,-71.7934 110,-67 163.417,-52.5651 227.086,-51.9204 270.815,-53.8822"/>
<polygon fill="midnightblue" stroke="midnightblue" points="58.1259,-87.1417 51.5711,-95.4654 61.886,-93.0461 58.1259,-87.1417"/>
</g>
<!-- Node99 -->
<g id="node8" class="node"><title>Node99</title>
<g id="a_node8"><a xlink:href="class_i_a.html#a5d86a3548f2410f7fc0676b89d07f4fd" target="_top" xlink:title="IA::Tsumego_compresse">
<polygon fill="none" stroke="black" points="110,-0.5 110,-19.5 235,-19.5 235,-0.5 110,-0.5"/>
<text text-anchor="middle" x="172.5" y="-7.5" font-family="Helvetica,sans-Serif" font-size="10.00">IA::Tsumego_compresse</text>
</a>
</g>
</g>
<!-- Node92&#45;&gt;Node99 -->
<g id="edge9" class="edge"><title>Node92&#45;&gt;Node99</title>
<path fill="none" stroke="midnightblue" d="M52.0516,-87.5548C65.5202,-71.7829 87.1316,-48.8274 110,-34 119.136,-28.0764 129.96,-23.2442 139.962,-19.5091"/>
<polygon fill="midnightblue" stroke="midnightblue" points="49.1608,-85.5567 45.4506,-95.4807 54.5397,-90.0365 49.1608,-85.5567"/>
</g>
<!-- Node95 -->
<g id="node4" class="node"><title>Node95</title>
<g id="a_node4"><a xlink:href="class_go___solver.html#a6ca744f1f4586c3f90f2e47915034baf" target="_top" xlink:title="Go_Solver::launchTsumego">
<polygon fill="none" stroke="black" points="413,-95.5 413,-114.5 548,-114.5 548,-95.5 413,-95.5"/>
<text text-anchor="middle" x="480.5" y="-102.5" font-family="Helvetica,sans-Serif" font-size="10.00">Go_Solver::launchTsumego</text>
</a>
</g>
</g>
<!-- Node94&#45;&gt;Node95 -->
<g id="edge3" class="edge"><title>Node94&#45;&gt;Node95</title>
<path fill="none" stroke="midnightblue" d="M370.056,-105C383.475,-105 398.473,-105 412.958,-105"/>
<polygon fill="midnightblue" stroke="midnightblue" points="369.673,-101.5 359.673,-105 369.673,-108.5 369.673,-101.5"/>
</g>
<!-- Node97&#45;&gt;Node94 -->
<g id="edge6" class="edge"><title>Node97&#45;&gt;Node94</title>
<path fill="none" stroke="midnightblue" d="M227.582,-92.8733C247.816,-95.4449 270.243,-98.295 288.267,-100.586"/>
<polygon fill="midnightblue" stroke="midnightblue" points="227.908,-89.3866 217.546,-91.5979 227.025,-96.3308 227.908,-89.3866"/>
</g>
<!-- Node97&#45;&gt;Node98 -->
<g id="edge7" class="edge"><title>Node97&#45;&gt;Node98</title>
<path fill="none" stroke="midnightblue" d="M227.432,-75.899C242.021,-73.1667 257.759,-70.2191 272.171,-67.5198"/>
<polygon fill="midnightblue" stroke="midnightblue" points="226.731,-72.4694 217.546,-77.7505 228.02,-79.3497 226.731,-72.4694"/>
</g>
</g>
</svg>
