<?xml version="1.0" encoding="UTF-8" standalone="no"?>
<!DOCTYPE svg PUBLIC "-//W3C//DTD SVG 1.1//EN"
 "http://www.w3.org/Graphics/SVG/1.1/DTD/svg11.dtd">
<!-- Generated by graphviz version 2.38.0 (20140413.2041)
 -->
<!-- Title: Goban::move Pages: 1 -->
<svg width="479pt" height="104pt"
 viewBox="0.00 0.00 479.00 104.00" xmlns="http://www.w3.org/2000/svg" xmlns:xlink="http://www.w3.org/1999/xlink">
<g id="graph0" class="graph" transform="scale(1 1) rotate(0) translate(4 100)">
<title>Goban::move</title>
<!-- Node260 -->
<g id="node1" class="node"><title>Node260</title>
<polygon fill="#bfbfbf" stroke="black" points="0,-19.5 0,-38.5 74,-38.5 74,-19.5 0,-19.5"/>
<text text-anchor="middle" x="37" y="-26.5" font-family="Helvetica,sans-Serif" font-size="10.00">Goban::move</text>
</g>
<!-- Node261 -->
<g id="node2" class="node"><title>Node261</title>
<g id="a_node2"><a xlink:href="class_goban.html#a36ab256c9430e070b620052a0f13f051" target="_top" xlink:title="Goban::listFils">
<polygon fill="none" stroke="black" points="110,-38.5 110,-57.5 190,-57.5 190,-38.5 110,-38.5"/>
<text text-anchor="middle" x="150" y="-45.5" font-family="Helvetica,sans-Serif" font-size="10.00">Goban::listFils</text>
</a>
</g>
</g>
<!-- Node260&#45;&gt;Node261 -->
<g id="edge1" class="edge"><title>Node260&#45;&gt;Node261</title>
<path fill="none" stroke="midnightblue" d="M83.8991,-36.8566C92.4655,-38.3229 101.347,-39.8431 109.692,-41.2716"/>
<polygon fill="midnightblue" stroke="midnightblue" points="84.4857,-33.4062 74.0385,-35.1688 83.3046,-40.3058 84.4857,-33.4062"/>
</g>
<!-- Node264 -->
<g id="node5" class="node"><title>Node264</title>
<g id="a_node5"><a xlink:href="class_board.html#a5fda73da080403d8a71a8593d581c350" target="_top" xlink:title="Board::click">
<polygon fill="none" stroke="black" points="116,-0.5 116,-19.5 184,-19.5 184,-0.5 116,-0.5"/>
<text text-anchor="middle" x="150" y="-7.5" font-family="Helvetica,sans-Serif" font-size="10.00">Board::click</text>
</a>
</g>
</g>
<!-- Node260&#45;&gt;Node264 -->
<g id="edge4" class="edge"><title>Node260&#45;&gt;Node264</title>
<path fill="none" stroke="midnightblue" d="M84.0419,-21.1189C94.6838,-19.2974 105.804,-17.394 115.774,-15.6874"/>
<polygon fill="midnightblue" stroke="midnightblue" points="83.3046,-17.6942 74.0385,-22.8312 84.4857,-24.5938 83.3046,-17.6942"/>
</g>
<!-- Node262 -->
<g id="node3" class="node"><title>Node262</title>
<g id="a_node3"><a xlink:href="class_arbre.html#ac82e543d8cbf0aced4d741c346f9950d" target="_top" xlink:title="Arbre::Arbre">
<polygon fill="none" stroke="black" points="244.5,-76.5 244.5,-95.5 313.5,-95.5 313.5,-76.5 244.5,-76.5"/>
<text text-anchor="middle" x="279" y="-83.5" font-family="Helvetica,sans-Serif" font-size="10.00">Arbre::Arbre</text>
</a>
</g>
</g>
<!-- Node261&#45;&gt;Node262 -->
<g id="edge2" class="edge"><title>Node261&#45;&gt;Node262</title>
<path fill="none" stroke="midnightblue" d="M192.894,-60.5353C210.171,-65.7048 229.871,-71.5991 245.963,-76.4141"/>
<polygon fill="midnightblue" stroke="midnightblue" points="193.631,-57.1025 183.047,-57.589 191.624,-63.8088 193.631,-57.1025"/>
</g>
<!-- Node263 -->
<g id="node4" class="node"><title>Node263</title>
<g id="a_node4"><a xlink:href="class_arbre.html#a70585b1d341c1e0c262b2b4a4f769b6d" target="_top" xlink:title="Arbre::resetFils">
<polygon fill="none" stroke="black" points="237.5,-38.5 237.5,-57.5 320.5,-57.5 320.5,-38.5 237.5,-38.5"/>
<text text-anchor="middle" x="279" y="-45.5" font-family="Helvetica,sans-Serif" font-size="10.00">Arbre::resetFils</text>
</a>
</g>
</g>
<!-- Node261&#45;&gt;Node263 -->
<g id="edge3" class="edge"><title>Node261&#45;&gt;Node263</title>
<path fill="none" stroke="midnightblue" d="M200.257,-48C212.563,-48 225.622,-48 237.452,-48"/>
<polygon fill="midnightblue" stroke="midnightblue" points="200.141,-44.5001 190.14,-48 200.14,-51.5001 200.141,-44.5001"/>
</g>
<!-- Node265 -->
<g id="node6" class="node"><title>Node265</title>
<g id="a_node6"><a xlink:href="class_game__window.html#afa942088809bf10731bb31d0d37b878d" target="_top" xlink:title="Game_window::click">
<polygon fill="none" stroke="black" points="226,-0.5 226,-19.5 332,-19.5 332,-0.5 226,-0.5"/>
<text text-anchor="middle" x="279" y="-7.5" font-family="Helvetica,sans-Serif" font-size="10.00">Game_window::click</text>
</a>
</g>
</g>
<!-- Node264&#45;&gt;Node265 -->
<g id="edge5" class="edge"><title>Node264&#45;&gt;Node265</title>
<path fill="none" stroke="midnightblue" d="M194.307,-10C204.48,-10 215.424,-10 225.936,-10"/>
<polygon fill="midnightblue" stroke="midnightblue" points="194.036,-6.5001 184.036,-10 194.036,-13.5001 194.036,-6.5001"/>
</g>
<!-- Node266 -->
<g id="node7" class="node"><title>Node266</title>
<g id="a_node7"><a xlink:href="class_game__window.html#a555769f4e8511e45d6623658dc736be5" target="_top" xlink:title="Game_window::Run">
<polygon fill="none" stroke="black" points="368,-0.5 368,-19.5 471,-19.5 471,-0.5 368,-0.5"/>
<text text-anchor="middle" x="419.5" y="-7.5" font-family="Helvetica,sans-Serif" font-size="10.00">Game_window::Run</text>
</a>
</g>
</g>
<!-- Node265&#45;&gt;Node266 -->
<g id="edge6" class="edge"><title>Node265&#45;&gt;Node266</title>
<path fill="none" stroke="midnightblue" d="M342.594,-10C351.066,-10 359.672,-10 367.898,-10"/>
<polygon fill="midnightblue" stroke="midnightblue" points="342.361,-6.5001 332.361,-10 342.361,-13.5001 342.361,-6.5001"/>
</g>
</g>
</svg>
