<?xml version="1.0" encoding="UTF-8" standalone="no"?>
<!DOCTYPE svg PUBLIC "-//W3C//DTD SVG 1.1//EN"
 "http://www.w3.org/Graphics/SVG/1.1/DTD/svg11.dtd">
<!-- Generated by graphviz version 2.38.0 (20140413.2041)
 -->
<!-- Title: Board::click Pages: 1 -->
<svg width="845pt" height="351pt"
 viewBox="0.00 0.00 845.00 351.00" xmlns="http://www.w3.org/2000/svg" xmlns:xlink="http://www.w3.org/1999/xlink">
<g id="graph0" class="graph" transform="scale(1 1) rotate(0) translate(4 347)">
<title>Board::click</title>
<!-- Node23 -->
<g id="node1" class="node"><title>Node23</title>
<polygon fill="#bfbfbf" stroke="black" points="0,-171.5 0,-190.5 68,-190.5 68,-171.5 0,-171.5"/>
<text text-anchor="middle" x="34" y="-178.5" font-family="Helvetica,sans-Serif" font-size="10.00">Board::click</text>
</g>
<!-- Node24 -->
<g id="node2" class="node"><title>Node24</title>
<g id="a_node2"><a xlink:href="class_goban.html#a7dd1a7b53322bde2a831a923059e43a3" target="_top" xlink:title="Goban::move">
<polygon fill="none" stroke="black" points="304,-285.5 304,-304.5 378,-304.5 378,-285.5 304,-285.5"/>
<text text-anchor="middle" x="341" y="-292.5" font-family="Helvetica,sans-Serif" font-size="10.00">Goban::move</text>
</a>
</g>
</g>
<!-- Node23&#45;&gt;Node24 -->
<g id="edge1" class="edge"><title>Node23&#45;&gt;Node24</title>
<path fill="none" stroke="midnightblue" d="M43.8377,-190.637C56.0999,-203.414 79.5411,-225.768 104,-238 165.592,-268.802 244.691,-283.504 293.864,-290.111"/>
<polygon fill="midnightblue" stroke="midnightblue" points="293.521,-293.595 303.886,-291.401 294.414,-286.653 293.521,-293.595"/>
</g>
<!-- Node29 -->
<g id="node7" class="node"><title>Node29</title>
<g id="a_node7"><a xlink:href="class_goban.html#a8584a53688e7bcf9de7c4cf48454acdc" target="_top" xlink:title="Goban::rechercheGroupes">
<polygon fill="none" stroke="black" points="108.5,-133.5 108.5,-152.5 239.5,-152.5 239.5,-133.5 108.5,-133.5"/>
<text text-anchor="middle" x="174" y="-140.5" font-family="Helvetica,sans-Serif" font-size="10.00">Goban::rechercheGroupes</text>
</a>
</g>
</g>
<!-- Node23&#45;&gt;Node29 -->
<g id="edge7" class="edge"><title>Node23&#45;&gt;Node29</title>
<path fill="none" stroke="midnightblue" d="M68.0544,-171.898C86.1993,-166.902 108.945,-160.638 128.618,-155.221"/>
<polygon fill="midnightblue" stroke="midnightblue" points="129.578,-158.587 138.29,-152.558 127.719,-151.838 129.578,-158.587"/>
</g>
<!-- Node30 -->
<g id="node8" class="node"><title>Node30</title>
<g id="a_node8"><a xlink:href="class_goban.html#aefd43ab2cf0746f2f8c653d825bf080c" target="_top" xlink:title="Goban::afficheGroupes">
<polygon fill="none" stroke="black" points="116,-95.5 116,-114.5 232,-114.5 232,-95.5 116,-95.5"/>
<text text-anchor="middle" x="174" y="-102.5" font-family="Helvetica,sans-Serif" font-size="10.00">Goban::afficheGroupes</text>
</a>
</g>
</g>
<!-- Node23&#45;&gt;Node30 -->
<g id="edge8" class="edge"><title>Node23&#45;&gt;Node30</title>
<path fill="none" stroke="midnightblue" d="M43.8955,-171.476C56.2231,-158.828 79.7382,-136.618 104,-124 108.32,-121.753 112.934,-119.749 117.651,-117.966"/>
<polygon fill="midnightblue" stroke="midnightblue" points="119.097,-121.17 127.417,-114.61 116.822,-114.55 119.097,-121.17"/>
</g>
<!-- Node31 -->
<g id="node9" class="node"><title>Node31</title>
<g id="a_node9"><a xlink:href="class_goban.html#a7858b815885e4af36f05f9d26182cb07" target="_top" xlink:title="Goban::eliminateOppGroups">
<polygon fill="none" stroke="black" points="104,-171.5 104,-190.5 244,-190.5 244,-171.5 104,-171.5"/>
<text text-anchor="middle" x="174" y="-178.5" font-family="Helvetica,sans-Serif" font-size="10.00">Goban::eliminateOppGroups</text>
</a>
</g>
</g>
<!-- Node23&#45;&gt;Node31 -->
<g id="edge9" class="edge"><title>Node23&#45;&gt;Node31</title>
<path fill="none" stroke="midnightblue" d="M68.0544,-181C75.9336,-181 84.6803,-181 93.6663,-181"/>
<polygon fill="midnightblue" stroke="midnightblue" points="93.88,-184.5 103.88,-181 93.8799,-177.5 93.88,-184.5"/>
</g>
<!-- Node42 -->
<g id="node20" class="node"><title>Node42</title>
<g id="a_node20"><a xlink:href="class_board.html#a841a248dac4743611ba1825afd5d1297" target="_top" xlink:title="Board::load">
<polygon fill="none" stroke="black" points="141,-209.5 141,-228.5 207,-228.5 207,-209.5 141,-209.5"/>
<text text-anchor="middle" x="174" y="-216.5" font-family="Helvetica,sans-Serif" font-size="10.00">Board::load</text>
</a>
</g>
</g>
<!-- Node23&#45;&gt;Node42 -->
<g id="edge23" class="edge"><title>Node23&#45;&gt;Node42</title>
<path fill="none" stroke="midnightblue" d="M68.0544,-190.102C86.8814,-195.286 110.662,-201.834 130.824,-207.386"/>
<polygon fill="midnightblue" stroke="midnightblue" points="130.121,-210.823 140.691,-210.103 131.979,-204.074 130.121,-210.823"/>
</g>
<!-- Node25 -->
<g id="node3" class="node"><title>Node25</title>
<g id="a_node3"><a xlink:href="class_goban.html#a6c4b62a9469b3876d250ab94bcd562e5" target="_top" xlink:title="Goban::eliminateOppositeKO">
<polygon fill="none" stroke="black" points="590,-323.5 590,-342.5 733,-342.5 733,-323.5 590,-323.5"/>
<text text-anchor="middle" x="661.5" y="-330.5" font-family="Helvetica,sans-Serif" font-size="10.00">Goban::eliminateOppositeKO</text>
</a>
</g>
</g>
<!-- Node24&#45;&gt;Node25 -->
<g id="edge2" class="edge"><title>Node24&#45;&gt;Node25</title>
<path fill="none" stroke="midnightblue" d="M360.137,-304.582C378.99,-313.957 409.652,-327.594 438,-333 484.369,-341.843 537.17,-342.244 579.696,-340.247"/>
<polygon fill="midnightblue" stroke="midnightblue" points="579.913,-343.74 589.717,-339.724 579.548,-336.75 579.913,-343.74"/>
</g>
<!-- Node26 -->
<g id="node4" class="node"><title>Node26</title>
<g id="a_node4"><a xlink:href="class_etat.html#aa88987ca54aee676717f05e4570c0aec" target="_top" xlink:title="Etat::setVal">
<polygon fill="none" stroke="black" points="769,-209.5 769,-228.5 837,-228.5 837,-209.5 769,-209.5"/>
<text text-anchor="middle" x="803" y="-216.5" font-family="Helvetica,sans-Serif" font-size="10.00">Etat::setVal</text>
</a>
</g>
</g>
<!-- Node24&#45;&gt;Node26 -->
<g id="edge5" class="edge"><title>Node24&#45;&gt;Node26</title>
<path fill="none" stroke="midnightblue" d="M378.095,-289.036C461.812,-275.205 668.913,-240.988 758.997,-226.105"/>
<polygon fill="midnightblue" stroke="midnightblue" points="759.582,-229.556 768.877,-224.472 758.441,-222.649 759.582,-229.556"/>
</g>
<!-- Node27 -->
<g id="node5" class="node"><title>Node27</title>
<g id="a_node5"><a xlink:href="class_goban.html#a29aaf8df380fe614845d48cba057747c" target="_top" xlink:title="Goban::coord">
<polygon fill="none" stroke="black" points="458.5,-228.5 458.5,-247.5 533.5,-247.5 533.5,-228.5 458.5,-228.5"/>
<text text-anchor="middle" x="496" y="-235.5" font-family="Helvetica,sans-Serif" font-size="10.00">Goban::coord</text>
</a>
</g>
</g>
<!-- Node24&#45;&gt;Node27 -->
<g id="edge4" class="edge"><title>Node24&#45;&gt;Node27</title>
<path fill="none" stroke="midnightblue" d="M367.609,-285.459C392.873,-276.047 431.69,-261.586 459.837,-251.1"/>
<polygon fill="midnightblue" stroke="midnightblue" points="461.159,-254.343 469.308,-247.572 458.715,-247.783 461.159,-254.343"/>
</g>
<!-- Node28 -->
<g id="node6" class="node"><title>Node28</title>
<g id="a_node6"><a xlink:href="class_history.html#a90222df7f73ae9cfda56bdb66cb1985e" target="_top" xlink:title="Add new state in history. ">
<polygon fill="none" stroke="black" points="461.5,-304.5 461.5,-323.5 530.5,-323.5 530.5,-304.5 461.5,-304.5"/>
<text text-anchor="middle" x="496" y="-311.5" font-family="Helvetica,sans-Serif" font-size="10.00">History::add</text>
</a>
</g>
</g>
<!-- Node24&#45;&gt;Node28 -->
<g id="edge6" class="edge"><title>Node24&#45;&gt;Node28</title>
<path fill="none" stroke="midnightblue" d="M378.259,-299.503C400.099,-302.215 428.056,-305.687 451.135,-308.553"/>
<polygon fill="midnightblue" stroke="midnightblue" points="451.002,-312.063 461.357,-309.822 451.865,-305.116 451.002,-312.063"/>
</g>
<!-- Node25&#45;&gt;Node26 -->
<g id="edge3" class="edge"><title>Node25&#45;&gt;Node26</title>
<path fill="none" stroke="midnightblue" d="M681.001,-323.403C695.729,-315.375 716.529,-303.148 733,-290 753.402,-273.714 773.881,-251.763 787.166,-236.6"/>
<polygon fill="midnightblue" stroke="midnightblue" points="789.88,-238.812 793.76,-228.954 784.579,-234.241 789.88,-238.812"/>
</g>
<!-- Node32 -->
<g id="node10" class="node"><title>Node32</title>
<g id="a_node10"><a xlink:href="class_goban.html#a1ec70508987f66afff5f8df381731fac" target="_top" xlink:title="Goban::eliminateGroups">
<polygon fill="none" stroke="black" points="280,-133.5 280,-152.5 402,-152.5 402,-133.5 280,-133.5"/>
<text text-anchor="middle" x="341" y="-140.5" font-family="Helvetica,sans-Serif" font-size="10.00">Goban::eliminateGroups</text>
</a>
</g>
</g>
<!-- Node31&#45;&gt;Node32 -->
<g id="edge10" class="edge"><title>Node31&#45;&gt;Node32</title>
<path fill="none" stroke="midnightblue" d="M216.636,-171.411C238.508,-166.374 265.506,-160.156 288.664,-154.823"/>
<polygon fill="midnightblue" stroke="midnightblue" points="289.704,-158.175 298.663,-152.52 288.133,-151.354 289.704,-158.175"/>
</g>
<!-- Node32&#45;&gt;Node26 -->
<g id="edge20" class="edge"><title>Node32&#45;&gt;Node26</title>
<path fill="none" stroke="midnightblue" d="M402.206,-138.275C444.833,-136.078 503.223,-135.394 554,-143 633.621,-154.926 722.987,-187.262 769.654,-205.683"/>
<polygon fill="midnightblue" stroke="midnightblue" points="768.36,-208.935 778.945,-209.39 770.955,-202.433 768.36,-208.935"/>
</g>
<!-- Node32&#45;&gt;Node27 -->
<g id="edge19" class="edge"><title>Node32&#45;&gt;Node27</title>
<path fill="none" stroke="midnightblue" d="M385.151,-152.569C391.158,-155.037 396.982,-158.129 402,-162 425.724,-180.302 414.415,-200.52 438,-219 441.372,-221.642 445.128,-223.925 449.059,-225.896"/>
<polygon fill="midnightblue" stroke="midnightblue" points="447.882,-229.2 458.45,-229.953 450.658,-222.774 447.882,-229.2"/>
</g>
<!-- Node33 -->
<g id="node11" class="node"><title>Node33</title>
<g id="a_node11"><a xlink:href="class_goban.html#a84f36324eb9ddc29f522d481f04c13e7" target="_top" xlink:title="Goban::listOfLiberties">
<polygon fill="none" stroke="black" points="441,-57.5 441,-76.5 551,-76.5 551,-57.5 441,-57.5"/>
<text text-anchor="middle" x="496" y="-64.5" font-family="Helvetica,sans-Serif" font-size="10.00">Goban::listOfLiberties</text>
</a>
</g>
</g>
<!-- Node32&#45;&gt;Node33 -->
<g id="edge11" class="edge"><title>Node32&#45;&gt;Node33</title>
<path fill="none" stroke="midnightblue" d="M361.378,-133.375C387.934,-120.183 435.827,-96.3932 466.482,-81.166"/>
<polygon fill="midnightblue" stroke="midnightblue" points="468.381,-84.1306 475.78,-76.5473 465.267,-77.8615 468.381,-84.1306"/>
</g>
<!-- Node40 -->
<g id="node18" class="node"><title>Node40</title>
<g id="a_node18"><a xlink:href="class_goban.html#a1d3ccccfb3f539e0271ee321686d9ef4" target="_top" xlink:title="Goban::setScoreWhite">
<polygon fill="none" stroke="black" points="438,-190.5 438,-209.5 554,-209.5 554,-190.5 438,-190.5"/>
<text text-anchor="middle" x="496" y="-197.5" font-family="Helvetica,sans-Serif" font-size="10.00">Goban::setScoreWhite</text>
</a>
</g>
</g>
<!-- Node32&#45;&gt;Node40 -->
<g id="edge21" class="edge"><title>Node32&#45;&gt;Node40</title>
<path fill="none" stroke="midnightblue" d="M375.706,-152.509C384.385,-155.273 393.633,-158.501 402,-162 418.691,-168.981 421.363,-173.893 438,-181 443.036,-183.151 448.404,-185.219 453.756,-187.147"/>
<polygon fill="midnightblue" stroke="midnightblue" points="452.701,-190.486 463.296,-190.456 454.994,-183.873 452.701,-190.486"/>
</g>
<!-- Node41 -->
<g id="node19" class="node"><title>Node41</title>
<g id="a_node19"><a xlink:href="class_goban.html#a868b44b0c3ebec7ca88082ebe85a2960" target="_top" xlink:title="Goban::setScoreBlack">
<polygon fill="none" stroke="black" points="438.5,-152.5 438.5,-171.5 553.5,-171.5 553.5,-152.5 438.5,-152.5"/>
<text text-anchor="middle" x="496" y="-159.5" font-family="Helvetica,sans-Serif" font-size="10.00">Goban::setScoreBlack</text>
</a>
</g>
</g>
<!-- Node32&#45;&gt;Node41 -->
<g id="edge22" class="edge"><title>Node32&#45;&gt;Node41</title>
<path fill="none" stroke="midnightblue" d="M402.031,-150.455C410.575,-151.516 419.407,-152.613 428.073,-153.689"/>
<polygon fill="midnightblue" stroke="midnightblue" points="427.787,-157.18 438.142,-154.939 428.65,-150.233 427.787,-157.18"/>
</g>
<!-- Node34 -->
<g id="node12" class="node"><title>Node34</title>
<g id="a_node12"><a xlink:href="class_etat.html#aa25e66b110bc835523819392435e78c6" target="_top" xlink:title="Etat::getX">
<polygon fill="none" stroke="black" points="632,-38.5 632,-57.5 691,-57.5 691,-38.5 632,-38.5"/>
<text text-anchor="middle" x="661.5" y="-45.5" font-family="Helvetica,sans-Serif" font-size="10.00">Etat::getX</text>
</a>
</g>
</g>
<!-- Node33&#45;&gt;Node34 -->
<g id="edge12" class="edge"><title>Node33&#45;&gt;Node34</title>
<path fill="none" stroke="midnightblue" d="M551.443,-60.6733C574.489,-57.9952 600.806,-54.9369 621.813,-52.4957"/>
<polygon fill="midnightblue" stroke="midnightblue" points="622.436,-55.947 631.965,-51.316 621.628,-48.9938 622.436,-55.947"/>
</g>
<!-- Node35 -->
<g id="node13" class="node"><title>Node35</title>
<g id="a_node13"><a xlink:href="class_etat.html#a3e3e915f2261c83989a983e84b1273c1" target="_top" xlink:title="Etat::getY">
<polygon fill="none" stroke="black" points="631,-0.5 631,-19.5 692,-19.5 692,-0.5 631,-0.5"/>
<text text-anchor="middle" x="661.5" y="-7.5" font-family="Helvetica,sans-Serif" font-size="10.00">Etat::getY</text>
</a>
</g>
</g>
<!-- Node33&#45;&gt;Node35 -->
<g id="edge13" class="edge"><title>Node33&#45;&gt;Node35</title>
<path fill="none" stroke="midnightblue" d="M518.138,-57.4796C536.805,-49.2863 564.881,-37.4797 590,-29 599.909,-25.655 610.753,-22.4927 620.9,-19.7428"/>
<polygon fill="midnightblue" stroke="midnightblue" points="621.981,-23.0774 630.755,-17.1388 620.192,-16.3097 621.981,-23.0774"/>
</g>
<!-- Node36 -->
<g id="node14" class="node"><title>Node36</title>
<g id="a_node14"><a xlink:href="class_goban.html#a0e2596110cdbb9b007b2b2fd8d5a9973" target="_top" xlink:title="Goban::DefineStone">
<polygon fill="none" stroke="black" points="609.5,-76.5 609.5,-95.5 713.5,-95.5 713.5,-76.5 609.5,-76.5"/>
<text text-anchor="middle" x="661.5" y="-83.5" font-family="Helvetica,sans-Serif" font-size="10.00">Goban::DefineStone</text>
</a>
</g>
</g>
<!-- Node33&#45;&gt;Node36 -->
<g id="edge14" class="edge"><title>Node33&#45;&gt;Node36</title>
<path fill="none" stroke="midnightblue" d="M551.443,-73.3267C566.76,-75.1067 583.522,-77.0545 599.209,-78.8775"/>
<polygon fill="midnightblue" stroke="midnightblue" points="599,-82.3766 609.337,-80.0544 599.808,-75.4234 599,-82.3766"/>
</g>
<!-- Node36&#45;&gt;Node26 -->
<g id="edge17" class="edge"><title>Node36&#45;&gt;Node26</title>
<path fill="none" stroke="midnightblue" d="M705.864,-95.6217C715.439,-99.093 725.078,-103.759 733,-110 763.496,-134.026 784.33,-175.493 794.604,-199.764"/>
<polygon fill="midnightblue" stroke="midnightblue" points="791.468,-201.345 798.468,-209.297 797.955,-198.715 791.468,-201.345"/>
</g>
<!-- Node37 -->
<g id="node15" class="node"><title>Node37</title>
<g id="a_node15"><a xlink:href="class_etat.html#ac020c4fe222274ac849a03fc8f19a99a" target="_top" xlink:title="Etat::setX">
<polygon fill="none" stroke="black" points="773.5,-76.5 773.5,-95.5 832.5,-95.5 832.5,-76.5 773.5,-76.5"/>
<text text-anchor="middle" x="803" y="-83.5" font-family="Helvetica,sans-Serif" font-size="10.00">Etat::setX</text>
</a>
</g>
</g>
<!-- Node36&#45;&gt;Node37 -->
<g id="edge15" class="edge"><title>Node36&#45;&gt;Node37</title>
<path fill="none" stroke="midnightblue" d="M713.653,-86C729.953,-86 747.715,-86 763.01,-86"/>
<polygon fill="midnightblue" stroke="midnightblue" points="763.156,-89.5001 773.156,-86 763.156,-82.5001 763.156,-89.5001"/>
</g>
<!-- Node38 -->
<g id="node16" class="node"><title>Node38</title>
<g id="a_node16"><a xlink:href="class_etat.html#a8a54fc9ecb1b97d84d2f1f259e3bf70e" target="_top" xlink:title="Etat::setY">
<polygon fill="none" stroke="black" points="772.5,-38.5 772.5,-57.5 833.5,-57.5 833.5,-38.5 772.5,-38.5"/>
<text text-anchor="middle" x="803" y="-45.5" font-family="Helvetica,sans-Serif" font-size="10.00">Etat::setY</text>
</a>
</g>
</g>
<!-- Node36&#45;&gt;Node38 -->
<g id="edge16" class="edge"><title>Node36&#45;&gt;Node38</title>
<path fill="none" stroke="midnightblue" d="M698.014,-76.4694C709.211,-73.4535 721.626,-70.0987 733,-67 742.609,-64.3822 752.966,-61.5409 762.659,-58.8729"/>
<polygon fill="midnightblue" stroke="midnightblue" points="763.751,-62.2026 772.462,-56.1718 761.891,-55.4541 763.751,-62.2026"/>
</g>
<!-- Node39 -->
<g id="node17" class="node"><title>Node39</title>
<g id="a_node17"><a xlink:href="class_goban.html#a579840586df08a58983f6b497979344b" target="_top" xlink:title="Goban::ctoi">
<polygon fill="none" stroke="black" points="769.5,-114.5 769.5,-133.5 836.5,-133.5 836.5,-114.5 769.5,-114.5"/>
<text text-anchor="middle" x="803" y="-121.5" font-family="Helvetica,sans-Serif" font-size="10.00">Goban::ctoi</text>
</a>
</g>
</g>
<!-- Node36&#45;&gt;Node39 -->
<g id="edge18" class="edge"><title>Node36&#45;&gt;Node39</title>
<path fill="none" stroke="midnightblue" d="M697.702,-95.589C716.483,-100.705 739.735,-107.039 759.515,-112.427"/>
<polygon fill="midnightblue" stroke="midnightblue" points="758.637,-115.815 769.205,-115.067 760.477,-109.061 758.637,-115.815"/>
</g>
<!-- Node42&#45;&gt;Node27 -->
<g id="edge25" class="edge"><title>Node42&#45;&gt;Node27</title>
<path fill="none" stroke="midnightblue" d="M207.43,-226.418C228.078,-230.755 255.46,-235.798 280,-238 337.822,-243.189 404.744,-242.073 448.366,-240.398"/>
<polygon fill="midnightblue" stroke="midnightblue" points="448.543,-243.894 458.391,-239.987 448.256,-236.899 448.543,-243.894"/>
</g>
<!-- Node43 -->
<g id="node21" class="node"><title>Node43</title>
<g id="a_node21"><a xlink:href="class_square.html#a5fa0cbfce721c687308eec8e1a029d25" target="_top" xlink:title="Square::setValue">
<polygon fill="none" stroke="black" points="295,-209.5 295,-228.5 387,-228.5 387,-209.5 295,-209.5"/>
<text text-anchor="middle" x="341" y="-216.5" font-family="Helvetica,sans-Serif" font-size="10.00">Square::setValue</text>
</a>
</g>
</g>
<!-- Node42&#45;&gt;Node43 -->
<g id="edge24" class="edge"><title>Node42&#45;&gt;Node43</title>
<path fill="none" stroke="midnightblue" d="M207.205,-219C229.229,-219 258.985,-219 284.747,-219"/>
<polygon fill="midnightblue" stroke="midnightblue" points="284.768,-222.5 294.768,-219 284.768,-215.5 284.768,-222.5"/>
</g>
<!-- Node44 -->
<g id="node22" class="node"><title>Node44</title>
<g id="a_node22"><a xlink:href="class_etat.html#ac0b81bbcf64cb3cc574e5a9dcdf94382" target="_top" xlink:title="Etat::getVal">
<polygon fill="none" stroke="black" points="307,-171.5 307,-190.5 375,-190.5 375,-171.5 307,-171.5"/>
<text text-anchor="middle" x="341" y="-178.5" font-family="Helvetica,sans-Serif" font-size="10.00">Etat::getVal</text>
</a>
</g>
</g>
<!-- Node42&#45;&gt;Node44 -->
<g id="edge26" class="edge"><title>Node42&#45;&gt;Node44</title>
<path fill="none" stroke="midnightblue" d="M207.205,-211.583C232.765,-205.697 268.739,-197.412 296.799,-190.949"/>
<polygon fill="midnightblue" stroke="midnightblue" points="297.785,-194.314 306.745,-188.659 296.214,-187.492 297.785,-194.314"/>
</g>
</g>
</svg>
