<?xml version="1.0" encoding="UTF-8" standalone="no"?>
<!DOCTYPE svg PUBLIC "-//W3C//DTD SVG 1.1//EN"
 "http://www.w3.org/Graphics/SVG/1.1/DTD/svg11.dtd">
<!-- Generated by graphviz version 2.38.0 (20140413.2041)
 -->
<!-- Title: Arbre::setFilsA Pages: 1 -->
<svg width="564pt" height="104pt"
 viewBox="0.00 0.00 564.00 104.00" xmlns="http://www.w3.org/2000/svg" xmlns:xlink="http://www.w3.org/1999/xlink">
<g id="graph0" class="graph" transform="scale(1 1) rotate(0) translate(4 100)">
<title>Arbre::setFilsA</title>
<!-- Node155 -->
<g id="node1" class="node"><title>Node155</title>
<polygon fill="#bfbfbf" stroke="black" points="0,-38.5 0,-57.5 82,-57.5 82,-38.5 0,-38.5"/>
<text text-anchor="middle" x="41" y="-45.5" font-family="Helvetica,sans-Serif" font-size="10.00">Arbre::setFilsA</text>
</g>
<!-- Node156 -->
<g id="node2" class="node"><title>Node156</title>
<g id="a_node2"><a xlink:href="class_i_a.html#a42202360406fe67babfd01a9b7902fd2" target="_top" xlink:title="IA::Tsumego_naif">
<polygon fill="none" stroke="black" points="134.5,-76.5 134.5,-95.5 226.5,-95.5 226.5,-76.5 134.5,-76.5"/>
<text text-anchor="middle" x="180.5" y="-83.5" font-family="Helvetica,sans-Serif" font-size="10.00">IA::Tsumego_naif</text>
</a>
</g>
</g>
<!-- Node155&#45;&gt;Node156 -->
<g id="edge1" class="edge"><title>Node155&#45;&gt;Node156</title>
<path fill="none" stroke="midnightblue" d="M86.5729,-60.3183C105.465,-65.5393 127.147,-71.5316 144.814,-76.4141"/>
<polygon fill="midnightblue" stroke="midnightblue" points="87.2681,-56.8793 76.6971,-57.589 85.4034,-63.6264 87.2681,-56.8793"/>
</g>
<!-- Node157 -->
<g id="node3" class="node"><title>Node157</title>
<g id="a_node3"><a xlink:href="class_i_a.html#af1f6e5abe41a2225b17ca319c1fc0e4e" target="_top" xlink:title="IA::Tsumego_abr">
<polygon fill="none" stroke="black" points="135.5,-38.5 135.5,-57.5 225.5,-57.5 225.5,-38.5 135.5,-38.5"/>
<text text-anchor="middle" x="180.5" y="-45.5" font-family="Helvetica,sans-Serif" font-size="10.00">IA::Tsumego_abr</text>
</a>
</g>
</g>
<!-- Node155&#45;&gt;Node157 -->
<g id="edge2" class="edge"><title>Node155&#45;&gt;Node157</title>
<path fill="none" stroke="midnightblue" d="M92.1681,-48C106.265,-48 121.488,-48 135.215,-48"/>
<polygon fill="midnightblue" stroke="midnightblue" points="92.1404,-44.5001 82.1403,-48 92.1403,-51.5001 92.1404,-44.5001"/>
</g>
<!-- Node161 -->
<g id="node7" class="node"><title>Node161</title>
<g id="a_node7"><a xlink:href="class_i_a.html#a5d86a3548f2410f7fc0676b89d07f4fd" target="_top" xlink:title="IA::Tsumego_compresse">
<polygon fill="none" stroke="black" points="118,-0.5 118,-19.5 243,-19.5 243,-0.5 118,-0.5"/>
<text text-anchor="middle" x="180.5" y="-7.5" font-family="Helvetica,sans-Serif" font-size="10.00">IA::Tsumego_compresse</text>
</a>
</g>
</g>
<!-- Node155&#45;&gt;Node161 -->
<g id="edge6" class="edge"><title>Node155&#45;&gt;Node161</title>
<path fill="none" stroke="midnightblue" d="M86.5729,-35.6817C105.465,-30.4607 127.147,-24.4684 144.814,-19.5859"/>
<polygon fill="midnightblue" stroke="midnightblue" points="85.4034,-32.3736 76.6971,-38.411 87.2681,-39.1207 85.4034,-32.3736"/>
</g>
<!-- Node158 -->
<g id="node4" class="node"><title>Node158</title>
<g id="a_node4"><a xlink:href="class_i_a.html#a364aef554d81e9a93bff08c28d437497" target="_top" xlink:title="IA::Tsumego">
<polygon fill="none" stroke="black" points="296.5,-57.5 296.5,-76.5 367.5,-76.5 367.5,-57.5 296.5,-57.5"/>
<text text-anchor="middle" x="332" y="-64.5" font-family="Helvetica,sans-Serif" font-size="10.00">IA::Tsumego</text>
</a>
</g>
</g>
<!-- Node157&#45;&gt;Node158 -->
<g id="edge3" class="edge"><title>Node157&#45;&gt;Node158</title>
<path fill="none" stroke="midnightblue" d="M235.582,-54.8733C255.816,-57.4449 278.243,-60.295 296.267,-62.5858"/>
<polygon fill="midnightblue" stroke="midnightblue" points="235.908,-51.3866 225.546,-53.5979 235.025,-58.3308 235.908,-51.3866"/>
</g>
<!-- Node160 -->
<g id="node6" class="node"><title>Node160</title>
<g id="a_node6"><a xlink:href="class_i_a.html#a6f616b7d3d9d39eef4780b7a03226260" target="_top" xlink:title="IA::Tsumego_abrFils">
<polygon fill="none" stroke="black" points="279,-19.5 279,-38.5 385,-38.5 385,-19.5 279,-19.5"/>
<text text-anchor="middle" x="332" y="-26.5" font-family="Helvetica,sans-Serif" font-size="10.00">IA::Tsumego_abrFils</text>
</a>
</g>
</g>
<!-- Node157&#45;&gt;Node160 -->
<g id="edge5" class="edge"><title>Node157&#45;&gt;Node160</title>
<path fill="none" stroke="midnightblue" d="M235.589,-41.1259C249.682,-39.3347 264.838,-37.4085 278.83,-35.6303"/>
<polygon fill="midnightblue" stroke="midnightblue" points="235.025,-37.6692 225.546,-42.4021 235.908,-44.6134 235.025,-37.6692"/>
</g>
<!-- Node159 -->
<g id="node5" class="node"><title>Node159</title>
<g id="a_node5"><a xlink:href="class_go___solver.html#a6ca744f1f4586c3f90f2e47915034baf" target="_top" xlink:title="Go_Solver::launchTsumego">
<polygon fill="none" stroke="black" points="421,-57.5 421,-76.5 556,-76.5 556,-57.5 421,-57.5"/>
<text text-anchor="middle" x="488.5" y="-64.5" font-family="Helvetica,sans-Serif" font-size="10.00">Go_Solver::launchTsumego</text>
</a>
</g>
</g>
<!-- Node158&#45;&gt;Node159 -->
<g id="edge4" class="edge"><title>Node158&#45;&gt;Node159</title>
<path fill="none" stroke="midnightblue" d="M378.056,-67C391.475,-67 406.473,-67 420.958,-67"/>
<polygon fill="midnightblue" stroke="midnightblue" points="377.673,-63.5001 367.673,-67 377.673,-70.5001 377.673,-63.5001"/>
</g>
</g>
</svg>
