<?xml version="1.0" encoding="UTF-8" standalone="no"?>
<!DOCTYPE svg PUBLIC "-//W3C//DTD SVG 1.1//EN"
 "http://www.w3.org/Graphics/SVG/1.1/DTD/svg11.dtd">
<!-- Generated by graphviz version 2.38.0 (20140413.2041)
 -->
<!-- Title: Go_Solver::loadMenu1 Pages: 1 -->
<svg width="470pt" height="104pt"
 viewBox="0.00 0.00 470.00 104.00" xmlns="http://www.w3.org/2000/svg" xmlns:xlink="http://www.w3.org/1999/xlink">
<g id="graph0" class="graph" transform="scale(1 1) rotate(0) translate(4 100)">
<title>Go_Solver::loadMenu1</title>
<!-- Node72 -->
<g id="node1" class="node"><title>Node72</title>
<polygon fill="#bfbfbf" stroke="black" points="0,-38.5 0,-57.5 114,-57.5 114,-38.5 0,-38.5"/>
<text text-anchor="middle" x="57" y="-45.5" font-family="Helvetica,sans-Serif" font-size="10.00">Go_Solver::loadMenu1</text>
</g>
<!-- Node73 -->
<g id="node2" class="node"><title>Node73</title>
<g id="a_node2"><a xlink:href="class_menu__simple.html#a1273e6743ee892cd8651968efd595b73" target="_top" xlink:title="Menu_simple::setItemsFonts">
<polygon fill="none" stroke="black" points="156,-76.5 156,-95.5 299,-95.5 299,-76.5 156,-76.5"/>
<text text-anchor="middle" x="227.5" y="-83.5" font-family="Helvetica,sans-Serif" font-size="10.00">Menu_simple::setItemsFonts</text>
</a>
</g>
</g>
<!-- Node72&#45;&gt;Node73 -->
<g id="edge1" class="edge"><title>Node72&#45;&gt;Node73</title>
<path fill="none" stroke="midnightblue" d="M100.52,-57.589C122.955,-62.6487 150.673,-68.8996 174.393,-74.2488"/>
<polygon fill="midnightblue" stroke="midnightblue" points="173.761,-77.6942 184.286,-76.4799 175.301,-70.8657 173.761,-77.6942"/>
</g>
<!-- Node74 -->
<g id="node3" class="node"><title>Node74</title>
<g id="a_node3"><a xlink:href="class_menu__simple.html#a0fc5b4ec10c844f34495364f70cd333e" target="_top" xlink:title="Menu_simple::addItem">
<polygon fill="none" stroke="black" points="170,-38.5 170,-57.5 285,-57.5 285,-38.5 170,-38.5"/>
<text text-anchor="middle" x="227.5" y="-45.5" font-family="Helvetica,sans-Serif" font-size="10.00">Menu_simple::addItem</text>
</a>
</g>
</g>
<!-- Node72&#45;&gt;Node74 -->
<g id="edge2" class="edge"><title>Node72&#45;&gt;Node74</title>
<path fill="none" stroke="midnightblue" d="M114.108,-48C128.654,-48 144.464,-48 159.508,-48"/>
<polygon fill="midnightblue" stroke="midnightblue" points="159.775,-51.5001 169.775,-48 159.775,-44.5001 159.775,-51.5001"/>
</g>
<!-- Node76 -->
<g id="node5" class="node"><title>Node76</title>
<g id="a_node5"><a xlink:href="class_menu__simple.html#a4717470decb5666cbac7aa879aade5fa" target="_top" xlink:title="Menu_simple::setItemsTextures">
<polygon fill="none" stroke="black" points="150,-0.5 150,-19.5 305,-19.5 305,-0.5 150,-0.5"/>
<text text-anchor="middle" x="227.5" y="-7.5" font-family="Helvetica,sans-Serif" font-size="10.00">Menu_simple::setItemsTextures</text>
</a>
</g>
</g>
<!-- Node72&#45;&gt;Node76 -->
<g id="edge4" class="edge"><title>Node72&#45;&gt;Node76</title>
<path fill="none" stroke="midnightblue" d="M100.52,-38.411C122.955,-33.3513 150.673,-27.1004 174.393,-21.7512"/>
<polygon fill="midnightblue" stroke="midnightblue" points="175.301,-25.1343 184.286,-19.5201 173.761,-18.3058 175.301,-25.1343"/>
</g>
<!-- Node75 -->
<g id="node4" class="node"><title>Node75</title>
<g id="a_node4"><a xlink:href="class_choice___simple.html#a035e32f90e4561b666b6571bce06e207" target="_top" xlink:title="Choice_Simple::setFont">
<polygon fill="none" stroke="black" points="341,-38.5 341,-57.5 462,-57.5 462,-38.5 341,-38.5"/>
<text text-anchor="middle" x="401.5" y="-45.5" font-family="Helvetica,sans-Serif" font-size="10.00">Choice_Simple::setFont</text>
</a>
</g>
</g>
<!-- Node74&#45;&gt;Node75 -->
<g id="edge3" class="edge"><title>Node74&#45;&gt;Node75</title>
<path fill="none" stroke="midnightblue" d="M285.296,-48C299.766,-48 315.487,-48 330.53,-48"/>
<polygon fill="midnightblue" stroke="midnightblue" points="330.812,-51.5001 340.812,-48 330.812,-44.5001 330.812,-51.5001"/>
</g>
</g>
</svg>
