<?xml version="1.0" encoding="UTF-8" standalone="no"?>
<!DOCTYPE svg PUBLIC "-//W3C//DTD SVG 1.1//EN"
 "http://www.w3.org/Graphics/SVG/1.1/DTD/svg11.dtd">
<!-- Generated by graphviz version 2.38.0 (20140413.2041)
 -->
<!-- Title: Go_Solver::turnSoundsUp Pages: 1 -->
<svg width="596pt" height="66pt"
 viewBox="0.00 0.00 596.00 66.00" xmlns="http://www.w3.org/2000/svg" xmlns:xlink="http://www.w3.org/1999/xlink">
<g id="graph0" class="graph" transform="scale(1 1) rotate(0) translate(4 62)">
<title>Go_Solver::turnSoundsUp</title>
<!-- Node149 -->
<g id="node1" class="node"><title>Node149</title>
<polygon fill="#bfbfbf" stroke="black" points="0,-19.5 0,-38.5 128,-38.5 128,-19.5 0,-19.5"/>
<text text-anchor="middle" x="64" y="-26.5" font-family="Helvetica,sans-Serif" font-size="10.00">Go_Solver::turnSoundsUp</text>
</g>
<!-- Node150 -->
<g id="node2" class="node"><title>Node150</title>
<g id="a_node2"><a xlink:href="class_game__window.html#a1ba4f62d58089e3de5da00538889cb25" target="_top" xlink:title="Game_window::turnSoundsUp">
<polygon fill="none" stroke="black" points="164,-19.5 164,-38.5 311,-38.5 311,-19.5 164,-19.5"/>
<text text-anchor="middle" x="237.5" y="-26.5" font-family="Helvetica,sans-Serif" font-size="10.00">Game_window::turnSoundsUp</text>
</a>
</g>
</g>
<!-- Node149&#45;&gt;Node150 -->
<g id="edge1" class="edge"><title>Node149&#45;&gt;Node150</title>
<path fill="none" stroke="midnightblue" d="M128.373,-29C136.671,-29 145.27,-29 153.828,-29"/>
<polygon fill="midnightblue" stroke="midnightblue" points="153.836,-32.5001 163.836,-29 153.836,-25.5001 153.836,-32.5001"/>
</g>
<!-- Node151 -->
<g id="node3" class="node"><title>Node151</title>
<g id="a_node3"><a xlink:href="class_board.html#a77d145afa8d71a85c4097aca08c30525" target="_top" xlink:title="Board::turnSoundsUp">
<polygon fill="none" stroke="black" points="347,-19.5 347,-38.5 457,-38.5 457,-19.5 347,-19.5"/>
<text text-anchor="middle" x="402" y="-26.5" font-family="Helvetica,sans-Serif" font-size="10.00">Board::turnSoundsUp</text>
</a>
</g>
</g>
<!-- Node150&#45;&gt;Node151 -->
<g id="edge2" class="edge"><title>Node150&#45;&gt;Node151</title>
<path fill="none" stroke="midnightblue" d="M311.195,-29C319.726,-29 328.384,-29 336.788,-29"/>
<polygon fill="midnightblue" stroke="midnightblue" points="336.886,-32.5001 346.886,-29 336.886,-25.5001 336.886,-32.5001"/>
</g>
<!-- Node152 -->
<g id="node4" class="node"><title>Node152</title>
<g id="a_node4"><a xlink:href="class_board.html#a061962e73609a58802ad83674ec9b413" target="_top" xlink:title="Board::getVolume">
<polygon fill="none" stroke="black" points="493,-38.5 493,-57.5 588,-57.5 588,-38.5 493,-38.5"/>
<text text-anchor="middle" x="540.5" y="-45.5" font-family="Helvetica,sans-Serif" font-size="10.00">Board::getVolume</text>
</a>
</g>
</g>
<!-- Node151&#45;&gt;Node152 -->
<g id="edge3" class="edge"><title>Node151&#45;&gt;Node152</title>
<path fill="none" stroke="midnightblue" d="M457.341,-36.5639C465.692,-37.7263 474.333,-38.9292 482.735,-40.0987"/>
<polygon fill="midnightblue" stroke="midnightblue" points="482.443,-43.5917 492.83,-41.5038 483.408,-36.6585 482.443,-43.5917"/>
</g>
<!-- Node153 -->
<g id="node5" class="node"><title>Node153</title>
<g id="a_node5"><a xlink:href="class_board.html#a4450fe85fda29736cd835fed63d40a41" target="_top" xlink:title="Board::setVolume">
<polygon fill="none" stroke="black" points="493,-0.5 493,-19.5 588,-19.5 588,-0.5 493,-0.5"/>
<text text-anchor="middle" x="540.5" y="-7.5" font-family="Helvetica,sans-Serif" font-size="10.00">Board::setVolume</text>
</a>
</g>
</g>
<!-- Node151&#45;&gt;Node153 -->
<g id="edge4" class="edge"><title>Node151&#45;&gt;Node153</title>
<path fill="none" stroke="midnightblue" d="M457.341,-21.4361C465.692,-20.2737 474.333,-19.0708 482.735,-17.9013"/>
<polygon fill="midnightblue" stroke="midnightblue" points="483.408,-21.3415 492.83,-16.4962 482.443,-14.4083 483.408,-21.3415"/>
</g>
</g>
</svg>
