<?xml version="1.0" encoding="UTF-8" standalone="no"?>
<!DOCTYPE svg PUBLIC "-//W3C//DTD SVG 1.1//EN"
 "http://www.w3.org/Graphics/SVG/1.1/DTD/svg11.dtd">
<!-- Generated by graphviz version 2.38.0 (20140413.2041)
 -->
<!-- Title: Etat::getY Pages: 1 -->
<svg width="988pt" height="332pt"
 viewBox="0.00 0.00 988.00 332.00" xmlns="http://www.w3.org/2000/svg" xmlns:xlink="http://www.w3.org/1999/xlink">
<g id="graph0" class="graph" transform="scale(1 1) rotate(0) translate(4 328)">
<title>Etat::getY</title>
<!-- Node60 -->
<g id="node1" class="node"><title>Node60</title>
<polygon fill="#bfbfbf" stroke="black" points="0,-133.5 0,-152.5 61,-152.5 61,-133.5 0,-133.5"/>
<text text-anchor="middle" x="30.5" y="-140.5" font-family="Helvetica,sans-Serif" font-size="10.00">Etat::getY</text>
</g>
<!-- Node61 -->
<g id="node2" class="node"><title>Node61</title>
<g id="a_node2"><a xlink:href="_etat_8h.html#a1a56483b3043376a37fcc4b81aac6f98" target="_top" xlink:title="operator\&lt;\&lt;">
<polygon fill="none" stroke="black" points="127.5,-266.5 127.5,-285.5 191.5,-285.5 191.5,-266.5 127.5,-266.5"/>
<text text-anchor="middle" x="159.5" y="-273.5" font-family="Helvetica,sans-Serif" font-size="10.00">operator&lt;&lt;</text>
</a>
</g>
</g>
<!-- Node60&#45;&gt;Node61 -->
<g id="edge1" class="edge"><title>Node60&#45;&gt;Node61</title>
<path fill="none" stroke="midnightblue" d="M37.5182,-162.145C46.4575,-187.501 65.6451,-231.93 97,-257 105.641,-263.909 116.796,-268.316 127.228,-271.122"/>
<polygon fill="midnightblue" stroke="midnightblue" points="40.8023,-160.929 34.3088,-152.558 34.1644,-163.151 40.8023,-160.929"/>
</g>
<!-- Node62 -->
<g id="node3" class="node"><title>Node62</title>
<g id="a_node3"><a xlink:href="class_goban.html#a84f36324eb9ddc29f522d481f04c13e7" target="_top" xlink:title="Goban::listOfLiberties">
<polygon fill="none" stroke="black" points="104.5,-228.5 104.5,-247.5 214.5,-247.5 214.5,-228.5 104.5,-228.5"/>
<text text-anchor="middle" x="159.5" y="-235.5" font-family="Helvetica,sans-Serif" font-size="10.00">Goban::listOfLiberties</text>
</a>
</g>
</g>
<!-- Node60&#45;&gt;Node62 -->
<g id="edge2" class="edge"><title>Node60&#45;&gt;Node62</title>
<path fill="none" stroke="midnightblue" d="M44.2932,-160.956C56.3451,-176.761 75.6938,-199.459 97,-214 105.709,-219.944 116.102,-224.715 125.842,-228.389"/>
<polygon fill="midnightblue" stroke="midnightblue" points="46.8428,-158.518 38.0807,-152.562 41.216,-162.682 46.8428,-158.518"/>
</g>
<!-- Node66 -->
<g id="node7" class="node"><title>Node66</title>
<g id="a_node7"><a xlink:href="class_goban.html#a8b95ea2b51c078381562e361ff7febac" target="_top" xlink:title="Goban::isSuicide">
<polygon fill="none" stroke="black" points="600,-190.5 600,-209.5 691,-209.5 691,-190.5 600,-190.5"/>
<text text-anchor="middle" x="645.5" y="-197.5" font-family="Helvetica,sans-Serif" font-size="10.00">Goban::isSuicide</text>
</a>
</g>
</g>
<!-- Node60&#45;&gt;Node66 -->
<g id="edge14" class="edge"><title>Node60&#45;&gt;Node66</title>
<path fill="none" stroke="midnightblue" d="M51.905,-158.363C64.2616,-166.735 80.7338,-176.319 97,-181 190.914,-208.025 486.851,-203.905 599.953,-201.229"/>
<polygon fill="midnightblue" stroke="midnightblue" points="53.8848,-155.477 43.6967,-152.569 49.8481,-161.196 53.8848,-155.477"/>
</g>
<!-- Node73 -->
<g id="node14" class="node"><title>Node73</title>
<g id="a_node14"><a xlink:href="class_goban.html#ae7ee3b39f3c0d28c9bca286ca538f8ac" target="_top" xlink:title="Goban::cancel">
<polygon fill="none" stroke="black" points="119.5,-152.5 119.5,-171.5 199.5,-171.5 199.5,-152.5 119.5,-152.5"/>
<text text-anchor="middle" x="159.5" y="-159.5" font-family="Helvetica,sans-Serif" font-size="10.00">Goban::cancel</text>
</a>
</g>
</g>
<!-- Node60&#45;&gt;Node73 -->
<g id="edge15" class="edge"><title>Node60&#45;&gt;Node73</title>
<path fill="none" stroke="midnightblue" d="M71.4519,-148.977C86.715,-151.261 104.093,-153.86 119.286,-156.133"/>
<polygon fill="midnightblue" stroke="midnightblue" points="71.6837,-145.473 61.2759,-147.455 70.6479,-152.396 71.6837,-145.473"/>
</g>
<!-- Node76 -->
<g id="node17" class="node"><title>Node76</title>
<g id="a_node17"><a xlink:href="class_i_a.html#a42202360406fe67babfd01a9b7902fd2" target="_top" xlink:title="IA::Tsumego_naif">
<polygon fill="none" stroke="black" points="113.5,-114.5 113.5,-133.5 205.5,-133.5 205.5,-114.5 113.5,-114.5"/>
<text text-anchor="middle" x="159.5" y="-121.5" font-family="Helvetica,sans-Serif" font-size="10.00">IA::Tsumego_naif</text>
</a>
</g>
</g>
<!-- Node60&#45;&gt;Node76 -->
<g id="edge19" class="edge"><title>Node60&#45;&gt;Node76</title>
<path fill="none" stroke="midnightblue" d="M71.1686,-137.065C84.5926,-135.057 99.6788,-132.8 113.487,-130.734"/>
<polygon fill="midnightblue" stroke="midnightblue" points="70.6479,-133.604 61.2759,-138.545 71.6837,-140.527 70.6479,-133.604"/>
</g>
<!-- Node77 -->
<g id="node18" class="node"><title>Node77</title>
<g id="a_node18"><a xlink:href="class_i_a.html#af1f6e5abe41a2225b17ca319c1fc0e4e" target="_top" xlink:title="IA::Tsumego_abr">
<polygon fill="none" stroke="black" points="114.5,-76.5 114.5,-95.5 204.5,-95.5 204.5,-76.5 114.5,-76.5"/>
<text text-anchor="middle" x="159.5" y="-83.5" font-family="Helvetica,sans-Serif" font-size="10.00">IA::Tsumego_abr</text>
</a>
</g>
</g>
<!-- Node60&#45;&gt;Node77 -->
<g id="edge20" class="edge"><title>Node60&#45;&gt;Node77</title>
<path fill="none" stroke="midnightblue" d="M54.4979,-127.938C66.7629,-120.353 82.3169,-111.428 97,-105 105.19,-101.415 114.266,-98.2145 122.876,-95.5092"/>
<polygon fill="midnightblue" stroke="midnightblue" points="52.4146,-125.114 45.8289,-133.413 56.1527,-131.032 52.4146,-125.114"/>
</g>
<!-- Node80 -->
<g id="node21" class="node"><title>Node80</title>
<g id="a_node21"><a xlink:href="class_i_a.html#a6f616b7d3d9d39eef4780b7a03226260" target="_top" xlink:title="IA::Tsumego_abrFils">
<polygon fill="none" stroke="black" points="266,-38.5 266,-57.5 372,-57.5 372,-38.5 266,-38.5"/>
<text text-anchor="middle" x="319" y="-45.5" font-family="Helvetica,sans-Serif" font-size="10.00">IA::Tsumego_abrFils</text>
</a>
</g>
</g>
<!-- Node60&#45;&gt;Node80 -->
<g id="edge24" class="edge"><title>Node60&#45;&gt;Node80</title>
<path fill="none" stroke="midnightblue" d="M41.6913,-124.411C52.7274,-106.306 72.1369,-79.7115 97,-67 149.804,-40.0035 219.053,-38.6115 265.853,-41.788"/>
<polygon fill="midnightblue" stroke="midnightblue" points="38.4352,-123.049 36.4402,-133.454 44.4886,-126.564 38.4352,-123.049"/>
</g>
<!-- Node81 -->
<g id="node22" class="node"><title>Node81</title>
<g id="a_node22"><a xlink:href="class_i_a.html#a5d86a3548f2410f7fc0676b89d07f4fd" target="_top" xlink:title="IA::Tsumego_compresse">
<polygon fill="none" stroke="black" points="97,-0.5 97,-19.5 222,-19.5 222,-0.5 97,-0.5"/>
<text text-anchor="middle" x="159.5" y="-7.5" font-family="Helvetica,sans-Serif" font-size="10.00">IA::Tsumego_compresse</text>
</a>
</g>
</g>
<!-- Node60&#45;&gt;Node81 -->
<g id="edge25" class="edge"><title>Node60&#45;&gt;Node81</title>
<path fill="none" stroke="midnightblue" d="M38.4275,-123.969C48.0802,-99.9152 67.7507,-58.6806 97,-34 104.358,-27.7913 113.509,-23.0731 122.484,-19.5357"/>
<polygon fill="midnightblue" stroke="midnightblue" points="35.1198,-122.819 34.8017,-133.409 41.6544,-125.329 35.1198,-122.819"/>
</g>
<!-- Node63 -->
<g id="node4" class="node"><title>Node63</title>
<g id="a_node4"><a xlink:href="class_goban.html#a1ec70508987f66afff5f8df381731fac" target="_top" xlink:title="Goban::eliminateGroups">
<polygon fill="none" stroke="black" points="258,-266.5 258,-285.5 380,-285.5 380,-266.5 258,-266.5"/>
<text text-anchor="middle" x="319" y="-273.5" font-family="Helvetica,sans-Serif" font-size="10.00">Goban::eliminateGroups</text>
</a>
</g>
</g>
<!-- Node62&#45;&gt;Node63 -->
<g id="edge3" class="edge"><title>Node62&#45;&gt;Node63</title>
<path fill="none" stroke="midnightblue" d="M210.104,-249.968C232.175,-255.293 257.803,-261.476 278.542,-266.48"/>
<polygon fill="midnightblue" stroke="midnightblue" points="210.786,-246.532 200.244,-247.589 209.144,-253.337 210.786,-246.532"/>
</g>
<!-- Node62&#45;&gt;Node66 -->
<g id="edge13" class="edge"><title>Node62&#45;&gt;Node66</title>
<path fill="none" stroke="midnightblue" d="M224.899,-235.997C303.306,-233.12 439.672,-226.701 556,-214 570.227,-212.447 585.658,-210.202 599.59,-207.963"/>
<polygon fill="midnightblue" stroke="midnightblue" points="224.564,-232.507 214.696,-236.364 224.815,-239.502 224.564,-232.507"/>
</g>
<!-- Node64 -->
<g id="node5" class="node"><title>Node64</title>
<g id="a_node5"><a xlink:href="class_goban.html#a7858b815885e4af36f05f9d26182cb07" target="_top" xlink:title="Goban::eliminateOppGroups">
<polygon fill="none" stroke="black" points="416,-266.5 416,-285.5 556,-285.5 556,-266.5 416,-266.5"/>
<text text-anchor="middle" x="486" y="-273.5" font-family="Helvetica,sans-Serif" font-size="10.00">Goban::eliminateOppGroups</text>
</a>
</g>
</g>
<!-- Node63&#45;&gt;Node64 -->
<g id="edge4" class="edge"><title>Node63&#45;&gt;Node64</title>
<path fill="none" stroke="midnightblue" d="M390.24,-276C398.698,-276 407.331,-276 415.774,-276"/>
<polygon fill="midnightblue" stroke="midnightblue" points="390.036,-272.5 380.036,-276 390.036,-279.5 390.036,-272.5"/>
</g>
<!-- Node65 -->
<g id="node6" class="node"><title>Node65</title>
<g id="a_node6"><a xlink:href="class_goban.html#a799390f04139eec16f7bb8c79b381303" target="_top" xlink:title="Goban::legalEvenKO">
<polygon fill="none" stroke="black" points="592,-304.5 592,-323.5 699,-323.5 699,-304.5 592,-304.5"/>
<text text-anchor="middle" x="645.5" y="-311.5" font-family="Helvetica,sans-Serif" font-size="10.00">Goban::legalEvenKO</text>
</a>
</g>
</g>
<!-- Node64&#45;&gt;Node65 -->
<g id="edge5" class="edge"><title>Node64&#45;&gt;Node65</title>
<path fill="none" stroke="midnightblue" d="M536.604,-287.968C558.675,-293.293 584.303,-299.476 605.042,-304.48"/>
<polygon fill="midnightblue" stroke="midnightblue" points="537.286,-284.532 526.744,-285.589 535.644,-291.337 537.286,-284.532"/>
</g>
<!-- Node64&#45;&gt;Node66 -->
<g id="edge6" class="edge"><title>Node64&#45;&gt;Node66</title>
<path fill="none" stroke="midnightblue" d="M532.946,-262.972C540.891,-259.9 548.878,-256.253 556,-252 574.635,-240.872 573.435,-230.245 592,-219 598.135,-215.284 605.11,-212.129 611.927,-209.52"/>
<polygon fill="midnightblue" stroke="midnightblue" points="531.557,-259.752 523.337,-266.437 533.931,-266.337 531.557,-259.752"/>
</g>
<!-- Node67 -->
<g id="node8" class="node"><title>Node67</title>
<g id="a_node8"><a xlink:href="class_goban.html#a36ab256c9430e070b620052a0f13f051" target="_top" xlink:title="Goban::listFils">
<polygon fill="none" stroke="black" points="605.5,-266.5 605.5,-285.5 685.5,-285.5 685.5,-266.5 605.5,-266.5"/>
<text text-anchor="middle" x="645.5" y="-273.5" font-family="Helvetica,sans-Serif" font-size="10.00">Goban::listFils</text>
</a>
</g>
</g>
<!-- Node64&#45;&gt;Node67 -->
<g id="edge7" class="edge"><title>Node64&#45;&gt;Node67</title>
<path fill="none" stroke="midnightblue" d="M566.404,-276C579.931,-276 593.432,-276 605.311,-276"/>
<polygon fill="midnightblue" stroke="midnightblue" points="566.082,-272.5 556.082,-276 566.082,-279.5 566.082,-272.5"/>
</g>
<!-- Node70 -->
<g id="node11" class="node"><title>Node70</title>
<g id="a_node11"><a xlink:href="class_board.html#a5fda73da080403d8a71a8593d581c350" target="_top" xlink:title="Board::click">
<polygon fill="none" stroke="black" points="611.5,-228.5 611.5,-247.5 679.5,-247.5 679.5,-228.5 611.5,-228.5"/>
<text text-anchor="middle" x="645.5" y="-235.5" font-family="Helvetica,sans-Serif" font-size="10.00">Board::click</text>
</a>
</g>
</g>
<!-- Node64&#45;&gt;Node70 -->
<g id="edge10" class="edge"><title>Node64&#45;&gt;Node70</title>
<path fill="none" stroke="midnightblue" d="M536.553,-264.044C560.958,-258.156 589.721,-251.217 611.417,-245.982"/>
<polygon fill="midnightblue" stroke="midnightblue" points="535.644,-260.663 526.744,-266.411 537.286,-267.468 535.644,-260.663"/>
</g>
<!-- Node68 -->
<g id="node9" class="node"><title>Node68</title>
<g id="a_node9"><a xlink:href="class_arbre.html#ac82e543d8cbf0aced4d741c346f9950d" target="_top" xlink:title="Arbre::Arbre">
<polygon fill="none" stroke="black" points="753.5,-285.5 753.5,-304.5 822.5,-304.5 822.5,-285.5 753.5,-285.5"/>
<text text-anchor="middle" x="788" y="-292.5" font-family="Helvetica,sans-Serif" font-size="10.00">Arbre::Arbre</text>
</a>
</g>
</g>
<!-- Node67&#45;&gt;Node68 -->
<g id="edge8" class="edge"><title>Node67&#45;&gt;Node68</title>
<path fill="none" stroke="midnightblue" d="M695.655,-282.647C714.714,-285.225 736.057,-288.111 753.316,-290.445"/>
<polygon fill="midnightblue" stroke="midnightblue" points="696.016,-279.164 685.637,-281.293 695.078,-286.101 696.016,-279.164"/>
</g>
<!-- Node69 -->
<g id="node10" class="node"><title>Node69</title>
<g id="a_node10"><a xlink:href="class_arbre.html#a70585b1d341c1e0c262b2b4a4f769b6d" target="_top" xlink:title="Arbre::resetFils">
<polygon fill="none" stroke="black" points="746.5,-247.5 746.5,-266.5 829.5,-266.5 829.5,-247.5 746.5,-247.5"/>
<text text-anchor="middle" x="788" y="-254.5" font-family="Helvetica,sans-Serif" font-size="10.00">Arbre::resetFils</text>
</a>
</g>
</g>
<!-- Node67&#45;&gt;Node69 -->
<g id="edge9" class="edge"><title>Node67&#45;&gt;Node69</title>
<path fill="none" stroke="midnightblue" d="M695.645,-269.354C712.132,-267.124 730.329,-264.664 746.114,-262.529"/>
<polygon fill="midnightblue" stroke="midnightblue" points="695.078,-265.899 685.637,-270.707 696.016,-272.836 695.078,-265.899"/>
</g>
<!-- Node71 -->
<g id="node12" class="node"><title>Node71</title>
<g id="a_node12"><a xlink:href="class_game__window.html#afa942088809bf10731bb31d0d37b878d" target="_top" xlink:title="Game_window::click">
<polygon fill="none" stroke="black" points="735,-209.5 735,-228.5 841,-228.5 841,-209.5 735,-209.5"/>
<text text-anchor="middle" x="788" y="-216.5" font-family="Helvetica,sans-Serif" font-size="10.00">Game_window::click</text>
</a>
</g>
</g>
<!-- Node70&#45;&gt;Node71 -->
<g id="edge11" class="edge"><title>Node70&#45;&gt;Node71</title>
<path fill="none" stroke="midnightblue" d="M689.841,-232.139C704.116,-230.209 720.137,-228.042 734.99,-226.033"/>
<polygon fill="midnightblue" stroke="midnightblue" points="689.237,-228.689 679.797,-233.497 690.175,-235.625 689.237,-228.689"/>
</g>
<!-- Node72 -->
<g id="node13" class="node"><title>Node72</title>
<g id="a_node13"><a xlink:href="class_game__window.html#a555769f4e8511e45d6623658dc736be5" target="_top" xlink:title="Game_window::Run">
<polygon fill="none" stroke="black" points="877,-180.5 877,-199.5 980,-199.5 980,-180.5 877,-180.5"/>
<text text-anchor="middle" x="928.5" y="-187.5" font-family="Helvetica,sans-Serif" font-size="10.00">Game_window::Run</text>
</a>
</g>
</g>
<!-- Node71&#45;&gt;Node72 -->
<g id="edge12" class="edge"><title>Node71&#45;&gt;Node72</title>
<path fill="none" stroke="midnightblue" d="M844.87,-207.302C857.143,-204.732 869.998,-202.04 881.814,-199.566"/>
<polygon fill="midnightblue" stroke="midnightblue" points="843.804,-203.949 834.734,-209.424 845.239,-210.8 843.804,-203.949"/>
</g>
<!-- Node74 -->
<g id="node15" class="node"><title>Node74</title>
<g id="a_node15"><a xlink:href="class_board.html#ac7ec911a62371650afd340d1535a1742" target="_top" xlink:title="Board::cancel">
<polygon fill="none" stroke="black" points="280.5,-152.5 280.5,-171.5 357.5,-171.5 357.5,-152.5 280.5,-152.5"/>
<text text-anchor="middle" x="319" y="-159.5" font-family="Helvetica,sans-Serif" font-size="10.00">Board::cancel</text>
</a>
</g>
</g>
<!-- Node73&#45;&gt;Node74 -->
<g id="edge16" class="edge"><title>Node73&#45;&gt;Node74</title>
<path fill="none" stroke="midnightblue" d="M209.972,-162C232.682,-162 259.18,-162 280.248,-162"/>
<polygon fill="midnightblue" stroke="midnightblue" points="209.838,-158.5 199.838,-162 209.838,-165.5 209.838,-158.5"/>
</g>
<!-- Node75 -->
<g id="node16" class="node"><title>Node75</title>
<g id="a_node16"><a xlink:href="class_game__window.html#a72304de2044c29f1373037bd818f674f" target="_top" xlink:title="Game_window::keyPressed">
<polygon fill="none" stroke="black" points="417.5,-152.5 417.5,-171.5 554.5,-171.5 554.5,-152.5 417.5,-152.5"/>
<text text-anchor="middle" x="486" y="-159.5" font-family="Helvetica,sans-Serif" font-size="10.00">Game_window::keyPressed</text>
</a>
</g>
</g>
<!-- Node74&#45;&gt;Node75 -->
<g id="edge17" class="edge"><title>Node74&#45;&gt;Node75</title>
<path fill="none" stroke="midnightblue" d="M368.131,-162C383.469,-162 400.736,-162 417.197,-162"/>
<polygon fill="midnightblue" stroke="midnightblue" points="367.854,-158.5 357.854,-162 367.854,-165.5 367.854,-158.5"/>
</g>
<!-- Node75&#45;&gt;Node72 -->
<g id="edge18" class="edge"><title>Node75&#45;&gt;Node72</title>
<path fill="none" stroke="midnightblue" d="M565.011,-166.959C654.976,-172.677 800.271,-181.913 876.727,-186.773"/>
<polygon fill="midnightblue" stroke="midnightblue" points="565.065,-163.455 554.863,-166.314 564.621,-170.441 565.065,-163.455"/>
</g>
<!-- Node78 -->
<g id="node19" class="node"><title>Node78</title>
<g id="a_node19"><a xlink:href="class_i_a.html#a364aef554d81e9a93bff08c28d437497" target="_top" xlink:title="IA::Tsumego">
<polygon fill="none" stroke="black" points="283.5,-76.5 283.5,-95.5 354.5,-95.5 354.5,-76.5 283.5,-76.5"/>
<text text-anchor="middle" x="319" y="-83.5" font-family="Helvetica,sans-Serif" font-size="10.00">IA::Tsumego</text>
</a>
</g>
</g>
<!-- Node77&#45;&gt;Node78 -->
<g id="edge21" class="edge"><title>Node77&#45;&gt;Node78</title>
<path fill="none" stroke="midnightblue" d="M214.959,-86C237.611,-86 263.234,-86 283.263,-86"/>
<polygon fill="midnightblue" stroke="midnightblue" points="214.792,-82.5001 204.792,-86 214.792,-89.5001 214.792,-82.5001"/>
</g>
<!-- Node77&#45;&gt;Node80 -->
<g id="edge23" class="edge"><title>Node77&#45;&gt;Node80</title>
<path fill="none" stroke="midnightblue" d="M210.104,-74.032C232.175,-68.7069 257.803,-62.5238 278.542,-57.5201"/>
<polygon fill="midnightblue" stroke="midnightblue" points="209.144,-70.6631 200.244,-76.411 210.786,-77.4679 209.144,-70.6631"/>
</g>
<!-- Node79 -->
<g id="node20" class="node"><title>Node79</title>
<g id="a_node20"><a xlink:href="class_go___solver.html#a6ca744f1f4586c3f90f2e47915034baf" target="_top" xlink:title="Go_Solver::launchTsumego">
<polygon fill="none" stroke="black" points="418.5,-76.5 418.5,-95.5 553.5,-95.5 553.5,-76.5 418.5,-76.5"/>
<text text-anchor="middle" x="486" y="-83.5" font-family="Helvetica,sans-Serif" font-size="10.00">Go_Solver::launchTsumego</text>
</a>
</g>
</g>
<!-- Node78&#45;&gt;Node79 -->
<g id="edge22" class="edge"><title>Node78&#45;&gt;Node79</title>
<path fill="none" stroke="midnightblue" d="M365.014,-86C381.489,-86 400.497,-86 418.457,-86"/>
<polygon fill="midnightblue" stroke="midnightblue" points="364.589,-82.5001 354.589,-86 364.589,-89.5001 364.589,-82.5001"/>
</g>
</g>
</svg>
