<?xml version="1.0" encoding="UTF-8" standalone="no"?>
<!DOCTYPE svg PUBLIC "-//W3C//DTD SVG 1.1//EN"
 "http://www.w3.org/Graphics/SVG/1.1/DTD/svg11.dtd">
<!-- Generated by graphviz version 2.38.0 (20140413.2041)
 -->
<!-- Title: Menu Pages: 1 -->
<svg width="332pt" height="475pt"
 viewBox="0.00 0.00 331.50 475.00" xmlns="http://www.w3.org/2000/svg" xmlns:xlink="http://www.w3.org/1999/xlink">
<g id="graph0" class="graph" transform="scale(1 1) rotate(0) translate(4 471)">
<title>Menu</title>
<!-- Node5 -->
<g id="node1" class="node"><title>Node5</title>
<polygon fill="#bfbfbf" stroke="black" points="83.5,-0.5 83.5,-145.5 178.5,-145.5 178.5,-0.5 83.5,-0.5"/>
<text text-anchor="middle" x="131" y="-133.5" font-family="Helvetica,sans-Serif" font-size="10.00">Menu</text>
<polyline fill="none" stroke="black" points="83.5,-126.5 178.5,-126.5 "/>
<text text-anchor="middle" x="131" y="-114.5" font-family="Helvetica,sans-Serif" font-size="10.00"> </text>
<polyline fill="none" stroke="black" points="83.5,-107.5 178.5,-107.5 "/>
<text text-anchor="start" x="91.5" y="-95.5" font-family="Helvetica,sans-Serif" font-size="10.00">+ Menu()</text>
<text text-anchor="start" x="91.5" y="-84.5" font-family="Helvetica,sans-Serif" font-size="10.00">+ ~Menu()</text>
<text text-anchor="start" x="91.5" y="-73.5" font-family="Helvetica,sans-Serif" font-size="10.00">+ draw()</text>
<text text-anchor="start" x="91.5" y="-62.5" font-family="Helvetica,sans-Serif" font-size="10.00">+ Run()</text>
<text text-anchor="start" x="91.5" y="-51.5" font-family="Helvetica,sans-Serif" font-size="10.00">+ getSize()</text>
<text text-anchor="start" x="91.5" y="-40.5" font-family="Helvetica,sans-Serif" font-size="10.00">+ getPosition()</text>
<text text-anchor="start" x="91.5" y="-29.5" font-family="Helvetica,sans-Serif" font-size="10.00">+ addItem()</text>
<text text-anchor="start" x="91.5" y="-18.5" font-family="Helvetica,sans-Serif" font-size="10.00">+ setPrevious()</text>
<text text-anchor="start" x="91.5" y="-7.5" font-family="Helvetica,sans-Serif" font-size="10.00">+ showAdresses()</text>
</g>
<!-- Node6 -->
<g id="node2" class="node"><title>Node6</title>
<g id="a_node2"><a xlink:href="class_screen.html" target="_top" xlink:title="{Screen\n||+ Run()\l+ draw()\l}">
<polygon fill="none" stroke="black" points="0,-248.5 0,-316.5 52,-316.5 52,-248.5 0,-248.5"/>
<text text-anchor="middle" x="26" y="-304.5" font-family="Helvetica,sans-Serif" font-size="10.00">Screen</text>
<polyline fill="none" stroke="black" points="0,-297.5 52,-297.5 "/>
<text text-anchor="middle" x="26" y="-285.5" font-family="Helvetica,sans-Serif" font-size="10.00"> </text>
<polyline fill="none" stroke="black" points="0,-278.5 52,-278.5 "/>
<text text-anchor="start" x="8" y="-266.5" font-family="Helvetica,sans-Serif" font-size="10.00">+ Run()</text>
<text text-anchor="start" x="8" y="-255.5" font-family="Helvetica,sans-Serif" font-size="10.00">+ draw()</text>
</a>
</g>
</g>
<!-- Node6&#45;&gt;Node5 -->
<g id="edge1" class="edge"><title>Node6&#45;&gt;Node5</title>
<path fill="none" stroke="midnightblue" d="M41.3459,-238.803C47.0417,-224.076 53.8647,-207.616 61,-193 68.6237,-177.384 77.5436,-161.069 86.414,-145.703"/>
<polygon fill="none" stroke="midnightblue" points="38.0582,-237.601 37.7738,-248.192 44.6008,-240.09 38.0582,-237.601"/>
</g>
<!-- Node7 -->
<g id="node3" class="node"><title>Node7</title>
<polygon fill="none" stroke="#bfbfbf" points="60,-409.5 60,-466.5 116,-466.5 116,-409.5 60,-409.5"/>
<text text-anchor="middle" x="88" y="-454.5" font-family="Helvetica,sans-Serif" font-size="10.00">Drawable</text>
<polyline fill="none" stroke="#bfbfbf" points="60,-447.5 116,-447.5 "/>
<text text-anchor="middle" x="88" y="-435.5" font-family="Helvetica,sans-Serif" font-size="10.00"> </text>
<polyline fill="none" stroke="#bfbfbf" points="60,-428.5 116,-428.5 "/>
<text text-anchor="middle" x="88" y="-416.5" font-family="Helvetica,sans-Serif" font-size="10.00"> </text>
</g>
<!-- Node7&#45;&gt;Node6 -->
<g id="edge2" class="edge"><title>Node7&#45;&gt;Node6</title>
<path fill="none" stroke="midnightblue" d="M72.3724,-399.687C68.6177,-390.637 64.6411,-380.982 61,-372 53.6131,-353.779 45.5309,-333.374 38.996,-316.754"/>
<polygon fill="none" stroke="midnightblue" points="69.2607,-401.319 76.3332,-409.208 75.7239,-398.631 69.2607,-401.319"/>
</g>
<!-- Node9 -->
<g id="node5" class="node"><title>Node9</title>
<g id="a_node5"><a xlink:href="class_choice.html" target="_top" xlink:title="{Choice\n||+ Choice()\l+ Choice()\l+ ~Choice()\l+ draw()\l+ getSize()\l+ loadTextures()\l+ setSelected()\l+ setHover()\l+ getGlobalBounds()\l+ updateTexture()\l+ Run()\l+ showAdressTextures()\l}">
<polygon fill="none" stroke="black" points="70,-193.5 70,-371.5 192,-371.5 192,-193.5 70,-193.5"/>
<text text-anchor="middle" x="131" y="-359.5" font-family="Helvetica,sans-Serif" font-size="10.00">Choice</text>
<polyline fill="none" stroke="black" points="70,-352.5 192,-352.5 "/>
<text text-anchor="middle" x="131" y="-340.5" font-family="Helvetica,sans-Serif" font-size="10.00"> </text>
<polyline fill="none" stroke="black" points="70,-333.5 192,-333.5 "/>
<text text-anchor="start" x="78" y="-321.5" font-family="Helvetica,sans-Serif" font-size="10.00">+ Choice()</text>
<text text-anchor="start" x="78" y="-310.5" font-family="Helvetica,sans-Serif" font-size="10.00">+ Choice()</text>
<text text-anchor="start" x="78" y="-299.5" font-family="Helvetica,sans-Serif" font-size="10.00">+ ~Choice()</text>
<text text-anchor="start" x="78" y="-288.5" font-family="Helvetica,sans-Serif" font-size="10.00">+ draw()</text>
<text text-anchor="start" x="78" y="-277.5" font-family="Helvetica,sans-Serif" font-size="10.00">+ getSize()</text>
<text text-anchor="start" x="78" y="-266.5" font-family="Helvetica,sans-Serif" font-size="10.00">+ loadTextures()</text>
<text text-anchor="start" x="78" y="-255.5" font-family="Helvetica,sans-Serif" font-size="10.00">+ setSelected()</text>
<text text-anchor="start" x="78" y="-244.5" font-family="Helvetica,sans-Serif" font-size="10.00">+ setHover()</text>
<text text-anchor="start" x="78" y="-233.5" font-family="Helvetica,sans-Serif" font-size="10.00">+ getGlobalBounds()</text>
<text text-anchor="start" x="78" y="-222.5" font-family="Helvetica,sans-Serif" font-size="10.00">+ updateTexture()</text>
<text text-anchor="start" x="78" y="-211.5" font-family="Helvetica,sans-Serif" font-size="10.00">+ Run()</text>
<text text-anchor="start" x="78" y="-200.5" font-family="Helvetica,sans-Serif" font-size="10.00">+ showAdressTextures()</text>
</a>
</g>
</g>
<!-- Node7&#45;&gt;Node9 -->
<g id="edge5" class="edge"><title>Node7&#45;&gt;Node9</title>
<path fill="none" stroke="midnightblue" d="M98.4988,-399.522C100.918,-390.886 103.591,-381.343 106.335,-371.549"/>
<polygon fill="none" stroke="midnightblue" points="95.1142,-398.629 95.787,-409.202 101.855,-400.517 95.1142,-398.629"/>
</g>
<!-- Node8 -->
<g id="node4" class="node"><title>Node8</title>
<polygon fill="none" stroke="#bfbfbf" points="210.5,-248.5 210.5,-316.5 323.5,-316.5 323.5,-248.5 210.5,-248.5"/>
<text text-anchor="start" x="218.5" y="-304.5" font-family="Helvetica,sans-Serif" font-size="10.00">vector&lt; std::reference</text>
<text text-anchor="middle" x="267" y="-293.5" font-family="Helvetica,sans-Serif" font-size="10.00">_wrapper&lt; Choice &gt; &gt;</text>
<polyline fill="none" stroke="#bfbfbf" points="210.5,-286.5 323.5,-286.5 "/>
<text text-anchor="middle" x="267" y="-274.5" font-family="Helvetica,sans-Serif" font-size="10.00"> </text>
<polyline fill="none" stroke="#bfbfbf" points="210.5,-267.5 323.5,-267.5 "/>
<text text-anchor="middle" x="267" y="-255.5" font-family="Helvetica,sans-Serif" font-size="10.00"> </text>
</g>
<!-- Node8&#45;&gt;Node5 -->
<g id="edge3" class="edge"><title>Node8&#45;&gt;Node5</title>
<path fill="none" stroke="#404040" d="M245.828,-248.5C230.649,-224.906 209.67,-192.43 191,-164 189.116,-161.13 187.194,-158.212 185.251,-155.266"/>
<polygon fill="none" stroke="#404040" points="185.198,-155.185 178.553,-152.385 178.581,-145.174 185.226,-147.974 185.198,-155.185"/>
<text text-anchor="middle" x="219.5" y="-167" font-family="Helvetica,sans-Serif" font-size="10.00"> #choices</text>
</g>
<!-- Node9&#45;&gt;Node5 -->
<g id="edge4" class="edge"><title>Node9&#45;&gt;Node5</title>
<path fill="none" stroke="#404040" d="M131,-193.2C131,-181.412 131,-169.35 131,-157.644"/>
<polygon fill="none" stroke="#404040" points="131,-157.6 127,-151.6 131,-145.6 135,-151.6 131,-157.6"/>
<text text-anchor="middle" x="159" y="-167" font-family="Helvetica,sans-Serif" font-size="10.00"> #cur_choice</text>
</g>
</g>
</svg>
