<?xml version="1.0" encoding="UTF-8" standalone="no"?>
<!DOCTYPE svg PUBLIC "-//W3C//DTD SVG 1.1//EN"
 "http://www.w3.org/Graphics/SVG/1.1/DTD/svg11.dtd">
<!-- Generated by graphviz version 2.38.0 (20140413.2041)
 -->
<!-- Title: Arbre::at Pages: 1 -->
<svg width="536pt" height="142pt"
 viewBox="0.00 0.00 536.00 142.00" xmlns="http://www.w3.org/2000/svg" xmlns:xlink="http://www.w3.org/1999/xlink">
<g id="graph0" class="graph" transform="scale(1 1) rotate(0) translate(4 138)">
<title>Arbre::at</title>
<!-- Node50 -->
<g id="node1" class="node"><title>Node50</title>
<polygon fill="#bfbfbf" stroke="black" points="0,-57.5 0,-76.5 54,-76.5 54,-57.5 0,-57.5"/>
<text text-anchor="middle" x="27" y="-64.5" font-family="Helvetica,sans-Serif" font-size="10.00">Arbre::at</text>
</g>
<!-- Node51 -->
<g id="node2" class="node"><title>Node51</title>
<g id="a_node2"><a xlink:href="class_i_a.html#a42202360406fe67babfd01a9b7902fd2" target="_top" xlink:title="IA::Tsumego_naif">
<polygon fill="none" stroke="black" points="106.5,-114.5 106.5,-133.5 198.5,-133.5 198.5,-114.5 106.5,-114.5"/>
<text text-anchor="middle" x="152.5" y="-121.5" font-family="Helvetica,sans-Serif" font-size="10.00">IA::Tsumego_naif</text>
</a>
</g>
</g>
<!-- Node50&#45;&gt;Node51 -->
<g id="edge1" class="edge"><title>Node50&#45;&gt;Node51</title>
<path fill="none" stroke="midnightblue" d="M50.2332,-82.5048C61.7258,-90.0263 76.2036,-98.7602 90,-105 97.942,-108.592 106.754,-111.759 115.168,-114.426"/>
<polygon fill="midnightblue" stroke="midnightblue" points="51.982,-79.4635 41.7265,-76.8036 48.0849,-85.2784 51.982,-79.4635"/>
</g>
<!-- Node52 -->
<g id="node3" class="node"><title>Node52</title>
<g id="a_node3"><a xlink:href="class_i_a.html#af1f6e5abe41a2225b17ca319c1fc0e4e" target="_top" xlink:title="IA::Tsumego_abr">
<polygon fill="none" stroke="black" points="107.5,-76.5 107.5,-95.5 197.5,-95.5 197.5,-76.5 107.5,-76.5"/>
<text text-anchor="middle" x="152.5" y="-83.5" font-family="Helvetica,sans-Serif" font-size="10.00">IA::Tsumego_abr</text>
</a>
</g>
</g>
<!-- Node50&#45;&gt;Node52 -->
<g id="edge2" class="edge"><title>Node50&#45;&gt;Node52</title>
<path fill="none" stroke="midnightblue" d="M64.0983,-72.5536C77.6363,-74.6364 93.175,-77.0269 107.361,-79.2093"/>
<polygon fill="midnightblue" stroke="midnightblue" points="64.6071,-69.0908 54.1912,-71.0294 63.5427,-76.0094 64.6071,-69.0908"/>
</g>
<!-- Node55 -->
<g id="node6" class="node"><title>Node55</title>
<g id="a_node6"><a xlink:href="class_i_a.html#a6f616b7d3d9d39eef4780b7a03226260" target="_top" xlink:title="IA::Tsumego_abrFils">
<polygon fill="none" stroke="black" points="251,-38.5 251,-57.5 357,-57.5 357,-38.5 251,-38.5"/>
<text text-anchor="middle" x="304" y="-45.5" font-family="Helvetica,sans-Serif" font-size="10.00">IA::Tsumego_abrFils</text>
</a>
</g>
</g>
<!-- Node50&#45;&gt;Node55 -->
<g id="edge6" class="edge"><title>Node50&#45;&gt;Node55</title>
<path fill="none" stroke="midnightblue" d="M64.5603,-64.474C112.345,-61.1725 196.342,-55.3691 250.811,-51.6058"/>
<polygon fill="midnightblue" stroke="midnightblue" points="64.1031,-60.9972 54.3682,-65.1782 64.5856,-67.9805 64.1031,-60.9972"/>
</g>
<!-- Node56 -->
<g id="node7" class="node"><title>Node56</title>
<g id="a_node7"><a xlink:href="class_i_a.html#a5d86a3548f2410f7fc0676b89d07f4fd" target="_top" xlink:title="IA::Tsumego_compresse">
<polygon fill="none" stroke="black" points="90,-0.5 90,-19.5 215,-19.5 215,-0.5 90,-0.5"/>
<text text-anchor="middle" x="152.5" y="-7.5" font-family="Helvetica,sans-Serif" font-size="10.00">IA::Tsumego_compresse</text>
</a>
</g>
</g>
<!-- Node50&#45;&gt;Node56 -->
<g id="edge7" class="edge"><title>Node50&#45;&gt;Node56</title>
<path fill="none" stroke="midnightblue" d="M53.6545,-52.4773C64.6913,-46.4574 77.8304,-39.59 90,-34 101.248,-28.8332 113.952,-23.7544 124.88,-19.6089"/>
<polygon fill="midnightblue" stroke="midnightblue" points="51.6331,-49.5954 44.5738,-57.4959 55.0191,-55.722 51.6331,-49.5954"/>
</g>
<!-- Node53 -->
<g id="node4" class="node"><title>Node53</title>
<g id="a_node4"><a xlink:href="class_i_a.html#a364aef554d81e9a93bff08c28d437497" target="_top" xlink:title="IA::Tsumego">
<polygon fill="none" stroke="black" points="268.5,-76.5 268.5,-95.5 339.5,-95.5 339.5,-76.5 268.5,-76.5"/>
<text text-anchor="middle" x="304" y="-83.5" font-family="Helvetica,sans-Serif" font-size="10.00">IA::Tsumego</text>
</a>
</g>
</g>
<!-- Node52&#45;&gt;Node53 -->
<g id="edge3" class="edge"><title>Node52&#45;&gt;Node53</title>
<path fill="none" stroke="midnightblue" d="M207.582,-86C227.816,-86 250.243,-86 268.267,-86"/>
<polygon fill="midnightblue" stroke="midnightblue" points="207.546,-82.5001 197.546,-86 207.546,-89.5001 207.546,-82.5001"/>
</g>
<!-- Node52&#45;&gt;Node55 -->
<g id="edge5" class="edge"><title>Node52&#45;&gt;Node55</title>
<path fill="none" stroke="midnightblue" d="M201.152,-73.8879C221.973,-68.5956 246.038,-62.4787 265.546,-57.5201"/>
<polygon fill="midnightblue" stroke="midnightblue" points="200.055,-70.5553 191.225,-76.411 201.779,-77.3396 200.055,-70.5553"/>
</g>
<!-- Node54 -->
<g id="node5" class="node"><title>Node54</title>
<g id="a_node5"><a xlink:href="class_go___solver.html#a6ca744f1f4586c3f90f2e47915034baf" target="_top" xlink:title="Go_Solver::launchTsumego">
<polygon fill="none" stroke="black" points="393,-76.5 393,-95.5 528,-95.5 528,-76.5 393,-76.5"/>
<text text-anchor="middle" x="460.5" y="-83.5" font-family="Helvetica,sans-Serif" font-size="10.00">Go_Solver::launchTsumego</text>
</a>
</g>
</g>
<!-- Node53&#45;&gt;Node54 -->
<g id="edge4" class="edge"><title>Node53&#45;&gt;Node54</title>
<path fill="none" stroke="midnightblue" d="M350.056,-86C363.475,-86 378.473,-86 392.958,-86"/>
<polygon fill="midnightblue" stroke="midnightblue" points="349.673,-82.5001 339.673,-86 349.673,-89.5001 349.673,-82.5001"/>
</g>
</g>
</svg>
