<?xml version="1.0" encoding="UTF-8" standalone="no"?>
<!DOCTYPE svg PUBLIC "-//W3C//DTD SVG 1.1//EN"
 "http://www.w3.org/Graphics/SVG/1.1/DTD/svg11.dtd">
<!-- Generated by graphviz version 2.38.0 (20140413.2041)
 -->
<!-- Title: Arbre::resetFils Pages: 1 -->
<svg width="976pt" height="332pt"
 viewBox="0.00 0.00 976.00 332.00" xmlns="http://www.w3.org/2000/svg" xmlns:xlink="http://www.w3.org/1999/xlink">
<g id="graph0" class="graph" transform="scale(1 1) rotate(0) translate(4 328)">
<title>Arbre::resetFils</title>
<!-- Node132 -->
<g id="node1" class="node"><title>Node132</title>
<polygon fill="#bfbfbf" stroke="black" points="0,-200.5 0,-219.5 83,-219.5 83,-200.5 0,-200.5"/>
<text text-anchor="middle" x="41.5" y="-207.5" font-family="Helvetica,sans-Serif" font-size="10.00">Arbre::resetFils</text>
</g>
<!-- Node133 -->
<g id="node2" class="node"><title>Node133</title>
<g id="a_node2"><a xlink:href="class_goban.html#a36ab256c9430e070b620052a0f13f051" target="_top" xlink:title="Goban::listFils">
<polygon fill="none" stroke="black" points="119,-200.5 119,-219.5 199,-219.5 199,-200.5 119,-200.5"/>
<text text-anchor="middle" x="159" y="-207.5" font-family="Helvetica,sans-Serif" font-size="10.00">Goban::listFils</text>
</a>
</g>
</g>
<!-- Node132&#45;&gt;Node133 -->
<g id="edge1" class="edge"><title>Node132&#45;&gt;Node133</title>
<path fill="none" stroke="midnightblue" d="M83.221,-210C91.4399,-210 100.164,-210 108.642,-210"/>
<polygon fill="midnightblue" stroke="midnightblue" points="108.81,-213.5 118.81,-210 108.81,-206.5 108.81,-213.5"/>
</g>
<!-- Node134 -->
<g id="node3" class="node"><title>Node134</title>
<g id="a_node3"><a xlink:href="class_goban.html#aa2aaa3b4db4549d169bd0ff234d601cb" target="_top" xlink:title="Goban::itoc">
<polygon fill="none" stroke="black" points="271.5,-257.5 271.5,-276.5 338.5,-276.5 338.5,-257.5 271.5,-257.5"/>
<text text-anchor="middle" x="305" y="-264.5" font-family="Helvetica,sans-Serif" font-size="10.00">Goban::itoc</text>
</a>
</g>
</g>
<!-- Node133&#45;&gt;Node134 -->
<g id="edge2" class="edge"><title>Node133&#45;&gt;Node134</title>
<path fill="none" stroke="midnightblue" d="M180.506,-219.552C195.477,-226.395 216.333,-235.66 235,-243 244.738,-246.829 255.365,-250.682 265.298,-254.147"/>
<polygon fill="midnightblue" stroke="midnightblue" points="264.345,-257.521 274.94,-257.467 266.624,-250.902 264.345,-257.521"/>
</g>
<!-- Node135 -->
<g id="node4" class="node"><title>Node135</title>
<g id="a_node4"><a xlink:href="class_goban.html#a7dd1a7b53322bde2a831a923059e43a3" target="_top" xlink:title="Goban::move">
<polygon fill="none" stroke="black" points="435,-228.5 435,-247.5 509,-247.5 509,-228.5 435,-228.5"/>
<text text-anchor="middle" x="472" y="-235.5" font-family="Helvetica,sans-Serif" font-size="10.00">Goban::move</text>
</a>
</g>
</g>
<!-- Node133&#45;&gt;Node135 -->
<g id="edge3" class="edge"><title>Node133&#45;&gt;Node135</title>
<path fill="none" stroke="midnightblue" d="M199.073,-213.518C256.443,-218.683 363.283,-228.302 424.575,-233.82"/>
<polygon fill="midnightblue" stroke="midnightblue" points="424.464,-237.324 434.737,-234.735 425.091,-230.352 424.464,-237.324"/>
</g>
<!-- Node140 -->
<g id="node9" class="node"><title>Node140</title>
<g id="a_node9"><a xlink:href="class_goban.html#a8584a53688e7bcf9de7c4cf48454acdc" target="_top" xlink:title="Goban::rechercheGroupes">
<polygon fill="none" stroke="black" points="239.5,-181.5 239.5,-200.5 370.5,-200.5 370.5,-181.5 239.5,-181.5"/>
<text text-anchor="middle" x="305" y="-188.5" font-family="Helvetica,sans-Serif" font-size="10.00">Goban::rechercheGroupes</text>
</a>
</g>
</g>
<!-- Node133&#45;&gt;Node140 -->
<g id="edge9" class="edge"><title>Node133&#45;&gt;Node140</title>
<path fill="none" stroke="midnightblue" d="M199.349,-204.808C208.751,-203.568 219.097,-202.203 229.511,-200.828"/>
<polygon fill="midnightblue" stroke="midnightblue" points="230.033,-204.29 239.489,-199.512 229.117,-197.35 230.033,-204.29"/>
</g>
<!-- Node141 -->
<g id="node10" class="node"><title>Node141</title>
<g id="a_node10"><a xlink:href="class_goban.html#a7858b815885e4af36f05f9d26182cb07" target="_top" xlink:title="Goban::eliminateOppGroups">
<polygon fill="none" stroke="black" points="235,-124.5 235,-143.5 375,-143.5 375,-124.5 235,-124.5"/>
<text text-anchor="middle" x="305" y="-131.5" font-family="Helvetica,sans-Serif" font-size="10.00">Goban::eliminateOppGroups</text>
</a>
</g>
</g>
<!-- Node133&#45;&gt;Node141 -->
<g id="edge10" class="edge"><title>Node133&#45;&gt;Node141</title>
<path fill="none" stroke="midnightblue" d="M178.238,-200.375C203.124,-187.24 247.918,-163.599 276.784,-148.364"/>
<polygon fill="midnightblue" stroke="midnightblue" points="278.7,-151.31 285.91,-143.547 275.433,-145.12 278.7,-151.31"/>
</g>
<!-- Node136 -->
<g id="node5" class="node"><title>Node136</title>
<g id="a_node5"><a xlink:href="class_goban.html#a6c4b62a9469b3876d250ab94bcd562e5" target="_top" xlink:title="Goban::eliminateOppositeKO">
<polygon fill="none" stroke="black" points="721,-304.5 721,-323.5 864,-323.5 864,-304.5 721,-304.5"/>
<text text-anchor="middle" x="792.5" y="-311.5" font-family="Helvetica,sans-Serif" font-size="10.00">Goban::eliminateOppositeKO</text>
</a>
</g>
</g>
<!-- Node135&#45;&gt;Node136 -->
<g id="edge4" class="edge"><title>Node135&#45;&gt;Node136</title>
<path fill="none" stroke="midnightblue" d="M486.547,-247.569C504.478,-259.694 537.511,-280.192 569,-290 614.675,-304.226 667.885,-310.319 710.815,-312.812"/>
<polygon fill="midnightblue" stroke="midnightblue" points="710.763,-316.314 720.933,-313.345 711.131,-309.324 710.763,-316.314"/>
</g>
<!-- Node137 -->
<g id="node6" class="node"><title>Node137</title>
<g id="a_node6"><a xlink:href="class_etat.html#aa88987ca54aee676717f05e4570c0aec" target="_top" xlink:title="Etat::setVal">
<polygon fill="none" stroke="black" points="900,-209.5 900,-228.5 968,-228.5 968,-209.5 900,-209.5"/>
<text text-anchor="middle" x="934" y="-216.5" font-family="Helvetica,sans-Serif" font-size="10.00">Etat::setVal</text>
</a>
</g>
</g>
<!-- Node135&#45;&gt;Node137 -->
<g id="edge7" class="edge"><title>Node135&#45;&gt;Node137</title>
<path fill="none" stroke="midnightblue" d="M509.22,-246.906C527.092,-250.855 549.047,-255.044 569,-257 685.084,-268.377 821.859,-243.897 889.958,-229.135"/>
<polygon fill="midnightblue" stroke="midnightblue" points="890.878,-232.516 899.89,-226.945 889.371,-225.68 890.878,-232.516"/>
</g>
<!-- Node138 -->
<g id="node7" class="node"><title>Node138</title>
<g id="a_node7"><a xlink:href="class_goban.html#a29aaf8df380fe614845d48cba057747c" target="_top" xlink:title="Goban::coord">
<polygon fill="none" stroke="black" points="589.5,-190.5 589.5,-209.5 664.5,-209.5 664.5,-190.5 589.5,-190.5"/>
<text text-anchor="middle" x="627" y="-197.5" font-family="Helvetica,sans-Serif" font-size="10.00">Goban::coord</text>
</a>
</g>
</g>
<!-- Node135&#45;&gt;Node138 -->
<g id="edge6" class="edge"><title>Node135&#45;&gt;Node138</title>
<path fill="none" stroke="midnightblue" d="M509.259,-228.995C530.35,-223.756 557.147,-217.101 579.746,-211.488"/>
<polygon fill="midnightblue" stroke="midnightblue" points="580.61,-214.88 589.471,-209.073 578.922,-208.086 580.61,-214.88"/>
</g>
<!-- Node139 -->
<g id="node8" class="node"><title>Node139</title>
<g id="a_node8"><a xlink:href="class_history.html#a90222df7f73ae9cfda56bdb66cb1985e" target="_top" xlink:title="Add new state in history. ">
<polygon fill="none" stroke="black" points="592.5,-228.5 592.5,-247.5 661.5,-247.5 661.5,-228.5 592.5,-228.5"/>
<text text-anchor="middle" x="627" y="-235.5" font-family="Helvetica,sans-Serif" font-size="10.00">History::add</text>
</a>
</g>
</g>
<!-- Node135&#45;&gt;Node139 -->
<g id="edge8" class="edge"><title>Node135&#45;&gt;Node139</title>
<path fill="none" stroke="midnightblue" d="M509.259,-238C531.099,-238 559.056,-238 582.135,-238"/>
<polygon fill="midnightblue" stroke="midnightblue" points="582.357,-241.5 592.357,-238 582.357,-234.5 582.357,-241.5"/>
</g>
<!-- Node136&#45;&gt;Node137 -->
<g id="edge5" class="edge"><title>Node136&#45;&gt;Node137</title>
<path fill="none" stroke="midnightblue" d="M832.311,-304.415C843.048,-300.818 854.384,-296.081 864,-290 886.553,-275.737 907.129,-252.662 919.83,-236.708"/>
<polygon fill="midnightblue" stroke="midnightblue" points="922.691,-238.73 926.039,-228.678 917.153,-234.448 922.691,-238.73"/>
</g>
<!-- Node142 -->
<g id="node11" class="node"><title>Node142</title>
<g id="a_node11"><a xlink:href="class_goban.html#a1ec70508987f66afff5f8df381731fac" target="_top" xlink:title="Goban::eliminateGroups">
<polygon fill="none" stroke="black" points="411,-119.5 411,-138.5 533,-138.5 533,-119.5 411,-119.5"/>
<text text-anchor="middle" x="472" y="-126.5" font-family="Helvetica,sans-Serif" font-size="10.00">Goban::eliminateGroups</text>
</a>
</g>
</g>
<!-- Node141&#45;&gt;Node142 -->
<g id="edge11" class="edge"><title>Node141&#45;&gt;Node142</title>
<path fill="none" stroke="midnightblue" d="M375.019,-131.909C383.494,-131.652 392.165,-131.389 400.66,-131.132"/>
<polygon fill="midnightblue" stroke="midnightblue" points="401.02,-134.622 410.91,-130.821 400.808,-127.626 401.02,-134.622"/>
</g>
<!-- Node142&#45;&gt;Node137 -->
<g id="edge21" class="edge"><title>Node142&#45;&gt;Node137</title>
<path fill="none" stroke="midnightblue" d="M521.793,-138.546C612.113,-156.218 803.966,-193.754 889.855,-210.559"/>
<polygon fill="midnightblue" stroke="midnightblue" points="889.304,-214.017 899.79,-212.502 890.648,-207.147 889.304,-214.017"/>
</g>
<!-- Node142&#45;&gt;Node138 -->
<g id="edge20" class="edge"><title>Node142&#45;&gt;Node138</title>
<path fill="none" stroke="midnightblue" d="M491.614,-138.503C510.846,-148.229 541.805,-163.63 569,-176 576.782,-179.54 585.238,-183.2 593.195,-186.562"/>
<polygon fill="midnightblue" stroke="midnightblue" points="591.999,-189.856 602.575,-190.488 594.701,-183.398 591.999,-189.856"/>
</g>
<!-- Node143 -->
<g id="node12" class="node"><title>Node143</title>
<g id="a_node12"><a xlink:href="class_goban.html#a84f36324eb9ddc29f522d481f04c13e7" target="_top" xlink:title="Goban::listOfLiberties">
<polygon fill="none" stroke="black" points="572,-114.5 572,-133.5 682,-133.5 682,-114.5 572,-114.5"/>
<text text-anchor="middle" x="627" y="-121.5" font-family="Helvetica,sans-Serif" font-size="10.00">Goban::listOfLiberties</text>
</a>
</g>
</g>
<!-- Node142&#45;&gt;Node143 -->
<g id="edge12" class="edge"><title>Node142&#45;&gt;Node143</title>
<path fill="none" stroke="midnightblue" d="M533.031,-127.038C542.376,-126.733 552.065,-126.416 561.504,-126.108"/>
<polygon fill="midnightblue" stroke="midnightblue" points="561.74,-129.602 571.62,-125.777 561.511,-122.606 561.74,-129.602"/>
</g>
<!-- Node150 -->
<g id="node19" class="node"><title>Node150</title>
<g id="a_node19"><a xlink:href="class_goban.html#a1d3ccccfb3f539e0271ee321686d9ef4" target="_top" xlink:title="Goban::setScoreWhite">
<polygon fill="none" stroke="black" points="569,-76.5 569,-95.5 685,-95.5 685,-76.5 569,-76.5"/>
<text text-anchor="middle" x="627" y="-83.5" font-family="Helvetica,sans-Serif" font-size="10.00">Goban::setScoreWhite</text>
</a>
</g>
</g>
<!-- Node142&#45;&gt;Node150 -->
<g id="edge22" class="edge"><title>Node142&#45;&gt;Node150</title>
<path fill="none" stroke="midnightblue" d="M506.956,-119.457C529.141,-113.222 558.326,-105.019 582.246,-98.2969"/>
<polygon fill="midnightblue" stroke="midnightblue" points="583.459,-101.592 592.139,-95.5164 581.565,-94.8527 583.459,-101.592"/>
</g>
<!-- Node151 -->
<g id="node20" class="node"><title>Node151</title>
<g id="a_node20"><a xlink:href="class_goban.html#a868b44b0c3ebec7ca88082ebe85a2960" target="_top" xlink:title="Goban::setScoreBlack">
<polygon fill="none" stroke="black" points="569.5,-38.5 569.5,-57.5 684.5,-57.5 684.5,-38.5 569.5,-38.5"/>
<text text-anchor="middle" x="627" y="-45.5" font-family="Helvetica,sans-Serif" font-size="10.00">Goban::setScoreBlack</text>
</a>
</g>
</g>
<!-- Node142&#45;&gt;Node151 -->
<g id="edge23" class="edge"><title>Node142&#45;&gt;Node151</title>
<path fill="none" stroke="midnightblue" d="M485.439,-119.497C503.187,-106.289 537.163,-82.2847 569,-67 573.411,-64.8824 578.119,-62.9029 582.867,-61.082"/>
<polygon fill="midnightblue" stroke="midnightblue" points="584.37,-64.2607 592.588,-57.5738 581.994,-57.6764 584.37,-64.2607"/>
</g>
<!-- Node144 -->
<g id="node13" class="node"><title>Node144</title>
<g id="a_node13"><a xlink:href="class_etat.html#aa25e66b110bc835523819392435e78c6" target="_top" xlink:title="Etat::getX">
<polygon fill="none" stroke="black" points="763,-114.5 763,-133.5 822,-133.5 822,-114.5 763,-114.5"/>
<text text-anchor="middle" x="792.5" y="-121.5" font-family="Helvetica,sans-Serif" font-size="10.00">Etat::getX</text>
</a>
</g>
</g>
<!-- Node143&#45;&gt;Node144 -->
<g id="edge13" class="edge"><title>Node143&#45;&gt;Node144</title>
<path fill="none" stroke="midnightblue" d="M682.443,-124C705.489,-124 731.806,-124 752.813,-124"/>
<polygon fill="midnightblue" stroke="midnightblue" points="752.965,-127.5 762.965,-124 752.965,-120.5 752.965,-127.5"/>
</g>
<!-- Node145 -->
<g id="node14" class="node"><title>Node145</title>
<g id="a_node14"><a xlink:href="class_etat.html#a3e3e915f2261c83989a983e84b1273c1" target="_top" xlink:title="Etat::getY">
<polygon fill="none" stroke="black" points="762,-76.5 762,-95.5 823,-95.5 823,-76.5 762,-76.5"/>
<text text-anchor="middle" x="792.5" y="-83.5" font-family="Helvetica,sans-Serif" font-size="10.00">Etat::getY</text>
</a>
</g>
</g>
<!-- Node143&#45;&gt;Node145 -->
<g id="edge14" class="edge"><title>Node143&#45;&gt;Node145</title>
<path fill="none" stroke="midnightblue" d="M669.258,-114.411C694.617,-108.517 726.931,-101.007 751.966,-95.1884"/>
<polygon fill="midnightblue" stroke="midnightblue" points="752.914,-98.5614 761.862,-92.8884 751.329,-91.7432 752.914,-98.5614"/>
</g>
<!-- Node146 -->
<g id="node15" class="node"><title>Node146</title>
<g id="a_node15"><a xlink:href="class_goban.html#a0e2596110cdbb9b007b2b2fd8d5a9973" target="_top" xlink:title="Goban::DefineStone">
<polygon fill="none" stroke="black" points="740.5,-38.5 740.5,-57.5 844.5,-57.5 844.5,-38.5 740.5,-38.5"/>
<text text-anchor="middle" x="792.5" y="-45.5" font-family="Helvetica,sans-Serif" font-size="10.00">Goban::DefineStone</text>
</a>
</g>
</g>
<!-- Node143&#45;&gt;Node146 -->
<g id="edge15" class="edge"><title>Node143&#45;&gt;Node146</title>
<path fill="none" stroke="midnightblue" d="M665.392,-114.474C672.191,-111.937 679.017,-108.81 685,-105 704.623,-92.5029 701.02,-78.9178 721,-67 724.674,-64.8084 728.605,-62.8643 732.661,-61.1408"/>
<polygon fill="midnightblue" stroke="midnightblue" points="734.17,-64.3123 742.29,-57.5064 731.698,-57.7633 734.17,-64.3123"/>
</g>
<!-- Node146&#45;&gt;Node137 -->
<g id="edge18" class="edge"><title>Node146&#45;&gt;Node137</title>
<path fill="none" stroke="midnightblue" d="M844.725,-55.9761C851.712,-58.6637 858.395,-62.2413 864,-67 905.302,-102.068 923.078,-166.983 929.663,-199.448"/>
<polygon fill="midnightblue" stroke="midnightblue" points="926.26,-200.293 931.546,-209.475 933.14,-199.001 926.26,-200.293"/>
</g>
<!-- Node147 -->
<g id="node16" class="node"><title>Node147</title>
<g id="a_node16"><a xlink:href="class_etat.html#ac020c4fe222274ac849a03fc8f19a99a" target="_top" xlink:title="Etat::setX">
<polygon fill="none" stroke="black" points="904.5,-76.5 904.5,-95.5 963.5,-95.5 963.5,-76.5 904.5,-76.5"/>
<text text-anchor="middle" x="934" y="-83.5" font-family="Helvetica,sans-Serif" font-size="10.00">Etat::setX</text>
</a>
</g>
</g>
<!-- Node146&#45;&gt;Node147 -->
<g id="edge16" class="edge"><title>Node146&#45;&gt;Node147</title>
<path fill="none" stroke="midnightblue" d="M829.014,-57.5306C840.211,-60.5465 852.626,-63.9013 864,-67 873.98,-69.7189 884.766,-72.6787 894.779,-75.4353"/>
<polygon fill="midnightblue" stroke="midnightblue" points="893.904,-78.8247 904.474,-78.1076 895.764,-72.0763 893.904,-78.8247"/>
</g>
<!-- Node148 -->
<g id="node17" class="node"><title>Node148</title>
<g id="a_node17"><a xlink:href="class_etat.html#a8a54fc9ecb1b97d84d2f1f259e3bf70e" target="_top" xlink:title="Etat::setY">
<polygon fill="none" stroke="black" points="903.5,-38.5 903.5,-57.5 964.5,-57.5 964.5,-38.5 903.5,-38.5"/>
<text text-anchor="middle" x="934" y="-45.5" font-family="Helvetica,sans-Serif" font-size="10.00">Etat::setY</text>
</a>
</g>
</g>
<!-- Node146&#45;&gt;Node148 -->
<g id="edge17" class="edge"><title>Node146&#45;&gt;Node148</title>
<path fill="none" stroke="midnightblue" d="M844.653,-48C860.7,-48 878.165,-48 893.297,-48"/>
<polygon fill="midnightblue" stroke="midnightblue" points="893.354,-51.5001 903.354,-48 893.354,-44.5001 893.354,-51.5001"/>
</g>
<!-- Node149 -->
<g id="node18" class="node"><title>Node149</title>
<g id="a_node18"><a xlink:href="class_goban.html#a579840586df08a58983f6b497979344b" target="_top" xlink:title="Goban::ctoi">
<polygon fill="none" stroke="black" points="900.5,-0.5 900.5,-19.5 967.5,-19.5 967.5,-0.5 900.5,-0.5"/>
<text text-anchor="middle" x="934" y="-7.5" font-family="Helvetica,sans-Serif" font-size="10.00">Goban::ctoi</text>
</a>
</g>
</g>
<!-- Node146&#45;&gt;Node149 -->
<g id="edge19" class="edge"><title>Node146&#45;&gt;Node149</title>
<path fill="none" stroke="midnightblue" d="M828.702,-38.411C847.483,-33.295 870.735,-26.961 890.515,-21.5729"/>
<polygon fill="midnightblue" stroke="midnightblue" points="891.477,-24.9386 900.205,-18.9333 889.637,-18.1847 891.477,-24.9386"/>
</g>
</g>
</svg>
