<?xml version="1.0" encoding="UTF-8" standalone="no"?>
<!DOCTYPE svg PUBLIC "-//W3C//DTD SVG 1.1//EN"
 "http://www.w3.org/Graphics/SVG/1.1/DTD/svg11.dtd">
<!-- Generated by graphviz version 2.38.0 (20140413.2041)
 -->
<!-- Title: Arbre::Arbre Pages: 1 -->
<svg width="685pt" height="180pt"
 viewBox="0.00 0.00 685.00 180.00" xmlns="http://www.w3.org/2000/svg" xmlns:xlink="http://www.w3.org/1999/xlink">
<g id="graph0" class="graph" transform="scale(1 1) rotate(0) translate(4 176)">
<title>Arbre::Arbre</title>
<!-- Node1 -->
<g id="node1" class="node"><title>Node1</title>
<polygon fill="#bfbfbf" stroke="black" points="0,-57.5 0,-76.5 69,-76.5 69,-57.5 0,-57.5"/>
<text text-anchor="middle" x="34.5" y="-64.5" font-family="Helvetica,sans-Serif" font-size="10.00">Arbre::Arbre</text>
</g>
<!-- Node2 -->
<g id="node2" class="node"><title>Node2</title>
<g id="a_node2"><a xlink:href="class_arbre.html#aceca304216a7f620926c2147c7c84acd" target="_top" xlink:title="Arbre::setFilsA">
<polygon fill="none" stroke="black" points="113,-114.5 113,-133.5 195,-133.5 195,-114.5 113,-114.5"/>
<text text-anchor="middle" x="154" y="-121.5" font-family="Helvetica,sans-Serif" font-size="10.00">Arbre::setFilsA</text>
</a>
</g>
</g>
<!-- Node1&#45;&gt;Node2 -->
<g id="edge1" class="edge"><title>Node1&#45;&gt;Node2</title>
<path fill="none" stroke="midnightblue" d="M64.4363,-81.0372C85.8441,-91.4222 114.438,-105.293 133.269,-114.428"/>
<polygon fill="midnightblue" stroke="midnightblue" points="65.6917,-77.7562 55.1669,-76.5405 62.6365,-84.0542 65.6917,-77.7562"/>
</g>
<!-- Node9 -->
<g id="node9" class="node"><title>Node9</title>
<g id="a_node9"><a xlink:href="class_arbre.html#a08c9dd0d84f493d89cb8e2e4bd740a8b" target="_top" xlink:title="Arbre::setSABR">
<polygon fill="none" stroke="black" points="258.5,-38.5 258.5,-57.5 344.5,-57.5 344.5,-38.5 258.5,-38.5"/>
<text text-anchor="middle" x="301.5" y="-45.5" font-family="Helvetica,sans-Serif" font-size="10.00">Arbre::setSABR</text>
</a>
</g>
</g>
<!-- Node1&#45;&gt;Node9 -->
<g id="edge8" class="edge"><title>Node1&#45;&gt;Node9</title>
<path fill="none" stroke="midnightblue" d="M79.3096,-69.2965C113.168,-70.5166 161.16,-71.0387 203,-67 222.226,-65.1442 243.291,-61.2755 260.906,-57.5104"/>
<polygon fill="midnightblue" stroke="midnightblue" points="79.4087,-65.7978 69.2781,-68.8997 79.1319,-72.7923 79.4087,-65.7978"/>
</g>
<!-- Node10 -->
<g id="node10" class="node"><title>Node10</title>
<g id="a_node10"><a xlink:href="class_arbre.html#a9983712c900965e153ee7340f80e42c2" target="_top" xlink:title="Arbre::operator=">
<polygon fill="none" stroke="black" points="110.5,-38.5 110.5,-57.5 197.5,-57.5 197.5,-38.5 110.5,-38.5"/>
<text text-anchor="middle" x="154" y="-45.5" font-family="Helvetica,sans-Serif" font-size="10.00">Arbre::operator=</text>
</a>
</g>
</g>
<!-- Node1&#45;&gt;Node10 -->
<g id="edge10" class="edge"><title>Node1&#45;&gt;Node10</title>
<path fill="none" stroke="midnightblue" d="M79.0472,-59.9583C89.1891,-58.3184 99.9801,-56.5734 110.094,-54.938"/>
<polygon fill="midnightblue" stroke="midnightblue" points="78.4838,-56.5039 69.1708,-61.5554 79.6013,-63.4141 78.4838,-56.5039"/>
</g>
<!-- Node11 -->
<g id="node11" class="node"><title>Node11</title>
<g id="a_node11"><a xlink:href="class_arbre.html#afecc9a49515e88dba06b10d1e0fadb76" target="_top" xlink:title="Arbre::defineSABR">
<polygon fill="none" stroke="black" points="105,-0.5 105,-19.5 203,-19.5 203,-0.5 105,-0.5"/>
<text text-anchor="middle" x="154" y="-7.5" font-family="Helvetica,sans-Serif" font-size="10.00">Arbre::defineSABR</text>
</a>
</g>
</g>
<!-- Node1&#45;&gt;Node11 -->
<g id="edge11" class="edge"><title>Node1&#45;&gt;Node11</title>
<path fill="none" stroke="midnightblue" d="M60.626,-52.2842C73.6654,-44.8991 89.9725,-36.0495 105,-29 112.059,-25.6885 119.864,-22.4334 127.092,-19.5788"/>
<polygon fill="midnightblue" stroke="midnightblue" points="58.7106,-49.3478 51.7739,-57.3562 62.1906,-55.4215 58.7106,-49.3478"/>
</g>
<!-- Node3 -->
<g id="node3" class="node"><title>Node3</title>
<g id="a_node3"><a xlink:href="class_i_a.html#a42202360406fe67babfd01a9b7902fd2" target="_top" xlink:title="IA::Tsumego_naif">
<polygon fill="none" stroke="black" points="255.5,-152.5 255.5,-171.5 347.5,-171.5 347.5,-152.5 255.5,-152.5"/>
<text text-anchor="middle" x="301.5" y="-159.5" font-family="Helvetica,sans-Serif" font-size="10.00">IA::Tsumego_naif</text>
</a>
</g>
</g>
<!-- Node2&#45;&gt;Node3 -->
<g id="edge2" class="edge"><title>Node2&#45;&gt;Node3</title>
<path fill="none" stroke="midnightblue" d="M201.653,-136.184C221.853,-141.46 245.148,-147.544 264.048,-152.48"/>
<polygon fill="midnightblue" stroke="midnightblue" points="202.276,-132.73 191.716,-133.589 200.507,-139.502 202.276,-132.73"/>
</g>
<!-- Node4 -->
<g id="node4" class="node"><title>Node4</title>
<g id="a_node4"><a xlink:href="class_i_a.html#af1f6e5abe41a2225b17ca319c1fc0e4e" target="_top" xlink:title="IA::Tsumego_abr">
<polygon fill="none" stroke="black" points="256.5,-114.5 256.5,-133.5 346.5,-133.5 346.5,-114.5 256.5,-114.5"/>
<text text-anchor="middle" x="301.5" y="-121.5" font-family="Helvetica,sans-Serif" font-size="10.00">IA::Tsumego_abr</text>
</a>
</g>
</g>
<!-- Node2&#45;&gt;Node4 -->
<g id="edge3" class="edge"><title>Node2&#45;&gt;Node4</title>
<path fill="none" stroke="midnightblue" d="M205.242,-124C221.879,-124 240.259,-124 256.399,-124"/>
<polygon fill="midnightblue" stroke="midnightblue" points="205.144,-120.5 195.144,-124 205.144,-127.5 205.144,-120.5"/>
</g>
<!-- Node8 -->
<g id="node8" class="node"><title>Node8</title>
<g id="a_node8"><a xlink:href="class_i_a.html#a5d86a3548f2410f7fc0676b89d07f4fd" target="_top" xlink:title="IA::Tsumego_compresse">
<polygon fill="none" stroke="black" points="239,-76.5 239,-95.5 364,-95.5 364,-76.5 239,-76.5"/>
<text text-anchor="middle" x="301.5" y="-83.5" font-family="Helvetica,sans-Serif" font-size="10.00">IA::Tsumego_compresse</text>
</a>
</g>
</g>
<!-- Node2&#45;&gt;Node8 -->
<g id="edge7" class="edge"><title>Node2&#45;&gt;Node8</title>
<path fill="none" stroke="midnightblue" d="M201.653,-111.816C221.853,-106.54 245.148,-100.456 264.048,-95.5201"/>
<polygon fill="midnightblue" stroke="midnightblue" points="200.507,-108.498 191.716,-114.411 202.276,-115.27 200.507,-108.498"/>
</g>
<!-- Node5 -->
<g id="node5" class="node"><title>Node5</title>
<g id="a_node5"><a xlink:href="class_i_a.html#a364aef554d81e9a93bff08c28d437497" target="_top" xlink:title="IA::Tsumego">
<polygon fill="none" stroke="black" points="417.5,-114.5 417.5,-133.5 488.5,-133.5 488.5,-114.5 417.5,-114.5"/>
<text text-anchor="middle" x="453" y="-121.5" font-family="Helvetica,sans-Serif" font-size="10.00">IA::Tsumego</text>
</a>
</g>
</g>
<!-- Node4&#45;&gt;Node5 -->
<g id="edge4" class="edge"><title>Node4&#45;&gt;Node5</title>
<path fill="none" stroke="midnightblue" d="M356.582,-124C376.816,-124 399.243,-124 417.267,-124"/>
<polygon fill="midnightblue" stroke="midnightblue" points="356.546,-120.5 346.546,-124 356.546,-127.5 356.546,-120.5"/>
</g>
<!-- Node7 -->
<g id="node7" class="node"><title>Node7</title>
<g id="a_node7"><a xlink:href="class_i_a.html#a6f616b7d3d9d39eef4780b7a03226260" target="_top" xlink:title="IA::Tsumego_abrFils">
<polygon fill="none" stroke="black" points="400,-38.5 400,-57.5 506,-57.5 506,-38.5 400,-38.5"/>
<text text-anchor="middle" x="453" y="-45.5" font-family="Helvetica,sans-Serif" font-size="10.00">IA::Tsumego_abrFils</text>
</a>
</g>
</g>
<!-- Node4&#45;&gt;Node7 -->
<g id="edge6" class="edge"><title>Node4&#45;&gt;Node7</title>
<path fill="none" stroke="midnightblue" d="M349.054,-111.124C354.175,-109.265 359.25,-107.22 364,-105 392.693,-91.5894 423.036,-70.0763 439.53,-57.6703"/>
<polygon fill="midnightblue" stroke="midnightblue" points="347.563,-107.934 339.222,-114.467 349.816,-114.561 347.563,-107.934"/>
</g>
<!-- Node6 -->
<g id="node6" class="node"><title>Node6</title>
<g id="a_node6"><a xlink:href="class_go___solver.html#a6ca744f1f4586c3f90f2e47915034baf" target="_top" xlink:title="Go_Solver::launchTsumego">
<polygon fill="none" stroke="black" points="542,-114.5 542,-133.5 677,-133.5 677,-114.5 542,-114.5"/>
<text text-anchor="middle" x="609.5" y="-121.5" font-family="Helvetica,sans-Serif" font-size="10.00">Go_Solver::launchTsumego</text>
</a>
</g>
</g>
<!-- Node5&#45;&gt;Node6 -->
<g id="edge5" class="edge"><title>Node5&#45;&gt;Node6</title>
<path fill="none" stroke="midnightblue" d="M499.056,-124C512.475,-124 527.473,-124 541.958,-124"/>
<polygon fill="midnightblue" stroke="midnightblue" points="498.673,-120.5 488.673,-124 498.673,-127.5 498.673,-120.5"/>
</g>
<!-- Node9&#45;&gt;Node7 -->
<g id="edge9" class="edge"><title>Node9&#45;&gt;Node7</title>
<path fill="none" stroke="midnightblue" d="M354.905,-48C369.49,-48 385.324,-48 399.892,-48"/>
<polygon fill="midnightblue" stroke="midnightblue" points="354.542,-44.5001 344.542,-48 354.542,-51.5001 354.542,-44.5001"/>
</g>
<!-- Node11&#45;&gt;Node7 -->
<g id="edge12" class="edge"><title>Node11&#45;&gt;Node7</title>
<path fill="none" stroke="midnightblue" d="M213.41,-13.3951C255.45,-16.3043 313.425,-21.2709 364,-29 380.068,-31.4557 397.605,-35.0519 412.764,-38.4566"/>
<polygon fill="midnightblue" stroke="midnightblue" points="213.562,-9.89752 203.349,-12.7171 213.091,-16.8817 213.562,-9.89752"/>
</g>
</g>
</svg>
