<?xml version="1.0" encoding="UTF-8" standalone="no"?>
<!DOCTYPE svg PUBLIC "-//W3C//DTD SVG 1.1//EN"
 "http://www.w3.org/Graphics/SVG/1.1/DTD/svg11.dtd">
<!-- Generated by graphviz version 2.38.0 (20140413.2041)
 -->
<!-- Title: Goban::listFils Pages: 1 -->
<svg width="857pt" height="332pt"
 viewBox="0.00 0.00 857.00 332.00" xmlns="http://www.w3.org/2000/svg" xmlns:xlink="http://www.w3.org/1999/xlink">
<g id="graph0" class="graph" transform="scale(1 1) rotate(0) translate(4 328)">
<title>Goban::listFils</title>
<!-- Node214 -->
<g id="node1" class="node"><title>Node214</title>
<polygon fill="#bfbfbf" stroke="black" points="0,-200.5 0,-219.5 80,-219.5 80,-200.5 0,-200.5"/>
<text text-anchor="middle" x="40" y="-207.5" font-family="Helvetica,sans-Serif" font-size="10.00">Goban::listFils</text>
</g>
<!-- Node215 -->
<g id="node2" class="node"><title>Node215</title>
<g id="a_node2"><a xlink:href="class_goban.html#aa2aaa3b4db4549d169bd0ff234d601cb" target="_top" xlink:title="Goban::itoc">
<polygon fill="none" stroke="black" points="152.5,-257.5 152.5,-276.5 219.5,-276.5 219.5,-257.5 152.5,-257.5"/>
<text text-anchor="middle" x="186" y="-264.5" font-family="Helvetica,sans-Serif" font-size="10.00">Goban::itoc</text>
</a>
</g>
</g>
<!-- Node214&#45;&gt;Node215 -->
<g id="edge1" class="edge"><title>Node214&#45;&gt;Node215</title>
<path fill="none" stroke="midnightblue" d="M61.506,-219.552C76.477,-226.395 97.3331,-235.66 116,-243 125.738,-246.829 136.365,-250.682 146.298,-254.147"/>
<polygon fill="midnightblue" stroke="midnightblue" points="145.345,-257.521 155.94,-257.467 147.624,-250.902 145.345,-257.521"/>
</g>
<!-- Node216 -->
<g id="node3" class="node"><title>Node216</title>
<g id="a_node3"><a xlink:href="class_goban.html#a7dd1a7b53322bde2a831a923059e43a3" target="_top" xlink:title="Goban::move">
<polygon fill="none" stroke="black" points="316,-228.5 316,-247.5 390,-247.5 390,-228.5 316,-228.5"/>
<text text-anchor="middle" x="353" y="-235.5" font-family="Helvetica,sans-Serif" font-size="10.00">Goban::move</text>
</a>
</g>
</g>
<!-- Node214&#45;&gt;Node216 -->
<g id="edge2" class="edge"><title>Node214&#45;&gt;Node216</title>
<path fill="none" stroke="midnightblue" d="M80.0735,-213.518C137.443,-218.683 244.283,-228.302 305.575,-233.82"/>
<polygon fill="midnightblue" stroke="midnightblue" points="305.464,-237.324 315.737,-234.735 306.091,-230.352 305.464,-237.324"/>
</g>
<!-- Node221 -->
<g id="node8" class="node"><title>Node221</title>
<g id="a_node8"><a xlink:href="class_goban.html#a8584a53688e7bcf9de7c4cf48454acdc" target="_top" xlink:title="Goban::rechercheGroupes">
<polygon fill="none" stroke="black" points="120.5,-181.5 120.5,-200.5 251.5,-200.5 251.5,-181.5 120.5,-181.5"/>
<text text-anchor="middle" x="186" y="-188.5" font-family="Helvetica,sans-Serif" font-size="10.00">Goban::rechercheGroupes</text>
</a>
</g>
</g>
<!-- Node214&#45;&gt;Node221 -->
<g id="edge8" class="edge"><title>Node214&#45;&gt;Node221</title>
<path fill="none" stroke="midnightblue" d="M80.3486,-204.808C89.7513,-203.568 100.097,-202.203 110.511,-200.828"/>
<polygon fill="midnightblue" stroke="midnightblue" points="111.033,-204.29 120.489,-199.512 110.117,-197.35 111.033,-204.29"/>
</g>
<!-- Node222 -->
<g id="node9" class="node"><title>Node222</title>
<g id="a_node9"><a xlink:href="class_goban.html#a7858b815885e4af36f05f9d26182cb07" target="_top" xlink:title="Goban::eliminateOppGroups">
<polygon fill="none" stroke="black" points="116,-124.5 116,-143.5 256,-143.5 256,-124.5 116,-124.5"/>
<text text-anchor="middle" x="186" y="-131.5" font-family="Helvetica,sans-Serif" font-size="10.00">Goban::eliminateOppGroups</text>
</a>
</g>
</g>
<!-- Node214&#45;&gt;Node222 -->
<g id="edge9" class="edge"><title>Node214&#45;&gt;Node222</title>
<path fill="none" stroke="midnightblue" d="M59.2377,-200.375C84.1236,-187.24 128.918,-163.599 157.784,-148.364"/>
<polygon fill="midnightblue" stroke="midnightblue" points="159.7,-151.31 166.91,-143.547 156.433,-145.12 159.7,-151.31"/>
</g>
<!-- Node217 -->
<g id="node4" class="node"><title>Node217</title>
<g id="a_node4"><a xlink:href="class_goban.html#a6c4b62a9469b3876d250ab94bcd562e5" target="_top" xlink:title="Goban::eliminateOppositeKO">
<polygon fill="none" stroke="black" points="602,-304.5 602,-323.5 745,-323.5 745,-304.5 602,-304.5"/>
<text text-anchor="middle" x="673.5" y="-311.5" font-family="Helvetica,sans-Serif" font-size="10.00">Goban::eliminateOppositeKO</text>
</a>
</g>
</g>
<!-- Node216&#45;&gt;Node217 -->
<g id="edge3" class="edge"><title>Node216&#45;&gt;Node217</title>
<path fill="none" stroke="midnightblue" d="M367.547,-247.569C385.478,-259.694 418.511,-280.192 450,-290 495.675,-304.226 548.885,-310.319 591.815,-312.812"/>
<polygon fill="midnightblue" stroke="midnightblue" points="591.763,-316.314 601.933,-313.345 592.131,-309.324 591.763,-316.314"/>
</g>
<!-- Node218 -->
<g id="node5" class="node"><title>Node218</title>
<g id="a_node5"><a xlink:href="class_etat.html#aa88987ca54aee676717f05e4570c0aec" target="_top" xlink:title="Etat::setVal">
<polygon fill="none" stroke="black" points="781,-209.5 781,-228.5 849,-228.5 849,-209.5 781,-209.5"/>
<text text-anchor="middle" x="815" y="-216.5" font-family="Helvetica,sans-Serif" font-size="10.00">Etat::setVal</text>
</a>
</g>
</g>
<!-- Node216&#45;&gt;Node218 -->
<g id="edge6" class="edge"><title>Node216&#45;&gt;Node218</title>
<path fill="none" stroke="midnightblue" d="M390.22,-246.906C408.092,-250.855 430.047,-255.044 450,-257 566.084,-268.377 702.859,-243.897 770.958,-229.135"/>
<polygon fill="midnightblue" stroke="midnightblue" points="771.878,-232.516 780.89,-226.945 770.371,-225.68 771.878,-232.516"/>
</g>
<!-- Node219 -->
<g id="node6" class="node"><title>Node219</title>
<g id="a_node6"><a xlink:href="class_goban.html#a29aaf8df380fe614845d48cba057747c" target="_top" xlink:title="Goban::coord">
<polygon fill="none" stroke="black" points="470.5,-190.5 470.5,-209.5 545.5,-209.5 545.5,-190.5 470.5,-190.5"/>
<text text-anchor="middle" x="508" y="-197.5" font-family="Helvetica,sans-Serif" font-size="10.00">Goban::coord</text>
</a>
</g>
</g>
<!-- Node216&#45;&gt;Node219 -->
<g id="edge5" class="edge"><title>Node216&#45;&gt;Node219</title>
<path fill="none" stroke="midnightblue" d="M390.259,-228.995C411.35,-223.756 438.147,-217.101 460.746,-211.488"/>
<polygon fill="midnightblue" stroke="midnightblue" points="461.61,-214.88 470.471,-209.073 459.922,-208.086 461.61,-214.88"/>
</g>
<!-- Node220 -->
<g id="node7" class="node"><title>Node220</title>
<g id="a_node7"><a xlink:href="class_history.html#a90222df7f73ae9cfda56bdb66cb1985e" target="_top" xlink:title="Add new state in history. ">
<polygon fill="none" stroke="black" points="473.5,-228.5 473.5,-247.5 542.5,-247.5 542.5,-228.5 473.5,-228.5"/>
<text text-anchor="middle" x="508" y="-235.5" font-family="Helvetica,sans-Serif" font-size="10.00">History::add</text>
</a>
</g>
</g>
<!-- Node216&#45;&gt;Node220 -->
<g id="edge7" class="edge"><title>Node216&#45;&gt;Node220</title>
<path fill="none" stroke="midnightblue" d="M390.259,-238C412.099,-238 440.056,-238 463.135,-238"/>
<polygon fill="midnightblue" stroke="midnightblue" points="463.357,-241.5 473.357,-238 463.357,-234.5 463.357,-241.5"/>
</g>
<!-- Node217&#45;&gt;Node218 -->
<g id="edge4" class="edge"><title>Node217&#45;&gt;Node218</title>
<path fill="none" stroke="midnightblue" d="M713.311,-304.415C724.048,-300.818 735.384,-296.081 745,-290 767.553,-275.737 788.129,-252.662 800.83,-236.708"/>
<polygon fill="midnightblue" stroke="midnightblue" points="803.691,-238.73 807.039,-228.678 798.153,-234.448 803.691,-238.73"/>
</g>
<!-- Node223 -->
<g id="node10" class="node"><title>Node223</title>
<g id="a_node10"><a xlink:href="class_goban.html#a1ec70508987f66afff5f8df381731fac" target="_top" xlink:title="Goban::eliminateGroups">
<polygon fill="none" stroke="black" points="292,-119.5 292,-138.5 414,-138.5 414,-119.5 292,-119.5"/>
<text text-anchor="middle" x="353" y="-126.5" font-family="Helvetica,sans-Serif" font-size="10.00">Goban::eliminateGroups</text>
</a>
</g>
</g>
<!-- Node222&#45;&gt;Node223 -->
<g id="edge10" class="edge"><title>Node222&#45;&gt;Node223</title>
<path fill="none" stroke="midnightblue" d="M256.019,-131.909C264.494,-131.652 273.165,-131.389 281.66,-131.132"/>
<polygon fill="midnightblue" stroke="midnightblue" points="282.02,-134.622 291.91,-130.821 281.808,-127.626 282.02,-134.622"/>
</g>
<!-- Node223&#45;&gt;Node218 -->
<g id="edge20" class="edge"><title>Node223&#45;&gt;Node218</title>
<path fill="none" stroke="midnightblue" d="M402.793,-138.546C493.113,-156.218 684.966,-193.754 770.855,-210.559"/>
<polygon fill="midnightblue" stroke="midnightblue" points="770.304,-214.017 780.79,-212.502 771.648,-207.147 770.304,-214.017"/>
</g>
<!-- Node223&#45;&gt;Node219 -->
<g id="edge19" class="edge"><title>Node223&#45;&gt;Node219</title>
<path fill="none" stroke="midnightblue" d="M372.614,-138.503C391.846,-148.229 422.805,-163.63 450,-176 457.782,-179.54 466.238,-183.2 474.195,-186.562"/>
<polygon fill="midnightblue" stroke="midnightblue" points="472.999,-189.856 483.575,-190.488 475.701,-183.398 472.999,-189.856"/>
</g>
<!-- Node224 -->
<g id="node11" class="node"><title>Node224</title>
<g id="a_node11"><a xlink:href="class_goban.html#a84f36324eb9ddc29f522d481f04c13e7" target="_top" xlink:title="Goban::listOfLiberties">
<polygon fill="none" stroke="black" points="453,-114.5 453,-133.5 563,-133.5 563,-114.5 453,-114.5"/>
<text text-anchor="middle" x="508" y="-121.5" font-family="Helvetica,sans-Serif" font-size="10.00">Goban::listOfLiberties</text>
</a>
</g>
</g>
<!-- Node223&#45;&gt;Node224 -->
<g id="edge11" class="edge"><title>Node223&#45;&gt;Node224</title>
<path fill="none" stroke="midnightblue" d="M414.031,-127.038C423.376,-126.733 433.065,-126.416 442.504,-126.108"/>
<polygon fill="midnightblue" stroke="midnightblue" points="442.74,-129.602 452.62,-125.777 442.511,-122.606 442.74,-129.602"/>
</g>
<!-- Node231 -->
<g id="node18" class="node"><title>Node231</title>
<g id="a_node18"><a xlink:href="class_goban.html#a1d3ccccfb3f539e0271ee321686d9ef4" target="_top" xlink:title="Goban::setScoreWhite">
<polygon fill="none" stroke="black" points="450,-76.5 450,-95.5 566,-95.5 566,-76.5 450,-76.5"/>
<text text-anchor="middle" x="508" y="-83.5" font-family="Helvetica,sans-Serif" font-size="10.00">Goban::setScoreWhite</text>
</a>
</g>
</g>
<!-- Node223&#45;&gt;Node231 -->
<g id="edge21" class="edge"><title>Node223&#45;&gt;Node231</title>
<path fill="none" stroke="midnightblue" d="M387.956,-119.457C410.141,-113.222 439.326,-105.019 463.246,-98.2969"/>
<polygon fill="midnightblue" stroke="midnightblue" points="464.459,-101.592 473.139,-95.5164 462.565,-94.8527 464.459,-101.592"/>
</g>
<!-- Node232 -->
<g id="node19" class="node"><title>Node232</title>
<g id="a_node19"><a xlink:href="class_goban.html#a868b44b0c3ebec7ca88082ebe85a2960" target="_top" xlink:title="Goban::setScoreBlack">
<polygon fill="none" stroke="black" points="450.5,-38.5 450.5,-57.5 565.5,-57.5 565.5,-38.5 450.5,-38.5"/>
<text text-anchor="middle" x="508" y="-45.5" font-family="Helvetica,sans-Serif" font-size="10.00">Goban::setScoreBlack</text>
</a>
</g>
</g>
<!-- Node223&#45;&gt;Node232 -->
<g id="edge22" class="edge"><title>Node223&#45;&gt;Node232</title>
<path fill="none" stroke="midnightblue" d="M366.439,-119.497C384.187,-106.289 418.163,-82.2847 450,-67 454.411,-64.8824 459.119,-62.9029 463.867,-61.082"/>
<polygon fill="midnightblue" stroke="midnightblue" points="465.37,-64.2607 473.588,-57.5738 462.994,-57.6764 465.37,-64.2607"/>
</g>
<!-- Node225 -->
<g id="node12" class="node"><title>Node225</title>
<g id="a_node12"><a xlink:href="class_etat.html#aa25e66b110bc835523819392435e78c6" target="_top" xlink:title="Etat::getX">
<polygon fill="none" stroke="black" points="644,-114.5 644,-133.5 703,-133.5 703,-114.5 644,-114.5"/>
<text text-anchor="middle" x="673.5" y="-121.5" font-family="Helvetica,sans-Serif" font-size="10.00">Etat::getX</text>
</a>
</g>
</g>
<!-- Node224&#45;&gt;Node225 -->
<g id="edge12" class="edge"><title>Node224&#45;&gt;Node225</title>
<path fill="none" stroke="midnightblue" d="M563.443,-124C586.489,-124 612.806,-124 633.813,-124"/>
<polygon fill="midnightblue" stroke="midnightblue" points="633.965,-127.5 643.965,-124 633.965,-120.5 633.965,-127.5"/>
</g>
<!-- Node226 -->
<g id="node13" class="node"><title>Node226</title>
<g id="a_node13"><a xlink:href="class_etat.html#a3e3e915f2261c83989a983e84b1273c1" target="_top" xlink:title="Etat::getY">
<polygon fill="none" stroke="black" points="643,-76.5 643,-95.5 704,-95.5 704,-76.5 643,-76.5"/>
<text text-anchor="middle" x="673.5" y="-83.5" font-family="Helvetica,sans-Serif" font-size="10.00">Etat::getY</text>
</a>
</g>
</g>
<!-- Node224&#45;&gt;Node226 -->
<g id="edge13" class="edge"><title>Node224&#45;&gt;Node226</title>
<path fill="none" stroke="midnightblue" d="M550.258,-114.411C575.617,-108.517 607.931,-101.007 632.966,-95.1884"/>
<polygon fill="midnightblue" stroke="midnightblue" points="633.914,-98.5614 642.862,-92.8884 632.329,-91.7432 633.914,-98.5614"/>
</g>
<!-- Node227 -->
<g id="node14" class="node"><title>Node227</title>
<g id="a_node14"><a xlink:href="class_goban.html#a0e2596110cdbb9b007b2b2fd8d5a9973" target="_top" xlink:title="Goban::DefineStone">
<polygon fill="none" stroke="black" points="621.5,-38.5 621.5,-57.5 725.5,-57.5 725.5,-38.5 621.5,-38.5"/>
<text text-anchor="middle" x="673.5" y="-45.5" font-family="Helvetica,sans-Serif" font-size="10.00">Goban::DefineStone</text>
</a>
</g>
</g>
<!-- Node224&#45;&gt;Node227 -->
<g id="edge14" class="edge"><title>Node224&#45;&gt;Node227</title>
<path fill="none" stroke="midnightblue" d="M546.392,-114.474C553.191,-111.937 560.017,-108.81 566,-105 585.623,-92.5029 582.02,-78.9178 602,-67 605.674,-64.8084 609.605,-62.8643 613.661,-61.1408"/>
<polygon fill="midnightblue" stroke="midnightblue" points="615.17,-64.3123 623.29,-57.5064 612.698,-57.7633 615.17,-64.3123"/>
</g>
<!-- Node227&#45;&gt;Node218 -->
<g id="edge17" class="edge"><title>Node227&#45;&gt;Node218</title>
<path fill="none" stroke="midnightblue" d="M725.725,-55.9761C732.712,-58.6637 739.395,-62.2413 745,-67 786.302,-102.068 804.078,-166.983 810.663,-199.448"/>
<polygon fill="midnightblue" stroke="midnightblue" points="807.26,-200.293 812.546,-209.475 814.14,-199.001 807.26,-200.293"/>
</g>
<!-- Node228 -->
<g id="node15" class="node"><title>Node228</title>
<g id="a_node15"><a xlink:href="class_etat.html#ac020c4fe222274ac849a03fc8f19a99a" target="_top" xlink:title="Etat::setX">
<polygon fill="none" stroke="black" points="785.5,-76.5 785.5,-95.5 844.5,-95.5 844.5,-76.5 785.5,-76.5"/>
<text text-anchor="middle" x="815" y="-83.5" font-family="Helvetica,sans-Serif" font-size="10.00">Etat::setX</text>
</a>
</g>
</g>
<!-- Node227&#45;&gt;Node228 -->
<g id="edge15" class="edge"><title>Node227&#45;&gt;Node228</title>
<path fill="none" stroke="midnightblue" d="M710.014,-57.5306C721.211,-60.5465 733.626,-63.9013 745,-67 754.98,-69.7189 765.766,-72.6787 775.779,-75.4353"/>
<polygon fill="midnightblue" stroke="midnightblue" points="774.904,-78.8247 785.474,-78.1076 776.764,-72.0763 774.904,-78.8247"/>
</g>
<!-- Node229 -->
<g id="node16" class="node"><title>Node229</title>
<g id="a_node16"><a xlink:href="class_etat.html#a8a54fc9ecb1b97d84d2f1f259e3bf70e" target="_top" xlink:title="Etat::setY">
<polygon fill="none" stroke="black" points="784.5,-38.5 784.5,-57.5 845.5,-57.5 845.5,-38.5 784.5,-38.5"/>
<text text-anchor="middle" x="815" y="-45.5" font-family="Helvetica,sans-Serif" font-size="10.00">Etat::setY</text>
</a>
</g>
</g>
<!-- Node227&#45;&gt;Node229 -->
<g id="edge16" class="edge"><title>Node227&#45;&gt;Node229</title>
<path fill="none" stroke="midnightblue" d="M725.653,-48C741.7,-48 759.165,-48 774.297,-48"/>
<polygon fill="midnightblue" stroke="midnightblue" points="774.354,-51.5001 784.354,-48 774.354,-44.5001 774.354,-51.5001"/>
</g>
<!-- Node230 -->
<g id="node17" class="node"><title>Node230</title>
<g id="a_node17"><a xlink:href="class_goban.html#a579840586df08a58983f6b497979344b" target="_top" xlink:title="Goban::ctoi">
<polygon fill="none" stroke="black" points="781.5,-0.5 781.5,-19.5 848.5,-19.5 848.5,-0.5 781.5,-0.5"/>
<text text-anchor="middle" x="815" y="-7.5" font-family="Helvetica,sans-Serif" font-size="10.00">Goban::ctoi</text>
</a>
</g>
</g>
<!-- Node227&#45;&gt;Node230 -->
<g id="edge18" class="edge"><title>Node227&#45;&gt;Node230</title>
<path fill="none" stroke="midnightblue" d="M709.702,-38.411C728.483,-33.295 751.735,-26.961 771.515,-21.5729"/>
<polygon fill="midnightblue" stroke="midnightblue" points="772.477,-24.9386 781.205,-18.9333 770.637,-18.1847 772.477,-24.9386"/>
</g>
</g>
</svg>
