<?xml version="1.0" encoding="UTF-8" standalone="no"?>
<!DOCTYPE svg PUBLIC "-//W3C//DTD SVG 1.1//EN"
 "http://www.w3.org/Graphics/SVG/1.1/DTD/svg11.dtd">
<!-- Generated by graphviz version 2.38.0 (20140413.2041)
 -->
<!-- Title: Etat::getX Pages: 1 -->
<svg width="986pt" height="332pt"
 viewBox="0.00 0.00 986.00 332.00" xmlns="http://www.w3.org/2000/svg" xmlns:xlink="http://www.w3.org/1999/xlink">
<g id="graph0" class="graph" transform="scale(1 1) rotate(0) translate(4 328)">
<title>Etat::getX</title>
<!-- Node37 -->
<g id="node1" class="node"><title>Node37</title>
<polygon fill="#bfbfbf" stroke="black" points="0,-133.5 0,-152.5 59,-152.5 59,-133.5 0,-133.5"/>
<text text-anchor="middle" x="29.5" y="-140.5" font-family="Helvetica,sans-Serif" font-size="10.00">Etat::getX</text>
</g>
<!-- Node38 -->
<g id="node2" class="node"><title>Node38</title>
<g id="a_node2"><a xlink:href="_etat_8h.html#a1a56483b3043376a37fcc4b81aac6f98" target="_top" xlink:title="operator\&lt;\&lt;">
<polygon fill="none" stroke="black" points="125.5,-266.5 125.5,-285.5 189.5,-285.5 189.5,-266.5 125.5,-266.5"/>
<text text-anchor="middle" x="157.5" y="-273.5" font-family="Helvetica,sans-Serif" font-size="10.00">operator&lt;&lt;</text>
</a>
</g>
</g>
<!-- Node37&#45;&gt;Node38 -->
<g id="edge1" class="edge"><title>Node37&#45;&gt;Node38</title>
<path fill="none" stroke="midnightblue" d="M36.3447,-162.142C45.0553,-187.495 63.8461,-231.921 95,-257 103.618,-263.937 114.768,-268.351 125.203,-271.154"/>
<polygon fill="midnightblue" stroke="midnightblue" points="39.6473,-160.98 33.222,-152.556 32.9916,-163.148 39.6473,-160.98"/>
</g>
<!-- Node39 -->
<g id="node3" class="node"><title>Node39</title>
<g id="a_node3"><a xlink:href="class_goban.html#a84f36324eb9ddc29f522d481f04c13e7" target="_top" xlink:title="Goban::listOfLiberties">
<polygon fill="none" stroke="black" points="102.5,-228.5 102.5,-247.5 212.5,-247.5 212.5,-228.5 102.5,-228.5"/>
<text text-anchor="middle" x="157.5" y="-235.5" font-family="Helvetica,sans-Serif" font-size="10.00">Goban::listOfLiberties</text>
</a>
</g>
</g>
<!-- Node37&#45;&gt;Node39 -->
<g id="edge2" class="edge"><title>Node37&#45;&gt;Node39</title>
<path fill="none" stroke="midnightblue" d="M43.0401,-160.966C54.8693,-176.777 73.8982,-199.48 95,-214 103.687,-219.977 114.072,-224.758 123.814,-228.43"/>
<polygon fill="midnightblue" stroke="midnightblue" points="45.6516,-158.606 36.9459,-152.568 39.986,-162.717 45.6516,-158.606"/>
</g>
<!-- Node43 -->
<g id="node7" class="node"><title>Node43</title>
<g id="a_node7"><a xlink:href="class_goban.html#a8b95ea2b51c078381562e361ff7febac" target="_top" xlink:title="Goban::isSuicide">
<polygon fill="none" stroke="black" points="598,-190.5 598,-209.5 689,-209.5 689,-190.5 598,-190.5"/>
<text text-anchor="middle" x="643.5" y="-197.5" font-family="Helvetica,sans-Serif" font-size="10.00">Goban::isSuicide</text>
</a>
</g>
</g>
<!-- Node37&#45;&gt;Node43 -->
<g id="edge14" class="edge"><title>Node37&#45;&gt;Node43</title>
<path fill="none" stroke="midnightblue" d="M50.9136,-158.607C63.0294,-166.92 79.0908,-176.364 95,-181 188.823,-208.34 484.815,-204.03 597.943,-201.265"/>
<polygon fill="midnightblue" stroke="midnightblue" points="52.6532,-155.548 42.4857,-152.569 48.5764,-161.238 52.6532,-155.548"/>
</g>
<!-- Node50 -->
<g id="node14" class="node"><title>Node50</title>
<g id="a_node14"><a xlink:href="class_goban.html#ae7ee3b39f3c0d28c9bca286ca538f8ac" target="_top" xlink:title="Goban::cancel">
<polygon fill="none" stroke="black" points="117.5,-152.5 117.5,-171.5 197.5,-171.5 197.5,-152.5 117.5,-152.5"/>
<text text-anchor="middle" x="157.5" y="-159.5" font-family="Helvetica,sans-Serif" font-size="10.00">Goban::cancel</text>
</a>
</g>
</g>
<!-- Node37&#45;&gt;Node50 -->
<g id="edge15" class="edge"><title>Node37&#45;&gt;Node50</title>
<path fill="none" stroke="midnightblue" d="M69.193,-148.835C84.3752,-151.124 101.782,-153.749 117.038,-156.049"/>
<polygon fill="midnightblue" stroke="midnightblue" points="69.5015,-145.342 59.0914,-147.311 68.4577,-152.263 69.5015,-145.342"/>
</g>
<!-- Node53 -->
<g id="node17" class="node"><title>Node53</title>
<g id="a_node17"><a xlink:href="class_i_a.html#a42202360406fe67babfd01a9b7902fd2" target="_top" xlink:title="IA::Tsumego_naif">
<polygon fill="none" stroke="black" points="111.5,-114.5 111.5,-133.5 203.5,-133.5 203.5,-114.5 111.5,-114.5"/>
<text text-anchor="middle" x="157.5" y="-121.5" font-family="Helvetica,sans-Serif" font-size="10.00">IA::Tsumego_naif</text>
</a>
</g>
</g>
<!-- Node37&#45;&gt;Node53 -->
<g id="edge19" class="edge"><title>Node37&#45;&gt;Node53</title>
<path fill="none" stroke="midnightblue" d="M69.3044,-137.149C82.5587,-135.15 97.4979,-132.897 111.217,-130.828"/>
<polygon fill="midnightblue" stroke="midnightblue" points="68.4577,-133.737 59.0914,-138.689 69.5015,-140.658 68.4577,-133.737"/>
</g>
<!-- Node54 -->
<g id="node18" class="node"><title>Node54</title>
<g id="a_node18"><a xlink:href="class_i_a.html#af1f6e5abe41a2225b17ca319c1fc0e4e" target="_top" xlink:title="IA::Tsumego_abr">
<polygon fill="none" stroke="black" points="112.5,-76.5 112.5,-95.5 202.5,-95.5 202.5,-76.5 112.5,-76.5"/>
<text text-anchor="middle" x="157.5" y="-83.5" font-family="Helvetica,sans-Serif" font-size="10.00">IA::Tsumego_abr</text>
</a>
</g>
</g>
<!-- Node37&#45;&gt;Node54 -->
<g id="edge20" class="edge"><title>Node37&#45;&gt;Node54</title>
<path fill="none" stroke="midnightblue" d="M53.3548,-127.768C65.3876,-120.21 80.6004,-111.362 95,-105 103.075,-101.432 112.023,-98.2571 120.536,-95.572"/>
<polygon fill="midnightblue" stroke="midnightblue" points="51.3644,-124.887 44.8392,-133.234 55.1454,-130.778 51.3644,-124.887"/>
</g>
<!-- Node57 -->
<g id="node21" class="node"><title>Node57</title>
<g id="a_node21"><a xlink:href="class_i_a.html#a6f616b7d3d9d39eef4780b7a03226260" target="_top" xlink:title="IA::Tsumego_abrFils">
<polygon fill="none" stroke="black" points="264,-38.5 264,-57.5 370,-57.5 370,-38.5 264,-38.5"/>
<text text-anchor="middle" x="317" y="-45.5" font-family="Helvetica,sans-Serif" font-size="10.00">IA::Tsumego_abrFils</text>
</a>
</g>
</g>
<!-- Node37&#45;&gt;Node57 -->
<g id="edge24" class="edge"><title>Node37&#45;&gt;Node57</title>
<path fill="none" stroke="midnightblue" d="M40.4643,-124.416C51.276,-106.315 70.3462,-79.7229 95,-67 147.701,-39.8031 216.971,-38.4518 263.804,-41.6925"/>
<polygon fill="midnightblue" stroke="midnightblue" points="37.2241,-123.034 35.3245,-133.457 43.3095,-126.493 37.2241,-123.034"/>
</g>
<!-- Node58 -->
<g id="node22" class="node"><title>Node58</title>
<g id="a_node22"><a xlink:href="class_i_a.html#a5d86a3548f2410f7fc0676b89d07f4fd" target="_top" xlink:title="IA::Tsumego_compresse">
<polygon fill="none" stroke="black" points="95,-0.5 95,-19.5 220,-19.5 220,-0.5 95,-0.5"/>
<text text-anchor="middle" x="157.5" y="-7.5" font-family="Helvetica,sans-Serif" font-size="10.00">IA::Tsumego_compresse</text>
</a>
</g>
</g>
<!-- Node37&#45;&gt;Node58 -->
<g id="edge25" class="edge"><title>Node37&#45;&gt;Node58</title>
<path fill="none" stroke="midnightblue" d="M37.245,-123.968C46.6686,-99.9146 65.9519,-58.6796 95,-34 102.337,-27.7664 111.481,-23.0397 120.455,-19.502"/>
<polygon fill="midnightblue" stroke="midnightblue" points="33.939,-122.816 33.7094,-133.409 40.4944,-125.272 33.939,-122.816"/>
</g>
<!-- Node40 -->
<g id="node4" class="node"><title>Node40</title>
<g id="a_node4"><a xlink:href="class_goban.html#a1ec70508987f66afff5f8df381731fac" target="_top" xlink:title="Goban::eliminateGroups">
<polygon fill="none" stroke="black" points="256,-266.5 256,-285.5 378,-285.5 378,-266.5 256,-266.5"/>
<text text-anchor="middle" x="317" y="-273.5" font-family="Helvetica,sans-Serif" font-size="10.00">Goban::eliminateGroups</text>
</a>
</g>
</g>
<!-- Node39&#45;&gt;Node40 -->
<g id="edge3" class="edge"><title>Node39&#45;&gt;Node40</title>
<path fill="none" stroke="midnightblue" d="M208.104,-249.968C230.175,-255.293 255.803,-261.476 276.542,-266.48"/>
<polygon fill="midnightblue" stroke="midnightblue" points="208.786,-246.532 198.244,-247.589 207.144,-253.337 208.786,-246.532"/>
</g>
<!-- Node39&#45;&gt;Node43 -->
<g id="edge13" class="edge"><title>Node39&#45;&gt;Node43</title>
<path fill="none" stroke="midnightblue" d="M222.899,-235.997C301.306,-233.12 437.672,-226.701 554,-214 568.227,-212.447 583.658,-210.202 597.59,-207.963"/>
<polygon fill="midnightblue" stroke="midnightblue" points="222.564,-232.507 212.696,-236.364 222.815,-239.502 222.564,-232.507"/>
</g>
<!-- Node41 -->
<g id="node5" class="node"><title>Node41</title>
<g id="a_node5"><a xlink:href="class_goban.html#a7858b815885e4af36f05f9d26182cb07" target="_top" xlink:title="Goban::eliminateOppGroups">
<polygon fill="none" stroke="black" points="414,-266.5 414,-285.5 554,-285.5 554,-266.5 414,-266.5"/>
<text text-anchor="middle" x="484" y="-273.5" font-family="Helvetica,sans-Serif" font-size="10.00">Goban::eliminateOppGroups</text>
</a>
</g>
</g>
<!-- Node40&#45;&gt;Node41 -->
<g id="edge4" class="edge"><title>Node40&#45;&gt;Node41</title>
<path fill="none" stroke="midnightblue" d="M388.24,-276C396.698,-276 405.331,-276 413.774,-276"/>
<polygon fill="midnightblue" stroke="midnightblue" points="388.036,-272.5 378.036,-276 388.036,-279.5 388.036,-272.5"/>
</g>
<!-- Node42 -->
<g id="node6" class="node"><title>Node42</title>
<g id="a_node6"><a xlink:href="class_goban.html#a799390f04139eec16f7bb8c79b381303" target="_top" xlink:title="Goban::legalEvenKO">
<polygon fill="none" stroke="black" points="590,-304.5 590,-323.5 697,-323.5 697,-304.5 590,-304.5"/>
<text text-anchor="middle" x="643.5" y="-311.5" font-family="Helvetica,sans-Serif" font-size="10.00">Goban::legalEvenKO</text>
</a>
</g>
</g>
<!-- Node41&#45;&gt;Node42 -->
<g id="edge5" class="edge"><title>Node41&#45;&gt;Node42</title>
<path fill="none" stroke="midnightblue" d="M534.604,-287.968C556.675,-293.293 582.303,-299.476 603.042,-304.48"/>
<polygon fill="midnightblue" stroke="midnightblue" points="535.286,-284.532 524.744,-285.589 533.644,-291.337 535.286,-284.532"/>
</g>
<!-- Node41&#45;&gt;Node43 -->
<g id="edge6" class="edge"><title>Node41&#45;&gt;Node43</title>
<path fill="none" stroke="midnightblue" d="M530.946,-262.972C538.891,-259.9 546.878,-256.253 554,-252 572.635,-240.872 571.435,-230.245 590,-219 596.135,-215.284 603.11,-212.129 609.927,-209.52"/>
<polygon fill="midnightblue" stroke="midnightblue" points="529.557,-259.752 521.337,-266.437 531.931,-266.337 529.557,-259.752"/>
</g>
<!-- Node44 -->
<g id="node8" class="node"><title>Node44</title>
<g id="a_node8"><a xlink:href="class_goban.html#a36ab256c9430e070b620052a0f13f051" target="_top" xlink:title="Goban::listFils">
<polygon fill="none" stroke="black" points="603.5,-266.5 603.5,-285.5 683.5,-285.5 683.5,-266.5 603.5,-266.5"/>
<text text-anchor="middle" x="643.5" y="-273.5" font-family="Helvetica,sans-Serif" font-size="10.00">Goban::listFils</text>
</a>
</g>
</g>
<!-- Node41&#45;&gt;Node44 -->
<g id="edge7" class="edge"><title>Node41&#45;&gt;Node44</title>
<path fill="none" stroke="midnightblue" d="M564.404,-276C577.931,-276 591.432,-276 603.311,-276"/>
<polygon fill="midnightblue" stroke="midnightblue" points="564.082,-272.5 554.082,-276 564.082,-279.5 564.082,-272.5"/>
</g>
<!-- Node47 -->
<g id="node11" class="node"><title>Node47</title>
<g id="a_node11"><a xlink:href="class_board.html#a5fda73da080403d8a71a8593d581c350" target="_top" xlink:title="Board::click">
<polygon fill="none" stroke="black" points="609.5,-228.5 609.5,-247.5 677.5,-247.5 677.5,-228.5 609.5,-228.5"/>
<text text-anchor="middle" x="643.5" y="-235.5" font-family="Helvetica,sans-Serif" font-size="10.00">Board::click</text>
</a>
</g>
</g>
<!-- Node41&#45;&gt;Node47 -->
<g id="edge10" class="edge"><title>Node41&#45;&gt;Node47</title>
<path fill="none" stroke="midnightblue" d="M534.553,-264.044C558.958,-258.156 587.721,-251.217 609.417,-245.982"/>
<polygon fill="midnightblue" stroke="midnightblue" points="533.644,-260.663 524.744,-266.411 535.286,-267.468 533.644,-260.663"/>
</g>
<!-- Node45 -->
<g id="node9" class="node"><title>Node45</title>
<g id="a_node9"><a xlink:href="class_arbre.html#ac82e543d8cbf0aced4d741c346f9950d" target="_top" xlink:title="Arbre::Arbre">
<polygon fill="none" stroke="black" points="751.5,-285.5 751.5,-304.5 820.5,-304.5 820.5,-285.5 751.5,-285.5"/>
<text text-anchor="middle" x="786" y="-292.5" font-family="Helvetica,sans-Serif" font-size="10.00">Arbre::Arbre</text>
</a>
</g>
</g>
<!-- Node44&#45;&gt;Node45 -->
<g id="edge8" class="edge"><title>Node44&#45;&gt;Node45</title>
<path fill="none" stroke="midnightblue" d="M693.655,-282.647C712.714,-285.225 734.057,-288.111 751.316,-290.445"/>
<polygon fill="midnightblue" stroke="midnightblue" points="694.016,-279.164 683.637,-281.293 693.078,-286.101 694.016,-279.164"/>
</g>
<!-- Node46 -->
<g id="node10" class="node"><title>Node46</title>
<g id="a_node10"><a xlink:href="class_arbre.html#a70585b1d341c1e0c262b2b4a4f769b6d" target="_top" xlink:title="Arbre::resetFils">
<polygon fill="none" stroke="black" points="744.5,-247.5 744.5,-266.5 827.5,-266.5 827.5,-247.5 744.5,-247.5"/>
<text text-anchor="middle" x="786" y="-254.5" font-family="Helvetica,sans-Serif" font-size="10.00">Arbre::resetFils</text>
</a>
</g>
</g>
<!-- Node44&#45;&gt;Node46 -->
<g id="edge9" class="edge"><title>Node44&#45;&gt;Node46</title>
<path fill="none" stroke="midnightblue" d="M693.645,-269.354C710.132,-267.124 728.329,-264.664 744.114,-262.529"/>
<polygon fill="midnightblue" stroke="midnightblue" points="693.078,-265.899 683.637,-270.707 694.016,-272.836 693.078,-265.899"/>
</g>
<!-- Node48 -->
<g id="node12" class="node"><title>Node48</title>
<g id="a_node12"><a xlink:href="class_game__window.html#afa942088809bf10731bb31d0d37b878d" target="_top" xlink:title="Game_window::click">
<polygon fill="none" stroke="black" points="733,-209.5 733,-228.5 839,-228.5 839,-209.5 733,-209.5"/>
<text text-anchor="middle" x="786" y="-216.5" font-family="Helvetica,sans-Serif" font-size="10.00">Game_window::click</text>
</a>
</g>
</g>
<!-- Node47&#45;&gt;Node48 -->
<g id="edge11" class="edge"><title>Node47&#45;&gt;Node48</title>
<path fill="none" stroke="midnightblue" d="M687.841,-232.139C702.116,-230.209 718.137,-228.042 732.99,-226.033"/>
<polygon fill="midnightblue" stroke="midnightblue" points="687.237,-228.689 677.797,-233.497 688.175,-235.625 687.237,-228.689"/>
</g>
<!-- Node49 -->
<g id="node13" class="node"><title>Node49</title>
<g id="a_node13"><a xlink:href="class_game__window.html#a555769f4e8511e45d6623658dc736be5" target="_top" xlink:title="Game_window::Run">
<polygon fill="none" stroke="black" points="875,-180.5 875,-199.5 978,-199.5 978,-180.5 875,-180.5"/>
<text text-anchor="middle" x="926.5" y="-187.5" font-family="Helvetica,sans-Serif" font-size="10.00">Game_window::Run</text>
</a>
</g>
</g>
<!-- Node48&#45;&gt;Node49 -->
<g id="edge12" class="edge"><title>Node48&#45;&gt;Node49</title>
<path fill="none" stroke="midnightblue" d="M842.87,-207.302C855.143,-204.732 867.998,-202.04 879.814,-199.566"/>
<polygon fill="midnightblue" stroke="midnightblue" points="841.804,-203.949 832.734,-209.424 843.239,-210.8 841.804,-203.949"/>
</g>
<!-- Node51 -->
<g id="node15" class="node"><title>Node51</title>
<g id="a_node15"><a xlink:href="class_board.html#ac7ec911a62371650afd340d1535a1742" target="_top" xlink:title="Board::cancel">
<polygon fill="none" stroke="black" points="278.5,-152.5 278.5,-171.5 355.5,-171.5 355.5,-152.5 278.5,-152.5"/>
<text text-anchor="middle" x="317" y="-159.5" font-family="Helvetica,sans-Serif" font-size="10.00">Board::cancel</text>
</a>
</g>
</g>
<!-- Node50&#45;&gt;Node51 -->
<g id="edge16" class="edge"><title>Node50&#45;&gt;Node51</title>
<path fill="none" stroke="midnightblue" d="M207.972,-162C230.682,-162 257.18,-162 278.248,-162"/>
<polygon fill="midnightblue" stroke="midnightblue" points="207.838,-158.5 197.838,-162 207.838,-165.5 207.838,-158.5"/>
</g>
<!-- Node52 -->
<g id="node16" class="node"><title>Node52</title>
<g id="a_node16"><a xlink:href="class_game__window.html#a72304de2044c29f1373037bd818f674f" target="_top" xlink:title="Game_window::keyPressed">
<polygon fill="none" stroke="black" points="415.5,-152.5 415.5,-171.5 552.5,-171.5 552.5,-152.5 415.5,-152.5"/>
<text text-anchor="middle" x="484" y="-159.5" font-family="Helvetica,sans-Serif" font-size="10.00">Game_window::keyPressed</text>
</a>
</g>
</g>
<!-- Node51&#45;&gt;Node52 -->
<g id="edge17" class="edge"><title>Node51&#45;&gt;Node52</title>
<path fill="none" stroke="midnightblue" d="M366.131,-162C381.469,-162 398.736,-162 415.197,-162"/>
<polygon fill="midnightblue" stroke="midnightblue" points="365.854,-158.5 355.854,-162 365.854,-165.5 365.854,-158.5"/>
</g>
<!-- Node52&#45;&gt;Node49 -->
<g id="edge18" class="edge"><title>Node52&#45;&gt;Node49</title>
<path fill="none" stroke="midnightblue" d="M563.011,-166.959C652.976,-172.677 798.271,-181.913 874.727,-186.773"/>
<polygon fill="midnightblue" stroke="midnightblue" points="563.065,-163.455 552.863,-166.314 562.621,-170.441 563.065,-163.455"/>
</g>
<!-- Node55 -->
<g id="node19" class="node"><title>Node55</title>
<g id="a_node19"><a xlink:href="class_i_a.html#a364aef554d81e9a93bff08c28d437497" target="_top" xlink:title="IA::Tsumego">
<polygon fill="none" stroke="black" points="281.5,-76.5 281.5,-95.5 352.5,-95.5 352.5,-76.5 281.5,-76.5"/>
<text text-anchor="middle" x="317" y="-83.5" font-family="Helvetica,sans-Serif" font-size="10.00">IA::Tsumego</text>
</a>
</g>
</g>
<!-- Node54&#45;&gt;Node55 -->
<g id="edge21" class="edge"><title>Node54&#45;&gt;Node55</title>
<path fill="none" stroke="midnightblue" d="M212.959,-86C235.611,-86 261.234,-86 281.263,-86"/>
<polygon fill="midnightblue" stroke="midnightblue" points="212.792,-82.5001 202.792,-86 212.792,-89.5001 212.792,-82.5001"/>
</g>
<!-- Node54&#45;&gt;Node57 -->
<g id="edge23" class="edge"><title>Node54&#45;&gt;Node57</title>
<path fill="none" stroke="midnightblue" d="M208.104,-74.032C230.175,-68.7069 255.803,-62.5238 276.542,-57.5201"/>
<polygon fill="midnightblue" stroke="midnightblue" points="207.144,-70.6631 198.244,-76.411 208.786,-77.4679 207.144,-70.6631"/>
</g>
<!-- Node56 -->
<g id="node20" class="node"><title>Node56</title>
<g id="a_node20"><a xlink:href="class_go___solver.html#a6ca744f1f4586c3f90f2e47915034baf" target="_top" xlink:title="Go_Solver::launchTsumego">
<polygon fill="none" stroke="black" points="416.5,-76.5 416.5,-95.5 551.5,-95.5 551.5,-76.5 416.5,-76.5"/>
<text text-anchor="middle" x="484" y="-83.5" font-family="Helvetica,sans-Serif" font-size="10.00">Go_Solver::launchTsumego</text>
</a>
</g>
</g>
<!-- Node55&#45;&gt;Node56 -->
<g id="edge22" class="edge"><title>Node55&#45;&gt;Node56</title>
<path fill="none" stroke="midnightblue" d="M363.014,-86C379.489,-86 398.497,-86 416.457,-86"/>
<polygon fill="midnightblue" stroke="midnightblue" points="362.589,-82.5001 352.589,-86 362.589,-89.5001 362.589,-82.5001"/>
</g>
</g>
</svg>
