<?xml version="1.0" encoding="UTF-8" standalone="no"?>
<!DOCTYPE svg PUBLIC "-//W3C//DTD SVG 1.1//EN"
 "http://www.w3.org/Graphics/SVG/1.1/DTD/svg11.dtd">
<!-- Generated by graphviz version 2.38.0 (20140413.2041)
 -->
<!-- Title: Game_window::Run Pages: 1 -->
<svg width="1199pt" height="522pt"
 viewBox="0.00 0.00 1199.00 522.00" xmlns="http://www.w3.org/2000/svg" xmlns:xlink="http://www.w3.org/1999/xlink">
<g id="graph0" class="graph" transform="scale(1 1) rotate(0) translate(4 518)">
<title>Game_window::Run</title>
<!-- Node60 -->
<g id="node1" class="node"><title>Node60</title>
<polygon fill="#bfbfbf" stroke="black" points="0,-266.5 0,-285.5 103,-285.5 103,-266.5 0,-266.5"/>
<text text-anchor="middle" x="51.5" y="-273.5" font-family="Helvetica,sans-Serif" font-size="10.00">Game_window::Run</text>
</g>
<!-- Node61 -->
<g id="node2" class="node"><title>Node61</title>
<g id="a_node2"><a xlink:href="class_game__window.html#afa942088809bf10731bb31d0d37b878d" target="_top" xlink:title="Game_window::click">
<polygon fill="none" stroke="black" points="141,-266.5 141,-285.5 247,-285.5 247,-266.5 141,-266.5"/>
<text text-anchor="middle" x="194" y="-273.5" font-family="Helvetica,sans-Serif" font-size="10.00">Game_window::click</text>
</a>
</g>
</g>
<!-- Node60&#45;&gt;Node61 -->
<g id="edge1" class="edge"><title>Node60&#45;&gt;Node61</title>
<path fill="none" stroke="midnightblue" d="M103.224,-276C112.133,-276 121.497,-276 130.678,-276"/>
<polygon fill="midnightblue" stroke="midnightblue" points="130.933,-279.5 140.933,-276 130.933,-272.5 130.933,-279.5"/>
</g>
<!-- Node88 -->
<g id="node29" class="node"><title>Node88</title>
<g id="a_node29"><a xlink:href="class_game__window.html#a9b9b15469cb0ced1a22f28e447983b56" target="_top" xlink:title="Game_window::zoom">
<polygon fill="none" stroke="black" points="139,-304.5 139,-323.5 249,-323.5 249,-304.5 139,-304.5"/>
<text text-anchor="middle" x="194" y="-311.5" font-family="Helvetica,sans-Serif" font-size="10.00">Game_window::zoom</text>
</a>
</g>
</g>
<!-- Node60&#45;&gt;Node88 -->
<g id="edge33" class="edge"><title>Node60&#45;&gt;Node88</title>
<path fill="none" stroke="midnightblue" d="M87.9541,-285.589C106.091,-290.494 128.368,-296.52 147.733,-301.757"/>
<polygon fill="midnightblue" stroke="midnightblue" points="146.99,-305.182 157.557,-304.414 148.818,-298.425 146.99,-305.182"/>
</g>
<!-- Node90 -->
<g id="node31" class="node"><title>Node90</title>
<g id="a_node31"><a xlink:href="class_game__window.html#a72304de2044c29f1373037bd818f674f" target="_top" xlink:title="Game_window::keyPressed">
<polygon fill="none" stroke="black" points="285,-114.5 285,-133.5 422,-133.5 422,-114.5 285,-114.5"/>
<text text-anchor="middle" x="353.5" y="-121.5" font-family="Helvetica,sans-Serif" font-size="10.00">Game_window::keyPressed</text>
</a>
</g>
</g>
<!-- Node60&#45;&gt;Node90 -->
<g id="edge36" class="edge"><title>Node60&#45;&gt;Node90</title>
<path fill="none" stroke="midnightblue" d="M71.2663,-266.492C122.406,-240.581 264.419,-168.628 324.781,-138.045"/>
<polygon fill="midnightblue" stroke="midnightblue" points="326.402,-141.147 333.741,-133.505 323.238,-134.902 326.402,-141.147"/>
</g>
<!-- Node62 -->
<g id="node3" class="node"><title>Node62</title>
<g id="a_node3"><a xlink:href="class_board.html#ad3c413e185668418d3a16c1fec68e70d" target="_top" xlink:title="Board::getView">
<polygon fill="none" stroke="black" points="312,-304.5 312,-323.5 395,-323.5 395,-304.5 312,-304.5"/>
<text text-anchor="middle" x="353.5" y="-311.5" font-family="Helvetica,sans-Serif" font-size="10.00">Board::getView</text>
</a>
</g>
</g>
<!-- Node61&#45;&gt;Node62 -->
<g id="edge2" class="edge"><title>Node61&#45;&gt;Node62</title>
<path fill="none" stroke="midnightblue" d="M234.744,-285.589C255.528,-290.604 281.161,-296.788 303.199,-302.105"/>
<polygon fill="midnightblue" stroke="midnightblue" points="302.5,-305.537 313.042,-304.48 304.142,-298.732 302.5,-305.537"/>
</g>
<!-- Node63 -->
<g id="node4" class="node"><title>Node63</title>
<g id="a_node4"><a xlink:href="class_board.html#a5fda73da080403d8a71a8593d581c350" target="_top" xlink:title="Board::click">
<polygon fill="none" stroke="black" points="319.5,-266.5 319.5,-285.5 387.5,-285.5 387.5,-266.5 319.5,-266.5"/>
<text text-anchor="middle" x="353.5" y="-273.5" font-family="Helvetica,sans-Serif" font-size="10.00">Board::click</text>
</a>
</g>
</g>
<!-- Node61&#45;&gt;Node63 -->
<g id="edge3" class="edge"><title>Node61&#45;&gt;Node63</title>
<path fill="none" stroke="midnightblue" d="M247.008,-276C267.211,-276 290.079,-276 309.346,-276"/>
<polygon fill="midnightblue" stroke="midnightblue" points="309.349,-279.5 319.349,-276 309.349,-272.5 309.349,-279.5"/>
</g>
<!-- Node85 -->
<g id="node26" class="node"><title>Node85</title>
<g id="a_node26"><a xlink:href="class_infos.html#a5dee8a8817c307c570db905429480d79" target="_top" xlink:title="Infos::setCurPlayer">
<polygon fill="none" stroke="black" points="304,-190.5 304,-209.5 403,-209.5 403,-190.5 304,-190.5"/>
<text text-anchor="middle" x="353.5" y="-197.5" font-family="Helvetica,sans-Serif" font-size="10.00">Infos::setCurPlayer</text>
</a>
</g>
</g>
<!-- Node61&#45;&gt;Node85 -->
<g id="edge30" class="edge"><title>Node61&#45;&gt;Node85</title>
<path fill="none" stroke="midnightblue" d="M214.947,-266.375C242.403,-253.126 292.014,-229.187 323.552,-213.969"/>
<polygon fill="midnightblue" stroke="midnightblue" points="325.229,-217.045 332.714,-209.547 322.187,-210.741 325.229,-217.045"/>
</g>
<!-- Node64 -->
<g id="node5" class="node"><title>Node64</title>
<g id="a_node5"><a xlink:href="class_goban.html#a7dd1a7b53322bde2a831a923059e43a3" target="_top" xlink:title="Goban::move">
<polygon fill="none" stroke="black" points="658,-418.5 658,-437.5 732,-437.5 732,-418.5 658,-418.5"/>
<text text-anchor="middle" x="695" y="-425.5" font-family="Helvetica,sans-Serif" font-size="10.00">Goban::move</text>
</a>
</g>
</g>
<!-- Node63&#45;&gt;Node64 -->
<g id="edge4" class="edge"><title>Node63&#45;&gt;Node64</title>
<path fill="none" stroke="midnightblue" d="M387.539,-281.555C399,-284.429 411.579,-288.705 422,-295 441.913,-307.029 438.031,-321.064 458,-333 513.342,-366.078 538.627,-345.867 598,-371 624.844,-382.363 653.279,-400.047 672.172,-412.703"/>
<polygon fill="midnightblue" stroke="midnightblue" points="670.395,-415.728 680.631,-418.463 674.335,-409.942 670.395,-415.728"/>
</g>
<!-- Node69 -->
<g id="node10" class="node"><title>Node69</title>
<g id="a_node10"><a xlink:href="class_goban.html#a8584a53688e7bcf9de7c4cf48454acdc" target="_top" xlink:title="Goban::rechercheGroupes">
<polygon fill="none" stroke="black" points="462.5,-228.5 462.5,-247.5 593.5,-247.5 593.5,-228.5 462.5,-228.5"/>
<text text-anchor="middle" x="528" y="-235.5" font-family="Helvetica,sans-Serif" font-size="10.00">Goban::rechercheGroupes</text>
</a>
</g>
</g>
<!-- Node63&#45;&gt;Node69 -->
<g id="edge10" class="edge"><title>Node63&#45;&gt;Node69</title>
<path fill="none" stroke="midnightblue" d="M387.76,-268.673C412.087,-263.314 445.598,-255.932 473.648,-249.753"/>
<polygon fill="midnightblue" stroke="midnightblue" points="474.695,-253.106 483.708,-247.537 473.189,-246.27 474.695,-253.106"/>
</g>
<!-- Node70 -->
<g id="node11" class="node"><title>Node70</title>
<g id="a_node11"><a xlink:href="class_goban.html#aefd43ab2cf0746f2f8c653d825bf080c" target="_top" xlink:title="Goban::afficheGroupes">
<polygon fill="none" stroke="black" points="470,-380.5 470,-399.5 586,-399.5 586,-380.5 470,-380.5"/>
<text text-anchor="middle" x="528" y="-387.5" font-family="Helvetica,sans-Serif" font-size="10.00">Goban::afficheGroupes</text>
</a>
</g>
</g>
<!-- Node63&#45;&gt;Node70 -->
<g id="edge11" class="edge"><title>Node63&#45;&gt;Node70</title>
<path fill="none" stroke="midnightblue" d="M387.631,-279.716C399.494,-282.407 412.313,-287.038 422,-295 449.333,-317.465 431.358,-342.721 458,-366 462.763,-370.162 468.29,-373.614 474.101,-376.473"/>
<polygon fill="midnightblue" stroke="midnightblue" points="472.831,-379.737 483.399,-380.497 475.611,-373.313 472.831,-379.737"/>
</g>
<!-- Node71 -->
<g id="node12" class="node"><title>Node71</title>
<g id="a_node12"><a xlink:href="class_goban.html#a7858b815885e4af36f05f9d26182cb07" target="_top" xlink:title="Goban::eliminateOppGroups">
<polygon fill="none" stroke="black" points="458,-304.5 458,-323.5 598,-323.5 598,-304.5 458,-304.5"/>
<text text-anchor="middle" x="528" y="-311.5" font-family="Helvetica,sans-Serif" font-size="10.00">Goban::eliminateOppGroups</text>
</a>
</g>
</g>
<!-- Node63&#45;&gt;Node71 -->
<g id="edge12" class="edge"><title>Node63&#45;&gt;Node71</title>
<path fill="none" stroke="midnightblue" d="M387.76,-283.327C412.087,-288.686 445.598,-296.068 473.648,-302.247"/>
<polygon fill="midnightblue" stroke="midnightblue" points="473.189,-305.73 483.708,-304.463 474.695,-298.894 473.189,-305.73"/>
</g>
<!-- Node82 -->
<g id="node23" class="node"><title>Node82</title>
<g id="a_node23"><a xlink:href="class_board.html#a841a248dac4743611ba1825afd5d1297" target="_top" xlink:title="Board::load">
<polygon fill="none" stroke="black" points="662,-190.5 662,-209.5 728,-209.5 728,-190.5 662,-190.5"/>
<text text-anchor="middle" x="695" y="-197.5" font-family="Helvetica,sans-Serif" font-size="10.00">Board::load</text>
</a>
</g>
</g>
<!-- Node63&#45;&gt;Node82 -->
<g id="edge26" class="edge"><title>Node63&#45;&gt;Node82</title>
<path fill="none" stroke="midnightblue" d="M387.698,-278.1C435.425,-280.081 525.644,-279.926 598,-257 626.424,-247.994 655.351,-229.23 673.914,-215.687"/>
<polygon fill="midnightblue" stroke="midnightblue" points="676.239,-218.319 682.146,-209.524 672.044,-212.715 676.239,-218.319"/>
</g>
<!-- Node65 -->
<g id="node6" class="node"><title>Node65</title>
<g id="a_node6"><a xlink:href="class_goban.html#a6c4b62a9469b3876d250ab94bcd562e5" target="_top" xlink:title="Goban::eliminateOppositeKO">
<polygon fill="none" stroke="black" points="944,-418.5 944,-437.5 1087,-437.5 1087,-418.5 944,-418.5"/>
<text text-anchor="middle" x="1015.5" y="-425.5" font-family="Helvetica,sans-Serif" font-size="10.00">Goban::eliminateOppositeKO</text>
</a>
</g>
</g>
<!-- Node64&#45;&gt;Node65 -->
<g id="edge5" class="edge"><title>Node64&#45;&gt;Node65</title>
<path fill="none" stroke="midnightblue" d="M732.226,-428C780.899,-428 868.776,-428 933.593,-428"/>
<polygon fill="midnightblue" stroke="midnightblue" points="933.789,-431.5 943.789,-428 933.789,-424.5 933.789,-431.5"/>
</g>
<!-- Node66 -->
<g id="node7" class="node"><title>Node66</title>
<g id="a_node7"><a xlink:href="class_etat.html#aa88987ca54aee676717f05e4570c0aec" target="_top" xlink:title="Etat::setVal">
<polygon fill="none" stroke="black" points="1123,-418.5 1123,-437.5 1191,-437.5 1191,-418.5 1123,-418.5"/>
<text text-anchor="middle" x="1157" y="-425.5" font-family="Helvetica,sans-Serif" font-size="10.00">Etat::setVal</text>
</a>
</g>
</g>
<!-- Node64&#45;&gt;Node66 -->
<g id="edge8" class="edge"><title>Node64&#45;&gt;Node66</title>
<path fill="none" stroke="midnightblue" d="M732.356,-434.281C750.261,-437.124 772.204,-440.237 792,-442 922.613,-453.635 957.052,-464.565 1087,-447 1097.34,-445.602 1108.33,-443.076 1118.42,-440.312"/>
<polygon fill="midnightblue" stroke="midnightblue" points="1119.52,-443.638 1128.16,-437.503 1117.58,-436.912 1119.52,-443.638"/>
</g>
<!-- Node67 -->
<g id="node8" class="node"><title>Node67</title>
<g id="a_node8"><a xlink:href="class_goban.html#a29aaf8df380fe614845d48cba057747c" target="_top" xlink:title="Goban::coord">
<polygon fill="none" stroke="black" points="812.5,-228.5 812.5,-247.5 887.5,-247.5 887.5,-228.5 812.5,-228.5"/>
<text text-anchor="middle" x="850" y="-235.5" font-family="Helvetica,sans-Serif" font-size="10.00">Goban::coord</text>
</a>
</g>
</g>
<!-- Node64&#45;&gt;Node67 -->
<g id="edge7" class="edge"><title>Node64&#45;&gt;Node67</title>
<path fill="none" stroke="midnightblue" d="M702.71,-418.254C714.252,-401.305 738.326,-365.134 756,-333 774.012,-300.251 764.026,-281.788 792,-257 795.25,-254.12 798.95,-251.675 802.867,-249.599"/>
<polygon fill="midnightblue" stroke="midnightblue" points="804.588,-252.663 812.295,-245.393 801.736,-246.271 804.588,-252.663"/>
</g>
<!-- Node68 -->
<g id="node9" class="node"><title>Node68</title>
<g id="a_node9"><a xlink:href="class_history.html#a90222df7f73ae9cfda56bdb66cb1985e" target="_top" xlink:title="Add new state in history. ">
<polygon fill="none" stroke="black" points="815.5,-494.5 815.5,-513.5 884.5,-513.5 884.5,-494.5 815.5,-494.5"/>
<text text-anchor="middle" x="850" y="-501.5" font-family="Helvetica,sans-Serif" font-size="10.00">History::add</text>
</a>
</g>
</g>
<!-- Node64&#45;&gt;Node68 -->
<g id="edge9" class="edge"><title>Node64&#45;&gt;Node68</title>
<path fill="none" stroke="midnightblue" d="M712.394,-437.519C731.304,-448.348 763.462,-466.304 792,-480 799.57,-483.633 807.834,-487.286 815.662,-490.608"/>
<polygon fill="midnightblue" stroke="midnightblue" points="814.341,-493.849 824.918,-494.472 817.038,-487.39 814.341,-493.849"/>
</g>
<!-- Node65&#45;&gt;Node66 -->
<g id="edge6" class="edge"><title>Node65&#45;&gt;Node66</title>
<path fill="none" stroke="midnightblue" d="M1087.07,-428C1095.71,-428 1104.34,-428 1112.42,-428"/>
<polygon fill="midnightblue" stroke="midnightblue" points="1112.69,-431.5 1122.69,-428 1112.69,-424.5 1112.69,-431.5"/>
</g>
<!-- Node72 -->
<g id="node13" class="node"><title>Node72</title>
<g id="a_node13"><a xlink:href="class_goban.html#a1ec70508987f66afff5f8df381731fac" target="_top" xlink:title="Goban::eliminateGroups">
<polygon fill="none" stroke="black" points="634,-304.5 634,-323.5 756,-323.5 756,-304.5 634,-304.5"/>
<text text-anchor="middle" x="695" y="-311.5" font-family="Helvetica,sans-Serif" font-size="10.00">Goban::eliminateGroups</text>
</a>
</g>
</g>
<!-- Node71&#45;&gt;Node72 -->
<g id="edge13" class="edge"><title>Node71&#45;&gt;Node72</title>
<path fill="none" stroke="midnightblue" d="M598.019,-314C606.494,-314 615.165,-314 623.66,-314"/>
<polygon fill="midnightblue" stroke="midnightblue" points="623.91,-317.5 633.91,-314 623.91,-310.5 623.91,-317.5"/>
</g>
<!-- Node72&#45;&gt;Node66 -->
<g id="edge23" class="edge"><title>Node72&#45;&gt;Node66</title>
<path fill="none" stroke="midnightblue" d="M708.221,-323.519C725.711,-336.591 759.382,-359.756 792,-371 916.977,-414.082 957.399,-382.944 1087,-409 1096.21,-410.852 1106.01,-413.269 1115.23,-415.755"/>
<polygon fill="midnightblue" stroke="midnightblue" points="1114.39,-419.154 1124.97,-418.455 1116.27,-412.409 1114.39,-419.154"/>
</g>
<!-- Node72&#45;&gt;Node67 -->
<g id="edge22" class="edge"><title>Node72&#45;&gt;Node67</title>
<path fill="none" stroke="midnightblue" d="M710.113,-304.307C728.383,-292.071 761.503,-270.942 792,-257 796.683,-254.859 801.679,-252.838 806.693,-250.969"/>
<polygon fill="midnightblue" stroke="midnightblue" points="808.024,-254.211 816.281,-247.573 805.686,-247.613 808.024,-254.211"/>
</g>
<!-- Node73 -->
<g id="node14" class="node"><title>Node73</title>
<g id="a_node14"><a xlink:href="class_goban.html#a84f36324eb9ddc29f522d481f04c13e7" target="_top" xlink:title="Goban::listOfLiberties">
<polygon fill="none" stroke="black" points="795,-342.5 795,-361.5 905,-361.5 905,-342.5 795,-342.5"/>
<text text-anchor="middle" x="850" y="-349.5" font-family="Helvetica,sans-Serif" font-size="10.00">Goban::listOfLiberties</text>
</a>
</g>
</g>
<!-- Node72&#45;&gt;Node73 -->
<g id="edge14" class="edge"><title>Node72&#45;&gt;Node73</title>
<path fill="none" stroke="midnightblue" d="M734.608,-323.589C754.707,-328.581 779.475,-334.732 800.819,-340.033"/>
<polygon fill="midnightblue" stroke="midnightblue" points="800.12,-343.466 810.669,-342.48 801.808,-336.673 800.12,-343.466"/>
</g>
<!-- Node80 -->
<g id="node21" class="node"><title>Node80</title>
<g id="a_node21"><a xlink:href="class_goban.html#a1d3ccccfb3f539e0271ee321686d9ef4" target="_top" xlink:title="Goban::setScoreWhite">
<polygon fill="none" stroke="black" points="792,-304.5 792,-323.5 908,-323.5 908,-304.5 792,-304.5"/>
<text text-anchor="middle" x="850" y="-311.5" font-family="Helvetica,sans-Serif" font-size="10.00">Goban::setScoreWhite</text>
</a>
</g>
</g>
<!-- Node72&#45;&gt;Node80 -->
<g id="edge24" class="edge"><title>Node72&#45;&gt;Node80</title>
<path fill="none" stroke="midnightblue" d="M756.031,-314C764.363,-314 772.969,-314 781.428,-314"/>
<polygon fill="midnightblue" stroke="midnightblue" points="781.644,-317.5 791.644,-314 781.644,-310.5 781.644,-317.5"/>
</g>
<!-- Node81 -->
<g id="node22" class="node"><title>Node81</title>
<g id="a_node22"><a xlink:href="class_goban.html#a868b44b0c3ebec7ca88082ebe85a2960" target="_top" xlink:title="Goban::setScoreBlack">
<polygon fill="none" stroke="black" points="792.5,-266.5 792.5,-285.5 907.5,-285.5 907.5,-266.5 792.5,-266.5"/>
<text text-anchor="middle" x="850" y="-273.5" font-family="Helvetica,sans-Serif" font-size="10.00">Goban::setScoreBlack</text>
</a>
</g>
</g>
<!-- Node72&#45;&gt;Node81 -->
<g id="edge25" class="edge"><title>Node72&#45;&gt;Node81</title>
<path fill="none" stroke="midnightblue" d="M734.608,-304.411C754.707,-299.419 779.475,-293.268 800.819,-287.967"/>
<polygon fill="midnightblue" stroke="midnightblue" points="801.808,-291.327 810.669,-285.52 800.12,-284.534 801.808,-291.327"/>
</g>
<!-- Node74 -->
<g id="node15" class="node"><title>Node74</title>
<g id="a_node15"><a xlink:href="class_etat.html#aa25e66b110bc835523819392435e78c6" target="_top" xlink:title="Etat::getX">
<polygon fill="none" stroke="black" points="986,-256.5 986,-275.5 1045,-275.5 1045,-256.5 986,-256.5"/>
<text text-anchor="middle" x="1015.5" y="-263.5" font-family="Helvetica,sans-Serif" font-size="10.00">Etat::getX</text>
</a>
</g>
</g>
<!-- Node73&#45;&gt;Node74 -->
<g id="edge15" class="edge"><title>Node73&#45;&gt;Node74</title>
<path fill="none" stroke="midnightblue" d="M884.082,-342.464C892.06,-339.76 900.456,-336.567 908,-333 939.276,-318.213 972.615,-296.079 993.494,-281.348"/>
<polygon fill="midnightblue" stroke="midnightblue" points="995.534,-284.192 1001.64,-275.531 991.465,-278.496 995.534,-284.192"/>
</g>
<!-- Node75 -->
<g id="node16" class="node"><title>Node75</title>
<g id="a_node16"><a xlink:href="class_etat.html#a3e3e915f2261c83989a983e84b1273c1" target="_top" xlink:title="Etat::getY">
<polygon fill="none" stroke="black" points="985,-123.5 985,-142.5 1046,-142.5 1046,-123.5 985,-123.5"/>
<text text-anchor="middle" x="1015.5" y="-130.5" font-family="Helvetica,sans-Serif" font-size="10.00">Etat::getY</text>
</a>
</g>
</g>
<!-- Node73&#45;&gt;Node75 -->
<g id="edge16" class="edge"><title>Node73&#45;&gt;Node75</title>
<path fill="none" stroke="midnightblue" d="M893.46,-342.471C898.765,-340.005 903.795,-336.902 908,-333 938.373,-304.815 925.044,-283.846 944,-247 962.071,-211.874 987.174,-173.207 1002.04,-151.14"/>
<polygon fill="midnightblue" stroke="midnightblue" points="1005.01,-152.996 1007.73,-142.757 999.218,-149.063 1005.01,-152.996"/>
</g>
<!-- Node76 -->
<g id="node17" class="node"><title>Node76</title>
<g id="a_node17"><a xlink:href="class_goban.html#a0e2596110cdbb9b007b2b2fd8d5a9973" target="_top" xlink:title="Goban::DefineStone">
<polygon fill="none" stroke="black" points="963.5,-342.5 963.5,-361.5 1067.5,-361.5 1067.5,-342.5 963.5,-342.5"/>
<text text-anchor="middle" x="1015.5" y="-349.5" font-family="Helvetica,sans-Serif" font-size="10.00">Goban::DefineStone</text>
</a>
</g>
</g>
<!-- Node73&#45;&gt;Node76 -->
<g id="edge17" class="edge"><title>Node73&#45;&gt;Node76</title>
<path fill="none" stroke="midnightblue" d="M905.443,-352C920.76,-352 937.522,-352 953.209,-352"/>
<polygon fill="midnightblue" stroke="midnightblue" points="953.337,-355.5 963.337,-352 953.337,-348.5 953.337,-355.5"/>
</g>
<!-- Node76&#45;&gt;Node66 -->
<g id="edge20" class="edge"><title>Node76&#45;&gt;Node66</title>
<path fill="none" stroke="midnightblue" d="M1053.99,-361.582C1065.04,-365.234 1076.88,-370.001 1087,-376 1105.67,-387.067 1105.49,-396.174 1123,-409 1124.86,-410.365 1126.83,-411.711 1128.84,-413.018"/>
<polygon fill="midnightblue" stroke="midnightblue" points="1127.38,-416.223 1137.74,-418.436 1131.02,-410.245 1127.38,-416.223"/>
</g>
<!-- Node77 -->
<g id="node18" class="node"><title>Node77</title>
<g id="a_node18"><a xlink:href="class_etat.html#ac020c4fe222274ac849a03fc8f19a99a" target="_top" xlink:title="Etat::setX">
<polygon fill="none" stroke="black" points="1127.5,-304.5 1127.5,-323.5 1186.5,-323.5 1186.5,-304.5 1127.5,-304.5"/>
<text text-anchor="middle" x="1157" y="-311.5" font-family="Helvetica,sans-Serif" font-size="10.00">Etat::setX</text>
</a>
</g>
</g>
<!-- Node76&#45;&gt;Node77 -->
<g id="edge18" class="edge"><title>Node76&#45;&gt;Node77</title>
<path fill="none" stroke="midnightblue" d="M1051.7,-342.411C1071.82,-336.931 1097.06,-330.055 1117.68,-324.44"/>
<polygon fill="midnightblue" stroke="midnightblue" points="1118.65,-327.801 1127.38,-321.796 1116.81,-321.047 1118.65,-327.801"/>
</g>
<!-- Node78 -->
<g id="node19" class="node"><title>Node78</title>
<g id="a_node19"><a xlink:href="class_etat.html#a8a54fc9ecb1b97d84d2f1f259e3bf70e" target="_top" xlink:title="Etat::setY">
<polygon fill="none" stroke="black" points="1126.5,-380.5 1126.5,-399.5 1187.5,-399.5 1187.5,-380.5 1126.5,-380.5"/>
<text text-anchor="middle" x="1157" y="-387.5" font-family="Helvetica,sans-Serif" font-size="10.00">Etat::setY</text>
</a>
</g>
</g>
<!-- Node76&#45;&gt;Node78 -->
<g id="edge19" class="edge"><title>Node76&#45;&gt;Node78</title>
<path fill="none" stroke="midnightblue" d="M1051.7,-361.589C1071.54,-366.993 1096.37,-373.756 1116.82,-379.327"/>
<polygon fill="midnightblue" stroke="midnightblue" points="1115.9,-382.704 1126.47,-381.956 1117.74,-375.95 1115.9,-382.704"/>
</g>
<!-- Node79 -->
<g id="node20" class="node"><title>Node79</title>
<g id="a_node20"><a xlink:href="class_goban.html#a579840586df08a58983f6b497979344b" target="_top" xlink:title="Goban::ctoi">
<polygon fill="none" stroke="black" points="1123.5,-342.5 1123.5,-361.5 1190.5,-361.5 1190.5,-342.5 1123.5,-342.5"/>
<text text-anchor="middle" x="1157" y="-349.5" font-family="Helvetica,sans-Serif" font-size="10.00">Goban::ctoi</text>
</a>
</g>
</g>
<!-- Node76&#45;&gt;Node79 -->
<g id="edge21" class="edge"><title>Node76&#45;&gt;Node79</title>
<path fill="none" stroke="midnightblue" d="M1067.65,-352C1082.67,-352 1098.93,-352 1113.35,-352"/>
<polygon fill="midnightblue" stroke="midnightblue" points="1113.49,-355.5 1123.49,-352 1113.49,-348.5 1113.49,-355.5"/>
</g>
<!-- Node82&#45;&gt;Node67 -->
<g id="edge28" class="edge"><title>Node82&#45;&gt;Node67</title>
<path fill="none" stroke="midnightblue" d="M728.074,-207.966C749.619,-213.317 778.358,-220.455 802.414,-226.43"/>
<polygon fill="midnightblue" stroke="midnightblue" points="801.853,-229.897 812.402,-228.91 803.541,-223.103 801.853,-229.897"/>
</g>
<!-- Node83 -->
<g id="node24" class="node"><title>Node83</title>
<g id="a_node24"><a xlink:href="class_square.html#a5fa0cbfce721c687308eec8e1a029d25" target="_top" xlink:title="Square::setValue">
<polygon fill="none" stroke="black" points="804,-190.5 804,-209.5 896,-209.5 896,-190.5 804,-190.5"/>
<text text-anchor="middle" x="850" y="-197.5" font-family="Helvetica,sans-Serif" font-size="10.00">Square::setValue</text>
</a>
</g>
</g>
<!-- Node82&#45;&gt;Node83 -->
<g id="edge27" class="edge"><title>Node82&#45;&gt;Node83</title>
<path fill="none" stroke="midnightblue" d="M728.074,-200C747.061,-200 771.636,-200 793.668,-200"/>
<polygon fill="midnightblue" stroke="midnightblue" points="793.912,-203.5 803.912,-200 793.912,-196.5 793.912,-203.5"/>
</g>
<!-- Node84 -->
<g id="node25" class="node"><title>Node84</title>
<g id="a_node25"><a xlink:href="class_etat.html#ac0b81bbcf64cb3cc574e5a9dcdf94382" target="_top" xlink:title="Etat::getVal">
<polygon fill="none" stroke="black" points="816,-152.5 816,-171.5 884,-171.5 884,-152.5 816,-152.5"/>
<text text-anchor="middle" x="850" y="-159.5" font-family="Helvetica,sans-Serif" font-size="10.00">Etat::getVal</text>
</a>
</g>
</g>
<!-- Node82&#45;&gt;Node84 -->
<g id="edge29" class="edge"><title>Node82&#45;&gt;Node84</title>
<path fill="none" stroke="midnightblue" d="M728.074,-192.034C750.716,-186.41 781.305,-178.813 806.052,-172.667"/>
<polygon fill="midnightblue" stroke="midnightblue" points="807.05,-176.025 815.912,-170.218 805.363,-169.232 807.05,-176.025"/>
</g>
<!-- Node86 -->
<g id="node27" class="node"><title>Node86</title>
<g id="a_node27"><a xlink:href="class_timer.html#a0289effad7b573c508bc27e405900a23" target="_top" xlink:title="Timer::pause">
<polygon fill="none" stroke="black" points="491.5,-152.5 491.5,-171.5 564.5,-171.5 564.5,-152.5 491.5,-152.5"/>
<text text-anchor="middle" x="528" y="-159.5" font-family="Helvetica,sans-Serif" font-size="10.00">Timer::pause</text>
</a>
</g>
</g>
<!-- Node85&#45;&gt;Node86 -->
<g id="edge31" class="edge"><title>Node85&#45;&gt;Node86</title>
<path fill="none" stroke="midnightblue" d="M398.029,-190.411C423.493,-184.801 455.604,-177.728 481.415,-172.042"/>
<polygon fill="midnightblue" stroke="midnightblue" points="482.317,-175.427 491.33,-169.858 480.811,-168.591 482.317,-175.427"/>
</g>
<!-- Node87 -->
<g id="node28" class="node"><title>Node87</title>
<g id="a_node28"><a xlink:href="class_timer.html#a84acbe09a8dddae46c997c57a70c5076" target="_top" xlink:title="Timer::play">
<polygon fill="none" stroke="black" points="495.5,-190.5 495.5,-209.5 560.5,-209.5 560.5,-190.5 495.5,-190.5"/>
<text text-anchor="middle" x="528" y="-197.5" font-family="Helvetica,sans-Serif" font-size="10.00">Timer::play</text>
</a>
</g>
</g>
<!-- Node85&#45;&gt;Node87 -->
<g id="edge32" class="edge"><title>Node85&#45;&gt;Node87</title>
<path fill="none" stroke="midnightblue" d="M403.01,-200C428.907,-200 460.458,-200 485.251,-200"/>
<polygon fill="midnightblue" stroke="midnightblue" points="485.428,-203.5 495.427,-200 485.427,-196.5 485.428,-203.5"/>
</g>
<!-- Node88&#45;&gt;Node62 -->
<g id="edge34" class="edge"><title>Node88&#45;&gt;Node62</title>
<path fill="none" stroke="midnightblue" d="M249.203,-314C266.151,-314 284.785,-314 301.505,-314"/>
<polygon fill="midnightblue" stroke="midnightblue" points="301.636,-317.5 311.636,-314 301.636,-310.5 301.636,-317.5"/>
</g>
<!-- Node89 -->
<g id="node30" class="node"><title>Node89</title>
<g id="a_node30"><a xlink:href="class_board.html#a0b098808fd9214c752097a623a7c717e" target="_top" xlink:title="Board::zoom">
<polygon fill="none" stroke="black" points="317.5,-342.5 317.5,-361.5 389.5,-361.5 389.5,-342.5 317.5,-342.5"/>
<text text-anchor="middle" x="353.5" y="-349.5" font-family="Helvetica,sans-Serif" font-size="10.00">Board::zoom</text>
</a>
</g>
</g>
<!-- Node88&#45;&gt;Node89 -->
<g id="edge35" class="edge"><title>Node88&#45;&gt;Node89</title>
<path fill="none" stroke="midnightblue" d="M234.744,-323.589C256.891,-328.933 284.546,-335.605 307.489,-341.14"/>
<polygon fill="midnightblue" stroke="midnightblue" points="306.79,-344.572 317.332,-343.515 308.431,-337.767 306.79,-344.572"/>
</g>
<!-- Node91 -->
<g id="node32" class="node"><title>Node91</title>
<g id="a_node32"><a xlink:href="class_board.html#ac7ec911a62371650afd340d1535a1742" target="_top" xlink:title="Board::cancel">
<polygon fill="none" stroke="black" points="489.5,-114.5 489.5,-133.5 566.5,-133.5 566.5,-114.5 489.5,-114.5"/>
<text text-anchor="middle" x="528" y="-121.5" font-family="Helvetica,sans-Serif" font-size="10.00">Board::cancel</text>
</a>
</g>
</g>
<!-- Node90&#45;&gt;Node91 -->
<g id="edge37" class="edge"><title>Node90&#45;&gt;Node91</title>
<path fill="none" stroke="midnightblue" d="M422.181,-124C441.276,-124 461.645,-124 479.301,-124"/>
<polygon fill="midnightblue" stroke="midnightblue" points="479.352,-127.5 489.352,-124 479.352,-120.5 479.352,-127.5"/>
</g>
<!-- Node95 -->
<g id="node36" class="node"><title>Node95</title>
<g id="a_node36"><a xlink:href="class_game__window.html#a8ad36b6ebe4760954dd01e94fc5762f1" target="_top" xlink:title="Game_window::territoire">
<polygon fill="none" stroke="black" points="467.5,-76.5 467.5,-95.5 588.5,-95.5 588.5,-76.5 467.5,-76.5"/>
<text text-anchor="middle" x="528" y="-83.5" font-family="Helvetica,sans-Serif" font-size="10.00">Game_window::territoire</text>
</a>
</g>
</g>
<!-- Node90&#45;&gt;Node95 -->
<g id="edge45" class="edge"><title>Node90&#45;&gt;Node95</title>
<path fill="none" stroke="midnightblue" d="M398.029,-114.411C421.1,-109.329 449.627,-103.045 473.981,-97.6797"/>
<polygon fill="midnightblue" stroke="midnightblue" points="474.771,-101.089 483.784,-95.5201 473.265,-94.2534 474.771,-101.089"/>
</g>
<!-- Node91&#45;&gt;Node82 -->
<g id="edge44" class="edge"><title>Node91&#45;&gt;Node82</title>
<path fill="none" stroke="midnightblue" d="M566.504,-132.375C576.898,-135.218 588.053,-138.768 598,-143 624.824,-154.412 653.262,-172.087 672.161,-184.728"/>
<polygon fill="midnightblue" stroke="midnightblue" points="670.386,-187.754 680.624,-190.48 674.321,-181.964 670.386,-187.754"/>
</g>
<!-- Node92 -->
<g id="node33" class="node"><title>Node92</title>
<g id="a_node33"><a xlink:href="class_goban.html#ae7ee3b39f3c0d28c9bca286ca538f8ac" target="_top" xlink:title="Goban::cancel">
<polygon fill="none" stroke="black" points="655,-95.5 655,-114.5 735,-114.5 735,-95.5 655,-95.5"/>
<text text-anchor="middle" x="695" y="-102.5" font-family="Helvetica,sans-Serif" font-size="10.00">Goban::cancel</text>
</a>
</g>
</g>
<!-- Node91&#45;&gt;Node92 -->
<g id="edge38" class="edge"><title>Node91&#45;&gt;Node92</title>
<path fill="none" stroke="midnightblue" d="M566.854,-119.641C590.018,-116.974 619.901,-113.533 644.875,-110.657"/>
<polygon fill="midnightblue" stroke="midnightblue" points="645.354,-114.125 654.888,-109.504 644.554,-107.171 645.354,-114.125"/>
</g>
<!-- Node92&#45;&gt;Node67 -->
<g id="edge39" class="edge"><title>Node92&#45;&gt;Node67</title>
<path fill="none" stroke="midnightblue" d="M703.685,-114.724C724.45,-140.909 780.868,-211.444 792,-219 795.351,-221.275 798.997,-223.296 802.771,-225.09"/>
<polygon fill="midnightblue" stroke="midnightblue" points="801.746,-228.455 812.322,-229.09 804.45,-221.998 801.746,-228.455"/>
</g>
<!-- Node92&#45;&gt;Node74 -->
<g id="edge41" class="edge"><title>Node92&#45;&gt;Node74</title>
<path fill="none" stroke="midnightblue" d="M735.44,-108.899C788.392,-114.667 879.156,-126.59 908,-143 952.802,-168.49 987.847,-220.139 1004.28,-247.702"/>
<polygon fill="midnightblue" stroke="midnightblue" points="1001.26,-249.468 1009.3,-256.364 1007.31,-245.957 1001.26,-249.468"/>
</g>
<!-- Node92&#45;&gt;Node75 -->
<g id="edge42" class="edge"><title>Node92&#45;&gt;Node75</title>
<path fill="none" stroke="midnightblue" d="M735.23,-103.716C777.901,-102.833 848.043,-102.884 908,-110 930.394,-112.658 955.028,-117.828 974.958,-122.595"/>
<polygon fill="midnightblue" stroke="midnightblue" points="974.369,-126.054 984.915,-125.035 976.035,-119.255 974.369,-126.054"/>
</g>
<!-- Node93 -->
<g id="node34" class="node"><title>Node93</title>
<g id="a_node34"><a xlink:href="class_history.html#a0ca66ba5a026689877e027754fc5bd52" target="_top" xlink:title="Access current position. ">
<polygon fill="none" stroke="black" points="808.5,-38.5 808.5,-57.5 891.5,-57.5 891.5,-38.5 808.5,-38.5"/>
<text text-anchor="middle" x="850" y="-45.5" font-family="Helvetica,sans-Serif" font-size="10.00">History::current</text>
</a>
</g>
</g>
<!-- Node92&#45;&gt;Node93 -->
<g id="edge40" class="edge"><title>Node92&#45;&gt;Node93</title>
<path fill="none" stroke="midnightblue" d="M721.609,-95.4595C746.873,-86.0473 785.69,-71.5862 813.837,-61.1001"/>
<polygon fill="midnightblue" stroke="midnightblue" points="815.159,-64.3426 823.308,-57.5716 812.715,-57.783 815.159,-64.3426"/>
</g>
<!-- Node94 -->
<g id="node35" class="node"><title>Node94</title>
<g id="a_node35"><a xlink:href="class_history.html#a6e1bcaa1d3ecc646131e6f73a2544f35" target="_top" xlink:title="History::cancel">
<polygon fill="none" stroke="black" points="809,-0.5 809,-19.5 891,-19.5 891,-0.5 809,-0.5"/>
<text text-anchor="middle" x="850" y="-7.5" font-family="Helvetica,sans-Serif" font-size="10.00">History::cancel</text>
</a>
</g>
</g>
<!-- Node92&#45;&gt;Node94 -->
<g id="edge43" class="edge"><title>Node92&#45;&gt;Node94</title>
<path fill="none" stroke="midnightblue" d="M705.807,-95.2787C722.302,-79.4045 757.22,-47.8062 792,-29 795.925,-26.8774 800.131,-24.9336 804.413,-23.1682"/>
<polygon fill="midnightblue" stroke="midnightblue" points="805.727,-26.4131 813.83,-19.588 803.239,-19.87 805.727,-26.4131"/>
</g>
</g>
</svg>
