<?xml version="1.0" encoding="UTF-8" standalone="no"?>
<!DOCTYPE svg PUBLIC "-//W3C//DTD SVG 1.1//EN"
 "http://www.w3.org/Graphics/SVG/1.1/DTD/svg11.dtd">
<!-- Generated by graphviz version 2.38.0 (20140413.2041)
 -->
<!-- Title: Etat::setY Pages: 1 -->
<svg width="1113pt" height="142pt"
 viewBox="0.00 0.00 1113.00 142.00" xmlns="http://www.w3.org/2000/svg" xmlns:xlink="http://www.w3.org/1999/xlink">
<g id="graph0" class="graph" transform="scale(1 1) rotate(0) translate(4 138)">
<title>Etat::setY</title>
<!-- Node129 -->
<g id="node1" class="node"><title>Node129</title>
<polygon fill="#bfbfbf" stroke="black" points="0,-38.5 0,-57.5 61,-57.5 61,-38.5 0,-38.5"/>
<text text-anchor="middle" x="30.5" y="-45.5" font-family="Helvetica,sans-Serif" font-size="10.00">Etat::setY</text>
</g>
<!-- Node130 -->
<g id="node2" class="node"><title>Node130</title>
<g id="a_node2"><a xlink:href="class_goban.html#a3544d30f54fbb54bd9e4fed08aa4bce6" target="_top" xlink:title="Goban::Goban">
<polygon fill="none" stroke="black" points="109,-57.5 109,-76.5 189,-76.5 189,-57.5 109,-57.5"/>
<text text-anchor="middle" x="149" y="-64.5" font-family="Helvetica,sans-Serif" font-size="10.00">Goban::Goban</text>
</a>
</g>
</g>
<!-- Node129&#45;&gt;Node130 -->
<g id="edge1" class="edge"><title>Node129&#45;&gt;Node130</title>
<path fill="none" stroke="midnightblue" d="M71.4234,-54.5111C83.4663,-56.4752 96.6729,-58.6291 108.676,-60.5867"/>
<polygon fill="midnightblue" stroke="midnightblue" points="71.6323,-50.999 61.1993,-52.8437 70.5055,-57.9077 71.6323,-50.999"/>
</g>
<!-- Node131 -->
<g id="node3" class="node"><title>Node131</title>
<g id="a_node3"><a xlink:href="class_goban.html#a0e2596110cdbb9b007b2b2fd8d5a9973" target="_top" xlink:title="Goban::DefineStone">
<polygon fill="none" stroke="black" points="97,-19.5 97,-38.5 201,-38.5 201,-19.5 97,-19.5"/>
<text text-anchor="middle" x="149" y="-26.5" font-family="Helvetica,sans-Serif" font-size="10.00">Goban::DefineStone</text>
</a>
</g>
</g>
<!-- Node129&#45;&gt;Node131 -->
<g id="edge2" class="edge"><title>Node129&#45;&gt;Node131</title>
<path fill="none" stroke="midnightblue" d="M71.2087,-41.5239C79.3847,-40.1905 88.1048,-38.7683 96.6259,-37.3786"/>
<polygon fill="midnightblue" stroke="midnightblue" points="70.5055,-38.0923 61.1993,-43.1563 71.6323,-45.001 70.5055,-38.0923"/>
</g>
<!-- Node132 -->
<g id="node4" class="node"><title>Node132</title>
<g id="a_node4"><a xlink:href="class_goban.html#a84f36324eb9ddc29f522d481f04c13e7" target="_top" xlink:title="Goban::listOfLiberties">
<polygon fill="none" stroke="black" points="237,-19.5 237,-38.5 347,-38.5 347,-19.5 237,-19.5"/>
<text text-anchor="middle" x="292" y="-26.5" font-family="Helvetica,sans-Serif" font-size="10.00">Goban::listOfLiberties</text>
</a>
</g>
</g>
<!-- Node131&#45;&gt;Node132 -->
<g id="edge3" class="edge"><title>Node131&#45;&gt;Node132</title>
<path fill="none" stroke="midnightblue" d="M211.425,-29C219.82,-29 228.39,-29 236.648,-29"/>
<polygon fill="midnightblue" stroke="midnightblue" points="211.303,-25.5001 201.303,-29 211.303,-32.5001 211.303,-25.5001"/>
</g>
<!-- Node133 -->
<g id="node5" class="node"><title>Node133</title>
<g id="a_node5"><a xlink:href="class_goban.html#a1ec70508987f66afff5f8df381731fac" target="_top" xlink:title="Goban::eliminateGroups">
<polygon fill="none" stroke="black" points="383,-38.5 383,-57.5 505,-57.5 505,-38.5 383,-38.5"/>
<text text-anchor="middle" x="444" y="-45.5" font-family="Helvetica,sans-Serif" font-size="10.00">Goban::eliminateGroups</text>
</a>
</g>
</g>
<!-- Node132&#45;&gt;Node133 -->
<g id="edge4" class="edge"><title>Node132&#45;&gt;Node133</title>
<path fill="none" stroke="midnightblue" d="M357.347,-37.1506C365.803,-38.2217 374.443,-39.3162 382.827,-40.378"/>
<polygon fill="midnightblue" stroke="midnightblue" points="357.514,-33.6439 347.153,-35.8594 356.634,-40.5884 357.514,-33.6439"/>
</g>
<!-- Node136 -->
<g id="node8" class="node"><title>Node136</title>
<g id="a_node8"><a xlink:href="class_goban.html#a8b95ea2b51c078381562e361ff7febac" target="_top" xlink:title="Goban::isSuicide">
<polygon fill="none" stroke="black" points="725,-0.5 725,-19.5 816,-19.5 816,-0.5 725,-0.5"/>
<text text-anchor="middle" x="770.5" y="-7.5" font-family="Helvetica,sans-Serif" font-size="10.00">Goban::isSuicide</text>
</a>
</g>
</g>
<!-- Node132&#45;&gt;Node136 -->
<g id="edge14" class="edge"><title>Node132&#45;&gt;Node136</title>
<path fill="none" stroke="midnightblue" d="M357.281,-26.4369C455.401,-22.5244 640.06,-15.1613 724.861,-11.78"/>
<polygon fill="midnightblue" stroke="midnightblue" points="357.049,-22.9432 347.197,-26.839 357.328,-29.9377 357.049,-22.9432"/>
</g>
<!-- Node134 -->
<g id="node6" class="node"><title>Node134</title>
<g id="a_node6"><a xlink:href="class_goban.html#a7858b815885e4af36f05f9d26182cb07" target="_top" xlink:title="Goban::eliminateOppGroups">
<polygon fill="none" stroke="black" points="541,-38.5 541,-57.5 681,-57.5 681,-38.5 541,-38.5"/>
<text text-anchor="middle" x="611" y="-45.5" font-family="Helvetica,sans-Serif" font-size="10.00">Goban::eliminateOppGroups</text>
</a>
</g>
</g>
<!-- Node133&#45;&gt;Node134 -->
<g id="edge5" class="edge"><title>Node133&#45;&gt;Node134</title>
<path fill="none" stroke="midnightblue" d="M515.24,-48C523.698,-48 532.331,-48 540.774,-48"/>
<polygon fill="midnightblue" stroke="midnightblue" points="515.036,-44.5001 505.036,-48 515.036,-51.5001 515.036,-44.5001"/>
</g>
<!-- Node135 -->
<g id="node7" class="node"><title>Node135</title>
<g id="a_node7"><a xlink:href="class_goban.html#a799390f04139eec16f7bb8c79b381303" target="_top" xlink:title="Goban::legalEvenKO">
<polygon fill="none" stroke="black" points="717,-114.5 717,-133.5 824,-133.5 824,-114.5 717,-114.5"/>
<text text-anchor="middle" x="770.5" y="-121.5" font-family="Helvetica,sans-Serif" font-size="10.00">Goban::legalEvenKO</text>
</a>
</g>
</g>
<!-- Node134&#45;&gt;Node135 -->
<g id="edge6" class="edge"><title>Node134&#45;&gt;Node135</title>
<path fill="none" stroke="midnightblue" d="M636.856,-62.8724C657.8,-75.0659 688.78,-92.32 717,-105 724.515,-108.377 732.828,-111.606 740.58,-114.413"/>
<polygon fill="midnightblue" stroke="midnightblue" points="638.38,-59.7086 627.985,-57.6606 634.834,-65.744 638.38,-59.7086"/>
</g>
<!-- Node134&#45;&gt;Node136 -->
<g id="edge7" class="edge"><title>Node134&#45;&gt;Node136</title>
<path fill="none" stroke="midnightblue" d="M661.604,-36.032C683.675,-30.7069 709.303,-24.5238 730.042,-19.5201"/>
<polygon fill="midnightblue" stroke="midnightblue" points="660.644,-32.6631 651.744,-38.411 662.286,-39.4679 660.644,-32.6631"/>
</g>
<!-- Node137 -->
<g id="node9" class="node"><title>Node137</title>
<g id="a_node9"><a xlink:href="class_goban.html#a36ab256c9430e070b620052a0f13f051" target="_top" xlink:title="Goban::listFils">
<polygon fill="none" stroke="black" points="730.5,-76.5 730.5,-95.5 810.5,-95.5 810.5,-76.5 730.5,-76.5"/>
<text text-anchor="middle" x="770.5" y="-83.5" font-family="Helvetica,sans-Serif" font-size="10.00">Goban::listFils</text>
</a>
</g>
</g>
<!-- Node134&#45;&gt;Node137 -->
<g id="edge8" class="edge"><title>Node134&#45;&gt;Node137</title>
<path fill="none" stroke="midnightblue" d="M661.643,-59.9773C683.802,-65.3237 709.54,-71.5334 730.314,-76.5457"/>
<polygon fill="midnightblue" stroke="midnightblue" points="662.286,-56.5321 651.744,-57.589 660.644,-63.3369 662.286,-56.5321"/>
</g>
<!-- Node140 -->
<g id="node12" class="node"><title>Node140</title>
<g id="a_node12"><a xlink:href="class_board.html#a5fda73da080403d8a71a8593d581c350" target="_top" xlink:title="Board::click">
<polygon fill="none" stroke="black" points="736.5,-38.5 736.5,-57.5 804.5,-57.5 804.5,-38.5 736.5,-38.5"/>
<text text-anchor="middle" x="770.5" y="-45.5" font-family="Helvetica,sans-Serif" font-size="10.00">Board::click</text>
</a>
</g>
</g>
<!-- Node134&#45;&gt;Node140 -->
<g id="edge11" class="edge"><title>Node134&#45;&gt;Node140</title>
<path fill="none" stroke="midnightblue" d="M691.467,-48C707.303,-48 723.1,-48 736.297,-48"/>
<polygon fill="midnightblue" stroke="midnightblue" points="691.082,-44.5001 681.082,-48 691.082,-51.5001 691.082,-44.5001"/>
</g>
<!-- Node138 -->
<g id="node10" class="node"><title>Node138</title>
<g id="a_node10"><a xlink:href="class_arbre.html#ac82e543d8cbf0aced4d741c346f9950d" target="_top" xlink:title="Arbre::Arbre">
<polygon fill="none" stroke="black" points="878.5,-114.5 878.5,-133.5 947.5,-133.5 947.5,-114.5 878.5,-114.5"/>
<text text-anchor="middle" x="913" y="-121.5" font-family="Helvetica,sans-Serif" font-size="10.00">Arbre::Arbre</text>
</a>
</g>
</g>
<!-- Node137&#45;&gt;Node138 -->
<g id="edge9" class="edge"><title>Node137&#45;&gt;Node138</title>
<path fill="none" stroke="midnightblue" d="M816.813,-98.2556C836.866,-103.679 860.034,-109.945 878.492,-114.937"/>
<polygon fill="midnightblue" stroke="midnightblue" points="817.521,-94.8213 806.954,-95.589 815.693,-101.579 817.521,-94.8213"/>
</g>
<!-- Node139 -->
<g id="node11" class="node"><title>Node139</title>
<g id="a_node11"><a xlink:href="class_arbre.html#a70585b1d341c1e0c262b2b4a4f769b6d" target="_top" xlink:title="Arbre::resetFils">
<polygon fill="none" stroke="black" points="871.5,-76.5 871.5,-95.5 954.5,-95.5 954.5,-76.5 871.5,-76.5"/>
<text text-anchor="middle" x="913" y="-83.5" font-family="Helvetica,sans-Serif" font-size="10.00">Arbre::resetFils</text>
</a>
</g>
</g>
<!-- Node137&#45;&gt;Node139 -->
<g id="edge10" class="edge"><title>Node137&#45;&gt;Node139</title>
<path fill="none" stroke="midnightblue" d="M820.645,-86C837.132,-86 855.329,-86 871.114,-86"/>
<polygon fill="midnightblue" stroke="midnightblue" points="820.637,-82.5001 810.637,-86 820.637,-89.5001 820.637,-82.5001"/>
</g>
<!-- Node141 -->
<g id="node13" class="node"><title>Node141</title>
<g id="a_node13"><a xlink:href="class_game__window.html#afa942088809bf10731bb31d0d37b878d" target="_top" xlink:title="Game_window::click">
<polygon fill="none" stroke="black" points="860,-38.5 860,-57.5 966,-57.5 966,-38.5 860,-38.5"/>
<text text-anchor="middle" x="913" y="-45.5" font-family="Helvetica,sans-Serif" font-size="10.00">Game_window::click</text>
</a>
</g>
</g>
<!-- Node140&#45;&gt;Node141 -->
<g id="edge12" class="edge"><title>Node140&#45;&gt;Node141</title>
<path fill="none" stroke="midnightblue" d="M814.841,-48C829.116,-48 845.137,-48 859.99,-48"/>
<polygon fill="midnightblue" stroke="midnightblue" points="814.797,-44.5001 804.797,-48 814.797,-51.5001 814.797,-44.5001"/>
</g>
<!-- Node142 -->
<g id="node14" class="node"><title>Node142</title>
<g id="a_node14"><a xlink:href="class_game__window.html#a555769f4e8511e45d6623658dc736be5" target="_top" xlink:title="Game_window::Run">
<polygon fill="none" stroke="black" points="1002,-38.5 1002,-57.5 1105,-57.5 1105,-38.5 1002,-38.5"/>
<text text-anchor="middle" x="1053.5" y="-45.5" font-family="Helvetica,sans-Serif" font-size="10.00">Game_window::Run</text>
</a>
</g>
</g>
<!-- Node141&#45;&gt;Node142 -->
<g id="edge13" class="edge"><title>Node141&#45;&gt;Node142</title>
<path fill="none" stroke="midnightblue" d="M976.594,-48C985.066,-48 993.672,-48 1001.9,-48"/>
<polygon fill="midnightblue" stroke="midnightblue" points="976.361,-44.5001 966.361,-48 976.361,-51.5001 976.361,-44.5001"/>
</g>
</g>
</svg>
