<?xml version="1.0" encoding="UTF-8" standalone="no"?>
<!DOCTYPE svg PUBLIC "-//W3C//DTD SVG 1.1//EN"
 "http://www.w3.org/Graphics/SVG/1.1/DTD/svg11.dtd">
<!-- Generated by graphviz version 2.38.0 (20140413.2041)
 -->
<!-- Title: IA::Tsumego_naif Pages: 1 -->
<svg width="325pt" height="446pt"
 viewBox="0.00 0.00 325.00 446.00" xmlns="http://www.w3.org/2000/svg" xmlns:xlink="http://www.w3.org/1999/xlink">
<g id="graph0" class="graph" transform="scale(1 1) rotate(0) translate(4 442)">
<title>IA::Tsumego_naif</title>
<!-- Node91 -->
<g id="node1" class="node"><title>Node91</title>
<polygon fill="#bfbfbf" stroke="black" points="0,-209.5 0,-228.5 92,-228.5 92,-209.5 0,-209.5"/>
<text text-anchor="middle" x="46" y="-216.5" font-family="Helvetica,sans-Serif" font-size="10.00">IA::Tsumego_naif</text>
</g>
<!-- Node92 -->
<g id="node2" class="node"><title>Node92</title>
<g id="a_node2"><a xlink:href="class_arbre.html#a0aef1f091d76bca13229a21fcd45a076" target="_top" xlink:title="Arbre::getNbF">
<polygon fill="none" stroke="black" points="131.5,-418.5 131.5,-437.5 208.5,-437.5 208.5,-418.5 131.5,-418.5"/>
<text text-anchor="middle" x="170" y="-425.5" font-family="Helvetica,sans-Serif" font-size="10.00">Arbre::getNbF</text>
</a>
</g>
</g>
<!-- Node91&#45;&gt;Node92 -->
<g id="edge1" class="edge"><title>Node91&#45;&gt;Node92</title>
<path fill="none" stroke="midnightblue" d="M48.5882,-228.639C54.0655,-259.046 74.8348,-354.162 128,-409 129.239,-410.278 130.58,-411.479 131.996,-412.606"/>
<polygon fill="midnightblue" stroke="midnightblue" points="130.435,-415.765 140.726,-418.281 134.25,-409.896 130.435,-415.765"/>
</g>
<!-- Node93 -->
<g id="node3" class="node"><title>Node93</title>
<g id="a_node3"><a xlink:href="class_arbre.html#ae9d294f541cec5e5fac9ccd8fe8496ee" target="_top" xlink:title="Arbre::getGob">
<polygon fill="none" stroke="black" points="131.5,-380.5 131.5,-399.5 208.5,-399.5 208.5,-380.5 131.5,-380.5"/>
<text text-anchor="middle" x="170" y="-387.5" font-family="Helvetica,sans-Serif" font-size="10.00">Arbre::getGob</text>
</a>
</g>
</g>
<!-- Node91&#45;&gt;Node93 -->
<g id="edge2" class="edge"><title>Node91&#45;&gt;Node93</title>
<path fill="none" stroke="midnightblue" d="M49.7094,-228.52C57.5826,-254.629 82.8139,-328.262 128,-371 129.621,-372.533 131.387,-373.96 133.248,-375.285"/>
<polygon fill="midnightblue" stroke="midnightblue" points="131.467,-378.299 141.839,-380.461 135.079,-372.303 131.467,-378.299"/>
</g>
<!-- Node94 -->
<g id="node4" class="node"><title>Node94</title>
<g id="a_node4"><a xlink:href="class_goban.html#a29aaf8df380fe614845d48cba057747c" target="_top" xlink:title="Goban::coord">
<polygon fill="none" stroke="black" points="132.5,-342.5 132.5,-361.5 207.5,-361.5 207.5,-342.5 132.5,-342.5"/>
<text text-anchor="middle" x="170" y="-349.5" font-family="Helvetica,sans-Serif" font-size="10.00">Goban::coord</text>
</a>
</g>
</g>
<!-- Node91&#45;&gt;Node94 -->
<g id="edge3" class="edge"><title>Node91&#45;&gt;Node94</title>
<path fill="none" stroke="midnightblue" d="M51.5716,-228.523C62.2245,-249.84 90.6583,-301.96 128,-333 129.953,-334.624 132.068,-336.14 134.273,-337.551"/>
<polygon fill="midnightblue" stroke="midnightblue" points="132.631,-340.643 143.066,-342.472 136.049,-334.535 132.631,-340.643"/>
</g>
<!-- Node95 -->
<g id="node5" class="node"><title>Node95</title>
<g id="a_node5"><a xlink:href="class_etat.html#aa25e66b110bc835523819392435e78c6" target="_top" xlink:title="Etat::getX">
<polygon fill="none" stroke="black" points="140.5,-304.5 140.5,-323.5 199.5,-323.5 199.5,-304.5 140.5,-304.5"/>
<text text-anchor="middle" x="170" y="-311.5" font-family="Helvetica,sans-Serif" font-size="10.00">Etat::getX</text>
</a>
</g>
</g>
<!-- Node91&#45;&gt;Node95 -->
<g id="edge4" class="edge"><title>Node91&#45;&gt;Node95</title>
<path fill="none" stroke="midnightblue" d="M55.6388,-228.943C69.613,-244.572 98.5915,-275.149 128,-295 130.438,-296.646 133.042,-298.217 135.711,-299.701"/>
<polygon fill="midnightblue" stroke="midnightblue" points="134.388,-302.955 144.886,-304.386 137.571,-296.721 134.388,-302.955"/>
</g>
<!-- Node96 -->
<g id="node6" class="node"><title>Node96</title>
<g id="a_node6"><a xlink:href="class_etat.html#a3e3e915f2261c83989a983e84b1273c1" target="_top" xlink:title="Etat::getY">
<polygon fill="none" stroke="black" points="139.5,-266.5 139.5,-285.5 200.5,-285.5 200.5,-266.5 139.5,-266.5"/>
<text text-anchor="middle" x="170" y="-273.5" font-family="Helvetica,sans-Serif" font-size="10.00">Etat::getY</text>
</a>
</g>
</g>
<!-- Node91&#45;&gt;Node96 -->
<g id="edge5" class="edge"><title>Node91&#45;&gt;Node96</title>
<path fill="none" stroke="midnightblue" d="M67.2935,-228.553C83.6693,-236.253 107.305,-247.351 128,-257 131.577,-258.668 135.332,-260.414 139.057,-262.144"/>
<polygon fill="midnightblue" stroke="midnightblue" points="137.589,-265.321 148.133,-266.353 140.534,-258.971 137.589,-265.321"/>
</g>
<!-- Node97 -->
<g id="node7" class="node"><title>Node97</title>
<g id="a_node7"><a xlink:href="class_etat.html#ac0b81bbcf64cb3cc574e5a9dcdf94382" target="_top" xlink:title="Etat::getVal">
<polygon fill="none" stroke="black" points="136,-228.5 136,-247.5 204,-247.5 204,-228.5 136,-228.5"/>
<text text-anchor="middle" x="170" y="-235.5" font-family="Helvetica,sans-Serif" font-size="10.00">Etat::getVal</text>
</a>
</g>
</g>
<!-- Node91&#45;&gt;Node97 -->
<g id="edge6" class="edge"><title>Node91&#45;&gt;Node97</title>
<path fill="none" stroke="midnightblue" d="M92.0817,-226.021C103.089,-227.735 114.841,-229.565 125.76,-231.266"/>
<polygon fill="midnightblue" stroke="midnightblue" points="125.504,-234.768 135.923,-232.849 126.581,-227.852 125.504,-234.768"/>
</g>
<!-- Node98 -->
<g id="node8" class="node"><title>Node98</title>
<g id="a_node8"><a xlink:href="class_arbre.html#aeaa93d0b192e3cce04adb509b6b29c40" target="_top" xlink:title="Arbre::getValue">
<polygon fill="none" stroke="black" points="128,-190.5 128,-209.5 212,-209.5 212,-190.5 128,-190.5"/>
<text text-anchor="middle" x="170" y="-197.5" font-family="Helvetica,sans-Serif" font-size="10.00">Arbre::getValue</text>
</a>
</g>
</g>
<!-- Node91&#45;&gt;Node98 -->
<g id="edge7" class="edge"><title>Node91&#45;&gt;Node98</title>
<path fill="none" stroke="midnightblue" d="M92.0817,-211.979C100.473,-210.672 109.296,-209.298 117.854,-207.965"/>
<polygon fill="midnightblue" stroke="midnightblue" points="118.394,-211.424 127.736,-206.426 117.317,-204.507 118.394,-211.424"/>
</g>
<!-- Node99 -->
<g id="node9" class="node"><title>Node99</title>
<g id="a_node9"><a xlink:href="class_arbre.html#a051e5328c63ba7ab6f6359f9f2f77105" target="_top" xlink:title="Arbre::setInfo">
<polygon fill="none" stroke="black" points="133,-152.5 133,-171.5 207,-171.5 207,-152.5 133,-152.5"/>
<text text-anchor="middle" x="170" y="-159.5" font-family="Helvetica,sans-Serif" font-size="10.00">Arbre::setInfo</text>
</a>
</g>
</g>
<!-- Node91&#45;&gt;Node99 -->
<g id="edge8" class="edge"><title>Node91&#45;&gt;Node99</title>
<path fill="none" stroke="midnightblue" d="M67.2935,-209.447C83.6693,-201.747 107.305,-190.649 128,-181 131.577,-179.332 135.332,-177.586 139.057,-175.856"/>
<polygon fill="midnightblue" stroke="midnightblue" points="140.534,-179.029 148.133,-171.647 137.589,-172.679 140.534,-179.029"/>
</g>
<!-- Node100 -->
<g id="node10" class="node"><title>Node100</title>
<g id="a_node10"><a xlink:href="class_arbre.html#aceca304216a7f620926c2147c7c84acd" target="_top" xlink:title="Arbre::setFilsA">
<polygon fill="none" stroke="black" points="129,-114.5 129,-133.5 211,-133.5 211,-114.5 129,-114.5"/>
<text text-anchor="middle" x="170" y="-121.5" font-family="Helvetica,sans-Serif" font-size="10.00">Arbre::setFilsA</text>
</a>
</g>
</g>
<!-- Node91&#45;&gt;Node100 -->
<g id="edge9" class="edge"><title>Node91&#45;&gt;Node100</title>
<path fill="none" stroke="midnightblue" d="M55.6388,-209.057C69.613,-193.428 98.5915,-162.851 128,-143 130.438,-141.354 133.042,-139.783 135.711,-138.299"/>
<polygon fill="midnightblue" stroke="midnightblue" points="137.571,-141.279 144.886,-133.614 134.388,-135.045 137.571,-141.279"/>
</g>
<!-- Node102 -->
<g id="node12" class="node"><title>Node102</title>
<g id="a_node12"><a xlink:href="class_arbre.html#ab8761bfdaadb8d6846199f269c6bbbc4" target="_top" xlink:title="Arbre::at">
<polygon fill="none" stroke="black" points="143,-76.5 143,-95.5 197,-95.5 197,-76.5 143,-76.5"/>
<text text-anchor="middle" x="170" y="-83.5" font-family="Helvetica,sans-Serif" font-size="10.00">Arbre::at</text>
</a>
</g>
</g>
<!-- Node91&#45;&gt;Node102 -->
<g id="edge11" class="edge"><title>Node91&#45;&gt;Node102</title>
<path fill="none" stroke="midnightblue" d="M51.5716,-209.477C62.2245,-188.16 90.6583,-136.04 128,-105 129.953,-103.376 132.068,-101.86 134.273,-100.449"/>
<polygon fill="midnightblue" stroke="midnightblue" points="136.049,-103.465 143.066,-95.528 132.631,-97.3567 136.049,-103.465"/>
</g>
<!-- Node103 -->
<g id="node13" class="node"><title>Node103</title>
<g id="a_node13"><a xlink:href="class_arbre.html#af2b7629b3686bcf3e49f737adb3b2d24" target="_top" xlink:title="Arbre::getFilsA">
<polygon fill="none" stroke="black" points="129,-38.5 129,-57.5 211,-57.5 211,-38.5 129,-38.5"/>
<text text-anchor="middle" x="170" y="-45.5" font-family="Helvetica,sans-Serif" font-size="10.00">Arbre::getFilsA</text>
</a>
</g>
</g>
<!-- Node91&#45;&gt;Node103 -->
<g id="edge12" class="edge"><title>Node91&#45;&gt;Node103</title>
<path fill="none" stroke="midnightblue" d="M49.7094,-209.48C57.5826,-183.371 82.8139,-109.738 128,-67 129.621,-65.467 131.387,-64.0401 133.248,-62.7146"/>
<polygon fill="midnightblue" stroke="midnightblue" points="135.079,-65.6974 141.839,-57.5389 131.467,-59.7015 135.079,-65.6974"/>
</g>
<!-- Node104 -->
<g id="node14" class="node"><title>Node104</title>
<g id="a_node14"><a xlink:href="class_arbre.html#afc71a182e86352b06193c2dc746fab79" target="_top" xlink:title="Arbre::getInfo">
<polygon fill="none" stroke="black" points="133,-0.5 133,-19.5 207,-19.5 207,-0.5 133,-0.5"/>
<text text-anchor="middle" x="170" y="-7.5" font-family="Helvetica,sans-Serif" font-size="10.00">Arbre::getInfo</text>
</a>
</g>
</g>
<!-- Node91&#45;&gt;Node104 -->
<g id="edge13" class="edge"><title>Node91&#45;&gt;Node104</title>
<path fill="none" stroke="midnightblue" d="M48.5882,-209.361C54.0655,-178.954 74.8348,-83.8377 128,-29 129.239,-27.7221 130.58,-26.5215 131.996,-25.3945"/>
<polygon fill="midnightblue" stroke="midnightblue" points="134.25,-28.104 140.726,-19.7192 130.435,-22.2351 134.25,-28.104"/>
</g>
<!-- Node101 -->
<g id="node11" class="node"><title>Node101</title>
<g id="a_node11"><a xlink:href="class_arbre.html#a761f4a2c6a43f44b38d4ac6fc1cf5cae" target="_top" xlink:title="Arbre::Arbre">
<polygon fill="none" stroke="black" points="248,-114.5 248,-133.5 317,-133.5 317,-114.5 248,-114.5"/>
<text text-anchor="middle" x="282.5" y="-121.5" font-family="Helvetica,sans-Serif" font-size="10.00">Arbre::Arbre</text>
</a>
</g>
</g>
<!-- Node100&#45;&gt;Node101 -->
<g id="edge10" class="edge"><title>Node100&#45;&gt;Node101</title>
<path fill="none" stroke="midnightblue" d="M211.206,-124C219.81,-124 228.942,-124 237.675,-124"/>
<polygon fill="midnightblue" stroke="midnightblue" points="237.688,-127.5 247.688,-124 237.688,-120.5 237.688,-127.5"/>
</g>
</g>
</svg>
