<?xml version="1.0" encoding="UTF-8" standalone="no"?>
<!DOCTYPE svg PUBLIC "-//W3C//DTD SVG 1.1//EN"
 "http://www.w3.org/Graphics/SVG/1.1/DTD/svg11.dtd">
<!-- Generated by graphviz version 2.38.0 (20140413.2041)
 -->
<!-- Title: Go_Solver::loadMenu Pages: 1 -->
<svg width="615pt" height="246pt"
 viewBox="0.00 0.00 615.00 246.00" xmlns="http://www.w3.org/2000/svg" xmlns:xlink="http://www.w3.org/1999/xlink">
<g id="graph0" class="graph" transform="scale(1 1) rotate(0) translate(4 242)">
<title>Go_Solver::loadMenu</title>
<!-- Node57 -->
<g id="node1" class="node"><title>Node57</title>
<polygon fill="#bfbfbf" stroke="black" points="0,-123.5 0,-142.5 109,-142.5 109,-123.5 0,-123.5"/>
<text text-anchor="middle" x="54.5" y="-130.5" font-family="Helvetica,sans-Serif" font-size="10.00">Go_Solver::loadMenu</text>
</g>
<!-- Node58 -->
<g id="node2" class="node"><title>Node58</title>
<g id="a_node2"><a xlink:href="class_go___solver.html#aefc904642aa7fcc3a5f700f921b9c0ab" target="_top" xlink:title="Go_Solver::loadMenu1">
<polygon fill="none" stroke="black" points="145,-66.5 145,-85.5 259,-85.5 259,-66.5 145,-66.5"/>
<text text-anchor="middle" x="202" y="-73.5" font-family="Helvetica,sans-Serif" font-size="10.00">Go_Solver::loadMenu1</text>
</a>
</g>
</g>
<!-- Node57&#45;&gt;Node58 -->
<g id="edge1" class="edge"><title>Node57&#45;&gt;Node58</title>
<path fill="none" stroke="midnightblue" d="M76.6575,-123.491C94.6798,-115.518 121.341,-104.022 145,-95 150.469,-92.9144 156.28,-90.8153 162.009,-88.8122"/>
<polygon fill="midnightblue" stroke="midnightblue" points="163.179,-92.1112 171.499,-85.5511 160.904,-85.4912 163.179,-92.1112"/>
</g>
<!-- Node63 -->
<g id="node7" class="node"><title>Node63</title>
<g id="a_node7"><a xlink:href="class_go___solver.html#acbb6d35d88e5c9bb05ceaae81db6287c" target="_top" xlink:title="Go_Solver::loadMenu2">
<polygon fill="none" stroke="black" points="145,-28.5 145,-47.5 259,-47.5 259,-28.5 145,-28.5"/>
<text text-anchor="middle" x="202" y="-35.5" font-family="Helvetica,sans-Serif" font-size="10.00">Go_Solver::loadMenu2</text>
</a>
</g>
</g>
<!-- Node57&#45;&gt;Node63 -->
<g id="edge6" class="edge"><title>Node57&#45;&gt;Node63</title>
<path fill="none" stroke="midnightblue" d="M64.5166,-123.253C79.7138,-107.342 112.013,-75.6928 145,-57 148.668,-54.9216 152.6,-53.0211 156.617,-51.2949"/>
<polygon fill="midnightblue" stroke="midnightblue" points="158.034,-54.4985 166.06,-47.5818 155.472,-47.984 158.034,-54.4985"/>
</g>
<!-- Node66 -->
<g id="node10" class="node"><title>Node66</title>
<g id="a_node10"><a xlink:href="class_go___solver.html#a48def38f87effdb973b5f02329a0af4f" target="_top" xlink:title="Go_Solver::loadMenu3">
<polygon fill="none" stroke="black" points="145,-218.5 145,-237.5 259,-237.5 259,-218.5 145,-218.5"/>
<text text-anchor="middle" x="202" y="-225.5" font-family="Helvetica,sans-Serif" font-size="10.00">Go_Solver::loadMenu3</text>
</a>
</g>
</g>
<!-- Node57&#45;&gt;Node66 -->
<g id="edge9" class="edge"><title>Node57&#45;&gt;Node66</title>
<path fill="none" stroke="midnightblue" d="M64.5166,-142.747C79.7138,-158.658 112.013,-190.307 145,-209 148.668,-211.078 152.6,-212.979 156.617,-214.705"/>
<polygon fill="midnightblue" stroke="midnightblue" points="155.472,-218.016 166.06,-218.418 158.034,-211.502 155.472,-218.016"/>
</g>
<!-- Node67 -->
<g id="node11" class="node"><title>Node67</title>
<g id="a_node11"><a xlink:href="class_go___solver.html#a99b82aef6960441ba24e3b28c7ec9ad5" target="_top" xlink:title="Go_Solver::loadMenu4">
<polygon fill="none" stroke="black" points="145,-180.5 145,-199.5 259,-199.5 259,-180.5 145,-180.5"/>
<text text-anchor="middle" x="202" y="-187.5" font-family="Helvetica,sans-Serif" font-size="10.00">Go_Solver::loadMenu4</text>
</a>
</g>
</g>
<!-- Node57&#45;&gt;Node67 -->
<g id="edge13" class="edge"><title>Node57&#45;&gt;Node67</title>
<path fill="none" stroke="midnightblue" d="M76.6575,-142.509C94.6798,-150.482 121.341,-161.978 145,-171 150.469,-173.086 156.28,-175.185 162.009,-177.188"/>
<polygon fill="midnightblue" stroke="midnightblue" points="160.904,-180.509 171.499,-180.449 163.179,-173.889 160.904,-180.509"/>
</g>
<!-- Node68 -->
<g id="node12" class="node"><title>Node68</title>
<g id="a_node12"><a xlink:href="class_go___solver.html#a480bbc610bbc9bb3b1c675d69128d1fd" target="_top" xlink:title="Go_Solver::loadMenu5">
<polygon fill="none" stroke="black" points="145,-142.5 145,-161.5 259,-161.5 259,-142.5 145,-142.5"/>
<text text-anchor="middle" x="202" y="-149.5" font-family="Helvetica,sans-Serif" font-size="10.00">Go_Solver::loadMenu5</text>
</a>
</g>
</g>
<!-- Node57&#45;&gt;Node68 -->
<g id="edge17" class="edge"><title>Node57&#45;&gt;Node68</title>
<path fill="none" stroke="midnightblue" d="M109.265,-140.021C117.438,-141.088 125.954,-142.2 134.36,-143.298"/>
<polygon fill="midnightblue" stroke="midnightblue" points="134.16,-146.801 144.53,-144.626 135.067,-139.86 134.16,-146.801"/>
</g>
<!-- Node69 -->
<g id="node13" class="node"><title>Node69</title>
<g id="a_node13"><a xlink:href="class_go___solver.html#a9aa3c644c34232cbc9bd3341930373c9" target="_top" xlink:title="Go_Solver::loadMenu6">
<polygon fill="none" stroke="black" points="145,-104.5 145,-123.5 259,-123.5 259,-104.5 145,-104.5"/>
<text text-anchor="middle" x="202" y="-111.5" font-family="Helvetica,sans-Serif" font-size="10.00">Go_Solver::loadMenu6</text>
</a>
</g>
</g>
<!-- Node57&#45;&gt;Node69 -->
<g id="edge21" class="edge"><title>Node57&#45;&gt;Node69</title>
<path fill="none" stroke="midnightblue" d="M109.265,-125.979C117.438,-124.912 125.954,-123.8 134.36,-122.702"/>
<polygon fill="midnightblue" stroke="midnightblue" points="135.067,-126.14 144.53,-121.374 134.16,-119.199 135.067,-126.14"/>
</g>
<!-- Node59 -->
<g id="node3" class="node"><title>Node59</title>
<g id="a_node3"><a xlink:href="class_menu__simple.html#a1273e6743ee892cd8651968efd595b73" target="_top" xlink:title="Menu_simple::setItemsFonts">
<polygon fill="none" stroke="black" points="301,-180.5 301,-199.5 444,-199.5 444,-180.5 301,-180.5"/>
<text text-anchor="middle" x="372.5" y="-187.5" font-family="Helvetica,sans-Serif" font-size="10.00">Menu_simple::setItemsFonts</text>
</a>
</g>
</g>
<!-- Node58&#45;&gt;Node59 -->
<g id="edge2" class="edge"><title>Node58&#45;&gt;Node59</title>
<path fill="none" stroke="midnightblue" d="M243.987,-85.537C249.431,-88.0061 254.631,-91.1073 259,-95 286.907,-119.862 266.078,-147.327 295,-171 297.039,-172.669 299.203,-174.194 301.463,-175.587"/>
<polygon fill="midnightblue" stroke="midnightblue" points="300.103,-178.825 310.589,-180.337 303.335,-172.616 300.103,-178.825"/>
</g>
<!-- Node60 -->
<g id="node4" class="node"><title>Node60</title>
<g id="a_node4"><a xlink:href="class_menu__simple.html#a0fc5b4ec10c844f34495364f70cd333e" target="_top" xlink:title="Menu_simple::addItem">
<polygon fill="none" stroke="black" points="315,-142.5 315,-161.5 430,-161.5 430,-142.5 315,-142.5"/>
<text text-anchor="middle" x="372.5" y="-149.5" font-family="Helvetica,sans-Serif" font-size="10.00">Menu_simple::addItem</text>
</a>
</g>
</g>
<!-- Node58&#45;&gt;Node60 -->
<g id="edge3" class="edge"><title>Node58&#45;&gt;Node60</title>
<path fill="none" stroke="midnightblue" d="M239.735,-85.5975C246.415,-88.1283 253.122,-91.2341 259,-95 278.589,-107.55 274.903,-121.281 295,-133 298.724,-135.171 302.689,-137.096 306.781,-138.802"/>
<polygon fill="midnightblue" stroke="midnightblue" points="305.909,-142.211 316.502,-142.398 308.338,-135.646 305.909,-142.211"/>
</g>
<!-- Node62 -->
<g id="node6" class="node"><title>Node62</title>
<g id="a_node6"><a xlink:href="class_menu__simple.html#a4717470decb5666cbac7aa879aade5fa" target="_top" xlink:title="Menu_simple::setItemsTextures">
<polygon fill="none" stroke="black" points="295,-104.5 295,-123.5 450,-123.5 450,-104.5 295,-104.5"/>
<text text-anchor="middle" x="372.5" y="-111.5" font-family="Helvetica,sans-Serif" font-size="10.00">Menu_simple::setItemsTextures</text>
</a>
</g>
</g>
<!-- Node58&#45;&gt;Node62 -->
<g id="edge5" class="edge"><title>Node58&#45;&gt;Node62</title>
<path fill="none" stroke="midnightblue" d="M245.52,-85.589C267.955,-90.6487 295.673,-96.8996 319.393,-102.249"/>
<polygon fill="midnightblue" stroke="midnightblue" points="318.761,-105.694 329.286,-104.48 320.301,-98.8657 318.761,-105.694"/>
</g>
<!-- Node61 -->
<g id="node5" class="node"><title>Node61</title>
<g id="a_node5"><a xlink:href="class_choice___simple.html#a035e32f90e4561b666b6571bce06e207" target="_top" xlink:title="Choice_Simple::setFont">
<polygon fill="none" stroke="black" points="486,-142.5 486,-161.5 607,-161.5 607,-142.5 486,-142.5"/>
<text text-anchor="middle" x="546.5" y="-149.5" font-family="Helvetica,sans-Serif" font-size="10.00">Choice_Simple::setFont</text>
</a>
</g>
</g>
<!-- Node60&#45;&gt;Node61 -->
<g id="edge4" class="edge"><title>Node60&#45;&gt;Node61</title>
<path fill="none" stroke="midnightblue" d="M430.296,-152C444.766,-152 460.487,-152 475.53,-152"/>
<polygon fill="midnightblue" stroke="midnightblue" points="475.812,-155.5 485.812,-152 475.812,-148.5 475.812,-155.5"/>
</g>
<!-- Node64 -->
<g id="node8" class="node"><title>Node64</title>
<g id="a_node8"><a xlink:href="class_menu.html#aa8032782ee75fba5fa17bf7a20635c68" target="_top" xlink:title="Menu::addItem">
<polygon fill="none" stroke="black" points="332,-0.5 332,-19.5 413,-19.5 413,-0.5 332,-0.5"/>
<text text-anchor="middle" x="372.5" y="-7.5" font-family="Helvetica,sans-Serif" font-size="10.00">Menu::addItem</text>
</a>
</g>
</g>
<!-- Node63&#45;&gt;Node64 -->
<g id="edge7" class="edge"><title>Node63&#45;&gt;Node64</title>
<path fill="none" stroke="midnightblue" d="M259.108,-28.6764C279.408,-25.3032 302.17,-21.5207 321.874,-18.2465"/>
<polygon fill="midnightblue" stroke="midnightblue" points="322.578,-21.6775 331.869,-16.5855 321.431,-14.7722 322.578,-21.6775"/>
</g>
<!-- Node65 -->
<g id="node9" class="node"><title>Node65</title>
<g id="a_node9"><a xlink:href="class_menu___miniature.html#afad04c066c7e436bbf9cccde310d07dc" target="_top" xlink:title="Menu_Miniature::setItems\lTextures">
<polygon fill="none" stroke="black" points="308,-39 308,-69 437,-69 437,-39 308,-39"/>
<text text-anchor="start" x="316" y="-57" font-family="Helvetica,sans-Serif" font-size="10.00">Menu_Miniature::setItems</text>
<text text-anchor="middle" x="372.5" y="-46" font-family="Helvetica,sans-Serif" font-size="10.00">Textures</text>
</a>
</g>
</g>
<!-- Node63&#45;&gt;Node65 -->
<g id="edge8" class="edge"><title>Node63&#45;&gt;Node65</title>
<path fill="none" stroke="midnightblue" d="M259.108,-43.3278C271.421,-44.497 284.641,-45.7522 297.534,-46.9765"/>
<polygon fill="midnightblue" stroke="midnightblue" points="297.494,-50.4884 307.78,-47.9495 298.156,-43.5198 297.494,-50.4884"/>
</g>
<!-- Node66&#45;&gt;Node59 -->
<g id="edge10" class="edge"><title>Node66&#45;&gt;Node59</title>
<path fill="none" stroke="midnightblue" d="M245.52,-218.411C267.955,-213.351 295.673,-207.1 319.393,-201.751"/>
<polygon fill="midnightblue" stroke="midnightblue" points="320.301,-205.134 329.286,-199.52 318.761,-198.306 320.301,-205.134"/>
</g>
<!-- Node66&#45;&gt;Node60 -->
<g id="edge11" class="edge"><title>Node66&#45;&gt;Node60</title>
<path fill="none" stroke="midnightblue" d="M239.735,-218.402C246.415,-215.872 253.122,-212.766 259,-209 278.589,-196.45 274.903,-182.719 295,-171 298.724,-168.829 302.689,-166.904 306.781,-165.198"/>
<polygon fill="midnightblue" stroke="midnightblue" points="308.338,-168.354 316.502,-161.602 305.909,-161.789 308.338,-168.354"/>
</g>
<!-- Node66&#45;&gt;Node62 -->
<g id="edge12" class="edge"><title>Node66&#45;&gt;Node62</title>
<path fill="none" stroke="midnightblue" d="M243.987,-218.463C249.431,-215.994 254.631,-212.893 259,-209 286.907,-184.138 266.078,-156.673 295,-133 297.039,-131.331 299.203,-129.806 301.463,-128.413"/>
<polygon fill="midnightblue" stroke="midnightblue" points="303.335,-131.384 310.589,-123.663 300.103,-125.175 303.335,-131.384"/>
</g>
<!-- Node67&#45;&gt;Node59 -->
<g id="edge14" class="edge"><title>Node67&#45;&gt;Node59</title>
<path fill="none" stroke="midnightblue" d="M259.108,-190C269.265,-190 280.039,-190 290.737,-190"/>
<polygon fill="midnightblue" stroke="midnightblue" points="290.949,-193.5 300.949,-190 290.949,-186.5 290.949,-193.5"/>
</g>
<!-- Node67&#45;&gt;Node60 -->
<g id="edge15" class="edge"><title>Node67&#45;&gt;Node60</title>
<path fill="none" stroke="midnightblue" d="M245.52,-180.411C267.955,-175.351 295.673,-169.1 319.393,-163.751"/>
<polygon fill="midnightblue" stroke="midnightblue" points="320.301,-167.134 329.286,-161.52 318.761,-160.306 320.301,-167.134"/>
</g>
<!-- Node67&#45;&gt;Node62 -->
<g id="edge16" class="edge"><title>Node67&#45;&gt;Node62</title>
<path fill="none" stroke="midnightblue" d="M239.735,-180.402C246.415,-177.872 253.122,-174.766 259,-171 278.589,-158.45 274.903,-144.719 295,-133 298.724,-130.829 302.689,-128.904 306.781,-127.198"/>
<polygon fill="midnightblue" stroke="midnightblue" points="308.338,-130.354 316.502,-123.602 305.909,-123.789 308.338,-130.354"/>
</g>
<!-- Node68&#45;&gt;Node59 -->
<g id="edge18" class="edge"><title>Node68&#45;&gt;Node59</title>
<path fill="none" stroke="midnightblue" d="M245.52,-161.589C267.955,-166.649 295.673,-172.9 319.393,-178.249"/>
<polygon fill="midnightblue" stroke="midnightblue" points="318.761,-181.694 329.286,-180.48 320.301,-174.866 318.761,-181.694"/>
</g>
<!-- Node68&#45;&gt;Node60 -->
<g id="edge19" class="edge"><title>Node68&#45;&gt;Node60</title>
<path fill="none" stroke="midnightblue" d="M259.108,-152C273.654,-152 289.464,-152 304.508,-152"/>
<polygon fill="midnightblue" stroke="midnightblue" points="304.775,-155.5 314.775,-152 304.775,-148.5 304.775,-155.5"/>
</g>
<!-- Node68&#45;&gt;Node62 -->
<g id="edge20" class="edge"><title>Node68&#45;&gt;Node62</title>
<path fill="none" stroke="midnightblue" d="M245.52,-142.411C267.955,-137.351 295.673,-131.1 319.393,-125.751"/>
<polygon fill="midnightblue" stroke="midnightblue" points="320.301,-129.134 329.286,-123.52 318.761,-122.306 320.301,-129.134"/>
</g>
<!-- Node69&#45;&gt;Node59 -->
<g id="edge22" class="edge"><title>Node69&#45;&gt;Node59</title>
<path fill="none" stroke="midnightblue" d="M239.735,-123.598C246.415,-126.128 253.122,-129.234 259,-133 278.589,-145.55 274.903,-159.281 295,-171 298.724,-173.171 302.689,-175.096 306.781,-176.802"/>
<polygon fill="midnightblue" stroke="midnightblue" points="305.909,-180.211 316.502,-180.398 308.338,-173.646 305.909,-180.211"/>
</g>
<!-- Node69&#45;&gt;Node60 -->
<g id="edge23" class="edge"><title>Node69&#45;&gt;Node60</title>
<path fill="none" stroke="midnightblue" d="M245.52,-123.589C267.955,-128.649 295.673,-134.9 319.393,-140.249"/>
<polygon fill="midnightblue" stroke="midnightblue" points="318.761,-143.694 329.286,-142.48 320.301,-136.866 318.761,-143.694"/>
</g>
<!-- Node69&#45;&gt;Node62 -->
<g id="edge24" class="edge"><title>Node69&#45;&gt;Node62</title>
<path fill="none" stroke="midnightblue" d="M259.108,-114C267.365,-114 276.03,-114 284.73,-114"/>
<polygon fill="midnightblue" stroke="midnightblue" points="284.938,-117.5 294.938,-114 284.938,-110.5 284.938,-117.5"/>
</g>
</g>
</svg>
