<?xml version="1.0" encoding="UTF-8" standalone="no"?>
<!DOCTYPE svg PUBLIC "-//W3C//DTD SVG 1.1//EN"
 "http://www.w3.org/Graphics/SVG/1.1/DTD/svg11.dtd">
<!-- Generated by graphviz version 2.38.0 (20140413.2041)
 -->
<!-- Title: Goban::eliminateOppositeKO Pages: 1 -->
<svg width="658pt" height="104pt"
 viewBox="0.00 0.00 658.00 104.00" xmlns="http://www.w3.org/2000/svg" xmlns:xlink="http://www.w3.org/1999/xlink">
<g id="graph0" class="graph" transform="scale(1 1) rotate(0) translate(4 100)">
<title>Goban::eliminateOppositeKO</title>
<!-- Node151 -->
<g id="node1" class="node"><title>Node151</title>
<polygon fill="#bfbfbf" stroke="black" points="0,-19.5 0,-38.5 143,-38.5 143,-19.5 0,-19.5"/>
<text text-anchor="middle" x="71.5" y="-26.5" font-family="Helvetica,sans-Serif" font-size="10.00">Goban::eliminateOppositeKO</text>
</g>
<!-- Node152 -->
<g id="node2" class="node"><title>Node152</title>
<g id="a_node2"><a xlink:href="class_goban.html#a7dd1a7b53322bde2a831a923059e43a3" target="_top" xlink:title="Goban::move">
<polygon fill="none" stroke="black" points="179,-19.5 179,-38.5 253,-38.5 253,-19.5 179,-19.5"/>
<text text-anchor="middle" x="216" y="-26.5" font-family="Helvetica,sans-Serif" font-size="10.00">Goban::move</text>
</a>
</g>
</g>
<!-- Node151&#45;&gt;Node152 -->
<g id="edge1" class="edge"><title>Node151&#45;&gt;Node152</title>
<path fill="none" stroke="midnightblue" d="M153.391,-29C162.25,-29 170.907,-29 178.799,-29"/>
<polygon fill="midnightblue" stroke="midnightblue" points="153.333,-25.5001 143.333,-29 153.332,-32.5001 153.333,-25.5001"/>
</g>
<!-- Node153 -->
<g id="node3" class="node"><title>Node153</title>
<g id="a_node3"><a xlink:href="class_goban.html#a36ab256c9430e070b620052a0f13f051" target="_top" xlink:title="Goban::listFils">
<polygon fill="none" stroke="black" points="289,-38.5 289,-57.5 369,-57.5 369,-38.5 289,-38.5"/>
<text text-anchor="middle" x="329" y="-45.5" font-family="Helvetica,sans-Serif" font-size="10.00">Goban::listFils</text>
</a>
</g>
</g>
<!-- Node152&#45;&gt;Node153 -->
<g id="edge2" class="edge"><title>Node152&#45;&gt;Node153</title>
<path fill="none" stroke="midnightblue" d="M262.899,-36.8566C271.465,-38.3229 280.347,-39.8431 288.692,-41.2716"/>
<polygon fill="midnightblue" stroke="midnightblue" points="263.486,-33.4062 253.039,-35.1688 262.305,-40.3058 263.486,-33.4062"/>
</g>
<!-- Node156 -->
<g id="node6" class="node"><title>Node156</title>
<g id="a_node6"><a xlink:href="class_board.html#a5fda73da080403d8a71a8593d581c350" target="_top" xlink:title="Board::click">
<polygon fill="none" stroke="black" points="295,-0.5 295,-19.5 363,-19.5 363,-0.5 295,-0.5"/>
<text text-anchor="middle" x="329" y="-7.5" font-family="Helvetica,sans-Serif" font-size="10.00">Board::click</text>
</a>
</g>
</g>
<!-- Node152&#45;&gt;Node156 -->
<g id="edge5" class="edge"><title>Node152&#45;&gt;Node156</title>
<path fill="none" stroke="midnightblue" d="M263.042,-21.1189C273.684,-19.2974 284.804,-17.394 294.774,-15.6874"/>
<polygon fill="midnightblue" stroke="midnightblue" points="262.305,-17.6942 253.039,-22.8312 263.486,-24.5938 262.305,-17.6942"/>
</g>
<!-- Node154 -->
<g id="node4" class="node"><title>Node154</title>
<g id="a_node4"><a xlink:href="class_arbre.html#ac82e543d8cbf0aced4d741c346f9950d" target="_top" xlink:title="Arbre::Arbre">
<polygon fill="none" stroke="black" points="423.5,-76.5 423.5,-95.5 492.5,-95.5 492.5,-76.5 423.5,-76.5"/>
<text text-anchor="middle" x="458" y="-83.5" font-family="Helvetica,sans-Serif" font-size="10.00">Arbre::Arbre</text>
</a>
</g>
</g>
<!-- Node153&#45;&gt;Node154 -->
<g id="edge3" class="edge"><title>Node153&#45;&gt;Node154</title>
<path fill="none" stroke="midnightblue" d="M371.894,-60.5353C389.171,-65.7048 408.871,-71.5991 424.963,-76.4141"/>
<polygon fill="midnightblue" stroke="midnightblue" points="372.631,-57.1025 362.047,-57.589 370.624,-63.8088 372.631,-57.1025"/>
</g>
<!-- Node155 -->
<g id="node5" class="node"><title>Node155</title>
<g id="a_node5"><a xlink:href="class_arbre.html#a70585b1d341c1e0c262b2b4a4f769b6d" target="_top" xlink:title="Arbre::resetFils">
<polygon fill="none" stroke="black" points="416.5,-38.5 416.5,-57.5 499.5,-57.5 499.5,-38.5 416.5,-38.5"/>
<text text-anchor="middle" x="458" y="-45.5" font-family="Helvetica,sans-Serif" font-size="10.00">Arbre::resetFils</text>
</a>
</g>
</g>
<!-- Node153&#45;&gt;Node155 -->
<g id="edge4" class="edge"><title>Node153&#45;&gt;Node155</title>
<path fill="none" stroke="midnightblue" d="M379.257,-48C391.563,-48 404.622,-48 416.452,-48"/>
<polygon fill="midnightblue" stroke="midnightblue" points="379.141,-44.5001 369.14,-48 379.14,-51.5001 379.141,-44.5001"/>
</g>
<!-- Node157 -->
<g id="node7" class="node"><title>Node157</title>
<g id="a_node7"><a xlink:href="class_game__window.html#afa942088809bf10731bb31d0d37b878d" target="_top" xlink:title="Game_window::click">
<polygon fill="none" stroke="black" points="405,-0.5 405,-19.5 511,-19.5 511,-0.5 405,-0.5"/>
<text text-anchor="middle" x="458" y="-7.5" font-family="Helvetica,sans-Serif" font-size="10.00">Game_window::click</text>
</a>
</g>
</g>
<!-- Node156&#45;&gt;Node157 -->
<g id="edge6" class="edge"><title>Node156&#45;&gt;Node157</title>
<path fill="none" stroke="midnightblue" d="M373.307,-10C383.48,-10 394.424,-10 404.936,-10"/>
<polygon fill="midnightblue" stroke="midnightblue" points="373.036,-6.5001 363.036,-10 373.036,-13.5001 373.036,-6.5001"/>
</g>
<!-- Node158 -->
<g id="node8" class="node"><title>Node158</title>
<g id="a_node8"><a xlink:href="class_game__window.html#a555769f4e8511e45d6623658dc736be5" target="_top" xlink:title="Game_window::Run">
<polygon fill="none" stroke="black" points="547,-0.5 547,-19.5 650,-19.5 650,-0.5 547,-0.5"/>
<text text-anchor="middle" x="598.5" y="-7.5" font-family="Helvetica,sans-Serif" font-size="10.00">Game_window::Run</text>
</a>
</g>
</g>
<!-- Node157&#45;&gt;Node158 -->
<g id="edge7" class="edge"><title>Node157&#45;&gt;Node158</title>
<path fill="none" stroke="midnightblue" d="M521.594,-10C530.066,-10 538.672,-10 546.898,-10"/>
<polygon fill="midnightblue" stroke="midnightblue" points="521.361,-6.5001 511.361,-10 521.361,-13.5001 521.361,-6.5001"/>
</g>
</g>
</svg>
