<?xml version="1.0" encoding="UTF-8" standalone="no"?>
<!DOCTYPE svg PUBLIC "-//W3C//DTD SVG 1.1//EN"
 "http://www.w3.org/Graphics/SVG/1.1/DTD/svg11.dtd">
<!-- Generated by graphviz version 2.38.0 (20140413.2041)
 -->
<!-- Title: Menu_Miniature::setItemsTextures Pages: 1 -->
<svg width="579pt" height="39pt"
 viewBox="0.00 0.00 579.00 39.00" xmlns="http://www.w3.org/2000/svg" xmlns:xlink="http://www.w3.org/1999/xlink">
<g id="graph0" class="graph" transform="scale(1 1) rotate(0) translate(4 35)">
<title>Menu_Miniature::setItemsTextures</title>
<!-- Node5 -->
<g id="node1" class="node"><title>Node5</title>
<polygon fill="#bfbfbf" stroke="black" points="0,-0.5 0,-30.5 129,-30.5 129,-0.5 0,-0.5"/>
<text text-anchor="start" x="8" y="-18.5" font-family="Helvetica,sans-Serif" font-size="10.00">Menu_Miniature::setItems</text>
<text text-anchor="middle" x="64.5" y="-7.5" font-family="Helvetica,sans-Serif" font-size="10.00">Textures</text>
</g>
<!-- Node6 -->
<g id="node2" class="node"><title>Node6</title>
<g id="a_node2"><a xlink:href="class_go___solver.html#acbb6d35d88e5c9bb05ceaae81db6287c" target="_top" xlink:title="Go_Solver::loadMenu2">
<polygon fill="none" stroke="black" points="165,-6 165,-25 279,-25 279,-6 165,-6"/>
<text text-anchor="middle" x="222" y="-13" font-family="Helvetica,sans-Serif" font-size="10.00">Go_Solver::loadMenu2</text>
</a>
</g>
</g>
<!-- Node5&#45;&gt;Node6 -->
<g id="edge1" class="edge"><title>Node5&#45;&gt;Node6</title>
<path fill="none" stroke="midnightblue" d="M139.463,-15.5C147.927,-15.5 156.45,-15.5 164.631,-15.5"/>
<polygon fill="midnightblue" stroke="midnightblue" points="139.197,-12.0001 129.196,-15.5 139.196,-19.0001 139.197,-12.0001"/>
</g>
<!-- Node7 -->
<g id="node3" class="node"><title>Node7</title>
<g id="a_node3"><a xlink:href="class_go___solver.html#a27ceb252dd57ac88d0dc2dbb04a25e32" target="_top" xlink:title="Go_Solver::loadMenu">
<polygon fill="none" stroke="black" points="315,-6 315,-25 424,-25 424,-6 315,-6"/>
<text text-anchor="middle" x="369.5" y="-13" font-family="Helvetica,sans-Serif" font-size="10.00">Go_Solver::loadMenu</text>
</a>
</g>
</g>
<!-- Node6&#45;&gt;Node7 -->
<g id="edge2" class="edge"><title>Node6&#45;&gt;Node7</title>
<path fill="none" stroke="midnightblue" d="M289.498,-15.5C297.967,-15.5 306.551,-15.5 314.785,-15.5"/>
<polygon fill="midnightblue" stroke="midnightblue" points="289.254,-12.0001 279.254,-15.5 289.254,-19.0001 289.254,-12.0001"/>
</g>
<!-- Node8 -->
<g id="node4" class="node"><title>Node8</title>
<g id="a_node4"><a xlink:href="class_go___solver.html#a30bd2f9d195a5553cc683f8314ea4b58" target="_top" xlink:title="Go_Solver::Go_Solver">
<polygon fill="none" stroke="black" points="460,-6 460,-25 571,-25 571,-6 460,-6"/>
<text text-anchor="middle" x="515.5" y="-13" font-family="Helvetica,sans-Serif" font-size="10.00">Go_Solver::Go_Solver</text>
</a>
</g>
</g>
<!-- Node7&#45;&gt;Node8 -->
<g id="edge3" class="edge"><title>Node7&#45;&gt;Node8</title>
<path fill="none" stroke="midnightblue" d="M434.385,-15.5C442.889,-15.5 451.546,-15.5 459.874,-15.5"/>
<polygon fill="midnightblue" stroke="midnightblue" points="434.12,-12.0001 424.12,-15.5 434.12,-19.0001 434.12,-12.0001"/>
</g>
</g>
</svg>
