<?xml version="1.0" encoding="UTF-8" standalone="no"?>
<!DOCTYPE svg PUBLIC "-//W3C//DTD SVG 1.1//EN"
 "http://www.w3.org/Graphics/SVG/1.1/DTD/svg11.dtd">
<!-- Generated by graphviz version 2.38.0 (20140413.2041)
 -->
<!-- Title: Arbre::getFilsA Pages: 1 -->
<svg width="564pt" height="180pt"
 viewBox="0.00 0.00 564.00 180.00" xmlns="http://www.w3.org/2000/svg" xmlns:xlink="http://www.w3.org/1999/xlink">
<g id="graph0" class="graph" transform="scale(1 1) rotate(0) translate(4 176)">
<title>Arbre::getFilsA</title>
<!-- Node68 -->
<g id="node1" class="node"><title>Node68</title>
<polygon fill="#bfbfbf" stroke="black" points="0,-76.5 0,-95.5 82,-95.5 82,-76.5 0,-76.5"/>
<text text-anchor="middle" x="41" y="-83.5" font-family="Helvetica,sans-Serif" font-size="10.00">Arbre::getFilsA</text>
</g>
<!-- Node69 -->
<g id="node2" class="node"><title>Node69</title>
<g id="a_node2"><a xlink:href="class_arbre.html#a9983712c900965e153ee7340f80e42c2" target="_top" xlink:title="Arbre::operator=">
<polygon fill="none" stroke="black" points="137,-152.5 137,-171.5 224,-171.5 224,-152.5 137,-152.5"/>
<text text-anchor="middle" x="180.5" y="-159.5" font-family="Helvetica,sans-Serif" font-size="10.00">Arbre::operator=</text>
</a>
</g>
</g>
<!-- Node68&#45;&gt;Node69 -->
<g id="edge1" class="edge"><title>Node68&#45;&gt;Node69</title>
<path fill="none" stroke="midnightblue" d="M60.3206,-102.61C75.0081,-115.187 96.6287,-132.102 118,-143 125.267,-146.706 133.391,-149.843 141.291,-152.435"/>
<polygon fill="midnightblue" stroke="midnightblue" points="62.3569,-99.7413 52.5283,-95.7853 57.7447,-105.007 62.3569,-99.7413"/>
</g>
<!-- Node70 -->
<g id="node3" class="node"><title>Node70</title>
<g id="a_node3"><a xlink:href="class_i_a.html#a42202360406fe67babfd01a9b7902fd2" target="_top" xlink:title="IA::Tsumego_naif">
<polygon fill="none" stroke="black" points="134.5,-114.5 134.5,-133.5 226.5,-133.5 226.5,-114.5 134.5,-114.5"/>
<text text-anchor="middle" x="180.5" y="-121.5" font-family="Helvetica,sans-Serif" font-size="10.00">IA::Tsumego_naif</text>
</a>
</g>
</g>
<!-- Node68&#45;&gt;Node70 -->
<g id="edge2" class="edge"><title>Node68&#45;&gt;Node70</title>
<path fill="none" stroke="midnightblue" d="M86.5729,-98.3183C105.465,-103.539 127.147,-109.532 144.814,-114.414"/>
<polygon fill="midnightblue" stroke="midnightblue" points="87.2681,-94.8793 76.6971,-95.589 85.4034,-101.626 87.2681,-94.8793"/>
</g>
<!-- Node71 -->
<g id="node4" class="node"><title>Node71</title>
<g id="a_node4"><a xlink:href="class_i_a.html#af1f6e5abe41a2225b17ca319c1fc0e4e" target="_top" xlink:title="IA::Tsumego_abr">
<polygon fill="none" stroke="black" points="135.5,-38.5 135.5,-57.5 225.5,-57.5 225.5,-38.5 135.5,-38.5"/>
<text text-anchor="middle" x="180.5" y="-45.5" font-family="Helvetica,sans-Serif" font-size="10.00">IA::Tsumego_abr</text>
</a>
</g>
</g>
<!-- Node68&#45;&gt;Node71 -->
<g id="edge3" class="edge"><title>Node68&#45;&gt;Node71</title>
<path fill="none" stroke="midnightblue" d="M86.5729,-73.6817C105.465,-68.4607 127.147,-62.4684 144.814,-57.5859"/>
<polygon fill="midnightblue" stroke="midnightblue" points="85.4034,-70.3736 76.6971,-76.411 87.2681,-77.1207 85.4034,-70.3736"/>
</g>
<!-- Node75 -->
<g id="node8" class="node"><title>Node75</title>
<g id="a_node8"><a xlink:href="class_i_a.html#a8113a453920dfbee224ae38a6367e059" target="_top" xlink:title="IA::Solution">
<polygon fill="none" stroke="black" points="147,-76.5 147,-95.5 214,-95.5 214,-76.5 147,-76.5"/>
<text text-anchor="middle" x="180.5" y="-83.5" font-family="Helvetica,sans-Serif" font-size="10.00">IA::Solution</text>
</a>
</g>
</g>
<!-- Node68&#45;&gt;Node75 -->
<g id="edge7" class="edge"><title>Node68&#45;&gt;Node75</title>
<path fill="none" stroke="midnightblue" d="M92.3246,-86C110.551,-86 130.642,-86 146.939,-86"/>
<polygon fill="midnightblue" stroke="midnightblue" points="92.1404,-82.5001 82.1403,-86 92.1403,-89.5001 92.1404,-82.5001"/>
</g>
<!-- Node76 -->
<g id="node9" class="node"><title>Node76</title>
<g id="a_node9"><a xlink:href="class_i_a.html#a5d86a3548f2410f7fc0676b89d07f4fd" target="_top" xlink:title="IA::Tsumego_compresse">
<polygon fill="none" stroke="black" points="118,-0.5 118,-19.5 243,-19.5 243,-0.5 118,-0.5"/>
<text text-anchor="middle" x="180.5" y="-7.5" font-family="Helvetica,sans-Serif" font-size="10.00">IA::Tsumego_compresse</text>
</a>
</g>
</g>
<!-- Node68&#45;&gt;Node76 -->
<g id="edge9" class="edge"><title>Node68&#45;&gt;Node76</title>
<path fill="none" stroke="midnightblue" d="M60.3206,-69.3896C75.0081,-56.8132 96.6287,-39.8982 118,-29 125.267,-25.294 133.391,-22.1567 141.291,-19.565"/>
<polygon fill="midnightblue" stroke="midnightblue" points="57.7447,-66.993 52.5283,-76.2147 62.3569,-72.2587 57.7447,-66.993"/>
</g>
<!-- Node72 -->
<g id="node5" class="node"><title>Node72</title>
<g id="a_node5"><a xlink:href="class_i_a.html#a364aef554d81e9a93bff08c28d437497" target="_top" xlink:title="IA::Tsumego">
<polygon fill="none" stroke="black" points="296.5,-76.5 296.5,-95.5 367.5,-95.5 367.5,-76.5 296.5,-76.5"/>
<text text-anchor="middle" x="332" y="-83.5" font-family="Helvetica,sans-Serif" font-size="10.00">IA::Tsumego</text>
</a>
</g>
</g>
<!-- Node71&#45;&gt;Node72 -->
<g id="edge4" class="edge"><title>Node71&#45;&gt;Node72</title>
<path fill="none" stroke="midnightblue" d="M228.988,-60.0704C250.859,-65.6296 276.338,-72.1059 296.361,-77.1955"/>
<polygon fill="midnightblue" stroke="midnightblue" points="229.779,-56.6604 219.225,-57.589 228.055,-63.4447 229.779,-56.6604"/>
</g>
<!-- Node74 -->
<g id="node7" class="node"><title>Node74</title>
<g id="a_node7"><a xlink:href="class_i_a.html#a6f616b7d3d9d39eef4780b7a03226260" target="_top" xlink:title="IA::Tsumego_abrFils">
<polygon fill="none" stroke="black" points="279,-38.5 279,-57.5 385,-57.5 385,-38.5 279,-38.5"/>
<text text-anchor="middle" x="332" y="-45.5" font-family="Helvetica,sans-Serif" font-size="10.00">IA::Tsumego_abrFils</text>
</a>
</g>
</g>
<!-- Node71&#45;&gt;Node74 -->
<g id="edge6" class="edge"><title>Node71&#45;&gt;Node74</title>
<path fill="none" stroke="midnightblue" d="M235.589,-48C249.682,-48 264.838,-48 278.83,-48"/>
<polygon fill="midnightblue" stroke="midnightblue" points="235.546,-44.5001 225.546,-48 235.546,-51.5001 235.546,-44.5001"/>
</g>
<!-- Node73 -->
<g id="node6" class="node"><title>Node73</title>
<g id="a_node6"><a xlink:href="class_go___solver.html#a6ca744f1f4586c3f90f2e47915034baf" target="_top" xlink:title="Go_Solver::launchTsumego">
<polygon fill="none" stroke="black" points="421,-76.5 421,-95.5 556,-95.5 556,-76.5 421,-76.5"/>
<text text-anchor="middle" x="488.5" y="-83.5" font-family="Helvetica,sans-Serif" font-size="10.00">Go_Solver::launchTsumego</text>
</a>
</g>
</g>
<!-- Node72&#45;&gt;Node73 -->
<g id="edge5" class="edge"><title>Node72&#45;&gt;Node73</title>
<path fill="none" stroke="midnightblue" d="M378.056,-86C391.475,-86 406.473,-86 420.958,-86"/>
<polygon fill="midnightblue" stroke="midnightblue" points="377.673,-82.5001 367.673,-86 377.673,-89.5001 377.673,-82.5001"/>
</g>
<!-- Node75&#45;&gt;Node72 -->
<g id="edge8" class="edge"><title>Node75&#45;&gt;Node72</title>
<path fill="none" stroke="midnightblue" d="M224.424,-86C247.274,-86 275.003,-86 296.449,-86"/>
<polygon fill="midnightblue" stroke="midnightblue" points="224.308,-82.5001 214.308,-86 224.308,-89.5001 224.308,-82.5001"/>
</g>
</g>
</svg>
