<?xml version="1.0" encoding="UTF-8" standalone="no"?>
<!DOCTYPE svg PUBLIC "-//W3C//DTD SVG 1.1//EN"
 "http://www.w3.org/Graphics/SVG/1.1/DTD/svg11.dtd">
<!-- Generated by graphviz version 2.38.0 (20140413.2041)
 -->
<!-- Title: Etat::setX Pages: 1 -->
<svg width="1111pt" height="142pt"
 viewBox="0.00 0.00 1111.00 142.00" xmlns="http://www.w3.org/2000/svg" xmlns:xlink="http://www.w3.org/1999/xlink">
<g id="graph0" class="graph" transform="scale(1 1) rotate(0) translate(4 138)">
<title>Etat::setX</title>
<!-- Node114 -->
<g id="node1" class="node"><title>Node114</title>
<polygon fill="#bfbfbf" stroke="black" points="0,-38.5 0,-57.5 59,-57.5 59,-38.5 0,-38.5"/>
<text text-anchor="middle" x="29.5" y="-45.5" font-family="Helvetica,sans-Serif" font-size="10.00">Etat::setX</text>
</g>
<!-- Node115 -->
<g id="node2" class="node"><title>Node115</title>
<g id="a_node2"><a xlink:href="class_goban.html#a3544d30f54fbb54bd9e4fed08aa4bce6" target="_top" xlink:title="Goban::Goban">
<polygon fill="none" stroke="black" points="107,-57.5 107,-76.5 187,-76.5 187,-57.5 107,-57.5"/>
<text text-anchor="middle" x="147" y="-64.5" font-family="Helvetica,sans-Serif" font-size="10.00">Goban::Goban</text>
</a>
</g>
</g>
<!-- Node114&#45;&gt;Node115 -->
<g id="edge1" class="edge"><title>Node114&#45;&gt;Node115</title>
<path fill="none" stroke="midnightblue" d="M68.9376,-54.3231C81.1384,-56.3301 94.639,-58.551 106.887,-60.5658"/>
<polygon fill="midnightblue" stroke="midnightblue" points="69.4861,-50.8663 59.0506,-52.6966 68.3498,-57.7735 69.4861,-50.8663"/>
</g>
<!-- Node116 -->
<g id="node3" class="node"><title>Node116</title>
<g id="a_node3"><a xlink:href="class_goban.html#a0e2596110cdbb9b007b2b2fd8d5a9973" target="_top" xlink:title="Goban::DefineStone">
<polygon fill="none" stroke="black" points="95,-19.5 95,-38.5 199,-38.5 199,-19.5 95,-19.5"/>
<text text-anchor="middle" x="147" y="-26.5" font-family="Helvetica,sans-Serif" font-size="10.00">Goban::DefineStone</text>
</a>
</g>
</g>
<!-- Node114&#45;&gt;Node116 -->
<g id="edge2" class="edge"><title>Node114&#45;&gt;Node116</title>
<path fill="none" stroke="midnightblue" d="M69.1207,-41.6468C77.365,-40.2906 86.1957,-38.8379 94.8277,-37.4179"/>
<polygon fill="midnightblue" stroke="midnightblue" points="68.3498,-38.2265 59.0506,-43.3034 69.4861,-45.1337 68.3498,-38.2265"/>
</g>
<!-- Node117 -->
<g id="node4" class="node"><title>Node117</title>
<g id="a_node4"><a xlink:href="class_goban.html#a84f36324eb9ddc29f522d481f04c13e7" target="_top" xlink:title="Goban::listOfLiberties">
<polygon fill="none" stroke="black" points="235,-19.5 235,-38.5 345,-38.5 345,-19.5 235,-19.5"/>
<text text-anchor="middle" x="290" y="-26.5" font-family="Helvetica,sans-Serif" font-size="10.00">Goban::listOfLiberties</text>
</a>
</g>
</g>
<!-- Node116&#45;&gt;Node117 -->
<g id="edge3" class="edge"><title>Node116&#45;&gt;Node117</title>
<path fill="none" stroke="midnightblue" d="M209.425,-29C217.82,-29 226.39,-29 234.648,-29"/>
<polygon fill="midnightblue" stroke="midnightblue" points="209.303,-25.5001 199.303,-29 209.303,-32.5001 209.303,-25.5001"/>
</g>
<!-- Node118 -->
<g id="node5" class="node"><title>Node118</title>
<g id="a_node5"><a xlink:href="class_goban.html#a1ec70508987f66afff5f8df381731fac" target="_top" xlink:title="Goban::eliminateGroups">
<polygon fill="none" stroke="black" points="381,-38.5 381,-57.5 503,-57.5 503,-38.5 381,-38.5"/>
<text text-anchor="middle" x="442" y="-45.5" font-family="Helvetica,sans-Serif" font-size="10.00">Goban::eliminateGroups</text>
</a>
</g>
</g>
<!-- Node117&#45;&gt;Node118 -->
<g id="edge4" class="edge"><title>Node117&#45;&gt;Node118</title>
<path fill="none" stroke="midnightblue" d="M355.347,-37.1506C363.803,-38.2217 372.443,-39.3162 380.827,-40.378"/>
<polygon fill="midnightblue" stroke="midnightblue" points="355.514,-33.6439 345.153,-35.8594 354.634,-40.5884 355.514,-33.6439"/>
</g>
<!-- Node121 -->
<g id="node8" class="node"><title>Node121</title>
<g id="a_node8"><a xlink:href="class_goban.html#a8b95ea2b51c078381562e361ff7febac" target="_top" xlink:title="Goban::isSuicide">
<polygon fill="none" stroke="black" points="723,-0.5 723,-19.5 814,-19.5 814,-0.5 723,-0.5"/>
<text text-anchor="middle" x="768.5" y="-7.5" font-family="Helvetica,sans-Serif" font-size="10.00">Goban::isSuicide</text>
</a>
</g>
</g>
<!-- Node117&#45;&gt;Node121 -->
<g id="edge14" class="edge"><title>Node117&#45;&gt;Node121</title>
<path fill="none" stroke="midnightblue" d="M355.281,-26.4369C453.401,-22.5244 638.06,-15.1613 722.861,-11.78"/>
<polygon fill="midnightblue" stroke="midnightblue" points="355.049,-22.9432 345.197,-26.839 355.328,-29.9377 355.049,-22.9432"/>
</g>
<!-- Node119 -->
<g id="node6" class="node"><title>Node119</title>
<g id="a_node6"><a xlink:href="class_goban.html#a7858b815885e4af36f05f9d26182cb07" target="_top" xlink:title="Goban::eliminateOppGroups">
<polygon fill="none" stroke="black" points="539,-38.5 539,-57.5 679,-57.5 679,-38.5 539,-38.5"/>
<text text-anchor="middle" x="609" y="-45.5" font-family="Helvetica,sans-Serif" font-size="10.00">Goban::eliminateOppGroups</text>
</a>
</g>
</g>
<!-- Node118&#45;&gt;Node119 -->
<g id="edge5" class="edge"><title>Node118&#45;&gt;Node119</title>
<path fill="none" stroke="midnightblue" d="M513.24,-48C521.698,-48 530.331,-48 538.774,-48"/>
<polygon fill="midnightblue" stroke="midnightblue" points="513.036,-44.5001 503.036,-48 513.036,-51.5001 513.036,-44.5001"/>
</g>
<!-- Node120 -->
<g id="node7" class="node"><title>Node120</title>
<g id="a_node7"><a xlink:href="class_goban.html#a799390f04139eec16f7bb8c79b381303" target="_top" xlink:title="Goban::legalEvenKO">
<polygon fill="none" stroke="black" points="715,-114.5 715,-133.5 822,-133.5 822,-114.5 715,-114.5"/>
<text text-anchor="middle" x="768.5" y="-121.5" font-family="Helvetica,sans-Serif" font-size="10.00">Goban::legalEvenKO</text>
</a>
</g>
</g>
<!-- Node119&#45;&gt;Node120 -->
<g id="edge6" class="edge"><title>Node119&#45;&gt;Node120</title>
<path fill="none" stroke="midnightblue" d="M634.856,-62.8724C655.8,-75.0659 686.78,-92.32 715,-105 722.515,-108.377 730.828,-111.606 738.58,-114.413"/>
<polygon fill="midnightblue" stroke="midnightblue" points="636.38,-59.7086 625.985,-57.6606 632.834,-65.744 636.38,-59.7086"/>
</g>
<!-- Node119&#45;&gt;Node121 -->
<g id="edge7" class="edge"><title>Node119&#45;&gt;Node121</title>
<path fill="none" stroke="midnightblue" d="M659.604,-36.032C681.675,-30.7069 707.303,-24.5238 728.042,-19.5201"/>
<polygon fill="midnightblue" stroke="midnightblue" points="658.644,-32.6631 649.744,-38.411 660.286,-39.4679 658.644,-32.6631"/>
</g>
<!-- Node122 -->
<g id="node9" class="node"><title>Node122</title>
<g id="a_node9"><a xlink:href="class_goban.html#a36ab256c9430e070b620052a0f13f051" target="_top" xlink:title="Goban::listFils">
<polygon fill="none" stroke="black" points="728.5,-76.5 728.5,-95.5 808.5,-95.5 808.5,-76.5 728.5,-76.5"/>
<text text-anchor="middle" x="768.5" y="-83.5" font-family="Helvetica,sans-Serif" font-size="10.00">Goban::listFils</text>
</a>
</g>
</g>
<!-- Node119&#45;&gt;Node122 -->
<g id="edge8" class="edge"><title>Node119&#45;&gt;Node122</title>
<path fill="none" stroke="midnightblue" d="M659.643,-59.9773C681.802,-65.3237 707.54,-71.5334 728.314,-76.5457"/>
<polygon fill="midnightblue" stroke="midnightblue" points="660.286,-56.5321 649.744,-57.589 658.644,-63.3369 660.286,-56.5321"/>
</g>
<!-- Node125 -->
<g id="node12" class="node"><title>Node125</title>
<g id="a_node12"><a xlink:href="class_board.html#a5fda73da080403d8a71a8593d581c350" target="_top" xlink:title="Board::click">
<polygon fill="none" stroke="black" points="734.5,-38.5 734.5,-57.5 802.5,-57.5 802.5,-38.5 734.5,-38.5"/>
<text text-anchor="middle" x="768.5" y="-45.5" font-family="Helvetica,sans-Serif" font-size="10.00">Board::click</text>
</a>
</g>
</g>
<!-- Node119&#45;&gt;Node125 -->
<g id="edge11" class="edge"><title>Node119&#45;&gt;Node125</title>
<path fill="none" stroke="midnightblue" d="M689.467,-48C705.303,-48 721.1,-48 734.297,-48"/>
<polygon fill="midnightblue" stroke="midnightblue" points="689.082,-44.5001 679.082,-48 689.082,-51.5001 689.082,-44.5001"/>
</g>
<!-- Node123 -->
<g id="node10" class="node"><title>Node123</title>
<g id="a_node10"><a xlink:href="class_arbre.html#ac82e543d8cbf0aced4d741c346f9950d" target="_top" xlink:title="Arbre::Arbre">
<polygon fill="none" stroke="black" points="876.5,-114.5 876.5,-133.5 945.5,-133.5 945.5,-114.5 876.5,-114.5"/>
<text text-anchor="middle" x="911" y="-121.5" font-family="Helvetica,sans-Serif" font-size="10.00">Arbre::Arbre</text>
</a>
</g>
</g>
<!-- Node122&#45;&gt;Node123 -->
<g id="edge9" class="edge"><title>Node122&#45;&gt;Node123</title>
<path fill="none" stroke="midnightblue" d="M814.813,-98.2556C834.866,-103.679 858.034,-109.945 876.492,-114.937"/>
<polygon fill="midnightblue" stroke="midnightblue" points="815.521,-94.8213 804.954,-95.589 813.693,-101.579 815.521,-94.8213"/>
</g>
<!-- Node124 -->
<g id="node11" class="node"><title>Node124</title>
<g id="a_node11"><a xlink:href="class_arbre.html#a70585b1d341c1e0c262b2b4a4f769b6d" target="_top" xlink:title="Arbre::resetFils">
<polygon fill="none" stroke="black" points="869.5,-76.5 869.5,-95.5 952.5,-95.5 952.5,-76.5 869.5,-76.5"/>
<text text-anchor="middle" x="911" y="-83.5" font-family="Helvetica,sans-Serif" font-size="10.00">Arbre::resetFils</text>
</a>
</g>
</g>
<!-- Node122&#45;&gt;Node124 -->
<g id="edge10" class="edge"><title>Node122&#45;&gt;Node124</title>
<path fill="none" stroke="midnightblue" d="M818.645,-86C835.132,-86 853.329,-86 869.114,-86"/>
<polygon fill="midnightblue" stroke="midnightblue" points="818.637,-82.5001 808.637,-86 818.637,-89.5001 818.637,-82.5001"/>
</g>
<!-- Node126 -->
<g id="node13" class="node"><title>Node126</title>
<g id="a_node13"><a xlink:href="class_game__window.html#afa942088809bf10731bb31d0d37b878d" target="_top" xlink:title="Game_window::click">
<polygon fill="none" stroke="black" points="858,-38.5 858,-57.5 964,-57.5 964,-38.5 858,-38.5"/>
<text text-anchor="middle" x="911" y="-45.5" font-family="Helvetica,sans-Serif" font-size="10.00">Game_window::click</text>
</a>
</g>
</g>
<!-- Node125&#45;&gt;Node126 -->
<g id="edge12" class="edge"><title>Node125&#45;&gt;Node126</title>
<path fill="none" stroke="midnightblue" d="M812.841,-48C827.116,-48 843.137,-48 857.99,-48"/>
<polygon fill="midnightblue" stroke="midnightblue" points="812.797,-44.5001 802.797,-48 812.797,-51.5001 812.797,-44.5001"/>
</g>
<!-- Node127 -->
<g id="node14" class="node"><title>Node127</title>
<g id="a_node14"><a xlink:href="class_game__window.html#a555769f4e8511e45d6623658dc736be5" target="_top" xlink:title="Game_window::Run">
<polygon fill="none" stroke="black" points="1000,-38.5 1000,-57.5 1103,-57.5 1103,-38.5 1000,-38.5"/>
<text text-anchor="middle" x="1051.5" y="-45.5" font-family="Helvetica,sans-Serif" font-size="10.00">Game_window::Run</text>
</a>
</g>
</g>
<!-- Node126&#45;&gt;Node127 -->
<g id="edge13" class="edge"><title>Node126&#45;&gt;Node127</title>
<path fill="none" stroke="midnightblue" d="M974.594,-48C983.066,-48 991.672,-48 999.898,-48"/>
<polygon fill="midnightblue" stroke="midnightblue" points="974.361,-44.5001 964.361,-48 974.361,-51.5001 974.361,-44.5001"/>
</g>
</g>
</svg>
