<?xml version="1.0" encoding="UTF-8" standalone="no"?>
<!DOCTYPE svg PUBLIC "-//W3C//DTD SVG 1.1//EN"
 "http://www.w3.org/Graphics/SVG/1.1/DTD/svg11.dtd">
<!-- Generated by graphviz version 2.38.0 (20140413.2041)
 -->
<!-- Title: Goban::cancel Pages: 1 -->
<svg width="207pt" height="180pt"
 viewBox="0.00 0.00 207.00 180.00" xmlns="http://www.w3.org/2000/svg" xmlns:xlink="http://www.w3.org/1999/xlink">
<g id="graph0" class="graph" transform="scale(1 1) rotate(0) translate(4 176)">
<title>Goban::cancel</title>
<!-- Node23 -->
<g id="node1" class="node"><title>Node23</title>
<polygon fill="#bfbfbf" stroke="black" points="0,-76.5 0,-95.5 80,-95.5 80,-76.5 0,-76.5"/>
<text text-anchor="middle" x="40" y="-83.5" font-family="Helvetica,sans-Serif" font-size="10.00">Goban::cancel</text>
</g>
<!-- Node24 -->
<g id="node2" class="node"><title>Node24</title>
<g id="a_node2"><a xlink:href="class_goban.html#a29aaf8df380fe614845d48cba057747c" target="_top" xlink:title="Goban::coord">
<polygon fill="none" stroke="black" points="120,-152.5 120,-171.5 195,-171.5 195,-152.5 120,-152.5"/>
<text text-anchor="middle" x="157.5" y="-159.5" font-family="Helvetica,sans-Serif" font-size="10.00">Goban::coord</text>
</a>
</g>
</g>
<!-- Node23&#45;&gt;Node24 -->
<g id="edge1" class="edge"><title>Node23&#45;&gt;Node24</title>
<path fill="none" stroke="midnightblue" d="M52.1526,-95.679C66.351,-107.711 91.9347,-128.435 116,-143 118.791,-144.689 121.756,-146.335 124.763,-147.907"/>
<polygon fill="midnightblue" stroke="midnightblue" points="123.263,-151.07 133.778,-152.369 126.368,-144.797 123.263,-151.07"/>
</g>
<!-- Node25 -->
<g id="node3" class="node"><title>Node25</title>
<g id="a_node3"><a xlink:href="class_history.html#a0ca66ba5a026689877e027754fc5bd52" target="_top" xlink:title="Access current position. ">
<polygon fill="none" stroke="black" points="116,-114.5 116,-133.5 199,-133.5 199,-114.5 116,-114.5"/>
<text text-anchor="middle" x="157.5" y="-121.5" font-family="Helvetica,sans-Serif" font-size="10.00">History::current</text>
</a>
</g>
</g>
<!-- Node23&#45;&gt;Node25 -->
<g id="edge2" class="edge"><title>Node23&#45;&gt;Node25</title>
<path fill="none" stroke="midnightblue" d="M70.1455,-95.589C84.5083,-100.314 102.029,-106.079 117.526,-111.177"/>
<polygon fill="midnightblue" stroke="midnightblue" points="116.771,-114.613 127.364,-114.414 118.959,-107.964 116.771,-114.613"/>
</g>
<!-- Node26 -->
<g id="node4" class="node"><title>Node26</title>
<g id="a_node4"><a xlink:href="class_etat.html#aa25e66b110bc835523819392435e78c6" target="_top" xlink:title="Etat::getX">
<polygon fill="none" stroke="black" points="128,-76.5 128,-95.5 187,-95.5 187,-76.5 128,-76.5"/>
<text text-anchor="middle" x="157.5" y="-83.5" font-family="Helvetica,sans-Serif" font-size="10.00">Etat::getX</text>
</a>
</g>
</g>
<!-- Node23&#45;&gt;Node26 -->
<g id="edge3" class="edge"><title>Node23&#45;&gt;Node26</title>
<path fill="none" stroke="midnightblue" d="M80.103,-86C92.1499,-86 105.409,-86 117.453,-86"/>
<polygon fill="midnightblue" stroke="midnightblue" points="117.662,-89.5001 127.662,-86 117.662,-82.5001 117.662,-89.5001"/>
</g>
<!-- Node27 -->
<g id="node5" class="node"><title>Node27</title>
<g id="a_node5"><a xlink:href="class_etat.html#a3e3e915f2261c83989a983e84b1273c1" target="_top" xlink:title="Etat::getY">
<polygon fill="none" stroke="black" points="127,-38.5 127,-57.5 188,-57.5 188,-38.5 127,-38.5"/>
<text text-anchor="middle" x="157.5" y="-45.5" font-family="Helvetica,sans-Serif" font-size="10.00">Etat::getY</text>
</a>
</g>
</g>
<!-- Node23&#45;&gt;Node27 -->
<g id="edge4" class="edge"><title>Node23&#45;&gt;Node27</title>
<path fill="none" stroke="midnightblue" d="M70.1455,-76.411C84.5083,-71.6856 102.029,-65.9211 117.526,-60.8226"/>
<polygon fill="midnightblue" stroke="midnightblue" points="118.959,-64.0359 127.364,-57.5859 116.771,-57.3866 118.959,-64.0359"/>
</g>
<!-- Node28 -->
<g id="node6" class="node"><title>Node28</title>
<g id="a_node6"><a xlink:href="class_history.html#a6e1bcaa1d3ecc646131e6f73a2544f35" target="_top" xlink:title="History::cancel">
<polygon fill="none" stroke="black" points="116.5,-0.5 116.5,-19.5 198.5,-19.5 198.5,-0.5 116.5,-0.5"/>
<text text-anchor="middle" x="157.5" y="-7.5" font-family="Helvetica,sans-Serif" font-size="10.00">History::cancel</text>
</a>
</g>
</g>
<!-- Node23&#45;&gt;Node28 -->
<g id="edge5" class="edge"><title>Node23&#45;&gt;Node28</title>
<path fill="none" stroke="midnightblue" d="M52.1526,-76.321C66.351,-64.2891 91.9347,-43.5652 116,-29 118.791,-27.311 121.756,-25.6648 124.763,-24.0928"/>
<polygon fill="midnightblue" stroke="midnightblue" points="126.368,-27.2035 133.778,-19.6309 123.263,-20.9298 126.368,-27.2035"/>
</g>
</g>
</svg>
