<?xml version="1.0" encoding="UTF-8" standalone="no"?>
<!DOCTYPE svg PUBLIC "-//W3C//DTD SVG 1.1//EN"
 "http://www.w3.org/Graphics/SVG/1.1/DTD/svg11.dtd">
<!-- Generated by graphviz version 2.38.0 (20140413.2041)
 -->
<!-- Title: Infos::setCurPlayer Pages: 1 -->
<svg width="431pt" height="66pt"
 viewBox="0.00 0.00 431.00 66.00" xmlns="http://www.w3.org/2000/svg" xmlns:xlink="http://www.w3.org/1999/xlink">
<g id="graph0" class="graph" transform="scale(1 1) rotate(0) translate(4 62)">
<title>Infos::setCurPlayer</title>
<!-- Node14 -->
<g id="node1" class="node"><title>Node14</title>
<polygon fill="#bfbfbf" stroke="black" points="0,-19.5 0,-38.5 99,-38.5 99,-19.5 0,-19.5"/>
<text text-anchor="middle" x="49.5" y="-26.5" font-family="Helvetica,sans-Serif" font-size="10.00">Infos::setCurPlayer</text>
</g>
<!-- Node15 -->
<g id="node2" class="node"><title>Node15</title>
<g id="a_node2"><a xlink:href="class_game__window.html#a1d0ac99e8c117a5016883b52446c6530" target="_top" xlink:title="Game_window::Game_window">
<polygon fill="none" stroke="black" points="135,-38.5 135,-57.5 284,-57.5 284,-38.5 135,-38.5"/>
<text text-anchor="middle" x="209.5" y="-45.5" font-family="Helvetica,sans-Serif" font-size="10.00">Game_window::Game_window</text>
</a>
</g>
</g>
<!-- Node14&#45;&gt;Node15 -->
<g id="edge1" class="edge"><title>Node14&#45;&gt;Node15</title>
<path fill="none" stroke="midnightblue" d="M109.241,-36.0638C117.634,-37.073 126.353,-38.1216 134.985,-39.1596"/>
<polygon fill="midnightblue" stroke="midnightblue" points="109.541,-32.5747 99.1944,-34.8557 108.705,-39.5246 109.541,-32.5747"/>
</g>
<!-- Node16 -->
<g id="node3" class="node"><title>Node16</title>
<g id="a_node3"><a xlink:href="class_game__window.html#afa942088809bf10731bb31d0d37b878d" target="_top" xlink:title="Game_window::click">
<polygon fill="none" stroke="black" points="156.5,-0.5 156.5,-19.5 262.5,-19.5 262.5,-0.5 156.5,-0.5"/>
<text text-anchor="middle" x="209.5" y="-7.5" font-family="Helvetica,sans-Serif" font-size="10.00">Game_window::click</text>
</a>
</g>
</g>
<!-- Node14&#45;&gt;Node16 -->
<g id="edge2" class="edge"><title>Node14&#45;&gt;Node16</title>
<path fill="none" stroke="midnightblue" d="M109.186,-21.9428C124.677,-20.08 141.286,-18.0827 156.402,-16.2649"/>
<polygon fill="midnightblue" stroke="midnightblue" points="108.705,-18.4754 99.1944,-23.1443 109.541,-25.4253 108.705,-18.4754"/>
</g>
<!-- Node17 -->
<g id="node4" class="node"><title>Node17</title>
<g id="a_node4"><a xlink:href="class_game__window.html#a555769f4e8511e45d6623658dc736be5" target="_top" xlink:title="Game_window::Run">
<polygon fill="none" stroke="black" points="320,-0.5 320,-19.5 423,-19.5 423,-0.5 320,-0.5"/>
<text text-anchor="middle" x="371.5" y="-7.5" font-family="Helvetica,sans-Serif" font-size="10.00">Game_window::Run</text>
</a>
</g>
</g>
<!-- Node16&#45;&gt;Node17 -->
<g id="edge3" class="edge"><title>Node16&#45;&gt;Node17</title>
<path fill="none" stroke="midnightblue" d="M272.952,-10C288.507,-10 304.994,-10 319.899,-10"/>
<polygon fill="midnightblue" stroke="midnightblue" points="272.89,-6.5001 262.89,-10 272.89,-13.5001 272.89,-6.5001"/>
</g>
</g>
</svg>
