<?xml version="1.0" encoding="UTF-8" standalone="no"?>
<!DOCTYPE svg PUBLIC "-//W3C//DTD SVG 1.1//EN"
 "http://www.w3.org/Graphics/SVG/1.1/DTD/svg11.dtd">
<!-- Generated by graphviz version 2.38.0 (20140413.2041)
 -->
<!-- Title: Timer::pause Pages: 1 -->
<svg width="540pt" height="66pt"
 viewBox="0.00 0.00 540.00 66.00" xmlns="http://www.w3.org/2000/svg" xmlns:xlink="http://www.w3.org/1999/xlink">
<g id="graph0" class="graph" transform="scale(1 1) rotate(0) translate(4 62)">
<title>Timer::pause</title>
<!-- Node15 -->
<g id="node1" class="node"><title>Node15</title>
<polygon fill="#bfbfbf" stroke="black" points="0,-19.5 0,-38.5 73,-38.5 73,-19.5 0,-19.5"/>
<text text-anchor="middle" x="36.5" y="-26.5" font-family="Helvetica,sans-Serif" font-size="10.00">Timer::pause</text>
</g>
<!-- Node16 -->
<g id="node2" class="node"><title>Node16</title>
<g id="a_node2"><a xlink:href="class_infos.html#a5dee8a8817c307c570db905429480d79" target="_top" xlink:title="Infos::setCurPlayer">
<polygon fill="none" stroke="black" points="109,-19.5 109,-38.5 208,-38.5 208,-19.5 109,-19.5"/>
<text text-anchor="middle" x="158.5" y="-26.5" font-family="Helvetica,sans-Serif" font-size="10.00">Infos::setCurPlayer</text>
</a>
</g>
</g>
<!-- Node15&#45;&gt;Node16 -->
<g id="edge1" class="edge"><title>Node15&#45;&gt;Node16</title>
<path fill="none" stroke="midnightblue" d="M83.4546,-29C91.7687,-29 100.464,-29 108.852,-29"/>
<polygon fill="midnightblue" stroke="midnightblue" points="83.1791,-25.5001 73.1791,-29 83.179,-32.5001 83.1791,-25.5001"/>
</g>
<!-- Node17 -->
<g id="node3" class="node"><title>Node17</title>
<g id="a_node3"><a xlink:href="class_game__window.html#a1d0ac99e8c117a5016883b52446c6530" target="_top" xlink:title="Game_window::Game_window">
<polygon fill="none" stroke="black" points="244,-38.5 244,-57.5 393,-57.5 393,-38.5 244,-38.5"/>
<text text-anchor="middle" x="318.5" y="-45.5" font-family="Helvetica,sans-Serif" font-size="10.00">Game_window::Game_window</text>
</a>
</g>
</g>
<!-- Node16&#45;&gt;Node17 -->
<g id="edge2" class="edge"><title>Node16&#45;&gt;Node17</title>
<path fill="none" stroke="midnightblue" d="M218.241,-36.0638C226.634,-37.073 235.353,-38.1216 243.985,-39.1596"/>
<polygon fill="midnightblue" stroke="midnightblue" points="218.541,-32.5747 208.194,-34.8557 217.705,-39.5246 218.541,-32.5747"/>
</g>
<!-- Node18 -->
<g id="node4" class="node"><title>Node18</title>
<g id="a_node4"><a xlink:href="class_game__window.html#afa942088809bf10731bb31d0d37b878d" target="_top" xlink:title="Game_window::click">
<polygon fill="none" stroke="black" points="265.5,-0.5 265.5,-19.5 371.5,-19.5 371.5,-0.5 265.5,-0.5"/>
<text text-anchor="middle" x="318.5" y="-7.5" font-family="Helvetica,sans-Serif" font-size="10.00">Game_window::click</text>
</a>
</g>
</g>
<!-- Node16&#45;&gt;Node18 -->
<g id="edge3" class="edge"><title>Node16&#45;&gt;Node18</title>
<path fill="none" stroke="midnightblue" d="M218.186,-21.9428C233.677,-20.08 250.286,-18.0827 265.402,-16.2649"/>
<polygon fill="midnightblue" stroke="midnightblue" points="217.705,-18.4754 208.194,-23.1443 218.541,-25.4253 217.705,-18.4754"/>
</g>
<!-- Node19 -->
<g id="node5" class="node"><title>Node19</title>
<g id="a_node5"><a xlink:href="class_game__window.html#a555769f4e8511e45d6623658dc736be5" target="_top" xlink:title="Game_window::Run">
<polygon fill="none" stroke="black" points="429,-0.5 429,-19.5 532,-19.5 532,-0.5 429,-0.5"/>
<text text-anchor="middle" x="480.5" y="-7.5" font-family="Helvetica,sans-Serif" font-size="10.00">Game_window::Run</text>
</a>
</g>
</g>
<!-- Node18&#45;&gt;Node19 -->
<g id="edge4" class="edge"><title>Node18&#45;&gt;Node19</title>
<path fill="none" stroke="midnightblue" d="M381.952,-10C397.507,-10 413.994,-10 428.899,-10"/>
<polygon fill="midnightblue" stroke="midnightblue" points="381.89,-6.5001 371.89,-10 381.89,-13.5001 381.89,-6.5001"/>
</g>
</g>
</svg>
