<?xml version="1.0" encoding="UTF-8" standalone="no"?>
<!DOCTYPE svg PUBLIC "-//W3C//DTD SVG 1.1//EN"
 "http://www.w3.org/Graphics/SVG/1.1/DTD/svg11.dtd">
<!-- Generated by graphviz version 2.38.0 (20140413.2041)
 -->
<!-- Title: Screen Pages: 1 -->
<svg width="294pt" height="535pt"
 viewBox="0.00 0.00 294.00 535.00" xmlns="http://www.w3.org/2000/svg" xmlns:xlink="http://www.w3.org/1999/xlink">
<g id="graph0" class="graph" transform="scale(1 1) rotate(0) translate(4 531)">
<title>Screen</title>
<!-- Node0 -->
<g id="node1" class="node"><title>Node0</title>
<polygon fill="#bfbfbf" stroke="black" points="85.5,-364.5 85.5,-432.5 137.5,-432.5 137.5,-364.5 85.5,-364.5"/>
<text text-anchor="middle" x="111.5" y="-420.5" font-family="Helvetica,sans-Serif" font-size="10.00">Screen</text>
<polyline fill="none" stroke="black" points="85.5,-413.5 137.5,-413.5 "/>
<text text-anchor="middle" x="111.5" y="-401.5" font-family="Helvetica,sans-Serif" font-size="10.00"> </text>
<polyline fill="none" stroke="black" points="85.5,-394.5 137.5,-394.5 "/>
<text text-anchor="start" x="93.5" y="-382.5" font-family="Helvetica,sans-Serif" font-size="10.00">+ Run()</text>
<text text-anchor="start" x="93.5" y="-371.5" font-family="Helvetica,sans-Serif" font-size="10.00">+ draw()</text>
</g>
<!-- Node2 -->
<g id="node3" class="node"><title>Node2</title>
<g id="a_node3"><a xlink:href="class_game__window.html" target="_top" xlink:title="{Game_window\n||+ Game_window()\l+ ~Game_window()\l+ draw()\l+ Run()\l+ click()\l+ zoom()\l+ keyPressed()\l+ setGoban()\l+ getGoban()\l+ setView()\l+ territoire()\l+ turnSoundsUp()\l+ turnSoundsDown()\l}">
<polygon fill="none" stroke="black" points="0,-138.5 0,-327.5 105,-327.5 105,-138.5 0,-138.5"/>
<text text-anchor="middle" x="52.5" y="-315.5" font-family="Helvetica,sans-Serif" font-size="10.00">Game_window</text>
<polyline fill="none" stroke="black" points="0,-308.5 105,-308.5 "/>
<text text-anchor="middle" x="52.5" y="-296.5" font-family="Helvetica,sans-Serif" font-size="10.00"> </text>
<polyline fill="none" stroke="black" points="0,-289.5 105,-289.5 "/>
<text text-anchor="start" x="8" y="-277.5" font-family="Helvetica,sans-Serif" font-size="10.00">+ Game_window()</text>
<text text-anchor="start" x="8" y="-266.5" font-family="Helvetica,sans-Serif" font-size="10.00">+ ~Game_window()</text>
<text text-anchor="start" x="8" y="-255.5" font-family="Helvetica,sans-Serif" font-size="10.00">+ draw()</text>
<text text-anchor="start" x="8" y="-244.5" font-family="Helvetica,sans-Serif" font-size="10.00">+ Run()</text>
<text text-anchor="start" x="8" y="-233.5" font-family="Helvetica,sans-Serif" font-size="10.00">+ click()</text>
<text text-anchor="start" x="8" y="-222.5" font-family="Helvetica,sans-Serif" font-size="10.00">+ zoom()</text>
<text text-anchor="start" x="8" y="-211.5" font-family="Helvetica,sans-Serif" font-size="10.00">+ keyPressed()</text>
<text text-anchor="start" x="8" y="-200.5" font-family="Helvetica,sans-Serif" font-size="10.00">+ setGoban()</text>
<text text-anchor="start" x="8" y="-189.5" font-family="Helvetica,sans-Serif" font-size="10.00">+ getGoban()</text>
<text text-anchor="start" x="8" y="-178.5" font-family="Helvetica,sans-Serif" font-size="10.00">+ setView()</text>
<text text-anchor="start" x="8" y="-167.5" font-family="Helvetica,sans-Serif" font-size="10.00">+ territoire()</text>
<text text-anchor="start" x="8" y="-156.5" font-family="Helvetica,sans-Serif" font-size="10.00">+ turnSoundsUp()</text>
<text text-anchor="start" x="8" y="-145.5" font-family="Helvetica,sans-Serif" font-size="10.00">+ turnSoundsDown()</text>
</a>
</g>
</g>
<!-- Node0&#45;&gt;Node2 -->
<g id="edge2" class="edge"><title>Node0&#45;&gt;Node2</title>
<path fill="none" stroke="midnightblue" d="M96.0918,-354.801C93.0234,-346.298 89.6891,-337.058 86.2768,-327.602"/>
<polygon fill="none" stroke="midnightblue" points="92.8739,-356.195 99.5605,-364.413 99.4583,-353.819 92.8739,-356.195"/>
</g>
<!-- Node3 -->
<g id="node4" class="node"><title>Node3</title>
<g id="a_node4"><a xlink:href="class_menu.html" target="_top" xlink:title="{Menu\n|# choices\l# cur_choice\l|+ Menu()\l+ ~Menu()\l+ draw()\l+ Run()\l+ getSize()\l+ getPosition()\l+ addItem()\l+ setPrevious()\l+ showAdresses()\l}">
<polygon fill="none" stroke="black" points="123,-155 123,-311 218,-311 218,-155 123,-155"/>
<text text-anchor="middle" x="170.5" y="-299" font-family="Helvetica,sans-Serif" font-size="10.00">Menu</text>
<polyline fill="none" stroke="black" points="123,-292 218,-292 "/>
<text text-anchor="start" x="131" y="-280" font-family="Helvetica,sans-Serif" font-size="10.00"># choices</text>
<text text-anchor="start" x="131" y="-269" font-family="Helvetica,sans-Serif" font-size="10.00"># cur_choice</text>
<polyline fill="none" stroke="black" points="123,-262 218,-262 "/>
<text text-anchor="start" x="131" y="-250" font-family="Helvetica,sans-Serif" font-size="10.00">+ Menu()</text>
<text text-anchor="start" x="131" y="-239" font-family="Helvetica,sans-Serif" font-size="10.00">+ ~Menu()</text>
<text text-anchor="start" x="131" y="-228" font-family="Helvetica,sans-Serif" font-size="10.00">+ draw()</text>
<text text-anchor="start" x="131" y="-217" font-family="Helvetica,sans-Serif" font-size="10.00">+ Run()</text>
<text text-anchor="start" x="131" y="-206" font-family="Helvetica,sans-Serif" font-size="10.00">+ getSize()</text>
<text text-anchor="start" x="131" y="-195" font-family="Helvetica,sans-Serif" font-size="10.00">+ getPosition()</text>
<text text-anchor="start" x="131" y="-184" font-family="Helvetica,sans-Serif" font-size="10.00">+ addItem()</text>
<text text-anchor="start" x="131" y="-173" font-family="Helvetica,sans-Serif" font-size="10.00">+ setPrevious()</text>
<text text-anchor="start" x="131" y="-162" font-family="Helvetica,sans-Serif" font-size="10.00">+ showAdresses()</text>
</a>
</g>
</g>
<!-- Node0&#45;&gt;Node3 -->
<g id="edge3" class="edge"><title>Node0&#45;&gt;Node3</title>
<path fill="none" stroke="midnightblue" d="M126.834,-355.007C131.672,-341.6 137.176,-326.347 142.608,-311.295"/>
<polygon fill="none" stroke="midnightblue" points="123.542,-353.819 123.44,-364.413 130.126,-356.195 123.542,-353.819"/>
</g>
<!-- Node1 -->
<g id="node2" class="node"><title>Node1</title>
<polygon fill="none" stroke="#bfbfbf" points="83.5,-469.5 83.5,-526.5 139.5,-526.5 139.5,-469.5 83.5,-469.5"/>
<text text-anchor="middle" x="111.5" y="-514.5" font-family="Helvetica,sans-Serif" font-size="10.00">Drawable</text>
<polyline fill="none" stroke="#bfbfbf" points="83.5,-507.5 139.5,-507.5 "/>
<text text-anchor="middle" x="111.5" y="-495.5" font-family="Helvetica,sans-Serif" font-size="10.00"> </text>
<polyline fill="none" stroke="#bfbfbf" points="83.5,-488.5 139.5,-488.5 "/>
<text text-anchor="middle" x="111.5" y="-476.5" font-family="Helvetica,sans-Serif" font-size="10.00"> </text>
</g>
<!-- Node1&#45;&gt;Node0 -->
<g id="edge1" class="edge"><title>Node1&#45;&gt;Node0</title>
<path fill="none" stroke="midnightblue" d="M111.5,-459.063C111.5,-450.393 111.5,-441.243 111.5,-432.786"/>
<polygon fill="none" stroke="midnightblue" points="108,-459.321 111.5,-469.321 115,-459.321 108,-459.321"/>
</g>
<!-- Node4 -->
<g id="node5" class="node"><title>Node4</title>
<g id="a_node5"><a xlink:href="class_menu___miniature.html" target="_top" xlink:title="{Menu_Miniature\n||+ Menu_Miniature()\l+ ~Menu_Miniature()\l+ setItemsTextures()\l}">
<polygon fill="none" stroke="black" points="54,-11.5 54,-90.5 161,-90.5 161,-11.5 54,-11.5"/>
<text text-anchor="middle" x="107.5" y="-78.5" font-family="Helvetica,sans-Serif" font-size="10.00">Menu_Miniature</text>
<polyline fill="none" stroke="black" points="54,-71.5 161,-71.5 "/>
<text text-anchor="middle" x="107.5" y="-59.5" font-family="Helvetica,sans-Serif" font-size="10.00"> </text>
<polyline fill="none" stroke="black" points="54,-52.5 161,-52.5 "/>
<text text-anchor="start" x="62" y="-40.5" font-family="Helvetica,sans-Serif" font-size="10.00">+ Menu_Miniature()</text>
<text text-anchor="start" x="62" y="-29.5" font-family="Helvetica,sans-Serif" font-size="10.00">+ ~Menu_Miniature()</text>
<text text-anchor="start" x="62" y="-18.5" font-family="Helvetica,sans-Serif" font-size="10.00">+ setItemsTextures()</text>
</a>
</g>
</g>
<!-- Node3&#45;&gt;Node4 -->
<g id="edge4" class="edge"><title>Node3&#45;&gt;Node4</title>
<path fill="none" stroke="midnightblue" d="M140.131,-145.232C133.445,-126.13 126.692,-106.834 121.077,-90.7907"/>
<polygon fill="none" stroke="midnightblue" points="136.901,-146.598 143.508,-154.88 143.508,-144.286 136.901,-146.598"/>
</g>
<!-- Node5 -->
<g id="node6" class="node"><title>Node5</title>
<g id="a_node6"><a xlink:href="class_menu__simple.html" target="_top" xlink:title="{Menu_simple\n||+ Menu_simple()\l+ ~Menu_simple()\l+ setItemsTextures()\l+ setItemsFonts()\l+ addItem()\l}">
<polygon fill="none" stroke="black" points="179,-0.5 179,-101.5 286,-101.5 286,-0.5 179,-0.5"/>
<text text-anchor="middle" x="232.5" y="-89.5" font-family="Helvetica,sans-Serif" font-size="10.00">Menu_simple</text>
<polyline fill="none" stroke="black" points="179,-82.5 286,-82.5 "/>
<text text-anchor="middle" x="232.5" y="-70.5" font-family="Helvetica,sans-Serif" font-size="10.00"> </text>
<polyline fill="none" stroke="black" points="179,-63.5 286,-63.5 "/>
<text text-anchor="start" x="187" y="-51.5" font-family="Helvetica,sans-Serif" font-size="10.00">+ Menu_simple()</text>
<text text-anchor="start" x="187" y="-40.5" font-family="Helvetica,sans-Serif" font-size="10.00">+ ~Menu_simple()</text>
<text text-anchor="start" x="187" y="-29.5" font-family="Helvetica,sans-Serif" font-size="10.00">+ setItemsTextures()</text>
<text text-anchor="start" x="187" y="-18.5" font-family="Helvetica,sans-Serif" font-size="10.00">+ setItemsFonts()</text>
<text text-anchor="start" x="187" y="-7.5" font-family="Helvetica,sans-Serif" font-size="10.00">+ addItem()</text>
</a>
</g>
</g>
<!-- Node3&#45;&gt;Node5 -->
<g id="edge5" class="edge"><title>Node3&#45;&gt;Node5</title>
<path fill="none" stroke="midnightblue" d="M200.43,-145.108C205.57,-130.185 210.749,-115.148 215.401,-101.641"/>
<polygon fill="none" stroke="midnightblue" points="197.011,-144.286 197.063,-154.88 203.629,-146.565 197.011,-144.286"/>
</g>
</g>
</svg>
