<?xml version="1.0" encoding="UTF-8" standalone="no"?>
<!DOCTYPE svg PUBLIC "-//W3C//DTD SVG 1.1//EN"
 "http://www.w3.org/Graphics/SVG/1.1/DTD/svg11.dtd">
<!-- Generated by graphviz version 2.38.0 (20140413.2041)
 -->
<!-- Title: Game_window::draw Pages: 1 -->
<svg width="233pt" height="66pt"
 viewBox="0.00 0.00 233.00 66.00" xmlns="http://www.w3.org/2000/svg" xmlns:xlink="http://www.w3.org/1999/xlink">
<g id="graph0" class="graph" transform="scale(1 1) rotate(0) translate(4 62)">
<title>Game_window::draw</title>
<!-- Node36 -->
<g id="node1" class="node"><title>Node36</title>
<polygon fill="#bfbfbf" stroke="black" points="0,-19.5 0,-38.5 106,-38.5 106,-19.5 0,-19.5"/>
<text text-anchor="middle" x="53" y="-26.5" font-family="Helvetica,sans-Serif" font-size="10.00">Game_window::draw</text>
</g>
<!-- Node37 -->
<g id="node2" class="node"><title>Node37</title>
<g id="a_node2"><a xlink:href="class_board.html#ad3c413e185668418d3a16c1fec68e70d" target="_top" xlink:title="Board::getView">
<polygon fill="none" stroke="black" points="142,-38.5 142,-57.5 225,-57.5 225,-38.5 142,-38.5"/>
<text text-anchor="middle" x="183.5" y="-45.5" font-family="Helvetica,sans-Serif" font-size="10.00">Board::getView</text>
</a>
</g>
</g>
<!-- Node36&#45;&gt;Node37 -->
<g id="edge1" class="edge"><title>Node36&#45;&gt;Node37</title>
<path fill="none" stroke="midnightblue" d="M106.266,-36.728C114.664,-37.9697 123.345,-39.2533 131.707,-40.4898"/>
<polygon fill="midnightblue" stroke="midnightblue" points="131.305,-43.9683 141.709,-41.9687 132.329,-37.0436 131.305,-43.9683"/>
</g>
<!-- Node38 -->
<g id="node3" class="node"><title>Node38</title>
<g id="a_node3"><a xlink:href="class_infos.html#af68a0d5dafcc767ae4b2b46ac8d7fbe2" target="_top" xlink:title="Infos::getView">
<polygon fill="none" stroke="black" points="145,-0.5 145,-19.5 222,-19.5 222,-0.5 145,-0.5"/>
<text text-anchor="middle" x="183.5" y="-7.5" font-family="Helvetica,sans-Serif" font-size="10.00">Infos::getView</text>
</a>
</g>
</g>
<!-- Node36&#45;&gt;Node38 -->
<g id="edge2" class="edge"><title>Node36&#45;&gt;Node38</title>
<path fill="none" stroke="midnightblue" d="M106.266,-21.272C115.757,-19.8686 125.61,-18.4118 134.956,-17.0299"/>
<polygon fill="midnightblue" stroke="midnightblue" points="135.477,-20.491 144.857,-15.5658 134.453,-13.5663 135.477,-20.491"/>
</g>
</g>
</svg>
