<?xml version="1.0" encoding="UTF-8" standalone="no"?>
<!DOCTYPE svg PUBLIC "-//W3C//DTD SVG 1.1//EN"
 "http://www.w3.org/Graphics/SVG/1.1/DTD/svg11.dtd">
<!-- Generated by graphviz version 2.38.0 (20140413.2041)
 -->
<!-- Title: Goban::setScoreBlack Pages: 1 -->
<svg width="881pt" height="142pt"
 viewBox="0.00 0.00 881.00 142.00" xmlns="http://www.w3.org/2000/svg" xmlns:xlink="http://www.w3.org/1999/xlink">
<g id="graph0" class="graph" transform="scale(1 1) rotate(0) translate(4 138)">
<title>Goban::setScoreBlack</title>
<!-- Node287 -->
<g id="node1" class="node"><title>Node287</title>
<polygon fill="#bfbfbf" stroke="black" points="0,-57.5 0,-76.5 115,-76.5 115,-57.5 0,-57.5"/>
<text text-anchor="middle" x="57.5" y="-64.5" font-family="Helvetica,sans-Serif" font-size="10.00">Goban::setScoreBlack</text>
</g>
<!-- Node288 -->
<g id="node2" class="node"><title>Node288</title>
<g id="a_node2"><a xlink:href="class_goban.html#a1ec70508987f66afff5f8df381731fac" target="_top" xlink:title="Goban::eliminateGroups">
<polygon fill="none" stroke="black" points="151,-57.5 151,-76.5 273,-76.5 273,-57.5 151,-57.5"/>
<text text-anchor="middle" x="212" y="-64.5" font-family="Helvetica,sans-Serif" font-size="10.00">Goban::eliminateGroups</text>
</a>
</g>
</g>
<!-- Node287&#45;&gt;Node288 -->
<g id="edge1" class="edge"><title>Node287&#45;&gt;Node288</title>
<path fill="none" stroke="midnightblue" d="M125.479,-67C133.922,-67 142.519,-67 150.848,-67"/>
<polygon fill="midnightblue" stroke="midnightblue" points="125.285,-63.5001 115.285,-67 125.285,-70.5001 125.285,-63.5001"/>
</g>
<!-- Node289 -->
<g id="node3" class="node"><title>Node289</title>
<g id="a_node3"><a xlink:href="class_goban.html#a7858b815885e4af36f05f9d26182cb07" target="_top" xlink:title="Goban::eliminateOppGroups">
<polygon fill="none" stroke="black" points="309,-57.5 309,-76.5 449,-76.5 449,-57.5 309,-57.5"/>
<text text-anchor="middle" x="379" y="-64.5" font-family="Helvetica,sans-Serif" font-size="10.00">Goban::eliminateOppGroups</text>
</a>
</g>
</g>
<!-- Node288&#45;&gt;Node289 -->
<g id="edge2" class="edge"><title>Node288&#45;&gt;Node289</title>
<path fill="none" stroke="midnightblue" d="M283.24,-67C291.698,-67 300.331,-67 308.774,-67"/>
<polygon fill="midnightblue" stroke="midnightblue" points="283.036,-63.5001 273.036,-67 283.036,-70.5001 283.036,-63.5001"/>
</g>
<!-- Node290 -->
<g id="node4" class="node"><title>Node290</title>
<g id="a_node4"><a xlink:href="class_goban.html#a799390f04139eec16f7bb8c79b381303" target="_top" xlink:title="Goban::legalEvenKO">
<polygon fill="none" stroke="black" points="485,-114.5 485,-133.5 592,-133.5 592,-114.5 485,-114.5"/>
<text text-anchor="middle" x="538.5" y="-121.5" font-family="Helvetica,sans-Serif" font-size="10.00">Goban::legalEvenKO</text>
</a>
</g>
</g>
<!-- Node289&#45;&gt;Node290 -->
<g id="edge3" class="edge"><title>Node289&#45;&gt;Node290</title>
<path fill="none" stroke="midnightblue" d="M416.102,-80.0655C445.052,-90.5428 485.014,-105.005 511.052,-114.428"/>
<polygon fill="midnightblue" stroke="midnightblue" points="416.956,-76.6525 406.362,-76.5405 414.574,-83.2347 416.956,-76.6525"/>
</g>
<!-- Node291 -->
<g id="node5" class="node"><title>Node291</title>
<g id="a_node5"><a xlink:href="class_goban.html#a8b95ea2b51c078381562e361ff7febac" target="_top" xlink:title="Goban::isSuicide">
<polygon fill="none" stroke="black" points="493,-76.5 493,-95.5 584,-95.5 584,-76.5 493,-76.5"/>
<text text-anchor="middle" x="538.5" y="-83.5" font-family="Helvetica,sans-Serif" font-size="10.00">Goban::isSuicide</text>
</a>
</g>
</g>
<!-- Node289&#45;&gt;Node291 -->
<g id="edge4" class="edge"><title>Node289&#45;&gt;Node291</title>
<path fill="none" stroke="midnightblue" d="M459.241,-76.5592C470.825,-77.9567 482.396,-79.3525 492.949,-80.6256"/>
<polygon fill="midnightblue" stroke="midnightblue" points="459.429,-73.0566 449.082,-75.3337 458.591,-80.0062 459.429,-73.0566"/>
</g>
<!-- Node292 -->
<g id="node6" class="node"><title>Node292</title>
<g id="a_node6"><a xlink:href="class_goban.html#a36ab256c9430e070b620052a0f13f051" target="_top" xlink:title="Goban::listFils">
<polygon fill="none" stroke="black" points="498.5,-38.5 498.5,-57.5 578.5,-57.5 578.5,-38.5 498.5,-38.5"/>
<text text-anchor="middle" x="538.5" y="-45.5" font-family="Helvetica,sans-Serif" font-size="10.00">Goban::listFils</text>
</a>
</g>
</g>
<!-- Node289&#45;&gt;Node292 -->
<g id="edge5" class="edge"><title>Node289&#45;&gt;Node292</title>
<path fill="none" stroke="midnightblue" d="M459.404,-57.4211C472.931,-55.7892 486.432,-54.1605 498.311,-52.7275"/>
<polygon fill="midnightblue" stroke="midnightblue" points="458.591,-53.9938 449.082,-58.6663 459.429,-60.9434 458.591,-53.9938"/>
</g>
<!-- Node295 -->
<g id="node9" class="node"><title>Node295</title>
<g id="a_node9"><a xlink:href="class_board.html#a5fda73da080403d8a71a8593d581c350" target="_top" xlink:title="Board::click">
<polygon fill="none" stroke="black" points="504.5,-0.5 504.5,-19.5 572.5,-19.5 572.5,-0.5 504.5,-0.5"/>
<text text-anchor="middle" x="538.5" y="-7.5" font-family="Helvetica,sans-Serif" font-size="10.00">Board::click</text>
</a>
</g>
</g>
<!-- Node289&#45;&gt;Node295 -->
<g id="edge8" class="edge"><title>Node289&#45;&gt;Node295</title>
<path fill="none" stroke="midnightblue" d="M416.102,-53.9345C445.052,-43.4572 485.014,-28.9949 511.052,-19.5716"/>
<polygon fill="midnightblue" stroke="midnightblue" points="414.574,-50.7653 406.362,-57.4595 416.956,-57.3475 414.574,-50.7653"/>
</g>
<!-- Node293 -->
<g id="node7" class="node"><title>Node293</title>
<g id="a_node7"><a xlink:href="class_arbre.html#ac82e543d8cbf0aced4d741c346f9950d" target="_top" xlink:title="Arbre::Arbre">
<polygon fill="none" stroke="black" points="646.5,-76.5 646.5,-95.5 715.5,-95.5 715.5,-76.5 646.5,-76.5"/>
<text text-anchor="middle" x="681" y="-83.5" font-family="Helvetica,sans-Serif" font-size="10.00">Arbre::Arbre</text>
</a>
</g>
</g>
<!-- Node292&#45;&gt;Node293 -->
<g id="edge6" class="edge"><title>Node292&#45;&gt;Node293</title>
<path fill="none" stroke="midnightblue" d="M584.813,-60.2556C604.866,-65.6791 628.034,-71.9451 646.492,-76.9373"/>
<polygon fill="midnightblue" stroke="midnightblue" points="585.521,-56.8213 574.954,-57.589 583.693,-63.5785 585.521,-56.8213"/>
</g>
<!-- Node294 -->
<g id="node8" class="node"><title>Node294</title>
<g id="a_node8"><a xlink:href="class_arbre.html#a70585b1d341c1e0c262b2b4a4f769b6d" target="_top" xlink:title="Arbre::resetFils">
<polygon fill="none" stroke="black" points="639.5,-38.5 639.5,-57.5 722.5,-57.5 722.5,-38.5 639.5,-38.5"/>
<text text-anchor="middle" x="681" y="-45.5" font-family="Helvetica,sans-Serif" font-size="10.00">Arbre::resetFils</text>
</a>
</g>
</g>
<!-- Node292&#45;&gt;Node294 -->
<g id="edge7" class="edge"><title>Node292&#45;&gt;Node294</title>
<path fill="none" stroke="midnightblue" d="M588.645,-48C605.132,-48 623.329,-48 639.114,-48"/>
<polygon fill="midnightblue" stroke="midnightblue" points="588.637,-44.5001 578.637,-48 588.637,-51.5001 588.637,-44.5001"/>
</g>
<!-- Node296 -->
<g id="node10" class="node"><title>Node296</title>
<g id="a_node10"><a xlink:href="class_game__window.html#afa942088809bf10731bb31d0d37b878d" target="_top" xlink:title="Game_window::click">
<polygon fill="none" stroke="black" points="628,-0.5 628,-19.5 734,-19.5 734,-0.5 628,-0.5"/>
<text text-anchor="middle" x="681" y="-7.5" font-family="Helvetica,sans-Serif" font-size="10.00">Game_window::click</text>
</a>
</g>
</g>
<!-- Node295&#45;&gt;Node296 -->
<g id="edge9" class="edge"><title>Node295&#45;&gt;Node296</title>
<path fill="none" stroke="midnightblue" d="M582.841,-10C597.116,-10 613.137,-10 627.99,-10"/>
<polygon fill="midnightblue" stroke="midnightblue" points="582.797,-6.5001 572.797,-10 582.797,-13.5001 582.797,-6.5001"/>
</g>
<!-- Node297 -->
<g id="node11" class="node"><title>Node297</title>
<g id="a_node11"><a xlink:href="class_game__window.html#a555769f4e8511e45d6623658dc736be5" target="_top" xlink:title="Game_window::Run">
<polygon fill="none" stroke="black" points="770,-0.5 770,-19.5 873,-19.5 873,-0.5 770,-0.5"/>
<text text-anchor="middle" x="821.5" y="-7.5" font-family="Helvetica,sans-Serif" font-size="10.00">Game_window::Run</text>
</a>
</g>
</g>
<!-- Node296&#45;&gt;Node297 -->
<g id="edge10" class="edge"><title>Node296&#45;&gt;Node297</title>
<path fill="none" stroke="midnightblue" d="M744.594,-10C753.066,-10 761.672,-10 769.898,-10"/>
<polygon fill="midnightblue" stroke="midnightblue" points="744.361,-6.5001 734.361,-10 744.361,-13.5001 744.361,-6.5001"/>
</g>
</g>
</svg>
