<?xml version="1.0" encoding="UTF-8" standalone="no"?>
<!DOCTYPE svg PUBLIC "-//W3C//DTD SVG 1.1//EN"
 "http://www.w3.org/Graphics/SVG/1.1/DTD/svg11.dtd">
<!-- Generated by graphviz version 2.38.0 (20140413.2041)
 -->
<!-- Title: D:/Users/Victor/OneDrive/Documents/Visual Studio 2017/Projects/Jeu_de_Go/Jeu_de_Go/Sources/Graphics Pages: 1 -->
<svg width="113pt" height="231pt"
 viewBox="0.00 0.00 113.00 231.00" xmlns="http://www.w3.org/2000/svg" xmlns:xlink="http://www.w3.org/1999/xlink">
<g id="graph0" class="graph" transform="scale(1 1) rotate(0) translate(4 227)">
<title>D:/Users/Victor/OneDrive/Documents/Visual Studio 2017/Projects/Jeu_de_Go/Jeu_de_Go/Sources/Graphics</title>
<g id="clust1" class="cluster"><title>clusterdir_937900b87e0c7a5fa01190c395fb83f7</title>
<g id="a_clust1"><a xlink:href="dir_937900b87e0c7a5fa01190c395fb83f7.html" target="_top" xlink:title="Sources">
<polygon fill="#ddddee" stroke="black" points="8,-56 8,-215 96,-215 96,-56 8,-56"/>
<text text-anchor="middle" x="52" y="-203" font-family="Helvetica,sans-Serif" font-size="10.00">Sources</text>
</a>
</g>
</g>
<g id="clust2" class="cluster"><title>clusterdir_c717f6799e99af4b5a6a319a520d64df</title>
<g id="a_clust2"><a xlink:href="dir_c717f6799e99af4b5a6a319a520d64df.html" target="_top">
<polygon fill="#eeeeff" stroke="black" points="16,-64 16,-188 88,-188 88,-64 16,-64"/>
</a>
</g>
</g>
<!-- dir_c717f6799e99af4b5a6a319a520d64df -->
<g id="node1" class="node"><title>dir_c717f6799e99af4b5a6a319a520d64df</title>
<text text-anchor="middle" x="52" y="-159.5" font-family="Helvetica,sans-Serif" font-size="10.00">Graphics</text>
</g>
<!-- dir_aba294cfc96023bce0e68c14296e19fd -->
<g id="node2" class="node"><title>dir_aba294cfc96023bce0e68c14296e19fd</title>
<g id="a_node2"><a xlink:href="dir_aba294cfc96023bce0e68c14296e19fd.html" target="_top" xlink:title="Game">
<polygon fill="white" stroke="black" points="78,-108 24,-108 24,-72 78,-72 78,-108"/>
<text text-anchor="middle" x="51" y="-87.5" font-family="Helvetica,sans-Serif" font-size="10.00">Game</text>
</a>
</g>
</g>
<!-- dir_c717f6799e99af4b5a6a319a520d64df&#45;&gt;dir_aba294cfc96023bce0e68c14296e19fd -->
<g id="edge3" class="edge"><title>dir_c717f6799e99af4b5a6a319a520d64df&#45;&gt;dir_aba294cfc96023bce0e68c14296e19fd</title>
<path fill="none" stroke="black" d="M51.7528,-143.697C51.6426,-135.983 51.5102,-126.712 51.3873,-118.112"/>
<polygon fill="black" stroke="black" points="54.8869,-118.053 51.2443,-108.104 47.8876,-118.153 54.8869,-118.053"/>
<g id="a_edge3&#45;headlabel"><a xlink:href="dir_000002_000003.html" target="_top" xlink:title="1">
<text text-anchor="middle" x="57.7772" y="-119.107" font-family="Helvetica,sans-Serif" font-size="10.00">1</text>
</a>
</g>
</g>
<!-- dir_994fef7c0932fcfe306300c8dd0cc8a7 -->
<g id="node3" class="node"><title>dir_994fef7c0932fcfe306300c8dd0cc8a7</title>
<g id="a_node3"><a xlink:href="dir_994fef7c0932fcfe306300c8dd0cc8a7.html" target="_top" xlink:title="Engine">
<polygon fill="none" stroke="black" points="105,-36 51,-36 51,-0 105,-0 105,-36"/>
<text text-anchor="middle" x="78" y="-15.5" font-family="Helvetica,sans-Serif" font-size="10.00">Engine</text>
</a>
</g>
</g>
<!-- dir_aba294cfc96023bce0e68c14296e19fd&#45;&gt;dir_994fef7c0932fcfe306300c8dd0cc8a7 -->
<g id="edge2" class="edge"><title>dir_aba294cfc96023bce0e68c14296e19fd&#45;&gt;dir_994fef7c0932fcfe306300c8dd0cc8a7</title>
<path fill="none" stroke="black" d="M57.6742,-71.6966C60.7149,-63.8132 64.3827,-54.3042 67.7607,-45.5464"/>
<polygon fill="black" stroke="black" points="71.0693,-46.6939 71.4026,-36.1043 64.5383,-44.1748 71.0693,-46.6939"/>
<g id="a_edge2&#45;headlabel"><a xlink:href="dir_000003_000001.html" target="_top" xlink:title="5">
<text text-anchor="middle" x="72.4248" y="-48.5695" font-family="Helvetica,sans-Serif" font-size="10.00">5</text>
</a>
</g>
</g>
<!-- dir_994fef7c0932fcfe306300c8dd0cc8a7&#45;&gt;dir_c717f6799e99af4b5a6a319a520d64df -->
<g id="edge1" class="edge"><title>dir_994fef7c0932fcfe306300c8dd0cc8a7&#45;&gt;dir_c717f6799e99af4b5a6a319a520d64df</title>
<path fill="none" stroke="black" d="M83.5837,-36.1043C88.6427,-54.3037 94.2827,-83.756 87,-108 84.0805,-117.719 78.7367,-127.3 73.0891,-135.585"/>
<polygon fill="black" stroke="black" points="70.2361,-133.558 67.1825,-143.703 75.8963,-137.676 70.2361,-133.558"/>
<g id="a_edge1&#45;headlabel"><a xlink:href="dir_000001_000002.html" target="_top" xlink:title="2">
<text text-anchor="middle" x="70.0552" y="-126.481" font-family="Helvetica,sans-Serif" font-size="10.00">2</text>
</a>
</g>
</g>
</g>
</svg>
