<?xml version="1.0" encoding="UTF-8" standalone="no"?>
<!DOCTYPE svg PUBLIC "-//W3C//DTD SVG 1.1//EN"
 "http://www.w3.org/Graphics/SVG/1.1/DTD/svg11.dtd">
<!-- Generated by graphviz version 2.38.0 (20140413.2041)
 -->
<!-- Title: D:/Users/Victor/OneDrive/Documents/Visual Studio 2017/Projects/Jeu_de_Go/Jeu_de_Go/Sources/Engine/Arbre.h Pages: 1 -->
<svg width="859pt" height="285pt"
 viewBox="0.00 0.00 858.50 285.00" xmlns="http://www.w3.org/2000/svg" xmlns:xlink="http://www.w3.org/1999/xlink">
<g id="graph0" class="graph" transform="scale(1 1) rotate(0) translate(4 281)">
<title>D:/Users/Victor/OneDrive/Documents/Visual Studio 2017/Projects/Jeu_de_Go/Jeu_de_Go/Sources/Engine/Arbre.h</title>
<!-- Node0 -->
<g id="node1" class="node"><title>Node0</title>
<polygon fill="#bfbfbf" stroke="black" points="53.5,-224.5 53.5,-276.5 228.5,-276.5 228.5,-224.5 53.5,-224.5"/>
<text text-anchor="start" x="61.5" y="-264.5" font-family="Helvetica,sans-Serif" font-size="10.00">D:/Users/Victor/OneDrive</text>
<text text-anchor="start" x="61.5" y="-253.5" font-family="Helvetica,sans-Serif" font-size="10.00">/Documents/Visual Studio</text>
<text text-anchor="start" x="61.5" y="-242.5" font-family="Helvetica,sans-Serif" font-size="10.00"> 2017/Projects/Jeu_de_Go</text>
<text text-anchor="middle" x="141" y="-231.5" font-family="Helvetica,sans-Serif" font-size="10.00">/Jeu_de_Go/Sources/Engine/Arbre.h</text>
</g>
<!-- Node1 -->
<g id="node2" class="node"><title>Node1</title>
<g id="a_node2"><a xlink:href="_goban_8h.html" target="_top" xlink:title="Goban.h">
<polygon fill="none" stroke="black" points="114.5,-168.5 114.5,-187.5 167.5,-187.5 167.5,-168.5 114.5,-168.5"/>
<text text-anchor="middle" x="141" y="-175.5" font-family="Helvetica,sans-Serif" font-size="10.00">Goban.h</text>
</a>
</g>
</g>
<!-- Node0&#45;&gt;Node1 -->
<g id="edge1" class="edge"><title>Node0&#45;&gt;Node1</title>
<path fill="none" stroke="midnightblue" d="M141,-224.446C141,-215.73 141,-206.104 141,-197.964"/>
<polygon fill="midnightblue" stroke="midnightblue" points="144.5,-197.695 141,-187.695 137.5,-197.696 144.5,-197.695"/>
</g>
<!-- Node2 -->
<g id="node3" class="node"><title>Node2</title>
<polygon fill="none" stroke="#bfbfbf" points="0,-0.5 0,-19.5 54,-19.5 54,-0.5 0,-0.5"/>
<text text-anchor="middle" x="27" y="-7.5" font-family="Helvetica,sans-Serif" font-size="10.00">iostream</text>
</g>
<!-- Node0&#45;&gt;Node2 -->
<g id="edge24" class="edge"><title>Node0&#45;&gt;Node2</title>
<path fill="none" stroke="midnightblue" d="M180.192,-224.442C208.842,-203.608 245.464,-171.106 262,-132 275.744,-99.4956 266.186,-78.5026 239,-56 179.897,-7.07869 143.758,-35.2672 64.0392,-19.9936"/>
<polygon fill="midnightblue" stroke="midnightblue" points="64.6024,-16.5357 54.0968,-17.9074 63.1649,-23.3865 64.6024,-16.5357"/>
</g>
<!-- Node3 -->
<g id="node4" class="node"><title>Node3</title>
<polygon fill="none" stroke="#bfbfbf" points="47,-56.5 47,-75.5 89,-75.5 89,-56.5 47,-56.5"/>
<text text-anchor="middle" x="68" y="-63.5" font-family="Helvetica,sans-Serif" font-size="10.00">vector</text>
</g>
<!-- Node0&#45;&gt;Node3 -->
<g id="edge25" class="edge"><title>Node0&#45;&gt;Node3</title>
<path fill="none" stroke="midnightblue" d="M118.374,-224.171C99.962,-201.742 75.3868,-167.184 65,-132 60.547,-116.916 61.8246,-99.0151 63.9168,-85.8216"/>
<polygon fill="midnightblue" stroke="midnightblue" points="67.4252,-86.1042 65.8415,-75.6284 60.5467,-84.8053 67.4252,-86.1042"/>
</g>
<!-- Node1&#45;&gt;Node2 -->
<g id="edge2" class="edge"><title>Node1&#45;&gt;Node2</title>
<path fill="none" stroke="midnightblue" d="M119.349,-168.349C102.731,-160.809 80.1407,-148.491 65,-132 38.4082,-103.036 30.4247,-55.6036 28.028,-29.5614"/>
<polygon fill="midnightblue" stroke="midnightblue" points="31.5147,-29.2501 27.2889,-19.5345 24.5336,-29.7648 31.5147,-29.2501"/>
</g>
<!-- Node1&#45;&gt;Node3 -->
<g id="edge3" class="edge"><title>Node1&#45;&gt;Node3</title>
<path fill="none" stroke="midnightblue" d="M120.434,-168.408C105.515,-161.037 86.2268,-148.913 76,-132 67.6348,-118.166 66.0941,-99.6474 66.3775,-85.9157"/>
<polygon fill="midnightblue" stroke="midnightblue" points="69.884,-85.891 66.9349,-75.7149 62.8944,-85.5091 69.884,-85.891"/>
</g>
<!-- Node4 -->
<g id="node5" class="node"><title>Node4</title>
<g id="a_node5"><a xlink:href="_etat_8h.html" target="_top" xlink:title="Etat.h">
<polygon fill="none" stroke="black" points="136.5,-56.5 136.5,-75.5 179.5,-75.5 179.5,-56.5 136.5,-56.5"/>
<text text-anchor="middle" x="158" y="-63.5" font-family="Helvetica,sans-Serif" font-size="10.00">Etat.h</text>
</a>
</g>
</g>
<!-- Node1&#45;&gt;Node4 -->
<g id="edge4" class="edge"><title>Node1&#45;&gt;Node4</title>
<path fill="none" stroke="midnightblue" d="M142.918,-168.408C144.887,-159.378 147.945,-144.742 150,-132 152.493,-116.547 154.618,-98.9158 156.05,-85.9187"/>
<polygon fill="midnightblue" stroke="midnightblue" points="159.543,-86.1757 157.122,-75.8611 152.582,-85.4338 159.543,-86.1757"/>
</g>
<!-- Node5 -->
<g id="node6" class="node"><title>Node5</title>
<g id="a_node6"><a xlink:href="_groupe_8h.html" target="_top" xlink:title="Groupe.h">
<polygon fill="none" stroke="black" points="85,-112.5 85,-131.5 141,-131.5 141,-112.5 85,-112.5"/>
<text text-anchor="middle" x="113" y="-119.5" font-family="Helvetica,sans-Serif" font-size="10.00">Groupe.h</text>
</a>
</g>
</g>
<!-- Node1&#45;&gt;Node5 -->
<g id="edge6" class="edge"><title>Node1&#45;&gt;Node5</title>
<path fill="none" stroke="midnightblue" d="M136.376,-168.083C132.544,-160.691 126.976,-149.953 122.235,-140.811"/>
<polygon fill="midnightblue" stroke="midnightblue" points="125.248,-139.018 117.538,-131.751 119.034,-142.24 125.248,-139.018"/>
</g>
<!-- Node6 -->
<g id="node7" class="node"><title>Node6</title>
<g id="a_node7"><a xlink:href="_history_8h.html" target="_top" xlink:title="History.h">
<polygon fill="none" stroke="black" points="197,-112.5 197,-131.5 253,-131.5 253,-112.5 197,-112.5"/>
<text text-anchor="middle" x="225" y="-119.5" font-family="Helvetica,sans-Serif" font-size="10.00">History.h</text>
</a>
</g>
</g>
<!-- Node1&#45;&gt;Node6 -->
<g id="edge9" class="edge"><title>Node1&#45;&gt;Node6</title>
<path fill="none" stroke="midnightblue" d="M154.496,-168.324C167.6,-159.9 187.712,-146.971 203.107,-137.074"/>
<polygon fill="midnightblue" stroke="midnightblue" points="205.018,-140.006 211.537,-131.655 201.233,-134.118 205.018,-140.006"/>
</g>
<!-- Node16 -->
<g id="node17" class="node"><title>Node16</title>
<polygon fill="none" stroke="#bfbfbf" points="791.5,-0.5 791.5,-19.5 850.5,-19.5 850.5,-0.5 791.5,-0.5"/>
<text text-anchor="middle" x="821" y="-7.5" font-family="Helvetica,sans-Serif" font-size="10.00">stdexcept</text>
</g>
<!-- Node1&#45;&gt;Node16 -->
<g id="edge23" class="edge"><title>Node1&#45;&gt;Node16</title>
<path fill="none" stroke="midnightblue" d="M167.657,-170.493C272.387,-144.926 656.008,-51.2775 781.197,-20.7166"/>
<polygon fill="midnightblue" stroke="midnightblue" points="782.246,-24.0635 791.13,-18.2917 780.586,-17.2632 782.246,-24.0635"/>
</g>
<!-- Node4&#45;&gt;Node2 -->
<g id="edge5" class="edge"><title>Node4&#45;&gt;Node2</title>
<path fill="none" stroke="midnightblue" d="M137.243,-56.4435C115.684,-47.5566 81.7367,-33.5632 57.2062,-23.4514"/>
<polygon fill="midnightblue" stroke="midnightblue" points="58.2394,-20.0917 47.6602,-19.5164 55.5717,-26.5634 58.2394,-20.0917"/>
</g>
<!-- Node5&#45;&gt;Node3 -->
<g id="edge7" class="edge"><title>Node5&#45;&gt;Node3</title>
<path fill="none" stroke="midnightblue" d="M105.569,-112.083C99.1473,-104.377 89.6944,-93.0333 81.8775,-83.6531"/>
<polygon fill="midnightblue" stroke="midnightblue" points="84.3832,-81.1927 75.2926,-75.7511 79.0057,-85.674 84.3832,-81.1927"/>
</g>
<!-- Node5&#45;&gt;Node4 -->
<g id="edge8" class="edge"><title>Node5&#45;&gt;Node4</title>
<path fill="none" stroke="midnightblue" d="M120.431,-112.083C126.853,-104.377 136.306,-93.0333 144.122,-83.6531"/>
<polygon fill="midnightblue" stroke="midnightblue" points="146.994,-85.674 150.707,-75.7511 141.617,-81.1927 146.994,-85.674"/>
</g>
<!-- Node6&#45;&gt;Node4 -->
<g id="edge21" class="edge"><title>Node6&#45;&gt;Node4</title>
<path fill="none" stroke="midnightblue" d="M214.235,-112.324C204.234,-104.263 189.113,-92.0765 177.07,-82.3695"/>
<polygon fill="midnightblue" stroke="midnightblue" points="178.943,-79.3841 168.961,-75.8339 174.55,-84.8343 178.943,-79.3841"/>
</g>
<!-- Node7 -->
<g id="node8" class="node"><title>Node7</title>
<g id="a_node8"><a xlink:href="_globals_8h.html" target="_top" xlink:title="../Graphics/Globals.h">
<polygon fill="none" stroke="black" points="287.5,-56.5 287.5,-75.5 396.5,-75.5 396.5,-56.5 287.5,-56.5"/>
<text text-anchor="middle" x="342" y="-63.5" font-family="Helvetica,sans-Serif" font-size="10.00">../Graphics/Globals.h</text>
</a>
</g>
</g>
<!-- Node6&#45;&gt;Node7 -->
<g id="edge10" class="edge"><title>Node6&#45;&gt;Node7</title>
<path fill="none" stroke="midnightblue" d="M243.539,-112.444C262.623,-103.636 292.575,-89.8116 314.436,-79.722"/>
<polygon fill="midnightblue" stroke="midnightblue" points="315.935,-82.8849 323.548,-75.5164 313.001,-76.5292 315.935,-82.8849"/>
</g>
<!-- Node17 -->
<g id="node18" class="node"><title>Node17</title>
<polygon fill="none" stroke="#bfbfbf" points="201.5,-56.5 201.5,-75.5 230.5,-75.5 230.5,-56.5 201.5,-56.5"/>
<text text-anchor="middle" x="216" y="-63.5" font-family="Helvetica,sans-Serif" font-size="10.00">list</text>
</g>
<!-- Node6&#45;&gt;Node17 -->
<g id="edge22" class="edge"><title>Node6&#45;&gt;Node17</title>
<path fill="none" stroke="midnightblue" d="M223.514,-112.083C222.321,-104.927 220.606,-94.6353 219.115,-85.6911"/>
<polygon fill="midnightblue" stroke="midnightblue" points="222.555,-85.0396 217.459,-75.7511 215.65,-86.1904 222.555,-85.0396"/>
</g>
<!-- Node7&#45;&gt;Node2 -->
<g id="edge15" class="edge"><title>Node7&#45;&gt;Node2</title>
<path fill="none" stroke="midnightblue" d="M287.482,-57.6072C233.21,-49.9328 147.348,-36.9442 63.9614,-20.0543"/>
<polygon fill="midnightblue" stroke="midnightblue" points="64.5691,-16.6062 54.0703,-18.0298 63.1654,-23.464 64.5691,-16.6062"/>
</g>
<!-- Node8 -->
<g id="node9" class="node"><title>Node8</title>
<polygon fill="none" stroke="#bfbfbf" points="436,-0.5 436,-19.5 540,-19.5 540,-0.5 436,-0.5"/>
<text text-anchor="middle" x="488" y="-7.5" font-family="Helvetica,sans-Serif" font-size="10.00">SFML/Graphics.hpp</text>
</g>
<!-- Node7&#45;&gt;Node8 -->
<g id="edge11" class="edge"><title>Node7&#45;&gt;Node8</title>
<path fill="none" stroke="midnightblue" d="M365.134,-56.4435C389.482,-47.4381 428.007,-33.1891 455.423,-23.049"/>
<polygon fill="midnightblue" stroke="midnightblue" points="456.809,-26.2681 464.974,-19.5164 454.381,-19.7028 456.809,-26.2681"/>
</g>
<!-- Node9 -->
<g id="node10" class="node"><title>Node9</title>
<polygon fill="none" stroke="#bfbfbf" points="558,-0.5 558,-19.5 656,-19.5 656,-0.5 558,-0.5"/>
<text text-anchor="middle" x="607" y="-7.5" font-family="Helvetica,sans-Serif" font-size="10.00">SFML/System.hpp</text>
</g>
<!-- Node7&#45;&gt;Node9 -->
<g id="edge12" class="edge"><title>Node7&#45;&gt;Node9</title>
<path fill="none" stroke="midnightblue" d="M383.99,-56.4435C430.412,-46.9839 505.228,-31.7384 555.24,-21.5472"/>
<polygon fill="midnightblue" stroke="midnightblue" points="556.107,-24.9427 565.206,-19.5164 554.709,-18.0837 556.107,-24.9427"/>
</g>
<!-- Node10 -->
<g id="node11" class="node"><title>Node10</title>
<polygon fill="none" stroke="#bfbfbf" points="674.5,-0.5 674.5,-19.5 773.5,-19.5 773.5,-0.5 674.5,-0.5"/>
<text text-anchor="middle" x="724" y="-7.5" font-family="Helvetica,sans-Serif" font-size="10.00">SFML/Window.hpp</text>
</g>
<!-- Node7&#45;&gt;Node10 -->
<g id="edge13" class="edge"><title>Node7&#45;&gt;Node10</title>
<path fill="none" stroke="midnightblue" d="M396.609,-57.6114C458.79,-49.1491 563.704,-34.7225 664.39,-20.0728"/>
<polygon fill="midnightblue" stroke="midnightblue" points="665.042,-23.5148 674.432,-18.6087 664.032,-16.588 665.042,-23.5148"/>
</g>
<!-- Node11 -->
<g id="node12" class="node"><title>Node11</title>
<polygon fill="none" stroke="#bfbfbf" points="72.5,-0.5 72.5,-19.5 161.5,-19.5 161.5,-0.5 72.5,-0.5"/>
<text text-anchor="middle" x="117" y="-7.5" font-family="Helvetica,sans-Serif" font-size="10.00">SFML/Audio.hpp</text>
</g>
<!-- Node7&#45;&gt;Node11 -->
<g id="edge14" class="edge"><title>Node7&#45;&gt;Node11</title>
<path fill="none" stroke="midnightblue" d="M306.348,-56.4435C267.344,-47.0826 204.734,-32.0561 162.283,-21.868"/>
<polygon fill="midnightblue" stroke="midnightblue" points="163.026,-18.4469 152.485,-19.5164 161.392,-25.2536 163.026,-18.4469"/>
</g>
<!-- Node12 -->
<g id="node13" class="node"><title>Node12</title>
<polygon fill="none" stroke="#bfbfbf" points="179.5,-0.5 179.5,-19.5 224.5,-19.5 224.5,-0.5 179.5,-0.5"/>
<text text-anchor="middle" x="202" y="-7.5" font-family="Helvetica,sans-Serif" font-size="10.00">cstdlib</text>
</g>
<!-- Node7&#45;&gt;Node12 -->
<g id="edge16" class="edge"><title>Node7&#45;&gt;Node12</title>
<path fill="none" stroke="midnightblue" d="M319.817,-56.4435C296.572,-47.4776 259.851,-33.314 233.585,-23.1827"/>
<polygon fill="midnightblue" stroke="midnightblue" points="234.669,-19.8497 224.08,-19.5164 232.15,-26.3807 234.669,-19.8497"/>
</g>
<!-- Node13 -->
<g id="node14" class="node"><title>Node13</title>
<polygon fill="none" stroke="#bfbfbf" points="242.5,-0.5 242.5,-19.5 283.5,-19.5 283.5,-0.5 242.5,-0.5"/>
<text text-anchor="middle" x="263" y="-7.5" font-family="Helvetica,sans-Serif" font-size="10.00">string</text>
</g>
<!-- Node7&#45;&gt;Node13 -->
<g id="edge17" class="edge"><title>Node7&#45;&gt;Node13</title>
<path fill="none" stroke="midnightblue" d="M329.307,-56.324C317.099,-47.979 298.422,-35.2122 283.997,-25.3524"/>
<polygon fill="midnightblue" stroke="midnightblue" points="285.892,-22.4082 275.661,-19.6545 281.942,-28.1871 285.892,-22.4082"/>
</g>
<!-- Node14 -->
<g id="node15" class="node"><title>Node14</title>
<polygon fill="none" stroke="#bfbfbf" points="301.5,-0.5 301.5,-19.5 350.5,-19.5 350.5,-0.5 301.5,-0.5"/>
<text text-anchor="middle" x="326" y="-7.5" font-family="Helvetica,sans-Serif" font-size="10.00">fstream</text>
</g>
<!-- Node7&#45;&gt;Node14 -->
<g id="edge18" class="edge"><title>Node7&#45;&gt;Node14</title>
<path fill="none" stroke="midnightblue" d="M339.358,-56.083C337.214,-48.8486 334.121,-38.4087 331.451,-29.3968"/>
<polygon fill="midnightblue" stroke="midnightblue" points="334.79,-28.3447 328.593,-19.7511 328.078,-30.3334 334.79,-28.3447"/>
</g>
<!-- Node15 -->
<g id="node16" class="node"><title>Node15</title>
<polygon fill="none" stroke="#bfbfbf" points="368.5,-0.5 368.5,-19.5 417.5,-19.5 417.5,-0.5 368.5,-0.5"/>
<text text-anchor="middle" x="393" y="-7.5" font-family="Helvetica,sans-Serif" font-size="10.00">cassert</text>
</g>
<!-- Node7&#45;&gt;Node15 -->
<g id="edge19" class="edge"><title>Node7&#45;&gt;Node15</title>
<path fill="none" stroke="midnightblue" d="M350.422,-56.083C357.848,-48.2195 368.852,-36.5688 377.812,-27.0813"/>
<polygon fill="midnightblue" stroke="midnightblue" points="380.413,-29.4244 384.735,-19.7511 375.324,-24.618 380.413,-29.4244"/>
</g>
<!-- Node7&#45;&gt;Node16 -->
<g id="edge20" class="edge"><title>Node7&#45;&gt;Node16</title>
<path fill="none" stroke="midnightblue" d="M396.593,-57.709C401.462,-57.1102 406.319,-56.5317 411,-56 572.821,-37.6215 617.407,-46.8262 781.27,-20.1013"/>
<polygon fill="midnightblue" stroke="midnightblue" points="781.911,-23.5431 791.207,-18.4609 780.77,-16.6366 781.911,-23.5431"/>
</g>
</g>
</svg>
