<?xml version="1.0" encoding="UTF-8" standalone="no"?>
<!DOCTYPE svg PUBLIC "-//W3C//DTD SVG 1.1//EN"
 "http://www.w3.org/Graphics/SVG/1.1/DTD/svg11.dtd">
<!-- Generated by graphviz version 2.38.0 (20140413.2041)
 -->
<!-- Title: D:/Users/Victor/OneDrive/Documents/Visual Studio 2017/Projects/Jeu_de_Go/Jeu_de_Go/Sources/Engine/Arbre.h Pages: 1 -->
<svg width="1276pt" height="661pt"
 viewBox="0.00 0.00 1276.00 661.00" xmlns="http://www.w3.org/2000/svg" xmlns:xlink="http://www.w3.org/1999/xlink">
<g id="graph0" class="graph" transform="scale(1 1) rotate(0) translate(4 657)">
<title>D:/Users/Victor/OneDrive/Documents/Visual Studio 2017/Projects/Jeu_de_Go/Jeu_de_Go/Sources/Engine/Arbre.h</title>
<!-- Node18 -->
<g id="node1" class="node"><title>Node18</title>
<polygon fill="#bfbfbf" stroke="black" points="887,-600.5 887,-652.5 1062,-652.5 1062,-600.5 887,-600.5"/>
<text text-anchor="start" x="895" y="-640.5" font-family="Helvetica,sans-Serif" font-size="10.00">D:/Users/Victor/OneDrive</text>
<text text-anchor="start" x="895" y="-629.5" font-family="Helvetica,sans-Serif" font-size="10.00">/Documents/Visual Studio</text>
<text text-anchor="start" x="895" y="-618.5" font-family="Helvetica,sans-Serif" font-size="10.00"> 2017/Projects/Jeu_de_Go</text>
<text text-anchor="middle" x="974.5" y="-607.5" font-family="Helvetica,sans-Serif" font-size="10.00">/Jeu_de_Go/Sources/Engine/Arbre.h</text>
</g>
<!-- Node19 -->
<g id="node2" class="node"><title>Node19</title>
<g id="a_node2"><a xlink:href="_arbre_8cpp.html" target="_top" xlink:title="D:/Users/Victor/OneDrive\l/Documents/Visual Studio\l 2017/Projects/Jeu_de_Go\l/Jeu_de_Go/Sources/Engine\l/Arbre.cpp">
<polygon fill="none" stroke="black" points="806.5,-500.5 806.5,-563.5 946.5,-563.5 946.5,-500.5 806.5,-500.5"/>
<text text-anchor="start" x="814.5" y="-551.5" font-family="Helvetica,sans-Serif" font-size="10.00">D:/Users/Victor/OneDrive</text>
<text text-anchor="start" x="814.5" y="-540.5" font-family="Helvetica,sans-Serif" font-size="10.00">/Documents/Visual Studio</text>
<text text-anchor="start" x="814.5" y="-529.5" font-family="Helvetica,sans-Serif" font-size="10.00"> 2017/Projects/Jeu_de_Go</text>
<text text-anchor="start" x="814.5" y="-518.5" font-family="Helvetica,sans-Serif" font-size="10.00">/Jeu_de_Go/Sources/Engine</text>
<text text-anchor="middle" x="876.5" y="-507.5" font-family="Helvetica,sans-Serif" font-size="10.00">/Arbre.cpp</text>
</a>
</g>
</g>
<!-- Node18&#45;&gt;Node19 -->
<g id="edge1" class="edge"><title>Node18&#45;&gt;Node19</title>
<path fill="none" stroke="midnightblue" d="M940.704,-593.601C930.432,-583.905 919.17,-573.275 908.986,-563.663"/>
<polygon fill="midnightblue" stroke="midnightblue" points="938.305,-596.149 947.98,-600.468 943.11,-591.059 938.305,-596.149"/>
</g>
<!-- Node20 -->
<g id="node3" class="node"><title>Node20</title>
<g id="a_node3"><a xlink:href="_board_8h.html" target="_top" xlink:title="D:/Users/Victor/OneDrive\l/Documents/Visual Studio\l 2017/Projects/Jeu_de_Go\l/Jeu_de_Go/Sources/Graphics\l/Game/Board.h">
<polygon fill="none" stroke="black" points="1003,-500.5 1003,-563.5 1152,-563.5 1152,-500.5 1003,-500.5"/>
<text text-anchor="start" x="1011" y="-551.5" font-family="Helvetica,sans-Serif" font-size="10.00">D:/Users/Victor/OneDrive</text>
<text text-anchor="start" x="1011" y="-540.5" font-family="Helvetica,sans-Serif" font-size="10.00">/Documents/Visual Studio</text>
<text text-anchor="start" x="1011" y="-529.5" font-family="Helvetica,sans-Serif" font-size="10.00"> 2017/Projects/Jeu_de_Go</text>
<text text-anchor="start" x="1011" y="-518.5" font-family="Helvetica,sans-Serif" font-size="10.00">/Jeu_de_Go/Sources/Graphics</text>
<text text-anchor="middle" x="1077.5" y="-507.5" font-family="Helvetica,sans-Serif" font-size="10.00">/Game/Board.h</text>
</a>
</g>
</g>
<!-- Node18&#45;&gt;Node20 -->
<g id="edge2" class="edge"><title>Node18&#45;&gt;Node20</title>
<path fill="none" stroke="midnightblue" d="M1010.02,-593.601C1020.82,-583.905 1032.65,-573.275 1043.36,-563.663"/>
<polygon fill="midnightblue" stroke="midnightblue" points="1007.47,-591.182 1002.37,-600.468 1012.15,-596.391 1007.47,-591.182"/>
</g>
<!-- Node21 -->
<g id="node4" class="node"><title>Node21</title>
<g id="a_node4"><a xlink:href="_game__window_8h.html" target="_top" xlink:title="D:/Users/Victor/OneDrive\l/Documents/Visual Studio\l 2017/Projects/Jeu_de_Go\l/Jeu_de_Go/Sources/Graphics\l/Game/Game_window.h">
<polygon fill="none" stroke="black" points="900,-400.5 900,-463.5 1049,-463.5 1049,-400.5 900,-400.5"/>
<text text-anchor="start" x="908" y="-451.5" font-family="Helvetica,sans-Serif" font-size="10.00">D:/Users/Victor/OneDrive</text>
<text text-anchor="start" x="908" y="-440.5" font-family="Helvetica,sans-Serif" font-size="10.00">/Documents/Visual Studio</text>
<text text-anchor="start" x="908" y="-429.5" font-family="Helvetica,sans-Serif" font-size="10.00"> 2017/Projects/Jeu_de_Go</text>
<text text-anchor="start" x="908" y="-418.5" font-family="Helvetica,sans-Serif" font-size="10.00">/Jeu_de_Go/Sources/Graphics</text>
<text text-anchor="middle" x="974.5" y="-407.5" font-family="Helvetica,sans-Serif" font-size="10.00">/Game/Game_window.h</text>
</a>
</g>
</g>
<!-- Node18&#45;&gt;Node21 -->
<g id="edge27" class="edge"><title>Node18&#45;&gt;Node21</title>
<path fill="none" stroke="midnightblue" d="M974.5,-590.204C974.5,-553.927 974.5,-498.02 974.5,-463.572"/>
<polygon fill="midnightblue" stroke="midnightblue" points="971,-590.334 974.5,-600.334 978,-590.334 971,-590.334"/>
</g>
<!-- Node20&#45;&gt;Node21 -->
<g id="edge3" class="edge"><title>Node20&#45;&gt;Node21</title>
<path fill="none" stroke="midnightblue" d="M1037.83,-493.259C1027.53,-483.456 1016.56,-473.017 1006.69,-463.63"/>
<polygon fill="midnightblue" stroke="midnightblue" points="1035.54,-495.904 1045.19,-500.261 1040.36,-490.832 1035.54,-495.904"/>
</g>
<!-- Node37 -->
<g id="node20" class="node"><title>Node37</title>
<g id="a_node20"><a xlink:href="_board_8cpp.html" target="_top" xlink:title="D:/Users/Victor/OneDrive\l/Documents/Visual Studio\l 2017/Projects/Jeu_de_Go\l/Jeu_de_Go/Sources/Graphics\l/Game/Board.cpp">
<polygon fill="none" stroke="black" points="1067,-400.5 1067,-463.5 1216,-463.5 1216,-400.5 1067,-400.5"/>
<text text-anchor="start" x="1075" y="-451.5" font-family="Helvetica,sans-Serif" font-size="10.00">D:/Users/Victor/OneDrive</text>
<text text-anchor="start" x="1075" y="-440.5" font-family="Helvetica,sans-Serif" font-size="10.00">/Documents/Visual Studio</text>
<text text-anchor="start" x="1075" y="-429.5" font-family="Helvetica,sans-Serif" font-size="10.00"> 2017/Projects/Jeu_de_Go</text>
<text text-anchor="start" x="1075" y="-418.5" font-family="Helvetica,sans-Serif" font-size="10.00">/Jeu_de_Go/Sources/Graphics</text>
<text text-anchor="middle" x="1141.5" y="-407.5" font-family="Helvetica,sans-Serif" font-size="10.00">/Game/Board.cpp</text>
</a>
</g>
</g>
<!-- Node20&#45;&gt;Node37 -->
<g id="edge26" class="edge"><title>Node20&#45;&gt;Node37</title>
<path fill="none" stroke="midnightblue" d="M1103.08,-491.827C1109.21,-482.445 1115.66,-472.561 1121.5,-463.63"/>
<polygon fill="midnightblue" stroke="midnightblue" points="1100.11,-489.975 1097.57,-500.261 1105.97,-493.802 1100.11,-489.975"/>
</g>
<!-- Node22 -->
<g id="node5" class="node"><title>Node22</title>
<g id="a_node5"><a xlink:href="_choice_8h.html" target="_top" xlink:title="D:/Users/Victor/OneDrive\l/Documents/Visual Studio\l 2017/Projects/Jeu_de_Go\l/Jeu_de_Go/Sources/Graphics\l/Choice.h">
<polygon fill="none" stroke="black" points="382,-300.5 382,-363.5 531,-363.5 531,-300.5 382,-300.5"/>
<text text-anchor="start" x="390" y="-351.5" font-family="Helvetica,sans-Serif" font-size="10.00">D:/Users/Victor/OneDrive</text>
<text text-anchor="start" x="390" y="-340.5" font-family="Helvetica,sans-Serif" font-size="10.00">/Documents/Visual Studio</text>
<text text-anchor="start" x="390" y="-329.5" font-family="Helvetica,sans-Serif" font-size="10.00"> 2017/Projects/Jeu_de_Go</text>
<text text-anchor="start" x="390" y="-318.5" font-family="Helvetica,sans-Serif" font-size="10.00">/Jeu_de_Go/Sources/Graphics</text>
<text text-anchor="middle" x="456.5" y="-307.5" font-family="Helvetica,sans-Serif" font-size="10.00">/Choice.h</text>
</a>
</g>
</g>
<!-- Node21&#45;&gt;Node22 -->
<g id="edge4" class="edge"><title>Node21&#45;&gt;Node22</title>
<path fill="none" stroke="midnightblue" d="M889.698,-414.956C790.061,-396.106 626.311,-365.126 531.246,-347.141"/>
<polygon fill="midnightblue" stroke="midnightblue" points="889.255,-418.435 899.732,-416.855 890.557,-411.557 889.255,-418.435"/>
</g>
<!-- Node27 -->
<g id="node10" class="node"><title>Node27</title>
<g id="a_node10"><a xlink:href="_main_8cpp.html" target="_top" xlink:title="D:/Users/Victor/OneDrive\l/Documents/Visual Studio\l 2017/Projects/Jeu_de_Go\l/Jeu_de_Go/Sources/Graphics\l/Main.cpp">
<polygon fill="none" stroke="black" points="643,-0.5 643,-63.5 792,-63.5 792,-0.5 643,-0.5"/>
<text text-anchor="start" x="651" y="-51.5" font-family="Helvetica,sans-Serif" font-size="10.00">D:/Users/Victor/OneDrive</text>
<text text-anchor="start" x="651" y="-40.5" font-family="Helvetica,sans-Serif" font-size="10.00">/Documents/Visual Studio</text>
<text text-anchor="start" x="651" y="-29.5" font-family="Helvetica,sans-Serif" font-size="10.00"> 2017/Projects/Jeu_de_Go</text>
<text text-anchor="start" x="651" y="-18.5" font-family="Helvetica,sans-Serif" font-size="10.00">/Jeu_de_Go/Sources/Graphics</text>
<text text-anchor="middle" x="717.5" y="-7.5" font-family="Helvetica,sans-Serif" font-size="10.00">/Main.cpp</text>
</a>
</g>
</g>
<!-- Node21&#45;&gt;Node27 -->
<g id="edge25" class="edge"><title>Node21&#45;&gt;Node27</title>
<path fill="none" stroke="midnightblue" d="M953.104,-391.192C949.073,-382.428 945.262,-373.054 942.5,-364 907.889,-250.556 978.618,-191.787 903.5,-100 876.328,-66.798 831.345,-50.0458 792.423,-41.5951"/>
<polygon fill="midnightblue" stroke="midnightblue" points="950.047,-392.912 957.524,-400.418 956.36,-389.888 950.047,-392.912"/>
</g>
<!-- Node35 -->
<g id="node18" class="node"><title>Node35</title>
<g id="a_node18"><a xlink:href="_game__window_8cpp.html" target="_top" xlink:title="D:/Users/Victor/OneDrive\l/Documents/Visual Studio\l 2017/Projects/Jeu_de_Go\l/Jeu_de_Go/Sources/Graphics\l/Game/Game_window.cpp">
<polygon fill="none" stroke="black" points="952,-300.5 952,-363.5 1101,-363.5 1101,-300.5 952,-300.5"/>
<text text-anchor="start" x="960" y="-351.5" font-family="Helvetica,sans-Serif" font-size="10.00">D:/Users/Victor/OneDrive</text>
<text text-anchor="start" x="960" y="-340.5" font-family="Helvetica,sans-Serif" font-size="10.00">/Documents/Visual Studio</text>
<text text-anchor="start" x="960" y="-329.5" font-family="Helvetica,sans-Serif" font-size="10.00"> 2017/Projects/Jeu_de_Go</text>
<text text-anchor="start" x="960" y="-318.5" font-family="Helvetica,sans-Serif" font-size="10.00">/Jeu_de_Go/Sources/Graphics</text>
<text text-anchor="middle" x="1026.5" y="-307.5" font-family="Helvetica,sans-Serif" font-size="10.00">/Game/Game_window.cpp</text>
</a>
</g>
</g>
<!-- Node21&#45;&gt;Node35 -->
<g id="edge22" class="edge"><title>Node21&#45;&gt;Node35</title>
<path fill="none" stroke="midnightblue" d="M995.591,-391.252C1000.48,-382.042 1005.6,-372.379 1010.25,-363.63"/>
<polygon fill="midnightblue" stroke="midnightblue" points="992.406,-389.787 990.81,-400.261 998.589,-393.068 992.406,-389.787"/>
</g>
<!-- Node36 -->
<g id="node19" class="node"><title>Node36</title>
<g id="a_node19"><a xlink:href="_screens_8h.html" target="_top" xlink:title="D:/Users/Victor/OneDrive\l/Documents/Visual Studio\l 2017/Projects/Jeu_de_Go\l/Jeu_de_Go/Sources/Graphics\l/Screens.h">
<polygon fill="none" stroke="black" points="1119,-300.5 1119,-363.5 1268,-363.5 1268,-300.5 1119,-300.5"/>
<text text-anchor="start" x="1127" y="-351.5" font-family="Helvetica,sans-Serif" font-size="10.00">D:/Users/Victor/OneDrive</text>
<text text-anchor="start" x="1127" y="-340.5" font-family="Helvetica,sans-Serif" font-size="10.00">/Documents/Visual Studio</text>
<text text-anchor="start" x="1127" y="-329.5" font-family="Helvetica,sans-Serif" font-size="10.00"> 2017/Projects/Jeu_de_Go</text>
<text text-anchor="start" x="1127" y="-318.5" font-family="Helvetica,sans-Serif" font-size="10.00">/Jeu_de_Go/Sources/Graphics</text>
<text text-anchor="middle" x="1193.5" y="-307.5" font-family="Helvetica,sans-Serif" font-size="10.00">/Screens.h</text>
</a>
</g>
</g>
<!-- Node21&#45;&gt;Node36 -->
<g id="edge23" class="edge"><title>Node21&#45;&gt;Node36</title>
<path fill="none" stroke="midnightblue" d="M1052.25,-396.206C1076.08,-385.543 1102.11,-373.898 1125.25,-363.541"/>
<polygon fill="midnightblue" stroke="midnightblue" points="1050.59,-393.116 1042.89,-400.395 1053.45,-399.505 1050.59,-393.116"/>
</g>
<!-- Node23 -->
<g id="node6" class="node"><title>Node23</title>
<g id="a_node6"><a xlink:href="_choice_8cpp.html" target="_top" xlink:title="D:/Users/Victor/OneDrive\l/Documents/Visual Studio\l 2017/Projects/Jeu_de_Go\l/Jeu_de_Go/Sources/Graphics\l/Choice.cpp">
<polygon fill="none" stroke="black" points="30,-200.5 30,-263.5 179,-263.5 179,-200.5 30,-200.5"/>
<text text-anchor="start" x="38" y="-251.5" font-family="Helvetica,sans-Serif" font-size="10.00">D:/Users/Victor/OneDrive</text>
<text text-anchor="start" x="38" y="-240.5" font-family="Helvetica,sans-Serif" font-size="10.00">/Documents/Visual Studio</text>
<text text-anchor="start" x="38" y="-229.5" font-family="Helvetica,sans-Serif" font-size="10.00"> 2017/Projects/Jeu_de_Go</text>
<text text-anchor="start" x="38" y="-218.5" font-family="Helvetica,sans-Serif" font-size="10.00">/Jeu_de_Go/Sources/Graphics</text>
<text text-anchor="middle" x="104.5" y="-207.5" font-family="Helvetica,sans-Serif" font-size="10.00">/Choice.cpp</text>
</a>
</g>
</g>
<!-- Node22&#45;&gt;Node23 -->
<g id="edge5" class="edge"><title>Node22&#45;&gt;Node23</title>
<path fill="none" stroke="midnightblue" d="M372.185,-312.588C318.827,-300.3 248.625,-282.96 187.5,-264 184.709,-263.134 181.874,-262.226 179.019,-261.287"/>
<polygon fill="midnightblue" stroke="midnightblue" points="371.418,-316.003 381.947,-314.823 372.98,-309.179 371.418,-316.003"/>
</g>
<!-- Node24 -->
<g id="node7" class="node"><title>Node24</title>
<g id="a_node7"><a xlink:href="_choice__miniature_8h.html" target="_top" xlink:title="D:/Users/Victor/OneDrive\l/Documents/Visual Studio\l 2017/Projects/Jeu_de_Go\l/Jeu_de_Go/Sources/Graphics\l/Choice_miniature.h">
<polygon fill="none" stroke="black" points="197,-200.5 197,-263.5 346,-263.5 346,-200.5 197,-200.5"/>
<text text-anchor="start" x="205" y="-251.5" font-family="Helvetica,sans-Serif" font-size="10.00">D:/Users/Victor/OneDrive</text>
<text text-anchor="start" x="205" y="-240.5" font-family="Helvetica,sans-Serif" font-size="10.00">/Documents/Visual Studio</text>
<text text-anchor="start" x="205" y="-229.5" font-family="Helvetica,sans-Serif" font-size="10.00"> 2017/Projects/Jeu_de_Go</text>
<text text-anchor="start" x="205" y="-218.5" font-family="Helvetica,sans-Serif" font-size="10.00">/Jeu_de_Go/Sources/Graphics</text>
<text text-anchor="middle" x="271.5" y="-207.5" font-family="Helvetica,sans-Serif" font-size="10.00">/Choice_miniature.h</text>
</a>
</g>
</g>
<!-- Node22&#45;&gt;Node24 -->
<g id="edge6" class="edge"><title>Node22&#45;&gt;Node24</title>
<path fill="none" stroke="midnightblue" d="M389.747,-295.639C369.911,-285.131 348.359,-273.715 329.154,-263.541"/>
<polygon fill="midnightblue" stroke="midnightblue" points="388.251,-298.807 398.726,-300.395 391.527,-292.621 388.251,-298.807"/>
</g>
<!-- Node29 -->
<g id="node12" class="node"><title>Node29</title>
<g id="a_node12"><a xlink:href="_choice___simple_8h.html" target="_top" xlink:title="D:/Users/Victor/OneDrive\l/Documents/Visual Studio\l 2017/Projects/Jeu_de_Go\l/Jeu_de_Go/Sources/Graphics\l/Choice_Simple.h">
<polygon fill="none" stroke="black" points="605,-200.5 605,-263.5 754,-263.5 754,-200.5 605,-200.5"/>
<text text-anchor="start" x="613" y="-251.5" font-family="Helvetica,sans-Serif" font-size="10.00">D:/Users/Victor/OneDrive</text>
<text text-anchor="start" x="613" y="-240.5" font-family="Helvetica,sans-Serif" font-size="10.00">/Documents/Visual Studio</text>
<text text-anchor="start" x="613" y="-229.5" font-family="Helvetica,sans-Serif" font-size="10.00"> 2017/Projects/Jeu_de_Go</text>
<text text-anchor="start" x="613" y="-218.5" font-family="Helvetica,sans-Serif" font-size="10.00">/Jeu_de_Go/Sources/Graphics</text>
<text text-anchor="middle" x="679.5" y="-207.5" font-family="Helvetica,sans-Serif" font-size="10.00">/Choice_Simple.h</text>
</a>
</g>
</g>
<!-- Node22&#45;&gt;Node29 -->
<g id="edge12" class="edge"><title>Node22&#45;&gt;Node29</title>
<path fill="none" stroke="midnightblue" d="M535.352,-296.348C559.703,-285.646 586.332,-273.944 610.004,-263.541"/>
<polygon fill="midnightblue" stroke="midnightblue" points="533.888,-293.168 526.141,-300.395 536.704,-299.576 533.888,-293.168"/>
</g>
<!-- Node33 -->
<g id="node16" class="node"><title>Node33</title>
<g id="a_node16"><a xlink:href="_menu_8h.html" target="_top" xlink:title="D:/Users/Victor/OneDrive\l/Documents/Visual Studio\l 2017/Projects/Jeu_de_Go\l/Jeu_de_Go/Sources/Graphics/Menu.h">
<polygon fill="none" stroke="black" points="364,-206 364,-258 549,-258 549,-206 364,-206"/>
<text text-anchor="start" x="372" y="-246" font-family="Helvetica,sans-Serif" font-size="10.00">D:/Users/Victor/OneDrive</text>
<text text-anchor="start" x="372" y="-235" font-family="Helvetica,sans-Serif" font-size="10.00">/Documents/Visual Studio</text>
<text text-anchor="start" x="372" y="-224" font-family="Helvetica,sans-Serif" font-size="10.00"> 2017/Projects/Jeu_de_Go</text>
<text text-anchor="middle" x="456.5" y="-213" font-family="Helvetica,sans-Serif" font-size="10.00">/Jeu_de_Go/Sources/Graphics/Menu.h</text>
</a>
</g>
</g>
<!-- Node22&#45;&gt;Node33 -->
<g id="edge18" class="edge"><title>Node22&#45;&gt;Node33</title>
<path fill="none" stroke="midnightblue" d="M456.5,-290.079C456.5,-279.21 456.5,-267.794 456.5,-258.054"/>
<polygon fill="midnightblue" stroke="midnightblue" points="453,-290.261 456.5,-300.261 460,-290.261 453,-290.261"/>
</g>
<!-- Node25 -->
<g id="node8" class="node"><title>Node25</title>
<g id="a_node8"><a xlink:href="_choice__miniature_8cpp.html" target="_top" xlink:title="D:/Users/Victor/OneDrive\l/Documents/Visual Studio\l 2017/Projects/Jeu_de_Go\l/Jeu_de_Go/Sources/Graphics\l/Choice_miniature.cpp">
<polygon fill="none" stroke="black" points="0,-100.5 0,-163.5 149,-163.5 149,-100.5 0,-100.5"/>
<text text-anchor="start" x="8" y="-151.5" font-family="Helvetica,sans-Serif" font-size="10.00">D:/Users/Victor/OneDrive</text>
<text text-anchor="start" x="8" y="-140.5" font-family="Helvetica,sans-Serif" font-size="10.00">/Documents/Visual Studio</text>
<text text-anchor="start" x="8" y="-129.5" font-family="Helvetica,sans-Serif" font-size="10.00"> 2017/Projects/Jeu_de_Go</text>
<text text-anchor="start" x="8" y="-118.5" font-family="Helvetica,sans-Serif" font-size="10.00">/Jeu_de_Go/Sources/Graphics</text>
<text text-anchor="middle" x="74.5" y="-107.5" font-family="Helvetica,sans-Serif" font-size="10.00">/Choice_miniature.cpp</text>
</a>
</g>
</g>
<!-- Node24&#45;&gt;Node25 -->
<g id="edge7" class="edge"><title>Node24&#45;&gt;Node25</title>
<path fill="none" stroke="midnightblue" d="M200.988,-195.923C179.709,-185.337 156.529,-173.806 135.894,-163.541"/>
<polygon fill="midnightblue" stroke="midnightblue" points="199.466,-199.075 209.978,-200.395 202.584,-192.808 199.466,-199.075"/>
</g>
<!-- Node26 -->
<g id="node9" class="node"><title>Node26</title>
<g id="a_node9"><a xlink:href="_menu___miniature_8h.html" target="_top" xlink:title="D:/Users/Victor/OneDrive\l/Documents/Visual Studio\l 2017/Projects/Jeu_de_Go\l/Jeu_de_Go/Sources/Graphics\l/Menu_Miniature.h">
<polygon fill="none" stroke="black" points="206,-100.5 206,-163.5 355,-163.5 355,-100.5 206,-100.5"/>
<text text-anchor="start" x="214" y="-151.5" font-family="Helvetica,sans-Serif" font-size="10.00">D:/Users/Victor/OneDrive</text>
<text text-anchor="start" x="214" y="-140.5" font-family="Helvetica,sans-Serif" font-size="10.00">/Documents/Visual Studio</text>
<text text-anchor="start" x="214" y="-129.5" font-family="Helvetica,sans-Serif" font-size="10.00"> 2017/Projects/Jeu_de_Go</text>
<text text-anchor="start" x="214" y="-118.5" font-family="Helvetica,sans-Serif" font-size="10.00">/Jeu_de_Go/Sources/Graphics</text>
<text text-anchor="middle" x="280.5" y="-107.5" font-family="Helvetica,sans-Serif" font-size="10.00">/Menu_Miniature.h</text>
</a>
</g>
</g>
<!-- Node24&#45;&gt;Node26 -->
<g id="edge8" class="edge"><title>Node24&#45;&gt;Node26</title>
<path fill="none" stroke="midnightblue" d="M275.256,-190.099C276.07,-181.238 276.917,-172.015 277.687,-163.63"/>
<polygon fill="midnightblue" stroke="midnightblue" points="271.752,-189.983 274.323,-200.261 278.723,-190.623 271.752,-189.983"/>
</g>
<!-- Node24&#45;&gt;Node27 -->
<g id="edge11" class="edge"><title>Node24&#45;&gt;Node27</title>
<path fill="none" stroke="midnightblue" d="M217.693,-193.486C209.083,-184.86 201.404,-174.956 196.5,-164 184.88,-138.037 177.23,-120.923 196.5,-100 229.506,-64.1634 585.932,-74.5308 633.5,-64 636.535,-63.328 639.609,-62.5718 642.697,-61.7486"/>
<polygon fill="midnightblue" stroke="midnightblue" points="215.412,-196.146 225.104,-200.427 220.197,-191.037 215.412,-196.146"/>
</g>
<!-- Node26&#45;&gt;Node27 -->
<g id="edge9" class="edge"><title>Node26&#45;&gt;Node27</title>
<path fill="none" stroke="midnightblue" d="M365.11,-99.7952C482.852,-71.7862 519.094,-92.3667 633.5,-64 636.518,-63.2518 639.576,-62.4313 642.651,-61.5543"/>
<polygon fill="midnightblue" stroke="midnightblue" points="364.244,-96.4038 355.362,-102.18 365.907,-103.203 364.244,-96.4038"/>
</g>
<!-- Node28 -->
<g id="node11" class="node"><title>Node28</title>
<g id="a_node11"><a xlink:href="_menu___miniature_8cpp.html" target="_top" xlink:title="D:/Users/Victor/OneDrive\l/Documents/Visual Studio\l 2017/Projects/Jeu_de_Go\l/Jeu_de_Go/Sources/Graphics\l/Menu_Miniature.cpp">
<polygon fill="none" stroke="black" points="206,-0.5 206,-63.5 355,-63.5 355,-0.5 206,-0.5"/>
<text text-anchor="start" x="214" y="-51.5" font-family="Helvetica,sans-Serif" font-size="10.00">D:/Users/Victor/OneDrive</text>
<text text-anchor="start" x="214" y="-40.5" font-family="Helvetica,sans-Serif" font-size="10.00">/Documents/Visual Studio</text>
<text text-anchor="start" x="214" y="-29.5" font-family="Helvetica,sans-Serif" font-size="10.00"> 2017/Projects/Jeu_de_Go</text>
<text text-anchor="start" x="214" y="-18.5" font-family="Helvetica,sans-Serif" font-size="10.00">/Jeu_de_Go/Sources/Graphics</text>
<text text-anchor="middle" x="280.5" y="-7.5" font-family="Helvetica,sans-Serif" font-size="10.00">/Menu_Miniature.cpp</text>
</a>
</g>
</g>
<!-- Node26&#45;&gt;Node28 -->
<g id="edge10" class="edge"><title>Node26&#45;&gt;Node28</title>
<path fill="none" stroke="midnightblue" d="M280.5,-90.0987C280.5,-81.2383 280.5,-72.0145 280.5,-63.6299"/>
<polygon fill="midnightblue" stroke="midnightblue" points="277,-90.261 280.5,-100.261 284,-90.2611 277,-90.261"/>
</g>
<!-- Node29&#45;&gt;Node27 -->
<g id="edge17" class="edge"><title>Node29&#45;&gt;Node27</title>
<path fill="none" stroke="midnightblue" d="M691.07,-190.823C693.385,-182.028 695.666,-172.736 697.5,-164 704.663,-129.889 710.352,-90.2723 713.804,-63.6128"/>
<polygon fill="midnightblue" stroke="midnightblue" points="687.689,-189.92 688.464,-200.486 694.447,-191.743 687.689,-189.92"/>
</g>
<!-- Node30 -->
<g id="node13" class="node"><title>Node30</title>
<g id="a_node13"><a xlink:href="_choice___simple_8cpp.html" target="_top" xlink:title="D:/Users/Victor/OneDrive\l/Documents/Visual Studio\l 2017/Projects/Jeu_de_Go\l/Jeu_de_Go/Sources/Graphics\l/Choice_Simple.cpp">
<polygon fill="none" stroke="black" points="746,-100.5 746,-163.5 895,-163.5 895,-100.5 746,-100.5"/>
<text text-anchor="start" x="754" y="-151.5" font-family="Helvetica,sans-Serif" font-size="10.00">D:/Users/Victor/OneDrive</text>
<text text-anchor="start" x="754" y="-140.5" font-family="Helvetica,sans-Serif" font-size="10.00">/Documents/Visual Studio</text>
<text text-anchor="start" x="754" y="-129.5" font-family="Helvetica,sans-Serif" font-size="10.00"> 2017/Projects/Jeu_de_Go</text>
<text text-anchor="start" x="754" y="-118.5" font-family="Helvetica,sans-Serif" font-size="10.00">/Jeu_de_Go/Sources/Graphics</text>
<text text-anchor="middle" x="820.5" y="-107.5" font-family="Helvetica,sans-Serif" font-size="10.00">/Choice_Simple.cpp</text>
</a>
</g>
</g>
<!-- Node29&#45;&gt;Node30 -->
<g id="edge13" class="edge"><title>Node29&#45;&gt;Node30</title>
<path fill="none" stroke="midnightblue" d="M732.161,-194.398C746.736,-184.268 762.4,-173.382 776.431,-163.63"/>
<polygon fill="midnightblue" stroke="midnightblue" points="729.94,-191.68 723.726,-200.261 733.935,-197.428 729.94,-191.68"/>
</g>
<!-- Node31 -->
<g id="node14" class="node"><title>Node31</title>
<g id="a_node14"><a xlink:href="_menu__simple_8h.html" target="_top" xlink:title="D:/Users/Victor/OneDrive\l/Documents/Visual Studio\l 2017/Projects/Jeu_de_Go\l/Jeu_de_Go/Sources/Graphics\l/Menu_simple.h">
<polygon fill="none" stroke="black" points="540,-100.5 540,-163.5 689,-163.5 689,-100.5 540,-100.5"/>
<text text-anchor="start" x="548" y="-151.5" font-family="Helvetica,sans-Serif" font-size="10.00">D:/Users/Victor/OneDrive</text>
<text text-anchor="start" x="548" y="-140.5" font-family="Helvetica,sans-Serif" font-size="10.00">/Documents/Visual Studio</text>
<text text-anchor="start" x="548" y="-129.5" font-family="Helvetica,sans-Serif" font-size="10.00"> 2017/Projects/Jeu_de_Go</text>
<text text-anchor="start" x="548" y="-118.5" font-family="Helvetica,sans-Serif" font-size="10.00">/Jeu_de_Go/Sources/Graphics</text>
<text text-anchor="middle" x="614.5" y="-107.5" font-family="Helvetica,sans-Serif" font-size="10.00">/Menu_simple.h</text>
</a>
</g>
</g>
<!-- Node29&#45;&gt;Node31 -->
<g id="edge14" class="edge"><title>Node29&#45;&gt;Node31</title>
<path fill="none" stroke="midnightblue" d="M653.518,-191.827C647.295,-182.445 640.74,-172.561 634.816,-163.63"/>
<polygon fill="midnightblue" stroke="midnightblue" points="650.668,-193.862 659.112,-200.261 656.501,-189.993 650.668,-193.862"/>
</g>
<!-- Node31&#45;&gt;Node27 -->
<g id="edge15" class="edge"><title>Node31&#45;&gt;Node27</title>
<path fill="none" stroke="midnightblue" d="M654.166,-93.2592C664.47,-83.456 675.441,-73.017 685.307,-63.6299"/>
<polygon fill="midnightblue" stroke="midnightblue" points="651.639,-90.8323 646.807,-100.261 656.465,-95.9037 651.639,-90.8323"/>
</g>
<!-- Node32 -->
<g id="node15" class="node"><title>Node32</title>
<g id="a_node15"><a xlink:href="_menu__simple_8cpp.html" target="_top" xlink:title="D:/Users/Victor/OneDrive\l/Documents/Visual Studio\l 2017/Projects/Jeu_de_Go\l/Jeu_de_Go/Sources/Graphics\l/Menu_simple.cpp">
<polygon fill="none" stroke="black" points="476,-0.5 476,-63.5 625,-63.5 625,-0.5 476,-0.5"/>
<text text-anchor="start" x="484" y="-51.5" font-family="Helvetica,sans-Serif" font-size="10.00">D:/Users/Victor/OneDrive</text>
<text text-anchor="start" x="484" y="-40.5" font-family="Helvetica,sans-Serif" font-size="10.00">/Documents/Visual Studio</text>
<text text-anchor="start" x="484" y="-29.5" font-family="Helvetica,sans-Serif" font-size="10.00"> 2017/Projects/Jeu_de_Go</text>
<text text-anchor="start" x="484" y="-18.5" font-family="Helvetica,sans-Serif" font-size="10.00">/Jeu_de_Go/Sources/Graphics</text>
<text text-anchor="middle" x="550.5" y="-7.5" font-family="Helvetica,sans-Serif" font-size="10.00">/Menu_simple.cpp</text>
</a>
</g>
</g>
<!-- Node31&#45;&gt;Node32 -->
<g id="edge16" class="edge"><title>Node31&#45;&gt;Node32</title>
<path fill="none" stroke="midnightblue" d="M588.918,-91.8273C582.791,-82.445 576.336,-72.5613 570.503,-63.6299"/>
<polygon fill="midnightblue" stroke="midnightblue" points="586.027,-93.8021 594.426,-100.261 591.888,-89.9746 586.027,-93.8021"/>
</g>
<!-- Node33&#45;&gt;Node26 -->
<g id="edge20" class="edge"><title>Node33&#45;&gt;Node26</title>
<path fill="none" stroke="midnightblue" d="M402.28,-200.81C381.041,-188.983 356.706,-175.433 335.401,-163.57"/>
<polygon fill="midnightblue" stroke="midnightblue" points="400.736,-203.956 411.176,-205.763 404.141,-197.84 400.736,-203.956"/>
</g>
<!-- Node33&#45;&gt;Node31 -->
<g id="edge19" class="edge"><title>Node33&#45;&gt;Node31</title>
<path fill="none" stroke="midnightblue" d="M505.942,-200.333C524.826,-188.62 546.344,-175.274 565.213,-163.57"/>
<polygon fill="midnightblue" stroke="midnightblue" points="503.842,-197.517 497.189,-205.763 507.532,-203.466 503.842,-197.517"/>
</g>
<!-- Node34 -->
<g id="node17" class="node"><title>Node34</title>
<g id="a_node17"><a xlink:href="_menu_8cpp.html" target="_top" xlink:title="D:/Users/Victor/OneDrive\l/Documents/Visual Studio\l 2017/Projects/Jeu_de_Go\l/Jeu_de_Go/Sources/Graphics\l/Menu.cpp">
<polygon fill="none" stroke="black" points="373,-100.5 373,-163.5 522,-163.5 522,-100.5 373,-100.5"/>
<text text-anchor="start" x="381" y="-151.5" font-family="Helvetica,sans-Serif" font-size="10.00">D:/Users/Victor/OneDrive</text>
<text text-anchor="start" x="381" y="-140.5" font-family="Helvetica,sans-Serif" font-size="10.00">/Documents/Visual Studio</text>
<text text-anchor="start" x="381" y="-129.5" font-family="Helvetica,sans-Serif" font-size="10.00"> 2017/Projects/Jeu_de_Go</text>
<text text-anchor="start" x="381" y="-118.5" font-family="Helvetica,sans-Serif" font-size="10.00">/Jeu_de_Go/Sources/Graphics</text>
<text text-anchor="middle" x="447.5" y="-107.5" font-family="Helvetica,sans-Serif" font-size="10.00">/Menu.cpp</text>
</a>
</g>
</g>
<!-- Node33&#45;&gt;Node34 -->
<g id="edge21" class="edge"><title>Node33&#45;&gt;Node34</title>
<path fill="none" stroke="midnightblue" d="M453.257,-195.692C452.298,-185.241 451.255,-173.887 450.324,-163.749"/>
<polygon fill="midnightblue" stroke="midnightblue" points="449.782,-196.125 454.182,-205.763 456.753,-195.484 449.782,-196.125"/>
</g>
<!-- Node36&#45;&gt;Node27 -->
<g id="edge24" class="edge"><title>Node36&#45;&gt;Node27</title>
<path fill="none" stroke="midnightblue" d="M1160.96,-292.594C1115.78,-241.575 1029.18,-151.871 937.5,-100 892.325,-74.4414 836.298,-57.5632 792.091,-47.1403"/>
<polygon fill="midnightblue" stroke="midnightblue" points="1158.36,-294.933 1167.59,-300.135 1163.62,-290.313 1158.36,-294.933"/>
</g>
</g>
</svg>
