<?xml version="1.0" encoding="UTF-8" standalone="no"?>
<!DOCTYPE svg PUBLIC "-//W3C//DTD SVG 1.1//EN"
 "http://www.w3.org/Graphics/SVG/1.1/DTD/svg11.dtd">
<!-- Generated by graphviz version 2.38.0 (20140413.2041)
 -->
<!-- Title: D:/Users/Victor/OneDrive/Documents/Visual Studio 2017/Projects/Jeu_de_Go/Jeu_de_Go/Sources/Engine/Arbre.cpp Pages: 1 -->
<svg width="858pt" height="352pt"
 viewBox="0.00 0.00 857.50 352.00" xmlns="http://www.w3.org/2000/svg" xmlns:xlink="http://www.w3.org/1999/xlink">
<g id="graph0" class="graph" transform="scale(1 1) rotate(0) translate(4 348)">
<title>D:/Users/Victor/OneDrive/Documents/Visual Studio 2017/Projects/Jeu_de_Go/Jeu_de_Go/Sources/Engine/Arbre.cpp</title>
<!-- Node0 -->
<g id="node1" class="node"><title>Node0</title>
<polygon fill="#bfbfbf" stroke="black" points="63,-280.5 63,-343.5 203,-343.5 203,-280.5 63,-280.5"/>
<text text-anchor="start" x="71" y="-331.5" font-family="Helvetica,sans-Serif" font-size="10.00">D:/Users/Victor/OneDrive</text>
<text text-anchor="start" x="71" y="-320.5" font-family="Helvetica,sans-Serif" font-size="10.00">/Documents/Visual Studio</text>
<text text-anchor="start" x="71" y="-309.5" font-family="Helvetica,sans-Serif" font-size="10.00"> 2017/Projects/Jeu_de_Go</text>
<text text-anchor="start" x="71" y="-298.5" font-family="Helvetica,sans-Serif" font-size="10.00">/Jeu_de_Go/Sources/Engine</text>
<text text-anchor="middle" x="133" y="-287.5" font-family="Helvetica,sans-Serif" font-size="10.00">/Arbre.cpp</text>
</g>
<!-- Node1 -->
<g id="node2" class="node"><title>Node1</title>
<g id="a_node2"><a xlink:href="_arbre_8h.html" target="_top" xlink:title="Arbre.h">
<polygon fill="none" stroke="black" points="190,-224.5 190,-243.5 238,-243.5 238,-224.5 190,-224.5"/>
<text text-anchor="middle" x="214" y="-231.5" font-family="Helvetica,sans-Serif" font-size="10.00">Arbre.h</text>
</a>
</g>
</g>
<!-- Node0&#45;&gt;Node1 -->
<g id="edge1" class="edge"><title>Node0&#45;&gt;Node1</title>
<path fill="none" stroke="midnightblue" d="M165.946,-280.088C176.677,-270.019 188.141,-259.263 197.18,-250.782"/>
<polygon fill="midnightblue" stroke="midnightblue" points="199.811,-253.113 204.708,-243.718 195.021,-248.008 199.811,-253.113"/>
</g>
<!-- Node3 -->
<g id="node4" class="node"><title>Node3</title>
<polygon fill="none" stroke="#bfbfbf" points="0,-0.5 0,-19.5 54,-19.5 54,-0.5 0,-0.5"/>
<text text-anchor="middle" x="27" y="-7.5" font-family="Helvetica,sans-Serif" font-size="10.00">iostream</text>
</g>
<!-- Node0&#45;&gt;Node3 -->
<g id="edge27" class="edge"><title>Node0&#45;&gt;Node3</title>
<path fill="none" stroke="midnightblue" d="M101.152,-280.244C78.8426,-255.299 53,-217.99 53,-179 53,-179 53,-179 53,-121 53,-87.9292 41.7323,-50.7291 34.0322,-29.1685"/>
<polygon fill="midnightblue" stroke="midnightblue" points="37.2691,-27.8308 30.5065,-19.675 30.707,-30.2679 37.2691,-27.8308"/>
</g>
<!-- Node2 -->
<g id="node3" class="node"><title>Node2</title>
<g id="a_node3"><a xlink:href="_goban_8h.html" target="_top" xlink:title="Goban.h">
<polygon fill="none" stroke="black" points="297.5,-168.5 297.5,-187.5 350.5,-187.5 350.5,-168.5 297.5,-168.5"/>
<text text-anchor="middle" x="324" y="-175.5" font-family="Helvetica,sans-Serif" font-size="10.00">Goban.h</text>
</a>
</g>
</g>
<!-- Node1&#45;&gt;Node2 -->
<g id="edge2" class="edge"><title>Node1&#45;&gt;Node2</title>
<path fill="none" stroke="midnightblue" d="M231.673,-224.324C249.394,-215.625 276.903,-202.12 297.288,-192.113"/>
<polygon fill="midnightblue" stroke="midnightblue" points="298.936,-195.203 306.37,-187.655 295.851,-188.919 298.936,-195.203"/>
</g>
<!-- Node1&#45;&gt;Node3 -->
<g id="edge25" class="edge"><title>Node1&#45;&gt;Node3</title>
<path fill="none" stroke="midnightblue" d="M207.062,-224.441C186.174,-198.716 121.93,-119.925 67,-56 58.723,-46.3675 49.2925,-35.7419 41.6679,-27.2357"/>
<polygon fill="midnightblue" stroke="midnightblue" points="44.045,-24.6447 34.7548,-19.5511 38.8409,-29.3264 44.045,-24.6447"/>
</g>
<!-- Node4 -->
<g id="node5" class="node"><title>Node4</title>
<polygon fill="none" stroke="#bfbfbf" points="480,-56.5 480,-75.5 522,-75.5 522,-56.5 480,-56.5"/>
<text text-anchor="middle" x="501" y="-63.5" font-family="Helvetica,sans-Serif" font-size="10.00">vector</text>
</g>
<!-- Node1&#45;&gt;Node4 -->
<g id="edge26" class="edge"><title>Node1&#45;&gt;Node4</title>
<path fill="none" stroke="midnightblue" d="M238.242,-229.137C286.499,-220.281 395.556,-194.278 461,-132 475.212,-118.475 486.365,-98.8521 493.243,-84.7087"/>
<polygon fill="midnightblue" stroke="midnightblue" points="496.46,-86.09 497.479,-75.5442 490.106,-83.1532 496.46,-86.09"/>
</g>
<!-- Node2&#45;&gt;Node3 -->
<g id="edge3" class="edge"><title>Node2&#45;&gt;Node3</title>
<path fill="none" stroke="midnightblue" d="M309.44,-168.478C275.202,-148.484 186.826,-97.1468 112,-56 92.3086,-45.1716 69.8288,-33.2913 52.9349,-24.458"/>
<polygon fill="midnightblue" stroke="midnightblue" points="54.1819,-21.161 43.6968,-19.6401 50.945,-27.3676 54.1819,-21.161"/>
</g>
<!-- Node2&#45;&gt;Node4 -->
<g id="edge4" class="edge"><title>Node2&#45;&gt;Node4</title>
<path fill="none" stroke="midnightblue" d="M350.535,-169.494C373.958,-162.135 408.413,-149.474 435,-132 455.478,-118.541 474.961,-98.0754 487.378,-83.7127"/>
<polygon fill="midnightblue" stroke="midnightblue" points="490.381,-85.5804 494.143,-75.6758 485.026,-81.0729 490.381,-85.5804"/>
</g>
<!-- Node5 -->
<g id="node6" class="node"><title>Node5</title>
<g id="a_node6"><a xlink:href="_etat_8h.html" target="_top" xlink:title="Etat.h">
<polygon fill="none" stroke="black" points="244.5,-56.5 244.5,-75.5 287.5,-75.5 287.5,-56.5 244.5,-56.5"/>
<text text-anchor="middle" x="266" y="-63.5" font-family="Helvetica,sans-Serif" font-size="10.00">Etat.h</text>
</a>
</g>
</g>
<!-- Node2&#45;&gt;Node5 -->
<g id="edge5" class="edge"><title>Node2&#45;&gt;Node5</title>
<path fill="none" stroke="midnightblue" d="M315.255,-168.43C306.963,-159.877 294.666,-146.022 287,-132 279,-117.367 273.452,-99.1969 270.077,-85.7908"/>
<polygon fill="midnightblue" stroke="midnightblue" points="273.433,-84.7718 267.746,-75.8326 266.617,-86.3671 273.433,-84.7718"/>
</g>
<!-- Node6 -->
<g id="node7" class="node"><title>Node6</title>
<g id="a_node7"><a xlink:href="_groupe_8h.html" target="_top" xlink:title="Groupe.h">
<polygon fill="none" stroke="black" points="370,-112.5 370,-131.5 426,-131.5 426,-112.5 370,-112.5"/>
<text text-anchor="middle" x="398" y="-119.5" font-family="Helvetica,sans-Serif" font-size="10.00">Groupe.h</text>
</a>
</g>
</g>
<!-- Node2&#45;&gt;Node6 -->
<g id="edge7" class="edge"><title>Node2&#45;&gt;Node6</title>
<path fill="none" stroke="midnightblue" d="M335.889,-168.324C347.15,-160.107 364.287,-147.602 377.709,-137.807"/>
<polygon fill="midnightblue" stroke="midnightblue" points="379.88,-140.556 385.894,-131.834 375.753,-134.901 379.88,-140.556"/>
</g>
<!-- Node7 -->
<g id="node8" class="node"><title>Node7</title>
<g id="a_node8"><a xlink:href="_history_8h.html" target="_top" xlink:title="History.h">
<polygon fill="none" stroke="black" points="296,-112.5 296,-131.5 352,-131.5 352,-112.5 296,-112.5"/>
<text text-anchor="middle" x="324" y="-119.5" font-family="Helvetica,sans-Serif" font-size="10.00">History.h</text>
</a>
</g>
</g>
<!-- Node2&#45;&gt;Node7 -->
<g id="edge10" class="edge"><title>Node2&#45;&gt;Node7</title>
<path fill="none" stroke="midnightblue" d="M324,-168.083C324,-161.006 324,-150.861 324,-141.986"/>
<polygon fill="midnightblue" stroke="midnightblue" points="327.5,-141.751 324,-131.751 320.5,-141.751 327.5,-141.751"/>
</g>
<!-- Node17 -->
<g id="node18" class="node"><title>Node17</title>
<polygon fill="none" stroke="#bfbfbf" points="790.5,-0.5 790.5,-19.5 849.5,-19.5 849.5,-0.5 790.5,-0.5"/>
<text text-anchor="middle" x="820" y="-7.5" font-family="Helvetica,sans-Serif" font-size="10.00">stdexcept</text>
</g>
<!-- Node2&#45;&gt;Node17 -->
<g id="edge24" class="edge"><title>Node2&#45;&gt;Node17</title>
<path fill="none" stroke="midnightblue" d="M350.284,-168.433C377.878,-159.424 422.518,-144.805 461,-132 580.068,-92.3798 721.063,-44.6069 785.165,-22.8404"/>
<polygon fill="midnightblue" stroke="midnightblue" points="786.435,-26.1057 794.778,-19.5756 784.184,-19.4776 786.435,-26.1057"/>
</g>
<!-- Node5&#45;&gt;Node3 -->
<g id="edge6" class="edge"><title>Node5&#45;&gt;Node3</title>
<path fill="none" stroke="midnightblue" d="M244.325,-60.395C208.823,-52.8096 135.828,-37.0356 64.2015,-20.2362"/>
<polygon fill="midnightblue" stroke="midnightblue" points="64.6438,-16.7447 54.1078,-17.8597 63.0395,-23.5584 64.6438,-16.7447"/>
</g>
<!-- Node6&#45;&gt;Node4 -->
<g id="edge8" class="edge"><title>Node6&#45;&gt;Node4</title>
<path fill="none" stroke="midnightblue" d="M414.549,-112.324C430.992,-103.703 456.435,-90.3643 475.468,-80.3855"/>
<polygon fill="midnightblue" stroke="midnightblue" points="477.261,-83.3977 484.492,-75.6545 474.011,-77.198 477.261,-83.3977"/>
</g>
<!-- Node6&#45;&gt;Node5 -->
<g id="edge9" class="edge"><title>Node6&#45;&gt;Node5</title>
<path fill="none" stroke="midnightblue" d="M377.084,-112.444C355.264,-103.517 320.85,-89.4387 296.108,-79.3168"/>
<polygon fill="midnightblue" stroke="midnightblue" points="297.399,-76.0634 286.818,-75.5164 294.748,-82.5422 297.399,-76.0634"/>
</g>
<!-- Node7&#45;&gt;Node5 -->
<g id="edge22" class="edge"><title>Node7&#45;&gt;Node5</title>
<path fill="none" stroke="midnightblue" d="M314.681,-112.324C306.107,-104.341 293.188,-92.3128 282.812,-82.6529"/>
<polygon fill="midnightblue" stroke="midnightblue" points="285.192,-80.0865 275.488,-75.8339 280.422,-85.2098 285.192,-80.0865"/>
</g>
<!-- Node8 -->
<g id="node9" class="node"><title>Node8</title>
<g id="a_node9"><a xlink:href="_globals_8h.html" target="_top" xlink:title="../Graphics/Globals.h">
<polygon fill="none" stroke="black" points="305.5,-56.5 305.5,-75.5 414.5,-75.5 414.5,-56.5 305.5,-56.5"/>
<text text-anchor="middle" x="360" y="-63.5" font-family="Helvetica,sans-Serif" font-size="10.00">../Graphics/Globals.h</text>
</a>
</g>
</g>
<!-- Node7&#45;&gt;Node8 -->
<g id="edge11" class="edge"><title>Node7&#45;&gt;Node8</title>
<path fill="none" stroke="midnightblue" d="M329.945,-112.083C334.977,-104.534 342.337,-93.4948 348.513,-84.2298"/>
<polygon fill="midnightblue" stroke="midnightblue" points="351.531,-86.0131 354.166,-75.7511 345.707,-82.1301 351.531,-86.0131"/>
</g>
<!-- Node18 -->
<g id="node19" class="node"><title>Node18</title>
<polygon fill="none" stroke="#bfbfbf" points="432.5,-56.5 432.5,-75.5 461.5,-75.5 461.5,-56.5 432.5,-56.5"/>
<text text-anchor="middle" x="447" y="-63.5" font-family="Helvetica,sans-Serif" font-size="10.00">list</text>
</g>
<!-- Node7&#45;&gt;Node18 -->
<g id="edge23" class="edge"><title>Node7&#45;&gt;Node18</title>
<path fill="none" stroke="midnightblue" d="M343.49,-112.444C365.065,-102.972 399.853,-87.6987 423.066,-77.5075"/>
<polygon fill="midnightblue" stroke="midnightblue" points="424.485,-80.7073 432.234,-73.4826 421.671,-74.2978 424.485,-80.7073"/>
</g>
<!-- Node8&#45;&gt;Node3 -->
<g id="edge16" class="edge"><title>Node8&#45;&gt;Node3</title>
<path fill="none" stroke="midnightblue" d="M305.403,-57.0138C232.678,-46.3357 108.786,-27.9931 64.0642,-19.9534"/>
<polygon fill="midnightblue" stroke="midnightblue" points="64.5416,-16.4817 54.0647,-18.0578 63.2377,-23.3592 64.5416,-16.4817"/>
</g>
<!-- Node9 -->
<g id="node10" class="node"><title>Node9</title>
<polygon fill="none" stroke="#bfbfbf" points="72,-0.5 72,-19.5 176,-19.5 176,-0.5 72,-0.5"/>
<text text-anchor="middle" x="124" y="-7.5" font-family="Helvetica,sans-Serif" font-size="10.00">SFML/Graphics.hpp</text>
</g>
<!-- Node8&#45;&gt;Node9 -->
<g id="edge12" class="edge"><title>Node8&#45;&gt;Node9</title>
<path fill="none" stroke="midnightblue" d="M322.605,-56.4435C281.608,-47.0629 215.746,-31.9926 171.216,-21.8036"/>
<polygon fill="midnightblue" stroke="midnightblue" points="171.749,-18.3352 161.22,-19.5164 170.187,-25.1588 171.749,-18.3352"/>
</g>
<!-- Node10 -->
<g id="node11" class="node"><title>Node10</title>
<polygon fill="none" stroke="#bfbfbf" points="194,-0.5 194,-19.5 292,-19.5 292,-0.5 194,-0.5"/>
<text text-anchor="middle" x="243" y="-7.5" font-family="Helvetica,sans-Serif" font-size="10.00">SFML/System.hpp</text>
</g>
<!-- Node8&#45;&gt;Node10 -->
<g id="edge13" class="edge"><title>Node8&#45;&gt;Node10</title>
<path fill="none" stroke="midnightblue" d="M341.461,-56.4435C322.377,-47.6356 292.425,-33.8116 270.564,-23.722"/>
<polygon fill="midnightblue" stroke="midnightblue" points="271.999,-20.5292 261.452,-19.5164 269.065,-26.8849 271.999,-20.5292"/>
</g>
<!-- Node11 -->
<g id="node12" class="node"><title>Node11</title>
<polygon fill="none" stroke="#bfbfbf" points="310.5,-0.5 310.5,-19.5 409.5,-19.5 409.5,-0.5 310.5,-0.5"/>
<text text-anchor="middle" x="360" y="-7.5" font-family="Helvetica,sans-Serif" font-size="10.00">SFML/Window.hpp</text>
</g>
<!-- Node8&#45;&gt;Node11 -->
<g id="edge14" class="edge"><title>Node8&#45;&gt;Node11</title>
<path fill="none" stroke="midnightblue" d="M360,-56.083C360,-49.0059 360,-38.8611 360,-29.9865"/>
<polygon fill="midnightblue" stroke="midnightblue" points="363.5,-29.751 360,-19.7511 356.5,-29.7511 363.5,-29.751"/>
</g>
<!-- Node12 -->
<g id="node13" class="node"><title>Node12</title>
<polygon fill="none" stroke="#bfbfbf" points="427.5,-0.5 427.5,-19.5 516.5,-19.5 516.5,-0.5 427.5,-0.5"/>
<text text-anchor="middle" x="472" y="-7.5" font-family="Helvetica,sans-Serif" font-size="10.00">SFML/Audio.hpp</text>
</g>
<!-- Node8&#45;&gt;Node12 -->
<g id="edge15" class="edge"><title>Node8&#45;&gt;Node12</title>
<path fill="none" stroke="midnightblue" d="M377.995,-56.324C396.038,-47.6247 424.047,-34.1202 444.803,-24.113"/>
<polygon fill="midnightblue" stroke="midnightblue" points="446.562,-27.1502 454.05,-19.6545 443.522,-20.8449 446.562,-27.1502"/>
</g>
<!-- Node13 -->
<g id="node14" class="node"><title>Node13</title>
<polygon fill="none" stroke="#bfbfbf" points="534.5,-0.5 534.5,-19.5 579.5,-19.5 579.5,-0.5 534.5,-0.5"/>
<text text-anchor="middle" x="557" y="-7.5" font-family="Helvetica,sans-Serif" font-size="10.00">cstdlib</text>
</g>
<!-- Node8&#45;&gt;Node13 -->
<g id="edge17" class="edge"><title>Node8&#45;&gt;Node13</title>
<path fill="none" stroke="midnightblue" d="M391.652,-56.4474C422.936,-47.9768 472.415,-34.5326 524.524,-20.116"/>
<polygon fill="midnightblue" stroke="midnightblue" points="525.578,-23.456 534.281,-17.4138 523.709,-16.7099 525.578,-23.456"/>
</g>
<!-- Node14 -->
<g id="node15" class="node"><title>Node14</title>
<polygon fill="none" stroke="#bfbfbf" points="597.5,-0.5 597.5,-19.5 638.5,-19.5 638.5,-0.5 597.5,-0.5"/>
<text text-anchor="middle" x="618" y="-7.5" font-family="Helvetica,sans-Serif" font-size="10.00">string</text>
</g>
<!-- Node8&#45;&gt;Node14 -->
<g id="edge18" class="edge"><title>Node8&#45;&gt;Node14</title>
<path fill="none" stroke="midnightblue" d="M410.571,-56.4656C454.804,-48.675 520.94,-36.2428 587.582,-19.9002"/>
<polygon fill="midnightblue" stroke="midnightblue" points="588.552,-23.2656 597.415,-17.4607 586.867,-16.4715 588.552,-23.2656"/>
</g>
<!-- Node15 -->
<g id="node16" class="node"><title>Node15</title>
<polygon fill="none" stroke="#bfbfbf" points="656.5,-0.5 656.5,-19.5 705.5,-19.5 705.5,-0.5 656.5,-0.5"/>
<text text-anchor="middle" x="681" y="-7.5" font-family="Helvetica,sans-Serif" font-size="10.00">fstream</text>
</g>
<!-- Node8&#45;&gt;Node15 -->
<g id="edge19" class="edge"><title>Node8&#45;&gt;Node15</title>
<path fill="none" stroke="midnightblue" d="M414.742,-57.1057C481.088,-47.4253 590.025,-31.1419 646.313,-19.9184"/>
<polygon fill="midnightblue" stroke="midnightblue" points="647.1,-23.3299 656.188,-17.8844 645.688,-16.4738 647.1,-23.3299"/>
</g>
<!-- Node16 -->
<g id="node17" class="node"><title>Node16</title>
<polygon fill="none" stroke="#bfbfbf" points="723.5,-0.5 723.5,-19.5 772.5,-19.5 772.5,-0.5 723.5,-0.5"/>
<text text-anchor="middle" x="748" y="-7.5" font-family="Helvetica,sans-Serif" font-size="10.00">cassert</text>
</g>
<!-- Node8&#45;&gt;Node16 -->
<g id="edge20" class="edge"><title>Node8&#45;&gt;Node16</title>
<path fill="none" stroke="midnightblue" d="M414.627,-57.132C417.458,-56.7443 420.262,-56.3649 423,-56 549.023,-39.2046 584.338,-44.4542 713.343,-19.8804"/>
<polygon fill="midnightblue" stroke="midnightblue" points="714.051,-23.3085 723.207,-17.9787 712.726,-16.4351 714.051,-23.3085"/>
</g>
<!-- Node8&#45;&gt;Node17 -->
<g id="edge21" class="edge"><title>Node8&#45;&gt;Node17</title>
<path fill="none" stroke="midnightblue" d="M414.617,-57.0546C417.451,-56.6871 420.258,-56.3332 423,-56 578.92,-37.0536 622.097,-46.1437 780.126,-20.1316"/>
<polygon fill="midnightblue" stroke="midnightblue" points="780.917,-23.5481 790.205,-18.451 779.766,-16.6434 780.917,-23.5481"/>
</g>
</g>
</svg>
