<?xml version="1.0" encoding="UTF-8" standalone="no"?>
<!DOCTYPE svg PUBLIC "-//W3C//DTD SVG 1.1//EN"
 "http://www.w3.org/Graphics/SVG/1.1/DTD/svg11.dtd">
<!-- Generated by graphviz version 2.38.0 (20140413.2041)
 -->
<!-- Title: D:/Users/Victor/OneDrive/Documents/Visual Studio 2017/Projects/Jeu_de_Go/Jeu_de_Go/Sources/Graphics/Game/Board.cpp Pages: 1 -->
<svg width="877pt" height="408pt"
 viewBox="0.00 0.00 876.50 408.00" xmlns="http://www.w3.org/2000/svg" xmlns:xlink="http://www.w3.org/1999/xlink">
<g id="graph0" class="graph" transform="scale(1 1) rotate(0) translate(4 404)">
<title>D:/Users/Victor/OneDrive/Documents/Visual Studio 2017/Projects/Jeu_de_Go/Jeu_de_Go/Sources/Graphics/Game/Board.cpp</title>
<!-- Node0 -->
<g id="node1" class="node"><title>Node0</title>
<polygon fill="#bfbfbf" stroke="black" points="536,-336.5 536,-399.5 685,-399.5 685,-336.5 536,-336.5"/>
<text text-anchor="start" x="544" y="-387.5" font-family="Helvetica,sans-Serif" font-size="10.00">D:/Users/Victor/OneDrive</text>
<text text-anchor="start" x="544" y="-376.5" font-family="Helvetica,sans-Serif" font-size="10.00">/Documents/Visual Studio</text>
<text text-anchor="start" x="544" y="-365.5" font-family="Helvetica,sans-Serif" font-size="10.00"> 2017/Projects/Jeu_de_Go</text>
<text text-anchor="start" x="544" y="-354.5" font-family="Helvetica,sans-Serif" font-size="10.00">/Jeu_de_Go/Sources/Graphics</text>
<text text-anchor="middle" x="610.5" y="-343.5" font-family="Helvetica,sans-Serif" font-size="10.00">/Game/Board.cpp</text>
</g>
<!-- Node1 -->
<g id="node2" class="node"><title>Node1</title>
<g id="a_node2"><a xlink:href="_board_8h.html" target="_top" xlink:title="Board.h">
<polygon fill="none" stroke="black" points="585.5,-280.5 585.5,-299.5 635.5,-299.5 635.5,-280.5 585.5,-280.5"/>
<text text-anchor="middle" x="610.5" y="-287.5" font-family="Helvetica,sans-Serif" font-size="10.00">Board.h</text>
</a>
</g>
</g>
<!-- Node0&#45;&gt;Node1 -->
<g id="edge1" class="edge"><title>Node0&#45;&gt;Node1</title>
<path fill="none" stroke="midnightblue" d="M610.5,-336.088C610.5,-327.15 610.5,-317.669 610.5,-309.719"/>
<polygon fill="midnightblue" stroke="midnightblue" points="614,-309.718 610.5,-299.718 607,-309.718 614,-309.718"/>
</g>
<!-- Node2 -->
<g id="node3" class="node"><title>Node2</title>
<g id="a_node3"><a xlink:href="_globals_8h.html" target="_top" xlink:title="../Globals.h">
<polygon fill="none" stroke="black" points="482,-56.5 482,-75.5 549,-75.5 549,-56.5 482,-56.5"/>
<text text-anchor="middle" x="515.5" y="-63.5" font-family="Helvetica,sans-Serif" font-size="10.00">../Globals.h</text>
</a>
</g>
</g>
<!-- Node1&#45;&gt;Node2 -->
<g id="edge2" class="edge"><title>Node1&#45;&gt;Node2</title>
<path fill="none" stroke="midnightblue" d="M599.54,-280.212C573.407,-258.458 507.874,-198.986 484.5,-132 478.486,-114.764 489.417,-96.0435 499.92,-83.1395"/>
<polygon fill="midnightblue" stroke="midnightblue" points="502.599,-85.3931 506.578,-75.5737 497.344,-80.7688 502.599,-85.3931"/>
</g>
<!-- Node13 -->
<g id="node14" class="node"><title>Node13</title>
<g id="a_node14"><a xlink:href="_square_8h.html" target="_top" xlink:title="Square.h">
<polygon fill="none" stroke="black" points="493.5,-112.5 493.5,-131.5 549.5,-131.5 549.5,-112.5 493.5,-112.5"/>
<text text-anchor="middle" x="521.5" y="-119.5" font-family="Helvetica,sans-Serif" font-size="10.00">Square.h</text>
</a>
</g>
</g>
<!-- Node1&#45;&gt;Node13 -->
<g id="edge13" class="edge"><title>Node1&#45;&gt;Node13</title>
<path fill="none" stroke="midnightblue" d="M605.715,-280.075C591.584,-253.719 549.85,-175.878 530.969,-140.661"/>
<polygon fill="midnightblue" stroke="midnightblue" points="533.904,-138.728 526.094,-131.568 527.734,-142.035 533.904,-138.728"/>
</g>
<!-- Node15 -->
<g id="node16" class="node"><title>Node15</title>
<g id="a_node16"><a xlink:href="_goban_8h.html" target="_top" xlink:title="../../Engine/Goban.h">
<polygon fill="none" stroke="black" points="665.5,-168.5 665.5,-187.5 769.5,-187.5 769.5,-168.5 665.5,-168.5"/>
<text text-anchor="middle" x="717.5" y="-175.5" font-family="Helvetica,sans-Serif" font-size="10.00">../../Engine/Goban.h</text>
</a>
</g>
</g>
<!-- Node1&#45;&gt;Node15 -->
<g id="edge17" class="edge"><title>Node1&#45;&gt;Node15</title>
<path fill="none" stroke="midnightblue" d="M618.896,-280.368C636.789,-261.974 678.911,-218.671 701.886,-195.052"/>
<polygon fill="midnightblue" stroke="midnightblue" points="704.679,-197.2 709.143,-187.591 699.661,-192.319 704.679,-197.2"/>
</g>
<!-- Node20 -->
<g id="node21" class="node"><title>Node20</title>
<g id="a_node21"><a xlink:href="_arbre_8h.html" target="_top" xlink:title="../../Engine/Arbre.h">
<polygon fill="none" stroke="black" points="729,-224.5 729,-243.5 828,-243.5 828,-224.5 729,-224.5"/>
<text text-anchor="middle" x="778.5" y="-231.5" font-family="Helvetica,sans-Serif" font-size="10.00">../../Engine/Arbre.h</text>
</a>
</g>
</g>
<!-- Node1&#45;&gt;Node20 -->
<g id="edge29" class="edge"><title>Node1&#45;&gt;Node20</title>
<path fill="none" stroke="midnightblue" d="M635.651,-280.916C663.817,-271.862 709.722,-257.107 741.871,-246.773"/>
<polygon fill="midnightblue" stroke="midnightblue" points="743.337,-249.979 751.786,-243.587 741.195,-243.315 743.337,-249.979"/>
</g>
<!-- Node3 -->
<g id="node4" class="node"><title>Node3</title>
<polygon fill="none" stroke="#bfbfbf" points="134.5,-0.5 134.5,-19.5 238.5,-19.5 238.5,-0.5 134.5,-0.5"/>
<text text-anchor="middle" x="186.5" y="-7.5" font-family="Helvetica,sans-Serif" font-size="10.00">SFML/Graphics.hpp</text>
</g>
<!-- Node2&#45;&gt;Node3 -->
<g id="edge3" class="edge"><title>Node2&#45;&gt;Node3</title>
<path fill="none" stroke="midnightblue" d="M481.837,-59.4748C426.97,-50.4692 317.454,-32.4939 248.299,-21.1433"/>
<polygon fill="midnightblue" stroke="midnightblue" points="248.835,-17.6845 238.4,-19.5186 247.701,-24.5921 248.835,-17.6845"/>
</g>
<!-- Node4 -->
<g id="node5" class="node"><title>Node4</title>
<polygon fill="none" stroke="#bfbfbf" points="256.5,-0.5 256.5,-19.5 354.5,-19.5 354.5,-0.5 256.5,-0.5"/>
<text text-anchor="middle" x="305.5" y="-7.5" font-family="Helvetica,sans-Serif" font-size="10.00">SFML/System.hpp</text>
</g>
<!-- Node2&#45;&gt;Node4 -->
<g id="edge4" class="edge"><title>Node2&#45;&gt;Node4</title>
<path fill="none" stroke="midnightblue" d="M482.225,-56.4435C446.052,-47.1419 388.123,-32.246 348.519,-22.062"/>
<polygon fill="midnightblue" stroke="midnightblue" points="349.176,-18.6172 338.619,-19.5164 347.433,-25.3966 349.176,-18.6172"/>
</g>
<!-- Node5 -->
<g id="node6" class="node"><title>Node5</title>
<polygon fill="none" stroke="#bfbfbf" points="373,-0.5 373,-19.5 472,-19.5 472,-0.5 373,-0.5"/>
<text text-anchor="middle" x="422.5" y="-7.5" font-family="Helvetica,sans-Serif" font-size="10.00">SFML/Window.hpp</text>
</g>
<!-- Node2&#45;&gt;Node5 -->
<g id="edge5" class="edge"><title>Node2&#45;&gt;Node5</title>
<path fill="none" stroke="midnightblue" d="M500.558,-56.324C485.915,-47.8215 463.366,-34.7288 446.262,-24.7975"/>
<polygon fill="midnightblue" stroke="midnightblue" points="447.81,-21.6491 437.405,-19.6545 444.295,-27.7027 447.81,-21.6491"/>
</g>
<!-- Node6 -->
<g id="node7" class="node"><title>Node6</title>
<polygon fill="none" stroke="#bfbfbf" points="490,-0.5 490,-19.5 579,-19.5 579,-0.5 490,-0.5"/>
<text text-anchor="middle" x="534.5" y="-7.5" font-family="Helvetica,sans-Serif" font-size="10.00">SFML/Audio.hpp</text>
</g>
<!-- Node2&#45;&gt;Node6 -->
<g id="edge6" class="edge"><title>Node2&#45;&gt;Node6</title>
<path fill="none" stroke="midnightblue" d="M518.637,-56.083C521.183,-48.8486 524.856,-38.4087 528.027,-29.3968"/>
<polygon fill="midnightblue" stroke="midnightblue" points="531.403,-30.3459 531.421,-19.7511 524.8,-28.0225 531.403,-30.3459"/>
</g>
<!-- Node7 -->
<g id="node8" class="node"><title>Node7</title>
<polygon fill="none" stroke="#bfbfbf" points="814.5,-0.5 814.5,-19.5 868.5,-19.5 868.5,-0.5 814.5,-0.5"/>
<text text-anchor="middle" x="841.5" y="-7.5" font-family="Helvetica,sans-Serif" font-size="10.00">iostream</text>
</g>
<!-- Node2&#45;&gt;Node7 -->
<g id="edge7" class="edge"><title>Node2&#45;&gt;Node7</title>
<path fill="none" stroke="midnightblue" d="M549.16,-59.4244C610.492,-49.2651 740.011,-27.8111 804.043,-17.2046"/>
<polygon fill="midnightblue" stroke="midnightblue" points="804.811,-20.6251 814.105,-15.5379 803.667,-13.7192 804.811,-20.6251"/>
</g>
<!-- Node8 -->
<g id="node9" class="node"><title>Node8</title>
<polygon fill="none" stroke="#bfbfbf" points="597,-0.5 597,-19.5 642,-19.5 642,-0.5 597,-0.5"/>
<text text-anchor="middle" x="619.5" y="-7.5" font-family="Helvetica,sans-Serif" font-size="10.00">cstdlib</text>
</g>
<!-- Node2&#45;&gt;Node8 -->
<g id="edge8" class="edge"><title>Node2&#45;&gt;Node8</title>
<path fill="none" stroke="midnightblue" d="M532.209,-56.324C548.812,-47.7034 574.502,-34.3643 593.72,-24.3855"/>
<polygon fill="midnightblue" stroke="midnightblue" points="595.57,-27.3689 602.832,-19.6545 592.344,-21.1565 595.57,-27.3689"/>
</g>
<!-- Node9 -->
<g id="node10" class="node"><title>Node9</title>
<polygon fill="none" stroke="#bfbfbf" points="660,-0.5 660,-19.5 701,-19.5 701,-0.5 660,-0.5"/>
<text text-anchor="middle" x="680.5" y="-7.5" font-family="Helvetica,sans-Serif" font-size="10.00">string</text>
</g>
<!-- Node2&#45;&gt;Node9 -->
<g id="edge9" class="edge"><title>Node2&#45;&gt;Node9</title>
<path fill="none" stroke="midnightblue" d="M541.645,-56.4435C571.036,-46.8247 618.705,-31.2238 649.831,-21.0372"/>
<polygon fill="midnightblue" stroke="midnightblue" points="651.287,-24.2435 659.702,-17.8067 649.109,-17.5907 651.287,-24.2435"/>
</g>
<!-- Node10 -->
<g id="node11" class="node"><title>Node10</title>
<polygon fill="none" stroke="#bfbfbf" points="0,-0.5 0,-19.5 49,-19.5 49,-0.5 0,-0.5"/>
<text text-anchor="middle" x="24.5" y="-7.5" font-family="Helvetica,sans-Serif" font-size="10.00">fstream</text>
</g>
<!-- Node2&#45;&gt;Node10 -->
<g id="edge10" class="edge"><title>Node2&#45;&gt;Node10</title>
<path fill="none" stroke="midnightblue" d="M481.9,-63.6362C407.356,-60.1978 222.443,-49.3928 59.4696,-20.0985"/>
<polygon fill="midnightblue" stroke="midnightblue" points="59.7293,-16.5881 49.2631,-18.234 58.4713,-23.4741 59.7293,-16.5881"/>
</g>
<!-- Node11 -->
<g id="node12" class="node"><title>Node11</title>
<polygon fill="none" stroke="#bfbfbf" points="67,-0.5 67,-19.5 116,-19.5 116,-0.5 67,-0.5"/>
<text text-anchor="middle" x="91.5" y="-7.5" font-family="Helvetica,sans-Serif" font-size="10.00">cassert</text>
</g>
<!-- Node2&#45;&gt;Node11 -->
<g id="edge11" class="edge"><title>Node2&#45;&gt;Node11</title>
<path fill="none" stroke="midnightblue" d="M481.867,-62.7575C415.611,-57.9886 263.448,-45.2997 126.147,-19.8566"/>
<polygon fill="midnightblue" stroke="midnightblue" points="126.763,-16.4112 116.288,-18.0026 125.469,-23.2906 126.763,-16.4112"/>
</g>
<!-- Node12 -->
<g id="node13" class="node"><title>Node12</title>
<polygon fill="none" stroke="#bfbfbf" points="719,-0.5 719,-19.5 778,-19.5 778,-0.5 719,-0.5"/>
<text text-anchor="middle" x="748.5" y="-7.5" font-family="Helvetica,sans-Serif" font-size="10.00">stdexcept</text>
</g>
<!-- Node2&#45;&gt;Node12 -->
<g id="edge12" class="edge"><title>Node2&#45;&gt;Node12</title>
<path fill="none" stroke="midnightblue" d="M549.38,-57.1479C591.651,-47.3513 663.82,-30.6253 708.687,-20.2271"/>
<polygon fill="midnightblue" stroke="midnightblue" points="709.696,-23.5861 718.647,-17.9187 708.115,-16.7669 709.696,-23.5861"/>
</g>
<!-- Node13&#45;&gt;Node2 -->
<g id="edge14" class="edge"><title>Node13&#45;&gt;Node2</title>
<path fill="none" stroke="midnightblue" d="M520.509,-112.083C519.714,-104.927 518.571,-94.6353 517.577,-85.6911"/>
<polygon fill="midnightblue" stroke="midnightblue" points="521.055,-85.3034 516.472,-75.7511 514.098,-86.0765 521.055,-85.3034"/>
</g>
<!-- Node14 -->
<g id="node15" class="node"><title>Node14</title>
<g id="a_node15"><a xlink:href="_etat_8h.html" target="_top" xlink:title="../../Engine/Etat.h">
<polygon fill="none" stroke="black" points="660.5,-56.5 660.5,-75.5 754.5,-75.5 754.5,-56.5 660.5,-56.5"/>
<text text-anchor="middle" x="707.5" y="-63.5" font-family="Helvetica,sans-Serif" font-size="10.00">../../Engine/Etat.h</text>
</a>
</g>
</g>
<!-- Node13&#45;&gt;Node14 -->
<g id="edge15" class="edge"><title>Node13&#45;&gt;Node14</title>
<path fill="none" stroke="midnightblue" d="M549.749,-112.799C581.291,-103.641 632.558,-88.7572 668.047,-78.454"/>
<polygon fill="midnightblue" stroke="midnightblue" points="669.434,-81.6961 678.061,-75.5467 667.482,-74.9736 669.434,-81.6961"/>
</g>
<!-- Node14&#45;&gt;Node7 -->
<g id="edge16" class="edge"><title>Node14&#45;&gt;Node7</title>
<path fill="none" stroke="midnightblue" d="M728.733,-56.4435C750.884,-47.5171 785.819,-33.4387 810.936,-23.3168"/>
<polygon fill="midnightblue" stroke="midnightblue" points="812.4,-26.5006 820.367,-19.5164 809.783,-20.0079 812.4,-26.5006"/>
</g>
<!-- Node15&#45;&gt;Node7 -->
<g id="edge18" class="edge"><title>Node15&#45;&gt;Node7</title>
<path fill="none" stroke="midnightblue" d="M742.739,-168.35C761.14,-161.014 785.693,-148.96 802.5,-132 830.243,-104.004 838.258,-56.1892 840.569,-29.8271"/>
<polygon fill="midnightblue" stroke="midnightblue" points="844.073,-29.8828 841.265,-19.6668 837.089,-29.404 844.073,-29.8828"/>
</g>
<!-- Node15&#45;&gt;Node12 -->
<g id="edge28" class="edge"><title>Node15&#45;&gt;Node12</title>
<path fill="none" stroke="midnightblue" d="M665.265,-171.305C640.086,-165.633 612.041,-154.361 596.5,-132 586.405,-117.476 585.451,-77.5543 603.5,-56 610.462,-47.6864 668.385,-31.4675 708.878,-20.9412"/>
<polygon fill="midnightblue" stroke="midnightblue" points="709.945,-24.2806 718.755,-18.396 708.198,-17.502 709.945,-24.2806"/>
</g>
<!-- Node15&#45;&gt;Node14 -->
<g id="edge20" class="edge"><title>Node15&#45;&gt;Node14</title>
<path fill="none" stroke="midnightblue" d="M715.305,-168.445C713.111,-159.445 709.871,-144.834 708.5,-132 706.85,-116.55 706.686,-98.919 706.886,-85.9209"/>
<polygon fill="midnightblue" stroke="midnightblue" points="710.386,-85.9436 707.128,-75.8623 703.388,-85.7753 710.386,-85.9436"/>
</g>
<!-- Node16 -->
<g id="node17" class="node"><title>Node16</title>
<polygon fill="none" stroke="#bfbfbf" points="780.5,-56.5 780.5,-75.5 822.5,-75.5 822.5,-56.5 780.5,-56.5"/>
<text text-anchor="middle" x="801.5" y="-63.5" font-family="Helvetica,sans-Serif" font-size="10.00">vector</text>
</g>
<!-- Node15&#45;&gt;Node16 -->
<g id="edge19" class="edge"><title>Node15&#45;&gt;Node16</title>
<path fill="none" stroke="midnightblue" d="M736.398,-168.373C751.018,-160.773 770.698,-148.364 782.5,-132 792.279,-118.441 797.056,-99.8923 799.371,-86.0791"/>
<polygon fill="midnightblue" stroke="midnightblue" points="802.889,-86.1886 800.793,-75.8033 795.955,-85.2294 802.889,-86.1886"/>
</g>
<!-- Node17 -->
<g id="node18" class="node"><title>Node17</title>
<g id="a_node18"><a xlink:href="_groupe_8h.html" target="_top" xlink:title="Groupe.h">
<polygon fill="none" stroke="black" points="717.5,-112.5 717.5,-131.5 773.5,-131.5 773.5,-112.5 717.5,-112.5"/>
<text text-anchor="middle" x="745.5" y="-119.5" font-family="Helvetica,sans-Serif" font-size="10.00">Groupe.h</text>
</a>
</g>
</g>
<!-- Node15&#45;&gt;Node17 -->
<g id="edge21" class="edge"><title>Node15&#45;&gt;Node17</title>
<path fill="none" stroke="midnightblue" d="M722.124,-168.083C725.956,-160.691 731.524,-149.953 736.265,-140.811"/>
<polygon fill="midnightblue" stroke="midnightblue" points="739.466,-142.24 740.962,-131.751 733.252,-139.018 739.466,-142.24"/>
</g>
<!-- Node18 -->
<g id="node19" class="node"><title>Node18</title>
<g id="a_node19"><a xlink:href="_history_8h.html" target="_top" xlink:title="History.h">
<polygon fill="none" stroke="black" points="605.5,-112.5 605.5,-131.5 661.5,-131.5 661.5,-112.5 605.5,-112.5"/>
<text text-anchor="middle" x="633.5" y="-119.5" font-family="Helvetica,sans-Serif" font-size="10.00">History.h</text>
</a>
</g>
</g>
<!-- Node15&#45;&gt;Node18 -->
<g id="edge24" class="edge"><title>Node15&#45;&gt;Node18</title>
<path fill="none" stroke="midnightblue" d="M704.004,-168.324C690.9,-159.9 670.788,-146.971 655.393,-137.074"/>
<polygon fill="midnightblue" stroke="midnightblue" points="657.267,-134.118 646.963,-131.655 653.482,-140.006 657.267,-134.118"/>
</g>
<!-- Node17&#45;&gt;Node14 -->
<g id="edge23" class="edge"><title>Node17&#45;&gt;Node14</title>
<path fill="none" stroke="midnightblue" d="M739.225,-112.083C733.858,-104.455 725.982,-93.2645 719.421,-83.9408"/>
<polygon fill="midnightblue" stroke="midnightblue" points="722.275,-81.9149 713.658,-75.7511 716.551,-85.9434 722.275,-81.9149"/>
</g>
<!-- Node17&#45;&gt;Node16 -->
<g id="edge22" class="edge"><title>Node17&#45;&gt;Node16</title>
<path fill="none" stroke="midnightblue" d="M754.497,-112.324C762.694,-104.42 775.006,-92.5482 784.972,-82.9377"/>
<polygon fill="midnightblue" stroke="midnightblue" points="787.57,-85.2947 792.339,-75.8339 782.711,-80.2558 787.57,-85.2947"/>
</g>
<!-- Node18&#45;&gt;Node2 -->
<g id="edge25" class="edge"><title>Node18&#45;&gt;Node2</title>
<path fill="none" stroke="midnightblue" d="M614.803,-112.444C595.556,-103.636 565.348,-89.8116 543.3,-79.722"/>
<polygon fill="midnightblue" stroke="midnightblue" points="544.66,-76.4951 534.11,-75.5164 541.747,-82.8603 544.66,-76.4951"/>
</g>
<!-- Node18&#45;&gt;Node14 -->
<g id="edge26" class="edge"><title>Node18&#45;&gt;Node14</title>
<path fill="none" stroke="midnightblue" d="M645.389,-112.324C656.65,-104.107 673.787,-91.6017 687.209,-81.8069"/>
<polygon fill="midnightblue" stroke="midnightblue" points="689.38,-84.5559 695.394,-75.8339 685.253,-78.9014 689.38,-84.5559"/>
</g>
<!-- Node19 -->
<g id="node20" class="node"><title>Node19</title>
<polygon fill="none" stroke="#bfbfbf" points="613,-56.5 613,-75.5 642,-75.5 642,-56.5 613,-56.5"/>
<text text-anchor="middle" x="627.5" y="-63.5" font-family="Helvetica,sans-Serif" font-size="10.00">list</text>
</g>
<!-- Node18&#45;&gt;Node19 -->
<g id="edge27" class="edge"><title>Node18&#45;&gt;Node19</title>
<path fill="none" stroke="midnightblue" d="M632.509,-112.083C631.714,-104.927 630.571,-94.6353 629.577,-85.6911"/>
<polygon fill="midnightblue" stroke="midnightblue" points="633.055,-85.3034 628.472,-75.7511 626.098,-86.0765 633.055,-85.3034"/>
</g>
<!-- Node20&#45;&gt;Node7 -->
<g id="edge31" class="edge"><title>Node20&#45;&gt;Node7</title>
<path fill="none" stroke="midnightblue" d="M785.125,-224.414C791.684,-215.626 801.703,-201.398 808.5,-188 832.481,-140.727 840.247,-128.194 849.5,-76 852.232,-60.5872 849.712,-42.9533 846.799,-29.9447"/>
<polygon fill="midnightblue" stroke="midnightblue" points="850.099,-28.7161 844.259,-19.8757 843.311,-30.428 850.099,-28.7161"/>
</g>
<!-- Node20&#45;&gt;Node15 -->
<g id="edge30" class="edge"><title>Node20&#45;&gt;Node15</title>
<path fill="none" stroke="midnightblue" d="M768.699,-224.324C759.682,-216.341 746.094,-204.313 735.182,-194.653"/>
<polygon fill="midnightblue" stroke="midnightblue" points="737.287,-191.842 727.479,-187.834 732.647,-197.083 737.287,-191.842"/>
</g>
<!-- Node20&#45;&gt;Node16 -->
<g id="edge32" class="edge"><title>Node20&#45;&gt;Node16</title>
<path fill="none" stroke="midnightblue" d="M781.242,-224.475C786.626,-207.237 798.41,-166.906 802.5,-132 803.535,-123.172 802.599,-120.888 802.5,-112 802.404,-103.396 802.206,-93.8686 802.011,-85.8037"/>
<polygon fill="midnightblue" stroke="midnightblue" points="805.505,-85.5323 801.749,-75.6259 798.508,-85.7128 805.505,-85.5323"/>
</g>
</g>
</svg>
