<?xml version="1.0" encoding="UTF-8" standalone="no"?>
<!DOCTYPE svg PUBLIC "-//W3C//DTD SVG 1.1//EN"
 "http://www.w3.org/Graphics/SVG/1.1/DTD/svg11.dtd">
<!-- Generated by graphviz version 2.38.0 (20140413.2041)
 -->
<!-- Title: D:/Users/Victor/OneDrive/Documents/Visual Studio 2017/Projects/Jeu_de_Go/Jeu_de_Go/Sources/Graphics/Choice.cpp Pages: 1 -->
<svg width="978pt" height="520pt"
 viewBox="0.00 0.00 977.50 520.00" xmlns="http://www.w3.org/2000/svg" xmlns:xlink="http://www.w3.org/1999/xlink">
<g id="graph0" class="graph" transform="scale(1 1) rotate(0) translate(4 516)">
<title>D:/Users/Victor/OneDrive/Documents/Visual Studio 2017/Projects/Jeu_de_Go/Jeu_de_Go/Sources/Graphics/Choice.cpp</title>
<!-- Node0 -->
<g id="node1" class="node"><title>Node0</title>
<polygon fill="#bfbfbf" stroke="black" points="354,-448.5 354,-511.5 503,-511.5 503,-448.5 354,-448.5"/>
<text text-anchor="start" x="362" y="-499.5" font-family="Helvetica,sans-Serif" font-size="10.00">D:/Users/Victor/OneDrive</text>
<text text-anchor="start" x="362" y="-488.5" font-family="Helvetica,sans-Serif" font-size="10.00">/Documents/Visual Studio</text>
<text text-anchor="start" x="362" y="-477.5" font-family="Helvetica,sans-Serif" font-size="10.00"> 2017/Projects/Jeu_de_Go</text>
<text text-anchor="start" x="362" y="-466.5" font-family="Helvetica,sans-Serif" font-size="10.00">/Jeu_de_Go/Sources/Graphics</text>
<text text-anchor="middle" x="428.5" y="-455.5" font-family="Helvetica,sans-Serif" font-size="10.00">/Choice.cpp</text>
</g>
<!-- Node1 -->
<g id="node2" class="node"><title>Node1</title>
<g id="a_node2"><a xlink:href="_choice_8h.html" target="_top" xlink:title="Choice.h">
<polygon fill="none" stroke="black" points="401,-392.5 401,-411.5 456,-411.5 456,-392.5 401,-392.5"/>
<text text-anchor="middle" x="428.5" y="-399.5" font-family="Helvetica,sans-Serif" font-size="10.00">Choice.h</text>
</a>
</g>
</g>
<!-- Node0&#45;&gt;Node1 -->
<g id="edge1" class="edge"><title>Node0&#45;&gt;Node1</title>
<path fill="none" stroke="midnightblue" d="M428.5,-448.088C428.5,-439.15 428.5,-429.669 428.5,-421.719"/>
<polygon fill="midnightblue" stroke="midnightblue" points="432,-421.718 428.5,-411.718 425,-421.718 432,-421.718"/>
</g>
<!-- Node2 -->
<g id="node3" class="node"><title>Node2</title>
<g id="a_node3"><a xlink:href="_globals_8h.html" target="_top" xlink:title="Globals.h">
<polygon fill="none" stroke="black" points="399.5,-56.5 399.5,-75.5 457.5,-75.5 457.5,-56.5 399.5,-56.5"/>
<text text-anchor="middle" x="428.5" y="-63.5" font-family="Helvetica,sans-Serif" font-size="10.00">Globals.h</text>
</a>
</g>
</g>
<!-- Node1&#45;&gt;Node2 -->
<g id="edge2" class="edge"><title>Node1&#45;&gt;Node2</title>
<path fill="none" stroke="midnightblue" d="M400.662,-393.977C357.79,-381.298 280.5,-350.226 280.5,-291 280.5,-291 280.5,-291 280.5,-177 280.5,-122.533 345.867,-91.8782 389.717,-77.4414"/>
<polygon fill="midnightblue" stroke="midnightblue" points="390.77,-80.7794 399.26,-74.4409 388.671,-74.1017 390.77,-80.7794"/>
</g>
<!-- Node7 -->
<g id="node8" class="node"><title>Node7</title>
<polygon fill="none" stroke="#bfbfbf" points="797.5,-0.5 797.5,-19.5 851.5,-19.5 851.5,-0.5 797.5,-0.5"/>
<text text-anchor="middle" x="824.5" y="-7.5" font-family="Helvetica,sans-Serif" font-size="10.00">iostream</text>
</g>
<!-- Node1&#45;&gt;Node7 -->
<g id="edge15" class="edge"><title>Node1&#45;&gt;Node7</title>
<path fill="none" stroke="midnightblue" d="M456.072,-401.333C566.317,-401.938 969.5,-396.909 969.5,-291 969.5,-291 969.5,-291 969.5,-121 969.5,-66.7686 904.325,-35.8114 861.366,-21.2968"/>
<polygon fill="midnightblue" stroke="midnightblue" points="862.365,-17.9413 851.773,-18.201 860.215,-24.603 862.365,-17.9413"/>
</g>
<!-- Node9 -->
<g id="node10" class="node"><title>Node9</title>
<polygon fill="none" stroke="#bfbfbf" points="0,-0.5 0,-19.5 41,-19.5 41,-0.5 0,-0.5"/>
<text text-anchor="middle" x="20.5" y="-7.5" font-family="Helvetica,sans-Serif" font-size="10.00">string</text>
</g>
<!-- Node1&#45;&gt;Node9 -->
<g id="edge13" class="edge"><title>Node1&#45;&gt;Node9</title>
<path fill="none" stroke="midnightblue" d="M400.902,-398.29C318.593,-389.451 80.5,-358.086 80.5,-291 80.5,-291 80.5,-291 80.5,-121 80.5,-83.8832 53.8464,-47.3784 36.0686,-27.1581"/>
<polygon fill="midnightblue" stroke="midnightblue" points="38.4282,-24.552 29.0965,-19.5349 33.2628,-29.2762 38.4282,-24.552"/>
</g>
<!-- Node13 -->
<g id="node14" class="node"><title>Node13</title>
<polygon fill="none" stroke="#bfbfbf" points="505.5,-336.5 505.5,-355.5 563.5,-355.5 563.5,-336.5 505.5,-336.5"/>
<text text-anchor="middle" x="534.5" y="-343.5" font-family="Helvetica,sans-Serif" font-size="10.00">functional</text>
</g>
<!-- Node1&#45;&gt;Node13 -->
<g id="edge14" class="edge"><title>Node1&#45;&gt;Node13</title>
<path fill="none" stroke="midnightblue" d="M445.531,-392.324C462.53,-383.664 488.876,-370.242 508.493,-360.249"/>
<polygon fill="midnightblue" stroke="midnightblue" points="510.19,-363.312 517.512,-355.655 507.012,-357.075 510.19,-363.312"/>
</g>
<!-- Node14 -->
<g id="node15" class="node"><title>Node14</title>
<g id="a_node15"><a xlink:href="_game__window_8h.html" target="_top" xlink:title="Game/Game_window.h">
<polygon fill="none" stroke="black" points="370,-336.5 370,-355.5 487,-355.5 487,-336.5 370,-336.5"/>
<text text-anchor="middle" x="428.5" y="-343.5" font-family="Helvetica,sans-Serif" font-size="10.00">Game/Game_window.h</text>
</a>
</g>
</g>
<!-- Node1&#45;&gt;Node14 -->
<g id="edge16" class="edge"><title>Node1&#45;&gt;Node14</title>
<path fill="none" stroke="midnightblue" d="M428.5,-392.083C428.5,-385.006 428.5,-374.861 428.5,-365.986"/>
<polygon fill="midnightblue" stroke="midnightblue" points="432,-365.751 428.5,-355.751 425,-365.751 432,-365.751"/>
</g>
<!-- Node3 -->
<g id="node4" class="node"><title>Node3</title>
<polygon fill="none" stroke="#bfbfbf" points="59.5,-0.5 59.5,-19.5 163.5,-19.5 163.5,-0.5 59.5,-0.5"/>
<text text-anchor="middle" x="111.5" y="-7.5" font-family="Helvetica,sans-Serif" font-size="10.00">SFML/Graphics.hpp</text>
</g>
<!-- Node2&#45;&gt;Node3 -->
<g id="edge3" class="edge"><title>Node2&#45;&gt;Node3</title>
<path fill="none" stroke="midnightblue" d="M399.246,-60.0166C347.709,-51.2375 239.764,-32.8494 171.726,-21.2593"/>
<polygon fill="midnightblue" stroke="midnightblue" points="172.022,-17.7594 161.577,-19.5304 170.847,-24.66 172.022,-17.7594"/>
</g>
<!-- Node4 -->
<g id="node5" class="node"><title>Node4</title>
<polygon fill="none" stroke="#bfbfbf" points="603.5,-0.5 603.5,-19.5 701.5,-19.5 701.5,-0.5 603.5,-0.5"/>
<text text-anchor="middle" x="652.5" y="-7.5" font-family="Helvetica,sans-Serif" font-size="10.00">SFML/System.hpp</text>
</g>
<!-- Node2&#45;&gt;Node4 -->
<g id="edge4" class="edge"><title>Node2&#45;&gt;Node4</title>
<path fill="none" stroke="midnightblue" d="M457.784,-57.9404C495.741,-48.7901 562.335,-32.7362 606.929,-21.9859"/>
<polygon fill="midnightblue" stroke="midnightblue" points="608.024,-25.3222 616.925,-19.576 606.384,-18.5172 608.024,-25.3222"/>
</g>
<!-- Node5 -->
<g id="node6" class="node"><title>Node5</title>
<polygon fill="none" stroke="#bfbfbf" points="182,-0.5 182,-19.5 281,-19.5 281,-0.5 182,-0.5"/>
<text text-anchor="middle" x="231.5" y="-7.5" font-family="Helvetica,sans-Serif" font-size="10.00">SFML/Window.hpp</text>
</g>
<!-- Node2&#45;&gt;Node5 -->
<g id="edge5" class="edge"><title>Node2&#45;&gt;Node5</title>
<path fill="none" stroke="midnightblue" d="M399.432,-57.0321C365.831,-47.8216 310.297,-32.5991 272.361,-22.2004"/>
<polygon fill="midnightblue" stroke="midnightblue" points="273.21,-18.8042 262.64,-19.536 271.359,-25.5551 273.21,-18.8042"/>
</g>
<!-- Node6 -->
<g id="node7" class="node"><title>Node6</title>
<polygon fill="none" stroke="#bfbfbf" points="299,-0.5 299,-19.5 388,-19.5 388,-0.5 299,-0.5"/>
<text text-anchor="middle" x="343.5" y="-7.5" font-family="Helvetica,sans-Serif" font-size="10.00">SFML/Audio.hpp</text>
</g>
<!-- Node2&#45;&gt;Node6 -->
<g id="edge6" class="edge"><title>Node2&#45;&gt;Node6</title>
<path fill="none" stroke="midnightblue" d="M414.843,-56.324C401.584,-47.9002 381.232,-34.9709 365.654,-25.0741"/>
<polygon fill="midnightblue" stroke="midnightblue" points="367.44,-22.0626 357.123,-19.6545 363.687,-27.9711 367.44,-22.0626"/>
</g>
<!-- Node2&#45;&gt;Node7 -->
<g id="edge7" class="edge"><title>Node2&#45;&gt;Node7</title>
<path fill="none" stroke="midnightblue" d="M457.615,-62.5617C517.533,-57.2874 659.095,-43.5078 787.447,-19.9919"/>
<polygon fill="midnightblue" stroke="midnightblue" points="788.257,-23.4014 797.45,-18.1342 786.979,-16.5191 788.257,-23.4014"/>
</g>
<!-- Node8 -->
<g id="node9" class="node"><title>Node8</title>
<polygon fill="none" stroke="#bfbfbf" points="406,-0.5 406,-19.5 451,-19.5 451,-0.5 406,-0.5"/>
<text text-anchor="middle" x="428.5" y="-7.5" font-family="Helvetica,sans-Serif" font-size="10.00">cstdlib</text>
</g>
<!-- Node2&#45;&gt;Node8 -->
<g id="edge8" class="edge"><title>Node2&#45;&gt;Node8</title>
<path fill="none" stroke="midnightblue" d="M428.5,-56.083C428.5,-49.0059 428.5,-38.8611 428.5,-29.9865"/>
<polygon fill="midnightblue" stroke="midnightblue" points="432,-29.751 428.5,-19.7511 425,-29.7511 432,-29.751"/>
</g>
<!-- Node2&#45;&gt;Node9 -->
<g id="edge9" class="edge"><title>Node2&#45;&gt;Node9</title>
<path fill="none" stroke="midnightblue" d="M399.296,-63.2504C337.021,-59.1528 186.527,-47.2997 51.1685,-19.7679"/>
<polygon fill="midnightblue" stroke="midnightblue" points="51.5384,-16.2704 41.0366,-17.6714 50.1199,-23.1251 51.5384,-16.2704"/>
</g>
<!-- Node10 -->
<g id="node11" class="node"><title>Node10</title>
<polygon fill="none" stroke="#bfbfbf" points="469,-0.5 469,-19.5 518,-19.5 518,-0.5 469,-0.5"/>
<text text-anchor="middle" x="493.5" y="-7.5" font-family="Helvetica,sans-Serif" font-size="10.00">fstream</text>
</g>
<!-- Node2&#45;&gt;Node10 -->
<g id="edge10" class="edge"><title>Node2&#45;&gt;Node10</title>
<path fill="none" stroke="midnightblue" d="M438.943,-56.324C448.646,-48.2631 463.315,-36.0765 475,-26.3695"/>
<polygon fill="midnightblue" stroke="midnightblue" points="477.411,-28.9163 482.867,-19.8339 472.938,-23.532 477.411,-28.9163"/>
</g>
<!-- Node11 -->
<g id="node12" class="node"><title>Node11</title>
<polygon fill="none" stroke="#bfbfbf" points="536,-0.5 536,-19.5 585,-19.5 585,-0.5 536,-0.5"/>
<text text-anchor="middle" x="560.5" y="-7.5" font-family="Helvetica,sans-Serif" font-size="10.00">cassert</text>
</g>
<!-- Node2&#45;&gt;Node11 -->
<g id="edge11" class="edge"><title>Node2&#45;&gt;Node11</title>
<path fill="none" stroke="midnightblue" d="M449.416,-56.4435C471.236,-47.5171 505.65,-33.4387 530.392,-23.3168"/>
<polygon fill="midnightblue" stroke="midnightblue" points="531.752,-26.5422 539.682,-19.5164 529.101,-20.0634 531.752,-26.5422"/>
</g>
<!-- Node12 -->
<g id="node13" class="node"><title>Node12</title>
<polygon fill="none" stroke="#bfbfbf" points="720,-0.5 720,-19.5 779,-19.5 779,-0.5 720,-0.5"/>
<text text-anchor="middle" x="749.5" y="-7.5" font-family="Helvetica,sans-Serif" font-size="10.00">stdexcept</text>
</g>
<!-- Node2&#45;&gt;Node12 -->
<g id="edge12" class="edge"><title>Node2&#45;&gt;Node12</title>
<path fill="none" stroke="midnightblue" d="M457.846,-60.9936C507.527,-54.0653 611.563,-38.9301 709.652,-20.0487"/>
<polygon fill="midnightblue" stroke="midnightblue" points="710.585,-23.4328 719.734,-18.0902 709.25,-16.5613 710.585,-23.4328"/>
</g>
<!-- Node14&#45;&gt;Node2 -->
<g id="edge17" class="edge"><title>Node14&#45;&gt;Node2</title>
<path fill="none" stroke="midnightblue" d="M423.895,-336.231C408.045,-304.823 358.394,-195.388 389.5,-112 393.673,-100.812 402.02,-90.5598 409.924,-82.6759"/>
<polygon fill="midnightblue" stroke="midnightblue" points="412.562,-85.0029 417.51,-75.6346 407.799,-79.8724 412.562,-85.0029"/>
</g>
<!-- Node15 -->
<g id="node16" class="node"><title>Node15</title>
<g id="a_node16"><a xlink:href="_board_8h.html" target="_top" xlink:title="Board.h">
<polygon fill="none" stroke="black" points="512.5,-280.5 512.5,-299.5 562.5,-299.5 562.5,-280.5 512.5,-280.5"/>
<text text-anchor="middle" x="537.5" y="-287.5" font-family="Helvetica,sans-Serif" font-size="10.00">Board.h</text>
</a>
</g>
</g>
<!-- Node14&#45;&gt;Node15 -->
<g id="edge18" class="edge"><title>Node14&#45;&gt;Node15</title>
<path fill="none" stroke="midnightblue" d="M446.013,-336.324C463.572,-327.625 490.831,-314.12 511.031,-304.113"/>
<polygon fill="midnightblue" stroke="midnightblue" points="512.624,-307.23 520.031,-299.655 509.516,-300.958 512.624,-307.23"/>
</g>
<!-- Node18 -->
<g id="node19" class="node"><title>Node18</title>
<g id="a_node19"><a xlink:href="_goban_8h.html" target="_top" xlink:title="../../Engine/Goban.h">
<polygon fill="none" stroke="black" points="651.5,-168.5 651.5,-187.5 755.5,-187.5 755.5,-168.5 651.5,-168.5"/>
<text text-anchor="middle" x="703.5" y="-175.5" font-family="Helvetica,sans-Serif" font-size="10.00">../../Engine/Goban.h</text>
</a>
</g>
</g>
<!-- Node14&#45;&gt;Node18 -->
<g id="edge49" class="edge"><title>Node14&#45;&gt;Node18</title>
<path fill="none" stroke="midnightblue" d="M475.069,-336.461C504.294,-329.669 541.911,-318.214 571.5,-300 611.647,-275.286 610.347,-255.414 645.5,-224 657.616,-213.172 672.051,-201.968 683.489,-193.447"/>
<polygon fill="midnightblue" stroke="midnightblue" points="685.583,-196.252 691.563,-187.506 681.434,-190.614 685.583,-196.252"/>
</g>
<!-- Node23 -->
<g id="node24" class="node"><title>Node23</title>
<g id="a_node24"><a xlink:href="_arbre_8h.html" target="_top" xlink:title="../../Engine/Arbre.h">
<polygon fill="none" stroke="black" points="654,-224.5 654,-243.5 753,-243.5 753,-224.5 654,-224.5"/>
<text text-anchor="middle" x="703.5" y="-231.5" font-family="Helvetica,sans-Serif" font-size="10.00">../../Engine/Arbre.h</text>
</a>
</g>
</g>
<!-- Node14&#45;&gt;Node23 -->
<g id="edge45" class="edge"><title>Node14&#45;&gt;Node23</title>
<path fill="none" stroke="midnightblue" d="M485.092,-336.469C537.666,-327.892 611.615,-313.971 637.5,-300 659.505,-288.123 679.127,-266.696 691.143,-251.7"/>
<polygon fill="midnightblue" stroke="midnightblue" points="693.953,-253.788 697.299,-243.735 688.414,-249.507 693.953,-253.788"/>
</g>
<!-- Node24 -->
<g id="node25" class="node"><title>Node24</title>
<g id="a_node25"><a xlink:href="_infos_8h.html" target="_top" xlink:title="Infos.h">
<polygon fill="none" stroke="black" points="406,-168.5 406,-187.5 451,-187.5 451,-168.5 406,-168.5"/>
<text text-anchor="middle" x="428.5" y="-175.5" font-family="Helvetica,sans-Serif" font-size="10.00">Infos.h</text>
</a>
</g>
</g>
<!-- Node14&#45;&gt;Node24 -->
<g id="edge40" class="edge"><title>Node14&#45;&gt;Node24</title>
<path fill="none" stroke="midnightblue" d="M428.5,-336.075C428.5,-309.945 428.5,-233.211 428.5,-197.577"/>
<polygon fill="midnightblue" stroke="midnightblue" points="432,-197.568 428.5,-187.568 425,-197.568 432,-197.568"/>
</g>
<!-- Node26 -->
<g id="node27" class="node"><title>Node26</title>
<g id="a_node27"><a xlink:href="_screen_8h.html" target="_top" xlink:title="../Screen.h">
<polygon fill="none" stroke="black" points="187,-112.5 187,-131.5 252,-131.5 252,-112.5 187,-112.5"/>
<text text-anchor="middle" x="219.5" y="-119.5" font-family="Helvetica,sans-Serif" font-size="10.00">../Screen.h</text>
</a>
</g>
</g>
<!-- Node14&#45;&gt;Node26 -->
<g id="edge46" class="edge"><title>Node14&#45;&gt;Node26</title>
<path fill="none" stroke="midnightblue" d="M405.108,-336.384C386.676,-328.791 361.077,-316.385 342.5,-300 288.328,-252.22 245.918,-175.86 228.332,-141.186"/>
<polygon fill="midnightblue" stroke="midnightblue" points="231.272,-139.237 223.685,-131.841 225.004,-142.354 231.272,-139.237"/>
</g>
<!-- Node15&#45;&gt;Node2 -->
<g id="edge19" class="edge"><title>Node15&#45;&gt;Node2</title>
<path fill="none" stroke="midnightblue" d="M534.526,-280.194C525.438,-253.781 496.51,-173.265 461.5,-112 455.852,-102.116 448.437,-91.8257 442.066,-83.5837"/>
<polygon fill="midnightblue" stroke="midnightblue" points="444.656,-81.2163 435.697,-75.5605 439.173,-85.5687 444.656,-81.2163"/>
</g>
<!-- Node16 -->
<g id="node17" class="node"><title>Node16</title>
<g id="a_node17"><a xlink:href="_square_8h.html" target="_top" xlink:title="Square.h">
<polygon fill="none" stroke="black" points="509.5,-112.5 509.5,-131.5 565.5,-131.5 565.5,-112.5 509.5,-112.5"/>
<text text-anchor="middle" x="537.5" y="-119.5" font-family="Helvetica,sans-Serif" font-size="10.00">Square.h</text>
</a>
</g>
</g>
<!-- Node15&#45;&gt;Node16 -->
<g id="edge20" class="edge"><title>Node15&#45;&gt;Node16</title>
<path fill="none" stroke="midnightblue" d="M537.5,-280.075C537.5,-253.945 537.5,-177.211 537.5,-141.577"/>
<polygon fill="midnightblue" stroke="midnightblue" points="541,-141.568 537.5,-131.568 534,-141.568 541,-141.568"/>
</g>
<!-- Node15&#45;&gt;Node18 -->
<g id="edge24" class="edge"><title>Node15&#45;&gt;Node18</title>
<path fill="none" stroke="midnightblue" d="M545.688,-280.123C558.389,-266.717 584.039,-241.063 609.5,-224 629.083,-210.877 653.08,-199.455 671.927,-191.403"/>
<polygon fill="midnightblue" stroke="midnightblue" points="673.381,-194.589 681.262,-187.508 670.686,-188.128 673.381,-194.589"/>
</g>
<!-- Node15&#45;&gt;Node23 -->
<g id="edge36" class="edge"><title>Node15&#45;&gt;Node23</title>
<path fill="none" stroke="midnightblue" d="M562.712,-280.799C590.62,-271.72 635.832,-257.012 667.471,-246.72"/>
<polygon fill="midnightblue" stroke="midnightblue" points="668.8,-249.969 677.227,-243.547 666.635,-243.312 668.8,-249.969"/>
</g>
<!-- Node16&#45;&gt;Node2 -->
<g id="edge21" class="edge"><title>Node16&#45;&gt;Node2</title>
<path fill="none" stroke="midnightblue" d="M519.987,-112.324C502.428,-103.625 475.169,-90.1202 454.969,-80.113"/>
<polygon fill="midnightblue" stroke="midnightblue" points="456.484,-76.9575 445.969,-75.6545 453.376,-83.23 456.484,-76.9575"/>
</g>
<!-- Node17 -->
<g id="node18" class="node"><title>Node17</title>
<g id="a_node18"><a xlink:href="_etat_8h.html" target="_top" xlink:title="../../Engine/Etat.h">
<polygon fill="none" stroke="black" points="669.5,-56.5 669.5,-75.5 763.5,-75.5 763.5,-56.5 669.5,-56.5"/>
<text text-anchor="middle" x="716.5" y="-63.5" font-family="Helvetica,sans-Serif" font-size="10.00">../../Engine/Etat.h</text>
</a>
</g>
</g>
<!-- Node16&#45;&gt;Node17 -->
<g id="edge22" class="edge"><title>Node16&#45;&gt;Node17</title>
<path fill="none" stroke="midnightblue" d="M565.863,-112.444C596.238,-103.28 644.61,-88.6876 678.316,-78.5192"/>
<polygon fill="midnightblue" stroke="midnightblue" points="679.707,-81.7555 688.27,-75.5164 677.685,-75.0538 679.707,-81.7555"/>
</g>
<!-- Node17&#45;&gt;Node7 -->
<g id="edge23" class="edge"><title>Node17&#45;&gt;Node7</title>
<path fill="none" stroke="midnightblue" d="M733.852,-56.324C751.172,-47.6641 778.015,-34.2424 798.002,-24.249"/>
<polygon fill="midnightblue" stroke="midnightblue" points="799.812,-27.2572 807.191,-19.6545 796.681,-20.9962 799.812,-27.2572"/>
</g>
<!-- Node18&#45;&gt;Node7 -->
<g id="edge25" class="edge"><title>Node18&#45;&gt;Node7</title>
<path fill="none" stroke="midnightblue" d="M710.005,-168.075C729.382,-141.493 786.933,-62.5379 812.281,-27.7633"/>
<polygon fill="midnightblue" stroke="midnightblue" points="815.193,-29.7108 818.255,-19.5681 809.536,-25.5875 815.193,-29.7108"/>
</g>
<!-- Node18&#45;&gt;Node12 -->
<g id="edge35" class="edge"><title>Node18&#45;&gt;Node12</title>
<path fill="none" stroke="midnightblue" d="M665.532,-168.411C646.092,-161.883 624.124,-150.715 612.5,-132 604.938,-119.825 593.816,-82.7403 613.5,-56 619.455,-47.9103 672.061,-32.1083 710.063,-21.5507"/>
<polygon fill="midnightblue" stroke="midnightblue" points="711.145,-24.8832 719.858,-18.8552 709.287,-18.1342 711.145,-24.8832"/>
</g>
<!-- Node18&#45;&gt;Node17 -->
<g id="edge27" class="edge"><title>Node18&#45;&gt;Node17</title>
<path fill="none" stroke="midnightblue" d="M704.52,-168.368C706.618,-150.617 711.458,-109.666 714.302,-85.5974"/>
<polygon fill="midnightblue" stroke="midnightblue" points="717.787,-85.9331 715.485,-75.5914 710.835,-85.1115 717.787,-85.9331"/>
</g>
<!-- Node19 -->
<g id="node20" class="node"><title>Node19</title>
<polygon fill="none" stroke="#bfbfbf" points="834.5,-56.5 834.5,-75.5 876.5,-75.5 876.5,-56.5 834.5,-56.5"/>
<text text-anchor="middle" x="855.5" y="-63.5" font-family="Helvetica,sans-Serif" font-size="10.00">vector</text>
</g>
<!-- Node18&#45;&gt;Node19 -->
<g id="edge26" class="edge"><title>Node18&#45;&gt;Node19</title>
<path fill="none" stroke="midnightblue" d="M755.77,-170.985C783.206,-165.236 815.41,-153.992 836.5,-132 848.315,-119.68 852.84,-100.427 854.543,-86.0681"/>
<polygon fill="midnightblue" stroke="midnightblue" points="858.054,-86.0819 855.39,-75.8275 851.078,-85.505 858.054,-86.0819"/>
</g>
<!-- Node20 -->
<g id="node21" class="node"><title>Node20</title>
<g id="a_node21"><a xlink:href="_groupe_8h.html" target="_top" xlink:title="Groupe.h">
<polygon fill="none" stroke="black" points="771.5,-112.5 771.5,-131.5 827.5,-131.5 827.5,-112.5 771.5,-112.5"/>
<text text-anchor="middle" x="799.5" y="-119.5" font-family="Helvetica,sans-Serif" font-size="10.00">Groupe.h</text>
</a>
</g>
</g>
<!-- Node18&#45;&gt;Node20 -->
<g id="edge28" class="edge"><title>Node18&#45;&gt;Node20</title>
<path fill="none" stroke="midnightblue" d="M718.924,-168.324C734.04,-159.822 757.315,-146.729 774.971,-136.797"/>
<polygon fill="midnightblue" stroke="midnightblue" points="777.114,-139.608 784.114,-131.655 773.683,-133.507 777.114,-139.608"/>
</g>
<!-- Node21 -->
<g id="node22" class="node"><title>Node21</title>
<g id="a_node22"><a xlink:href="_history_8h.html" target="_top" xlink:title="History.h">
<polygon fill="none" stroke="black" points="621.5,-112.5 621.5,-131.5 677.5,-131.5 677.5,-112.5 621.5,-112.5"/>
<text text-anchor="middle" x="649.5" y="-119.5" font-family="Helvetica,sans-Serif" font-size="10.00">History.h</text>
</a>
</g>
</g>
<!-- Node18&#45;&gt;Node21 -->
<g id="edge31" class="edge"><title>Node18&#45;&gt;Node21</title>
<path fill="none" stroke="midnightblue" d="M694.583,-168.083C686.72,-160.22 675.069,-148.569 665.581,-139.081"/>
<polygon fill="midnightblue" stroke="midnightblue" points="667.797,-136.347 658.251,-131.751 662.847,-141.297 667.797,-136.347"/>
</g>
<!-- Node20&#45;&gt;Node17 -->
<g id="edge30" class="edge"><title>Node20&#45;&gt;Node17</title>
<path fill="none" stroke="midnightblue" d="M786.165,-112.324C773.338,-103.979 753.715,-91.2122 738.56,-81.3524"/>
<polygon fill="midnightblue" stroke="midnightblue" points="740.093,-78.1742 729.802,-75.6545 736.276,-84.0417 740.093,-78.1742"/>
</g>
<!-- Node20&#45;&gt;Node19 -->
<g id="edge29" class="edge"><title>Node20&#45;&gt;Node19</title>
<path fill="none" stroke="midnightblue" d="M808.497,-112.324C816.694,-104.42 829.006,-92.5482 838.972,-82.9377"/>
<polygon fill="midnightblue" stroke="midnightblue" points="841.57,-85.2947 846.339,-75.8339 836.711,-80.2558 841.57,-85.2947"/>
</g>
<!-- Node21&#45;&gt;Node2 -->
<g id="edge32" class="edge"><title>Node21&#45;&gt;Node2</title>
<path fill="none" stroke="midnightblue" d="M621.061,-114.051C581.909,-104.484 511.269,-87.2242 467.295,-76.4794"/>
<polygon fill="midnightblue" stroke="midnightblue" points="468.077,-73.0675 457.532,-74.0938 466.415,-79.8675 468.077,-73.0675"/>
</g>
<!-- Node21&#45;&gt;Node17 -->
<g id="edge33" class="edge"><title>Node21&#45;&gt;Node17</title>
<path fill="none" stroke="midnightblue" d="M660.265,-112.324C670.266,-104.263 685.387,-92.0765 697.43,-82.3695"/>
<polygon fill="midnightblue" stroke="midnightblue" points="699.95,-84.8343 705.539,-75.8339 695.557,-79.3841 699.95,-84.8343"/>
</g>
<!-- Node22 -->
<g id="node23" class="node"><title>Node22</title>
<polygon fill="none" stroke="#bfbfbf" points="622,-56.5 622,-75.5 651,-75.5 651,-56.5 622,-56.5"/>
<text text-anchor="middle" x="636.5" y="-63.5" font-family="Helvetica,sans-Serif" font-size="10.00">list</text>
</g>
<!-- Node21&#45;&gt;Node22 -->
<g id="edge34" class="edge"><title>Node21&#45;&gt;Node22</title>
<path fill="none" stroke="midnightblue" d="M647.353,-112.083C645.631,-104.927 643.153,-94.6353 641,-85.6911"/>
<polygon fill="midnightblue" stroke="midnightblue" points="644.35,-84.6541 638.607,-75.7511 637.545,-86.2925 644.35,-84.6541"/>
</g>
<!-- Node23&#45;&gt;Node7 -->
<g id="edge38" class="edge"><title>Node23&#45;&gt;Node7</title>
<path fill="none" stroke="midnightblue" d="M743.633,-224.492C769.34,-217.649 802.454,-206.126 827.5,-188 853.142,-169.442 857.576,-160.426 871.5,-132 886.608,-101.155 900.982,-86.6591 885.5,-56 878.693,-42.5199 865.732,-32.083 853.502,-24.6696"/>
<polygon fill="midnightblue" stroke="midnightblue" points="854.843,-21.4099 844.406,-19.5896 851.43,-27.5214 854.843,-21.4099"/>
</g>
<!-- Node23&#45;&gt;Node18 -->
<g id="edge37" class="edge"><title>Node23&#45;&gt;Node18</title>
<path fill="none" stroke="midnightblue" d="M703.5,-224.083C703.5,-217.006 703.5,-206.861 703.5,-197.986"/>
<polygon fill="midnightblue" stroke="midnightblue" points="707,-197.751 703.5,-187.751 700,-197.751 707,-197.751"/>
</g>
<!-- Node23&#45;&gt;Node19 -->
<g id="edge39" class="edge"><title>Node23&#45;&gt;Node19</title>
<path fill="none" stroke="midnightblue" d="M729.812,-224.427C765.775,-211.117 828.851,-181.703 855.5,-132 863.082,-117.859 862.242,-99.3743 859.996,-85.7336"/>
<polygon fill="midnightblue" stroke="midnightblue" points="863.36,-84.7155 857.933,-75.6164 856.501,-86.1141 863.36,-84.7155"/>
</g>
<!-- Node24&#45;&gt;Node2 -->
<g id="edge41" class="edge"><title>Node24&#45;&gt;Node2</title>
<path fill="none" stroke="midnightblue" d="M419.212,-168.395C410.919,-160.025 399.356,-146.483 394.5,-132 388.655,-114.567 400.216,-96.1238 411.41,-83.3542"/>
<polygon fill="midnightblue" stroke="midnightblue" points="414.185,-85.5143 418.527,-75.8497 409.106,-80.6977 414.185,-85.5143"/>
</g>
<!-- Node24&#45;&gt;Node16 -->
<g id="edge42" class="edge"><title>Node24&#45;&gt;Node16</title>
<path fill="none" stroke="midnightblue" d="M446.013,-168.324C463.572,-159.625 490.831,-146.12 511.031,-136.113"/>
<polygon fill="midnightblue" stroke="midnightblue" points="512.624,-139.23 520.031,-131.655 509.516,-132.958 512.624,-139.23"/>
</g>
<!-- Node25 -->
<g id="node26" class="node"><title>Node25</title>
<g id="a_node26"><a xlink:href="_timer_8h.html" target="_top" xlink:title="Timer.h">
<polygon fill="none" stroke="black" points="404,-112.5 404,-131.5 453,-131.5 453,-112.5 404,-112.5"/>
<text text-anchor="middle" x="428.5" y="-119.5" font-family="Helvetica,sans-Serif" font-size="10.00">Timer.h</text>
</a>
</g>
</g>
<!-- Node24&#45;&gt;Node25 -->
<g id="edge43" class="edge"><title>Node24&#45;&gt;Node25</title>
<path fill="none" stroke="midnightblue" d="M428.5,-168.083C428.5,-161.006 428.5,-150.861 428.5,-141.986"/>
<polygon fill="midnightblue" stroke="midnightblue" points="432,-141.751 428.5,-131.751 425,-141.751 432,-141.751"/>
</g>
<!-- Node25&#45;&gt;Node2 -->
<g id="edge44" class="edge"><title>Node25&#45;&gt;Node2</title>
<path fill="none" stroke="midnightblue" d="M428.5,-112.083C428.5,-105.006 428.5,-94.8611 428.5,-85.9865"/>
<polygon fill="midnightblue" stroke="midnightblue" points="432,-85.751 428.5,-75.7511 425,-85.7511 432,-85.751"/>
</g>
<!-- Node26&#45;&gt;Node2 -->
<g id="edge48" class="edge"><title>Node26&#45;&gt;Node2</title>
<path fill="none" stroke="midnightblue" d="M252.156,-112.563C289.332,-102.957 350.02,-87.2771 389.61,-77.0482"/>
<polygon fill="midnightblue" stroke="midnightblue" points="390.633,-80.3988 399.439,-74.5085 388.882,-73.6214 390.633,-80.3988"/>
</g>
<!-- Node26&#45;&gt;Node3 -->
<g id="edge47" class="edge"><title>Node26&#45;&gt;Node3</title>
<path fill="none" stroke="midnightblue" d="M211.025,-112.368C192.887,-93.8941 150.078,-50.2926 126.957,-26.7436"/>
<polygon fill="midnightblue" stroke="midnightblue" points="129.439,-24.275 119.935,-19.5914 124.444,-29.1792 129.439,-24.275"/>
</g>
</g>
</svg>
