<?xml version="1.0" encoding="UTF-8" standalone="no"?>
<!DOCTYPE svg PUBLIC "-//W3C//DTD SVG 1.1//EN"
 "http://www.w3.org/Graphics/SVG/1.1/DTD/svg11.dtd">
<!-- Generated by graphviz version 2.38.0 (20140413.2041)
 -->
<!-- Title: D:/Users/Victor/OneDrive/Documents/Visual Studio 2017/Projects/Jeu_de_Go/Jeu_de_Go/Sources/Graphics/Game/Game_window.cpp Pages: 1 -->
<svg width="929pt" height="464pt"
 viewBox="0.00 0.00 928.82 464.00" xmlns="http://www.w3.org/2000/svg" xmlns:xlink="http://www.w3.org/1999/xlink">
<g id="graph0" class="graph" transform="scale(1 1) rotate(0) translate(4 460)">
<title>D:/Users/Victor/OneDrive/Documents/Visual Studio 2017/Projects/Jeu_de_Go/Jeu_de_Go/Sources/Graphics/Game/Game_window.cpp</title>
<!-- Node0 -->
<g id="node1" class="node"><title>Node0</title>
<polygon fill="#bfbfbf" stroke="black" points="329.316,-392.5 329.316,-455.5 478.316,-455.5 478.316,-392.5 329.316,-392.5"/>
<text text-anchor="start" x="337.316" y="-443.5" font-family="Helvetica,sans-Serif" font-size="10.00">D:/Users/Victor/OneDrive</text>
<text text-anchor="start" x="337.316" y="-432.5" font-family="Helvetica,sans-Serif" font-size="10.00">/Documents/Visual Studio</text>
<text text-anchor="start" x="337.316" y="-421.5" font-family="Helvetica,sans-Serif" font-size="10.00"> 2017/Projects/Jeu_de_Go</text>
<text text-anchor="start" x="337.316" y="-410.5" font-family="Helvetica,sans-Serif" font-size="10.00">/Jeu_de_Go/Sources/Graphics</text>
<text text-anchor="middle" x="403.816" y="-399.5" font-family="Helvetica,sans-Serif" font-size="10.00">/Game/Game_window.cpp</text>
</g>
<!-- Node1 -->
<g id="node2" class="node"><title>Node1</title>
<g id="a_node2"><a xlink:href="_game__window_8h.html" target="_top" xlink:title="Game_window.h">
<polygon fill="none" stroke="black" points="359.816,-336.5 359.816,-355.5 447.816,-355.5 447.816,-336.5 359.816,-336.5"/>
<text text-anchor="middle" x="403.816" y="-343.5" font-family="Helvetica,sans-Serif" font-size="10.00">Game_window.h</text>
</a>
</g>
</g>
<!-- Node0&#45;&gt;Node1 -->
<g id="edge1" class="edge"><title>Node0&#45;&gt;Node1</title>
<path fill="none" stroke="midnightblue" d="M403.816,-392.088C403.816,-383.15 403.816,-373.669 403.816,-365.719"/>
<polygon fill="midnightblue" stroke="midnightblue" points="407.316,-365.718 403.816,-355.718 400.316,-365.718 407.316,-365.718"/>
</g>
<!-- Node2 -->
<g id="node3" class="node"><title>Node2</title>
<g id="a_node3"><a xlink:href="_globals_8h.html" target="_top" xlink:title="../Globals.h">
<polygon fill="none" stroke="black" points="411.316,-56.5 411.316,-75.5 478.316,-75.5 478.316,-56.5 411.316,-56.5"/>
<text text-anchor="middle" x="444.816" y="-63.5" font-family="Helvetica,sans-Serif" font-size="10.00">../Globals.h</text>
</a>
</g>
</g>
<!-- Node1&#45;&gt;Node2 -->
<g id="edge2" class="edge"><title>Node1&#45;&gt;Node2</title>
<path fill="none" stroke="midnightblue" d="M436.44,-336.389C479.747,-322.755 550.816,-291.738 550.816,-235 550.816,-235 550.816,-235 550.816,-177 550.816,-146.775 550.139,-135.242 530.816,-112 518.478,-97.1606 499.968,-86.5925 483.277,-79.4438"/>
<polygon fill="midnightblue" stroke="midnightblue" points="484.305,-76.0856 473.721,-75.6235 481.707,-82.5854 484.305,-76.0856"/>
</g>
<!-- Node13 -->
<g id="node14" class="node"><title>Node13</title>
<g id="a_node14"><a xlink:href="_board_8h.html" target="_top" xlink:title="Board.h">
<polygon fill="none" stroke="black" points="325.816,-280.5 325.816,-299.5 375.816,-299.5 375.816,-280.5 325.816,-280.5"/>
<text text-anchor="middle" x="350.816" y="-287.5" font-family="Helvetica,sans-Serif" font-size="10.00">Board.h</text>
</a>
</g>
</g>
<!-- Node1&#45;&gt;Node13 -->
<g id="edge13" class="edge"><title>Node1&#45;&gt;Node13</title>
<path fill="none" stroke="midnightblue" d="M395.064,-336.083C387.346,-328.22 375.911,-316.569 366.599,-307.081"/>
<polygon fill="midnightblue" stroke="midnightblue" points="368.907,-304.436 359.405,-299.751 363.912,-309.34 368.907,-304.436"/>
</g>
<!-- Node16 -->
<g id="node17" class="node"><title>Node16</title>
<g id="a_node17"><a xlink:href="_goban_8h.html" target="_top" xlink:title="../../Engine/Goban.h">
<polygon fill="none" stroke="black" points="132.816,-168.5 132.816,-187.5 236.816,-187.5 236.816,-168.5 132.816,-168.5"/>
<text text-anchor="middle" x="184.816" y="-175.5" font-family="Helvetica,sans-Serif" font-size="10.00">../../Engine/Goban.h</text>
</a>
</g>
</g>
<!-- Node1&#45;&gt;Node16 -->
<g id="edge44" class="edge"><title>Node1&#45;&gt;Node16</title>
<path fill="none" stroke="midnightblue" d="M382.687,-336.376C364.356,-328.373 337.578,-315.395 316.816,-300 278.946,-271.92 277.969,-255.414 242.816,-224 230.699,-213.172 216.265,-201.968 204.827,-193.447"/>
<polygon fill="midnightblue" stroke="midnightblue" points="206.882,-190.614 196.753,-187.506 202.733,-196.252 206.882,-190.614"/>
</g>
<!-- Node21 -->
<g id="node22" class="node"><title>Node21</title>
<g id="a_node22"><a xlink:href="_arbre_8h.html" target="_top" xlink:title="../../Engine/Arbre.h">
<polygon fill="none" stroke="black" points="135.316,-224.5 135.316,-243.5 234.316,-243.5 234.316,-224.5 135.316,-224.5"/>
<text text-anchor="middle" x="184.816" y="-231.5" font-family="Helvetica,sans-Serif" font-size="10.00">../../Engine/Arbre.h</text>
</a>
</g>
</g>
<!-- Node1&#45;&gt;Node21 -->
<g id="edge40" class="edge"><title>Node1&#45;&gt;Node21</title>
<path fill="none" stroke="midnightblue" d="M359.637,-337.971C327.764,-331.523 284.581,-319.87 250.816,-300 229.467,-287.436 209.915,-266.46 197.726,-251.743"/>
<polygon fill="midnightblue" stroke="midnightblue" points="200.122,-249.135 191.139,-243.519 194.659,-253.512 200.122,-249.135"/>
</g>
<!-- Node22 -->
<g id="node23" class="node"><title>Node22</title>
<g id="a_node23"><a xlink:href="_infos_8h.html" target="_top" xlink:title="Infos.h">
<polygon fill="none" stroke="black" points="435.316,-168.5 435.316,-187.5 480.316,-187.5 480.316,-168.5 435.316,-168.5"/>
<text text-anchor="middle" x="457.816" y="-175.5" font-family="Helvetica,sans-Serif" font-size="10.00">Infos.h</text>
</a>
</g>
</g>
<!-- Node1&#45;&gt;Node22 -->
<g id="edge35" class="edge"><title>Node1&#45;&gt;Node22</title>
<path fill="none" stroke="midnightblue" d="M406.719,-336.075C415.256,-309.832 440.397,-232.545 451.922,-197.117"/>
<polygon fill="midnightblue" stroke="midnightblue" points="455.263,-198.16 455.029,-187.568 448.607,-195.995 455.263,-198.16"/>
</g>
<!-- Node24 -->
<g id="node25" class="node"><title>Node24</title>
<g id="a_node25"><a xlink:href="_screen_8h.html" target="_top" xlink:title="../Screen.h">
<polygon fill="none" stroke="black" points="579.316,-112.5 579.316,-131.5 644.316,-131.5 644.316,-112.5 579.316,-112.5"/>
<text text-anchor="middle" x="611.816" y="-119.5" font-family="Helvetica,sans-Serif" font-size="10.00">../Screen.h</text>
</a>
</g>
</g>
<!-- Node1&#45;&gt;Node24 -->
<g id="edge41" class="edge"><title>Node1&#45;&gt;Node24</title>
<path fill="none" stroke="midnightblue" d="M448.036,-344.179C484.215,-341.107 534.233,-330.983 564.816,-300 607.945,-256.306 612.751,-177.821 612.509,-141.891"/>
<polygon fill="midnightblue" stroke="midnightblue" points="616.007,-141.743 612.295,-131.819 609.008,-141.891 616.007,-141.743"/>
</g>
<!-- Node3 -->
<g id="node4" class="node"><title>Node3</title>
<polygon fill="none" stroke="#bfbfbf" points="816.816,-0.5 816.816,-19.5 920.816,-19.5 920.816,-0.5 816.816,-0.5"/>
<text text-anchor="middle" x="868.816" y="-7.5" font-family="Helvetica,sans-Serif" font-size="10.00">SFML/Graphics.hpp</text>
</g>
<!-- Node2&#45;&gt;Node3 -->
<g id="edge3" class="edge"><title>Node2&#45;&gt;Node3</title>
<path fill="none" stroke="midnightblue" d="M478.38,-61.1023C540.843,-53.7918 679.411,-37.3072 806.663,-20.1312"/>
<polygon fill="midnightblue" stroke="midnightblue" points="807.144,-23.5981 816.584,-18.7875 806.204,-16.6614 807.144,-23.5981"/>
</g>
<!-- Node4 -->
<g id="node5" class="node"><title>Node4</title>
<polygon fill="none" stroke="#bfbfbf" points="353.816,-0.5 353.816,-19.5 451.816,-19.5 451.816,-0.5 353.816,-0.5"/>
<text text-anchor="middle" x="402.816" y="-7.5" font-family="Helvetica,sans-Serif" font-size="10.00">SFML/System.hpp</text>
</g>
<!-- Node2&#45;&gt;Node4 -->
<g id="edge4" class="edge"><title>Node2&#45;&gt;Node4</title>
<path fill="none" stroke="midnightblue" d="M437.88,-56.083C431.887,-48.3768 423.064,-37.0333 415.768,-27.6531"/>
<polygon fill="midnightblue" stroke="midnightblue" points="418.524,-25.4958 409.622,-19.7511 412.999,-29.7934 418.524,-25.4958"/>
</g>
<!-- Node5 -->
<g id="node6" class="node"><title>Node5</title>
<polygon fill="none" stroke="#bfbfbf" points="470.316,-0.5 470.316,-19.5 569.316,-19.5 569.316,-0.5 470.316,-0.5"/>
<text text-anchor="middle" x="519.816" y="-7.5" font-family="Helvetica,sans-Serif" font-size="10.00">SFML/Window.hpp</text>
</g>
<!-- Node2&#45;&gt;Node5 -->
<g id="edge5" class="edge"><title>Node2&#45;&gt;Node5</title>
<path fill="none" stroke="midnightblue" d="M456.866,-56.324C468.279,-48.1066 485.647,-35.6017 499.251,-25.8069"/>
<polygon fill="midnightblue" stroke="midnightblue" points="501.476,-28.5174 507.546,-19.8339 497.386,-22.8366 501.476,-28.5174"/>
</g>
<!-- Node6 -->
<g id="node7" class="node"><title>Node6</title>
<polygon fill="none" stroke="#bfbfbf" points="587.316,-0.5 587.316,-19.5 676.316,-19.5 676.316,-0.5 587.316,-0.5"/>
<text text-anchor="middle" x="631.816" y="-7.5" font-family="Helvetica,sans-Serif" font-size="10.00">SFML/Audio.hpp</text>
</g>
<!-- Node2&#45;&gt;Node6 -->
<g id="edge6" class="edge"><title>Node2&#45;&gt;Node6</title>
<path fill="none" stroke="midnightblue" d="M474.446,-56.4435C506.316,-47.2406 557.149,-32.5617 592.38,-22.3879"/>
<polygon fill="midnightblue" stroke="midnightblue" points="593.687,-25.6534 602.324,-19.5164 591.745,-18.9282 593.687,-25.6534"/>
</g>
<!-- Node7 -->
<g id="node8" class="node"><title>Node7</title>
<polygon fill="none" stroke="#bfbfbf" points="69.8158,-0.5 69.8158,-19.5 123.816,-19.5 123.816,-0.5 69.8158,-0.5"/>
<text text-anchor="middle" x="96.8158" y="-7.5" font-family="Helvetica,sans-Serif" font-size="10.00">iostream</text>
</g>
<!-- Node2&#45;&gt;Node7 -->
<g id="edge7" class="edge"><title>Node2&#45;&gt;Node7</title>
<path fill="none" stroke="midnightblue" d="M410.922,-61.2572C355.166,-54.8527 240.453,-40.636 133.836,-20.0274"/>
<polygon fill="midnightblue" stroke="midnightblue" points="134.362,-16.5641 123.876,-18.0787 133.018,-23.4339 134.362,-16.5641"/>
</g>
<!-- Node8 -->
<g id="node9" class="node"><title>Node8</title>
<polygon fill="none" stroke="#bfbfbf" points="694.316,-0.5 694.316,-19.5 739.316,-19.5 739.316,-0.5 694.316,-0.5"/>
<text text-anchor="middle" x="716.816" y="-7.5" font-family="Helvetica,sans-Serif" font-size="10.00">cstdlib</text>
</g>
<!-- Node2&#45;&gt;Node8 -->
<g id="edge8" class="edge"><title>Node2&#45;&gt;Node8</title>
<path fill="none" stroke="midnightblue" d="M478.402,-59.6709C523.081,-52.371 604.703,-38.3043 683.996,-20.012"/>
<polygon fill="midnightblue" stroke="midnightblue" points="685.211,-23.3226 694.155,-17.6419 683.621,-16.5056 685.211,-23.3226"/>
</g>
<!-- Node9 -->
<g id="node10" class="node"><title>Node9</title>
<polygon fill="none" stroke="#bfbfbf" points="757.316,-0.5 757.316,-19.5 798.316,-19.5 798.316,-0.5 757.316,-0.5"/>
<text text-anchor="middle" x="777.816" y="-7.5" font-family="Helvetica,sans-Serif" font-size="10.00">string</text>
</g>
<!-- Node2&#45;&gt;Node9 -->
<g id="edge9" class="edge"><title>Node2&#45;&gt;Node9</title>
<path fill="none" stroke="midnightblue" d="M478.416,-61.7367C533.032,-56.064 644.544,-42.9507 747.115,-20.1173"/>
<polygon fill="midnightblue" stroke="midnightblue" points="748.031,-23.4986 757.011,-17.8771 746.485,-16.6714 748.031,-23.4986"/>
</g>
<!-- Node10 -->
<g id="node11" class="node"><title>Node10</title>
<polygon fill="none" stroke="#bfbfbf" points="219.316,-0.5 219.316,-19.5 268.316,-19.5 268.316,-0.5 219.316,-0.5"/>
<text text-anchor="middle" x="243.816" y="-7.5" font-family="Helvetica,sans-Serif" font-size="10.00">fstream</text>
</g>
<!-- Node2&#45;&gt;Node10 -->
<g id="edge10" class="edge"><title>Node2&#45;&gt;Node10</title>
<path fill="none" stroke="midnightblue" d="M412.91,-56.4999C381.088,-48.0121 330.547,-34.5038 278.126,-20.3464"/>
<polygon fill="midnightblue" stroke="midnightblue" points="278.888,-16.9266 268.321,-17.6964 277.061,-23.6842 278.888,-16.9266"/>
</g>
<!-- Node11 -->
<g id="node12" class="node"><title>Node11</title>
<polygon fill="none" stroke="#bfbfbf" points="286.316,-0.5 286.316,-19.5 335.316,-19.5 335.316,-0.5 286.316,-0.5"/>
<text text-anchor="middle" x="310.816" y="-7.5" font-family="Helvetica,sans-Serif" font-size="10.00">cassert</text>
</g>
<!-- Node2&#45;&gt;Node11 -->
<g id="edge11" class="edge"><title>Node2&#45;&gt;Node11</title>
<path fill="none" stroke="midnightblue" d="M423.583,-56.4435C401.432,-47.5171 366.497,-33.4387 341.38,-23.3168"/>
<polygon fill="midnightblue" stroke="midnightblue" points="342.533,-20.0079 331.949,-19.5164 339.916,-26.5006 342.533,-20.0079"/>
</g>
<!-- Node12 -->
<g id="node13" class="node"><title>Node12</title>
<polygon fill="none" stroke="#bfbfbf" points="142.316,-0.5 142.316,-19.5 201.316,-19.5 201.316,-0.5 142.316,-0.5"/>
<text text-anchor="middle" x="171.816" y="-7.5" font-family="Helvetica,sans-Serif" font-size="10.00">stdexcept</text>
</g>
<!-- Node2&#45;&gt;Node12 -->
<g id="edge12" class="edge"><title>Node2&#45;&gt;Node12</title>
<path fill="none" stroke="midnightblue" d="M411.256,-59.0464C367.445,-51.1709 288.154,-36.565 211.48,-20.2936"/>
<polygon fill="midnightblue" stroke="midnightblue" points="212.169,-16.8621 201.659,-18.1971 210.708,-23.7078 212.169,-16.8621"/>
</g>
<!-- Node13&#45;&gt;Node2 -->
<g id="edge14" class="edge"><title>Node13&#45;&gt;Node2</title>
<path fill="none" stroke="midnightblue" d="M354.501,-280.297C368.39,-247.494 417.766,-130.884 437.034,-85.3774"/>
<polygon fill="midnightblue" stroke="midnightblue" points="440.378,-86.457 441.054,-75.8837 433.932,-83.7276 440.378,-86.457"/>
</g>
<!-- Node14 -->
<g id="node15" class="node"><title>Node14</title>
<g id="a_node15"><a xlink:href="_square_8h.html" target="_top" xlink:title="Square.h">
<polygon fill="none" stroke="black" points="322.816,-112.5 322.816,-131.5 378.816,-131.5 378.816,-112.5 322.816,-112.5"/>
<text text-anchor="middle" x="350.816" y="-119.5" font-family="Helvetica,sans-Serif" font-size="10.00">Square.h</text>
</a>
</g>
</g>
<!-- Node13&#45;&gt;Node14 -->
<g id="edge15" class="edge"><title>Node13&#45;&gt;Node14</title>
<path fill="none" stroke="midnightblue" d="M350.816,-280.075C350.816,-253.945 350.816,-177.211 350.816,-141.577"/>
<polygon fill="midnightblue" stroke="midnightblue" points="354.316,-141.568 350.816,-131.568 347.316,-141.568 354.316,-141.568"/>
</g>
<!-- Node13&#45;&gt;Node16 -->
<g id="edge19" class="edge"><title>Node13&#45;&gt;Node16</title>
<path fill="none" stroke="midnightblue" d="M342.628,-280.123C329.926,-266.717 304.276,-241.063 278.816,-224 259.233,-210.877 235.235,-199.455 216.389,-191.403"/>
<polygon fill="midnightblue" stroke="midnightblue" points="217.63,-188.128 207.053,-187.508 214.935,-194.589 217.63,-188.128"/>
</g>
<!-- Node13&#45;&gt;Node21 -->
<g id="edge31" class="edge"><title>Node13&#45;&gt;Node21</title>
<path fill="none" stroke="midnightblue" d="M325.604,-280.799C297.696,-271.72 252.483,-257.012 220.845,-246.72"/>
<polygon fill="midnightblue" stroke="midnightblue" points="221.681,-243.312 211.089,-243.547 219.516,-249.969 221.681,-243.312"/>
</g>
<!-- Node14&#45;&gt;Node2 -->
<g id="edge16" class="edge"><title>Node14&#45;&gt;Node2</title>
<path fill="none" stroke="midnightblue" d="M365.918,-112.324C380.719,-103.822 403.51,-90.7288 420.798,-80.7975"/>
<polygon fill="midnightblue" stroke="midnightblue" points="422.823,-83.6707 429.751,-75.6545 419.336,-77.6009 422.823,-83.6707"/>
</g>
<!-- Node15 -->
<g id="node16" class="node"><title>Node15</title>
<g id="a_node16"><a xlink:href="_etat_8h.html" target="_top" xlink:title="../../Engine/Etat.h">
<polygon fill="none" stroke="black" points="124.816,-56.5 124.816,-75.5 218.816,-75.5 218.816,-56.5 124.816,-56.5"/>
<text text-anchor="middle" x="171.816" y="-63.5" font-family="Helvetica,sans-Serif" font-size="10.00">../../Engine/Etat.h</text>
</a>
</g>
</g>
<!-- Node14&#45;&gt;Node15 -->
<g id="edge17" class="edge"><title>Node14&#45;&gt;Node15</title>
<path fill="none" stroke="midnightblue" d="M322.453,-112.444C292.078,-103.28 243.706,-88.6876 210,-78.5192"/>
<polygon fill="midnightblue" stroke="midnightblue" points="210.631,-75.0538 200.046,-75.5164 208.609,-81.7555 210.631,-75.0538"/>
</g>
<!-- Node15&#45;&gt;Node7 -->
<g id="edge18" class="edge"><title>Node15&#45;&gt;Node7</title>
<path fill="none" stroke="midnightblue" d="M159.766,-56.324C148.353,-48.1066 130.985,-35.6017 117.381,-25.8069"/>
<polygon fill="midnightblue" stroke="midnightblue" points="119.246,-22.8366 109.085,-19.8339 115.155,-28.5174 119.246,-22.8366"/>
</g>
<!-- Node16&#45;&gt;Node7 -->
<g id="edge20" class="edge"><title>Node16&#45;&gt;Node7</title>
<path fill="none" stroke="midnightblue" d="M177.52,-168.392C163.66,-151.641 133.342,-113.049 115.816,-76 108.746,-61.0547 103.71,-42.9151 100.607,-29.6004"/>
<polygon fill="midnightblue" stroke="midnightblue" points="104.004,-28.7508 98.4524,-19.7268 97.1647,-30.2431 104.004,-28.7508"/>
</g>
<!-- Node16&#45;&gt;Node12 -->
<g id="edge30" class="edge"><title>Node16&#45;&gt;Node12</title>
<path fill="none" stroke="midnightblue" d="M222.784,-168.411C242.224,-161.883 264.192,-150.715 275.816,-132 283.06,-120.336 293.611,-84.1706 274.816,-56 267.061,-44.377 235.751,-31.6762 209.666,-22.7405"/>
<polygon fill="midnightblue" stroke="midnightblue" points="210.578,-19.3552 199.984,-19.5102 208.363,-25.9954 210.578,-19.3552"/>
</g>
<!-- Node16&#45;&gt;Node15 -->
<g id="edge22" class="edge"><title>Node16&#45;&gt;Node15</title>
<path fill="none" stroke="midnightblue" d="M183.796,-168.368C181.698,-150.617 176.858,-109.666 174.014,-85.5974"/>
<polygon fill="midnightblue" stroke="midnightblue" points="177.481,-85.1115 172.831,-75.5914 170.529,-85.9331 177.481,-85.1115"/>
</g>
<!-- Node17 -->
<g id="node18" class="node"><title>Node17</title>
<polygon fill="none" stroke="#bfbfbf" points="11.8158,-56.5 11.8158,-75.5 53.8158,-75.5 53.8158,-56.5 11.8158,-56.5"/>
<text text-anchor="middle" x="32.8158" y="-63.5" font-family="Helvetica,sans-Serif" font-size="10.00">vector</text>
</g>
<!-- Node16&#45;&gt;Node17 -->
<g id="edge21" class="edge"><title>Node16&#45;&gt;Node17</title>
<path fill="none" stroke="midnightblue" d="M132.546,-170.985C105.11,-165.236 72.9057,-153.992 51.8158,-132 40.001,-119.68 35.4762,-100.427 33.7727,-86.0681"/>
<polygon fill="midnightblue" stroke="midnightblue" points="37.2381,-85.505 32.926,-75.8275 30.262,-86.0819 37.2381,-85.505"/>
</g>
<!-- Node18 -->
<g id="node19" class="node"><title>Node18</title>
<g id="a_node19"><a xlink:href="_groupe_8h.html" target="_top" xlink:title="Groupe.h">
<polygon fill="none" stroke="black" points="60.8158,-112.5 60.8158,-131.5 116.816,-131.5 116.816,-112.5 60.8158,-112.5"/>
<text text-anchor="middle" x="88.8158" y="-119.5" font-family="Helvetica,sans-Serif" font-size="10.00">Groupe.h</text>
</a>
</g>
</g>
<!-- Node16&#45;&gt;Node18 -->
<g id="edge23" class="edge"><title>Node16&#45;&gt;Node18</title>
<path fill="none" stroke="midnightblue" d="M169.392,-168.324C154.276,-159.822 131,-146.729 113.345,-136.797"/>
<polygon fill="midnightblue" stroke="midnightblue" points="114.633,-133.507 104.202,-131.655 111.201,-139.608 114.633,-133.507"/>
</g>
<!-- Node19 -->
<g id="node20" class="node"><title>Node19</title>
<g id="a_node20"><a xlink:href="_history_8h.html" target="_top" xlink:title="History.h">
<polygon fill="none" stroke="black" points="210.816,-112.5 210.816,-131.5 266.816,-131.5 266.816,-112.5 210.816,-112.5"/>
<text text-anchor="middle" x="238.816" y="-119.5" font-family="Helvetica,sans-Serif" font-size="10.00">History.h</text>
</a>
</g>
</g>
<!-- Node16&#45;&gt;Node19 -->
<g id="edge26" class="edge"><title>Node16&#45;&gt;Node19</title>
<path fill="none" stroke="midnightblue" d="M193.733,-168.083C201.596,-160.22 213.247,-148.569 222.735,-139.081"/>
<polygon fill="midnightblue" stroke="midnightblue" points="225.468,-141.297 230.065,-131.751 220.519,-136.347 225.468,-141.297"/>
</g>
<!-- Node18&#45;&gt;Node15 -->
<g id="edge25" class="edge"><title>Node18&#45;&gt;Node15</title>
<path fill="none" stroke="midnightblue" d="M102.151,-112.324C114.978,-103.979 134.601,-91.2122 149.756,-81.3524"/>
<polygon fill="midnightblue" stroke="midnightblue" points="152.04,-84.0417 158.513,-75.6545 148.223,-78.1742 152.04,-84.0417"/>
</g>
<!-- Node18&#45;&gt;Node17 -->
<g id="edge24" class="edge"><title>Node18&#45;&gt;Node17</title>
<path fill="none" stroke="midnightblue" d="M79.8184,-112.324C71.6213,-104.42 59.3102,-92.5482 49.3437,-82.9377"/>
<polygon fill="midnightblue" stroke="midnightblue" points="51.6048,-80.2558 41.9768,-75.8339 46.7458,-85.2947 51.6048,-80.2558"/>
</g>
<!-- Node19&#45;&gt;Node2 -->
<g id="edge27" class="edge"><title>Node19&#45;&gt;Node2</title>
<path fill="none" stroke="midnightblue" d="M267.027,-113.605C301.972,-104.445 361.834,-88.7524 402.341,-78.1341"/>
<polygon fill="midnightblue" stroke="midnightblue" points="403.41,-81.4722 412.196,-75.5509 401.635,-74.701 403.41,-81.4722"/>
</g>
<!-- Node19&#45;&gt;Node15 -->
<g id="edge28" class="edge"><title>Node19&#45;&gt;Node15</title>
<path fill="none" stroke="midnightblue" d="M228.051,-112.324C218.05,-104.263 202.929,-92.0765 190.885,-82.3695"/>
<polygon fill="midnightblue" stroke="midnightblue" points="192.759,-79.3841 182.776,-75.8339 188.366,-84.8343 192.759,-79.3841"/>
</g>
<!-- Node20 -->
<g id="node21" class="node"><title>Node20</title>
<polygon fill="none" stroke="#bfbfbf" points="237.316,-56.5 237.316,-75.5 266.316,-75.5 266.316,-56.5 237.316,-56.5"/>
<text text-anchor="middle" x="251.816" y="-63.5" font-family="Helvetica,sans-Serif" font-size="10.00">list</text>
</g>
<!-- Node19&#45;&gt;Node20 -->
<g id="edge29" class="edge"><title>Node19&#45;&gt;Node20</title>
<path fill="none" stroke="midnightblue" d="M240.962,-112.083C242.685,-104.927 245.163,-94.6353 247.316,-85.6911"/>
<polygon fill="midnightblue" stroke="midnightblue" points="250.771,-86.2925 249.709,-75.7511 243.966,-84.6541 250.771,-86.2925"/>
</g>
<!-- Node21&#45;&gt;Node7 -->
<g id="edge33" class="edge"><title>Node21&#45;&gt;Node7</title>
<path fill="none" stroke="midnightblue" d="M143.169,-224.433C118.186,-217.709 86.8898,-206.336 63.8158,-188 19.4397,-152.735 14.2126,-131.524 2.81576,-76 1.02851,-67.2926 -1.92213,-63.521 2.81576,-56 15.3301,-36.1346 39.3103,-24.8461 59.9168,-18.5436"/>
<polygon fill="midnightblue" stroke="midnightblue" points="60.994,-21.8771 69.6967,-15.8345 59.1252,-15.1312 60.994,-21.8771"/>
</g>
<!-- Node21&#45;&gt;Node16 -->
<g id="edge32" class="edge"><title>Node21&#45;&gt;Node16</title>
<path fill="none" stroke="midnightblue" d="M184.816,-224.083C184.816,-217.006 184.816,-206.861 184.816,-197.986"/>
<polygon fill="midnightblue" stroke="midnightblue" points="188.316,-197.751 184.816,-187.751 181.316,-197.751 188.316,-197.751"/>
</g>
<!-- Node21&#45;&gt;Node17 -->
<g id="edge34" class="edge"><title>Node21&#45;&gt;Node17</title>
<path fill="none" stroke="midnightblue" d="M160.743,-224.453C126.409,-210.839 64.4777,-180.683 36.8158,-132 28.874,-118.023 28.5203,-99.5202 29.7755,-85.8309"/>
<polygon fill="midnightblue" stroke="midnightblue" points="33.2781,-86.0327 31.077,-75.669 26.3349,-85.1433 33.2781,-86.0327"/>
</g>
<!-- Node22&#45;&gt;Node2 -->
<g id="edge36" class="edge"><title>Node22&#45;&gt;Node2</title>
<path fill="none" stroke="midnightblue" d="M456.796,-168.368C454.698,-150.617 449.858,-109.666 447.014,-85.5974"/>
<polygon fill="midnightblue" stroke="midnightblue" points="450.481,-85.1115 445.831,-75.5914 443.529,-85.9331 450.481,-85.1115"/>
</g>
<!-- Node22&#45;&gt;Node14 -->
<g id="edge37" class="edge"><title>Node22&#45;&gt;Node14</title>
<path fill="none" stroke="midnightblue" d="M440.624,-168.324C423.465,-159.664 396.87,-146.242 377.068,-136.249"/>
<polygon fill="midnightblue" stroke="midnightblue" points="378.469,-133.035 367.964,-131.655 375.315,-139.285 378.469,-133.035"/>
</g>
<!-- Node23 -->
<g id="node24" class="node"><title>Node23</title>
<g id="a_node24"><a xlink:href="_timer_8h.html" target="_top" xlink:title="Timer.h">
<polygon fill="none" stroke="black" points="473.316,-112.5 473.316,-131.5 522.316,-131.5 522.316,-112.5 473.316,-112.5"/>
<text text-anchor="middle" x="497.816" y="-119.5" font-family="Helvetica,sans-Serif" font-size="10.00">Timer.h</text>
</a>
</g>
</g>
<!-- Node22&#45;&gt;Node23 -->
<g id="edge38" class="edge"><title>Node22&#45;&gt;Node23</title>
<path fill="none" stroke="midnightblue" d="M464.421,-168.083C470.071,-160.455 478.361,-149.264 485.267,-139.941"/>
<polygon fill="midnightblue" stroke="midnightblue" points="488.194,-141.87 491.333,-131.751 482.569,-137.703 488.194,-141.87"/>
</g>
<!-- Node23&#45;&gt;Node2 -->
<g id="edge39" class="edge"><title>Node23&#45;&gt;Node2</title>
<path fill="none" stroke="midnightblue" d="M489.064,-112.083C481.346,-104.22 469.911,-92.5688 460.599,-83.0813"/>
<polygon fill="midnightblue" stroke="midnightblue" points="462.907,-80.4363 453.405,-75.7511 457.912,-85.3396 462.907,-80.4363"/>
</g>
<!-- Node24&#45;&gt;Node2 -->
<g id="edge43" class="edge"><title>Node24&#45;&gt;Node2</title>
<path fill="none" stroke="midnightblue" d="M585.354,-112.444C557.138,-103.32 512.275,-88.8133 480.847,-78.6509"/>
<polygon fill="midnightblue" stroke="midnightblue" points="481.745,-75.263 471.154,-75.5164 479.592,-81.9234 481.745,-75.263"/>
</g>
<!-- Node24&#45;&gt;Node3 -->
<g id="edge42" class="edge"><title>Node24&#45;&gt;Node3</title>
<path fill="none" stroke="midnightblue" d="M631.982,-112.368C677.116,-93.0507 786.437,-46.2592 839.265,-23.6481"/>
<polygon fill="midnightblue" stroke="midnightblue" points="840.927,-26.744 848.743,-19.5914 838.173,-20.3087 840.927,-26.744"/>
</g>
</g>
</svg>
