<?xml version="1.0" encoding="UTF-8" standalone="no"?>
<!DOCTYPE svg PUBLIC "-//W3C//DTD SVG 1.1//EN"
 "http://www.w3.org/Graphics/SVG/1.1/DTD/svg11.dtd">
<!-- Generated by graphviz version 2.38.0 (20140413.2041)
 -->
<!-- Title: D:/Users/Victor/OneDrive/Documents/Visual Studio 2017/Projects/Jeu_de_Go/Jeu_de_Go/Sources/Engine/Goban.cpp Pages: 1 -->
<svg width="858pt" height="296pt"
 viewBox="0.00 0.00 857.50 296.00" xmlns="http://www.w3.org/2000/svg" xmlns:xlink="http://www.w3.org/1999/xlink">
<g id="graph0" class="graph" transform="scale(1 1) rotate(0) translate(4 292)">
<title>D:/Users/Victor/OneDrive/Documents/Visual Studio 2017/Projects/Jeu_de_Go/Jeu_de_Go/Sources/Engine/Goban.cpp</title>
<!-- Node0 -->
<g id="node1" class="node"><title>Node0</title>
<polygon fill="#bfbfbf" stroke="black" points="318,-224.5 318,-287.5 458,-287.5 458,-224.5 318,-224.5"/>
<text text-anchor="start" x="326" y="-275.5" font-family="Helvetica,sans-Serif" font-size="10.00">D:/Users/Victor/OneDrive</text>
<text text-anchor="start" x="326" y="-264.5" font-family="Helvetica,sans-Serif" font-size="10.00">/Documents/Visual Studio</text>
<text text-anchor="start" x="326" y="-253.5" font-family="Helvetica,sans-Serif" font-size="10.00"> 2017/Projects/Jeu_de_Go</text>
<text text-anchor="start" x="326" y="-242.5" font-family="Helvetica,sans-Serif" font-size="10.00">/Jeu_de_Go/Sources/Engine</text>
<text text-anchor="middle" x="388" y="-231.5" font-family="Helvetica,sans-Serif" font-size="10.00">/Goban.cpp</text>
</g>
<!-- Node1 -->
<g id="node2" class="node"><title>Node1</title>
<g id="a_node2"><a xlink:href="_goban_8h.html" target="_top" xlink:title="Goban.h">
<polygon fill="none" stroke="black" points="361.5,-168.5 361.5,-187.5 414.5,-187.5 414.5,-168.5 361.5,-168.5"/>
<text text-anchor="middle" x="388" y="-175.5" font-family="Helvetica,sans-Serif" font-size="10.00">Goban.h</text>
</a>
</g>
</g>
<!-- Node0&#45;&gt;Node1 -->
<g id="edge1" class="edge"><title>Node0&#45;&gt;Node1</title>
<path fill="none" stroke="midnightblue" d="M388,-224.088C388,-215.15 388,-205.669 388,-197.719"/>
<polygon fill="midnightblue" stroke="midnightblue" points="391.5,-197.718 388,-187.718 384.5,-197.718 391.5,-197.718"/>
</g>
<!-- Node2 -->
<g id="node3" class="node"><title>Node2</title>
<polygon fill="none" stroke="#bfbfbf" points="0,-0.5 0,-19.5 54,-19.5 54,-0.5 0,-0.5"/>
<text text-anchor="middle" x="27" y="-7.5" font-family="Helvetica,sans-Serif" font-size="10.00">iostream</text>
</g>
<!-- Node1&#45;&gt;Node2 -->
<g id="edge2" class="edge"><title>Node1&#45;&gt;Node2</title>
<path fill="none" stroke="midnightblue" d="M369.351,-168.425C310.057,-141.159 125.619,-56.3482 54.9462,-23.8506"/>
<polygon fill="midnightblue" stroke="midnightblue" points="56.3016,-20.6216 45.7539,-19.6237 53.3771,-26.9814 56.3016,-20.6216"/>
</g>
<!-- Node3 -->
<g id="node4" class="node"><title>Node3</title>
<polygon fill="none" stroke="#bfbfbf" points="287,-56.5 287,-75.5 329,-75.5 329,-56.5 287,-56.5"/>
<text text-anchor="middle" x="308" y="-63.5" font-family="Helvetica,sans-Serif" font-size="10.00">vector</text>
</g>
<!-- Node1&#45;&gt;Node3 -->
<g id="edge3" class="edge"><title>Node1&#45;&gt;Node3</title>
<path fill="none" stroke="midnightblue" d="M368.541,-168.4C353.809,-160.888 334.249,-148.584 323,-132 313.756,-118.372 310.153,-99.8308 308.777,-86.038"/>
<polygon fill="midnightblue" stroke="midnightblue" points="312.249,-85.5166 308.069,-75.7811 305.266,-85.9983 312.249,-85.5166"/>
</g>
<!-- Node4 -->
<g id="node5" class="node"><title>Node4</title>
<g id="a_node5"><a xlink:href="_etat_8h.html" target="_top" xlink:title="Etat.h">
<polygon fill="none" stroke="black" points="353.5,-56.5 353.5,-75.5 396.5,-75.5 396.5,-56.5 353.5,-56.5"/>
<text text-anchor="middle" x="375" y="-63.5" font-family="Helvetica,sans-Serif" font-size="10.00">Etat.h</text>
</a>
</g>
</g>
<!-- Node1&#45;&gt;Node4 -->
<g id="edge4" class="edge"><title>Node1&#45;&gt;Node4</title>
<path fill="none" stroke="midnightblue" d="M391.131,-168.498C395.295,-155.997 401.622,-131.979 397,-112 394.77,-102.363 390.179,-92.4052 385.764,-84.3149"/>
<polygon fill="midnightblue" stroke="midnightblue" points="388.697,-82.3968 380.638,-75.5194 382.649,-85.9216 388.697,-82.3968"/>
</g>
<!-- Node5 -->
<g id="node6" class="node"><title>Node5</title>
<g id="a_node6"><a xlink:href="_groupe_8h.html" target="_top" xlink:title="Groupe.h">
<polygon fill="none" stroke="black" points="332,-112.5 332,-131.5 388,-131.5 388,-112.5 332,-112.5"/>
<text text-anchor="middle" x="360" y="-119.5" font-family="Helvetica,sans-Serif" font-size="10.00">Groupe.h</text>
</a>
</g>
</g>
<!-- Node1&#45;&gt;Node5 -->
<g id="edge6" class="edge"><title>Node1&#45;&gt;Node5</title>
<path fill="none" stroke="midnightblue" d="M383.376,-168.083C379.544,-160.691 373.976,-149.953 369.235,-140.811"/>
<polygon fill="midnightblue" stroke="midnightblue" points="372.248,-139.018 364.538,-131.751 366.034,-142.24 372.248,-139.018"/>
</g>
<!-- Node6 -->
<g id="node7" class="node"><title>Node6</title>
<g id="a_node7"><a xlink:href="_history_8h.html" target="_top" xlink:title="History.h">
<polygon fill="none" stroke="black" points="444,-112.5 444,-131.5 500,-131.5 500,-112.5 444,-112.5"/>
<text text-anchor="middle" x="472" y="-119.5" font-family="Helvetica,sans-Serif" font-size="10.00">History.h</text>
</a>
</g>
</g>
<!-- Node1&#45;&gt;Node6 -->
<g id="edge9" class="edge"><title>Node1&#45;&gt;Node6</title>
<path fill="none" stroke="midnightblue" d="M401.496,-168.324C414.6,-159.9 434.712,-146.971 450.107,-137.074"/>
<polygon fill="midnightblue" stroke="midnightblue" points="452.018,-140.006 458.537,-131.655 448.233,-134.118 452.018,-140.006"/>
</g>
<!-- Node16 -->
<g id="node17" class="node"><title>Node16</title>
<polygon fill="none" stroke="#bfbfbf" points="790.5,-0.5 790.5,-19.5 849.5,-19.5 849.5,-0.5 790.5,-0.5"/>
<text text-anchor="middle" x="820" y="-7.5" font-family="Helvetica,sans-Serif" font-size="10.00">stdexcept</text>
</g>
<!-- Node1&#45;&gt;Node16 -->
<g id="edge23" class="edge"><title>Node1&#45;&gt;Node16</title>
<path fill="none" stroke="midnightblue" d="M411.235,-168.476C435.624,-159.502 475.065,-144.911 509,-132 611.675,-92.9364 732.869,-45.3581 788.82,-23.3094"/>
<polygon fill="midnightblue" stroke="midnightblue" points="790.155,-26.5453 798.174,-19.6214 787.588,-20.0332 790.155,-26.5453"/>
</g>
<!-- Node4&#45;&gt;Node2 -->
<g id="edge5" class="edge"><title>Node4&#45;&gt;Node2</title>
<path fill="none" stroke="midnightblue" d="M353.172,-59.2749C348.207,-58.0886 342.939,-56.9212 338,-56 220.02,-33.9957 185.89,-42.5028 64.1407,-20.0136"/>
<polygon fill="midnightblue" stroke="midnightblue" points="64.5276,-16.5251 54.0531,-18.1171 63.2342,-23.4046 64.5276,-16.5251"/>
</g>
<!-- Node5&#45;&gt;Node3 -->
<g id="edge7" class="edge"><title>Node5&#45;&gt;Node3</title>
<path fill="none" stroke="midnightblue" d="M351.413,-112.083C343.841,-104.22 332.622,-92.5688 323.486,-83.0813"/>
<polygon fill="midnightblue" stroke="midnightblue" points="325.885,-80.5266 316.427,-75.7511 320.842,-85.3821 325.885,-80.5266"/>
</g>
<!-- Node5&#45;&gt;Node4 -->
<g id="edge8" class="edge"><title>Node5&#45;&gt;Node4</title>
<path fill="none" stroke="midnightblue" d="M362.477,-112.083C364.486,-104.849 367.386,-94.4087 369.89,-85.3968"/>
<polygon fill="midnightblue" stroke="midnightblue" points="373.265,-86.323 372.569,-75.7511 366.52,-84.4495 373.265,-86.323"/>
</g>
<!-- Node6&#45;&gt;Node4 -->
<g id="edge21" class="edge"><title>Node6&#45;&gt;Node4</title>
<path fill="none" stroke="midnightblue" d="M456.415,-112.324C441.001,-103.743 417.188,-90.486 399.29,-80.5224"/>
<polygon fill="midnightblue" stroke="midnightblue" points="400.986,-77.4606 390.546,-75.6545 397.581,-83.5767 400.986,-77.4606"/>
</g>
<!-- Node7 -->
<g id="node8" class="node"><title>Node7</title>
<g id="a_node8"><a xlink:href="_globals_8h.html" target="_top" xlink:title="../Graphics/Globals.h">
<polygon fill="none" stroke="black" points="417.5,-56.5 417.5,-75.5 526.5,-75.5 526.5,-56.5 417.5,-56.5"/>
<text text-anchor="middle" x="472" y="-63.5" font-family="Helvetica,sans-Serif" font-size="10.00">../Graphics/Globals.h</text>
</a>
</g>
</g>
<!-- Node6&#45;&gt;Node7 -->
<g id="edge10" class="edge"><title>Node6&#45;&gt;Node7</title>
<path fill="none" stroke="midnightblue" d="M472,-112.083C472,-105.006 472,-94.8611 472,-85.9865"/>
<polygon fill="midnightblue" stroke="midnightblue" points="475.5,-85.751 472,-75.7511 468.5,-85.7511 475.5,-85.751"/>
</g>
<!-- Node17 -->
<g id="node18" class="node"><title>Node17</title>
<polygon fill="none" stroke="#bfbfbf" points="544.5,-56.5 544.5,-75.5 573.5,-75.5 573.5,-56.5 544.5,-56.5"/>
<text text-anchor="middle" x="559" y="-63.5" font-family="Helvetica,sans-Serif" font-size="10.00">list</text>
</g>
<!-- Node6&#45;&gt;Node17 -->
<g id="edge22" class="edge"><title>Node6&#45;&gt;Node17</title>
<path fill="none" stroke="midnightblue" d="M485.978,-112.324C499.55,-103.9 520.38,-90.9709 536.325,-81.0741"/>
<polygon fill="midnightblue" stroke="midnightblue" points="538.406,-83.9019 545.057,-75.6545 534.714,-77.9544 538.406,-83.9019"/>
</g>
<!-- Node7&#45;&gt;Node2 -->
<g id="edge15" class="edge"><title>Node7&#45;&gt;Node2</title>
<path fill="none" stroke="midnightblue" d="M417.17,-57.5047C413.054,-56.9818 408.962,-56.4745 405,-56 256.505,-38.2147 215.266,-46.2351 64.1542,-19.9716"/>
<polygon fill="midnightblue" stroke="midnightblue" points="64.4948,-16.4779 54.0395,-18.1915 63.2814,-23.3719 64.4948,-16.4779"/>
</g>
<!-- Node8 -->
<g id="node9" class="node"><title>Node8</title>
<polygon fill="none" stroke="#bfbfbf" points="72,-0.5 72,-19.5 176,-19.5 176,-0.5 72,-0.5"/>
<text text-anchor="middle" x="124" y="-7.5" font-family="Helvetica,sans-Serif" font-size="10.00">SFML/Graphics.hpp</text>
</g>
<!-- Node7&#45;&gt;Node8 -->
<g id="edge11" class="edge"><title>Node7&#45;&gt;Node8</title>
<path fill="none" stroke="midnightblue" d="M417.242,-56.5031C354.559,-46.7764 252.096,-30.877 186.384,-20.6802"/>
<polygon fill="midnightblue" stroke="midnightblue" points="186.583,-17.1693 176.165,-19.0945 185.51,-24.0866 186.583,-17.1693"/>
</g>
<!-- Node9 -->
<g id="node10" class="node"><title>Node9</title>
<polygon fill="none" stroke="#bfbfbf" points="194,-0.5 194,-19.5 292,-19.5 292,-0.5 194,-0.5"/>
<text text-anchor="middle" x="243" y="-7.5" font-family="Helvetica,sans-Serif" font-size="10.00">SFML/System.hpp</text>
</g>
<!-- Node7&#45;&gt;Node9 -->
<g id="edge12" class="edge"><title>Node7&#45;&gt;Node9</title>
<path fill="none" stroke="midnightblue" d="M435.714,-56.4435C396.017,-47.0826 332.293,-32.0561 289.088,-21.868"/>
<polygon fill="midnightblue" stroke="midnightblue" points="289.652,-18.4051 279.116,-19.5164 288.046,-25.2182 289.652,-18.4051"/>
</g>
<!-- Node10 -->
<g id="node11" class="node"><title>Node10</title>
<polygon fill="none" stroke="#bfbfbf" points="310.5,-0.5 310.5,-19.5 409.5,-19.5 409.5,-0.5 310.5,-0.5"/>
<text text-anchor="middle" x="360" y="-7.5" font-family="Helvetica,sans-Serif" font-size="10.00">SFML/Window.hpp</text>
</g>
<!-- Node7&#45;&gt;Node10 -->
<g id="edge13" class="edge"><title>Node7&#45;&gt;Node10</title>
<path fill="none" stroke="midnightblue" d="M454.005,-56.324C435.962,-47.6247 407.953,-34.1202 387.197,-24.113"/>
<polygon fill="midnightblue" stroke="midnightblue" points="388.478,-20.8449 377.95,-19.6545 385.438,-27.1502 388.478,-20.8449"/>
</g>
<!-- Node11 -->
<g id="node12" class="node"><title>Node11</title>
<polygon fill="none" stroke="#bfbfbf" points="427.5,-0.5 427.5,-19.5 516.5,-19.5 516.5,-0.5 427.5,-0.5"/>
<text text-anchor="middle" x="472" y="-7.5" font-family="Helvetica,sans-Serif" font-size="10.00">SFML/Audio.hpp</text>
</g>
<!-- Node7&#45;&gt;Node11 -->
<g id="edge14" class="edge"><title>Node7&#45;&gt;Node11</title>
<path fill="none" stroke="midnightblue" d="M472,-56.083C472,-49.0059 472,-38.8611 472,-29.9865"/>
<polygon fill="midnightblue" stroke="midnightblue" points="475.5,-29.751 472,-19.7511 468.5,-29.7511 475.5,-29.751"/>
</g>
<!-- Node12 -->
<g id="node13" class="node"><title>Node12</title>
<polygon fill="none" stroke="#bfbfbf" points="534.5,-0.5 534.5,-19.5 579.5,-19.5 579.5,-0.5 534.5,-0.5"/>
<text text-anchor="middle" x="557" y="-7.5" font-family="Helvetica,sans-Serif" font-size="10.00">cstdlib</text>
</g>
<!-- Node7&#45;&gt;Node12 -->
<g id="edge16" class="edge"><title>Node7&#45;&gt;Node12</title>
<path fill="none" stroke="midnightblue" d="M485.657,-56.324C498.916,-47.9002 519.268,-34.9709 534.846,-25.0741"/>
<polygon fill="midnightblue" stroke="midnightblue" points="536.813,-27.9711 543.377,-19.6545 533.06,-22.0626 536.813,-27.9711"/>
</g>
<!-- Node13 -->
<g id="node14" class="node"><title>Node13</title>
<polygon fill="none" stroke="#bfbfbf" points="597.5,-0.5 597.5,-19.5 638.5,-19.5 638.5,-0.5 597.5,-0.5"/>
<text text-anchor="middle" x="618" y="-7.5" font-family="Helvetica,sans-Serif" font-size="10.00">string</text>
</g>
<!-- Node7&#45;&gt;Node13 -->
<g id="edge17" class="edge"><title>Node7&#45;&gt;Node13</title>
<path fill="none" stroke="midnightblue" d="M495.134,-56.4435C520.198,-47.1732 560.286,-32.3464 587.813,-22.1652"/>
<polygon fill="midnightblue" stroke="midnightblue" points="589.17,-25.395 597.335,-18.6433 586.742,-18.8297 589.17,-25.395"/>
</g>
<!-- Node14 -->
<g id="node15" class="node"><title>Node14</title>
<polygon fill="none" stroke="#bfbfbf" points="656.5,-0.5 656.5,-19.5 705.5,-19.5 705.5,-0.5 656.5,-0.5"/>
<text text-anchor="middle" x="681" y="-7.5" font-family="Helvetica,sans-Serif" font-size="10.00">fstream</text>
</g>
<!-- Node7&#45;&gt;Node14 -->
<g id="edge18" class="edge"><title>Node7&#45;&gt;Node14</title>
<path fill="none" stroke="midnightblue" d="M505.567,-56.4437C538.813,-47.9525 591.437,-34.4677 646.542,-20.1053"/>
<polygon fill="midnightblue" stroke="midnightblue" points="647.699,-23.4209 656.491,-17.5097 645.932,-16.6476 647.699,-23.4209"/>
</g>
<!-- Node15 -->
<g id="node16" class="node"><title>Node15</title>
<polygon fill="none" stroke="#bfbfbf" points="723.5,-0.5 723.5,-19.5 772.5,-19.5 772.5,-0.5 723.5,-0.5"/>
<text text-anchor="middle" x="748" y="-7.5" font-family="Helvetica,sans-Serif" font-size="10.00">cassert</text>
</g>
<!-- Node7&#45;&gt;Node15 -->
<g id="edge19" class="edge"><title>Node7&#45;&gt;Node15</title>
<path fill="none" stroke="midnightblue" d="M524.158,-56.4638C571.116,-48.5165 642.219,-35.8368 713.163,-20.0503"/>
<polygon fill="midnightblue" stroke="midnightblue" points="714.181,-23.4091 723.17,-17.8023 712.646,-16.5793 714.181,-23.4091"/>
</g>
<!-- Node7&#45;&gt;Node16 -->
<g id="edge20" class="edge"><title>Node7&#45;&gt;Node16</title>
<path fill="none" stroke="midnightblue" d="M526.586,-57.1694C603.616,-46.1036 738.722,-26.6337 780.242,-19.8591"/>
<polygon fill="midnightblue" stroke="midnightblue" points="780.984,-23.2829 790.242,-18.1323 779.793,-16.385 780.984,-23.2829"/>
</g>
</g>
</svg>
