<?xml version="1.0" encoding="UTF-8" standalone="no"?>
<!DOCTYPE svg PUBLIC "-//W3C//DTD SVG 1.1//EN"
 "http://www.w3.org/Graphics/SVG/1.1/DTD/svg11.dtd">
<!-- Generated by graphviz version 2.38.0 (20140413.2041)
 -->
<!-- Title: D:/Users/Victor/OneDrive/Documents/Visual Studio 2017/Projects/Jeu_de_Go/Jeu_de_Go/Sources/Engine/History.cpp Pages: 1 -->
<svg width="858pt" height="240pt"
 viewBox="0.00 0.00 857.50 240.00" xmlns="http://www.w3.org/2000/svg" xmlns:xlink="http://www.w3.org/1999/xlink">
<g id="graph0" class="graph" transform="scale(1 1) rotate(0) translate(4 236)">
<title>D:/Users/Victor/OneDrive/Documents/Visual Studio 2017/Projects/Jeu_de_Go/Jeu_de_Go/Sources/Engine/History.cpp</title>
<!-- Node0 -->
<g id="node1" class="node"><title>Node0</title>
<polygon fill="#bfbfbf" stroke="black" points="402,-168.5 402,-231.5 542,-231.5 542,-168.5 402,-168.5"/>
<text text-anchor="start" x="410" y="-219.5" font-family="Helvetica,sans-Serif" font-size="10.00">D:/Users/Victor/OneDrive</text>
<text text-anchor="start" x="410" y="-208.5" font-family="Helvetica,sans-Serif" font-size="10.00">/Documents/Visual Studio</text>
<text text-anchor="start" x="410" y="-197.5" font-family="Helvetica,sans-Serif" font-size="10.00"> 2017/Projects/Jeu_de_Go</text>
<text text-anchor="start" x="410" y="-186.5" font-family="Helvetica,sans-Serif" font-size="10.00">/Jeu_de_Go/Sources/Engine</text>
<text text-anchor="middle" x="472" y="-175.5" font-family="Helvetica,sans-Serif" font-size="10.00">/History.cpp</text>
</g>
<!-- Node1 -->
<g id="node2" class="node"><title>Node1</title>
<g id="a_node2"><a xlink:href="_history_8h.html" target="_top" xlink:title="History.h">
<polygon fill="none" stroke="black" points="444,-112.5 444,-131.5 500,-131.5 500,-112.5 444,-112.5"/>
<text text-anchor="middle" x="472" y="-119.5" font-family="Helvetica,sans-Serif" font-size="10.00">History.h</text>
</a>
</g>
</g>
<!-- Node0&#45;&gt;Node1 -->
<g id="edge1" class="edge"><title>Node0&#45;&gt;Node1</title>
<path fill="none" stroke="midnightblue" d="M472,-168.088C472,-159.15 472,-149.669 472,-141.719"/>
<polygon fill="midnightblue" stroke="midnightblue" points="475.5,-141.718 472,-131.718 468.5,-141.718 475.5,-141.718"/>
</g>
<!-- Node2 -->
<g id="node3" class="node"><title>Node2</title>
<g id="a_node3"><a xlink:href="_globals_8h.html" target="_top" xlink:title="../Graphics/Globals.h">
<polygon fill="none" stroke="black" points="417.5,-56.5 417.5,-75.5 526.5,-75.5 526.5,-56.5 417.5,-56.5"/>
<text text-anchor="middle" x="472" y="-63.5" font-family="Helvetica,sans-Serif" font-size="10.00">../Graphics/Globals.h</text>
</a>
</g>
</g>
<!-- Node1&#45;&gt;Node2 -->
<g id="edge2" class="edge"><title>Node1&#45;&gt;Node2</title>
<path fill="none" stroke="midnightblue" d="M472,-112.083C472,-105.006 472,-94.8611 472,-85.9865"/>
<polygon fill="midnightblue" stroke="midnightblue" points="475.5,-85.751 472,-75.7511 468.5,-85.7511 475.5,-85.751"/>
</g>
<!-- Node13 -->
<g id="node14" class="node"><title>Node13</title>
<g id="a_node14"><a xlink:href="_etat_8h.html" target="_top" xlink:title="Etat.h">
<polygon fill="none" stroke="black" points="181.5,-56.5 181.5,-75.5 224.5,-75.5 224.5,-56.5 181.5,-56.5"/>
<text text-anchor="middle" x="203" y="-63.5" font-family="Helvetica,sans-Serif" font-size="10.00">Etat.h</text>
</a>
</g>
</g>
<!-- Node1&#45;&gt;Node13 -->
<g id="edge13" class="edge"><title>Node1&#45;&gt;Node13</title>
<path fill="none" stroke="midnightblue" d="M443.974,-115.374C393.511,-105.244 287.7,-84.003 234.688,-73.3611"/>
<polygon fill="midnightblue" stroke="midnightblue" points="235.314,-69.9171 224.821,-71.3804 233.937,-76.7802 235.314,-69.9171"/>
</g>
<!-- Node14 -->
<g id="node15" class="node"><title>Node14</title>
<polygon fill="none" stroke="#bfbfbf" points="544.5,-56.5 544.5,-75.5 573.5,-75.5 573.5,-56.5 544.5,-56.5"/>
<text text-anchor="middle" x="559" y="-63.5" font-family="Helvetica,sans-Serif" font-size="10.00">list</text>
</g>
<!-- Node1&#45;&gt;Node14 -->
<g id="edge15" class="edge"><title>Node1&#45;&gt;Node14</title>
<path fill="none" stroke="midnightblue" d="M485.978,-112.324C499.55,-103.9 520.38,-90.9709 536.325,-81.0741"/>
<polygon fill="midnightblue" stroke="midnightblue" points="538.406,-83.9019 545.057,-75.6545 534.714,-77.9544 538.406,-83.9019"/>
</g>
<!-- Node3 -->
<g id="node4" class="node"><title>Node3</title>
<polygon fill="none" stroke="#bfbfbf" points="72,-0.5 72,-19.5 176,-19.5 176,-0.5 72,-0.5"/>
<text text-anchor="middle" x="124" y="-7.5" font-family="Helvetica,sans-Serif" font-size="10.00">SFML/Graphics.hpp</text>
</g>
<!-- Node2&#45;&gt;Node3 -->
<g id="edge3" class="edge"><title>Node2&#45;&gt;Node3</title>
<path fill="none" stroke="midnightblue" d="M417.242,-56.5031C354.559,-46.7764 252.096,-30.877 186.384,-20.6802"/>
<polygon fill="midnightblue" stroke="midnightblue" points="186.583,-17.1693 176.165,-19.0945 185.51,-24.0866 186.583,-17.1693"/>
</g>
<!-- Node4 -->
<g id="node5" class="node"><title>Node4</title>
<polygon fill="none" stroke="#bfbfbf" points="194,-0.5 194,-19.5 292,-19.5 292,-0.5 194,-0.5"/>
<text text-anchor="middle" x="243" y="-7.5" font-family="Helvetica,sans-Serif" font-size="10.00">SFML/System.hpp</text>
</g>
<!-- Node2&#45;&gt;Node4 -->
<g id="edge4" class="edge"><title>Node2&#45;&gt;Node4</title>
<path fill="none" stroke="midnightblue" d="M435.714,-56.4435C396.017,-47.0826 332.293,-32.0561 289.088,-21.868"/>
<polygon fill="midnightblue" stroke="midnightblue" points="289.652,-18.4051 279.116,-19.5164 288.046,-25.2182 289.652,-18.4051"/>
</g>
<!-- Node5 -->
<g id="node6" class="node"><title>Node5</title>
<polygon fill="none" stroke="#bfbfbf" points="310.5,-0.5 310.5,-19.5 409.5,-19.5 409.5,-0.5 310.5,-0.5"/>
<text text-anchor="middle" x="360" y="-7.5" font-family="Helvetica,sans-Serif" font-size="10.00">SFML/Window.hpp</text>
</g>
<!-- Node2&#45;&gt;Node5 -->
<g id="edge5" class="edge"><title>Node2&#45;&gt;Node5</title>
<path fill="none" stroke="midnightblue" d="M454.005,-56.324C435.962,-47.6247 407.953,-34.1202 387.197,-24.113"/>
<polygon fill="midnightblue" stroke="midnightblue" points="388.478,-20.8449 377.95,-19.6545 385.438,-27.1502 388.478,-20.8449"/>
</g>
<!-- Node6 -->
<g id="node7" class="node"><title>Node6</title>
<polygon fill="none" stroke="#bfbfbf" points="427.5,-0.5 427.5,-19.5 516.5,-19.5 516.5,-0.5 427.5,-0.5"/>
<text text-anchor="middle" x="472" y="-7.5" font-family="Helvetica,sans-Serif" font-size="10.00">SFML/Audio.hpp</text>
</g>
<!-- Node2&#45;&gt;Node6 -->
<g id="edge6" class="edge"><title>Node2&#45;&gt;Node6</title>
<path fill="none" stroke="midnightblue" d="M472,-56.083C472,-49.0059 472,-38.8611 472,-29.9865"/>
<polygon fill="midnightblue" stroke="midnightblue" points="475.5,-29.751 472,-19.7511 468.5,-29.7511 475.5,-29.751"/>
</g>
<!-- Node7 -->
<g id="node8" class="node"><title>Node7</title>
<polygon fill="none" stroke="#bfbfbf" points="0,-0.5 0,-19.5 54,-19.5 54,-0.5 0,-0.5"/>
<text text-anchor="middle" x="27" y="-7.5" font-family="Helvetica,sans-Serif" font-size="10.00">iostream</text>
</g>
<!-- Node2&#45;&gt;Node7 -->
<g id="edge7" class="edge"><title>Node2&#45;&gt;Node7</title>
<path fill="none" stroke="midnightblue" d="M417.414,-61.356C340.601,-55.7076 196.138,-43.1815 63.9422,-19.9425"/>
<polygon fill="midnightblue" stroke="midnightblue" points="64.501,-16.487 54.0419,-18.1776 63.2725,-23.3784 64.501,-16.487"/>
</g>
<!-- Node8 -->
<g id="node9" class="node"><title>Node8</title>
<polygon fill="none" stroke="#bfbfbf" points="534.5,-0.5 534.5,-19.5 579.5,-19.5 579.5,-0.5 534.5,-0.5"/>
<text text-anchor="middle" x="557" y="-7.5" font-family="Helvetica,sans-Serif" font-size="10.00">cstdlib</text>
</g>
<!-- Node2&#45;&gt;Node8 -->
<g id="edge8" class="edge"><title>Node2&#45;&gt;Node8</title>
<path fill="none" stroke="midnightblue" d="M485.657,-56.324C498.916,-47.9002 519.268,-34.9709 534.846,-25.0741"/>
<polygon fill="midnightblue" stroke="midnightblue" points="536.813,-27.9711 543.377,-19.6545 533.06,-22.0626 536.813,-27.9711"/>
</g>
<!-- Node9 -->
<g id="node10" class="node"><title>Node9</title>
<polygon fill="none" stroke="#bfbfbf" points="597.5,-0.5 597.5,-19.5 638.5,-19.5 638.5,-0.5 597.5,-0.5"/>
<text text-anchor="middle" x="618" y="-7.5" font-family="Helvetica,sans-Serif" font-size="10.00">string</text>
</g>
<!-- Node2&#45;&gt;Node9 -->
<g id="edge9" class="edge"><title>Node2&#45;&gt;Node9</title>
<path fill="none" stroke="midnightblue" d="M495.134,-56.4435C520.198,-47.1732 560.286,-32.3464 587.813,-22.1652"/>
<polygon fill="midnightblue" stroke="midnightblue" points="589.17,-25.395 597.335,-18.6433 586.742,-18.8297 589.17,-25.395"/>
</g>
<!-- Node10 -->
<g id="node11" class="node"><title>Node10</title>
<polygon fill="none" stroke="#bfbfbf" points="656.5,-0.5 656.5,-19.5 705.5,-19.5 705.5,-0.5 656.5,-0.5"/>
<text text-anchor="middle" x="681" y="-7.5" font-family="Helvetica,sans-Serif" font-size="10.00">fstream</text>
</g>
<!-- Node2&#45;&gt;Node10 -->
<g id="edge10" class="edge"><title>Node2&#45;&gt;Node10</title>
<path fill="none" stroke="midnightblue" d="M506.111,-56.4497C539.588,-48.0203 592.35,-34.6351 646.399,-20.3971"/>
<polygon fill="midnightblue" stroke="midnightblue" points="647.37,-23.7609 656.145,-17.8241 645.583,-16.9928 647.37,-23.7609"/>
</g>
<!-- Node11 -->
<g id="node12" class="node"><title>Node11</title>
<polygon fill="none" stroke="#bfbfbf" points="723.5,-0.5 723.5,-19.5 772.5,-19.5 772.5,-0.5 723.5,-0.5"/>
<text text-anchor="middle" x="748" y="-7.5" font-family="Helvetica,sans-Serif" font-size="10.00">cassert</text>
</g>
<!-- Node2&#45;&gt;Node11 -->
<g id="edge11" class="edge"><title>Node2&#45;&gt;Node11</title>
<path fill="none" stroke="midnightblue" d="M525.353,-56.4323C572.543,-48.5581 643.447,-36.0074 713.337,-20.2488"/>
<polygon fill="midnightblue" stroke="midnightblue" points="714.217,-23.6381 723.189,-18.0041 712.662,-16.813 714.217,-23.6381"/>
</g>
<!-- Node12 -->
<g id="node13" class="node"><title>Node12</title>
<polygon fill="none" stroke="#bfbfbf" points="790.5,-0.5 790.5,-19.5 849.5,-19.5 849.5,-0.5 790.5,-0.5"/>
<text text-anchor="middle" x="820" y="-7.5" font-family="Helvetica,sans-Serif" font-size="10.00">stdexcept</text>
</g>
<!-- Node2&#45;&gt;Node12 -->
<g id="edge12" class="edge"><title>Node2&#45;&gt;Node12</title>
<path fill="none" stroke="midnightblue" d="M526.764,-57.1785C603.878,-46.1484 739.005,-26.7546 780.175,-20.0542"/>
<polygon fill="midnightblue" stroke="midnightblue" points="780.925,-23.4765 790.183,-18.325 779.733,-16.5787 780.925,-23.4765"/>
</g>
<!-- Node13&#45;&gt;Node7 -->
<g id="edge14" class="edge"><title>Node13&#45;&gt;Node7</title>
<path fill="none" stroke="midnightblue" d="M181.419,-58.3785C152.262,-49.4327 99.8478,-33.351 64.2563,-22.4309"/>
<polygon fill="midnightblue" stroke="midnightblue" points="64.8334,-18.947 54.2467,-19.3598 62.7801,-25.6391 64.8334,-18.947"/>
</g>
</g>
</svg>
