<?xml version="1.0" encoding="UTF-8" standalone="no"?>
<!DOCTYPE svg PUBLIC "-//W3C//DTD SVG 1.1//EN"
 "http://www.w3.org/Graphics/SVG/1.1/DTD/svg11.dtd">
<!-- Generated by graphviz version 2.38.0 (20140413.2041)
 -->
<!-- Title: D:/Users/Victor/OneDrive/Documents/Visual Studio 2017/Projects/Jeu_de_Go/Jeu_de_Go/Sources/Engine/History.h Pages: 1 -->
<svg width="1417pt" height="872pt"
 viewBox="0.00 0.00 1416.50 872.00" xmlns="http://www.w3.org/2000/svg" xmlns:xlink="http://www.w3.org/1999/xlink">
<g id="graph0" class="graph" transform="scale(1 1) rotate(0) translate(4 868)">
<title>D:/Users/Victor/OneDrive/Documents/Visual Studio 2017/Projects/Jeu_de_Go/Jeu_de_Go/Sources/Engine/History.h</title>
<!-- Node14 -->
<g id="node1" class="node"><title>Node14</title>
<polygon fill="#bfbfbf" stroke="black" points="1101.5,-800.5 1101.5,-863.5 1241.5,-863.5 1241.5,-800.5 1101.5,-800.5"/>
<text text-anchor="start" x="1109.5" y="-851.5" font-family="Helvetica,sans-Serif" font-size="10.00">D:/Users/Victor/OneDrive</text>
<text text-anchor="start" x="1109.5" y="-840.5" font-family="Helvetica,sans-Serif" font-size="10.00">/Documents/Visual Studio</text>
<text text-anchor="start" x="1109.5" y="-829.5" font-family="Helvetica,sans-Serif" font-size="10.00"> 2017/Projects/Jeu_de_Go</text>
<text text-anchor="start" x="1109.5" y="-818.5" font-family="Helvetica,sans-Serif" font-size="10.00">/Jeu_de_Go/Sources/Engine</text>
<text text-anchor="middle" x="1171.5" y="-807.5" font-family="Helvetica,sans-Serif" font-size="10.00">/History.h</text>
</g>
<!-- Node15 -->
<g id="node2" class="node"><title>Node15</title>
<g id="a_node2"><a xlink:href="_goban_8h.html" target="_top" xlink:title="D:/Users/Victor/OneDrive\l/Documents/Visual Studio\l 2017/Projects/Jeu_de_Go\l/Jeu_de_Go/Sources/Engine/Goban.h">
<polygon fill="none" stroke="black" points="992.5,-706 992.5,-758 1172.5,-758 1172.5,-706 992.5,-706"/>
<text text-anchor="start" x="1000.5" y="-746" font-family="Helvetica,sans-Serif" font-size="10.00">D:/Users/Victor/OneDrive</text>
<text text-anchor="start" x="1000.5" y="-735" font-family="Helvetica,sans-Serif" font-size="10.00">/Documents/Visual Studio</text>
<text text-anchor="start" x="1000.5" y="-724" font-family="Helvetica,sans-Serif" font-size="10.00"> 2017/Projects/Jeu_de_Go</text>
<text text-anchor="middle" x="1082.5" y="-713" font-family="Helvetica,sans-Serif" font-size="10.00">/Jeu_de_Go/Sources/Engine/Goban.h</text>
</a>
</g>
</g>
<!-- Node14&#45;&gt;Node15 -->
<g id="edge1" class="edge"><title>Node14&#45;&gt;Node15</title>
<path fill="none" stroke="midnightblue" d="M1136.77,-792.756C1126.19,-781.104 1114.83,-768.598 1105.25,-758.054"/>
<polygon fill="midnightblue" stroke="midnightblue" points="1134.27,-795.211 1143.58,-800.261 1139.45,-790.505 1134.27,-795.211"/>
</g>
<!-- Node39 -->
<g id="node26" class="node"><title>Node39</title>
<g id="a_node26"><a xlink:href="_history_8cpp.html" target="_top" xlink:title="D:/Users/Victor/OneDrive\l/Documents/Visual Studio\l 2017/Projects/Jeu_de_Go\l/Jeu_de_Go/Sources/Engine\l/History.cpp">
<polygon fill="none" stroke="black" points="1190.5,-700.5 1190.5,-763.5 1330.5,-763.5 1330.5,-700.5 1190.5,-700.5"/>
<text text-anchor="start" x="1198.5" y="-751.5" font-family="Helvetica,sans-Serif" font-size="10.00">D:/Users/Victor/OneDrive</text>
<text text-anchor="start" x="1198.5" y="-740.5" font-family="Helvetica,sans-Serif" font-size="10.00">/Documents/Visual Studio</text>
<text text-anchor="start" x="1198.5" y="-729.5" font-family="Helvetica,sans-Serif" font-size="10.00"> 2017/Projects/Jeu_de_Go</text>
<text text-anchor="start" x="1198.5" y="-718.5" font-family="Helvetica,sans-Serif" font-size="10.00">/Jeu_de_Go/Sources/Engine</text>
<text text-anchor="middle" x="1260.5" y="-707.5" font-family="Helvetica,sans-Serif" font-size="10.00">/History.cpp</text>
</a>
</g>
</g>
<!-- Node14&#45;&gt;Node39 -->
<g id="edge36" class="edge"><title>Node14&#45;&gt;Node39</title>
<path fill="none" stroke="midnightblue" d="M1206.29,-792.687C1215.05,-783.051 1224.32,-772.835 1232.68,-763.63"/>
<polygon fill="midnightblue" stroke="midnightblue" points="1203.55,-790.505 1199.42,-800.261 1208.73,-795.211 1203.55,-790.505"/>
</g>
<!-- Node16 -->
<g id="node3" class="node"><title>Node16</title>
<g id="a_node3"><a xlink:href="_arbre_8h.html" target="_top" xlink:title="D:/Users/Victor/OneDrive\l/Documents/Visual Studio\l 2017/Projects/Jeu_de_Go\l/Jeu_de_Go/Sources/Engine/Arbre.h">
<polygon fill="none" stroke="black" points="869,-606 869,-658 1044,-658 1044,-606 869,-606"/>
<text text-anchor="start" x="877" y="-646" font-family="Helvetica,sans-Serif" font-size="10.00">D:/Users/Victor/OneDrive</text>
<text text-anchor="start" x="877" y="-635" font-family="Helvetica,sans-Serif" font-size="10.00">/Documents/Visual Studio</text>
<text text-anchor="start" x="877" y="-624" font-family="Helvetica,sans-Serif" font-size="10.00"> 2017/Projects/Jeu_de_Go</text>
<text text-anchor="middle" x="956.5" y="-613" font-family="Helvetica,sans-Serif" font-size="10.00">/Jeu_de_Go/Sources/Engine/Arbre.h</text>
</a>
</g>
</g>
<!-- Node15&#45;&gt;Node16 -->
<g id="edge2" class="edge"><title>Node15&#45;&gt;Node16</title>
<path fill="none" stroke="midnightblue" d="M1041.86,-699.389C1024.7,-686.041 1004.99,-670.714 988.838,-658.152"/>
<polygon fill="midnightblue" stroke="midnightblue" points="1040.01,-702.386 1050.05,-705.763 1044.31,-696.86 1040.01,-702.386"/>
</g>
<!-- Node18 -->
<g id="node5" class="node"><title>Node18</title>
<g id="a_node5"><a xlink:href="_board_8h.html" target="_top" xlink:title="D:/Users/Victor/OneDrive\l/Documents/Visual Studio\l 2017/Projects/Jeu_de_Go\l/Jeu_de_Go/Sources/Graphics\l/Game/Board.h">
<polygon fill="none" stroke="black" points="709,-500.5 709,-563.5 858,-563.5 858,-500.5 709,-500.5"/>
<text text-anchor="start" x="717" y="-551.5" font-family="Helvetica,sans-Serif" font-size="10.00">D:/Users/Victor/OneDrive</text>
<text text-anchor="start" x="717" y="-540.5" font-family="Helvetica,sans-Serif" font-size="10.00">/Documents/Visual Studio</text>
<text text-anchor="start" x="717" y="-529.5" font-family="Helvetica,sans-Serif" font-size="10.00"> 2017/Projects/Jeu_de_Go</text>
<text text-anchor="start" x="717" y="-518.5" font-family="Helvetica,sans-Serif" font-size="10.00">/Jeu_de_Go/Sources/Graphics</text>
<text text-anchor="middle" x="783.5" y="-507.5" font-family="Helvetica,sans-Serif" font-size="10.00">/Game/Board.h</text>
</a>
</g>
</g>
<!-- Node15&#45;&gt;Node18 -->
<g id="edge34" class="edge"><title>Node15&#45;&gt;Node18</title>
<path fill="none" stroke="midnightblue" d="M982.395,-717.537C941.005,-707.993 894.597,-691.719 859.5,-664 826.589,-638.007 805.186,-593.551 793.726,-563.729"/>
<polygon fill="midnightblue" stroke="midnightblue" points="981.725,-720.973 992.244,-719.705 983.23,-714.137 981.725,-720.973"/>
</g>
<!-- Node19 -->
<g id="node6" class="node"><title>Node19</title>
<g id="a_node6"><a xlink:href="_game__window_8h.html" target="_top" xlink:title="D:/Users/Victor/OneDrive\l/Documents/Visual Studio\l 2017/Projects/Jeu_de_Go\l/Jeu_de_Go/Sources/Graphics\l/Game/Game_window.h">
<polygon fill="none" stroke="black" points="952,-400.5 952,-463.5 1101,-463.5 1101,-400.5 952,-400.5"/>
<text text-anchor="start" x="960" y="-451.5" font-family="Helvetica,sans-Serif" font-size="10.00">D:/Users/Victor/OneDrive</text>
<text text-anchor="start" x="960" y="-440.5" font-family="Helvetica,sans-Serif" font-size="10.00">/Documents/Visual Studio</text>
<text text-anchor="start" x="960" y="-429.5" font-family="Helvetica,sans-Serif" font-size="10.00"> 2017/Projects/Jeu_de_Go</text>
<text text-anchor="start" x="960" y="-418.5" font-family="Helvetica,sans-Serif" font-size="10.00">/Jeu_de_Go/Sources/Graphics</text>
<text text-anchor="middle" x="1026.5" y="-407.5" font-family="Helvetica,sans-Serif" font-size="10.00">/Game/Game_window.h</text>
</a>
</g>
</g>
<!-- Node15&#45;&gt;Node19 -->
<g id="edge35" class="edge"><title>Node15&#45;&gt;Node19</title>
<path fill="none" stroke="midnightblue" d="M1078.19,-695.918C1072.3,-650.439 1060.71,-568.801 1045.5,-500 1042.86,-488.076 1039.35,-475.132 1036.06,-463.829"/>
<polygon fill="midnightblue" stroke="midnightblue" points="1074.72,-696.389 1079.46,-705.864 1081.66,-695.501 1074.72,-696.389"/>
</g>
<!-- Node36 -->
<g id="node23" class="node"><title>Node36</title>
<g id="a_node23"><a xlink:href="_goban_8cpp.html" target="_top" xlink:title="D:/Users/Victor/OneDrive\l/Documents/Visual Studio\l 2017/Projects/Jeu_de_Go\l/Jeu_de_Go/Sources/Engine\l/Goban.cpp">
<polygon fill="none" stroke="black" points="1268.5,-600.5 1268.5,-663.5 1408.5,-663.5 1408.5,-600.5 1268.5,-600.5"/>
<text text-anchor="start" x="1276.5" y="-651.5" font-family="Helvetica,sans-Serif" font-size="10.00">D:/Users/Victor/OneDrive</text>
<text text-anchor="start" x="1276.5" y="-640.5" font-family="Helvetica,sans-Serif" font-size="10.00">/Documents/Visual Studio</text>
<text text-anchor="start" x="1276.5" y="-629.5" font-family="Helvetica,sans-Serif" font-size="10.00"> 2017/Projects/Jeu_de_Go</text>
<text text-anchor="start" x="1276.5" y="-618.5" font-family="Helvetica,sans-Serif" font-size="10.00">/Jeu_de_Go/Sources/Engine</text>
<text text-anchor="middle" x="1338.5" y="-607.5" font-family="Helvetica,sans-Serif" font-size="10.00">/Goban.cpp</text>
</a>
</g>
</g>
<!-- Node15&#45;&gt;Node36 -->
<g id="edge30" class="edge"><title>Node15&#45;&gt;Node36</title>
<path fill="none" stroke="midnightblue" d="M1158.9,-702.309C1190.13,-690.524 1226.58,-676.691 1259.5,-664 1262.39,-662.887 1265.33,-661.748 1268.31,-660.595"/>
<polygon fill="midnightblue" stroke="midnightblue" points="1157.51,-699.093 1149.39,-705.897 1159.98,-705.642 1157.51,-699.093"/>
</g>
<!-- Node37 -->
<g id="node24" class="node"><title>Node37</title>
<g id="a_node24"><a xlink:href="_parser_8h.html" target="_top" xlink:title="D:/Users/Victor/OneDrive\l/Documents/Visual Studio\l 2017/Projects/Jeu_de_Go\l/Jeu_de_Go/Sources/Engine\l/Parser.h">
<polygon fill="none" stroke="black" points="1110.5,-600.5 1110.5,-663.5 1250.5,-663.5 1250.5,-600.5 1110.5,-600.5"/>
<text text-anchor="start" x="1118.5" y="-651.5" font-family="Helvetica,sans-Serif" font-size="10.00">D:/Users/Victor/OneDrive</text>
<text text-anchor="start" x="1118.5" y="-640.5" font-family="Helvetica,sans-Serif" font-size="10.00">/Documents/Visual Studio</text>
<text text-anchor="start" x="1118.5" y="-629.5" font-family="Helvetica,sans-Serif" font-size="10.00"> 2017/Projects/Jeu_de_Go</text>
<text text-anchor="start" x="1118.5" y="-618.5" font-family="Helvetica,sans-Serif" font-size="10.00">/Jeu_de_Go/Sources/Engine</text>
<text text-anchor="middle" x="1180.5" y="-607.5" font-family="Helvetica,sans-Serif" font-size="10.00">/Parser.h</text>
</a>
</g>
</g>
<!-- Node15&#45;&gt;Node37 -->
<g id="edge31" class="edge"><title>Node15&#45;&gt;Node37</title>
<path fill="none" stroke="midnightblue" d="M1114.89,-698.605C1126.12,-687.381 1138.66,-674.838 1149.75,-663.749"/>
<polygon fill="midnightblue" stroke="midnightblue" points="1112.33,-696.217 1107.74,-705.763 1117.28,-701.166 1112.33,-696.217"/>
</g>
<!-- Node17 -->
<g id="node4" class="node"><title>Node17</title>
<g id="a_node4"><a xlink:href="_arbre_8cpp.html" target="_top" xlink:title="D:/Users/Victor/OneDrive\l/Documents/Visual Studio\l 2017/Projects/Jeu_de_Go\l/Jeu_de_Go/Sources/Engine\l/Arbre.cpp">
<polygon fill="none" stroke="black" points="876.5,-500.5 876.5,-563.5 1016.5,-563.5 1016.5,-500.5 876.5,-500.5"/>
<text text-anchor="start" x="884.5" y="-551.5" font-family="Helvetica,sans-Serif" font-size="10.00">D:/Users/Victor/OneDrive</text>
<text text-anchor="start" x="884.5" y="-540.5" font-family="Helvetica,sans-Serif" font-size="10.00">/Documents/Visual Studio</text>
<text text-anchor="start" x="884.5" y="-529.5" font-family="Helvetica,sans-Serif" font-size="10.00"> 2017/Projects/Jeu_de_Go</text>
<text text-anchor="start" x="884.5" y="-518.5" font-family="Helvetica,sans-Serif" font-size="10.00">/Jeu_de_Go/Sources/Engine</text>
<text text-anchor="middle" x="946.5" y="-507.5" font-family="Helvetica,sans-Serif" font-size="10.00">/Arbre.cpp</text>
</a>
</g>
</g>
<!-- Node16&#45;&gt;Node17 -->
<g id="edge3" class="edge"><title>Node16&#45;&gt;Node17</title>
<path fill="none" stroke="midnightblue" d="M952.897,-595.692C951.831,-585.241 950.672,-573.887 949.638,-563.749"/>
<polygon fill="midnightblue" stroke="midnightblue" points="949.428,-596.17 953.925,-605.763 956.391,-595.459 949.428,-596.17"/>
</g>
<!-- Node16&#45;&gt;Node18 -->
<g id="edge4" class="edge"><title>Node16&#45;&gt;Node18</title>
<path fill="none" stroke="midnightblue" d="M903.205,-600.81C882.327,-588.983 858.407,-575.433 837.466,-563.57"/>
<polygon fill="midnightblue" stroke="midnightblue" points="901.522,-603.879 911.948,-605.763 904.972,-597.788 901.522,-603.879"/>
</g>
<!-- Node16&#45;&gt;Node19 -->
<g id="edge29" class="edge"><title>Node16&#45;&gt;Node19</title>
<path fill="none" stroke="midnightblue" d="M1000.16,-598.827C1010.38,-588.904 1019.9,-577.097 1025.5,-564 1039.22,-531.897 1036.85,-491.194 1032.75,-463.746"/>
<polygon fill="midnightblue" stroke="midnightblue" points="997.653,-596.376 992.643,-605.711 1002.38,-601.538 997.653,-596.376"/>
</g>
<!-- Node18&#45;&gt;Node19 -->
<g id="edge5" class="edge"><title>Node18&#45;&gt;Node19</title>
<path fill="none" stroke="midnightblue" d="M867.599,-497.083C894.929,-486.062 925.056,-473.912 951.663,-463.181"/>
<polygon fill="midnightblue" stroke="midnightblue" points="866.025,-493.945 858.059,-500.931 868.643,-500.436 866.025,-493.945"/>
</g>
<!-- Node35 -->
<g id="node22" class="node"><title>Node35</title>
<g id="a_node22"><a xlink:href="_board_8cpp.html" target="_top" xlink:title="D:/Users/Victor/OneDrive\l/Documents/Visual Studio\l 2017/Projects/Jeu_de_Go\l/Jeu_de_Go/Sources/Graphics\l/Game/Board.cpp">
<polygon fill="none" stroke="black" points="709,-400.5 709,-463.5 858,-463.5 858,-400.5 709,-400.5"/>
<text text-anchor="start" x="717" y="-451.5" font-family="Helvetica,sans-Serif" font-size="10.00">D:/Users/Victor/OneDrive</text>
<text text-anchor="start" x="717" y="-440.5" font-family="Helvetica,sans-Serif" font-size="10.00">/Documents/Visual Studio</text>
<text text-anchor="start" x="717" y="-429.5" font-family="Helvetica,sans-Serif" font-size="10.00"> 2017/Projects/Jeu_de_Go</text>
<text text-anchor="start" x="717" y="-418.5" font-family="Helvetica,sans-Serif" font-size="10.00">/Jeu_de_Go/Sources/Graphics</text>
<text text-anchor="middle" x="783.5" y="-407.5" font-family="Helvetica,sans-Serif" font-size="10.00">/Game/Board.cpp</text>
</a>
</g>
</g>
<!-- Node18&#45;&gt;Node35 -->
<g id="edge28" class="edge"><title>Node18&#45;&gt;Node35</title>
<path fill="none" stroke="midnightblue" d="M783.5,-490.099C783.5,-481.238 783.5,-472.015 783.5,-463.63"/>
<polygon fill="midnightblue" stroke="midnightblue" points="780,-490.261 783.5,-500.261 787,-490.261 780,-490.261"/>
</g>
<!-- Node20 -->
<g id="node7" class="node"><title>Node20</title>
<g id="a_node7"><a xlink:href="_choice_8h.html" target="_top" xlink:title="D:/Users/Victor/OneDrive\l/Documents/Visual Studio\l 2017/Projects/Jeu_de_Go\l/Jeu_de_Go/Sources/Graphics\l/Choice.h">
<polygon fill="none" stroke="black" points="447,-300.5 447,-363.5 596,-363.5 596,-300.5 447,-300.5"/>
<text text-anchor="start" x="455" y="-351.5" font-family="Helvetica,sans-Serif" font-size="10.00">D:/Users/Victor/OneDrive</text>
<text text-anchor="start" x="455" y="-340.5" font-family="Helvetica,sans-Serif" font-size="10.00">/Documents/Visual Studio</text>
<text text-anchor="start" x="455" y="-329.5" font-family="Helvetica,sans-Serif" font-size="10.00"> 2017/Projects/Jeu_de_Go</text>
<text text-anchor="start" x="455" y="-318.5" font-family="Helvetica,sans-Serif" font-size="10.00">/Jeu_de_Go/Sources/Graphics</text>
<text text-anchor="middle" x="521.5" y="-307.5" font-family="Helvetica,sans-Serif" font-size="10.00">/Choice.h</text>
</a>
</g>
</g>
<!-- Node19&#45;&gt;Node20 -->
<g id="edge6" class="edge"><title>Node19&#45;&gt;Node20</title>
<path fill="none" stroke="midnightblue" d="M941.959,-414.594C845.338,-395.844 688.678,-365.442 596.32,-347.52"/>
<polygon fill="midnightblue" stroke="midnightblue" points="941.502,-418.071 951.986,-416.54 942.835,-411.199 941.502,-418.071"/>
</g>
<!-- Node25 -->
<g id="node12" class="node"><title>Node25</title>
<g id="a_node12"><a xlink:href="_main_8cpp.html" target="_top" xlink:title="D:/Users/Victor/OneDrive\l/Documents/Visual Studio\l 2017/Projects/Jeu_de_Go\l/Jeu_de_Go/Sources/Graphics\l/Main.cpp">
<polygon fill="none" stroke="black" points="643,-0.5 643,-63.5 792,-63.5 792,-0.5 643,-0.5"/>
<text text-anchor="start" x="651" y="-51.5" font-family="Helvetica,sans-Serif" font-size="10.00">D:/Users/Victor/OneDrive</text>
<text text-anchor="start" x="651" y="-40.5" font-family="Helvetica,sans-Serif" font-size="10.00">/Documents/Visual Studio</text>
<text text-anchor="start" x="651" y="-29.5" font-family="Helvetica,sans-Serif" font-size="10.00"> 2017/Projects/Jeu_de_Go</text>
<text text-anchor="start" x="651" y="-18.5" font-family="Helvetica,sans-Serif" font-size="10.00">/Jeu_de_Go/Sources/Graphics</text>
<text text-anchor="middle" x="717.5" y="-7.5" font-family="Helvetica,sans-Serif" font-size="10.00">/Main.cpp</text>
</a>
</g>
</g>
<!-- Node19&#45;&gt;Node25 -->
<g id="edge27" class="edge"><title>Node19&#45;&gt;Node25</title>
<path fill="none" stroke="midnightblue" d="M967.643,-393.705C957.888,-385.064 948.886,-375.1 942.5,-364 883.352,-261.194 978.618,-191.787 903.5,-100 876.328,-66.798 831.345,-50.0458 792.423,-41.5951"/>
<polygon fill="midnightblue" stroke="midnightblue" points="965.674,-396.62 975.592,-400.346 970.162,-391.249 965.674,-396.62"/>
</g>
<!-- Node33 -->
<g id="node20" class="node"><title>Node33</title>
<g id="a_node20"><a xlink:href="_game__window_8cpp.html" target="_top" xlink:title="D:/Users/Victor/OneDrive\l/Documents/Visual Studio\l 2017/Projects/Jeu_de_Go\l/Jeu_de_Go/Sources/Graphics\l/Game/Game_window.cpp">
<polygon fill="none" stroke="black" points="1119,-300.5 1119,-363.5 1268,-363.5 1268,-300.5 1119,-300.5"/>
<text text-anchor="start" x="1127" y="-351.5" font-family="Helvetica,sans-Serif" font-size="10.00">D:/Users/Victor/OneDrive</text>
<text text-anchor="start" x="1127" y="-340.5" font-family="Helvetica,sans-Serif" font-size="10.00">/Documents/Visual Studio</text>
<text text-anchor="start" x="1127" y="-329.5" font-family="Helvetica,sans-Serif" font-size="10.00"> 2017/Projects/Jeu_de_Go</text>
<text text-anchor="start" x="1127" y="-318.5" font-family="Helvetica,sans-Serif" font-size="10.00">/Jeu_de_Go/Sources/Graphics</text>
<text text-anchor="middle" x="1193.5" y="-307.5" font-family="Helvetica,sans-Serif" font-size="10.00">/Game/Game_window.cpp</text>
</a>
</g>
</g>
<!-- Node19&#45;&gt;Node33 -->
<g id="edge24" class="edge"><title>Node19&#45;&gt;Node33</title>
<path fill="none" stroke="midnightblue" d="M1087.91,-394.966C1105.44,-384.676 1124.38,-373.564 1141.3,-363.63"/>
<polygon fill="midnightblue" stroke="midnightblue" points="1085.73,-392.181 1078.88,-400.261 1089.28,-398.218 1085.73,-392.181"/>
</g>
<!-- Node34 -->
<g id="node21" class="node"><title>Node34</title>
<g id="a_node21"><a xlink:href="_screens_8h.html" target="_top" xlink:title="D:/Users/Victor/OneDrive\l/Documents/Visual Studio\l 2017/Projects/Jeu_de_Go\l/Jeu_de_Go/Sources/Graphics\l/Screens.h">
<polygon fill="none" stroke="black" points="952,-300.5 952,-363.5 1101,-363.5 1101,-300.5 952,-300.5"/>
<text text-anchor="start" x="960" y="-351.5" font-family="Helvetica,sans-Serif" font-size="10.00">D:/Users/Victor/OneDrive</text>
<text text-anchor="start" x="960" y="-340.5" font-family="Helvetica,sans-Serif" font-size="10.00">/Documents/Visual Studio</text>
<text text-anchor="start" x="960" y="-329.5" font-family="Helvetica,sans-Serif" font-size="10.00"> 2017/Projects/Jeu_de_Go</text>
<text text-anchor="start" x="960" y="-318.5" font-family="Helvetica,sans-Serif" font-size="10.00">/Jeu_de_Go/Sources/Graphics</text>
<text text-anchor="middle" x="1026.5" y="-307.5" font-family="Helvetica,sans-Serif" font-size="10.00">/Screens.h</text>
</a>
</g>
</g>
<!-- Node19&#45;&gt;Node34 -->
<g id="edge25" class="edge"><title>Node19&#45;&gt;Node34</title>
<path fill="none" stroke="midnightblue" d="M1026.5,-390.099C1026.5,-381.238 1026.5,-372.015 1026.5,-363.63"/>
<polygon fill="midnightblue" stroke="midnightblue" points="1023,-390.261 1026.5,-400.261 1030,-390.261 1023,-390.261"/>
</g>
<!-- Node21 -->
<g id="node8" class="node"><title>Node21</title>
<g id="a_node8"><a xlink:href="_choice_8cpp.html" target="_top" xlink:title="D:/Users/Victor/OneDrive\l/Documents/Visual Studio\l 2017/Projects/Jeu_de_Go\l/Jeu_de_Go/Sources/Graphics\l/Choice.cpp">
<polygon fill="none" stroke="black" points="77,-200.5 77,-263.5 226,-263.5 226,-200.5 77,-200.5"/>
<text text-anchor="start" x="85" y="-251.5" font-family="Helvetica,sans-Serif" font-size="10.00">D:/Users/Victor/OneDrive</text>
<text text-anchor="start" x="85" y="-240.5" font-family="Helvetica,sans-Serif" font-size="10.00">/Documents/Visual Studio</text>
<text text-anchor="start" x="85" y="-229.5" font-family="Helvetica,sans-Serif" font-size="10.00"> 2017/Projects/Jeu_de_Go</text>
<text text-anchor="start" x="85" y="-218.5" font-family="Helvetica,sans-Serif" font-size="10.00">/Jeu_de_Go/Sources/Graphics</text>
<text text-anchor="middle" x="151.5" y="-207.5" font-family="Helvetica,sans-Serif" font-size="10.00">/Choice.cpp</text>
</a>
</g>
</g>
<!-- Node20&#45;&gt;Node21 -->
<g id="edge7" class="edge"><title>Node20&#45;&gt;Node21</title>
<path fill="none" stroke="midnightblue" d="M436.637,-314.175C379.105,-302.041 301.613,-284.276 234.5,-264 231.702,-263.155 228.863,-262.264 226.003,-261.34"/>
<polygon fill="midnightblue" stroke="midnightblue" points="436.272,-317.674 446.778,-316.299 437.707,-310.823 436.272,-317.674"/>
</g>
<!-- Node22 -->
<g id="node9" class="node"><title>Node22</title>
<g id="a_node9"><a xlink:href="_choice__miniature_8h.html" target="_top" xlink:title="D:/Users/Victor/OneDrive\l/Documents/Visual Studio\l 2017/Projects/Jeu_de_Go\l/Jeu_de_Go/Sources/Graphics\l/Choice_miniature.h">
<polygon fill="none" stroke="black" points="447,-200.5 447,-263.5 596,-263.5 596,-200.5 447,-200.5"/>
<text text-anchor="start" x="455" y="-251.5" font-family="Helvetica,sans-Serif" font-size="10.00">D:/Users/Victor/OneDrive</text>
<text text-anchor="start" x="455" y="-240.5" font-family="Helvetica,sans-Serif" font-size="10.00">/Documents/Visual Studio</text>
<text text-anchor="start" x="455" y="-229.5" font-family="Helvetica,sans-Serif" font-size="10.00"> 2017/Projects/Jeu_de_Go</text>
<text text-anchor="start" x="455" y="-218.5" font-family="Helvetica,sans-Serif" font-size="10.00">/Jeu_de_Go/Sources/Graphics</text>
<text text-anchor="middle" x="521.5" y="-207.5" font-family="Helvetica,sans-Serif" font-size="10.00">/Choice_miniature.h</text>
</a>
</g>
</g>
<!-- Node20&#45;&gt;Node22 -->
<g id="edge8" class="edge"><title>Node20&#45;&gt;Node22</title>
<path fill="none" stroke="midnightblue" d="M521.5,-290.099C521.5,-281.238 521.5,-272.015 521.5,-263.63"/>
<polygon fill="midnightblue" stroke="midnightblue" points="518,-290.261 521.5,-300.261 525,-290.261 518,-290.261"/>
</g>
<!-- Node27 -->
<g id="node14" class="node"><title>Node27</title>
<g id="a_node14"><a xlink:href="_choice___simple_8h.html" target="_top" xlink:title="D:/Users/Victor/OneDrive\l/Documents/Visual Studio\l 2017/Projects/Jeu_de_Go\l/Jeu_de_Go/Sources/Graphics\l/Choice_Simple.h">
<polygon fill="none" stroke="black" points="633,-200.5 633,-263.5 782,-263.5 782,-200.5 633,-200.5"/>
<text text-anchor="start" x="641" y="-251.5" font-family="Helvetica,sans-Serif" font-size="10.00">D:/Users/Victor/OneDrive</text>
<text text-anchor="start" x="641" y="-240.5" font-family="Helvetica,sans-Serif" font-size="10.00">/Documents/Visual Studio</text>
<text text-anchor="start" x="641" y="-229.5" font-family="Helvetica,sans-Serif" font-size="10.00"> 2017/Projects/Jeu_de_Go</text>
<text text-anchor="start" x="641" y="-218.5" font-family="Helvetica,sans-Serif" font-size="10.00">/Jeu_de_Go/Sources/Graphics</text>
<text text-anchor="middle" x="707.5" y="-207.5" font-family="Helvetica,sans-Serif" font-size="10.00">/Choice_Simple.h</text>
</a>
</g>
</g>
<!-- Node20&#45;&gt;Node27 -->
<g id="edge14" class="edge"><title>Node20&#45;&gt;Node27</title>
<path fill="none" stroke="midnightblue" d="M588.613,-295.639C608.557,-285.131 630.225,-273.715 649.534,-263.541"/>
<polygon fill="midnightblue" stroke="midnightblue" points="586.802,-292.637 579.586,-300.395 590.065,-298.83 586.802,-292.637"/>
</g>
<!-- Node31 -->
<g id="node18" class="node"><title>Node31</title>
<g id="a_node18"><a xlink:href="_menu_8h.html" target="_top" xlink:title="D:/Users/Victor/OneDrive\l/Documents/Visual Studio\l 2017/Projects/Jeu_de_Go\l/Jeu_de_Go/Sources/Graphics/Menu.h">
<polygon fill="none" stroke="black" points="244,-206 244,-258 429,-258 429,-206 244,-206"/>
<text text-anchor="start" x="252" y="-246" font-family="Helvetica,sans-Serif" font-size="10.00">D:/Users/Victor/OneDrive</text>
<text text-anchor="start" x="252" y="-235" font-family="Helvetica,sans-Serif" font-size="10.00">/Documents/Visual Studio</text>
<text text-anchor="start" x="252" y="-224" font-family="Helvetica,sans-Serif" font-size="10.00"> 2017/Projects/Jeu_de_Go</text>
<text text-anchor="middle" x="336.5" y="-213" font-family="Helvetica,sans-Serif" font-size="10.00">/Jeu_de_Go/Sources/Graphics/Menu.h</text>
</a>
</g>
</g>
<!-- Node20&#45;&gt;Node31 -->
<g id="edge20" class="edge"><title>Node20&#45;&gt;Node31</title>
<path fill="none" stroke="midnightblue" d="M454.86,-295.699C431.383,-283.262 405.488,-269.545 383.922,-258.121"/>
<polygon fill="midnightblue" stroke="midnightblue" points="453.251,-298.807 463.726,-300.395 456.527,-292.621 453.251,-298.807"/>
</g>
<!-- Node23 -->
<g id="node10" class="node"><title>Node23</title>
<g id="a_node10"><a xlink:href="_choice__miniature_8cpp.html" target="_top" xlink:title="D:/Users/Victor/OneDrive\l/Documents/Visual Studio\l 2017/Projects/Jeu_de_Go\l/Jeu_de_Go/Sources/Graphics\l/Choice_miniature.cpp">
<polygon fill="none" stroke="black" points="540,-100.5 540,-163.5 689,-163.5 689,-100.5 540,-100.5"/>
<text text-anchor="start" x="548" y="-151.5" font-family="Helvetica,sans-Serif" font-size="10.00">D:/Users/Victor/OneDrive</text>
<text text-anchor="start" x="548" y="-140.5" font-family="Helvetica,sans-Serif" font-size="10.00">/Documents/Visual Studio</text>
<text text-anchor="start" x="548" y="-129.5" font-family="Helvetica,sans-Serif" font-size="10.00"> 2017/Projects/Jeu_de_Go</text>
<text text-anchor="start" x="548" y="-118.5" font-family="Helvetica,sans-Serif" font-size="10.00">/Jeu_de_Go/Sources/Graphics</text>
<text text-anchor="middle" x="614.5" y="-107.5" font-family="Helvetica,sans-Serif" font-size="10.00">/Choice_miniature.cpp</text>
</a>
</g>
</g>
<!-- Node22&#45;&gt;Node23 -->
<g id="edge9" class="edge"><title>Node22&#45;&gt;Node23</title>
<path fill="none" stroke="midnightblue" d="M557.586,-192.974C566.811,-183.253 576.611,-172.926 585.433,-163.63"/>
<polygon fill="midnightblue" stroke="midnightblue" points="555.015,-190.598 550.671,-200.261 560.093,-195.417 555.015,-190.598"/>
</g>
<!-- Node24 -->
<g id="node11" class="node"><title>Node24</title>
<g id="a_node11"><a xlink:href="_menu___miniature_8h.html" target="_top" xlink:title="D:/Users/Victor/OneDrive\l/Documents/Visual Studio\l 2017/Projects/Jeu_de_Go\l/Jeu_de_Go/Sources/Graphics\l/Menu_Miniature.h">
<polygon fill="none" stroke="black" points="167,-100.5 167,-163.5 316,-163.5 316,-100.5 167,-100.5"/>
<text text-anchor="start" x="175" y="-151.5" font-family="Helvetica,sans-Serif" font-size="10.00">D:/Users/Victor/OneDrive</text>
<text text-anchor="start" x="175" y="-140.5" font-family="Helvetica,sans-Serif" font-size="10.00">/Documents/Visual Studio</text>
<text text-anchor="start" x="175" y="-129.5" font-family="Helvetica,sans-Serif" font-size="10.00"> 2017/Projects/Jeu_de_Go</text>
<text text-anchor="start" x="175" y="-118.5" font-family="Helvetica,sans-Serif" font-size="10.00">/Jeu_de_Go/Sources/Graphics</text>
<text text-anchor="middle" x="241.5" y="-107.5" font-family="Helvetica,sans-Serif" font-size="10.00">/Menu_Miniature.h</text>
</a>
</g>
</g>
<!-- Node22&#45;&gt;Node24 -->
<g id="edge10" class="edge"><title>Node22&#45;&gt;Node24</title>
<path fill="none" stroke="midnightblue" d="M437.266,-199.981C386.024,-182.635 371.493,-180.251 324.5,-164 321.738,-163.045 318.929,-162.061 316.094,-161.057"/>
<polygon fill="midnightblue" stroke="midnightblue" points="436.313,-203.354 446.907,-203.273 438.575,-196.73 436.313,-203.354"/>
</g>
<!-- Node22&#45;&gt;Node25 -->
<g id="edge13" class="edge"><title>Node22&#45;&gt;Node25</title>
<path fill="none" stroke="midnightblue" d="M513.527,-190.526C510.355,-162.388 511.207,-125.502 530.5,-100 556.82,-65.2096 602.79,-48.4421 642.562,-40.3809"/>
<polygon fill="midnightblue" stroke="midnightblue" points="510.06,-191.01 514.851,-200.46 516.999,-190.085 510.06,-191.01"/>
</g>
<!-- Node24&#45;&gt;Node25 -->
<g id="edge11" class="edge"><title>Node24&#45;&gt;Node25</title>
<path fill="none" stroke="midnightblue" d="M326.367,-99.6465C440.732,-69.5762 565.232,-51.2308 642.716,-41.4831"/>
<polygon fill="midnightblue" stroke="midnightblue" points="325.155,-96.3473 316.395,-102.306 326.959,-103.111 325.155,-96.3473"/>
</g>
<!-- Node26 -->
<g id="node13" class="node"><title>Node26</title>
<g id="a_node13"><a xlink:href="_menu___miniature_8cpp.html" target="_top" xlink:title="D:/Users/Victor/OneDrive\l/Documents/Visual Studio\l 2017/Projects/Jeu_de_Go\l/Jeu_de_Go/Sources/Graphics\l/Menu_Miniature.cpp">
<polygon fill="none" stroke="black" points="167,-0.5 167,-63.5 316,-63.5 316,-0.5 167,-0.5"/>
<text text-anchor="start" x="175" y="-51.5" font-family="Helvetica,sans-Serif" font-size="10.00">D:/Users/Victor/OneDrive</text>
<text text-anchor="start" x="175" y="-40.5" font-family="Helvetica,sans-Serif" font-size="10.00">/Documents/Visual Studio</text>
<text text-anchor="start" x="175" y="-29.5" font-family="Helvetica,sans-Serif" font-size="10.00"> 2017/Projects/Jeu_de_Go</text>
<text text-anchor="start" x="175" y="-18.5" font-family="Helvetica,sans-Serif" font-size="10.00">/Jeu_de_Go/Sources/Graphics</text>
<text text-anchor="middle" x="241.5" y="-7.5" font-family="Helvetica,sans-Serif" font-size="10.00">/Menu_Miniature.cpp</text>
</a>
</g>
</g>
<!-- Node24&#45;&gt;Node26 -->
<g id="edge12" class="edge"><title>Node24&#45;&gt;Node26</title>
<path fill="none" stroke="midnightblue" d="M241.5,-90.0987C241.5,-81.2383 241.5,-72.0145 241.5,-63.6299"/>
<polygon fill="midnightblue" stroke="midnightblue" points="238,-90.261 241.5,-100.261 245,-90.2611 238,-90.261"/>
</g>
<!-- Node27&#45;&gt;Node25 -->
<g id="edge19" class="edge"><title>Node27&#45;&gt;Node25</title>
<path fill="none" stroke="midnightblue" d="M709.552,-190.375C711.453,-152.729 714.239,-97.5629 715.958,-63.5382"/>
<polygon fill="midnightblue" stroke="midnightblue" points="706.05,-190.333 709.041,-200.496 713.041,-190.686 706.05,-190.333"/>
</g>
<!-- Node28 -->
<g id="node15" class="node"><title>Node28</title>
<g id="a_node15"><a xlink:href="_choice___simple_8cpp.html" target="_top" xlink:title="D:/Users/Victor/OneDrive\l/Documents/Visual Studio\l 2017/Projects/Jeu_de_Go\l/Jeu_de_Go/Sources/Graphics\l/Choice_Simple.cpp">
<polygon fill="none" stroke="black" points="746,-100.5 746,-163.5 895,-163.5 895,-100.5 746,-100.5"/>
<text text-anchor="start" x="754" y="-151.5" font-family="Helvetica,sans-Serif" font-size="10.00">D:/Users/Victor/OneDrive</text>
<text text-anchor="start" x="754" y="-140.5" font-family="Helvetica,sans-Serif" font-size="10.00">/Documents/Visual Studio</text>
<text text-anchor="start" x="754" y="-129.5" font-family="Helvetica,sans-Serif" font-size="10.00"> 2017/Projects/Jeu_de_Go</text>
<text text-anchor="start" x="754" y="-118.5" font-family="Helvetica,sans-Serif" font-size="10.00">/Jeu_de_Go/Sources/Graphics</text>
<text text-anchor="middle" x="820.5" y="-107.5" font-family="Helvetica,sans-Serif" font-size="10.00">/Choice_Simple.cpp</text>
</a>
</g>
</g>
<!-- Node27&#45;&gt;Node28 -->
<g id="edge15" class="edge"><title>Node27&#45;&gt;Node28</title>
<path fill="none" stroke="midnightblue" d="M750.688,-193.545C762.087,-183.659 774.253,-173.108 785.182,-163.63"/>
<polygon fill="midnightblue" stroke="midnightblue" points="748.205,-191.065 742.944,-200.261 752.792,-196.353 748.205,-191.065"/>
</g>
<!-- Node29 -->
<g id="node16" class="node"><title>Node29</title>
<g id="a_node16"><a xlink:href="_menu__simple_8h.html" target="_top" xlink:title="D:/Users/Victor/OneDrive\l/Documents/Visual Studio\l 2017/Projects/Jeu_de_Go\l/Jeu_de_Go/Sources/Graphics\l/Menu_simple.h">
<polygon fill="none" stroke="black" points="334,-100.5 334,-163.5 483,-163.5 483,-100.5 334,-100.5"/>
<text text-anchor="start" x="342" y="-151.5" font-family="Helvetica,sans-Serif" font-size="10.00">D:/Users/Victor/OneDrive</text>
<text text-anchor="start" x="342" y="-140.5" font-family="Helvetica,sans-Serif" font-size="10.00">/Documents/Visual Studio</text>
<text text-anchor="start" x="342" y="-129.5" font-family="Helvetica,sans-Serif" font-size="10.00"> 2017/Projects/Jeu_de_Go</text>
<text text-anchor="start" x="342" y="-118.5" font-family="Helvetica,sans-Serif" font-size="10.00">/Jeu_de_Go/Sources/Graphics</text>
<text text-anchor="middle" x="408.5" y="-107.5" font-family="Helvetica,sans-Serif" font-size="10.00">/Menu_simple.h</text>
</a>
</g>
</g>
<!-- Node27&#45;&gt;Node29 -->
<g id="edge16" class="edge"><title>Node27&#45;&gt;Node29</title>
<path fill="none" stroke="midnightblue" d="M623.27,-203.393C579.152,-188.933 525.597,-171.38 483.004,-157.419"/>
<polygon fill="midnightblue" stroke="midnightblue" points="622.228,-206.735 632.821,-206.523 624.408,-200.083 622.228,-206.735"/>
</g>
<!-- Node29&#45;&gt;Node25 -->
<g id="edge17" class="edge"><title>Node29&#45;&gt;Node25</title>
<path fill="none" stroke="midnightblue" d="M493.09,-101.446C494.571,-100.958 496.042,-100.476 497.5,-100 545.705,-84.2711 600.226,-67.659 642.932,-54.9109"/>
<polygon fill="midnightblue" stroke="midnightblue" points="491.591,-98.2568 483.209,-104.737 493.803,-104.898 491.591,-98.2568"/>
</g>
<!-- Node30 -->
<g id="node17" class="node"><title>Node30</title>
<g id="a_node17"><a xlink:href="_menu__simple_8cpp.html" target="_top" xlink:title="D:/Users/Victor/OneDrive\l/Documents/Visual Studio\l 2017/Projects/Jeu_de_Go\l/Jeu_de_Go/Sources/Graphics\l/Menu_simple.cpp">
<polygon fill="none" stroke="black" points="334,-0.5 334,-63.5 483,-63.5 483,-0.5 334,-0.5"/>
<text text-anchor="start" x="342" y="-51.5" font-family="Helvetica,sans-Serif" font-size="10.00">D:/Users/Victor/OneDrive</text>
<text text-anchor="start" x="342" y="-40.5" font-family="Helvetica,sans-Serif" font-size="10.00">/Documents/Visual Studio</text>
<text text-anchor="start" x="342" y="-29.5" font-family="Helvetica,sans-Serif" font-size="10.00"> 2017/Projects/Jeu_de_Go</text>
<text text-anchor="start" x="342" y="-18.5" font-family="Helvetica,sans-Serif" font-size="10.00">/Jeu_de_Go/Sources/Graphics</text>
<text text-anchor="middle" x="408.5" y="-7.5" font-family="Helvetica,sans-Serif" font-size="10.00">/Menu_simple.cpp</text>
</a>
</g>
</g>
<!-- Node29&#45;&gt;Node30 -->
<g id="edge18" class="edge"><title>Node29&#45;&gt;Node30</title>
<path fill="none" stroke="midnightblue" d="M408.5,-90.0987C408.5,-81.2383 408.5,-72.0145 408.5,-63.6299"/>
<polygon fill="midnightblue" stroke="midnightblue" points="405,-90.261 408.5,-100.261 412,-90.2611 405,-90.261"/>
</g>
<!-- Node31&#45;&gt;Node24 -->
<g id="edge22" class="edge"><title>Node31&#45;&gt;Node24</title>
<path fill="none" stroke="midnightblue" d="M304.786,-198.284C293.985,-187.142 281.955,-174.732 271.308,-163.749"/>
<polygon fill="midnightblue" stroke="midnightblue" points="302.562,-201.019 312.035,-205.763 307.588,-196.146 302.562,-201.019"/>
</g>
<!-- Node31&#45;&gt;Node29 -->
<g id="edge21" class="edge"><title>Node31&#45;&gt;Node29</title>
<path fill="none" stroke="midnightblue" d="M361.009,-197.64C369.073,-186.665 377.995,-174.521 385.909,-163.749"/>
<polygon fill="midnightblue" stroke="midnightblue" points="358.142,-195.631 355.042,-205.763 363.783,-199.776 358.142,-195.631"/>
</g>
<!-- Node32 -->
<g id="node19" class="node"><title>Node32</title>
<g id="a_node19"><a xlink:href="_menu_8cpp.html" target="_top" xlink:title="D:/Users/Victor/OneDrive\l/Documents/Visual Studio\l 2017/Projects/Jeu_de_Go\l/Jeu_de_Go/Sources/Graphics\l/Menu.cpp">
<polygon fill="none" stroke="black" points="0,-100.5 0,-163.5 149,-163.5 149,-100.5 0,-100.5"/>
<text text-anchor="start" x="8" y="-151.5" font-family="Helvetica,sans-Serif" font-size="10.00">D:/Users/Victor/OneDrive</text>
<text text-anchor="start" x="8" y="-140.5" font-family="Helvetica,sans-Serif" font-size="10.00">/Documents/Visual Studio</text>
<text text-anchor="start" x="8" y="-129.5" font-family="Helvetica,sans-Serif" font-size="10.00"> 2017/Projects/Jeu_de_Go</text>
<text text-anchor="start" x="8" y="-118.5" font-family="Helvetica,sans-Serif" font-size="10.00">/Jeu_de_Go/Sources/Graphics</text>
<text text-anchor="middle" x="74.5" y="-107.5" font-family="Helvetica,sans-Serif" font-size="10.00">/Menu.cpp</text>
</a>
</g>
</g>
<!-- Node31&#45;&gt;Node32 -->
<g id="edge23" class="edge"><title>Node31&#45;&gt;Node32</title>
<path fill="none" stroke="midnightblue" d="M259.724,-202.282C224.907,-189.259 183.886,-173.915 149.309,-160.982"/>
<polygon fill="midnightblue" stroke="midnightblue" points="258.776,-205.665 269.369,-205.89 261.229,-199.108 258.776,-205.665"/>
</g>
<!-- Node34&#45;&gt;Node25 -->
<g id="edge26" class="edge"><title>Node34&#45;&gt;Node25</title>
<path fill="none" stroke="midnightblue" d="M1021.74,-290.355C1013.58,-238.885 992.107,-150.804 937.5,-100 898.037,-63.2856 839.015,-46.6613 792.037,-39.1483"/>
<polygon fill="midnightblue" stroke="midnightblue" points="1018.31,-291.073 1023.25,-300.447 1025.24,-290.04 1018.31,-291.073"/>
</g>
<!-- Node37&#45;&gt;Node25 -->
<g id="edge33" class="edge"><title>Node37&#45;&gt;Node25</title>
<path fill="none" stroke="midnightblue" d="M1233.82,-593.435C1243.44,-584.681 1252.59,-574.743 1259.5,-564 1292.22,-513.109 1296.5,-493.5 1296.5,-433 1296.5,-433 1296.5,-433 1296.5,-231 1296.5,-125.561 948.387,-64.5911 792.009,-42.5217"/>
<polygon fill="midnightblue" stroke="midnightblue" points="1231.29,-590.995 1226.03,-600.194 1235.88,-596.28 1231.29,-590.995"/>
</g>
<!-- Node38 -->
<g id="node25" class="node"><title>Node38</title>
<g id="a_node25"><a xlink:href="_parser_8cpp.html" target="_top" xlink:title="D:/Users/Victor/OneDrive\l/Documents/Visual Studio\l 2017/Projects/Jeu_de_Go\l/Jeu_de_Go/Sources/Engine\l/Parser.cpp">
<polygon fill="none" stroke="black" points="1110.5,-500.5 1110.5,-563.5 1250.5,-563.5 1250.5,-500.5 1110.5,-500.5"/>
<text text-anchor="start" x="1118.5" y="-551.5" font-family="Helvetica,sans-Serif" font-size="10.00">D:/Users/Victor/OneDrive</text>
<text text-anchor="start" x="1118.5" y="-540.5" font-family="Helvetica,sans-Serif" font-size="10.00">/Documents/Visual Studio</text>
<text text-anchor="start" x="1118.5" y="-529.5" font-family="Helvetica,sans-Serif" font-size="10.00"> 2017/Projects/Jeu_de_Go</text>
<text text-anchor="start" x="1118.5" y="-518.5" font-family="Helvetica,sans-Serif" font-size="10.00">/Jeu_de_Go/Sources/Engine</text>
<text text-anchor="middle" x="1180.5" y="-507.5" font-family="Helvetica,sans-Serif" font-size="10.00">/Parser.cpp</text>
</a>
</g>
</g>
<!-- Node37&#45;&gt;Node38 -->
<g id="edge32" class="edge"><title>Node37&#45;&gt;Node38</title>
<path fill="none" stroke="midnightblue" d="M1180.5,-590.099C1180.5,-581.238 1180.5,-572.015 1180.5,-563.63"/>
<polygon fill="midnightblue" stroke="midnightblue" points="1177,-590.261 1180.5,-600.261 1184,-590.261 1177,-590.261"/>
</g>
</g>
</svg>
