<?xml version="1.0" encoding="UTF-8" standalone="no"?>
<!DOCTYPE svg PUBLIC "-//W3C//DTD SVG 1.1//EN"
 "http://www.w3.org/Graphics/SVG/1.1/DTD/svg11.dtd">
<!-- Generated by graphviz version 2.38.0 (20140413.2041)
 -->
<!-- Title: D:/Users/Victor/OneDrive/Documents/Visual Studio 2017/Projects/Jeu_de_Go/Jeu_de_Go/Sources/Graphics/Game/Infos.h Pages: 1 -->
<svg width="858pt" height="240pt"
 viewBox="0.00 0.00 858.00 240.00" xmlns="http://www.w3.org/2000/svg" xmlns:xlink="http://www.w3.org/1999/xlink">
<g id="graph0" class="graph" transform="scale(1 1) rotate(0) translate(4 236)">
<title>D:/Users/Victor/OneDrive/Documents/Visual Studio 2017/Projects/Jeu_de_Go/Jeu_de_Go/Sources/Graphics/Game/Infos.h</title>
<!-- Node0 -->
<g id="node1" class="node"><title>Node0</title>
<polygon fill="#bfbfbf" stroke="black" points="498.5,-168.5 498.5,-231.5 647.5,-231.5 647.5,-168.5 498.5,-168.5"/>
<text text-anchor="start" x="506.5" y="-219.5" font-family="Helvetica,sans-Serif" font-size="10.00">D:/Users/Victor/OneDrive</text>
<text text-anchor="start" x="506.5" y="-208.5" font-family="Helvetica,sans-Serif" font-size="10.00">/Documents/Visual Studio</text>
<text text-anchor="start" x="506.5" y="-197.5" font-family="Helvetica,sans-Serif" font-size="10.00"> 2017/Projects/Jeu_de_Go</text>
<text text-anchor="start" x="506.5" y="-186.5" font-family="Helvetica,sans-Serif" font-size="10.00">/Jeu_de_Go/Sources/Graphics</text>
<text text-anchor="middle" x="573" y="-175.5" font-family="Helvetica,sans-Serif" font-size="10.00">/Game/Infos.h</text>
</g>
<!-- Node1 -->
<g id="node2" class="node"><title>Node1</title>
<g id="a_node2"><a xlink:href="_globals_8h.html" target="_top" xlink:title="../Globals.h">
<polygon fill="none" stroke="black" points="512.5,-56.5 512.5,-75.5 579.5,-75.5 579.5,-56.5 512.5,-56.5"/>
<text text-anchor="middle" x="546" y="-63.5" font-family="Helvetica,sans-Serif" font-size="10.00">../Globals.h</text>
</a>
</g>
</g>
<!-- Node0&#45;&gt;Node1 -->
<g id="edge1" class="edge"><title>Node0&#45;&gt;Node1</title>
<path fill="none" stroke="midnightblue" d="M553.711,-168.481C547.77,-157.425 542.004,-144.559 539,-132 535.287,-116.477 537.765,-98.3945 540.753,-85.2484"/>
<polygon fill="midnightblue" stroke="midnightblue" points="544.151,-86.0885 543.259,-75.5313 537.373,-84.3408 544.151,-86.0885"/>
</g>
<!-- Node12 -->
<g id="node13" class="node"><title>Node12</title>
<g id="a_node13"><a xlink:href="_square_8h.html" target="_top" xlink:title="Square.h">
<polygon fill="none" stroke="black" points="616,-112.5 616,-131.5 672,-131.5 672,-112.5 616,-112.5"/>
<text text-anchor="middle" x="644" y="-119.5" font-family="Helvetica,sans-Serif" font-size="10.00">Square.h</text>
</a>
</g>
</g>
<!-- Node0&#45;&gt;Node12 -->
<g id="edge12" class="edge"><title>Node0&#45;&gt;Node12</title>
<path fill="none" stroke="midnightblue" d="M601.878,-168.088C611.188,-158.122 621.129,-147.482 629.013,-139.042"/>
<polygon fill="midnightblue" stroke="midnightblue" points="631.586,-141.415 635.855,-131.718 626.471,-136.636 631.586,-141.415"/>
</g>
<!-- Node14 -->
<g id="node15" class="node"><title>Node14</title>
<g id="a_node15"><a xlink:href="_timer_8h.html" target="_top" xlink:title="Timer.h">
<polygon fill="none" stroke="black" points="548.5,-112.5 548.5,-131.5 597.5,-131.5 597.5,-112.5 548.5,-112.5"/>
<text text-anchor="middle" x="573" y="-119.5" font-family="Helvetica,sans-Serif" font-size="10.00">Timer.h</text>
</a>
</g>
</g>
<!-- Node0&#45;&gt;Node14 -->
<g id="edge16" class="edge"><title>Node0&#45;&gt;Node14</title>
<path fill="none" stroke="midnightblue" d="M573,-168.088C573,-159.15 573,-149.669 573,-141.719"/>
<polygon fill="midnightblue" stroke="midnightblue" points="576.5,-141.718 573,-131.718 569.5,-141.718 576.5,-141.718"/>
</g>
<!-- Node2 -->
<g id="node3" class="node"><title>Node2</title>
<polygon fill="none" stroke="#bfbfbf" points="0,-0.5 0,-19.5 104,-19.5 104,-0.5 0,-0.5"/>
<text text-anchor="middle" x="52" y="-7.5" font-family="Helvetica,sans-Serif" font-size="10.00">SFML/Graphics.hpp</text>
</g>
<!-- Node1&#45;&gt;Node2 -->
<g id="edge2" class="edge"><title>Node1&#45;&gt;Node2</title>
<path fill="none" stroke="midnightblue" d="M512.257,-61.9905C440.869,-55.5166 269.07,-39.3734 114.386,-20.1277"/>
<polygon fill="midnightblue" stroke="midnightblue" points="114.581,-16.6248 104.223,-18.8556 113.711,-23.5706 114.581,-16.6248"/>
</g>
<!-- Node3 -->
<g id="node4" class="node"><title>Node3</title>
<polygon fill="none" stroke="#bfbfbf" points="122,-0.5 122,-19.5 220,-19.5 220,-0.5 122,-0.5"/>
<text text-anchor="middle" x="171" y="-7.5" font-family="Helvetica,sans-Serif" font-size="10.00">SFML/System.hpp</text>
</g>
<!-- Node1&#45;&gt;Node3 -->
<g id="edge3" class="edge"><title>Node1&#45;&gt;Node3</title>
<path fill="none" stroke="midnightblue" d="M512.2,-60.3481C455.978,-52.5785 339.429,-36.3376 230.243,-20.1692"/>
<polygon fill="midnightblue" stroke="midnightblue" points="230.446,-16.6611 220.041,-18.6554 229.419,-23.5853 230.446,-16.6611"/>
</g>
<!-- Node4 -->
<g id="node5" class="node"><title>Node4</title>
<polygon fill="none" stroke="#bfbfbf" points="238.5,-0.5 238.5,-19.5 337.5,-19.5 337.5,-0.5 238.5,-0.5"/>
<text text-anchor="middle" x="288" y="-7.5" font-family="Helvetica,sans-Serif" font-size="10.00">SFML/Window.hpp</text>
</g>
<!-- Node1&#45;&gt;Node4 -->
<g id="edge4" class="edge"><title>Node1&#45;&gt;Node4</title>
<path fill="none" stroke="midnightblue" d="M512.271,-57.9404C468.093,-48.6938 390.232,-32.3975 338.875,-21.6482"/>
<polygon fill="midnightblue" stroke="midnightblue" points="339.479,-18.199 328.974,-19.576 338.045,-25.0505 339.479,-18.199"/>
</g>
<!-- Node5 -->
<g id="node6" class="node"><title>Node5</title>
<polygon fill="none" stroke="#bfbfbf" points="355.5,-0.5 355.5,-19.5 444.5,-19.5 444.5,-0.5 355.5,-0.5"/>
<text text-anchor="middle" x="400" y="-7.5" font-family="Helvetica,sans-Serif" font-size="10.00">SFML/Audio.hpp</text>
</g>
<!-- Node1&#45;&gt;Node5 -->
<g id="edge5" class="edge"><title>Node1&#45;&gt;Node5</title>
<path fill="none" stroke="midnightblue" d="M522.866,-56.4435C498.518,-47.4381 459.993,-33.1891 432.577,-23.049"/>
<polygon fill="midnightblue" stroke="midnightblue" points="433.619,-19.7028 423.026,-19.5164 431.191,-26.2681 433.619,-19.7028"/>
</g>
<!-- Node6 -->
<g id="node7" class="node"><title>Node6</title>
<polygon fill="none" stroke="#bfbfbf" points="796,-0.5 796,-19.5 850,-19.5 850,-0.5 796,-0.5"/>
<text text-anchor="middle" x="823" y="-7.5" font-family="Helvetica,sans-Serif" font-size="10.00">iostream</text>
</g>
<!-- Node1&#45;&gt;Node6 -->
<g id="edge6" class="edge"><title>Node1&#45;&gt;Node6</title>
<path fill="none" stroke="midnightblue" d="M579.658,-59.3762C624.447,-51.7486 706.322,-37.3053 785.741,-20.1706"/>
<polygon fill="midnightblue" stroke="midnightblue" points="786.887,-23.5032 795.914,-17.9576 785.399,-16.6632 786.887,-23.5032"/>
</g>
<!-- Node7 -->
<g id="node8" class="node"><title>Node7</title>
<polygon fill="none" stroke="#bfbfbf" points="462.5,-0.5 462.5,-19.5 507.5,-19.5 507.5,-0.5 462.5,-0.5"/>
<text text-anchor="middle" x="485" y="-7.5" font-family="Helvetica,sans-Serif" font-size="10.00">cstdlib</text>
</g>
<!-- Node1&#45;&gt;Node7 -->
<g id="edge7" class="edge"><title>Node1&#45;&gt;Node7</title>
<path fill="none" stroke="midnightblue" d="M536.199,-56.324C527.182,-48.3414 513.594,-36.3128 502.682,-26.6529"/>
<polygon fill="midnightblue" stroke="midnightblue" points="504.787,-23.8416 494.979,-19.8339 500.147,-29.083 504.787,-23.8416"/>
</g>
<!-- Node8 -->
<g id="node9" class="node"><title>Node8</title>
<polygon fill="none" stroke="#bfbfbf" points="525.5,-0.5 525.5,-19.5 566.5,-19.5 566.5,-0.5 525.5,-0.5"/>
<text text-anchor="middle" x="546" y="-7.5" font-family="Helvetica,sans-Serif" font-size="10.00">string</text>
</g>
<!-- Node1&#45;&gt;Node8 -->
<g id="edge8" class="edge"><title>Node1&#45;&gt;Node8</title>
<path fill="none" stroke="midnightblue" d="M546,-56.083C546,-49.0059 546,-38.8611 546,-29.9865"/>
<polygon fill="midnightblue" stroke="midnightblue" points="549.5,-29.751 546,-19.7511 542.5,-29.7511 549.5,-29.751"/>
</g>
<!-- Node9 -->
<g id="node10" class="node"><title>Node9</title>
<polygon fill="none" stroke="#bfbfbf" points="584.5,-0.5 584.5,-19.5 633.5,-19.5 633.5,-0.5 584.5,-0.5"/>
<text text-anchor="middle" x="609" y="-7.5" font-family="Helvetica,sans-Serif" font-size="10.00">fstream</text>
</g>
<!-- Node1&#45;&gt;Node9 -->
<g id="edge9" class="edge"><title>Node1&#45;&gt;Node9</title>
<path fill="none" stroke="midnightblue" d="M556.122,-56.324C565.526,-48.2631 579.744,-36.0765 591.069,-26.3695"/>
<polygon fill="midnightblue" stroke="midnightblue" points="593.379,-28.9993 598.694,-19.8339 588.823,-23.6844 593.379,-28.9993"/>
</g>
<!-- Node10 -->
<g id="node11" class="node"><title>Node10</title>
<polygon fill="none" stroke="#bfbfbf" points="651.5,-0.5 651.5,-19.5 700.5,-19.5 700.5,-0.5 651.5,-0.5"/>
<text text-anchor="middle" x="676" y="-7.5" font-family="Helvetica,sans-Serif" font-size="10.00">cassert</text>
</g>
<!-- Node1&#45;&gt;Node10 -->
<g id="edge10" class="edge"><title>Node1&#45;&gt;Node10</title>
<path fill="none" stroke="midnightblue" d="M566.599,-56.4435C587.993,-47.5566 621.681,-33.5632 646.024,-23.4514"/>
<polygon fill="midnightblue" stroke="midnightblue" points="647.605,-26.5848 655.497,-19.5164 644.92,-20.1203 647.605,-26.5848"/>
</g>
<!-- Node11 -->
<g id="node12" class="node"><title>Node11</title>
<polygon fill="none" stroke="#bfbfbf" points="718.5,-0.5 718.5,-19.5 777.5,-19.5 777.5,-0.5 718.5,-0.5"/>
<text text-anchor="middle" x="748" y="-7.5" font-family="Helvetica,sans-Serif" font-size="10.00">stdexcept</text>
</g>
<!-- Node1&#45;&gt;Node11 -->
<g id="edge11" class="edge"><title>Node1&#45;&gt;Node11</title>
<path fill="none" stroke="midnightblue" d="M578.008,-56.4435C613.444,-46.9705 670.584,-31.6953 708.707,-21.5041"/>
<polygon fill="midnightblue" stroke="midnightblue" points="709.686,-24.8654 718.442,-18.9015 707.878,-18.1029 709.686,-24.8654"/>
</g>
<!-- Node12&#45;&gt;Node1 -->
<g id="edge13" class="edge"><title>Node12&#45;&gt;Node1</title>
<path fill="none" stroke="midnightblue" d="M628.255,-112.324C612.681,-103.743 588.623,-90.486 570.541,-80.5224"/>
<polygon fill="midnightblue" stroke="midnightblue" points="572.154,-77.4152 561.706,-75.6545 568.776,-83.546 572.154,-77.4152"/>
</g>
<!-- Node13 -->
<g id="node14" class="node"><title>Node13</title>
<g id="a_node14"><a xlink:href="_etat_8h.html" target="_top" xlink:title="../../Engine/Etat.h">
<polygon fill="none" stroke="black" points="673,-56.5 673,-75.5 767,-75.5 767,-56.5 673,-56.5"/>
<text text-anchor="middle" x="720" y="-63.5" font-family="Helvetica,sans-Serif" font-size="10.00">../../Engine/Etat.h</text>
</a>
</g>
</g>
<!-- Node12&#45;&gt;Node13 -->
<g id="edge14" class="edge"><title>Node12&#45;&gt;Node13</title>
<path fill="none" stroke="midnightblue" d="M656.211,-112.324C667.776,-104.107 685.375,-91.6017 699.161,-81.8069"/>
<polygon fill="midnightblue" stroke="midnightblue" points="701.443,-84.4791 707.567,-75.8339 697.388,-78.7729 701.443,-84.4791"/>
</g>
<!-- Node13&#45;&gt;Node6 -->
<g id="edge15" class="edge"><title>Node13&#45;&gt;Node6</title>
<path fill="none" stroke="midnightblue" d="M736.549,-56.324C752.992,-47.7034 778.435,-34.3643 797.468,-24.3855"/>
<polygon fill="midnightblue" stroke="midnightblue" points="799.261,-27.3977 806.492,-19.6545 796.011,-21.198 799.261,-27.3977"/>
</g>
<!-- Node14&#45;&gt;Node1 -->
<g id="edge17" class="edge"><title>Node14&#45;&gt;Node1</title>
<path fill="none" stroke="midnightblue" d="M568.541,-112.083C564.846,-104.691 559.477,-93.9533 554.906,-84.8111"/>
<polygon fill="midnightblue" stroke="midnightblue" points="557.978,-83.1301 550.376,-75.7511 551.717,-86.2606 557.978,-83.1301"/>
</g>
</g>
</svg>
