<?xml version="1.0" encoding="UTF-8" standalone="no"?>
<!DOCTYPE svg PUBLIC "-//W3C//DTD SVG 1.1//EN"
 "http://www.w3.org/Graphics/SVG/1.1/DTD/svg11.dtd">
<!-- Generated by graphviz version 2.38.0 (20140413.2041)
 -->
<!-- Title: loadMenu6 Pages: 1 -->
<svg width="420pt" height="142pt"
 viewBox="0.00 0.00 420.00 142.00" xmlns="http://www.w3.org/2000/svg" xmlns:xlink="http://www.w3.org/1999/xlink">
<g id="graph0" class="graph" transform="scale(1 1) rotate(0) translate(4 138)">
<title>loadMenu6</title>
<!-- Node64 -->
<g id="node1" class="node"><title>Node64</title>
<polygon fill="#bfbfbf" stroke="black" points="0,-57.5 0,-76.5 64,-76.5 64,-57.5 0,-57.5"/>
<text text-anchor="middle" x="32" y="-64.5" font-family="Helvetica,sans-Serif" font-size="10.00">loadMenu6</text>
</g>
<!-- Node65 -->
<g id="node2" class="node"><title>Node65</title>
<g id="a_node2"><a xlink:href="class_menu__simple.html#a1273e6743ee892cd8651968efd595b73" target="_top" xlink:title="Menu_simple::setItemsFonts">
<polygon fill="none" stroke="black" points="106,-114.5 106,-133.5 249,-133.5 249,-114.5 106,-114.5"/>
<text text-anchor="middle" x="177.5" y="-121.5" font-family="Helvetica,sans-Serif" font-size="10.00">Menu_simple::setItemsFonts</text>
</a>
</g>
</g>
<!-- Node64&#45;&gt;Node65 -->
<g id="edge1" class="edge"><title>Node64&#45;&gt;Node65</title>
<path fill="none" stroke="midnightblue" d="M47.3239,-76.6555C60.5123,-85.1664 80.8729,-97.3674 100,-105 106.234,-107.488 112.887,-109.719 119.57,-111.702"/>
<polygon fill="midnightblue" stroke="midnightblue" points="118.765,-115.111 129.338,-114.43 120.648,-108.369 118.765,-115.111"/>
</g>
<!-- Node66 -->
<g id="node3" class="node"><title>Node66</title>
<g id="a_node3"><a xlink:href="class_menu__simple.html#a0fc5b4ec10c844f34495364f70cd333e" target="_top" xlink:title="Menu_simple::addItem">
<polygon fill="none" stroke="black" points="120,-76.5 120,-95.5 235,-95.5 235,-76.5 120,-76.5"/>
<text text-anchor="middle" x="177.5" y="-83.5" font-family="Helvetica,sans-Serif" font-size="10.00">Menu_simple::addItem</text>
</a>
</g>
</g>
<!-- Node64&#45;&gt;Node66 -->
<g id="edge2" class="edge"><title>Node64&#45;&gt;Node66</title>
<path fill="none" stroke="midnightblue" d="M64.1374,-71.1227C77.5259,-72.8954 93.7276,-75.0406 109.61,-77.1435"/>
<polygon fill="midnightblue" stroke="midnightblue" points="109.596,-80.672 119.968,-78.515 110.514,-73.7326 109.596,-80.672"/>
</g>
<!-- Node68 -->
<g id="node5" class="node"><title>Node68</title>
<g id="a_node5"><a xlink:href="class_menu__simple.html#a4717470decb5666cbac7aa879aade5fa" target="_top" xlink:title="Menu_simple::setItemsTextures">
<polygon fill="none" stroke="black" points="100,-38.5 100,-57.5 255,-57.5 255,-38.5 100,-38.5"/>
<text text-anchor="middle" x="177.5" y="-45.5" font-family="Helvetica,sans-Serif" font-size="10.00">Menu_simple::setItemsTextures</text>
</a>
</g>
</g>
<!-- Node64&#45;&gt;Node68 -->
<g id="edge4" class="edge"><title>Node64&#45;&gt;Node68</title>
<path fill="none" stroke="midnightblue" d="M64.1374,-62.8773C73.2885,-61.6656 83.7538,-60.28 94.5331,-58.8528"/>
<polygon fill="midnightblue" stroke="midnightblue" points="95.0381,-62.3165 104.492,-57.5341 94.1193,-55.3771 95.0381,-62.3165"/>
</g>
<!-- Node69 -->
<g id="node6" class="node"><title>Node69</title>
<g id="a_node6"><a xlink:href="_main_8cpp.html#ad43822cd5cf43d5891d7dbdd6fdb1802" target="_top" xlink:title="log_file">
<polygon fill="none" stroke="black" points="154,-0.5 154,-19.5 201,-19.5 201,-0.5 154,-0.5"/>
<text text-anchor="middle" x="177.5" y="-7.5" font-family="Helvetica,sans-Serif" font-size="10.00">log_file</text>
</a>
</g>
</g>
<!-- Node64&#45;&gt;Node69 -->
<g id="edge5" class="edge"><title>Node64&#45;&gt;Node69</title>
<path fill="none" stroke="midnightblue" d="M47.3239,-57.3445C60.5123,-48.8336 80.8729,-36.6326 100,-29 113.977,-23.4225 130.062,-19.1308 143.865,-16.0494"/>
<polygon fill="midnightblue" stroke="midnightblue" points="144.843,-19.4202 153.903,-13.9277 143.395,-12.5715 144.843,-19.4202"/>
</g>
<!-- Node67 -->
<g id="node4" class="node"><title>Node67</title>
<g id="a_node4"><a xlink:href="class_choice___simple.html#a035e32f90e4561b666b6571bce06e207" target="_top" xlink:title="Choice_Simple::setFont">
<polygon fill="none" stroke="black" points="291,-76.5 291,-95.5 412,-95.5 412,-76.5 291,-76.5"/>
<text text-anchor="middle" x="351.5" y="-83.5" font-family="Helvetica,sans-Serif" font-size="10.00">Choice_Simple::setFont</text>
</a>
</g>
</g>
<!-- Node66&#45;&gt;Node67 -->
<g id="edge3" class="edge"><title>Node66&#45;&gt;Node67</title>
<path fill="none" stroke="midnightblue" d="M235.296,-86C249.766,-86 265.487,-86 280.53,-86"/>
<polygon fill="midnightblue" stroke="midnightblue" points="280.812,-89.5001 290.812,-86 280.812,-82.5001 280.812,-89.5001"/>
</g>
</g>
</svg>
