<?xml version="1.0" encoding="UTF-8" standalone="no"?>
<!DOCTYPE svg PUBLIC "-//W3C//DTD SVG 1.1//EN"
 "http://www.w3.org/Graphics/SVG/1.1/DTD/svg11.dtd">
<!-- Generated by graphviz version 2.38.0 (20140413.2041)
 -->
<!-- Title: loadMenu2 Pages: 1 -->
<svg width="237pt" height="116pt"
 viewBox="0.00 0.00 237.00 116.00" xmlns="http://www.w3.org/2000/svg" xmlns:xlink="http://www.w3.org/1999/xlink">
<g id="graph0" class="graph" transform="scale(1 1) rotate(0) translate(4 112)">
<title>loadMenu2</title>
<!-- Node30 -->
<g id="node1" class="node"><title>Node30</title>
<polygon fill="#bfbfbf" stroke="black" points="0,-44.5 0,-63.5 64,-63.5 64,-44.5 0,-44.5"/>
<text text-anchor="middle" x="32" y="-51.5" font-family="Helvetica,sans-Serif" font-size="10.00">loadMenu2</text>
</g>
<!-- Node31 -->
<g id="node2" class="node"><title>Node31</title>
<g id="a_node2"><a xlink:href="class_menu.html#aa8032782ee75fba5fa17bf7a20635c68" target="_top" xlink:title="Menu::addItem">
<polygon fill="none" stroke="black" points="124,-88.5 124,-107.5 205,-107.5 205,-88.5 124,-88.5"/>
<text text-anchor="middle" x="164.5" y="-95.5" font-family="Helvetica,sans-Serif" font-size="10.00">Menu::addItem</text>
</a>
</g>
</g>
<!-- Node30&#45;&gt;Node31 -->
<g id="edge1" class="edge"><title>Node30&#45;&gt;Node31</title>
<path fill="none" stroke="midnightblue" d="M57.3642,-63.5352C70.0119,-68.3718 85.7588,-74.2183 100,-79 106.523,-81.1902 113.463,-83.3939 120.27,-85.4852"/>
<polygon fill="midnightblue" stroke="midnightblue" points="119.498,-88.9082 130.083,-88.4542 121.525,-82.2082 119.498,-88.9082"/>
</g>
<!-- Node32 -->
<g id="node3" class="node"><title>Node32</title>
<g id="a_node3"><a xlink:href="class_menu___miniature.html#afad04c066c7e436bbf9cccde310d07dc" target="_top" xlink:title="Menu_Miniature::setItems\lTextures">
<polygon fill="none" stroke="black" points="100,-39 100,-69 229,-69 229,-39 100,-39"/>
<text text-anchor="start" x="108" y="-57" font-family="Helvetica,sans-Serif" font-size="10.00">Menu_Miniature::setItems</text>
<text text-anchor="middle" x="164.5" y="-46" font-family="Helvetica,sans-Serif" font-size="10.00">Textures</text>
</a>
</g>
</g>
<!-- Node30&#45;&gt;Node32 -->
<g id="edge2" class="edge"><title>Node30&#45;&gt;Node32</title>
<path fill="none" stroke="midnightblue" d="M64.258,-54C72.0924,-54 80.834,-54 89.7918,-54"/>
<polygon fill="midnightblue" stroke="midnightblue" points="89.9606,-57.5001 99.9606,-54 89.9605,-50.5001 89.9606,-57.5001"/>
</g>
<!-- Node33 -->
<g id="node4" class="node"><title>Node33</title>
<g id="a_node4"><a xlink:href="_main_8cpp.html#ad43822cd5cf43d5891d7dbdd6fdb1802" target="_top" xlink:title="log_file">
<polygon fill="none" stroke="black" points="141,-0.5 141,-19.5 188,-19.5 188,-0.5 141,-0.5"/>
<text text-anchor="middle" x="164.5" y="-7.5" font-family="Helvetica,sans-Serif" font-size="10.00">log_file</text>
</a>
</g>
</g>
<!-- Node30&#45;&gt;Node33 -->
<g id="edge3" class="edge"><title>Node30&#45;&gt;Node33</title>
<path fill="none" stroke="midnightblue" d="M59.009,-44.4181C71.3855,-39.9266 86.4156,-34.5704 100,-30 110.106,-26.6 121.174,-23.0533 131.199,-19.9072"/>
<polygon fill="midnightblue" stroke="midnightblue" points="132.295,-23.2315 140.801,-16.9148 130.213,-16.5484 132.295,-23.2315"/>
</g>
</g>
</svg>
