<?xml version="1.0" encoding="UTF-8" standalone="no"?>
<!DOCTYPE svg PUBLIC "-//W3C//DTD SVG 1.1//EN"
 "http://www.w3.org/Graphics/SVG/1.1/DTD/svg11.dtd">
<!-- Generated by graphviz version 2.38.0 (20140413.2041)
 -->
<!-- Title: loadMenu Pages: 1 -->
<svg width="515pt" height="268pt"
 viewBox="0.00 0.00 515.00 267.50" xmlns="http://www.w3.org/2000/svg" xmlns:xlink="http://www.w3.org/1999/xlink">
<g id="graph0" class="graph" transform="scale(1 1) rotate(0) translate(4 263.5)">
<title>loadMenu</title>
<!-- Node5 -->
<g id="node1" class="node"><title>Node5</title>
<polygon fill="#bfbfbf" stroke="black" points="0,-145 0,-164 59,-164 59,-145 0,-145"/>
<text text-anchor="middle" x="29.5" y="-152" font-family="Helvetica,sans-Serif" font-size="10.00">loadMenu</text>
</g>
<!-- Node6 -->
<g id="node2" class="node"><title>Node6</title>
<g id="a_node2"><a xlink:href="_main_8cpp.html#ab2ff3dd66804b9f8e614cc3d8f62b851" target="_top" xlink:title="loadMenu1">
<polygon fill="none" stroke="black" points="95,-88 95,-107 159,-107 159,-88 95,-88"/>
<text text-anchor="middle" x="127" y="-95" font-family="Helvetica,sans-Serif" font-size="10.00">loadMenu1</text>
</a>
</g>
</g>
<!-- Node5&#45;&gt;Node6 -->
<g id="edge1" class="edge"><title>Node5&#45;&gt;Node6</title>
<path fill="none" stroke="midnightblue" d="M46.7003,-144.831C61.6074,-135.933 83.9401,-122.604 101.111,-112.355"/>
<polygon fill="midnightblue" stroke="midnightblue" points="103.246,-115.157 110.039,-107.026 99.6584,-109.146 103.246,-115.157"/>
</g>
<!-- Node12 -->
<g id="node8" class="node"><title>Node12</title>
<g id="a_node8"><a xlink:href="_main_8cpp.html#a4d2b8dfc9654f97dcbfd580ffeeb8048" target="_top" xlink:title="loadMenu2">
<polygon fill="none" stroke="black" points="95,-50 95,-69 159,-69 159,-50 95,-50"/>
<text text-anchor="middle" x="127" y="-57" font-family="Helvetica,sans-Serif" font-size="10.00">loadMenu2</text>
</a>
</g>
</g>
<!-- Node5&#45;&gt;Node12 -->
<g id="edge7" class="edge"><title>Node5&#45;&gt;Node12</title>
<path fill="none" stroke="midnightblue" d="M37.1982,-144.763C48.0779,-129.416 70.82,-99.2188 95,-78.5 96.5099,-77.2062 98.1176,-75.9432 99.7762,-74.7228"/>
<polygon fill="midnightblue" stroke="midnightblue" points="101.913,-77.5046 108.275,-69.0332 98.0185,-71.6877 101.913,-77.5046"/>
</g>
<!-- Node15 -->
<g id="node11" class="node"><title>Node15</title>
<g id="a_node11"><a xlink:href="_main_8cpp.html#a1862c57029f25299b350b89a3fef7bac" target="_top" xlink:title="loadMenu3">
<polygon fill="none" stroke="black" points="95,-240 95,-259 159,-259 159,-240 95,-240"/>
<text text-anchor="middle" x="127" y="-247" font-family="Helvetica,sans-Serif" font-size="10.00">loadMenu3</text>
</a>
</g>
</g>
<!-- Node5&#45;&gt;Node15 -->
<g id="edge11" class="edge"><title>Node5&#45;&gt;Node15</title>
<path fill="none" stroke="midnightblue" d="M37.1982,-164.237C48.0779,-179.584 70.82,-209.781 95,-230.5 96.5099,-231.794 98.1176,-233.057 99.7762,-234.277"/>
<polygon fill="midnightblue" stroke="midnightblue" points="98.0185,-237.312 108.275,-239.967 101.913,-231.495 98.0185,-237.312"/>
</g>
<!-- Node16 -->
<g id="node12" class="node"><title>Node16</title>
<g id="a_node12"><a xlink:href="_main_8cpp.html#a3153201e1f35afab1a2de7fa1dea810a" target="_top" xlink:title="loadMenu4">
<polygon fill="none" stroke="black" points="95,-202 95,-221 159,-221 159,-202 95,-202"/>
<text text-anchor="middle" x="127" y="-209" font-family="Helvetica,sans-Serif" font-size="10.00">loadMenu4</text>
</a>
</g>
</g>
<!-- Node5&#45;&gt;Node16 -->
<g id="edge16" class="edge"><title>Node5&#45;&gt;Node16</title>
<path fill="none" stroke="midnightblue" d="M46.7003,-164.169C61.6074,-173.067 83.9401,-186.396 101.111,-196.645"/>
<polygon fill="midnightblue" stroke="midnightblue" points="99.6584,-199.854 110.039,-201.974 103.246,-193.843 99.6584,-199.854"/>
</g>
<!-- Node17 -->
<g id="node13" class="node"><title>Node17</title>
<g id="a_node13"><a xlink:href="_main_8cpp.html#aee704d9ab9bae25e3fecbe7f6a106f7a" target="_top" xlink:title="loadMenu5">
<polygon fill="none" stroke="black" points="95,-164 95,-183 159,-183 159,-164 95,-164"/>
<text text-anchor="middle" x="127" y="-171" font-family="Helvetica,sans-Serif" font-size="10.00">loadMenu5</text>
</a>
</g>
</g>
<!-- Node5&#45;&gt;Node17 -->
<g id="edge21" class="edge"><title>Node5&#45;&gt;Node17</title>
<path fill="none" stroke="midnightblue" d="M59.1531,-160.201C67.209,-161.803 76.133,-163.579 84.7673,-165.297"/>
<polygon fill="midnightblue" stroke="midnightblue" points="84.21,-168.754 94.7008,-167.273 85.576,-161.889 84.21,-168.754"/>
</g>
<!-- Node18 -->
<g id="node14" class="node"><title>Node18</title>
<g id="a_node14"><a xlink:href="_main_8cpp.html#a0a424bcea43ed2e1fc6b5d516bafd12c" target="_top" xlink:title="loadMenu6">
<polygon fill="none" stroke="black" points="95,-126 95,-145 159,-145 159,-126 95,-126"/>
<text text-anchor="middle" x="127" y="-133" font-family="Helvetica,sans-Serif" font-size="10.00">loadMenu6</text>
</a>
</g>
</g>
<!-- Node5&#45;&gt;Node18 -->
<g id="edge26" class="edge"><title>Node5&#45;&gt;Node18</title>
<path fill="none" stroke="midnightblue" d="M59.1531,-148.799C67.209,-147.197 76.133,-145.421 84.7673,-143.703"/>
<polygon fill="midnightblue" stroke="midnightblue" points="85.576,-147.111 94.7008,-141.727 84.21,-140.246 85.576,-147.111"/>
</g>
<!-- Node7 -->
<g id="node3" class="node"><title>Node7</title>
<g id="a_node3"><a xlink:href="class_menu__simple.html#a1273e6743ee892cd8651968efd595b73" target="_top" xlink:title="Menu_simple::setItemsFonts">
<polygon fill="none" stroke="black" points="201,-202 201,-221 344,-221 344,-202 201,-202"/>
<text text-anchor="middle" x="272.5" y="-209" font-family="Helvetica,sans-Serif" font-size="10.00">Menu_simple::setItemsFonts</text>
</a>
</g>
</g>
<!-- Node6&#45;&gt;Node7 -->
<g id="edge2" class="edge"><title>Node6&#45;&gt;Node7</title>
<path fill="none" stroke="midnightblue" d="M147.672,-107.176C151.761,-109.806 155.795,-112.93 159,-116.5 183.971,-144.31 166.078,-168.827 195,-192.5 197.039,-194.169 199.203,-195.694 201.463,-197.087"/>
<polygon fill="midnightblue" stroke="midnightblue" points="200.103,-200.325 210.589,-201.837 203.335,-194.116 200.103,-200.325"/>
</g>
<!-- Node8 -->
<g id="node4" class="node"><title>Node8</title>
<g id="a_node4"><a xlink:href="class_menu__simple.html#a0fc5b4ec10c844f34495364f70cd333e" target="_top" xlink:title="Menu_simple::addItem">
<polygon fill="none" stroke="black" points="215,-164 215,-183 330,-183 330,-164 215,-164"/>
<text text-anchor="middle" x="272.5" y="-171" font-family="Helvetica,sans-Serif" font-size="10.00">Menu_simple::addItem</text>
</a>
</g>
</g>
<!-- Node6&#45;&gt;Node8 -->
<g id="edge3" class="edge"><title>Node6&#45;&gt;Node8</title>
<path fill="none" stroke="midnightblue" d="M145.599,-107.184C150.127,-109.968 154.881,-113.161 159,-116.5 177.073,-131.149 174.903,-142.781 195,-154.5 198.724,-156.671 202.689,-158.596 206.781,-160.302"/>
<polygon fill="midnightblue" stroke="midnightblue" points="205.909,-163.711 216.502,-163.898 208.338,-157.146 205.909,-163.711"/>
</g>
<!-- Node10 -->
<g id="node6" class="node"><title>Node10</title>
<g id="a_node6"><a xlink:href="class_menu__simple.html#a4717470decb5666cbac7aa879aade5fa" target="_top" xlink:title="Menu_simple::setItemsTextures">
<polygon fill="none" stroke="black" points="195,-126 195,-145 350,-145 350,-126 195,-126"/>
<text text-anchor="middle" x="272.5" y="-133" font-family="Helvetica,sans-Serif" font-size="10.00">Menu_simple::setItemsTextures</text>
</a>
</g>
</g>
<!-- Node6&#45;&gt;Node10 -->
<g id="edge5" class="edge"><title>Node6&#45;&gt;Node10</title>
<path fill="none" stroke="midnightblue" d="M159.3,-106.606C170.536,-109.814 183.315,-113.393 195,-116.5 203.838,-118.85 213.275,-121.268 222.396,-123.558"/>
<polygon fill="midnightblue" stroke="midnightblue" points="221.576,-126.961 232.126,-125.984 223.269,-120.169 221.576,-126.961"/>
</g>
<!-- Node11 -->
<g id="node7" class="node"><title>Node11</title>
<g id="a_node7"><a xlink:href="_main_8cpp.html#ad43822cd5cf43d5891d7dbdd6fdb1802" target="_top" xlink:title="log_file">
<polygon fill="none" stroke="black" points="249,-88 249,-107 296,-107 296,-88 249,-88"/>
<text text-anchor="middle" x="272.5" y="-95" font-family="Helvetica,sans-Serif" font-size="10.00">log_file</text>
</a>
</g>
</g>
<!-- Node6&#45;&gt;Node11 -->
<g id="edge6" class="edge"><title>Node6&#45;&gt;Node11</title>
<path fill="none" stroke="midnightblue" d="M159.137,-97.5C182.689,-97.5 214.946,-97.5 238.859,-97.5"/>
<polygon fill="midnightblue" stroke="midnightblue" points="238.871,-101 248.871,-97.5 238.871,-94.0001 238.871,-101"/>
</g>
<!-- Node9 -->
<g id="node5" class="node"><title>Node9</title>
<g id="a_node5"><a xlink:href="class_choice___simple.html#a035e32f90e4561b666b6571bce06e207" target="_top" xlink:title="Choice_Simple::setFont">
<polygon fill="none" stroke="black" points="386,-164 386,-183 507,-183 507,-164 386,-164"/>
<text text-anchor="middle" x="446.5" y="-171" font-family="Helvetica,sans-Serif" font-size="10.00">Choice_Simple::setFont</text>
</a>
</g>
</g>
<!-- Node8&#45;&gt;Node9 -->
<g id="edge4" class="edge"><title>Node8&#45;&gt;Node9</title>
<path fill="none" stroke="midnightblue" d="M330.296,-173.5C344.766,-173.5 360.487,-173.5 375.53,-173.5"/>
<polygon fill="midnightblue" stroke="midnightblue" points="375.812,-177 385.812,-173.5 375.812,-170 375.812,-177"/>
</g>
<!-- Node12&#45;&gt;Node11 -->
<g id="edge10" class="edge"><title>Node12&#45;&gt;Node11</title>
<path fill="none" stroke="midnightblue" d="M159.3,-68.6063C170.536,-71.8143 183.315,-75.3931 195,-78.5 209.333,-82.3111 225.24,-86.3005 238.821,-89.6343"/>
<polygon fill="midnightblue" stroke="midnightblue" points="238.143,-93.0714 248.687,-92.042 239.802,-86.271 238.143,-93.0714"/>
</g>
<!-- Node13 -->
<g id="node9" class="node"><title>Node13</title>
<g id="a_node9"><a xlink:href="class_menu.html#aa8032782ee75fba5fa17bf7a20635c68" target="_top" xlink:title="Menu::addItem">
<polygon fill="none" stroke="black" points="232,-50 232,-69 313,-69 313,-50 232,-50"/>
<text text-anchor="middle" x="272.5" y="-57" font-family="Helvetica,sans-Serif" font-size="10.00">Menu::addItem</text>
</a>
</g>
</g>
<!-- Node12&#45;&gt;Node13 -->
<g id="edge8" class="edge"><title>Node12&#45;&gt;Node13</title>
<path fill="none" stroke="midnightblue" d="M159.137,-59.5C177.401,-59.5 200.9,-59.5 221.683,-59.5"/>
<polygon fill="midnightblue" stroke="midnightblue" points="221.945,-63.0001 231.945,-59.5 221.945,-56.0001 221.945,-63.0001"/>
</g>
<!-- Node14 -->
<g id="node10" class="node"><title>Node14</title>
<g id="a_node10"><a xlink:href="class_menu___miniature.html#afad04c066c7e436bbf9cccde310d07dc" target="_top" xlink:title="Menu_Miniature::setItems\lTextures">
<polygon fill="none" stroke="black" points="208,-0.5 208,-30.5 337,-30.5 337,-0.5 208,-0.5"/>
<text text-anchor="start" x="216" y="-18.5" font-family="Helvetica,sans-Serif" font-size="10.00">Menu_Miniature::setItems</text>
<text text-anchor="middle" x="272.5" y="-7.5" font-family="Helvetica,sans-Serif" font-size="10.00">Textures</text>
</a>
</g>
</g>
<!-- Node12&#45;&gt;Node14 -->
<g id="edge9" class="edge"><title>Node12&#45;&gt;Node14</title>
<path fill="none" stroke="midnightblue" d="M159.137,-49.9527C174.789,-45.1536 194.285,-39.1757 212.621,-33.5534"/>
<polygon fill="midnightblue" stroke="midnightblue" points="213.832,-36.8432 222.366,-30.5654 211.78,-30.1507 213.832,-36.8432"/>
</g>
<!-- Node15&#45;&gt;Node7 -->
<g id="edge12" class="edge"><title>Node15&#45;&gt;Node7</title>
<path fill="none" stroke="midnightblue" d="M159.137,-241.255C178.652,-236.087 204.144,-229.337 225.912,-223.572"/>
<polygon fill="midnightblue" stroke="midnightblue" points="226.846,-226.945 235.617,-221.002 225.054,-220.179 226.846,-226.945"/>
</g>
<!-- Node15&#45;&gt;Node8 -->
<g id="edge13" class="edge"><title>Node15&#45;&gt;Node8</title>
<path fill="none" stroke="midnightblue" d="M145.599,-239.816C150.127,-237.032 154.881,-233.839 159,-230.5 177.073,-215.851 174.903,-204.219 195,-192.5 198.724,-190.329 202.689,-188.404 206.781,-186.698"/>
<polygon fill="midnightblue" stroke="midnightblue" points="208.338,-189.854 216.502,-183.102 205.909,-183.289 208.338,-189.854"/>
</g>
<!-- Node15&#45;&gt;Node10 -->
<g id="edge14" class="edge"><title>Node15&#45;&gt;Node10</title>
<path fill="none" stroke="midnightblue" d="M147.672,-239.824C151.761,-237.194 155.795,-234.07 159,-230.5 183.971,-202.69 166.078,-178.173 195,-154.5 197.039,-152.831 199.203,-151.306 201.463,-149.913"/>
<polygon fill="midnightblue" stroke="midnightblue" points="203.335,-152.884 210.589,-145.163 200.103,-146.675 203.335,-152.884"/>
</g>
<!-- Node15&#45;&gt;Node11 -->
<g id="edge15" class="edge"><title>Node15&#45;&gt;Node11</title>
<path fill="none" stroke="midnightblue" d="M148.365,-239.925C152.32,-237.321 156.123,-234.18 159,-230.5 191.72,-188.637 156.275,-152.88 195,-116.5 206.751,-105.461 223.888,-100.559 238.965,-98.4823"/>
<polygon fill="midnightblue" stroke="midnightblue" points="239.391,-101.957 248.982,-97.4558 238.677,-94.9935 239.391,-101.957"/>
</g>
<!-- Node16&#45;&gt;Node7 -->
<g id="edge17" class="edge"><title>Node16&#45;&gt;Node7</title>
<path fill="none" stroke="midnightblue" d="M159.137,-211.5C168.604,-211.5 179.477,-211.5 190.649,-211.5"/>
<polygon fill="midnightblue" stroke="midnightblue" points="190.962,-215 200.962,-211.5 190.962,-208 190.962,-215"/>
</g>
<!-- Node16&#45;&gt;Node8 -->
<g id="edge18" class="edge"><title>Node16&#45;&gt;Node8</title>
<path fill="none" stroke="midnightblue" d="M159.3,-202.394C170.536,-199.186 183.315,-195.607 195,-192.5 203.838,-190.15 213.275,-187.732 222.396,-185.442"/>
<polygon fill="midnightblue" stroke="midnightblue" points="223.269,-188.831 232.126,-183.016 221.576,-182.039 223.269,-188.831"/>
</g>
<!-- Node16&#45;&gt;Node10 -->
<g id="edge19" class="edge"><title>Node16&#45;&gt;Node10</title>
<path fill="none" stroke="midnightblue" d="M145.599,-201.816C150.127,-199.032 154.881,-195.839 159,-192.5 177.073,-177.851 174.903,-166.219 195,-154.5 198.724,-152.329 202.689,-150.404 206.781,-148.698"/>
<polygon fill="midnightblue" stroke="midnightblue" points="208.338,-151.854 216.502,-145.102 205.909,-145.289 208.338,-151.854"/>
</g>
<!-- Node16&#45;&gt;Node11 -->
<g id="edge20" class="edge"><title>Node16&#45;&gt;Node11</title>
<path fill="none" stroke="midnightblue" d="M147.672,-201.824C151.761,-199.194 155.795,-196.07 159,-192.5 183.971,-164.69 166.078,-140.173 195,-116.5 207.186,-106.526 223.873,-101.68 238.553,-99.3664"/>
<polygon fill="midnightblue" stroke="midnightblue" points="239.303,-102.8 248.794,-98.0926 238.439,-95.8537 239.303,-102.8"/>
</g>
<!-- Node17&#45;&gt;Node7 -->
<g id="edge22" class="edge"><title>Node17&#45;&gt;Node7</title>
<path fill="none" stroke="midnightblue" d="M159.3,-182.606C170.536,-185.814 183.315,-189.393 195,-192.5 203.838,-194.85 213.275,-197.268 222.396,-199.558"/>
<polygon fill="midnightblue" stroke="midnightblue" points="221.576,-202.961 232.126,-201.984 223.269,-196.169 221.576,-202.961"/>
</g>
<!-- Node17&#45;&gt;Node8 -->
<g id="edge23" class="edge"><title>Node17&#45;&gt;Node8</title>
<path fill="none" stroke="midnightblue" d="M159.137,-173.5C172.526,-173.5 188.728,-173.5 204.61,-173.5"/>
<polygon fill="midnightblue" stroke="midnightblue" points="204.968,-177 214.968,-173.5 204.968,-170 204.968,-177"/>
</g>
<!-- Node17&#45;&gt;Node10 -->
<g id="edge24" class="edge"><title>Node17&#45;&gt;Node10</title>
<path fill="none" stroke="midnightblue" d="M159.3,-164.394C170.536,-161.186 183.315,-157.607 195,-154.5 203.838,-152.15 213.275,-149.732 222.396,-147.442"/>
<polygon fill="midnightblue" stroke="midnightblue" points="223.269,-150.831 232.126,-145.016 221.576,-144.039 223.269,-150.831"/>
</g>
<!-- Node17&#45;&gt;Node11 -->
<g id="edge25" class="edge"><title>Node17&#45;&gt;Node11</title>
<path fill="none" stroke="midnightblue" d="M145.599,-163.816C150.127,-161.032 154.881,-157.839 159,-154.5 177.073,-139.851 174.903,-128.219 195,-116.5 208.318,-108.734 224.729,-104.123 238.932,-101.395"/>
<polygon fill="midnightblue" stroke="midnightblue" points="239.532,-104.844 248.808,-99.7232 238.364,-97.9418 239.532,-104.844"/>
</g>
<!-- Node18&#45;&gt;Node7 -->
<g id="edge27" class="edge"><title>Node18&#45;&gt;Node7</title>
<path fill="none" stroke="midnightblue" d="M145.599,-145.184C150.127,-147.968 154.881,-151.161 159,-154.5 177.073,-169.149 174.903,-180.781 195,-192.5 198.724,-194.671 202.689,-196.596 206.781,-198.302"/>
<polygon fill="midnightblue" stroke="midnightblue" points="205.909,-201.711 216.502,-201.898 208.338,-195.146 205.909,-201.711"/>
</g>
<!-- Node18&#45;&gt;Node8 -->
<g id="edge28" class="edge"><title>Node18&#45;&gt;Node8</title>
<path fill="none" stroke="midnightblue" d="M159.3,-144.606C170.536,-147.814 183.315,-151.393 195,-154.5 203.838,-156.85 213.275,-159.268 222.396,-161.558"/>
<polygon fill="midnightblue" stroke="midnightblue" points="221.576,-164.961 232.126,-163.984 223.269,-158.169 221.576,-164.961"/>
</g>
<!-- Node18&#45;&gt;Node10 -->
<g id="edge29" class="edge"><title>Node18&#45;&gt;Node10</title>
<path fill="none" stroke="midnightblue" d="M159.137,-135.5C166.863,-135.5 175.526,-135.5 184.524,-135.5"/>
<polygon fill="midnightblue" stroke="midnightblue" points="184.792,-139 194.792,-135.5 184.792,-132 184.792,-139"/>
</g>
<!-- Node18&#45;&gt;Node11 -->
<g id="edge30" class="edge"><title>Node18&#45;&gt;Node11</title>
<path fill="none" stroke="midnightblue" d="M159.3,-126.394C170.536,-123.186 183.315,-119.607 195,-116.5 209.333,-112.689 225.24,-108.7 238.821,-105.366"/>
<polygon fill="midnightblue" stroke="midnightblue" points="239.802,-108.729 248.687,-102.958 238.143,-101.929 239.802,-108.729"/>
</g>
</g>
</svg>
