<?xml version="1.0" encoding="UTF-8" standalone="no"?>
<!DOCTYPE svg PUBLIC "-//W3C//DTD SVG 1.1//EN"
 "http://www.w3.org/Graphics/SVG/1.1/DTD/svg11.dtd">
<!-- Generated by graphviz version 2.38.0 (20140413.2041)
 -->
<!-- Title: log_file Pages: 1 -->
<svg width="324pt" height="241pt"
 viewBox="0.00 0.00 324.00 241.36" xmlns="http://www.w3.org/2000/svg" xmlns:xlink="http://www.w3.org/1999/xlink">
<g id="graph0" class="graph" transform="scale(1 1) rotate(0) translate(4 237.365)">
<title>log_file</title>
<!-- Node74 -->
<g id="node1" class="node"><title>Node74</title>
<polygon fill="#bfbfbf" stroke="black" points="0,-114.5 0,-133.5 47,-133.5 47,-114.5 0,-114.5"/>
<text text-anchor="middle" x="23.5" y="-121.5" font-family="Helvetica,sans-Serif" font-size="10.00">log_file</text>
</g>
<!-- Node75 -->
<g id="node2" class="node"><title>Node75</title>
<g id="a_node2"><a xlink:href="_main_8cpp.html#ae66f6b31b5ad750f1fe042a706a4e3d4" target="_top" xlink:title="main">
<polygon fill="none" stroke="black" points="278,-171.5 278,-190.5 316,-190.5 316,-171.5 278,-171.5"/>
<text text-anchor="middle" x="297" y="-178.5" font-family="Helvetica,sans-Serif" font-size="10.00">main</text>
</a>
</g>
</g>
<!-- Node74&#45;&gt;Node75 -->
<g id="edge1" class="edge"><title>Node74&#45;&gt;Node75</title>
<path fill="none" stroke="midnightblue" d="M30.0112,-143.151C37.7098,-165.917 54.0959,-202.854 83,-219 148.915,-255.82 242.631,-211.395 279.857,-190.607"/>
<polygon fill="midnightblue" stroke="midnightblue" points="33.3281,-142.031 26.992,-133.539 26.6499,-144.129 33.3281,-142.031"/>
</g>
<!-- Node76 -->
<g id="node3" class="node"><title>Node76</title>
<g id="a_node3"><a xlink:href="_main_8cpp.html#ab2ff3dd66804b9f8e614cc3d8f62b851" target="_top" xlink:title="loadMenu1">
<polygon fill="none" stroke="black" points="83,-190.5 83,-209.5 147,-209.5 147,-190.5 83,-190.5"/>
<text text-anchor="middle" x="115" y="-197.5" font-family="Helvetica,sans-Serif" font-size="10.00">loadMenu1</text>
</a>
</g>
</g>
<!-- Node74&#45;&gt;Node76 -->
<g id="edge2" class="edge"><title>Node74&#45;&gt;Node76</title>
<path fill="none" stroke="midnightblue" d="M40.0576,-141.059C51.3612,-152.963 67.3587,-168.832 83,-181 87.2848,-184.333 92.1892,-187.571 96.8134,-190.402"/>
<polygon fill="midnightblue" stroke="midnightblue" points="42.4264,-138.468 33.044,-133.546 37.3095,-143.245 42.4264,-138.468"/>
</g>
<!-- Node78 -->
<g id="node5" class="node"><title>Node78</title>
<g id="a_node5"><a xlink:href="_main_8cpp.html#a4d2b8dfc9654f97dcbfd580ffeeb8048" target="_top" xlink:title="loadMenu2">
<polygon fill="none" stroke="black" points="83,-152.5 83,-171.5 147,-171.5 147,-152.5 83,-152.5"/>
<text text-anchor="middle" x="115" y="-159.5" font-family="Helvetica,sans-Serif" font-size="10.00">loadMenu2</text>
</a>
</g>
</g>
<!-- Node74&#45;&gt;Node78 -->
<g id="edge5" class="edge"><title>Node74&#45;&gt;Node78</title>
<path fill="none" stroke="midnightblue" d="M56.4342,-137.559C68.0049,-142.471 80.824,-147.914 91.4226,-152.414"/>
<polygon fill="midnightblue" stroke="midnightblue" points="57.6572,-134.276 47.0846,-133.589 54.9215,-140.719 57.6572,-134.276"/>
</g>
<!-- Node79 -->
<g id="node6" class="node"><title>Node79</title>
<g id="a_node6"><a xlink:href="_main_8cpp.html#a1862c57029f25299b350b89a3fef7bac" target="_top" xlink:title="loadMenu3">
<polygon fill="none" stroke="black" points="83,-114.5 83,-133.5 147,-133.5 147,-114.5 83,-114.5"/>
<text text-anchor="middle" x="115" y="-121.5" font-family="Helvetica,sans-Serif" font-size="10.00">loadMenu3</text>
</a>
</g>
</g>
<!-- Node74&#45;&gt;Node79 -->
<g id="edge7" class="edge"><title>Node74&#45;&gt;Node79</title>
<path fill="none" stroke="midnightblue" d="M57.2897,-124C65.6792,-124 74.674,-124 82.9719,-124"/>
<polygon fill="midnightblue" stroke="midnightblue" points="57.0847,-120.5 47.0846,-124 57.0846,-127.5 57.0847,-120.5"/>
</g>
<!-- Node80 -->
<g id="node7" class="node"><title>Node80</title>
<g id="a_node7"><a xlink:href="_main_8cpp.html#a3153201e1f35afab1a2de7fa1dea810a" target="_top" xlink:title="loadMenu4">
<polygon fill="none" stroke="black" points="83,-76.5 83,-95.5 147,-95.5 147,-76.5 83,-76.5"/>
<text text-anchor="middle" x="115" y="-83.5" font-family="Helvetica,sans-Serif" font-size="10.00">loadMenu4</text>
</a>
</g>
</g>
<!-- Node74&#45;&gt;Node80 -->
<g id="edge9" class="edge"><title>Node74&#45;&gt;Node80</title>
<path fill="none" stroke="midnightblue" d="M56.4342,-110.441C68.0049,-105.529 80.824,-100.086 91.4226,-95.5859"/>
<polygon fill="midnightblue" stroke="midnightblue" points="54.9215,-107.281 47.0846,-114.411 57.6572,-113.724 54.9215,-107.281"/>
</g>
<!-- Node81 -->
<g id="node8" class="node"><title>Node81</title>
<g id="a_node8"><a xlink:href="_main_8cpp.html#aee704d9ab9bae25e3fecbe7f6a106f7a" target="_top" xlink:title="loadMenu5">
<polygon fill="none" stroke="black" points="83,-38.5 83,-57.5 147,-57.5 147,-38.5 83,-38.5"/>
<text text-anchor="middle" x="115" y="-45.5" font-family="Helvetica,sans-Serif" font-size="10.00">loadMenu5</text>
</a>
</g>
</g>
<!-- Node74&#45;&gt;Node81 -->
<g id="edge11" class="edge"><title>Node74&#45;&gt;Node81</title>
<path fill="none" stroke="midnightblue" d="M40.0576,-106.941C51.3612,-95.0371 67.3587,-79.1677 83,-67 87.2848,-63.6667 92.1892,-60.4288 96.8134,-57.5983"/>
<polygon fill="midnightblue" stroke="midnightblue" points="37.3095,-104.755 33.044,-114.454 42.4264,-109.532 37.3095,-104.755"/>
</g>
<!-- Node82 -->
<g id="node9" class="node"><title>Node82</title>
<g id="a_node9"><a xlink:href="_main_8cpp.html#a0a424bcea43ed2e1fc6b5d516bafd12c" target="_top" xlink:title="loadMenu6">
<polygon fill="none" stroke="black" points="83,-0.5 83,-19.5 147,-19.5 147,-0.5 83,-0.5"/>
<text text-anchor="middle" x="115" y="-7.5" font-family="Helvetica,sans-Serif" font-size="10.00">loadMenu6</text>
</a>
</g>
</g>
<!-- Node74&#45;&gt;Node82 -->
<g id="edge13" class="edge"><title>Node74&#45;&gt;Node82</title>
<path fill="none" stroke="midnightblue" d="M32.8264,-105.119C42.5921,-84.5565 60.3632,-51.5894 83,-29 86.5746,-25.4329 90.9424,-22.2398 95.2586,-19.5353"/>
<polygon fill="midnightblue" stroke="midnightblue" points="29.5711,-103.821 28.5772,-114.369 35.932,-106.743 29.5711,-103.821"/>
</g>
<!-- Node77 -->
<g id="node4" class="node"><title>Node77</title>
<g id="a_node4"><a xlink:href="_main_8cpp.html#a38bed9713fcae949ee78e6bc604db8fe" target="_top" xlink:title="loadMenu">
<polygon fill="none" stroke="black" points="183,-114.5 183,-133.5 242,-133.5 242,-114.5 183,-114.5"/>
<text text-anchor="middle" x="212.5" y="-121.5" font-family="Helvetica,sans-Serif" font-size="10.00">loadMenu</text>
</a>
</g>
</g>
<!-- Node76&#45;&gt;Node77 -->
<g id="edge3" class="edge"><title>Node76&#45;&gt;Node77</title>
<path fill="none" stroke="midnightblue" d="M141.326,-184.988C143.273,-183.68 145.186,-182.342 147,-181 167.425,-165.894 189.166,-145.715 201.469,-133.862"/>
<polygon fill="midnightblue" stroke="midnightblue" points="139.303,-182.127 132.759,-190.459 143.071,-188.027 139.303,-182.127"/>
</g>
<!-- Node77&#45;&gt;Node75 -->
<g id="edge4" class="edge"><title>Node77&#45;&gt;Node75</title>
<path fill="none" stroke="midnightblue" d="M236.071,-139.595C250.833,-149.794 269.64,-162.788 282.212,-171.474"/>
<polygon fill="midnightblue" stroke="midnightblue" points="237.712,-136.474 227.495,-133.669 233.733,-142.233 237.712,-136.474"/>
</g>
<!-- Node78&#45;&gt;Node77 -->
<g id="edge6" class="edge"><title>Node78&#45;&gt;Node77</title>
<path fill="none" stroke="midnightblue" d="M149.705,-148.589C162.148,-143.638 175.987,-138.131 187.409,-133.586"/>
<polygon fill="midnightblue" stroke="midnightblue" points="148.096,-145.462 140.099,-152.411 150.684,-151.966 148.096,-145.462"/>
</g>
<!-- Node79&#45;&gt;Node77 -->
<g id="edge8" class="edge"><title>Node79&#45;&gt;Node77</title>
<path fill="none" stroke="midnightblue" d="M157.032,-124C165.752,-124 174.778,-124 182.914,-124"/>
<polygon fill="midnightblue" stroke="midnightblue" points="157.006,-120.5 147.006,-124 157.006,-127.5 157.006,-120.5"/>
</g>
<!-- Node80&#45;&gt;Node77 -->
<g id="edge10" class="edge"><title>Node80&#45;&gt;Node77</title>
<path fill="none" stroke="midnightblue" d="M149.705,-99.4114C162.148,-104.362 175.987,-109.869 187.409,-114.414"/>
<polygon fill="midnightblue" stroke="midnightblue" points="150.684,-96.0342 140.099,-95.589 148.096,-102.538 150.684,-96.0342"/>
</g>
<!-- Node81&#45;&gt;Node77 -->
<g id="edge12" class="edge"><title>Node81&#45;&gt;Node77</title>
<path fill="none" stroke="midnightblue" d="M141.326,-63.0121C143.273,-64.3205 145.186,-65.6581 147,-67 167.425,-82.1063 189.166,-102.285 201.469,-114.138"/>
<polygon fill="midnightblue" stroke="midnightblue" points="143.071,-59.9733 132.759,-57.5406 139.303,-65.8729 143.071,-59.9733"/>
</g>
<!-- Node82&#45;&gt;Node77 -->
<g id="edge14" class="edge"><title>Node82&#45;&gt;Node77</title>
<path fill="none" stroke="midnightblue" d="M143.002,-25.5247C144.401,-26.6412 145.744,-27.8015 147,-29 174.832,-55.5647 197.359,-96.0704 206.761,-114.398"/>
<polygon fill="midnightblue" stroke="midnightblue" points="144.826,-22.5288 134.63,-19.6493 140.805,-28.2587 144.826,-22.5288"/>
</g>
</g>
</svg>
