<?xml version="1.0" encoding="UTF-8" standalone="no"?>
<!DOCTYPE svg PUBLIC "-//W3C//DTD SVG 1.1//EN"
 "http://www.w3.org/Graphics/SVG/1.1/DTD/svg11.dtd">
<!-- Generated by graphviz version 2.38.0 (20140413.2041)
 -->
<!-- Title: D:/Users/Victor/OneDrive/Documents/Visual Studio 2017/Projects/Jeu_de_Go/Jeu_de_Go/Sources/Graphics/Main.cpp Pages: 1 -->
<svg width="1420pt" height="632pt"
 viewBox="0.00 0.00 1420.00 632.00" xmlns="http://www.w3.org/2000/svg" xmlns:xlink="http://www.w3.org/1999/xlink">
<g id="graph0" class="graph" transform="scale(1 1) rotate(0) translate(4 628)">
<title>D:/Users/Victor/OneDrive/Documents/Visual Studio 2017/Projects/Jeu_de_Go/Jeu_de_Go/Sources/Graphics/Main.cpp</title>
<!-- Node0 -->
<g id="node1" class="node"><title>Node0</title>
<polygon fill="#bfbfbf" stroke="black" points="856.5,-560.5 856.5,-623.5 1005.5,-623.5 1005.5,-560.5 856.5,-560.5"/>
<text text-anchor="start" x="864.5" y="-611.5" font-family="Helvetica,sans-Serif" font-size="10.00">D:/Users/Victor/OneDrive</text>
<text text-anchor="start" x="864.5" y="-600.5" font-family="Helvetica,sans-Serif" font-size="10.00">/Documents/Visual Studio</text>
<text text-anchor="start" x="864.5" y="-589.5" font-family="Helvetica,sans-Serif" font-size="10.00"> 2017/Projects/Jeu_de_Go</text>
<text text-anchor="start" x="864.5" y="-578.5" font-family="Helvetica,sans-Serif" font-size="10.00">/Jeu_de_Go/Sources/Graphics</text>
<text text-anchor="middle" x="931" y="-567.5" font-family="Helvetica,sans-Serif" font-size="10.00">/Main.cpp</text>
</g>
<!-- Node1 -->
<g id="node2" class="node"><title>Node1</title>
<g id="a_node2"><a xlink:href="_globals_8h.html" target="_top" xlink:title="Globals.h">
<polygon fill="none" stroke="black" points="769,-56.5 769,-75.5 827,-75.5 827,-56.5 769,-56.5"/>
<text text-anchor="middle" x="798" y="-63.5" font-family="Helvetica,sans-Serif" font-size="10.00">Globals.h</text>
</a>
</g>
</g>
<!-- Node0&#45;&gt;Node1 -->
<g id="edge1" class="edge"><title>Node0&#45;&gt;Node1</title>
<path fill="none" stroke="midnightblue" d="M945.15,-560.247C955.954,-533.942 969,-494.771 969,-459 969,-459 969,-459 969,-401 969,-269.906 997.766,-209.379 910,-112 891.218,-91.1611 861.451,-79.8112 837.324,-73.7246"/>
<polygon fill="midnightblue" stroke="midnightblue" points="837.909,-70.2677 827.378,-71.426 836.333,-77.0879 837.909,-70.2677"/>
</g>
<!-- Node9 -->
<g id="node10" class="node"><title>Node9</title>
<polygon fill="none" stroke="#bfbfbf" points="1277.5,-0.5 1277.5,-19.5 1326.5,-19.5 1326.5,-0.5 1277.5,-0.5"/>
<text text-anchor="middle" x="1302" y="-7.5" font-family="Helvetica,sans-Serif" font-size="10.00">fstream</text>
</g>
<!-- Node0&#45;&gt;Node9 -->
<g id="edge79" class="edge"><title>Node0&#45;&gt;Node9</title>
<path fill="none" stroke="midnightblue" d="M1005.54,-582.417C1123.51,-566.733 1340,-528.484 1340,-459 1340,-459 1340,-459 1340,-121 1340,-86.8131 1323.4,-49.7639 1312.14,-28.5707"/>
<polygon fill="midnightblue" stroke="midnightblue" points="1315.18,-26.832 1307.28,-19.769 1309.05,-30.2151 1315.18,-26.832"/>
</g>
<!-- Node10 -->
<g id="node11" class="node"><title>Node10</title>
<polygon fill="none" stroke="#bfbfbf" points="1188.5,-0.5 1188.5,-19.5 1237.5,-19.5 1237.5,-0.5 1188.5,-0.5"/>
<text text-anchor="middle" x="1213" y="-7.5" font-family="Helvetica,sans-Serif" font-size="10.00">cassert</text>
</g>
<!-- Node0&#45;&gt;Node10 -->
<g id="edge80" class="edge"><title>Node0&#45;&gt;Node10</title>
<path fill="none" stroke="midnightblue" d="M1005.67,-589.096C1068.48,-584.137 1158.02,-568.881 1222,-524 1250.16,-504.248 1264,-493.395 1264,-459 1264,-459 1264,-459 1264,-121 1264,-85.2439 1241.55,-48.5085 1226.44,-27.8357"/>
<polygon fill="midnightblue" stroke="midnightblue" points="1229.14,-25.6137 1220.31,-19.7686 1223.57,-29.8485 1229.14,-25.6137"/>
</g>
<!-- Node12 -->
<g id="node13" class="node"><title>Node12</title>
<polygon fill="none" stroke="#bfbfbf" points="1368,-504.5 1368,-523.5 1412,-523.5 1412,-504.5 1368,-504.5"/>
<text text-anchor="middle" x="1390" y="-511.5" font-family="Helvetica,sans-Serif" font-size="10.00">thread</text>
</g>
<!-- Node0&#45;&gt;Node12 -->
<g id="edge12" class="edge"><title>Node0&#45;&gt;Node12</title>
<path fill="none" stroke="midnightblue" d="M1005.86,-581.171C1090.68,-569.564 1232.88,-548.683 1354,-524 1355.28,-523.739 1356.58,-523.464 1357.89,-523.177"/>
<polygon fill="midnightblue" stroke="midnightblue" points="1359.04,-526.504 1367.99,-520.829 1357.45,-519.686 1359.04,-526.504"/>
</g>
<!-- Node13 -->
<g id="node14" class="node"><title>Node13</title>
<g id="a_node14"><a xlink:href="_screens_8h.html" target="_top" xlink:title="Screens.h">
<polygon fill="none" stroke="black" points="547.5,-392.5 547.5,-411.5 608.5,-411.5 608.5,-392.5 547.5,-392.5"/>
<text text-anchor="middle" x="578" y="-399.5" font-family="Helvetica,sans-Serif" font-size="10.00">Screens.h</text>
</a>
</g>
</g>
<!-- Node0&#45;&gt;Node13 -->
<g id="edge13" class="edge"><title>Node0&#45;&gt;Node13</title>
<path fill="none" stroke="midnightblue" d="M856.286,-583.014C776.631,-573.097 657.312,-553.76 623,-524 592.481,-497.53 582.63,-448.348 579.472,-421.56"/>
<polygon fill="midnightblue" stroke="midnightblue" points="582.953,-421.19 578.488,-411.582 575.986,-421.878 582.953,-421.19"/>
</g>
<!-- Node15 -->
<g id="node16" class="node"><title>Node15</title>
<g id="a_node16"><a xlink:href="_game__window_8h.html" target="_top" xlink:title="Game/Game_window.h">
<polygon fill="none" stroke="black" points="530.5,-336.5 530.5,-355.5 647.5,-355.5 647.5,-336.5 530.5,-336.5"/>
<text text-anchor="middle" x="589" y="-343.5" font-family="Helvetica,sans-Serif" font-size="10.00">Game/Game_window.h</text>
</a>
</g>
</g>
<!-- Node0&#45;&gt;Node15 -->
<g id="edge78" class="edge"><title>Node0&#45;&gt;Node15</title>
<path fill="none" stroke="midnightblue" d="M856.245,-580.785C786.229,-569.791 688.259,-550.28 660,-524 614.817,-481.982 643.044,-447.935 617,-392 612.485,-382.303 606.297,-372.133 600.886,-363.92"/>
<polygon fill="midnightblue" stroke="midnightblue" points="603.753,-361.912 595.238,-355.608 597.963,-365.846 603.753,-361.912"/>
</g>
<!-- Node27 -->
<g id="node28" class="node"><title>Node27</title>
<g id="a_node28"><a xlink:href="_parser_8h.html" target="_top" xlink:title="../Engine/Parser.h">
<polygon fill="none" stroke="black" points="1029.5,-224.5 1029.5,-243.5 1124.5,-243.5 1124.5,-224.5 1029.5,-224.5"/>
<text text-anchor="middle" x="1077" y="-231.5" font-family="Helvetica,sans-Serif" font-size="10.00">../Engine/Parser.h</text>
</a>
</g>
</g>
<!-- Node0&#45;&gt;Node27 -->
<g id="edge49" class="edge"><title>Node0&#45;&gt;Node27</title>
<path fill="none" stroke="midnightblue" d="M1005.82,-588.832C1093.22,-581.843 1226,-555.367 1226,-459 1226,-459 1226,-459 1226,-345 1226,-291.94 1164.09,-261.579 1120.08,-246.7"/>
<polygon fill="midnightblue" stroke="midnightblue" points="1121.03,-243.329 1110.44,-243.587 1118.88,-249.99 1121.03,-243.329"/>
</g>
<!-- Node30 -->
<g id="node31" class="node"><title>Node30</title>
<g id="a_node31"><a xlink:href="_menu__simple_8h.html" target="_top" xlink:title="Menu_simple.h">
<polygon fill="none" stroke="black" points="781.5,-504.5 781.5,-523.5 864.5,-523.5 864.5,-504.5 781.5,-504.5"/>
<text text-anchor="middle" x="823" y="-511.5" font-family="Helvetica,sans-Serif" font-size="10.00">Menu_simple.h</text>
</a>
</g>
</g>
<!-- Node0&#45;&gt;Node30 -->
<g id="edge58" class="edge"><title>Node0&#45;&gt;Node30</title>
<path fill="none" stroke="midnightblue" d="M887.384,-560.307C872.309,-549.699 856.112,-538.301 843.735,-529.591"/>
<polygon fill="midnightblue" stroke="midnightblue" points="845.66,-526.666 835.468,-523.774 841.632,-532.391 845.66,-526.666"/>
</g>
<!-- Node34 -->
<g id="node35" class="node"><title>Node34</title>
<g id="a_node35"><a xlink:href="_choice___simple_8h.html" target="_top" xlink:title="Choice_Simple.h">
<polygon fill="none" stroke="black" points="851,-448.5 851,-467.5 941,-467.5 941,-448.5 851,-448.5"/>
<text text-anchor="middle" x="896" y="-455.5" font-family="Helvetica,sans-Serif" font-size="10.00">Choice_Simple.h</text>
</a>
</g>
</g>
<!-- Node0&#45;&gt;Node34 -->
<g id="edge77" class="edge"><title>Node0&#45;&gt;Node34</title>
<path fill="none" stroke="midnightblue" d="M922.882,-560.385C916.073,-534.702 906.572,-498.87 900.879,-477.399"/>
<polygon fill="midnightblue" stroke="midnightblue" points="904.229,-476.379 898.283,-467.61 897.463,-478.173 904.229,-476.379"/>
</g>
<!-- Node35 -->
<g id="node36" class="node"><title>Node35</title>
<g id="a_node36"><a xlink:href="_menu___miniature_8h.html" target="_top" xlink:title="Menu_Miniature.h">
<polygon fill="none" stroke="black" points="669,-504.5 669,-523.5 763,-523.5 763,-504.5 669,-504.5"/>
<text text-anchor="middle" x="716" y="-511.5" font-family="Helvetica,sans-Serif" font-size="10.00">Menu_Miniature.h</text>
</a>
</g>
</g>
<!-- Node0&#45;&gt;Node35 -->
<g id="edge72" class="edge"><title>Node0&#45;&gt;Node35</title>
<path fill="none" stroke="midnightblue" d="M856.407,-564.632C820.062,-551.785 778.163,-536.974 749.663,-526.899"/>
<polygon fill="midnightblue" stroke="midnightblue" points="750.766,-523.577 740.171,-523.544 748.433,-530.177 750.766,-523.577"/>
</g>
<!-- Node36 -->
<g id="node37" class="node"><title>Node36</title>
<g id="a_node37"><a xlink:href="_choice__miniature_8h.html" target="_top" xlink:title="Choice_miniature.h">
<polygon fill="none" stroke="black" points="733,-448.5 733,-467.5 833,-467.5 833,-448.5 733,-448.5"/>
<text text-anchor="middle" x="783" y="-455.5" font-family="Helvetica,sans-Serif" font-size="10.00">Choice_miniature.h</text>
</a>
</g>
</g>
<!-- Node0&#45;&gt;Node36 -->
<g id="edge76" class="edge"><title>Node0&#45;&gt;Node36</title>
<path fill="none" stroke="midnightblue" d="M915.771,-560.286C905.597,-542.151 890.828,-519.738 873,-504 856.977,-489.856 835.714,-478.953 817.878,-471.424"/>
<polygon fill="midnightblue" stroke="midnightblue" points="818.961,-468.086 808.377,-467.589 816.341,-474.578 818.961,-468.086"/>
</g>
<!-- Node2 -->
<g id="node3" class="node"><title>Node2</title>
<polygon fill="none" stroke="#bfbfbf" points="0,-0.5 0,-19.5 104,-19.5 104,-0.5 0,-0.5"/>
<text text-anchor="middle" x="52" y="-7.5" font-family="Helvetica,sans-Serif" font-size="10.00">SFML/Graphics.hpp</text>
</g>
<!-- Node1&#45;&gt;Node2 -->
<g id="edge2" class="edge"><title>Node1&#45;&gt;Node2</title>
<path fill="none" stroke="midnightblue" d="M768.756,-62.8831C658.683,-54.9154 267.789,-26.6202 114.411,-15.5177"/>
<polygon fill="midnightblue" stroke="midnightblue" points="114.448,-12.0113 104.221,-14.7801 113.942,-18.993 114.448,-12.0113"/>
</g>
<!-- Node3 -->
<g id="node4" class="node"><title>Node3</title>
<polygon fill="none" stroke="#bfbfbf" points="919,-0.5 919,-19.5 1017,-19.5 1017,-0.5 919,-0.5"/>
<text text-anchor="middle" x="968" y="-7.5" font-family="Helvetica,sans-Serif" font-size="10.00">SFML/System.hpp</text>
</g>
<!-- Node1&#45;&gt;Node3 -->
<g id="edge3" class="edge"><title>Node1&#45;&gt;Node3</title>
<path fill="none" stroke="midnightblue" d="M824.937,-56.4435C853.66,-47.3196 899.329,-32.8133 931.321,-22.6509"/>
<polygon fill="midnightblue" stroke="midnightblue" points="932.718,-25.8797 941.189,-19.5164 930.599,-19.2081 932.718,-25.8797"/>
</g>
<!-- Node4 -->
<g id="node5" class="node"><title>Node4</title>
<polygon fill="none" stroke="#bfbfbf" points="631.5,-0.5 631.5,-19.5 730.5,-19.5 730.5,-0.5 631.5,-0.5"/>
<text text-anchor="middle" x="681" y="-7.5" font-family="Helvetica,sans-Serif" font-size="10.00">SFML/Window.hpp</text>
</g>
<!-- Node1&#45;&gt;Node4 -->
<g id="edge4" class="edge"><title>Node1&#45;&gt;Node4</title>
<path fill="none" stroke="midnightblue" d="M779.461,-56.4435C760.377,-47.6356 730.425,-33.8116 708.564,-23.722"/>
<polygon fill="midnightblue" stroke="midnightblue" points="709.999,-20.5292 699.452,-19.5164 707.065,-26.8849 709.999,-20.5292"/>
</g>
<!-- Node5 -->
<g id="node6" class="node"><title>Node5</title>
<polygon fill="none" stroke="#bfbfbf" points="748.5,-0.5 748.5,-19.5 837.5,-19.5 837.5,-0.5 748.5,-0.5"/>
<text text-anchor="middle" x="793" y="-7.5" font-family="Helvetica,sans-Serif" font-size="10.00">SFML/Audio.hpp</text>
</g>
<!-- Node1&#45;&gt;Node5 -->
<g id="edge5" class="edge"><title>Node1&#45;&gt;Node5</title>
<path fill="none" stroke="midnightblue" d="M797.174,-56.083C796.519,-49.0059 795.58,-38.8611 794.758,-29.9865"/>
<polygon fill="midnightblue" stroke="midnightblue" points="798.217,-29.3858 793.81,-19.7511 791.247,-30.0312 798.217,-29.3858"/>
</g>
<!-- Node6 -->
<g id="node7" class="node"><title>Node6</title>
<polygon fill="none" stroke="#bfbfbf" points="459,-0.5 459,-19.5 513,-19.5 513,-0.5 459,-0.5"/>
<text text-anchor="middle" x="486" y="-7.5" font-family="Helvetica,sans-Serif" font-size="10.00">iostream</text>
</g>
<!-- Node1&#45;&gt;Node6 -->
<g id="edge6" class="edge"><title>Node1&#45;&gt;Node6</title>
<path fill="none" stroke="midnightblue" d="M768.928,-59.9683C712.038,-50.1219 586.082,-28.3219 523.21,-17.4402"/>
<polygon fill="midnightblue" stroke="midnightblue" points="523.77,-13.9851 513.319,-15.7283 522.576,-20.8825 523.77,-13.9851"/>
</g>
<!-- Node7 -->
<g id="node8" class="node"><title>Node7</title>
<polygon fill="none" stroke="#bfbfbf" points="855.5,-0.5 855.5,-19.5 900.5,-19.5 900.5,-0.5 855.5,-0.5"/>
<text text-anchor="middle" x="878" y="-7.5" font-family="Helvetica,sans-Serif" font-size="10.00">cstdlib</text>
</g>
<!-- Node1&#45;&gt;Node7 -->
<g id="edge7" class="edge"><title>Node1&#45;&gt;Node7</title>
<path fill="none" stroke="midnightblue" d="M810.853,-56.324C823.216,-47.979 842.13,-35.2122 856.737,-25.3524"/>
<polygon fill="midnightblue" stroke="midnightblue" points="858.848,-28.1503 865.179,-19.6545 854.932,-22.3483 858.848,-28.1503"/>
</g>
<!-- Node8 -->
<g id="node9" class="node"><title>Node8</title>
<polygon fill="none" stroke="#bfbfbf" points="1107.5,-0.5 1107.5,-19.5 1148.5,-19.5 1148.5,-0.5 1107.5,-0.5"/>
<text text-anchor="middle" x="1128" y="-7.5" font-family="Helvetica,sans-Serif" font-size="10.00">string</text>
</g>
<!-- Node1&#45;&gt;Node8 -->
<g id="edge8" class="edge"><title>Node1&#45;&gt;Node8</title>
<path fill="none" stroke="midnightblue" d="M827.285,-60.2079C889.317,-50.0572 1033.46,-26.4703 1096.99,-16.0752"/>
<polygon fill="midnightblue" stroke="midnightblue" points="1097.87,-19.4777 1107.17,-14.4086 1096.74,-12.5696 1097.87,-19.4777"/>
</g>
<!-- Node1&#45;&gt;Node9 -->
<g id="edge9" class="edge"><title>Node1&#45;&gt;Node9</title>
<path fill="none" stroke="midnightblue" d="M827.158,-62.6735C898.678,-56.8361 1088.46,-40.5538 1246,-20 1252.89,-19.1013 1260.23,-18.0145 1267.26,-16.9114"/>
<polygon fill="midnightblue" stroke="midnightblue" points="1267.92,-20.3502 1277.24,-15.3037 1266.81,-13.4394 1267.92,-20.3502"/>
</g>
<!-- Node1&#45;&gt;Node10 -->
<g id="edge10" class="edge"><title>Node1&#45;&gt;Node10</title>
<path fill="none" stroke="midnightblue" d="M827.363,-61.6687C888.688,-54.6343 1034.81,-37.4712 1157,-20 1163.94,-19.0073 1171.36,-17.8704 1178.44,-16.7464"/>
<polygon fill="midnightblue" stroke="midnightblue" points="1179.18,-20.1729 1188.49,-15.127 1178.07,-13.262 1179.18,-20.1729"/>
</g>
<!-- Node11 -->
<g id="node12" class="node"><title>Node11</title>
<polygon fill="none" stroke="#bfbfbf" points="552.5,-0.5 552.5,-19.5 611.5,-19.5 611.5,-0.5 552.5,-0.5"/>
<text text-anchor="middle" x="582" y="-7.5" font-family="Helvetica,sans-Serif" font-size="10.00">stdexcept</text>
</g>
<!-- Node1&#45;&gt;Node11 -->
<g id="edge11" class="edge"><title>Node1&#45;&gt;Node11</title>
<path fill="none" stroke="midnightblue" d="M768.869,-57.7173C730.81,-48.2026 664.02,-31.505 621.45,-20.8626"/>
<polygon fill="midnightblue" stroke="midnightblue" points="622.257,-17.4565 611.706,-18.4266 620.559,-24.2475 622.257,-17.4565"/>
</g>
<!-- Node14 -->
<g id="node15" class="node"><title>Node14</title>
<g id="a_node15"><a xlink:href="_screen_8h.html" target="_top" xlink:title="Screen.h">
<polygon fill="none" stroke="black" points="376,-280.5 376,-299.5 432,-299.5 432,-280.5 376,-280.5"/>
<text text-anchor="middle" x="404" y="-287.5" font-family="Helvetica,sans-Serif" font-size="10.00">Screen.h</text>
</a>
</g>
</g>
<!-- Node13&#45;&gt;Node14 -->
<g id="edge14" class="edge"><title>Node13&#45;&gt;Node14</title>
<path fill="none" stroke="midnightblue" d="M564.347,-392.368C534.361,-373.412 462.528,-328.001 426.054,-304.942"/>
<polygon fill="midnightblue" stroke="midnightblue" points="427.913,-301.977 417.59,-299.591 424.172,-307.893 427.913,-301.977"/>
</g>
<!-- Node13&#45;&gt;Node15 -->
<g id="edge17" class="edge"><title>Node13&#45;&gt;Node15</title>
<path fill="none" stroke="midnightblue" d="M579.816,-392.083C581.274,-384.927 583.371,-374.635 585.193,-365.691"/>
<polygon fill="midnightblue" stroke="midnightblue" points="588.651,-366.248 587.217,-355.751 581.792,-364.851 588.651,-366.248"/>
</g>
<!-- Node14&#45;&gt;Node1 -->
<g id="edge16" class="edge"><title>Node14&#45;&gt;Node1</title>
<path fill="none" stroke="midnightblue" d="M410.44,-280.368C434.797,-247.953 521.888,-134.209 561,-112 623.77,-76.3578 709.445,-68.311 758.732,-66.8576"/>
<polygon fill="midnightblue" stroke="midnightblue" points="759.048,-70.3517 768.97,-66.6359 758.896,-63.3533 759.048,-70.3517"/>
</g>
<!-- Node14&#45;&gt;Node2 -->
<g id="edge15" class="edge"><title>Node14&#45;&gt;Node2</title>
<path fill="none" stroke="midnightblue" d="M375.789,-286.322C292.261,-277.62 52,-246.707 52,-179 52,-179 52,-179 52,-121 52,-88.948 52,-51.6426 52,-29.7489"/>
<polygon fill="midnightblue" stroke="midnightblue" points="55.5001,-29.5577 52,-19.5578 48.5001,-29.5578 55.5001,-29.5577"/>
</g>
<!-- Node15&#45;&gt;Node1 -->
<g id="edge18" class="edge"><title>Node15&#45;&gt;Node1</title>
<path fill="none" stroke="midnightblue" d="M600.351,-336.482C611.757,-327.748 629.655,-313.56 644,-300 662.402,-282.605 788.82,-155.6 798,-132 803.753,-117.21 803.186,-99.0555 801.506,-85.6952"/>
<polygon fill="midnightblue" stroke="midnightblue" points="804.957,-85.1147 799.947,-75.7795 798.042,-86.2017 804.957,-85.1147"/>
</g>
<!-- Node15&#45;&gt;Node14 -->
<g id="edge47" class="edge"><title>Node15&#45;&gt;Node14</title>
<path fill="none" stroke="midnightblue" d="M559.686,-336.444C527.879,-327.159 476.98,-312.302 442.095,-302.12"/>
<polygon fill="midnightblue" stroke="midnightblue" points="442.847,-298.693 432.267,-299.251 440.885,-305.413 442.847,-298.693"/>
</g>
<!-- Node16 -->
<g id="node17" class="node"><title>Node16</title>
<g id="a_node17"><a xlink:href="_board_8h.html" target="_top" xlink:title="Board.h">
<polygon fill="none" stroke="black" points="564,-280.5 564,-299.5 614,-299.5 614,-280.5 564,-280.5"/>
<text text-anchor="middle" x="589" y="-287.5" font-family="Helvetica,sans-Serif" font-size="10.00">Board.h</text>
</a>
</g>
</g>
<!-- Node15&#45;&gt;Node16 -->
<g id="edge19" class="edge"><title>Node15&#45;&gt;Node16</title>
<path fill="none" stroke="midnightblue" d="M589,-336.083C589,-329.006 589,-318.861 589,-309.986"/>
<polygon fill="midnightblue" stroke="midnightblue" points="592.5,-309.751 589,-299.751 585.5,-309.751 592.5,-309.751"/>
</g>
<!-- Node19 -->
<g id="node20" class="node"><title>Node19</title>
<g id="a_node20"><a xlink:href="_goban_8h.html" target="_top" xlink:title="../../Engine/Goban.h">
<polygon fill="none" stroke="black" points="342,-168.5 342,-187.5 446,-187.5 446,-168.5 342,-168.5"/>
<text text-anchor="middle" x="394" y="-175.5" font-family="Helvetica,sans-Serif" font-size="10.00">../../Engine/Goban.h</text>
</a>
</g>
</g>
<!-- Node15&#45;&gt;Node19 -->
<g id="edge48" class="edge"><title>Node15&#45;&gt;Node19</title>
<path fill="none" stroke="midnightblue" d="M578.791,-336.309C547.331,-309.528 451.601,-228.035 411.726,-194.09"/>
<polygon fill="midnightblue" stroke="midnightblue" points="413.992,-191.422 404.108,-187.605 409.454,-196.752 413.992,-191.422"/>
</g>
<!-- Node24 -->
<g id="node25" class="node"><title>Node24</title>
<g id="a_node25"><a xlink:href="_arbre_8h.html" target="_top" xlink:title="../../Engine/Arbre.h">
<polygon fill="none" stroke="black" points="327.5,-224.5 327.5,-243.5 426.5,-243.5 426.5,-224.5 327.5,-224.5"/>
<text text-anchor="middle" x="377" y="-231.5" font-family="Helvetica,sans-Serif" font-size="10.00">../../Engine/Arbre.h</text>
</a>
</g>
</g>
<!-- Node15&#45;&gt;Node24 -->
<g id="edge46" class="edge"><title>Node15&#45;&gt;Node24</title>
<path fill="none" stroke="midnightblue" d="M566.457,-336.41C544.904,-327.948 511.685,-314.251 484,-300 453.362,-284.228 419.635,-263.062 398.395,-249.232"/>
<polygon fill="midnightblue" stroke="midnightblue" points="400.117,-246.176 389.836,-243.615 396.276,-252.028 400.117,-246.176"/>
</g>
<!-- Node25 -->
<g id="node26" class="node"><title>Node25</title>
<g id="a_node26"><a xlink:href="_infos_8h.html" target="_top" xlink:title="Infos.h">
<polygon fill="none" stroke="black" points="673.5,-168.5 673.5,-187.5 718.5,-187.5 718.5,-168.5 673.5,-168.5"/>
<text text-anchor="middle" x="696" y="-175.5" font-family="Helvetica,sans-Serif" font-size="10.00">Infos.h</text>
</a>
</g>
</g>
<!-- Node15&#45;&gt;Node25 -->
<g id="edge41" class="edge"><title>Node15&#45;&gt;Node25</title>
<path fill="none" stroke="midnightblue" d="M595.976,-336.182C602.995,-327.214 614.035,-312.848 623,-300 639.93,-275.734 643.676,-269.311 659,-244 668.539,-228.244 678.866,-209.993 686.18,-196.849"/>
<polygon fill="midnightblue" stroke="midnightblue" points="689.342,-198.363 691.122,-187.919 683.218,-194.974 689.342,-198.363"/>
</g>
<!-- Node16&#45;&gt;Node1 -->
<g id="edge20" class="edge"><title>Node16&#45;&gt;Node1</title>
<path fill="none" stroke="midnightblue" d="M592.739,-280.301C605.287,-252.062 648.644,-161.906 711,-112 727.803,-98.5518 749.256,-87.402 766.654,-79.565"/>
<polygon fill="midnightblue" stroke="midnightblue" points="768.079,-82.7623 775.847,-75.5584 765.282,-76.3452 768.079,-82.7623"/>
</g>
<!-- Node17 -->
<g id="node18" class="node"><title>Node17</title>
<g id="a_node18"><a xlink:href="_square_8h.html" target="_top" xlink:title="Square.h">
<polygon fill="none" stroke="black" points="570,-112.5 570,-131.5 626,-131.5 626,-112.5 570,-112.5"/>
<text text-anchor="middle" x="598" y="-119.5" font-family="Helvetica,sans-Serif" font-size="10.00">Square.h</text>
</a>
</g>
</g>
<!-- Node16&#45;&gt;Node17 -->
<g id="edge21" class="edge"><title>Node16&#45;&gt;Node17</title>
<path fill="none" stroke="midnightblue" d="M589.484,-280.075C590.901,-253.945 595.061,-177.211 596.993,-141.577"/>
<polygon fill="midnightblue" stroke="midnightblue" points="600.489,-141.743 597.535,-131.568 593.499,-141.364 600.489,-141.743"/>
</g>
<!-- Node16&#45;&gt;Node19 -->
<g id="edge25" class="edge"><title>Node16&#45;&gt;Node19</title>
<path fill="none" stroke="midnightblue" d="M573.699,-280.368C539.881,-261.292 458.567,-215.422 417.941,-192.505"/>
<polygon fill="midnightblue" stroke="midnightblue" points="419.66,-189.456 409.23,-187.591 416.22,-195.553 419.66,-189.456"/>
</g>
<!-- Node16&#45;&gt;Node24 -->
<g id="edge37" class="edge"><title>Node16&#45;&gt;Node24</title>
<path fill="none" stroke="midnightblue" d="M563.848,-282.593C528.512,-273.593 463.664,-257.075 420.436,-246.064"/>
<polygon fill="midnightblue" stroke="midnightblue" points="421.037,-242.605 410.482,-243.529 419.309,-249.389 421.037,-242.605"/>
</g>
<!-- Node17&#45;&gt;Node1 -->
<g id="edge22" class="edge"><title>Node17&#45;&gt;Node1</title>
<path fill="none" stroke="midnightblue" d="M626.231,-113.378C660.925,-104.01 719.978,-88.0659 758.992,-77.5322"/>
<polygon fill="midnightblue" stroke="midnightblue" points="760.197,-80.8322 768.939,-74.8464 758.373,-74.0742 760.197,-80.8322"/>
</g>
<!-- Node18 -->
<g id="node19" class="node"><title>Node18</title>
<g id="a_node19"><a xlink:href="_etat_8h.html" target="_top" xlink:title="../../Engine/Etat.h">
<polygon fill="none" stroke="black" points="419,-56.5 419,-75.5 513,-75.5 513,-56.5 419,-56.5"/>
<text text-anchor="middle" x="466" y="-63.5" font-family="Helvetica,sans-Serif" font-size="10.00">../../Engine/Etat.h</text>
</a>
</g>
</g>
<!-- Node17&#45;&gt;Node18 -->
<g id="edge23" class="edge"><title>Node17&#45;&gt;Node18</title>
<path fill="none" stroke="midnightblue" d="M577.084,-112.444C555.264,-103.517 520.85,-89.4387 496.108,-79.3168"/>
<polygon fill="midnightblue" stroke="midnightblue" points="497.399,-76.0634 486.818,-75.5164 494.748,-82.5422 497.399,-76.0634"/>
</g>
<!-- Node18&#45;&gt;Node6 -->
<g id="edge24" class="edge"><title>Node18&#45;&gt;Node6</title>
<path fill="none" stroke="midnightblue" d="M469.303,-56.083C471.982,-48.8486 475.849,-38.4087 479.186,-29.3968"/>
<polygon fill="midnightblue" stroke="midnightblue" points="482.568,-30.3442 482.759,-19.7511 476.004,-27.9129 482.568,-30.3442"/>
</g>
<!-- Node19&#45;&gt;Node6 -->
<g id="edge26" class="edge"><title>Node19&#45;&gt;Node6</title>
<path fill="none" stroke="midnightblue" d="M341.823,-171.17C296.237,-163.653 240.327,-147.1 261,-112 300.113,-45.5906 395.46,-22.6366 448.625,-14.8606"/>
<polygon fill="midnightblue" stroke="midnightblue" points="449.227,-18.311 458.666,-13.4994 448.287,-11.3745 449.227,-18.311"/>
</g>
<!-- Node19&#45;&gt;Node11 -->
<g id="edge36" class="edge"><title>Node19&#45;&gt;Node11</title>
<path fill="none" stroke="midnightblue" d="M406.155,-168.402C429.513,-151.67 481.903,-113.108 522,-76 538.643,-60.5977 556.048,-41.3389 567.799,-27.7963"/>
<polygon fill="midnightblue" stroke="midnightblue" points="570.786,-29.6895 574.64,-19.8203 565.473,-25.1322 570.786,-29.6895"/>
</g>
<!-- Node19&#45;&gt;Node18 -->
<g id="edge28" class="edge"><title>Node19&#45;&gt;Node18</title>
<path fill="none" stroke="midnightblue" d="M386.876,-168.43C376.985,-155.425 361.534,-130.286 373,-112 382.877,-96.2481 400.003,-85.8746 416.888,-79.1065"/>
<polygon fill="midnightblue" stroke="midnightblue" points="418.542,-82.2295 426.745,-75.5247 416.151,-75.6504 418.542,-82.2295"/>
</g>
<!-- Node20 -->
<g id="node21" class="node"><title>Node20</title>
<polygon fill="none" stroke="#bfbfbf" points="159,-56.5 159,-75.5 201,-75.5 201,-56.5 159,-56.5"/>
<text text-anchor="middle" x="180" y="-63.5" font-family="Helvetica,sans-Serif" font-size="10.00">vector</text>
</g>
<!-- Node19&#45;&gt;Node20 -->
<g id="edge27" class="edge"><title>Node19&#45;&gt;Node20</title>
<path fill="none" stroke="midnightblue" d="M341.63,-171.836C306.936,-166.353 261.769,-155.089 228,-132 210.499,-120.034 196.934,-99.5442 188.756,-84.764"/>
<polygon fill="midnightblue" stroke="midnightblue" points="191.709,-82.8579 183.973,-75.6187 185.506,-86.102 191.709,-82.8579"/>
</g>
<!-- Node21 -->
<g id="node22" class="node"><title>Node21</title>
<g id="a_node22"><a xlink:href="_groupe_8h.html" target="_top" xlink:title="Groupe.h">
<polygon fill="none" stroke="black" points="270,-112.5 270,-131.5 326,-131.5 326,-112.5 270,-112.5"/>
<text text-anchor="middle" x="298" y="-119.5" font-family="Helvetica,sans-Serif" font-size="10.00">Groupe.h</text>
</a>
</g>
</g>
<!-- Node19&#45;&gt;Node21 -->
<g id="edge29" class="edge"><title>Node19&#45;&gt;Node21</title>
<path fill="none" stroke="midnightblue" d="M378.576,-168.324C363.46,-159.822 340.185,-146.729 322.529,-136.797"/>
<polygon fill="midnightblue" stroke="midnightblue" points="323.817,-133.507 313.386,-131.655 320.386,-139.608 323.817,-133.507"/>
</g>
<!-- Node22 -->
<g id="node23" class="node"><title>Node22</title>
<g id="a_node23"><a xlink:href="_history_8h.html" target="_top" xlink:title="History.h">
<polygon fill="none" stroke="black" points="382,-112.5 382,-131.5 438,-131.5 438,-112.5 382,-112.5"/>
<text text-anchor="middle" x="410" y="-119.5" font-family="Helvetica,sans-Serif" font-size="10.00">History.h</text>
</a>
</g>
</g>
<!-- Node19&#45;&gt;Node22 -->
<g id="edge32" class="edge"><title>Node19&#45;&gt;Node22</title>
<path fill="none" stroke="midnightblue" d="M396.642,-168.083C398.786,-160.849 401.879,-150.409 404.549,-141.397"/>
<polygon fill="midnightblue" stroke="midnightblue" points="407.922,-142.333 407.407,-131.751 401.21,-140.345 407.922,-142.333"/>
</g>
<!-- Node21&#45;&gt;Node18 -->
<g id="edge31" class="edge"><title>Node21&#45;&gt;Node18</title>
<path fill="none" stroke="midnightblue" d="M324.62,-112.444C353.006,-103.32 398.137,-88.8133 429.753,-78.6509"/>
<polygon fill="midnightblue" stroke="midnightblue" points="431.055,-81.9087 439.504,-75.5164 428.913,-75.2445 431.055,-81.9087"/>
</g>
<!-- Node21&#45;&gt;Node20 -->
<g id="edge30" class="edge"><title>Node21&#45;&gt;Node20</title>
<path fill="none" stroke="midnightblue" d="M279.303,-112.444C260.056,-103.636 229.848,-89.8116 207.8,-79.722"/>
<polygon fill="midnightblue" stroke="midnightblue" points="209.16,-76.4951 198.61,-75.5164 206.247,-82.8603 209.16,-76.4951"/>
</g>
<!-- Node22&#45;&gt;Node1 -->
<g id="edge33" class="edge"><title>Node22&#45;&gt;Node1</title>
<path fill="none" stroke="midnightblue" d="M438.217,-117.073C506.476,-107.573 680.647,-83.3326 758.895,-72.4424"/>
<polygon fill="midnightblue" stroke="midnightblue" points="759.414,-75.904 768.836,-71.0589 758.449,-68.9708 759.414,-75.904"/>
</g>
<!-- Node22&#45;&gt;Node18 -->
<g id="edge34" class="edge"><title>Node22&#45;&gt;Node18</title>
<path fill="none" stroke="midnightblue" d="M418.997,-112.324C427.194,-104.42 439.506,-92.5482 449.472,-82.9377"/>
<polygon fill="midnightblue" stroke="midnightblue" points="452.07,-85.2947 456.839,-75.8339 447.211,-80.2558 452.07,-85.2947"/>
</g>
<!-- Node23 -->
<g id="node24" class="node"><title>Node23</title>
<polygon fill="none" stroke="#bfbfbf" points="371.5,-56.5 371.5,-75.5 400.5,-75.5 400.5,-56.5 371.5,-56.5"/>
<text text-anchor="middle" x="386" y="-63.5" font-family="Helvetica,sans-Serif" font-size="10.00">list</text>
</g>
<!-- Node22&#45;&gt;Node23 -->
<g id="edge35" class="edge"><title>Node22&#45;&gt;Node23</title>
<path fill="none" stroke="midnightblue" d="M406.037,-112.083C402.787,-104.77 398.081,-94.1814 394.046,-85.1034"/>
<polygon fill="midnightblue" stroke="midnightblue" points="397.149,-83.4677 389.889,-75.7511 390.752,-86.3107 397.149,-83.4677"/>
</g>
<!-- Node24&#45;&gt;Node6 -->
<g id="edge39" class="edge"><title>Node24&#45;&gt;Node6</title>
<path fill="none" stroke="midnightblue" d="M332.182,-224.43C304.103,-217.625 268.052,-206.168 240,-188 180.402,-149.401 103.243,-109.437 150,-56 188.528,-11.9683 369.882,-9.18778 448.97,-10.1422"/>
<polygon fill="midnightblue" stroke="midnightblue" points="448.931,-13.6419 458.982,-10.2899 449.035,-6.64266 448.931,-13.6419"/>
</g>
<!-- Node24&#45;&gt;Node19 -->
<g id="edge38" class="edge"><title>Node24&#45;&gt;Node19</title>
<path fill="none" stroke="midnightblue" d="M379.807,-224.083C382.085,-216.849 385.371,-206.409 388.208,-197.397"/>
<polygon fill="midnightblue" stroke="midnightblue" points="391.581,-198.341 391.245,-187.751 384.904,-196.239 391.581,-198.341"/>
</g>
<!-- Node24&#45;&gt;Node20 -->
<g id="edge40" class="edge"><title>Node24&#45;&gt;Node20</title>
<path fill="none" stroke="midnightblue" d="M351.572,-224.491C314.188,-210.747 244.458,-180.226 204,-132 192.775,-118.62 186.563,-99.5095 183.288,-85.4722"/>
<polygon fill="midnightblue" stroke="midnightblue" points="186.683,-84.6053 181.252,-75.5087 179.825,-86.007 186.683,-84.6053"/>
</g>
<!-- Node25&#45;&gt;Node1 -->
<g id="edge42" class="edge"><title>Node25&#45;&gt;Node1</title>
<path fill="none" stroke="midnightblue" d="M718.62,-169.956C737.106,-163.088 762.614,-150.884 778,-132 788.828,-118.711 793.807,-99.5882 796.089,-85.5233"/>
<polygon fill="midnightblue" stroke="midnightblue" points="799.568,-85.9067 797.4,-75.536 792.628,-84.9951 799.568,-85.9067"/>
</g>
<!-- Node25&#45;&gt;Node17 -->
<g id="edge43" class="edge"><title>Node25&#45;&gt;Node17</title>
<path fill="none" stroke="midnightblue" d="M680.255,-168.324C664.681,-159.743 640.623,-146.486 622.541,-136.522"/>
<polygon fill="midnightblue" stroke="midnightblue" points="624.154,-133.415 613.706,-131.655 620.776,-139.546 624.154,-133.415"/>
</g>
<!-- Node26 -->
<g id="node27" class="node"><title>Node26</title>
<g id="a_node27"><a xlink:href="_timer_8h.html" target="_top" xlink:title="Timer.h">
<polygon fill="none" stroke="black" points="720.5,-112.5 720.5,-131.5 769.5,-131.5 769.5,-112.5 720.5,-112.5"/>
<text text-anchor="middle" x="745" y="-119.5" font-family="Helvetica,sans-Serif" font-size="10.00">Timer.h</text>
</a>
</g>
</g>
<!-- Node25&#45;&gt;Node26 -->
<g id="edge44" class="edge"><title>Node25&#45;&gt;Node26</title>
<path fill="none" stroke="midnightblue" d="M704.091,-168.083C711.155,-160.298 721.588,-148.801 730.149,-139.367"/>
<polygon fill="midnightblue" stroke="midnightblue" points="732.931,-141.509 737.059,-131.751 727.747,-136.805 732.931,-141.509"/>
</g>
<!-- Node26&#45;&gt;Node1 -->
<g id="edge45" class="edge"><title>Node26&#45;&gt;Node1</title>
<path fill="none" stroke="midnightblue" d="M753.752,-112.083C761.47,-104.22 772.905,-92.5688 782.217,-83.0813"/>
<polygon fill="midnightblue" stroke="midnightblue" points="784.904,-85.3396 789.411,-75.7511 779.908,-80.4363 784.904,-85.3396"/>
</g>
<!-- Node27&#45;&gt;Node1 -->
<g id="edge55" class="edge"><title>Node27&#45;&gt;Node1</title>
<path fill="none" stroke="midnightblue" d="M1060.96,-224.37C1046.91,-216.272 1026.53,-203.159 1012,-188 984.353,-159.161 996.137,-135.733 964,-112 926.617,-84.3924 873.333,-73.7207 837.299,-69.5965"/>
<polygon fill="midnightblue" stroke="midnightblue" points="837.47,-66.0956 827.165,-68.5565 836.755,-73.0591 837.47,-66.0956"/>
</g>
<!-- Node27&#45;&gt;Node6 -->
<g id="edge50" class="edge"><title>Node27&#45;&gt;Node6</title>
<path fill="none" stroke="midnightblue" d="M1070.78,-224.259C1051.48,-197.167 993.549,-116.173 988,-112 826.59,9.38642 743,-48.0678 543,-20 536.619,-19.1046 529.847,-18.091 523.283,-17.0752"/>
<polygon fill="midnightblue" stroke="midnightblue" points="523.648,-13.5896 513.225,-15.4938 522.56,-20.5046 523.648,-13.5896"/>
</g>
<!-- Node27&#45;&gt;Node8 -->
<g id="edge56" class="edge"><title>Node27&#45;&gt;Node8</title>
<path fill="none" stroke="midnightblue" d="M1085.12,-224.491C1092.7,-215.984 1103.63,-202.162 1109,-188 1129.69,-133.458 1130.2,-63.1263 1129.04,-29.9365"/>
<polygon fill="midnightblue" stroke="midnightblue" points="1132.53,-29.6672 1128.59,-19.8327 1125.54,-29.9784 1132.53,-29.6672"/>
</g>
<!-- Node27&#45;&gt;Node9 -->
<g id="edge51" class="edge"><title>Node27&#45;&gt;Node9</title>
<path fill="none" stroke="midnightblue" d="M1124.23,-224.442C1150.41,-217.869 1182.34,-206.648 1206,-188 1259.49,-145.834 1287.17,-65.3199 1297.34,-29.2583"/>
<polygon fill="midnightblue" stroke="midnightblue" points="1300.72,-30.1516 1299.94,-19.5856 1293.96,-28.3321 1300.72,-30.1516"/>
</g>
<!-- Node27&#45;&gt;Node18 -->
<g id="edge53" class="edge"><title>Node27&#45;&gt;Node18</title>
<path fill="none" stroke="midnightblue" d="M1029.34,-233.732C951.177,-233.634 791.688,-227.955 664,-188 590.59,-165.029 516.54,-109.013 483.642,-82.0231"/>
<polygon fill="midnightblue" stroke="midnightblue" points="485.763,-79.2349 475.838,-75.5273 481.285,-84.615 485.763,-79.2349"/>
</g>
<!-- Node27&#45;&gt;Node19 -->
<g id="edge54" class="edge"><title>Node27&#45;&gt;Node19</title>
<path fill="none" stroke="midnightblue" d="M1029.24,-229.224C908.579,-219.684 591.469,-194.613 456.383,-183.932"/>
<polygon fill="midnightblue" stroke="midnightblue" points="456.448,-180.426 446.203,-183.127 455.896,-187.405 456.448,-180.426"/>
</g>
<!-- Node28 -->
<g id="node29" class="node"><title>Node28</title>
<polygon fill="none" stroke="#bfbfbf" points="1054,-168.5 1054,-187.5 1100,-187.5 1100,-168.5 1054,-168.5"/>
<text text-anchor="middle" x="1077" y="-175.5" font-family="Helvetica,sans-Serif" font-size="10.00">stdio.h</text>
</g>
<!-- Node27&#45;&gt;Node28 -->
<g id="edge52" class="edge"><title>Node27&#45;&gt;Node28</title>
<path fill="none" stroke="midnightblue" d="M1077,-224.083C1077,-217.006 1077,-206.861 1077,-197.986"/>
<polygon fill="midnightblue" stroke="midnightblue" points="1080.5,-197.751 1077,-187.751 1073.5,-197.751 1080.5,-197.751"/>
</g>
<!-- Node29 -->
<g id="node30" class="node"><title>Node29</title>
<polygon fill="none" stroke="#bfbfbf" points="1156.5,-168.5 1156.5,-187.5 1197.5,-187.5 1197.5,-168.5 1156.5,-168.5"/>
<text text-anchor="middle" x="1177" y="-175.5" font-family="Helvetica,sans-Serif" font-size="10.00">regex</text>
</g>
<!-- Node27&#45;&gt;Node29 -->
<g id="edge57" class="edge"><title>Node27&#45;&gt;Node29</title>
<path fill="none" stroke="midnightblue" d="M1093.07,-224.324C1108.96,-215.743 1133.51,-202.486 1151.96,-192.522"/>
<polygon fill="midnightblue" stroke="midnightblue" points="1153.84,-195.486 1160.97,-187.655 1150.51,-189.326 1153.84,-195.486"/>
</g>
<!-- Node31 -->
<g id="node32" class="node"><title>Node31</title>
<g id="a_node32"><a xlink:href="_menu_8h.html" target="_top" xlink:title="Menu.h">
<polygon fill="none" stroke="black" points="665.5,-448.5 665.5,-467.5 714.5,-467.5 714.5,-448.5 665.5,-448.5"/>
<text text-anchor="middle" x="690" y="-455.5" font-family="Helvetica,sans-Serif" font-size="10.00">Menu.h</text>
</a>
</g>
</g>
<!-- Node30&#45;&gt;Node31 -->
<g id="edge59" class="edge"><title>Node30&#45;&gt;Node31</title>
<path fill="none" stroke="midnightblue" d="M801.926,-504.444C779.94,-495.517 745.266,-481.439 720.336,-471.317"/>
<polygon fill="midnightblue" stroke="midnightblue" points="721.558,-468.035 710.976,-467.516 718.924,-474.521 721.558,-468.035"/>
</g>
<!-- Node30&#45;&gt;Node34 -->
<g id="edge70" class="edge"><title>Node30&#45;&gt;Node34</title>
<path fill="none" stroke="midnightblue" d="M834.729,-504.324C845.837,-496.107 862.742,-483.602 875.983,-473.807"/>
<polygon fill="midnightblue" stroke="midnightblue" points="878.1,-476.595 884.058,-467.834 873.937,-470.967 878.1,-476.595"/>
</g>
<!-- Node31&#45;&gt;Node1 -->
<g id="edge67" class="edge"><title>Node31&#45;&gt;Node1</title>
<path fill="none" stroke="midnightblue" d="M694.733,-448.307C714.49,-411.454 790.5,-263.951 815,-132 817.991,-115.892 812.583,-97.8938 807.091,-84.9277"/>
<polygon fill="midnightblue" stroke="midnightblue" points="810.212,-83.3383 802.828,-75.7404 803.863,-86.2846 810.212,-83.3383"/>
</g>
<!-- Node31&#45;&gt;Node2 -->
<g id="edge69" class="edge"><title>Node31&#45;&gt;Node2</title>
<path fill="none" stroke="midnightblue" d="M665.295,-457.132C591.582,-457.028 367.146,-453.101 187,-412 106.921,-393.73 14,-429.137 14,-347 14,-347 14,-347 14,-121 14,-86.8131 30.6005,-49.7639 41.8573,-28.5707"/>
<polygon fill="midnightblue" stroke="midnightblue" points="44.9473,-30.2151 46.7163,-19.769 38.8191,-26.832 44.9473,-30.2151"/>
</g>
<!-- Node31&#45;&gt;Node14 -->
<g id="edge60" class="edge"><title>Node31&#45;&gt;Node14</title>
<path fill="none" stroke="midnightblue" d="M665.364,-452.968C634.256,-447.163 579.759,-434.582 538,-412 486.971,-384.405 439.688,-333.467 417.406,-307.361"/>
<polygon fill="midnightblue" stroke="midnightblue" points="419.946,-304.943 410.838,-299.529 414.582,-309.441 419.946,-304.943"/>
</g>
<!-- Node31&#45;&gt;Node20 -->
<g id="edge68" class="edge"><title>Node31&#45;&gt;Node20</title>
<path fill="none" stroke="midnightblue" d="M665.361,-455.143C552.456,-446.311 90,-406.504 90,-347 90,-347 90,-347 90,-233 90,-171.535 138.276,-111.061 164.114,-83.096"/>
<polygon fill="midnightblue" stroke="midnightblue" points="166.697,-85.4584 171.041,-75.7952 161.619,-80.6401 166.697,-85.4584"/>
</g>
<!-- Node32 -->
<g id="node33" class="node"><title>Node32</title>
<g id="a_node33"><a xlink:href="_choice_8h.html" target="_top" xlink:title="Choice.h">
<polygon fill="none" stroke="black" points="826.5,-392.5 826.5,-411.5 881.5,-411.5 881.5,-392.5 826.5,-392.5"/>
<text text-anchor="middle" x="854" y="-399.5" font-family="Helvetica,sans-Serif" font-size="10.00">Choice.h</text>
</a>
</g>
</g>
<!-- Node31&#45;&gt;Node32 -->
<g id="edge61" class="edge"><title>Node31&#45;&gt;Node32</title>
<path fill="none" stroke="midnightblue" d="M714.552,-448.916C742.047,-439.862 786.859,-425.107 818.243,-414.773"/>
<polygon fill="midnightblue" stroke="midnightblue" points="819.519,-418.039 827.922,-411.587 817.329,-411.39 819.519,-418.039"/>
</g>
<!-- Node32&#45;&gt;Node1 -->
<g id="edge62" class="edge"><title>Node32&#45;&gt;Node1</title>
<path fill="none" stroke="midnightblue" d="M872.389,-392.471C886.101,-384.997 903.815,-372.71 912,-356 935.656,-307.705 912,-288.778 912,-235 912,-235 912,-235 912,-177 912,-146.205 908.546,-134.939 888,-112 874.331,-96.7385 854.296,-86.0158 836.598,-78.8763"/>
<polygon fill="midnightblue" stroke="midnightblue" points="837.653,-75.5334 827.062,-75.2724 835.179,-82.0815 837.653,-75.5334"/>
</g>
<!-- Node32&#45;&gt;Node6 -->
<g id="edge65" class="edge"><title>Node32&#45;&gt;Node6</title>
<path fill="none" stroke="midnightblue" d="M849.951,-392.263C832.359,-354.525 761.872,-205.717 727,-168 663.412,-99.2239 563.62,-46.9448 514.818,-23.912"/>
<polygon fill="midnightblue" stroke="midnightblue" points="516.03,-20.6155 505.486,-19.5722 513.078,-26.9627 516.03,-20.6155"/>
</g>
<!-- Node32&#45;&gt;Node8 -->
<g id="edge63" class="edge"><title>Node32&#45;&gt;Node8</title>
<path fill="none" stroke="midnightblue" d="M881.589,-394.9C952.647,-377.471 1140.91,-319.964 1206,-188 1234.77,-129.667 1175.35,-58.2798 1144.73,-26.9853"/>
<polygon fill="midnightblue" stroke="midnightblue" points="1146.85,-24.1603 1137.29,-19.5941 1141.91,-29.1256 1146.85,-24.1603"/>
</g>
<!-- Node32&#45;&gt;Node15 -->
<g id="edge66" class="edge"><title>Node32&#45;&gt;Node15</title>
<path fill="none" stroke="midnightblue" d="M826.141,-395.323C782.231,-386.375 696.226,-368.85 640.749,-357.545"/>
<polygon fill="midnightblue" stroke="midnightblue" points="641.26,-354.077 630.763,-355.51 639.863,-360.936 641.26,-354.077"/>
</g>
<!-- Node33 -->
<g id="node34" class="node"><title>Node33</title>
<polygon fill="none" stroke="#bfbfbf" points="845,-336.5 845,-355.5 903,-355.5 903,-336.5 845,-336.5"/>
<text text-anchor="middle" x="874" y="-343.5" font-family="Helvetica,sans-Serif" font-size="10.00">functional</text>
</g>
<!-- Node32&#45;&gt;Node33 -->
<g id="edge64" class="edge"><title>Node32&#45;&gt;Node33</title>
<path fill="none" stroke="midnightblue" d="M857.303,-392.083C859.982,-384.849 863.849,-374.409 867.186,-365.397"/>
<polygon fill="midnightblue" stroke="midnightblue" points="870.568,-366.344 870.759,-355.751 864.004,-363.913 870.568,-366.344"/>
</g>
<!-- Node34&#45;&gt;Node32 -->
<g id="edge71" class="edge"><title>Node34&#45;&gt;Node32</title>
<path fill="none" stroke="midnightblue" d="M889.065,-448.083C883.071,-440.377 874.248,-429.033 866.952,-419.653"/>
<polygon fill="midnightblue" stroke="midnightblue" points="869.709,-417.496 860.806,-411.751 864.183,-421.793 869.709,-417.496"/>
</g>
<!-- Node35&#45;&gt;Node31 -->
<g id="edge73" class="edge"><title>Node35&#45;&gt;Node31</title>
<path fill="none" stroke="midnightblue" d="M711.707,-504.083C708.148,-496.691 702.978,-485.953 698.576,-476.811"/>
<polygon fill="midnightblue" stroke="midnightblue" points="701.705,-475.243 694.213,-467.751 695.398,-478.279 701.705,-475.243"/>
</g>
<!-- Node35&#45;&gt;Node36 -->
<g id="edge74" class="edge"><title>Node35&#45;&gt;Node36</title>
<path fill="none" stroke="midnightblue" d="M726.765,-504.324C736.766,-496.263 751.887,-484.077 763.93,-474.369"/>
<polygon fill="midnightblue" stroke="midnightblue" points="766.45,-476.834 772.039,-467.834 762.057,-471.384 766.45,-476.834"/>
</g>
<!-- Node36&#45;&gt;Node32 -->
<g id="edge75" class="edge"><title>Node36&#45;&gt;Node32</title>
<path fill="none" stroke="midnightblue" d="M794.407,-448.324C805.109,-440.185 821.341,-427.839 834.163,-418.087"/>
<polygon fill="midnightblue" stroke="midnightblue" points="836.544,-420.673 842.385,-411.834 832.307,-415.102 836.544,-420.673"/>
</g>
</g>
</svg>
