<?xml version="1.0" encoding="UTF-8" standalone="no"?>
<!DOCTYPE svg PUBLIC "-//W3C//DTD SVG 1.1//EN"
 "http://www.w3.org/Graphics/SVG/1.1/DTD/svg11.dtd">
<!-- Generated by graphviz version 2.38.0 (20140413.2041)
 -->
<!-- Title: main Pages: 1 -->
<svg width="616pt" height="284pt"
 viewBox="0.00 0.00 616.00 284.00" xmlns="http://www.w3.org/2000/svg" xmlns:xlink="http://www.w3.org/1999/xlink">
<g id="graph0" class="graph" transform="scale(1 1) rotate(0) translate(4 280)">
<title>main</title>
<!-- Node83 -->
<g id="node1" class="node"><title>Node83</title>
<polygon fill="#bfbfbf" stroke="black" points="0,-114.5 0,-133.5 38,-133.5 38,-114.5 0,-114.5"/>
<text text-anchor="middle" x="19" y="-121.5" font-family="Helvetica,sans-Serif" font-size="10.00">main</text>
</g>
<!-- Node84 -->
<g id="node2" class="node"><title>Node84</title>
<g id="a_node2"><a xlink:href="_main_8cpp.html#a38bed9713fcae949ee78e6bc604db8fe" target="_top" xlink:title="loadMenu">
<polygon fill="none" stroke="black" points="87.5,-114.5 87.5,-133.5 146.5,-133.5 146.5,-114.5 87.5,-114.5"/>
<text text-anchor="middle" x="117" y="-121.5" font-family="Helvetica,sans-Serif" font-size="10.00">loadMenu</text>
</a>
</g>
</g>
<!-- Node83&#45;&gt;Node84 -->
<g id="edge1" class="edge"><title>Node83&#45;&gt;Node84</title>
<path fill="none" stroke="midnightblue" d="M38.0569,-124C49.137,-124 63.7613,-124 77.3465,-124"/>
<polygon fill="midnightblue" stroke="midnightblue" points="77.4568,-127.5 87.4568,-124 77.4567,-120.5 77.4568,-127.5"/>
</g>
<!-- Node90 -->
<g id="node8" class="node"><title>Node90</title>
<g id="a_node8"><a xlink:href="_main_8cpp.html#ad43822cd5cf43d5891d7dbdd6fdb1802" target="_top" xlink:title="log_file">
<polygon fill="none" stroke="black" points="350,-152.5 350,-171.5 397,-171.5 397,-152.5 350,-152.5"/>
<text text-anchor="middle" x="373.5" y="-159.5" font-family="Helvetica,sans-Serif" font-size="10.00">log_file</text>
</a>
</g>
</g>
<!-- Node83&#45;&gt;Node90 -->
<g id="edge33" class="edge"><title>Node83&#45;&gt;Node90</title>
<path fill="none" stroke="midnightblue" d="M38.4374,-130.674C48.8467,-134.395 62.1139,-139.059 74,-143 127.906,-160.872 139.854,-172.458 196,-181 224.121,-185.278 231.655,-183.377 260,-181 287.094,-178.728 317.475,-173.43 339.83,-169.005"/>
<polygon fill="midnightblue" stroke="midnightblue" points="340.697,-172.4 349.803,-166.983 339.307,-165.54 340.697,-172.4"/>
</g>
<!-- Node98 -->
<g id="node16" class="node"><title>Node98</title>
<g id="a_node16"><a xlink:href="_main_8cpp.html#acf8398f20066f90da960ab94e728cc6c" target="_top" xlink:title="renderingThread">
<polygon fill="none" stroke="black" points="74,-76.5 74,-95.5 160,-95.5 160,-76.5 74,-76.5"/>
<text text-anchor="middle" x="117" y="-83.5" font-family="Helvetica,sans-Serif" font-size="10.00">renderingThread</text>
</a>
</g>
</g>
<!-- Node83&#45;&gt;Node98 -->
<g id="edge32" class="edge"><title>Node83&#45;&gt;Node98</title>
<path fill="none" stroke="midnightblue" d="M38.0569,-116.852C50.5322,-111.914 67.5004,-105.198 82.4198,-99.2921"/>
<polygon fill="midnightblue" stroke="midnightblue" points="83.8505,-102.49 91.8604,-95.5553 81.2741,-95.9815 83.8505,-102.49"/>
</g>
<!-- Node85 -->
<g id="node3" class="node"><title>Node85</title>
<g id="a_node3"><a xlink:href="_main_8cpp.html#ab2ff3dd66804b9f8e614cc3d8f62b851" target="_top" xlink:title="loadMenu1">
<polygon fill="none" stroke="black" points="196,-114.5 196,-133.5 260,-133.5 260,-114.5 196,-114.5"/>
<text text-anchor="middle" x="228" y="-121.5" font-family="Helvetica,sans-Serif" font-size="10.00">loadMenu1</text>
</a>
</g>
</g>
<!-- Node84&#45;&gt;Node85 -->
<g id="edge2" class="edge"><title>Node84&#45;&gt;Node85</title>
<path fill="none" stroke="midnightblue" d="M146.638,-124C158.583,-124 172.686,-124 185.716,-124"/>
<polygon fill="midnightblue" stroke="midnightblue" points="185.874,-127.5 195.874,-124 185.874,-120.5 185.874,-127.5"/>
</g>
<!-- Node91 -->
<g id="node9" class="node"><title>Node91</title>
<g id="a_node9"><a xlink:href="_main_8cpp.html#a4d2b8dfc9654f97dcbfd580ffeeb8048" target="_top" xlink:title="loadMenu2">
<polygon fill="none" stroke="black" points="196,-228.5 196,-247.5 260,-247.5 260,-228.5 196,-228.5"/>
<text text-anchor="middle" x="228" y="-235.5" font-family="Helvetica,sans-Serif" font-size="10.00">loadMenu2</text>
</a>
</g>
</g>
<!-- Node84&#45;&gt;Node91 -->
<g id="edge8" class="edge"><title>Node84&#45;&gt;Node91</title>
<path fill="none" stroke="midnightblue" d="M127.293,-133.72C145.795,-153.07 187.446,-196.632 210.634,-220.884"/>
<polygon fill="midnightblue" stroke="midnightblue" points="208.29,-223.496 217.73,-228.305 213.349,-218.658 208.29,-223.496"/>
</g>
<!-- Node94 -->
<g id="node12" class="node"><title>Node94</title>
<g id="a_node12"><a xlink:href="_main_8cpp.html#a1862c57029f25299b350b89a3fef7bac" target="_top" xlink:title="loadMenu3">
<polygon fill="none" stroke="black" points="196,-76.5 196,-95.5 260,-95.5 260,-76.5 196,-76.5"/>
<text text-anchor="middle" x="228" y="-83.5" font-family="Helvetica,sans-Serif" font-size="10.00">loadMenu3</text>
</a>
</g>
</g>
<!-- Node84&#45;&gt;Node94 -->
<g id="edge12" class="edge"><title>Node84&#45;&gt;Node94</title>
<path fill="none" stroke="midnightblue" d="M145.505,-114.411C158.931,-109.731 175.28,-104.031 189.801,-98.9685"/>
<polygon fill="midnightblue" stroke="midnightblue" points="191.213,-102.183 199.503,-95.5859 188.909,-95.573 191.213,-102.183"/>
</g>
<!-- Node95 -->
<g id="node13" class="node"><title>Node95</title>
<g id="a_node13"><a xlink:href="_main_8cpp.html#a3153201e1f35afab1a2de7fa1dea810a" target="_top" xlink:title="loadMenu4">
<polygon fill="none" stroke="black" points="196,-38.5 196,-57.5 260,-57.5 260,-38.5 196,-38.5"/>
<text text-anchor="middle" x="228" y="-45.5" font-family="Helvetica,sans-Serif" font-size="10.00">loadMenu4</text>
</a>
</g>
</g>
<!-- Node84&#45;&gt;Node95 -->
<g id="edge17" class="edge"><title>Node84&#45;&gt;Node95</title>
<path fill="none" stroke="midnightblue" d="M143.303,-114.467C149.029,-111.798 154.914,-108.62 160,-105 178.953,-91.5086 177.927,-81.6491 196,-67 197.545,-65.748 199.179,-64.5164 200.856,-63.3191"/>
<polygon fill="midnightblue" stroke="midnightblue" points="202.98,-66.1113 209.401,-57.6839 199.126,-60.2677 202.98,-66.1113"/>
</g>
<!-- Node96 -->
<g id="node14" class="node"><title>Node96</title>
<g id="a_node14"><a xlink:href="_main_8cpp.html#aee704d9ab9bae25e3fecbe7f6a106f7a" target="_top" xlink:title="loadMenu5">
<polygon fill="none" stroke="black" points="196,-0.5 196,-19.5 260,-19.5 260,-0.5 196,-0.5"/>
<text text-anchor="middle" x="228" y="-7.5" font-family="Helvetica,sans-Serif" font-size="10.00">loadMenu5</text>
</a>
</g>
</g>
<!-- Node84&#45;&gt;Node96 -->
<g id="edge22" class="edge"><title>Node84&#45;&gt;Node96</title>
<path fill="none" stroke="midnightblue" d="M146.404,-114.481C151.335,-111.943 156.118,-108.814 160,-105 186.659,-78.8043 171.029,-56.81 196,-29 197.002,-27.8845 198.084,-26.8124 199.224,-25.7854"/>
<polygon fill="midnightblue" stroke="midnightblue" points="201.45,-28.4908 207.328,-19.6763 197.236,-22.9011 201.45,-28.4908"/>
</g>
<!-- Node97 -->
<g id="node15" class="node"><title>Node97</title>
<g id="a_node15"><a xlink:href="_main_8cpp.html#a0a424bcea43ed2e1fc6b5d516bafd12c" target="_top" xlink:title="loadMenu6">
<polygon fill="none" stroke="black" points="196,-152.5 196,-171.5 260,-171.5 260,-152.5 196,-152.5"/>
<text text-anchor="middle" x="228" y="-159.5" font-family="Helvetica,sans-Serif" font-size="10.00">loadMenu6</text>
</a>
</g>
</g>
<!-- Node84&#45;&gt;Node97 -->
<g id="edge27" class="edge"><title>Node84&#45;&gt;Node97</title>
<path fill="none" stroke="midnightblue" d="M145.505,-133.589C158.931,-138.269 175.28,-143.969 189.801,-149.032"/>
<polygon fill="midnightblue" stroke="midnightblue" points="188.909,-152.427 199.503,-152.414 191.213,-145.817 188.909,-152.427"/>
</g>
<!-- Node86 -->
<g id="node4" class="node"><title>Node86</title>
<g id="a_node4"><a xlink:href="class_menu__simple.html#a1273e6743ee892cd8651968efd595b73" target="_top" xlink:title="Menu_simple::setItemsFonts">
<polygon fill="none" stroke="black" points="302,-76.5 302,-95.5 445,-95.5 445,-76.5 302,-76.5"/>
<text text-anchor="middle" x="373.5" y="-83.5" font-family="Helvetica,sans-Serif" font-size="10.00">Menu_simple::setItemsFonts</text>
</a>
</g>
</g>
<!-- Node85&#45;&gt;Node86 -->
<g id="edge3" class="edge"><title>Node85&#45;&gt;Node86</title>
<path fill="none" stroke="midnightblue" d="M260.3,-114.894C271.536,-111.686 284.315,-108.107 296,-105 304.838,-102.65 314.275,-100.232 323.396,-97.942"/>
<polygon fill="midnightblue" stroke="midnightblue" points="324.269,-101.331 333.126,-95.5163 322.576,-94.5393 324.269,-101.331"/>
</g>
<!-- Node87 -->
<g id="node5" class="node"><title>Node87</title>
<g id="a_node5"><a xlink:href="class_menu__simple.html#a0fc5b4ec10c844f34495364f70cd333e" target="_top" xlink:title="Menu_simple::addItem">
<polygon fill="none" stroke="black" points="316,-38.5 316,-57.5 431,-57.5 431,-38.5 316,-38.5"/>
<text text-anchor="middle" x="373.5" y="-45.5" font-family="Helvetica,sans-Serif" font-size="10.00">Menu_simple::addItem</text>
</a>
</g>
</g>
<!-- Node85&#45;&gt;Node87 -->
<g id="edge4" class="edge"><title>Node85&#45;&gt;Node87</title>
<path fill="none" stroke="midnightblue" d="M246.599,-114.316C251.127,-111.532 255.881,-108.339 260,-105 278.073,-90.3509 275.903,-78.7194 296,-67 299.724,-64.8285 303.689,-62.9037 307.781,-61.1978"/>
<polygon fill="midnightblue" stroke="midnightblue" points="309.338,-64.3538 317.502,-57.6016 306.909,-57.7887 309.338,-64.3538"/>
</g>
<!-- Node89 -->
<g id="node7" class="node"><title>Node89</title>
<g id="a_node7"><a xlink:href="class_menu__simple.html#a4717470decb5666cbac7aa879aade5fa" target="_top" xlink:title="Menu_simple::setItemsTextures">
<polygon fill="none" stroke="black" points="296,-114.5 296,-133.5 451,-133.5 451,-114.5 296,-114.5"/>
<text text-anchor="middle" x="373.5" y="-121.5" font-family="Helvetica,sans-Serif" font-size="10.00">Menu_simple::setItemsTextures</text>
</a>
</g>
</g>
<!-- Node85&#45;&gt;Node89 -->
<g id="edge6" class="edge"><title>Node85&#45;&gt;Node89</title>
<path fill="none" stroke="midnightblue" d="M260.137,-124C267.863,-124 276.526,-124 285.524,-124"/>
<polygon fill="midnightblue" stroke="midnightblue" points="285.792,-127.5 295.792,-124 285.792,-120.5 285.792,-127.5"/>
</g>
<!-- Node85&#45;&gt;Node90 -->
<g id="edge7" class="edge"><title>Node85&#45;&gt;Node90</title>
<path fill="none" stroke="midnightblue" d="M260.3,-133.106C271.536,-136.314 284.315,-139.893 296,-143 310.333,-146.811 326.24,-150.8 339.821,-154.134"/>
<polygon fill="midnightblue" stroke="midnightblue" points="339.143,-157.571 349.687,-156.542 340.802,-150.771 339.143,-157.571"/>
</g>
<!-- Node88 -->
<g id="node6" class="node"><title>Node88</title>
<g id="a_node6"><a xlink:href="class_choice___simple.html#a035e32f90e4561b666b6571bce06e207" target="_top" xlink:title="Choice_Simple::setFont">
<polygon fill="none" stroke="black" points="487,-38.5 487,-57.5 608,-57.5 608,-38.5 487,-38.5"/>
<text text-anchor="middle" x="547.5" y="-45.5" font-family="Helvetica,sans-Serif" font-size="10.00">Choice_Simple::setFont</text>
</a>
</g>
</g>
<!-- Node87&#45;&gt;Node88 -->
<g id="edge5" class="edge"><title>Node87&#45;&gt;Node88</title>
<path fill="none" stroke="midnightblue" d="M431.296,-48C445.766,-48 461.487,-48 476.53,-48"/>
<polygon fill="midnightblue" stroke="midnightblue" points="476.812,-51.5001 486.812,-48 476.812,-44.5001 476.812,-51.5001"/>
</g>
<!-- Node91&#45;&gt;Node90 -->
<g id="edge11" class="edge"><title>Node91&#45;&gt;Node90</title>
<path fill="none" stroke="midnightblue" d="M243.604,-228.36C256.981,-219.7 277.461,-206.867 296,-197 310.351,-189.361 326.686,-181.748 340.565,-175.583"/>
<polygon fill="midnightblue" stroke="midnightblue" points="341.976,-178.786 349.727,-171.563 339.164,-172.376 341.976,-178.786"/>
</g>
<!-- Node92 -->
<g id="node10" class="node"><title>Node92</title>
<g id="a_node10"><a xlink:href="class_menu.html#aa8032782ee75fba5fa17bf7a20635c68" target="_top" xlink:title="Menu::addItem">
<polygon fill="none" stroke="black" points="333,-256.5 333,-275.5 414,-275.5 414,-256.5 333,-256.5"/>
<text text-anchor="middle" x="373.5" y="-263.5" font-family="Helvetica,sans-Serif" font-size="10.00">Menu::addItem</text>
</a>
</g>
</g>
<!-- Node91&#45;&gt;Node92 -->
<g id="edge9" class="edge"><title>Node91&#45;&gt;Node92</title>
<path fill="none" stroke="midnightblue" d="M260.137,-244.076C278.485,-247.656 302.115,-252.266 322.967,-256.335"/>
<polygon fill="midnightblue" stroke="midnightblue" points="322.46,-259.802 332.945,-258.282 323.801,-252.932 322.46,-259.802"/>
</g>
<!-- Node93 -->
<g id="node11" class="node"><title>Node93</title>
<g id="a_node11"><a xlink:href="class_menu___miniature.html#afad04c066c7e436bbf9cccde310d07dc" target="_top" xlink:title="Menu_Miniature::setItems\lTextures">
<polygon fill="none" stroke="black" points="309,-207 309,-237 438,-237 438,-207 309,-207"/>
<text text-anchor="start" x="317" y="-225" font-family="Helvetica,sans-Serif" font-size="10.00">Menu_Miniature::setItems</text>
<text text-anchor="middle" x="373.5" y="-214" font-family="Helvetica,sans-Serif" font-size="10.00">Textures</text>
</a>
</g>
</g>
<!-- Node91&#45;&gt;Node93 -->
<g id="edge10" class="edge"><title>Node91&#45;&gt;Node93</title>
<path fill="none" stroke="midnightblue" d="M260.137,-234.528C271.501,-233.261 284.892,-231.768 298.393,-230.263"/>
<polygon fill="midnightblue" stroke="midnightblue" points="299.158,-233.699 308.708,-229.113 298.382,-226.742 299.158,-233.699"/>
</g>
<!-- Node94&#45;&gt;Node86 -->
<g id="edge13" class="edge"><title>Node94&#45;&gt;Node86</title>
<path fill="none" stroke="midnightblue" d="M260.137,-86C269.604,-86 280.477,-86 291.649,-86"/>
<polygon fill="midnightblue" stroke="midnightblue" points="291.962,-89.5001 301.962,-86 291.962,-82.5001 291.962,-89.5001"/>
</g>
<!-- Node94&#45;&gt;Node87 -->
<g id="edge14" class="edge"><title>Node94&#45;&gt;Node87</title>
<path fill="none" stroke="midnightblue" d="M260.3,-76.8937C271.536,-73.6857 284.315,-70.1069 296,-67 304.838,-64.65 314.275,-62.2321 323.396,-59.942"/>
<polygon fill="midnightblue" stroke="midnightblue" points="324.269,-63.3314 333.126,-57.5163 322.576,-56.5393 324.269,-63.3314"/>
</g>
<!-- Node94&#45;&gt;Node89 -->
<g id="edge15" class="edge"><title>Node94&#45;&gt;Node89</title>
<path fill="none" stroke="midnightblue" d="M260.3,-95.1063C271.536,-98.3143 284.315,-101.893 296,-105 304.838,-107.35 314.275,-109.768 323.396,-112.058"/>
<polygon fill="midnightblue" stroke="midnightblue" points="322.576,-115.461 333.126,-114.484 324.269,-108.669 322.576,-115.461"/>
</g>
<!-- Node94&#45;&gt;Node90 -->
<g id="edge16" class="edge"><title>Node94&#45;&gt;Node90</title>
<path fill="none" stroke="midnightblue" d="M246.599,-95.6839C251.127,-98.4678 255.881,-101.661 260,-105 278.073,-119.649 275.903,-131.281 296,-143 309.318,-150.766 325.729,-155.377 339.932,-158.105"/>
<polygon fill="midnightblue" stroke="midnightblue" points="339.364,-161.558 349.808,-159.777 340.532,-154.656 339.364,-161.558"/>
</g>
<!-- Node95&#45;&gt;Node86 -->
<g id="edge18" class="edge"><title>Node95&#45;&gt;Node86</title>
<path fill="none" stroke="midnightblue" d="M260.3,-57.1063C271.536,-60.3143 284.315,-63.8931 296,-67 304.838,-69.35 314.275,-71.7679 323.396,-74.058"/>
<polygon fill="midnightblue" stroke="midnightblue" points="322.576,-77.4607 333.126,-76.4837 324.269,-70.6686 322.576,-77.4607"/>
</g>
<!-- Node95&#45;&gt;Node87 -->
<g id="edge19" class="edge"><title>Node95&#45;&gt;Node87</title>
<path fill="none" stroke="midnightblue" d="M260.137,-48C273.526,-48 289.728,-48 305.61,-48"/>
<polygon fill="midnightblue" stroke="midnightblue" points="305.968,-51.5001 315.968,-48 305.968,-44.5001 305.968,-51.5001"/>
</g>
<!-- Node95&#45;&gt;Node89 -->
<g id="edge20" class="edge"><title>Node95&#45;&gt;Node89</title>
<path fill="none" stroke="midnightblue" d="M246.599,-57.6839C251.127,-60.4678 255.881,-63.6612 260,-67 278.073,-81.6491 275.903,-93.2806 296,-105 299.724,-107.171 303.689,-109.096 307.781,-110.802"/>
<polygon fill="midnightblue" stroke="midnightblue" points="306.909,-114.211 317.502,-114.398 309.338,-107.646 306.909,-114.211"/>
</g>
<!-- Node95&#45;&gt;Node90 -->
<g id="edge21" class="edge"><title>Node95&#45;&gt;Node90</title>
<path fill="none" stroke="midnightblue" d="M248.672,-57.6763C252.761,-60.3057 256.795,-63.4304 260,-67 284.971,-94.81 267.078,-119.327 296,-143 308.186,-152.974 324.873,-157.82 339.553,-160.134"/>
<polygon fill="midnightblue" stroke="midnightblue" points="339.439,-163.646 349.794,-161.407 340.303,-156.7 339.439,-163.646"/>
</g>
<!-- Node96&#45;&gt;Node86 -->
<g id="edge23" class="edge"><title>Node96&#45;&gt;Node86</title>
<path fill="none" stroke="midnightblue" d="M246.599,-19.6839C251.127,-22.4678 255.881,-25.6612 260,-29 278.073,-43.6491 275.903,-55.2806 296,-67 299.724,-69.1715 303.689,-71.0963 307.781,-72.8022"/>
<polygon fill="midnightblue" stroke="midnightblue" points="306.909,-76.2113 317.502,-76.3984 309.338,-69.6462 306.909,-76.2113"/>
</g>
<!-- Node96&#45;&gt;Node87 -->
<g id="edge24" class="edge"><title>Node96&#45;&gt;Node87</title>
<path fill="none" stroke="midnightblue" d="M260.137,-18.2454C279.652,-23.4131 305.144,-30.1634 326.912,-35.928"/>
<polygon fill="midnightblue" stroke="midnightblue" points="326.054,-39.3214 336.617,-38.4979 327.846,-32.5546 326.054,-39.3214"/>
</g>
<!-- Node96&#45;&gt;Node89 -->
<g id="edge25" class="edge"><title>Node96&#45;&gt;Node89</title>
<path fill="none" stroke="midnightblue" d="M248.672,-19.6763C252.761,-22.3057 256.795,-25.4304 260,-29 284.971,-56.81 267.078,-81.3265 296,-105 298.039,-106.669 300.203,-108.194 302.463,-109.587"/>
<polygon fill="midnightblue" stroke="midnightblue" points="301.103,-112.825 311.589,-114.337 304.335,-106.616 301.103,-112.825"/>
</g>
<!-- Node96&#45;&gt;Node90 -->
<g id="edge26" class="edge"><title>Node96&#45;&gt;Node90</title>
<path fill="none" stroke="midnightblue" d="M249.365,-19.5745C253.32,-22.1794 257.123,-25.3196 260,-29 292.72,-70.8633 257.275,-106.62 296,-143 307.751,-154.039 324.888,-158.941 339.965,-161.018"/>
<polygon fill="midnightblue" stroke="midnightblue" points="339.677,-164.506 349.982,-162.044 340.391,-157.543 339.677,-164.506"/>
</g>
<!-- Node97&#45;&gt;Node86 -->
<g id="edge28" class="edge"><title>Node97&#45;&gt;Node86</title>
<path fill="none" stroke="midnightblue" d="M246.599,-152.316C251.127,-149.532 255.881,-146.339 260,-143 278.073,-128.351 275.903,-116.719 296,-105 299.724,-102.829 303.689,-100.904 307.781,-99.1978"/>
<polygon fill="midnightblue" stroke="midnightblue" points="309.338,-102.354 317.502,-95.6016 306.909,-95.7887 309.338,-102.354"/>
</g>
<!-- Node97&#45;&gt;Node87 -->
<g id="edge29" class="edge"><title>Node97&#45;&gt;Node87</title>
<path fill="none" stroke="midnightblue" d="M248.672,-152.324C252.761,-149.694 256.795,-146.57 260,-143 284.971,-115.19 267.078,-90.6735 296,-67 299.276,-64.3184 302.878,-62.0074 306.678,-60.0167"/>
<polygon fill="midnightblue" stroke="midnightblue" points="308.139,-63.1976 315.848,-55.9291 305.289,-56.8041 308.139,-63.1976"/>
</g>
<!-- Node97&#45;&gt;Node89 -->
<g id="edge30" class="edge"><title>Node97&#45;&gt;Node89</title>
<path fill="none" stroke="midnightblue" d="M260.3,-152.894C271.536,-149.686 284.315,-146.107 296,-143 304.838,-140.65 314.275,-138.232 323.396,-135.942"/>
<polygon fill="midnightblue" stroke="midnightblue" points="324.269,-139.331 333.126,-133.516 322.576,-132.539 324.269,-139.331"/>
</g>
<!-- Node97&#45;&gt;Node90 -->
<g id="edge31" class="edge"><title>Node97&#45;&gt;Node90</title>
<path fill="none" stroke="midnightblue" d="M260.137,-162C283.689,-162 315.946,-162 339.859,-162"/>
<polygon fill="midnightblue" stroke="midnightblue" points="339.871,-165.5 349.871,-162 339.871,-158.5 339.871,-165.5"/>
</g>
</g>
</svg>
