<?xml version="1.0" encoding="UTF-8" standalone="no"?>
<!DOCTYPE svg PUBLIC "-//W3C//DTD SVG 1.1//EN"
 "http://www.w3.org/Graphics/SVG/1.1/DTD/svg11.dtd">
<!-- Generated by graphviz version 2.38.0 (20140413.2041)
 -->
<!-- Title: loadMenu6 Pages: 1 -->
<svg width="241pt" height="28pt"
 viewBox="0.00 0.00 241.00 28.00" xmlns="http://www.w3.org/2000/svg" xmlns:xlink="http://www.w3.org/1999/xlink">
<g id="graph0" class="graph" transform="scale(1 1) rotate(0) translate(4 24)">
<title>loadMenu6</title>
<!-- Node70 -->
<g id="node1" class="node"><title>Node70</title>
<polygon fill="#bfbfbf" stroke="black" points="0,-0.5 0,-19.5 64,-19.5 64,-0.5 0,-0.5"/>
<text text-anchor="middle" x="32" y="-7.5" font-family="Helvetica,sans-Serif" font-size="10.00">loadMenu6</text>
</g>
<!-- Node71 -->
<g id="node2" class="node"><title>Node71</title>
<g id="a_node2"><a xlink:href="_main_8cpp.html#a38bed9713fcae949ee78e6bc604db8fe" target="_top" xlink:title="loadMenu">
<polygon fill="none" stroke="black" points="100,-0.5 100,-19.5 159,-19.5 159,-0.5 100,-0.5"/>
<text text-anchor="middle" x="129.5" y="-7.5" font-family="Helvetica,sans-Serif" font-size="10.00">loadMenu</text>
</a>
</g>
</g>
<!-- Node70&#45;&gt;Node71 -->
<g id="edge1" class="edge"><title>Node70&#45;&gt;Node71</title>
<path fill="none" stroke="midnightblue" d="M74.0316,-10C82.7522,-10 91.7778,-10 99.9136,-10"/>
<polygon fill="midnightblue" stroke="midnightblue" points="74.0061,-6.5001 64.0061,-10 74.0061,-13.5001 74.0061,-6.5001"/>
</g>
<!-- Node72 -->
<g id="node3" class="node"><title>Node72</title>
<g id="a_node3"><a xlink:href="_main_8cpp.html#ae66f6b31b5ad750f1fe042a706a4e3d4" target="_top" xlink:title="main">
<polygon fill="none" stroke="black" points="195,-0.5 195,-19.5 233,-19.5 233,-0.5 195,-0.5"/>
<text text-anchor="middle" x="214" y="-7.5" font-family="Helvetica,sans-Serif" font-size="10.00">main</text>
</a>
</g>
</g>
<!-- Node71&#45;&gt;Node72 -->
<g id="edge2" class="edge"><title>Node71&#45;&gt;Node72</title>
<path fill="none" stroke="midnightblue" d="M169.488,-10C178.254,-10 187.158,-10 194.607,-10"/>
<polygon fill="midnightblue" stroke="midnightblue" points="169.355,-6.5001 159.354,-10 169.354,-13.5001 169.355,-6.5001"/>
</g>
</g>
</svg>
