<?xml version="1.0" encoding="UTF-8" standalone="no"?>
<!DOCTYPE svg PUBLIC "-//W3C//DTD SVG 1.1//EN"
 "http://www.w3.org/Graphics/SVG/1.1/DTD/svg11.dtd">
<!-- Generated by graphviz version 2.38.0 (20140413.2041)
 -->
<!-- Title: test Pages: 1 -->
<svg width="286pt" height="121pt"
 viewBox="0.00 0.00 286.00 120.58" xmlns="http://www.w3.org/2000/svg" xmlns:xlink="http://www.w3.org/1999/xlink">
<g id="graph0" class="graph" transform="scale(1 1) rotate(0) translate(4 116.579)">
<title>test</title>
<!-- Node103 -->
<g id="node1" class="node"><title>Node103</title>
<polygon fill="#bfbfbf" stroke="black" points="0,-57.5 0,-76.5 33,-76.5 33,-57.5 0,-57.5"/>
<text text-anchor="middle" x="16.5" y="-64.5" font-family="Helvetica,sans-Serif" font-size="10.00">test</text>
</g>
<!-- Node104 -->
<g id="node2" class="node"><title>Node104</title>
<g id="a_node2"><a xlink:href="class_goban.html#a29aaf8df380fe614845d48cba057747c" target="_top" xlink:title="Goban::coord">
<polygon fill="none" stroke="black" points="203,-76.5 203,-95.5 278,-95.5 278,-76.5 203,-76.5"/>
<text text-anchor="middle" x="240.5" y="-83.5" font-family="Helvetica,sans-Serif" font-size="10.00">Goban::coord</text>
</a>
</g>
</g>
<!-- Node103&#45;&gt;Node104 -->
<g id="edge1" class="edge"><title>Node103&#45;&gt;Node104</title>
<path fill="none" stroke="midnightblue" d="M26.6704,-76.6795C36.2169,-85.9892 52.1122,-99.4439 69,-105 113.805,-119.741 168.425,-108.973 203.569,-98.6149"/>
<polygon fill="midnightblue" stroke="midnightblue" points="204.858,-101.88 213.379,-95.5845 202.792,-95.1919 204.858,-101.88"/>
</g>
<!-- Node105 -->
<g id="node3" class="node"><title>Node105</title>
<g id="a_node3"><a xlink:href="class_etat.html#aa88987ca54aee676717f05e4570c0aec" target="_top" xlink:title="Etat::setVal">
<polygon fill="none" stroke="black" points="84,-0.5 84,-19.5 152,-19.5 152,-0.5 84,-0.5"/>
<text text-anchor="middle" x="118" y="-7.5" font-family="Helvetica,sans-Serif" font-size="10.00">Etat::setVal</text>
</a>
</g>
</g>
<!-- Node103&#45;&gt;Node105 -->
<g id="edge2" class="edge"><title>Node103&#45;&gt;Node105</title>
<path fill="none" stroke="midnightblue" d="M28.7795,-57.3363C38.8432,-49.0512 54.2295,-37.1904 69,-29 72.472,-27.0747 76.1796,-25.2469 79.9374,-23.5403"/>
<polygon fill="midnightblue" stroke="midnightblue" points="81.4477,-26.7014 89.2758,-19.5619 78.704,-20.2614 81.4477,-26.7014"/>
</g>
<!-- Node106 -->
<g id="node4" class="node"><title>Node106</title>
<g id="a_node4"><a xlink:href="_main_8cpp.html#a015a298e56541fc04e0b8a214322507f" target="_top" xlink:title="compressGoban">
<polygon fill="none" stroke="black" points="74,-76.5 74,-95.5 162,-95.5 162,-76.5 74,-76.5"/>
<text text-anchor="middle" x="118" y="-83.5" font-family="Helvetica,sans-Serif" font-size="10.00">compressGoban</text>
</a>
</g>
</g>
<!-- Node103&#45;&gt;Node106 -->
<g id="edge3" class="edge"><title>Node103&#45;&gt;Node106</title>
<path fill="none" stroke="midnightblue" d="M33.0469,-69.9688C41.5016,-71.5832 52.5108,-73.6855 63.7591,-75.8334"/>
<polygon fill="midnightblue" stroke="midnightblue" points="63.1683,-79.2837 73.6473,-77.7216 64.4813,-72.408 63.1683,-79.2837"/>
</g>
<!-- Node108 -->
<g id="node6" class="node"><title>Node108</title>
<g id="a_node6"><a xlink:href="_main_8cpp.html#abe2b758b8f0c5163537fb4f1ae2b3838" target="_top" xlink:title="uncompressGoban">
<polygon fill="none" stroke="black" points="69,-38.5 69,-57.5 167,-57.5 167,-38.5 69,-38.5"/>
<text text-anchor="middle" x="118" y="-45.5" font-family="Helvetica,sans-Serif" font-size="10.00">uncompressGoban</text>
</a>
</g>
</g>
<!-- Node103&#45;&gt;Node108 -->
<g id="edge6" class="edge"><title>Node103&#45;&gt;Node108</title>
<path fill="none" stroke="midnightblue" d="M33.0469,-64.0313C40.2676,-62.6524 49.3514,-60.9178 58.8562,-59.1028"/>
<polygon fill="midnightblue" stroke="midnightblue" points="59.687,-62.5075 68.853,-57.1939 58.374,-55.6317 59.687,-62.5075"/>
</g>
<!-- Node106&#45;&gt;Node104 -->
<g id="edge4" class="edge"><title>Node106&#45;&gt;Node104</title>
<path fill="none" stroke="midnightblue" d="M162.163,-86C171.987,-86 182.471,-86 192.448,-86"/>
<polygon fill="midnightblue" stroke="midnightblue" points="192.612,-89.5001 202.612,-86 192.612,-82.5001 192.612,-89.5001"/>
</g>
<!-- Node107 -->
<g id="node5" class="node"><title>Node107</title>
<g id="a_node5"><a xlink:href="class_etat.html#ac0b81bbcf64cb3cc574e5a9dcdf94382" target="_top" xlink:title="Etat::getVal">
<polygon fill="none" stroke="black" points="206.5,-38.5 206.5,-57.5 274.5,-57.5 274.5,-38.5 206.5,-38.5"/>
<text text-anchor="middle" x="240.5" y="-45.5" font-family="Helvetica,sans-Serif" font-size="10.00">Etat::getVal</text>
</a>
</g>
</g>
<!-- Node106&#45;&gt;Node107 -->
<g id="edge5" class="edge"><title>Node106&#45;&gt;Node107</title>
<path fill="none" stroke="midnightblue" d="M149.407,-76.411C164.535,-71.6406 183.02,-65.8112 199.3,-60.6771"/>
<polygon fill="midnightblue" stroke="midnightblue" points="200.618,-63.9315 209.102,-57.5859 198.513,-57.2556 200.618,-63.9315"/>
</g>
<!-- Node108&#45;&gt;Node104 -->
<g id="edge7" class="edge"><title>Node108&#45;&gt;Node104</title>
<path fill="none" stroke="midnightblue" d="M149.407,-57.589C164.535,-62.3594 183.02,-68.1888 199.3,-73.3229"/>
<polygon fill="midnightblue" stroke="midnightblue" points="198.513,-76.7444 209.102,-76.4141 200.618,-70.0685 198.513,-76.7444"/>
</g>
<!-- Node108&#45;&gt;Node107 -->
<g id="edge8" class="edge"><title>Node108&#45;&gt;Node107</title>
<path fill="none" stroke="midnightblue" d="M167.318,-48C176.832,-48 186.76,-48 196.101,-48"/>
<polygon fill="midnightblue" stroke="midnightblue" points="196.344,-51.5001 206.344,-48 196.344,-44.5001 196.344,-51.5001"/>
</g>
</g>
</svg>
