<?xml version="1.0" encoding="UTF-8" standalone="no"?>
<!DOCTYPE svg PUBLIC "-//W3C//DTD SVG 1.1//EN"
 "http://www.w3.org/Graphics/SVG/1.1/DTD/svg11.dtd">
<!-- Generated by graphviz version 2.38.0 (20140413.2041)
 -->
<!-- Title: D:/Users/Victor/OneDrive/Documents/Visual Studio 2017/Projects/Jeu_de_Go/Jeu_de_Go/Sources/Graphics/Menu.cpp Pages: 1 -->
<svg width="1006pt" height="576pt"
 viewBox="0.00 0.00 1006.00 576.00" xmlns="http://www.w3.org/2000/svg" xmlns:xlink="http://www.w3.org/1999/xlink">
<g id="graph0" class="graph" transform="scale(1 1) rotate(0) translate(4 572)">
<title>D:/Users/Victor/OneDrive/Documents/Visual Studio 2017/Projects/Jeu_de_Go/Jeu_de_Go/Sources/Graphics/Menu.cpp</title>
<!-- Node0 -->
<g id="node1" class="node"><title>Node0</title>
<polygon fill="#bfbfbf" stroke="black" points="139.5,-504.5 139.5,-567.5 288.5,-567.5 288.5,-504.5 139.5,-504.5"/>
<text text-anchor="start" x="147.5" y="-555.5" font-family="Helvetica,sans-Serif" font-size="10.00">D:/Users/Victor/OneDrive</text>
<text text-anchor="start" x="147.5" y="-544.5" font-family="Helvetica,sans-Serif" font-size="10.00">/Documents/Visual Studio</text>
<text text-anchor="start" x="147.5" y="-533.5" font-family="Helvetica,sans-Serif" font-size="10.00"> 2017/Projects/Jeu_de_Go</text>
<text text-anchor="start" x="147.5" y="-522.5" font-family="Helvetica,sans-Serif" font-size="10.00">/Jeu_de_Go/Sources/Graphics</text>
<text text-anchor="middle" x="214" y="-511.5" font-family="Helvetica,sans-Serif" font-size="10.00">/Menu.cpp</text>
</g>
<!-- Node1 -->
<g id="node2" class="node"><title>Node1</title>
<g id="a_node2"><a xlink:href="_menu_8h.html" target="_top" xlink:title="Menu.h">
<polygon fill="none" stroke="black" points="189.5,-448.5 189.5,-467.5 238.5,-467.5 238.5,-448.5 189.5,-448.5"/>
<text text-anchor="middle" x="214" y="-455.5" font-family="Helvetica,sans-Serif" font-size="10.00">Menu.h</text>
</a>
</g>
</g>
<!-- Node0&#45;&gt;Node1 -->
<g id="edge1" class="edge"><title>Node0&#45;&gt;Node1</title>
<path fill="none" stroke="midnightblue" d="M214,-504.088C214,-495.15 214,-485.669 214,-477.719"/>
<polygon fill="midnightblue" stroke="midnightblue" points="217.5,-477.718 214,-467.718 210.5,-477.718 217.5,-477.718"/>
</g>
<!-- Node2 -->
<g id="node3" class="node"><title>Node2</title>
<g id="a_node3"><a xlink:href="_screen_8h.html" target="_top" xlink:title="Screen.h">
<polygon fill="none" stroke="black" points="167,-224.5 167,-243.5 223,-243.5 223,-224.5 167,-224.5"/>
<text text-anchor="middle" x="195" y="-231.5" font-family="Helvetica,sans-Serif" font-size="10.00">Screen.h</text>
</a>
</g>
</g>
<!-- Node1&#45;&gt;Node2 -->
<g id="edge2" class="edge"><title>Node1&#45;&gt;Node2</title>
<path fill="none" stroke="midnightblue" d="M210.477,-448.21C207.081,-439.263 202.149,-424.913 200,-412 190.515,-355.014 192.261,-286.313 193.86,-253.804"/>
<polygon fill="midnightblue" stroke="midnightblue" points="197.37,-253.73 194.422,-243.554 190.38,-253.347 197.37,-253.73"/>
</g>
<!-- Node3 -->
<g id="node4" class="node"><title>Node3</title>
<polygon fill="none" stroke="#bfbfbf" points="0,-0.5 0,-19.5 104,-19.5 104,-0.5 0,-0.5"/>
<text text-anchor="middle" x="52" y="-7.5" font-family="Helvetica,sans-Serif" font-size="10.00">SFML/Graphics.hpp</text>
</g>
<!-- Node1&#45;&gt;Node3 -->
<g id="edge54" class="edge"><title>Node1&#45;&gt;Node3</title>
<path fill="none" stroke="midnightblue" d="M189.469,-451.794C145.313,-440.825 57,-410.9 57,-347 57,-347 57,-347 57,-121 57,-88.9149 54.8509,-51.6198 53.3706,-29.7371"/>
<polygon fill="midnightblue" stroke="midnightblue" points="56.8473,-29.2813 52.6537,-19.5518 49.8646,-29.7729 56.8473,-29.2813"/>
</g>
<!-- Node4 -->
<g id="node5" class="node"><title>Node4</title>
<g id="a_node5"><a xlink:href="_globals_8h.html" target="_top" xlink:title="Globals.h">
<polygon fill="none" stroke="black" points="352,-56.5 352,-75.5 410,-75.5 410,-56.5 352,-56.5"/>
<text text-anchor="middle" x="381" y="-63.5" font-family="Helvetica,sans-Serif" font-size="10.00">Globals.h</text>
</a>
</g>
</g>
<!-- Node1&#45;&gt;Node4 -->
<g id="edge52" class="edge"><title>Node1&#45;&gt;Node4</title>
<path fill="none" stroke="midnightblue" d="M213.46,-448.416C211.264,-405.814 207.198,-215.028 302,-112 314.834,-98.0527 333.009,-87.2889 348.691,-79.7907"/>
<polygon fill="midnightblue" stroke="midnightblue" points="350.399,-82.8596 358.064,-75.5448 347.51,-76.4834 350.399,-82.8596"/>
</g>
<!-- Node14 -->
<g id="node15" class="node"><title>Node14</title>
<g id="a_node15"><a xlink:href="_choice_8h.html" target="_top" xlink:title="Choice.h">
<polygon fill="none" stroke="black" points="290.5,-392.5 290.5,-411.5 345.5,-411.5 345.5,-392.5 290.5,-392.5"/>
<text text-anchor="middle" x="318" y="-399.5" font-family="Helvetica,sans-Serif" font-size="10.00">Choice.h</text>
</a>
</g>
</g>
<!-- Node1&#45;&gt;Node14 -->
<g id="edge15" class="edge"><title>Node1&#45;&gt;Node14</title>
<path fill="none" stroke="midnightblue" d="M230.709,-448.324C247.312,-439.703 273.002,-426.364 292.22,-416.386"/>
<polygon fill="midnightblue" stroke="midnightblue" points="294.07,-419.369 301.332,-411.655 290.844,-413.156 294.07,-419.369"/>
</g>
<!-- Node21 -->
<g id="node22" class="node"><title>Node21</title>
<polygon fill="none" stroke="#bfbfbf" points="844,-56.5 844,-75.5 886,-75.5 886,-56.5 844,-56.5"/>
<text text-anchor="middle" x="865" y="-63.5" font-family="Helvetica,sans-Serif" font-size="10.00">vector</text>
</g>
<!-- Node1&#45;&gt;Node21 -->
<g id="edge53" class="edge"><title>Node1&#45;&gt;Node21</title>
<path fill="none" stroke="midnightblue" d="M238.758,-456.198C372.023,-451.562 998,-425.601 998,-347 998,-347 998,-347 998,-233 998,-163.428 925.969,-106.352 887.926,-81.0595"/>
<polygon fill="midnightblue" stroke="midnightblue" points="889.784,-78.0927 879.487,-75.5992 885.981,-83.9699 889.784,-78.0927"/>
</g>
<!-- Node2&#45;&gt;Node3 -->
<g id="edge3" class="edge"><title>Node2&#45;&gt;Node3</title>
<path fill="none" stroke="midnightblue" d="M189.394,-224.297C168.13,-191.286 92.1972,-73.4041 63.2867,-28.522"/>
<polygon fill="midnightblue" stroke="midnightblue" points="66.0801,-26.3953 57.7224,-19.8837 60.1953,-30.186 66.0801,-26.3953"/>
</g>
<!-- Node2&#45;&gt;Node4 -->
<g id="edge4" class="edge"><title>Node2&#45;&gt;Node4</title>
<path fill="none" stroke="midnightblue" d="M195.522,-224.283C197.317,-202.23 205.098,-143.72 238,-112 265.945,-85.0593 309.863,-74.2359 341.66,-69.8941"/>
<polygon fill="midnightblue" stroke="midnightblue" points="342.428,-73.327 351.937,-68.6563 341.59,-66.3772 342.428,-73.327"/>
</g>
<!-- Node4&#45;&gt;Node3 -->
<g id="edge5" class="edge"><title>Node4&#45;&gt;Node3</title>
<path fill="none" stroke="midnightblue" d="M351.803,-60.2079C298.667,-51.4864 185.097,-32.8458 113.999,-21.1761"/>
<polygon fill="midnightblue" stroke="midnightblue" points="114.264,-17.6729 103.829,-19.5069 113.13,-24.5804 114.264,-17.6729"/>
</g>
<!-- Node5 -->
<g id="node6" class="node"><title>Node5</title>
<polygon fill="none" stroke="#bfbfbf" points="486,-0.5 486,-19.5 584,-19.5 584,-0.5 486,-0.5"/>
<text text-anchor="middle" x="535" y="-7.5" font-family="Helvetica,sans-Serif" font-size="10.00">SFML/System.hpp</text>
</g>
<!-- Node4&#45;&gt;Node5 -->
<g id="edge6" class="edge"><title>Node4&#45;&gt;Node5</title>
<path fill="none" stroke="midnightblue" d="M405.402,-56.4435C431.197,-47.3986 472.077,-33.064 501.018,-22.9158"/>
<polygon fill="midnightblue" stroke="midnightblue" points="502.434,-26.1283 510.712,-19.5164 500.118,-19.5226 502.434,-26.1283"/>
</g>
<!-- Node6 -->
<g id="node7" class="node"><title>Node6</title>
<polygon fill="none" stroke="#bfbfbf" points="602.5,-0.5 602.5,-19.5 701.5,-19.5 701.5,-0.5 602.5,-0.5"/>
<text text-anchor="middle" x="652" y="-7.5" font-family="Helvetica,sans-Serif" font-size="10.00">SFML/Window.hpp</text>
</g>
<!-- Node4&#45;&gt;Node6 -->
<g id="edge7" class="edge"><title>Node4&#45;&gt;Node6</title>
<path fill="none" stroke="midnightblue" d="M410.002,-59.2211C455.085,-50.2376 542.661,-32.7872 599.175,-21.526"/>
<polygon fill="midnightblue" stroke="midnightblue" points="599.88,-24.9544 609.003,-19.5676 598.512,-18.0894 599.88,-24.9544"/>
</g>
<!-- Node7 -->
<g id="node8" class="node"><title>Node7</title>
<polygon fill="none" stroke="#bfbfbf" points="181.5,-0.5 181.5,-19.5 270.5,-19.5 270.5,-0.5 181.5,-0.5"/>
<text text-anchor="middle" x="226" y="-7.5" font-family="Helvetica,sans-Serif" font-size="10.00">SFML/Audio.hpp</text>
</g>
<!-- Node4&#45;&gt;Node7 -->
<g id="edge8" class="edge"><title>Node4&#45;&gt;Node7</title>
<path fill="none" stroke="midnightblue" d="M356.44,-56.4435C330.477,-47.3986 289.332,-33.064 260.203,-22.9158"/>
<polygon fill="midnightblue" stroke="midnightblue" points="261.04,-19.5013 250.445,-19.5164 258.737,-26.1116 261.04,-19.5013"/>
</g>
<!-- Node8 -->
<g id="node9" class="node"><title>Node8</title>
<polygon fill="none" stroke="#bfbfbf" points="797,-0.5 797,-19.5 851,-19.5 851,-0.5 797,-0.5"/>
<text text-anchor="middle" x="824" y="-7.5" font-family="Helvetica,sans-Serif" font-size="10.00">iostream</text>
</g>
<!-- Node4&#45;&gt;Node8 -->
<g id="edge9" class="edge"><title>Node4&#45;&gt;Node8</title>
<path fill="none" stroke="midnightblue" d="M410.061,-63.1388C475.582,-58.655 639.925,-45.8008 786.859,-19.9767"/>
<polygon fill="midnightblue" stroke="midnightblue" points="787.727,-23.3771 796.958,-18.1761 786.499,-16.4858 787.727,-23.3771"/>
</g>
<!-- Node9 -->
<g id="node10" class="node"><title>Node9</title>
<polygon fill="none" stroke="#bfbfbf" points="288.5,-0.5 288.5,-19.5 333.5,-19.5 333.5,-0.5 288.5,-0.5"/>
<text text-anchor="middle" x="311" y="-7.5" font-family="Helvetica,sans-Serif" font-size="10.00">cstdlib</text>
</g>
<!-- Node4&#45;&gt;Node9 -->
<g id="edge10" class="edge"><title>Node4&#45;&gt;Node9</title>
<path fill="none" stroke="midnightblue" d="M369.753,-56.324C359.203,-48.1849 343.199,-35.8395 330.558,-26.0874"/>
<polygon fill="midnightblue" stroke="midnightblue" points="332.507,-23.1707 322.451,-19.8339 328.231,-28.7132 332.507,-23.1707"/>
</g>
<!-- Node10 -->
<g id="node11" class="node"><title>Node10</title>
<polygon fill="none" stroke="#bfbfbf" points="122.5,-0.5 122.5,-19.5 163.5,-19.5 163.5,-0.5 122.5,-0.5"/>
<text text-anchor="middle" x="143" y="-7.5" font-family="Helvetica,sans-Serif" font-size="10.00">string</text>
</g>
<!-- Node4&#45;&gt;Node10 -->
<g id="edge11" class="edge"><title>Node4&#45;&gt;Node10</title>
<path fill="none" stroke="midnightblue" d="M351.729,-59.5503C312.955,-52.1466 242.267,-38.0112 173.254,-20.1616"/>
<polygon fill="midnightblue" stroke="midnightblue" points="174.09,-16.7628 163.53,-17.6187 172.319,-23.5351 174.09,-16.7628"/>
</g>
<!-- Node11 -->
<g id="node12" class="node"><title>Node11</title>
<polygon fill="none" stroke="#bfbfbf" points="351.5,-0.5 351.5,-19.5 400.5,-19.5 400.5,-0.5 351.5,-0.5"/>
<text text-anchor="middle" x="376" y="-7.5" font-family="Helvetica,sans-Serif" font-size="10.00">fstream</text>
</g>
<!-- Node4&#45;&gt;Node11 -->
<g id="edge12" class="edge"><title>Node4&#45;&gt;Node11</title>
<path fill="none" stroke="midnightblue" d="M380.174,-56.083C379.519,-49.0059 378.58,-38.8611 377.758,-29.9865"/>
<polygon fill="midnightblue" stroke="midnightblue" points="381.217,-29.3858 376.81,-19.7511 374.247,-30.0312 381.217,-29.3858"/>
</g>
<!-- Node12 -->
<g id="node13" class="node"><title>Node12</title>
<polygon fill="none" stroke="#bfbfbf" points="418.5,-0.5 418.5,-19.5 467.5,-19.5 467.5,-0.5 418.5,-0.5"/>
<text text-anchor="middle" x="443" y="-7.5" font-family="Helvetica,sans-Serif" font-size="10.00">cassert</text>
</g>
<!-- Node4&#45;&gt;Node12 -->
<g id="edge13" class="edge"><title>Node4&#45;&gt;Node12</title>
<path fill="none" stroke="midnightblue" d="M390.961,-56.324C400.127,-48.3414 413.937,-36.3128 425.028,-26.6529"/>
<polygon fill="midnightblue" stroke="midnightblue" points="427.615,-29.041 432.857,-19.8339 423.018,-23.7624 427.615,-29.041"/>
</g>
<!-- Node13 -->
<g id="node14" class="node"><title>Node13</title>
<polygon fill="none" stroke="#bfbfbf" points="719.5,-0.5 719.5,-19.5 778.5,-19.5 778.5,-0.5 719.5,-0.5"/>
<text text-anchor="middle" x="749" y="-7.5" font-family="Helvetica,sans-Serif" font-size="10.00">stdexcept</text>
</g>
<!-- Node4&#45;&gt;Node13 -->
<g id="edge14" class="edge"><title>Node4&#45;&gt;Node13</title>
<path fill="none" stroke="midnightblue" d="M410.188,-61.9099C466.147,-55.7923 592.565,-41.0404 709.086,-20.0136"/>
<polygon fill="midnightblue" stroke="midnightblue" points="710.038,-23.3978 719.247,-18.1592 708.782,-16.5115 710.038,-23.3978"/>
</g>
<!-- Node14&#45;&gt;Node4 -->
<g id="edge16" class="edge"><title>Node14&#45;&gt;Node4</title>
<path fill="none" stroke="midnightblue" d="M314.224,-392.351C306.581,-374.034 290,-329.821 290,-291 290,-291 290,-291 290,-177 290,-134.468 330.889,-99.5303 357.849,-81.1161"/>
<polygon fill="midnightblue" stroke="midnightblue" points="359.94,-83.9308 366.379,-75.5177 356.099,-78.0787 359.94,-83.9308"/>
</g>
<!-- Node14&#45;&gt;Node8 -->
<g id="edge19" class="edge"><title>Node14&#45;&gt;Node8</title>
<path fill="none" stroke="midnightblue" d="M345.586,-399.242C468.469,-391.05 960,-354.326 960,-291 960,-291 960,-291 960,-233 960,-151.375 962.437,-119.379 911,-56 898.161,-40.1802 878.283,-29.3115 860.767,-22.2246"/>
<polygon fill="midnightblue" stroke="midnightblue" points="861.931,-18.9229 851.339,-18.6691 859.461,-25.4726 861.931,-18.9229"/>
</g>
<!-- Node14&#45;&gt;Node10 -->
<g id="edge17" class="edge"><title>Node14&#45;&gt;Node10</title>
<path fill="none" stroke="midnightblue" d="M290.269,-397.067C239.778,-388.172 138,-361.5 138,-291 138,-291 138,-291 138,-121 138,-88.9149 140.149,-51.6198 141.629,-29.7371"/>
<polygon fill="midnightblue" stroke="midnightblue" points="145.135,-29.7729 142.346,-19.5518 138.153,-29.2813 145.135,-29.7729"/>
</g>
<!-- Node15 -->
<g id="node16" class="node"><title>Node15</title>
<polygon fill="none" stroke="#bfbfbf" points="318,-336.5 318,-355.5 376,-355.5 376,-336.5 318,-336.5"/>
<text text-anchor="middle" x="347" y="-343.5" font-family="Helvetica,sans-Serif" font-size="10.00">functional</text>
</g>
<!-- Node14&#45;&gt;Node15 -->
<g id="edge18" class="edge"><title>Node14&#45;&gt;Node15</title>
<path fill="none" stroke="midnightblue" d="M322.789,-392.083C326.758,-384.691 332.525,-373.953 337.435,-364.811"/>
<polygon fill="midnightblue" stroke="midnightblue" points="340.653,-366.217 342.3,-355.751 334.486,-362.905 340.653,-366.217"/>
</g>
<!-- Node16 -->
<g id="node17" class="node"><title>Node16</title>
<g id="a_node17"><a xlink:href="_game__window_8h.html" target="_top" xlink:title="Game/Game_window.h">
<polygon fill="none" stroke="black" points="394.5,-336.5 394.5,-355.5 511.5,-355.5 511.5,-336.5 394.5,-336.5"/>
<text text-anchor="middle" x="453" y="-343.5" font-family="Helvetica,sans-Serif" font-size="10.00">Game/Game_window.h</text>
</a>
</g>
</g>
<!-- Node14&#45;&gt;Node16 -->
<g id="edge20" class="edge"><title>Node14&#45;&gt;Node16</title>
<path fill="none" stroke="midnightblue" d="M339.391,-392.444C361.707,-383.517 396.903,-369.439 422.208,-359.317"/>
<polygon fill="midnightblue" stroke="midnightblue" points="423.724,-362.48 431.709,-355.516 421.124,-355.981 423.724,-362.48"/>
</g>
<!-- Node16&#45;&gt;Node2 -->
<g id="edge50" class="edge"><title>Node16&#45;&gt;Node2</title>
<path fill="none" stroke="midnightblue" d="M420.914,-336.46C392.334,-328.422 349.646,-315.345 314,-300 279.223,-285.029 241.172,-263.212 217.688,-249.061"/>
<polygon fill="midnightblue" stroke="midnightblue" points="219.22,-245.896 208.858,-243.687 215.581,-251.876 219.22,-245.896"/>
</g>
<!-- Node16&#45;&gt;Node4 -->
<g id="edge21" class="edge"><title>Node16&#45;&gt;Node4</title>
<path fill="none" stroke="midnightblue" d="M428.899,-336.413C392.575,-321.746 328,-288.19 328,-235 328,-235 328,-235 328,-177 328,-146.902 333.484,-138.892 347,-112 352.156,-101.741 359.723,-91.4379 366.41,-83.2844"/>
<polygon fill="midnightblue" stroke="midnightblue" points="369.09,-85.5353 372.921,-75.6575 363.766,-80.99 369.09,-85.5353"/>
</g>
<!-- Node17 -->
<g id="node18" class="node"><title>Node17</title>
<g id="a_node18"><a xlink:href="_board_8h.html" target="_top" xlink:title="Board.h">
<polygon fill="none" stroke="black" points="503,-280.5 503,-299.5 553,-299.5 553,-280.5 503,-280.5"/>
<text text-anchor="middle" x="528" y="-287.5" font-family="Helvetica,sans-Serif" font-size="10.00">Board.h</text>
</a>
</g>
</g>
<!-- Node16&#45;&gt;Node17 -->
<g id="edge22" class="edge"><title>Node16&#45;&gt;Node17</title>
<path fill="none" stroke="midnightblue" d="M465.05,-336.324C476.463,-328.107 493.831,-315.602 507.435,-305.807"/>
<polygon fill="midnightblue" stroke="midnightblue" points="509.66,-308.517 515.731,-299.834 505.57,-302.837 509.66,-308.517"/>
</g>
<!-- Node20 -->
<g id="node21" class="node"><title>Node20</title>
<g id="a_node21"><a xlink:href="_goban_8h.html" target="_top" xlink:title="../../Engine/Goban.h">
<polygon fill="none" stroke="black" points="637,-168.5 637,-187.5 741,-187.5 741,-168.5 637,-168.5"/>
<text text-anchor="middle" x="689" y="-175.5" font-family="Helvetica,sans-Serif" font-size="10.00">../../Engine/Goban.h</text>
</a>
</g>
</g>
<!-- Node16&#45;&gt;Node20 -->
<g id="edge51" class="edge"><title>Node16&#45;&gt;Node20</title>
<path fill="none" stroke="midnightblue" d="M483.52,-336.481C506.46,-329.147 537.941,-317.038 562,-300 598.988,-273.805 596.721,-254.77 630,-224 641.909,-212.989 656.375,-201.924 668.003,-193.521"/>
<polygon fill="midnightblue" stroke="midnightblue" points="670.127,-196.305 676.252,-187.66 666.073,-190.599 670.127,-196.305"/>
</g>
<!-- Node25 -->
<g id="node26" class="node"><title>Node25</title>
<g id="a_node26"><a xlink:href="_arbre_8h.html" target="_top" xlink:title="../../Engine/Arbre.h">
<polygon fill="none" stroke="black" points="639.5,-224.5 639.5,-243.5 738.5,-243.5 738.5,-224.5 639.5,-224.5"/>
<text text-anchor="middle" x="689" y="-231.5" font-family="Helvetica,sans-Serif" font-size="10.00">../../Engine/Arbre.h</text>
</a>
</g>
</g>
<!-- Node16&#45;&gt;Node25 -->
<g id="edge49" class="edge"><title>Node16&#45;&gt;Node25</title>
<path fill="none" stroke="midnightblue" d="M511.744,-337.168C545.888,-330.784 588.788,-319.51 623,-300 644.722,-287.613 664.404,-266.295 676.512,-251.464"/>
<polygon fill="midnightblue" stroke="midnightblue" points="679.272,-253.615 682.723,-243.598 673.779,-249.277 679.272,-253.615"/>
</g>
<!-- Node26 -->
<g id="node27" class="node"><title>Node26</title>
<g id="a_node27"><a xlink:href="_infos_8h.html" target="_top" xlink:title="Infos.h">
<polygon fill="none" stroke="black" points="398.5,-168.5 398.5,-187.5 443.5,-187.5 443.5,-168.5 398.5,-168.5"/>
<text text-anchor="middle" x="421" y="-175.5" font-family="Helvetica,sans-Serif" font-size="10.00">Infos.h</text>
</a>
</g>
</g>
<!-- Node16&#45;&gt;Node26 -->
<g id="edge44" class="edge"><title>Node16&#45;&gt;Node26</title>
<path fill="none" stroke="midnightblue" d="M451.28,-336.075C446.242,-309.945 431.45,-233.211 424.581,-197.577"/>
<polygon fill="midnightblue" stroke="midnightblue" points="427.981,-196.725 422.652,-187.568 421.108,-198.05 427.981,-196.725"/>
</g>
<!-- Node17&#45;&gt;Node4 -->
<g id="edge23" class="edge"><title>Node17&#45;&gt;Node4</title>
<path fill="none" stroke="midnightblue" d="M524.475,-280.273C513.372,-253.406 477.111,-170.244 431,-112 422.254,-100.952 410.645,-90.3223 400.815,-82.1704"/>
<polygon fill="midnightblue" stroke="midnightblue" points="402.74,-79.2275 392.751,-75.6963 398.358,-84.686 402.74,-79.2275"/>
</g>
<!-- Node18 -->
<g id="node19" class="node"><title>Node18</title>
<g id="a_node19"><a xlink:href="_square_8h.html" target="_top" xlink:title="Square.h">
<polygon fill="none" stroke="black" points="500,-112.5 500,-131.5 556,-131.5 556,-112.5 500,-112.5"/>
<text text-anchor="middle" x="528" y="-119.5" font-family="Helvetica,sans-Serif" font-size="10.00">Square.h</text>
</a>
</g>
</g>
<!-- Node17&#45;&gt;Node18 -->
<g id="edge24" class="edge"><title>Node17&#45;&gt;Node18</title>
<path fill="none" stroke="midnightblue" d="M528,-280.075C528,-253.945 528,-177.211 528,-141.577"/>
<polygon fill="midnightblue" stroke="midnightblue" points="531.5,-141.568 528,-131.568 524.5,-141.568 531.5,-141.568"/>
</g>
<!-- Node17&#45;&gt;Node20 -->
<g id="edge28" class="edge"><title>Node17&#45;&gt;Node20</title>
<path fill="none" stroke="midnightblue" d="M535.491,-280.072C547.143,-266.599 570.796,-240.858 595,-224 614.091,-210.703 637.719,-199.411 656.51,-191.464"/>
<polygon fill="midnightblue" stroke="midnightblue" points="657.932,-194.664 665.846,-187.62 655.267,-188.191 657.932,-194.664"/>
</g>
<!-- Node17&#45;&gt;Node25 -->
<g id="edge40" class="edge"><title>Node17&#45;&gt;Node25</title>
<path fill="none" stroke="midnightblue" d="M553.156,-280.563C580.172,-271.501 623.306,-257.034 653.708,-246.837"/>
<polygon fill="midnightblue" stroke="midnightblue" points="655.121,-250.055 663.489,-243.556 652.895,-243.418 655.121,-250.055"/>
</g>
<!-- Node18&#45;&gt;Node4 -->
<g id="edge25" class="edge"><title>Node18&#45;&gt;Node4</title>
<path fill="none" stroke="midnightblue" d="M504.707,-112.444C480.193,-103.438 441.404,-89.1891 413.8,-79.049"/>
<polygon fill="midnightblue" stroke="midnightblue" points="414.777,-75.6793 404.184,-75.5164 412.363,-82.25 414.777,-75.6793"/>
</g>
<!-- Node19 -->
<g id="node20" class="node"><title>Node19</title>
<g id="a_node20"><a xlink:href="_etat_8h.html" target="_top" xlink:title="../../Engine/Etat.h">
<polygon fill="none" stroke="black" points="666,-56.5 666,-75.5 760,-75.5 760,-56.5 666,-56.5"/>
<text text-anchor="middle" x="713" y="-63.5" font-family="Helvetica,sans-Serif" font-size="10.00">../../Engine/Etat.h</text>
</a>
</g>
</g>
<!-- Node18&#45;&gt;Node19 -->
<g id="edge26" class="edge"><title>Node18&#45;&gt;Node19</title>
<path fill="none" stroke="midnightblue" d="M556.098,-112.799C587.469,-103.641 638.461,-88.7572 673.759,-78.454"/>
<polygon fill="midnightblue" stroke="midnightblue" points="675.101,-81.7085 683.72,-75.5467 673.14,-74.9889 675.101,-81.7085"/>
</g>
<!-- Node19&#45;&gt;Node8 -->
<g id="edge27" class="edge"><title>Node19&#45;&gt;Node8</title>
<path fill="none" stroke="midnightblue" d="M730.834,-56.324C748.716,-47.6247 776.475,-34.1202 797.046,-24.113"/>
<polygon fill="midnightblue" stroke="midnightblue" points="798.749,-27.1765 806.21,-19.6545 795.687,-20.8819 798.749,-27.1765"/>
</g>
<!-- Node20&#45;&gt;Node8 -->
<g id="edge29" class="edge"><title>Node20&#45;&gt;Node8</title>
<path fill="none" stroke="midnightblue" d="M726.529,-168.458C747.637,-161.83 772.903,-150.548 789,-132 814.47,-102.651 821.445,-55.7435 823.328,-29.7961"/>
<polygon fill="midnightblue" stroke="midnightblue" points="826.825,-29.9542 823.874,-19.7787 819.835,-29.5737 826.825,-29.9542"/>
</g>
<!-- Node20&#45;&gt;Node13 -->
<g id="edge39" class="edge"><title>Node20&#45;&gt;Node13</title>
<path fill="none" stroke="midnightblue" d="M654.816,-168.493C636.007,-161.877 614.257,-150.596 603,-132 593.991,-117.119 592.578,-76.172 609,-56 615.547,-47.9576 670.18,-31.9967 709.222,-21.4086"/>
<polygon fill="midnightblue" stroke="midnightblue" points="710.521,-24.6838 719.269,-18.7082 708.704,-17.9237 710.521,-24.6838"/>
</g>
<!-- Node20&#45;&gt;Node19 -->
<g id="edge31" class="edge"><title>Node20&#45;&gt;Node19</title>
<path fill="none" stroke="midnightblue" d="M690.883,-168.368C694.756,-150.617 703.691,-109.666 708.942,-85.5974"/>
<polygon fill="midnightblue" stroke="midnightblue" points="712.413,-86.1077 711.126,-75.5914 705.574,-84.6155 712.413,-86.1077"/>
</g>
<!-- Node20&#45;&gt;Node21 -->
<g id="edge30" class="edge"><title>Node20&#45;&gt;Node21</title>
<path fill="none" stroke="midnightblue" d="M738.234,-168.471C765.068,-161.935 797.667,-150.741 822,-132 837.872,-119.776 849.768,-99.9484 856.978,-85.4021"/>
<polygon fill="midnightblue" stroke="midnightblue" points="860.341,-86.4705 861.39,-75.9276 853.996,-83.5156 860.341,-86.4705"/>
</g>
<!-- Node22 -->
<g id="node23" class="node"><title>Node22</title>
<g id="a_node23"><a xlink:href="_groupe_8h.html" target="_top" xlink:title="Groupe.h">
<polygon fill="none" stroke="black" points="724,-112.5 724,-131.5 780,-131.5 780,-112.5 724,-112.5"/>
<text text-anchor="middle" x="752" y="-119.5" font-family="Helvetica,sans-Serif" font-size="10.00">Groupe.h</text>
</a>
</g>
</g>
<!-- Node20&#45;&gt;Node22 -->
<g id="edge32" class="edge"><title>Node20&#45;&gt;Node22</title>
<path fill="none" stroke="midnightblue" d="M699.122,-168.324C708.526,-160.263 722.744,-148.077 734.069,-138.369"/>
<polygon fill="midnightblue" stroke="midnightblue" points="736.379,-140.999 741.694,-131.834 731.823,-135.684 736.379,-140.999"/>
</g>
<!-- Node23 -->
<g id="node24" class="node"><title>Node23</title>
<g id="a_node24"><a xlink:href="_history_8h.html" target="_top" xlink:title="History.h">
<polygon fill="none" stroke="black" points="612,-112.5 612,-131.5 668,-131.5 668,-112.5 612,-112.5"/>
<text text-anchor="middle" x="640" y="-119.5" font-family="Helvetica,sans-Serif" font-size="10.00">History.h</text>
</a>
</g>
</g>
<!-- Node20&#45;&gt;Node23 -->
<g id="edge35" class="edge"><title>Node20&#45;&gt;Node23</title>
<path fill="none" stroke="midnightblue" d="M680.909,-168.083C673.845,-160.298 663.412,-148.801 654.851,-139.367"/>
<polygon fill="midnightblue" stroke="midnightblue" points="657.253,-136.805 647.941,-131.751 652.069,-141.509 657.253,-136.805"/>
</g>
<!-- Node22&#45;&gt;Node19 -->
<g id="edge34" class="edge"><title>Node22&#45;&gt;Node19</title>
<path fill="none" stroke="midnightblue" d="M745.56,-112.083C740.051,-104.455 731.969,-93.2645 725.235,-83.9408"/>
<polygon fill="midnightblue" stroke="midnightblue" points="728.013,-81.8087 719.32,-75.7511 722.338,-85.9071 728.013,-81.8087"/>
</g>
<!-- Node22&#45;&gt;Node21 -->
<g id="edge33" class="edge"><title>Node22&#45;&gt;Node21</title>
<path fill="none" stroke="midnightblue" d="M769.905,-112.444C788.254,-103.675 817.005,-89.9355 838.094,-79.8579"/>
<polygon fill="midnightblue" stroke="midnightblue" points="839.665,-82.9862 847.179,-75.5164 836.647,-76.6703 839.665,-82.9862"/>
</g>
<!-- Node23&#45;&gt;Node4 -->
<g id="edge36" class="edge"><title>Node23&#45;&gt;Node4</title>
<path fill="none" stroke="midnightblue" d="M611.789,-115.118C565.451,-105.457 473.111,-86.2047 420.362,-75.2067"/>
<polygon fill="midnightblue" stroke="midnightblue" points="420.869,-71.7373 410.365,-73.1224 419.44,-78.5899 420.869,-71.7373"/>
</g>
<!-- Node23&#45;&gt;Node19 -->
<g id="edge37" class="edge"><title>Node23&#45;&gt;Node19</title>
<path fill="none" stroke="midnightblue" d="M651.729,-112.324C662.837,-104.107 679.742,-91.6017 692.983,-81.8069"/>
<polygon fill="midnightblue" stroke="midnightblue" points="695.1,-84.5948 701.058,-75.8339 690.937,-78.9671 695.1,-84.5948"/>
</g>
<!-- Node24 -->
<g id="node25" class="node"><title>Node24</title>
<polygon fill="none" stroke="#bfbfbf" points="618.5,-56.5 618.5,-75.5 647.5,-75.5 647.5,-56.5 618.5,-56.5"/>
<text text-anchor="middle" x="633" y="-63.5" font-family="Helvetica,sans-Serif" font-size="10.00">list</text>
</g>
<!-- Node23&#45;&gt;Node24 -->
<g id="edge38" class="edge"><title>Node23&#45;&gt;Node24</title>
<path fill="none" stroke="midnightblue" d="M638.844,-112.083C637.916,-104.927 636.582,-94.6353 635.423,-85.6911"/>
<polygon fill="midnightblue" stroke="midnightblue" points="638.891,-85.2181 634.134,-75.7511 631.949,-86.1181 638.891,-85.2181"/>
</g>
<!-- Node25&#45;&gt;Node8 -->
<g id="edge42" class="edge"><title>Node25&#45;&gt;Node8</title>
<path fill="none" stroke="midnightblue" d="M723.438,-224.424C748.489,-217.186 782.513,-205.225 809,-188 838.245,-168.982 843.139,-159.961 864,-132 885.814,-102.761 912.584,-87.9622 895,-56 887.113,-41.6632 872.514,-31.2525 858.597,-24.0792"/>
<polygon fill="midnightblue" stroke="midnightblue" points="859.698,-20.7285 849.161,-19.6217 856.708,-27.0578 859.698,-20.7285"/>
</g>
<!-- Node25&#45;&gt;Node20 -->
<g id="edge41" class="edge"><title>Node25&#45;&gt;Node20</title>
<path fill="none" stroke="midnightblue" d="M689,-224.083C689,-217.006 689,-206.861 689,-197.986"/>
<polygon fill="midnightblue" stroke="midnightblue" points="692.5,-197.751 689,-187.751 685.5,-197.751 692.5,-197.751"/>
</g>
<!-- Node25&#45;&gt;Node21 -->
<g id="edge43" class="edge"><title>Node25&#45;&gt;Node21</title>
<path fill="none" stroke="midnightblue" d="M711.412,-224.419C745.328,-210.3 809.489,-178.969 845,-132 855.226,-118.475 860.273,-99.6692 862.733,-85.7638"/>
<polygon fill="midnightblue" stroke="midnightblue" points="866.197,-86.2621 864.201,-75.857 859.273,-85.2358 866.197,-86.2621"/>
</g>
<!-- Node26&#45;&gt;Node4 -->
<g id="edge45" class="edge"><title>Node26&#45;&gt;Node4</title>
<path fill="none" stroke="midnightblue" d="M421.469,-168.251C421.847,-155.444 421.388,-131.047 414,-112 409.986,-101.652 402.956,-91.554 396.413,-83.5543"/>
<polygon fill="midnightblue" stroke="midnightblue" points="398.868,-81.0432 389.67,-75.7848 393.582,-85.6313 398.868,-81.0432"/>
</g>
<!-- Node26&#45;&gt;Node18 -->
<g id="edge46" class="edge"><title>Node26&#45;&gt;Node18</title>
<path fill="none" stroke="midnightblue" d="M438.191,-168.324C455.351,-159.664 481.946,-146.242 501.747,-136.249"/>
<polygon fill="midnightblue" stroke="midnightblue" points="503.501,-139.285 510.851,-131.655 500.347,-133.035 503.501,-139.285"/>
</g>
<!-- Node27 -->
<g id="node28" class="node"><title>Node27</title>
<g id="a_node28"><a xlink:href="_timer_8h.html" target="_top" xlink:title="Timer.h">
<polygon fill="none" stroke="black" points="356.5,-112.5 356.5,-131.5 405.5,-131.5 405.5,-112.5 356.5,-112.5"/>
<text text-anchor="middle" x="381" y="-119.5" font-family="Helvetica,sans-Serif" font-size="10.00">Timer.h</text>
</a>
</g>
</g>
<!-- Node26&#45;&gt;Node27 -->
<g id="edge47" class="edge"><title>Node26&#45;&gt;Node27</title>
<path fill="none" stroke="midnightblue" d="M414.395,-168.083C408.745,-160.455 400.455,-149.264 393.549,-139.941"/>
<polygon fill="midnightblue" stroke="midnightblue" points="396.247,-137.703 387.482,-131.751 390.622,-141.87 396.247,-137.703"/>
</g>
<!-- Node27&#45;&gt;Node4 -->
<g id="edge48" class="edge"><title>Node27&#45;&gt;Node4</title>
<path fill="none" stroke="midnightblue" d="M381,-112.083C381,-105.006 381,-94.8611 381,-85.9865"/>
<polygon fill="midnightblue" stroke="midnightblue" points="384.5,-85.751 381,-75.7511 377.5,-85.7511 384.5,-85.751"/>
</g>
</g>
</svg>
