<?xml version="1.0" encoding="UTF-8" standalone="no"?>
<!DOCTYPE svg PUBLIC "-//W3C//DTD SVG 1.1//EN"
 "http://www.w3.org/Graphics/SVG/1.1/DTD/svg11.dtd">
<!-- Generated by graphviz version 2.38.0 (20140413.2041)
 -->
<!-- Title: D:/Users/Victor/OneDrive/Documents/Visual Studio 2017/Projects/Jeu_de_Go/Jeu_de_Go/Sources/Graphics/Menu.h Pages: 1 -->
<svg width="574pt" height="261pt"
 viewBox="0.00 0.00 574.00 261.00" xmlns="http://www.w3.org/2000/svg" xmlns:xlink="http://www.w3.org/1999/xlink">
<g id="graph0" class="graph" transform="scale(1 1) rotate(0) translate(4 257)">
<title>D:/Users/Victor/OneDrive/Documents/Visual Studio 2017/Projects/Jeu_de_Go/Jeu_de_Go/Sources/Graphics/Menu.h</title>
<!-- Node27 -->
<g id="node1" class="node"><title>Node27</title>
<polygon fill="#bfbfbf" stroke="black" points="232,-200.5 232,-252.5 417,-252.5 417,-200.5 232,-200.5"/>
<text text-anchor="start" x="240" y="-240.5" font-family="Helvetica,sans-Serif" font-size="10.00">D:/Users/Victor/OneDrive</text>
<text text-anchor="start" x="240" y="-229.5" font-family="Helvetica,sans-Serif" font-size="10.00">/Documents/Visual Studio</text>
<text text-anchor="start" x="240" y="-218.5" font-family="Helvetica,sans-Serif" font-size="10.00"> 2017/Projects/Jeu_de_Go</text>
<text text-anchor="middle" x="324.5" y="-207.5" font-family="Helvetica,sans-Serif" font-size="10.00">/Jeu_de_Go/Sources/Graphics/Menu.h</text>
</g>
<!-- Node28 -->
<g id="node2" class="node"><title>Node28</title>
<g id="a_node2"><a xlink:href="_menu__simple_8h.html" target="_top" xlink:title="D:/Users/Victor/OneDrive\l/Documents/Visual Studio\l 2017/Projects/Jeu_de_Go\l/Jeu_de_Go/Sources/Graphics\l/Menu_simple.h">
<polygon fill="none" stroke="black" points="83,-100.5 83,-163.5 232,-163.5 232,-100.5 83,-100.5"/>
<text text-anchor="start" x="91" y="-151.5" font-family="Helvetica,sans-Serif" font-size="10.00">D:/Users/Victor/OneDrive</text>
<text text-anchor="start" x="91" y="-140.5" font-family="Helvetica,sans-Serif" font-size="10.00">/Documents/Visual Studio</text>
<text text-anchor="start" x="91" y="-129.5" font-family="Helvetica,sans-Serif" font-size="10.00"> 2017/Projects/Jeu_de_Go</text>
<text text-anchor="start" x="91" y="-118.5" font-family="Helvetica,sans-Serif" font-size="10.00">/Jeu_de_Go/Sources/Graphics</text>
<text text-anchor="middle" x="157.5" y="-107.5" font-family="Helvetica,sans-Serif" font-size="10.00">/Menu_simple.h</text>
</a>
</g>
</g>
<!-- Node27&#45;&gt;Node28 -->
<g id="edge1" class="edge"><title>Node27&#45;&gt;Node28</title>
<path fill="none" stroke="midnightblue" d="M270.454,-195.564C252.021,-185.355 231.393,-173.929 212.859,-163.663"/>
<polygon fill="midnightblue" stroke="midnightblue" points="268.864,-198.685 279.307,-200.468 272.256,-192.561 268.864,-198.685"/>
</g>
<!-- Node31 -->
<g id="node5" class="node"><title>Node31</title>
<g id="a_node5"><a xlink:href="_menu___miniature_8h.html" target="_top" xlink:title="D:/Users/Victor/OneDrive\l/Documents/Visual Studio\l 2017/Projects/Jeu_de_Go\l/Jeu_de_Go/Sources/Graphics\l/Menu_Miniature.h">
<polygon fill="none" stroke="black" points="250,-100.5 250,-163.5 399,-163.5 399,-100.5 250,-100.5"/>
<text text-anchor="start" x="258" y="-151.5" font-family="Helvetica,sans-Serif" font-size="10.00">D:/Users/Victor/OneDrive</text>
<text text-anchor="start" x="258" y="-140.5" font-family="Helvetica,sans-Serif" font-size="10.00">/Documents/Visual Studio</text>
<text text-anchor="start" x="258" y="-129.5" font-family="Helvetica,sans-Serif" font-size="10.00"> 2017/Projects/Jeu_de_Go</text>
<text text-anchor="start" x="258" y="-118.5" font-family="Helvetica,sans-Serif" font-size="10.00">/Jeu_de_Go/Sources/Graphics</text>
<text text-anchor="middle" x="324.5" y="-107.5" font-family="Helvetica,sans-Serif" font-size="10.00">/Menu_Miniature.h</text>
</a>
</g>
</g>
<!-- Node27&#45;&gt;Node31 -->
<g id="edge4" class="edge"><title>Node27&#45;&gt;Node31</title>
<path fill="none" stroke="midnightblue" d="M324.5,-189.945C324.5,-181.226 324.5,-171.97 324.5,-163.512"/>
<polygon fill="midnightblue" stroke="midnightblue" points="321,-190.224 324.5,-200.224 328,-190.224 321,-190.224"/>
</g>
<!-- Node33 -->
<g id="node7" class="node"><title>Node33</title>
<g id="a_node7"><a xlink:href="_menu_8cpp.html" target="_top" xlink:title="D:/Users/Victor/OneDrive\l/Documents/Visual Studio\l 2017/Projects/Jeu_de_Go\l/Jeu_de_Go/Sources/Graphics\l/Menu.cpp">
<polygon fill="none" stroke="black" points="417,-100.5 417,-163.5 566,-163.5 566,-100.5 417,-100.5"/>
<text text-anchor="start" x="425" y="-151.5" font-family="Helvetica,sans-Serif" font-size="10.00">D:/Users/Victor/OneDrive</text>
<text text-anchor="start" x="425" y="-140.5" font-family="Helvetica,sans-Serif" font-size="10.00">/Documents/Visual Studio</text>
<text text-anchor="start" x="425" y="-129.5" font-family="Helvetica,sans-Serif" font-size="10.00"> 2017/Projects/Jeu_de_Go</text>
<text text-anchor="start" x="425" y="-118.5" font-family="Helvetica,sans-Serif" font-size="10.00">/Jeu_de_Go/Sources/Graphics</text>
<text text-anchor="middle" x="491.5" y="-107.5" font-family="Helvetica,sans-Serif" font-size="10.00">/Menu.cpp</text>
</a>
</g>
</g>
<!-- Node27&#45;&gt;Node33 -->
<g id="edge7" class="edge"><title>Node27&#45;&gt;Node33</title>
<path fill="none" stroke="midnightblue" d="M378.546,-195.564C396.979,-185.355 417.607,-173.929 436.141,-163.663"/>
<polygon fill="midnightblue" stroke="midnightblue" points="376.744,-192.561 369.693,-200.468 380.136,-198.685 376.744,-192.561"/>
</g>
<!-- Node29 -->
<g id="node3" class="node"><title>Node29</title>
<g id="a_node3"><a xlink:href="_main_8cpp.html" target="_top" xlink:title="D:/Users/Victor/OneDrive\l/Documents/Visual Studio\l 2017/Projects/Jeu_de_Go\l/Jeu_de_Go/Sources/Graphics\l/Main.cpp">
<polygon fill="none" stroke="black" points="167,-0.5 167,-63.5 316,-63.5 316,-0.5 167,-0.5"/>
<text text-anchor="start" x="175" y="-51.5" font-family="Helvetica,sans-Serif" font-size="10.00">D:/Users/Victor/OneDrive</text>
<text text-anchor="start" x="175" y="-40.5" font-family="Helvetica,sans-Serif" font-size="10.00">/Documents/Visual Studio</text>
<text text-anchor="start" x="175" y="-29.5" font-family="Helvetica,sans-Serif" font-size="10.00"> 2017/Projects/Jeu_de_Go</text>
<text text-anchor="start" x="175" y="-18.5" font-family="Helvetica,sans-Serif" font-size="10.00">/Jeu_de_Go/Sources/Graphics</text>
<text text-anchor="middle" x="241.5" y="-7.5" font-family="Helvetica,sans-Serif" font-size="10.00">/Main.cpp</text>
</a>
</g>
</g>
<!-- Node28&#45;&gt;Node29 -->
<g id="edge2" class="edge"><title>Node28&#45;&gt;Node29</title>
<path fill="none" stroke="midnightblue" d="M190.585,-92.4011C198.772,-82.8488 207.434,-72.7436 215.246,-63.6299"/>
<polygon fill="midnightblue" stroke="midnightblue" points="187.698,-90.3907 183.848,-100.261 193.013,-94.9463 187.698,-90.3907"/>
</g>
<!-- Node30 -->
<g id="node4" class="node"><title>Node30</title>
<g id="a_node4"><a xlink:href="_menu__simple_8cpp.html" target="_top" xlink:title="D:/Users/Victor/OneDrive\l/Documents/Visual Studio\l 2017/Projects/Jeu_de_Go\l/Jeu_de_Go/Sources/Graphics\l/Menu_simple.cpp">
<polygon fill="none" stroke="black" points="0,-0.5 0,-63.5 149,-63.5 149,-0.5 0,-0.5"/>
<text text-anchor="start" x="8" y="-51.5" font-family="Helvetica,sans-Serif" font-size="10.00">D:/Users/Victor/OneDrive</text>
<text text-anchor="start" x="8" y="-40.5" font-family="Helvetica,sans-Serif" font-size="10.00">/Documents/Visual Studio</text>
<text text-anchor="start" x="8" y="-29.5" font-family="Helvetica,sans-Serif" font-size="10.00"> 2017/Projects/Jeu_de_Go</text>
<text text-anchor="start" x="8" y="-18.5" font-family="Helvetica,sans-Serif" font-size="10.00">/Jeu_de_Go/Sources/Graphics</text>
<text text-anchor="middle" x="74.5" y="-7.5" font-family="Helvetica,sans-Serif" font-size="10.00">/Menu_simple.cpp</text>
</a>
</g>
</g>
<!-- Node28&#45;&gt;Node30 -->
<g id="edge3" class="edge"><title>Node28&#45;&gt;Node30</title>
<path fill="none" stroke="midnightblue" d="M124.809,-92.4011C116.719,-82.8488 108.16,-72.7436 100.442,-63.6299"/>
<polygon fill="midnightblue" stroke="midnightblue" points="122.332,-94.8922 131.466,-100.261 127.674,-90.3681 122.332,-94.8922"/>
</g>
<!-- Node31&#45;&gt;Node29 -->
<g id="edge5" class="edge"><title>Node31&#45;&gt;Node29</title>
<path fill="none" stroke="midnightblue" d="M291.809,-92.4011C283.719,-82.8488 275.16,-72.7436 267.442,-63.6299"/>
<polygon fill="midnightblue" stroke="midnightblue" points="289.332,-94.8922 298.466,-100.261 294.674,-90.3681 289.332,-94.8922"/>
</g>
<!-- Node32 -->
<g id="node6" class="node"><title>Node32</title>
<g id="a_node6"><a xlink:href="_menu___miniature_8cpp.html" target="_top" xlink:title="D:/Users/Victor/OneDrive\l/Documents/Visual Studio\l 2017/Projects/Jeu_de_Go\l/Jeu_de_Go/Sources/Graphics\l/Menu_Miniature.cpp">
<polygon fill="none" stroke="black" points="334,-0.5 334,-63.5 483,-63.5 483,-0.5 334,-0.5"/>
<text text-anchor="start" x="342" y="-51.5" font-family="Helvetica,sans-Serif" font-size="10.00">D:/Users/Victor/OneDrive</text>
<text text-anchor="start" x="342" y="-40.5" font-family="Helvetica,sans-Serif" font-size="10.00">/Documents/Visual Studio</text>
<text text-anchor="start" x="342" y="-29.5" font-family="Helvetica,sans-Serif" font-size="10.00"> 2017/Projects/Jeu_de_Go</text>
<text text-anchor="start" x="342" y="-18.5" font-family="Helvetica,sans-Serif" font-size="10.00">/Jeu_de_Go/Sources/Graphics</text>
<text text-anchor="middle" x="408.5" y="-7.5" font-family="Helvetica,sans-Serif" font-size="10.00">/Menu_Miniature.cpp</text>
</a>
</g>
</g>
<!-- Node31&#45;&gt;Node32 -->
<g id="edge6" class="edge"><title>Node31&#45;&gt;Node32</title>
<path fill="none" stroke="midnightblue" d="M357.585,-92.4011C365.772,-82.8488 374.434,-72.7436 382.246,-63.6299"/>
<polygon fill="midnightblue" stroke="midnightblue" points="354.698,-90.3907 350.848,-100.261 360.013,-94.9463 354.698,-90.3907"/>
</g>
</g>
</svg>
