<?xml version="1.0" encoding="UTF-8" standalone="no"?>
<!DOCTYPE svg PUBLIC "-//W3C//DTD SVG 1.1//EN"
 "http://www.w3.org/Graphics/SVG/1.1/DTD/svg11.dtd">
<!-- Generated by graphviz version 2.38.0 (20140413.2041)
 -->
<!-- Title: D:/Users/Victor/OneDrive/Documents/Visual Studio 2017/Projects/Jeu_de_Go/Jeu_de_Go/Sources/Graphics/Menu_simple.h Pages: 1 -->
<svg width="1009pt" height="576pt"
 viewBox="0.00 0.00 1009.00 576.00" xmlns="http://www.w3.org/2000/svg" xmlns:xlink="http://www.w3.org/1999/xlink">
<g id="graph0" class="graph" transform="scale(1 1) rotate(0) translate(4 572)">
<title>D:/Users/Victor/OneDrive/Documents/Visual Studio 2017/Projects/Jeu_de_Go/Jeu_de_Go/Sources/Graphics/Menu_simple.h</title>
<!-- Node0 -->
<g id="node1" class="node"><title>Node0</title>
<polygon fill="#bfbfbf" stroke="black" points="466.5,-504.5 466.5,-567.5 615.5,-567.5 615.5,-504.5 466.5,-504.5"/>
<text text-anchor="start" x="474.5" y="-555.5" font-family="Helvetica,sans-Serif" font-size="10.00">D:/Users/Victor/OneDrive</text>
<text text-anchor="start" x="474.5" y="-544.5" font-family="Helvetica,sans-Serif" font-size="10.00">/Documents/Visual Studio</text>
<text text-anchor="start" x="474.5" y="-533.5" font-family="Helvetica,sans-Serif" font-size="10.00"> 2017/Projects/Jeu_de_Go</text>
<text text-anchor="start" x="474.5" y="-522.5" font-family="Helvetica,sans-Serif" font-size="10.00">/Jeu_de_Go/Sources/Graphics</text>
<text text-anchor="middle" x="541" y="-511.5" font-family="Helvetica,sans-Serif" font-size="10.00">/Menu_simple.h</text>
</g>
<!-- Node1 -->
<g id="node2" class="node"><title>Node1</title>
<g id="a_node2"><a xlink:href="_menu_8h.html" target="_top" xlink:title="Menu.h">
<polygon fill="none" stroke="black" points="313.5,-448.5 313.5,-467.5 362.5,-467.5 362.5,-448.5 313.5,-448.5"/>
<text text-anchor="middle" x="338" y="-455.5" font-family="Helvetica,sans-Serif" font-size="10.00">Menu.h</text>
</a>
</g>
</g>
<!-- Node0&#45;&gt;Node1 -->
<g id="edge1" class="edge"><title>Node0&#45;&gt;Node1</title>
<path fill="none" stroke="midnightblue" d="M466.275,-507.024C433.34,-494.694 396.355,-480.847 370.591,-471.202"/>
<polygon fill="midnightblue" stroke="midnightblue" points="371.553,-467.824 360.96,-467.596 369.098,-474.38 371.553,-467.824"/>
</g>
<!-- Node28 -->
<g id="node29" class="node"><title>Node28</title>
<g id="a_node29"><a xlink:href="_choice___simple_8h.html" target="_top" xlink:title="Choice_Simple.h">
<polygon fill="none" stroke="black" points="700,-448.5 700,-467.5 790,-467.5 790,-448.5 700,-448.5"/>
<text text-anchor="middle" x="745" y="-455.5" font-family="Helvetica,sans-Serif" font-size="10.00">Choice_Simple.h</text>
</a>
</g>
</g>
<!-- Node0&#45;&gt;Node28 -->
<g id="edge55" class="edge"><title>Node0&#45;&gt;Node28</title>
<path fill="none" stroke="midnightblue" d="M615.515,-507.24C648.82,-494.832 686.35,-480.85 712.398,-471.146"/>
<polygon fill="midnightblue" stroke="midnightblue" points="713.637,-474.419 721.786,-467.649 711.193,-467.86 713.637,-474.419"/>
</g>
<!-- Node2 -->
<g id="node3" class="node"><title>Node2</title>
<g id="a_node3"><a xlink:href="_screen_8h.html" target="_top" xlink:title="Screen.h">
<polygon fill="none" stroke="black" points="170,-224.5 170,-243.5 226,-243.5 226,-224.5 170,-224.5"/>
<text text-anchor="middle" x="198" y="-231.5" font-family="Helvetica,sans-Serif" font-size="10.00">Screen.h</text>
</a>
</g>
</g>
<!-- Node1&#45;&gt;Node2 -->
<g id="edge2" class="edge"><title>Node1&#45;&gt;Node2</title>
<path fill="none" stroke="midnightblue" d="M327.135,-448.413C307.388,-432.284 265.403,-395.506 241,-356 220.477,-322.775 207.907,-278.365 202.015,-253.633"/>
<polygon fill="midnightblue" stroke="midnightblue" points="205.402,-252.742 199.774,-243.766 198.576,-254.293 205.402,-252.742"/>
</g>
<!-- Node3 -->
<g id="node4" class="node"><title>Node3</title>
<polygon fill="none" stroke="#bfbfbf" points="0,-0.5 0,-19.5 104,-19.5 104,-0.5 0,-0.5"/>
<text text-anchor="middle" x="52" y="-7.5" font-family="Helvetica,sans-Serif" font-size="10.00">SFML/Graphics.hpp</text>
</g>
<!-- Node1&#45;&gt;Node3 -->
<g id="edge54" class="edge"><title>Node1&#45;&gt;Node3</title>
<path fill="none" stroke="midnightblue" d="M313.378,-457.309C249.969,-456.695 86,-445.576 86,-347 86,-347 86,-347 86,-121 86,-87.1598 71.1305,-49.9705 61.0583,-28.6613"/>
<polygon fill="midnightblue" stroke="midnightblue" points="64.1375,-26.9912 56.5854,-19.5604 57.8552,-30.0788 64.1375,-26.9912"/>
</g>
<!-- Node4 -->
<g id="node5" class="node"><title>Node4</title>
<g id="a_node5"><a xlink:href="_globals_8h.html" target="_top" xlink:title="Globals.h">
<polygon fill="none" stroke="black" points="370,-56.5 370,-75.5 428,-75.5 428,-56.5 370,-56.5"/>
<text text-anchor="middle" x="399" y="-63.5" font-family="Helvetica,sans-Serif" font-size="10.00">Globals.h</text>
</a>
</g>
</g>
<!-- Node1&#45;&gt;Node4 -->
<g id="edge52" class="edge"><title>Node1&#45;&gt;Node4</title>
<path fill="none" stroke="midnightblue" d="M313.448,-454.711C260.639,-448.298 141,-425.148 141,-347 141,-347 141,-347 141,-233 141,-168.285 169.14,-149.334 222,-112 263.073,-82.9915 321.184,-72.6544 359.461,-68.9877"/>
<polygon fill="midnightblue" stroke="midnightblue" points="360.032,-72.452 369.701,-68.1204 359.441,-65.477 360.032,-72.452"/>
</g>
<!-- Node14 -->
<g id="node15" class="node"><title>Node14</title>
<g id="a_node15"><a xlink:href="_choice_8h.html" target="_top" xlink:title="Choice.h">
<polygon fill="none" stroke="black" points="877.5,-392.5 877.5,-411.5 932.5,-411.5 932.5,-392.5 877.5,-392.5"/>
<text text-anchor="middle" x="905" y="-399.5" font-family="Helvetica,sans-Serif" font-size="10.00">Choice.h</text>
</a>
</g>
</g>
<!-- Node1&#45;&gt;Node14 -->
<g id="edge15" class="edge"><title>Node1&#45;&gt;Node14</title>
<path fill="none" stroke="midnightblue" d="M362.729,-455.985C438.13,-452.654 671.643,-440.588 863,-412 864.286,-411.808 865.592,-411.6 866.909,-411.38"/>
<polygon fill="midnightblue" stroke="midnightblue" points="867.881,-414.759 877.075,-409.495 866.605,-407.877 867.881,-414.759"/>
</g>
<!-- Node21 -->
<g id="node22" class="node"><title>Node21</title>
<polygon fill="none" stroke="#bfbfbf" points="809,-56.5 809,-75.5 851,-75.5 851,-56.5 809,-56.5"/>
<text text-anchor="middle" x="830" y="-63.5" font-family="Helvetica,sans-Serif" font-size="10.00">vector</text>
</g>
<!-- Node1&#45;&gt;Node21 -->
<g id="edge53" class="edge"><title>Node1&#45;&gt;Node21</title>
<path fill="none" stroke="midnightblue" d="M362.82,-449.082C407.475,-434.288 503.549,-399.933 577,-356 706.46,-278.567 776.862,-272.412 832,-132 837.803,-117.222 836.627,-99.0659 834.389,-85.7023"/>
<polygon fill="midnightblue" stroke="midnightblue" points="837.796,-84.894 832.388,-75.7834 830.934,-86.278 837.796,-84.894"/>
</g>
<!-- Node2&#45;&gt;Node3 -->
<g id="edge3" class="edge"><title>Node2&#45;&gt;Node3</title>
<path fill="none" stroke="midnightblue" d="M194.365,-224.318C182.935,-197.581 145.753,-114.751 100,-56 91.5319,-45.1261 80.3835,-34.5061 70.9624,-26.3161"/>
<polygon fill="midnightblue" stroke="midnightblue" points="73.1387,-23.5729 63.2387,-19.7991 68.6245,-28.923 73.1387,-23.5729"/>
</g>
<!-- Node2&#45;&gt;Node4 -->
<g id="edge4" class="edge"><title>Node2&#45;&gt;Node4</title>
<path fill="none" stroke="midnightblue" d="M198.471,-224.229C200.145,-202.049 207.666,-143.266 241,-112 273.143,-81.8506 324.045,-71.7024 359.351,-68.3945"/>
<polygon fill="midnightblue" stroke="midnightblue" points="360.075,-71.8483 369.769,-67.5729 359.525,-64.87 360.075,-71.8483"/>
</g>
<!-- Node4&#45;&gt;Node3 -->
<g id="edge5" class="edge"><title>Node4&#45;&gt;Node3</title>
<path fill="none" stroke="midnightblue" d="M369.714,-60.4425C313.613,-51.7121 189.875,-32.4561 114.445,-20.7177"/>
<polygon fill="midnightblue" stroke="midnightblue" points="114.554,-17.1926 104.135,-19.1132 113.477,-24.1093 114.554,-17.1926"/>
</g>
<!-- Node5 -->
<g id="node6" class="node"><title>Node5</title>
<polygon fill="none" stroke="#bfbfbf" points="257,-0.5 257,-19.5 355,-19.5 355,-0.5 257,-0.5"/>
<text text-anchor="middle" x="306" y="-7.5" font-family="Helvetica,sans-Serif" font-size="10.00">SFML/System.hpp</text>
</g>
<!-- Node4&#45;&gt;Node5 -->
<g id="edge6" class="edge"><title>Node4&#45;&gt;Node5</title>
<path fill="none" stroke="midnightblue" d="M384.058,-56.324C369.415,-47.8215 346.866,-34.7288 329.762,-24.7975"/>
<polygon fill="midnightblue" stroke="midnightblue" points="331.31,-21.6491 320.905,-19.6545 327.795,-27.7027 331.31,-21.6491"/>
</g>
<!-- Node6 -->
<g id="node7" class="node"><title>Node6</title>
<polygon fill="none" stroke="#bfbfbf" points="373.5,-0.5 373.5,-19.5 472.5,-19.5 472.5,-0.5 373.5,-0.5"/>
<text text-anchor="middle" x="423" y="-7.5" font-family="Helvetica,sans-Serif" font-size="10.00">SFML/Window.hpp</text>
</g>
<!-- Node4&#45;&gt;Node6 -->
<g id="edge7" class="edge"><title>Node4&#45;&gt;Node6</title>
<path fill="none" stroke="midnightblue" d="M402.963,-56.083C406.213,-48.77 410.919,-38.1814 414.954,-29.1034"/>
<polygon fill="midnightblue" stroke="midnightblue" points="418.248,-30.3107 419.111,-19.7511 411.851,-27.4677 418.248,-30.3107"/>
</g>
<!-- Node7 -->
<g id="node8" class="node"><title>Node7</title>
<polygon fill="none" stroke="#bfbfbf" points="490.5,-0.5 490.5,-19.5 579.5,-19.5 579.5,-0.5 490.5,-0.5"/>
<text text-anchor="middle" x="535" y="-7.5" font-family="Helvetica,sans-Serif" font-size="10.00">SFML/Audio.hpp</text>
</g>
<!-- Node4&#45;&gt;Node7 -->
<g id="edge8" class="edge"><title>Node4&#45;&gt;Node7</title>
<path fill="none" stroke="midnightblue" d="M420.55,-56.4435C443.031,-47.5171 478.488,-33.4387 503.98,-23.3168"/>
<polygon fill="midnightblue" stroke="midnightblue" points="505.549,-26.4598 513.551,-19.5164 502.965,-19.9539 505.549,-26.4598"/>
</g>
<!-- Node8 -->
<g id="node9" class="node"><title>Node8</title>
<polygon fill="none" stroke="#bfbfbf" points="738,-0.5 738,-19.5 792,-19.5 792,-0.5 738,-0.5"/>
<text text-anchor="middle" x="765" y="-7.5" font-family="Helvetica,sans-Serif" font-size="10.00">iostream</text>
</g>
<!-- Node4&#45;&gt;Node8 -->
<g id="edge9" class="edge"><title>Node4&#45;&gt;Node8</title>
<path fill="none" stroke="midnightblue" d="M428.209,-62.0241C485.836,-55.9285 618.115,-40.8224 728,-20 728.101,-19.9808 728.203,-19.9614 728.305,-19.942"/>
<polygon fill="midnightblue" stroke="midnightblue" points="728.924,-23.3884 737.992,-17.9087 727.486,-16.5377 728.924,-23.3884"/>
</g>
<!-- Node9 -->
<g id="node10" class="node"><title>Node9</title>
<polygon fill="none" stroke="#bfbfbf" points="597.5,-0.5 597.5,-19.5 642.5,-19.5 642.5,-0.5 597.5,-0.5"/>
<text text-anchor="middle" x="620" y="-7.5" font-family="Helvetica,sans-Serif" font-size="10.00">cstdlib</text>
</g>
<!-- Node4&#45;&gt;Node9 -->
<g id="edge10" class="edge"><title>Node4&#45;&gt;Node9</title>
<path fill="none" stroke="midnightblue" d="M428.231,-58.4261C463.557,-50.3973 525.03,-36.159 587.307,-20.0978"/>
<polygon fill="midnightblue" stroke="midnightblue" points="588.504,-23.4033 597.305,-17.5052 586.747,-16.6275 588.504,-23.4033"/>
</g>
<!-- Node10 -->
<g id="node11" class="node"><title>Node10</title>
<polygon fill="none" stroke="#bfbfbf" points="904.5,-0.5 904.5,-19.5 945.5,-19.5 945.5,-0.5 904.5,-0.5"/>
<text text-anchor="middle" x="925" y="-7.5" font-family="Helvetica,sans-Serif" font-size="10.00">string</text>
</g>
<!-- Node4&#45;&gt;Node10 -->
<g id="edge11" class="edge"><title>Node4&#45;&gt;Node10</title>
<path fill="none" stroke="midnightblue" d="M428.029,-62.0198C519.391,-52.6405 800.508,-23.7805 894.232,-14.1587"/>
<polygon fill="midnightblue" stroke="midnightblue" points="894.869,-17.6117 904.46,-13.1087 894.155,-10.6483 894.869,-17.6117"/>
</g>
<!-- Node11 -->
<g id="node12" class="node"><title>Node11</title>
<polygon fill="none" stroke="#bfbfbf" points="122.5,-0.5 122.5,-19.5 171.5,-19.5 171.5,-0.5 122.5,-0.5"/>
<text text-anchor="middle" x="147" y="-7.5" font-family="Helvetica,sans-Serif" font-size="10.00">fstream</text>
</g>
<!-- Node4&#45;&gt;Node11 -->
<g id="edge12" class="edge"><title>Node4&#45;&gt;Node11</title>
<path fill="none" stroke="midnightblue" d="M369.822,-59.6165C329.532,-52.0503 254.396,-37.4648 181.609,-20.2814"/>
<polygon fill="midnightblue" stroke="midnightblue" points="182.362,-16.8628 171.823,-17.9516 180.74,-23.6724 182.362,-16.8628"/>
</g>
<!-- Node12 -->
<g id="node13" class="node"><title>Node12</title>
<polygon fill="none" stroke="#bfbfbf" points="189.5,-0.5 189.5,-19.5 238.5,-19.5 238.5,-0.5 189.5,-0.5"/>
<text text-anchor="middle" x="214" y="-7.5" font-family="Helvetica,sans-Serif" font-size="10.00">cassert</text>
</g>
<!-- Node4&#45;&gt;Node12 -->
<g id="edge13" class="edge"><title>Node4&#45;&gt;Node12</title>
<path fill="none" stroke="midnightblue" d="M369.686,-56.4435C336.767,-46.8346 283.395,-31.2558 248.494,-21.0686"/>
<polygon fill="midnightblue" stroke="midnightblue" points="249.316,-17.6626 238.736,-18.2203 247.355,-24.3822 249.316,-17.6626"/>
</g>
<!-- Node13 -->
<g id="node14" class="node"><title>Node13</title>
<polygon fill="none" stroke="#bfbfbf" points="660.5,-0.5 660.5,-19.5 719.5,-19.5 719.5,-0.5 660.5,-0.5"/>
<text text-anchor="middle" x="690" y="-7.5" font-family="Helvetica,sans-Serif" font-size="10.00">stdexcept</text>
</g>
<!-- Node4&#45;&gt;Node13 -->
<g id="edge14" class="edge"><title>Node4&#45;&gt;Node13</title>
<path fill="none" stroke="midnightblue" d="M428.193,-60.2751C473.489,-52.8384 563.651,-37.6158 650.231,-20.0717"/>
<polygon fill="midnightblue" stroke="midnightblue" points="651.125,-23.4617 660.223,-18.0333 649.725,-16.603 651.125,-23.4617"/>
</g>
<!-- Node14&#45;&gt;Node4 -->
<g id="edge16" class="edge"><title>Node14&#45;&gt;Node4</title>
<path fill="none" stroke="midnightblue" d="M877.248,-400.59C804.796,-399.03 604.314,-391.566 442,-356 356.05,-337.167 255,-378.989 255,-291 255,-291 255,-291 255,-177 255,-146.902 253.378,-133.923 274,-112 296.35,-88.2389 332.158,-76.9974 359.731,-71.6945"/>
<polygon fill="midnightblue" stroke="midnightblue" points="360.596,-75.0968 369.85,-69.9391 359.399,-68.1998 360.596,-75.0968"/>
</g>
<!-- Node14&#45;&gt;Node8 -->
<g id="edge19" class="edge"><title>Node14&#45;&gt;Node8</title>
<path fill="none" stroke="midnightblue" d="M914.669,-392.247C923.486,-383.772 936.279,-370.159 944,-356 958.41,-329.576 963,-321.098 963,-291 963,-291 963,-291 963,-121 963,-48.2567 859.613,-23.2054 802.255,-14.9046"/>
<polygon fill="midnightblue" stroke="midnightblue" points="802.493,-11.4052 792.116,-13.5419 801.561,-18.3428 802.493,-11.4052"/>
</g>
<!-- Node14&#45;&gt;Node10 -->
<g id="edge17" class="edge"><title>Node14&#45;&gt;Node10</title>
<path fill="none" stroke="midnightblue" d="M925.933,-392.462C941.91,-384.983 963.418,-372.694 977,-356 996.434,-332.112 1001,-321.795 1001,-291 1001,-291 1001,-291 1001,-121 1001,-90.2048 994.53,-81.3191 977,-56 968.824,-44.1903 956.847,-33.5418 946.448,-25.5714"/>
<polygon fill="midnightblue" stroke="midnightblue" points="948.34,-22.6188 938.203,-19.5395 944.207,-28.2685 948.34,-22.6188"/>
</g>
<!-- Node15 -->
<g id="node16" class="node"><title>Node15</title>
<polygon fill="none" stroke="#bfbfbf" points="877,-336.5 877,-355.5 935,-355.5 935,-336.5 877,-336.5"/>
<text text-anchor="middle" x="906" y="-343.5" font-family="Helvetica,sans-Serif" font-size="10.00">functional</text>
</g>
<!-- Node14&#45;&gt;Node15 -->
<g id="edge18" class="edge"><title>Node14&#45;&gt;Node15</title>
<path fill="none" stroke="midnightblue" d="M905.165,-392.083C905.296,-385.006 905.484,-374.861 905.648,-365.986"/>
<polygon fill="midnightblue" stroke="midnightblue" points="909.152,-365.814 905.838,-355.751 902.153,-365.685 909.152,-365.814"/>
</g>
<!-- Node16 -->
<g id="node17" class="node"><title>Node16</title>
<g id="a_node17"><a xlink:href="_game__window_8h.html" target="_top" xlink:title="Game/Game_window.h">
<polygon fill="none" stroke="black" points="451.5,-336.5 451.5,-355.5 568.5,-355.5 568.5,-336.5 451.5,-336.5"/>
<text text-anchor="middle" x="510" y="-343.5" font-family="Helvetica,sans-Serif" font-size="10.00">Game/Game_window.h</text>
</a>
</g>
</g>
<!-- Node14&#45;&gt;Node16 -->
<g id="edge20" class="edge"><title>Node14&#45;&gt;Node16</title>
<path fill="none" stroke="midnightblue" d="M877.224,-397.203C815.76,-388.8 666.717,-368.425 578.559,-356.373"/>
<polygon fill="midnightblue" stroke="midnightblue" points="579.029,-352.904 568.647,-355.018 578.08,-359.84 579.029,-352.904"/>
</g>
<!-- Node16&#45;&gt;Node2 -->
<g id="edge50" class="edge"><title>Node16&#45;&gt;Node2</title>
<path fill="none" stroke="midnightblue" d="M469.912,-336.425C435.087,-328.496 383.543,-315.6 340,-300 297.989,-284.949 251.3,-262.382 223.315,-248.186"/>
<polygon fill="midnightblue" stroke="midnightblue" points="224.731,-244.979 214.234,-243.54 221.542,-251.211 224.731,-244.979"/>
</g>
<!-- Node16&#45;&gt;Node4 -->
<g id="edge21" class="edge"><title>Node16&#45;&gt;Node4</title>
<path fill="none" stroke="midnightblue" d="M490.155,-336.391C458.228,-321.043 399,-285.734 399,-235 399,-235 399,-235 399,-177 399,-144.948 399,-107.643 399,-85.7489"/>
<polygon fill="midnightblue" stroke="midnightblue" points="402.5,-85.5577 399,-75.5578 395.5,-85.5578 402.5,-85.5577"/>
</g>
<!-- Node17 -->
<g id="node18" class="node"><title>Node17</title>
<g id="a_node18"><a xlink:href="_board_8h.html" target="_top" xlink:title="Board.h">
<polygon fill="none" stroke="black" points="485,-280.5 485,-299.5 535,-299.5 535,-280.5 485,-280.5"/>
<text text-anchor="middle" x="510" y="-287.5" font-family="Helvetica,sans-Serif" font-size="10.00">Board.h</text>
</a>
</g>
</g>
<!-- Node16&#45;&gt;Node17 -->
<g id="edge22" class="edge"><title>Node16&#45;&gt;Node17</title>
<path fill="none" stroke="midnightblue" d="M510,-336.083C510,-329.006 510,-318.861 510,-309.986"/>
<polygon fill="midnightblue" stroke="midnightblue" points="513.5,-309.751 510,-299.751 506.5,-309.751 513.5,-309.751"/>
</g>
<!-- Node20 -->
<g id="node21" class="node"><title>Node20</title>
<g id="a_node21"><a xlink:href="_goban_8h.html" target="_top" xlink:title="../../Engine/Goban.h">
<polygon fill="none" stroke="black" points="606,-168.5 606,-187.5 710,-187.5 710,-168.5 606,-168.5"/>
<text text-anchor="middle" x="658" y="-175.5" font-family="Helvetica,sans-Serif" font-size="10.00">../../Engine/Goban.h</text>
</a>
</g>
</g>
<!-- Node16&#45;&gt;Node20 -->
<g id="edge51" class="edge"><title>Node16&#45;&gt;Node20</title>
<path fill="none" stroke="midnightblue" d="M516.571,-336.413C523.458,-327.387 534.568,-312.754 544,-300 568.791,-266.476 569.89,-253.851 599,-224 610.181,-212.535 624.415,-201.593 636.101,-193.37"/>
<polygon fill="midnightblue" stroke="midnightblue" points="638.179,-196.19 644.448,-187.649 634.221,-190.416 638.179,-196.19"/>
</g>
<!-- Node25 -->
<g id="node26" class="node"><title>Node25</title>
<g id="a_node26"><a xlink:href="_arbre_8h.html" target="_top" xlink:title="../../Engine/Arbre.h">
<polygon fill="none" stroke="black" points="608.5,-224.5 608.5,-243.5 707.5,-243.5 707.5,-224.5 608.5,-224.5"/>
<text text-anchor="middle" x="658" y="-231.5" font-family="Helvetica,sans-Serif" font-size="10.00">../../Engine/Arbre.h</text>
</a>
</g>
</g>
<!-- Node16&#45;&gt;Node25 -->
<g id="edge49" class="edge"><title>Node16&#45;&gt;Node25</title>
<path fill="none" stroke="midnightblue" d="M529.395,-336.451C546.843,-328.315 572.77,-315.097 593,-300 612.277,-285.614 631.386,-265.637 643.843,-251.639"/>
<polygon fill="midnightblue" stroke="midnightblue" points="646.745,-253.636 650.681,-243.799 641.47,-249.034 646.745,-253.636"/>
</g>
<!-- Node26 -->
<g id="node27" class="node"><title>Node26</title>
<g id="a_node27"><a xlink:href="_infos_8h.html" target="_top" xlink:title="Infos.h">
<polygon fill="none" stroke="black" points="325.5,-168.5 325.5,-187.5 370.5,-187.5 370.5,-168.5 325.5,-168.5"/>
<text text-anchor="middle" x="348" y="-175.5" font-family="Helvetica,sans-Serif" font-size="10.00">Infos.h</text>
</a>
</g>
</g>
<!-- Node16&#45;&gt;Node26 -->
<g id="edge44" class="edge"><title>Node16&#45;&gt;Node26</title>
<path fill="none" stroke="midnightblue" d="M454.342,-336.482C430.14,-330.143 403.213,-319.124 385,-300 357.947,-271.593 350.632,-223.941 348.682,-197.714"/>
<polygon fill="midnightblue" stroke="midnightblue" points="352.171,-197.402 348.123,-187.611 345.181,-197.789 352.171,-197.402"/>
</g>
<!-- Node17&#45;&gt;Node4 -->
<g id="edge23" class="edge"><title>Node17&#45;&gt;Node4</title>
<path fill="none" stroke="midnightblue" d="M505.649,-280.297C489.212,-247.425 430.696,-130.391 408.045,-85.0904"/>
<polygon fill="midnightblue" stroke="midnightblue" points="411.045,-83.2628 403.442,-75.8837 404.784,-86.3933 411.045,-83.2628"/>
</g>
<!-- Node18 -->
<g id="node19" class="node"><title>Node18</title>
<g id="a_node19"><a xlink:href="_square_8h.html" target="_top" xlink:title="Square.h">
<polygon fill="none" stroke="black" points="465,-112.5 465,-131.5 521,-131.5 521,-112.5 465,-112.5"/>
<text text-anchor="middle" x="493" y="-119.5" font-family="Helvetica,sans-Serif" font-size="10.00">Square.h</text>
</a>
</g>
</g>
<!-- Node17&#45;&gt;Node18 -->
<g id="edge24" class="edge"><title>Node17&#45;&gt;Node18</title>
<path fill="none" stroke="midnightblue" d="M509.086,-280.075C506.41,-253.945 498.552,-177.211 494.902,-141.577"/>
<polygon fill="midnightblue" stroke="midnightblue" points="498.378,-141.159 493.877,-131.568 491.415,-141.873 498.378,-141.159"/>
</g>
<!-- Node17&#45;&gt;Node20 -->
<g id="edge28" class="edge"><title>Node17&#45;&gt;Node20</title>
<path fill="none" stroke="midnightblue" d="M515.504,-280.423C524.496,-266.955 543.506,-240.668 565,-224 582.782,-210.211 605.47,-199.13 623.985,-191.414"/>
<polygon fill="midnightblue" stroke="midnightblue" points="625.538,-194.562 633.511,-187.584 622.927,-188.067 625.538,-194.562"/>
</g>
<!-- Node17&#45;&gt;Node25 -->
<g id="edge40" class="edge"><title>Node17&#45;&gt;Node25</title>
<path fill="none" stroke="midnightblue" d="M533.451,-280.444C558.133,-271.438 597.185,-257.189 624.977,-247.049"/>
<polygon fill="midnightblue" stroke="midnightblue" points="626.464,-250.232 634.659,-243.516 624.065,-243.656 626.464,-250.232"/>
</g>
<!-- Node18&#45;&gt;Node4 -->
<g id="edge25" class="edge"><title>Node18&#45;&gt;Node4</title>
<path fill="none" stroke="midnightblue" d="M477.897,-112.324C463.097,-103.822 440.306,-90.7288 423.018,-80.7975"/>
<polygon fill="midnightblue" stroke="midnightblue" points="424.48,-77.6009 414.065,-75.6545 420.993,-83.6707 424.48,-77.6009"/>
</g>
<!-- Node19 -->
<g id="node20" class="node"><title>Node19</title>
<g id="a_node20"><a xlink:href="_etat_8h.html" target="_top" xlink:title="../../Engine/Etat.h">
<polygon fill="none" stroke="black" points="625,-56.5 625,-75.5 719,-75.5 719,-56.5 625,-56.5"/>
<text text-anchor="middle" x="672" y="-63.5" font-family="Helvetica,sans-Serif" font-size="10.00">../../Engine/Etat.h</text>
</a>
</g>
</g>
<!-- Node18&#45;&gt;Node19 -->
<g id="edge26" class="edge"><title>Node18&#45;&gt;Node19</title>
<path fill="none" stroke="midnightblue" d="M521.363,-112.444C551.738,-103.28 600.11,-88.6876 633.816,-78.5192"/>
<polygon fill="midnightblue" stroke="midnightblue" points="635.207,-81.7555 643.77,-75.5164 633.185,-75.0538 635.207,-81.7555"/>
</g>
<!-- Node19&#45;&gt;Node8 -->
<g id="edge27" class="edge"><title>Node19&#45;&gt;Node8</title>
<path fill="none" stroke="midnightblue" d="M686.942,-56.324C701.585,-47.8215 724.134,-34.7288 741.238,-24.7975"/>
<polygon fill="midnightblue" stroke="midnightblue" points="743.205,-27.7027 750.095,-19.6545 739.69,-21.6491 743.205,-27.7027"/>
</g>
<!-- Node20&#45;&gt;Node8 -->
<g id="edge29" class="edge"><title>Node20&#45;&gt;Node8</title>
<path fill="none" stroke="midnightblue" d="M664.449,-168.261C677.121,-150.969 705.953,-111.028 728,-76 737.921,-60.2373 748.341,-41.7323 755.585,-28.5066"/>
<polygon fill="midnightblue" stroke="midnightblue" points="758.75,-30.013 760.445,-19.5547 752.598,-26.673 758.75,-30.013"/>
</g>
<!-- Node20&#45;&gt;Node13 -->
<g id="edge39" class="edge"><title>Node20&#45;&gt;Node13</title>
<path fill="none" stroke="midnightblue" d="M620.898,-168.458C601.555,-161.918 579.572,-150.724 568,-132 550.242,-103.267 548.685,-83.7108 568,-56 577.755,-42.0038 618.518,-28.8485 650.273,-20.4199"/>
<polygon fill="midnightblue" stroke="midnightblue" points="651.408,-23.7419 660.216,-17.8544 649.659,-16.9639 651.408,-23.7419"/>
</g>
<!-- Node20&#45;&gt;Node19 -->
<g id="edge31" class="edge"><title>Node20&#45;&gt;Node19</title>
<path fill="none" stroke="midnightblue" d="M659.099,-168.368C661.358,-150.617 666.57,-109.666 669.633,-85.5974"/>
<polygon fill="midnightblue" stroke="midnightblue" points="673.116,-85.9533 670.907,-75.5914 666.172,-85.0695 673.116,-85.9533"/>
</g>
<!-- Node20&#45;&gt;Node21 -->
<g id="edge30" class="edge"><title>Node20&#45;&gt;Node21</title>
<path fill="none" stroke="midnightblue" d="M710.289,-168.527C736.994,-162.089 768.679,-150.97 792,-132 807.014,-119.787 817.372,-99.958 823.438,-85.4081"/>
<polygon fill="midnightblue" stroke="midnightblue" points="826.76,-86.5204 827.101,-75.931 820.231,-83.9966 826.76,-86.5204"/>
</g>
<!-- Node22 -->
<g id="node23" class="node"><title>Node22</title>
<g id="a_node23"><a xlink:href="_groupe_8h.html" target="_top" xlink:title="Groupe.h">
<polygon fill="none" stroke="black" points="727,-112.5 727,-131.5 783,-131.5 783,-112.5 727,-112.5"/>
<text text-anchor="middle" x="755" y="-119.5" font-family="Helvetica,sans-Serif" font-size="10.00">Groupe.h</text>
</a>
</g>
</g>
<!-- Node20&#45;&gt;Node22 -->
<g id="edge32" class="edge"><title>Node20&#45;&gt;Node22</title>
<path fill="none" stroke="midnightblue" d="M673.585,-168.324C688.999,-159.743 712.812,-146.486 730.71,-136.522"/>
<polygon fill="midnightblue" stroke="midnightblue" points="732.419,-139.577 739.454,-131.655 729.014,-133.461 732.419,-139.577"/>
</g>
<!-- Node23 -->
<g id="node24" class="node"><title>Node23</title>
<g id="a_node24"><a xlink:href="_history_8h.html" target="_top" xlink:title="History.h">
<polygon fill="none" stroke="black" points="577,-112.5 577,-131.5 633,-131.5 633,-112.5 577,-112.5"/>
<text text-anchor="middle" x="605" y="-119.5" font-family="Helvetica,sans-Serif" font-size="10.00">History.h</text>
</a>
</g>
</g>
<!-- Node20&#45;&gt;Node23 -->
<g id="edge35" class="edge"><title>Node20&#45;&gt;Node23</title>
<path fill="none" stroke="midnightblue" d="M649.248,-168.083C641.53,-160.22 630.095,-148.569 620.783,-139.081"/>
<polygon fill="midnightblue" stroke="midnightblue" points="623.092,-136.436 613.589,-131.751 618.096,-141.34 623.092,-136.436"/>
</g>
<!-- Node22&#45;&gt;Node19 -->
<g id="edge34" class="edge"><title>Node22&#45;&gt;Node19</title>
<path fill="none" stroke="midnightblue" d="M741.665,-112.324C728.838,-103.979 709.215,-91.2122 694.06,-81.3524"/>
<polygon fill="midnightblue" stroke="midnightblue" points="695.593,-78.1742 685.302,-75.6545 691.776,-84.0417 695.593,-78.1742"/>
</g>
<!-- Node22&#45;&gt;Node21 -->
<g id="edge33" class="edge"><title>Node22&#45;&gt;Node21</title>
<path fill="none" stroke="midnightblue" d="M767.05,-112.324C778.463,-104.107 795.831,-91.6017 809.435,-81.8069"/>
<polygon fill="midnightblue" stroke="midnightblue" points="811.66,-84.5174 817.731,-75.8339 807.57,-78.8366 811.66,-84.5174"/>
</g>
<!-- Node23&#45;&gt;Node4 -->
<g id="edge36" class="edge"><title>Node23&#45;&gt;Node4</title>
<path fill="none" stroke="midnightblue" d="M576.789,-113.605C540.828,-104.178 478.48,-87.8345 437.992,-77.2212"/>
<polygon fill="midnightblue" stroke="midnightblue" points="438.759,-73.8042 428.199,-74.6541 436.984,-80.5754 438.759,-73.8042"/>
</g>
<!-- Node23&#45;&gt;Node19 -->
<g id="edge37" class="edge"><title>Node23&#45;&gt;Node19</title>
<path fill="none" stroke="midnightblue" d="M615.765,-112.324C625.766,-104.263 640.887,-92.0765 652.93,-82.3695"/>
<polygon fill="midnightblue" stroke="midnightblue" points="655.45,-84.8343 661.039,-75.8339 651.057,-79.3841 655.45,-84.8343"/>
</g>
<!-- Node24 -->
<g id="node25" class="node"><title>Node24</title>
<polygon fill="none" stroke="#bfbfbf" points="577.5,-56.5 577.5,-75.5 606.5,-75.5 606.5,-56.5 577.5,-56.5"/>
<text text-anchor="middle" x="592" y="-63.5" font-family="Helvetica,sans-Serif" font-size="10.00">list</text>
</g>
<!-- Node23&#45;&gt;Node24 -->
<g id="edge38" class="edge"><title>Node23&#45;&gt;Node24</title>
<path fill="none" stroke="midnightblue" d="M602.853,-112.083C601.131,-104.927 598.653,-94.6353 596.5,-85.6911"/>
<polygon fill="midnightblue" stroke="midnightblue" points="599.85,-84.6541 594.107,-75.7511 593.045,-86.2925 599.85,-84.6541"/>
</g>
<!-- Node25&#45;&gt;Node8 -->
<g id="edge42" class="edge"><title>Node25&#45;&gt;Node8</title>
<path fill="none" stroke="midnightblue" d="M694.247,-224.452C719.679,-217.344 753.701,-205.529 780,-188 830.902,-154.073 845.946,-135.536 860,-76 862.042,-67.3489 864.753,-63.5112 860,-56 847.336,-35.9885 823.101,-24.702 802.28,-18.437"/>
<polygon fill="midnightblue" stroke="midnightblue" points="802.966,-14.9966 792.398,-15.7487 801.128,-21.7511 802.966,-14.9966"/>
</g>
<!-- Node25&#45;&gt;Node20 -->
<g id="edge41" class="edge"><title>Node25&#45;&gt;Node20</title>
<path fill="none" stroke="midnightblue" d="M658,-224.083C658,-217.006 658,-206.861 658,-197.986"/>
<polygon fill="midnightblue" stroke="midnightblue" points="661.5,-197.751 658,-187.751 654.5,-197.751 661.5,-197.751"/>
</g>
<!-- Node25&#45;&gt;Node21 -->
<g id="edge43" class="edge"><title>Node25&#45;&gt;Node21</title>
<path fill="none" stroke="midnightblue" d="M681.315,-224.437C715.815,-210.532 780.033,-179.701 814,-132 823.585,-118.54 827.458,-99.9795 829.008,-86.1372"/>
<polygon fill="midnightblue" stroke="midnightblue" points="832.524,-86.0835 829.838,-75.8348 825.546,-85.5216 832.524,-86.0835"/>
</g>
<!-- Node26&#45;&gt;Node4 -->
<g id="edge45" class="edge"><title>Node26&#45;&gt;Node4</title>
<path fill="none" stroke="midnightblue" d="M352.002,-168.368C360.307,-150.456 379.563,-108.923 390.679,-84.9482"/>
<polygon fill="midnightblue" stroke="midnightblue" points="393.986,-86.136 395.017,-75.5914 387.635,-83.1916 393.986,-86.136"/>
</g>
<!-- Node26&#45;&gt;Node18 -->
<g id="edge46" class="edge"><title>Node26&#45;&gt;Node18</title>
<path fill="none" stroke="midnightblue" d="M370.656,-168.563C394.776,-159.58 433.16,-145.285 460.499,-135.104"/>
<polygon fill="midnightblue" stroke="midnightblue" points="461.875,-138.326 470.024,-131.556 459.432,-131.767 461.875,-138.326"/>
</g>
<!-- Node27 -->
<g id="node28" class="node"><title>Node27</title>
<g id="a_node28"><a xlink:href="_timer_8h.html" target="_top" xlink:title="Timer.h">
<polygon fill="none" stroke="black" points="283.5,-112.5 283.5,-131.5 332.5,-131.5 332.5,-112.5 283.5,-112.5"/>
<text text-anchor="middle" x="308" y="-119.5" font-family="Helvetica,sans-Serif" font-size="10.00">Timer.h</text>
</a>
</g>
</g>
<!-- Node26&#45;&gt;Node27 -->
<g id="edge47" class="edge"><title>Node26&#45;&gt;Node27</title>
<path fill="none" stroke="midnightblue" d="M341.395,-168.083C335.745,-160.455 327.455,-149.264 320.549,-139.941"/>
<polygon fill="midnightblue" stroke="midnightblue" points="323.247,-137.703 314.482,-131.751 317.622,-141.87 323.247,-137.703"/>
</g>
<!-- Node27&#45;&gt;Node4 -->
<g id="edge48" class="edge"><title>Node27&#45;&gt;Node4</title>
<path fill="none" stroke="midnightblue" d="M322.621,-112.324C336.949,-103.822 359.013,-90.7288 375.749,-80.7975"/>
<polygon fill="midnightblue" stroke="midnightblue" points="377.602,-83.7677 384.416,-75.6545 374.03,-77.7478 377.602,-83.7677"/>
</g>
<!-- Node28&#45;&gt;Node14 -->
<g id="edge56" class="edge"><title>Node28&#45;&gt;Node14</title>
<path fill="none" stroke="midnightblue" d="M770.352,-448.444C797.269,-439.359 839.996,-424.939 870.087,-414.783"/>
<polygon fill="midnightblue" stroke="midnightblue" points="871.41,-418.031 879.766,-411.516 869.172,-411.398 871.41,-418.031"/>
</g>
</g>
</svg>
