<?xml version="1.0" encoding="UTF-8" standalone="no"?>
<!DOCTYPE svg PUBLIC "-//W3C//DTD SVG 1.1//EN"
 "http://www.w3.org/Graphics/SVG/1.1/DTD/svg11.dtd">
<!-- Generated by graphviz version 2.38.0 (20140413.2041)
 -->
<!-- Title: D:/Users/Victor/OneDrive/Documents/Visual Studio 2017/Projects/Jeu_de_Go/Jeu_de_Go/Sources/Engine/Parser.cpp Pages: 1 -->
<svg width="859pt" height="352pt"
 viewBox="0.00 0.00 858.50 352.00" xmlns="http://www.w3.org/2000/svg" xmlns:xlink="http://www.w3.org/1999/xlink">
<g id="graph0" class="graph" transform="scale(1 1) rotate(0) translate(4 348)">
<title>D:/Users/Victor/OneDrive/Documents/Visual Studio 2017/Projects/Jeu_de_Go/Jeu_de_Go/Sources/Engine/Parser.cpp</title>
<!-- Node0 -->
<g id="node1" class="node"><title>Node0</title>
<polygon fill="#bfbfbf" stroke="black" points="370,-280.5 370,-343.5 510,-343.5 510,-280.5 370,-280.5"/>
<text text-anchor="start" x="378" y="-331.5" font-family="Helvetica,sans-Serif" font-size="10.00">D:/Users/Victor/OneDrive</text>
<text text-anchor="start" x="378" y="-320.5" font-family="Helvetica,sans-Serif" font-size="10.00">/Documents/Visual Studio</text>
<text text-anchor="start" x="378" y="-309.5" font-family="Helvetica,sans-Serif" font-size="10.00"> 2017/Projects/Jeu_de_Go</text>
<text text-anchor="start" x="378" y="-298.5" font-family="Helvetica,sans-Serif" font-size="10.00">/Jeu_de_Go/Sources/Engine</text>
<text text-anchor="middle" x="440" y="-287.5" font-family="Helvetica,sans-Serif" font-size="10.00">/Parser.cpp</text>
</g>
<!-- Node1 -->
<g id="node2" class="node"><title>Node1</title>
<g id="a_node2"><a xlink:href="_parser_8h.html" target="_top" xlink:title="Parser.h">
<polygon fill="none" stroke="black" points="413.5,-224.5 413.5,-243.5 466.5,-243.5 466.5,-224.5 413.5,-224.5"/>
<text text-anchor="middle" x="440" y="-231.5" font-family="Helvetica,sans-Serif" font-size="10.00">Parser.h</text>
</a>
</g>
</g>
<!-- Node0&#45;&gt;Node1 -->
<g id="edge1" class="edge"><title>Node0&#45;&gt;Node1</title>
<path fill="none" stroke="midnightblue" d="M440,-280.088C440,-271.15 440,-261.669 440,-253.719"/>
<polygon fill="midnightblue" stroke="midnightblue" points="443.5,-253.718 440,-243.718 436.5,-253.718 443.5,-253.718"/>
</g>
<!-- Node2 -->
<g id="node3" class="node"><title>Node2</title>
<polygon fill="none" stroke="#bfbfbf" points="0,-0.5 0,-19.5 54,-19.5 54,-0.5 0,-0.5"/>
<text text-anchor="middle" x="27" y="-7.5" font-family="Helvetica,sans-Serif" font-size="10.00">iostream</text>
</g>
<!-- Node1&#45;&gt;Node2 -->
<g id="edge2" class="edge"><title>Node1&#45;&gt;Node2</title>
<path fill="none" stroke="midnightblue" d="M413.328,-231.007C352.262,-226.079 204.239,-211.956 161,-188 94.7214,-151.279 51.2144,-66.5736 34.5914,-29.2384"/>
<polygon fill="midnightblue" stroke="midnightblue" points="37.6335,-27.454 30.4585,-19.6584 31.2061,-30.2269 37.6335,-27.454"/>
</g>
<!-- Node3 -->
<g id="node4" class="node"><title>Node3</title>
<polygon fill="none" stroke="#bfbfbf" points="742.5,-0.5 742.5,-19.5 791.5,-19.5 791.5,-0.5 742.5,-0.5"/>
<text text-anchor="middle" x="767" y="-7.5" font-family="Helvetica,sans-Serif" font-size="10.00">fstream</text>
</g>
<!-- Node1&#45;&gt;Node3 -->
<g id="edge3" class="edge"><title>Node1&#45;&gt;Node3</title>
<path fill="none" stroke="midnightblue" d="M439.578,-224.313C438.687,-195.328 440.066,-101.217 492,-56 530.923,-22.1114 666.057,-30.1881 732.211,-19.915"/>
<polygon fill="midnightblue" stroke="midnightblue" points="732.997,-23.3297 742.21,-18.0995 731.746,-16.4423 732.997,-23.3297"/>
</g>
<!-- Node4 -->
<g id="node5" class="node"><title>Node4</title>
<polygon fill="none" stroke="#bfbfbf" points="534,-168.5 534,-187.5 580,-187.5 580,-168.5 534,-168.5"/>
<text text-anchor="middle" x="557" y="-175.5" font-family="Helvetica,sans-Serif" font-size="10.00">stdio.h</text>
</g>
<!-- Node1&#45;&gt;Node4 -->
<g id="edge4" class="edge"><title>Node1&#45;&gt;Node4</title>
<path fill="none" stroke="midnightblue" d="M458.539,-224.444C477.623,-215.636 507.575,-201.812 529.436,-191.722"/>
<polygon fill="midnightblue" stroke="midnightblue" points="530.935,-194.885 538.548,-187.516 528.001,-188.529 530.935,-194.885"/>
</g>
<!-- Node5 -->
<g id="node6" class="node"><title>Node5</title>
<g id="a_node6"><a xlink:href="_etat_8h.html" target="_top" xlink:title="Etat.h">
<polygon fill="none" stroke="black" points="222.5,-56.5 222.5,-75.5 265.5,-75.5 265.5,-56.5 222.5,-56.5"/>
<text text-anchor="middle" x="244" y="-63.5" font-family="Helvetica,sans-Serif" font-size="10.00">Etat.h</text>
</a>
</g>
</g>
<!-- Node1&#45;&gt;Node5 -->
<g id="edge5" class="edge"><title>Node1&#45;&gt;Node5</title>
<path fill="none" stroke="midnightblue" d="M427.796,-224.262C404.315,-207.29 351.501,-168.336 310,-132 291.964,-116.208 272.555,-96.769 259.487,-83.2839"/>
<polygon fill="midnightblue" stroke="midnightblue" points="261.691,-80.5271 252.238,-75.7429 256.645,-85.3779 261.691,-80.5271"/>
</g>
<!-- Node6 -->
<g id="node7" class="node"><title>Node6</title>
<g id="a_node7"><a xlink:href="_goban_8h.html" target="_top" xlink:title="Goban.h">
<polygon fill="none" stroke="black" points="170.5,-168.5 170.5,-187.5 223.5,-187.5 223.5,-168.5 170.5,-168.5"/>
<text text-anchor="middle" x="197" y="-175.5" font-family="Helvetica,sans-Serif" font-size="10.00">Goban.h</text>
</a>
</g>
</g>
<!-- Node1&#45;&gt;Node6 -->
<g id="edge7" class="edge"><title>Node1&#45;&gt;Node6</title>
<path fill="none" stroke="midnightblue" d="M413.066,-227.015C369.343,-217.298 282.861,-198.08 233.602,-187.134"/>
<polygon fill="midnightblue" stroke="midnightblue" points="234.205,-183.683 223.684,-184.93 232.687,-190.516 234.205,-183.683"/>
</g>
<!-- Node10 -->
<g id="node11" class="node"><title>Node10</title>
<g id="a_node11"><a xlink:href="_globals_8h.html" target="_top" xlink:title="../Graphics/Globals.h">
<polygon fill="none" stroke="black" points="330.5,-56.5 330.5,-75.5 439.5,-75.5 439.5,-56.5 330.5,-56.5"/>
<text text-anchor="middle" x="385" y="-63.5" font-family="Helvetica,sans-Serif" font-size="10.00">../Graphics/Globals.h</text>
</a>
</g>
</g>
<!-- Node1&#45;&gt;Node10 -->
<g id="edge29" class="edge"><title>Node1&#45;&gt;Node10</title>
<path fill="none" stroke="midnightblue" d="M437.043,-224.075C428.348,-197.832 402.741,-120.545 391.002,-85.1165"/>
<polygon fill="midnightblue" stroke="midnightblue" points="394.306,-83.9598 387.839,-75.5681 387.662,-86.1615 394.306,-83.9598"/>
</g>
<!-- Node16 -->
<g id="node17" class="node"><title>Node16</title>
<polygon fill="none" stroke="#bfbfbf" points="809.5,-0.5 809.5,-19.5 850.5,-19.5 850.5,-0.5 809.5,-0.5"/>
<text text-anchor="middle" x="830" y="-7.5" font-family="Helvetica,sans-Serif" font-size="10.00">string</text>
</g>
<!-- Node1&#45;&gt;Node16 -->
<g id="edge30" class="edge"><title>Node1&#45;&gt;Node16</title>
<path fill="none" stroke="midnightblue" d="M450.039,-224.378C465.52,-211.304 496.428,-186.077 525,-168 622.091,-106.571 746.055,-48.5676 801.253,-23.7114"/>
<polygon fill="midnightblue" stroke="midnightblue" points="802.737,-26.8821 810.432,-19.5991 799.875,-20.494 802.737,-26.8821"/>
</g>
<!-- Node20 -->
<g id="node21" class="node"><title>Node20</title>
<polygon fill="none" stroke="#bfbfbf" points="598.5,-168.5 598.5,-187.5 639.5,-187.5 639.5,-168.5 598.5,-168.5"/>
<text text-anchor="middle" x="619" y="-175.5" font-family="Helvetica,sans-Serif" font-size="10.00">regex</text>
</g>
<!-- Node1&#45;&gt;Node20 -->
<g id="edge31" class="edge"><title>Node1&#45;&gt;Node20</title>
<path fill="none" stroke="midnightblue" d="M466.798,-224.916C499.413,-215.077 554.351,-198.503 588.539,-188.189"/>
<polygon fill="midnightblue" stroke="midnightblue" points="589.873,-191.443 598.436,-185.204 587.851,-184.741 589.873,-191.443"/>
</g>
<!-- Node5&#45;&gt;Node2 -->
<g id="edge6" class="edge"><title>Node5&#45;&gt;Node2</title>
<path fill="none" stroke="midnightblue" d="M222.266,-59.6062C189.941,-51.582 127.035,-35.9584 63.8541,-20.2107"/>
<polygon fill="midnightblue" stroke="midnightblue" points="64.6755,-16.8084 54.1258,-17.7855 62.9822,-23.6005 64.6755,-16.8084"/>
</g>
<!-- Node6&#45;&gt;Node2 -->
<g id="edge8" class="edge"><title>Node6&#45;&gt;Node2</title>
<path fill="none" stroke="midnightblue" d="M184.535,-168.247C172.458,-159.559 153.844,-145.607 139,-132 101.037,-97.2025 61.1185,-51.5552 40.7415,-27.4932"/>
<polygon fill="midnightblue" stroke="midnightblue" points="43.2731,-25.0656 34.1581,-19.6649 37.9157,-29.571 43.2731,-25.0656"/>
</g>
<!-- Node6&#45;&gt;Node5 -->
<g id="edge10" class="edge"><title>Node6&#45;&gt;Node5</title>
<path fill="none" stroke="midnightblue" d="M206.579,-168.359C215.23,-159.964 227.561,-146.404 234,-132 240.487,-117.489 242.876,-99.5373 243.706,-86.1789"/>
<polygon fill="midnightblue" stroke="midnightblue" points="247.217,-85.9492 244.097,-75.8241 240.222,-85.6847 247.217,-85.9492"/>
</g>
<!-- Node7 -->
<g id="node8" class="node"><title>Node7</title>
<polygon fill="none" stroke="#bfbfbf" points="147,-56.5 147,-75.5 189,-75.5 189,-56.5 147,-56.5"/>
<text text-anchor="middle" x="168" y="-63.5" font-family="Helvetica,sans-Serif" font-size="10.00">vector</text>
</g>
<!-- Node6&#45;&gt;Node7 -->
<g id="edge9" class="edge"><title>Node6&#45;&gt;Node7</title>
<path fill="none" stroke="midnightblue" d="M186.562,-168.245C177.576,-159.969 165.254,-146.663 160,-132 154.607,-116.948 157.553,-98.8192 161.303,-85.5355"/>
<polygon fill="midnightblue" stroke="midnightblue" points="164.74,-86.2823 164.478,-75.6908 158.078,-84.1339 164.74,-86.2823"/>
</g>
<!-- Node8 -->
<g id="node9" class="node"><title>Node8</title>
<g id="a_node9"><a xlink:href="_groupe_8h.html" target="_top" xlink:title="Groupe.h">
<polygon fill="none" stroke="black" points="169,-112.5 169,-131.5 225,-131.5 225,-112.5 169,-112.5"/>
<text text-anchor="middle" x="197" y="-119.5" font-family="Helvetica,sans-Serif" font-size="10.00">Groupe.h</text>
</a>
</g>
</g>
<!-- Node6&#45;&gt;Node8 -->
<g id="edge11" class="edge"><title>Node6&#45;&gt;Node8</title>
<path fill="none" stroke="midnightblue" d="M197,-168.083C197,-161.006 197,-150.861 197,-141.986"/>
<polygon fill="midnightblue" stroke="midnightblue" points="200.5,-141.751 197,-131.751 193.5,-141.751 200.5,-141.751"/>
</g>
<!-- Node9 -->
<g id="node10" class="node"><title>Node9</title>
<g id="a_node10"><a xlink:href="_history_8h.html" target="_top" xlink:title="History.h">
<polygon fill="none" stroke="black" points="319,-112.5 319,-131.5 375,-131.5 375,-112.5 319,-112.5"/>
<text text-anchor="middle" x="347" y="-119.5" font-family="Helvetica,sans-Serif" font-size="10.00">History.h</text>
</a>
</g>
</g>
<!-- Node6&#45;&gt;Node9 -->
<g id="edge14" class="edge"><title>Node6&#45;&gt;Node9</title>
<path fill="none" stroke="midnightblue" d="M220.768,-168.444C245.893,-159.399 285.711,-145.064 313.9,-134.916"/>
<polygon fill="midnightblue" stroke="midnightblue" points="315.12,-138.197 323.343,-131.516 312.749,-131.611 315.12,-138.197"/>
</g>
<!-- Node18 -->
<g id="node19" class="node"><title>Node18</title>
<polygon fill="none" stroke="#bfbfbf" points="72.5,-0.5 72.5,-19.5 131.5,-19.5 131.5,-0.5 72.5,-0.5"/>
<text text-anchor="middle" x="102" y="-7.5" font-family="Helvetica,sans-Serif" font-size="10.00">stdexcept</text>
</g>
<!-- Node6&#45;&gt;Node18 -->
<g id="edge28" class="edge"><title>Node6&#45;&gt;Node18</title>
<path fill="none" stroke="midnightblue" d="M186.699,-168.201C177.232,-159.695 163.298,-146.061 154,-132 131.907,-98.5919 115.702,-54.2493 107.671,-29.5787"/>
<polygon fill="midnightblue" stroke="midnightblue" points="110.912,-28.2204 104.564,-19.7378 104.237,-30.3276 110.912,-28.2204"/>
</g>
<!-- Node8&#45;&gt;Node5 -->
<g id="edge13" class="edge"><title>Node8&#45;&gt;Node5</title>
<path fill="none" stroke="midnightblue" d="M204.761,-112.083C211.537,-104.298 221.543,-92.8015 229.755,-83.3665"/>
<polygon fill="midnightblue" stroke="midnightblue" points="232.458,-85.592 236.383,-75.7511 227.178,-80.9963 232.458,-85.592"/>
</g>
<!-- Node8&#45;&gt;Node7 -->
<g id="edge12" class="edge"><title>Node8&#45;&gt;Node7</title>
<path fill="none" stroke="midnightblue" d="M192.211,-112.083C188.242,-104.691 182.475,-93.9533 177.565,-84.8111"/>
<polygon fill="midnightblue" stroke="midnightblue" points="180.514,-82.9051 172.7,-75.7511 174.347,-86.217 180.514,-82.9051"/>
</g>
<!-- Node9&#45;&gt;Node5 -->
<g id="edge26" class="edge"><title>Node9&#45;&gt;Node5</title>
<path fill="none" stroke="midnightblue" d="M330.451,-112.324C314.008,-103.703 288.565,-90.3643 269.532,-80.3855"/>
<polygon fill="midnightblue" stroke="midnightblue" points="270.989,-77.198 260.508,-75.6545 267.739,-83.3977 270.989,-77.198"/>
</g>
<!-- Node9&#45;&gt;Node10 -->
<g id="edge15" class="edge"><title>Node9&#45;&gt;Node10</title>
<path fill="none" stroke="midnightblue" d="M353.275,-112.083C358.642,-104.455 366.518,-93.2645 373.079,-83.9408"/>
<polygon fill="midnightblue" stroke="midnightblue" points="375.949,-85.9434 378.842,-75.7511 370.225,-81.9149 375.949,-85.9434"/>
</g>
<!-- Node19 -->
<g id="node20" class="node"><title>Node19</title>
<polygon fill="none" stroke="#bfbfbf" points="283.5,-56.5 283.5,-75.5 312.5,-75.5 312.5,-56.5 283.5,-56.5"/>
<text text-anchor="middle" x="298" y="-63.5" font-family="Helvetica,sans-Serif" font-size="10.00">list</text>
</g>
<!-- Node9&#45;&gt;Node19 -->
<g id="edge27" class="edge"><title>Node9&#45;&gt;Node19</title>
<path fill="none" stroke="midnightblue" d="M338.909,-112.083C331.845,-104.298 321.412,-92.8015 312.851,-83.3665"/>
<polygon fill="midnightblue" stroke="midnightblue" points="315.253,-80.8047 305.941,-75.7511 310.069,-85.5087 315.253,-80.8047"/>
</g>
<!-- Node10&#45;&gt;Node2 -->
<g id="edge20" class="edge"><title>Node10&#45;&gt;Node2</title>
<path fill="none" stroke="midnightblue" d="M330.188,-57.2881C327.08,-56.852 324,-56.4203 321,-56 209.477,-40.3779 178.341,-41.9683 63.9099,-20.0016"/>
<polygon fill="midnightblue" stroke="midnightblue" points="64.5412,-16.5589 54.0579,-18.0922 63.2093,-23.431 64.5412,-16.5589"/>
</g>
<!-- Node10&#45;&gt;Node3 -->
<g id="edge23" class="edge"><title>Node10&#45;&gt;Node3</title>
<path fill="none" stroke="midnightblue" d="M439.612,-57.8673C444.477,-57.2347 449.328,-56.6051 454,-56 575.27,-40.2951 609.248,-44.3411 732.411,-20.1056"/>
<polygon fill="midnightblue" stroke="midnightblue" points="733.097,-23.5377 742.221,-18.153 731.73,-16.6724 733.097,-23.5377"/>
</g>
<!-- Node11 -->
<g id="node12" class="node"><title>Node11</title>
<polygon fill="none" stroke="#bfbfbf" points="280,-0.5 280,-19.5 384,-19.5 384,-0.5 280,-0.5"/>
<text text-anchor="middle" x="332" y="-7.5" font-family="Helvetica,sans-Serif" font-size="10.00">SFML/Graphics.hpp</text>
</g>
<!-- Node10&#45;&gt;Node11 -->
<g id="edge16" class="edge"><title>Node10&#45;&gt;Node11</title>
<path fill="none" stroke="midnightblue" d="M376.248,-56.083C368.53,-48.2195 357.095,-36.5688 347.783,-27.0813"/>
<polygon fill="midnightblue" stroke="midnightblue" points="350.092,-24.4363 340.589,-19.7511 345.096,-29.3396 350.092,-24.4363"/>
</g>
<!-- Node12 -->
<g id="node13" class="node"><title>Node12</title>
<polygon fill="none" stroke="#bfbfbf" points="402,-0.5 402,-19.5 500,-19.5 500,-0.5 402,-0.5"/>
<text text-anchor="middle" x="451" y="-7.5" font-family="Helvetica,sans-Serif" font-size="10.00">SFML/System.hpp</text>
</g>
<!-- Node10&#45;&gt;Node12 -->
<g id="edge17" class="edge"><title>Node10&#45;&gt;Node12</title>
<path fill="none" stroke="midnightblue" d="M395.604,-56.324C405.456,-48.2631 420.351,-36.0765 432.215,-26.3695"/>
<polygon fill="midnightblue" stroke="midnightblue" points="434.68,-28.8752 440.203,-19.8339 430.247,-23.4575 434.68,-28.8752"/>
</g>
<!-- Node13 -->
<g id="node14" class="node"><title>Node13</title>
<polygon fill="none" stroke="#bfbfbf" points="518.5,-0.5 518.5,-19.5 617.5,-19.5 617.5,-0.5 518.5,-0.5"/>
<text text-anchor="middle" x="568" y="-7.5" font-family="Helvetica,sans-Serif" font-size="10.00">SFML/Window.hpp</text>
</g>
<!-- Node10&#45;&gt;Node13 -->
<g id="edge18" class="edge"><title>Node10&#45;&gt;Node13</title>
<path fill="none" stroke="midnightblue" d="M413.997,-56.4435C445.185,-47.2406 494.93,-32.5617 529.408,-22.3879"/>
<polygon fill="midnightblue" stroke="midnightblue" points="530.538,-25.7036 539.139,-19.5164 528.557,-18.9898 530.538,-25.7036"/>
</g>
<!-- Node14 -->
<g id="node15" class="node"><title>Node14</title>
<polygon fill="none" stroke="#bfbfbf" points="635.5,-0.5 635.5,-19.5 724.5,-19.5 724.5,-0.5 635.5,-0.5"/>
<text text-anchor="middle" x="680" y="-7.5" font-family="Helvetica,sans-Serif" font-size="10.00">SFML/Audio.hpp</text>
</g>
<!-- Node10&#45;&gt;Node14 -->
<g id="edge19" class="edge"><title>Node10&#45;&gt;Node14</title>
<path fill="none" stroke="midnightblue" d="M431.744,-56.4435C484.357,-46.8126 569.732,-31.1846 625.377,-20.9988"/>
<polygon fill="midnightblue" stroke="midnightblue" points="626.2,-24.4064 635.406,-19.1629 624.939,-17.5208 626.2,-24.4064"/>
</g>
<!-- Node15 -->
<g id="node16" class="node"><title>Node15</title>
<polygon fill="none" stroke="#bfbfbf" points="149.5,-0.5 149.5,-19.5 194.5,-19.5 194.5,-0.5 149.5,-0.5"/>
<text text-anchor="middle" x="172" y="-7.5" font-family="Helvetica,sans-Serif" font-size="10.00">cstdlib</text>
</g>
<!-- Node10&#45;&gt;Node15 -->
<g id="edge21" class="edge"><title>Node10&#45;&gt;Node15</title>
<path fill="none" stroke="midnightblue" d="M348.632,-56.4624C313.9,-48.2082 259.854,-35.1038 204.616,-20.3638"/>
<polygon fill="midnightblue" stroke="midnightblue" points="205.223,-16.9029 194.657,-17.6918 203.409,-23.6637 205.223,-16.9029"/>
</g>
<!-- Node10&#45;&gt;Node16 -->
<g id="edge22" class="edge"><title>Node10&#45;&gt;Node16</title>
<path fill="none" stroke="midnightblue" d="M439.838,-60.3944C532.525,-52.3979 717.356,-35.4851 799.285,-19.9607"/>
<polygon fill="midnightblue" stroke="midnightblue" points="800.096,-23.3679 809.217,-17.9772 798.725,-16.5034 800.096,-23.3679"/>
</g>
<!-- Node17 -->
<g id="node18" class="node"><title>Node17</title>
<polygon fill="none" stroke="#bfbfbf" points="212.5,-0.5 212.5,-19.5 261.5,-19.5 261.5,-0.5 212.5,-0.5"/>
<text text-anchor="middle" x="237" y="-7.5" font-family="Helvetica,sans-Serif" font-size="10.00">cassert</text>
</g>
<!-- Node10&#45;&gt;Node17 -->
<g id="edge24" class="edge"><title>Node10&#45;&gt;Node17</title>
<path fill="none" stroke="midnightblue" d="M361.549,-56.4435C336.867,-47.4381 297.815,-33.1891 270.023,-23.049"/>
<polygon fill="midnightblue" stroke="midnightblue" points="270.935,-19.6561 260.341,-19.5164 268.536,-26.2321 270.935,-19.6561"/>
</g>
<!-- Node10&#45;&gt;Node18 -->
<g id="edge25" class="edge"><title>Node10&#45;&gt;Node18</title>
<path fill="none" stroke="midnightblue" d="M334.176,-56.4423C286.753,-48.2824 213.789,-35.2837 141.963,-20.3398"/>
<polygon fill="midnightblue" stroke="midnightblue" points="142.344,-16.8436 131.839,-18.2185 140.908,-23.6948 142.344,-16.8436"/>
</g>
</g>
</svg>
