<?xml version="1.0" encoding="UTF-8" standalone="no"?>
<!DOCTYPE svg PUBLIC "-//W3C//DTD SVG 1.1//EN"
 "http://www.w3.org/Graphics/SVG/1.1/DTD/svg11.dtd">
<!-- Generated by graphviz version 2.38.0 (20140413.2041)
 -->
<!-- Title: D:/Users/Victor/OneDrive/Documents/Visual Studio 2017/Projects/Jeu_de_Go/Jeu_de_Go/Sources/Graphics/Screen.h Pages: 1 -->
<svg width="859pt" height="184pt"
 viewBox="0.00 0.00 858.50 184.00" xmlns="http://www.w3.org/2000/svg" xmlns:xlink="http://www.w3.org/1999/xlink">
<g id="graph0" class="graph" transform="scale(1 1) rotate(0) translate(4 180)">
<title>D:/Users/Victor/OneDrive/Documents/Visual Studio 2017/Projects/Jeu_de_Go/Jeu_de_Go/Sources/Graphics/Screen.h</title>
<!-- Node0 -->
<g id="node1" class="node"><title>Node0</title>
<polygon fill="#bfbfbf" stroke="black" points="305.5,-112.5 305.5,-175.5 454.5,-175.5 454.5,-112.5 305.5,-112.5"/>
<text text-anchor="start" x="313.5" y="-163.5" font-family="Helvetica,sans-Serif" font-size="10.00">D:/Users/Victor/OneDrive</text>
<text text-anchor="start" x="313.5" y="-152.5" font-family="Helvetica,sans-Serif" font-size="10.00">/Documents/Visual Studio</text>
<text text-anchor="start" x="313.5" y="-141.5" font-family="Helvetica,sans-Serif" font-size="10.00"> 2017/Projects/Jeu_de_Go</text>
<text text-anchor="start" x="313.5" y="-130.5" font-family="Helvetica,sans-Serif" font-size="10.00">/Jeu_de_Go/Sources/Graphics</text>
<text text-anchor="middle" x="380" y="-119.5" font-family="Helvetica,sans-Serif" font-size="10.00">/Screen.h</text>
</g>
<!-- Node1 -->
<g id="node2" class="node"><title>Node1</title>
<polygon fill="none" stroke="#bfbfbf" points="0,-0.5 0,-19.5 104,-19.5 104,-0.5 0,-0.5"/>
<text text-anchor="middle" x="52" y="-7.5" font-family="Helvetica,sans-Serif" font-size="10.00">SFML/Graphics.hpp</text>
</g>
<!-- Node0&#45;&gt;Node1 -->
<g id="edge1" class="edge"><title>Node0&#45;&gt;Node1</title>
<path fill="none" stroke="midnightblue" d="M305.161,-112.882C234.79,-84.5619 132.952,-43.5782 82.581,-23.307"/>
<polygon fill="midnightblue" stroke="midnightblue" points="83.8012,-20.0253 73.2176,-19.5388 81.1878,-26.5192 83.8012,-20.0253"/>
</g>
<!-- Node2 -->
<g id="node3" class="node"><title>Node2</title>
<g id="a_node3"><a xlink:href="_globals_8h.html" target="_top" xlink:title="Globals.h">
<polygon fill="none" stroke="black" points="461,-56.5 461,-75.5 519,-75.5 519,-56.5 461,-56.5"/>
<text text-anchor="middle" x="490" y="-63.5" font-family="Helvetica,sans-Serif" font-size="10.00">Globals.h</text>
</a>
</g>
</g>
<!-- Node0&#45;&gt;Node2 -->
<g id="edge2" class="edge"><title>Node0&#45;&gt;Node2</title>
<path fill="none" stroke="midnightblue" d="M424.424,-112.307C439.778,-101.699 456.275,-90.3011 468.881,-81.5912"/>
<polygon fill="midnightblue" stroke="midnightblue" points="471.063,-84.3377 477.301,-75.7738 467.084,-78.5786 471.063,-84.3377"/>
</g>
<!-- Node2&#45;&gt;Node1 -->
<g id="edge3" class="edge"><title>Node2&#45;&gt;Node1</title>
<path fill="none" stroke="midnightblue" d="M460.635,-61.7751C398.693,-54.9124 249.87,-38.1082 114.376,-20.1532"/>
<polygon fill="midnightblue" stroke="midnightblue" points="114.604,-16.6528 104.23,-18.8031 113.681,-23.5917 114.604,-16.6528"/>
</g>
<!-- Node3 -->
<g id="node4" class="node"><title>Node3</title>
<polygon fill="none" stroke="#bfbfbf" points="122,-0.5 122,-19.5 220,-19.5 220,-0.5 122,-0.5"/>
<text text-anchor="middle" x="171" y="-7.5" font-family="Helvetica,sans-Serif" font-size="10.00">SFML/System.hpp</text>
</g>
<!-- Node2&#45;&gt;Node3 -->
<g id="edge4" class="edge"><title>Node2&#45;&gt;Node3</title>
<path fill="none" stroke="midnightblue" d="M460.845,-60.0647C408.764,-51.2484 298.794,-32.6328 230.286,-21.0358"/>
<polygon fill="midnightblue" stroke="midnightblue" points="230.521,-17.5259 220.077,-19.3076 229.352,-24.4277 230.521,-17.5259"/>
</g>
<!-- Node4 -->
<g id="node5" class="node"><title>Node4</title>
<polygon fill="none" stroke="#bfbfbf" points="238.5,-0.5 238.5,-19.5 337.5,-19.5 337.5,-0.5 238.5,-0.5"/>
<text text-anchor="middle" x="288" y="-7.5" font-family="Helvetica,sans-Serif" font-size="10.00">SFML/Window.hpp</text>
</g>
<!-- Node2&#45;&gt;Node4 -->
<g id="edge5" class="edge"><title>Node2&#45;&gt;Node4</title>
<path fill="none" stroke="midnightblue" d="M460.627,-57.1479C426.275,-47.9646 369.146,-32.6924 330.088,-22.2512"/>
<polygon fill="midnightblue" stroke="midnightblue" points="330.644,-18.777 320.079,-19.5756 328.836,-25.5395 330.644,-18.777"/>
</g>
<!-- Node5 -->
<g id="node6" class="node"><title>Node5</title>
<polygon fill="none" stroke="#bfbfbf" points="355.5,-0.5 355.5,-19.5 444.5,-19.5 444.5,-0.5 355.5,-0.5"/>
<text text-anchor="middle" x="400" y="-7.5" font-family="Helvetica,sans-Serif" font-size="10.00">SFML/Audio.hpp</text>
</g>
<!-- Node2&#45;&gt;Node5 -->
<g id="edge6" class="edge"><title>Node2&#45;&gt;Node5</title>
<path fill="none" stroke="midnightblue" d="M475.54,-56.324C461.5,-47.9002 439.952,-34.9709 423.457,-25.0741"/>
<polygon fill="midnightblue" stroke="midnightblue" points="424.8,-21.7983 414.424,-19.6545 421.198,-27.8007 424.8,-21.7983"/>
</g>
<!-- Node6 -->
<g id="node7" class="node"><title>Node6</title>
<polygon fill="none" stroke="#bfbfbf" points="463,-0.5 463,-19.5 517,-19.5 517,-0.5 463,-0.5"/>
<text text-anchor="middle" x="490" y="-7.5" font-family="Helvetica,sans-Serif" font-size="10.00">iostream</text>
</g>
<!-- Node2&#45;&gt;Node6 -->
<g id="edge7" class="edge"><title>Node2&#45;&gt;Node6</title>
<path fill="none" stroke="midnightblue" d="M490,-56.083C490,-49.0059 490,-38.8611 490,-29.9865"/>
<polygon fill="midnightblue" stroke="midnightblue" points="493.5,-29.751 490,-19.7511 486.5,-29.7511 493.5,-29.751"/>
</g>
<!-- Node7 -->
<g id="node8" class="node"><title>Node7</title>
<polygon fill="none" stroke="#bfbfbf" points="535.5,-0.5 535.5,-19.5 580.5,-19.5 580.5,-0.5 535.5,-0.5"/>
<text text-anchor="middle" x="558" y="-7.5" font-family="Helvetica,sans-Serif" font-size="10.00">cstdlib</text>
</g>
<!-- Node2&#45;&gt;Node7 -->
<g id="edge8" class="edge"><title>Node2&#45;&gt;Node7</title>
<path fill="none" stroke="midnightblue" d="M500.925,-56.324C511.175,-48.1849 526.721,-35.8395 539.001,-26.0874"/>
<polygon fill="midnightblue" stroke="midnightblue" points="541.221,-28.7937 546.876,-19.8339 536.868,-23.3119 541.221,-28.7937"/>
</g>
<!-- Node8 -->
<g id="node9" class="node"><title>Node8</title>
<polygon fill="none" stroke="#bfbfbf" points="598.5,-0.5 598.5,-19.5 639.5,-19.5 639.5,-0.5 598.5,-0.5"/>
<text text-anchor="middle" x="619" y="-7.5" font-family="Helvetica,sans-Serif" font-size="10.00">string</text>
</g>
<!-- Node2&#45;&gt;Node8 -->
<g id="edge9" class="edge"><title>Node2&#45;&gt;Node8</title>
<path fill="none" stroke="midnightblue" d="M510.44,-56.4435C531.67,-47.5566 565.099,-33.5632 589.255,-23.4514"/>
<polygon fill="midnightblue" stroke="midnightblue" points="590.782,-26.6064 598.655,-19.5164 588.079,-20.1493 590.782,-26.6064"/>
</g>
<!-- Node9 -->
<g id="node10" class="node"><title>Node9</title>
<polygon fill="none" stroke="#bfbfbf" points="657.5,-0.5 657.5,-19.5 706.5,-19.5 706.5,-0.5 657.5,-0.5"/>
<text text-anchor="middle" x="682" y="-7.5" font-family="Helvetica,sans-Serif" font-size="10.00">fstream</text>
</g>
<!-- Node2&#45;&gt;Node9 -->
<g id="edge10" class="edge"><title>Node2&#45;&gt;Node9</title>
<path fill="none" stroke="midnightblue" d="M519.161,-56.7986C553.681,-47.0897 611.092,-30.9429 647.711,-20.6439"/>
<polygon fill="midnightblue" stroke="midnightblue" points="648.773,-23.9811 657.451,-17.9043 646.877,-17.2425 648.773,-23.9811"/>
</g>
<!-- Node10 -->
<g id="node11" class="node"><title>Node10</title>
<polygon fill="none" stroke="#bfbfbf" points="724.5,-0.5 724.5,-19.5 773.5,-19.5 773.5,-0.5 724.5,-0.5"/>
<text text-anchor="middle" x="749" y="-7.5" font-family="Helvetica,sans-Serif" font-size="10.00">cassert</text>
</g>
<!-- Node2&#45;&gt;Node10 -->
<g id="edge11" class="edge"><title>Node2&#45;&gt;Node10</title>
<path fill="none" stroke="midnightblue" d="M519.037,-59.8879C560.335,-52.4724 638.61,-37.8852 714.042,-20.3476"/>
<polygon fill="midnightblue" stroke="midnightblue" points="715.245,-23.6603 724.181,-17.968 713.646,-16.8455 715.245,-23.6603"/>
</g>
<!-- Node11 -->
<g id="node12" class="node"><title>Node11</title>
<polygon fill="none" stroke="#bfbfbf" points="791.5,-0.5 791.5,-19.5 850.5,-19.5 850.5,-0.5 791.5,-0.5"/>
<text text-anchor="middle" x="821" y="-7.5" font-family="Helvetica,sans-Serif" font-size="10.00">stdexcept</text>
</g>
<!-- Node2&#45;&gt;Node11 -->
<g id="edge12" class="edge"><title>Node2&#45;&gt;Node11</title>
<path fill="none" stroke="midnightblue" d="M519.245,-61.2989C570.411,-54.6538 679.681,-39.7092 781.077,-20.2594"/>
<polygon fill="midnightblue" stroke="midnightblue" points="782.027,-23.6406 791.178,-18.3016 780.695,-16.7685 782.027,-23.6406"/>
</g>
</g>
</svg>
