<?xml version="1.0" encoding="UTF-8" standalone="no"?>
<!DOCTYPE svg PUBLIC "-//W3C//DTD SVG 1.1//EN"
 "http://www.w3.org/Graphics/SVG/1.1/DTD/svg11.dtd">
<!-- Generated by graphviz version 2.38.0 (20140413.2041)
 -->
<!-- Title: D:/Users/Victor/OneDrive/Documents/Visual Studio 2017/Projects/Jeu_de_Go/Jeu_de_Go/Sources/Graphics/Screens.h Pages: 1 -->
<svg width="881pt" height="464pt"
 viewBox="0.00 0.00 881.00 464.00" xmlns="http://www.w3.org/2000/svg" xmlns:xlink="http://www.w3.org/1999/xlink">
<g id="graph0" class="graph" transform="scale(1 1) rotate(0) translate(4 460)">
<title>D:/Users/Victor/OneDrive/Documents/Visual Studio 2017/Projects/Jeu_de_Go/Jeu_de_Go/Sources/Graphics/Screens.h</title>
<!-- Node0 -->
<g id="node1" class="node"><title>Node0</title>
<polygon fill="#bfbfbf" stroke="black" points="244.5,-392.5 244.5,-455.5 393.5,-455.5 393.5,-392.5 244.5,-392.5"/>
<text text-anchor="start" x="252.5" y="-443.5" font-family="Helvetica,sans-Serif" font-size="10.00">D:/Users/Victor/OneDrive</text>
<text text-anchor="start" x="252.5" y="-432.5" font-family="Helvetica,sans-Serif" font-size="10.00">/Documents/Visual Studio</text>
<text text-anchor="start" x="252.5" y="-421.5" font-family="Helvetica,sans-Serif" font-size="10.00"> 2017/Projects/Jeu_de_Go</text>
<text text-anchor="start" x="252.5" y="-410.5" font-family="Helvetica,sans-Serif" font-size="10.00">/Jeu_de_Go/Sources/Graphics</text>
<text text-anchor="middle" x="319" y="-399.5" font-family="Helvetica,sans-Serif" font-size="10.00">/Screens.h</text>
</g>
<!-- Node1 -->
<g id="node2" class="node"><title>Node1</title>
<g id="a_node2"><a xlink:href="_screen_8h.html" target="_top" xlink:title="Screen.h">
<polygon fill="none" stroke="black" points="217,-224.5 217,-243.5 273,-243.5 273,-224.5 217,-224.5"/>
<text text-anchor="middle" x="245" y="-231.5" font-family="Helvetica,sans-Serif" font-size="10.00">Screen.h</text>
</a>
</g>
</g>
<!-- Node0&#45;&gt;Node1 -->
<g id="edge1" class="edge"><title>Node0&#45;&gt;Node1</title>
<path fill="none" stroke="midnightblue" d="M306.946,-392.376C291.418,-352.928 264.919,-285.605 252.212,-253.323"/>
<polygon fill="midnightblue" stroke="midnightblue" points="255.387,-251.832 248.467,-243.809 248.873,-254.396 255.387,-251.832"/>
</g>
<!-- Node13 -->
<g id="node14" class="node"><title>Node13</title>
<g id="a_node14"><a xlink:href="_game__window_8h.html" target="_top" xlink:title="Game/Game_window.h">
<polygon fill="none" stroke="black" points="344.5,-336.5 344.5,-355.5 461.5,-355.5 461.5,-336.5 344.5,-336.5"/>
<text text-anchor="middle" x="403" y="-343.5" font-family="Helvetica,sans-Serif" font-size="10.00">Game/Game_window.h</text>
</a>
</g>
</g>
<!-- Node0&#45;&gt;Node13 -->
<g id="edge14" class="edge"><title>Node0&#45;&gt;Node13</title>
<path fill="none" stroke="midnightblue" d="M353.166,-392.088C364.408,-381.917 376.426,-371.043 385.843,-362.523"/>
<polygon fill="midnightblue" stroke="midnightblue" points="388.297,-365.023 393.364,-355.718 383.601,-359.832 388.297,-365.023"/>
</g>
<!-- Node2 -->
<g id="node3" class="node"><title>Node2</title>
<polygon fill="none" stroke="#bfbfbf" points="0,-0.5 0,-19.5 104,-19.5 104,-0.5 0,-0.5"/>
<text text-anchor="middle" x="52" y="-7.5" font-family="Helvetica,sans-Serif" font-size="10.00">SFML/Graphics.hpp</text>
</g>
<!-- Node1&#45;&gt;Node2 -->
<g id="edge2" class="edge"><title>Node1&#45;&gt;Node2</title>
<path fill="none" stroke="midnightblue" d="M237.434,-224.297C208.555,-191.079 104.96,-71.9179 66.5044,-27.6839"/>
<polygon fill="midnightblue" stroke="midnightblue" points="68.9256,-25.1342 59.7233,-19.8837 63.6428,-29.7269 68.9256,-25.1342"/>
</g>
<!-- Node3 -->
<g id="node4" class="node"><title>Node3</title>
<g id="a_node4"><a xlink:href="_globals_8h.html" target="_top" xlink:title="Globals.h">
<polygon fill="none" stroke="black" points="401,-56.5 401,-75.5 459,-75.5 459,-56.5 401,-56.5"/>
<text text-anchor="middle" x="430" y="-63.5" font-family="Helvetica,sans-Serif" font-size="10.00">Globals.h</text>
</a>
</g>
</g>
<!-- Node1&#45;&gt;Node3 -->
<g id="edge3" class="edge"><title>Node1&#45;&gt;Node3</title>
<path fill="none" stroke="midnightblue" d="M246.351,-224.295C250.222,-202.267 263.385,-143.814 298,-112 323.561,-88.5072 361.901,-77.2139 390.684,-71.8243"/>
<polygon fill="midnightblue" stroke="midnightblue" points="391.547,-75.2277 400.815,-70.0941 390.369,-68.3276 391.547,-75.2277"/>
</g>
<!-- Node3&#45;&gt;Node2 -->
<g id="edge4" class="edge"><title>Node3&#45;&gt;Node2</title>
<path fill="none" stroke="midnightblue" d="M400.711,-60.8968C346.418,-53.2789 226.216,-36.3586 114.345,-20.1886"/>
<polygon fill="midnightblue" stroke="midnightblue" points="114.639,-16.6947 104.241,-18.7268 113.636,-23.6226 114.639,-16.6947"/>
</g>
<!-- Node4 -->
<g id="node5" class="node"><title>Node4</title>
<polygon fill="none" stroke="#bfbfbf" points="603,-0.5 603,-19.5 701,-19.5 701,-0.5 603,-0.5"/>
<text text-anchor="middle" x="652" y="-7.5" font-family="Helvetica,sans-Serif" font-size="10.00">SFML/System.hpp</text>
</g>
<!-- Node3&#45;&gt;Node4 -->
<g id="edge5" class="edge"><title>Node3&#45;&gt;Node4</title>
<path fill="none" stroke="midnightblue" d="M459.023,-57.9404C496.64,-48.7901 562.64,-32.7362 606.836,-21.9859"/>
<polygon fill="midnightblue" stroke="midnightblue" points="607.854,-25.3405 616.743,-19.576 606.199,-18.5388 607.854,-25.3405"/>
</g>
<!-- Node5 -->
<g id="node6" class="node"><title>Node5</title>
<polygon fill="none" stroke="#bfbfbf" points="122.5,-0.5 122.5,-19.5 221.5,-19.5 221.5,-0.5 122.5,-0.5"/>
<text text-anchor="middle" x="172" y="-7.5" font-family="Helvetica,sans-Serif" font-size="10.00">SFML/Window.hpp</text>
</g>
<!-- Node3&#45;&gt;Node5 -->
<g id="edge6" class="edge"><title>Node3&#45;&gt;Node5</title>
<path fill="none" stroke="midnightblue" d="M400.906,-58.9105C357.698,-49.8669 275.96,-32.759 222.757,-21.6236"/>
<polygon fill="midnightblue" stroke="midnightblue" points="223.349,-18.1717 212.844,-19.5488 221.915,-25.0233 223.349,-18.1717"/>
</g>
<!-- Node6 -->
<g id="node7" class="node"><title>Node6</title>
<polygon fill="none" stroke="#bfbfbf" points="239.5,-0.5 239.5,-19.5 328.5,-19.5 328.5,-0.5 239.5,-0.5"/>
<text text-anchor="middle" x="284" y="-7.5" font-family="Helvetica,sans-Serif" font-size="10.00">SFML/Audio.hpp</text>
</g>
<!-- Node3&#45;&gt;Node6 -->
<g id="edge7" class="edge"><title>Node3&#45;&gt;Node6</title>
<path fill="none" stroke="midnightblue" d="M406.866,-56.4435C382.518,-47.4381 343.993,-33.1891 316.577,-23.049"/>
<polygon fill="midnightblue" stroke="midnightblue" points="317.619,-19.7028 307.026,-19.5164 315.191,-26.2681 317.619,-19.7028"/>
</g>
<!-- Node7 -->
<g id="node8" class="node"><title>Node7</title>
<polygon fill="none" stroke="#bfbfbf" points="819,-0.5 819,-19.5 873,-19.5 873,-0.5 819,-0.5"/>
<text text-anchor="middle" x="846" y="-7.5" font-family="Helvetica,sans-Serif" font-size="10.00">iostream</text>
</g>
<!-- Node3&#45;&gt;Node7 -->
<g id="edge8" class="edge"><title>Node3&#45;&gt;Node7</title>
<path fill="none" stroke="midnightblue" d="M459.273,-61.6109C520.413,-54.4686 666.104,-37.1148 788,-20 794.78,-19.0481 801.996,-17.9759 808.953,-16.9121"/>
<polygon fill="midnightblue" stroke="midnightblue" points="809.531,-20.3643 818.878,-15.3746 808.46,-13.4468 809.531,-20.3643"/>
</g>
<!-- Node8 -->
<g id="node9" class="node"><title>Node8</title>
<polygon fill="none" stroke="#bfbfbf" points="346.5,-0.5 346.5,-19.5 391.5,-19.5 391.5,-0.5 346.5,-0.5"/>
<text text-anchor="middle" x="369" y="-7.5" font-family="Helvetica,sans-Serif" font-size="10.00">cstdlib</text>
</g>
<!-- Node3&#45;&gt;Node8 -->
<g id="edge9" class="edge"><title>Node3&#45;&gt;Node8</title>
<path fill="none" stroke="midnightblue" d="M420.199,-56.324C411.182,-48.3414 397.594,-36.3128 386.682,-26.6529"/>
<polygon fill="midnightblue" stroke="midnightblue" points="388.787,-23.8416 378.979,-19.8339 384.147,-29.083 388.787,-23.8416"/>
</g>
<!-- Node9 -->
<g id="node10" class="node"><title>Node9</title>
<polygon fill="none" stroke="#bfbfbf" points="409.5,-0.5 409.5,-19.5 450.5,-19.5 450.5,-0.5 409.5,-0.5"/>
<text text-anchor="middle" x="430" y="-7.5" font-family="Helvetica,sans-Serif" font-size="10.00">string</text>
</g>
<!-- Node3&#45;&gt;Node9 -->
<g id="edge10" class="edge"><title>Node3&#45;&gt;Node9</title>
<path fill="none" stroke="midnightblue" d="M430,-56.083C430,-49.0059 430,-38.8611 430,-29.9865"/>
<polygon fill="midnightblue" stroke="midnightblue" points="433.5,-29.751 430,-19.7511 426.5,-29.7511 433.5,-29.751"/>
</g>
<!-- Node10 -->
<g id="node11" class="node"><title>Node10</title>
<polygon fill="none" stroke="#bfbfbf" points="468.5,-0.5 468.5,-19.5 517.5,-19.5 517.5,-0.5 468.5,-0.5"/>
<text text-anchor="middle" x="493" y="-7.5" font-family="Helvetica,sans-Serif" font-size="10.00">fstream</text>
</g>
<!-- Node3&#45;&gt;Node10 -->
<g id="edge11" class="edge"><title>Node3&#45;&gt;Node10</title>
<path fill="none" stroke="midnightblue" d="M440.122,-56.324C449.526,-48.2631 463.744,-36.0765 475.069,-26.3695"/>
<polygon fill="midnightblue" stroke="midnightblue" points="477.379,-28.9993 482.694,-19.8339 472.823,-23.6844 477.379,-28.9993"/>
</g>
<!-- Node11 -->
<g id="node12" class="node"><title>Node11</title>
<polygon fill="none" stroke="#bfbfbf" points="535.5,-0.5 535.5,-19.5 584.5,-19.5 584.5,-0.5 535.5,-0.5"/>
<text text-anchor="middle" x="560" y="-7.5" font-family="Helvetica,sans-Serif" font-size="10.00">cassert</text>
</g>
<!-- Node3&#45;&gt;Node11 -->
<g id="edge12" class="edge"><title>Node3&#45;&gt;Node11</title>
<path fill="none" stroke="midnightblue" d="M450.599,-56.4435C471.993,-47.5566 505.681,-33.5632 530.024,-23.4514"/>
<polygon fill="midnightblue" stroke="midnightblue" points="531.605,-26.5848 539.497,-19.5164 528.92,-20.1203 531.605,-26.5848"/>
</g>
<!-- Node12 -->
<g id="node13" class="node"><title>Node12</title>
<polygon fill="none" stroke="#bfbfbf" points="719.5,-0.5 719.5,-19.5 778.5,-19.5 778.5,-0.5 719.5,-0.5"/>
<text text-anchor="middle" x="749" y="-7.5" font-family="Helvetica,sans-Serif" font-size="10.00">stdexcept</text>
</g>
<!-- Node3&#45;&gt;Node12 -->
<g id="edge13" class="edge"><title>Node3&#45;&gt;Node12</title>
<path fill="none" stroke="midnightblue" d="M459.137,-60.9784C508.464,-54.0276 611.758,-38.8593 709.216,-20.0386"/>
<polygon fill="midnightblue" stroke="midnightblue" points="710.088,-23.4347 719.234,-18.0868 708.749,-16.5639 710.088,-23.4347"/>
</g>
<!-- Node13&#45;&gt;Node1 -->
<g id="edge44" class="edge"><title>Node13&#45;&gt;Node1</title>
<path fill="none" stroke="midnightblue" d="M372.925,-336.414C350.758,-329.11 320.649,-317.069 298,-300 280.449,-286.773 265.17,-266.547 255.585,-252.174"/>
<polygon fill="midnightblue" stroke="midnightblue" points="258.493,-250.226 250.142,-243.706 252.605,-254.011 258.493,-250.226"/>
</g>
<!-- Node13&#45;&gt;Node3 -->
<g id="edge15" class="edge"><title>Node13&#45;&gt;Node3</title>
<path fill="none" stroke="midnightblue" d="M388.379,-336.482C362.656,-320.272 312,-282.339 312,-235 312,-235 312,-235 312,-177 312,-129.512 363.766,-96.6741 398.724,-79.9123"/>
<polygon fill="midnightblue" stroke="midnightblue" points="400.457,-82.9681 408.082,-75.6121 397.534,-76.6075 400.457,-82.9681"/>
</g>
<!-- Node14 -->
<g id="node15" class="node"><title>Node14</title>
<g id="a_node15"><a xlink:href="_board_8h.html" target="_top" xlink:title="Board.h">
<polygon fill="none" stroke="black" points="487,-280.5 487,-299.5 537,-299.5 537,-280.5 487,-280.5"/>
<text text-anchor="middle" x="512" y="-287.5" font-family="Helvetica,sans-Serif" font-size="10.00">Board.h</text>
</a>
</g>
</g>
<!-- Node13&#45;&gt;Node14 -->
<g id="edge16" class="edge"><title>Node13&#45;&gt;Node14</title>
<path fill="none" stroke="midnightblue" d="M420.513,-336.324C438.072,-327.625 465.331,-314.12 485.531,-304.113"/>
<polygon fill="midnightblue" stroke="midnightblue" points="487.124,-307.23 494.531,-299.655 484.016,-300.958 487.124,-307.23"/>
</g>
<!-- Node17 -->
<g id="node18" class="node"><title>Node17</title>
<g id="a_node18"><a xlink:href="_goban_8h.html" target="_top" xlink:title="../../Engine/Goban.h">
<polygon fill="none" stroke="black" points="626,-168.5 626,-187.5 730,-187.5 730,-168.5 626,-168.5"/>
<text text-anchor="middle" x="678" y="-175.5" font-family="Helvetica,sans-Serif" font-size="10.00">../../Engine/Goban.h</text>
</a>
</g>
</g>
<!-- Node13&#45;&gt;Node17 -->
<g id="edge45" class="edge"><title>Node13&#45;&gt;Node17</title>
<path fill="none" stroke="midnightblue" d="M449.941,-336.454C479.136,-329.68 516.584,-318.246 546,-300 585.801,-275.312 584.054,-255.183 619,-224 631.102,-213.201 645.571,-202.139 657.152,-193.686"/>
<polygon fill="midnightblue" stroke="midnightblue" points="659.288,-196.461 665.358,-187.777 655.198,-190.78 659.288,-196.461"/>
</g>
<!-- Node22 -->
<g id="node23" class="node"><title>Node22</title>
<g id="a_node23"><a xlink:href="_arbre_8h.html" target="_top" xlink:title="../../Engine/Arbre.h">
<polygon fill="none" stroke="black" points="628.5,-224.5 628.5,-243.5 727.5,-243.5 727.5,-224.5 628.5,-224.5"/>
<text text-anchor="middle" x="678" y="-231.5" font-family="Helvetica,sans-Serif" font-size="10.00">../../Engine/Arbre.h</text>
</a>
</g>
</g>
<!-- Node13&#45;&gt;Node22 -->
<g id="edge43" class="edge"><title>Node13&#45;&gt;Node22</title>
<path fill="none" stroke="midnightblue" d="M461.914,-341.172C505.552,-336.296 565.293,-325.209 612,-300 634.005,-288.123 653.627,-266.696 665.643,-251.7"/>
<polygon fill="midnightblue" stroke="midnightblue" points="668.453,-253.788 671.799,-243.735 662.914,-249.507 668.453,-253.788"/>
</g>
<!-- Node23 -->
<g id="node24" class="node"><title>Node23</title>
<g id="a_node24"><a xlink:href="_infos_8h.html" target="_top" xlink:title="Infos.h">
<polygon fill="none" stroke="black" points="380.5,-168.5 380.5,-187.5 425.5,-187.5 425.5,-168.5 380.5,-168.5"/>
<text text-anchor="middle" x="403" y="-175.5" font-family="Helvetica,sans-Serif" font-size="10.00">Infos.h</text>
</a>
</g>
</g>
<!-- Node13&#45;&gt;Node23 -->
<g id="edge38" class="edge"><title>Node13&#45;&gt;Node23</title>
<path fill="none" stroke="midnightblue" d="M403,-336.075C403,-309.945 403,-233.211 403,-197.577"/>
<polygon fill="midnightblue" stroke="midnightblue" points="406.5,-197.568 403,-187.568 399.5,-197.568 406.5,-197.568"/>
</g>
<!-- Node14&#45;&gt;Node3 -->
<g id="edge17" class="edge"><title>Node14&#45;&gt;Node3</title>
<path fill="none" stroke="midnightblue" d="M508.786,-280.297C496.669,-247.494 453.597,-130.884 436.788,-85.3774"/>
<polygon fill="midnightblue" stroke="midnightblue" points="440.03,-84.0516 433.281,-75.8837 433.463,-86.477 440.03,-84.0516"/>
</g>
<!-- Node15 -->
<g id="node16" class="node"><title>Node15</title>
<g id="a_node16"><a xlink:href="_square_8h.html" target="_top" xlink:title="Square.h">
<polygon fill="none" stroke="black" points="484,-112.5 484,-131.5 540,-131.5 540,-112.5 484,-112.5"/>
<text text-anchor="middle" x="512" y="-119.5" font-family="Helvetica,sans-Serif" font-size="10.00">Square.h</text>
</a>
</g>
</g>
<!-- Node14&#45;&gt;Node15 -->
<g id="edge18" class="edge"><title>Node14&#45;&gt;Node15</title>
<path fill="none" stroke="midnightblue" d="M512,-280.075C512,-253.945 512,-177.211 512,-141.577"/>
<polygon fill="midnightblue" stroke="midnightblue" points="515.5,-141.568 512,-131.568 508.5,-141.568 515.5,-141.568"/>
</g>
<!-- Node14&#45;&gt;Node17 -->
<g id="edge22" class="edge"><title>Node14&#45;&gt;Node17</title>
<path fill="none" stroke="midnightblue" d="M520.188,-280.123C532.889,-266.717 558.539,-241.063 584,-224 603.583,-210.877 627.58,-199.455 646.427,-191.403"/>
<polygon fill="midnightblue" stroke="midnightblue" points="647.881,-194.589 655.762,-187.508 645.186,-188.128 647.881,-194.589"/>
</g>
<!-- Node14&#45;&gt;Node22 -->
<g id="edge34" class="edge"><title>Node14&#45;&gt;Node22</title>
<path fill="none" stroke="midnightblue" d="M537.212,-280.799C565.12,-271.72 610.332,-257.012 641.971,-246.72"/>
<polygon fill="midnightblue" stroke="midnightblue" points="643.3,-249.969 651.727,-243.547 641.135,-243.312 643.3,-249.969"/>
</g>
<!-- Node15&#45;&gt;Node3 -->
<g id="edge19" class="edge"><title>Node15&#45;&gt;Node3</title>
<path fill="none" stroke="midnightblue" d="M498.825,-112.324C486.153,-103.979 466.767,-91.2122 451.794,-81.3524"/>
<polygon fill="midnightblue" stroke="midnightblue" points="453.419,-78.2313 443.142,-75.6545 449.569,-84.0776 453.419,-78.2313"/>
</g>
<!-- Node16 -->
<g id="node17" class="node"><title>Node16</title>
<g id="a_node17"><a xlink:href="_etat_8h.html" target="_top" xlink:title="../../Engine/Etat.h">
<polygon fill="none" stroke="black" points="651,-56.5 651,-75.5 745,-75.5 745,-56.5 651,-56.5"/>
<text text-anchor="middle" x="698" y="-63.5" font-family="Helvetica,sans-Serif" font-size="10.00">../../Engine/Etat.h</text>
</a>
</g>
</g>
<!-- Node15&#45;&gt;Node16 -->
<g id="edge20" class="edge"><title>Node15&#45;&gt;Node16</title>
<path fill="none" stroke="midnightblue" d="M540.249,-112.799C571.791,-103.641 623.058,-88.7572 658.547,-78.454"/>
<polygon fill="midnightblue" stroke="midnightblue" points="659.934,-81.6961 668.561,-75.5467 657.982,-74.9736 659.934,-81.6961"/>
</g>
<!-- Node16&#45;&gt;Node7 -->
<g id="edge21" class="edge"><title>Node16&#45;&gt;Node7</title>
<path fill="none" stroke="midnightblue" d="M721.451,-56.4435C746.133,-47.4381 785.185,-33.1891 812.977,-23.049"/>
<polygon fill="midnightblue" stroke="midnightblue" points="814.464,-26.2321 822.659,-19.5164 812.065,-19.6561 814.464,-26.2321"/>
</g>
<!-- Node17&#45;&gt;Node7 -->
<g id="edge23" class="edge"><title>Node17&#45;&gt;Node7</title>
<path fill="none" stroke="midnightblue" d="M718.378,-168.472C742.043,-161.798 771.262,-150.465 792,-132 822.818,-104.56 836.96,-56.1679 842.665,-29.6569"/>
<polygon fill="midnightblue" stroke="midnightblue" points="846.116,-30.2479 844.618,-19.7596 839.249,-28.8931 846.116,-30.2479"/>
</g>
<!-- Node17&#45;&gt;Node12 -->
<g id="edge33" class="edge"><title>Node17&#45;&gt;Node12</title>
<path fill="none" stroke="midnightblue" d="M640.032,-168.411C620.592,-161.883 598.624,-150.715 587,-132 577.476,-116.666 577.562,-75.2687 594,-56 597.868,-51.4665 665.053,-33.0837 709.689,-21.2619"/>
<polygon fill="midnightblue" stroke="midnightblue" points="710.616,-24.637 719.392,-18.701 708.83,-17.8687 710.616,-24.637"/>
</g>
<!-- Node17&#45;&gt;Node16 -->
<g id="edge25" class="edge"><title>Node17&#45;&gt;Node16</title>
<path fill="none" stroke="midnightblue" d="M679.569,-168.368C682.797,-150.617 690.242,-109.666 694.619,-85.5974"/>
<polygon fill="midnightblue" stroke="midnightblue" points="698.093,-86.0562 696.438,-75.5914 691.205,-84.804 698.093,-86.0562"/>
</g>
<!-- Node18 -->
<g id="node19" class="node"><title>Node18</title>
<polygon fill="none" stroke="#bfbfbf" points="771,-56.5 771,-75.5 813,-75.5 813,-56.5 771,-56.5"/>
<text text-anchor="middle" x="792" y="-63.5" font-family="Helvetica,sans-Serif" font-size="10.00">vector</text>
</g>
<!-- Node17&#45;&gt;Node18 -->
<g id="edge24" class="edge"><title>Node17&#45;&gt;Node18</title>
<path fill="none" stroke="midnightblue" d="M712.268,-168.453C732.594,-161.717 757.363,-150.325 773,-132 784.08,-119.015 788.703,-99.8517 790.63,-85.6944"/>
<polygon fill="midnightblue" stroke="midnightblue" points="794.124,-85.934 791.669,-75.6275 787.161,-85.2155 794.124,-85.934"/>
</g>
<!-- Node19 -->
<g id="node20" class="node"><title>Node19</title>
<g id="a_node20"><a xlink:href="_groupe_8h.html" target="_top" xlink:title="Groupe.h">
<polygon fill="none" stroke="black" points="708,-112.5 708,-131.5 764,-131.5 764,-112.5 708,-112.5"/>
<text text-anchor="middle" x="736" y="-119.5" font-family="Helvetica,sans-Serif" font-size="10.00">Groupe.h</text>
</a>
</g>
</g>
<!-- Node17&#45;&gt;Node19 -->
<g id="edge26" class="edge"><title>Node17&#45;&gt;Node19</title>
<path fill="none" stroke="midnightblue" d="M687.319,-168.324C695.893,-160.341 708.812,-148.313 719.188,-138.653"/>
<polygon fill="midnightblue" stroke="midnightblue" points="721.578,-141.21 726.512,-131.834 716.808,-136.086 721.578,-141.21"/>
</g>
<!-- Node20 -->
<g id="node21" class="node"><title>Node20</title>
<g id="a_node21"><a xlink:href="_history_8h.html" target="_top" xlink:title="History.h">
<polygon fill="none" stroke="black" points="596,-112.5 596,-131.5 652,-131.5 652,-112.5 596,-112.5"/>
<text text-anchor="middle" x="624" y="-119.5" font-family="Helvetica,sans-Serif" font-size="10.00">History.h</text>
</a>
</g>
</g>
<!-- Node17&#45;&gt;Node20 -->
<g id="edge29" class="edge"><title>Node17&#45;&gt;Node20</title>
<path fill="none" stroke="midnightblue" d="M669.083,-168.083C661.22,-160.22 649.569,-148.569 640.081,-139.081"/>
<polygon fill="midnightblue" stroke="midnightblue" points="642.297,-136.347 632.751,-131.751 637.347,-141.297 642.297,-136.347"/>
</g>
<!-- Node19&#45;&gt;Node16 -->
<g id="edge28" class="edge"><title>Node19&#45;&gt;Node16</title>
<path fill="none" stroke="midnightblue" d="M729.725,-112.083C724.358,-104.455 716.482,-93.2645 709.921,-83.9408"/>
<polygon fill="midnightblue" stroke="midnightblue" points="712.775,-81.9149 704.158,-75.7511 707.051,-85.9434 712.775,-81.9149"/>
</g>
<!-- Node19&#45;&gt;Node18 -->
<g id="edge27" class="edge"><title>Node19&#45;&gt;Node18</title>
<path fill="none" stroke="midnightblue" d="M744.997,-112.324C753.194,-104.42 765.506,-92.5482 775.472,-82.9377"/>
<polygon fill="midnightblue" stroke="midnightblue" points="778.07,-85.2947 782.839,-75.8339 773.211,-80.2558 778.07,-85.2947"/>
</g>
<!-- Node20&#45;&gt;Node3 -->
<g id="edge30" class="edge"><title>Node20&#45;&gt;Node3</title>
<path fill="none" stroke="midnightblue" d="M595.791,-113.148C562.459,-103.87 506.799,-88.377 469.267,-77.93"/>
<polygon fill="midnightblue" stroke="midnightblue" points="469.768,-74.4364 459.195,-75.1266 467.891,-81.18 469.768,-74.4364"/>
</g>
<!-- Node20&#45;&gt;Node16 -->
<g id="edge31" class="edge"><title>Node20&#45;&gt;Node16</title>
<path fill="none" stroke="midnightblue" d="M635.889,-112.324C647.15,-104.107 664.287,-91.6017 677.709,-81.8069"/>
<polygon fill="midnightblue" stroke="midnightblue" points="679.88,-84.5559 685.894,-75.8339 675.753,-78.9014 679.88,-84.5559"/>
</g>
<!-- Node21 -->
<g id="node22" class="node"><title>Node21</title>
<polygon fill="none" stroke="#bfbfbf" points="603.5,-56.5 603.5,-75.5 632.5,-75.5 632.5,-56.5 603.5,-56.5"/>
<text text-anchor="middle" x="618" y="-63.5" font-family="Helvetica,sans-Serif" font-size="10.00">list</text>
</g>
<!-- Node20&#45;&gt;Node21 -->
<g id="edge32" class="edge"><title>Node20&#45;&gt;Node21</title>
<path fill="none" stroke="midnightblue" d="M623.009,-112.083C622.214,-104.927 621.071,-94.6353 620.077,-85.6911"/>
<polygon fill="midnightblue" stroke="midnightblue" points="623.555,-85.3034 618.972,-75.7511 616.598,-86.0765 623.555,-85.3034"/>
</g>
<!-- Node22&#45;&gt;Node7 -->
<g id="edge36" class="edge"><title>Node22&#45;&gt;Node7</title>
<path fill="none" stroke="midnightblue" d="M704.588,-224.463C724.833,-217.054 752.601,-204.856 773,-188 818.803,-150.151 830.749,-133.427 846,-76 850.032,-60.8159 849.679,-42.9234 848.517,-29.7588"/>
<polygon fill="midnightblue" stroke="midnightblue" points="851.97,-29.1421 847.378,-19.594 845.014,-29.9216 851.97,-29.1421"/>
</g>
<!-- Node22&#45;&gt;Node17 -->
<g id="edge35" class="edge"><title>Node22&#45;&gt;Node17</title>
<path fill="none" stroke="midnightblue" d="M678,-224.083C678,-217.006 678,-206.861 678,-197.986"/>
<polygon fill="midnightblue" stroke="midnightblue" points="681.5,-197.751 678,-187.751 674.5,-197.751 681.5,-197.751"/>
</g>
<!-- Node22&#45;&gt;Node18 -->
<g id="edge37" class="edge"><title>Node22&#45;&gt;Node18</title>
<path fill="none" stroke="midnightblue" d="M695.267,-224.49C722.428,-209.954 773.904,-177.447 792,-132 797.871,-117.257 797.292,-99.0972 795.577,-85.7234"/>
<polygon fill="midnightblue" stroke="midnightblue" points="799.025,-85.1156 793.987,-75.7951 792.113,-86.2229 799.025,-85.1156"/>
</g>
<!-- Node23&#45;&gt;Node3 -->
<g id="edge39" class="edge"><title>Node23&#45;&gt;Node3</title>
<path fill="none" stroke="midnightblue" d="M392.609,-168.21C379.211,-155.756 358.782,-132.235 369,-112 375.807,-98.5199 388.768,-88.083 400.998,-80.6696"/>
<polygon fill="midnightblue" stroke="midnightblue" points="403.07,-83.5214 410.094,-75.5896 399.657,-77.4099 403.07,-83.5214"/>
</g>
<!-- Node23&#45;&gt;Node15 -->
<g id="edge40" class="edge"><title>Node23&#45;&gt;Node15</title>
<path fill="none" stroke="midnightblue" d="M420.513,-168.324C438.072,-159.625 465.331,-146.12 485.531,-136.113"/>
<polygon fill="midnightblue" stroke="midnightblue" points="487.124,-139.23 494.531,-131.655 484.016,-132.958 487.124,-139.23"/>
</g>
<!-- Node24 -->
<g id="node25" class="node"><title>Node24</title>
<g id="a_node25"><a xlink:href="_timer_8h.html" target="_top" xlink:title="Timer.h">
<polygon fill="none" stroke="black" points="378.5,-112.5 378.5,-131.5 427.5,-131.5 427.5,-112.5 378.5,-112.5"/>
<text text-anchor="middle" x="403" y="-119.5" font-family="Helvetica,sans-Serif" font-size="10.00">Timer.h</text>
</a>
</g>
</g>
<!-- Node23&#45;&gt;Node24 -->
<g id="edge41" class="edge"><title>Node23&#45;&gt;Node24</title>
<path fill="none" stroke="midnightblue" d="M403,-168.083C403,-161.006 403,-150.861 403,-141.986"/>
<polygon fill="midnightblue" stroke="midnightblue" points="406.5,-141.751 403,-131.751 399.5,-141.751 406.5,-141.751"/>
</g>
<!-- Node24&#45;&gt;Node3 -->
<g id="edge42" class="edge"><title>Node24&#45;&gt;Node3</title>
<path fill="none" stroke="midnightblue" d="M407.459,-112.083C411.154,-104.691 416.523,-93.9533 421.094,-84.8111"/>
<polygon fill="midnightblue" stroke="midnightblue" points="424.283,-86.2606 425.624,-75.7511 418.022,-83.1301 424.283,-86.2606"/>
</g>
</g>
</svg>
