<?xml version="1.0" encoding="UTF-8" standalone="no"?>
<!DOCTYPE svg PUBLIC "-//W3C//DTD SVG 1.1//EN"
 "http://www.w3.org/Graphics/SVG/1.1/DTD/svg11.dtd">
<!-- Generated by graphviz version 2.38.0 (20140413.2041)
 -->
<!-- Title: D:/Users/Victor/OneDrive/Documents/Visual Studio 2017/Projects/Jeu_de_Go/Jeu_de_Go/Sources/Graphics/Screen.h Pages: 1 -->
<svg width="1109pt" height="572pt"
 viewBox="0.00 0.00 1109.00 572.00" xmlns="http://www.w3.org/2000/svg" xmlns:xlink="http://www.w3.org/1999/xlink">
<g id="graph0" class="graph" transform="scale(1 1) rotate(0) translate(4 568)">
<title>D:/Users/Victor/OneDrive/Documents/Visual Studio 2017/Projects/Jeu_de_Go/Jeu_de_Go/Sources/Graphics/Screen.h</title>
<!-- Node12 -->
<g id="node1" class="node"><title>Node12</title>
<polygon fill="#bfbfbf" stroke="black" points="772,-500.5 772,-563.5 921,-563.5 921,-500.5 772,-500.5"/>
<text text-anchor="start" x="780" y="-551.5" font-family="Helvetica,sans-Serif" font-size="10.00">D:/Users/Victor/OneDrive</text>
<text text-anchor="start" x="780" y="-540.5" font-family="Helvetica,sans-Serif" font-size="10.00">/Documents/Visual Studio</text>
<text text-anchor="start" x="780" y="-529.5" font-family="Helvetica,sans-Serif" font-size="10.00"> 2017/Projects/Jeu_de_Go</text>
<text text-anchor="start" x="780" y="-518.5" font-family="Helvetica,sans-Serif" font-size="10.00">/Jeu_de_Go/Sources/Graphics</text>
<text text-anchor="middle" x="846.5" y="-507.5" font-family="Helvetica,sans-Serif" font-size="10.00">/Screen.h</text>
</g>
<!-- Node13 -->
<g id="node2" class="node"><title>Node13</title>
<g id="a_node2"><a xlink:href="_game__window_8h.html" target="_top" xlink:title="D:/Users/Victor/OneDrive\l/Documents/Visual Studio\l 2017/Projects/Jeu_de_Go\l/Jeu_de_Go/Sources/Graphics\l/Game/Game_window.h">
<polygon fill="none" stroke="black" points="772,-400.5 772,-463.5 921,-463.5 921,-400.5 772,-400.5"/>
<text text-anchor="start" x="780" y="-451.5" font-family="Helvetica,sans-Serif" font-size="10.00">D:/Users/Victor/OneDrive</text>
<text text-anchor="start" x="780" y="-440.5" font-family="Helvetica,sans-Serif" font-size="10.00">/Documents/Visual Studio</text>
<text text-anchor="start" x="780" y="-429.5" font-family="Helvetica,sans-Serif" font-size="10.00"> 2017/Projects/Jeu_de_Go</text>
<text text-anchor="start" x="780" y="-418.5" font-family="Helvetica,sans-Serif" font-size="10.00">/Jeu_de_Go/Sources/Graphics</text>
<text text-anchor="middle" x="846.5" y="-407.5" font-family="Helvetica,sans-Serif" font-size="10.00">/Game/Game_window.h</text>
</a>
</g>
</g>
<!-- Node12&#45;&gt;Node13 -->
<g id="edge1" class="edge"><title>Node12&#45;&gt;Node13</title>
<path fill="none" stroke="midnightblue" d="M846.5,-490.099C846.5,-481.238 846.5,-472.015 846.5,-463.63"/>
<polygon fill="midnightblue" stroke="midnightblue" points="843,-490.261 846.5,-500.261 850,-490.261 843,-490.261"/>
</g>
<!-- Node25 -->
<g id="node14" class="node"><title>Node25</title>
<g id="a_node14"><a xlink:href="_menu_8h.html" target="_top" xlink:title="D:/Users/Victor/OneDrive\l/Documents/Visual Studio\l 2017/Projects/Jeu_de_Go\l/Jeu_de_Go/Sources/Graphics/Menu.h">
<polygon fill="none" stroke="black" points="209,-206 209,-258 394,-258 394,-206 209,-206"/>
<text text-anchor="start" x="217" y="-246" font-family="Helvetica,sans-Serif" font-size="10.00">D:/Users/Victor/OneDrive</text>
<text text-anchor="start" x="217" y="-235" font-family="Helvetica,sans-Serif" font-size="10.00">/Documents/Visual Studio</text>
<text text-anchor="start" x="217" y="-224" font-family="Helvetica,sans-Serif" font-size="10.00"> 2017/Projects/Jeu_de_Go</text>
<text text-anchor="middle" x="301.5" y="-213" font-family="Helvetica,sans-Serif" font-size="10.00">/Jeu_de_Go/Sources/Graphics/Menu.h</text>
</a>
</g>
</g>
<!-- Node12&#45;&gt;Node25 -->
<g id="edge25" class="edge"><title>Node12&#45;&gt;Node25</title>
<path fill="none" stroke="midnightblue" d="M781.67,-495.552C670.049,-434.519 444.242,-311.05 347.351,-258.071"/>
<polygon fill="midnightblue" stroke="midnightblue" points="780.029,-498.644 790.483,-500.37 783.388,-492.502 780.029,-498.644"/>
</g>
<!-- Node28 -->
<g id="node17" class="node"><title>Node28</title>
<g id="a_node17"><a xlink:href="_screens_8h.html" target="_top" xlink:title="D:/Users/Victor/OneDrive\l/Documents/Visual Studio\l 2017/Projects/Jeu_de_Go\l/Jeu_de_Go/Sources/Graphics\l/Screens.h">
<polygon fill="none" stroke="black" points="952,-300.5 952,-363.5 1101,-363.5 1101,-300.5 952,-300.5"/>
<text text-anchor="start" x="960" y="-351.5" font-family="Helvetica,sans-Serif" font-size="10.00">D:/Users/Victor/OneDrive</text>
<text text-anchor="start" x="960" y="-340.5" font-family="Helvetica,sans-Serif" font-size="10.00">/Documents/Visual Studio</text>
<text text-anchor="start" x="960" y="-329.5" font-family="Helvetica,sans-Serif" font-size="10.00"> 2017/Projects/Jeu_de_Go</text>
<text text-anchor="start" x="960" y="-318.5" font-family="Helvetica,sans-Serif" font-size="10.00">/Jeu_de_Go/Sources/Graphics</text>
<text text-anchor="middle" x="1026.5" y="-307.5" font-family="Helvetica,sans-Serif" font-size="10.00">/Screens.h</text>
</a>
</g>
</g>
<!-- Node12&#45;&gt;Node28 -->
<g id="edge24" class="edge"><title>Node12&#45;&gt;Node28</title>
<path fill="none" stroke="midnightblue" d="M896.905,-493.722C908.114,-484.519 919.598,-474.325 929.5,-464 959.764,-432.445 988.829,-391.264 1007.12,-363.568"/>
<polygon fill="midnightblue" stroke="midnightblue" points="894.41,-491.237 888.818,-500.235 898.801,-496.688 894.41,-491.237"/>
</g>
<!-- Node14 -->
<g id="node3" class="node"><title>Node14</title>
<g id="a_node3"><a xlink:href="_choice_8h.html" target="_top" xlink:title="D:/Users/Victor/OneDrive\l/Documents/Visual Studio\l 2017/Projects/Jeu_de_Go\l/Jeu_de_Go/Sources/Graphics\l/Choice.h">
<polygon fill="none" stroke="black" points="579,-300.5 579,-363.5 728,-363.5 728,-300.5 579,-300.5"/>
<text text-anchor="start" x="587" y="-351.5" font-family="Helvetica,sans-Serif" font-size="10.00">D:/Users/Victor/OneDrive</text>
<text text-anchor="start" x="587" y="-340.5" font-family="Helvetica,sans-Serif" font-size="10.00">/Documents/Visual Studio</text>
<text text-anchor="start" x="587" y="-329.5" font-family="Helvetica,sans-Serif" font-size="10.00"> 2017/Projects/Jeu_de_Go</text>
<text text-anchor="start" x="587" y="-318.5" font-family="Helvetica,sans-Serif" font-size="10.00">/Jeu_de_Go/Sources/Graphics</text>
<text text-anchor="middle" x="653.5" y="-307.5" font-family="Helvetica,sans-Serif" font-size="10.00">/Choice.h</text>
</a>
</g>
</g>
<!-- Node13&#45;&gt;Node14 -->
<g id="edge2" class="edge"><title>Node13&#45;&gt;Node14</title>
<path fill="none" stroke="midnightblue" d="M777.14,-395.781C756.37,-385.234 733.773,-373.76 713.647,-363.541"/>
<polygon fill="midnightblue" stroke="midnightblue" points="775.726,-398.988 786.227,-400.395 778.896,-392.747 775.726,-398.988"/>
</g>
<!-- Node19 -->
<g id="node8" class="node"><title>Node19</title>
<g id="a_node8"><a xlink:href="_main_8cpp.html" target="_top" xlink:title="D:/Users/Victor/OneDrive\l/Documents/Visual Studio\l 2017/Projects/Jeu_de_Go\l/Jeu_de_Go/Sources/Graphics\l/Main.cpp">
<polygon fill="none" stroke="black" points="572,-0.5 572,-63.5 721,-63.5 721,-0.5 572,-0.5"/>
<text text-anchor="start" x="580" y="-51.5" font-family="Helvetica,sans-Serif" font-size="10.00">D:/Users/Victor/OneDrive</text>
<text text-anchor="start" x="580" y="-40.5" font-family="Helvetica,sans-Serif" font-size="10.00">/Documents/Visual Studio</text>
<text text-anchor="start" x="580" y="-29.5" font-family="Helvetica,sans-Serif" font-size="10.00"> 2017/Projects/Jeu_de_Go</text>
<text text-anchor="start" x="580" y="-18.5" font-family="Helvetica,sans-Serif" font-size="10.00">/Jeu_de_Go/Sources/Graphics</text>
<text text-anchor="middle" x="646.5" y="-7.5" font-family="Helvetica,sans-Serif" font-size="10.00">/Main.cpp</text>
</a>
</g>
</g>
<!-- Node13&#45;&gt;Node19 -->
<g id="edge23" class="edge"><title>Node13&#45;&gt;Node19</title>
<path fill="none" stroke="midnightblue" d="M886.856,-392.62C893.671,-383.917 899.746,-374.206 903.5,-364 923.752,-308.94 939.371,-146.422 903.5,-100 881.262,-71.2219 788.844,-52.4696 721.181,-42.3146"/>
<polygon fill="midnightblue" stroke="midnightblue" points="884.155,-390.394 880.435,-400.314 889.53,-394.879 884.155,-390.394"/>
</g>
<!-- Node27 -->
<g id="node16" class="node"><title>Node27</title>
<g id="a_node16"><a xlink:href="_game__window_8cpp.html" target="_top" xlink:title="D:/Users/Victor/OneDrive\l/Documents/Visual Studio\l 2017/Projects/Jeu_de_Go\l/Jeu_de_Go/Sources/Graphics\l/Game/Game_window.cpp">
<polygon fill="none" stroke="black" points="746,-300.5 746,-363.5 895,-363.5 895,-300.5 746,-300.5"/>
<text text-anchor="start" x="754" y="-351.5" font-family="Helvetica,sans-Serif" font-size="10.00">D:/Users/Victor/OneDrive</text>
<text text-anchor="start" x="754" y="-340.5" font-family="Helvetica,sans-Serif" font-size="10.00">/Documents/Visual Studio</text>
<text text-anchor="start" x="754" y="-329.5" font-family="Helvetica,sans-Serif" font-size="10.00"> 2017/Projects/Jeu_de_Go</text>
<text text-anchor="start" x="754" y="-318.5" font-family="Helvetica,sans-Serif" font-size="10.00">/Jeu_de_Go/Sources/Graphics</text>
<text text-anchor="middle" x="820.5" y="-307.5" font-family="Helvetica,sans-Serif" font-size="10.00">/Game/Game_window.cpp</text>
</a>
</g>
</g>
<!-- Node13&#45;&gt;Node27 -->
<g id="edge20" class="edge"><title>Node13&#45;&gt;Node27</title>
<path fill="none" stroke="midnightblue" d="M835.725,-390.387C833.351,-381.439 830.875,-372.106 828.626,-363.63"/>
<polygon fill="midnightblue" stroke="midnightblue" points="832.397,-391.493 838.345,-400.261 839.163,-389.698 832.397,-391.493"/>
</g>
<!-- Node13&#45;&gt;Node28 -->
<g id="edge21" class="edge"><title>Node13&#45;&gt;Node28</title>
<path fill="none" stroke="midnightblue" d="M911.906,-395.39C931.023,-384.982 951.744,-373.701 970.241,-363.63"/>
<polygon fill="midnightblue" stroke="midnightblue" points="910.068,-392.405 902.959,-400.261 913.416,-398.553 910.068,-392.405"/>
</g>
<!-- Node15 -->
<g id="node4" class="node"><title>Node15</title>
<g id="a_node4"><a xlink:href="_choice_8cpp.html" target="_top" xlink:title="D:/Users/Victor/OneDrive\l/Documents/Visual Studio\l 2017/Projects/Jeu_de_Go\l/Jeu_de_Go/Sources/Graphics\l/Choice.cpp">
<polygon fill="none" stroke="black" points="746,-200.5 746,-263.5 895,-263.5 895,-200.5 746,-200.5"/>
<text text-anchor="start" x="754" y="-251.5" font-family="Helvetica,sans-Serif" font-size="10.00">D:/Users/Victor/OneDrive</text>
<text text-anchor="start" x="754" y="-240.5" font-family="Helvetica,sans-Serif" font-size="10.00">/Documents/Visual Studio</text>
<text text-anchor="start" x="754" y="-229.5" font-family="Helvetica,sans-Serif" font-size="10.00"> 2017/Projects/Jeu_de_Go</text>
<text text-anchor="start" x="754" y="-218.5" font-family="Helvetica,sans-Serif" font-size="10.00">/Jeu_de_Go/Sources/Graphics</text>
<text text-anchor="middle" x="820.5" y="-207.5" font-family="Helvetica,sans-Serif" font-size="10.00">/Choice.cpp</text>
</a>
</g>
</g>
<!-- Node14&#45;&gt;Node15 -->
<g id="edge3" class="edge"><title>Node14&#45;&gt;Node15</title>
<path fill="none" stroke="midnightblue" d="M714.906,-294.966C732.44,-284.676 751.376,-273.564 768.304,-263.63"/>
<polygon fill="midnightblue" stroke="midnightblue" points="712.735,-292.181 705.882,-300.261 716.278,-298.218 712.735,-292.181"/>
</g>
<!-- Node16 -->
<g id="node5" class="node"><title>Node16</title>
<g id="a_node5"><a xlink:href="_choice__miniature_8h.html" target="_top" xlink:title="D:/Users/Victor/OneDrive\l/Documents/Visual Studio\l 2017/Projects/Jeu_de_Go\l/Jeu_de_Go/Sources/Graphics\l/Choice_miniature.h">
<polygon fill="none" stroke="black" points="579,-200.5 579,-263.5 728,-263.5 728,-200.5 579,-200.5"/>
<text text-anchor="start" x="587" y="-251.5" font-family="Helvetica,sans-Serif" font-size="10.00">D:/Users/Victor/OneDrive</text>
<text text-anchor="start" x="587" y="-240.5" font-family="Helvetica,sans-Serif" font-size="10.00">/Documents/Visual Studio</text>
<text text-anchor="start" x="587" y="-229.5" font-family="Helvetica,sans-Serif" font-size="10.00"> 2017/Projects/Jeu_de_Go</text>
<text text-anchor="start" x="587" y="-218.5" font-family="Helvetica,sans-Serif" font-size="10.00">/Jeu_de_Go/Sources/Graphics</text>
<text text-anchor="middle" x="653.5" y="-207.5" font-family="Helvetica,sans-Serif" font-size="10.00">/Choice_miniature.h</text>
</a>
</g>
</g>
<!-- Node14&#45;&gt;Node16 -->
<g id="edge4" class="edge"><title>Node14&#45;&gt;Node16</title>
<path fill="none" stroke="midnightblue" d="M653.5,-290.099C653.5,-281.238 653.5,-272.015 653.5,-263.63"/>
<polygon fill="midnightblue" stroke="midnightblue" points="650,-290.261 653.5,-300.261 657,-290.261 650,-290.261"/>
</g>
<!-- Node21 -->
<g id="node10" class="node"><title>Node21</title>
<g id="a_node10"><a xlink:href="_choice___simple_8h.html" target="_top" xlink:title="D:/Users/Victor/OneDrive\l/Documents/Visual Studio\l 2017/Projects/Jeu_de_Go\l/Jeu_de_Go/Sources/Graphics\l/Choice_Simple.h">
<polygon fill="none" stroke="black" points="412,-200.5 412,-263.5 561,-263.5 561,-200.5 412,-200.5"/>
<text text-anchor="start" x="420" y="-251.5" font-family="Helvetica,sans-Serif" font-size="10.00">D:/Users/Victor/OneDrive</text>
<text text-anchor="start" x="420" y="-240.5" font-family="Helvetica,sans-Serif" font-size="10.00">/Documents/Visual Studio</text>
<text text-anchor="start" x="420" y="-229.5" font-family="Helvetica,sans-Serif" font-size="10.00"> 2017/Projects/Jeu_de_Go</text>
<text text-anchor="start" x="420" y="-218.5" font-family="Helvetica,sans-Serif" font-size="10.00">/Jeu_de_Go/Sources/Graphics</text>
<text text-anchor="middle" x="486.5" y="-207.5" font-family="Helvetica,sans-Serif" font-size="10.00">/Choice_Simple.h</text>
</a>
</g>
</g>
<!-- Node14&#45;&gt;Node21 -->
<g id="edge10" class="edge"><title>Node14&#45;&gt;Node21</title>
<path fill="none" stroke="midnightblue" d="M592.094,-294.966C574.56,-284.676 555.624,-273.564 538.696,-263.63"/>
<polygon fill="midnightblue" stroke="midnightblue" points="590.722,-298.218 601.118,-300.261 594.265,-292.181 590.722,-298.218"/>
</g>
<!-- Node14&#45;&gt;Node25 -->
<g id="edge16" class="edge"><title>Node14&#45;&gt;Node25</title>
<path fill="none" stroke="midnightblue" d="M569.01,-309.278C520.222,-296.528 457.763,-279.851 402.5,-264 395.888,-262.104 389.046,-260.098 382.184,-258.055"/>
<polygon fill="midnightblue" stroke="midnightblue" points="568.332,-312.719 578.892,-311.856 570.099,-305.945 568.332,-312.719"/>
</g>
<!-- Node17 -->
<g id="node6" class="node"><title>Node17</title>
<g id="a_node6"><a xlink:href="_choice__miniature_8cpp.html" target="_top" xlink:title="D:/Users/Victor/OneDrive\l/Documents/Visual Studio\l 2017/Projects/Jeu_de_Go\l/Jeu_de_Go/Sources/Graphics\l/Choice_miniature.cpp">
<polygon fill="none" stroke="black" points="746,-100.5 746,-163.5 895,-163.5 895,-100.5 746,-100.5"/>
<text text-anchor="start" x="754" y="-151.5" font-family="Helvetica,sans-Serif" font-size="10.00">D:/Users/Victor/OneDrive</text>
<text text-anchor="start" x="754" y="-140.5" font-family="Helvetica,sans-Serif" font-size="10.00">/Documents/Visual Studio</text>
<text text-anchor="start" x="754" y="-129.5" font-family="Helvetica,sans-Serif" font-size="10.00"> 2017/Projects/Jeu_de_Go</text>
<text text-anchor="start" x="754" y="-118.5" font-family="Helvetica,sans-Serif" font-size="10.00">/Jeu_de_Go/Sources/Graphics</text>
<text text-anchor="middle" x="820.5" y="-107.5" font-family="Helvetica,sans-Serif" font-size="10.00">/Choice_miniature.cpp</text>
</a>
</g>
</g>
<!-- Node16&#45;&gt;Node17 -->
<g id="edge5" class="edge"><title>Node16&#45;&gt;Node17</title>
<path fill="none" stroke="midnightblue" d="M714.906,-194.966C732.44,-184.676 751.376,-173.564 768.304,-163.63"/>
<polygon fill="midnightblue" stroke="midnightblue" points="712.735,-192.181 705.882,-200.261 716.278,-198.218 712.735,-192.181"/>
</g>
<!-- Node18 -->
<g id="node7" class="node"><title>Node18</title>
<g id="a_node7"><a xlink:href="_menu___miniature_8h.html" target="_top" xlink:title="D:/Users/Victor/OneDrive\l/Documents/Visual Studio\l 2017/Projects/Jeu_de_Go\l/Jeu_de_Go/Sources/Graphics\l/Menu_Miniature.h">
<polygon fill="none" stroke="black" points="334,-100.5 334,-163.5 483,-163.5 483,-100.5 334,-100.5"/>
<text text-anchor="start" x="342" y="-151.5" font-family="Helvetica,sans-Serif" font-size="10.00">D:/Users/Victor/OneDrive</text>
<text text-anchor="start" x="342" y="-140.5" font-family="Helvetica,sans-Serif" font-size="10.00">/Documents/Visual Studio</text>
<text text-anchor="start" x="342" y="-129.5" font-family="Helvetica,sans-Serif" font-size="10.00"> 2017/Projects/Jeu_de_Go</text>
<text text-anchor="start" x="342" y="-118.5" font-family="Helvetica,sans-Serif" font-size="10.00">/Jeu_de_Go/Sources/Graphics</text>
<text text-anchor="middle" x="408.5" y="-107.5" font-family="Helvetica,sans-Serif" font-size="10.00">/Menu_Miniature.h</text>
</a>
</g>
</g>
<!-- Node16&#45;&gt;Node18 -->
<g id="edge6" class="edge"><title>Node16&#45;&gt;Node18</title>
<path fill="none" stroke="midnightblue" d="M569.594,-197.437C541.505,-186.202 510.4,-173.76 483.074,-162.829"/>
<polygon fill="midnightblue" stroke="midnightblue" points="568.409,-200.733 578.994,-201.198 571.009,-194.234 568.409,-200.733"/>
</g>
<!-- Node16&#45;&gt;Node19 -->
<g id="edge9" class="edge"><title>Node16&#45;&gt;Node19</title>
<path fill="none" stroke="midnightblue" d="M684.568,-191.796C689.893,-183.099 694.63,-173.6 697.5,-164 705.649,-136.748 706.591,-126.953 697.5,-100 693.061,-86.8409 684.894,-74.2217 676.376,-63.5538"/>
<polygon fill="midnightblue" stroke="midnightblue" points="681.62,-189.909 679.093,-200.199 687.485,-193.731 681.62,-189.909"/>
</g>
<!-- Node18&#45;&gt;Node19 -->
<g id="edge7" class="edge"><title>Node18&#45;&gt;Node19</title>
<path fill="none" stroke="midnightblue" d="M492.312,-96.4891C518.394,-85.7495 546.954,-73.9895 572.329,-63.541"/>
<polygon fill="midnightblue" stroke="midnightblue" points="490.74,-93.3514 482.826,-100.395 493.405,-99.8241 490.74,-93.3514"/>
</g>
<!-- Node20 -->
<g id="node9" class="node"><title>Node20</title>
<g id="a_node9"><a xlink:href="_menu___miniature_8cpp.html" target="_top" xlink:title="D:/Users/Victor/OneDrive\l/Documents/Visual Studio\l 2017/Projects/Jeu_de_Go\l/Jeu_de_Go/Sources/Graphics\l/Menu_Miniature.cpp">
<polygon fill="none" stroke="black" points="334,-0.5 334,-63.5 483,-63.5 483,-0.5 334,-0.5"/>
<text text-anchor="start" x="342" y="-51.5" font-family="Helvetica,sans-Serif" font-size="10.00">D:/Users/Victor/OneDrive</text>
<text text-anchor="start" x="342" y="-40.5" font-family="Helvetica,sans-Serif" font-size="10.00">/Documents/Visual Studio</text>
<text text-anchor="start" x="342" y="-29.5" font-family="Helvetica,sans-Serif" font-size="10.00"> 2017/Projects/Jeu_de_Go</text>
<text text-anchor="start" x="342" y="-18.5" font-family="Helvetica,sans-Serif" font-size="10.00">/Jeu_de_Go/Sources/Graphics</text>
<text text-anchor="middle" x="408.5" y="-7.5" font-family="Helvetica,sans-Serif" font-size="10.00">/Menu_Miniature.cpp</text>
</a>
</g>
</g>
<!-- Node18&#45;&gt;Node20 -->
<g id="edge8" class="edge"><title>Node18&#45;&gt;Node20</title>
<path fill="none" stroke="midnightblue" d="M408.5,-90.0987C408.5,-81.2383 408.5,-72.0145 408.5,-63.6299"/>
<polygon fill="midnightblue" stroke="midnightblue" points="405,-90.261 408.5,-100.261 412,-90.2611 405,-90.261"/>
</g>
<!-- Node21&#45;&gt;Node19 -->
<g id="edge15" class="edge"><title>Node21&#45;&gt;Node19</title>
<path fill="none" stroke="midnightblue" d="M492.338,-190.596C498.098,-162.651 509.262,-125.968 530.5,-100 542.5,-85.3278 558.616,-73.2071 575.011,-63.5002"/>
<polygon fill="midnightblue" stroke="midnightblue" points="488.893,-189.981 490.453,-200.46 495.768,-191.296 488.893,-189.981"/>
</g>
<!-- Node22 -->
<g id="node11" class="node"><title>Node22</title>
<g id="a_node11"><a xlink:href="_choice___simple_8cpp.html" target="_top" xlink:title="D:/Users/Victor/OneDrive\l/Documents/Visual Studio\l 2017/Projects/Jeu_de_Go\l/Jeu_de_Go/Sources/Graphics\l/Choice_Simple.cpp">
<polygon fill="none" stroke="black" points="540,-100.5 540,-163.5 689,-163.5 689,-100.5 540,-100.5"/>
<text text-anchor="start" x="548" y="-151.5" font-family="Helvetica,sans-Serif" font-size="10.00">D:/Users/Victor/OneDrive</text>
<text text-anchor="start" x="548" y="-140.5" font-family="Helvetica,sans-Serif" font-size="10.00">/Documents/Visual Studio</text>
<text text-anchor="start" x="548" y="-129.5" font-family="Helvetica,sans-Serif" font-size="10.00"> 2017/Projects/Jeu_de_Go</text>
<text text-anchor="start" x="548" y="-118.5" font-family="Helvetica,sans-Serif" font-size="10.00">/Jeu_de_Go/Sources/Graphics</text>
<text text-anchor="middle" x="614.5" y="-107.5" font-family="Helvetica,sans-Serif" font-size="10.00">/Choice_Simple.cpp</text>
</a>
</g>
</g>
<!-- Node21&#45;&gt;Node22 -->
<g id="edge11" class="edge"><title>Node21&#45;&gt;Node22</title>
<path fill="none" stroke="midnightblue" d="M534.677,-194.114C547.803,-184.065 561.876,-173.29 574.494,-163.63"/>
<polygon fill="midnightblue" stroke="midnightblue" points="532.461,-191.403 526.649,-200.261 536.717,-196.961 532.461,-191.403"/>
</g>
<!-- Node23 -->
<g id="node12" class="node"><title>Node23</title>
<g id="a_node12"><a xlink:href="_menu__simple_8h.html" target="_top" xlink:title="D:/Users/Victor/OneDrive\l/Documents/Visual Studio\l 2017/Projects/Jeu_de_Go\l/Jeu_de_Go/Sources/Graphics\l/Menu_simple.h">
<polygon fill="none" stroke="black" points="167,-100.5 167,-163.5 316,-163.5 316,-100.5 167,-100.5"/>
<text text-anchor="start" x="175" y="-151.5" font-family="Helvetica,sans-Serif" font-size="10.00">D:/Users/Victor/OneDrive</text>
<text text-anchor="start" x="175" y="-140.5" font-family="Helvetica,sans-Serif" font-size="10.00">/Documents/Visual Studio</text>
<text text-anchor="start" x="175" y="-129.5" font-family="Helvetica,sans-Serif" font-size="10.00"> 2017/Projects/Jeu_de_Go</text>
<text text-anchor="start" x="175" y="-118.5" font-family="Helvetica,sans-Serif" font-size="10.00">/Jeu_de_Go/Sources/Graphics</text>
<text text-anchor="middle" x="241.5" y="-107.5" font-family="Helvetica,sans-Serif" font-size="10.00">/Menu_simple.h</text>
</a>
</g>
</g>
<!-- Node21&#45;&gt;Node23 -->
<g id="edge12" class="edge"><title>Node21&#45;&gt;Node23</title>
<path fill="none" stroke="midnightblue" d="M402.594,-197.437C374.505,-186.202 343.4,-173.76 316.074,-162.829"/>
<polygon fill="midnightblue" stroke="midnightblue" points="401.409,-200.733 411.994,-201.198 404.009,-194.234 401.409,-200.733"/>
</g>
<!-- Node23&#45;&gt;Node19 -->
<g id="edge13" class="edge"><title>Node23&#45;&gt;Node19</title>
<path fill="none" stroke="midnightblue" d="M326.222,-99.8057C369.996,-88.739 491.325,-64.0822 571.717,-47.9359"/>
<polygon fill="midnightblue" stroke="midnightblue" points="325.182,-96.4609 316.43,-102.431 326.995,-103.222 325.182,-96.4609"/>
</g>
<!-- Node24 -->
<g id="node13" class="node"><title>Node24</title>
<g id="a_node13"><a xlink:href="_menu__simple_8cpp.html" target="_top" xlink:title="D:/Users/Victor/OneDrive\l/Documents/Visual Studio\l 2017/Projects/Jeu_de_Go\l/Jeu_de_Go/Sources/Graphics\l/Menu_simple.cpp">
<polygon fill="none" stroke="black" points="167,-0.5 167,-63.5 316,-63.5 316,-0.5 167,-0.5"/>
<text text-anchor="start" x="175" y="-51.5" font-family="Helvetica,sans-Serif" font-size="10.00">D:/Users/Victor/OneDrive</text>
<text text-anchor="start" x="175" y="-40.5" font-family="Helvetica,sans-Serif" font-size="10.00">/Documents/Visual Studio</text>
<text text-anchor="start" x="175" y="-29.5" font-family="Helvetica,sans-Serif" font-size="10.00"> 2017/Projects/Jeu_de_Go</text>
<text text-anchor="start" x="175" y="-18.5" font-family="Helvetica,sans-Serif" font-size="10.00">/Jeu_de_Go/Sources/Graphics</text>
<text text-anchor="middle" x="241.5" y="-7.5" font-family="Helvetica,sans-Serif" font-size="10.00">/Menu_simple.cpp</text>
</a>
</g>
</g>
<!-- Node23&#45;&gt;Node24 -->
<g id="edge14" class="edge"><title>Node23&#45;&gt;Node24</title>
<path fill="none" stroke="midnightblue" d="M241.5,-90.0987C241.5,-81.2383 241.5,-72.0145 241.5,-63.6299"/>
<polygon fill="midnightblue" stroke="midnightblue" points="238,-90.261 241.5,-100.261 245,-90.2611 238,-90.261"/>
</g>
<!-- Node25&#45;&gt;Node18 -->
<g id="edge18" class="edge"><title>Node25&#45;&gt;Node18</title>
<path fill="none" stroke="midnightblue" d="M336.52,-198.926C348.864,-187.62 362.705,-174.943 374.927,-163.749"/>
<polygon fill="midnightblue" stroke="midnightblue" points="334.066,-196.427 329.055,-205.763 338.794,-201.589 334.066,-196.427"/>
</g>
<!-- Node25&#45;&gt;Node23 -->
<g id="edge17" class="edge"><title>Node25&#45;&gt;Node23</title>
<path fill="none" stroke="midnightblue" d="M280.679,-196.993C274.065,-186.189 266.792,-174.31 260.326,-163.749"/>
<polygon fill="midnightblue" stroke="midnightblue" points="277.842,-199.062 286.049,-205.763 283.812,-195.406 277.842,-199.062"/>
</g>
<!-- Node26 -->
<g id="node15" class="node"><title>Node26</title>
<g id="a_node15"><a xlink:href="_menu_8cpp.html" target="_top" xlink:title="D:/Users/Victor/OneDrive\l/Documents/Visual Studio\l 2017/Projects/Jeu_de_Go\l/Jeu_de_Go/Sources/Graphics\l/Menu.cpp">
<polygon fill="none" stroke="black" points="0,-100.5 0,-163.5 149,-163.5 149,-100.5 0,-100.5"/>
<text text-anchor="start" x="8" y="-151.5" font-family="Helvetica,sans-Serif" font-size="10.00">D:/Users/Victor/OneDrive</text>
<text text-anchor="start" x="8" y="-140.5" font-family="Helvetica,sans-Serif" font-size="10.00">/Documents/Visual Studio</text>
<text text-anchor="start" x="8" y="-129.5" font-family="Helvetica,sans-Serif" font-size="10.00"> 2017/Projects/Jeu_de_Go</text>
<text text-anchor="start" x="8" y="-118.5" font-family="Helvetica,sans-Serif" font-size="10.00">/Jeu_de_Go/Sources/Graphics</text>
<text text-anchor="middle" x="74.5" y="-107.5" font-family="Helvetica,sans-Serif" font-size="10.00">/Menu.cpp</text>
</a>
</g>
</g>
<!-- Node25&#45;&gt;Node26 -->
<g id="edge19" class="edge"><title>Node25&#45;&gt;Node26</title>
<path fill="none" stroke="midnightblue" d="M234.055,-201.883C206.143,-189.833 173.756,-175.851 145.483,-163.645"/>
<polygon fill="midnightblue" stroke="midnightblue" points="232.768,-205.14 243.337,-205.89 235.543,-198.713 232.768,-205.14"/>
</g>
<!-- Node28&#45;&gt;Node19 -->
<g id="edge22" class="edge"><title>Node28&#45;&gt;Node19</title>
<path fill="none" stroke="midnightblue" d="M1022.34,-290.177C1014.8,-238.125 993.987,-149.013 937.5,-100 905.587,-72.3096 796.339,-52.7187 721.175,-42.139"/>
<polygon fill="midnightblue" stroke="midnightblue" points="1018.91,-290.94 1023.72,-300.382 1025.85,-290.004 1018.91,-290.94"/>
</g>
</g>
</svg>
