<?xml version="1.0" encoding="UTF-8" standalone="no"?>
<!DOCTYPE svg PUBLIC "-//W3C//DTD SVG 1.1//EN"
 "http://www.w3.org/Graphics/SVG/1.1/DTD/svg11.dtd">
<!-- Generated by graphviz version 2.38.0 (20140413.2041)
 -->
<!-- Title: Board::click Pages: 1 -->
<svg width="357pt" height="28pt"
 viewBox="0.00 0.00 357.00 28.00" xmlns="http://www.w3.org/2000/svg" xmlns:xlink="http://www.w3.org/1999/xlink">
<g id="graph0" class="graph" transform="scale(1 1) rotate(0) translate(4 24)">
<title>Board::click</title>
<!-- Node43 -->
<g id="node1" class="node"><title>Node43</title>
<polygon fill="#bfbfbf" stroke="black" points="0,-0.5 0,-19.5 68,-19.5 68,-0.5 0,-0.5"/>
<text text-anchor="middle" x="34" y="-7.5" font-family="Helvetica,sans-Serif" font-size="10.00">Board::click</text>
</g>
<!-- Node44 -->
<g id="node2" class="node"><title>Node44</title>
<g id="a_node2"><a xlink:href="class_game__window.html#afa942088809bf10731bb31d0d37b878d" target="_top" xlink:title="Game_window::click">
<polygon fill="none" stroke="black" points="104,-0.5 104,-19.5 210,-19.5 210,-0.5 104,-0.5"/>
<text text-anchor="middle" x="157" y="-7.5" font-family="Helvetica,sans-Serif" font-size="10.00">Game_window::click</text>
</a>
</g>
</g>
<!-- Node43&#45;&gt;Node44 -->
<g id="edge1" class="edge"><title>Node43&#45;&gt;Node44</title>
<path fill="none" stroke="midnightblue" d="M78.2677,-10C86.564,-10 95.332,-10 103.873,-10"/>
<polygon fill="midnightblue" stroke="midnightblue" points="78.0638,-6.5001 68.0638,-10 78.0637,-13.5001 78.0638,-6.5001"/>
</g>
<!-- Node45 -->
<g id="node3" class="node"><title>Node45</title>
<g id="a_node3"><a xlink:href="class_game__window.html#aec21feecf4c72d73c13d82aa12df6930" target="_top" xlink:title="Game_window::Run">
<polygon fill="none" stroke="black" points="246,-0.5 246,-19.5 349,-19.5 349,-0.5 246,-0.5"/>
<text text-anchor="middle" x="297.5" y="-7.5" font-family="Helvetica,sans-Serif" font-size="10.00">Game_window::Run</text>
</a>
</g>
</g>
<!-- Node44&#45;&gt;Node45 -->
<g id="edge2" class="edge"><title>Node44&#45;&gt;Node45</title>
<path fill="none" stroke="midnightblue" d="M220.594,-10C229.066,-10 237.672,-10 245.898,-10"/>
<polygon fill="midnightblue" stroke="midnightblue" points="220.361,-6.5001 210.361,-10 220.361,-13.5001 220.361,-6.5001"/>
</g>
</g>
</svg>
