<?xml version="1.0" encoding="UTF-8" standalone="no"?>
<!DOCTYPE svg PUBLIC "-//W3C//DTD SVG 1.1//EN"
 "http://www.w3.org/Graphics/SVG/1.1/DTD/svg11.dtd">
<!-- Generated by graphviz version 2.38.0 (20140413.2041)
 -->
<!-- Title: Arbre::getGob Pages: 1 -->
<svg width="306pt" height="104pt"
 viewBox="0.00 0.00 306.00 104.00" xmlns="http://www.w3.org/2000/svg" xmlns:xlink="http://www.w3.org/1999/xlink">
<g id="graph0" class="graph" transform="scale(1 1) rotate(0) translate(4 100)">
<title>Arbre::getGob</title>
<!-- Node27 -->
<g id="node1" class="node"><title>Node27</title>
<polygon fill="#bfbfbf" stroke="black" points="0,-38.5 0,-57.5 77,-57.5 77,-38.5 0,-38.5"/>
<text text-anchor="middle" x="38.5" y="-45.5" font-family="Helvetica,sans-Serif" font-size="10.00">Arbre::getGob</text>
</g>
<!-- Node28 -->
<g id="node2" class="node"><title>Node28</title>
<g id="a_node2"><a xlink:href="class_arbre.html#a3284c47c1ea92a6c5be4a210008dfb4f" target="_top" xlink:title="Arbre::Arbre">
<polygon fill="none" stroke="black" points="121,-76.5 121,-95.5 190,-95.5 190,-76.5 121,-76.5"/>
<text text-anchor="middle" x="155.5" y="-83.5" font-family="Helvetica,sans-Serif" font-size="10.00">Arbre::Arbre</text>
</a>
</g>
</g>
<!-- Node27&#45;&gt;Node28 -->
<g id="edge1" class="edge"><title>Node27&#45;&gt;Node28</title>
<path fill="none" stroke="midnightblue" d="M78.3153,-60.8259C93.7459,-65.9247 111.191,-71.6891 125.49,-76.4141"/>
<polygon fill="midnightblue" stroke="midnightblue" points="79.1126,-57.4033 68.5194,-57.589 76.9163,-64.0498 79.1126,-57.4033"/>
</g>
<!-- Node29 -->
<g id="node3" class="node"><title>Node29</title>
<g id="a_node3"><a xlink:href="class_arbre.html#a970de955ffdbbd5894e0fa0c40c4e69e" target="_top" xlink:title="Arbre::afficher">
<polygon fill="none" stroke="black" points="117,-38.5 117,-57.5 194,-57.5 194,-38.5 117,-38.5"/>
<text text-anchor="middle" x="155.5" y="-45.5" font-family="Helvetica,sans-Serif" font-size="10.00">Arbre::afficher</text>
</a>
</g>
</g>
<!-- Node27&#45;&gt;Node29 -->
<g id="edge2" class="edge"><title>Node27&#45;&gt;Node29</title>
<path fill="none" stroke="midnightblue" d="M87.2277,-48C97.0785,-48 107.323,-48 116.76,-48"/>
<polygon fill="midnightblue" stroke="midnightblue" points="87.1553,-44.5001 77.1553,-48 87.1553,-51.5001 87.1553,-44.5001"/>
</g>
<!-- Node31 -->
<g id="node5" class="node"><title>Node31</title>
<g id="a_node5"><a xlink:href="class_arbre.html#ac6329911b0037ca669e6ef2e12a178c9" target="_top" xlink:title="Arbre::printArbo">
<polygon fill="none" stroke="black" points="113,-0.5 113,-19.5 198,-19.5 198,-0.5 113,-0.5"/>
<text text-anchor="middle" x="155.5" y="-7.5" font-family="Helvetica,sans-Serif" font-size="10.00">Arbre::printArbo</text>
</a>
</g>
</g>
<!-- Node27&#45;&gt;Node31 -->
<g id="edge4" class="edge"><title>Node27&#45;&gt;Node31</title>
<path fill="none" stroke="midnightblue" d="M78.3153,-35.1741C93.7459,-30.0753 111.191,-24.3109 125.49,-19.5859"/>
<polygon fill="midnightblue" stroke="midnightblue" points="76.9163,-31.9502 68.5194,-38.411 79.1126,-38.5967 76.9163,-31.9502"/>
</g>
<!-- Node30 -->
<g id="node4" class="node"><title>Node30</title>
<g id="a_node4"><a xlink:href="_arbre_8h.html#a6e35eae742ee5bca0d8a5642b9a854c2" target="_top" xlink:title="operator\&lt;\&lt;">
<polygon fill="none" stroke="black" points="234,-38.5 234,-57.5 298,-57.5 298,-38.5 234,-38.5"/>
<text text-anchor="middle" x="266" y="-45.5" font-family="Helvetica,sans-Serif" font-size="10.00">operator&lt;&lt;</text>
</a>
</g>
</g>
<!-- Node29&#45;&gt;Node30 -->
<g id="edge3" class="edge"><title>Node29&#45;&gt;Node30</title>
<path fill="none" stroke="midnightblue" d="M204.401,-48C214.401,-48 224.693,-48 233.892,-48"/>
<polygon fill="midnightblue" stroke="midnightblue" points="204.144,-44.5001 194.144,-48 204.143,-51.5001 204.144,-44.5001"/>
</g>
</g>
</svg>
