<?xml version="1.0" encoding="UTF-8" standalone="no"?>
<!DOCTYPE svg PUBLIC "-//W3C//DTD SVG 1.1//EN"
 "http://www.w3.org/Graphics/SVG/1.1/DTD/svg11.dtd">
<!-- Generated by graphviz version 2.38.0 (20140413.2041)
 -->
<!-- Title: Game_window::Run Pages: 1 -->
<svg width="1320pt" height="574pt"
 viewBox="0.00 0.00 1320.00 574.15" xmlns="http://www.w3.org/2000/svg" xmlns:xlink="http://www.w3.org/1999/xlink">
<g id="graph0" class="graph" transform="scale(1 1) rotate(0) translate(4 570.145)">
<title>Game_window::Run</title>
<!-- Node69 -->
<g id="node1" class="node"><title>Node69</title>
<polygon fill="#bfbfbf" stroke="black" points="0,-470.645 0,-489.645 103,-489.645 103,-470.645 0,-470.645"/>
<text text-anchor="middle" x="51.5" y="-477.645" font-family="Helvetica,sans-Serif" font-size="10.00">Game_window::Run</text>
</g>
<!-- Node70 -->
<g id="node2" class="node"><title>Node70</title>
<g id="a_node2"><a xlink:href="class_game__window.html#afa942088809bf10731bb31d0d37b878d" target="_top" xlink:title="Game_window::click">
<polygon fill="none" stroke="black" points="154.5,-470.645 154.5,-489.645 260.5,-489.645 260.5,-470.645 154.5,-470.645"/>
<text text-anchor="middle" x="207.5" y="-477.645" font-family="Helvetica,sans-Serif" font-size="10.00">Game_window::click</text>
</a>
</g>
</g>
<!-- Node69&#45;&gt;Node70 -->
<g id="edge1" class="edge"><title>Node69&#45;&gt;Node70</title>
<path fill="none" stroke="midnightblue" d="M103.352,-480.145C116.408,-480.145 130.601,-480.145 144.164,-480.145"/>
<polygon fill="midnightblue" stroke="midnightblue" points="144.384,-483.645 154.384,-480.145 144.384,-476.645 144.384,-483.645"/>
</g>
<!-- Node95 -->
<g id="node27" class="node"><title>Node95</title>
<g id="a_node27"><a xlink:href="class_game__window.html#a9b9b15469cb0ced1a22f28e447983b56" target="_top" xlink:title="Game_window::zoom">
<polygon fill="none" stroke="black" points="152.5,-508.645 152.5,-527.645 262.5,-527.645 262.5,-508.645 152.5,-508.645"/>
<text text-anchor="middle" x="207.5" y="-515.645" font-family="Helvetica,sans-Serif" font-size="10.00">Game_window::zoom</text>
</a>
</g>
</g>
<!-- Node69&#45;&gt;Node95 -->
<g id="edge31" class="edge"><title>Node69&#45;&gt;Node95</title>
<path fill="none" stroke="midnightblue" d="M91.3607,-489.734C111.591,-494.726 136.521,-500.878 158.004,-506.179"/>
<polygon fill="midnightblue" stroke="midnightblue" points="157.371,-509.628 167.919,-508.625 159.048,-502.831 157.371,-509.628"/>
</g>
<!-- Node97 -->
<g id="node29" class="node"><title>Node97</title>
<g id="a_node29"><a xlink:href="class_game__window.html#a72304de2044c29f1373037bd818f674f" target="_top" xlink:title="Game_window::keyPressed">
<polygon fill="none" stroke="black" points="139,-204.645 139,-223.645 276,-223.645 276,-204.645 139,-204.645"/>
<text text-anchor="middle" x="207.5" y="-211.645" font-family="Helvetica,sans-Serif" font-size="10.00">Game_window::keyPressed</text>
</a>
</g>
</g>
<!-- Node69&#45;&gt;Node97 -->
<g id="edge34" class="edge"><title>Node69&#45;&gt;Node97</title>
<path fill="none" stroke="midnightblue" d="M58.1636,-470.363C80.9004,-431.09 165.765,-284.506 195.845,-232.549"/>
<polygon fill="midnightblue" stroke="midnightblue" points="198.966,-234.144 200.947,-223.736 192.908,-230.637 198.966,-234.144"/>
</g>
<!-- Node71 -->
<g id="node3" class="node"><title>Node71</title>
<g id="a_node3"><a xlink:href="class_board.html#ad3c413e185668418d3a16c1fec68e70d" target="_top" xlink:title="Board::getView">
<polygon fill="none" stroke="black" points="331,-508.645 331,-527.645 414,-527.645 414,-508.645 331,-508.645"/>
<text text-anchor="middle" x="372.5" y="-515.645" font-family="Helvetica,sans-Serif" font-size="10.00">Board::getView</text>
</a>
</g>
</g>
<!-- Node70&#45;&gt;Node71 -->
<g id="edge2" class="edge"><title>Node70&#45;&gt;Node71</title>
<path fill="none" stroke="midnightblue" d="M249.632,-489.734C271.32,-494.791 298.112,-501.036 321.047,-506.383"/>
<polygon fill="midnightblue" stroke="midnightblue" points="320.413,-509.829 330.946,-508.691 322.002,-503.012 320.413,-509.829"/>
</g>
<!-- Node72 -->
<g id="node4" class="node"><title>Node72</title>
<g id="a_node4"><a xlink:href="class_board.html#a5fda73da080403d8a71a8593d581c350" target="_top" xlink:title="Board::click">
<polygon fill="none" stroke="black" points="475,-356.645 475,-375.645 543,-375.645 543,-356.645 475,-356.645"/>
<text text-anchor="middle" x="509" y="-363.645" font-family="Helvetica,sans-Serif" font-size="10.00">Board::click</text>
</a>
</g>
</g>
<!-- Node70&#45;&gt;Node72 -->
<g id="edge3" class="edge"><title>Node70&#45;&gt;Node72</title>
<path fill="none" stroke="midnightblue" d="M233.52,-470.622C286.923,-450.295 412.165,-402.623 473.257,-379.37"/>
<polygon fill="midnightblue" stroke="midnightblue" points="474.74,-382.55 482.841,-375.722 472.25,-376.008 474.74,-382.55"/>
</g>
<!-- Node92 -->
<g id="node24" class="node"><title>Node92</title>
<g id="a_node24"><a xlink:href="class_infos.html#a5dee8a8817c307c570db905429480d79" target="_top" xlink:title="Infos::setCurPlayer">
<polygon fill="none" stroke="black" points="323,-470.645 323,-489.645 422,-489.645 422,-470.645 323,-470.645"/>
<text text-anchor="middle" x="372.5" y="-477.645" font-family="Helvetica,sans-Serif" font-size="10.00">Infos::setCurPlayer</text>
</a>
</g>
</g>
<!-- Node70&#45;&gt;Node92 -->
<g id="edge28" class="edge"><title>Node70&#45;&gt;Node92</title>
<path fill="none" stroke="midnightblue" d="M260.522,-480.145C277.034,-480.145 295.411,-480.145 312.384,-480.145"/>
<polygon fill="midnightblue" stroke="midnightblue" points="312.741,-483.645 322.741,-480.145 312.741,-476.645 312.741,-483.645"/>
</g>
<!-- Node73 -->
<g id="node5" class="node"><title>Node73</title>
<g id="a_node5"><a xlink:href="class_goban.html#a7dd1a7b53322bde2a831a923059e43a3" target="_top" xlink:title="Goban::move">
<polygon fill="none" stroke="black" points="785,-389.645 785,-408.645 859,-408.645 859,-389.645 785,-389.645"/>
<text text-anchor="middle" x="822" y="-396.645" font-family="Helvetica,sans-Serif" font-size="10.00">Goban::move</text>
</a>
</g>
</g>
<!-- Node72&#45;&gt;Node73 -->
<g id="edge4" class="edge"><title>Node72&#45;&gt;Node73</title>
<path fill="none" stroke="midnightblue" d="M523.876,-375.705C538.371,-385.063 562.142,-398.685 585,-404.145 649.429,-419.536 726.583,-413.498 774.707,-406.956"/>
<polygon fill="midnightblue" stroke="midnightblue" points="775.408,-410.391 784.815,-405.516 774.421,-403.461 775.408,-410.391"/>
</g>
<!-- Node78 -->
<g id="node10" class="node"><title>Node78</title>
<g id="a_node10"><a xlink:href="class_goban.html#a8584a53688e7bcf9de7c4cf48454acdc" target="_top" xlink:title="Goban::rechercheGroupes">
<polygon fill="none" stroke="black" points="589.5,-299.645 589.5,-318.645 720.5,-318.645 720.5,-299.645 589.5,-299.645"/>
<text text-anchor="middle" x="655" y="-306.645" font-family="Helvetica,sans-Serif" font-size="10.00">Goban::rechercheGroupes</text>
</a>
</g>
</g>
<!-- Node72&#45;&gt;Node78 -->
<g id="edge10" class="edge"><title>Node72&#45;&gt;Node78</title>
<path fill="none" stroke="midnightblue" d="M526.537,-356.551C541.448,-348.198 564.169,-336.197 585,-328.145 591.229,-325.738 597.885,-323.503 604.512,-321.476"/>
<polygon fill="midnightblue" stroke="midnightblue" points="605.535,-324.823 614.15,-318.657 603.57,-318.105 605.535,-324.823"/>
</g>
<!-- Node79 -->
<g id="node11" class="node"><title>Node79</title>
<g id="a_node11"><a xlink:href="class_goban.html#aefd43ab2cf0746f2f8c653d825bf080c" target="_top" xlink:title="Goban::afficheGroupes">
<polygon fill="none" stroke="black" points="597,-375.645 597,-394.645 713,-394.645 713,-375.645 597,-375.645"/>
<text text-anchor="middle" x="655" y="-382.645" font-family="Helvetica,sans-Serif" font-size="10.00">Goban::afficheGroupes</text>
</a>
</g>
</g>
<!-- Node72&#45;&gt;Node79 -->
<g id="edge11" class="edge"><title>Node72&#45;&gt;Node79</title>
<path fill="none" stroke="midnightblue" d="M543.037,-370.504C556.114,-372.23 571.647,-374.279 586.886,-376.29"/>
<polygon fill="midnightblue" stroke="midnightblue" points="586.457,-379.764 596.829,-377.602 587.373,-372.824 586.457,-379.764"/>
</g>
<!-- Node80 -->
<g id="node12" class="node"><title>Node80</title>
<g id="a_node12"><a xlink:href="class_goban.html#a7858b815885e4af36f05f9d26182cb07" target="_top" xlink:title="Goban::eliminateOppGroups">
<polygon fill="none" stroke="black" points="585,-337.645 585,-356.645 725,-356.645 725,-337.645 585,-337.645"/>
<text text-anchor="middle" x="655" y="-344.645" font-family="Helvetica,sans-Serif" font-size="10.00">Goban::eliminateOppGroups</text>
</a>
</g>
</g>
<!-- Node72&#45;&gt;Node80 -->
<g id="edge12" class="edge"><title>Node72&#45;&gt;Node80</title>
<path fill="none" stroke="midnightblue" d="M543.037,-361.786C552.734,-360.507 563.781,-359.049 575.057,-357.561"/>
<polygon fill="midnightblue" stroke="midnightblue" points="575.541,-361.028 584.998,-356.25 574.626,-354.088 575.541,-361.028"/>
</g>
<!-- Node89 -->
<g id="node21" class="node"><title>Node89</title>
<g id="a_node21"><a xlink:href="class_board.html#a841a248dac4743611ba1825afd5d1297" target="_top" xlink:title="Board::load">
<polygon fill="none" stroke="black" points="622,-147.645 622,-166.645 688,-166.645 688,-147.645 622,-147.645"/>
<text text-anchor="middle" x="655" y="-154.645" font-family="Helvetica,sans-Serif" font-size="10.00">Board::load</text>
</a>
</g>
</g>
<!-- Node72&#45;&gt;Node89 -->
<g id="edge24" class="edge"><title>Node72&#45;&gt;Node89</title>
<path fill="none" stroke="midnightblue" d="M515.149,-356.358C522.707,-341.933 537.191,-314.086 549,-290.145 565.534,-256.626 562.044,-243.641 585,-214.145 597.724,-197.797 615.91,-183.016 630.418,-172.605"/>
<polygon fill="midnightblue" stroke="midnightblue" points="632.681,-175.294 638.894,-166.712 628.685,-169.547 632.681,-175.294"/>
</g>
<!-- Node74 -->
<g id="node6" class="node"><title>Node74</title>
<g id="a_node6"><a xlink:href="class_goban.html#a6c4b62a9469b3876d250ab94bcd562e5" target="_top" xlink:title="Goban::eliminateOppositeKO">
<polygon fill="none" stroke="black" points="1065,-389.645 1065,-408.645 1208,-408.645 1208,-389.645 1065,-389.645"/>
<text text-anchor="middle" x="1136.5" y="-396.645" font-family="Helvetica,sans-Serif" font-size="10.00">Goban::eliminateOppositeKO</text>
</a>
</g>
</g>
<!-- Node73&#45;&gt;Node74 -->
<g id="edge5" class="edge"><title>Node73&#45;&gt;Node74</title>
<path fill="none" stroke="midnightblue" d="M859.153,-399.145C906.637,-399.145 991.382,-399.145 1054.55,-399.145"/>
<polygon fill="midnightblue" stroke="midnightblue" points="1054.89,-402.645 1064.89,-399.145 1054.89,-395.645 1054.89,-402.645"/>
</g>
<!-- Node75 -->
<g id="node7" class="node"><title>Node75</title>
<g id="a_node7"><a xlink:href="class_etat.html#aa88987ca54aee676717f05e4570c0aec" target="_top" xlink:title="Etat::setVal">
<polygon fill="none" stroke="black" points="1244,-379.645 1244,-398.645 1312,-398.645 1312,-379.645 1244,-379.645"/>
<text text-anchor="middle" x="1278" y="-386.645" font-family="Helvetica,sans-Serif" font-size="10.00">Etat::setVal</text>
</a>
</g>
</g>
<!-- Node73&#45;&gt;Node75 -->
<g id="edge8" class="edge"><title>Node73&#45;&gt;Node75</title>
<path fill="none" stroke="midnightblue" d="M859.357,-405.415C877.262,-408.255 899.205,-411.368 919,-413.145 1046.95,-424.63 1082.07,-443.533 1208,-418.145 1222.57,-415.207 1237.9,-409.103 1250.4,-403.249"/>
<polygon fill="midnightblue" stroke="midnightblue" points="1252.31,-406.213 1259.75,-398.673 1249.23,-399.926 1252.31,-406.213"/>
</g>
<!-- Node76 -->
<g id="node8" class="node"><title>Node76</title>
<g id="a_node8"><a xlink:href="class_goban.html#a29aaf8df380fe614845d48cba057747c" target="_top" xlink:title="Goban::coord">
<polygon fill="none" stroke="black" points="936.5,-213.645 936.5,-232.645 1011.5,-232.645 1011.5,-213.645 936.5,-213.645"/>
<text text-anchor="middle" x="974" y="-220.645" font-family="Helvetica,sans-Serif" font-size="10.00">Goban::coord</text>
</a>
</g>
</g>
<!-- Node73&#45;&gt;Node76 -->
<g id="edge7" class="edge"><title>Node73&#45;&gt;Node76</title>
<path fill="none" stroke="midnightblue" d="M834.47,-389.46C847.222,-378.349 867.995,-359.197 883,-340.145 902.241,-315.714 900.195,-304.914 919,-280.145 929.878,-265.818 943.891,-251.115 954.916,-240.231"/>
<polygon fill="midnightblue" stroke="midnightblue" points="957.587,-242.515 962.328,-233.04 952.713,-237.491 957.587,-242.515"/>
</g>
<!-- Node77 -->
<g id="node9" class="node"><title>Node77</title>
<g id="a_node9"><a xlink:href="class_history.html#a90222df7f73ae9cfda56bdb66cb1985e" target="_top" xlink:title="Add new state in history. ">
<polygon fill="none" stroke="black" points="939.5,-370.645 939.5,-389.645 1008.5,-389.645 1008.5,-370.645 939.5,-370.645"/>
<text text-anchor="middle" x="974" y="-377.645" font-family="Helvetica,sans-Serif" font-size="10.00">History::add</text>
</a>
</g>
</g>
<!-- Node73&#45;&gt;Node77 -->
<g id="edge9" class="edge"><title>Node73&#45;&gt;Node77</title>
<path fill="none" stroke="midnightblue" d="M859.311,-394.546C880.344,-391.882 906.967,-388.509 929.162,-385.698"/>
<polygon fill="midnightblue" stroke="midnightblue" points="929.853,-389.139 939.334,-384.41 928.974,-382.194 929.853,-389.139"/>
</g>
<!-- Node74&#45;&gt;Node75 -->
<g id="edge6" class="edge"><title>Node74&#45;&gt;Node75</title>
<path fill="none" stroke="midnightblue" d="M1208.07,-394.087C1216.81,-393.46 1225.54,-392.834 1233.7,-392.25"/>
<polygon fill="midnightblue" stroke="midnightblue" points="1233.96,-395.74 1243.69,-391.533 1233.46,-388.758 1233.96,-395.74"/>
</g>
<!-- Node81 -->
<g id="node13" class="node"><title>Node81</title>
<g id="a_node13"><a xlink:href="class_goban.html#a1ec70508987f66afff5f8df381731fac" target="_top" xlink:title="Goban::eliminateGroups">
<polygon fill="none" stroke="black" points="761,-311.645 761,-330.645 883,-330.645 883,-311.645 761,-311.645"/>
<text text-anchor="middle" x="822" y="-318.645" font-family="Helvetica,sans-Serif" font-size="10.00">Goban::eliminateGroups</text>
</a>
</g>
</g>
<!-- Node80&#45;&gt;Node81 -->
<g id="edge13" class="edge"><title>Node80&#45;&gt;Node81</title>
<path fill="none" stroke="midnightblue" d="M716.503,-337.612C727.671,-335.852 739.42,-334 750.845,-332.2"/>
<polygon fill="midnightblue" stroke="midnightblue" points="751.447,-335.649 760.78,-330.635 750.357,-328.734 751.447,-335.649"/>
</g>
<!-- Node81&#45;&gt;Node75 -->
<g id="edge23" class="edge"><title>Node81&#45;&gt;Node75</title>
<path fill="none" stroke="midnightblue" d="M883.288,-330.175C976.275,-344.103 1152.44,-370.489 1233.81,-382.676"/>
<polygon fill="midnightblue" stroke="midnightblue" points="1233.31,-386.14 1243.72,-384.16 1234.35,-379.217 1233.31,-386.14"/>
</g>
<!-- Node81&#45;&gt;Node76 -->
<g id="edge22" class="edge"><title>Node81&#45;&gt;Node76</title>
<path fill="none" stroke="midnightblue" d="M837.656,-311.57C863.689,-294.562 918.197,-258.95 949.516,-238.489"/>
<polygon fill="midnightblue" stroke="midnightblue" points="951.605,-241.304 958.063,-232.904 947.777,-235.444 951.605,-241.304"/>
</g>
<!-- Node82 -->
<g id="node14" class="node"><title>Node82</title>
<g id="a_node14"><a xlink:href="class_goban.html#a84f36324eb9ddc29f522d481f04c13e7" target="_top" xlink:title="Goban::listOfLiberties">
<polygon fill="none" stroke="black" points="919,-289.645 919,-308.645 1029,-308.645 1029,-289.645 919,-289.645"/>
<text text-anchor="middle" x="974" y="-296.645" font-family="Helvetica,sans-Serif" font-size="10.00">Goban::listOfLiberties</text>
</a>
</g>
</g>
<!-- Node81&#45;&gt;Node82 -->
<g id="edge14" class="edge"><title>Node81&#45;&gt;Node82</title>
<path fill="none" stroke="midnightblue" d="M883.146,-312.324C891.491,-311.1 900.09,-309.839 908.51,-308.604"/>
<polygon fill="midnightblue" stroke="midnightblue" points="909.275,-312.029 918.661,-307.115 908.259,-305.103 909.275,-312.029"/>
</g>
<!-- Node83 -->
<g id="node15" class="node"><title>Node83</title>
<g id="a_node15"><a xlink:href="class_etat.html#aa25e66b110bc835523819392435e78c6" target="_top" xlink:title="Etat::getX">
<polygon fill="none" stroke="black" points="1107,-256.645 1107,-275.645 1166,-275.645 1166,-256.645 1107,-256.645"/>
<text text-anchor="middle" x="1136.5" y="-263.645" font-family="Helvetica,sans-Serif" font-size="10.00">Etat::getX</text>
</a>
</g>
</g>
<!-- Node82&#45;&gt;Node83 -->
<g id="edge15" class="edge"><title>Node82&#45;&gt;Node83</title>
<path fill="none" stroke="midnightblue" d="M1021.42,-289.6C1045.35,-284.681 1074.18,-278.753 1096.88,-274.087"/>
<polygon fill="midnightblue" stroke="midnightblue" points="1097.74,-277.482 1106.83,-272.04 1096.33,-270.625 1097.74,-277.482"/>
</g>
<!-- Node84 -->
<g id="node16" class="node"><title>Node84</title>
<g id="a_node16"><a xlink:href="class_etat.html#a3e3e915f2261c83989a983e84b1273c1" target="_top" xlink:title="Etat::getY">
<polygon fill="none" stroke="black" points="1106,-71.6453 1106,-90.6453 1167,-90.6453 1167,-71.6453 1106,-71.6453"/>
<text text-anchor="middle" x="1136.5" y="-78.6453" font-family="Helvetica,sans-Serif" font-size="10.00">Etat::getY</text>
</a>
</g>
</g>
<!-- Node82&#45;&gt;Node84 -->
<g id="edge16" class="edge"><title>Node82&#45;&gt;Node84</title>
<path fill="none" stroke="midnightblue" d="M985.11,-289.533C996.397,-278.569 1014.92,-259.862 1029,-242.145 1067.75,-193.371 1106.38,-130.543 1124.63,-99.7861"/>
<polygon fill="midnightblue" stroke="midnightblue" points="1127.75,-101.378 1129.81,-90.9853 1121.72,-97.8251 1127.75,-101.378"/>
</g>
<!-- Node85 -->
<g id="node17" class="node"><title>Node85</title>
<g id="a_node17"><a xlink:href="class_goban.html#a0e2596110cdbb9b007b2b2fd8d5a9973" target="_top" xlink:title="Goban::DefineStone">
<polygon fill="none" stroke="black" points="1084.5,-294.645 1084.5,-313.645 1188.5,-313.645 1188.5,-294.645 1084.5,-294.645"/>
<text text-anchor="middle" x="1136.5" y="-301.645" font-family="Helvetica,sans-Serif" font-size="10.00">Goban::DefineStone</text>
</a>
</g>
</g>
<!-- Node82&#45;&gt;Node85 -->
<g id="edge17" class="edge"><title>Node82&#45;&gt;Node85</title>
<path fill="none" stroke="midnightblue" d="M1029.34,-300.838C1043.82,-301.289 1059.56,-301.78 1074.38,-302.241"/>
<polygon fill="midnightblue" stroke="midnightblue" points="1074.36,-305.742 1084.47,-302.556 1074.58,-298.746 1074.36,-305.742"/>
</g>
<!-- Node85&#45;&gt;Node75 -->
<g id="edge20" class="edge"><title>Node85&#45;&gt;Node75</title>
<path fill="none" stroke="midnightblue" d="M1174.99,-313.727C1186.04,-317.38 1197.88,-322.146 1208,-328.145 1226.67,-339.212 1227.72,-346.788 1244,-361.145 1248.37,-364.997 1253.11,-369.083 1257.61,-372.908"/>
<polygon fill="midnightblue" stroke="midnightblue" points="1255.4,-375.624 1265.3,-379.405 1259.92,-370.277 1255.4,-375.624"/>
</g>
<!-- Node86 -->
<g id="node18" class="node"><title>Node86</title>
<g id="a_node18"><a xlink:href="class_etat.html#ac020c4fe222274ac849a03fc8f19a99a" target="_top" xlink:title="Etat::setX">
<polygon fill="none" stroke="black" points="1248.5,-256.645 1248.5,-275.645 1307.5,-275.645 1307.5,-256.645 1248.5,-256.645"/>
<text text-anchor="middle" x="1278" y="-263.645" font-family="Helvetica,sans-Serif" font-size="10.00">Etat::setX</text>
</a>
</g>
</g>
<!-- Node85&#45;&gt;Node86 -->
<g id="edge18" class="edge"><title>Node85&#45;&gt;Node86</title>
<path fill="none" stroke="midnightblue" d="M1173.01,-294.615C1184.21,-291.599 1196.63,-288.244 1208,-285.145 1217.98,-282.426 1228.77,-279.467 1238.78,-276.71"/>
<polygon fill="midnightblue" stroke="midnightblue" points="1239.76,-280.069 1248.47,-274.038 1237.9,-273.321 1239.76,-280.069"/>
</g>
<!-- Node87 -->
<g id="node19" class="node"><title>Node87</title>
<g id="a_node19"><a xlink:href="class_etat.html#a8a54fc9ecb1b97d84d2f1f259e3bf70e" target="_top" xlink:title="Etat::setY">
<polygon fill="none" stroke="black" points="1247.5,-332.645 1247.5,-351.645 1308.5,-351.645 1308.5,-332.645 1247.5,-332.645"/>
<text text-anchor="middle" x="1278" y="-339.645" font-family="Helvetica,sans-Serif" font-size="10.00">Etat::setY</text>
</a>
</g>
</g>
<!-- Node85&#45;&gt;Node87 -->
<g id="edge19" class="edge"><title>Node85&#45;&gt;Node87</title>
<path fill="none" stroke="midnightblue" d="M1172.7,-313.734C1192.54,-319.138 1217.37,-325.901 1237.82,-331.473"/>
<polygon fill="midnightblue" stroke="midnightblue" points="1236.9,-334.85 1247.47,-334.101 1238.74,-328.096 1236.9,-334.85"/>
</g>
<!-- Node88 -->
<g id="node20" class="node"><title>Node88</title>
<g id="a_node20"><a xlink:href="class_goban.html#a579840586df08a58983f6b497979344b" target="_top" xlink:title="Goban::ctoi">
<polygon fill="none" stroke="black" points="1244.5,-294.645 1244.5,-313.645 1311.5,-313.645 1311.5,-294.645 1244.5,-294.645"/>
<text text-anchor="middle" x="1278" y="-301.645" font-family="Helvetica,sans-Serif" font-size="10.00">Goban::ctoi</text>
</a>
</g>
</g>
<!-- Node85&#45;&gt;Node88 -->
<g id="edge21" class="edge"><title>Node85&#45;&gt;Node88</title>
<path fill="none" stroke="midnightblue" d="M1188.65,-304.145C1203.67,-304.145 1219.93,-304.145 1234.35,-304.145"/>
<polygon fill="midnightblue" stroke="midnightblue" points="1234.49,-307.645 1244.49,-304.145 1234.49,-300.645 1234.49,-307.645"/>
</g>
<!-- Node89&#45;&gt;Node76 -->
<g id="edge26" class="edge"><title>Node89&#45;&gt;Node76</title>
<path fill="none" stroke="midnightblue" d="M688.304,-155.884C732.993,-155.024 815.773,-156.64 883,-176.145 907.283,-183.191 932.609,-197.096 950.185,-207.962"/>
<polygon fill="midnightblue" stroke="midnightblue" points="948.78,-211.216 959.097,-213.624 952.533,-205.307 948.78,-211.216"/>
</g>
<!-- Node90 -->
<g id="node22" class="node"><title>Node90</title>
<g id="a_node22"><a xlink:href="class_square.html#a5fa0cbfce721c687308eec8e1a029d25" target="_top" xlink:title="Square::setValue">
<polygon fill="none" stroke="black" points="776,-185.645 776,-204.645 868,-204.645 868,-185.645 776,-185.645"/>
<text text-anchor="middle" x="822" y="-192.645" font-family="Helvetica,sans-Serif" font-size="10.00">Square::setValue</text>
</a>
</g>
</g>
<!-- Node89&#45;&gt;Node90 -->
<g id="edge25" class="edge"><title>Node89&#45;&gt;Node90</title>
<path fill="none" stroke="midnightblue" d="M688.205,-164.562C711.324,-169.887 742.964,-177.173 769.56,-183.299"/>
<polygon fill="midnightblue" stroke="midnightblue" points="768.948,-186.749 779.478,-185.583 770.519,-179.928 768.948,-186.749"/>
</g>
<!-- Node91 -->
<g id="node23" class="node"><title>Node91</title>
<g id="a_node23"><a xlink:href="class_etat.html#ac0b81bbcf64cb3cc574e5a9dcdf94382" target="_top" xlink:title="Etat::getVal">
<polygon fill="none" stroke="black" points="788,-109.645 788,-128.645 856,-128.645 856,-109.645 788,-109.645"/>
<text text-anchor="middle" x="822" y="-116.645" font-family="Helvetica,sans-Serif" font-size="10.00">Etat::getVal</text>
</a>
</g>
</g>
<!-- Node89&#45;&gt;Node91 -->
<g id="edge27" class="edge"><title>Node89&#45;&gt;Node91</title>
<path fill="none" stroke="midnightblue" d="M688.205,-149.728C713.765,-143.842 749.739,-135.557 777.799,-129.095"/>
<polygon fill="midnightblue" stroke="midnightblue" points="778.785,-132.459 787.745,-126.804 777.214,-125.638 778.785,-132.459"/>
</g>
<!-- Node93 -->
<g id="node25" class="node"><title>Node93</title>
<g id="a_node25"><a xlink:href="class_timer.html#a0289effad7b573c508bc27e405900a23" target="_top" xlink:title="Timer::pause">
<polygon fill="none" stroke="black" points="472.5,-489.645 472.5,-508.645 545.5,-508.645 545.5,-489.645 472.5,-489.645"/>
<text text-anchor="middle" x="509" y="-496.645" font-family="Helvetica,sans-Serif" font-size="10.00">Timer::pause</text>
</a>
</g>
</g>
<!-- Node92&#45;&gt;Node93 -->
<g id="edge29" class="edge"><title>Node92&#45;&gt;Node93</title>
<path fill="none" stroke="midnightblue" d="M422.058,-487.005C435.12,-488.85 449.204,-490.84 462.116,-492.664"/>
<polygon fill="midnightblue" stroke="midnightblue" points="461.786,-496.152 472.177,-494.085 462.765,-489.22 461.786,-496.152"/>
</g>
<!-- Node94 -->
<g id="node26" class="node"><title>Node94</title>
<g id="a_node26"><a xlink:href="class_timer.html#a84acbe09a8dddae46c997c57a70c5076" target="_top" xlink:title="Timer::play">
<polygon fill="none" stroke="black" points="476.5,-527.645 476.5,-546.645 541.5,-546.645 541.5,-527.645 476.5,-527.645"/>
<text text-anchor="middle" x="509" y="-534.645" font-family="Helvetica,sans-Serif" font-size="10.00">Timer::play</text>
</a>
</g>
</g>
<!-- Node92&#45;&gt;Node94 -->
<g id="edge30" class="edge"><title>Node92&#45;&gt;Node94</title>
<path fill="none" stroke="midnightblue" d="M406.922,-489.677C415.529,-492.441 424.701,-495.662 433,-499.145 449.682,-506.147 452.866,-509.96 469,-518.145 472.186,-519.762 475.531,-521.432 478.866,-523.079"/>
<polygon fill="midnightblue" stroke="midnightblue" points="477.578,-526.346 488.098,-527.603 480.658,-520.06 477.578,-526.346"/>
</g>
<!-- Node95&#45;&gt;Node71 -->
<g id="edge32" class="edge"><title>Node95&#45;&gt;Node71</title>
<path fill="none" stroke="midnightblue" d="M262.777,-518.145C281.444,-518.145 302.263,-518.145 320.647,-518.145"/>
<polygon fill="midnightblue" stroke="midnightblue" points="320.867,-521.645 330.867,-518.145 320.867,-514.645 320.867,-521.645"/>
</g>
<!-- Node96 -->
<g id="node28" class="node"><title>Node96</title>
<g id="a_node28"><a xlink:href="class_board.html#a0b098808fd9214c752097a623a7c717e" target="_top" xlink:title="Board::zoom">
<polygon fill="none" stroke="black" points="336.5,-546.645 336.5,-565.645 408.5,-565.645 408.5,-546.645 336.5,-546.645"/>
<text text-anchor="middle" x="372.5" y="-553.645" font-family="Helvetica,sans-Serif" font-size="10.00">Board::zoom</text>
</a>
</g>
</g>
<!-- Node95&#45;&gt;Node96 -->
<g id="edge33" class="edge"><title>Node95&#45;&gt;Node96</title>
<path fill="none" stroke="midnightblue" d="M249.632,-527.734C273.068,-533.198 302.463,-540.051 326.511,-545.657"/>
<polygon fill="midnightblue" stroke="midnightblue" points="325.924,-549.114 336.457,-547.976 327.513,-542.297 325.924,-549.114"/>
</g>
<!-- Node97&#45;&gt;Node76 -->
<g id="edge57" class="edge"><title>Node97&#45;&gt;Node76</title>
<path fill="none" stroke="midnightblue" d="M276.19,-213.363C374.885,-212.401 564.069,-211.226 725,-214.145 795.177,-215.418 876.47,-218.716 926.311,-220.946"/>
<polygon fill="midnightblue" stroke="midnightblue" points="926.306,-224.449 936.454,-221.404 926.622,-217.456 926.306,-224.449"/>
</g>
<!-- Node98 -->
<g id="node30" class="node"><title>Node98</title>
<g id="a_node30"><a xlink:href="class_board.html#ac7ec911a62371650afd340d1535a1742" target="_top" xlink:title="Board::cancel">
<polygon fill="none" stroke="black" points="470.5,-33.6453 470.5,-52.6453 547.5,-52.6453 547.5,-33.6453 470.5,-33.6453"/>
<text text-anchor="middle" x="509" y="-40.6453" font-family="Helvetica,sans-Serif" font-size="10.00">Board::cancel</text>
</a>
</g>
</g>
<!-- Node97&#45;&gt;Node98 -->
<g id="edge35" class="edge"><title>Node97&#45;&gt;Node98</title>
<path fill="none" stroke="midnightblue" d="M216.989,-204.36C233.586,-185.739 272.205,-144.865 312,-120.145 360.2,-90.2056 421.997,-68.2669 463.188,-55.6322"/>
<polygon fill="midnightblue" stroke="midnightblue" points="464.371,-58.9314 472.937,-52.6974 462.353,-52.2285 464.371,-58.9314"/>
</g>
<!-- Node102 -->
<g id="node34" class="node"><title>Node102</title>
<g id="a_node34"><a xlink:href="class_game__window.html#a8ad36b6ebe4760954dd01e94fc5762f1" target="_top" xlink:title="Game_window::territoire">
<polygon fill="none" stroke="black" points="312,-223.645 312,-242.645 433,-242.645 433,-223.645 312,-223.645"/>
<text text-anchor="middle" x="372.5" y="-230.645" font-family="Helvetica,sans-Serif" font-size="10.00">Game_window::territoire</text>
</a>
</g>
</g>
<!-- Node97&#45;&gt;Node102 -->
<g id="edge43" class="edge"><title>Node97&#45;&gt;Node102</title>
<path fill="none" stroke="midnightblue" d="M276.211,-222.038C284.606,-223.017 293.202,-224.019 301.628,-225.001"/>
<polygon fill="midnightblue" stroke="midnightblue" points="301.46,-228.505 311.798,-226.186 302.271,-221.552 301.46,-228.505"/>
</g>
<!-- Node103 -->
<g id="node35" class="node"><title>Node103</title>
<g id="a_node35"><a xlink:href="class_board.html#a19af96f42f5c38336010da2983abbf5c" target="_top" xlink:title="Board::getGoban">
<polygon fill="none" stroke="black" points="327.5,-261.645 327.5,-280.645 417.5,-280.645 417.5,-261.645 327.5,-261.645"/>
<text text-anchor="middle" x="372.5" y="-268.645" font-family="Helvetica,sans-Serif" font-size="10.00">Board::getGoban</text>
</a>
</g>
</g>
<!-- Node97&#45;&gt;Node103 -->
<g id="edge44" class="edge"><title>Node97&#45;&gt;Node103</title>
<path fill="none" stroke="midnightblue" d="M233.49,-223.661C254.387,-231.536 285.022,-242.89 312,-252.145 318.125,-254.247 324.631,-256.402 331.006,-258.471"/>
<polygon fill="midnightblue" stroke="midnightblue" points="330.251,-261.904 340.842,-261.632 332.392,-255.24 330.251,-261.904"/>
</g>
<!-- Node104 -->
<g id="node36" class="node"><title>Node104</title>
<g id="a_node36"><a xlink:href="class_arbre.html#acd12cae4820bb7780a628716a0615d10" target="_top" xlink:title="Arbre::Tsumego">
<polygon fill="none" stroke="black" points="329.5,-129.645 329.5,-148.645 415.5,-148.645 415.5,-129.645 329.5,-129.645"/>
<text text-anchor="middle" x="372.5" y="-136.645" font-family="Helvetica,sans-Serif" font-size="10.00">Arbre::Tsumego</text>
</a>
</g>
</g>
<!-- Node97&#45;&gt;Node104 -->
<g id="edge45" class="edge"><title>Node97&#45;&gt;Node104</title>
<path fill="none" stroke="midnightblue" d="M229.476,-204.494C257.84,-191.443 308.61,-168.083 341.14,-153.115"/>
<polygon fill="midnightblue" stroke="midnightblue" points="342.983,-156.119 350.605,-148.76 340.057,-149.76 342.983,-156.119"/>
</g>
<!-- Node98&#45;&gt;Node89 -->
<g id="edge42" class="edge"><title>Node98&#45;&gt;Node89</title>
<path fill="none" stroke="midnightblue" d="M522.277,-52.8649C547.039,-72.4677 603.186,-116.918 633.566,-140.968"/>
<polygon fill="midnightblue" stroke="midnightblue" points="631.741,-143.987 641.754,-147.45 636.086,-138.499 631.741,-143.987"/>
</g>
<!-- Node99 -->
<g id="node31" class="node"><title>Node99</title>
<g id="a_node31"><a xlink:href="class_goban.html#ae7ee3b39f3c0d28c9bca286ca538f8ac" target="_top" xlink:title="Goban::cancel">
<polygon fill="none" stroke="black" points="782,-33.6453 782,-52.6453 862,-52.6453 862,-33.6453 782,-33.6453"/>
<text text-anchor="middle" x="822" y="-40.6453" font-family="Helvetica,sans-Serif" font-size="10.00">Goban::cancel</text>
</a>
</g>
</g>
<!-- Node98&#45;&gt;Node99 -->
<g id="edge36" class="edge"><title>Node98&#45;&gt;Node99</title>
<path fill="none" stroke="midnightblue" d="M547.514,-43.1453C603.562,-43.1453 709.222,-43.1453 771.526,-43.1453"/>
<polygon fill="midnightblue" stroke="midnightblue" points="771.886,-46.6454 781.886,-43.1453 771.886,-39.6454 771.886,-46.6454"/>
</g>
<!-- Node99&#45;&gt;Node76 -->
<g id="edge37" class="edge"><title>Node99&#45;&gt;Node76</title>
<path fill="none" stroke="midnightblue" d="M861.35,-52.6612C869.343,-56.1295 877.116,-60.8207 883,-67.1453 918.904,-105.735 889.092,-136.743 919,-180.145 926.468,-190.983 937.468,-200.436 947.594,-207.698"/>
<polygon fill="midnightblue" stroke="midnightblue" points="945.914,-210.787 956.157,-213.495 949.838,-204.991 945.914,-210.787"/>
</g>
<!-- Node99&#45;&gt;Node83 -->
<g id="edge39" class="edge"><title>Node99&#45;&gt;Node83</title>
<path fill="none" stroke="midnightblue" d="M859.069,-52.7288C867.617,-56.241 876.213,-60.9352 883,-67.1453 909.103,-91.0283 894.804,-112.332 919,-138.145 922.748,-142.144 1053.84,-218.636 1110.18,-251.426"/>
<polygon fill="midnightblue" stroke="midnightblue" points="1108.46,-254.472 1118.86,-256.475 1111.98,-248.421 1108.46,-254.472"/>
</g>
<!-- Node99&#45;&gt;Node84 -->
<g id="edge40" class="edge"><title>Node99&#45;&gt;Node84</title>
<path fill="none" stroke="midnightblue" d="M862.071,-51.8707C879.431,-55.4904 900.161,-59.4624 919,-62.1453 980.426,-70.8933 1052.27,-76.2424 1095.8,-78.9497"/>
<polygon fill="midnightblue" stroke="midnightblue" points="1095.78,-82.4545 1105.97,-79.5659 1096.2,-75.4673 1095.78,-82.4545"/>
</g>
<!-- Node100 -->
<g id="node32" class="node"><title>Node100</title>
<g id="a_node32"><a xlink:href="class_history.html#a0ca66ba5a026689877e027754fc5bd52" target="_top" xlink:title="Access current position. ">
<polygon fill="none" stroke="black" points="932.5,-33.6453 932.5,-52.6453 1015.5,-52.6453 1015.5,-33.6453 932.5,-33.6453"/>
<text text-anchor="middle" x="974" y="-40.6453" font-family="Helvetica,sans-Serif" font-size="10.00">History::current</text>
</a>
</g>
</g>
<!-- Node99&#45;&gt;Node100 -->
<g id="edge38" class="edge"><title>Node99&#45;&gt;Node100</title>
<path fill="none" stroke="midnightblue" d="M862.019,-43.1453C880.425,-43.1453 902.62,-43.1453 922.309,-43.1453"/>
<polygon fill="midnightblue" stroke="midnightblue" points="922.344,-46.6454 932.344,-43.1453 922.344,-39.6454 922.344,-46.6454"/>
</g>
<!-- Node101 -->
<g id="node33" class="node"><title>Node101</title>
<g id="a_node33"><a xlink:href="class_history.html#a6e1bcaa1d3ecc646131e6f73a2544f35" target="_top" xlink:title="History::cancel">
<polygon fill="none" stroke="black" points="933,-109.645 933,-128.645 1015,-128.645 1015,-109.645 933,-109.645"/>
<text text-anchor="middle" x="974" y="-116.645" font-family="Helvetica,sans-Serif" font-size="10.00">History::cancel</text>
</a>
</g>
</g>
<!-- Node99&#45;&gt;Node101 -->
<g id="edge41" class="edge"><title>Node99&#45;&gt;Node101</title>
<path fill="none" stroke="midnightblue" d="M851.542,-52.6855C861.758,-56.5825 873.171,-61.5074 883,-67.1453 900.583,-77.2306 901.611,-84.7303 919,-95.1453 925.15,-98.8287 931.966,-102.289 938.626,-105.375"/>
<polygon fill="midnightblue" stroke="midnightblue" points="937.616,-108.755 948.176,-109.608 940.452,-102.356 937.616,-108.755"/>
</g>
<!-- Node104&#45;&gt;Node76 -->
<g id="edge51" class="edge"><title>Node104&#45;&gt;Node76</title>
<path fill="none" stroke="midnightblue" d="M415.094,-129.593C522.601,-105.886 806.624,-49.7832 883,-100.145 916.909,-122.505 893.615,-152.438 919,-184.145 926.526,-193.545 936.863,-201.751 946.48,-208.178"/>
<polygon fill="midnightblue" stroke="midnightblue" points="944.683,-211.183 955.007,-213.564 948.421,-205.265 944.683,-211.183"/>
</g>
<!-- Node104&#45;&gt;Node83 -->
<g id="edge52" class="edge"><title>Node104&#45;&gt;Node83</title>
<path fill="none" stroke="midnightblue" d="M383.657,-148.783C397.105,-162.148 420.565,-187.668 433,-214.145 466.016,-284.444 419.309,-325.456 469,-385.145 525.873,-453.46 565.11,-461.145 654,-461.145 654,-461.145 654,-461.145 823,-461.145 918.612,-461.145 960.936,-466.295 1029,-399.145 1066.82,-361.83 1026.64,-321.907 1065,-285.145 1073.64,-276.87 1085.48,-272.113 1097,-269.406"/>
<polygon fill="midnightblue" stroke="midnightblue" points="1097.78,-272.821 1106.95,-267.518 1096.47,-265.944 1097.78,-272.821"/>
</g>
<!-- Node104&#45;&gt;Node84 -->
<g id="edge53" class="edge"><title>Node104&#45;&gt;Node84</title>
<path fill="none" stroke="midnightblue" d="M378.108,-129.587C389.703,-106.725 422.518,-48.9418 469,-24.1453 541.927,14.7583 571.345,-5.14534 654,-5.14534 654,-5.14534 654,-5.14534 823,-5.14534 914.944,-5.14534 940.94,2.29564 1029,-24.1453 1060.14,-33.4964 1092.63,-52.4305 1113.41,-65.9085"/>
<polygon fill="midnightblue" stroke="midnightblue" points="1111.55,-68.8773 1121.82,-71.4849 1115.42,-63.0426 1111.55,-68.8773"/>
</g>
<!-- Node104&#45;&gt;Node91 -->
<g id="edge54" class="edge"><title>Node104&#45;&gt;Node91</title>
<path fill="none" stroke="midnightblue" d="M415.6,-137.264C500.503,-133.469 691.477,-124.934 777.518,-121.089"/>
<polygon fill="midnightblue" stroke="midnightblue" points="777.887,-124.576 787.721,-120.633 777.575,-117.583 777.887,-124.576"/>
</g>
<!-- Node104&#45;&gt;Node104 -->
<g id="edge56" class="edge"><title>Node104&#45;&gt;Node104</title>
<path fill="none" stroke="midnightblue" d="M351.538,-148.902C341.341,-157.711 348.328,-167.145 372.5,-167.145 387.985,-167.145 396.418,-163.273 397.798,-158.175"/>
<polygon fill="midnightblue" stroke="midnightblue" points="400.868,-156.478 393.462,-148.902 394.527,-159.444 400.868,-156.478"/>
</g>
<!-- Node105 -->
<g id="node37" class="node"><title>Node105</title>
<g id="a_node37"><a xlink:href="class_goban.html#a36ab256c9430e070b620052a0f13f051" target="_top" xlink:title="Goban::listFils">
<polygon fill="none" stroke="black" points="469,-261.645 469,-280.645 549,-280.645 549,-261.645 469,-261.645"/>
<text text-anchor="middle" x="509" y="-268.645" font-family="Helvetica,sans-Serif" font-size="10.00">Goban::listFils</text>
</a>
</g>
</g>
<!-- Node104&#45;&gt;Node105 -->
<g id="edge46" class="edge"><title>Node104&#45;&gt;Node105</title>
<path fill="none" stroke="midnightblue" d="M383.609,-149.067C406.505,-171.537 462.528,-226.518 490.915,-254.378"/>
<polygon fill="midnightblue" stroke="midnightblue" points="488.55,-256.961 498.139,-261.467 493.453,-251.965 488.55,-256.961"/>
</g>
<!-- Node107 -->
<g id="node39" class="node"><title>Node107</title>
<g id="a_node39"><a xlink:href="class_arbre.html#a761f4a2c6a43f44b38d4ac6fc1cf5cae" target="_top" xlink:title="Arbre::Arbre">
<polygon fill="none" stroke="black" points="474.5,-147.645 474.5,-166.645 543.5,-166.645 543.5,-147.645 474.5,-147.645"/>
<text text-anchor="middle" x="509" y="-154.645" font-family="Helvetica,sans-Serif" font-size="10.00">Arbre::Arbre</text>
</a>
</g>
</g>
<!-- Node104&#45;&gt;Node107 -->
<g id="edge55" class="edge"><title>Node104&#45;&gt;Node107</title>
<path fill="none" stroke="midnightblue" d="M415.688,-144.791C431.234,-146.872 448.866,-149.231 464.524,-151.327"/>
<polygon fill="midnightblue" stroke="midnightblue" points="464.111,-154.803 474.487,-152.66 465.039,-147.865 464.111,-154.803"/>
</g>
<!-- Node105&#45;&gt;Node73 -->
<g id="edge48" class="edge"><title>Node105&#45;&gt;Node73</title>
<path fill="none" stroke="midnightblue" d="M549.355,-265.298C594.793,-260.553 670.289,-259.004 725,-290.145 748.798,-303.691 743.173,-319.36 761,-340.145 774.107,-355.428 790.49,-371.354 802.824,-382.803"/>
<polygon fill="midnightblue" stroke="midnightblue" points="800.532,-385.45 810.269,-389.628 805.262,-380.29 800.532,-385.45"/>
</g>
<!-- Node105&#45;&gt;Node78 -->
<g id="edge49" class="edge"><title>Node105&#45;&gt;Node78</title>
<path fill="none" stroke="midnightblue" d="M546.337,-280.734C565.083,-285.681 588.143,-291.766 608.107,-297.035"/>
<polygon fill="midnightblue" stroke="midnightblue" points="607.362,-300.458 617.924,-299.625 609.148,-293.69 607.362,-300.458"/>
</g>
<!-- Node105&#45;&gt;Node80 -->
<g id="edge50" class="edge"><title>Node105&#45;&gt;Node80</title>
<path fill="none" stroke="midnightblue" d="M520.304,-281.061C534.011,-293.731 559.492,-315.53 585,-328.145 589.683,-330.461 594.689,-332.529 599.786,-334.368"/>
<polygon fill="midnightblue" stroke="midnightblue" points="599.044,-337.809 609.637,-337.626 601.242,-331.163 599.044,-337.809"/>
</g>
<!-- Node106 -->
<g id="node38" class="node"><title>Node106</title>
<g id="a_node38"><a xlink:href="class_goban.html#aa2aaa3b4db4549d169bd0ff234d601cb" target="_top" xlink:title="Goban::itoc">
<polygon fill="none" stroke="black" points="621.5,-223.645 621.5,-242.645 688.5,-242.645 688.5,-223.645 621.5,-223.645"/>
<text text-anchor="middle" x="655" y="-230.645" font-family="Helvetica,sans-Serif" font-size="10.00">Goban::itoc</text>
</a>
</g>
</g>
<!-- Node105&#45;&gt;Node106 -->
<g id="edge47" class="edge"><title>Node105&#45;&gt;Node106</title>
<path fill="none" stroke="midnightblue" d="M546.337,-261.556C566.099,-256.341 590.657,-249.861 611.325,-244.407"/>
<polygon fill="midnightblue" stroke="midnightblue" points="612.346,-247.757 621.121,-241.822 610.559,-240.989 612.346,-247.757"/>
</g>
</g>
</svg>
