<?xml version="1.0" encoding="UTF-8" standalone="no"?>
<!DOCTYPE svg PUBLIC "-//W3C//DTD SVG 1.1//EN"
 "http://www.w3.org/Graphics/SVG/1.1/DTD/svg11.dtd">
<!-- Generated by graphviz version 2.38.0 (20140413.2041)
 -->
<!-- Title: Goban::isSuicide Pages: 1 -->
<svg width="823pt" height="332pt"
 viewBox="0.00 0.00 823.00 332.00" xmlns="http://www.w3.org/2000/svg" xmlns:xlink="http://www.w3.org/1999/xlink">
<g id="graph0" class="graph" transform="scale(1 1) rotate(0) translate(4 328)">
<title>Goban::isSuicide</title>
<!-- Node148 -->
<g id="node1" class="node"><title>Node148</title>
<polygon fill="#bfbfbf" stroke="black" points="0,-152.5 0,-171.5 91,-171.5 91,-152.5 0,-152.5"/>
<text text-anchor="middle" x="45.5" y="-159.5" font-family="Helvetica,sans-Serif" font-size="10.00">Goban::isSuicide</text>
</g>
<!-- Node149 -->
<g id="node2" class="node"><title>Node149</title>
<g id="a_node2"><a xlink:href="class_etat.html#ac0b81bbcf64cb3cc574e5a9dcdf94382" target="_top" xlink:title="Etat::getVal">
<polygon fill="none" stroke="black" points="163,-304.5 163,-323.5 231,-323.5 231,-304.5 163,-304.5"/>
<text text-anchor="middle" x="197" y="-311.5" font-family="Helvetica,sans-Serif" font-size="10.00">Etat::getVal</text>
</a>
</g>
</g>
<!-- Node148&#45;&gt;Node149 -->
<g id="edge1" class="edge"><title>Node148&#45;&gt;Node149</title>
<path fill="none" stroke="midnightblue" d="M49.9276,-171.571C58.8568,-195.173 85.0925,-256.658 127,-290 134.661,-296.095 143.975,-300.697 153.249,-304.151"/>
<polygon fill="midnightblue" stroke="midnightblue" points="152.234,-307.502 162.827,-307.35 154.451,-300.862 152.234,-307.502"/>
</g>
<!-- Node150 -->
<g id="node3" class="node"><title>Node150</title>
<g id="a_node3"><a xlink:href="class_goban.html#a84f36324eb9ddc29f522d481f04c13e7" target="_top" xlink:title="Goban::listOfLiberties">
<polygon fill="none" stroke="black" points="461,-228.5 461,-247.5 571,-247.5 571,-228.5 461,-228.5"/>
<text text-anchor="middle" x="516" y="-235.5" font-family="Helvetica,sans-Serif" font-size="10.00">Goban::listOfLiberties</text>
</a>
</g>
</g>
<!-- Node148&#45;&gt;Node150 -->
<g id="edge2" class="edge"><title>Node148&#45;&gt;Node150</title>
<path fill="none" stroke="midnightblue" d="M57.2701,-171.592C71.8789,-183.945 99.3403,-204.906 127,-214 236.372,-249.96 372.27,-248.652 450.776,-243.776"/>
<polygon fill="midnightblue" stroke="midnightblue" points="451.248,-247.253 460.996,-243.101 450.787,-240.268 451.248,-247.253"/>
</g>
<!-- Node151 -->
<g id="node4" class="node"><title>Node151</title>
<g id="a_node4"><a xlink:href="class_etat.html#aa25e66b110bc835523819392435e78c6" target="_top" xlink:title="Etat::getX">
<polygon fill="none" stroke="black" points="629.5,-266.5 629.5,-285.5 688.5,-285.5 688.5,-266.5 629.5,-266.5"/>
<text text-anchor="middle" x="659" y="-273.5" font-family="Helvetica,sans-Serif" font-size="10.00">Etat::getX</text>
</a>
</g>
</g>
<!-- Node148&#45;&gt;Node151 -->
<g id="edge13" class="edge"><title>Node148&#45;&gt;Node151</title>
<path fill="none" stroke="midnightblue" d="M52.8861,-171.619C64.9974,-188.953 93.1454,-225.105 127,-241 295.731,-320.22 528.328,-296.309 619.315,-282.621"/>
<polygon fill="midnightblue" stroke="midnightblue" points="620.098,-286.041 629.444,-281.05 619.025,-279.124 620.098,-286.041"/>
</g>
<!-- Node152 -->
<g id="node5" class="node"><title>Node152</title>
<g id="a_node5"><a xlink:href="class_etat.html#a3e3e915f2261c83989a983e84b1273c1" target="_top" xlink:title="Etat::getY">
<polygon fill="none" stroke="black" points="628.5,-190.5 628.5,-209.5 689.5,-209.5 689.5,-190.5 628.5,-190.5"/>
<text text-anchor="middle" x="659" y="-197.5" font-family="Helvetica,sans-Serif" font-size="10.00">Etat::getY</text>
</a>
</g>
</g>
<!-- Node148&#45;&gt;Node152 -->
<g id="edge14" class="edge"><title>Node148&#45;&gt;Node152</title>
<path fill="none" stroke="midnightblue" d="M80.3017,-171.535C94.5914,-175.158 111.488,-178.912 127,-181 309.291,-205.532 529.752,-203.376 618.334,-201.222"/>
<polygon fill="midnightblue" stroke="midnightblue" points="618.565,-204.718 628.471,-200.961 618.385,-197.72 618.565,-204.718"/>
</g>
<!-- Node158 -->
<g id="node11" class="node"><title>Node158</title>
<g id="a_node11"><a xlink:href="class_goban.html#a0a8ed1098b25c0c42cb5faadaa0605d4" target="_top" xlink:title="Goban::getGroupsBlack">
<polygon fill="none" stroke="black" points="136.5,-76.5 136.5,-95.5 257.5,-95.5 257.5,-76.5 136.5,-76.5"/>
<text text-anchor="middle" x="197" y="-83.5" font-family="Helvetica,sans-Serif" font-size="10.00">Goban::getGroupsBlack</text>
</a>
</g>
</g>
<!-- Node148&#45;&gt;Node158 -->
<g id="edge10" class="edge"><title>Node148&#45;&gt;Node158</title>
<path fill="none" stroke="midnightblue" d="M59.3176,-152.339C74.7432,-141.046 101.732,-122.335 127,-110 135.454,-105.873 144.801,-102.123 153.815,-98.8777"/>
<polygon fill="midnightblue" stroke="midnightblue" points="155.099,-102.137 163.406,-95.5603 152.811,-95.5213 155.099,-102.137"/>
</g>
<!-- Node159 -->
<g id="node12" class="node"><title>Node159</title>
<g id="a_node12"><a xlink:href="class_goban.html#a0d5ecea357ff85e7d08f2c0855d83e6b" target="_top" xlink:title="Goban::getGroupsWhite">
<polygon fill="none" stroke="black" points="136,-38.5 136,-57.5 258,-57.5 258,-38.5 136,-38.5"/>
<text text-anchor="middle" x="197" y="-45.5" font-family="Helvetica,sans-Serif" font-size="10.00">Goban::getGroupsWhite</text>
</a>
</g>
</g>
<!-- Node148&#45;&gt;Node159 -->
<g id="edge11" class="edge"><title>Node148&#45;&gt;Node159</title>
<path fill="none" stroke="midnightblue" d="M51.9817,-152.253C63.3604,-132.932 91.4701,-89.6868 127,-67 130.322,-64.879 133.879,-62.992 137.564,-61.3134"/>
<polygon fill="midnightblue" stroke="midnightblue" points="138.945,-64.5304 146.921,-57.5559 136.337,-58.0345 138.945,-64.5304"/>
</g>
<!-- Node160 -->
<g id="node13" class="node"><title>Node160</title>
<g id="a_node13"><a xlink:href="class_goban.html#a29aaf8df380fe614845d48cba057747c" target="_top" xlink:title="Goban::coord">
<polygon fill="none" stroke="black" points="478.5,-114.5 478.5,-133.5 553.5,-133.5 553.5,-114.5 478.5,-114.5"/>
<text text-anchor="middle" x="516" y="-121.5" font-family="Helvetica,sans-Serif" font-size="10.00">Goban::coord</text>
</a>
</g>
</g>
<!-- Node148&#45;&gt;Node160 -->
<g id="edge12" class="edge"><title>Node148&#45;&gt;Node160</title>
<path fill="none" stroke="midnightblue" d="M80.7096,-152.467C94.9174,-148.89 111.644,-145.17 127,-143 249.205,-125.734 394.964,-123.444 468.155,-123.542"/>
<polygon fill="midnightblue" stroke="midnightblue" points="468.405,-127.043 478.415,-123.572 468.426,-120.043 468.405,-127.043"/>
</g>
<!-- Node161 -->
<g id="node14" class="node"><title>Node161</title>
<g id="a_node14"><a xlink:href="class_goban.html#a8584a53688e7bcf9de7c4cf48454acdc" target="_top" xlink:title="Goban::rechercheGroupes">
<polygon fill="none" stroke="black" points="131.5,-0.5 131.5,-19.5 262.5,-19.5 262.5,-0.5 131.5,-0.5"/>
<text text-anchor="middle" x="197" y="-7.5" font-family="Helvetica,sans-Serif" font-size="10.00">Goban::rechercheGroupes</text>
</a>
</g>
</g>
<!-- Node148&#45;&gt;Node161 -->
<g id="edge15" class="edge"><title>Node148&#45;&gt;Node161</title>
<path fill="none" stroke="midnightblue" d="M49.5577,-152.242C57.7973,-127.586 82.8725,-62.3797 127,-29 129.496,-27.112 132.169,-25.4116 134.959,-23.8801"/>
<polygon fill="midnightblue" stroke="midnightblue" points="136.636,-26.9594 144.201,-19.5412 133.661,-20.6231 136.636,-26.9594"/>
</g>
<!-- Node162 -->
<g id="node15" class="node"><title>Node162</title>
<g id="a_node15"><a xlink:href="class_goban.html#a7858b815885e4af36f05f9d26182cb07" target="_top" xlink:title="Goban::eliminateOppGroups">
<polygon fill="none" stroke="black" points="127,-152.5 127,-171.5 267,-171.5 267,-152.5 127,-152.5"/>
<text text-anchor="middle" x="197" y="-159.5" font-family="Helvetica,sans-Serif" font-size="10.00">Goban::eliminateOppGroups</text>
</a>
</g>
</g>
<!-- Node148&#45;&gt;Node162 -->
<g id="edge16" class="edge"><title>Node148&#45;&gt;Node162</title>
<path fill="none" stroke="midnightblue" d="M91.3549,-162C99.3913,-162 107.98,-162 116.651,-162"/>
<polygon fill="midnightblue" stroke="midnightblue" points="116.84,-165.5 126.84,-162 116.84,-158.5 116.84,-165.5"/>
</g>
<!-- Node150&#45;&gt;Node151 -->
<g id="edge3" class="edge"><title>Node150&#45;&gt;Node151</title>
<path fill="none" stroke="midnightblue" d="M552.58,-247.589C572.912,-253.069 598.428,-259.945 619.264,-265.56"/>
<polygon fill="midnightblue" stroke="midnightblue" points="618.507,-268.981 629.073,-268.204 620.328,-262.222 618.507,-268.981"/>
</g>
<!-- Node150&#45;&gt;Node152 -->
<g id="edge4" class="edge"><title>Node150&#45;&gt;Node152</title>
<path fill="none" stroke="midnightblue" d="M552.58,-228.411C572.632,-223.007 597.725,-216.244 618.399,-210.673"/>
<polygon fill="midnightblue" stroke="midnightblue" points="619.407,-214.026 628.151,-208.044 617.585,-207.267 619.407,-214.026"/>
</g>
<!-- Node153 -->
<g id="node6" class="node"><title>Node153</title>
<g id="a_node6"><a xlink:href="class_goban.html#a0e2596110cdbb9b007b2b2fd8d5a9973" target="_top" xlink:title="Goban::DefineStone">
<polygon fill="none" stroke="black" points="607,-228.5 607,-247.5 711,-247.5 711,-228.5 607,-228.5"/>
<text text-anchor="middle" x="659" y="-235.5" font-family="Helvetica,sans-Serif" font-size="10.00">Goban::DefineStone</text>
</a>
</g>
</g>
<!-- Node150&#45;&gt;Node153 -->
<g id="edge5" class="edge"><title>Node150&#45;&gt;Node153</title>
<path fill="none" stroke="midnightblue" d="M571.111,-238C579.393,-238 587.994,-238 596.423,-238"/>
<polygon fill="midnightblue" stroke="midnightblue" points="596.585,-241.5 606.585,-238 596.585,-234.5 596.585,-241.5"/>
</g>
<!-- Node154 -->
<g id="node7" class="node"><title>Node154</title>
<g id="a_node7"><a xlink:href="class_etat.html#ac020c4fe222274ac849a03fc8f19a99a" target="_top" xlink:title="Etat::setX">
<polygon fill="none" stroke="black" points="751.5,-266.5 751.5,-285.5 810.5,-285.5 810.5,-266.5 751.5,-266.5"/>
<text text-anchor="middle" x="781" y="-273.5" font-family="Helvetica,sans-Serif" font-size="10.00">Etat::setX</text>
</a>
</g>
</g>
<!-- Node153&#45;&gt;Node154 -->
<g id="edge6" class="edge"><title>Node153&#45;&gt;Node154</title>
<path fill="none" stroke="midnightblue" d="M690.281,-247.589C705.806,-252.505 724.881,-258.546 741.446,-263.791"/>
<polygon fill="midnightblue" stroke="midnightblue" points="740.791,-267.255 751.381,-266.937 742.904,-260.582 740.791,-267.255"/>
</g>
<!-- Node155 -->
<g id="node8" class="node"><title>Node155</title>
<g id="a_node8"><a xlink:href="class_etat.html#a8a54fc9ecb1b97d84d2f1f259e3bf70e" target="_top" xlink:title="Etat::setY">
<polygon fill="none" stroke="black" points="750.5,-228.5 750.5,-247.5 811.5,-247.5 811.5,-228.5 750.5,-228.5"/>
<text text-anchor="middle" x="781" y="-235.5" font-family="Helvetica,sans-Serif" font-size="10.00">Etat::setY</text>
</a>
</g>
</g>
<!-- Node153&#45;&gt;Node155 -->
<g id="edge7" class="edge"><title>Node153&#45;&gt;Node155</title>
<path fill="none" stroke="midnightblue" d="M711.239,-238C720.958,-238 730.992,-238 740.288,-238"/>
<polygon fill="midnightblue" stroke="midnightblue" points="740.415,-241.5 750.415,-238 740.415,-234.5 740.415,-241.5"/>
</g>
<!-- Node156 -->
<g id="node9" class="node"><title>Node156</title>
<g id="a_node9"><a xlink:href="class_etat.html#aa88987ca54aee676717f05e4570c0aec" target="_top" xlink:title="Etat::setVal">
<polygon fill="none" stroke="black" points="747,-152.5 747,-171.5 815,-171.5 815,-152.5 747,-152.5"/>
<text text-anchor="middle" x="781" y="-159.5" font-family="Helvetica,sans-Serif" font-size="10.00">Etat::setVal</text>
</a>
</g>
</g>
<!-- Node153&#45;&gt;Node156 -->
<g id="edge8" class="edge"><title>Node153&#45;&gt;Node156</title>
<path fill="none" stroke="midnightblue" d="M692.374,-228.481C698.81,-225.899 705.326,-222.754 711,-219 730.402,-206.163 728.727,-195.4 747,-181 748.772,-179.604 750.658,-178.242 752.596,-176.931"/>
<polygon fill="midnightblue" stroke="midnightblue" points="754.596,-179.808 761.234,-171.551 750.895,-173.866 754.596,-179.808"/>
</g>
<!-- Node157 -->
<g id="node10" class="node"><title>Node157</title>
<g id="a_node10"><a xlink:href="class_goban.html#a579840586df08a58983f6b497979344b" target="_top" xlink:title="Goban::ctoi">
<polygon fill="none" stroke="black" points="747.5,-190.5 747.5,-209.5 814.5,-209.5 814.5,-190.5 747.5,-190.5"/>
<text text-anchor="middle" x="781" y="-197.5" font-family="Helvetica,sans-Serif" font-size="10.00">Goban::ctoi</text>
</a>
</g>
</g>
<!-- Node153&#45;&gt;Node157 -->
<g id="edge9" class="edge"><title>Node153&#45;&gt;Node157</title>
<path fill="none" stroke="midnightblue" d="M690.281,-228.411C705.346,-223.641 723.754,-217.811 739.967,-212.677"/>
<polygon fill="midnightblue" stroke="midnightblue" points="741.252,-215.942 749.729,-209.586 739.139,-209.268 741.252,-215.942"/>
</g>
<!-- Node163 -->
<g id="node16" class="node"><title>Node163</title>
<g id="a_node16"><a xlink:href="class_goban.html#a1ec70508987f66afff5f8df381731fac" target="_top" xlink:title="Goban::eliminateGroups">
<polygon fill="none" stroke="black" points="303,-152.5 303,-171.5 425,-171.5 425,-152.5 303,-152.5"/>
<text text-anchor="middle" x="364" y="-159.5" font-family="Helvetica,sans-Serif" font-size="10.00">Goban::eliminateGroups</text>
</a>
</g>
</g>
<!-- Node162&#45;&gt;Node163 -->
<g id="edge17" class="edge"><title>Node162&#45;&gt;Node163</title>
<path fill="none" stroke="midnightblue" d="M267.019,-162C275.494,-162 284.165,-162 292.66,-162"/>
<polygon fill="midnightblue" stroke="midnightblue" points="292.91,-165.5 302.91,-162 292.91,-158.5 292.91,-165.5"/>
</g>
<!-- Node163&#45;&gt;Node150 -->
<g id="edge18" class="edge"><title>Node163&#45;&gt;Node150</title>
<path fill="none" stroke="midnightblue" d="M383.998,-171.625C410.033,-184.817 456.987,-208.607 487.041,-223.834"/>
<polygon fill="midnightblue" stroke="midnightblue" points="485.654,-227.055 496.157,-228.453 488.818,-220.811 485.654,-227.055"/>
</g>
<!-- Node163&#45;&gt;Node156 -->
<g id="edge20" class="edge"><title>Node163&#45;&gt;Node156</title>
<path fill="none" stroke="midnightblue" d="M425.345,-162C509.979,-162 661.908,-162 736.403,-162"/>
<polygon fill="midnightblue" stroke="midnightblue" points="736.815,-165.5 746.815,-162 736.815,-158.5 736.815,-165.5"/>
</g>
<!-- Node163&#45;&gt;Node160 -->
<g id="edge19" class="edge"><title>Node163&#45;&gt;Node160</title>
<path fill="none" stroke="midnightblue" d="M402.851,-152.411C422.856,-147.343 447.578,-141.08 468.716,-135.725"/>
<polygon fill="midnightblue" stroke="midnightblue" points="469.622,-139.107 478.456,-133.258 467.902,-132.321 469.622,-139.107"/>
</g>
</g>
</svg>
