<?xml version="1.0" encoding="UTF-8" standalone="no"?>
<!DOCTYPE svg PUBLIC "-//W3C//DTD SVG 1.1//EN"
 "http://www.w3.org/Graphics/SVG/1.1/DTD/svg11.dtd">
<!-- Generated by graphviz version 2.38.0 (20140413.2041)
 -->
<!-- Title: Etat::setX Pages: 1 -->
<svg width="1264pt" height="142pt"
 viewBox="0.00 0.00 1264.00 142.00" xmlns="http://www.w3.org/2000/svg" xmlns:xlink="http://www.w3.org/1999/xlink">
<g id="graph0" class="graph" transform="scale(1 1) rotate(0) translate(4 138)">
<title>Etat::setX</title>
<!-- Node93 -->
<g id="node1" class="node"><title>Node93</title>
<polygon fill="#bfbfbf" stroke="black" points="0,-38.5 0,-57.5 59,-57.5 59,-38.5 0,-38.5"/>
<text text-anchor="middle" x="29.5" y="-45.5" font-family="Helvetica,sans-Serif" font-size="10.00">Etat::setX</text>
</g>
<!-- Node94 -->
<g id="node2" class="node"><title>Node94</title>
<g id="a_node2"><a xlink:href="class_goban.html#a3544d30f54fbb54bd9e4fed08aa4bce6" target="_top" xlink:title="Goban::Goban">
<polygon fill="none" stroke="black" points="107,-57.5 107,-76.5 187,-76.5 187,-57.5 107,-57.5"/>
<text text-anchor="middle" x="147" y="-64.5" font-family="Helvetica,sans-Serif" font-size="10.00">Goban::Goban</text>
</a>
</g>
</g>
<!-- Node93&#45;&gt;Node94 -->
<g id="edge1" class="edge"><title>Node93&#45;&gt;Node94</title>
<path fill="none" stroke="midnightblue" d="M68.9376,-54.3231C81.1384,-56.3301 94.639,-58.551 106.887,-60.5658"/>
<polygon fill="midnightblue" stroke="midnightblue" points="69.4861,-50.8663 59.0506,-52.6966 68.3498,-57.7735 69.4861,-50.8663"/>
</g>
<!-- Node95 -->
<g id="node3" class="node"><title>Node95</title>
<g id="a_node3"><a xlink:href="class_goban.html#a0e2596110cdbb9b007b2b2fd8d5a9973" target="_top" xlink:title="Goban::DefineStone">
<polygon fill="none" stroke="black" points="95,-19.5 95,-38.5 199,-38.5 199,-19.5 95,-19.5"/>
<text text-anchor="middle" x="147" y="-26.5" font-family="Helvetica,sans-Serif" font-size="10.00">Goban::DefineStone</text>
</a>
</g>
</g>
<!-- Node93&#45;&gt;Node95 -->
<g id="edge2" class="edge"><title>Node93&#45;&gt;Node95</title>
<path fill="none" stroke="midnightblue" d="M69.1207,-41.6468C77.365,-40.2906 86.1957,-38.8379 94.8277,-37.4179"/>
<polygon fill="midnightblue" stroke="midnightblue" points="68.3498,-38.2265 59.0506,-43.3034 69.4861,-45.1337 68.3498,-38.2265"/>
</g>
<!-- Node96 -->
<g id="node4" class="node"><title>Node96</title>
<g id="a_node4"><a xlink:href="class_goban.html#a84f36324eb9ddc29f522d481f04c13e7" target="_top" xlink:title="Goban::listOfLiberties">
<polygon fill="none" stroke="black" points="235,-19.5 235,-38.5 345,-38.5 345,-19.5 235,-19.5"/>
<text text-anchor="middle" x="290" y="-26.5" font-family="Helvetica,sans-Serif" font-size="10.00">Goban::listOfLiberties</text>
</a>
</g>
</g>
<!-- Node95&#45;&gt;Node96 -->
<g id="edge3" class="edge"><title>Node95&#45;&gt;Node96</title>
<path fill="none" stroke="midnightblue" d="M209.425,-29C217.82,-29 226.39,-29 234.648,-29"/>
<polygon fill="midnightblue" stroke="midnightblue" points="209.303,-25.5001 199.303,-29 209.303,-32.5001 209.303,-25.5001"/>
</g>
<!-- Node97 -->
<g id="node5" class="node"><title>Node97</title>
<g id="a_node5"><a xlink:href="class_goban.html#a1ec70508987f66afff5f8df381731fac" target="_top" xlink:title="Goban::eliminateGroups">
<polygon fill="none" stroke="black" points="381,-38.5 381,-57.5 503,-57.5 503,-38.5 381,-38.5"/>
<text text-anchor="middle" x="442" y="-45.5" font-family="Helvetica,sans-Serif" font-size="10.00">Goban::eliminateGroups</text>
</a>
</g>
</g>
<!-- Node96&#45;&gt;Node97 -->
<g id="edge4" class="edge"><title>Node96&#45;&gt;Node97</title>
<path fill="none" stroke="midnightblue" d="M355.347,-37.1506C363.803,-38.2217 372.443,-39.3162 380.827,-40.378"/>
<polygon fill="midnightblue" stroke="midnightblue" points="355.514,-33.6439 345.153,-35.8594 354.634,-40.5884 355.514,-33.6439"/>
</g>
<!-- Node100 -->
<g id="node8" class="node"><title>Node100</title>
<g id="a_node8"><a xlink:href="class_goban.html#a8b95ea2b51c078381562e361ff7febac" target="_top" xlink:title="Goban::isSuicide">
<polygon fill="none" stroke="black" points="723,-0.5 723,-19.5 814,-19.5 814,-0.5 723,-0.5"/>
<text text-anchor="middle" x="768.5" y="-7.5" font-family="Helvetica,sans-Serif" font-size="10.00">Goban::isSuicide</text>
</a>
</g>
</g>
<!-- Node96&#45;&gt;Node100 -->
<g id="edge16" class="edge"><title>Node96&#45;&gt;Node100</title>
<path fill="none" stroke="midnightblue" d="M355.281,-26.4369C453.401,-22.5244 638.06,-15.1613 722.861,-11.78"/>
<polygon fill="midnightblue" stroke="midnightblue" points="355.049,-22.9432 345.197,-26.839 355.328,-29.9377 355.049,-22.9432"/>
</g>
<!-- Node98 -->
<g id="node6" class="node"><title>Node98</title>
<g id="a_node6"><a xlink:href="class_goban.html#a7858b815885e4af36f05f9d26182cb07" target="_top" xlink:title="Goban::eliminateOppGroups">
<polygon fill="none" stroke="black" points="539,-38.5 539,-57.5 679,-57.5 679,-38.5 539,-38.5"/>
<text text-anchor="middle" x="609" y="-45.5" font-family="Helvetica,sans-Serif" font-size="10.00">Goban::eliminateOppGroups</text>
</a>
</g>
</g>
<!-- Node97&#45;&gt;Node98 -->
<g id="edge5" class="edge"><title>Node97&#45;&gt;Node98</title>
<path fill="none" stroke="midnightblue" d="M513.24,-48C521.698,-48 530.331,-48 538.774,-48"/>
<polygon fill="midnightblue" stroke="midnightblue" points="513.036,-44.5001 503.036,-48 513.036,-51.5001 513.036,-44.5001"/>
</g>
<!-- Node99 -->
<g id="node7" class="node"><title>Node99</title>
<g id="a_node7"><a xlink:href="class_goban.html#a799390f04139eec16f7bb8c79b381303" target="_top" xlink:title="Goban::legalEvenKO">
<polygon fill="none" stroke="black" points="715,-114.5 715,-133.5 822,-133.5 822,-114.5 715,-114.5"/>
<text text-anchor="middle" x="768.5" y="-121.5" font-family="Helvetica,sans-Serif" font-size="10.00">Goban::legalEvenKO</text>
</a>
</g>
</g>
<!-- Node98&#45;&gt;Node99 -->
<g id="edge6" class="edge"><title>Node98&#45;&gt;Node99</title>
<path fill="none" stroke="midnightblue" d="M634.856,-62.8724C655.8,-75.0659 686.78,-92.32 715,-105 722.515,-108.377 730.828,-111.606 738.58,-114.413"/>
<polygon fill="midnightblue" stroke="midnightblue" points="636.38,-59.7086 625.985,-57.6606 632.834,-65.744 636.38,-59.7086"/>
</g>
<!-- Node98&#45;&gt;Node100 -->
<g id="edge7" class="edge"><title>Node98&#45;&gt;Node100</title>
<path fill="none" stroke="midnightblue" d="M659.604,-36.032C681.675,-30.7069 707.303,-24.5238 728.042,-19.5201"/>
<polygon fill="midnightblue" stroke="midnightblue" points="658.644,-32.6631 649.744,-38.411 660.286,-39.4679 658.644,-32.6631"/>
</g>
<!-- Node101 -->
<g id="node9" class="node"><title>Node101</title>
<g id="a_node9"><a xlink:href="class_goban.html#a36ab256c9430e070b620052a0f13f051" target="_top" xlink:title="Goban::listFils">
<polygon fill="none" stroke="black" points="728.5,-76.5 728.5,-95.5 808.5,-95.5 808.5,-76.5 728.5,-76.5"/>
<text text-anchor="middle" x="768.5" y="-83.5" font-family="Helvetica,sans-Serif" font-size="10.00">Goban::listFils</text>
</a>
</g>
</g>
<!-- Node98&#45;&gt;Node101 -->
<g id="edge8" class="edge"><title>Node98&#45;&gt;Node101</title>
<path fill="none" stroke="midnightblue" d="M659.643,-59.9773C681.802,-65.3237 707.54,-71.5334 728.314,-76.5457"/>
<polygon fill="midnightblue" stroke="midnightblue" points="660.286,-56.5321 649.744,-57.589 658.644,-63.3369 660.286,-56.5321"/>
</g>
<!-- Node105 -->
<g id="node13" class="node"><title>Node105</title>
<g id="a_node13"><a xlink:href="class_board.html#a5fda73da080403d8a71a8593d581c350" target="_top" xlink:title="Board::click">
<polygon fill="none" stroke="black" points="867,-38.5 867,-57.5 935,-57.5 935,-38.5 867,-38.5"/>
<text text-anchor="middle" x="901" y="-45.5" font-family="Helvetica,sans-Serif" font-size="10.00">Board::click</text>
</a>
</g>
</g>
<!-- Node98&#45;&gt;Node105 -->
<g id="edge13" class="edge"><title>Node98&#45;&gt;Node105</title>
<path fill="none" stroke="midnightblue" d="M689.387,-48C747.671,-48 823.877,-48 866.816,-48"/>
<polygon fill="midnightblue" stroke="midnightblue" points="689.094,-44.5001 679.094,-48 689.094,-51.5001 689.094,-44.5001"/>
</g>
<!-- Node102 -->
<g id="node10" class="node"><title>Node102</title>
<g id="a_node10"><a xlink:href="class_arbre.html#acd12cae4820bb7780a628716a0615d10" target="_top" xlink:title="Arbre::Tsumego">
<polygon fill="none" stroke="black" points="858,-76.5 858,-95.5 944,-95.5 944,-76.5 858,-76.5"/>
<text text-anchor="middle" x="901" y="-83.5" font-family="Helvetica,sans-Serif" font-size="10.00">Arbre::Tsumego</text>
</a>
</g>
</g>
<!-- Node101&#45;&gt;Node102 -->
<g id="edge9" class="edge"><title>Node101&#45;&gt;Node102</title>
<path fill="none" stroke="midnightblue" d="M818.713,-86C831.542,-86 845.253,-86 857.69,-86"/>
<polygon fill="midnightblue" stroke="midnightblue" points="818.654,-82.5001 808.654,-86 818.654,-89.5001 818.654,-82.5001"/>
</g>
<!-- Node102&#45;&gt;Node102 -->
<g id="edge10" class="edge"><title>Node102&#45;&gt;Node102</title>
<path fill="none" stroke="midnightblue" d="M876.447,-105.029C877.786,-110.128 885.97,-114 901,-114 924.461,-114 931.243,-104.565 921.345,-95.7571"/>
<polygon fill="midnightblue" stroke="midnightblue" points="879.709,-106.31 880.655,-95.7571 873.335,-103.416 879.709,-106.31"/>
</g>
<!-- Node103 -->
<g id="node11" class="node"><title>Node103</title>
<g id="a_node11"><a xlink:href="class_game__window.html#a72304de2044c29f1373037bd818f674f" target="_top" xlink:title="Game_window::keyPressed">
<polygon fill="none" stroke="black" points="980,-76.5 980,-95.5 1117,-95.5 1117,-76.5 980,-76.5"/>
<text text-anchor="middle" x="1048.5" y="-83.5" font-family="Helvetica,sans-Serif" font-size="10.00">Game_window::keyPressed</text>
</a>
</g>
</g>
<!-- Node102&#45;&gt;Node103 -->
<g id="edge11" class="edge"><title>Node102&#45;&gt;Node103</title>
<path fill="none" stroke="midnightblue" d="M954.302,-86C962.559,-86 971.197,-86 979.744,-86"/>
<polygon fill="midnightblue" stroke="midnightblue" points="954.085,-82.5001 944.085,-86 954.085,-89.5001 954.085,-82.5001"/>
</g>
<!-- Node104 -->
<g id="node12" class="node"><title>Node104</title>
<g id="a_node12"><a xlink:href="class_game__window.html#aec21feecf4c72d73c13d82aa12df6930" target="_top" xlink:title="Game_window::Run">
<polygon fill="none" stroke="black" points="1153,-57.5 1153,-76.5 1256,-76.5 1256,-57.5 1153,-57.5"/>
<text text-anchor="middle" x="1204.5" y="-64.5" font-family="Helvetica,sans-Serif" font-size="10.00">Game_window::Run</text>
</a>
</g>
</g>
<!-- Node103&#45;&gt;Node104 -->
<g id="edge12" class="edge"><title>Node103&#45;&gt;Node104</title>
<path fill="none" stroke="midnightblue" d="M1127.19,-76.4154C1135.84,-75.3476 1144.48,-74.2812 1152.68,-73.2703"/>
<polygon fill="midnightblue" stroke="midnightblue" points="1126.54,-72.9681 1117.05,-77.6663 1127.4,-79.9154 1126.54,-72.9681"/>
</g>
<!-- Node106 -->
<g id="node14" class="node"><title>Node106</title>
<g id="a_node14"><a xlink:href="class_game__window.html#afa942088809bf10731bb31d0d37b878d" target="_top" xlink:title="Game_window::click">
<polygon fill="none" stroke="black" points="995.5,-38.5 995.5,-57.5 1101.5,-57.5 1101.5,-38.5 995.5,-38.5"/>
<text text-anchor="middle" x="1048.5" y="-45.5" font-family="Helvetica,sans-Serif" font-size="10.00">Game_window::click</text>
</a>
</g>
</g>
<!-- Node105&#45;&gt;Node106 -->
<g id="edge14" class="edge"><title>Node105&#45;&gt;Node106</title>
<path fill="none" stroke="midnightblue" d="M945.049,-48C960.875,-48 978.963,-48 995.493,-48"/>
<polygon fill="midnightblue" stroke="midnightblue" points="945.016,-44.5001 935.016,-48 945.016,-51.5001 945.016,-44.5001"/>
</g>
<!-- Node106&#45;&gt;Node104 -->
<g id="edge15" class="edge"><title>Node106&#45;&gt;Node104</title>
<path fill="none" stroke="midnightblue" d="M1111.92,-55.7016C1125.58,-57.386 1139.86,-59.1486 1152.98,-60.7672"/>
<polygon fill="midnightblue" stroke="midnightblue" points="1111.99,-52.1834 1101.64,-54.4325 1111.13,-59.1308 1111.99,-52.1834"/>
</g>
</g>
</svg>
