<?xml version="1.0" encoding="UTF-8" standalone="no"?>
<!DOCTYPE svg PUBLIC "-//W3C//DTD SVG 1.1//EN"
 "http://www.w3.org/Graphics/SVG/1.1/DTD/svg11.dtd">
<!-- Generated by graphviz version 2.38.0 (20140413.2041)
 -->
<!-- Title: Groupe::voisin Pages: 1 -->
<svg width="360pt" height="28pt"
 viewBox="0.00 0.00 360.00 28.00" xmlns="http://www.w3.org/2000/svg" xmlns:xlink="http://www.w3.org/1999/xlink">
<g id="graph0" class="graph" transform="scale(1 1) rotate(0) translate(4 24)">
<title>Groupe::voisin</title>
<!-- Node14 -->
<g id="node1" class="node"><title>Node14</title>
<polygon fill="#bfbfbf" stroke="black" points="0,-0.5 0,-19.5 78,-19.5 78,-0.5 0,-0.5"/>
<text text-anchor="middle" x="39" y="-7.5" font-family="Helvetica,sans-Serif" font-size="10.00">Groupe::voisin</text>
</g>
<!-- Node15 -->
<g id="node2" class="node"><title>Node15</title>
<g id="a_node2"><a xlink:href="class_groupe.html#a51ae2500f67ac071215ba3ff49e91b17" target="_top" xlink:title="Groupe::shouldContain">
<polygon fill="none" stroke="black" points="114,-0.5 114,-19.5 230,-19.5 230,-0.5 114,-0.5"/>
<text text-anchor="middle" x="172" y="-7.5" font-family="Helvetica,sans-Serif" font-size="10.00">Groupe::shouldContain</text>
</a>
</g>
</g>
<!-- Node14&#45;&gt;Node15 -->
<g id="edge1" class="edge"><title>Node14&#45;&gt;Node15</title>
<path fill="none" stroke="midnightblue" d="M78.2428,-10C86.2763,-10 94.9755,-10 103.717,-10"/>
<polygon fill="midnightblue" stroke="midnightblue" points="103.961,-13.5001 113.961,-10 103.961,-6.5001 103.961,-13.5001"/>
</g>
<!-- Node16 -->
<g id="node3" class="node"><title>Node16</title>
<g id="a_node3"><a xlink:href="class_etat.html#ab6e6b44dd68c041150332cee66dc74a3" target="_top" xlink:title="Etat::estVoisine">
<polygon fill="none" stroke="black" points="266,-0.5 266,-19.5 352,-19.5 352,-0.5 266,-0.5"/>
<text text-anchor="middle" x="309" y="-7.5" font-family="Helvetica,sans-Serif" font-size="10.00">Etat::estVoisine</text>
</a>
</g>
</g>
<!-- Node15&#45;&gt;Node16 -->
<g id="edge2" class="edge"><title>Node15&#45;&gt;Node16</title>
<path fill="none" stroke="midnightblue" d="M230.252,-10C238.733,-10 247.435,-10 255.806,-10"/>
<polygon fill="midnightblue" stroke="midnightblue" points="255.815,-13.5001 265.814,-10 255.814,-6.5001 255.815,-13.5001"/>
</g>
</g>
</svg>
