<?xml version="1.0" encoding="UTF-8" standalone="no"?>
<!DOCTYPE svg PUBLIC "-//W3C//DTD SVG 1.1//EN"
 "http://www.w3.org/Graphics/SVG/1.1/DTD/svg11.dtd">
<!-- Generated by graphviz version 2.38.0 (20140413.2041)
 -->
<!-- Title: Choice Pages: 1 -->
<svg width="252pt" height="419pt"
 viewBox="0.00 0.00 251.50 419.00" xmlns="http://www.w3.org/2000/svg" xmlns:xlink="http://www.w3.org/1999/xlink">
<g id="graph0" class="graph" transform="scale(1 1) rotate(0) translate(4 415)">
<title>Choice</title>
<!-- Node0 -->
<g id="node1" class="node"><title>Node0</title>
<polygon fill="#bfbfbf" stroke="black" points="65,-138.5 65,-316.5 187,-316.5 187,-138.5 65,-138.5"/>
<text text-anchor="middle" x="126" y="-304.5" font-family="Helvetica,sans-Serif" font-size="10.00">Choice</text>
<polyline fill="none" stroke="black" points="65,-297.5 187,-297.5 "/>
<text text-anchor="middle" x="126" y="-285.5" font-family="Helvetica,sans-Serif" font-size="10.00"> </text>
<polyline fill="none" stroke="black" points="65,-278.5 187,-278.5 "/>
<text text-anchor="start" x="73" y="-266.5" font-family="Helvetica,sans-Serif" font-size="10.00">+ Choice()</text>
<text text-anchor="start" x="73" y="-255.5" font-family="Helvetica,sans-Serif" font-size="10.00">+ Choice()</text>
<text text-anchor="start" x="73" y="-244.5" font-family="Helvetica,sans-Serif" font-size="10.00">+ ~Choice()</text>
<text text-anchor="start" x="73" y="-233.5" font-family="Helvetica,sans-Serif" font-size="10.00">+ draw()</text>
<text text-anchor="start" x="73" y="-222.5" font-family="Helvetica,sans-Serif" font-size="10.00">+ getSize()</text>
<text text-anchor="start" x="73" y="-211.5" font-family="Helvetica,sans-Serif" font-size="10.00">+ loadTextures()</text>
<text text-anchor="start" x="73" y="-200.5" font-family="Helvetica,sans-Serif" font-size="10.00">+ setSelected()</text>
<text text-anchor="start" x="73" y="-189.5" font-family="Helvetica,sans-Serif" font-size="10.00">+ setHover()</text>
<text text-anchor="start" x="73" y="-178.5" font-family="Helvetica,sans-Serif" font-size="10.00">+ getGlobalBounds()</text>
<text text-anchor="start" x="73" y="-167.5" font-family="Helvetica,sans-Serif" font-size="10.00">+ updateTexture()</text>
<text text-anchor="start" x="73" y="-156.5" font-family="Helvetica,sans-Serif" font-size="10.00">+ Run()</text>
<text text-anchor="start" x="73" y="-145.5" font-family="Helvetica,sans-Serif" font-size="10.00">+ showAdressTextures()</text>
</g>
<!-- Node2 -->
<g id="node3" class="node"><title>Node2</title>
<g id="a_node3"><a xlink:href="class_choice__miniature.html" target="_top" xlink:title="{Choice_miniature\n||+ Choice_miniature()\l+ Choice_miniature()\l+ ~Choice_miniature()\l+ showAdressTextures()\l}">
<polygon fill="none" stroke="black" points="0,-6 0,-96 122,-96 122,-6 0,-6"/>
<text text-anchor="middle" x="61" y="-84" font-family="Helvetica,sans-Serif" font-size="10.00">Choice_miniature</text>
<polyline fill="none" stroke="black" points="0,-77 122,-77 "/>
<text text-anchor="middle" x="61" y="-65" font-family="Helvetica,sans-Serif" font-size="10.00"> </text>
<polyline fill="none" stroke="black" points="0,-58 122,-58 "/>
<text text-anchor="start" x="8" y="-46" font-family="Helvetica,sans-Serif" font-size="10.00">+ Choice_miniature()</text>
<text text-anchor="start" x="8" y="-35" font-family="Helvetica,sans-Serif" font-size="10.00">+ Choice_miniature()</text>
<text text-anchor="start" x="8" y="-24" font-family="Helvetica,sans-Serif" font-size="10.00">+ ~Choice_miniature()</text>
<text text-anchor="start" x="8" y="-13" font-family="Helvetica,sans-Serif" font-size="10.00">+ showAdressTextures()</text>
</a>
</g>
</g>
<!-- Node0&#45;&gt;Node2 -->
<g id="edge2" class="edge"><title>Node0&#45;&gt;Node2</title>
<path fill="none" stroke="midnightblue" d="M89.6197,-128.833C85.3579,-117.392 81.1863,-106.192 77.4039,-96.0381"/>
<polygon fill="none" stroke="midnightblue" points="86.4438,-130.334 93.2144,-138.483 93.0035,-127.89 86.4438,-130.334"/>
</g>
<!-- Node3 -->
<g id="node4" class="node"><title>Node3</title>
<g id="a_node4"><a xlink:href="class_choice___simple.html" target="_top" xlink:title="{Choice_Simple\n||+ Choice_Simple()\l+ Choice_Simple()\l+ ~Choice_Simple()\l+ draw()\l+ setFont()\l}">
<polygon fill="none" stroke="black" points="140.5,-0.5 140.5,-101.5 243.5,-101.5 243.5,-0.5 140.5,-0.5"/>
<text text-anchor="middle" x="192" y="-89.5" font-family="Helvetica,sans-Serif" font-size="10.00">Choice_Simple</text>
<polyline fill="none" stroke="black" points="140.5,-82.5 243.5,-82.5 "/>
<text text-anchor="middle" x="192" y="-70.5" font-family="Helvetica,sans-Serif" font-size="10.00"> </text>
<polyline fill="none" stroke="black" points="140.5,-63.5 243.5,-63.5 "/>
<text text-anchor="start" x="148.5" y="-51.5" font-family="Helvetica,sans-Serif" font-size="10.00">+ Choice_Simple()</text>
<text text-anchor="start" x="148.5" y="-40.5" font-family="Helvetica,sans-Serif" font-size="10.00">+ Choice_Simple()</text>
<text text-anchor="start" x="148.5" y="-29.5" font-family="Helvetica,sans-Serif" font-size="10.00">+ ~Choice_Simple()</text>
<text text-anchor="start" x="148.5" y="-18.5" font-family="Helvetica,sans-Serif" font-size="10.00">+ draw()</text>
<text text-anchor="start" x="148.5" y="-7.5" font-family="Helvetica,sans-Serif" font-size="10.00">+ setFont()</text>
</a>
</g>
</g>
<!-- Node0&#45;&gt;Node3 -->
<g id="edge3" class="edge"><title>Node0&#45;&gt;Node3</title>
<path fill="none" stroke="midnightblue" d="M162.886,-128.975C166.468,-119.505 169.988,-110.198 173.274,-101.51"/>
<polygon fill="none" stroke="midnightblue" points="159.554,-127.892 159.29,-138.483 166.101,-130.368 159.554,-127.892"/>
</g>
<!-- Node1 -->
<g id="node2" class="node"><title>Node1</title>
<polygon fill="none" stroke="#bfbfbf" points="98,-353.5 98,-410.5 154,-410.5 154,-353.5 98,-353.5"/>
<text text-anchor="middle" x="126" y="-398.5" font-family="Helvetica,sans-Serif" font-size="10.00">Drawable</text>
<polyline fill="none" stroke="#bfbfbf" points="98,-391.5 154,-391.5 "/>
<text text-anchor="middle" x="126" y="-379.5" font-family="Helvetica,sans-Serif" font-size="10.00"> </text>
<polyline fill="none" stroke="#bfbfbf" points="98,-372.5 154,-372.5 "/>
<text text-anchor="middle" x="126" y="-360.5" font-family="Helvetica,sans-Serif" font-size="10.00"> </text>
</g>
<!-- Node1&#45;&gt;Node0 -->
<g id="edge1" class="edge"><title>Node1&#45;&gt;Node0</title>
<path fill="none" stroke="midnightblue" d="M126,-343.374C126,-335.089 126,-325.977 126,-316.62"/>
<polygon fill="none" stroke="midnightblue" points="122.5,-343.383 126,-353.383 129.5,-343.383 122.5,-343.383"/>
</g>
</g>
</svg>
