<?xml version="1.0" encoding="UTF-8" standalone="no"?>
<!DOCTYPE svg PUBLIC "-//W3C//DTD SVG 1.1//EN"
 "http://www.w3.org/Graphics/SVG/1.1/DTD/svg11.dtd">
<!-- Generated by graphviz version 2.38.0 (20140413.2041)
 -->
<!-- Title: Game_window::keyPressed Pages: 1 -->
<svg width="1181pt" height="512pt"
 viewBox="0.00 0.00 1181.00 512.00" xmlns="http://www.w3.org/2000/svg" xmlns:xlink="http://www.w3.org/1999/xlink">
<g id="graph0" class="graph" transform="scale(1 1) rotate(0) translate(4 508)">
<title>Game_window::keyPressed</title>
<!-- Node38 -->
<g id="node1" class="node"><title>Node38</title>
<polygon fill="#bfbfbf" stroke="black" points="0,-170.5 0,-189.5 137,-189.5 137,-170.5 0,-170.5"/>
<text text-anchor="middle" x="68.5" y="-177.5" font-family="Helvetica,sans-Serif" font-size="10.00">Game_window::keyPressed</text>
</g>
<!-- Node39 -->
<g id="node2" class="node"><title>Node39</title>
<g id="a_node2"><a xlink:href="class_board.html#ac7ec911a62371650afd340d1535a1742" target="_top" xlink:title="Board::cancel">
<polygon fill="none" stroke="black" points="477.5,-304.5 477.5,-323.5 554.5,-323.5 554.5,-304.5 477.5,-304.5"/>
<text text-anchor="middle" x="516" y="-311.5" font-family="Helvetica,sans-Serif" font-size="10.00">Board::cancel</text>
</a>
</g>
</g>
<!-- Node38&#45;&gt;Node39 -->
<g id="edge1" class="edge"><title>Node38&#45;&gt;Node39</title>
<path fill="none" stroke="midnightblue" d="M87.1617,-189.634C107.538,-200.57 142.197,-218.622 173,-232 241.23,-261.633 257.771,-272.214 330,-290 375.849,-301.29 429.477,-307.505 467.154,-310.763"/>
<polygon fill="midnightblue" stroke="midnightblue" points="467.084,-314.269 477.338,-311.605 467.661,-307.293 467.084,-314.269"/>
</g>
<!-- Node41 -->
<g id="node4" class="node"><title>Node41</title>
<g id="a_node4"><a xlink:href="class_goban.html#a29aaf8df380fe614845d48cba057747c" target="_top" xlink:title="Goban::coord">
<polygon fill="none" stroke="black" points="797.5,-190.5 797.5,-209.5 872.5,-209.5 872.5,-190.5 797.5,-190.5"/>
<text text-anchor="middle" x="835" y="-197.5" font-family="Helvetica,sans-Serif" font-size="10.00">Goban::coord</text>
</a>
</g>
</g>
<!-- Node38&#45;&gt;Node41 -->
<g id="edge42" class="edge"><title>Node38&#45;&gt;Node41</title>
<path fill="none" stroke="midnightblue" d="M111.812,-189.547C130.466,-193.294 152.715,-197.138 173,-199 402.482,-220.064 678.67,-208.697 787.083,-202.817"/>
<polygon fill="midnightblue" stroke="midnightblue" points="787.556,-206.297 797.348,-202.25 787.17,-199.307 787.556,-206.297"/>
</g>
<!-- Node49 -->
<g id="node12" class="node"><title>Node49</title>
<g id="a_node12"><a xlink:href="class_game__window.html#a8ad36b6ebe4760954dd01e94fc5762f1" target="_top" xlink:title="Game_window::territoire">
<polygon fill="none" stroke="black" points="173,-170.5 173,-189.5 294,-189.5 294,-170.5 173,-170.5"/>
<text text-anchor="middle" x="233.5" y="-177.5" font-family="Helvetica,sans-Serif" font-size="10.00">Game_window::territoire</text>
</a>
</g>
</g>
<!-- Node38&#45;&gt;Node49 -->
<g id="edge12" class="edge"><title>Node38&#45;&gt;Node49</title>
<path fill="none" stroke="midnightblue" d="M137.211,-180C145.606,-180 154.202,-180 162.628,-180"/>
<polygon fill="midnightblue" stroke="midnightblue" points="162.798,-183.5 172.798,-180 162.798,-176.5 162.798,-183.5"/>
</g>
<!-- Node50 -->
<g id="node13" class="node"><title>Node50</title>
<g id="a_node13"><a xlink:href="class_board.html#a19af96f42f5c38336010da2983abbf5c" target="_top" xlink:title="Board::getGoban">
<polygon fill="none" stroke="black" points="188.5,-132.5 188.5,-151.5 278.5,-151.5 278.5,-132.5 188.5,-132.5"/>
<text text-anchor="middle" x="233.5" y="-139.5" font-family="Helvetica,sans-Serif" font-size="10.00">Board::getGoban</text>
</a>
</g>
</g>
<!-- Node38&#45;&gt;Node50 -->
<g id="edge13" class="edge"><title>Node38&#45;&gt;Node50</title>
<path fill="none" stroke="midnightblue" d="M110.632,-170.411C132.238,-165.374 158.909,-159.156 181.786,-153.823"/>
<polygon fill="midnightblue" stroke="midnightblue" points="182.72,-157.199 191.664,-151.52 181.13,-150.382 182.72,-157.199"/>
</g>
<!-- Node51 -->
<g id="node14" class="node"><title>Node51</title>
<g id="a_node14"><a xlink:href="class_arbre.html#acd12cae4820bb7780a628716a0615d10" target="_top" xlink:title="Arbre::Tsumego">
<polygon fill="none" stroke="black" points="190.5,-76.5 190.5,-95.5 276.5,-95.5 276.5,-76.5 190.5,-76.5"/>
<text text-anchor="middle" x="233.5" y="-83.5" font-family="Helvetica,sans-Serif" font-size="10.00">Arbre::Tsumego</text>
</a>
</g>
</g>
<!-- Node38&#45;&gt;Node51 -->
<g id="edge14" class="edge"><title>Node38&#45;&gt;Node51</title>
<path fill="none" stroke="midnightblue" d="M86.0263,-170.469C114.583,-154.001 173.34,-120.117 207.113,-100.641"/>
<polygon fill="midnightblue" stroke="midnightblue" points="209.016,-103.583 215.93,-95.5557 205.519,-97.5195 209.016,-103.583"/>
</g>
<!-- Node40 -->
<g id="node3" class="node"><title>Node40</title>
<g id="a_node3"><a xlink:href="class_goban.html#ae7ee3b39f3c0d28c9bca286ca538f8ac" target="_top" xlink:title="Goban::cancel">
<polygon fill="none" stroke="black" points="643,-361.5 643,-380.5 723,-380.5 723,-361.5 643,-361.5"/>
<text text-anchor="middle" x="683" y="-368.5" font-family="Helvetica,sans-Serif" font-size="10.00">Goban::cancel</text>
</a>
</g>
</g>
<!-- Node39&#45;&gt;Node40 -->
<g id="edge2" class="edge"><title>Node39&#45;&gt;Node40</title>
<path fill="none" stroke="midnightblue" d="M544.617,-323.541C571.982,-332.994 614.09,-347.54 644.476,-358.037"/>
<polygon fill="midnightblue" stroke="midnightblue" points="643.698,-361.471 654.293,-361.428 645.984,-354.855 643.698,-361.471"/>
</g>
<!-- Node46 -->
<g id="node9" class="node"><title>Node46</title>
<g id="a_node9"><a xlink:href="class_board.html#a841a248dac4743611ba1825afd5d1297" target="_top" xlink:title="Board::load">
<polygon fill="none" stroke="black" points="650,-304.5 650,-323.5 716,-323.5 716,-304.5 650,-304.5"/>
<text text-anchor="middle" x="683" y="-311.5" font-family="Helvetica,sans-Serif" font-size="10.00">Board::load</text>
</a>
</g>
</g>
<!-- Node39&#45;&gt;Node46 -->
<g id="edge8" class="edge"><title>Node39&#45;&gt;Node46</title>
<path fill="none" stroke="midnightblue" d="M554.854,-314C580.221,-314 613.645,-314 639.857,-314"/>
<polygon fill="midnightblue" stroke="midnightblue" points="639.879,-317.5 649.879,-314 639.879,-310.5 639.879,-317.5"/>
</g>
<!-- Node40&#45;&gt;Node41 -->
<g id="edge3" class="edge"><title>Node40&#45;&gt;Node41</title>
<path fill="none" stroke="midnightblue" d="M705.003,-361.47C717.6,-354.912 733.216,-345.19 744,-333 768.766,-305.007 758.885,-287.84 780,-257 790.163,-242.157 804.198,-227.469 815.412,-216.722"/>
<polygon fill="midnightblue" stroke="midnightblue" points="818.067,-219.032 822.984,-209.647 813.288,-213.917 818.067,-219.032"/>
</g>
<!-- Node42 -->
<g id="node5" class="node"><title>Node42</title>
<g id="a_node5"><a xlink:href="class_history.html#a0ca66ba5a026689877e027754fc5bd52" target="_top" xlink:title="Access current position. ">
<polygon fill="none" stroke="black" points="793.5,-380.5 793.5,-399.5 876.5,-399.5 876.5,-380.5 793.5,-380.5"/>
<text text-anchor="middle" x="835" y="-387.5" font-family="Helvetica,sans-Serif" font-size="10.00">History::current</text>
</a>
</g>
</g>
<!-- Node40&#45;&gt;Node42 -->
<g id="edge4" class="edge"><title>Node40&#45;&gt;Node42</title>
<path fill="none" stroke="midnightblue" d="M723.019,-375.942C741.425,-378.274 763.62,-381.085 783.309,-383.579"/>
<polygon fill="midnightblue" stroke="midnightblue" points="782.983,-387.066 793.344,-384.85 783.863,-380.121 782.983,-387.066"/>
</g>
<!-- Node43 -->
<g id="node6" class="node"><title>Node43</title>
<g id="a_node6"><a xlink:href="class_etat.html#aa25e66b110bc835523819392435e78c6" target="_top" xlink:title="Etat::getX">
<polygon fill="none" stroke="black" points="968,-228.5 968,-247.5 1027,-247.5 1027,-228.5 968,-228.5"/>
<text text-anchor="middle" x="997.5" y="-235.5" font-family="Helvetica,sans-Serif" font-size="10.00">Etat::getX</text>
</a>
</g>
</g>
<!-- Node40&#45;&gt;Node43 -->
<g id="edge5" class="edge"><title>Node40&#45;&gt;Node43</title>
<path fill="none" stroke="midnightblue" d="M723.155,-370.013C766.111,-367.549 836.11,-359.392 890,-333 928.502,-314.144 963.611,-277.377 982.324,-255.526"/>
<polygon fill="midnightblue" stroke="midnightblue" points="985.148,-257.606 988.879,-247.69 979.778,-253.114 985.148,-257.606"/>
</g>
<!-- Node44 -->
<g id="node7" class="node"><title>Node44</title>
<g id="a_node7"><a xlink:href="class_etat.html#a3e3e915f2261c83989a983e84b1273c1" target="_top" xlink:title="Etat::getY">
<polygon fill="none" stroke="black" points="967,-456.5 967,-475.5 1028,-475.5 1028,-456.5 967,-456.5"/>
<text text-anchor="middle" x="997.5" y="-463.5" font-family="Helvetica,sans-Serif" font-size="10.00">Etat::getY</text>
</a>
</g>
</g>
<!-- Node40&#45;&gt;Node44 -->
<g id="edge6" class="edge"><title>Node40&#45;&gt;Node44</title>
<path fill="none" stroke="midnightblue" d="M692.369,-380.573C707.768,-397.439 742.471,-432.072 780,-447 838.261,-470.175 912.111,-471.269 956.762,-469.183"/>
<polygon fill="midnightblue" stroke="midnightblue" points="957.12,-472.669 966.914,-468.63 956.739,-465.679 957.12,-472.669"/>
</g>
<!-- Node45 -->
<g id="node8" class="node"><title>Node45</title>
<g id="a_node8"><a xlink:href="class_history.html#a6e1bcaa1d3ecc646131e6f73a2544f35" target="_top" xlink:title="History::cancel">
<polygon fill="none" stroke="black" points="794,-418.5 794,-437.5 876,-437.5 876,-418.5 794,-418.5"/>
<text text-anchor="middle" x="835" y="-425.5" font-family="Helvetica,sans-Serif" font-size="10.00">History::cancel</text>
</a>
</g>
</g>
<!-- Node40&#45;&gt;Node45 -->
<g id="edge7" class="edge"><title>Node40&#45;&gt;Node45</title>
<path fill="none" stroke="midnightblue" d="M707.573,-380.625C726.947,-388.464 755.15,-399.714 780,-409 785.295,-410.979 790.902,-413.016 796.422,-414.988"/>
<polygon fill="midnightblue" stroke="midnightblue" points="795.582,-418.403 806.177,-418.441 797.918,-411.805 795.582,-418.403"/>
</g>
<!-- Node46&#45;&gt;Node41 -->
<g id="edge10" class="edge"><title>Node46&#45;&gt;Node41</title>
<path fill="none" stroke="midnightblue" d="M696.531,-304.477C722.275,-284.911 781.354,-240.011 813.03,-215.937"/>
<polygon fill="midnightblue" stroke="midnightblue" points="815.343,-218.575 821.187,-209.738 811.107,-213.002 815.343,-218.575"/>
</g>
<!-- Node47 -->
<g id="node10" class="node"><title>Node47</title>
<g id="a_node10"><a xlink:href="class_square.html#a5fa0cbfce721c687308eec8e1a029d25" target="_top" xlink:title="Square::setValue">
<polygon fill="none" stroke="black" points="789,-304.5 789,-323.5 881,-323.5 881,-304.5 789,-304.5"/>
<text text-anchor="middle" x="835" y="-311.5" font-family="Helvetica,sans-Serif" font-size="10.00">Square::setValue</text>
</a>
</g>
</g>
<!-- Node46&#45;&gt;Node47 -->
<g id="edge9" class="edge"><title>Node46&#45;&gt;Node47</title>
<path fill="none" stroke="midnightblue" d="M716.179,-314C734.377,-314 757.635,-314 778.671,-314"/>
<polygon fill="midnightblue" stroke="midnightblue" points="778.787,-317.5 788.787,-314 778.787,-310.5 778.787,-317.5"/>
</g>
<!-- Node48 -->
<g id="node11" class="node"><title>Node48</title>
<g id="a_node11"><a xlink:href="class_etat.html#ac0b81bbcf64cb3cc574e5a9dcdf94382" target="_top" xlink:title="Etat::getVal">
<polygon fill="none" stroke="black" points="801,-266.5 801,-285.5 869,-285.5 869,-266.5 801,-266.5"/>
<text text-anchor="middle" x="835" y="-273.5" font-family="Helvetica,sans-Serif" font-size="10.00">Etat::getVal</text>
</a>
</g>
</g>
<!-- Node46&#45;&gt;Node48 -->
<g id="edge11" class="edge"><title>Node46&#45;&gt;Node48</title>
<path fill="none" stroke="midnightblue" d="M716.179,-305.848C738.023,-300.314 767.154,-292.934 790.985,-286.897"/>
<polygon fill="midnightblue" stroke="midnightblue" points="792.002,-290.25 800.837,-284.401 790.283,-283.464 792.002,-290.25"/>
</g>
<!-- Node51&#45;&gt;Node41 -->
<g id="edge36" class="edge"><title>Node51&#45;&gt;Node41</title>
<path fill="none" stroke="midnightblue" d="M265.398,-95.5795C306.347,-107.986 381.006,-129.603 446,-143 577.061,-170.015 611.663,-166.16 744,-186 757.957,-188.092 773.121,-190.428 786.955,-192.582"/>
<polygon fill="midnightblue" stroke="midnightblue" points="786.811,-196.102 797.232,-194.187 787.892,-189.186 786.811,-196.102"/>
</g>
<!-- Node51&#45;&gt;Node43 -->
<g id="edge37" class="edge"><title>Node51&#45;&gt;Node43</title>
<path fill="none" stroke="midnightblue" d="M249.954,-95.5083C304.3,-128.785 484.952,-238 515,-238 515,-238 515,-238 684,-238 782.523,-238 898.517,-238 957.62,-238"/>
<polygon fill="midnightblue" stroke="midnightblue" points="957.634,-241.5 967.634,-238 957.634,-234.5 957.634,-241.5"/>
</g>
<!-- Node51&#45;&gt;Node44 -->
<g id="edge38" class="edge"><title>Node51&#45;&gt;Node44</title>
<path fill="none" stroke="midnightblue" d="M258.654,-95.5748C271.003,-101.659 285.237,-110.723 294,-123 335.592,-181.267 298.355,-215.785 330,-280 387.075,-395.82 385.881,-504 515,-504 515,-504 515,-504 684,-504 782.733,-504 897.737,-485.077 956.882,-473.938"/>
<polygon fill="midnightblue" stroke="midnightblue" points="957.749,-477.335 966.915,-472.021 956.436,-470.46 957.749,-477.335"/>
</g>
<!-- Node51&#45;&gt;Node48 -->
<g id="edge39" class="edge"><title>Node51&#45;&gt;Node48</title>
<path fill="none" stroke="midnightblue" d="M258.131,-95.593C270.48,-101.727 284.879,-110.834 294,-123 329.705,-170.626 283.459,-214.891 330,-252 400.333,-308.079 682.191,-289.626 790.918,-280.135"/>
<polygon fill="midnightblue" stroke="midnightblue" points="791.236,-283.62 800.886,-279.247 790.615,-276.648 791.236,-283.62"/>
</g>
<!-- Node51&#45;&gt;Node51 -->
<g id="edge41" class="edge"><title>Node51&#45;&gt;Node51</title>
<path fill="none" stroke="midnightblue" d="M212.538,-95.7571C202.341,-104.565 209.328,-114 233.5,-114 248.985,-114 257.418,-110.128 258.798,-105.029"/>
<polygon fill="midnightblue" stroke="midnightblue" points="261.868,-103.333 254.462,-95.7571 255.527,-106.298 261.868,-103.333"/>
</g>
<!-- Node52 -->
<g id="node15" class="node"><title>Node52</title>
<g id="a_node15"><a xlink:href="class_goban.html#a36ab256c9430e070b620052a0f13f051" target="_top" xlink:title="Goban::listFils">
<polygon fill="none" stroke="black" points="330,-76.5 330,-95.5 410,-95.5 410,-76.5 330,-76.5"/>
<text text-anchor="middle" x="370" y="-83.5" font-family="Helvetica,sans-Serif" font-size="10.00">Goban::listFils</text>
</a>
</g>
</g>
<!-- Node51&#45;&gt;Node52 -->
<g id="edge15" class="edge"><title>Node51&#45;&gt;Node52</title>
<path fill="none" stroke="midnightblue" d="M276.688,-86C290.326,-86 305.569,-86 319.677,-86"/>
<polygon fill="midnightblue" stroke="midnightblue" points="319.71,-89.5001 329.71,-86 319.71,-82.5001 319.71,-89.5001"/>
</g>
<!-- Node66 -->
<g id="node29" class="node"><title>Node66</title>
<g id="a_node29"><a xlink:href="class_arbre.html#a761f4a2c6a43f44b38d4ac6fc1cf5cae" target="_top" xlink:title="Arbre::Arbre">
<polygon fill="none" stroke="black" points="335.5,-38.5 335.5,-57.5 404.5,-57.5 404.5,-38.5 335.5,-38.5"/>
<text text-anchor="middle" x="370" y="-45.5" font-family="Helvetica,sans-Serif" font-size="10.00">Arbre::Arbre</text>
</a>
</g>
</g>
<!-- Node51&#45;&gt;Node66 -->
<g id="edge40" class="edge"><title>Node51&#45;&gt;Node66</title>
<path fill="none" stroke="midnightblue" d="M268.44,-76.411C285.723,-71.5281 306.933,-65.5357 325.411,-60.315"/>
<polygon fill="midnightblue" stroke="midnightblue" points="326.399,-63.673 335.071,-57.5859 324.496,-56.9367 326.399,-63.673"/>
</g>
<!-- Node53 -->
<g id="node16" class="node"><title>Node53</title>
<g id="a_node16"><a xlink:href="class_goban.html#aa2aaa3b4db4549d169bd0ff234d601cb" target="_top" xlink:title="Goban::itoc">
<polygon fill="none" stroke="black" points="482.5,-76.5 482.5,-95.5 549.5,-95.5 549.5,-76.5 482.5,-76.5"/>
<text text-anchor="middle" x="516" y="-83.5" font-family="Helvetica,sans-Serif" font-size="10.00">Goban::itoc</text>
</a>
</g>
</g>
<!-- Node52&#45;&gt;Node53 -->
<g id="edge16" class="edge"><title>Node52&#45;&gt;Node53</title>
<path fill="none" stroke="midnightblue" d="M410.349,-86C429.407,-86 452.338,-86 471.871,-86"/>
<polygon fill="midnightblue" stroke="midnightblue" points="472.031,-89.5001 482.031,-86 472.031,-82.5001 472.031,-89.5001"/>
</g>
<!-- Node54 -->
<g id="node17" class="node"><title>Node54</title>
<g id="a_node17"><a xlink:href="class_goban.html#a7dd1a7b53322bde2a831a923059e43a3" target="_top" xlink:title="Goban::move">
<polygon fill="none" stroke="black" points="646,-38.5 646,-57.5 720,-57.5 720,-38.5 646,-38.5"/>
<text text-anchor="middle" x="683" y="-45.5" font-family="Helvetica,sans-Serif" font-size="10.00">Goban::move</text>
</a>
</g>
</g>
<!-- Node52&#45;&gt;Node54 -->
<g id="edge17" class="edge"><title>Node52&#45;&gt;Node54</title>
<path fill="none" stroke="midnightblue" d="M394.066,-76.46C399.511,-73.7556 405.142,-70.5638 410,-67 428.759,-53.2398 424.629,-38.1925 446,-29 512.627,-0.341587 599.525,-20.2154 647.098,-35.3342"/>
<polygon fill="midnightblue" stroke="midnightblue" points="646.038,-38.67 656.631,-38.469 648.225,-32.0203 646.038,-38.67"/>
</g>
<!-- Node58 -->
<g id="node21" class="node"><title>Node58</title>
<g id="a_node21"><a xlink:href="class_goban.html#a8584a53688e7bcf9de7c4cf48454acdc" target="_top" xlink:title="Goban::rechercheGroupes">
<polygon fill="none" stroke="black" points="450.5,-114.5 450.5,-133.5 581.5,-133.5 581.5,-114.5 450.5,-114.5"/>
<text text-anchor="middle" x="516" y="-121.5" font-family="Helvetica,sans-Serif" font-size="10.00">Goban::rechercheGroupes</text>
</a>
</g>
</g>
<!-- Node52&#45;&gt;Node58 -->
<g id="edge23" class="edge"><title>Node52&#45;&gt;Node58</title>
<path fill="none" stroke="midnightblue" d="M407.337,-95.589C426.083,-100.536 449.143,-106.621 469.107,-111.889"/>
<polygon fill="midnightblue" stroke="midnightblue" points="468.362,-115.312 478.924,-114.48 470.148,-108.544 468.362,-115.312"/>
</g>
<!-- Node59 -->
<g id="node22" class="node"><title>Node59</title>
<g id="a_node22"><a xlink:href="class_goban.html#a7858b815885e4af36f05f9d26182cb07" target="_top" xlink:title="Goban::eliminateOppGroups">
<polygon fill="none" stroke="black" points="446,-38.5 446,-57.5 586,-57.5 586,-38.5 446,-38.5"/>
<text text-anchor="middle" x="516" y="-45.5" font-family="Helvetica,sans-Serif" font-size="10.00">Goban::eliminateOppGroups</text>
</a>
</g>
</g>
<!-- Node52&#45;&gt;Node59 -->
<g id="edge24" class="edge"><title>Node52&#45;&gt;Node59</title>
<path fill="none" stroke="midnightblue" d="M407.337,-76.411C426.083,-71.4642 449.143,-65.3789 469.107,-60.1108"/>
<polygon fill="midnightblue" stroke="midnightblue" points="470.148,-63.4558 478.924,-57.5201 468.362,-56.6875 470.148,-63.4558"/>
</g>
<!-- Node54&#45;&gt;Node41 -->
<g id="edge20" class="edge"><title>Node54&#45;&gt;Node41</title>
<path fill="none" stroke="midnightblue" d="M696.807,-57.7861C709.948,-68.3293 730.349,-86.1474 744,-105 765.92,-135.273 752.233,-155.982 780,-181 782.473,-183.229 785.224,-185.199 788.137,-186.941"/>
<polygon fill="midnightblue" stroke="midnightblue" points="786.742,-190.157 797.249,-191.511 789.88,-183.9 786.742,-190.157"/>
</g>
<!-- Node55 -->
<g id="node18" class="node"><title>Node55</title>
<g id="a_node18"><a xlink:href="class_goban.html#a6c4b62a9469b3876d250ab94bcd562e5" target="_top" xlink:title="Goban::eliminateOppositeKO">
<polygon fill="none" stroke="black" points="926,-76.5 926,-95.5 1069,-95.5 1069,-76.5 926,-76.5"/>
<text text-anchor="middle" x="997.5" y="-83.5" font-family="Helvetica,sans-Serif" font-size="10.00">Goban::eliminateOppositeKO</text>
</a>
</g>
</g>
<!-- Node54&#45;&gt;Node55 -->
<g id="edge18" class="edge"><title>Node54&#45;&gt;Node55</title>
<path fill="none" stroke="midnightblue" d="M720.428,-53.6137C738.35,-56.2986 760.287,-59.4707 780,-62 824.78,-67.7455 874.877,-73.3516 915.594,-77.6989"/>
<polygon fill="midnightblue" stroke="midnightblue" points="915.421,-81.2001 925.735,-78.7763 916.161,-74.2393 915.421,-81.2001"/>
</g>
<!-- Node56 -->
<g id="node19" class="node"><title>Node56</title>
<g id="a_node19"><a xlink:href="class_etat.html#aa88987ca54aee676717f05e4570c0aec" target="_top" xlink:title="Etat::setVal">
<polygon fill="none" stroke="black" points="1105,-76.5 1105,-95.5 1173,-95.5 1173,-76.5 1105,-76.5"/>
<text text-anchor="middle" x="1139" y="-83.5" font-family="Helvetica,sans-Serif" font-size="10.00">Etat::setVal</text>
</a>
</g>
</g>
<!-- Node54&#45;&gt;Node56 -->
<g id="edge21" class="edge"><title>Node54&#45;&gt;Node56</title>
<path fill="none" stroke="midnightblue" d="M720.101,-47.1581C788.604,-46.1388 941.966,-46.6288 1069,-67 1078.83,-68.577 1089.27,-71.0291 1098.98,-73.6538"/>
<polygon fill="midnightblue" stroke="midnightblue" points="1098.19,-77.0685 1108.77,-76.422 1100.1,-70.3327 1098.19,-77.0685"/>
</g>
<!-- Node57 -->
<g id="node20" class="node"><title>Node57</title>
<g id="a_node20"><a xlink:href="class_history.html#a90222df7f73ae9cfda56bdb66cb1985e" target="_top" xlink:title="Add new state in history. ">
<polygon fill="none" stroke="black" points="800.5,-0.5 800.5,-19.5 869.5,-19.5 869.5,-0.5 800.5,-0.5"/>
<text text-anchor="middle" x="835" y="-7.5" font-family="Helvetica,sans-Serif" font-size="10.00">History::add</text>
</a>
</g>
</g>
<!-- Node54&#45;&gt;Node57 -->
<g id="edge22" class="edge"><title>Node54&#45;&gt;Node57</title>
<path fill="none" stroke="midnightblue" d="M720.311,-38.8013C741.439,-33.4488 768.208,-26.6672 790.463,-21.0293"/>
<polygon fill="midnightblue" stroke="midnightblue" points="791.5,-24.3773 800.334,-18.5287 789.781,-17.5917 791.5,-24.3773"/>
</g>
<!-- Node55&#45;&gt;Node56 -->
<g id="edge19" class="edge"><title>Node55&#45;&gt;Node56</title>
<path fill="none" stroke="midnightblue" d="M1069.07,-86C1077.71,-86 1086.34,-86 1094.42,-86"/>
<polygon fill="midnightblue" stroke="midnightblue" points="1094.69,-89.5001 1104.69,-86 1094.69,-82.5001 1094.69,-89.5001"/>
</g>
<!-- Node60 -->
<g id="node23" class="node"><title>Node60</title>
<g id="a_node23"><a xlink:href="class_goban.html#a1ec70508987f66afff5f8df381731fac" target="_top" xlink:title="Goban::eliminateGroups">
<polygon fill="none" stroke="black" points="622,-114.5 622,-133.5 744,-133.5 744,-114.5 622,-114.5"/>
<text text-anchor="middle" x="683" y="-121.5" font-family="Helvetica,sans-Serif" font-size="10.00">Goban::eliminateGroups</text>
</a>
</g>
</g>
<!-- Node59&#45;&gt;Node60 -->
<g id="edge25" class="edge"><title>Node59&#45;&gt;Node60</title>
<path fill="none" stroke="midnightblue" d="M558.843,-57.592C567.952,-60.2103 577.425,-63.3517 586,-67 612.824,-78.4123 641.262,-96.0874 660.161,-108.728"/>
<polygon fill="midnightblue" stroke="midnightblue" points="658.386,-111.754 668.624,-114.48 662.321,-105.964 658.386,-111.754"/>
</g>
<!-- Node60&#45;&gt;Node41 -->
<g id="edge34" class="edge"><title>Node60&#45;&gt;Node41</title>
<path fill="none" stroke="midnightblue" d="M714.023,-133.571C723.941,-137.36 734.787,-142.208 744,-148 762.376,-159.552 761.385,-169.838 780,-181 783.403,-183.04 787.057,-184.906 790.803,-186.603"/>
<polygon fill="midnightblue" stroke="midnightblue" points="789.628,-189.904 800.207,-190.473 792.292,-183.431 789.628,-189.904"/>
</g>
<!-- Node60&#45;&gt;Node56 -->
<g id="edge35" class="edge"><title>Node60&#45;&gt;Node56</title>
<path fill="none" stroke="midnightblue" d="M744.11,-125.09C820.228,-125.544 955.182,-123.252 1069,-105 1078.83,-103.423 1089.27,-100.971 1098.98,-98.3462"/>
<polygon fill="midnightblue" stroke="midnightblue" points="1100.1,-101.667 1108.77,-95.578 1098.19,-94.9315 1100.1,-101.667"/>
</g>
<!-- Node61 -->
<g id="node24" class="node"><title>Node61</title>
<g id="a_node24"><a xlink:href="class_goban.html#a84f36324eb9ddc29f522d481f04c13e7" target="_top" xlink:title="Goban::listOfLiberties">
<polygon fill="none" stroke="black" points="780,-152.5 780,-171.5 890,-171.5 890,-152.5 780,-152.5"/>
<text text-anchor="middle" x="835" y="-159.5" font-family="Helvetica,sans-Serif" font-size="10.00">Goban::listOfLiberties</text>
</a>
</g>
</g>
<!-- Node60&#45;&gt;Node61 -->
<g id="edge26" class="edge"><title>Node60&#45;&gt;Node61</title>
<path fill="none" stroke="midnightblue" d="M721.851,-133.589C741.467,-138.558 765.619,-144.677 786.479,-149.961"/>
<polygon fill="midnightblue" stroke="midnightblue" points="785.868,-153.417 796.421,-152.48 787.587,-146.631 785.868,-153.417"/>
</g>
<!-- Node61&#45;&gt;Node43 -->
<g id="edge27" class="edge"><title>Node61&#45;&gt;Node43</title>
<path fill="none" stroke="midnightblue" d="M865.745,-171.549C873.719,-174.356 882.269,-177.595 890,-181 918.755,-193.665 950.332,-211.03 971.577,-223.255"/>
<polygon fill="midnightblue" stroke="midnightblue" points="969.883,-226.318 980.288,-228.313 973.398,-220.264 969.883,-226.318"/>
</g>
<!-- Node61&#45;&gt;Node44 -->
<g id="edge28" class="edge"><title>Node61&#45;&gt;Node44</title>
<path fill="none" stroke="midnightblue" d="M876.103,-171.534C881.208,-174.001 886.027,-177.103 890,-181 910.143,-200.758 970.854,-386.077 990.38,-446.822"/>
<polygon fill="midnightblue" stroke="midnightblue" points="987.049,-447.898 993.434,-456.353 993.716,-445.762 987.049,-447.898"/>
</g>
<!-- Node62 -->
<g id="node25" class="node"><title>Node62</title>
<g id="a_node25"><a xlink:href="class_goban.html#a0e2596110cdbb9b007b2b2fd8d5a9973" target="_top" xlink:title="Goban::DefineStone">
<polygon fill="none" stroke="black" points="945.5,-152.5 945.5,-171.5 1049.5,-171.5 1049.5,-152.5 945.5,-152.5"/>
<text text-anchor="middle" x="997.5" y="-159.5" font-family="Helvetica,sans-Serif" font-size="10.00">Goban::DefineStone</text>
</a>
</g>
</g>
<!-- Node61&#45;&gt;Node62 -->
<g id="edge29" class="edge"><title>Node61&#45;&gt;Node62</title>
<path fill="none" stroke="midnightblue" d="M890.338,-162C904.82,-162 920.564,-162 935.384,-162"/>
<polygon fill="midnightblue" stroke="midnightblue" points="935.469,-165.5 945.469,-162 935.469,-158.5 935.469,-165.5"/>
</g>
<!-- Node62&#45;&gt;Node56 -->
<g id="edge32" class="edge"><title>Node62&#45;&gt;Node56</title>
<path fill="none" stroke="midnightblue" d="M1035.99,-152.418C1047.04,-148.766 1058.88,-143.999 1069,-138 1087.67,-126.933 1087.49,-117.826 1105,-105 1106.86,-103.635 1108.83,-102.289 1110.84,-100.982"/>
<polygon fill="midnightblue" stroke="midnightblue" points="1113.02,-103.755 1119.74,-95.5636 1109.38,-97.7774 1113.02,-103.755"/>
</g>
<!-- Node63 -->
<g id="node26" class="node"><title>Node63</title>
<g id="a_node26"><a xlink:href="class_etat.html#ac020c4fe222274ac849a03fc8f19a99a" target="_top" xlink:title="Etat::setX">
<polygon fill="none" stroke="black" points="1109.5,-190.5 1109.5,-209.5 1168.5,-209.5 1168.5,-190.5 1109.5,-190.5"/>
<text text-anchor="middle" x="1139" y="-197.5" font-family="Helvetica,sans-Serif" font-size="10.00">Etat::setX</text>
</a>
</g>
</g>
<!-- Node62&#45;&gt;Node63 -->
<g id="edge30" class="edge"><title>Node62&#45;&gt;Node63</title>
<path fill="none" stroke="midnightblue" d="M1033.7,-171.589C1053.82,-177.069 1079.06,-183.945 1099.68,-189.56"/>
<polygon fill="midnightblue" stroke="midnightblue" points="1098.81,-192.953 1109.38,-192.204 1100.65,-186.199 1098.81,-192.953"/>
</g>
<!-- Node64 -->
<g id="node27" class="node"><title>Node64</title>
<g id="a_node27"><a xlink:href="class_etat.html#a8a54fc9ecb1b97d84d2f1f259e3bf70e" target="_top" xlink:title="Etat::setY">
<polygon fill="none" stroke="black" points="1108.5,-152.5 1108.5,-171.5 1169.5,-171.5 1169.5,-152.5 1108.5,-152.5"/>
<text text-anchor="middle" x="1139" y="-159.5" font-family="Helvetica,sans-Serif" font-size="10.00">Etat::setY</text>
</a>
</g>
</g>
<!-- Node62&#45;&gt;Node64 -->
<g id="edge31" class="edge"><title>Node62&#45;&gt;Node64</title>
<path fill="none" stroke="midnightblue" d="M1049.65,-162C1065.7,-162 1083.16,-162 1098.3,-162"/>
<polygon fill="midnightblue" stroke="midnightblue" points="1098.35,-165.5 1108.35,-162 1098.35,-158.5 1098.35,-165.5"/>
</g>
<!-- Node65 -->
<g id="node28" class="node"><title>Node65</title>
<g id="a_node28"><a xlink:href="class_goban.html#a579840586df08a58983f6b497979344b" target="_top" xlink:title="Goban::ctoi">
<polygon fill="none" stroke="black" points="1105.5,-114.5 1105.5,-133.5 1172.5,-133.5 1172.5,-114.5 1105.5,-114.5"/>
<text text-anchor="middle" x="1139" y="-121.5" font-family="Helvetica,sans-Serif" font-size="10.00">Goban::ctoi</text>
</a>
</g>
</g>
<!-- Node62&#45;&gt;Node65 -->
<g id="edge33" class="edge"><title>Node62&#45;&gt;Node65</title>
<path fill="none" stroke="midnightblue" d="M1033.7,-152.411C1052.48,-147.295 1075.74,-140.961 1095.52,-135.573"/>
<polygon fill="midnightblue" stroke="midnightblue" points="1096.48,-138.939 1105.21,-132.933 1094.64,-132.185 1096.48,-138.939"/>
</g>
</g>
</svg>
