<?xml version="1.0" encoding="UTF-8" standalone="no"?>
<!DOCTYPE svg PUBLIC "-//W3C//DTD SVG 1.1//EN"
 "http://www.w3.org/Graphics/SVG/1.1/DTD/svg11.dtd">
<!-- Generated by graphviz version 2.38.0 (20140413.2041)
 -->
<!-- Title: Goban::DefineStone Pages: 1 -->
<svg width="216pt" height="142pt"
 viewBox="0.00 0.00 216.00 142.00" xmlns="http://www.w3.org/2000/svg" xmlns:xlink="http://www.w3.org/1999/xlink">
<g id="graph0" class="graph" transform="scale(1 1) rotate(0) translate(4 138)">
<title>Goban::DefineStone</title>
<!-- Node70 -->
<g id="node1" class="node"><title>Node70</title>
<polygon fill="#bfbfbf" stroke="black" points="0,-57.5 0,-76.5 104,-76.5 104,-57.5 0,-57.5"/>
<text text-anchor="middle" x="52" y="-64.5" font-family="Helvetica,sans-Serif" font-size="10.00">Goban::DefineStone</text>
</g>
<!-- Node71 -->
<g id="node2" class="node"><title>Node71</title>
<g id="a_node2"><a xlink:href="class_etat.html#ac020c4fe222274ac849a03fc8f19a99a" target="_top" xlink:title="Etat::setX">
<polygon fill="none" stroke="black" points="144.5,-114.5 144.5,-133.5 203.5,-133.5 203.5,-114.5 144.5,-114.5"/>
<text text-anchor="middle" x="174" y="-121.5" font-family="Helvetica,sans-Serif" font-size="10.00">Etat::setX</text>
</a>
</g>
</g>
<!-- Node70&#45;&gt;Node71 -->
<g id="edge1" class="edge"><title>Node70&#45;&gt;Node71</title>
<path fill="none" stroke="midnightblue" d="M73.0853,-76.5405C92.3812,-85.7061 121.757,-99.6595 143.669,-110.068"/>
<polygon fill="midnightblue" stroke="midnightblue" points="142.315,-113.299 152.849,-114.428 145.318,-106.976 142.315,-113.299"/>
</g>
<!-- Node72 -->
<g id="node3" class="node"><title>Node72</title>
<g id="a_node3"><a xlink:href="class_etat.html#a8a54fc9ecb1b97d84d2f1f259e3bf70e" target="_top" xlink:title="Etat::setY">
<polygon fill="none" stroke="black" points="143.5,-76.5 143.5,-95.5 204.5,-95.5 204.5,-76.5 143.5,-76.5"/>
<text text-anchor="middle" x="174" y="-83.5" font-family="Helvetica,sans-Serif" font-size="10.00">Etat::setY</text>
</a>
</g>
</g>
<!-- Node70&#45;&gt;Node72 -->
<g id="edge2" class="edge"><title>Node70&#45;&gt;Node72</title>
<path fill="none" stroke="midnightblue" d="M104.239,-75.1128C113.958,-76.6518 123.992,-78.2403 133.288,-79.7123"/>
<polygon fill="midnightblue" stroke="midnightblue" points="132.991,-83.2088 143.415,-81.3158 134.086,-76.2949 132.991,-83.2088"/>
</g>
<!-- Node73 -->
<g id="node4" class="node"><title>Node73</title>
<g id="a_node4"><a xlink:href="class_etat.html#aa88987ca54aee676717f05e4570c0aec" target="_top" xlink:title="Etat::setVal">
<polygon fill="none" stroke="black" points="140,-38.5 140,-57.5 208,-57.5 208,-38.5 140,-38.5"/>
<text text-anchor="middle" x="174" y="-45.5" font-family="Helvetica,sans-Serif" font-size="10.00">Etat::setVal</text>
</a>
</g>
</g>
<!-- Node70&#45;&gt;Node73 -->
<g id="edge3" class="edge"><title>Node70&#45;&gt;Node73</title>
<path fill="none" stroke="midnightblue" d="M104.239,-58.8872C112.844,-57.5248 121.694,-56.1234 130.062,-54.7985"/>
<polygon fill="midnightblue" stroke="midnightblue" points="130.65,-58.249 139.98,-53.2282 129.556,-51.3352 130.65,-58.249"/>
</g>
<!-- Node74 -->
<g id="node5" class="node"><title>Node74</title>
<g id="a_node5"><a xlink:href="class_goban.html#a579840586df08a58983f6b497979344b" target="_top" xlink:title="Goban::ctoi">
<polygon fill="none" stroke="black" points="140.5,-0.5 140.5,-19.5 207.5,-19.5 207.5,-0.5 140.5,-0.5"/>
<text text-anchor="middle" x="174" y="-7.5" font-family="Helvetica,sans-Serif" font-size="10.00">Goban::ctoi</text>
</a>
</g>
</g>
<!-- Node70&#45;&gt;Node74 -->
<g id="edge4" class="edge"><title>Node70&#45;&gt;Node74</title>
<path fill="none" stroke="midnightblue" d="M73.0853,-57.4595C92.3812,-48.2939 121.757,-34.3405 143.669,-23.9324"/>
<polygon fill="midnightblue" stroke="midnightblue" points="145.318,-27.0237 152.849,-19.5716 142.315,-20.7008 145.318,-27.0237"/>
</g>
</g>
</svg>
