<?xml version="1.0" encoding="UTF-8" standalone="no"?>
<!DOCTYPE svg PUBLIC "-//W3C//DTD SVG 1.1//EN"
 "http://www.w3.org/Graphics/SVG/1.1/DTD/svg11.dtd">
<!-- Generated by graphviz version 2.38.0 (20140413.2041)
 -->
<!-- Title: Etat::setVal Pages: 1 -->
<svg width="1306pt" height="256pt"
 viewBox="0.00 0.00 1306.00 256.00" xmlns="http://www.w3.org/2000/svg" xmlns:xlink="http://www.w3.org/1999/xlink">
<g id="graph0" class="graph" transform="scale(1 1) rotate(0) translate(4 252)">
<title>Etat::setVal</title>
<!-- Node74 -->
<g id="node1" class="node"><title>Node74</title>
<polygon fill="#bfbfbf" stroke="black" points="0,-114.5 0,-133.5 68,-133.5 68,-114.5 0,-114.5"/>
<text text-anchor="middle" x="34" y="-121.5" font-family="Helvetica,sans-Serif" font-size="10.00">Etat::setVal</text>
</g>
<!-- Node75 -->
<g id="node2" class="node"><title>Node75</title>
<g id="a_node2"><a xlink:href="class_goban.html#a3544d30f54fbb54bd9e4fed08aa4bce6" target="_top" xlink:title="Goban::Goban">
<polygon fill="none" stroke="black" points="116,-228.5 116,-247.5 196,-247.5 196,-228.5 116,-228.5"/>
<text text-anchor="middle" x="156" y="-235.5" font-family="Helvetica,sans-Serif" font-size="10.00">Goban::Goban</text>
</a>
</g>
</g>
<!-- Node74&#45;&gt;Node75 -->
<g id="edge1" class="edge"><title>Node74&#45;&gt;Node75</title>
<path fill="none" stroke="midnightblue" d="M44.1187,-142.487C55.4502,-163.706 76.6746,-198.243 104,-219 109.041,-222.829 114.937,-225.956 120.895,-228.485"/>
<polygon fill="midnightblue" stroke="midnightblue" points="47.1871,-140.801 39.4944,-133.516 40.965,-144.008 47.1871,-140.801"/>
</g>
<!-- Node76 -->
<g id="node3" class="node"><title>Node76</title>
<g id="a_node3"><a xlink:href="class_goban.html#a0e2596110cdbb9b007b2b2fd8d5a9973" target="_top" xlink:title="Goban::DefineStone">
<polygon fill="none" stroke="black" points="104,-190.5 104,-209.5 208,-209.5 208,-190.5 104,-190.5"/>
<text text-anchor="middle" x="156" y="-197.5" font-family="Helvetica,sans-Serif" font-size="10.00">Goban::DefineStone</text>
</a>
</g>
</g>
<!-- Node74&#45;&gt;Node76 -->
<g id="edge2" class="edge"><title>Node74&#45;&gt;Node76</title>
<path fill="none" stroke="midnightblue" d="M54.2227,-140.188C67.6604,-151.071 86.2996,-165.322 104,-176 112.882,-181.358 123.152,-186.394 132.138,-190.455"/>
<polygon fill="midnightblue" stroke="midnightblue" points="56.1522,-137.243 46.2055,-133.595 51.7058,-142.65 56.1522,-137.243"/>
</g>
<!-- Node78 -->
<g id="node5" class="node"><title>Node78</title>
<g id="a_node5"><a xlink:href="class_goban.html#a1ec70508987f66afff5f8df381731fac" target="_top" xlink:title="Goban::eliminateGroups">
<polygon fill="none" stroke="black" points="423,-152.5 423,-171.5 545,-171.5 545,-152.5 423,-152.5"/>
<text text-anchor="middle" x="484" y="-159.5" font-family="Helvetica,sans-Serif" font-size="10.00">Goban::eliminateGroups</text>
</a>
</g>
</g>
<!-- Node74&#45;&gt;Node78 -->
<g id="edge17" class="edge"><title>Node74&#45;&gt;Node78</title>
<path fill="none" stroke="midnightblue" d="M78.4216,-129.279C86.8983,-130.24 95.723,-131.193 104,-132 216.499,-142.97 348.084,-152.688 422.879,-157.92"/>
<polygon fill="midnightblue" stroke="midnightblue" points="78.6504,-125.782 68.3147,-128.111 77.8469,-132.736 78.6504,-125.782"/>
</g>
<!-- Node88 -->
<g id="node15" class="node"><title>Node88</title>
<g id="a_node15"><a xlink:href="class_goban.html#a7dd1a7b53322bde2a831a923059e43a3" target="_top" xlink:title="Goban::move">
<polygon fill="none" stroke="black" points="447,-95.5 447,-114.5 521,-114.5 521,-95.5 447,-95.5"/>
<text text-anchor="middle" x="484" y="-102.5" font-family="Helvetica,sans-Serif" font-size="10.00">Goban::move</text>
</a>
</g>
</g>
<!-- Node74&#45;&gt;Node88 -->
<g id="edge18" class="edge"><title>Node74&#45;&gt;Node88</title>
<path fill="none" stroke="midnightblue" d="M78.5088,-122.155C166.778,-118.411 365.425,-109.986 446.996,-106.527"/>
<polygon fill="midnightblue" stroke="midnightblue" points="78.1495,-118.667 68.3068,-122.587 78.4462,-125.66 78.1495,-118.667"/>
</g>
<!-- Node89 -->
<g id="node16" class="node"><title>Node89</title>
<g id="a_node16"><a xlink:href="class_goban.html#a6c4b62a9469b3876d250ab94bcd562e5" target="_top" xlink:title="Goban::eliminateOppositeKO">
<polygon fill="none" stroke="black" points="244,-76.5 244,-95.5 387,-95.5 387,-76.5 244,-76.5"/>
<text text-anchor="middle" x="315.5" y="-83.5" font-family="Helvetica,sans-Serif" font-size="10.00">Goban::eliminateOppositeKO</text>
</a>
</g>
</g>
<!-- Node74&#45;&gt;Node89 -->
<g id="edge21" class="edge"><title>Node74&#45;&gt;Node89</title>
<path fill="none" stroke="midnightblue" d="M78.064,-114.664C86.6325,-112.976 95.5827,-111.331 104,-110 150.321,-102.674 202.717,-96.6924 243.646,-92.533"/>
<polygon fill="midnightblue" stroke="midnightblue" points="77.344,-111.239 68.2353,-116.65 78.7305,-118.1 77.344,-111.239"/>
</g>
<!-- Node90 -->
<g id="node17" class="node"><title>Node90</title>
<g id="a_node17"><a xlink:href="_parser_8h.html#a0d953eb90c8a03cbbe46abaf3d8d96e9" target="_top" xlink:title="parseur">
<polygon fill="none" stroke="black" points="131.5,-38.5 131.5,-57.5 180.5,-57.5 180.5,-38.5 131.5,-38.5"/>
<text text-anchor="middle" x="156" y="-45.5" font-family="Helvetica,sans-Serif" font-size="10.00">parseur</text>
</a>
</g>
</g>
<!-- Node74&#45;&gt;Node90 -->
<g id="edge23" class="edge"><title>Node74&#45;&gt;Node90</title>
<path fill="none" stroke="midnightblue" d="M54.2227,-107.812C67.6604,-96.9293 86.2996,-82.6783 104,-72 112.882,-66.6419 123.152,-61.6062 132.138,-57.5446"/>
<polygon fill="midnightblue" stroke="midnightblue" points="51.7058,-105.35 46.2055,-114.405 56.1522,-110.757 51.7058,-105.35"/>
</g>
<!-- Node91 -->
<g id="node18" class="node"><title>Node91</title>
<g id="a_node18"><a xlink:href="_main_8cpp.html#ae1a3968e7947464bee7714f6d43b7002" target="_top" xlink:title="test">
<polygon fill="none" stroke="black" points="139.5,-0.5 139.5,-19.5 172.5,-19.5 172.5,-0.5 139.5,-0.5"/>
<text text-anchor="middle" x="156" y="-7.5" font-family="Helvetica,sans-Serif" font-size="10.00">test</text>
</a>
</g>
</g>
<!-- Node74&#45;&gt;Node91 -->
<g id="edge24" class="edge"><title>Node74&#45;&gt;Node91</title>
<path fill="none" stroke="midnightblue" d="M44.1187,-105.513C55.4502,-84.2939 76.6746,-49.7567 104,-29 114.383,-21.1128 128.392,-16.2078 139.1,-13.3618"/>
<polygon fill="midnightblue" stroke="midnightblue" points="40.965,-103.992 39.4944,-114.484 47.1871,-107.199 40.965,-103.992"/>
</g>
<!-- Node77 -->
<g id="node4" class="node"><title>Node77</title>
<g id="a_node4"><a xlink:href="class_goban.html#a84f36324eb9ddc29f522d481f04c13e7" target="_top" xlink:title="Goban::listOfLiberties">
<polygon fill="none" stroke="black" points="260.5,-190.5 260.5,-209.5 370.5,-209.5 370.5,-190.5 260.5,-190.5"/>
<text text-anchor="middle" x="315.5" y="-197.5" font-family="Helvetica,sans-Serif" font-size="10.00">Goban::listOfLiberties</text>
</a>
</g>
</g>
<!-- Node76&#45;&gt;Node77 -->
<g id="edge3" class="edge"><title>Node76&#45;&gt;Node77</title>
<path fill="none" stroke="midnightblue" d="M218.521,-200C232.332,-200 246.885,-200 260.368,-200"/>
<polygon fill="midnightblue" stroke="midnightblue" points="218.136,-196.5 208.136,-200 218.136,-203.5 218.136,-196.5"/>
</g>
<!-- Node77&#45;&gt;Node78 -->
<g id="edge4" class="edge"><title>Node77&#45;&gt;Node78</title>
<path fill="none" stroke="midnightblue" d="M368.309,-188.176C391.783,-182.818 419.165,-176.569 441.287,-171.52"/>
<polygon fill="midnightblue" stroke="midnightblue" points="367.485,-184.774 358.515,-190.411 369.043,-191.598 367.485,-184.774"/>
</g>
<!-- Node81 -->
<g id="node8" class="node"><title>Node81</title>
<g id="a_node8"><a xlink:href="class_goban.html#a8b95ea2b51c078381562e361ff7febac" target="_top" xlink:title="Goban::isSuicide">
<polygon fill="none" stroke="black" points="765,-190.5 765,-209.5 856,-209.5 856,-190.5 765,-190.5"/>
<text text-anchor="middle" x="810.5" y="-197.5" font-family="Helvetica,sans-Serif" font-size="10.00">Goban::isSuicide</text>
</a>
</g>
</g>
<!-- Node77&#45;&gt;Node81 -->
<g id="edge16" class="edge"><title>Node77&#45;&gt;Node81</title>
<path fill="none" stroke="midnightblue" d="M380.796,-200C482.37,-200 677.398,-200 764.988,-200"/>
<polygon fill="midnightblue" stroke="midnightblue" points="380.67,-196.5 370.67,-200 380.67,-203.5 380.67,-196.5"/>
</g>
<!-- Node79 -->
<g id="node6" class="node"><title>Node79</title>
<g id="a_node6"><a xlink:href="class_goban.html#a7858b815885e4af36f05f9d26182cb07" target="_top" xlink:title="Goban::eliminateOppGroups">
<polygon fill="none" stroke="black" points="581,-152.5 581,-171.5 721,-171.5 721,-152.5 581,-152.5"/>
<text text-anchor="middle" x="651" y="-159.5" font-family="Helvetica,sans-Serif" font-size="10.00">Goban::eliminateOppGroups</text>
</a>
</g>
</g>
<!-- Node78&#45;&gt;Node79 -->
<g id="edge5" class="edge"><title>Node78&#45;&gt;Node79</title>
<path fill="none" stroke="midnightblue" d="M555.24,-162C563.698,-162 572.331,-162 580.774,-162"/>
<polygon fill="midnightblue" stroke="midnightblue" points="555.036,-158.5 545.036,-162 555.036,-165.5 555.036,-158.5"/>
</g>
<!-- Node80 -->
<g id="node7" class="node"><title>Node80</title>
<g id="a_node7"><a xlink:href="class_goban.html#a799390f04139eec16f7bb8c79b381303" target="_top" xlink:title="Goban::legalEvenKO">
<polygon fill="none" stroke="black" points="757,-152.5 757,-171.5 864,-171.5 864,-152.5 757,-152.5"/>
<text text-anchor="middle" x="810.5" y="-159.5" font-family="Helvetica,sans-Serif" font-size="10.00">Goban::legalEvenKO</text>
</a>
</g>
</g>
<!-- Node79&#45;&gt;Node80 -->
<g id="edge6" class="edge"><title>Node79&#45;&gt;Node80</title>
<path fill="none" stroke="midnightblue" d="M731.17,-162C739.783,-162 748.389,-162 756.576,-162"/>
<polygon fill="midnightblue" stroke="midnightblue" points="731.082,-158.5 721.082,-162 731.082,-165.5 731.082,-158.5"/>
</g>
<!-- Node79&#45;&gt;Node81 -->
<g id="edge7" class="edge"><title>Node79&#45;&gt;Node81</title>
<path fill="none" stroke="midnightblue" d="M701.604,-173.968C723.675,-179.293 749.303,-185.476 770.042,-190.48"/>
<polygon fill="midnightblue" stroke="midnightblue" points="702.286,-170.532 691.744,-171.589 700.644,-177.337 702.286,-170.532"/>
</g>
<!-- Node82 -->
<g id="node9" class="node"><title>Node82</title>
<g id="a_node9"><a xlink:href="class_goban.html#a36ab256c9430e070b620052a0f13f051" target="_top" xlink:title="Goban::listFils">
<polygon fill="none" stroke="black" points="770.5,-114.5 770.5,-133.5 850.5,-133.5 850.5,-114.5 770.5,-114.5"/>
<text text-anchor="middle" x="810.5" y="-121.5" font-family="Helvetica,sans-Serif" font-size="10.00">Goban::listFils</text>
</a>
</g>
</g>
<!-- Node79&#45;&gt;Node82 -->
<g id="edge8" class="edge"><title>Node79&#45;&gt;Node82</title>
<path fill="none" stroke="midnightblue" d="M701.643,-150.023C723.802,-144.676 749.54,-138.467 770.314,-133.454"/>
<polygon fill="midnightblue" stroke="midnightblue" points="700.644,-146.663 691.744,-152.411 702.286,-153.468 700.644,-146.663"/>
</g>
<!-- Node86 -->
<g id="node13" class="node"><title>Node86</title>
<g id="a_node13"><a xlink:href="class_board.html#a5fda73da080403d8a71a8593d581c350" target="_top" xlink:title="Board::click">
<polygon fill="none" stroke="black" points="776.5,-76.5 776.5,-95.5 844.5,-95.5 844.5,-76.5 776.5,-76.5"/>
<text text-anchor="middle" x="810.5" y="-83.5" font-family="Helvetica,sans-Serif" font-size="10.00">Board::click</text>
</a>
</g>
</g>
<!-- Node79&#45;&gt;Node86 -->
<g id="edge13" class="edge"><title>Node79&#45;&gt;Node86</title>
<path fill="none" stroke="midnightblue" d="M676.856,-147.128C697.8,-134.934 728.78,-117.68 757,-105 764.515,-101.623 772.828,-98.3941 780.58,-95.587"/>
<polygon fill="midnightblue" stroke="midnightblue" points="674.834,-144.256 667.985,-152.339 678.38,-150.291 674.834,-144.256"/>
</g>
<!-- Node83 -->
<g id="node10" class="node"><title>Node83</title>
<g id="a_node10"><a xlink:href="class_arbre.html#acd12cae4820bb7780a628716a0615d10" target="_top" xlink:title="Arbre::Tsumego">
<polygon fill="none" stroke="black" points="900,-114.5 900,-133.5 986,-133.5 986,-114.5 900,-114.5"/>
<text text-anchor="middle" x="943" y="-121.5" font-family="Helvetica,sans-Serif" font-size="10.00">Arbre::Tsumego</text>
</a>
</g>
</g>
<!-- Node82&#45;&gt;Node83 -->
<g id="edge9" class="edge"><title>Node82&#45;&gt;Node83</title>
<path fill="none" stroke="midnightblue" d="M860.713,-124C873.542,-124 887.253,-124 899.69,-124"/>
<polygon fill="midnightblue" stroke="midnightblue" points="860.654,-120.5 850.654,-124 860.654,-127.5 860.654,-120.5"/>
</g>
<!-- Node83&#45;&gt;Node83 -->
<g id="edge10" class="edge"><title>Node83&#45;&gt;Node83</title>
<path fill="none" stroke="midnightblue" d="M918.447,-143.029C919.786,-148.128 927.97,-152 943,-152 966.461,-152 973.243,-142.565 963.345,-133.757"/>
<polygon fill="midnightblue" stroke="midnightblue" points="921.709,-144.31 922.655,-133.757 915.335,-141.416 921.709,-144.31"/>
</g>
<!-- Node84 -->
<g id="node11" class="node"><title>Node84</title>
<g id="a_node11"><a xlink:href="class_game__window.html#a72304de2044c29f1373037bd818f674f" target="_top" xlink:title="Game_window::keyPressed">
<polygon fill="none" stroke="black" points="1022,-114.5 1022,-133.5 1159,-133.5 1159,-114.5 1022,-114.5"/>
<text text-anchor="middle" x="1090.5" y="-121.5" font-family="Helvetica,sans-Serif" font-size="10.00">Game_window::keyPressed</text>
</a>
</g>
</g>
<!-- Node83&#45;&gt;Node84 -->
<g id="edge11" class="edge"><title>Node83&#45;&gt;Node84</title>
<path fill="none" stroke="midnightblue" d="M996.302,-124C1004.56,-124 1013.2,-124 1021.74,-124"/>
<polygon fill="midnightblue" stroke="midnightblue" points="996.085,-120.5 986.085,-124 996.085,-127.5 996.085,-120.5"/>
</g>
<!-- Node85 -->
<g id="node12" class="node"><title>Node85</title>
<g id="a_node12"><a xlink:href="class_game__window.html#aec21feecf4c72d73c13d82aa12df6930" target="_top" xlink:title="Game_window::Run">
<polygon fill="none" stroke="black" points="1195,-95.5 1195,-114.5 1298,-114.5 1298,-95.5 1195,-95.5"/>
<text text-anchor="middle" x="1246.5" y="-102.5" font-family="Helvetica,sans-Serif" font-size="10.00">Game_window::Run</text>
</a>
</g>
</g>
<!-- Node84&#45;&gt;Node85 -->
<g id="edge12" class="edge"><title>Node84&#45;&gt;Node85</title>
<path fill="none" stroke="midnightblue" d="M1169.19,-114.415C1177.84,-113.348 1186.48,-112.281 1194.68,-111.27"/>
<polygon fill="midnightblue" stroke="midnightblue" points="1168.54,-110.968 1159.05,-115.666 1169.4,-117.915 1168.54,-110.968"/>
</g>
<!-- Node87 -->
<g id="node14" class="node"><title>Node87</title>
<g id="a_node14"><a xlink:href="class_game__window.html#afa942088809bf10731bb31d0d37b878d" target="_top" xlink:title="Game_window::click">
<polygon fill="none" stroke="black" points="1037.5,-76.5 1037.5,-95.5 1143.5,-95.5 1143.5,-76.5 1037.5,-76.5"/>
<text text-anchor="middle" x="1090.5" y="-83.5" font-family="Helvetica,sans-Serif" font-size="10.00">Game_window::click</text>
</a>
</g>
</g>
<!-- Node86&#45;&gt;Node87 -->
<g id="edge14" class="edge"><title>Node86&#45;&gt;Node87</title>
<path fill="none" stroke="midnightblue" d="M854.777,-86C904.05,-86 984.524,-86 1037.25,-86"/>
<polygon fill="midnightblue" stroke="midnightblue" points="854.757,-82.5001 844.757,-86 854.757,-89.5001 854.757,-82.5001"/>
</g>
<!-- Node87&#45;&gt;Node85 -->
<g id="edge15" class="edge"><title>Node87&#45;&gt;Node85</title>
<path fill="none" stroke="midnightblue" d="M1153.92,-93.7016C1167.58,-95.386 1181.86,-97.1486 1194.98,-98.7672"/>
<polygon fill="midnightblue" stroke="midnightblue" points="1153.99,-90.1834 1143.64,-92.4325 1153.13,-97.1308 1153.99,-90.1834"/>
</g>
<!-- Node88&#45;&gt;Node82 -->
<g id="edge19" class="edge"><title>Node88&#45;&gt;Node82</title>
<path fill="none" stroke="midnightblue" d="M531.518,-107.724C595.74,-111.484 710.416,-118.198 770.436,-121.713"/>
<polygon fill="midnightblue" stroke="midnightblue" points="531.467,-104.215 521.28,-107.124 531.058,-111.203 531.467,-104.215"/>
</g>
<!-- Node88&#45;&gt;Node86 -->
<g id="edge20" class="edge"><title>Node88&#45;&gt;Node86</title>
<path fill="none" stroke="midnightblue" d="M531.454,-102.28C597.85,-98.3925 718.266,-91.3419 776.373,-87.9396"/>
<polygon fill="midnightblue" stroke="midnightblue" points="531.058,-98.7971 521.28,-102.876 531.467,-105.785 531.058,-98.7971"/>
</g>
<!-- Node89&#45;&gt;Node88 -->
<g id="edge22" class="edge"><title>Node89&#45;&gt;Node88</title>
<path fill="none" stroke="midnightblue" d="M397.294,-95.2197C414.655,-97.2009 432.159,-99.1984 446.782,-100.867"/>
<polygon fill="midnightblue" stroke="midnightblue" points="397.443,-91.7141 387.111,-94.0577 396.65,-98.669 397.443,-91.7141"/>
</g>
</g>
</svg>
