<?xml version="1.0" encoding="UTF-8" standalone="no"?>
<!DOCTYPE svg PUBLIC "-//W3C//DTD SVG 1.1//EN"
 "http://www.w3.org/Graphics/SVG/1.1/DTD/svg11.dtd">
<!-- Generated by graphviz version 2.38.0 (20140413.2041)
 -->
<!-- Title: Square::Square Pages: 1 -->
<svg width="230pt" height="66pt"
 viewBox="0.00 0.00 230.00 66.00" xmlns="http://www.w3.org/2000/svg" xmlns:xlink="http://www.w3.org/1999/xlink">
<g id="graph0" class="graph" transform="scale(1 1) rotate(0) translate(4 62)">
<title>Square::Square</title>
<!-- Node0 -->
<g id="node1" class="node"><title>Node0</title>
<polygon fill="#bfbfbf" stroke="black" points="0,-19.5 0,-38.5 84,-38.5 84,-19.5 0,-19.5"/>
<text text-anchor="middle" x="42" y="-26.5" font-family="Helvetica,sans-Serif" font-size="10.00">Square::Square</text>
</g>
<!-- Node1 -->
<g id="node2" class="node"><title>Node1</title>
<g id="a_node2"><a xlink:href="class_square.html#a9040f1ca39b88b8d9ac2a90648b1fb20" target="_top" xlink:title="Square::setPosition">
<polygon fill="none" stroke="black" points="120,-38.5 120,-57.5 222,-57.5 222,-38.5 120,-38.5"/>
<text text-anchor="middle" x="171" y="-45.5" font-family="Helvetica,sans-Serif" font-size="10.00">Square::setPosition</text>
</a>
</g>
</g>
<!-- Node0&#45;&gt;Node1 -->
<g id="edge1" class="edge"><title>Node0&#45;&gt;Node1</title>
<path fill="none" stroke="midnightblue" d="M84.2333,-35.1688C92.3543,-36.3837 101.032,-37.6819 109.632,-38.9686"/>
<polygon fill="midnightblue" stroke="midnightblue" points="109.247,-42.4499 119.655,-40.4681 110.283,-35.5269 109.247,-42.4499"/>
</g>
<!-- Node2 -->
<g id="node3" class="node"><title>Node2</title>
<g id="a_node3"><a xlink:href="class_square.html#a5fa0cbfce721c687308eec8e1a029d25" target="_top" xlink:title="Square::setValue">
<polygon fill="none" stroke="black" points="125,-0.5 125,-19.5 217,-19.5 217,-0.5 125,-0.5"/>
<text text-anchor="middle" x="171" y="-7.5" font-family="Helvetica,sans-Serif" font-size="10.00">Square::setValue</text>
</a>
</g>
</g>
<!-- Node0&#45;&gt;Node2 -->
<g id="edge2" class="edge"><title>Node0&#45;&gt;Node2</title>
<path fill="none" stroke="midnightblue" d="M84.2333,-22.8312C93.9024,-21.3847 104.36,-19.8201 114.538,-18.2975"/>
<polygon fill="midnightblue" stroke="midnightblue" points="115.211,-21.7358 124.583,-16.7947 114.175,-14.8129 115.211,-21.7358"/>
</g>
</g>
</svg>
