<?xml version="1.0" encoding="UTF-8" standalone="no"?>
<!DOCTYPE svg PUBLIC "-//W3C//DTD SVG 1.1//EN"
 "http://www.w3.org/Graphics/SVG/1.1/DTD/svg11.dtd">
<!-- Generated by graphviz version 2.38.0 (20140413.2041)
 -->
<!-- Title: Menu::addItem Pages: 1 -->
<svg width="358pt" height="28pt"
 viewBox="0.00 0.00 358.00 28.00" xmlns="http://www.w3.org/2000/svg" xmlns:xlink="http://www.w3.org/1999/xlink">
<g id="graph0" class="graph" transform="scale(1 1) rotate(0) translate(4 24)">
<title>Menu::addItem</title>
<!-- Node5 -->
<g id="node1" class="node"><title>Node5</title>
<polygon fill="#bfbfbf" stroke="black" points="0,-0.5 0,-19.5 81,-19.5 81,-0.5 0,-0.5"/>
<text text-anchor="middle" x="40.5" y="-7.5" font-family="Helvetica,sans-Serif" font-size="10.00">Menu::addItem</text>
</g>
<!-- Node6 -->
<g id="node2" class="node"><title>Node6</title>
<g id="a_node2"><a xlink:href="_main_8cpp.html#a4d2b8dfc9654f97dcbfd580ffeeb8048" target="_top" xlink:title="loadMenu2">
<polygon fill="none" stroke="black" points="117,-0.5 117,-19.5 181,-19.5 181,-0.5 117,-0.5"/>
<text text-anchor="middle" x="149" y="-7.5" font-family="Helvetica,sans-Serif" font-size="10.00">loadMenu2</text>
</a>
</g>
</g>
<!-- Node5&#45;&gt;Node6 -->
<g id="edge1" class="edge"><title>Node5&#45;&gt;Node6</title>
<path fill="none" stroke="midnightblue" d="M91.3072,-10C100.051,-10 108.919,-10 116.963,-10"/>
<polygon fill="midnightblue" stroke="midnightblue" points="91.1567,-6.5001 81.1567,-10 91.1566,-13.5001 91.1567,-6.5001"/>
</g>
<!-- Node7 -->
<g id="node3" class="node"><title>Node7</title>
<g id="a_node3"><a xlink:href="_main_8cpp.html#a38bed9713fcae949ee78e6bc604db8fe" target="_top" xlink:title="loadMenu">
<polygon fill="none" stroke="black" points="217,-0.5 217,-19.5 276,-19.5 276,-0.5 217,-0.5"/>
<text text-anchor="middle" x="246.5" y="-7.5" font-family="Helvetica,sans-Serif" font-size="10.00">loadMenu</text>
</a>
</g>
</g>
<!-- Node6&#45;&gt;Node7 -->
<g id="edge2" class="edge"><title>Node6&#45;&gt;Node7</title>
<path fill="none" stroke="midnightblue" d="M191.032,-10C199.752,-10 208.778,-10 216.914,-10"/>
<polygon fill="midnightblue" stroke="midnightblue" points="191.006,-6.5001 181.006,-10 191.006,-13.5001 191.006,-6.5001"/>
</g>
<!-- Node8 -->
<g id="node4" class="node"><title>Node8</title>
<g id="a_node4"><a xlink:href="_main_8cpp.html#ae66f6b31b5ad750f1fe042a706a4e3d4" target="_top" xlink:title="main">
<polygon fill="none" stroke="black" points="312,-0.5 312,-19.5 350,-19.5 350,-0.5 312,-0.5"/>
<text text-anchor="middle" x="331" y="-7.5" font-family="Helvetica,sans-Serif" font-size="10.00">main</text>
</a>
</g>
</g>
<!-- Node7&#45;&gt;Node8 -->
<g id="edge3" class="edge"><title>Node7&#45;&gt;Node8</title>
<path fill="none" stroke="midnightblue" d="M286.488,-10C295.254,-10 304.158,-10 311.607,-10"/>
<polygon fill="midnightblue" stroke="midnightblue" points="286.355,-6.5001 276.354,-10 286.354,-13.5001 286.355,-6.5001"/>
</g>
</g>
</svg>
