<?xml version="1.0" encoding="UTF-8" standalone="no"?>
<!DOCTYPE svg PUBLIC "-//W3C//DTD SVG 1.1//EN"
 "http://www.w3.org/Graphics/SVG/1.1/DTD/svg11.dtd">
<!-- Generated by graphviz version 2.38.0 (20140413.2041)
 -->
<!-- Title: Etat::setY Pages: 1 -->
<svg width="1266pt" height="142pt"
 viewBox="0.00 0.00 1266.00 142.00" xmlns="http://www.w3.org/2000/svg" xmlns:xlink="http://www.w3.org/1999/xlink">
<g id="graph0" class="graph" transform="scale(1 1) rotate(0) translate(4 138)">
<title>Etat::setY</title>
<!-- Node108 -->
<g id="node1" class="node"><title>Node108</title>
<polygon fill="#bfbfbf" stroke="black" points="0,-38.5 0,-57.5 61,-57.5 61,-38.5 0,-38.5"/>
<text text-anchor="middle" x="30.5" y="-45.5" font-family="Helvetica,sans-Serif" font-size="10.00">Etat::setY</text>
</g>
<!-- Node109 -->
<g id="node2" class="node"><title>Node109</title>
<g id="a_node2"><a xlink:href="class_goban.html#a3544d30f54fbb54bd9e4fed08aa4bce6" target="_top" xlink:title="Goban::Goban">
<polygon fill="none" stroke="black" points="109,-57.5 109,-76.5 189,-76.5 189,-57.5 109,-57.5"/>
<text text-anchor="middle" x="149" y="-64.5" font-family="Helvetica,sans-Serif" font-size="10.00">Goban::Goban</text>
</a>
</g>
</g>
<!-- Node108&#45;&gt;Node109 -->
<g id="edge1" class="edge"><title>Node108&#45;&gt;Node109</title>
<path fill="none" stroke="midnightblue" d="M71.4234,-54.5111C83.4663,-56.4752 96.6729,-58.6291 108.676,-60.5867"/>
<polygon fill="midnightblue" stroke="midnightblue" points="71.6323,-50.999 61.1993,-52.8437 70.5055,-57.9077 71.6323,-50.999"/>
</g>
<!-- Node110 -->
<g id="node3" class="node"><title>Node110</title>
<g id="a_node3"><a xlink:href="class_goban.html#a0e2596110cdbb9b007b2b2fd8d5a9973" target="_top" xlink:title="Goban::DefineStone">
<polygon fill="none" stroke="black" points="97,-19.5 97,-38.5 201,-38.5 201,-19.5 97,-19.5"/>
<text text-anchor="middle" x="149" y="-26.5" font-family="Helvetica,sans-Serif" font-size="10.00">Goban::DefineStone</text>
</a>
</g>
</g>
<!-- Node108&#45;&gt;Node110 -->
<g id="edge2" class="edge"><title>Node108&#45;&gt;Node110</title>
<path fill="none" stroke="midnightblue" d="M71.2087,-41.5239C79.3847,-40.1905 88.1048,-38.7683 96.6259,-37.3786"/>
<polygon fill="midnightblue" stroke="midnightblue" points="70.5055,-38.0923 61.1993,-43.1563 71.6323,-45.001 70.5055,-38.0923"/>
</g>
<!-- Node111 -->
<g id="node4" class="node"><title>Node111</title>
<g id="a_node4"><a xlink:href="class_goban.html#a84f36324eb9ddc29f522d481f04c13e7" target="_top" xlink:title="Goban::listOfLiberties">
<polygon fill="none" stroke="black" points="237,-19.5 237,-38.5 347,-38.5 347,-19.5 237,-19.5"/>
<text text-anchor="middle" x="292" y="-26.5" font-family="Helvetica,sans-Serif" font-size="10.00">Goban::listOfLiberties</text>
</a>
</g>
</g>
<!-- Node110&#45;&gt;Node111 -->
<g id="edge3" class="edge"><title>Node110&#45;&gt;Node111</title>
<path fill="none" stroke="midnightblue" d="M211.425,-29C219.82,-29 228.39,-29 236.648,-29"/>
<polygon fill="midnightblue" stroke="midnightblue" points="211.303,-25.5001 201.303,-29 211.303,-32.5001 211.303,-25.5001"/>
</g>
<!-- Node112 -->
<g id="node5" class="node"><title>Node112</title>
<g id="a_node5"><a xlink:href="class_goban.html#a1ec70508987f66afff5f8df381731fac" target="_top" xlink:title="Goban::eliminateGroups">
<polygon fill="none" stroke="black" points="383,-38.5 383,-57.5 505,-57.5 505,-38.5 383,-38.5"/>
<text text-anchor="middle" x="444" y="-45.5" font-family="Helvetica,sans-Serif" font-size="10.00">Goban::eliminateGroups</text>
</a>
</g>
</g>
<!-- Node111&#45;&gt;Node112 -->
<g id="edge4" class="edge"><title>Node111&#45;&gt;Node112</title>
<path fill="none" stroke="midnightblue" d="M357.347,-37.1506C365.803,-38.2217 374.443,-39.3162 382.827,-40.378"/>
<polygon fill="midnightblue" stroke="midnightblue" points="357.514,-33.6439 347.153,-35.8594 356.634,-40.5884 357.514,-33.6439"/>
</g>
<!-- Node115 -->
<g id="node8" class="node"><title>Node115</title>
<g id="a_node8"><a xlink:href="class_goban.html#a8b95ea2b51c078381562e361ff7febac" target="_top" xlink:title="Goban::isSuicide">
<polygon fill="none" stroke="black" points="725,-0.5 725,-19.5 816,-19.5 816,-0.5 725,-0.5"/>
<text text-anchor="middle" x="770.5" y="-7.5" font-family="Helvetica,sans-Serif" font-size="10.00">Goban::isSuicide</text>
</a>
</g>
</g>
<!-- Node111&#45;&gt;Node115 -->
<g id="edge16" class="edge"><title>Node111&#45;&gt;Node115</title>
<path fill="none" stroke="midnightblue" d="M357.281,-26.4369C455.401,-22.5244 640.06,-15.1613 724.861,-11.78"/>
<polygon fill="midnightblue" stroke="midnightblue" points="357.049,-22.9432 347.197,-26.839 357.328,-29.9377 357.049,-22.9432"/>
</g>
<!-- Node113 -->
<g id="node6" class="node"><title>Node113</title>
<g id="a_node6"><a xlink:href="class_goban.html#a7858b815885e4af36f05f9d26182cb07" target="_top" xlink:title="Goban::eliminateOppGroups">
<polygon fill="none" stroke="black" points="541,-38.5 541,-57.5 681,-57.5 681,-38.5 541,-38.5"/>
<text text-anchor="middle" x="611" y="-45.5" font-family="Helvetica,sans-Serif" font-size="10.00">Goban::eliminateOppGroups</text>
</a>
</g>
</g>
<!-- Node112&#45;&gt;Node113 -->
<g id="edge5" class="edge"><title>Node112&#45;&gt;Node113</title>
<path fill="none" stroke="midnightblue" d="M515.24,-48C523.698,-48 532.331,-48 540.774,-48"/>
<polygon fill="midnightblue" stroke="midnightblue" points="515.036,-44.5001 505.036,-48 515.036,-51.5001 515.036,-44.5001"/>
</g>
<!-- Node114 -->
<g id="node7" class="node"><title>Node114</title>
<g id="a_node7"><a xlink:href="class_goban.html#a799390f04139eec16f7bb8c79b381303" target="_top" xlink:title="Goban::legalEvenKO">
<polygon fill="none" stroke="black" points="717,-114.5 717,-133.5 824,-133.5 824,-114.5 717,-114.5"/>
<text text-anchor="middle" x="770.5" y="-121.5" font-family="Helvetica,sans-Serif" font-size="10.00">Goban::legalEvenKO</text>
</a>
</g>
</g>
<!-- Node113&#45;&gt;Node114 -->
<g id="edge6" class="edge"><title>Node113&#45;&gt;Node114</title>
<path fill="none" stroke="midnightblue" d="M636.856,-62.8724C657.8,-75.0659 688.78,-92.32 717,-105 724.515,-108.377 732.828,-111.606 740.58,-114.413"/>
<polygon fill="midnightblue" stroke="midnightblue" points="638.38,-59.7086 627.985,-57.6606 634.834,-65.744 638.38,-59.7086"/>
</g>
<!-- Node113&#45;&gt;Node115 -->
<g id="edge7" class="edge"><title>Node113&#45;&gt;Node115</title>
<path fill="none" stroke="midnightblue" d="M661.604,-36.032C683.675,-30.7069 709.303,-24.5238 730.042,-19.5201"/>
<polygon fill="midnightblue" stroke="midnightblue" points="660.644,-32.6631 651.744,-38.411 662.286,-39.4679 660.644,-32.6631"/>
</g>
<!-- Node116 -->
<g id="node9" class="node"><title>Node116</title>
<g id="a_node9"><a xlink:href="class_goban.html#a36ab256c9430e070b620052a0f13f051" target="_top" xlink:title="Goban::listFils">
<polygon fill="none" stroke="black" points="730.5,-76.5 730.5,-95.5 810.5,-95.5 810.5,-76.5 730.5,-76.5"/>
<text text-anchor="middle" x="770.5" y="-83.5" font-family="Helvetica,sans-Serif" font-size="10.00">Goban::listFils</text>
</a>
</g>
</g>
<!-- Node113&#45;&gt;Node116 -->
<g id="edge8" class="edge"><title>Node113&#45;&gt;Node116</title>
<path fill="none" stroke="midnightblue" d="M661.643,-59.9773C683.802,-65.3237 709.54,-71.5334 730.314,-76.5457"/>
<polygon fill="midnightblue" stroke="midnightblue" points="662.286,-56.5321 651.744,-57.589 660.644,-63.3369 662.286,-56.5321"/>
</g>
<!-- Node120 -->
<g id="node13" class="node"><title>Node120</title>
<g id="a_node13"><a xlink:href="class_board.html#a5fda73da080403d8a71a8593d581c350" target="_top" xlink:title="Board::click">
<polygon fill="none" stroke="black" points="869,-38.5 869,-57.5 937,-57.5 937,-38.5 869,-38.5"/>
<text text-anchor="middle" x="903" y="-45.5" font-family="Helvetica,sans-Serif" font-size="10.00">Board::click</text>
</a>
</g>
</g>
<!-- Node113&#45;&gt;Node120 -->
<g id="edge13" class="edge"><title>Node113&#45;&gt;Node120</title>
<path fill="none" stroke="midnightblue" d="M691.387,-48C749.671,-48 825.877,-48 868.816,-48"/>
<polygon fill="midnightblue" stroke="midnightblue" points="691.094,-44.5001 681.094,-48 691.094,-51.5001 691.094,-44.5001"/>
</g>
<!-- Node117 -->
<g id="node10" class="node"><title>Node117</title>
<g id="a_node10"><a xlink:href="class_arbre.html#acd12cae4820bb7780a628716a0615d10" target="_top" xlink:title="Arbre::Tsumego">
<polygon fill="none" stroke="black" points="860,-76.5 860,-95.5 946,-95.5 946,-76.5 860,-76.5"/>
<text text-anchor="middle" x="903" y="-83.5" font-family="Helvetica,sans-Serif" font-size="10.00">Arbre::Tsumego</text>
</a>
</g>
</g>
<!-- Node116&#45;&gt;Node117 -->
<g id="edge9" class="edge"><title>Node116&#45;&gt;Node117</title>
<path fill="none" stroke="midnightblue" d="M820.713,-86C833.542,-86 847.253,-86 859.69,-86"/>
<polygon fill="midnightblue" stroke="midnightblue" points="820.654,-82.5001 810.654,-86 820.654,-89.5001 820.654,-82.5001"/>
</g>
<!-- Node117&#45;&gt;Node117 -->
<g id="edge10" class="edge"><title>Node117&#45;&gt;Node117</title>
<path fill="none" stroke="midnightblue" d="M878.447,-105.029C879.786,-110.128 887.97,-114 903,-114 926.461,-114 933.243,-104.565 923.345,-95.7571"/>
<polygon fill="midnightblue" stroke="midnightblue" points="881.709,-106.31 882.655,-95.7571 875.335,-103.416 881.709,-106.31"/>
</g>
<!-- Node118 -->
<g id="node11" class="node"><title>Node118</title>
<g id="a_node11"><a xlink:href="class_game__window.html#a72304de2044c29f1373037bd818f674f" target="_top" xlink:title="Game_window::keyPressed">
<polygon fill="none" stroke="black" points="982,-76.5 982,-95.5 1119,-95.5 1119,-76.5 982,-76.5"/>
<text text-anchor="middle" x="1050.5" y="-83.5" font-family="Helvetica,sans-Serif" font-size="10.00">Game_window::keyPressed</text>
</a>
</g>
</g>
<!-- Node117&#45;&gt;Node118 -->
<g id="edge11" class="edge"><title>Node117&#45;&gt;Node118</title>
<path fill="none" stroke="midnightblue" d="M956.302,-86C964.559,-86 973.197,-86 981.744,-86"/>
<polygon fill="midnightblue" stroke="midnightblue" points="956.085,-82.5001 946.085,-86 956.085,-89.5001 956.085,-82.5001"/>
</g>
<!-- Node119 -->
<g id="node12" class="node"><title>Node119</title>
<g id="a_node12"><a xlink:href="class_game__window.html#aec21feecf4c72d73c13d82aa12df6930" target="_top" xlink:title="Game_window::Run">
<polygon fill="none" stroke="black" points="1155,-57.5 1155,-76.5 1258,-76.5 1258,-57.5 1155,-57.5"/>
<text text-anchor="middle" x="1206.5" y="-64.5" font-family="Helvetica,sans-Serif" font-size="10.00">Game_window::Run</text>
</a>
</g>
</g>
<!-- Node118&#45;&gt;Node119 -->
<g id="edge12" class="edge"><title>Node118&#45;&gt;Node119</title>
<path fill="none" stroke="midnightblue" d="M1129.19,-76.4154C1137.84,-75.3476 1146.48,-74.2812 1154.68,-73.2703"/>
<polygon fill="midnightblue" stroke="midnightblue" points="1128.54,-72.9681 1119.05,-77.6663 1129.4,-79.9154 1128.54,-72.9681"/>
</g>
<!-- Node121 -->
<g id="node14" class="node"><title>Node121</title>
<g id="a_node14"><a xlink:href="class_game__window.html#afa942088809bf10731bb31d0d37b878d" target="_top" xlink:title="Game_window::click">
<polygon fill="none" stroke="black" points="997.5,-38.5 997.5,-57.5 1103.5,-57.5 1103.5,-38.5 997.5,-38.5"/>
<text text-anchor="middle" x="1050.5" y="-45.5" font-family="Helvetica,sans-Serif" font-size="10.00">Game_window::click</text>
</a>
</g>
</g>
<!-- Node120&#45;&gt;Node121 -->
<g id="edge14" class="edge"><title>Node120&#45;&gt;Node121</title>
<path fill="none" stroke="midnightblue" d="M947.049,-48C962.875,-48 980.963,-48 997.493,-48"/>
<polygon fill="midnightblue" stroke="midnightblue" points="947.016,-44.5001 937.016,-48 947.016,-51.5001 947.016,-44.5001"/>
</g>
<!-- Node121&#45;&gt;Node119 -->
<g id="edge15" class="edge"><title>Node121&#45;&gt;Node119</title>
<path fill="none" stroke="midnightblue" d="M1113.92,-55.7016C1127.58,-57.386 1141.86,-59.1486 1154.98,-60.7672"/>
<polygon fill="midnightblue" stroke="midnightblue" points="1113.99,-52.1834 1103.64,-54.4325 1113.13,-59.1308 1113.99,-52.1834"/>
</g>
</g>
</svg>
