<?xml version="1.0" encoding="UTF-8" standalone="no"?>
<!DOCTYPE svg PUBLIC "-//W3C//DTD SVG 1.1//EN"
 "http://www.w3.org/Graphics/SVG/1.1/DTD/svg11.dtd">
<!-- Generated by graphviz version 2.38.0 (20140413.2041)
 -->
<!-- Title: Goban::eliminateOppositeKO Pages: 1 -->
<svg width="811pt" height="84pt"
 viewBox="0.00 0.00 811.00 84.00" xmlns="http://www.w3.org/2000/svg" xmlns:xlink="http://www.w3.org/1999/xlink">
<g id="graph0" class="graph" transform="scale(1 1) rotate(0) translate(4 80)">
<title>Goban::eliminateOppositeKO</title>
<!-- Node129 -->
<g id="node1" class="node"><title>Node129</title>
<polygon fill="#bfbfbf" stroke="black" points="0,-19.5 0,-38.5 143,-38.5 143,-19.5 0,-19.5"/>
<text text-anchor="middle" x="71.5" y="-26.5" font-family="Helvetica,sans-Serif" font-size="10.00">Goban::eliminateOppositeKO</text>
</g>
<!-- Node130 -->
<g id="node2" class="node"><title>Node130</title>
<g id="a_node2"><a xlink:href="class_goban.html#a7dd1a7b53322bde2a831a923059e43a3" target="_top" xlink:title="Goban::move">
<polygon fill="none" stroke="black" points="179,-19.5 179,-38.5 253,-38.5 253,-19.5 179,-19.5"/>
<text text-anchor="middle" x="216" y="-26.5" font-family="Helvetica,sans-Serif" font-size="10.00">Goban::move</text>
</a>
</g>
</g>
<!-- Node129&#45;&gt;Node130 -->
<g id="edge1" class="edge"><title>Node129&#45;&gt;Node130</title>
<path fill="none" stroke="midnightblue" d="M153.391,-29C162.25,-29 170.907,-29 178.799,-29"/>
<polygon fill="midnightblue" stroke="midnightblue" points="153.333,-25.5001 143.333,-29 153.332,-32.5001 153.333,-25.5001"/>
</g>
<!-- Node131 -->
<g id="node3" class="node"><title>Node131</title>
<g id="a_node3"><a xlink:href="class_goban.html#a36ab256c9430e070b620052a0f13f051" target="_top" xlink:title="Goban::listFils">
<polygon fill="none" stroke="black" points="289,-38.5 289,-57.5 369,-57.5 369,-38.5 289,-38.5"/>
<text text-anchor="middle" x="329" y="-45.5" font-family="Helvetica,sans-Serif" font-size="10.00">Goban::listFils</text>
</a>
</g>
</g>
<!-- Node130&#45;&gt;Node131 -->
<g id="edge2" class="edge"><title>Node130&#45;&gt;Node131</title>
<path fill="none" stroke="midnightblue" d="M262.899,-36.8566C271.465,-38.3229 280.347,-39.8431 288.692,-41.2716"/>
<polygon fill="midnightblue" stroke="midnightblue" points="263.486,-33.4062 253.039,-35.1688 262.305,-40.3058 263.486,-33.4062"/>
</g>
<!-- Node135 -->
<g id="node7" class="node"><title>Node135</title>
<g id="a_node7"><a xlink:href="class_board.html#a5fda73da080403d8a71a8593d581c350" target="_top" xlink:title="Board::click">
<polygon fill="none" stroke="black" points="414,-0.5 414,-19.5 482,-19.5 482,-0.5 414,-0.5"/>
<text text-anchor="middle" x="448" y="-7.5" font-family="Helvetica,sans-Serif" font-size="10.00">Board::click</text>
</a>
</g>
</g>
<!-- Node130&#45;&gt;Node135 -->
<g id="edge7" class="edge"><title>Node130&#45;&gt;Node135</title>
<path fill="none" stroke="midnightblue" d="M263.177,-25.1854C307.707,-21.5068 374.015,-16.0292 413.635,-12.7563"/>
<polygon fill="midnightblue" stroke="midnightblue" points="262.868,-21.6989 253.191,-26.0103 263.445,-28.6751 262.868,-21.6989"/>
</g>
<!-- Node132 -->
<g id="node4" class="node"><title>Node132</title>
<g id="a_node4"><a xlink:href="class_arbre.html#acd12cae4820bb7780a628716a0615d10" target="_top" xlink:title="Arbre::Tsumego">
<polygon fill="none" stroke="black" points="405,-38.5 405,-57.5 491,-57.5 491,-38.5 405,-38.5"/>
<text text-anchor="middle" x="448" y="-45.5" font-family="Helvetica,sans-Serif" font-size="10.00">Arbre::Tsumego</text>
</a>
</g>
</g>
<!-- Node131&#45;&gt;Node132 -->
<g id="edge3" class="edge"><title>Node131&#45;&gt;Node132</title>
<path fill="none" stroke="midnightblue" d="M379.413,-48C387.862,-48 396.57,-48 404.809,-48"/>
<polygon fill="midnightblue" stroke="midnightblue" points="379.285,-44.5001 369.285,-48 379.285,-51.5001 379.285,-44.5001"/>
</g>
<!-- Node132&#45;&gt;Node132 -->
<g id="edge4" class="edge"><title>Node132&#45;&gt;Node132</title>
<path fill="none" stroke="midnightblue" d="M426.051,-67.0292C427.248,-72.128 434.564,-76 448,-76 468.973,-76 475.035,-66.5653 466.187,-57.7571"/>
<polygon fill="midnightblue" stroke="midnightblue" points="429.296,-68.3393 429.813,-57.7571 422.81,-65.7074 429.296,-68.3393"/>
</g>
<!-- Node133 -->
<g id="node5" class="node"><title>Node133</title>
<g id="a_node5"><a xlink:href="class_game__window.html#a72304de2044c29f1373037bd818f674f" target="_top" xlink:title="Game_window::keyPressed">
<polygon fill="none" stroke="black" points="527,-38.5 527,-57.5 664,-57.5 664,-38.5 527,-38.5"/>
<text text-anchor="middle" x="595.5" y="-45.5" font-family="Helvetica,sans-Serif" font-size="10.00">Game_window::keyPressed</text>
</a>
</g>
</g>
<!-- Node132&#45;&gt;Node133 -->
<g id="edge5" class="edge"><title>Node132&#45;&gt;Node133</title>
<path fill="none" stroke="midnightblue" d="M501.302,-48C509.559,-48 518.197,-48 526.744,-48"/>
<polygon fill="midnightblue" stroke="midnightblue" points="501.085,-44.5001 491.085,-48 501.085,-51.5001 501.085,-44.5001"/>
</g>
<!-- Node134 -->
<g id="node6" class="node"><title>Node134</title>
<g id="a_node6"><a xlink:href="class_game__window.html#aec21feecf4c72d73c13d82aa12df6930" target="_top" xlink:title="Game_window::Run">
<polygon fill="none" stroke="black" points="700,-19.5 700,-38.5 803,-38.5 803,-19.5 700,-19.5"/>
<text text-anchor="middle" x="751.5" y="-26.5" font-family="Helvetica,sans-Serif" font-size="10.00">Game_window::Run</text>
</a>
</g>
</g>
<!-- Node133&#45;&gt;Node134 -->
<g id="edge6" class="edge"><title>Node133&#45;&gt;Node134</title>
<path fill="none" stroke="midnightblue" d="M674.186,-38.4154C682.84,-37.3476 691.484,-36.2812 699.678,-35.2703"/>
<polygon fill="midnightblue" stroke="midnightblue" points="673.543,-34.9681 664.047,-39.6663 674.4,-41.9154 673.543,-34.9681"/>
</g>
<!-- Node136 -->
<g id="node8" class="node"><title>Node136</title>
<g id="a_node8"><a xlink:href="class_game__window.html#afa942088809bf10731bb31d0d37b878d" target="_top" xlink:title="Game_window::click">
<polygon fill="none" stroke="black" points="542.5,-0.5 542.5,-19.5 648.5,-19.5 648.5,-0.5 542.5,-0.5"/>
<text text-anchor="middle" x="595.5" y="-7.5" font-family="Helvetica,sans-Serif" font-size="10.00">Game_window::click</text>
</a>
</g>
</g>
<!-- Node135&#45;&gt;Node136 -->
<g id="edge8" class="edge"><title>Node135&#45;&gt;Node136</title>
<path fill="none" stroke="midnightblue" d="M492.049,-10C507.875,-10 525.963,-10 542.493,-10"/>
<polygon fill="midnightblue" stroke="midnightblue" points="492.016,-6.5001 482.016,-10 492.016,-13.5001 492.016,-6.5001"/>
</g>
<!-- Node136&#45;&gt;Node134 -->
<g id="edge9" class="edge"><title>Node136&#45;&gt;Node134</title>
<path fill="none" stroke="midnightblue" d="M658.924,-17.7016C672.576,-19.386 686.862,-21.1486 699.981,-22.7672"/>
<polygon fill="midnightblue" stroke="midnightblue" points="658.991,-14.1834 648.637,-16.4325 658.134,-21.1308 658.991,-14.1834"/>
</g>
</g>
</svg>
