<?xml version="1.0" encoding="UTF-8" standalone="no"?>
<!DOCTYPE svg PUBLIC "-//W3C//DTD SVG 1.1//EN"
 "http://www.w3.org/Graphics/SVG/1.1/DTD/svg11.dtd">
<!-- Generated by graphviz version 2.38.0 (20140413.2041)
 -->
<!-- Title: Arbre::Tsumego Pages: 1 -->
<svg width="973pt" height="389pt"
 viewBox="0.00 0.00 973.00 389.00" xmlns="http://www.w3.org/2000/svg" xmlns:xlink="http://www.w3.org/1999/xlink">
<g id="graph0" class="graph" transform="scale(1 1) rotate(0) translate(4 385)">
<title>Arbre::Tsumego</title>
<!-- Node57 -->
<g id="node1" class="node"><title>Node57</title>
<polygon fill="#bfbfbf" stroke="black" points="0,-95.5 0,-114.5 86,-114.5 86,-95.5 0,-95.5"/>
<text text-anchor="middle" x="43" y="-102.5" font-family="Helvetica,sans-Serif" font-size="10.00">Arbre::Tsumego</text>
</g>
<!-- Node57&#45;&gt;Node57 -->
<g id="edge27" class="edge"><title>Node57&#45;&gt;Node57</title>
<path fill="none" stroke="midnightblue" d="M24.8128,-114.757C15.9649,-123.565 22.0273,-133 43,-133 56.4356,-133 63.752,-129.128 64.9493,-124.029"/>
<polygon fill="midnightblue" stroke="midnightblue" points="68.1902,-122.707 61.1872,-114.757 61.7038,-125.339 68.1902,-122.707"/>
</g>
<!-- Node58 -->
<g id="node2" class="node"><title>Node58</title>
<g id="a_node2"><a xlink:href="class_goban.html#a36ab256c9430e070b620052a0f13f051" target="_top" xlink:title="Goban::listFils">
<polygon fill="none" stroke="black" points="122,-285.5 122,-304.5 202,-304.5 202,-285.5 122,-285.5"/>
<text text-anchor="middle" x="162" y="-292.5" font-family="Helvetica,sans-Serif" font-size="10.00">Goban::listFils</text>
</a>
</g>
</g>
<!-- Node57&#45;&gt;Node58 -->
<g id="edge1" class="edge"><title>Node57&#45;&gt;Node58</title>
<path fill="none" stroke="midnightblue" d="M49.8242,-114.663C62.7276,-136.047 94.7386,-188.97 122,-233 131.175,-247.819 141.705,-264.542 149.509,-276.883"/>
<polygon fill="midnightblue" stroke="midnightblue" points="146.571,-278.785 154.878,-285.361 152.485,-275.04 146.571,-278.785"/>
</g>
<!-- Node63 -->
<g id="node7" class="node"><title>Node63</title>
<g id="a_node7"><a xlink:href="class_goban.html#a29aaf8df380fe614845d48cba057747c" target="_top" xlink:title="Goban::coord">
<polygon fill="none" stroke="black" points="589.5,-228.5 589.5,-247.5 664.5,-247.5 664.5,-228.5 589.5,-228.5"/>
<text text-anchor="middle" x="627" y="-235.5" font-family="Helvetica,sans-Serif" font-size="10.00">Goban::coord</text>
</a>
</g>
</g>
<!-- Node57&#45;&gt;Node63 -->
<g id="edge22" class="edge"><title>Node57&#45;&gt;Node63</title>
<path fill="none" stroke="midnightblue" d="M63.8052,-114.624C79.3394,-121.866 101.662,-131.603 122,-138 286.119,-189.62 489.009,-220.219 579.102,-232.172"/>
<polygon fill="midnightblue" stroke="midnightblue" points="578.893,-235.675 589.263,-233.504 579.803,-228.734 578.893,-235.675"/>
</g>
<!-- Node69 -->
<g id="node13" class="node"><title>Node69</title>
<g id="a_node13"><a xlink:href="class_etat.html#aa25e66b110bc835523819392435e78c6" target="_top" xlink:title="Etat::getX">
<polygon fill="none" stroke="black" points="760,-114.5 760,-133.5 819,-133.5 819,-114.5 760,-114.5"/>
<text text-anchor="middle" x="789.5" y="-121.5" font-family="Helvetica,sans-Serif" font-size="10.00">Etat::getX</text>
</a>
</g>
</g>
<!-- Node57&#45;&gt;Node69 -->
<g id="edge23" class="edge"><title>Node57&#45;&gt;Node69</title>
<path fill="none" stroke="midnightblue" d="M86.2943,-109.942C138.203,-115.572 228.947,-124 307,-124 307,-124 307,-124 476,-124 574.523,-124 690.517,-124 749.62,-124"/>
<polygon fill="midnightblue" stroke="midnightblue" points="749.634,-127.5 759.634,-124 749.634,-120.5 749.634,-127.5"/>
</g>
<!-- Node70 -->
<g id="node14" class="node"><title>Node70</title>
<g id="a_node14"><a xlink:href="class_etat.html#a3e3e915f2261c83989a983e84b1273c1" target="_top" xlink:title="Etat::getY">
<polygon fill="none" stroke="black" points="759,-76.5 759,-95.5 820,-95.5 820,-76.5 759,-76.5"/>
<text text-anchor="middle" x="789.5" y="-83.5" font-family="Helvetica,sans-Serif" font-size="10.00">Etat::getY</text>
</a>
</g>
</g>
<!-- Node57&#45;&gt;Node70 -->
<g id="edge24" class="edge"><title>Node57&#45;&gt;Node70</title>
<path fill="none" stroke="midnightblue" d="M86.2943,-100.058C138.203,-94.428 228.947,-86 307,-86 307,-86 307,-86 476,-86 574.011,-86 689.312,-86 748.694,-86"/>
<polygon fill="midnightblue" stroke="midnightblue" points="748.769,-89.5001 758.769,-86 748.769,-82.5001 748.769,-89.5001"/>
</g>
<!-- Node75 -->
<g id="node19" class="node"><title>Node75</title>
<g id="a_node19"><a xlink:href="class_etat.html#ac0b81bbcf64cb3cc574e5a9dcdf94382" target="_top" xlink:title="Etat::getVal">
<polygon fill="none" stroke="black" points="128,-38.5 128,-57.5 196,-57.5 196,-38.5 128,-38.5"/>
<text text-anchor="middle" x="162" y="-45.5" font-family="Helvetica,sans-Serif" font-size="10.00">Etat::getVal</text>
</a>
</g>
</g>
<!-- Node57&#45;&gt;Node75 -->
<g id="edge25" class="edge"><title>Node57&#45;&gt;Node75</title>
<path fill="none" stroke="midnightblue" d="M63.5832,-95.4595C82.3123,-86.335 110.781,-72.4656 132.114,-62.0726"/>
<polygon fill="midnightblue" stroke="midnightblue" points="133.896,-65.0979 141.353,-57.5716 130.83,-58.8049 133.896,-65.0979"/>
</g>
<!-- Node76 -->
<g id="node20" class="node"><title>Node76</title>
<g id="a_node20"><a xlink:href="class_arbre.html#a761f4a2c6a43f44b38d4ac6fc1cf5cae" target="_top" xlink:title="Arbre::Arbre">
<polygon fill="none" stroke="black" points="127.5,-0.5 127.5,-19.5 196.5,-19.5 196.5,-0.5 127.5,-0.5"/>
<text text-anchor="middle" x="162" y="-7.5" font-family="Helvetica,sans-Serif" font-size="10.00">Arbre::Arbre</text>
</a>
</g>
</g>
<!-- Node57&#45;&gt;Node76 -->
<g id="edge26" class="edge"><title>Node57&#45;&gt;Node76</title>
<path fill="none" stroke="midnightblue" d="M52.2862,-95.0952C65.698,-79.518 93.543,-49.0112 122,-29 124.233,-27.4295 126.616,-25.9228 129.061,-24.4934"/>
<polygon fill="midnightblue" stroke="midnightblue" points="130.877,-27.491 138.034,-19.6788 127.568,-21.3229 130.877,-27.491"/>
</g>
<!-- Node59 -->
<g id="node3" class="node"><title>Node59</title>
<g id="a_node3"><a xlink:href="class_goban.html#aa2aaa3b4db4549d169bd0ff234d601cb" target="_top" xlink:title="Goban::itoc">
<polygon fill="none" stroke="black" points="274.5,-323.5 274.5,-342.5 341.5,-342.5 341.5,-323.5 274.5,-323.5"/>
<text text-anchor="middle" x="308" y="-330.5" font-family="Helvetica,sans-Serif" font-size="10.00">Goban::itoc</text>
</a>
</g>
</g>
<!-- Node58&#45;&gt;Node59 -->
<g id="edge2" class="edge"><title>Node58&#45;&gt;Node59</title>
<path fill="none" stroke="midnightblue" d="M199.337,-304.589C219.099,-309.804 243.657,-316.284 264.325,-321.739"/>
<polygon fill="midnightblue" stroke="midnightblue" points="263.559,-325.156 274.121,-324.324 265.346,-318.388 263.559,-325.156"/>
</g>
<!-- Node60 -->
<g id="node4" class="node"><title>Node60</title>
<g id="a_node4"><a xlink:href="class_goban.html#a7dd1a7b53322bde2a831a923059e43a3" target="_top" xlink:title="Goban::move">
<polygon fill="none" stroke="black" points="438,-285.5 438,-304.5 512,-304.5 512,-285.5 438,-285.5"/>
<text text-anchor="middle" x="475" y="-292.5" font-family="Helvetica,sans-Serif" font-size="10.00">Goban::move</text>
</a>
</g>
</g>
<!-- Node58&#45;&gt;Node60 -->
<g id="edge3" class="edge"><title>Node58&#45;&gt;Node60</title>
<path fill="none" stroke="midnightblue" d="M202.073,-295C259.443,-295 366.283,-295 427.575,-295"/>
<polygon fill="midnightblue" stroke="midnightblue" points="427.737,-298.5 437.737,-295 427.737,-291.5 427.737,-298.5"/>
</g>
<!-- Node65 -->
<g id="node9" class="node"><title>Node65</title>
<g id="a_node9"><a xlink:href="class_goban.html#a8584a53688e7bcf9de7c4cf48454acdc" target="_top" xlink:title="Goban::rechercheGroupes">
<polygon fill="none" stroke="black" points="242.5,-361.5 242.5,-380.5 373.5,-380.5 373.5,-361.5 242.5,-361.5"/>
<text text-anchor="middle" x="308" y="-368.5" font-family="Helvetica,sans-Serif" font-size="10.00">Goban::rechercheGroupes</text>
</a>
</g>
</g>
<!-- Node58&#45;&gt;Node65 -->
<g id="edge9" class="edge"><title>Node58&#45;&gt;Node65</title>
<path fill="none" stroke="midnightblue" d="M173.304,-304.915C187.011,-317.586 212.492,-339.385 238,-352 242.683,-354.316 247.689,-356.384 252.786,-358.222"/>
<polygon fill="midnightblue" stroke="midnightblue" points="252.044,-361.664 262.637,-361.481 254.242,-355.018 252.044,-361.664"/>
</g>
<!-- Node66 -->
<g id="node10" class="node"><title>Node66</title>
<g id="a_node10"><a xlink:href="class_goban.html#a7858b815885e4af36f05f9d26182cb07" target="_top" xlink:title="Goban::eliminateOppGroups">
<polygon fill="none" stroke="black" points="238,-247.5 238,-266.5 378,-266.5 378,-247.5 238,-247.5"/>
<text text-anchor="middle" x="308" y="-254.5" font-family="Helvetica,sans-Serif" font-size="10.00">Goban::eliminateOppGroups</text>
</a>
</g>
</g>
<!-- Node58&#45;&gt;Node66 -->
<g id="edge10" class="edge"><title>Node58&#45;&gt;Node66</title>
<path fill="none" stroke="midnightblue" d="M199.337,-285.411C218.083,-280.464 241.143,-274.379 261.107,-269.111"/>
<polygon fill="midnightblue" stroke="midnightblue" points="262.148,-272.456 270.924,-266.52 260.362,-265.688 262.148,-272.456"/>
</g>
<!-- Node61 -->
<g id="node5" class="node"><title>Node61</title>
<g id="a_node5"><a xlink:href="class_goban.html#a6c4b62a9469b3876d250ab94bcd562e5" target="_top" xlink:title="Goban::eliminateOppositeKO">
<polygon fill="none" stroke="black" points="718,-266.5 718,-285.5 861,-285.5 861,-266.5 718,-266.5"/>
<text text-anchor="middle" x="789.5" y="-273.5" font-family="Helvetica,sans-Serif" font-size="10.00">Goban::eliminateOppositeKO</text>
</a>
</g>
</g>
<!-- Node60&#45;&gt;Node61 -->
<g id="edge4" class="edge"><title>Node60&#45;&gt;Node61</title>
<path fill="none" stroke="midnightblue" d="M512.181,-296.925C553.386,-298.671 622.685,-300.25 682,-295 699.352,-293.464 718.11,-290.547 734.978,-287.452"/>
<polygon fill="midnightblue" stroke="midnightblue" points="736.034,-290.814 745.207,-285.512 734.73,-283.936 736.034,-290.814"/>
</g>
<!-- Node62 -->
<g id="node6" class="node"><title>Node62</title>
<g id="a_node6"><a xlink:href="class_etat.html#aa88987ca54aee676717f05e4570c0aec" target="_top" xlink:title="Etat::setVal">
<polygon fill="none" stroke="black" points="897,-247.5 897,-266.5 965,-266.5 965,-247.5 897,-247.5"/>
<text text-anchor="middle" x="931" y="-254.5" font-family="Helvetica,sans-Serif" font-size="10.00">Etat::setVal</text>
</a>
</g>
</g>
<!-- Node60&#45;&gt;Node62 -->
<g id="edge7" class="edge"><title>Node60&#45;&gt;Node62</title>
<path fill="none" stroke="midnightblue" d="M512.038,-301.781C581.398,-313.369 737.515,-332.321 861,-295 877.749,-289.938 894.992,-280.444 908.05,-272.212"/>
<polygon fill="midnightblue" stroke="midnightblue" points="910.298,-274.925 916.753,-266.523 906.468,-269.065 910.298,-274.925"/>
</g>
<!-- Node60&#45;&gt;Node63 -->
<g id="edge6" class="edge"><title>Node60&#45;&gt;Node63</title>
<path fill="none" stroke="midnightblue" d="M499.573,-285.375C518.947,-277.536 547.15,-266.286 572,-257 577.295,-255.021 582.902,-252.984 588.422,-251.012"/>
<polygon fill="midnightblue" stroke="midnightblue" points="589.918,-254.195 598.177,-247.559 587.582,-247.597 589.918,-254.195"/>
</g>
<!-- Node64 -->
<g id="node8" class="node"><title>Node64</title>
<g id="a_node8"><a xlink:href="class_history.html#a90222df7f73ae9cfda56bdb66cb1985e" target="_top" xlink:title="Add new state in history. ">
<polygon fill="none" stroke="black" points="592.5,-266.5 592.5,-285.5 661.5,-285.5 661.5,-266.5 592.5,-266.5"/>
<text text-anchor="middle" x="627" y="-273.5" font-family="Helvetica,sans-Serif" font-size="10.00">History::add</text>
</a>
</g>
</g>
<!-- Node60&#45;&gt;Node64 -->
<g id="edge8" class="edge"><title>Node60&#45;&gt;Node64</title>
<path fill="none" stroke="midnightblue" d="M512.311,-290.401C533.344,-287.736 559.967,-284.364 582.162,-281.553"/>
<polygon fill="midnightblue" stroke="midnightblue" points="582.853,-284.993 592.334,-280.264 581.974,-278.049 582.853,-284.993"/>
</g>
<!-- Node61&#45;&gt;Node62 -->
<g id="edge5" class="edge"><title>Node61&#45;&gt;Node62</title>
<path fill="none" stroke="midnightblue" d="M860.659,-266.444C869.532,-265.236 878.396,-264.028 886.678,-262.901"/>
<polygon fill="midnightblue" stroke="midnightblue" points="887.376,-266.338 896.812,-261.52 886.431,-259.402 887.376,-266.338"/>
</g>
<!-- Node67 -->
<g id="node11" class="node"><title>Node67</title>
<g id="a_node11"><a xlink:href="class_goban.html#a1ec70508987f66afff5f8df381731fac" target="_top" xlink:title="Goban::eliminateGroups">
<polygon fill="none" stroke="black" points="414,-171.5 414,-190.5 536,-190.5 536,-171.5 414,-171.5"/>
<text text-anchor="middle" x="475" y="-178.5" font-family="Helvetica,sans-Serif" font-size="10.00">Goban::eliminateGroups</text>
</a>
</g>
</g>
<!-- Node66&#45;&gt;Node67 -->
<g id="edge11" class="edge"><title>Node66&#45;&gt;Node67</title>
<path fill="none" stroke="midnightblue" d="M329.897,-247.375C358.784,-234.069 411.082,-209.98 444.099,-194.772"/>
<polygon fill="midnightblue" stroke="midnightblue" points="445.654,-197.91 453.272,-190.547 442.725,-191.552 445.654,-197.91"/>
</g>
<!-- Node67&#45;&gt;Node62 -->
<g id="edge21" class="edge"><title>Node67&#45;&gt;Node62</title>
<path fill="none" stroke="midnightblue" d="M533.04,-190.548C625.079,-205.956 804.344,-235.965 886.714,-249.754"/>
<polygon fill="midnightblue" stroke="midnightblue" points="886.296,-253.232 896.736,-251.432 887.451,-246.329 886.296,-253.232"/>
</g>
<!-- Node67&#45;&gt;Node63 -->
<g id="edge20" class="edge"><title>Node67&#45;&gt;Node63</title>
<path fill="none" stroke="midnightblue" d="M501.107,-190.541C525.767,-199.912 563.599,-214.288 591.164,-224.762"/>
<polygon fill="midnightblue" stroke="midnightblue" points="590.22,-228.148 600.811,-228.428 592.707,-221.604 590.22,-228.148"/>
</g>
<!-- Node68 -->
<g id="node12" class="node"><title>Node68</title>
<g id="a_node12"><a xlink:href="class_goban.html#a84f36324eb9ddc29f522d481f04c13e7" target="_top" xlink:title="Goban::listOfLiberties">
<polygon fill="none" stroke="black" points="572,-152.5 572,-171.5 682,-171.5 682,-152.5 572,-152.5"/>
<text text-anchor="middle" x="627" y="-159.5" font-family="Helvetica,sans-Serif" font-size="10.00">Goban::listOfLiberties</text>
</a>
</g>
</g>
<!-- Node67&#45;&gt;Node68 -->
<g id="edge12" class="edge"><title>Node67&#45;&gt;Node68</title>
<path fill="none" stroke="midnightblue" d="M536.146,-173.381C544.491,-172.325 553.09,-171.235 561.51,-170.169"/>
<polygon fill="midnightblue" stroke="midnightblue" points="562.18,-173.612 571.661,-168.883 561.3,-166.667 562.18,-173.612"/>
</g>
<!-- Node68&#45;&gt;Node69 -->
<g id="edge13" class="edge"><title>Node68&#45;&gt;Node69</title>
<path fill="none" stroke="midnightblue" d="M668.501,-152.411C693.365,-146.524 725.041,-139.025 749.604,-133.209"/>
<polygon fill="midnightblue" stroke="midnightblue" points="750.731,-136.539 759.655,-130.829 749.118,-129.727 750.731,-136.539"/>
</g>
<!-- Node68&#45;&gt;Node70 -->
<g id="edge14" class="edge"><title>Node68&#45;&gt;Node70</title>
<path fill="none" stroke="midnightblue" d="M640.429,-152.401C657.191,-139.874 688.367,-118.017 718,-105 727.662,-100.756 738.495,-97.2625 748.716,-94.4808"/>
<polygon fill="midnightblue" stroke="midnightblue" points="749.847,-97.8044 758.668,-91.9349 748.112,-91.0228 749.847,-97.8044"/>
</g>
<!-- Node71 -->
<g id="node15" class="node"><title>Node71</title>
<g id="a_node15"><a xlink:href="class_goban.html#a0e2596110cdbb9b007b2b2fd8d5a9973" target="_top" xlink:title="Goban::DefineStone">
<polygon fill="none" stroke="black" points="737.5,-152.5 737.5,-171.5 841.5,-171.5 841.5,-152.5 737.5,-152.5"/>
<text text-anchor="middle" x="789.5" y="-159.5" font-family="Helvetica,sans-Serif" font-size="10.00">Goban::DefineStone</text>
</a>
</g>
</g>
<!-- Node68&#45;&gt;Node71 -->
<g id="edge15" class="edge"><title>Node68&#45;&gt;Node71</title>
<path fill="none" stroke="midnightblue" d="M682.338,-162C696.82,-162 712.564,-162 727.384,-162"/>
<polygon fill="midnightblue" stroke="midnightblue" points="727.469,-165.5 737.469,-162 727.469,-158.5 727.469,-165.5"/>
</g>
<!-- Node71&#45;&gt;Node62 -->
<g id="edge18" class="edge"><title>Node71&#45;&gt;Node62</title>
<path fill="none" stroke="midnightblue" d="M829.311,-171.585C840.048,-175.182 851.384,-179.919 861,-186 873.031,-193.608 898.378,-221.093 914.774,-239.549"/>
<polygon fill="midnightblue" stroke="midnightblue" points="912.359,-242.102 921.597,-247.289 917.61,-237.473 912.359,-242.102"/>
</g>
<!-- Node72 -->
<g id="node16" class="node"><title>Node72</title>
<g id="a_node16"><a xlink:href="class_etat.html#ac020c4fe222274ac849a03fc8f19a99a" target="_top" xlink:title="Etat::setX">
<polygon fill="none" stroke="black" points="901.5,-114.5 901.5,-133.5 960.5,-133.5 960.5,-114.5 901.5,-114.5"/>
<text text-anchor="middle" x="931" y="-121.5" font-family="Helvetica,sans-Serif" font-size="10.00">Etat::setX</text>
</a>
</g>
</g>
<!-- Node71&#45;&gt;Node72 -->
<g id="edge16" class="edge"><title>Node71&#45;&gt;Node72</title>
<path fill="none" stroke="midnightblue" d="M826.014,-152.469C837.211,-149.454 849.626,-146.099 861,-143 870.98,-140.281 881.766,-137.321 891.779,-134.565"/>
<polygon fill="midnightblue" stroke="midnightblue" points="892.764,-137.924 901.474,-131.892 890.904,-131.175 892.764,-137.924"/>
</g>
<!-- Node73 -->
<g id="node17" class="node"><title>Node73</title>
<g id="a_node17"><a xlink:href="class_etat.html#a8a54fc9ecb1b97d84d2f1f259e3bf70e" target="_top" xlink:title="Etat::setY">
<polygon fill="none" stroke="black" points="900.5,-190.5 900.5,-209.5 961.5,-209.5 961.5,-190.5 900.5,-190.5"/>
<text text-anchor="middle" x="931" y="-197.5" font-family="Helvetica,sans-Serif" font-size="10.00">Etat::setY</text>
</a>
</g>
</g>
<!-- Node71&#45;&gt;Node73 -->
<g id="edge17" class="edge"><title>Node71&#45;&gt;Node73</title>
<path fill="none" stroke="midnightblue" d="M825.702,-171.589C845.54,-176.993 870.366,-183.756 890.82,-189.327"/>
<polygon fill="midnightblue" stroke="midnightblue" points="889.901,-192.704 900.469,-191.956 891.74,-185.95 889.901,-192.704"/>
</g>
<!-- Node74 -->
<g id="node18" class="node"><title>Node74</title>
<g id="a_node18"><a xlink:href="class_goban.html#a579840586df08a58983f6b497979344b" target="_top" xlink:title="Goban::ctoi">
<polygon fill="none" stroke="black" points="897.5,-152.5 897.5,-171.5 964.5,-171.5 964.5,-152.5 897.5,-152.5"/>
<text text-anchor="middle" x="931" y="-159.5" font-family="Helvetica,sans-Serif" font-size="10.00">Goban::ctoi</text>
</a>
</g>
</g>
<!-- Node71&#45;&gt;Node74 -->
<g id="edge19" class="edge"><title>Node71&#45;&gt;Node74</title>
<path fill="none" stroke="midnightblue" d="M841.653,-162C856.67,-162 872.928,-162 887.355,-162"/>
<polygon fill="midnightblue" stroke="midnightblue" points="887.492,-165.5 897.491,-162 887.491,-158.5 887.492,-165.5"/>
</g>
</g>
</svg>
