<?xml version="1.0" encoding="UTF-8" standalone="no"?>
<!DOCTYPE svg PUBLIC "-//W3C//DTD SVG 1.1//EN"
 "http://www.w3.org/Graphics/SVG/1.1/DTD/svg11.dtd">
<!-- Generated by graphviz version 2.38.0 (20140413.2041)
 -->
<!-- Title: Game_window::Game_window Pages: 1 -->
<svg width="401pt" height="66pt"
 viewBox="0.00 0.00 401.00 66.00" xmlns="http://www.w3.org/2000/svg" xmlns:xlink="http://www.w3.org/1999/xlink">
<g id="graph0" class="graph" transform="scale(1 1) rotate(0) translate(4 62)">
<title>Game_window::Game_window</title>
<!-- Node0 -->
<g id="node1" class="node"><title>Node0</title>
<polygon fill="#bfbfbf" stroke="black" points="0,-19.5 0,-38.5 149,-38.5 149,-19.5 0,-19.5"/>
<text text-anchor="middle" x="74.5" y="-26.5" font-family="Helvetica,sans-Serif" font-size="10.00">Game_window::Game_window</text>
</g>
<!-- Node1 -->
<g id="node2" class="node"><title>Node1</title>
<g id="a_node2"><a xlink:href="class_infos.html#a5dee8a8817c307c570db905429480d79" target="_top" xlink:title="Infos::setCurPlayer">
<polygon fill="none" stroke="black" points="185,-19.5 185,-38.5 284,-38.5 284,-19.5 185,-19.5"/>
<text text-anchor="middle" x="234.5" y="-26.5" font-family="Helvetica,sans-Serif" font-size="10.00">Infos::setCurPlayer</text>
</a>
</g>
</g>
<!-- Node0&#45;&gt;Node1 -->
<g id="edge1" class="edge"><title>Node0&#45;&gt;Node1</title>
<path fill="none" stroke="midnightblue" d="M149.411,-29C157.882,-29 166.431,-29 174.667,-29"/>
<polygon fill="midnightblue" stroke="midnightblue" points="174.902,-32.5001 184.902,-29 174.902,-25.5001 174.902,-32.5001"/>
</g>
<!-- Node2 -->
<g id="node3" class="node"><title>Node2</title>
<g id="a_node3"><a xlink:href="class_timer.html#a0289effad7b573c508bc27e405900a23" target="_top" xlink:title="Timer::pause">
<polygon fill="none" stroke="black" points="320,-38.5 320,-57.5 393,-57.5 393,-38.5 320,-38.5"/>
<text text-anchor="middle" x="356.5" y="-45.5" font-family="Helvetica,sans-Serif" font-size="10.00">Timer::pause</text>
</a>
</g>
</g>
<!-- Node1&#45;&gt;Node2 -->
<g id="edge2" class="edge"><title>Node1&#45;&gt;Node2</title>
<path fill="none" stroke="midnightblue" d="M284.309,-36.728C292.797,-38.072 301.595,-39.465 309.99,-40.7943"/>
<polygon fill="midnightblue" stroke="midnightblue" points="309.559,-44.2695 319.983,-42.3765 310.654,-37.3556 309.559,-44.2695"/>
</g>
<!-- Node3 -->
<g id="node4" class="node"><title>Node3</title>
<g id="a_node4"><a xlink:href="class_timer.html#a84acbe09a8dddae46c997c57a70c5076" target="_top" xlink:title="Timer::play">
<polygon fill="none" stroke="black" points="324,-0.5 324,-19.5 389,-19.5 389,-0.5 324,-0.5"/>
<text text-anchor="middle" x="356.5" y="-7.5" font-family="Helvetica,sans-Serif" font-size="10.00">Timer::play</text>
</a>
</g>
</g>
<!-- Node1&#45;&gt;Node3 -->
<g id="edge3" class="edge"><title>Node1&#45;&gt;Node3</title>
<path fill="none" stroke="midnightblue" d="M284.309,-21.272C294.125,-19.7177 304.356,-18.0979 313.899,-16.5869"/>
<polygon fill="midnightblue" stroke="midnightblue" points="314.603,-20.0191 323.932,-14.9982 313.508,-13.1052 314.603,-20.0191"/>
</g>
</g>
</svg>
