<?xml version="1.0" encoding="UTF-8" standalone="no"?>
<!DOCTYPE svg PUBLIC "-//W3C//DTD SVG 1.1//EN"
 "http://www.w3.org/Graphics/SVG/1.1/DTD/svg11.dtd">
<!-- Generated by graphviz version 2.38.0 (20140413.2041)
 -->
<!-- Title: Arbre::Arbre Pages: 1 -->
<svg width="197pt" height="142pt"
 viewBox="0.00 0.00 197.00 142.00" xmlns="http://www.w3.org/2000/svg" xmlns:xlink="http://www.w3.org/1999/xlink">
<g id="graph0" class="graph" transform="scale(1 1) rotate(0) translate(4 138)">
<title>Arbre::Arbre</title>
<!-- Node5 -->
<g id="node1" class="node"><title>Node5</title>
<polygon fill="#bfbfbf" stroke="black" points="0,-57.5 0,-76.5 69,-76.5 69,-57.5 0,-57.5"/>
<text text-anchor="middle" x="34.5" y="-64.5" font-family="Helvetica,sans-Serif" font-size="10.00">Arbre::Arbre</text>
</g>
<!-- Node6 -->
<g id="node2" class="node"><title>Node6</title>
<g id="a_node2"><a xlink:href="class_arbre.html#abb30fa37b209f6e148a5dc29e3a1c00d" target="_top" xlink:title="Arbre::getGob">
<polygon fill="none" stroke="black" points="108.5,-114.5 108.5,-133.5 185.5,-133.5 185.5,-114.5 108.5,-114.5"/>
<text text-anchor="middle" x="147" y="-121.5" font-family="Helvetica,sans-Serif" font-size="10.00">Arbre::getGob</text>
</a>
</g>
</g>
<!-- Node5&#45;&gt;Node6 -->
<g id="edge1" class="edge"><title>Node5&#45;&gt;Node6</title>
<path fill="none" stroke="midnightblue" d="M52.1868,-76.53C66.1629,-84.4134 86.7053,-95.7723 105,-105 108.349,-106.689 111.877,-108.41 115.401,-110.092"/>
<polygon fill="midnightblue" stroke="midnightblue" points="114.052,-113.325 124.591,-114.405 117.025,-106.988 114.052,-113.325"/>
</g>
<!-- Node7 -->
<g id="node3" class="node"><title>Node7</title>
<g id="a_node3"><a xlink:href="class_arbre.html#a0aef1f091d76bca13229a21fcd45a076" target="_top" xlink:title="Arbre::getNbF">
<polygon fill="none" stroke="black" points="108.5,-76.5 108.5,-95.5 185.5,-95.5 185.5,-76.5 108.5,-76.5"/>
<text text-anchor="middle" x="147" y="-83.5" font-family="Helvetica,sans-Serif" font-size="10.00">Arbre::getNbF</text>
</a>
</g>
</g>
<!-- Node5&#45;&gt;Node7 -->
<g id="edge2" class="edge"><title>Node5&#45;&gt;Node7</title>
<path fill="none" stroke="midnightblue" d="M69.2541,-72.8039C78.3926,-74.3752 88.4606,-76.1064 98.2127,-77.7832"/>
<polygon fill="midnightblue" stroke="midnightblue" points="97.7603,-81.2567 108.209,-79.502 98.9466,-74.3579 97.7603,-81.2567"/>
</g>
<!-- Node8 -->
<g id="node4" class="node"><title>Node8</title>
<g id="a_node4"><a xlink:href="class_arbre.html#aeaa93d0b192e3cce04adb509b6b29c40" target="_top" xlink:title="Arbre::getValue">
<polygon fill="none" stroke="black" points="105,-38.5 105,-57.5 189,-57.5 189,-38.5 105,-38.5"/>
<text text-anchor="middle" x="147" y="-45.5" font-family="Helvetica,sans-Serif" font-size="10.00">Arbre::getValue</text>
</a>
</g>
</g>
<!-- Node5&#45;&gt;Node8 -->
<g id="edge3" class="edge"><title>Node5&#45;&gt;Node8</title>
<path fill="none" stroke="midnightblue" d="M69.2541,-61.1961C77.2829,-59.8156 86.0292,-58.3117 94.6483,-56.8297"/>
<polygon fill="midnightblue" stroke="midnightblue" points="95.3952,-60.2527 104.657,-55.1087 94.2089,-53.354 95.3952,-60.2527"/>
</g>
<!-- Node9 -->
<g id="node5" class="node"><title>Node9</title>
<g id="a_node5"><a xlink:href="class_arbre.html#ace487e80301c07e6369108bf9a480513" target="_top" xlink:title="Arbre::getFils">
<polygon fill="none" stroke="black" points="109.5,-0.5 109.5,-19.5 184.5,-19.5 184.5,-0.5 109.5,-0.5"/>
<text text-anchor="middle" x="147" y="-7.5" font-family="Helvetica,sans-Serif" font-size="10.00">Arbre::getFils</text>
</a>
</g>
</g>
<!-- Node5&#45;&gt;Node9 -->
<g id="edge4" class="edge"><title>Node5&#45;&gt;Node9</title>
<path fill="none" stroke="midnightblue" d="M52.1868,-57.47C66.1629,-49.5866 86.7053,-38.2277 105,-29 108.349,-27.3107 111.877,-25.5897 115.401,-23.9077"/>
<polygon fill="midnightblue" stroke="midnightblue" points="117.025,-27.0118 124.591,-19.5952 114.052,-20.6747 117.025,-27.0118"/>
</g>
</g>
</svg>
