<?xml version="1.0" encoding="UTF-8" standalone="no"?>
<!DOCTYPE svg PUBLIC "-//W3C//DTD SVG 1.1//EN"
 "http://www.w3.org/Graphics/SVG/1.1/DTD/svg11.dtd">
<!-- Generated by graphviz version 2.38.0 (20140413.2041)
 -->
<!-- Title: Goban::eliminateGroups Pages: 1 -->
<svg width="883pt" height="142pt"
 viewBox="0.00 0.00 883.00 142.00" xmlns="http://www.w3.org/2000/svg" xmlns:xlink="http://www.w3.org/1999/xlink">
<g id="graph0" class="graph" transform="scale(1 1) rotate(0) translate(4 138)">
<title>Goban::eliminateGroups</title>
<!-- Node97 -->
<g id="node1" class="node"><title>Node97</title>
<polygon fill="#bfbfbf" stroke="black" points="0,-57.5 0,-76.5 122,-76.5 122,-57.5 0,-57.5"/>
<text text-anchor="middle" x="61" y="-64.5" font-family="Helvetica,sans-Serif" font-size="10.00">Goban::eliminateGroups</text>
</g>
<!-- Node98 -->
<g id="node2" class="node"><title>Node98</title>
<g id="a_node2"><a xlink:href="class_goban.html#a7858b815885e4af36f05f9d26182cb07" target="_top" xlink:title="Goban::eliminateOppGroups">
<polygon fill="none" stroke="black" points="158,-57.5 158,-76.5 298,-76.5 298,-57.5 158,-57.5"/>
<text text-anchor="middle" x="228" y="-64.5" font-family="Helvetica,sans-Serif" font-size="10.00">Goban::eliminateOppGroups</text>
</a>
</g>
</g>
<!-- Node97&#45;&gt;Node98 -->
<g id="edge1" class="edge"><title>Node97&#45;&gt;Node98</title>
<path fill="none" stroke="midnightblue" d="M132.24,-67C140.698,-67 149.331,-67 157.774,-67"/>
<polygon fill="midnightblue" stroke="midnightblue" points="132.036,-63.5001 122.036,-67 132.036,-70.5001 132.036,-63.5001"/>
</g>
<!-- Node99 -->
<g id="node3" class="node"><title>Node99</title>
<g id="a_node3"><a xlink:href="class_goban.html#a799390f04139eec16f7bb8c79b381303" target="_top" xlink:title="Goban::legalEvenKO">
<polygon fill="none" stroke="black" points="334,-114.5 334,-133.5 441,-133.5 441,-114.5 334,-114.5"/>
<text text-anchor="middle" x="387.5" y="-121.5" font-family="Helvetica,sans-Serif" font-size="10.00">Goban::legalEvenKO</text>
</a>
</g>
</g>
<!-- Node98&#45;&gt;Node99 -->
<g id="edge2" class="edge"><title>Node98&#45;&gt;Node99</title>
<path fill="none" stroke="midnightblue" d="M265.102,-80.0655C294.052,-90.5428 334.014,-105.005 360.052,-114.428"/>
<polygon fill="midnightblue" stroke="midnightblue" points="265.956,-76.6525 255.362,-76.5405 263.574,-83.2347 265.956,-76.6525"/>
</g>
<!-- Node100 -->
<g id="node4" class="node"><title>Node100</title>
<g id="a_node4"><a xlink:href="class_goban.html#a8b95ea2b51c078381562e361ff7febac" target="_top" xlink:title="Goban::isSuicide">
<polygon fill="none" stroke="black" points="342,-76.5 342,-95.5 433,-95.5 433,-76.5 342,-76.5"/>
<text text-anchor="middle" x="387.5" y="-83.5" font-family="Helvetica,sans-Serif" font-size="10.00">Goban::isSuicide</text>
</a>
</g>
</g>
<!-- Node98&#45;&gt;Node100 -->
<g id="edge3" class="edge"><title>Node98&#45;&gt;Node100</title>
<path fill="none" stroke="midnightblue" d="M308.241,-76.5592C319.825,-77.9567 331.396,-79.3525 341.949,-80.6256"/>
<polygon fill="midnightblue" stroke="midnightblue" points="308.429,-73.0566 298.082,-75.3337 307.591,-80.0062 308.429,-73.0566"/>
</g>
<!-- Node101 -->
<g id="node5" class="node"><title>Node101</title>
<g id="a_node5"><a xlink:href="class_goban.html#a36ab256c9430e070b620052a0f13f051" target="_top" xlink:title="Goban::listFils">
<polygon fill="none" stroke="black" points="347.5,-38.5 347.5,-57.5 427.5,-57.5 427.5,-38.5 347.5,-38.5"/>
<text text-anchor="middle" x="387.5" y="-45.5" font-family="Helvetica,sans-Serif" font-size="10.00">Goban::listFils</text>
</a>
</g>
</g>
<!-- Node98&#45;&gt;Node101 -->
<g id="edge4" class="edge"><title>Node98&#45;&gt;Node101</title>
<path fill="none" stroke="midnightblue" d="M308.404,-57.4211C321.931,-55.7892 335.432,-54.1605 347.311,-52.7275"/>
<polygon fill="midnightblue" stroke="midnightblue" points="307.591,-53.9938 298.082,-58.6663 308.429,-60.9434 307.591,-53.9938"/>
</g>
<!-- Node105 -->
<g id="node9" class="node"><title>Node105</title>
<g id="a_node9"><a xlink:href="class_board.html#a5fda73da080403d8a71a8593d581c350" target="_top" xlink:title="Board::click">
<polygon fill="none" stroke="black" points="486,-0.5 486,-19.5 554,-19.5 554,-0.5 486,-0.5"/>
<text text-anchor="middle" x="520" y="-7.5" font-family="Helvetica,sans-Serif" font-size="10.00">Board::click</text>
</a>
</g>
</g>
<!-- Node98&#45;&gt;Node105 -->
<g id="edge9" class="edge"><title>Node98&#45;&gt;Node105</title>
<path fill="none" stroke="midnightblue" d="M260.134,-53.4523C280.715,-45.0703 308.502,-34.8303 334,-29 386.248,-17.0531 448.524,-12.6109 485.854,-10.9641"/>
<polygon fill="midnightblue" stroke="midnightblue" points="258.545,-50.3226 250.652,-57.3904 261.229,-56.7873 258.545,-50.3226"/>
</g>
<!-- Node102 -->
<g id="node6" class="node"><title>Node102</title>
<g id="a_node6"><a xlink:href="class_arbre.html#acd12cae4820bb7780a628716a0615d10" target="_top" xlink:title="Arbre::Tsumego">
<polygon fill="none" stroke="black" points="477,-38.5 477,-57.5 563,-57.5 563,-38.5 477,-38.5"/>
<text text-anchor="middle" x="520" y="-45.5" font-family="Helvetica,sans-Serif" font-size="10.00">Arbre::Tsumego</text>
</a>
</g>
</g>
<!-- Node101&#45;&gt;Node102 -->
<g id="edge5" class="edge"><title>Node101&#45;&gt;Node102</title>
<path fill="none" stroke="midnightblue" d="M437.713,-48C450.542,-48 464.253,-48 476.69,-48"/>
<polygon fill="midnightblue" stroke="midnightblue" points="437.654,-44.5001 427.654,-48 437.654,-51.5001 437.654,-44.5001"/>
</g>
<!-- Node102&#45;&gt;Node102 -->
<g id="edge6" class="edge"><title>Node102&#45;&gt;Node102</title>
<path fill="none" stroke="midnightblue" d="M495.447,-67.0292C496.786,-72.128 504.97,-76 520,-76 543.461,-76 550.243,-66.5653 540.345,-57.7571"/>
<polygon fill="midnightblue" stroke="midnightblue" points="498.709,-68.3096 499.655,-57.7571 492.335,-65.4164 498.709,-68.3096"/>
</g>
<!-- Node103 -->
<g id="node7" class="node"><title>Node103</title>
<g id="a_node7"><a xlink:href="class_game__window.html#a72304de2044c29f1373037bd818f674f" target="_top" xlink:title="Game_window::keyPressed">
<polygon fill="none" stroke="black" points="599,-38.5 599,-57.5 736,-57.5 736,-38.5 599,-38.5"/>
<text text-anchor="middle" x="667.5" y="-45.5" font-family="Helvetica,sans-Serif" font-size="10.00">Game_window::keyPressed</text>
</a>
</g>
</g>
<!-- Node102&#45;&gt;Node103 -->
<g id="edge7" class="edge"><title>Node102&#45;&gt;Node103</title>
<path fill="none" stroke="midnightblue" d="M573.302,-48C581.559,-48 590.197,-48 598.744,-48"/>
<polygon fill="midnightblue" stroke="midnightblue" points="573.085,-44.5001 563.085,-48 573.085,-51.5001 573.085,-44.5001"/>
</g>
<!-- Node104 -->
<g id="node8" class="node"><title>Node104</title>
<g id="a_node8"><a xlink:href="class_game__window.html#aec21feecf4c72d73c13d82aa12df6930" target="_top" xlink:title="Game_window::Run">
<polygon fill="none" stroke="black" points="772,-19.5 772,-38.5 875,-38.5 875,-19.5 772,-19.5"/>
<text text-anchor="middle" x="823.5" y="-26.5" font-family="Helvetica,sans-Serif" font-size="10.00">Game_window::Run</text>
</a>
</g>
</g>
<!-- Node103&#45;&gt;Node104 -->
<g id="edge8" class="edge"><title>Node103&#45;&gt;Node104</title>
<path fill="none" stroke="midnightblue" d="M746.186,-38.4154C754.84,-37.3476 763.484,-36.2812 771.678,-35.2703"/>
<polygon fill="midnightblue" stroke="midnightblue" points="745.543,-34.9681 736.047,-39.6663 746.4,-41.9154 745.543,-34.9681"/>
</g>
<!-- Node106 -->
<g id="node10" class="node"><title>Node106</title>
<g id="a_node10"><a xlink:href="class_game__window.html#afa942088809bf10731bb31d0d37b878d" target="_top" xlink:title="Game_window::click">
<polygon fill="none" stroke="black" points="614.5,-0.5 614.5,-19.5 720.5,-19.5 720.5,-0.5 614.5,-0.5"/>
<text text-anchor="middle" x="667.5" y="-7.5" font-family="Helvetica,sans-Serif" font-size="10.00">Game_window::click</text>
</a>
</g>
</g>
<!-- Node105&#45;&gt;Node106 -->
<g id="edge10" class="edge"><title>Node105&#45;&gt;Node106</title>
<path fill="none" stroke="midnightblue" d="M564.049,-10C579.875,-10 597.963,-10 614.493,-10"/>
<polygon fill="midnightblue" stroke="midnightblue" points="564.016,-6.5001 554.016,-10 564.016,-13.5001 564.016,-6.5001"/>
</g>
<!-- Node106&#45;&gt;Node104 -->
<g id="edge11" class="edge"><title>Node106&#45;&gt;Node104</title>
<path fill="none" stroke="midnightblue" d="M730.924,-17.7016C744.576,-19.386 758.862,-21.1486 771.981,-22.7672"/>
<polygon fill="midnightblue" stroke="midnightblue" points="730.991,-14.1834 720.637,-16.4325 730.134,-21.1308 730.991,-14.1834"/>
</g>
</g>
</svg>
