<?xml version="1.0" encoding="UTF-8" standalone="no"?>
<!DOCTYPE svg PUBLIC "-//W3C//DTD SVG 1.1//EN"
 "http://www.w3.org/Graphics/SVG/1.1/DTD/svg11.dtd">
<!-- Generated by graphviz version 2.38.0 (20140413.2041)
 -->
<!-- Title: Board::load Pages: 1 -->
<svg width="202pt" height="104pt"
 viewBox="0.00 0.00 202.00 104.00" xmlns="http://www.w3.org/2000/svg" xmlns:xlink="http://www.w3.org/1999/xlink">
<g id="graph0" class="graph" transform="scale(1 1) rotate(0) translate(4 100)">
<title>Board::load</title>
<!-- Node59 -->
<g id="node1" class="node"><title>Node59</title>
<polygon fill="#bfbfbf" stroke="black" points="0,-38.5 0,-57.5 66,-57.5 66,-38.5 0,-38.5"/>
<text text-anchor="middle" x="33" y="-45.5" font-family="Helvetica,sans-Serif" font-size="10.00">Board::load</text>
</g>
<!-- Node60 -->
<g id="node2" class="node"><title>Node60</title>
<g id="a_node2"><a xlink:href="class_square.html#a5fa0cbfce721c687308eec8e1a029d25" target="_top" xlink:title="Square::setValue">
<polygon fill="none" stroke="black" points="102,-76.5 102,-95.5 194,-95.5 194,-76.5 102,-76.5"/>
<text text-anchor="middle" x="148" y="-83.5" font-family="Helvetica,sans-Serif" font-size="10.00">Square::setValue</text>
</a>
</g>
</g>
<!-- Node59&#45;&gt;Node60 -->
<g id="edge1" class="edge"><title>Node59&#45;&gt;Node60</title>
<path fill="none" stroke="midnightblue" d="M62.5147,-57.589C76.5666,-62.3144 93.7082,-68.0789 108.87,-73.1774"/>
<polygon fill="midnightblue" stroke="midnightblue" points="107.9,-76.544 118.494,-76.4141 110.132,-69.9091 107.9,-76.544"/>
</g>
<!-- Node61 -->
<g id="node3" class="node"><title>Node61</title>
<g id="a_node3"><a xlink:href="class_goban.html#a29aaf8df380fe614845d48cba057747c" target="_top" xlink:title="Goban::coord">
<polygon fill="none" stroke="black" points="110.5,-38.5 110.5,-57.5 185.5,-57.5 185.5,-38.5 110.5,-38.5"/>
<text text-anchor="middle" x="148" y="-45.5" font-family="Helvetica,sans-Serif" font-size="10.00">Goban::coord</text>
</a>
</g>
</g>
<!-- Node59&#45;&gt;Node61 -->
<g id="edge2" class="edge"><title>Node59&#45;&gt;Node61</title>
<path fill="none" stroke="midnightblue" d="M66.079,-48C76.6698,-48 88.6782,-48 100.141,-48"/>
<polygon fill="midnightblue" stroke="midnightblue" points="100.458,-51.5001 110.458,-48 100.458,-44.5001 100.458,-51.5001"/>
</g>
<!-- Node62 -->
<g id="node4" class="node"><title>Node62</title>
<g id="a_node4"><a xlink:href="class_etat.html#ac0b81bbcf64cb3cc574e5a9dcdf94382" target="_top" xlink:title="Etat::getVal">
<polygon fill="none" stroke="black" points="114,-0.5 114,-19.5 182,-19.5 182,-0.5 114,-0.5"/>
<text text-anchor="middle" x="148" y="-7.5" font-family="Helvetica,sans-Serif" font-size="10.00">Etat::getVal</text>
</a>
</g>
</g>
<!-- Node59&#45;&gt;Node62 -->
<g id="edge3" class="edge"><title>Node59&#45;&gt;Node62</title>
<path fill="none" stroke="midnightblue" d="M62.5147,-38.411C76.5666,-33.6856 93.7082,-27.9211 108.87,-22.8226"/>
<polygon fill="midnightblue" stroke="midnightblue" points="110.132,-26.0909 118.494,-19.5859 107.9,-19.456 110.132,-26.0909"/>
</g>
</g>
</svg>
