<?xml version="1.0" encoding="UTF-8" standalone="no"?>
<!DOCTYPE svg PUBLIC "-//W3C//DTD SVG 1.1//EN"
 "http://www.w3.org/Graphics/SVG/1.1/DTD/svg11.dtd">
<!-- Generated by graphviz version 2.38.0 (20140413.2041)
 -->
<!-- Title: Goban::eliminateGroups Pages: 1 -->
<svg width="520pt" height="180pt"
 viewBox="0.00 0.00 520.00 180.00" xmlns="http://www.w3.org/2000/svg" xmlns:xlink="http://www.w3.org/1999/xlink">
<g id="graph0" class="graph" transform="scale(1 1) rotate(0) translate(4 176)">
<title>Goban::eliminateGroups</title>
<!-- Node87 -->
<g id="node1" class="node"><title>Node87</title>
<polygon fill="#bfbfbf" stroke="black" points="0,-38.5 0,-57.5 122,-57.5 122,-38.5 0,-38.5"/>
<text text-anchor="middle" x="61" y="-45.5" font-family="Helvetica,sans-Serif" font-size="10.00">Goban::eliminateGroups</text>
</g>
<!-- Node88 -->
<g id="node2" class="node"><title>Node88</title>
<g id="a_node2"><a xlink:href="class_goban.html#a84f36324eb9ddc29f522d481f04c13e7" target="_top" xlink:title="Goban::listOfLiberties">
<polygon fill="none" stroke="black" points="158,-95.5 158,-114.5 268,-114.5 268,-95.5 158,-95.5"/>
<text text-anchor="middle" x="213" y="-102.5" font-family="Helvetica,sans-Serif" font-size="10.00">Goban::listOfLiberties</text>
</a>
</g>
</g>
<!-- Node87&#45;&gt;Node88 -->
<g id="edge1" class="edge"><title>Node87&#45;&gt;Node88</title>
<path fill="none" stroke="midnightblue" d="M87.1066,-57.5405C111.767,-66.9116 149.599,-81.2876 177.164,-91.7623"/>
<polygon fill="midnightblue" stroke="midnightblue" points="176.22,-95.1479 186.811,-95.4284 178.707,-88.6044 176.22,-95.1479"/>
</g>
<!-- Node94 -->
<g id="node8" class="node"><title>Node94</title>
<g id="a_node8"><a xlink:href="class_etat.html#aa88987ca54aee676717f05e4570c0aec" target="_top" xlink:title="Etat::setVal">
<polygon fill="none" stroke="black" points="444,-38.5 444,-57.5 512,-57.5 512,-38.5 444,-38.5"/>
<text text-anchor="middle" x="478" y="-45.5" font-family="Helvetica,sans-Serif" font-size="10.00">Etat::setVal</text>
</a>
</g>
</g>
<!-- Node87&#45;&gt;Node94 -->
<g id="edge10" class="edge"><title>Node87&#45;&gt;Node94</title>
<path fill="none" stroke="midnightblue" d="M122.345,-48C206.979,-48 358.908,-48 433.403,-48"/>
<polygon fill="midnightblue" stroke="midnightblue" points="433.815,-51.5001 443.815,-48 433.815,-44.5001 433.815,-51.5001"/>
</g>
<!-- Node96 -->
<g id="node10" class="node"><title>Node96</title>
<g id="a_node10"><a xlink:href="class_goban.html#a29aaf8df380fe614845d48cba057747c" target="_top" xlink:title="Goban::coord">
<polygon fill="none" stroke="black" points="175.5,-0.5 175.5,-19.5 250.5,-19.5 250.5,-0.5 175.5,-0.5"/>
<text text-anchor="middle" x="213" y="-7.5" font-family="Helvetica,sans-Serif" font-size="10.00">Goban::coord</text>
</a>
</g>
</g>
<!-- Node87&#45;&gt;Node96 -->
<g id="edge9" class="edge"><title>Node87&#45;&gt;Node96</title>
<path fill="none" stroke="midnightblue" d="M99.8513,-38.411C119.856,-33.3431 144.578,-27.0802 165.716,-21.7254"/>
<polygon fill="midnightblue" stroke="midnightblue" points="166.622,-25.1065 175.456,-19.2579 164.902,-18.3209 166.622,-25.1065"/>
</g>
<!-- Node89 -->
<g id="node3" class="node"><title>Node89</title>
<g id="a_node3"><a xlink:href="class_etat.html#aa25e66b110bc835523819392435e78c6" target="_top" xlink:title="Etat::getX">
<polygon fill="none" stroke="black" points="326.5,-152.5 326.5,-171.5 385.5,-171.5 385.5,-152.5 326.5,-152.5"/>
<text text-anchor="middle" x="356" y="-159.5" font-family="Helvetica,sans-Serif" font-size="10.00">Etat::getX</text>
</a>
</g>
</g>
<!-- Node88&#45;&gt;Node89 -->
<g id="edge2" class="edge"><title>Node88&#45;&gt;Node89</title>
<path fill="none" stroke="midnightblue" d="M236.083,-114.636C254.236,-122.481 280.671,-133.734 304,-143 308.87,-144.934 314.022,-146.922 319.108,-148.849"/>
<polygon fill="midnightblue" stroke="midnightblue" points="318.118,-152.216 328.71,-152.451 320.577,-145.662 318.118,-152.216"/>
</g>
<!-- Node90 -->
<g id="node4" class="node"><title>Node90</title>
<g id="a_node4"><a xlink:href="class_etat.html#a3e3e915f2261c83989a983e84b1273c1" target="_top" xlink:title="Etat::getY">
<polygon fill="none" stroke="black" points="325.5,-114.5 325.5,-133.5 386.5,-133.5 386.5,-114.5 325.5,-114.5"/>
<text text-anchor="middle" x="356" y="-121.5" font-family="Helvetica,sans-Serif" font-size="10.00">Etat::getY</text>
</a>
</g>
</g>
<!-- Node88&#45;&gt;Node90 -->
<g id="edge3" class="edge"><title>Node88&#45;&gt;Node90</title>
<path fill="none" stroke="midnightblue" d="M268.111,-112.292C283.734,-114.397 300.494,-116.655 315.086,-118.622"/>
<polygon fill="midnightblue" stroke="midnightblue" points="314.903,-122.128 325.281,-119.995 315.838,-115.191 314.903,-122.128"/>
</g>
<!-- Node91 -->
<g id="node5" class="node"><title>Node91</title>
<g id="a_node5"><a xlink:href="class_goban.html#a0e2596110cdbb9b007b2b2fd8d5a9973" target="_top" xlink:title="Goban::DefineStone">
<polygon fill="none" stroke="black" points="304,-76.5 304,-95.5 408,-95.5 408,-76.5 304,-76.5"/>
<text text-anchor="middle" x="356" y="-83.5" font-family="Helvetica,sans-Serif" font-size="10.00">Goban::DefineStone</text>
</a>
</g>
</g>
<!-- Node88&#45;&gt;Node91 -->
<g id="edge4" class="edge"><title>Node88&#45;&gt;Node91</title>
<path fill="none" stroke="midnightblue" d="M268.111,-97.7084C276.393,-96.5924 284.994,-95.4334 293.423,-94.2977"/>
<polygon fill="midnightblue" stroke="midnightblue" points="294.142,-97.7325 303.585,-92.9283 293.207,-90.7952 294.142,-97.7325"/>
</g>
<!-- Node92 -->
<g id="node6" class="node"><title>Node92</title>
<g id="a_node6"><a xlink:href="class_etat.html#ac020c4fe222274ac849a03fc8f19a99a" target="_top" xlink:title="Etat::setX">
<polygon fill="none" stroke="black" points="448.5,-152.5 448.5,-171.5 507.5,-171.5 507.5,-152.5 448.5,-152.5"/>
<text text-anchor="middle" x="478" y="-159.5" font-family="Helvetica,sans-Serif" font-size="10.00">Etat::setX</text>
</a>
</g>
</g>
<!-- Node91&#45;&gt;Node92 -->
<g id="edge5" class="edge"><title>Node91&#45;&gt;Node92</title>
<path fill="none" stroke="midnightblue" d="M389.374,-95.5188C395.81,-98.1008 402.326,-101.246 408,-105 427.402,-117.837 425.727,-128.6 444,-143 445.772,-144.396 447.658,-145.758 449.596,-147.069"/>
<polygon fill="midnightblue" stroke="midnightblue" points="447.895,-150.134 458.234,-152.449 451.596,-144.192 447.895,-150.134"/>
</g>
<!-- Node93 -->
<g id="node7" class="node"><title>Node93</title>
<g id="a_node7"><a xlink:href="class_etat.html#a8a54fc9ecb1b97d84d2f1f259e3bf70e" target="_top" xlink:title="Etat::setY">
<polygon fill="none" stroke="black" points="447.5,-114.5 447.5,-133.5 508.5,-133.5 508.5,-114.5 447.5,-114.5"/>
<text text-anchor="middle" x="478" y="-121.5" font-family="Helvetica,sans-Serif" font-size="10.00">Etat::setY</text>
</a>
</g>
</g>
<!-- Node91&#45;&gt;Node93 -->
<g id="edge6" class="edge"><title>Node91&#45;&gt;Node93</title>
<path fill="none" stroke="midnightblue" d="M387.281,-95.589C402.461,-100.396 421.035,-106.278 437.338,-111.44"/>
<polygon fill="midnightblue" stroke="midnightblue" points="436.554,-114.863 447.144,-114.546 438.668,-108.19 436.554,-114.863"/>
</g>
<!-- Node91&#45;&gt;Node94 -->
<g id="edge7" class="edge"><title>Node91&#45;&gt;Node94</title>
<path fill="none" stroke="midnightblue" d="M387.281,-76.411C402.346,-71.6406 420.754,-65.8112 436.967,-60.6771"/>
<polygon fill="midnightblue" stroke="midnightblue" points="438.252,-63.9416 446.729,-57.5859 436.139,-57.2682 438.252,-63.9416"/>
</g>
<!-- Node95 -->
<g id="node9" class="node"><title>Node95</title>
<g id="a_node9"><a xlink:href="class_goban.html#a579840586df08a58983f6b497979344b" target="_top" xlink:title="Goban::ctoi">
<polygon fill="none" stroke="black" points="444.5,-76.5 444.5,-95.5 511.5,-95.5 511.5,-76.5 444.5,-76.5"/>
<text text-anchor="middle" x="478" y="-83.5" font-family="Helvetica,sans-Serif" font-size="10.00">Goban::ctoi</text>
</a>
</g>
</g>
<!-- Node91&#45;&gt;Node95 -->
<g id="edge8" class="edge"><title>Node91&#45;&gt;Node95</title>
<path fill="none" stroke="midnightblue" d="M408.239,-86C416.934,-86 425.881,-86 434.326,-86"/>
<polygon fill="midnightblue" stroke="midnightblue" points="434.328,-89.5001 444.328,-86 434.328,-82.5001 434.328,-89.5001"/>
</g>
</g>
</svg>
