<?xml version="1.0" encoding="UTF-8" standalone="no"?>
<!DOCTYPE svg PUBLIC "-//W3C//DTD SVG 1.1//EN"
 "http://www.w3.org/Graphics/SVG/1.1/DTD/svg11.dtd">
<!-- Generated by graphviz version 2.38.0 (20140413.2041)
 -->
<!-- Title: Goban::eliminateOppGroups Pages: 1 -->
<svg width="696pt" height="180pt"
 viewBox="0.00 0.00 696.00 180.00" xmlns="http://www.w3.org/2000/svg" xmlns:xlink="http://www.w3.org/1999/xlink">
<g id="graph0" class="graph" transform="scale(1 1) rotate(0) translate(4 176)">
<title>Goban::eliminateOppGroups</title>
<!-- Node107 -->
<g id="node1" class="node"><title>Node107</title>
<polygon fill="#bfbfbf" stroke="black" points="0,-38.5 0,-57.5 140,-57.5 140,-38.5 0,-38.5"/>
<text text-anchor="middle" x="70" y="-45.5" font-family="Helvetica,sans-Serif" font-size="10.00">Goban::eliminateOppGroups</text>
</g>
<!-- Node108 -->
<g id="node2" class="node"><title>Node108</title>
<g id="a_node2"><a xlink:href="class_goban.html#a1ec70508987f66afff5f8df381731fac" target="_top" xlink:title="Goban::eliminateGroups">
<polygon fill="none" stroke="black" points="176,-38.5 176,-57.5 298,-57.5 298,-38.5 176,-38.5"/>
<text text-anchor="middle" x="237" y="-45.5" font-family="Helvetica,sans-Serif" font-size="10.00">Goban::eliminateGroups</text>
</a>
</g>
</g>
<!-- Node107&#45;&gt;Node108 -->
<g id="edge1" class="edge"><title>Node107&#45;&gt;Node108</title>
<path fill="none" stroke="midnightblue" d="M140.019,-48C148.494,-48 157.165,-48 165.66,-48"/>
<polygon fill="midnightblue" stroke="midnightblue" points="165.91,-51.5001 175.91,-48 165.91,-44.5001 165.91,-51.5001"/>
</g>
<!-- Node109 -->
<g id="node3" class="node"><title>Node109</title>
<g id="a_node3"><a xlink:href="class_goban.html#a84f36324eb9ddc29f522d481f04c13e7" target="_top" xlink:title="Goban::listOfLiberties">
<polygon fill="none" stroke="black" points="334,-95.5 334,-114.5 444,-114.5 444,-95.5 334,-95.5"/>
<text text-anchor="middle" x="389" y="-102.5" font-family="Helvetica,sans-Serif" font-size="10.00">Goban::listOfLiberties</text>
</a>
</g>
</g>
<!-- Node108&#45;&gt;Node109 -->
<g id="edge2" class="edge"><title>Node108&#45;&gt;Node109</title>
<path fill="none" stroke="midnightblue" d="M263.107,-57.5405C287.767,-66.9116 325.599,-81.2876 353.164,-91.7623"/>
<polygon fill="midnightblue" stroke="midnightblue" points="352.22,-95.1479 362.811,-95.4284 354.707,-88.6044 352.22,-95.1479"/>
</g>
<!-- Node115 -->
<g id="node9" class="node"><title>Node115</title>
<g id="a_node9"><a xlink:href="class_etat.html#aa88987ca54aee676717f05e4570c0aec" target="_top" xlink:title="Etat::setVal">
<polygon fill="none" stroke="black" points="620,-38.5 620,-57.5 688,-57.5 688,-38.5 620,-38.5"/>
<text text-anchor="middle" x="654" y="-45.5" font-family="Helvetica,sans-Serif" font-size="10.00">Etat::setVal</text>
</a>
</g>
</g>
<!-- Node108&#45;&gt;Node115 -->
<g id="edge11" class="edge"><title>Node108&#45;&gt;Node115</title>
<path fill="none" stroke="midnightblue" d="M298.345,-48C382.979,-48 534.908,-48 609.403,-48"/>
<polygon fill="midnightblue" stroke="midnightblue" points="609.815,-51.5001 619.815,-48 609.815,-44.5001 609.815,-51.5001"/>
</g>
<!-- Node117 -->
<g id="node11" class="node"><title>Node117</title>
<g id="a_node11"><a xlink:href="class_goban.html#a29aaf8df380fe614845d48cba057747c" target="_top" xlink:title="Goban::coord">
<polygon fill="none" stroke="black" points="351.5,-0.5 351.5,-19.5 426.5,-19.5 426.5,-0.5 351.5,-0.5"/>
<text text-anchor="middle" x="389" y="-7.5" font-family="Helvetica,sans-Serif" font-size="10.00">Goban::coord</text>
</a>
</g>
</g>
<!-- Node108&#45;&gt;Node117 -->
<g id="edge10" class="edge"><title>Node108&#45;&gt;Node117</title>
<path fill="none" stroke="midnightblue" d="M275.851,-38.411C295.856,-33.3431 320.578,-27.0802 341.716,-21.7254"/>
<polygon fill="midnightblue" stroke="midnightblue" points="342.622,-25.1065 351.456,-19.2579 340.902,-18.3209 342.622,-25.1065"/>
</g>
<!-- Node110 -->
<g id="node4" class="node"><title>Node110</title>
<g id="a_node4"><a xlink:href="class_etat.html#aa25e66b110bc835523819392435e78c6" target="_top" xlink:title="Etat::getX">
<polygon fill="none" stroke="black" points="502.5,-152.5 502.5,-171.5 561.5,-171.5 561.5,-152.5 502.5,-152.5"/>
<text text-anchor="middle" x="532" y="-159.5" font-family="Helvetica,sans-Serif" font-size="10.00">Etat::getX</text>
</a>
</g>
</g>
<!-- Node109&#45;&gt;Node110 -->
<g id="edge3" class="edge"><title>Node109&#45;&gt;Node110</title>
<path fill="none" stroke="midnightblue" d="M412.083,-114.636C430.236,-122.481 456.671,-133.734 480,-143 484.87,-144.934 490.022,-146.922 495.108,-148.849"/>
<polygon fill="midnightblue" stroke="midnightblue" points="494.118,-152.216 504.71,-152.451 496.577,-145.662 494.118,-152.216"/>
</g>
<!-- Node111 -->
<g id="node5" class="node"><title>Node111</title>
<g id="a_node5"><a xlink:href="class_etat.html#a3e3e915f2261c83989a983e84b1273c1" target="_top" xlink:title="Etat::getY">
<polygon fill="none" stroke="black" points="501.5,-114.5 501.5,-133.5 562.5,-133.5 562.5,-114.5 501.5,-114.5"/>
<text text-anchor="middle" x="532" y="-121.5" font-family="Helvetica,sans-Serif" font-size="10.00">Etat::getY</text>
</a>
</g>
</g>
<!-- Node109&#45;&gt;Node111 -->
<g id="edge4" class="edge"><title>Node109&#45;&gt;Node111</title>
<path fill="none" stroke="midnightblue" d="M444.111,-112.292C459.734,-114.397 476.494,-116.655 491.086,-118.622"/>
<polygon fill="midnightblue" stroke="midnightblue" points="490.903,-122.128 501.281,-119.995 491.838,-115.191 490.903,-122.128"/>
</g>
<!-- Node112 -->
<g id="node6" class="node"><title>Node112</title>
<g id="a_node6"><a xlink:href="class_goban.html#a0e2596110cdbb9b007b2b2fd8d5a9973" target="_top" xlink:title="Goban::DefineStone">
<polygon fill="none" stroke="black" points="480,-76.5 480,-95.5 584,-95.5 584,-76.5 480,-76.5"/>
<text text-anchor="middle" x="532" y="-83.5" font-family="Helvetica,sans-Serif" font-size="10.00">Goban::DefineStone</text>
</a>
</g>
</g>
<!-- Node109&#45;&gt;Node112 -->
<g id="edge5" class="edge"><title>Node109&#45;&gt;Node112</title>
<path fill="none" stroke="midnightblue" d="M444.111,-97.7084C452.393,-96.5924 460.994,-95.4334 469.423,-94.2977"/>
<polygon fill="midnightblue" stroke="midnightblue" points="470.142,-97.7325 479.585,-92.9283 469.207,-90.7952 470.142,-97.7325"/>
</g>
<!-- Node113 -->
<g id="node7" class="node"><title>Node113</title>
<g id="a_node7"><a xlink:href="class_etat.html#ac020c4fe222274ac849a03fc8f19a99a" target="_top" xlink:title="Etat::setX">
<polygon fill="none" stroke="black" points="624.5,-152.5 624.5,-171.5 683.5,-171.5 683.5,-152.5 624.5,-152.5"/>
<text text-anchor="middle" x="654" y="-159.5" font-family="Helvetica,sans-Serif" font-size="10.00">Etat::setX</text>
</a>
</g>
</g>
<!-- Node112&#45;&gt;Node113 -->
<g id="edge6" class="edge"><title>Node112&#45;&gt;Node113</title>
<path fill="none" stroke="midnightblue" d="M565.374,-95.5188C571.81,-98.1008 578.326,-101.246 584,-105 603.402,-117.837 601.727,-128.6 620,-143 621.772,-144.396 623.658,-145.758 625.596,-147.069"/>
<polygon fill="midnightblue" stroke="midnightblue" points="623.895,-150.134 634.234,-152.449 627.596,-144.192 623.895,-150.134"/>
</g>
<!-- Node114 -->
<g id="node8" class="node"><title>Node114</title>
<g id="a_node8"><a xlink:href="class_etat.html#a8a54fc9ecb1b97d84d2f1f259e3bf70e" target="_top" xlink:title="Etat::setY">
<polygon fill="none" stroke="black" points="623.5,-114.5 623.5,-133.5 684.5,-133.5 684.5,-114.5 623.5,-114.5"/>
<text text-anchor="middle" x="654" y="-121.5" font-family="Helvetica,sans-Serif" font-size="10.00">Etat::setY</text>
</a>
</g>
</g>
<!-- Node112&#45;&gt;Node114 -->
<g id="edge7" class="edge"><title>Node112&#45;&gt;Node114</title>
<path fill="none" stroke="midnightblue" d="M563.281,-95.589C578.461,-100.396 597.035,-106.278 613.338,-111.44"/>
<polygon fill="midnightblue" stroke="midnightblue" points="612.554,-114.863 623.144,-114.546 614.668,-108.19 612.554,-114.863"/>
</g>
<!-- Node112&#45;&gt;Node115 -->
<g id="edge8" class="edge"><title>Node112&#45;&gt;Node115</title>
<path fill="none" stroke="midnightblue" d="M563.281,-76.411C578.346,-71.6406 596.754,-65.8112 612.967,-60.6771"/>
<polygon fill="midnightblue" stroke="midnightblue" points="614.252,-63.9416 622.729,-57.5859 612.139,-57.2682 614.252,-63.9416"/>
</g>
<!-- Node116 -->
<g id="node10" class="node"><title>Node116</title>
<g id="a_node10"><a xlink:href="class_goban.html#a579840586df08a58983f6b497979344b" target="_top" xlink:title="Goban::ctoi">
<polygon fill="none" stroke="black" points="620.5,-76.5 620.5,-95.5 687.5,-95.5 687.5,-76.5 620.5,-76.5"/>
<text text-anchor="middle" x="654" y="-83.5" font-family="Helvetica,sans-Serif" font-size="10.00">Goban::ctoi</text>
</a>
</g>
</g>
<!-- Node112&#45;&gt;Node116 -->
<g id="edge9" class="edge"><title>Node112&#45;&gt;Node116</title>
<path fill="none" stroke="midnightblue" d="M584.239,-86C592.934,-86 601.881,-86 610.326,-86"/>
<polygon fill="midnightblue" stroke="midnightblue" points="610.328,-89.5001 620.328,-86 610.328,-82.5001 610.328,-89.5001"/>
</g>
</g>
</svg>
