<?xml version="1.0" encoding="UTF-8" standalone="no"?>
<!DOCTYPE svg PUBLIC "-//W3C//DTD SVG 1.1//EN"
 "http://www.w3.org/Graphics/SVG/1.1/DTD/svg11.dtd">
<!-- Generated by graphviz version 2.38.0 (20140413.2041)
 -->
<!-- Title: Game_window::click Pages: 1 -->
<svg width="1012pt" height="389pt"
 viewBox="0.00 0.00 1012.00 389.00" xmlns="http://www.w3.org/2000/svg" xmlns:xlink="http://www.w3.org/1999/xlink">
<g id="graph0" class="graph" transform="scale(1 1) rotate(0) translate(4 385)">
<title>Game_window::click</title>
<!-- Node7 -->
<g id="node1" class="node"><title>Node7</title>
<polygon fill="#bfbfbf" stroke="black" points="0,-133.5 0,-152.5 106,-152.5 106,-133.5 0,-133.5"/>
<text text-anchor="middle" x="53" y="-140.5" font-family="Helvetica,sans-Serif" font-size="10.00">Game_window::click</text>
</g>
<!-- Node8 -->
<g id="node2" class="node"><title>Node8</title>
<g id="a_node2"><a xlink:href="class_board.html#ad3c413e185668418d3a16c1fec68e70d" target="_top" xlink:title="Board::getView">
<polygon fill="none" stroke="black" points="150,-171.5 150,-190.5 233,-190.5 233,-171.5 150,-171.5"/>
<text text-anchor="middle" x="191.5" y="-178.5" font-family="Helvetica,sans-Serif" font-size="10.00">Board::getView</text>
</a>
</g>
</g>
<!-- Node7&#45;&gt;Node8 -->
<g id="edge1" class="edge"><title>Node7&#45;&gt;Node8</title>
<path fill="none" stroke="midnightblue" d="M88.4447,-152.589C105.985,-157.472 127.51,-163.464 146.263,-168.685"/>
<polygon fill="midnightblue" stroke="midnightblue" points="145.494,-172.104 156.066,-171.414 147.371,-165.36 145.494,-172.104"/>
</g>
<!-- Node9 -->
<g id="node3" class="node"><title>Node9</title>
<g id="a_node3"><a xlink:href="class_board.html#a5fda73da080403d8a71a8593d581c350" target="_top" xlink:title="Board::click">
<polygon fill="none" stroke="black" points="157.5,-133.5 157.5,-152.5 225.5,-152.5 225.5,-133.5 157.5,-133.5"/>
<text text-anchor="middle" x="191.5" y="-140.5" font-family="Helvetica,sans-Serif" font-size="10.00">Board::click</text>
</a>
</g>
</g>
<!-- Node7&#45;&gt;Node9 -->
<g id="edge2" class="edge"><title>Node7&#45;&gt;Node9</title>
<path fill="none" stroke="midnightblue" d="M106.384,-143C119.91,-143 134.316,-143 147.314,-143"/>
<polygon fill="midnightblue" stroke="midnightblue" points="147.392,-146.5 157.392,-143 147.392,-139.5 147.392,-146.5"/>
</g>
<!-- Node29 -->
<g id="node23" class="node"><title>Node29</title>
<g id="a_node23"><a xlink:href="class_infos.html#a5dee8a8817c307c570db905429480d79" target="_top" xlink:title="Infos::setCurPlayer">
<polygon fill="none" stroke="black" points="142,-38.5 142,-57.5 241,-57.5 241,-38.5 142,-38.5"/>
<text text-anchor="middle" x="191.5" y="-45.5" font-family="Helvetica,sans-Serif" font-size="10.00">Infos::setCurPlayer</text>
</a>
</g>
</g>
<!-- Node7&#45;&gt;Node29 -->
<g id="edge27" class="edge"><title>Node7&#45;&gt;Node29</title>
<path fill="none" stroke="midnightblue" d="M67.8395,-133.368C91.4469,-116.938 139.7,-83.3551 168.142,-63.5605"/>
<polygon fill="midnightblue" stroke="midnightblue" points="170.415,-66.2426 176.624,-57.6574 166.417,-60.4971 170.415,-66.2426"/>
</g>
<!-- Node10 -->
<g id="node4" class="node"><title>Node10</title>
<g id="a_node4"><a xlink:href="class_goban.html#a7dd1a7b53322bde2a831a923059e43a3" target="_top" xlink:title="Goban::move">
<polygon fill="none" stroke="black" points="477,-114.5 477,-133.5 551,-133.5 551,-114.5 477,-114.5"/>
<text text-anchor="middle" x="514" y="-121.5" font-family="Helvetica,sans-Serif" font-size="10.00">Goban::move</text>
</a>
</g>
</g>
<!-- Node9&#45;&gt;Node10 -->
<g id="edge3" class="edge"><title>Node9&#45;&gt;Node10</title>
<path fill="none" stroke="midnightblue" d="M225.692,-145.017C269.591,-147.224 349.312,-149.634 417,-143 433.367,-141.396 451.082,-138.288 466.786,-135.044"/>
<polygon fill="midnightblue" stroke="midnightblue" points="467.734,-138.42 476.78,-132.906 466.27,-131.575 467.734,-138.42"/>
</g>
<!-- Node15 -->
<g id="node9" class="node"><title>Node15</title>
<g id="a_node9"><a xlink:href="class_goban.html#a8584a53688e7bcf9de7c4cf48454acdc" target="_top" xlink:title="Goban::rechercheGroupes">
<polygon fill="none" stroke="black" points="281.5,-114.5 281.5,-133.5 412.5,-133.5 412.5,-114.5 281.5,-114.5"/>
<text text-anchor="middle" x="347" y="-121.5" font-family="Helvetica,sans-Serif" font-size="10.00">Goban::rechercheGroupes</text>
</a>
</g>
</g>
<!-- Node9&#45;&gt;Node15 -->
<g id="edge9" class="edge"><title>Node9&#45;&gt;Node15</title>
<path fill="none" stroke="midnightblue" d="M225.807,-138.877C239.116,-137.23 255.024,-135.261 270.841,-133.303"/>
<polygon fill="midnightblue" stroke="midnightblue" points="271.7,-136.724 281.194,-132.022 270.84,-129.777 271.7,-136.724"/>
</g>
<!-- Node16 -->
<g id="node10" class="node"><title>Node16</title>
<g id="a_node10"><a xlink:href="class_goban.html#aefd43ab2cf0746f2f8c653d825bf080c" target="_top" xlink:title="Goban::afficheGroupes">
<polygon fill="none" stroke="black" points="289,-76.5 289,-95.5 405,-95.5 405,-76.5 289,-76.5"/>
<text text-anchor="middle" x="347" y="-83.5" font-family="Helvetica,sans-Serif" font-size="10.00">Goban::afficheGroupes</text>
</a>
</g>
</g>
<!-- Node9&#45;&gt;Node16 -->
<g id="edge10" class="edge"><title>Node9&#45;&gt;Node16</title>
<path fill="none" stroke="midnightblue" d="M211.617,-133.383C228.52,-125.127 253.996,-113.284 277,-105 283.519,-102.652 290.472,-100.426 297.361,-98.3794"/>
<polygon fill="midnightblue" stroke="midnightblue" points="298.701,-101.636 307.349,-95.5163 296.772,-94.9072 298.701,-101.636"/>
</g>
<!-- Node17 -->
<g id="node11" class="node"><title>Node17</title>
<g id="a_node11"><a xlink:href="class_goban.html#a7858b815885e4af36f05f9d26182cb07" target="_top" xlink:title="Goban::eliminateOppGroups">
<polygon fill="none" stroke="black" points="277,-247.5 277,-266.5 417,-266.5 417,-247.5 277,-247.5"/>
<text text-anchor="middle" x="347" y="-254.5" font-family="Helvetica,sans-Serif" font-size="10.00">Goban::eliminateOppGroups</text>
</a>
</g>
</g>
<!-- Node9&#45;&gt;Node17 -->
<g id="edge11" class="edge"><title>Node9&#45;&gt;Node17</title>
<path fill="none" stroke="midnightblue" d="M225.387,-152.581C230.946,-155.095 236.398,-158.199 241,-162 264.101,-181.082 255.188,-198.457 277,-219 287.393,-228.788 300.783,-236.912 312.998,-243.101"/>
<polygon fill="midnightblue" stroke="midnightblue" points="311.512,-246.271 322.041,-247.453 314.548,-239.963 311.512,-246.271"/>
</g>
<!-- Node26 -->
<g id="node20" class="node"><title>Node26</title>
<g id="a_node20"><a xlink:href="class_board.html#a841a248dac4743611ba1825afd5d1297" target="_top" xlink:title="Board::load">
<polygon fill="none" stroke="black" points="314,-190.5 314,-209.5 380,-209.5 380,-190.5 314,-190.5"/>
<text text-anchor="middle" x="347" y="-197.5" font-family="Helvetica,sans-Serif" font-size="10.00">Board::load</text>
</a>
</g>
</g>
<!-- Node9&#45;&gt;Node26 -->
<g id="edge23" class="edge"><title>Node9&#45;&gt;Node26</title>
<path fill="none" stroke="midnightblue" d="M217.102,-152.634C240.965,-161.974 274.008,-174.896 277,-176 287.099,-179.727 298.086,-183.621 308.262,-187.161"/>
<polygon fill="midnightblue" stroke="midnightblue" points="307.12,-190.469 317.715,-190.43 309.408,-183.854 307.12,-190.469"/>
</g>
<!-- Node11 -->
<g id="node5" class="node"><title>Node11</title>
<g id="a_node5"><a xlink:href="class_goban.html#a6c4b62a9469b3876d250ab94bcd562e5" target="_top" xlink:title="Goban::eliminateOppositeKO">
<polygon fill="none" stroke="black" points="757,-95.5 757,-114.5 900,-114.5 900,-95.5 757,-95.5"/>
<text text-anchor="middle" x="828.5" y="-102.5" font-family="Helvetica,sans-Serif" font-size="10.00">Goban::eliminateOppositeKO</text>
</a>
</g>
</g>
<!-- Node10&#45;&gt;Node11 -->
<g id="edge4" class="edge"><title>Node10&#45;&gt;Node11</title>
<path fill="none" stroke="midnightblue" d="M551.153,-121.802C598.637,-118.915 683.382,-113.762 746.549,-109.922"/>
<polygon fill="midnightblue" stroke="midnightblue" points="747.119,-113.394 756.888,-109.293 746.694,-106.407 747.119,-113.394"/>
</g>
<!-- Node12 -->
<g id="node6" class="node"><title>Node12</title>
<g id="a_node6"><a xlink:href="class_etat.html#aa88987ca54aee676717f05e4570c0aec" target="_top" xlink:title="Etat::setVal">
<polygon fill="none" stroke="black" points="936,-171.5 936,-190.5 1004,-190.5 1004,-171.5 936,-171.5"/>
<text text-anchor="middle" x="970" y="-178.5" font-family="Helvetica,sans-Serif" font-size="10.00">Etat::setVal</text>
</a>
</g>
</g>
<!-- Node10&#45;&gt;Node12 -->
<g id="edge7" class="edge"><title>Node10&#45;&gt;Node12</title>
<path fill="none" stroke="midnightblue" d="M551.004,-128.52C633.617,-138.892 836.522,-164.367 925.729,-175.567"/>
<polygon fill="midnightblue" stroke="midnightblue" points="925.418,-179.056 935.776,-176.829 926.29,-172.11 925.418,-179.056"/>
</g>
<!-- Node13 -->
<g id="node7" class="node"><title>Node13</title>
<g id="a_node7"><a xlink:href="class_goban.html#a29aaf8df380fe614845d48cba057747c" target="_top" xlink:title="Goban::coord">
<polygon fill="none" stroke="black" points="628.5,-171.5 628.5,-190.5 703.5,-190.5 703.5,-171.5 628.5,-171.5"/>
<text text-anchor="middle" x="666" y="-178.5" font-family="Helvetica,sans-Serif" font-size="10.00">Goban::coord</text>
</a>
</g>
</g>
<!-- Node10&#45;&gt;Node13 -->
<g id="edge6" class="edge"><title>Node10&#45;&gt;Node13</title>
<path fill="none" stroke="midnightblue" d="M540.107,-133.541C564.767,-142.912 602.599,-157.288 630.164,-167.762"/>
<polygon fill="midnightblue" stroke="midnightblue" points="629.22,-171.148 639.811,-171.428 631.707,-164.604 629.22,-171.148"/>
</g>
<!-- Node14 -->
<g id="node8" class="node"><title>Node14</title>
<g id="a_node8"><a xlink:href="class_history.html#a90222df7f73ae9cfda56bdb66cb1985e" target="_top" xlink:title="Add new state in history. ">
<polygon fill="none" stroke="black" points="631.5,-57.5 631.5,-76.5 700.5,-76.5 700.5,-57.5 631.5,-57.5"/>
<text text-anchor="middle" x="666" y="-64.5" font-family="Helvetica,sans-Serif" font-size="10.00">History::add</text>
</a>
</g>
</g>
<!-- Node10&#45;&gt;Node14 -->
<g id="edge8" class="edge"><title>Node10&#45;&gt;Node14</title>
<path fill="none" stroke="midnightblue" d="M540.107,-114.459C564.767,-105.088 602.599,-90.7124 630.164,-80.2377"/>
<polygon fill="midnightblue" stroke="midnightblue" points="631.707,-83.3956 639.811,-76.5716 629.22,-76.8521 631.707,-83.3956"/>
</g>
<!-- Node11&#45;&gt;Node12 -->
<g id="edge5" class="edge"><title>Node11&#45;&gt;Node12</title>
<path fill="none" stroke="midnightblue" d="M864.839,-114.6C876.374,-118.365 889.031,-123.192 900,-129 918.486,-138.789 937.307,-153.343 950.613,-164.567"/>
<polygon fill="midnightblue" stroke="midnightblue" points="948.644,-167.491 958.501,-171.378 953.219,-162.193 948.644,-167.491"/>
</g>
<!-- Node18 -->
<g id="node12" class="node"><title>Node18</title>
<g id="a_node12"><a xlink:href="class_goban.html#a1ec70508987f66afff5f8df381731fac" target="_top" xlink:title="Goban::eliminateGroups">
<polygon fill="none" stroke="black" points="453,-266.5 453,-285.5 575,-285.5 575,-266.5 453,-266.5"/>
<text text-anchor="middle" x="514" y="-273.5" font-family="Helvetica,sans-Serif" font-size="10.00">Goban::eliminateGroups</text>
</a>
</g>
</g>
<!-- Node17&#45;&gt;Node18 -->
<g id="edge12" class="edge"><title>Node17&#45;&gt;Node18</title>
<path fill="none" stroke="midnightblue" d="M417.019,-264.948C425.588,-265.934 434.356,-266.944 442.94,-267.932"/>
<polygon fill="midnightblue" stroke="midnightblue" points="442.575,-271.413 452.91,-269.081 443.376,-264.459 442.575,-271.413"/>
</g>
<!-- Node18&#45;&gt;Node12 -->
<g id="edge22" class="edge"><title>Node18&#45;&gt;Node12</title>
<path fill="none" stroke="midnightblue" d="M560.61,-266.456C648.445,-248.077 839.965,-208.001 925.836,-190.032"/>
<polygon fill="midnightblue" stroke="midnightblue" points="926.699,-193.428 935.77,-187.953 925.265,-186.576 926.699,-193.428"/>
</g>
<!-- Node18&#45;&gt;Node13 -->
<g id="edge21" class="edge"><title>Node18&#45;&gt;Node13</title>
<path fill="none" stroke="midnightblue" d="M557.382,-266.489C563.628,-264.006 569.726,-260.894 575,-257 597.614,-240.304 589.352,-222.93 611,-205 615.657,-201.143 621.031,-197.79 626.547,-194.913"/>
<polygon fill="midnightblue" stroke="midnightblue" points="628.311,-197.951 635.859,-190.516 625.322,-191.621 628.311,-197.951"/>
</g>
<!-- Node19 -->
<g id="node13" class="node"><title>Node19</title>
<g id="a_node13"><a xlink:href="class_goban.html#a84f36324eb9ddc29f522d481f04c13e7" target="_top" xlink:title="Goban::listOfLiberties">
<polygon fill="none" stroke="black" points="611,-276.5 611,-295.5 721,-295.5 721,-276.5 611,-276.5"/>
<text text-anchor="middle" x="666" y="-283.5" font-family="Helvetica,sans-Serif" font-size="10.00">Goban::listOfLiberties</text>
</a>
</g>
</g>
<!-- Node18&#45;&gt;Node19 -->
<g id="edge13" class="edge"><title>Node18&#45;&gt;Node19</title>
<path fill="none" stroke="midnightblue" d="M575.146,-280.01C583.491,-280.566 592.09,-281.139 600.51,-281.701"/>
<polygon fill="midnightblue" stroke="midnightblue" points="600.45,-285.204 610.661,-282.377 600.916,-278.22 600.45,-285.204"/>
</g>
<!-- Node20 -->
<g id="node14" class="node"><title>Node20</title>
<g id="a_node14"><a xlink:href="class_etat.html#aa25e66b110bc835523819392435e78c6" target="_top" xlink:title="Etat::getX">
<polygon fill="none" stroke="black" points="799,-285.5 799,-304.5 858,-304.5 858,-285.5 799,-285.5"/>
<text text-anchor="middle" x="828.5" y="-292.5" font-family="Helvetica,sans-Serif" font-size="10.00">Etat::getX</text>
</a>
</g>
</g>
<!-- Node19&#45;&gt;Node20 -->
<g id="edge14" class="edge"><title>Node19&#45;&gt;Node20</title>
<path fill="none" stroke="midnightblue" d="M721.338,-289.047C743.487,-290.289 768.585,-291.696 788.816,-292.831"/>
<polygon fill="midnightblue" stroke="midnightblue" points="788.73,-296.331 798.91,-293.397 789.122,-289.342 788.73,-296.331"/>
</g>
<!-- Node21 -->
<g id="node15" class="node"><title>Node21</title>
<g id="a_node15"><a xlink:href="class_etat.html#a3e3e915f2261c83989a983e84b1273c1" target="_top" xlink:title="Etat::getY">
<polygon fill="none" stroke="black" points="798,-247.5 798,-266.5 859,-266.5 859,-247.5 798,-247.5"/>
<text text-anchor="middle" x="828.5" y="-254.5" font-family="Helvetica,sans-Serif" font-size="10.00">Etat::getY</text>
</a>
</g>
</g>
<!-- Node19&#45;&gt;Node21 -->
<g id="edge15" class="edge"><title>Node19&#45;&gt;Node21</title>
<path fill="none" stroke="midnightblue" d="M719.999,-276.424C742.182,-272.416 767.519,-267.838 788.021,-264.133"/>
<polygon fill="midnightblue" stroke="midnightblue" points="788.741,-267.56 797.96,-262.338 787.497,-260.671 788.741,-267.56"/>
</g>
<!-- Node22 -->
<g id="node16" class="node"><title>Node22</title>
<g id="a_node16"><a xlink:href="class_goban.html#a0e2596110cdbb9b007b2b2fd8d5a9973" target="_top" xlink:title="Goban::DefineStone">
<polygon fill="none" stroke="black" points="776.5,-323.5 776.5,-342.5 880.5,-342.5 880.5,-323.5 776.5,-323.5"/>
<text text-anchor="middle" x="828.5" y="-330.5" font-family="Helvetica,sans-Serif" font-size="10.00">Goban::DefineStone</text>
</a>
</g>
</g>
<!-- Node19&#45;&gt;Node22 -->
<g id="edge16" class="edge"><title>Node19&#45;&gt;Node22</title>
<path fill="none" stroke="midnightblue" d="M696.913,-295.622C714.384,-301.163 736.884,-308.163 757,-314 764.789,-316.26 773.089,-318.578 781.158,-320.783"/>
<polygon fill="midnightblue" stroke="midnightblue" points="780.267,-324.167 790.835,-323.405 782.098,-317.411 780.267,-324.167"/>
</g>
<!-- Node22&#45;&gt;Node12 -->
<g id="edge19" class="edge"><title>Node22&#45;&gt;Node12</title>
<path fill="none" stroke="midnightblue" d="M880.505,-324.757C887.522,-322.107 894.273,-318.61 900,-314 936.835,-284.351 956.149,-229.749 964.252,-200.58"/>
<polygon fill="midnightblue" stroke="midnightblue" points="967.678,-201.311 966.822,-190.751 960.906,-199.541 967.678,-201.311"/>
</g>
<!-- Node23 -->
<g id="node17" class="node"><title>Node23</title>
<g id="a_node17"><a xlink:href="class_etat.html#ac020c4fe222274ac849a03fc8f19a99a" target="_top" xlink:title="Etat::setX">
<polygon fill="none" stroke="black" points="940.5,-323.5 940.5,-342.5 999.5,-342.5 999.5,-323.5 940.5,-323.5"/>
<text text-anchor="middle" x="970" y="-330.5" font-family="Helvetica,sans-Serif" font-size="10.00">Etat::setX</text>
</a>
</g>
</g>
<!-- Node22&#45;&gt;Node23 -->
<g id="edge17" class="edge"><title>Node22&#45;&gt;Node23</title>
<path fill="none" stroke="midnightblue" d="M880.653,-333C896.953,-333 914.715,-333 930.01,-333"/>
<polygon fill="midnightblue" stroke="midnightblue" points="930.156,-336.5 940.156,-333 930.156,-329.5 930.156,-336.5"/>
</g>
<!-- Node24 -->
<g id="node18" class="node"><title>Node24</title>
<g id="a_node18"><a xlink:href="class_etat.html#a8a54fc9ecb1b97d84d2f1f259e3bf70e" target="_top" xlink:title="Etat::setY">
<polygon fill="none" stroke="black" points="939.5,-285.5 939.5,-304.5 1000.5,-304.5 1000.5,-285.5 939.5,-285.5"/>
<text text-anchor="middle" x="970" y="-292.5" font-family="Helvetica,sans-Serif" font-size="10.00">Etat::setY</text>
</a>
</g>
</g>
<!-- Node22&#45;&gt;Node24 -->
<g id="edge18" class="edge"><title>Node22&#45;&gt;Node24</title>
<path fill="none" stroke="midnightblue" d="M865.014,-323.469C876.211,-320.454 888.626,-317.099 900,-314 909.609,-311.382 919.966,-308.541 929.659,-305.873"/>
<polygon fill="midnightblue" stroke="midnightblue" points="930.751,-309.203 939.462,-303.172 928.891,-302.454 930.751,-309.203"/>
</g>
<!-- Node25 -->
<g id="node19" class="node"><title>Node25</title>
<g id="a_node19"><a xlink:href="class_goban.html#a579840586df08a58983f6b497979344b" target="_top" xlink:title="Goban::ctoi">
<polygon fill="none" stroke="black" points="936.5,-361.5 936.5,-380.5 1003.5,-380.5 1003.5,-361.5 936.5,-361.5"/>
<text text-anchor="middle" x="970" y="-368.5" font-family="Helvetica,sans-Serif" font-size="10.00">Goban::ctoi</text>
</a>
</g>
</g>
<!-- Node22&#45;&gt;Node25 -->
<g id="edge20" class="edge"><title>Node22&#45;&gt;Node25</title>
<path fill="none" stroke="midnightblue" d="M864.702,-342.589C883.483,-347.705 906.735,-354.039 926.515,-359.427"/>
<polygon fill="midnightblue" stroke="midnightblue" points="925.637,-362.815 936.205,-362.067 927.477,-356.061 925.637,-362.815"/>
</g>
<!-- Node26&#45;&gt;Node13 -->
<g id="edge25" class="edge"><title>Node26&#45;&gt;Node13</title>
<path fill="none" stroke="midnightblue" d="M380.43,-192.582C401.078,-188.245 428.46,-183.202 453,-181 509.556,-175.924 574.941,-176.966 617.973,-178.596"/>
<polygon fill="midnightblue" stroke="midnightblue" points="618.01,-182.1 628.144,-179.008 618.294,-175.106 618.01,-182.1"/>
</g>
<!-- Node27 -->
<g id="node21" class="node"><title>Node27</title>
<g id="a_node21"><a xlink:href="class_square.html#a5fa0cbfce721c687308eec8e1a029d25" target="_top" xlink:title="Square::setValue">
<polygon fill="none" stroke="black" points="468,-228.5 468,-247.5 560,-247.5 560,-228.5 468,-228.5"/>
<text text-anchor="middle" x="514" y="-235.5" font-family="Helvetica,sans-Serif" font-size="10.00">Square::setValue</text>
</a>
</g>
</g>
<!-- Node26&#45;&gt;Node27 -->
<g id="edge24" class="edge"><title>Node26&#45;&gt;Node27</title>
<path fill="none" stroke="midnightblue" d="M380.205,-207.417C403.324,-212.741 434.964,-220.028 461.56,-226.153"/>
<polygon fill="midnightblue" stroke="midnightblue" points="460.948,-229.604 471.478,-228.437 462.519,-222.782 460.948,-229.604"/>
</g>
<!-- Node28 -->
<g id="node22" class="node"><title>Node28</title>
<g id="a_node22"><a xlink:href="class_etat.html#ac0b81bbcf64cb3cc574e5a9dcdf94382" target="_top" xlink:title="Etat::getVal">
<polygon fill="none" stroke="black" points="480,-190.5 480,-209.5 548,-209.5 548,-190.5 480,-190.5"/>
<text text-anchor="middle" x="514" y="-197.5" font-family="Helvetica,sans-Serif" font-size="10.00">Etat::getVal</text>
</a>
</g>
</g>
<!-- Node26&#45;&gt;Node28 -->
<g id="edge26" class="edge"><title>Node26&#45;&gt;Node28</title>
<path fill="none" stroke="midnightblue" d="M380.205,-200C405.653,-200 441.424,-200 469.429,-200"/>
<polygon fill="midnightblue" stroke="midnightblue" points="469.745,-203.5 479.745,-200 469.745,-196.5 469.745,-203.5"/>
</g>
<!-- Node30 -->
<g id="node24" class="node"><title>Node30</title>
<g id="a_node24"><a xlink:href="class_timer.html#a0289effad7b573c508bc27e405900a23" target="_top" xlink:title="Timer::pause">
<polygon fill="none" stroke="black" points="310.5,-0.5 310.5,-19.5 383.5,-19.5 383.5,-0.5 310.5,-0.5"/>
<text text-anchor="middle" x="347" y="-7.5" font-family="Helvetica,sans-Serif" font-size="10.00">Timer::pause</text>
</a>
</g>
</g>
<!-- Node29&#45;&gt;Node30 -->
<g id="edge28" class="edge"><title>Node29&#45;&gt;Node30</title>
<path fill="none" stroke="midnightblue" d="M231.235,-38.411C252.338,-33.1868 278.571,-26.6925 300.628,-21.2323"/>
<polygon fill="midnightblue" stroke="midnightblue" points="301.569,-24.6051 310.434,-18.8045 299.886,-17.8102 301.569,-24.6051"/>
</g>
<!-- Node31 -->
<g id="node25" class="node"><title>Node31</title>
<g id="a_node25"><a xlink:href="class_timer.html#a84acbe09a8dddae46c997c57a70c5076" target="_top" xlink:title="Timer::play">
<polygon fill="none" stroke="black" points="314.5,-38.5 314.5,-57.5 379.5,-57.5 379.5,-38.5 314.5,-38.5"/>
<text text-anchor="middle" x="347" y="-45.5" font-family="Helvetica,sans-Serif" font-size="10.00">Timer::play</text>
</a>
</g>
</g>
<!-- Node29&#45;&gt;Node31 -->
<g id="edge29" class="edge"><title>Node29&#45;&gt;Node31</title>
<path fill="none" stroke="midnightblue" d="M241.068,-48C261.319,-48 284.61,-48 304.097,-48"/>
<polygon fill="midnightblue" stroke="midnightblue" points="304.195,-51.5001 314.195,-48 304.195,-44.5001 304.195,-51.5001"/>
</g>
</g>
</svg>
