<?xml version="1.0" encoding="UTF-8" standalone="no"?>
<!DOCTYPE svg PUBLIC "-//W3C//DTD SVG 1.1//EN"
 "http://www.w3.org/Graphics/SVG/1.1/DTD/svg11.dtd">
<!-- Generated by graphviz version 2.38.0 (20140413.2041)
 -->
<!-- Title: Goban::legalEvenKO Pages: 1 -->
<svg width="839pt" height="180pt"
 viewBox="0.00 0.00 839.00 180.00" xmlns="http://www.w3.org/2000/svg" xmlns:xlink="http://www.w3.org/1999/xlink">
<g id="graph0" class="graph" transform="scale(1 1) rotate(0) translate(4 176)">
<title>Goban::legalEvenKO</title>
<!-- Node171 -->
<g id="node1" class="node"><title>Node171</title>
<polygon fill="#bfbfbf" stroke="black" points="0,-57.5 0,-76.5 107,-76.5 107,-57.5 0,-57.5"/>
<text text-anchor="middle" x="53.5" y="-64.5" font-family="Helvetica,sans-Serif" font-size="10.00">Goban::legalEvenKO</text>
</g>
<!-- Node172 -->
<g id="node2" class="node"><title>Node172</title>
<g id="a_node2"><a xlink:href="class_goban.html#a8584a53688e7bcf9de7c4cf48454acdc" target="_top" xlink:title="Goban::rechercheGroupes">
<polygon fill="none" stroke="black" points="147.5,-76.5 147.5,-95.5 278.5,-95.5 278.5,-76.5 147.5,-76.5"/>
<text text-anchor="middle" x="213" y="-83.5" font-family="Helvetica,sans-Serif" font-size="10.00">Goban::rechercheGroupes</text>
</a>
</g>
</g>
<!-- Node171&#45;&gt;Node172 -->
<g id="edge1" class="edge"><title>Node171&#45;&gt;Node172</title>
<path fill="none" stroke="midnightblue" d="M107.383,-73.3796C117.035,-74.5439 127.27,-75.7786 137.412,-77.0021"/>
<polygon fill="midnightblue" stroke="midnightblue" points="137.151,-80.4959 147.498,-78.2189 137.99,-73.5463 137.151,-80.4959"/>
</g>
<!-- Node173 -->
<g id="node3" class="node"><title>Node173</title>
<g id="a_node3"><a xlink:href="class_goban.html#a7858b815885e4af36f05f9d26182cb07" target="_top" xlink:title="Goban::eliminateOppGroups">
<polygon fill="none" stroke="black" points="143,-38.5 143,-57.5 283,-57.5 283,-38.5 143,-38.5"/>
<text text-anchor="middle" x="213" y="-45.5" font-family="Helvetica,sans-Serif" font-size="10.00">Goban::eliminateOppGroups</text>
</a>
</g>
</g>
<!-- Node171&#45;&gt;Node173 -->
<g id="edge2" class="edge"><title>Node171&#45;&gt;Node173</title>
<path fill="none" stroke="midnightblue" d="M107.383,-60.6204C115.541,-59.6363 124.115,-58.602 132.698,-57.5666"/>
<polygon fill="midnightblue" stroke="midnightblue" points="133.244,-61.0262 142.753,-56.3537 132.405,-54.0766 133.244,-61.0262"/>
</g>
<!-- Node174 -->
<g id="node4" class="node"><title>Node174</title>
<g id="a_node4"><a xlink:href="class_goban.html#a1ec70508987f66afff5f8df381731fac" target="_top" xlink:title="Goban::eliminateGroups">
<polygon fill="none" stroke="black" points="319,-38.5 319,-57.5 441,-57.5 441,-38.5 319,-38.5"/>
<text text-anchor="middle" x="380" y="-45.5" font-family="Helvetica,sans-Serif" font-size="10.00">Goban::eliminateGroups</text>
</a>
</g>
</g>
<!-- Node173&#45;&gt;Node174 -->
<g id="edge3" class="edge"><title>Node173&#45;&gt;Node174</title>
<path fill="none" stroke="midnightblue" d="M283.019,-48C291.494,-48 300.165,-48 308.66,-48"/>
<polygon fill="midnightblue" stroke="midnightblue" points="308.91,-51.5001 318.91,-48 308.91,-44.5001 308.91,-51.5001"/>
</g>
<!-- Node175 -->
<g id="node5" class="node"><title>Node175</title>
<g id="a_node5"><a xlink:href="class_goban.html#a84f36324eb9ddc29f522d481f04c13e7" target="_top" xlink:title="Goban::listOfLiberties">
<polygon fill="none" stroke="black" points="477,-95.5 477,-114.5 587,-114.5 587,-95.5 477,-95.5"/>
<text text-anchor="middle" x="532" y="-102.5" font-family="Helvetica,sans-Serif" font-size="10.00">Goban::listOfLiberties</text>
</a>
</g>
</g>
<!-- Node174&#45;&gt;Node175 -->
<g id="edge4" class="edge"><title>Node174&#45;&gt;Node175</title>
<path fill="none" stroke="midnightblue" d="M406.107,-57.5405C430.767,-66.9116 468.599,-81.2876 496.164,-91.7623"/>
<polygon fill="midnightblue" stroke="midnightblue" points="495.22,-95.1479 505.811,-95.4284 497.707,-88.6044 495.22,-95.1479"/>
</g>
<!-- Node181 -->
<g id="node11" class="node"><title>Node181</title>
<g id="a_node11"><a xlink:href="class_etat.html#aa88987ca54aee676717f05e4570c0aec" target="_top" xlink:title="Etat::setVal">
<polygon fill="none" stroke="black" points="763,-38.5 763,-57.5 831,-57.5 831,-38.5 763,-38.5"/>
<text text-anchor="middle" x="797" y="-45.5" font-family="Helvetica,sans-Serif" font-size="10.00">Etat::setVal</text>
</a>
</g>
</g>
<!-- Node174&#45;&gt;Node181 -->
<g id="edge13" class="edge"><title>Node174&#45;&gt;Node181</title>
<path fill="none" stroke="midnightblue" d="M441.345,-48C525.979,-48 677.908,-48 752.403,-48"/>
<polygon fill="midnightblue" stroke="midnightblue" points="752.815,-51.5001 762.815,-48 752.815,-44.5001 752.815,-51.5001"/>
</g>
<!-- Node183 -->
<g id="node13" class="node"><title>Node183</title>
<g id="a_node13"><a xlink:href="class_goban.html#a29aaf8df380fe614845d48cba057747c" target="_top" xlink:title="Goban::coord">
<polygon fill="none" stroke="black" points="494.5,-0.5 494.5,-19.5 569.5,-19.5 569.5,-0.5 494.5,-0.5"/>
<text text-anchor="middle" x="532" y="-7.5" font-family="Helvetica,sans-Serif" font-size="10.00">Goban::coord</text>
</a>
</g>
</g>
<!-- Node174&#45;&gt;Node183 -->
<g id="edge12" class="edge"><title>Node174&#45;&gt;Node183</title>
<path fill="none" stroke="midnightblue" d="M418.851,-38.411C438.856,-33.3431 463.578,-27.0802 484.716,-21.7254"/>
<polygon fill="midnightblue" stroke="midnightblue" points="485.622,-25.1065 494.456,-19.2579 483.902,-18.3209 485.622,-25.1065"/>
</g>
<!-- Node176 -->
<g id="node6" class="node"><title>Node176</title>
<g id="a_node6"><a xlink:href="class_etat.html#aa25e66b110bc835523819392435e78c6" target="_top" xlink:title="Etat::getX">
<polygon fill="none" stroke="black" points="645.5,-152.5 645.5,-171.5 704.5,-171.5 704.5,-152.5 645.5,-152.5"/>
<text text-anchor="middle" x="675" y="-159.5" font-family="Helvetica,sans-Serif" font-size="10.00">Etat::getX</text>
</a>
</g>
</g>
<!-- Node175&#45;&gt;Node176 -->
<g id="edge5" class="edge"><title>Node175&#45;&gt;Node176</title>
<path fill="none" stroke="midnightblue" d="M555.083,-114.636C573.236,-122.481 599.671,-133.734 623,-143 627.87,-144.934 633.022,-146.922 638.108,-148.849"/>
<polygon fill="midnightblue" stroke="midnightblue" points="637.118,-152.216 647.71,-152.451 639.577,-145.662 637.118,-152.216"/>
</g>
<!-- Node177 -->
<g id="node7" class="node"><title>Node177</title>
<g id="a_node7"><a xlink:href="class_etat.html#a3e3e915f2261c83989a983e84b1273c1" target="_top" xlink:title="Etat::getY">
<polygon fill="none" stroke="black" points="644.5,-114.5 644.5,-133.5 705.5,-133.5 705.5,-114.5 644.5,-114.5"/>
<text text-anchor="middle" x="675" y="-121.5" font-family="Helvetica,sans-Serif" font-size="10.00">Etat::getY</text>
</a>
</g>
</g>
<!-- Node175&#45;&gt;Node177 -->
<g id="edge6" class="edge"><title>Node175&#45;&gt;Node177</title>
<path fill="none" stroke="midnightblue" d="M587.111,-112.292C602.734,-114.397 619.494,-116.655 634.086,-118.622"/>
<polygon fill="midnightblue" stroke="midnightblue" points="633.903,-122.128 644.281,-119.995 634.838,-115.191 633.903,-122.128"/>
</g>
<!-- Node178 -->
<g id="node8" class="node"><title>Node178</title>
<g id="a_node8"><a xlink:href="class_goban.html#a0e2596110cdbb9b007b2b2fd8d5a9973" target="_top" xlink:title="Goban::DefineStone">
<polygon fill="none" stroke="black" points="623,-76.5 623,-95.5 727,-95.5 727,-76.5 623,-76.5"/>
<text text-anchor="middle" x="675" y="-83.5" font-family="Helvetica,sans-Serif" font-size="10.00">Goban::DefineStone</text>
</a>
</g>
</g>
<!-- Node175&#45;&gt;Node178 -->
<g id="edge7" class="edge"><title>Node175&#45;&gt;Node178</title>
<path fill="none" stroke="midnightblue" d="M587.111,-97.7084C595.393,-96.5924 603.994,-95.4334 612.423,-94.2977"/>
<polygon fill="midnightblue" stroke="midnightblue" points="613.142,-97.7325 622.585,-92.9283 612.207,-90.7952 613.142,-97.7325"/>
</g>
<!-- Node179 -->
<g id="node9" class="node"><title>Node179</title>
<g id="a_node9"><a xlink:href="class_etat.html#ac020c4fe222274ac849a03fc8f19a99a" target="_top" xlink:title="Etat::setX">
<polygon fill="none" stroke="black" points="767.5,-152.5 767.5,-171.5 826.5,-171.5 826.5,-152.5 767.5,-152.5"/>
<text text-anchor="middle" x="797" y="-159.5" font-family="Helvetica,sans-Serif" font-size="10.00">Etat::setX</text>
</a>
</g>
</g>
<!-- Node178&#45;&gt;Node179 -->
<g id="edge8" class="edge"><title>Node178&#45;&gt;Node179</title>
<path fill="none" stroke="midnightblue" d="M708.374,-95.5188C714.81,-98.1008 721.326,-101.246 727,-105 746.402,-117.837 744.727,-128.6 763,-143 764.772,-144.396 766.658,-145.758 768.596,-147.069"/>
<polygon fill="midnightblue" stroke="midnightblue" points="766.895,-150.134 777.234,-152.449 770.596,-144.192 766.895,-150.134"/>
</g>
<!-- Node180 -->
<g id="node10" class="node"><title>Node180</title>
<g id="a_node10"><a xlink:href="class_etat.html#a8a54fc9ecb1b97d84d2f1f259e3bf70e" target="_top" xlink:title="Etat::setY">
<polygon fill="none" stroke="black" points="766.5,-114.5 766.5,-133.5 827.5,-133.5 827.5,-114.5 766.5,-114.5"/>
<text text-anchor="middle" x="797" y="-121.5" font-family="Helvetica,sans-Serif" font-size="10.00">Etat::setY</text>
</a>
</g>
</g>
<!-- Node178&#45;&gt;Node180 -->
<g id="edge9" class="edge"><title>Node178&#45;&gt;Node180</title>
<path fill="none" stroke="midnightblue" d="M706.281,-95.589C721.461,-100.396 740.035,-106.278 756.338,-111.44"/>
<polygon fill="midnightblue" stroke="midnightblue" points="755.554,-114.863 766.144,-114.546 757.668,-108.19 755.554,-114.863"/>
</g>
<!-- Node178&#45;&gt;Node181 -->
<g id="edge10" class="edge"><title>Node178&#45;&gt;Node181</title>
<path fill="none" stroke="midnightblue" d="M706.281,-76.411C721.346,-71.6406 739.754,-65.8112 755.967,-60.6771"/>
<polygon fill="midnightblue" stroke="midnightblue" points="757.252,-63.9416 765.729,-57.5859 755.139,-57.2682 757.252,-63.9416"/>
</g>
<!-- Node182 -->
<g id="node12" class="node"><title>Node182</title>
<g id="a_node12"><a xlink:href="class_goban.html#a579840586df08a58983f6b497979344b" target="_top" xlink:title="Goban::ctoi">
<polygon fill="none" stroke="black" points="763.5,-76.5 763.5,-95.5 830.5,-95.5 830.5,-76.5 763.5,-76.5"/>
<text text-anchor="middle" x="797" y="-83.5" font-family="Helvetica,sans-Serif" font-size="10.00">Goban::ctoi</text>
</a>
</g>
</g>
<!-- Node178&#45;&gt;Node182 -->
<g id="edge11" class="edge"><title>Node178&#45;&gt;Node182</title>
<path fill="none" stroke="midnightblue" d="M727.239,-86C735.934,-86 744.881,-86 753.326,-86"/>
<polygon fill="midnightblue" stroke="midnightblue" points="753.328,-89.5001 763.328,-86 753.328,-82.5001 753.328,-89.5001"/>
</g>
</g>
</svg>
