<?xml version="1.0" encoding="UTF-8" standalone="no"?>
<!DOCTYPE svg PUBLIC "-//W3C//DTD SVG 1.1//EN"
 "http://www.w3.org/Graphics/SVG/1.1/DTD/svg11.dtd">
<!-- Generated by graphviz version 2.38.0 (20140413.2041)
 -->
<!-- Title: Goban::itoc Pages: 1 -->
<svg width="625pt" height="46pt"
 viewBox="0.00 0.00 625.00 46.00" xmlns="http://www.w3.org/2000/svg" xmlns:xlink="http://www.w3.org/1999/xlink">
<g id="graph0" class="graph" transform="scale(1 1) rotate(0) translate(4 42)">
<title>Goban::itoc</title>
<!-- Node166 -->
<g id="node1" class="node"><title>Node166</title>
<polygon fill="#bfbfbf" stroke="black" points="0,-0.5 0,-19.5 67,-19.5 67,-0.5 0,-0.5"/>
<text text-anchor="middle" x="33.5" y="-7.5" font-family="Helvetica,sans-Serif" font-size="10.00">Goban::itoc</text>
</g>
<!-- Node167 -->
<g id="node2" class="node"><title>Node167</title>
<g id="a_node2"><a xlink:href="class_goban.html#a36ab256c9430e070b620052a0f13f051" target="_top" xlink:title="Goban::listFils">
<polygon fill="none" stroke="black" points="103,-0.5 103,-19.5 183,-19.5 183,-0.5 103,-0.5"/>
<text text-anchor="middle" x="143" y="-7.5" font-family="Helvetica,sans-Serif" font-size="10.00">Goban::listFils</text>
</a>
</g>
</g>
<!-- Node166&#45;&gt;Node167 -->
<g id="edge1" class="edge"><title>Node166&#45;&gt;Node167</title>
<path fill="none" stroke="midnightblue" d="M77.1087,-10C85.5642,-10 94.4045,-10 102.742,-10"/>
<polygon fill="midnightblue" stroke="midnightblue" points="77.0453,-6.5001 67.0453,-10 77.0452,-13.5001 77.0453,-6.5001"/>
</g>
<!-- Node168 -->
<g id="node3" class="node"><title>Node168</title>
<g id="a_node3"><a xlink:href="class_arbre.html#acd12cae4820bb7780a628716a0615d10" target="_top" xlink:title="Arbre::Tsumego">
<polygon fill="none" stroke="black" points="219,-0.5 219,-19.5 305,-19.5 305,-0.5 219,-0.5"/>
<text text-anchor="middle" x="262" y="-7.5" font-family="Helvetica,sans-Serif" font-size="10.00">Arbre::Tsumego</text>
</a>
</g>
</g>
<!-- Node167&#45;&gt;Node168 -->
<g id="edge2" class="edge"><title>Node167&#45;&gt;Node168</title>
<path fill="none" stroke="midnightblue" d="M193.413,-10C201.862,-10 210.57,-10 218.809,-10"/>
<polygon fill="midnightblue" stroke="midnightblue" points="193.285,-6.5001 183.285,-10 193.285,-13.5001 193.285,-6.5001"/>
</g>
<!-- Node168&#45;&gt;Node168 -->
<g id="edge3" class="edge"><title>Node168&#45;&gt;Node168</title>
<path fill="none" stroke="midnightblue" d="M240.051,-29.0292C241.248,-34.128 248.564,-38 262,-38 282.973,-38 289.035,-28.5653 280.187,-19.7571"/>
<polygon fill="midnightblue" stroke="midnightblue" points="243.296,-30.3393 243.813,-19.7571 236.81,-27.7074 243.296,-30.3393"/>
</g>
<!-- Node169 -->
<g id="node4" class="node"><title>Node169</title>
<g id="a_node4"><a xlink:href="class_game__window.html#a72304de2044c29f1373037bd818f674f" target="_top" xlink:title="Game_window::keyPressed">
<polygon fill="none" stroke="black" points="341,-0.5 341,-19.5 478,-19.5 478,-0.5 341,-0.5"/>
<text text-anchor="middle" x="409.5" y="-7.5" font-family="Helvetica,sans-Serif" font-size="10.00">Game_window::keyPressed</text>
</a>
</g>
</g>
<!-- Node168&#45;&gt;Node169 -->
<g id="edge4" class="edge"><title>Node168&#45;&gt;Node169</title>
<path fill="none" stroke="midnightblue" d="M315.302,-10C323.559,-10 332.197,-10 340.744,-10"/>
<polygon fill="midnightblue" stroke="midnightblue" points="315.085,-6.5001 305.085,-10 315.085,-13.5001 315.085,-6.5001"/>
</g>
<!-- Node170 -->
<g id="node5" class="node"><title>Node170</title>
<g id="a_node5"><a xlink:href="class_game__window.html#aec21feecf4c72d73c13d82aa12df6930" target="_top" xlink:title="Game_window::Run">
<polygon fill="none" stroke="black" points="514,-0.5 514,-19.5 617,-19.5 617,-0.5 514,-0.5"/>
<text text-anchor="middle" x="565.5" y="-7.5" font-family="Helvetica,sans-Serif" font-size="10.00">Game_window::Run</text>
</a>
</g>
</g>
<!-- Node169&#45;&gt;Node170 -->
<g id="edge5" class="edge"><title>Node169&#45;&gt;Node170</title>
<path fill="none" stroke="midnightblue" d="M488.186,-10C496.84,-10 505.484,-10 513.678,-10"/>
<polygon fill="midnightblue" stroke="midnightblue" points="488.047,-6.5001 478.047,-10 488.047,-13.5001 488.047,-6.5001"/>
</g>
</g>
</svg>
