<?xml version="1.0" encoding="UTF-8" standalone="no"?>
<!DOCTYPE svg PUBLIC "-//W3C//DTD SVG 1.1//EN"
 "http://www.w3.org/Graphics/SVG/1.1/DTD/svg11.dtd">
<!-- Generated by graphviz version 2.38.0 (20140413.2041)
 -->
<!-- Title: Goban::eliminateOppGroups Pages: 1 -->
<svg width="725pt" height="142pt"
 viewBox="0.00 0.00 725.00 142.00" xmlns="http://www.w3.org/2000/svg" xmlns:xlink="http://www.w3.org/1999/xlink">
<g id="graph0" class="graph" transform="scale(1 1) rotate(0) translate(4 138)">
<title>Goban::eliminateOppGroups</title>
<!-- Node118 -->
<g id="node1" class="node"><title>Node118</title>
<polygon fill="#bfbfbf" stroke="black" points="0,-57.5 0,-76.5 140,-76.5 140,-57.5 0,-57.5"/>
<text text-anchor="middle" x="70" y="-64.5" font-family="Helvetica,sans-Serif" font-size="10.00">Goban::eliminateOppGroups</text>
</g>
<!-- Node119 -->
<g id="node2" class="node"><title>Node119</title>
<g id="a_node2"><a xlink:href="class_goban.html#a799390f04139eec16f7bb8c79b381303" target="_top" xlink:title="Goban::legalEvenKO">
<polygon fill="none" stroke="black" points="176,-114.5 176,-133.5 283,-133.5 283,-114.5 176,-114.5"/>
<text text-anchor="middle" x="229.5" y="-121.5" font-family="Helvetica,sans-Serif" font-size="10.00">Goban::legalEvenKO</text>
</a>
</g>
</g>
<!-- Node118&#45;&gt;Node119 -->
<g id="edge1" class="edge"><title>Node118&#45;&gt;Node119</title>
<path fill="none" stroke="midnightblue" d="M107.102,-80.0655C136.052,-90.5428 176.014,-105.005 202.052,-114.428"/>
<polygon fill="midnightblue" stroke="midnightblue" points="107.956,-76.6525 97.362,-76.5405 105.574,-83.2347 107.956,-76.6525"/>
</g>
<!-- Node120 -->
<g id="node3" class="node"><title>Node120</title>
<g id="a_node3"><a xlink:href="class_goban.html#a8b95ea2b51c078381562e361ff7febac" target="_top" xlink:title="Goban::isSuicide">
<polygon fill="none" stroke="black" points="184,-76.5 184,-95.5 275,-95.5 275,-76.5 184,-76.5"/>
<text text-anchor="middle" x="229.5" y="-83.5" font-family="Helvetica,sans-Serif" font-size="10.00">Goban::isSuicide</text>
</a>
</g>
</g>
<!-- Node118&#45;&gt;Node120 -->
<g id="edge2" class="edge"><title>Node118&#45;&gt;Node120</title>
<path fill="none" stroke="midnightblue" d="M150.241,-76.5592C161.825,-77.9567 173.396,-79.3525 183.949,-80.6256"/>
<polygon fill="midnightblue" stroke="midnightblue" points="150.429,-73.0566 140.082,-75.3337 149.591,-80.0062 150.429,-73.0566"/>
</g>
<!-- Node121 -->
<g id="node4" class="node"><title>Node121</title>
<g id="a_node4"><a xlink:href="class_goban.html#a36ab256c9430e070b620052a0f13f051" target="_top" xlink:title="Goban::listFils">
<polygon fill="none" stroke="black" points="189.5,-38.5 189.5,-57.5 269.5,-57.5 269.5,-38.5 189.5,-38.5"/>
<text text-anchor="middle" x="229.5" y="-45.5" font-family="Helvetica,sans-Serif" font-size="10.00">Goban::listFils</text>
</a>
</g>
</g>
<!-- Node118&#45;&gt;Node121 -->
<g id="edge3" class="edge"><title>Node118&#45;&gt;Node121</title>
<path fill="none" stroke="midnightblue" d="M150.404,-57.4211C163.931,-55.7892 177.432,-54.1605 189.311,-52.7275"/>
<polygon fill="midnightblue" stroke="midnightblue" points="149.591,-53.9938 140.082,-58.6663 150.429,-60.9434 149.591,-53.9938"/>
</g>
<!-- Node125 -->
<g id="node8" class="node"><title>Node125</title>
<g id="a_node8"><a xlink:href="class_board.html#a5fda73da080403d8a71a8593d581c350" target="_top" xlink:title="Board::click">
<polygon fill="none" stroke="black" points="328,-0.5 328,-19.5 396,-19.5 396,-0.5 328,-0.5"/>
<text text-anchor="middle" x="362" y="-7.5" font-family="Helvetica,sans-Serif" font-size="10.00">Board::click</text>
</a>
</g>
</g>
<!-- Node118&#45;&gt;Node125 -->
<g id="edge8" class="edge"><title>Node118&#45;&gt;Node125</title>
<path fill="none" stroke="midnightblue" d="M102.134,-53.4523C122.715,-45.0703 150.502,-34.8303 176,-29 228.248,-17.0531 290.524,-12.6109 327.854,-10.9641"/>
<polygon fill="midnightblue" stroke="midnightblue" points="100.545,-50.3226 92.6516,-57.3904 103.229,-56.7873 100.545,-50.3226"/>
</g>
<!-- Node122 -->
<g id="node5" class="node"><title>Node122</title>
<g id="a_node5"><a xlink:href="class_arbre.html#acd12cae4820bb7780a628716a0615d10" target="_top" xlink:title="Arbre::Tsumego">
<polygon fill="none" stroke="black" points="319,-38.5 319,-57.5 405,-57.5 405,-38.5 319,-38.5"/>
<text text-anchor="middle" x="362" y="-45.5" font-family="Helvetica,sans-Serif" font-size="10.00">Arbre::Tsumego</text>
</a>
</g>
</g>
<!-- Node121&#45;&gt;Node122 -->
<g id="edge4" class="edge"><title>Node121&#45;&gt;Node122</title>
<path fill="none" stroke="midnightblue" d="M279.713,-48C292.542,-48 306.253,-48 318.69,-48"/>
<polygon fill="midnightblue" stroke="midnightblue" points="279.654,-44.5001 269.654,-48 279.654,-51.5001 279.654,-44.5001"/>
</g>
<!-- Node122&#45;&gt;Node122 -->
<g id="edge5" class="edge"><title>Node122&#45;&gt;Node122</title>
<path fill="none" stroke="midnightblue" d="M337.447,-67.0292C338.786,-72.128 346.97,-76 362,-76 385.461,-76 392.243,-66.5653 382.345,-57.7571"/>
<polygon fill="midnightblue" stroke="midnightblue" points="340.709,-68.3096 341.655,-57.7571 334.335,-65.4164 340.709,-68.3096"/>
</g>
<!-- Node123 -->
<g id="node6" class="node"><title>Node123</title>
<g id="a_node6"><a xlink:href="class_game__window.html#a72304de2044c29f1373037bd818f674f" target="_top" xlink:title="Game_window::keyPressed">
<polygon fill="none" stroke="black" points="441,-38.5 441,-57.5 578,-57.5 578,-38.5 441,-38.5"/>
<text text-anchor="middle" x="509.5" y="-45.5" font-family="Helvetica,sans-Serif" font-size="10.00">Game_window::keyPressed</text>
</a>
</g>
</g>
<!-- Node122&#45;&gt;Node123 -->
<g id="edge6" class="edge"><title>Node122&#45;&gt;Node123</title>
<path fill="none" stroke="midnightblue" d="M415.302,-48C423.559,-48 432.197,-48 440.744,-48"/>
<polygon fill="midnightblue" stroke="midnightblue" points="415.085,-44.5001 405.085,-48 415.085,-51.5001 415.085,-44.5001"/>
</g>
<!-- Node124 -->
<g id="node7" class="node"><title>Node124</title>
<g id="a_node7"><a xlink:href="class_game__window.html#aec21feecf4c72d73c13d82aa12df6930" target="_top" xlink:title="Game_window::Run">
<polygon fill="none" stroke="black" points="614,-19.5 614,-38.5 717,-38.5 717,-19.5 614,-19.5"/>
<text text-anchor="middle" x="665.5" y="-26.5" font-family="Helvetica,sans-Serif" font-size="10.00">Game_window::Run</text>
</a>
</g>
</g>
<!-- Node123&#45;&gt;Node124 -->
<g id="edge7" class="edge"><title>Node123&#45;&gt;Node124</title>
<path fill="none" stroke="midnightblue" d="M588.186,-38.4154C596.84,-37.3476 605.484,-36.2812 613.678,-35.2703"/>
<polygon fill="midnightblue" stroke="midnightblue" points="587.543,-34.9681 578.047,-39.6663 588.4,-41.9154 587.543,-34.9681"/>
</g>
<!-- Node126 -->
<g id="node9" class="node"><title>Node126</title>
<g id="a_node9"><a xlink:href="class_game__window.html#afa942088809bf10731bb31d0d37b878d" target="_top" xlink:title="Game_window::click">
<polygon fill="none" stroke="black" points="456.5,-0.5 456.5,-19.5 562.5,-19.5 562.5,-0.5 456.5,-0.5"/>
<text text-anchor="middle" x="509.5" y="-7.5" font-family="Helvetica,sans-Serif" font-size="10.00">Game_window::click</text>
</a>
</g>
</g>
<!-- Node125&#45;&gt;Node126 -->
<g id="edge9" class="edge"><title>Node125&#45;&gt;Node126</title>
<path fill="none" stroke="midnightblue" d="M406.049,-10C421.875,-10 439.963,-10 456.493,-10"/>
<polygon fill="midnightblue" stroke="midnightblue" points="406.016,-6.5001 396.016,-10 406.016,-13.5001 406.016,-6.5001"/>
</g>
<!-- Node126&#45;&gt;Node124 -->
<g id="edge10" class="edge"><title>Node126&#45;&gt;Node124</title>
<path fill="none" stroke="midnightblue" d="M572.924,-17.7016C586.576,-19.386 600.862,-21.1486 613.981,-22.7672"/>
<polygon fill="midnightblue" stroke="midnightblue" points="572.991,-14.1834 562.637,-16.4325 572.134,-21.1308 572.991,-14.1834"/>
</g>
</g>
</svg>
