<?xml version="1.0" encoding="UTF-8" standalone="no"?>
<!DOCTYPE svg PUBLIC "-//W3C//DTD SVG 1.1//EN"
 "http://www.w3.org/Graphics/SVG/1.1/DTD/svg11.dtd">
<!-- Generated by graphviz version 2.38.0 (20140413.2041)
 -->
<!-- Title: Screen Pages: 1 -->
<svg width="290pt" height="502pt"
 viewBox="0.00 0.00 290.00 502.00" xmlns="http://www.w3.org/2000/svg" xmlns:xlink="http://www.w3.org/1999/xlink">
<g id="graph0" class="graph" transform="scale(1 1) rotate(0) translate(4 498)">
<title>Screen</title>
<!-- Node0 -->
<g id="node1" class="node"><title>Node0</title>
<polygon fill="#bfbfbf" stroke="black" points="82.5,-331.5 82.5,-399.5 134.5,-399.5 134.5,-331.5 82.5,-331.5"/>
<text text-anchor="middle" x="108.5" y="-387.5" font-family="Helvetica,sans-Serif" font-size="10.00">Screen</text>
<polyline fill="none" stroke="black" points="82.5,-380.5 134.5,-380.5 "/>
<text text-anchor="middle" x="108.5" y="-368.5" font-family="Helvetica,sans-Serif" font-size="10.00"> </text>
<polyline fill="none" stroke="black" points="82.5,-361.5 134.5,-361.5 "/>
<text text-anchor="start" x="90.5" y="-349.5" font-family="Helvetica,sans-Serif" font-size="10.00">+ Run()</text>
<text text-anchor="start" x="90.5" y="-338.5" font-family="Helvetica,sans-Serif" font-size="10.00">+ draw()</text>
</g>
<!-- Node2 -->
<g id="node3" class="node"><title>Node2</title>
<g id="a_node3"><a xlink:href="class_game__window.html" target="_top" xlink:title="{Game_window\n||+ Game_window()\l+ ~Game_window()\l+ draw()\l+ Run()\l+ click()\l+ zoom()\l+ keyPressed()\l+ setGoban()\l+ setView()\l+ territoire()\l}">
<polygon fill="none" stroke="black" points="0,-138.5 0,-294.5 101,-294.5 101,-138.5 0,-138.5"/>
<text text-anchor="middle" x="50.5" y="-282.5" font-family="Helvetica,sans-Serif" font-size="10.00">Game_window</text>
<polyline fill="none" stroke="black" points="0,-275.5 101,-275.5 "/>
<text text-anchor="middle" x="50.5" y="-263.5" font-family="Helvetica,sans-Serif" font-size="10.00"> </text>
<polyline fill="none" stroke="black" points="0,-256.5 101,-256.5 "/>
<text text-anchor="start" x="8" y="-244.5" font-family="Helvetica,sans-Serif" font-size="10.00">+ Game_window()</text>
<text text-anchor="start" x="8" y="-233.5" font-family="Helvetica,sans-Serif" font-size="10.00">+ ~Game_window()</text>
<text text-anchor="start" x="8" y="-222.5" font-family="Helvetica,sans-Serif" font-size="10.00">+ draw()</text>
<text text-anchor="start" x="8" y="-211.5" font-family="Helvetica,sans-Serif" font-size="10.00">+ Run()</text>
<text text-anchor="start" x="8" y="-200.5" font-family="Helvetica,sans-Serif" font-size="10.00">+ click()</text>
<text text-anchor="start" x="8" y="-189.5" font-family="Helvetica,sans-Serif" font-size="10.00">+ zoom()</text>
<text text-anchor="start" x="8" y="-178.5" font-family="Helvetica,sans-Serif" font-size="10.00">+ keyPressed()</text>
<text text-anchor="start" x="8" y="-167.5" font-family="Helvetica,sans-Serif" font-size="10.00">+ setGoban()</text>
<text text-anchor="start" x="8" y="-156.5" font-family="Helvetica,sans-Serif" font-size="10.00">+ setView()</text>
<text text-anchor="start" x="8" y="-145.5" font-family="Helvetica,sans-Serif" font-size="10.00">+ territoire()</text>
</a>
</g>
</g>
<!-- Node0&#45;&gt;Node2 -->
<g id="edge2" class="edge"><title>Node0&#45;&gt;Node2</title>
<path fill="none" stroke="midnightblue" d="M91.6635,-321.828C88.2965,-313.295 84.6623,-304.084 80.9962,-294.792"/>
<polygon fill="none" stroke="midnightblue" points="88.4129,-323.126 95.3389,-331.143 94.9244,-320.557 88.4129,-323.126"/>
</g>
<!-- Node3 -->
<g id="node4" class="node"><title>Node3</title>
<g id="a_node4"><a xlink:href="class_menu.html" target="_top" xlink:title="{Menu\n|# choices\l# cur_choice\l|+ Menu()\l+ ~Menu()\l+ draw()\l+ Run()\l+ getSize()\l+ getPosition()\l+ addItem()\l+ setPrevious()\l+ showAdresses()\l}">
<polygon fill="none" stroke="black" points="119,-138.5 119,-294.5 214,-294.5 214,-138.5 119,-138.5"/>
<text text-anchor="middle" x="166.5" y="-282.5" font-family="Helvetica,sans-Serif" font-size="10.00">Menu</text>
<polyline fill="none" stroke="black" points="119,-275.5 214,-275.5 "/>
<text text-anchor="start" x="127" y="-263.5" font-family="Helvetica,sans-Serif" font-size="10.00"># choices</text>
<text text-anchor="start" x="127" y="-252.5" font-family="Helvetica,sans-Serif" font-size="10.00"># cur_choice</text>
<polyline fill="none" stroke="black" points="119,-245.5 214,-245.5 "/>
<text text-anchor="start" x="127" y="-233.5" font-family="Helvetica,sans-Serif" font-size="10.00">+ Menu()</text>
<text text-anchor="start" x="127" y="-222.5" font-family="Helvetica,sans-Serif" font-size="10.00">+ ~Menu()</text>
<text text-anchor="start" x="127" y="-211.5" font-family="Helvetica,sans-Serif" font-size="10.00">+ draw()</text>
<text text-anchor="start" x="127" y="-200.5" font-family="Helvetica,sans-Serif" font-size="10.00">+ Run()</text>
<text text-anchor="start" x="127" y="-189.5" font-family="Helvetica,sans-Serif" font-size="10.00">+ getSize()</text>
<text text-anchor="start" x="127" y="-178.5" font-family="Helvetica,sans-Serif" font-size="10.00">+ getPosition()</text>
<text text-anchor="start" x="127" y="-167.5" font-family="Helvetica,sans-Serif" font-size="10.00">+ addItem()</text>
<text text-anchor="start" x="127" y="-156.5" font-family="Helvetica,sans-Serif" font-size="10.00">+ setPrevious()</text>
<text text-anchor="start" x="127" y="-145.5" font-family="Helvetica,sans-Serif" font-size="10.00">+ showAdresses()</text>
</a>
</g>
</g>
<!-- Node0&#45;&gt;Node3 -->
<g id="edge3" class="edge"><title>Node0&#45;&gt;Node3</title>
<path fill="none" stroke="midnightblue" d="M125.336,-321.828C128.703,-313.295 132.338,-304.084 136.004,-294.792"/>
<polygon fill="none" stroke="midnightblue" points="122.076,-320.557 121.661,-331.143 128.587,-323.126 122.076,-320.557"/>
</g>
<!-- Node1 -->
<g id="node2" class="node"><title>Node1</title>
<polygon fill="none" stroke="#bfbfbf" points="80.5,-436.5 80.5,-493.5 136.5,-493.5 136.5,-436.5 80.5,-436.5"/>
<text text-anchor="middle" x="108.5" y="-481.5" font-family="Helvetica,sans-Serif" font-size="10.00">Drawable</text>
<polyline fill="none" stroke="#bfbfbf" points="80.5,-474.5 136.5,-474.5 "/>
<text text-anchor="middle" x="108.5" y="-462.5" font-family="Helvetica,sans-Serif" font-size="10.00"> </text>
<polyline fill="none" stroke="#bfbfbf" points="80.5,-455.5 136.5,-455.5 "/>
<text text-anchor="middle" x="108.5" y="-443.5" font-family="Helvetica,sans-Serif" font-size="10.00"> </text>
</g>
<!-- Node1&#45;&gt;Node0 -->
<g id="edge1" class="edge"><title>Node1&#45;&gt;Node0</title>
<path fill="none" stroke="midnightblue" d="M108.5,-426.063C108.5,-417.393 108.5,-408.243 108.5,-399.786"/>
<polygon fill="none" stroke="midnightblue" points="105,-426.321 108.5,-436.321 112,-426.321 105,-426.321"/>
</g>
<!-- Node4 -->
<g id="node5" class="node"><title>Node4</title>
<g id="a_node5"><a xlink:href="class_menu___miniature.html" target="_top" xlink:title="{Menu_Miniature\n||+ Menu_Miniature()\l+ ~Menu_Miniature()\l+ setItemsTextures()\l}">
<polygon fill="none" stroke="black" points="50,-11.5 50,-90.5 157,-90.5 157,-11.5 50,-11.5"/>
<text text-anchor="middle" x="103.5" y="-78.5" font-family="Helvetica,sans-Serif" font-size="10.00">Menu_Miniature</text>
<polyline fill="none" stroke="black" points="50,-71.5 157,-71.5 "/>
<text text-anchor="middle" x="103.5" y="-59.5" font-family="Helvetica,sans-Serif" font-size="10.00"> </text>
<polyline fill="none" stroke="black" points="50,-52.5 157,-52.5 "/>
<text text-anchor="start" x="58" y="-40.5" font-family="Helvetica,sans-Serif" font-size="10.00">+ Menu_Miniature()</text>
<text text-anchor="start" x="58" y="-29.5" font-family="Helvetica,sans-Serif" font-size="10.00">+ ~Menu_Miniature()</text>
<text text-anchor="start" x="58" y="-18.5" font-family="Helvetica,sans-Serif" font-size="10.00">+ setItemsTextures()</text>
</a>
</g>
</g>
<!-- Node3&#45;&gt;Node4 -->
<g id="edge4" class="edge"><title>Node3&#45;&gt;Node4</title>
<path fill="none" stroke="midnightblue" d="M132.931,-128.38C127.816,-115.106 122.774,-102.021 118.348,-90.5337"/>
<polygon fill="none" stroke="midnightblue" points="129.799,-129.986 136.66,-138.059 136.331,-127.47 129.799,-129.986"/>
</g>
<!-- Node5 -->
<g id="node6" class="node"><title>Node5</title>
<g id="a_node6"><a xlink:href="class_menu__simple.html" target="_top" xlink:title="{Menu_simple\n||+ Menu_simple()\l+ ~Menu_simple()\l+ setItemsTextures()\l+ setItemsFonts()\l+ addItem()\l}">
<polygon fill="none" stroke="black" points="175,-0.5 175,-101.5 282,-101.5 282,-0.5 175,-0.5"/>
<text text-anchor="middle" x="228.5" y="-89.5" font-family="Helvetica,sans-Serif" font-size="10.00">Menu_simple</text>
<polyline fill="none" stroke="black" points="175,-82.5 282,-82.5 "/>
<text text-anchor="middle" x="228.5" y="-70.5" font-family="Helvetica,sans-Serif" font-size="10.00"> </text>
<polyline fill="none" stroke="black" points="175,-63.5 282,-63.5 "/>
<text text-anchor="start" x="183" y="-51.5" font-family="Helvetica,sans-Serif" font-size="10.00">+ Menu_simple()</text>
<text text-anchor="start" x="183" y="-40.5" font-family="Helvetica,sans-Serif" font-size="10.00">+ ~Menu_simple()</text>
<text text-anchor="start" x="183" y="-29.5" font-family="Helvetica,sans-Serif" font-size="10.00">+ setItemsTextures()</text>
<text text-anchor="start" x="183" y="-18.5" font-family="Helvetica,sans-Serif" font-size="10.00">+ setItemsFonts()</text>
<text text-anchor="start" x="183" y="-7.5" font-family="Helvetica,sans-Serif" font-size="10.00">+ addItem()</text>
</a>
</g>
</g>
<!-- Node3&#45;&gt;Node5 -->
<g id="edge5" class="edge"><title>Node3&#45;&gt;Node5</title>
<path fill="none" stroke="midnightblue" d="M199.5,-128.477C202.982,-119.293 206.431,-110.199 209.668,-101.661"/>
<polygon fill="none" stroke="midnightblue" points="196.139,-127.468 195.866,-138.059 202.684,-129.95 196.139,-127.468"/>
</g>
</g>
</svg>
