<?xml version="1.0" encoding="UTF-8" standalone="no"?>
<!DOCTYPE svg PUBLIC "-//W3C//DTD SVG 1.1//EN"
 "http://www.w3.org/Graphics/SVG/1.1/DTD/svg11.dtd">
<!-- Generated by graphviz version 2.38.0 (20140413.2041)
 -->
<!-- Title: Arbre::Tsumego Pages: 1 -->
<svg width="406pt" height="46pt"
 viewBox="0.00 0.00 406.00 46.00" xmlns="http://www.w3.org/2000/svg" xmlns:xlink="http://www.w3.org/1999/xlink">
<g id="graph0" class="graph" transform="scale(1 1) rotate(0) translate(4 42)">
<title>Arbre::Tsumego</title>
<!-- Node77 -->
<g id="node1" class="node"><title>Node77</title>
<polygon fill="#bfbfbf" stroke="black" points="0,-0.5 0,-19.5 86,-19.5 86,-0.5 0,-0.5"/>
<text text-anchor="middle" x="43" y="-7.5" font-family="Helvetica,sans-Serif" font-size="10.00">Arbre::Tsumego</text>
</g>
<!-- Node77&#45;&gt;Node77 -->
<g id="edge1" class="edge"><title>Node77&#45;&gt;Node77</title>
<path fill="none" stroke="midnightblue" d="M15.7475,-28.6539C16.8867,-33.9368 25.9708,-38 43,-38 68.9492,-38 76.4502,-28.5653 65.5028,-19.7571"/>
<polygon fill="midnightblue" stroke="midnightblue" points="18.8752,-30.227 20.4972,-19.7571 12.7001,-26.9303 18.8752,-30.227"/>
</g>
<!-- Node78 -->
<g id="node2" class="node"><title>Node78</title>
<g id="a_node2"><a xlink:href="class_game__window.html#a72304de2044c29f1373037bd818f674f" target="_top" xlink:title="Game_window::keyPressed">
<polygon fill="none" stroke="black" points="122,-0.5 122,-19.5 259,-19.5 259,-0.5 122,-0.5"/>
<text text-anchor="middle" x="190.5" y="-7.5" font-family="Helvetica,sans-Serif" font-size="10.00">Game_window::keyPressed</text>
</a>
</g>
</g>
<!-- Node77&#45;&gt;Node78 -->
<g id="edge2" class="edge"><title>Node77&#45;&gt;Node78</title>
<path fill="none" stroke="midnightblue" d="M96.3023,-10C104.559,-10 113.197,-10 121.744,-10"/>
<polygon fill="midnightblue" stroke="midnightblue" points="96.0847,-6.5001 86.0846,-10 96.0846,-13.5001 96.0847,-6.5001"/>
</g>
<!-- Node79 -->
<g id="node3" class="node"><title>Node79</title>
<g id="a_node3"><a xlink:href="class_game__window.html#aec21feecf4c72d73c13d82aa12df6930" target="_top" xlink:title="Game_window::Run">
<polygon fill="none" stroke="black" points="295,-0.5 295,-19.5 398,-19.5 398,-0.5 295,-0.5"/>
<text text-anchor="middle" x="346.5" y="-7.5" font-family="Helvetica,sans-Serif" font-size="10.00">Game_window::Run</text>
</a>
</g>
</g>
<!-- Node78&#45;&gt;Node79 -->
<g id="edge3" class="edge"><title>Node78&#45;&gt;Node79</title>
<path fill="none" stroke="midnightblue" d="M269.186,-10C277.84,-10 286.484,-10 294.678,-10"/>
<polygon fill="midnightblue" stroke="midnightblue" points="269.047,-6.5001 259.047,-10 269.047,-13.5001 269.047,-6.5001"/>
</g>
</g>
</svg>
