<?xml version="1.0" encoding="UTF-8" standalone="no"?>
<!DOCTYPE svg PUBLIC "-//W3C//DTD SVG 1.1//EN"
 "http://www.w3.org/Graphics/SVG/1.1/DTD/svg11.dtd">
<!-- Generated by graphviz version 2.38.0 (20140413.2041)
 -->
<!-- Title: Menu_Miniature Pages: 1 -->
<svg width="332pt" height="592pt"
 viewBox="0.00 0.00 331.50 592.00" xmlns="http://www.w3.org/2000/svg" xmlns:xlink="http://www.w3.org/1999/xlink">
<g id="graph0" class="graph" transform="scale(1 1) rotate(0) translate(4 588)">
<title>Menu_Miniature</title>
<!-- Node4 -->
<g id="node1" class="node"><title>Node4</title>
<polygon fill="#bfbfbf" stroke="black" points="77.5,-0.5 77.5,-79.5 184.5,-79.5 184.5,-0.5 77.5,-0.5"/>
<text text-anchor="middle" x="131" y="-67.5" font-family="Helvetica,sans-Serif" font-size="10.00">Menu_Miniature</text>
<polyline fill="none" stroke="black" points="77.5,-60.5 184.5,-60.5 "/>
<text text-anchor="middle" x="131" y="-48.5" font-family="Helvetica,sans-Serif" font-size="10.00"> </text>
<polyline fill="none" stroke="black" points="77.5,-41.5 184.5,-41.5 "/>
<text text-anchor="start" x="85.5" y="-29.5" font-family="Helvetica,sans-Serif" font-size="10.00">+ Menu_Miniature()</text>
<text text-anchor="start" x="85.5" y="-18.5" font-family="Helvetica,sans-Serif" font-size="10.00">+ ~Menu_Miniature()</text>
<text text-anchor="start" x="85.5" y="-7.5" font-family="Helvetica,sans-Serif" font-size="10.00">+ setItemsTextures()</text>
</g>
<!-- Node5 -->
<g id="node2" class="node"><title>Node5</title>
<g id="a_node2"><a xlink:href="class_menu.html" target="_top" xlink:title="{Menu\n||+ Menu()\l+ ~Menu()\l+ draw()\l+ Run()\l+ getSize()\l+ getPosition()\l+ addItem()\l+ setPrevious()\l+ showAdresses()\l}">
<polygon fill="none" stroke="black" points="83.5,-117.5 83.5,-262.5 178.5,-262.5 178.5,-117.5 83.5,-117.5"/>
<text text-anchor="middle" x="131" y="-250.5" font-family="Helvetica,sans-Serif" font-size="10.00">Menu</text>
<polyline fill="none" stroke="black" points="83.5,-243.5 178.5,-243.5 "/>
<text text-anchor="middle" x="131" y="-231.5" font-family="Helvetica,sans-Serif" font-size="10.00"> </text>
<polyline fill="none" stroke="black" points="83.5,-224.5 178.5,-224.5 "/>
<text text-anchor="start" x="91.5" y="-212.5" font-family="Helvetica,sans-Serif" font-size="10.00">+ Menu()</text>
<text text-anchor="start" x="91.5" y="-201.5" font-family="Helvetica,sans-Serif" font-size="10.00">+ ~Menu()</text>
<text text-anchor="start" x="91.5" y="-190.5" font-family="Helvetica,sans-Serif" font-size="10.00">+ draw()</text>
<text text-anchor="start" x="91.5" y="-179.5" font-family="Helvetica,sans-Serif" font-size="10.00">+ Run()</text>
<text text-anchor="start" x="91.5" y="-168.5" font-family="Helvetica,sans-Serif" font-size="10.00">+ getSize()</text>
<text text-anchor="start" x="91.5" y="-157.5" font-family="Helvetica,sans-Serif" font-size="10.00">+ getPosition()</text>
<text text-anchor="start" x="91.5" y="-146.5" font-family="Helvetica,sans-Serif" font-size="10.00">+ addItem()</text>
<text text-anchor="start" x="91.5" y="-135.5" font-family="Helvetica,sans-Serif" font-size="10.00">+ setPrevious()</text>
<text text-anchor="start" x="91.5" y="-124.5" font-family="Helvetica,sans-Serif" font-size="10.00">+ showAdresses()</text>
</a>
</g>
</g>
<!-- Node5&#45;&gt;Node4 -->
<g id="edge1" class="edge"><title>Node5&#45;&gt;Node4</title>
<path fill="none" stroke="midnightblue" d="M131,-107.152C131,-97.576 131,-88.1775 131,-79.6075"/>
<polygon fill="none" stroke="midnightblue" points="127.5,-107.168 131,-117.168 134.5,-107.168 127.5,-107.168"/>
</g>
<!-- Node6 -->
<g id="node3" class="node"><title>Node6</title>
<g id="a_node3"><a xlink:href="class_screen.html" target="_top" xlink:title="{Screen\n||+ Run()\l+ draw()\l}">
<polygon fill="none" stroke="black" points="0,-365.5 0,-433.5 52,-433.5 52,-365.5 0,-365.5"/>
<text text-anchor="middle" x="26" y="-421.5" font-family="Helvetica,sans-Serif" font-size="10.00">Screen</text>
<polyline fill="none" stroke="black" points="0,-414.5 52,-414.5 "/>
<text text-anchor="middle" x="26" y="-402.5" font-family="Helvetica,sans-Serif" font-size="10.00"> </text>
<polyline fill="none" stroke="black" points="0,-395.5 52,-395.5 "/>
<text text-anchor="start" x="8" y="-383.5" font-family="Helvetica,sans-Serif" font-size="10.00">+ Run()</text>
<text text-anchor="start" x="8" y="-372.5" font-family="Helvetica,sans-Serif" font-size="10.00">+ draw()</text>
</a>
</g>
</g>
<!-- Node6&#45;&gt;Node5 -->
<g id="edge2" class="edge"><title>Node6&#45;&gt;Node5</title>
<path fill="none" stroke="midnightblue" d="M41.3459,-355.803C47.0417,-341.076 53.8647,-324.616 61,-310 68.6237,-294.384 77.5436,-278.069 86.414,-262.703"/>
<polygon fill="none" stroke="midnightblue" points="38.0582,-354.601 37.7738,-365.192 44.6008,-357.09 38.0582,-354.601"/>
</g>
<!-- Node7 -->
<g id="node4" class="node"><title>Node7</title>
<polygon fill="none" stroke="#bfbfbf" points="60,-526.5 60,-583.5 116,-583.5 116,-526.5 60,-526.5"/>
<text text-anchor="middle" x="88" y="-571.5" font-family="Helvetica,sans-Serif" font-size="10.00">Drawable</text>
<polyline fill="none" stroke="#bfbfbf" points="60,-564.5 116,-564.5 "/>
<text text-anchor="middle" x="88" y="-552.5" font-family="Helvetica,sans-Serif" font-size="10.00"> </text>
<polyline fill="none" stroke="#bfbfbf" points="60,-545.5 116,-545.5 "/>
<text text-anchor="middle" x="88" y="-533.5" font-family="Helvetica,sans-Serif" font-size="10.00"> </text>
</g>
<!-- Node7&#45;&gt;Node6 -->
<g id="edge3" class="edge"><title>Node7&#45;&gt;Node6</title>
<path fill="none" stroke="midnightblue" d="M72.3724,-516.687C68.6177,-507.637 64.6411,-497.982 61,-489 53.6131,-470.779 45.5309,-450.374 38.996,-433.754"/>
<polygon fill="none" stroke="midnightblue" points="69.2607,-518.319 76.3332,-526.208 75.7239,-515.631 69.2607,-518.319"/>
</g>
<!-- Node9 -->
<g id="node6" class="node"><title>Node9</title>
<g id="a_node6"><a xlink:href="class_choice.html" target="_top" xlink:title="{Choice\n||+ Choice()\l+ Choice()\l+ ~Choice()\l+ draw()\l+ getSize()\l+ loadTextures()\l+ setSelected()\l+ setHover()\l+ getGlobalBounds()\l+ updateTexture()\l+ Run()\l+ showAdressTextures()\l}">
<polygon fill="none" stroke="black" points="70,-310.5 70,-488.5 192,-488.5 192,-310.5 70,-310.5"/>
<text text-anchor="middle" x="131" y="-476.5" font-family="Helvetica,sans-Serif" font-size="10.00">Choice</text>
<polyline fill="none" stroke="black" points="70,-469.5 192,-469.5 "/>
<text text-anchor="middle" x="131" y="-457.5" font-family="Helvetica,sans-Serif" font-size="10.00"> </text>
<polyline fill="none" stroke="black" points="70,-450.5 192,-450.5 "/>
<text text-anchor="start" x="78" y="-438.5" font-family="Helvetica,sans-Serif" font-size="10.00">+ Choice()</text>
<text text-anchor="start" x="78" y="-427.5" font-family="Helvetica,sans-Serif" font-size="10.00">+ Choice()</text>
<text text-anchor="start" x="78" y="-416.5" font-family="Helvetica,sans-Serif" font-size="10.00">+ ~Choice()</text>
<text text-anchor="start" x="78" y="-405.5" font-family="Helvetica,sans-Serif" font-size="10.00">+ draw()</text>
<text text-anchor="start" x="78" y="-394.5" font-family="Helvetica,sans-Serif" font-size="10.00">+ getSize()</text>
<text text-anchor="start" x="78" y="-383.5" font-family="Helvetica,sans-Serif" font-size="10.00">+ loadTextures()</text>
<text text-anchor="start" x="78" y="-372.5" font-family="Helvetica,sans-Serif" font-size="10.00">+ setSelected()</text>
<text text-anchor="start" x="78" y="-361.5" font-family="Helvetica,sans-Serif" font-size="10.00">+ setHover()</text>
<text text-anchor="start" x="78" y="-350.5" font-family="Helvetica,sans-Serif" font-size="10.00">+ getGlobalBounds()</text>
<text text-anchor="start" x="78" y="-339.5" font-family="Helvetica,sans-Serif" font-size="10.00">+ updateTexture()</text>
<text text-anchor="start" x="78" y="-328.5" font-family="Helvetica,sans-Serif" font-size="10.00">+ Run()</text>
<text text-anchor="start" x="78" y="-317.5" font-family="Helvetica,sans-Serif" font-size="10.00">+ showAdressTextures()</text>
</a>
</g>
</g>
<!-- Node7&#45;&gt;Node9 -->
<g id="edge6" class="edge"><title>Node7&#45;&gt;Node9</title>
<path fill="none" stroke="midnightblue" d="M98.4988,-516.522C100.918,-507.886 103.591,-498.343 106.335,-488.549"/>
<polygon fill="none" stroke="midnightblue" points="95.1142,-515.629 95.787,-526.202 101.855,-517.517 95.1142,-515.629"/>
</g>
<!-- Node8 -->
<g id="node5" class="node"><title>Node8</title>
<polygon fill="none" stroke="#bfbfbf" points="210.5,-365.5 210.5,-433.5 323.5,-433.5 323.5,-365.5 210.5,-365.5"/>
<text text-anchor="start" x="218.5" y="-421.5" font-family="Helvetica,sans-Serif" font-size="10.00">vector&lt; std::reference</text>
<text text-anchor="middle" x="267" y="-410.5" font-family="Helvetica,sans-Serif" font-size="10.00">_wrapper&lt; Choice &gt; &gt;</text>
<polyline fill="none" stroke="#bfbfbf" points="210.5,-403.5 323.5,-403.5 "/>
<text text-anchor="middle" x="267" y="-391.5" font-family="Helvetica,sans-Serif" font-size="10.00"> </text>
<polyline fill="none" stroke="#bfbfbf" points="210.5,-384.5 323.5,-384.5 "/>
<text text-anchor="middle" x="267" y="-372.5" font-family="Helvetica,sans-Serif" font-size="10.00"> </text>
</g>
<!-- Node8&#45;&gt;Node5 -->
<g id="edge4" class="edge"><title>Node8&#45;&gt;Node5</title>
<path fill="none" stroke="#404040" d="M245.828,-365.5C230.649,-341.906 209.67,-309.43 191,-281 189.116,-278.13 187.194,-275.212 185.251,-272.266"/>
<polygon fill="none" stroke="#404040" points="185.198,-272.185 178.553,-269.385 178.581,-262.174 185.226,-264.974 185.198,-272.185"/>
<text text-anchor="middle" x="219.5" y="-284" font-family="Helvetica,sans-Serif" font-size="10.00"> #choices</text>
</g>
<!-- Node9&#45;&gt;Node5 -->
<g id="edge5" class="edge"><title>Node9&#45;&gt;Node5</title>
<path fill="none" stroke="#404040" d="M131,-310.2C131,-298.412 131,-286.35 131,-274.644"/>
<polygon fill="none" stroke="#404040" points="131,-274.6 127,-268.6 131,-262.6 135,-268.6 131,-274.6"/>
<text text-anchor="middle" x="159" y="-284" font-family="Helvetica,sans-Serif" font-size="10.00"> #cur_choice</text>
</g>
</g>
</svg>
