<?xml version="1.0" encoding="UTF-8" standalone="no"?>
<!DOCTYPE svg PUBLIC "-//W3C//DTD SVG 1.1//EN"
 "http://www.w3.org/Graphics/SVG/1.1/DTD/svg11.dtd">
<!-- Generated by graphviz version 2.38.0 (20140413.2041)
 -->
<!-- Title: Menu::getPosition Pages: 1 -->
<svg width="393pt" height="66pt"
 viewBox="0.00 0.00 393.00 66.00" xmlns="http://www.w3.org/2000/svg" xmlns:xlink="http://www.w3.org/1999/xlink">
<g id="graph0" class="graph" transform="scale(1 1) rotate(0) translate(4 62)">
<title>Menu::getPosition</title>
<!-- Node11 -->
<g id="node1" class="node"><title>Node11</title>
<polygon fill="#bfbfbf" stroke="black" points="0,-19.5 0,-38.5 95,-38.5 95,-19.5 0,-19.5"/>
<text text-anchor="middle" x="47.5" y="-26.5" font-family="Helvetica,sans-Serif" font-size="10.00">Menu::getPosition</text>
</g>
<!-- Node12 -->
<g id="node2" class="node"><title>Node12</title>
<g id="a_node2"><a xlink:href="class_choice.html#aafd399c5b27102d38871a2a886eecd70" target="_top" xlink:title="Choice::Run">
<polygon fill="none" stroke="black" points="148,-38.5 148,-57.5 218,-57.5 218,-38.5 148,-38.5"/>
<text text-anchor="middle" x="183" y="-45.5" font-family="Helvetica,sans-Serif" font-size="10.00">Choice::Run</text>
</a>
</g>
</g>
<!-- Node11&#45;&gt;Node12 -->
<g id="edge1" class="edge"><title>Node11&#45;&gt;Node12</title>
<path fill="none" stroke="midnightblue" d="M95.1918,-35.6453C108.973,-37.6066 124.011,-39.7469 137.641,-41.6867"/>
<polygon fill="midnightblue" stroke="midnightblue" points="137.352,-45.1807 147.745,-43.1248 138.338,-38.2506 137.352,-45.1807"/>
</g>
<!-- Node13 -->
<g id="node3" class="node"><title>Node13</title>
<g id="a_node3"><a xlink:href="class_choice.html#aa4bbe520ca9f933327fc1f678d6626f8" target="_top" xlink:title="Choice::setSelected">
<polygon fill="none" stroke="black" points="131,-0.5 131,-19.5 235,-19.5 235,-0.5 131,-0.5"/>
<text text-anchor="middle" x="183" y="-7.5" font-family="Helvetica,sans-Serif" font-size="10.00">Choice::setSelected</text>
</a>
</g>
</g>
<!-- Node11&#45;&gt;Node13 -->
<g id="edge2" class="edge"><title>Node11&#45;&gt;Node13</title>
<path fill="none" stroke="midnightblue" d="M95.1918,-22.3547C103.406,-21.1856 112.068,-19.9529 120.611,-18.737"/>
<polygon fill="midnightblue" stroke="midnightblue" points="121.145,-22.1963 130.553,-17.3221 120.159,-15.2661 121.145,-22.1963"/>
</g>
<!-- Node14 -->
<g id="node4" class="node"><title>Node14</title>
<g id="a_node4"><a xlink:href="class_choice.html#aa3113d895017610a03fff73795cf22fd" target="_top" xlink:title="Choice::updateTexture">
<polygon fill="none" stroke="black" points="271,-0.5 271,-19.5 385,-19.5 385,-0.5 271,-0.5"/>
<text text-anchor="middle" x="328" y="-7.5" font-family="Helvetica,sans-Serif" font-size="10.00">Choice::updateTexture</text>
</a>
</g>
</g>
<!-- Node13&#45;&gt;Node14 -->
<g id="edge3" class="edge"><title>Node13&#45;&gt;Node14</title>
<path fill="none" stroke="midnightblue" d="M235.222,-10C243.517,-10 252.209,-10 260.798,-10"/>
<polygon fill="midnightblue" stroke="midnightblue" points="260.803,-13.5001 270.803,-10 260.803,-6.5001 260.803,-13.5001"/>
</g>
</g>
</svg>
