<?xml version="1.0" encoding="UTF-8" standalone="no"?>
<!DOCTYPE svg PUBLIC "-//W3C//DTD SVG 1.1//EN"
 "http://www.w3.org/Graphics/SVG/1.1/DTD/svg11.dtd">
<!-- Generated by graphviz version 2.38.0 (20140413.2041)
 -->
<!-- Title: Menu_simple::addItem Pages: 1 -->
<svg width="392pt" height="180pt"
 viewBox="0.00 0.00 392.00 180.00" xmlns="http://www.w3.org/2000/svg" xmlns:xlink="http://www.w3.org/1999/xlink">
<g id="graph0" class="graph" transform="scale(1 1) rotate(0) translate(4 176)">
<title>Menu_simple::addItem</title>
<!-- Node6 -->
<g id="node1" class="node"><title>Node6</title>
<polygon fill="#bfbfbf" stroke="black" points="0,-76.5 0,-95.5 115,-95.5 115,-76.5 0,-76.5"/>
<text text-anchor="middle" x="57.5" y="-83.5" font-family="Helvetica,sans-Serif" font-size="10.00">Menu_simple::addItem</text>
</g>
<!-- Node7 -->
<g id="node2" class="node"><title>Node7</title>
<g id="a_node2"><a xlink:href="_main_8cpp.html#ab2ff3dd66804b9f8e614cc3d8f62b851" target="_top" xlink:title="loadMenu1">
<polygon fill="none" stroke="black" points="151,-152.5 151,-171.5 215,-171.5 215,-152.5 151,-152.5"/>
<text text-anchor="middle" x="183" y="-159.5" font-family="Helvetica,sans-Serif" font-size="10.00">loadMenu1</text>
</a>
</g>
</g>
<!-- Node6&#45;&gt;Node7 -->
<g id="edge1" class="edge"><title>Node6&#45;&gt;Node7</title>
<path fill="none" stroke="midnightblue" d="M82.944,-101.085C101.586,-112.584 127.903,-128.806 151,-143 155.948,-146.041 161.343,-149.35 166.225,-152.342"/>
<polygon fill="midnightblue" stroke="midnightblue" points="84.5535,-97.9654 74.205,-95.6936 80.8781,-103.923 84.5535,-97.9654"/>
</g>
<!-- Node10 -->
<g id="node5" class="node"><title>Node10</title>
<g id="a_node5"><a xlink:href="_main_8cpp.html#a1862c57029f25299b350b89a3fef7bac" target="_top" xlink:title="loadMenu3">
<polygon fill="none" stroke="black" points="151,-114.5 151,-133.5 215,-133.5 215,-114.5 151,-114.5"/>
<text text-anchor="middle" x="183" y="-121.5" font-family="Helvetica,sans-Serif" font-size="10.00">loadMenu3</text>
</a>
</g>
</g>
<!-- Node6&#45;&gt;Node10 -->
<g id="edge4" class="edge"><title>Node6&#45;&gt;Node10</title>
<path fill="none" stroke="midnightblue" d="M99.2397,-98.5353C116.04,-103.705 135.197,-109.599 150.846,-114.414"/>
<polygon fill="midnightblue" stroke="midnightblue" points="100.251,-95.1847 89.6643,-95.589 98.1927,-101.875 100.251,-95.1847"/>
</g>
<!-- Node11 -->
<g id="node6" class="node"><title>Node11</title>
<g id="a_node6"><a xlink:href="_main_8cpp.html#a3153201e1f35afab1a2de7fa1dea810a" target="_top" xlink:title="loadMenu4">
<polygon fill="none" stroke="black" points="151,-76.5 151,-95.5 215,-95.5 215,-76.5 151,-76.5"/>
<text text-anchor="middle" x="183" y="-83.5" font-family="Helvetica,sans-Serif" font-size="10.00">loadMenu4</text>
</a>
</g>
</g>
<!-- Node6&#45;&gt;Node11 -->
<g id="edge6" class="edge"><title>Node6&#45;&gt;Node11</title>
<path fill="none" stroke="midnightblue" d="M125.301,-86C134.239,-86 143.035,-86 150.933,-86"/>
<polygon fill="midnightblue" stroke="midnightblue" points="125.19,-82.5001 115.19,-86 125.19,-89.5001 125.19,-82.5001"/>
</g>
<!-- Node12 -->
<g id="node7" class="node"><title>Node12</title>
<g id="a_node7"><a xlink:href="_main_8cpp.html#aee704d9ab9bae25e3fecbe7f6a106f7a" target="_top" xlink:title="loadMenu5">
<polygon fill="none" stroke="black" points="151,-38.5 151,-57.5 215,-57.5 215,-38.5 151,-38.5"/>
<text text-anchor="middle" x="183" y="-45.5" font-family="Helvetica,sans-Serif" font-size="10.00">loadMenu5</text>
</a>
</g>
</g>
<!-- Node6&#45;&gt;Node12 -->
<g id="edge8" class="edge"><title>Node6&#45;&gt;Node12</title>
<path fill="none" stroke="midnightblue" d="M99.2397,-73.4647C116.04,-68.2952 135.197,-62.4009 150.846,-57.5859"/>
<polygon fill="midnightblue" stroke="midnightblue" points="98.1927,-70.1248 89.6643,-76.411 100.251,-76.8153 98.1927,-70.1248"/>
</g>
<!-- Node13 -->
<g id="node8" class="node"><title>Node13</title>
<g id="a_node8"><a xlink:href="_main_8cpp.html#a0a424bcea43ed2e1fc6b5d516bafd12c" target="_top" xlink:title="loadMenu6">
<polygon fill="none" stroke="black" points="151,-0.5 151,-19.5 215,-19.5 215,-0.5 151,-0.5"/>
<text text-anchor="middle" x="183" y="-7.5" font-family="Helvetica,sans-Serif" font-size="10.00">loadMenu6</text>
</a>
</g>
</g>
<!-- Node6&#45;&gt;Node13 -->
<g id="edge10" class="edge"><title>Node6&#45;&gt;Node13</title>
<path fill="none" stroke="midnightblue" d="M82.944,-70.9151C101.586,-59.4161 127.903,-43.1944 151,-29 155.948,-25.9593 161.343,-22.6503 166.225,-19.6585"/>
<polygon fill="midnightblue" stroke="midnightblue" points="80.8781,-68.0771 74.205,-76.3064 84.5535,-74.0346 80.8781,-68.0771"/>
</g>
<!-- Node8 -->
<g id="node3" class="node"><title>Node8</title>
<g id="a_node3"><a xlink:href="_main_8cpp.html#a38bed9713fcae949ee78e6bc604db8fe" target="_top" xlink:title="loadMenu">
<polygon fill="none" stroke="black" points="251,-76.5 251,-95.5 310,-95.5 310,-76.5 251,-76.5"/>
<text text-anchor="middle" x="280.5" y="-83.5" font-family="Helvetica,sans-Serif" font-size="10.00">loadMenu</text>
</a>
</g>
</g>
<!-- Node7&#45;&gt;Node8 -->
<g id="edge2" class="edge"><title>Node7&#45;&gt;Node8</title>
<path fill="none" stroke="midnightblue" d="M209.326,-146.988C211.273,-145.68 213.186,-144.342 215,-143 235.425,-127.894 257.166,-107.715 269.469,-95.8617"/>
<polygon fill="midnightblue" stroke="midnightblue" points="207.303,-144.127 200.759,-152.459 211.071,-150.027 207.303,-144.127"/>
</g>
<!-- Node9 -->
<g id="node4" class="node"><title>Node9</title>
<g id="a_node4"><a xlink:href="_main_8cpp.html#ae66f6b31b5ad750f1fe042a706a4e3d4" target="_top" xlink:title="main">
<polygon fill="none" stroke="black" points="346,-76.5 346,-95.5 384,-95.5 384,-76.5 346,-76.5"/>
<text text-anchor="middle" x="365" y="-83.5" font-family="Helvetica,sans-Serif" font-size="10.00">main</text>
</a>
</g>
</g>
<!-- Node8&#45;&gt;Node9 -->
<g id="edge3" class="edge"><title>Node8&#45;&gt;Node9</title>
<path fill="none" stroke="midnightblue" d="M320.488,-86C329.254,-86 338.158,-86 345.607,-86"/>
<polygon fill="midnightblue" stroke="midnightblue" points="320.355,-82.5001 310.354,-86 320.354,-89.5001 320.355,-82.5001"/>
</g>
<!-- Node10&#45;&gt;Node8 -->
<g id="edge5" class="edge"><title>Node10&#45;&gt;Node8</title>
<path fill="none" stroke="midnightblue" d="M217.705,-110.589C230.148,-105.638 243.987,-100.131 255.409,-95.5859"/>
<polygon fill="midnightblue" stroke="midnightblue" points="216.096,-107.462 208.099,-114.411 218.684,-113.966 216.096,-107.462"/>
</g>
<!-- Node11&#45;&gt;Node8 -->
<g id="edge7" class="edge"><title>Node11&#45;&gt;Node8</title>
<path fill="none" stroke="midnightblue" d="M225.032,-86C233.752,-86 242.778,-86 250.914,-86"/>
<polygon fill="midnightblue" stroke="midnightblue" points="225.006,-82.5001 215.006,-86 225.006,-89.5001 225.006,-82.5001"/>
</g>
<!-- Node12&#45;&gt;Node8 -->
<g id="edge9" class="edge"><title>Node12&#45;&gt;Node8</title>
<path fill="none" stroke="midnightblue" d="M217.705,-61.4114C230.148,-66.3624 243.987,-71.8691 255.409,-76.4141"/>
<polygon fill="midnightblue" stroke="midnightblue" points="218.684,-58.0342 208.099,-57.589 216.096,-64.5382 218.684,-58.0342"/>
</g>
<!-- Node13&#45;&gt;Node8 -->
<g id="edge11" class="edge"><title>Node13&#45;&gt;Node8</title>
<path fill="none" stroke="midnightblue" d="M209.326,-25.0121C211.273,-26.3205 213.186,-27.6581 215,-29 235.425,-44.1063 257.166,-64.2853 269.469,-76.1383"/>
<polygon fill="midnightblue" stroke="midnightblue" points="211.071,-21.9733 200.759,-19.5406 207.303,-27.8729 211.071,-21.9733"/>
</g>
</g>
</svg>
