<?xml version="1.0" encoding="UTF-8" standalone="no"?>
<!DOCTYPE svg PUBLIC "-//W3C//DTD SVG 1.1//EN"
 "http://www.w3.org/Graphics/SVG/1.1/DTD/svg11.dtd">
<!-- Generated by graphviz version 2.38.0 (20140413.2041)
 -->
<!-- Title: Goban::listFils Pages: 1 -->
<svg width="522pt" height="46pt"
 viewBox="0.00 0.00 522.00 46.00" xmlns="http://www.w3.org/2000/svg" xmlns:xlink="http://www.w3.org/1999/xlink">
<g id="graph0" class="graph" transform="scale(1 1) rotate(0) translate(4 42)">
<title>Goban::listFils</title>
<!-- Node202 -->
<g id="node1" class="node"><title>Node202</title>
<polygon fill="#bfbfbf" stroke="black" points="0,-0.5 0,-19.5 80,-19.5 80,-0.5 0,-0.5"/>
<text text-anchor="middle" x="40" y="-7.5" font-family="Helvetica,sans-Serif" font-size="10.00">Goban::listFils</text>
</g>
<!-- Node203 -->
<g id="node2" class="node"><title>Node203</title>
<g id="a_node2"><a xlink:href="class_arbre.html#acd12cae4820bb7780a628716a0615d10" target="_top" xlink:title="Arbre::Tsumego">
<polygon fill="none" stroke="black" points="116,-0.5 116,-19.5 202,-19.5 202,-0.5 116,-0.5"/>
<text text-anchor="middle" x="159" y="-7.5" font-family="Helvetica,sans-Serif" font-size="10.00">Arbre::Tsumego</text>
</a>
</g>
</g>
<!-- Node202&#45;&gt;Node203 -->
<g id="edge1" class="edge"><title>Node202&#45;&gt;Node203</title>
<path fill="none" stroke="midnightblue" d="M90.4132,-10C98.8621,-10 107.57,-10 115.809,-10"/>
<polygon fill="midnightblue" stroke="midnightblue" points="90.2848,-6.5001 80.2848,-10 90.2848,-13.5001 90.2848,-6.5001"/>
</g>
<!-- Node203&#45;&gt;Node203 -->
<g id="edge2" class="edge"><title>Node203&#45;&gt;Node203</title>
<path fill="none" stroke="midnightblue" d="M137.051,-29.0292C138.248,-34.128 145.564,-38 159,-38 179.973,-38 186.035,-28.5653 177.187,-19.7571"/>
<polygon fill="midnightblue" stroke="midnightblue" points="140.296,-30.3393 140.813,-19.7571 133.81,-27.7074 140.296,-30.3393"/>
</g>
<!-- Node204 -->
<g id="node3" class="node"><title>Node204</title>
<g id="a_node3"><a xlink:href="class_game__window.html#a72304de2044c29f1373037bd818f674f" target="_top" xlink:title="Game_window::keyPressed">
<polygon fill="none" stroke="black" points="238,-0.5 238,-19.5 375,-19.5 375,-0.5 238,-0.5"/>
<text text-anchor="middle" x="306.5" y="-7.5" font-family="Helvetica,sans-Serif" font-size="10.00">Game_window::keyPressed</text>
</a>
</g>
</g>
<!-- Node203&#45;&gt;Node204 -->
<g id="edge3" class="edge"><title>Node203&#45;&gt;Node204</title>
<path fill="none" stroke="midnightblue" d="M212.302,-10C220.559,-10 229.197,-10 237.744,-10"/>
<polygon fill="midnightblue" stroke="midnightblue" points="212.085,-6.5001 202.085,-10 212.085,-13.5001 212.085,-6.5001"/>
</g>
<!-- Node205 -->
<g id="node4" class="node"><title>Node205</title>
<g id="a_node4"><a xlink:href="class_game__window.html#aec21feecf4c72d73c13d82aa12df6930" target="_top" xlink:title="Game_window::Run">
<polygon fill="none" stroke="black" points="411,-0.5 411,-19.5 514,-19.5 514,-0.5 411,-0.5"/>
<text text-anchor="middle" x="462.5" y="-7.5" font-family="Helvetica,sans-Serif" font-size="10.00">Game_window::Run</text>
</a>
</g>
</g>
<!-- Node204&#45;&gt;Node205 -->
<g id="edge4" class="edge"><title>Node204&#45;&gt;Node205</title>
<path fill="none" stroke="midnightblue" d="M385.186,-10C393.84,-10 402.484,-10 410.678,-10"/>
<polygon fill="midnightblue" stroke="midnightblue" points="385.047,-6.5001 375.047,-10 385.047,-13.5001 385.047,-6.5001"/>
</g>
</g>
</svg>
