<?xml version="1.0" encoding="UTF-8" standalone="no"?>
<!DOCTYPE svg PUBLIC "-//W3C//DTD SVG 1.1//EN"
 "http://www.w3.org/Graphics/SVG/1.1/DTD/svg11.dtd">
<!-- Generated by graphviz version 2.38.0 (20140413.2041)
 -->
<!-- Title: Menu_Miniature::setItemsTextures Pages: 1 -->
<svg width="406pt" height="39pt"
 viewBox="0.00 0.00 406.00 39.00" xmlns="http://www.w3.org/2000/svg" xmlns:xlink="http://www.w3.org/1999/xlink">
<g id="graph0" class="graph" transform="scale(1 1) rotate(0) translate(4 35)">
<title>Menu_Miniature::setItemsTextures</title>
<!-- Node5 -->
<g id="node1" class="node"><title>Node5</title>
<polygon fill="#bfbfbf" stroke="black" points="0,-0.5 0,-30.5 129,-30.5 129,-0.5 0,-0.5"/>
<text text-anchor="start" x="8" y="-18.5" font-family="Helvetica,sans-Serif" font-size="10.00">Menu_Miniature::setItems</text>
<text text-anchor="middle" x="64.5" y="-7.5" font-family="Helvetica,sans-Serif" font-size="10.00">Textures</text>
</g>
<!-- Node6 -->
<g id="node2" class="node"><title>Node6</title>
<g id="a_node2"><a xlink:href="_main_8cpp.html#a4d2b8dfc9654f97dcbfd580ffeeb8048" target="_top" xlink:title="loadMenu2">
<polygon fill="none" stroke="black" points="165,-6 165,-25 229,-25 229,-6 165,-6"/>
<text text-anchor="middle" x="197" y="-13" font-family="Helvetica,sans-Serif" font-size="10.00">loadMenu2</text>
</a>
</g>
</g>
<!-- Node5&#45;&gt;Node6 -->
<g id="edge1" class="edge"><title>Node5&#45;&gt;Node6</title>
<path fill="none" stroke="midnightblue" d="M139.391,-15.5C148.348,-15.5 157.084,-15.5 164.908,-15.5"/>
<polygon fill="midnightblue" stroke="midnightblue" points="139.221,-12.0001 129.221,-15.5 139.221,-19.0001 139.221,-12.0001"/>
</g>
<!-- Node7 -->
<g id="node3" class="node"><title>Node7</title>
<g id="a_node3"><a xlink:href="_main_8cpp.html#a38bed9713fcae949ee78e6bc604db8fe" target="_top" xlink:title="loadMenu">
<polygon fill="none" stroke="black" points="265,-6 265,-25 324,-25 324,-6 265,-6"/>
<text text-anchor="middle" x="294.5" y="-13" font-family="Helvetica,sans-Serif" font-size="10.00">loadMenu</text>
</a>
</g>
</g>
<!-- Node6&#45;&gt;Node7 -->
<g id="edge2" class="edge"><title>Node6&#45;&gt;Node7</title>
<path fill="none" stroke="midnightblue" d="M239.032,-15.5C247.752,-15.5 256.778,-15.5 264.914,-15.5"/>
<polygon fill="midnightblue" stroke="midnightblue" points="239.006,-12.0001 229.006,-15.5 239.006,-19.0001 239.006,-12.0001"/>
</g>
<!-- Node8 -->
<g id="node4" class="node"><title>Node8</title>
<g id="a_node4"><a xlink:href="_main_8cpp.html#ae66f6b31b5ad750f1fe042a706a4e3d4" target="_top" xlink:title="main">
<polygon fill="none" stroke="black" points="360,-6 360,-25 398,-25 398,-6 360,-6"/>
<text text-anchor="middle" x="379" y="-13" font-family="Helvetica,sans-Serif" font-size="10.00">main</text>
</a>
</g>
</g>
<!-- Node7&#45;&gt;Node8 -->
<g id="edge3" class="edge"><title>Node7&#45;&gt;Node8</title>
<path fill="none" stroke="midnightblue" d="M334.488,-15.5C343.254,-15.5 352.158,-15.5 359.607,-15.5"/>
<polygon fill="midnightblue" stroke="midnightblue" points="334.355,-12.0001 324.354,-15.5 334.354,-19.0001 334.355,-12.0001"/>
</g>
</g>
</svg>
