<?xml version="1.0" encoding="UTF-8" standalone="no"?>
<!DOCTYPE svg PUBLIC "-//W3C//DTD SVG 1.1//EN"
 "http://www.w3.org/Graphics/SVG/1.1/DTD/svg11.dtd">
<!-- Generated by graphviz version 2.38.0 (20140413.2041)
 -->
<!-- Title: Board::click Pages: 1 -->
<svg width="839pt" height="332pt"
 viewBox="0.00 0.00 839.00 332.00" xmlns="http://www.w3.org/2000/svg" xmlns:xlink="http://www.w3.org/1999/xlink">
<g id="graph0" class="graph" transform="scale(1 1) rotate(0) translate(4 328)">
<title>Board::click</title>
<!-- Node23 -->
<g id="node1" class="node"><title>Node23</title>
<polygon fill="#bfbfbf" stroke="black" points="0,-185.5 0,-204.5 68,-204.5 68,-185.5 0,-185.5"/>
<text text-anchor="middle" x="34" y="-192.5" font-family="Helvetica,sans-Serif" font-size="10.00">Board::click</text>
</g>
<!-- Node24 -->
<g id="node2" class="node"><title>Node24</title>
<g id="a_node2"><a xlink:href="class_goban.html#a7dd1a7b53322bde2a831a923059e43a3" target="_top" xlink:title="Goban::move">
<polygon fill="none" stroke="black" points="304,-261.5 304,-280.5 378,-280.5 378,-261.5 304,-261.5"/>
<text text-anchor="middle" x="341" y="-268.5" font-family="Helvetica,sans-Serif" font-size="10.00">Goban::move</text>
</a>
</g>
</g>
<!-- Node23&#45;&gt;Node24 -->
<g id="edge1" class="edge"><title>Node23&#45;&gt;Node24</title>
<path fill="none" stroke="midnightblue" d="M43.1756,-204.755C55.0237,-218.107 78.3711,-241.603 104,-252 166.053,-277.173 244.702,-278.002 293.694,-275.276"/>
<polygon fill="midnightblue" stroke="midnightblue" points="293.921,-278.769 303.682,-274.648 293.482,-271.782 293.921,-278.769"/>
</g>
<!-- Node29 -->
<g id="node7" class="node"><title>Node29</title>
<g id="a_node7"><a xlink:href="class_goban.html#a8584a53688e7bcf9de7c4cf48454acdc" target="_top" xlink:title="Goban::rechercheGroupes">
<polygon fill="none" stroke="black" points="108.5,-223.5 108.5,-242.5 239.5,-242.5 239.5,-223.5 108.5,-223.5"/>
<text text-anchor="middle" x="174" y="-230.5" font-family="Helvetica,sans-Serif" font-size="10.00">Goban::rechercheGroupes</text>
</a>
</g>
</g>
<!-- Node23&#45;&gt;Node29 -->
<g id="edge7" class="edge"><title>Node23&#45;&gt;Node29</title>
<path fill="none" stroke="midnightblue" d="M68.0544,-204.102C86.1993,-209.098 108.945,-215.362 128.618,-220.779"/>
<polygon fill="midnightblue" stroke="midnightblue" points="127.719,-224.162 138.29,-223.442 129.578,-217.413 127.719,-224.162"/>
</g>
<!-- Node30 -->
<g id="node8" class="node"><title>Node30</title>
<g id="a_node8"><a xlink:href="class_goban.html#aefd43ab2cf0746f2f8c653d825bf080c" target="_top" xlink:title="Goban::afficheGroupes">
<polygon fill="none" stroke="black" points="116,-185.5 116,-204.5 232,-204.5 232,-185.5 116,-185.5"/>
<text text-anchor="middle" x="174" y="-192.5" font-family="Helvetica,sans-Serif" font-size="10.00">Goban::afficheGroupes</text>
</a>
</g>
</g>
<!-- Node23&#45;&gt;Node30 -->
<g id="edge8" class="edge"><title>Node23&#45;&gt;Node30</title>
<path fill="none" stroke="midnightblue" d="M68.0544,-195C79.4919,-195 92.7576,-195 105.929,-195"/>
<polygon fill="midnightblue" stroke="midnightblue" points="105.952,-198.5 115.952,-195 105.952,-191.5 105.952,-198.5"/>
</g>
<!-- Node31 -->
<g id="node9" class="node"><title>Node31</title>
<g id="a_node9"><a xlink:href="class_goban.html#a7858b815885e4af36f05f9d26182cb07" target="_top" xlink:title="Goban::eliminateOppGroups">
<polygon fill="none" stroke="black" points="104,-90.5 104,-109.5 244,-109.5 244,-90.5 104,-90.5"/>
<text text-anchor="middle" x="174" y="-97.5" font-family="Helvetica,sans-Serif" font-size="10.00">Goban::eliminateOppGroups</text>
</a>
</g>
</g>
<!-- Node23&#45;&gt;Node31 -->
<g id="edge9" class="edge"><title>Node23&#45;&gt;Node31</title>
<path fill="none" stroke="midnightblue" d="M45.2722,-185.469C58.3468,-173.589 81.8963,-153.022 104,-138 116.709,-129.363 131.553,-120.987 144.211,-114.307"/>
<polygon fill="midnightblue" stroke="midnightblue" points="146.122,-117.26 153.393,-109.554 142.903,-111.043 146.122,-117.26"/>
</g>
<!-- Node40 -->
<g id="node18" class="node"><title>Node40</title>
<g id="a_node18"><a xlink:href="class_board.html#a841a248dac4743611ba1825afd5d1297" target="_top" xlink:title="Board::load">
<polygon fill="none" stroke="black" points="141,-147.5 141,-166.5 207,-166.5 207,-147.5 141,-147.5"/>
<text text-anchor="middle" x="174" y="-154.5" font-family="Helvetica,sans-Serif" font-size="10.00">Board::load</text>
</a>
</g>
</g>
<!-- Node23&#45;&gt;Node40 -->
<g id="edge21" class="edge"><title>Node23&#45;&gt;Node40</title>
<path fill="none" stroke="midnightblue" d="M68.0544,-185.898C86.8814,-180.714 110.662,-174.166 130.824,-168.614"/>
<polygon fill="midnightblue" stroke="midnightblue" points="131.979,-171.926 140.691,-165.897 130.121,-165.177 131.979,-171.926"/>
</g>
<!-- Node25 -->
<g id="node3" class="node"><title>Node25</title>
<g id="a_node3"><a xlink:href="class_goban.html#a6c4b62a9469b3876d250ab94bcd562e5" target="_top" xlink:title="Goban::eliminateOppositeKO">
<polygon fill="none" stroke="black" points="584,-304.5 584,-323.5 727,-323.5 727,-304.5 584,-304.5"/>
<text text-anchor="middle" x="655.5" y="-311.5" font-family="Helvetica,sans-Serif" font-size="10.00">Goban::eliminateOppositeKO</text>
</a>
</g>
</g>
<!-- Node24&#45;&gt;Node25 -->
<g id="edge2" class="edge"><title>Node24&#45;&gt;Node25</title>
<path fill="none" stroke="midnightblue" d="M378.34,-278.949C396.241,-282.671 418.186,-286.947 438,-290 482.62,-296.876 532.707,-302.558 573.458,-306.665"/>
<polygon fill="midnightblue" stroke="midnightblue" points="573.311,-310.167 583.608,-307.675 574.004,-303.202 573.311,-310.167"/>
</g>
<!-- Node26 -->
<g id="node4" class="node"><title>Node26</title>
<g id="a_node4"><a xlink:href="class_etat.html#aa88987ca54aee676717f05e4570c0aec" target="_top" xlink:title="Etat::setVal">
<polygon fill="none" stroke="black" points="763,-209.5 763,-228.5 831,-228.5 831,-209.5 763,-209.5"/>
<text text-anchor="middle" x="797" y="-216.5" font-family="Helvetica,sans-Serif" font-size="10.00">Etat::setVal</text>
</a>
</g>
</g>
<!-- Node24&#45;&gt;Node26 -->
<g id="edge5" class="edge"><title>Node24&#45;&gt;Node26</title>
<path fill="none" stroke="midnightblue" d="M378.178,-269.464C419.38,-267.501 488.676,-263.549 548,-257 620.15,-249.035 703.456,-235.337 752.821,-226.746"/>
<polygon fill="midnightblue" stroke="midnightblue" points="753.577,-230.166 762.823,-224.994 752.37,-223.271 753.577,-230.166"/>
</g>
<!-- Node27 -->
<g id="node5" class="node"><title>Node27</title>
<g id="a_node5"><a xlink:href="class_goban.html#a29aaf8df380fe614845d48cba057747c" target="_top" xlink:title="Goban::coord">
<polygon fill="none" stroke="black" points="455.5,-190.5 455.5,-209.5 530.5,-209.5 530.5,-190.5 455.5,-190.5"/>
<text text-anchor="middle" x="493" y="-197.5" font-family="Helvetica,sans-Serif" font-size="10.00">Goban::coord</text>
</a>
</g>
</g>
<!-- Node24&#45;&gt;Node27 -->
<g id="edge4" class="edge"><title>Node24&#45;&gt;Node27</title>
<path fill="none" stroke="midnightblue" d="M357.913,-261.367C376.643,-250.269 408.89,-231.908 438,-219 442.706,-216.913 447.718,-214.893 452.72,-212.998"/>
<polygon fill="midnightblue" stroke="midnightblue" points="454.049,-216.239 462.243,-209.523 451.649,-209.663 454.049,-216.239"/>
</g>
<!-- Node28 -->
<g id="node6" class="node"><title>Node28</title>
<g id="a_node6"><a xlink:href="class_history.html#a90222df7f73ae9cfda56bdb66cb1985e" target="_top" xlink:title="Add new state in history. ">
<polygon fill="none" stroke="black" points="458.5,-228.5 458.5,-247.5 527.5,-247.5 527.5,-228.5 458.5,-228.5"/>
<text text-anchor="middle" x="493" y="-235.5" font-family="Helvetica,sans-Serif" font-size="10.00">History::add</text>
</a>
</g>
</g>
<!-- Node24&#45;&gt;Node28 -->
<g id="edge6" class="edge"><title>Node24&#45;&gt;Node28</title>
<path fill="none" stroke="midnightblue" d="M378.311,-263.012C399.439,-258.363 426.208,-252.474 448.463,-247.578"/>
<polygon fill="midnightblue" stroke="midnightblue" points="449.32,-250.973 458.334,-245.406 447.816,-244.137 449.32,-250.973"/>
</g>
<!-- Node25&#45;&gt;Node26 -->
<g id="edge3" class="edge"><title>Node25&#45;&gt;Node26</title>
<path fill="none" stroke="midnightblue" d="M695.311,-304.415C706.048,-300.818 717.384,-296.081 727,-290 749.553,-275.737 770.129,-252.662 782.83,-236.708"/>
<polygon fill="midnightblue" stroke="midnightblue" points="785.691,-238.73 789.039,-228.678 780.153,-234.448 785.691,-238.73"/>
</g>
<!-- Node32 -->
<g id="node10" class="node"><title>Node32</title>
<g id="a_node10"><a xlink:href="class_goban.html#a1ec70508987f66afff5f8df381731fac" target="_top" xlink:title="Goban::eliminateGroups">
<polygon fill="none" stroke="black" points="280,-87.5 280,-106.5 402,-106.5 402,-87.5 280,-87.5"/>
<text text-anchor="middle" x="341" y="-94.5" font-family="Helvetica,sans-Serif" font-size="10.00">Goban::eliminateGroups</text>
</a>
</g>
</g>
<!-- Node31&#45;&gt;Node32 -->
<g id="edge10" class="edge"><title>Node31&#45;&gt;Node32</title>
<path fill="none" stroke="midnightblue" d="M244.019,-98.7451C252.494,-98.591 261.165,-98.4334 269.66,-98.2789"/>
<polygon fill="midnightblue" stroke="midnightblue" points="269.975,-101.774 279.91,-98.0926 269.848,-94.775 269.975,-101.774"/>
</g>
<!-- Node32&#45;&gt;Node26 -->
<g id="edge20" class="edge"><title>Node32&#45;&gt;Node26</title>
<path fill="none" stroke="midnightblue" d="M377.625,-106.573C460.048,-128.722 663.654,-183.436 752.906,-207.42"/>
<polygon fill="midnightblue" stroke="midnightblue" points="752.137,-210.837 762.703,-210.052 753.954,-204.077 752.137,-210.837"/>
</g>
<!-- Node32&#45;&gt;Node27 -->
<g id="edge19" class="edge"><title>Node32&#45;&gt;Node27</title>
<path fill="none" stroke="midnightblue" d="M385.541,-106.596C391.427,-109.056 397.113,-112.14 402,-116 426.404,-135.276 414.708,-155.394 438,-176 442.274,-179.781 447.24,-183.053 452.396,-185.857"/>
<polygon fill="midnightblue" stroke="midnightblue" points="451.248,-189.19 461.773,-190.409 454.305,-182.893 451.248,-189.19"/>
</g>
<!-- Node33 -->
<g id="node11" class="node"><title>Node33</title>
<g id="a_node11"><a xlink:href="class_goban.html#a84f36324eb9ddc29f522d481f04c13e7" target="_top" xlink:title="Goban::listOfLiberties">
<polygon fill="none" stroke="black" points="438,-78.5 438,-97.5 548,-97.5 548,-78.5 438,-78.5"/>
<text text-anchor="middle" x="493" y="-85.5" font-family="Helvetica,sans-Serif" font-size="10.00">Goban::listOfLiberties</text>
</a>
</g>
</g>
<!-- Node32&#45;&gt;Node33 -->
<g id="edge11" class="edge"><title>Node32&#45;&gt;Node33</title>
<path fill="none" stroke="midnightblue" d="M402.146,-93.3912C410.491,-92.8906 419.09,-92.3746 427.51,-91.8694"/>
<polygon fill="midnightblue" stroke="midnightblue" points="427.889,-95.3531 437.661,-91.2603 427.469,-88.3656 427.889,-95.3531"/>
</g>
<!-- Node34 -->
<g id="node12" class="node"><title>Node34</title>
<g id="a_node12"><a xlink:href="class_etat.html#aa25e66b110bc835523819392435e78c6" target="_top" xlink:title="Etat::getX">
<polygon fill="none" stroke="black" points="626,-114.5 626,-133.5 685,-133.5 685,-114.5 626,-114.5"/>
<text text-anchor="middle" x="655.5" y="-121.5" font-family="Helvetica,sans-Serif" font-size="10.00">Etat::getX</text>
</a>
</g>
</g>
<!-- Node33&#45;&gt;Node34 -->
<g id="edge12" class="edge"><title>Node33&#45;&gt;Node34</title>
<path fill="none" stroke="midnightblue" d="M536.59,-97.5528C561.293,-103.094 592.153,-110.016 616.106,-115.388"/>
<polygon fill="midnightblue" stroke="midnightblue" points="615.386,-118.814 625.91,-117.587 616.918,-111.983 615.386,-118.814"/>
</g>
<!-- Node35 -->
<g id="node13" class="node"><title>Node35</title>
<g id="a_node13"><a xlink:href="class_etat.html#a3e3e915f2261c83989a983e84b1273c1" target="_top" xlink:title="Etat::getY">
<polygon fill="none" stroke="black" points="625,-76.5 625,-95.5 686,-95.5 686,-76.5 625,-76.5"/>
<text text-anchor="middle" x="655.5" y="-83.5" font-family="Helvetica,sans-Serif" font-size="10.00">Etat::getY</text>
</a>
</g>
</g>
<!-- Node33&#45;&gt;Node35 -->
<g id="edge13" class="edge"><title>Node33&#45;&gt;Node35</title>
<path fill="none" stroke="midnightblue" d="M548.338,-87.3229C570.022,-87.0527 594.533,-86.7472 614.536,-86.498"/>
<polygon fill="midnightblue" stroke="midnightblue" points="614.591,-89.9977 624.546,-86.3733 614.504,-82.9982 614.591,-89.9977"/>
</g>
<!-- Node36 -->
<g id="node14" class="node"><title>Node36</title>
<g id="a_node14"><a xlink:href="class_goban.html#a0e2596110cdbb9b007b2b2fd8d5a9973" target="_top" xlink:title="Goban::DefineStone">
<polygon fill="none" stroke="black" points="603.5,-38.5 603.5,-57.5 707.5,-57.5 707.5,-38.5 603.5,-38.5"/>
<text text-anchor="middle" x="655.5" y="-45.5" font-family="Helvetica,sans-Serif" font-size="10.00">Goban::DefineStone</text>
</a>
</g>
</g>
<!-- Node33&#45;&gt;Node36 -->
<g id="edge14" class="edge"><title>Node33&#45;&gt;Node36</title>
<path fill="none" stroke="midnightblue" d="M532.444,-78.419C554.678,-72.8778 582.852,-65.8561 606.529,-59.9554"/>
<polygon fill="midnightblue" stroke="midnightblue" points="607.513,-63.3173 616.37,-57.5028 605.82,-56.525 607.513,-63.3173"/>
</g>
<!-- Node36&#45;&gt;Node26 -->
<g id="edge17" class="edge"><title>Node36&#45;&gt;Node26</title>
<path fill="none" stroke="midnightblue" d="M707.725,-55.9761C714.712,-58.6637 721.395,-62.2413 727,-67 768.302,-102.068 786.078,-166.983 792.663,-199.448"/>
<polygon fill="midnightblue" stroke="midnightblue" points="789.26,-200.293 794.546,-209.475 796.14,-199.001 789.26,-200.293"/>
</g>
<!-- Node37 -->
<g id="node15" class="node"><title>Node37</title>
<g id="a_node15"><a xlink:href="class_etat.html#ac020c4fe222274ac849a03fc8f19a99a" target="_top" xlink:title="Etat::setX">
<polygon fill="none" stroke="black" points="767.5,-38.5 767.5,-57.5 826.5,-57.5 826.5,-38.5 767.5,-38.5"/>
<text text-anchor="middle" x="797" y="-45.5" font-family="Helvetica,sans-Serif" font-size="10.00">Etat::setX</text>
</a>
</g>
</g>
<!-- Node36&#45;&gt;Node37 -->
<g id="edge15" class="edge"><title>Node36&#45;&gt;Node37</title>
<path fill="none" stroke="midnightblue" d="M707.653,-48C723.953,-48 741.715,-48 757.01,-48"/>
<polygon fill="midnightblue" stroke="midnightblue" points="757.156,-51.5001 767.156,-48 757.156,-44.5001 757.156,-51.5001"/>
</g>
<!-- Node38 -->
<g id="node16" class="node"><title>Node38</title>
<g id="a_node16"><a xlink:href="class_etat.html#a8a54fc9ecb1b97d84d2f1f259e3bf70e" target="_top" xlink:title="Etat::setY">
<polygon fill="none" stroke="black" points="766.5,-0.5 766.5,-19.5 827.5,-19.5 827.5,-0.5 766.5,-0.5"/>
<text text-anchor="middle" x="797" y="-7.5" font-family="Helvetica,sans-Serif" font-size="10.00">Etat::setY</text>
</a>
</g>
</g>
<!-- Node36&#45;&gt;Node38 -->
<g id="edge16" class="edge"><title>Node36&#45;&gt;Node38</title>
<path fill="none" stroke="midnightblue" d="M691.702,-38.411C711.54,-33.0071 736.366,-26.2443 756.82,-20.6726"/>
<polygon fill="midnightblue" stroke="midnightblue" points="757.74,-24.0496 766.469,-18.0443 755.901,-17.2957 757.74,-24.0496"/>
</g>
<!-- Node39 -->
<g id="node17" class="node"><title>Node39</title>
<g id="a_node17"><a xlink:href="class_goban.html#a579840586df08a58983f6b497979344b" target="_top" xlink:title="Goban::ctoi">
<polygon fill="none" stroke="black" points="763.5,-76.5 763.5,-95.5 830.5,-95.5 830.5,-76.5 763.5,-76.5"/>
<text text-anchor="middle" x="797" y="-83.5" font-family="Helvetica,sans-Serif" font-size="10.00">Goban::ctoi</text>
</a>
</g>
</g>
<!-- Node36&#45;&gt;Node39 -->
<g id="edge18" class="edge"><title>Node36&#45;&gt;Node39</title>
<path fill="none" stroke="midnightblue" d="M692.014,-57.5306C703.211,-60.5465 715.626,-63.9013 727,-67 735.623,-69.3492 744.848,-71.8782 753.655,-74.3006"/>
<polygon fill="midnightblue" stroke="midnightblue" points="752.797,-77.6945 763.367,-76.975 754.655,-70.9457 752.797,-77.6945"/>
</g>
<!-- Node40&#45;&gt;Node27 -->
<g id="edge23" class="edge"><title>Node40&#45;&gt;Node27</title>
<path fill="none" stroke="midnightblue" d="M207.259,-164.814C218.951,-167.925 232.184,-171.774 244,-176 260.486,-181.896 262.944,-188.043 280,-192 335.685,-204.919 401.772,-205.114 445.181,-203.265"/>
<polygon fill="midnightblue" stroke="midnightblue" points="445.617,-206.748 455.438,-202.771 445.281,-199.756 445.617,-206.748"/>
</g>
<!-- Node41 -->
<g id="node19" class="node"><title>Node41</title>
<g id="a_node19"><a xlink:href="class_square.html#a5fa0cbfce721c687308eec8e1a029d25" target="_top" xlink:title="Square::setValue">
<polygon fill="none" stroke="black" points="295,-163.5 295,-182.5 387,-182.5 387,-163.5 295,-163.5"/>
<text text-anchor="middle" x="341" y="-170.5" font-family="Helvetica,sans-Serif" font-size="10.00">Square::setValue</text>
</a>
</g>
</g>
<!-- Node40&#45;&gt;Node41 -->
<g id="edge22" class="edge"><title>Node40&#45;&gt;Node41</title>
<path fill="none" stroke="midnightblue" d="M207.205,-160.123C229.229,-162.259 258.985,-165.144 284.747,-167.642"/>
<polygon fill="midnightblue" stroke="midnightblue" points="284.477,-171.132 294.768,-168.614 285.153,-164.165 284.477,-171.132"/>
</g>
<!-- Node42 -->
<g id="node20" class="node"><title>Node42</title>
<g id="a_node20"><a xlink:href="class_etat.html#ac0b81bbcf64cb3cc574e5a9dcdf94382" target="_top" xlink:title="Etat::getVal">
<polygon fill="none" stroke="black" points="307,-125.5 307,-144.5 375,-144.5 375,-125.5 307,-125.5"/>
<text text-anchor="middle" x="341" y="-132.5" font-family="Helvetica,sans-Serif" font-size="10.00">Etat::getVal</text>
</a>
</g>
</g>
<!-- Node40&#45;&gt;Node42 -->
<g id="edge24" class="edge"><title>Node40&#45;&gt;Node42</title>
<path fill="none" stroke="midnightblue" d="M207.205,-152.706C232.765,-149.298 268.739,-144.501 296.799,-140.76"/>
<polygon fill="midnightblue" stroke="midnightblue" points="297.295,-144.225 306.745,-139.434 296.37,-137.286 297.295,-144.225"/>
</g>
</g>
</svg>
