<?xml version="1.0" encoding="UTF-8" standalone="no"?>
<!DOCTYPE svg PUBLIC "-//W3C//DTD SVG 1.1//EN"
 "http://www.w3.org/Graphics/SVG/1.1/DTD/svg11.dtd">
<!-- Generated by graphviz version 2.38.0 (20140413.2041)
 -->
<!-- Title: Menu_simple Pages: 1 -->
<svg width="115pt" height="502pt"
 viewBox="0.00 0.00 115.00 502.00" xmlns="http://www.w3.org/2000/svg" xmlns:xlink="http://www.w3.org/1999/xlink">
<g id="graph0" class="graph" transform="scale(1 1) rotate(0) translate(4 498)">
<title>Menu_simple</title>
<!-- Node0 -->
<g id="node1" class="node"><title>Node0</title>
<polygon fill="#bfbfbf" stroke="black" points="0,-0.5 0,-101.5 107,-101.5 107,-0.5 0,-0.5"/>
<text text-anchor="middle" x="53.5" y="-89.5" font-family="Helvetica,sans-Serif" font-size="10.00">Menu_simple</text>
<polyline fill="none" stroke="black" points="0,-82.5 107,-82.5 "/>
<text text-anchor="middle" x="53.5" y="-70.5" font-family="Helvetica,sans-Serif" font-size="10.00"> </text>
<polyline fill="none" stroke="black" points="0,-63.5 107,-63.5 "/>
<text text-anchor="start" x="8" y="-51.5" font-family="Helvetica,sans-Serif" font-size="10.00">+ Menu_simple()</text>
<text text-anchor="start" x="8" y="-40.5" font-family="Helvetica,sans-Serif" font-size="10.00">+ ~Menu_simple()</text>
<text text-anchor="start" x="8" y="-29.5" font-family="Helvetica,sans-Serif" font-size="10.00">+ setItemsTextures()</text>
<text text-anchor="start" x="8" y="-18.5" font-family="Helvetica,sans-Serif" font-size="10.00">+ setItemsFonts()</text>
<text text-anchor="start" x="8" y="-7.5" font-family="Helvetica,sans-Serif" font-size="10.00">+ addItem()</text>
</g>
<!-- Node1 -->
<g id="node2" class="node"><title>Node1</title>
<g id="a_node2"><a xlink:href="class_menu.html" target="_top" xlink:title="{Menu\n|# choices\l# cur_choice\l|+ Menu()\l+ ~Menu()\l+ draw()\l+ Run()\l+ getSize()\l+ getPosition()\l+ addItem()\l+ setPrevious()\l+ showAdresses()\l}">
<polygon fill="none" stroke="black" points="6,-138.5 6,-294.5 101,-294.5 101,-138.5 6,-138.5"/>
<text text-anchor="middle" x="53.5" y="-282.5" font-family="Helvetica,sans-Serif" font-size="10.00">Menu</text>
<polyline fill="none" stroke="black" points="6,-275.5 101,-275.5 "/>
<text text-anchor="start" x="14" y="-263.5" font-family="Helvetica,sans-Serif" font-size="10.00"># choices</text>
<text text-anchor="start" x="14" y="-252.5" font-family="Helvetica,sans-Serif" font-size="10.00"># cur_choice</text>
<polyline fill="none" stroke="black" points="6,-245.5 101,-245.5 "/>
<text text-anchor="start" x="14" y="-233.5" font-family="Helvetica,sans-Serif" font-size="10.00">+ Menu()</text>
<text text-anchor="start" x="14" y="-222.5" font-family="Helvetica,sans-Serif" font-size="10.00">+ ~Menu()</text>
<text text-anchor="start" x="14" y="-211.5" font-family="Helvetica,sans-Serif" font-size="10.00">+ draw()</text>
<text text-anchor="start" x="14" y="-200.5" font-family="Helvetica,sans-Serif" font-size="10.00">+ Run()</text>
<text text-anchor="start" x="14" y="-189.5" font-family="Helvetica,sans-Serif" font-size="10.00">+ getSize()</text>
<text text-anchor="start" x="14" y="-178.5" font-family="Helvetica,sans-Serif" font-size="10.00">+ getPosition()</text>
<text text-anchor="start" x="14" y="-167.5" font-family="Helvetica,sans-Serif" font-size="10.00">+ addItem()</text>
<text text-anchor="start" x="14" y="-156.5" font-family="Helvetica,sans-Serif" font-size="10.00">+ setPrevious()</text>
<text text-anchor="start" x="14" y="-145.5" font-family="Helvetica,sans-Serif" font-size="10.00">+ showAdresses()</text>
</a>
</g>
</g>
<!-- Node1&#45;&gt;Node0 -->
<g id="edge1" class="edge"><title>Node1&#45;&gt;Node0</title>
<path fill="none" stroke="midnightblue" d="M53.5,-127.897C53.5,-118.911 53.5,-110.02 53.5,-101.661"/>
<polygon fill="none" stroke="midnightblue" points="50.0001,-128.059 53.5,-138.059 57.0001,-128.059 50.0001,-128.059"/>
</g>
<!-- Node2 -->
<g id="node3" class="node"><title>Node2</title>
<g id="a_node3"><a xlink:href="class_screen.html" target="_top" xlink:title="{Screen\n||+ Run()\l+ draw()\l}">
<polygon fill="none" stroke="black" points="27.5,-331.5 27.5,-399.5 79.5,-399.5 79.5,-331.5 27.5,-331.5"/>
<text text-anchor="middle" x="53.5" y="-387.5" font-family="Helvetica,sans-Serif" font-size="10.00">Screen</text>
<polyline fill="none" stroke="black" points="27.5,-380.5 79.5,-380.5 "/>
<text text-anchor="middle" x="53.5" y="-368.5" font-family="Helvetica,sans-Serif" font-size="10.00"> </text>
<polyline fill="none" stroke="black" points="27.5,-361.5 79.5,-361.5 "/>
<text text-anchor="start" x="35.5" y="-349.5" font-family="Helvetica,sans-Serif" font-size="10.00">+ Run()</text>
<text text-anchor="start" x="35.5" y="-338.5" font-family="Helvetica,sans-Serif" font-size="10.00">+ draw()</text>
</a>
</g>
</g>
<!-- Node2&#45;&gt;Node1 -->
<g id="edge2" class="edge"><title>Node2&#45;&gt;Node1</title>
<path fill="none" stroke="midnightblue" d="M53.5,-321C53.5,-312.7 53.5,-303.784 53.5,-294.792"/>
<polygon fill="none" stroke="midnightblue" points="50.0001,-321.143 53.5,-331.143 57.0001,-321.143 50.0001,-321.143"/>
</g>
<!-- Node3 -->
<g id="node4" class="node"><title>Node3</title>
<polygon fill="none" stroke="#bfbfbf" points="25.5,-436.5 25.5,-493.5 81.5,-493.5 81.5,-436.5 25.5,-436.5"/>
<text text-anchor="middle" x="53.5" y="-481.5" font-family="Helvetica,sans-Serif" font-size="10.00">Drawable</text>
<polyline fill="none" stroke="#bfbfbf" points="25.5,-474.5 81.5,-474.5 "/>
<text text-anchor="middle" x="53.5" y="-462.5" font-family="Helvetica,sans-Serif" font-size="10.00"> </text>
<polyline fill="none" stroke="#bfbfbf" points="25.5,-455.5 81.5,-455.5 "/>
<text text-anchor="middle" x="53.5" y="-443.5" font-family="Helvetica,sans-Serif" font-size="10.00"> </text>
</g>
<!-- Node3&#45;&gt;Node2 -->
<g id="edge3" class="edge"><title>Node3&#45;&gt;Node2</title>
<path fill="none" stroke="midnightblue" d="M53.5,-426.063C53.5,-417.393 53.5,-408.243 53.5,-399.786"/>
<polygon fill="none" stroke="midnightblue" points="50.0001,-426.321 53.5,-436.321 57.0001,-426.321 50.0001,-426.321"/>
</g>
</g>
</svg>
