<?xml version="1.0" encoding="UTF-8" standalone="no"?>
<!DOCTYPE svg PUBLIC "-//W3C//DTD SVG 1.1//EN"
 "http://www.w3.org/Graphics/SVG/1.1/DTD/svg11.dtd">
<!-- Generated by graphviz version 2.38.0 (20140413.2041)
 -->
<!-- Title: Etat::getVal Pages: 1 -->
<svg width="686pt" height="255pt"
 viewBox="0.00 0.00 686.00 255.00" xmlns="http://www.w3.org/2000/svg" xmlns:xlink="http://www.w3.org/1999/xlink">
<g id="graph0" class="graph" transform="scale(1 1) rotate(0) translate(4 251)">
<title>Etat::getVal</title>
<!-- Node13 -->
<g id="node1" class="node"><title>Node13</title>
<polygon fill="#bfbfbf" stroke="black" points="0,-114.5 0,-133.5 68,-133.5 68,-114.5 0,-114.5"/>
<text text-anchor="middle" x="34" y="-121.5" font-family="Helvetica,sans-Serif" font-size="10.00">Etat::getVal</text>
</g>
<!-- Node14 -->
<g id="node2" class="node"><title>Node14</title>
<g id="a_node2"><a xlink:href="class_arbre.html#acd12cae4820bb7780a628716a0615d10" target="_top" xlink:title="Arbre::Tsumego">
<polygon fill="none" stroke="black" points="259,-209.5 259,-228.5 345,-228.5 345,-209.5 259,-209.5"/>
<text text-anchor="middle" x="302" y="-216.5" font-family="Helvetica,sans-Serif" font-size="10.00">Arbre::Tsumego</text>
</a>
</g>
</g>
<!-- Node13&#45;&gt;Node14 -->
<g id="edge1" class="edge"><title>Node13&#45;&gt;Node14</title>
<path fill="none" stroke="midnightblue" d="M42.3737,-142.949C52.4225,-165.797 72.8155,-203.108 104,-219 154.584,-244.779 222.4,-237.126 263.831,-228.558"/>
<polygon fill="midnightblue" stroke="midnightblue" points="45.5559,-141.486 38.4829,-133.598 39.0929,-144.175 45.5559,-141.486"/>
</g>
<!-- Node17 -->
<g id="node5" class="node"><title>Node17</title>
<g id="a_node5"><a xlink:href="_etat_8h.html#a1a56483b3043376a37fcc4b81aac6f98" target="_top" xlink:title="operator\&lt;\&lt;">
<polygon fill="none" stroke="black" points="121,-190.5 121,-209.5 185,-209.5 185,-190.5 121,-190.5"/>
<text text-anchor="middle" x="153" y="-197.5" font-family="Helvetica,sans-Serif" font-size="10.00">operator&lt;&lt;</text>
</a>
</g>
</g>
<!-- Node13&#45;&gt;Node17 -->
<g id="edge5" class="edge"><title>Node13&#45;&gt;Node17</title>
<path fill="none" stroke="midnightblue" d="M51.9776,-140.624C65.2873,-152.984 84.7242,-169.611 104,-181 110.096,-184.602 117,-187.79 123.634,-190.477"/>
<polygon fill="midnightblue" stroke="midnightblue" points="54.2015,-137.909 44.5385,-133.565 49.3831,-142.987 54.2015,-137.909"/>
</g>
<!-- Node18 -->
<g id="node6" class="node"><title>Node18</title>
<g id="a_node6"><a xlink:href="class_goban.html#a8c49da36e406f11d33671a4c8a4c19b2" target="_top" xlink:title="Goban::Goban">
<polygon fill="none" stroke="black" points="113,-152.5 113,-171.5 193,-171.5 193,-152.5 113,-152.5"/>
<text text-anchor="middle" x="153" y="-159.5" font-family="Helvetica,sans-Serif" font-size="10.00">Goban::Goban</text>
</a>
</g>
</g>
<!-- Node13&#45;&gt;Node18 -->
<g id="edge6" class="edge"><title>Node13&#45;&gt;Node18</title>
<path fill="none" stroke="midnightblue" d="M74.0424,-136.68C89.8509,-141.815 107.799,-147.644 122.485,-152.414"/>
<polygon fill="midnightblue" stroke="midnightblue" points="75.1162,-133.349 64.524,-133.589 72.9538,-140.007 75.1162,-133.349"/>
</g>
<!-- Node19 -->
<g id="node7" class="node"><title>Node19</title>
<g id="a_node7"><a xlink:href="class_goban.html#a8b95ea2b51c078381562e361ff7febac" target="_top" xlink:title="Goban::isSuicide">
<polygon fill="none" stroke="black" points="107.5,-114.5 107.5,-133.5 198.5,-133.5 198.5,-114.5 107.5,-114.5"/>
<text text-anchor="middle" x="153" y="-121.5" font-family="Helvetica,sans-Serif" font-size="10.00">Goban::isSuicide</text>
</a>
</g>
</g>
<!-- Node13&#45;&gt;Node19 -->
<g id="edge7" class="edge"><title>Node13&#45;&gt;Node19</title>
<path fill="none" stroke="midnightblue" d="M78.2352,-124C87.7263,-124 97.7937,-124 107.34,-124"/>
<polygon fill="midnightblue" stroke="midnightblue" points="78.2146,-120.5 68.2145,-124 78.2145,-127.5 78.2146,-120.5"/>
</g>
<!-- Node20 -->
<g id="node8" class="node"><title>Node20</title>
<g id="a_node8"><a xlink:href="class_board.html#a841a248dac4743611ba1825afd5d1297" target="_top" xlink:title="Board::load">
<polygon fill="none" stroke="black" points="120,-76.5 120,-95.5 186,-95.5 186,-76.5 120,-76.5"/>
<text text-anchor="middle" x="153" y="-83.5" font-family="Helvetica,sans-Serif" font-size="10.00">Board::load</text>
</a>
</g>
</g>
<!-- Node13&#45;&gt;Node20 -->
<g id="edge8" class="edge"><title>Node13&#45;&gt;Node20</title>
<path fill="none" stroke="midnightblue" d="M74.0424,-111.32C89.8509,-106.185 107.799,-100.356 122.485,-95.5859"/>
<polygon fill="midnightblue" stroke="midnightblue" points="72.9538,-107.993 64.524,-114.411 75.1162,-114.651 72.9538,-107.993"/>
</g>
<!-- Node26 -->
<g id="node14" class="node"><title>Node26</title>
<g id="a_node14"><a xlink:href="_main_8cpp.html#a015a298e56541fc04e0b8a214322507f" target="_top" xlink:title="compressGoban">
<polygon fill="none" stroke="black" points="109,-38.5 109,-57.5 197,-57.5 197,-38.5 109,-38.5"/>
<text text-anchor="middle" x="153" y="-45.5" font-family="Helvetica,sans-Serif" font-size="10.00">compressGoban</text>
</a>
</g>
</g>
<!-- Node13&#45;&gt;Node26 -->
<g id="edge16" class="edge"><title>Node13&#45;&gt;Node26</title>
<path fill="none" stroke="midnightblue" d="M51.9776,-107.376C65.2873,-95.0161 84.7242,-78.3895 104,-67 110.096,-63.3982 117,-60.21 123.634,-57.5232"/>
<polygon fill="midnightblue" stroke="midnightblue" points="49.3831,-105.013 44.5385,-114.435 54.2015,-110.091 49.3831,-105.013"/>
</g>
<!-- Node28 -->
<g id="node16" class="node"><title>Node28</title>
<g id="a_node16"><a xlink:href="_main_8cpp.html#abe2b758b8f0c5163537fb4f1ae2b3838" target="_top" xlink:title="uncompressGoban">
<polygon fill="none" stroke="black" points="104,-0.5 104,-19.5 202,-19.5 202,-0.5 104,-0.5"/>
<text text-anchor="middle" x="153" y="-7.5" font-family="Helvetica,sans-Serif" font-size="10.00">uncompressGoban</text>
</a>
</g>
</g>
<!-- Node13&#45;&gt;Node28 -->
<g id="edge18" class="edge"><title>Node13&#45;&gt;Node28</title>
<path fill="none" stroke="midnightblue" d="M44.3695,-105.284C55.8139,-84.13 77.0256,-49.9249 104,-29 108.886,-25.2096 114.626,-22.0821 120.403,-19.5356"/>
<polygon fill="midnightblue" stroke="midnightblue" points="41.2146,-103.764 39.6829,-114.248 47.4179,-107.007 41.2146,-103.764"/>
</g>
<!-- Node14&#45;&gt;Node14 -->
<g id="edge2" class="edge"><title>Node14&#45;&gt;Node14</title>
<path fill="none" stroke="midnightblue" d="M274.374,-237.654C275.529,-242.937 284.738,-247 302,-247 328.305,-247 335.908,-237.565 324.811,-228.757"/>
<polygon fill="midnightblue" stroke="midnightblue" points="277.508,-239.218 279.189,-228.757 271.351,-235.886 277.508,-239.218"/>
</g>
<!-- Node15 -->
<g id="node3" class="node"><title>Node15</title>
<g id="a_node3"><a xlink:href="class_game__window.html#a72304de2044c29f1373037bd818f674f" target="_top" xlink:title="Game_window::keyPressed">
<polygon fill="none" stroke="black" points="402,-152.5 402,-171.5 539,-171.5 539,-152.5 402,-152.5"/>
<text text-anchor="middle" x="470.5" y="-159.5" font-family="Helvetica,sans-Serif" font-size="10.00">Game_window::keyPressed</text>
</a>
</g>
</g>
<!-- Node14&#45;&gt;Node15 -->
<g id="edge3" class="edge"><title>Node14&#45;&gt;Node15</title>
<path fill="none" stroke="midnightblue" d="M340.366,-206.208C371.031,-195.71 413.774,-181.077 441.541,-171.572"/>
<polygon fill="midnightblue" stroke="midnightblue" points="339.196,-202.909 330.868,-209.459 341.463,-209.532 339.196,-202.909"/>
</g>
<!-- Node16 -->
<g id="node4" class="node"><title>Node16</title>
<g id="a_node4"><a xlink:href="class_game__window.html#aec21feecf4c72d73c13d82aa12df6930" target="_top" xlink:title="Game_window::Run">
<polygon fill="none" stroke="black" points="575,-133.5 575,-152.5 678,-152.5 678,-133.5 575,-133.5"/>
<text text-anchor="middle" x="626.5" y="-140.5" font-family="Helvetica,sans-Serif" font-size="10.00">Game_window::Run</text>
</a>
</g>
</g>
<!-- Node15&#45;&gt;Node16 -->
<g id="edge4" class="edge"><title>Node15&#45;&gt;Node16</title>
<path fill="none" stroke="midnightblue" d="M549.186,-152.415C557.84,-151.348 566.484,-150.281 574.678,-149.27"/>
<polygon fill="midnightblue" stroke="midnightblue" points="548.543,-148.968 539.047,-153.666 549.4,-155.915 548.543,-148.968"/>
</g>
<!-- Node21 -->
<g id="node9" class="node"><title>Node21</title>
<g id="a_node9"><a xlink:href="class_board.html#a5fda73da080403d8a71a8593d581c350" target="_top" xlink:title="Board::click">
<polygon fill="none" stroke="black" points="268,-114.5 268,-133.5 336,-133.5 336,-114.5 268,-114.5"/>
<text text-anchor="middle" x="302" y="-121.5" font-family="Helvetica,sans-Serif" font-size="10.00">Board::click</text>
</a>
</g>
</g>
<!-- Node20&#45;&gt;Node21 -->
<g id="edge9" class="edge"><title>Node20&#45;&gt;Node21</title>
<path fill="none" stroke="midnightblue" d="M196.009,-96.8594C218.789,-102.748 246.545,-109.923 267.797,-115.417"/>
<polygon fill="midnightblue" stroke="midnightblue" points="196.818,-93.4535 186.26,-94.3393 195.066,-100.231 196.818,-93.4535"/>
</g>
<!-- Node23 -->
<g id="node11" class="node"><title>Node23</title>
<g id="a_node11"><a xlink:href="class_board.html#ac7ec911a62371650afd340d1535a1742" target="_top" xlink:title="Board::cancel">
<polygon fill="none" stroke="black" points="263.5,-152.5 263.5,-171.5 340.5,-171.5 340.5,-152.5 263.5,-152.5"/>
<text text-anchor="middle" x="302" y="-159.5" font-family="Helvetica,sans-Serif" font-size="10.00">Board::cancel</text>
</a>
</g>
</g>
<!-- Node20&#45;&gt;Node23 -->
<g id="edge12" class="edge"><title>Node20&#45;&gt;Node23</title>
<path fill="none" stroke="midnightblue" d="M193.251,-99.8453C196.298,-101.425 199.253,-103.142 202,-105 221.271,-118.033 218.199,-130.787 238,-143 245.681,-147.738 254.622,-151.361 263.312,-154.106"/>
<polygon fill="midnightblue" stroke="midnightblue" points="194.5,-96.566 183.956,-95.5212 191.547,-102.913 194.5,-96.566"/>
</g>
<!-- Node24 -->
<g id="node12" class="node"><title>Node24</title>
<g id="a_node12"><a xlink:href="class_board.html#a3cea4df16e41c21666cf51789b7e9e78" target="_top" xlink:title="Board::load">
<polygon fill="none" stroke="black" points="269,-76.5 269,-95.5 335,-95.5 335,-76.5 269,-76.5"/>
<text text-anchor="middle" x="302" y="-83.5" font-family="Helvetica,sans-Serif" font-size="10.00">Board::load</text>
</a>
</g>
</g>
<!-- Node20&#45;&gt;Node24 -->
<g id="edge14" class="edge"><title>Node20&#45;&gt;Node24</title>
<path fill="none" stroke="midnightblue" d="M196.462,-86C219.522,-86 247.577,-86 268.815,-86"/>
<polygon fill="midnightblue" stroke="midnightblue" points="196.26,-82.5001 186.26,-86 196.26,-89.5001 196.26,-82.5001"/>
</g>
<!-- Node25 -->
<g id="node13" class="node"><title>Node25</title>
<g id="a_node13"><a xlink:href="class_game__window.html#a35801adc41e40f90a36cff6db14defcd" target="_top" xlink:title="Game_window::setGoban">
<polygon fill="none" stroke="black" points="238,-38.5 238,-57.5 366,-57.5 366,-38.5 238,-38.5"/>
<text text-anchor="middle" x="302" y="-45.5" font-family="Helvetica,sans-Serif" font-size="10.00">Game_window::setGoban</text>
</a>
</g>
</g>
<!-- Node20&#45;&gt;Node25 -->
<g id="edge15" class="edge"><title>Node20&#45;&gt;Node25</title>
<path fill="none" stroke="midnightblue" d="M196.097,-75.1179C217.579,-69.5646 243.47,-62.8717 264.155,-57.5246"/>
<polygon fill="midnightblue" stroke="midnightblue" points="195.066,-71.7693 186.26,-77.6607 196.818,-78.5465 195.066,-71.7693"/>
</g>
<!-- Node22 -->
<g id="node10" class="node"><title>Node22</title>
<g id="a_node10"><a xlink:href="class_game__window.html#afa942088809bf10731bb31d0d37b878d" target="_top" xlink:title="Game_window::click">
<polygon fill="none" stroke="black" points="417.5,-114.5 417.5,-133.5 523.5,-133.5 523.5,-114.5 417.5,-114.5"/>
<text text-anchor="middle" x="470.5" y="-121.5" font-family="Helvetica,sans-Serif" font-size="10.00">Game_window::click</text>
</a>
</g>
</g>
<!-- Node21&#45;&gt;Node22 -->
<g id="edge10" class="edge"><title>Node21&#45;&gt;Node22</title>
<path fill="none" stroke="midnightblue" d="M346.512,-124C368.167,-124 394.509,-124 417.25,-124"/>
<polygon fill="midnightblue" stroke="midnightblue" points="346.294,-120.5 336.294,-124 346.294,-127.5 346.294,-120.5"/>
</g>
<!-- Node22&#45;&gt;Node16 -->
<g id="edge11" class="edge"><title>Node22&#45;&gt;Node16</title>
<path fill="none" stroke="midnightblue" d="M533.924,-131.702C547.576,-133.386 561.862,-135.149 574.981,-136.767"/>
<polygon fill="midnightblue" stroke="midnightblue" points="533.991,-128.183 523.637,-130.433 533.134,-135.131 533.991,-128.183"/>
</g>
<!-- Node23&#45;&gt;Node15 -->
<g id="edge13" class="edge"><title>Node23&#45;&gt;Node15</title>
<path fill="none" stroke="midnightblue" d="M350.871,-162C366.735,-162 384.704,-162 401.771,-162"/>
<polygon fill="midnightblue" stroke="midnightblue" points="350.781,-158.5 340.781,-162 350.781,-165.5 350.781,-158.5"/>
</g>
<!-- Node27 -->
<g id="node15" class="node"><title>Node27</title>
<g id="a_node15"><a xlink:href="_main_8cpp.html#ae1a3968e7947464bee7714f6d43b7002" target="_top" xlink:title="test">
<polygon fill="none" stroke="black" points="285.5,-0.5 285.5,-19.5 318.5,-19.5 318.5,-0.5 285.5,-0.5"/>
<text text-anchor="middle" x="302" y="-7.5" font-family="Helvetica,sans-Serif" font-size="10.00">test</text>
</a>
</g>
</g>
<!-- Node26&#45;&gt;Node27 -->
<g id="edge17" class="edge"><title>Node26&#45;&gt;Node27</title>
<path fill="none" stroke="midnightblue" d="M201.065,-35.8335C230.104,-28.3269 265.494,-19.1784 285.416,-14.0284"/>
<polygon fill="midnightblue" stroke="midnightblue" points="199.9,-32.5195 191.094,-38.411 201.652,-39.2968 199.9,-32.5195"/>
</g>
<!-- Node28&#45;&gt;Node27 -->
<g id="edge19" class="edge"><title>Node28&#45;&gt;Node27</title>
<path fill="none" stroke="midnightblue" d="M212.47,-10C238.87,-10 267.973,-10 285.355,-10"/>
<polygon fill="midnightblue" stroke="midnightblue" points="212.133,-6.5001 202.133,-10 212.133,-13.5001 212.133,-6.5001"/>
</g>
</g>
</svg>
