<?xml version="1.0" encoding="UTF-8" standalone="no"?>
<!DOCTYPE svg PUBLIC "-//W3C//DTD SVG 1.1//EN"
 "http://www.w3.org/Graphics/SVG/1.1/DTD/svg11.dtd">
<!-- Generated by graphviz version 2.38.0 (20140413.2041)
 -->
<!-- Title: Goban::rechercheGroupes Pages: 1 -->
<svg width="740pt" height="180pt"
 viewBox="0.00 0.00 740.00 180.00" xmlns="http://www.w3.org/2000/svg" xmlns:xlink="http://www.w3.org/1999/xlink">
<g id="graph0" class="graph" transform="scale(1 1) rotate(0) translate(4 176)">
<title>Goban::rechercheGroupes</title>
<!-- Node242 -->
<g id="node1" class="node"><title>Node242</title>
<polygon fill="#bfbfbf" stroke="black" points="0,-76.5 0,-95.5 131,-95.5 131,-76.5 0,-76.5"/>
<text text-anchor="middle" x="65.5" y="-83.5" font-family="Helvetica,sans-Serif" font-size="10.00">Goban::rechercheGroupes</text>
</g>
<!-- Node243 -->
<g id="node2" class="node"><title>Node243</title>
<g id="a_node2"><a xlink:href="class_goban.html#a799390f04139eec16f7bb8c79b381303" target="_top" xlink:title="Goban::legalEvenKO">
<polygon fill="none" stroke="black" points="179,-152.5 179,-171.5 286,-171.5 286,-152.5 179,-152.5"/>
<text text-anchor="middle" x="232.5" y="-159.5" font-family="Helvetica,sans-Serif" font-size="10.00">Goban::legalEvenKO</text>
</a>
</g>
</g>
<!-- Node242&#45;&gt;Node243 -->
<g id="edge1" class="edge"><title>Node242&#45;&gt;Node243</title>
<path fill="none" stroke="midnightblue" d="M89.5918,-101.128C109.474,-113.651 139.262,-131.233 167,-143 175.49,-146.601 184.882,-149.79 193.812,-152.476"/>
<polygon fill="midnightblue" stroke="midnightblue" points="91.2503,-98.0347 80.9383,-95.6027 87.483,-103.934 91.2503,-98.0347"/>
</g>
<!-- Node244 -->
<g id="node3" class="node"><title>Node244</title>
<g id="a_node3"><a xlink:href="class_goban.html#abd6663ff5c440bf6def073db02df83f0" target="_top" xlink:title="Goban::rechercheGroupes">
<polygon fill="none" stroke="black" points="167,-114.5 167,-133.5 298,-133.5 298,-114.5 167,-114.5"/>
<text text-anchor="middle" x="232.5" y="-121.5" font-family="Helvetica,sans-Serif" font-size="10.00">Goban::rechercheGroupes</text>
</a>
</g>
</g>
<!-- Node242&#45;&gt;Node244 -->
<g id="edge2" class="edge"><title>Node242&#45;&gt;Node244</title>
<path fill="none" stroke="midnightblue" d="M118.154,-97.8961C141.346,-103.237 168.338,-109.454 190.163,-114.48"/>
<polygon fill="midnightblue" stroke="midnightblue" points="118.667,-94.4226 108.136,-95.589 117.096,-101.244 118.667,-94.4226"/>
</g>
<!-- Node245 -->
<g id="node4" class="node"><title>Node245</title>
<g id="a_node4"><a xlink:href="class_goban.html#a8b95ea2b51c078381562e361ff7febac" target="_top" xlink:title="Goban::isSuicide">
<polygon fill="none" stroke="black" points="187,-76.5 187,-95.5 278,-95.5 278,-76.5 187,-76.5"/>
<text text-anchor="middle" x="232.5" y="-83.5" font-family="Helvetica,sans-Serif" font-size="10.00">Goban::isSuicide</text>
</a>
</g>
</g>
<!-- Node242&#45;&gt;Node245 -->
<g id="edge3" class="edge"><title>Node242&#45;&gt;Node245</title>
<path fill="none" stroke="midnightblue" d="M141.364,-86C156.886,-86 172.773,-86 186.799,-86"/>
<polygon fill="midnightblue" stroke="midnightblue" points="141.239,-82.5001 131.239,-86 141.239,-89.5001 141.239,-82.5001"/>
</g>
<!-- Node246 -->
<g id="node5" class="node"><title>Node246</title>
<g id="a_node5"><a xlink:href="class_goban.html#a36ab256c9430e070b620052a0f13f051" target="_top" xlink:title="Goban::listFils">
<polygon fill="none" stroke="black" points="192.5,-38.5 192.5,-57.5 272.5,-57.5 272.5,-38.5 192.5,-38.5"/>
<text text-anchor="middle" x="232.5" y="-45.5" font-family="Helvetica,sans-Serif" font-size="10.00">Goban::listFils</text>
</a>
</g>
</g>
<!-- Node242&#45;&gt;Node246 -->
<g id="edge4" class="edge"><title>Node242&#45;&gt;Node246</title>
<path fill="none" stroke="midnightblue" d="M118.146,-74.1058C142.15,-68.5776 170.226,-62.1117 192.43,-56.9979"/>
<polygon fill="midnightblue" stroke="midnightblue" points="117.096,-70.7559 108.136,-76.411 118.667,-77.5774 117.096,-70.7559"/>
</g>
<!-- Node250 -->
<g id="node9" class="node"><title>Node250</title>
<g id="a_node9"><a xlink:href="class_board.html#a5fda73da080403d8a71a8593d581c350" target="_top" xlink:title="Board::click">
<polygon fill="none" stroke="black" points="343,-0.5 343,-19.5 411,-19.5 411,-0.5 343,-0.5"/>
<text text-anchor="middle" x="377" y="-7.5" font-family="Helvetica,sans-Serif" font-size="10.00">Board::click</text>
</a>
</g>
</g>
<!-- Node242&#45;&gt;Node250 -->
<g id="edge9" class="edge"><title>Node242&#45;&gt;Node250</title>
<path fill="none" stroke="midnightblue" d="M87.7376,-70.3698C107.271,-56.8972 137.584,-38.2058 167,-29 226.981,-10.2292 301.023,-8.12813 342.943,-8.75451"/>
<polygon fill="midnightblue" stroke="midnightblue" points="85.4627,-67.6915 79.3142,-76.3197 89.5013,-73.409 85.4627,-67.6915"/>
</g>
<!-- Node247 -->
<g id="node6" class="node"><title>Node247</title>
<g id="a_node6"><a xlink:href="class_arbre.html#acd12cae4820bb7780a628716a0615d10" target="_top" xlink:title="Arbre::Tsumego">
<polygon fill="none" stroke="black" points="334,-38.5 334,-57.5 420,-57.5 420,-38.5 334,-38.5"/>
<text text-anchor="middle" x="377" y="-45.5" font-family="Helvetica,sans-Serif" font-size="10.00">Arbre::Tsumego</text>
</a>
</g>
</g>
<!-- Node246&#45;&gt;Node247 -->
<g id="edge5" class="edge"><title>Node246&#45;&gt;Node247</title>
<path fill="none" stroke="midnightblue" d="M282.886,-48C299.481,-48 317.829,-48 333.819,-48"/>
<polygon fill="midnightblue" stroke="midnightblue" points="282.816,-44.5001 272.816,-48 282.816,-51.5001 282.816,-44.5001"/>
</g>
<!-- Node247&#45;&gt;Node247 -->
<g id="edge6" class="edge"><title>Node247&#45;&gt;Node247</title>
<path fill="none" stroke="midnightblue" d="M350.121,-66.6539C351.244,-71.9368 360.204,-76 377,-76 402.594,-76 409.992,-66.5653 399.195,-57.7571"/>
<polygon fill="midnightblue" stroke="midnightblue" points="353.243,-68.2361 354.805,-57.7571 347.049,-64.9747 353.243,-68.2361"/>
</g>
<!-- Node248 -->
<g id="node7" class="node"><title>Node248</title>
<g id="a_node7"><a xlink:href="class_game__window.html#a72304de2044c29f1373037bd818f674f" target="_top" xlink:title="Game_window::keyPressed">
<polygon fill="none" stroke="black" points="456,-38.5 456,-57.5 593,-57.5 593,-38.5 456,-38.5"/>
<text text-anchor="middle" x="524.5" y="-45.5" font-family="Helvetica,sans-Serif" font-size="10.00">Game_window::keyPressed</text>
</a>
</g>
</g>
<!-- Node247&#45;&gt;Node248 -->
<g id="edge7" class="edge"><title>Node247&#45;&gt;Node248</title>
<path fill="none" stroke="midnightblue" d="M430.302,-48C438.559,-48 447.197,-48 455.744,-48"/>
<polygon fill="midnightblue" stroke="midnightblue" points="430.085,-44.5001 420.085,-48 430.085,-51.5001 430.085,-44.5001"/>
</g>
<!-- Node249 -->
<g id="node8" class="node"><title>Node249</title>
<g id="a_node8"><a xlink:href="class_game__window.html#aec21feecf4c72d73c13d82aa12df6930" target="_top" xlink:title="Game_window::Run">
<polygon fill="none" stroke="black" points="629,-19.5 629,-38.5 732,-38.5 732,-19.5 629,-19.5"/>
<text text-anchor="middle" x="680.5" y="-26.5" font-family="Helvetica,sans-Serif" font-size="10.00">Game_window::Run</text>
</a>
</g>
</g>
<!-- Node248&#45;&gt;Node249 -->
<g id="edge8" class="edge"><title>Node248&#45;&gt;Node249</title>
<path fill="none" stroke="midnightblue" d="M603.186,-38.4154C611.84,-37.3476 620.484,-36.2812 628.678,-35.2703"/>
<polygon fill="midnightblue" stroke="midnightblue" points="602.543,-34.9681 593.047,-39.6663 603.4,-41.9154 602.543,-34.9681"/>
</g>
<!-- Node251 -->
<g id="node10" class="node"><title>Node251</title>
<g id="a_node10"><a xlink:href="class_game__window.html#afa942088809bf10731bb31d0d37b878d" target="_top" xlink:title="Game_window::click">
<polygon fill="none" stroke="black" points="471.5,-0.5 471.5,-19.5 577.5,-19.5 577.5,-0.5 471.5,-0.5"/>
<text text-anchor="middle" x="524.5" y="-7.5" font-family="Helvetica,sans-Serif" font-size="10.00">Game_window::click</text>
</a>
</g>
</g>
<!-- Node250&#45;&gt;Node251 -->
<g id="edge10" class="edge"><title>Node250&#45;&gt;Node251</title>
<path fill="none" stroke="midnightblue" d="M421.049,-10C436.875,-10 454.963,-10 471.493,-10"/>
<polygon fill="midnightblue" stroke="midnightblue" points="421.016,-6.5001 411.016,-10 421.016,-13.5001 421.016,-6.5001"/>
</g>
<!-- Node251&#45;&gt;Node249 -->
<g id="edge11" class="edge"><title>Node251&#45;&gt;Node249</title>
<path fill="none" stroke="midnightblue" d="M587.924,-17.7016C601.576,-19.386 615.862,-21.1486 628.981,-22.7672"/>
<polygon fill="midnightblue" stroke="midnightblue" points="587.991,-14.1834 577.637,-16.4325 587.134,-21.1308 587.991,-14.1834"/>
</g>
</g>
</svg>
