<?xml version="1.0" encoding="UTF-8" standalone="no"?>
<!DOCTYPE svg PUBLIC "-//W3C//DTD SVG 1.1//EN"
 "http://www.w3.org/Graphics/SVG/1.1/DTD/svg11.dtd">
<!-- Generated by graphviz version 2.38.0 (20140413.2041)
 -->
<!-- Title: Goban::listFils Pages: 1 -->
<svg width="851pt" height="332pt"
 viewBox="0.00 0.00 851.00 332.00" xmlns="http://www.w3.org/2000/svg" xmlns:xlink="http://www.w3.org/1999/xlink">
<g id="graph0" class="graph" transform="scale(1 1) rotate(0) translate(4 328)">
<title>Goban::listFils</title>
<!-- Node185 -->
<g id="node1" class="node"><title>Node185</title>
<polygon fill="#bfbfbf" stroke="black" points="0,-209.5 0,-228.5 80,-228.5 80,-209.5 0,-209.5"/>
<text text-anchor="middle" x="40" y="-216.5" font-family="Helvetica,sans-Serif" font-size="10.00">Goban::listFils</text>
</g>
<!-- Node186 -->
<g id="node2" class="node"><title>Node186</title>
<g id="a_node2"><a xlink:href="class_goban.html#aa2aaa3b4db4549d169bd0ff234d601cb" target="_top" xlink:title="Goban::itoc">
<polygon fill="none" stroke="black" points="152.5,-266.5 152.5,-285.5 219.5,-285.5 219.5,-266.5 152.5,-266.5"/>
<text text-anchor="middle" x="186" y="-273.5" font-family="Helvetica,sans-Serif" font-size="10.00">Goban::itoc</text>
</a>
</g>
</g>
<!-- Node185&#45;&gt;Node186 -->
<g id="edge1" class="edge"><title>Node185&#45;&gt;Node186</title>
<path fill="none" stroke="midnightblue" d="M61.506,-228.552C76.477,-235.395 97.3331,-244.66 116,-252 125.738,-255.829 136.365,-259.682 146.298,-263.147"/>
<polygon fill="midnightblue" stroke="midnightblue" points="145.345,-266.521 155.94,-266.467 147.624,-259.902 145.345,-266.521"/>
</g>
<!-- Node187 -->
<g id="node3" class="node"><title>Node187</title>
<g id="a_node3"><a xlink:href="class_goban.html#a7dd1a7b53322bde2a831a923059e43a3" target="_top" xlink:title="Goban::move">
<polygon fill="none" stroke="black" points="316,-228.5 316,-247.5 390,-247.5 390,-228.5 316,-228.5"/>
<text text-anchor="middle" x="353" y="-235.5" font-family="Helvetica,sans-Serif" font-size="10.00">Goban::move</text>
</a>
</g>
</g>
<!-- Node185&#45;&gt;Node187 -->
<g id="edge2" class="edge"><title>Node185&#45;&gt;Node187</title>
<path fill="none" stroke="midnightblue" d="M80.0735,-221.387C137.443,-224.892 244.283,-231.419 305.575,-235.164"/>
<polygon fill="midnightblue" stroke="midnightblue" points="305.542,-238.668 315.737,-235.785 305.969,-231.681 305.542,-238.668"/>
</g>
<!-- Node192 -->
<g id="node8" class="node"><title>Node192</title>
<g id="a_node8"><a xlink:href="class_goban.html#a8584a53688e7bcf9de7c4cf48454acdc" target="_top" xlink:title="Goban::rechercheGroupes">
<polygon fill="none" stroke="black" points="120.5,-190.5 120.5,-209.5 251.5,-209.5 251.5,-190.5 120.5,-190.5"/>
<text text-anchor="middle" x="186" y="-197.5" font-family="Helvetica,sans-Serif" font-size="10.00">Goban::rechercheGroupes</text>
</a>
</g>
</g>
<!-- Node185&#45;&gt;Node192 -->
<g id="edge8" class="edge"><title>Node185&#45;&gt;Node192</title>
<path fill="none" stroke="midnightblue" d="M80.3486,-213.808C89.7513,-212.568 100.097,-211.203 110.511,-209.828"/>
<polygon fill="midnightblue" stroke="midnightblue" points="111.033,-213.29 120.489,-208.512 110.117,-206.35 111.033,-213.29"/>
</g>
<!-- Node193 -->
<g id="node9" class="node"><title>Node193</title>
<g id="a_node9"><a xlink:href="class_goban.html#a7858b815885e4af36f05f9d26182cb07" target="_top" xlink:title="Goban::eliminateOppGroups">
<polygon fill="none" stroke="black" points="116,-152.5 116,-171.5 256,-171.5 256,-152.5 116,-152.5"/>
<text text-anchor="middle" x="186" y="-159.5" font-family="Helvetica,sans-Serif" font-size="10.00">Goban::eliminateOppGroups</text>
</a>
</g>
</g>
<!-- Node185&#45;&gt;Node193 -->
<g id="edge9" class="edge"><title>Node185&#45;&gt;Node193</title>
<path fill="none" stroke="midnightblue" d="M57.5369,-209.406C72.448,-201.052 95.1689,-189.052 116,-181 122.229,-178.592 128.885,-176.358 135.512,-174.33"/>
<polygon fill="midnightblue" stroke="midnightblue" points="136.535,-177.678 145.15,-171.512 134.57,-170.96 136.535,-177.678"/>
</g>
<!-- Node188 -->
<g id="node4" class="node"><title>Node188</title>
<g id="a_node4"><a xlink:href="class_goban.html#a6c4b62a9469b3876d250ab94bcd562e5" target="_top" xlink:title="Goban::eliminateOppositeKO">
<polygon fill="none" stroke="black" points="596,-304.5 596,-323.5 739,-323.5 739,-304.5 596,-304.5"/>
<text text-anchor="middle" x="667.5" y="-311.5" font-family="Helvetica,sans-Serif" font-size="10.00">Goban::eliminateOppositeKO</text>
</a>
</g>
</g>
<!-- Node187&#45;&gt;Node188 -->
<g id="edge3" class="edge"><title>Node187&#45;&gt;Node188</title>
<path fill="none" stroke="midnightblue" d="M367.551,-247.555C385.487,-259.665 418.525,-280.146 450,-290 493.676,-303.674 544.442,-309.783 585.833,-312.424"/>
<polygon fill="midnightblue" stroke="midnightblue" points="585.684,-315.921 595.87,-313.009 586.091,-308.933 585.684,-315.921"/>
</g>
<!-- Node189 -->
<g id="node5" class="node"><title>Node189</title>
<g id="a_node5"><a xlink:href="class_etat.html#aa88987ca54aee676717f05e4570c0aec" target="_top" xlink:title="Etat::setVal">
<polygon fill="none" stroke="black" points="775,-209.5 775,-228.5 843,-228.5 843,-209.5 775,-209.5"/>
<text text-anchor="middle" x="809" y="-216.5" font-family="Helvetica,sans-Serif" font-size="10.00">Etat::setVal</text>
</a>
</g>
</g>
<!-- Node187&#45;&gt;Node189 -->
<g id="edge6" class="edge"><title>Node187&#45;&gt;Node189</title>
<path fill="none" stroke="midnightblue" d="M390.22,-246.906C408.092,-250.855 430.047,-255.044 450,-257 563.896,-268.163 698.006,-243.918 765.15,-229.205"/>
<polygon fill="midnightblue" stroke="midnightblue" points="765.95,-232.612 774.949,-227.02 764.427,-225.78 765.95,-232.612"/>
</g>
<!-- Node190 -->
<g id="node6" class="node"><title>Node190</title>
<g id="a_node6"><a xlink:href="class_goban.html#a29aaf8df380fe614845d48cba057747c" target="_top" xlink:title="Goban::coord">
<polygon fill="none" stroke="black" points="467.5,-190.5 467.5,-209.5 542.5,-209.5 542.5,-190.5 467.5,-190.5"/>
<text text-anchor="middle" x="505" y="-197.5" font-family="Helvetica,sans-Serif" font-size="10.00">Goban::coord</text>
</a>
</g>
</g>
<!-- Node187&#45;&gt;Node190 -->
<g id="edge5" class="edge"><title>Node187&#45;&gt;Node190</title>
<path fill="none" stroke="midnightblue" d="M390.311,-228.801C410.446,-223.7 435.704,-217.302 457.295,-211.832"/>
<polygon fill="midnightblue" stroke="midnightblue" points="458.409,-215.16 467.243,-209.312 456.69,-208.375 458.409,-215.16"/>
</g>
<!-- Node191 -->
<g id="node7" class="node"><title>Node191</title>
<g id="a_node7"><a xlink:href="class_history.html#a90222df7f73ae9cfda56bdb66cb1985e" target="_top" xlink:title="Add new state in history. ">
<polygon fill="none" stroke="black" points="470.5,-228.5 470.5,-247.5 539.5,-247.5 539.5,-228.5 470.5,-228.5"/>
<text text-anchor="middle" x="505" y="-235.5" font-family="Helvetica,sans-Serif" font-size="10.00">History::add</text>
</a>
</g>
</g>
<!-- Node187&#45;&gt;Node191 -->
<g id="edge7" class="edge"><title>Node187&#45;&gt;Node191</title>
<path fill="none" stroke="midnightblue" d="M390.311,-238C411.344,-238 437.967,-238 460.162,-238"/>
<polygon fill="midnightblue" stroke="midnightblue" points="460.334,-241.5 470.334,-238 460.334,-234.5 460.334,-241.5"/>
</g>
<!-- Node188&#45;&gt;Node189 -->
<g id="edge4" class="edge"><title>Node188&#45;&gt;Node189</title>
<path fill="none" stroke="midnightblue" d="M707.311,-304.415C718.048,-300.818 729.384,-296.081 739,-290 761.553,-275.737 782.129,-252.662 794.83,-236.708"/>
<polygon fill="midnightblue" stroke="midnightblue" points="797.691,-238.73 801.039,-228.678 792.153,-234.448 797.691,-238.73"/>
</g>
<!-- Node194 -->
<g id="node10" class="node"><title>Node194</title>
<g id="a_node10"><a xlink:href="class_goban.html#a1ec70508987f66afff5f8df381731fac" target="_top" xlink:title="Goban::eliminateGroups">
<polygon fill="none" stroke="black" points="292,-152.5 292,-171.5 414,-171.5 414,-152.5 292,-152.5"/>
<text text-anchor="middle" x="353" y="-159.5" font-family="Helvetica,sans-Serif" font-size="10.00">Goban::eliminateGroups</text>
</a>
</g>
</g>
<!-- Node193&#45;&gt;Node194 -->
<g id="edge10" class="edge"><title>Node193&#45;&gt;Node194</title>
<path fill="none" stroke="midnightblue" d="M256.019,-162C264.494,-162 273.165,-162 281.66,-162"/>
<polygon fill="midnightblue" stroke="midnightblue" points="281.91,-165.5 291.91,-162 281.91,-158.5 281.91,-165.5"/>
</g>
<!-- Node194&#45;&gt;Node189 -->
<g id="edge20" class="edge"><title>Node194&#45;&gt;Node189</title>
<path fill="none" stroke="midnightblue" d="M414.046,-166.581C455.193,-169.955 510.983,-174.99 560,-181 632.048,-189.834 715.386,-203.27 764.784,-211.572"/>
<polygon fill="midnightblue" stroke="midnightblue" points="764.35,-215.048 774.794,-213.262 765.516,-208.146 764.35,-215.048"/>
</g>
<!-- Node194&#45;&gt;Node190 -->
<g id="edge19" class="edge"><title>Node194&#45;&gt;Node190</title>
<path fill="none" stroke="midnightblue" d="M391.851,-171.589C411.856,-176.657 436.578,-182.92 457.716,-188.275"/>
<polygon fill="midnightblue" stroke="midnightblue" points="456.902,-191.679 467.456,-190.742 458.622,-184.893 456.902,-191.679"/>
</g>
<!-- Node195 -->
<g id="node11" class="node"><title>Node195</title>
<g id="a_node11"><a xlink:href="class_goban.html#a84f36324eb9ddc29f522d481f04c13e7" target="_top" xlink:title="Goban::listOfLiberties">
<polygon fill="none" stroke="black" points="450,-95.5 450,-114.5 560,-114.5 560,-95.5 450,-95.5"/>
<text text-anchor="middle" x="505" y="-102.5" font-family="Helvetica,sans-Serif" font-size="10.00">Goban::listOfLiberties</text>
</a>
</g>
</g>
<!-- Node194&#45;&gt;Node195 -->
<g id="edge11" class="edge"><title>Node194&#45;&gt;Node195</title>
<path fill="none" stroke="midnightblue" d="M379.107,-152.459C403.767,-143.088 441.599,-128.712 469.164,-118.238"/>
<polygon fill="midnightblue" stroke="midnightblue" points="470.707,-121.396 478.811,-114.572 468.22,-114.852 470.707,-121.396"/>
</g>
<!-- Node196 -->
<g id="node12" class="node"><title>Node196</title>
<g id="a_node12"><a xlink:href="class_etat.html#aa25e66b110bc835523819392435e78c6" target="_top" xlink:title="Etat::getX">
<polygon fill="none" stroke="black" points="638,-114.5 638,-133.5 697,-133.5 697,-114.5 638,-114.5"/>
<text text-anchor="middle" x="667.5" y="-121.5" font-family="Helvetica,sans-Serif" font-size="10.00">Etat::getX</text>
</a>
</g>
</g>
<!-- Node195&#45;&gt;Node196 -->
<g id="edge12" class="edge"><title>Node195&#45;&gt;Node196</title>
<path fill="none" stroke="midnightblue" d="M560.338,-111.433C582.487,-114.054 607.585,-117.026 627.816,-119.421"/>
<polygon fill="midnightblue" stroke="midnightblue" points="627.568,-122.916 637.91,-120.616 628.391,-115.964 627.568,-122.916"/>
</g>
<!-- Node197 -->
<g id="node13" class="node"><title>Node197</title>
<g id="a_node13"><a xlink:href="class_etat.html#a3e3e915f2261c83989a983e84b1273c1" target="_top" xlink:title="Etat::getY">
<polygon fill="none" stroke="black" points="637,-76.5 637,-95.5 698,-95.5 698,-76.5 637,-76.5"/>
<text text-anchor="middle" x="667.5" y="-83.5" font-family="Helvetica,sans-Serif" font-size="10.00">Etat::getY</text>
</a>
</g>
</g>
<!-- Node195&#45;&gt;Node197 -->
<g id="edge13" class="edge"><title>Node195&#45;&gt;Node197</title>
<path fill="none" stroke="midnightblue" d="M560.338,-98.5675C582.022,-96.0005 606.533,-93.0988 626.536,-90.7309"/>
<polygon fill="midnightblue" stroke="midnightblue" points="627.027,-94.1973 636.546,-89.5459 626.204,-87.2459 627.027,-94.1973"/>
</g>
<!-- Node198 -->
<g id="node14" class="node"><title>Node198</title>
<g id="a_node14"><a xlink:href="class_goban.html#a0e2596110cdbb9b007b2b2fd8d5a9973" target="_top" xlink:title="Goban::DefineStone">
<polygon fill="none" stroke="black" points="615.5,-38.5 615.5,-57.5 719.5,-57.5 719.5,-38.5 615.5,-38.5"/>
<text text-anchor="middle" x="667.5" y="-45.5" font-family="Helvetica,sans-Serif" font-size="10.00">Goban::DefineStone</text>
</a>
</g>
</g>
<!-- Node195&#45;&gt;Node198 -->
<g id="edge14" class="edge"><title>Node195&#45;&gt;Node198</title>
<path fill="none" stroke="midnightblue" d="M526.422,-95.434C544.465,-87.2114 571.622,-75.3876 596,-67 602.922,-64.6183 610.309,-62.3442 617.599,-60.2504"/>
<polygon fill="midnightblue" stroke="midnightblue" points="618.731,-63.5683 627.426,-57.5139 616.853,-56.8249 618.731,-63.5683"/>
</g>
<!-- Node198&#45;&gt;Node189 -->
<g id="edge17" class="edge"><title>Node198&#45;&gt;Node189</title>
<path fill="none" stroke="midnightblue" d="M719.725,-55.9761C726.712,-58.6637 733.395,-62.2413 739,-67 780.302,-102.068 798.078,-166.983 804.663,-199.448"/>
<polygon fill="midnightblue" stroke="midnightblue" points="801.26,-200.293 806.546,-209.475 808.14,-199.001 801.26,-200.293"/>
</g>
<!-- Node199 -->
<g id="node15" class="node"><title>Node199</title>
<g id="a_node15"><a xlink:href="class_etat.html#ac020c4fe222274ac849a03fc8f19a99a" target="_top" xlink:title="Etat::setX">
<polygon fill="none" stroke="black" points="779.5,-76.5 779.5,-95.5 838.5,-95.5 838.5,-76.5 779.5,-76.5"/>
<text text-anchor="middle" x="809" y="-83.5" font-family="Helvetica,sans-Serif" font-size="10.00">Etat::setX</text>
</a>
</g>
</g>
<!-- Node198&#45;&gt;Node199 -->
<g id="edge15" class="edge"><title>Node198&#45;&gt;Node199</title>
<path fill="none" stroke="midnightblue" d="M704.014,-57.5306C715.211,-60.5465 727.626,-63.9013 739,-67 748.98,-69.7189 759.766,-72.6787 769.779,-75.4353"/>
<polygon fill="midnightblue" stroke="midnightblue" points="768.904,-78.8247 779.474,-78.1076 770.764,-72.0763 768.904,-78.8247"/>
</g>
<!-- Node200 -->
<g id="node16" class="node"><title>Node200</title>
<g id="a_node16"><a xlink:href="class_etat.html#a8a54fc9ecb1b97d84d2f1f259e3bf70e" target="_top" xlink:title="Etat::setY">
<polygon fill="none" stroke="black" points="778.5,-38.5 778.5,-57.5 839.5,-57.5 839.5,-38.5 778.5,-38.5"/>
<text text-anchor="middle" x="809" y="-45.5" font-family="Helvetica,sans-Serif" font-size="10.00">Etat::setY</text>
</a>
</g>
</g>
<!-- Node198&#45;&gt;Node200 -->
<g id="edge16" class="edge"><title>Node198&#45;&gt;Node200</title>
<path fill="none" stroke="midnightblue" d="M719.653,-48C735.7,-48 753.165,-48 768.297,-48"/>
<polygon fill="midnightblue" stroke="midnightblue" points="768.354,-51.5001 778.354,-48 768.354,-44.5001 768.354,-51.5001"/>
</g>
<!-- Node201 -->
<g id="node17" class="node"><title>Node201</title>
<g id="a_node17"><a xlink:href="class_goban.html#a579840586df08a58983f6b497979344b" target="_top" xlink:title="Goban::ctoi">
<polygon fill="none" stroke="black" points="775.5,-0.5 775.5,-19.5 842.5,-19.5 842.5,-0.5 775.5,-0.5"/>
<text text-anchor="middle" x="809" y="-7.5" font-family="Helvetica,sans-Serif" font-size="10.00">Goban::ctoi</text>
</a>
</g>
</g>
<!-- Node198&#45;&gt;Node201 -->
<g id="edge18" class="edge"><title>Node198&#45;&gt;Node201</title>
<path fill="none" stroke="midnightblue" d="M703.702,-38.411C722.483,-33.295 745.735,-26.961 765.515,-21.5729"/>
<polygon fill="midnightblue" stroke="midnightblue" points="766.477,-24.9386 775.205,-18.9333 764.637,-18.1847 766.477,-24.9386"/>
</g>
</g>
</svg>
