<?xml version="1.0" encoding="UTF-8" standalone="no"?>
<!DOCTYPE svg PUBLIC "-//W3C//DTD SVG 1.1//EN"
 "http://www.w3.org/Graphics/SVG/1.1/DTD/svg11.dtd">
<!-- Generated by graphviz version 2.38.0 (20140413.2041)
 -->
<!-- Title: Board::cancel Pages: 1 -->
<svg width="329pt" height="256pt"
 viewBox="0.00 0.00 329.00 256.00" xmlns="http://www.w3.org/2000/svg" xmlns:xlink="http://www.w3.org/1999/xlink">
<g id="graph0" class="graph" transform="scale(1 1) rotate(0) translate(4 252)">
<title>Board::cancel</title>
<!-- Node10 -->
<g id="node1" class="node"><title>Node10</title>
<polygon fill="#bfbfbf" stroke="black" points="0,-104.5 0,-123.5 77,-123.5 77,-104.5 0,-104.5"/>
<text text-anchor="middle" x="38.5" y="-111.5" font-family="Helvetica,sans-Serif" font-size="10.00">Board::cancel</text>
</g>
<!-- Node11 -->
<g id="node2" class="node"><title>Node11</title>
<g id="a_node2"><a xlink:href="class_goban.html#ae7ee3b39f3c0d28c9bca286ca538f8ac" target="_top" xlink:title="Goban::cancel">
<polygon fill="none" stroke="black" points="113,-133.5 113,-152.5 193,-152.5 193,-133.5 113,-133.5"/>
<text text-anchor="middle" x="153" y="-140.5" font-family="Helvetica,sans-Serif" font-size="10.00">Goban::cancel</text>
</a>
</g>
</g>
<!-- Node10&#45;&gt;Node11 -->
<g id="edge1" class="edge"><title>Node10&#45;&gt;Node11</title>
<path fill="none" stroke="midnightblue" d="M76.6485,-123.576C85.7687,-125.927 95.6491,-128.474 105.16,-130.926"/>
<polygon fill="midnightblue" stroke="midnightblue" points="104.333,-134.327 114.891,-133.434 106.081,-127.549 104.333,-134.327"/>
</g>
<!-- Node17 -->
<g id="node8" class="node"><title>Node17</title>
<g id="a_node8"><a xlink:href="class_board.html#a841a248dac4743611ba1825afd5d1297" target="_top" xlink:title="Board::load">
<polygon fill="none" stroke="black" points="120,-57.5 120,-76.5 186,-76.5 186,-57.5 120,-57.5"/>
<text text-anchor="middle" x="153" y="-64.5" font-family="Helvetica,sans-Serif" font-size="10.00">Board::load</text>
</a>
</g>
</g>
<!-- Node10&#45;&gt;Node17 -->
<g id="edge7" class="edge"><title>Node10&#45;&gt;Node17</title>
<path fill="none" stroke="midnightblue" d="M62.2661,-104.489C78.702,-97.6223 101.135,-88.2504 119.459,-80.595"/>
<polygon fill="midnightblue" stroke="midnightblue" points="121.004,-83.7428 128.882,-76.6583 118.305,-77.2838 121.004,-83.7428"/>
</g>
<!-- Node12 -->
<g id="node3" class="node"><title>Node12</title>
<g id="a_node3"><a xlink:href="class_goban.html#a29aaf8df380fe614845d48cba057747c" target="_top" xlink:title="Goban::coord">
<polygon fill="none" stroke="black" points="237.5,-76.5 237.5,-95.5 312.5,-95.5 312.5,-76.5 237.5,-76.5"/>
<text text-anchor="middle" x="275" y="-83.5" font-family="Helvetica,sans-Serif" font-size="10.00">Goban::coord</text>
</a>
</g>
</g>
<!-- Node11&#45;&gt;Node12 -->
<g id="edge2" class="edge"><title>Node11&#45;&gt;Node12</title>
<path fill="none" stroke="midnightblue" d="M172.014,-133.429C187.099,-125.522 209.269,-114.15 229,-105 232.895,-103.194 237.009,-101.359 241.103,-99.5773"/>
<polygon fill="midnightblue" stroke="midnightblue" points="242.69,-102.705 250.509,-95.5557 239.938,-96.2691 242.69,-102.705"/>
</g>
<!-- Node13 -->
<g id="node4" class="node"><title>Node13</title>
<g id="a_node4"><a xlink:href="class_history.html#a0ca66ba5a026689877e027754fc5bd52" target="_top" xlink:title="Access current position. ">
<polygon fill="none" stroke="black" points="233.5,-228.5 233.5,-247.5 316.5,-247.5 316.5,-228.5 233.5,-228.5"/>
<text text-anchor="middle" x="275" y="-235.5" font-family="Helvetica,sans-Serif" font-size="10.00">History::current</text>
</a>
</g>
</g>
<!-- Node11&#45;&gt;Node13 -->
<g id="edge3" class="edge"><title>Node11&#45;&gt;Node13</title>
<path fill="none" stroke="midnightblue" d="M161.355,-152.6C173.801,-168.299 200.461,-199.652 229,-219 231.584,-220.752 234.355,-222.393 237.207,-223.918"/>
<polygon fill="midnightblue" stroke="midnightblue" points="235.929,-227.188 246.456,-228.393 238.978,-220.887 235.929,-227.188"/>
</g>
<!-- Node14 -->
<g id="node5" class="node"><title>Node14</title>
<g id="a_node5"><a xlink:href="class_etat.html#aa25e66b110bc835523819392435e78c6" target="_top" xlink:title="Etat::getX">
<polygon fill="none" stroke="black" points="245.5,-190.5 245.5,-209.5 304.5,-209.5 304.5,-190.5 245.5,-190.5"/>
<text text-anchor="middle" x="275" y="-197.5" font-family="Helvetica,sans-Serif" font-size="10.00">Etat::getX</text>
</a>
</g>
</g>
<!-- Node11&#45;&gt;Node14 -->
<g id="edge4" class="edge"><title>Node11&#45;&gt;Node14</title>
<path fill="none" stroke="midnightblue" d="M172.014,-152.571C187.099,-160.478 209.269,-171.85 229,-181 232.895,-182.806 237.009,-184.641 241.103,-186.423"/>
<polygon fill="midnightblue" stroke="midnightblue" points="239.938,-189.731 250.509,-190.444 242.69,-183.295 239.938,-189.731"/>
</g>
<!-- Node15 -->
<g id="node6" class="node"><title>Node15</title>
<g id="a_node6"><a xlink:href="class_etat.html#a3e3e915f2261c83989a983e84b1273c1" target="_top" xlink:title="Etat::getY">
<polygon fill="none" stroke="black" points="244.5,-152.5 244.5,-171.5 305.5,-171.5 305.5,-152.5 244.5,-152.5"/>
<text text-anchor="middle" x="275" y="-159.5" font-family="Helvetica,sans-Serif" font-size="10.00">Etat::getY</text>
</a>
</g>
</g>
<!-- Node11&#45;&gt;Node15 -->
<g id="edge5" class="edge"><title>Node11&#45;&gt;Node15</title>
<path fill="none" stroke="midnightblue" d="M193.292,-149.221C206.345,-151.288 220.887,-153.59 233.993,-155.666"/>
<polygon fill="midnightblue" stroke="midnightblue" points="233.715,-159.165 244.139,-157.272 234.81,-152.251 233.715,-159.165"/>
</g>
<!-- Node16 -->
<g id="node7" class="node"><title>Node16</title>
<g id="a_node7"><a xlink:href="class_history.html#a6e1bcaa1d3ecc646131e6f73a2544f35" target="_top" xlink:title="History::cancel">
<polygon fill="none" stroke="black" points="234,-114.5 234,-133.5 316,-133.5 316,-114.5 234,-114.5"/>
<text text-anchor="middle" x="275" y="-121.5" font-family="Helvetica,sans-Serif" font-size="10.00">History::cancel</text>
</a>
</g>
</g>
<!-- Node11&#45;&gt;Node16 -->
<g id="edge6" class="edge"><title>Node11&#45;&gt;Node16</title>
<path fill="none" stroke="midnightblue" d="M193.292,-136.779C203.033,-135.236 213.603,-133.563 223.787,-131.95"/>
<polygon fill="midnightblue" stroke="midnightblue" points="224.467,-135.386 233.797,-130.366 223.372,-128.473 224.467,-135.386"/>
</g>
<!-- Node17&#45;&gt;Node12 -->
<g id="edge9" class="edge"><title>Node17&#45;&gt;Node12</title>
<path fill="none" stroke="midnightblue" d="M186.158,-72.0917C198.661,-74.0713 213.236,-76.3791 226.879,-78.5392"/>
<polygon fill="midnightblue" stroke="midnightblue" points="226.656,-82.0475 237.081,-80.1545 227.751,-75.1336 226.656,-82.0475"/>
</g>
<!-- Node18 -->
<g id="node9" class="node"><title>Node18</title>
<g id="a_node9"><a xlink:href="class_square.html#a5fa0cbfce721c687308eec8e1a029d25" target="_top" xlink:title="Square::setValue">
<polygon fill="none" stroke="black" points="229,-38.5 229,-57.5 321,-57.5 321,-38.5 229,-38.5"/>
<text text-anchor="middle" x="275" y="-45.5" font-family="Helvetica,sans-Serif" font-size="10.00">Square::setValue</text>
</a>
</g>
</g>
<!-- Node17&#45;&gt;Node18 -->
<g id="edge8" class="edge"><title>Node17&#45;&gt;Node18</title>
<path fill="none" stroke="midnightblue" d="M186.158,-61.9083C196.151,-60.3262 207.467,-58.5343 218.574,-56.7758"/>
<polygon fill="midnightblue" stroke="midnightblue" points="219.341,-60.198 228.671,-55.1772 218.246,-53.2842 219.341,-60.198"/>
</g>
<!-- Node19 -->
<g id="node10" class="node"><title>Node19</title>
<g id="a_node10"><a xlink:href="class_etat.html#ac0b81bbcf64cb3cc574e5a9dcdf94382" target="_top" xlink:title="Etat::getVal">
<polygon fill="none" stroke="black" points="241,-0.5 241,-19.5 309,-19.5 309,-0.5 241,-0.5"/>
<text text-anchor="middle" x="275" y="-7.5" font-family="Helvetica,sans-Serif" font-size="10.00">Etat::getVal</text>
</a>
</g>
</g>
<!-- Node17&#45;&gt;Node19 -->
<g id="edge10" class="edge"><title>Node17&#45;&gt;Node19</title>
<path fill="none" stroke="midnightblue" d="M172.014,-57.4295C187.099,-49.522 209.269,-38.1504 229,-29 232.895,-27.1938 237.009,-25.3589 241.103,-23.5773"/>
<polygon fill="midnightblue" stroke="midnightblue" points="242.69,-26.7054 250.509,-19.5557 239.938,-20.2691 242.69,-26.7054"/>
</g>
</g>
</svg>
