<?xml version="1.0" encoding="UTF-8" standalone="no"?>
<!DOCTYPE svg PUBLIC "-//W3C//DTD SVG 1.1//EN"
 "http://www.w3.org/Graphics/SVG/1.1/DTD/svg11.dtd">
<!-- Generated by graphviz version 2.38.0 (20140413.2041)
 -->
<!-- Title: Goban::Goban Pages: 1 -->
<svg width="199pt" height="180pt"
 viewBox="0.00 0.00 199.00 180.00" xmlns="http://www.w3.org/2000/svg" xmlns:xlink="http://www.w3.org/1999/xlink">
<g id="graph0" class="graph" transform="scale(1 1) rotate(0) translate(4 176)">
<title>Goban::Goban</title>
<!-- Node5 -->
<g id="node1" class="node"><title>Node5</title>
<polygon fill="#bfbfbf" stroke="black" points="0,-76.5 0,-95.5 80,-95.5 80,-76.5 0,-76.5"/>
<text text-anchor="middle" x="40" y="-83.5" font-family="Helvetica,sans-Serif" font-size="10.00">Goban::Goban</text>
</g>
<!-- Node6 -->
<g id="node2" class="node"><title>Node6</title>
<g id="a_node2"><a xlink:href="class_etat.html#ac020c4fe222274ac849a03fc8f19a99a" target="_top" xlink:title="Etat::setX">
<polygon fill="none" stroke="black" points="124,-152.5 124,-171.5 183,-171.5 183,-152.5 124,-152.5"/>
<text text-anchor="middle" x="153.5" y="-159.5" font-family="Helvetica,sans-Serif" font-size="10.00">Etat::setX</text>
</a>
</g>
</g>
<!-- Node5&#45;&gt;Node6 -->
<g id="edge1" class="edge"><title>Node5&#45;&gt;Node6</title>
<path fill="none" stroke="midnightblue" d="M52.2514,-95.5195C66.5517,-107.387 92.2406,-127.941 116,-143 118.432,-144.542 121.004,-146.069 123.61,-147.548"/>
<polygon fill="midnightblue" stroke="midnightblue" points="121.996,-150.654 132.455,-152.343 125.332,-144.5 121.996,-150.654"/>
</g>
<!-- Node7 -->
<g id="node3" class="node"><title>Node7</title>
<g id="a_node3"><a xlink:href="class_etat.html#a8a54fc9ecb1b97d84d2f1f259e3bf70e" target="_top" xlink:title="Etat::setY">
<polygon fill="none" stroke="black" points="123,-114.5 123,-133.5 184,-133.5 184,-114.5 123,-114.5"/>
<text text-anchor="middle" x="153.5" y="-121.5" font-family="Helvetica,sans-Serif" font-size="10.00">Etat::setY</text>
</a>
</g>
</g>
<!-- Node5&#45;&gt;Node7 -->
<g id="edge2" class="edge"><title>Node5&#45;&gt;Node7</title>
<path fill="none" stroke="midnightblue" d="M69.1362,-95.589C83.0015,-100.314 99.9156,-106.079 114.876,-111.177"/>
<polygon fill="midnightblue" stroke="midnightblue" points="113.778,-114.501 124.373,-114.414 116.037,-107.875 113.778,-114.501"/>
</g>
<!-- Node8 -->
<g id="node4" class="node"><title>Node8</title>
<g id="a_node4"><a xlink:href="class_etat.html#aa88987ca54aee676717f05e4570c0aec" target="_top" xlink:title="Etat::setVal">
<polygon fill="none" stroke="black" points="119.5,-76.5 119.5,-95.5 187.5,-95.5 187.5,-76.5 119.5,-76.5"/>
<text text-anchor="middle" x="153.5" y="-83.5" font-family="Helvetica,sans-Serif" font-size="10.00">Etat::setVal</text>
</a>
</g>
</g>
<!-- Node5&#45;&gt;Node8 -->
<g id="edge3" class="edge"><title>Node5&#45;&gt;Node8</title>
<path fill="none" stroke="midnightblue" d="M80.3107,-86C89.7037,-86 99.7805,-86 109.337,-86"/>
<polygon fill="midnightblue" stroke="midnightblue" points="109.445,-89.5001 119.445,-86 109.445,-82.5001 109.445,-89.5001"/>
</g>
<!-- Node9 -->
<g id="node5" class="node"><title>Node9</title>
<g id="a_node5"><a xlink:href="class_goban.html#a29aaf8df380fe614845d48cba057747c" target="_top" xlink:title="Goban::coord">
<polygon fill="none" stroke="black" points="116,-38.5 116,-57.5 191,-57.5 191,-38.5 116,-38.5"/>
<text text-anchor="middle" x="153.5" y="-45.5" font-family="Helvetica,sans-Serif" font-size="10.00">Goban::coord</text>
</a>
</g>
</g>
<!-- Node5&#45;&gt;Node9 -->
<g id="edge4" class="edge"><title>Node5&#45;&gt;Node9</title>
<path fill="none" stroke="midnightblue" d="M69.1362,-76.411C83.0015,-71.6856 99.9156,-65.9211 114.876,-60.8226"/>
<polygon fill="midnightblue" stroke="midnightblue" points="116.037,-64.1248 124.373,-57.5859 113.778,-57.499 116.037,-64.1248"/>
</g>
<!-- Node10 -->
<g id="node6" class="node"><title>Node10</title>
<g id="a_node6"><a xlink:href="class_etat.html#ac0b81bbcf64cb3cc574e5a9dcdf94382" target="_top" xlink:title="Etat::getVal">
<polygon fill="none" stroke="black" points="119.5,-0.5 119.5,-19.5 187.5,-19.5 187.5,-0.5 119.5,-0.5"/>
<text text-anchor="middle" x="153.5" y="-7.5" font-family="Helvetica,sans-Serif" font-size="10.00">Etat::getVal</text>
</a>
</g>
</g>
<!-- Node5&#45;&gt;Node10 -->
<g id="edge5" class="edge"><title>Node5&#45;&gt;Node10</title>
<path fill="none" stroke="midnightblue" d="M52.2514,-76.4805C66.5517,-64.6132 92.2406,-44.059 116,-29 118.432,-27.4583 121.004,-25.931 123.61,-24.4517"/>
<polygon fill="midnightblue" stroke="midnightblue" points="125.332,-27.4997 132.455,-19.6568 121.996,-21.3459 125.332,-27.4997"/>
</g>
</g>
</svg>
