<?xml version="1.0" encoding="UTF-8" standalone="no"?>
<!DOCTYPE svg PUBLIC "-//W3C//DTD SVG 1.1//EN"
 "http://www.w3.org/Graphics/SVG/1.1/DTD/svg11.dtd">
<!-- Generated by graphviz version 2.38.0 (20140413.2041)
 -->
<!-- Title: Menu_simple Pages: 1 -->
<svg width="332pt" height="614pt"
 viewBox="0.00 0.00 331.50 614.00" xmlns="http://www.w3.org/2000/svg" xmlns:xlink="http://www.w3.org/1999/xlink">
<g id="graph0" class="graph" transform="scale(1 1) rotate(0) translate(4 610)">
<title>Menu_simple</title>
<!-- Node4 -->
<g id="node1" class="node"><title>Node4</title>
<polygon fill="#bfbfbf" stroke="black" points="77.5,-0.5 77.5,-101.5 184.5,-101.5 184.5,-0.5 77.5,-0.5"/>
<text text-anchor="middle" x="131" y="-89.5" font-family="Helvetica,sans-Serif" font-size="10.00">Menu_simple</text>
<polyline fill="none" stroke="black" points="77.5,-82.5 184.5,-82.5 "/>
<text text-anchor="middle" x="131" y="-70.5" font-family="Helvetica,sans-Serif" font-size="10.00"> </text>
<polyline fill="none" stroke="black" points="77.5,-63.5 184.5,-63.5 "/>
<text text-anchor="start" x="85.5" y="-51.5" font-family="Helvetica,sans-Serif" font-size="10.00">+ Menu_simple()</text>
<text text-anchor="start" x="85.5" y="-40.5" font-family="Helvetica,sans-Serif" font-size="10.00">+ ~Menu_simple()</text>
<text text-anchor="start" x="85.5" y="-29.5" font-family="Helvetica,sans-Serif" font-size="10.00">+ setItemsTextures()</text>
<text text-anchor="start" x="85.5" y="-18.5" font-family="Helvetica,sans-Serif" font-size="10.00">+ setItemsFonts()</text>
<text text-anchor="start" x="85.5" y="-7.5" font-family="Helvetica,sans-Serif" font-size="10.00">+ addItem()</text>
</g>
<!-- Node5 -->
<g id="node2" class="node"><title>Node5</title>
<g id="a_node2"><a xlink:href="class_menu.html" target="_top" xlink:title="{Menu\n||+ Menu()\l+ ~Menu()\l+ draw()\l+ Run()\l+ getSize()\l+ getPosition()\l+ addItem()\l+ setPrevious()\l+ showAdresses()\l}">
<polygon fill="none" stroke="black" points="83.5,-139.5 83.5,-284.5 178.5,-284.5 178.5,-139.5 83.5,-139.5"/>
<text text-anchor="middle" x="131" y="-272.5" font-family="Helvetica,sans-Serif" font-size="10.00">Menu</text>
<polyline fill="none" stroke="black" points="83.5,-265.5 178.5,-265.5 "/>
<text text-anchor="middle" x="131" y="-253.5" font-family="Helvetica,sans-Serif" font-size="10.00"> </text>
<polyline fill="none" stroke="black" points="83.5,-246.5 178.5,-246.5 "/>
<text text-anchor="start" x="91.5" y="-234.5" font-family="Helvetica,sans-Serif" font-size="10.00">+ Menu()</text>
<text text-anchor="start" x="91.5" y="-223.5" font-family="Helvetica,sans-Serif" font-size="10.00">+ ~Menu()</text>
<text text-anchor="start" x="91.5" y="-212.5" font-family="Helvetica,sans-Serif" font-size="10.00">+ draw()</text>
<text text-anchor="start" x="91.5" y="-201.5" font-family="Helvetica,sans-Serif" font-size="10.00">+ Run()</text>
<text text-anchor="start" x="91.5" y="-190.5" font-family="Helvetica,sans-Serif" font-size="10.00">+ getSize()</text>
<text text-anchor="start" x="91.5" y="-179.5" font-family="Helvetica,sans-Serif" font-size="10.00">+ getPosition()</text>
<text text-anchor="start" x="91.5" y="-168.5" font-family="Helvetica,sans-Serif" font-size="10.00">+ addItem()</text>
<text text-anchor="start" x="91.5" y="-157.5" font-family="Helvetica,sans-Serif" font-size="10.00">+ setPrevious()</text>
<text text-anchor="start" x="91.5" y="-146.5" font-family="Helvetica,sans-Serif" font-size="10.00">+ showAdresses()</text>
</a>
</g>
</g>
<!-- Node5&#45;&gt;Node4 -->
<g id="edge1" class="edge"><title>Node5&#45;&gt;Node4</title>
<path fill="none" stroke="midnightblue" d="M131,-129.259C131,-119.899 131,-110.581 131,-101.823"/>
<polygon fill="none" stroke="midnightblue" points="127.5,-129.407 131,-139.407 134.5,-129.407 127.5,-129.407"/>
</g>
<!-- Node6 -->
<g id="node3" class="node"><title>Node6</title>
<g id="a_node3"><a xlink:href="class_screen.html" target="_top" xlink:title="{Screen\n||+ Run()\l+ draw()\l}">
<polygon fill="none" stroke="black" points="0,-387.5 0,-455.5 52,-455.5 52,-387.5 0,-387.5"/>
<text text-anchor="middle" x="26" y="-443.5" font-family="Helvetica,sans-Serif" font-size="10.00">Screen</text>
<polyline fill="none" stroke="black" points="0,-436.5 52,-436.5 "/>
<text text-anchor="middle" x="26" y="-424.5" font-family="Helvetica,sans-Serif" font-size="10.00"> </text>
<polyline fill="none" stroke="black" points="0,-417.5 52,-417.5 "/>
<text text-anchor="start" x="8" y="-405.5" font-family="Helvetica,sans-Serif" font-size="10.00">+ Run()</text>
<text text-anchor="start" x="8" y="-394.5" font-family="Helvetica,sans-Serif" font-size="10.00">+ draw()</text>
</a>
</g>
</g>
<!-- Node6&#45;&gt;Node5 -->
<g id="edge2" class="edge"><title>Node6&#45;&gt;Node5</title>
<path fill="none" stroke="midnightblue" d="M41.3459,-377.803C47.0417,-363.076 53.8647,-346.616 61,-332 68.6237,-316.384 77.5436,-300.069 86.414,-284.703"/>
<polygon fill="none" stroke="midnightblue" points="38.0582,-376.601 37.7738,-387.192 44.6008,-379.09 38.0582,-376.601"/>
</g>
<!-- Node7 -->
<g id="node4" class="node"><title>Node7</title>
<polygon fill="none" stroke="#bfbfbf" points="60,-548.5 60,-605.5 116,-605.5 116,-548.5 60,-548.5"/>
<text text-anchor="middle" x="88" y="-593.5" font-family="Helvetica,sans-Serif" font-size="10.00">Drawable</text>
<polyline fill="none" stroke="#bfbfbf" points="60,-586.5 116,-586.5 "/>
<text text-anchor="middle" x="88" y="-574.5" font-family="Helvetica,sans-Serif" font-size="10.00"> </text>
<polyline fill="none" stroke="#bfbfbf" points="60,-567.5 116,-567.5 "/>
<text text-anchor="middle" x="88" y="-555.5" font-family="Helvetica,sans-Serif" font-size="10.00"> </text>
</g>
<!-- Node7&#45;&gt;Node6 -->
<g id="edge3" class="edge"><title>Node7&#45;&gt;Node6</title>
<path fill="none" stroke="midnightblue" d="M72.3724,-538.687C68.6177,-529.637 64.6411,-519.982 61,-511 53.6131,-492.779 45.5309,-472.374 38.996,-455.754"/>
<polygon fill="none" stroke="midnightblue" points="69.2607,-540.319 76.3332,-548.208 75.7239,-537.631 69.2607,-540.319"/>
</g>
<!-- Node9 -->
<g id="node6" class="node"><title>Node9</title>
<g id="a_node6"><a xlink:href="class_choice.html" target="_top" xlink:title="{Choice\n||+ Choice()\l+ Choice()\l+ ~Choice()\l+ draw()\l+ getSize()\l+ loadTextures()\l+ setSelected()\l+ setHover()\l+ getGlobalBounds()\l+ updateTexture()\l+ Run()\l+ showAdressTextures()\l}">
<polygon fill="none" stroke="black" points="70,-332.5 70,-510.5 192,-510.5 192,-332.5 70,-332.5"/>
<text text-anchor="middle" x="131" y="-498.5" font-family="Helvetica,sans-Serif" font-size="10.00">Choice</text>
<polyline fill="none" stroke="black" points="70,-491.5 192,-491.5 "/>
<text text-anchor="middle" x="131" y="-479.5" font-family="Helvetica,sans-Serif" font-size="10.00"> </text>
<polyline fill="none" stroke="black" points="70,-472.5 192,-472.5 "/>
<text text-anchor="start" x="78" y="-460.5" font-family="Helvetica,sans-Serif" font-size="10.00">+ Choice()</text>
<text text-anchor="start" x="78" y="-449.5" font-family="Helvetica,sans-Serif" font-size="10.00">+ Choice()</text>
<text text-anchor="start" x="78" y="-438.5" font-family="Helvetica,sans-Serif" font-size="10.00">+ ~Choice()</text>
<text text-anchor="start" x="78" y="-427.5" font-family="Helvetica,sans-Serif" font-size="10.00">+ draw()</text>
<text text-anchor="start" x="78" y="-416.5" font-family="Helvetica,sans-Serif" font-size="10.00">+ getSize()</text>
<text text-anchor="start" x="78" y="-405.5" font-family="Helvetica,sans-Serif" font-size="10.00">+ loadTextures()</text>
<text text-anchor="start" x="78" y="-394.5" font-family="Helvetica,sans-Serif" font-size="10.00">+ setSelected()</text>
<text text-anchor="start" x="78" y="-383.5" font-family="Helvetica,sans-Serif" font-size="10.00">+ setHover()</text>
<text text-anchor="start" x="78" y="-372.5" font-family="Helvetica,sans-Serif" font-size="10.00">+ getGlobalBounds()</text>
<text text-anchor="start" x="78" y="-361.5" font-family="Helvetica,sans-Serif" font-size="10.00">+ updateTexture()</text>
<text text-anchor="start" x="78" y="-350.5" font-family="Helvetica,sans-Serif" font-size="10.00">+ Run()</text>
<text text-anchor="start" x="78" y="-339.5" font-family="Helvetica,sans-Serif" font-size="10.00">+ showAdressTextures()</text>
</a>
</g>
</g>
<!-- Node7&#45;&gt;Node9 -->
<g id="edge6" class="edge"><title>Node7&#45;&gt;Node9</title>
<path fill="none" stroke="midnightblue" d="M98.4988,-538.522C100.918,-529.886 103.591,-520.343 106.335,-510.549"/>
<polygon fill="none" stroke="midnightblue" points="95.1142,-537.629 95.787,-548.202 101.855,-539.517 95.1142,-537.629"/>
</g>
<!-- Node8 -->
<g id="node5" class="node"><title>Node8</title>
<polygon fill="none" stroke="#bfbfbf" points="210.5,-387.5 210.5,-455.5 323.5,-455.5 323.5,-387.5 210.5,-387.5"/>
<text text-anchor="start" x="218.5" y="-443.5" font-family="Helvetica,sans-Serif" font-size="10.00">vector&lt; std::reference</text>
<text text-anchor="middle" x="267" y="-432.5" font-family="Helvetica,sans-Serif" font-size="10.00">_wrapper&lt; Choice &gt; &gt;</text>
<polyline fill="none" stroke="#bfbfbf" points="210.5,-425.5 323.5,-425.5 "/>
<text text-anchor="middle" x="267" y="-413.5" font-family="Helvetica,sans-Serif" font-size="10.00"> </text>
<polyline fill="none" stroke="#bfbfbf" points="210.5,-406.5 323.5,-406.5 "/>
<text text-anchor="middle" x="267" y="-394.5" font-family="Helvetica,sans-Serif" font-size="10.00"> </text>
</g>
<!-- Node8&#45;&gt;Node5 -->
<g id="edge4" class="edge"><title>Node8&#45;&gt;Node5</title>
<path fill="none" stroke="#404040" d="M245.828,-387.5C230.649,-363.906 209.67,-331.43 191,-303 189.116,-300.13 187.194,-297.212 185.251,-294.266"/>
<polygon fill="none" stroke="#404040" points="185.198,-294.185 178.553,-291.385 178.581,-284.174 185.226,-286.974 185.198,-294.185"/>
<text text-anchor="middle" x="219.5" y="-306" font-family="Helvetica,sans-Serif" font-size="10.00"> #choices</text>
</g>
<!-- Node9&#45;&gt;Node5 -->
<g id="edge5" class="edge"><title>Node9&#45;&gt;Node5</title>
<path fill="none" stroke="#404040" d="M131,-332.2C131,-320.412 131,-308.35 131,-296.644"/>
<polygon fill="none" stroke="#404040" points="131,-296.6 127,-290.6 131,-284.6 135,-290.6 131,-296.6"/>
<text text-anchor="middle" x="159" y="-306" font-family="Helvetica,sans-Serif" font-size="10.00"> #cur_choice</text>
</g>
</g>
</svg>
