<?xml version="1.0" encoding="UTF-8" standalone="no"?>
<!DOCTYPE svg PUBLIC "-//W3C//DTD SVG 1.1//EN"
 "http://www.w3.org/Graphics/SVG/1.1/DTD/svg11.dtd">
<!-- Generated by graphviz version 2.38.0 (20140413.2041)
 -->
<!-- Title: Board::load Pages: 1 -->
<svg width="304pt" height="104pt"
 viewBox="0.00 0.00 304.00 104.00" xmlns="http://www.w3.org/2000/svg" xmlns:xlink="http://www.w3.org/1999/xlink">
<g id="graph0" class="graph" transform="scale(1 1) rotate(0) translate(4 100)">
<title>Board::load</title>
<!-- Node71 -->
<g id="node1" class="node"><title>Node71</title>
<polygon fill="#bfbfbf" stroke="black" points="0,-38.5 0,-57.5 66,-57.5 66,-38.5 0,-38.5"/>
<text text-anchor="middle" x="33" y="-45.5" font-family="Helvetica,sans-Serif" font-size="10.00">Board::load</text>
</g>
<!-- Node72 -->
<g id="node2" class="node"><title>Node72</title>
<g id="a_node2"><a xlink:href="class_board.html#a841a248dac4743611ba1825afd5d1297" target="_top" xlink:title="Board::load">
<polygon fill="none" stroke="black" points="102,-38.5 102,-57.5 168,-57.5 168,-38.5 102,-38.5"/>
<text text-anchor="middle" x="135" y="-45.5" font-family="Helvetica,sans-Serif" font-size="10.00">Board::load</text>
</a>
</g>
</g>
<!-- Node71&#45;&gt;Node72 -->
<g id="edge1" class="edge"><title>Node71&#45;&gt;Node72</title>
<path fill="none" stroke="midnightblue" d="M66.1911,-48C74.3094,-48 83.1483,-48 91.6814,-48"/>
<polygon fill="midnightblue" stroke="midnightblue" points="91.8693,-51.5001 101.869,-48 91.8692,-44.5001 91.8693,-51.5001"/>
</g>
<!-- Node73 -->
<g id="node3" class="node"><title>Node73</title>
<g id="a_node3"><a xlink:href="class_square.html#a5fa0cbfce721c687308eec8e1a029d25" target="_top" xlink:title="Square::setValue">
<polygon fill="none" stroke="black" points="204,-76.5 204,-95.5 296,-95.5 296,-76.5 204,-76.5"/>
<text text-anchor="middle" x="250" y="-83.5" font-family="Helvetica,sans-Serif" font-size="10.00">Square::setValue</text>
</a>
</g>
</g>
<!-- Node72&#45;&gt;Node73 -->
<g id="edge2" class="edge"><title>Node72&#45;&gt;Node73</title>
<path fill="none" stroke="midnightblue" d="M164.515,-57.589C178.567,-62.3144 195.708,-68.0789 210.87,-73.1774"/>
<polygon fill="midnightblue" stroke="midnightblue" points="209.9,-76.544 220.494,-76.4141 212.132,-69.9091 209.9,-76.544"/>
</g>
<!-- Node74 -->
<g id="node4" class="node"><title>Node74</title>
<g id="a_node4"><a xlink:href="class_goban.html#a29aaf8df380fe614845d48cba057747c" target="_top" xlink:title="Goban::coord">
<polygon fill="none" stroke="black" points="212.5,-38.5 212.5,-57.5 287.5,-57.5 287.5,-38.5 212.5,-38.5"/>
<text text-anchor="middle" x="250" y="-45.5" font-family="Helvetica,sans-Serif" font-size="10.00">Goban::coord</text>
</a>
</g>
</g>
<!-- Node72&#45;&gt;Node74 -->
<g id="edge3" class="edge"><title>Node72&#45;&gt;Node74</title>
<path fill="none" stroke="midnightblue" d="M168.079,-48C178.67,-48 190.678,-48 202.141,-48"/>
<polygon fill="midnightblue" stroke="midnightblue" points="202.458,-51.5001 212.458,-48 202.458,-44.5001 202.458,-51.5001"/>
</g>
<!-- Node75 -->
<g id="node5" class="node"><title>Node75</title>
<g id="a_node5"><a xlink:href="class_etat.html#ac0b81bbcf64cb3cc574e5a9dcdf94382" target="_top" xlink:title="Etat::getVal">
<polygon fill="none" stroke="black" points="216,-0.5 216,-19.5 284,-19.5 284,-0.5 216,-0.5"/>
<text text-anchor="middle" x="250" y="-7.5" font-family="Helvetica,sans-Serif" font-size="10.00">Etat::getVal</text>
</a>
</g>
</g>
<!-- Node72&#45;&gt;Node75 -->
<g id="edge4" class="edge"><title>Node72&#45;&gt;Node75</title>
<path fill="none" stroke="midnightblue" d="M164.515,-38.411C178.567,-33.6856 195.708,-27.9211 210.87,-22.8226"/>
<polygon fill="midnightblue" stroke="midnightblue" points="212.132,-26.0909 220.494,-19.5859 209.9,-19.456 212.132,-26.0909"/>
</g>
</g>
</svg>
