<?xml version="1.0" encoding="UTF-8" standalone="no"?>
<!DOCTYPE svg PUBLIC "-//W3C//DTD SVG 1.1//EN"
 "http://www.w3.org/Graphics/SVG/1.1/DTD/svg11.dtd">
<!-- Generated by graphviz version 2.38.0 (20140413.2041)
 -->
<!-- Title: Goban::listOfLiberties Pages: 1 -->
<svg width="1029pt" height="142pt"
 viewBox="0.00 0.00 1029.00 142.00" xmlns="http://www.w3.org/2000/svg" xmlns:xlink="http://www.w3.org/1999/xlink">
<g id="graph0" class="graph" transform="scale(1 1) rotate(0) translate(4 138)">
<title>Goban::listOfLiberties</title>
<!-- Node214 -->
<g id="node1" class="node"><title>Node214</title>
<polygon fill="#bfbfbf" stroke="black" points="0,-19.5 0,-38.5 110,-38.5 110,-19.5 0,-19.5"/>
<text text-anchor="middle" x="55" y="-26.5" font-family="Helvetica,sans-Serif" font-size="10.00">Goban::listOfLiberties</text>
</g>
<!-- Node215 -->
<g id="node2" class="node"><title>Node215</title>
<g id="a_node2"><a xlink:href="class_goban.html#a1ec70508987f66afff5f8df381731fac" target="_top" xlink:title="Goban::eliminateGroups">
<polygon fill="none" stroke="black" points="146,-38.5 146,-57.5 268,-57.5 268,-38.5 146,-38.5"/>
<text text-anchor="middle" x="207" y="-45.5" font-family="Helvetica,sans-Serif" font-size="10.00">Goban::eliminateGroups</text>
</a>
</g>
</g>
<!-- Node214&#45;&gt;Node215 -->
<g id="edge1" class="edge"><title>Node214&#45;&gt;Node215</title>
<path fill="none" stroke="midnightblue" d="M120.347,-37.1506C128.803,-38.2217 137.443,-39.3162 145.827,-40.378"/>
<polygon fill="midnightblue" stroke="midnightblue" points="120.514,-33.6439 110.153,-35.8594 119.634,-40.5884 120.514,-33.6439"/>
</g>
<!-- Node218 -->
<g id="node5" class="node"><title>Node218</title>
<g id="a_node5"><a xlink:href="class_goban.html#a8b95ea2b51c078381562e361ff7febac" target="_top" xlink:title="Goban::isSuicide">
<polygon fill="none" stroke="black" points="488,-0.5 488,-19.5 579,-19.5 579,-0.5 488,-0.5"/>
<text text-anchor="middle" x="533.5" y="-7.5" font-family="Helvetica,sans-Serif" font-size="10.00">Goban::isSuicide</text>
</a>
</g>
</g>
<!-- Node214&#45;&gt;Node218 -->
<g id="edge13" class="edge"><title>Node214&#45;&gt;Node218</title>
<path fill="none" stroke="midnightblue" d="M120.281,-26.4369C218.401,-22.5244 403.06,-15.1613 487.861,-11.78"/>
<polygon fill="midnightblue" stroke="midnightblue" points="120.049,-22.9432 110.197,-26.839 120.328,-29.9377 120.049,-22.9432"/>
</g>
<!-- Node216 -->
<g id="node3" class="node"><title>Node216</title>
<g id="a_node3"><a xlink:href="class_goban.html#a7858b815885e4af36f05f9d26182cb07" target="_top" xlink:title="Goban::eliminateOppGroups">
<polygon fill="none" stroke="black" points="304,-38.5 304,-57.5 444,-57.5 444,-38.5 304,-38.5"/>
<text text-anchor="middle" x="374" y="-45.5" font-family="Helvetica,sans-Serif" font-size="10.00">Goban::eliminateOppGroups</text>
</a>
</g>
</g>
<!-- Node215&#45;&gt;Node216 -->
<g id="edge2" class="edge"><title>Node215&#45;&gt;Node216</title>
<path fill="none" stroke="midnightblue" d="M278.24,-48C286.698,-48 295.331,-48 303.774,-48"/>
<polygon fill="midnightblue" stroke="midnightblue" points="278.036,-44.5001 268.036,-48 278.036,-51.5001 278.036,-44.5001"/>
</g>
<!-- Node217 -->
<g id="node4" class="node"><title>Node217</title>
<g id="a_node4"><a xlink:href="class_goban.html#a799390f04139eec16f7bb8c79b381303" target="_top" xlink:title="Goban::legalEvenKO">
<polygon fill="none" stroke="black" points="480,-114.5 480,-133.5 587,-133.5 587,-114.5 480,-114.5"/>
<text text-anchor="middle" x="533.5" y="-121.5" font-family="Helvetica,sans-Serif" font-size="10.00">Goban::legalEvenKO</text>
</a>
</g>
</g>
<!-- Node216&#45;&gt;Node217 -->
<g id="edge3" class="edge"><title>Node216&#45;&gt;Node217</title>
<path fill="none" stroke="midnightblue" d="M399.856,-62.8724C420.8,-75.0659 451.78,-92.32 480,-105 487.515,-108.377 495.828,-111.606 503.58,-114.413"/>
<polygon fill="midnightblue" stroke="midnightblue" points="401.38,-59.7086 390.985,-57.6606 397.834,-65.744 401.38,-59.7086"/>
</g>
<!-- Node216&#45;&gt;Node218 -->
<g id="edge4" class="edge"><title>Node216&#45;&gt;Node218</title>
<path fill="none" stroke="midnightblue" d="M424.604,-36.032C446.675,-30.7069 472.303,-24.5238 493.042,-19.5201"/>
<polygon fill="midnightblue" stroke="midnightblue" points="423.644,-32.6631 414.744,-38.411 425.286,-39.4679 423.644,-32.6631"/>
</g>
<!-- Node219 -->
<g id="node6" class="node"><title>Node219</title>
<g id="a_node6"><a xlink:href="class_goban.html#a36ab256c9430e070b620052a0f13f051" target="_top" xlink:title="Goban::listFils">
<polygon fill="none" stroke="black" points="493.5,-76.5 493.5,-95.5 573.5,-95.5 573.5,-76.5 493.5,-76.5"/>
<text text-anchor="middle" x="533.5" y="-83.5" font-family="Helvetica,sans-Serif" font-size="10.00">Goban::listFils</text>
</a>
</g>
</g>
<!-- Node216&#45;&gt;Node219 -->
<g id="edge5" class="edge"><title>Node216&#45;&gt;Node219</title>
<path fill="none" stroke="midnightblue" d="M424.643,-59.9773C446.802,-65.3237 472.54,-71.5334 493.314,-76.5457"/>
<polygon fill="midnightblue" stroke="midnightblue" points="425.286,-56.5321 414.744,-57.589 423.644,-63.3369 425.286,-56.5321"/>
</g>
<!-- Node223 -->
<g id="node10" class="node"><title>Node223</title>
<g id="a_node10"><a xlink:href="class_board.html#a5fda73da080403d8a71a8593d581c350" target="_top" xlink:title="Board::click">
<polygon fill="none" stroke="black" points="632,-38.5 632,-57.5 700,-57.5 700,-38.5 632,-38.5"/>
<text text-anchor="middle" x="666" y="-45.5" font-family="Helvetica,sans-Serif" font-size="10.00">Board::click</text>
</a>
</g>
</g>
<!-- Node216&#45;&gt;Node223 -->
<g id="edge10" class="edge"><title>Node216&#45;&gt;Node223</title>
<path fill="none" stroke="midnightblue" d="M454.387,-48C512.671,-48 588.877,-48 631.816,-48"/>
<polygon fill="midnightblue" stroke="midnightblue" points="454.094,-44.5001 444.094,-48 454.094,-51.5001 454.094,-44.5001"/>
</g>
<!-- Node220 -->
<g id="node7" class="node"><title>Node220</title>
<g id="a_node7"><a xlink:href="class_arbre.html#acd12cae4820bb7780a628716a0615d10" target="_top" xlink:title="Arbre::Tsumego">
<polygon fill="none" stroke="black" points="623,-76.5 623,-95.5 709,-95.5 709,-76.5 623,-76.5"/>
<text text-anchor="middle" x="666" y="-83.5" font-family="Helvetica,sans-Serif" font-size="10.00">Arbre::Tsumego</text>
</a>
</g>
</g>
<!-- Node219&#45;&gt;Node220 -->
<g id="edge6" class="edge"><title>Node219&#45;&gt;Node220</title>
<path fill="none" stroke="midnightblue" d="M583.713,-86C596.542,-86 610.253,-86 622.69,-86"/>
<polygon fill="midnightblue" stroke="midnightblue" points="583.654,-82.5001 573.654,-86 583.654,-89.5001 583.654,-82.5001"/>
</g>
<!-- Node220&#45;&gt;Node220 -->
<g id="edge7" class="edge"><title>Node220&#45;&gt;Node220</title>
<path fill="none" stroke="midnightblue" d="M641.447,-105.029C642.786,-110.128 650.97,-114 666,-114 689.461,-114 696.243,-104.565 686.345,-95.7571"/>
<polygon fill="midnightblue" stroke="midnightblue" points="644.709,-106.31 645.655,-95.7571 638.335,-103.416 644.709,-106.31"/>
</g>
<!-- Node221 -->
<g id="node8" class="node"><title>Node221</title>
<g id="a_node8"><a xlink:href="class_game__window.html#a72304de2044c29f1373037bd818f674f" target="_top" xlink:title="Game_window::keyPressed">
<polygon fill="none" stroke="black" points="745,-76.5 745,-95.5 882,-95.5 882,-76.5 745,-76.5"/>
<text text-anchor="middle" x="813.5" y="-83.5" font-family="Helvetica,sans-Serif" font-size="10.00">Game_window::keyPressed</text>
</a>
</g>
</g>
<!-- Node220&#45;&gt;Node221 -->
<g id="edge8" class="edge"><title>Node220&#45;&gt;Node221</title>
<path fill="none" stroke="midnightblue" d="M719.302,-86C727.559,-86 736.197,-86 744.744,-86"/>
<polygon fill="midnightblue" stroke="midnightblue" points="719.085,-82.5001 709.085,-86 719.085,-89.5001 719.085,-82.5001"/>
</g>
<!-- Node222 -->
<g id="node9" class="node"><title>Node222</title>
<g id="a_node9"><a xlink:href="class_game__window.html#aec21feecf4c72d73c13d82aa12df6930" target="_top" xlink:title="Game_window::Run">
<polygon fill="none" stroke="black" points="918,-57.5 918,-76.5 1021,-76.5 1021,-57.5 918,-57.5"/>
<text text-anchor="middle" x="969.5" y="-64.5" font-family="Helvetica,sans-Serif" font-size="10.00">Game_window::Run</text>
</a>
</g>
</g>
<!-- Node221&#45;&gt;Node222 -->
<g id="edge9" class="edge"><title>Node221&#45;&gt;Node222</title>
<path fill="none" stroke="midnightblue" d="M892.186,-76.4154C900.84,-75.3476 909.484,-74.2812 917.678,-73.2703"/>
<polygon fill="midnightblue" stroke="midnightblue" points="891.543,-72.9681 882.047,-77.6663 892.4,-79.9154 891.543,-72.9681"/>
</g>
<!-- Node224 -->
<g id="node11" class="node"><title>Node224</title>
<g id="a_node11"><a xlink:href="class_game__window.html#afa942088809bf10731bb31d0d37b878d" target="_top" xlink:title="Game_window::click">
<polygon fill="none" stroke="black" points="760.5,-38.5 760.5,-57.5 866.5,-57.5 866.5,-38.5 760.5,-38.5"/>
<text text-anchor="middle" x="813.5" y="-45.5" font-family="Helvetica,sans-Serif" font-size="10.00">Game_window::click</text>
</a>
</g>
</g>
<!-- Node223&#45;&gt;Node224 -->
<g id="edge11" class="edge"><title>Node223&#45;&gt;Node224</title>
<path fill="none" stroke="midnightblue" d="M710.049,-48C725.875,-48 743.963,-48 760.493,-48"/>
<polygon fill="midnightblue" stroke="midnightblue" points="710.016,-44.5001 700.016,-48 710.016,-51.5001 710.016,-44.5001"/>
</g>
<!-- Node224&#45;&gt;Node222 -->
<g id="edge12" class="edge"><title>Node224&#45;&gt;Node222</title>
<path fill="none" stroke="midnightblue" d="M876.924,-55.7016C890.576,-57.386 904.862,-59.1486 917.981,-60.7672"/>
<polygon fill="midnightblue" stroke="midnightblue" points="876.991,-52.1834 866.637,-54.4325 876.134,-59.1308 876.991,-52.1834"/>
</g>
</g>
</svg>
