<?xml version="1.0" encoding="UTF-8" standalone="no"?>
<!DOCTYPE svg PUBLIC "-//W3C//DTD SVG 1.1//EN"
 "http://www.w3.org/Graphics/SVG/1.1/DTD/svg11.dtd">
<!-- Generated by graphviz version 2.38.0 (20140413.2041)
 -->
<!-- Title: Etat::getX Pages: 1 -->
<svg width="1124pt" height="193pt"
 viewBox="0.00 0.00 1124.00 193.04" xmlns="http://www.w3.org/2000/svg" xmlns:xlink="http://www.w3.org/1999/xlink">
<g id="graph0" class="graph" transform="scale(1 1) rotate(0) translate(4 189.039)">
<title>Etat::getX</title>
<!-- Node30 -->
<g id="node1" class="node"><title>Node30</title>
<polygon fill="#bfbfbf" stroke="black" points="0,-89.539 0,-108.539 59,-108.539 59,-89.539 0,-89.539"/>
<text text-anchor="middle" x="29.5" y="-96.539" font-family="Helvetica,sans-Serif" font-size="10.00">Etat::getX</text>
</g>
<!-- Node31 -->
<g id="node2" class="node"><title>Node31</title>
<g id="a_node2"><a xlink:href="class_arbre.html#acd12cae4820bb7780a628716a0615d10" target="_top" xlink:title="Arbre::Tsumego">
<polygon fill="none" stroke="black" points="718,-80.539 718,-99.539 804,-99.539 804,-80.539 718,-80.539"/>
<text text-anchor="middle" x="761" y="-87.539" font-family="Helvetica,sans-Serif" font-size="10.00">Arbre::Tsumego</text>
</a>
</g>
</g>
<!-- Node30&#45;&gt;Node31 -->
<g id="edge1" class="edge"><title>Node30&#45;&gt;Node31</title>
<path fill="none" stroke="midnightblue" d="M68.9804,-107.894C121.221,-119.123 217.639,-137.039 301,-137.039 301,-137.039 301,-137.039 470,-137.039 564.6,-137.039 589.619,-138.408 682,-118.039 701.53,-113.733 722.847,-105.848 738.253,-99.5405"/>
<polygon fill="midnightblue" stroke="midnightblue" points="69.6547,-104.459 59.1382,-105.745 68.1613,-111.298 69.6547,-104.459"/>
</g>
<!-- Node34 -->
<g id="node5" class="node"><title>Node34</title>
<g id="a_node5"><a xlink:href="_etat_8h.html#a1a56483b3043376a37fcc4b81aac6f98" target="_top" xlink:title="operator\&lt;\&lt;">
<polygon fill="none" stroke="black" points="118,-13.539 118,-32.539 182,-32.539 182,-13.539 118,-13.539"/>
<text text-anchor="middle" x="150" y="-20.539" font-family="Helvetica,sans-Serif" font-size="10.00">operator&lt;&lt;</text>
</a>
</g>
</g>
<!-- Node30&#45;&gt;Node34 -->
<g id="edge5" class="edge"><title>Node30&#45;&gt;Node34</title>
<path fill="none" stroke="midnightblue" d="M46.4046,-81.7821C58.6736,-69.3172 76.6074,-52.8412 95,-42.039 102.027,-37.9119 110.093,-34.4793 117.811,-31.7198"/>
<polygon fill="midnightblue" stroke="midnightblue" points="43.5999,-79.6505 39.2123,-89.2941 48.6561,-84.4915 43.5999,-79.6505"/>
</g>
<!-- Node35 -->
<g id="node6" class="node"><title>Node35</title>
<g id="a_node6"><a xlink:href="class_goban.html#a84f36324eb9ddc29f522d481f04c13e7" target="_top" xlink:title="Goban::listOfLiberties">
<polygon fill="none" stroke="black" points="95,-51.539 95,-70.539 205,-70.539 205,-51.539 95,-51.539"/>
<text text-anchor="middle" x="150" y="-58.539" font-family="Helvetica,sans-Serif" font-size="10.00">Goban::listOfLiberties</text>
</a>
</g>
</g>
<!-- Node30&#45;&gt;Node35 -->
<g id="edge6" class="edge"><title>Node30&#45;&gt;Node35</title>
<path fill="none" stroke="midnightblue" d="M68.9979,-86.6937C85.3429,-81.4523 104.099,-75.4375 119.341,-70.5499"/>
<polygon fill="midnightblue" stroke="midnightblue" points="67.6391,-83.4538 59.1855,-89.8403 69.7767,-90.1195 67.6391,-83.4538"/>
</g>
<!-- Node39 -->
<g id="node10" class="node"><title>Node39</title>
<g id="a_node10"><a xlink:href="class_goban.html#a8b95ea2b51c078381562e361ff7febac" target="_top" xlink:title="Goban::isSuicide">
<polygon fill="none" stroke="black" points="583,-89.539 583,-108.539 674,-108.539 674,-89.539 583,-89.539"/>
<text text-anchor="middle" x="628.5" y="-96.539" font-family="Helvetica,sans-Serif" font-size="10.00">Goban::isSuicide</text>
</a>
</g>
</g>
<!-- Node30&#45;&gt;Node39 -->
<g id="edge17" class="edge"><title>Node30&#45;&gt;Node39</title>
<path fill="none" stroke="midnightblue" d="M69.571,-99.039C175.909,-99.039 470.079,-99.039 582.773,-99.039"/>
<polygon fill="midnightblue" stroke="midnightblue" points="69.2946,-95.5391 59.2946,-99.039 69.2945,-102.539 69.2946,-95.5391"/>
</g>
<!-- Node43 -->
<g id="node14" class="node"><title>Node43</title>
<g id="a_node14"><a xlink:href="class_goban.html#ae7ee3b39f3c0d28c9bca286ca538f8ac" target="_top" xlink:title="Goban::cancel">
<polygon fill="none" stroke="black" points="262,-165.539 262,-184.539 342,-184.539 342,-165.539 262,-165.539"/>
<text text-anchor="middle" x="302" y="-172.539" font-family="Helvetica,sans-Serif" font-size="10.00">Goban::cancel</text>
</a>
</g>
</g>
<!-- Node30&#45;&gt;Node43 -->
<g id="edge18" class="edge"><title>Node30&#45;&gt;Node43</title>
<path fill="none" stroke="midnightblue" d="M46.0879,-115.905C58.1963,-127.845 76.0681,-143.096 95,-151.039 149.617,-173.954 219.102,-177.329 261.795,-176.815"/>
<polygon fill="midnightblue" stroke="midnightblue" points="48.4973,-113.362 39.01,-108.646 43.4856,-118.25 48.4973,-113.362"/>
</g>
<!-- Node31&#45;&gt;Node31 -->
<g id="edge2" class="edge"><title>Node31&#45;&gt;Node31</title>
<path fill="none" stroke="midnightblue" d="M736.447,-109.068C737.786,-114.167 745.97,-118.039 761,-118.039 784.461,-118.039 791.243,-108.604 781.345,-99.7961"/>
<polygon fill="midnightblue" stroke="midnightblue" points="739.709,-110.349 740.655,-99.7961 733.335,-107.455 739.709,-110.349"/>
</g>
<!-- Node32 -->
<g id="node3" class="node"><title>Node32</title>
<g id="a_node3"><a xlink:href="class_game__window.html#a72304de2044c29f1373037bd818f674f" target="_top" xlink:title="Game_window::keyPressed">
<polygon fill="none" stroke="black" points="840,-80.539 840,-99.539 977,-99.539 977,-80.539 840,-80.539"/>
<text text-anchor="middle" x="908.5" y="-87.539" font-family="Helvetica,sans-Serif" font-size="10.00">Game_window::keyPressed</text>
</a>
</g>
</g>
<!-- Node31&#45;&gt;Node32 -->
<g id="edge3" class="edge"><title>Node31&#45;&gt;Node32</title>
<path fill="none" stroke="midnightblue" d="M814.302,-90.039C822.559,-90.039 831.197,-90.039 839.744,-90.039"/>
<polygon fill="midnightblue" stroke="midnightblue" points="814.085,-86.5391 804.085,-90.039 814.085,-93.5391 814.085,-86.5391"/>
</g>
<!-- Node33 -->
<g id="node4" class="node"><title>Node33</title>
<g id="a_node4"><a xlink:href="class_game__window.html#aec21feecf4c72d73c13d82aa12df6930" target="_top" xlink:title="Game_window::Run">
<polygon fill="none" stroke="black" points="1013,-51.539 1013,-70.539 1116,-70.539 1116,-51.539 1013,-51.539"/>
<text text-anchor="middle" x="1064.5" y="-58.539" font-family="Helvetica,sans-Serif" font-size="10.00">Game_window::Run</text>
</a>
</g>
</g>
<!-- Node32&#45;&gt;Node33 -->
<g id="edge4" class="edge"><title>Node32&#45;&gt;Node33</title>
<path fill="none" stroke="midnightblue" d="M970.45,-78.5615C984.538,-75.9085 999.377,-73.1142 1012.96,-70.5556"/>
<polygon fill="midnightblue" stroke="midnightblue" points="969.532,-75.1728 960.352,-80.463 970.827,-82.0519 969.532,-75.1728"/>
</g>
<!-- Node36 -->
<g id="node7" class="node"><title>Node36</title>
<g id="a_node7"><a xlink:href="class_goban.html#a1ec70508987f66afff5f8df381731fac" target="_top" xlink:title="Goban::eliminateGroups">
<polygon fill="none" stroke="black" points="241,-13.539 241,-32.539 363,-32.539 363,-13.539 241,-13.539"/>
<text text-anchor="middle" x="302" y="-20.539" font-family="Helvetica,sans-Serif" font-size="10.00">Goban::eliminateGroups</text>
</a>
</g>
</g>
<!-- Node35&#45;&gt;Node36 -->
<g id="edge7" class="edge"><title>Node35&#45;&gt;Node36</title>
<path fill="none" stroke="midnightblue" d="M198.811,-48.9269C219.702,-43.6346 243.847,-37.5177 263.421,-32.5591"/>
<polygon fill="midnightblue" stroke="midnightblue" points="197.686,-45.6014 188.851,-51.45 199.405,-52.387 197.686,-45.6014"/>
</g>
<!-- Node35&#45;&gt;Node39 -->
<g id="edge16" class="edge"><title>Node35&#45;&gt;Node39</title>
<path fill="none" stroke="midnightblue" d="M215.155,-63.1377C292.226,-66.0904 425.359,-72.5644 539,-85.039 553.226,-86.6006 568.657,-88.8479 582.589,-91.0864"/>
<polygon fill="midnightblue" stroke="midnightblue" points="215.244,-59.6387 205.119,-62.7611 214.981,-66.6338 215.244,-59.6387"/>
</g>
<!-- Node37 -->
<g id="node8" class="node"><title>Node37</title>
<g id="a_node8"><a xlink:href="class_goban.html#a7858b815885e4af36f05f9d26182cb07" target="_top" xlink:title="Goban::eliminateOppGroups">
<polygon fill="none" stroke="black" points="399,-13.539 399,-32.539 539,-32.539 539,-13.539 399,-13.539"/>
<text text-anchor="middle" x="469" y="-20.539" font-family="Helvetica,sans-Serif" font-size="10.00">Goban::eliminateOppGroups</text>
</a>
</g>
</g>
<!-- Node36&#45;&gt;Node37 -->
<g id="edge8" class="edge"><title>Node36&#45;&gt;Node37</title>
<path fill="none" stroke="midnightblue" d="M373.24,-23.039C381.698,-23.039 390.331,-23.039 398.774,-23.039"/>
<polygon fill="midnightblue" stroke="midnightblue" points="373.036,-19.5391 363.036,-23.039 373.036,-26.5391 373.036,-19.5391"/>
</g>
<!-- Node38 -->
<g id="node9" class="node"><title>Node38</title>
<g id="a_node9"><a xlink:href="class_goban.html#a799390f04139eec16f7bb8c79b381303" target="_top" xlink:title="Goban::legalEvenKO">
<polygon fill="none" stroke="black" points="575,-13.539 575,-32.539 682,-32.539 682,-13.539 575,-13.539"/>
<text text-anchor="middle" x="628.5" y="-20.539" font-family="Helvetica,sans-Serif" font-size="10.00">Goban::legalEvenKO</text>
</a>
</g>
</g>
<!-- Node37&#45;&gt;Node38 -->
<g id="edge9" class="edge"><title>Node37&#45;&gt;Node38</title>
<path fill="none" stroke="midnightblue" d="M549.17,-23.039C557.783,-23.039 566.389,-23.039 574.576,-23.039"/>
<polygon fill="midnightblue" stroke="midnightblue" points="549.082,-19.5391 539.082,-23.039 549.082,-26.5391 549.082,-19.5391"/>
</g>
<!-- Node37&#45;&gt;Node39 -->
<g id="edge10" class="edge"><title>Node37&#45;&gt;Node39</title>
<path fill="none" stroke="midnightblue" d="M515.946,-36.0671C523.891,-39.1393 531.878,-42.7858 539,-47.039 557.635,-58.1675 556.435,-68.7943 575,-80.039 581.135,-83.7551 588.11,-86.9104 594.927,-89.5186"/>
<polygon fill="midnightblue" stroke="midnightblue" points="516.931,-32.7017 506.337,-32.6023 514.557,-39.2868 516.931,-32.7017"/>
</g>
<!-- Node40 -->
<g id="node11" class="node"><title>Node40</title>
<g id="a_node11"><a xlink:href="class_goban.html#a36ab256c9430e070b620052a0f13f051" target="_top" xlink:title="Goban::listFils">
<polygon fill="none" stroke="black" points="588.5,-51.539 588.5,-70.539 668.5,-70.539 668.5,-51.539 588.5,-51.539"/>
<text text-anchor="middle" x="628.5" y="-58.539" font-family="Helvetica,sans-Serif" font-size="10.00">Goban::listFils</text>
</a>
</g>
</g>
<!-- Node37&#45;&gt;Node40 -->
<g id="edge11" class="edge"><title>Node37&#45;&gt;Node40</title>
<path fill="none" stroke="midnightblue" d="M519.643,-35.0163C541.802,-40.3627 567.54,-46.5724 588.314,-51.5847"/>
<polygon fill="midnightblue" stroke="midnightblue" points="520.286,-31.5711 509.744,-32.628 518.644,-38.3759 520.286,-31.5711"/>
</g>
<!-- Node41 -->
<g id="node12" class="node"><title>Node41</title>
<g id="a_node12"><a xlink:href="class_board.html#a5fda73da080403d8a71a8593d581c350" target="_top" xlink:title="Board::click">
<polygon fill="none" stroke="black" points="727,-14.539 727,-33.539 795,-33.539 795,-14.539 727,-14.539"/>
<text text-anchor="middle" x="761" y="-21.539" font-family="Helvetica,sans-Serif" font-size="10.00">Board::click</text>
</a>
</g>
</g>
<!-- Node37&#45;&gt;Node41 -->
<g id="edge13" class="edge"><title>Node37&#45;&gt;Node41</title>
<path fill="none" stroke="midnightblue" d="M522.761,-11.5877C539.391,-8.49192 557.887,-5.57492 575,-4.03904 622.365,0.211862 634.818,1.91359 682,-4.03904 698.089,-6.0689 715.612,-10.3656 729.967,-14.4581"/>
<polygon fill="midnightblue" stroke="midnightblue" points="521.835,-8.20145 512.677,-13.5275 523.158,-15.0754 521.835,-8.20145"/>
</g>
<!-- Node40&#45;&gt;Node31 -->
<g id="edge12" class="edge"><title>Node40&#45;&gt;Node31</title>
<path fill="none" stroke="midnightblue" d="M678.713,-71.9752C691.542,-74.8261 705.253,-77.873 717.69,-80.6367"/>
<polygon fill="midnightblue" stroke="midnightblue" points="679.175,-68.4927 668.654,-69.74 677.657,-75.326 679.175,-68.4927"/>
</g>
<!-- Node42 -->
<g id="node13" class="node"><title>Node42</title>
<g id="a_node13"><a xlink:href="class_game__window.html#afa942088809bf10731bb31d0d37b878d" target="_top" xlink:title="Game_window::click">
<polygon fill="none" stroke="black" points="855.5,-23.539 855.5,-42.539 961.5,-42.539 961.5,-23.539 855.5,-23.539"/>
<text text-anchor="middle" x="908.5" y="-30.539" font-family="Helvetica,sans-Serif" font-size="10.00">Game_window::click</text>
</a>
</g>
</g>
<!-- Node41&#45;&gt;Node42 -->
<g id="edge14" class="edge"><title>Node41&#45;&gt;Node42</title>
<path fill="none" stroke="midnightblue" d="M805.049,-26.7019C820.875,-27.6808 838.963,-28.7996 855.493,-29.8221"/>
<polygon fill="midnightblue" stroke="midnightblue" points="805.213,-23.2054 795.016,-26.0813 804.781,-30.1921 805.213,-23.2054"/>
</g>
<!-- Node42&#45;&gt;Node33 -->
<g id="edge15" class="edge"><title>Node42&#45;&gt;Node33</title>
<path fill="none" stroke="midnightblue" d="M971.522,-44.3158C985.296,-46.8201 999.734,-49.4452 1012.98,-51.8538"/>
<polygon fill="midnightblue" stroke="midnightblue" points="972.102,-40.864 961.637,-42.5186 970.85,-47.751 972.102,-40.864"/>
</g>
<!-- Node44 -->
<g id="node15" class="node"><title>Node44</title>
<g id="a_node15"><a xlink:href="class_board.html#ac7ec911a62371650afd340d1535a1742" target="_top" xlink:title="Board::cancel">
<polygon fill="none" stroke="black" points="430.5,-165.539 430.5,-184.539 507.5,-184.539 507.5,-165.539 430.5,-165.539"/>
<text text-anchor="middle" x="469" y="-172.539" font-family="Helvetica,sans-Serif" font-size="10.00">Board::cancel</text>
</a>
</g>
</g>
<!-- Node43&#45;&gt;Node44 -->
<g id="edge19" class="edge"><title>Node43&#45;&gt;Node44</title>
<path fill="none" stroke="midnightblue" d="M352.138,-175.039C377.171,-175.039 407.131,-175.039 430.314,-175.039"/>
<polygon fill="midnightblue" stroke="midnightblue" points="352.103,-171.539 342.103,-175.039 352.103,-178.539 352.103,-171.539"/>
</g>
<!-- Node44&#45;&gt;Node32 -->
<g id="edge20" class="edge"><title>Node44&#45;&gt;Node32</title>
<path fill="none" stroke="midnightblue" d="M517.725,-171.976C583.246,-166.917 704.285,-154.506 804,-127.039 831.964,-119.336 863.208,-107.737 883.979,-99.5832"/>
<polygon fill="midnightblue" stroke="midnightblue" points="517.409,-168.489 507.698,-172.726 517.931,-175.47 517.409,-168.489"/>
</g>
</g>
</svg>
