<?xml version="1.0" encoding="UTF-8" standalone="no"?>
<!DOCTYPE svg PUBLIC "-//W3C//DTD SVG 1.1//EN"
 "http://www.w3.org/Graphics/SVG/1.1/DTD/svg11.dtd">
<!-- Generated by graphviz version 2.38.0 (20140413.2041)
 -->
<!-- Title: Menu_simple::setItemsTextures Pages: 1 -->
<svg width="432pt" height="180pt"
 viewBox="0.00 0.00 432.00 180.00" xmlns="http://www.w3.org/2000/svg" xmlns:xlink="http://www.w3.org/1999/xlink">
<g id="graph0" class="graph" transform="scale(1 1) rotate(0) translate(4 176)">
<title>Menu_simple::setItemsTextures</title>
<!-- Node24 -->
<g id="node1" class="node"><title>Node24</title>
<polygon fill="#bfbfbf" stroke="black" points="0,-76.5 0,-95.5 155,-95.5 155,-76.5 0,-76.5"/>
<text text-anchor="middle" x="77.5" y="-83.5" font-family="Helvetica,sans-Serif" font-size="10.00">Menu_simple::setItemsTextures</text>
</g>
<!-- Node25 -->
<g id="node2" class="node"><title>Node25</title>
<g id="a_node2"><a xlink:href="_main_8cpp.html#ab2ff3dd66804b9f8e614cc3d8f62b851" target="_top" xlink:title="loadMenu1">
<polygon fill="none" stroke="black" points="191,-152.5 191,-171.5 255,-171.5 255,-152.5 191,-152.5"/>
<text text-anchor="middle" x="223" y="-159.5" font-family="Helvetica,sans-Serif" font-size="10.00">loadMenu1</text>
</a>
</g>
</g>
<!-- Node24&#45;&gt;Node25 -->
<g id="edge1" class="edge"><title>Node24&#45;&gt;Node25</title>
<path fill="none" stroke="midnightblue" d="M105.794,-100.455C134.622,-115.723 179.253,-139.36 203.973,-152.453"/>
<polygon fill="midnightblue" stroke="midnightblue" points="107.15,-97.2128 96.6744,-95.6255 103.873,-103.399 107.15,-97.2128"/>
</g>
<!-- Node28 -->
<g id="node5" class="node"><title>Node28</title>
<g id="a_node5"><a xlink:href="_main_8cpp.html#a1862c57029f25299b350b89a3fef7bac" target="_top" xlink:title="loadMenu3">
<polygon fill="none" stroke="black" points="191,-114.5 191,-133.5 255,-133.5 255,-114.5 191,-114.5"/>
<text text-anchor="middle" x="223" y="-121.5" font-family="Helvetica,sans-Serif" font-size="10.00">loadMenu3</text>
</a>
</g>
</g>
<!-- Node24&#45;&gt;Node28 -->
<g id="edge4" class="edge"><title>Node24&#45;&gt;Node28</title>
<path fill="none" stroke="midnightblue" d="M124.656,-98.2225C146.229,-103.935 171.354,-110.589 190.675,-115.705"/>
<polygon fill="midnightblue" stroke="midnightblue" points="125.274,-94.7655 114.711,-95.589 123.482,-101.532 125.274,-94.7655"/>
</g>
<!-- Node29 -->
<g id="node6" class="node"><title>Node29</title>
<g id="a_node6"><a xlink:href="_main_8cpp.html#a3153201e1f35afab1a2de7fa1dea810a" target="_top" xlink:title="loadMenu4">
<polygon fill="none" stroke="black" points="191,-76.5 191,-95.5 255,-95.5 255,-76.5 191,-76.5"/>
<text text-anchor="middle" x="223" y="-83.5" font-family="Helvetica,sans-Serif" font-size="10.00">loadMenu4</text>
</a>
</g>
</g>
<!-- Node24&#45;&gt;Node29 -->
<g id="edge6" class="edge"><title>Node24&#45;&gt;Node29</title>
<path fill="none" stroke="midnightblue" d="M165.49,-86C174.427,-86 183.033,-86 190.719,-86"/>
<polygon fill="midnightblue" stroke="midnightblue" points="165.291,-82.5001 155.291,-86 165.291,-89.5001 165.291,-82.5001"/>
</g>
<!-- Node30 -->
<g id="node7" class="node"><title>Node30</title>
<g id="a_node7"><a xlink:href="_main_8cpp.html#aee704d9ab9bae25e3fecbe7f6a106f7a" target="_top" xlink:title="loadMenu5">
<polygon fill="none" stroke="black" points="191,-38.5 191,-57.5 255,-57.5 255,-38.5 191,-38.5"/>
<text text-anchor="middle" x="223" y="-45.5" font-family="Helvetica,sans-Serif" font-size="10.00">loadMenu5</text>
</a>
</g>
</g>
<!-- Node24&#45;&gt;Node30 -->
<g id="edge8" class="edge"><title>Node24&#45;&gt;Node30</title>
<path fill="none" stroke="midnightblue" d="M124.656,-73.7775C146.229,-68.0648 171.354,-61.4114 190.675,-56.2952"/>
<polygon fill="midnightblue" stroke="midnightblue" points="123.482,-70.4677 114.711,-76.411 125.274,-77.2345 123.482,-70.4677"/>
</g>
<!-- Node31 -->
<g id="node8" class="node"><title>Node31</title>
<g id="a_node8"><a xlink:href="_main_8cpp.html#a0a424bcea43ed2e1fc6b5d516bafd12c" target="_top" xlink:title="loadMenu6">
<polygon fill="none" stroke="black" points="191,-0.5 191,-19.5 255,-19.5 255,-0.5 191,-0.5"/>
<text text-anchor="middle" x="223" y="-7.5" font-family="Helvetica,sans-Serif" font-size="10.00">loadMenu6</text>
</a>
</g>
</g>
<!-- Node24&#45;&gt;Node31 -->
<g id="edge10" class="edge"><title>Node24&#45;&gt;Node31</title>
<path fill="none" stroke="midnightblue" d="M105.794,-71.5449C134.622,-56.2768 179.253,-32.6397 203.973,-19.5473"/>
<polygon fill="midnightblue" stroke="midnightblue" points="103.873,-68.6012 96.6744,-76.3745 107.15,-74.7872 103.873,-68.6012"/>
</g>
<!-- Node26 -->
<g id="node3" class="node"><title>Node26</title>
<g id="a_node3"><a xlink:href="_main_8cpp.html#a38bed9713fcae949ee78e6bc604db8fe" target="_top" xlink:title="loadMenu">
<polygon fill="none" stroke="black" points="291,-76.5 291,-95.5 350,-95.5 350,-76.5 291,-76.5"/>
<text text-anchor="middle" x="320.5" y="-83.5" font-family="Helvetica,sans-Serif" font-size="10.00">loadMenu</text>
</a>
</g>
</g>
<!-- Node25&#45;&gt;Node26 -->
<g id="edge2" class="edge"><title>Node25&#45;&gt;Node26</title>
<path fill="none" stroke="midnightblue" d="M249.326,-146.988C251.273,-145.68 253.186,-144.342 255,-143 275.425,-127.894 297.166,-107.715 309.469,-95.8617"/>
<polygon fill="midnightblue" stroke="midnightblue" points="247.303,-144.127 240.759,-152.459 251.071,-150.027 247.303,-144.127"/>
</g>
<!-- Node27 -->
<g id="node4" class="node"><title>Node27</title>
<g id="a_node4"><a xlink:href="_main_8cpp.html#ae66f6b31b5ad750f1fe042a706a4e3d4" target="_top" xlink:title="main">
<polygon fill="none" stroke="black" points="386,-76.5 386,-95.5 424,-95.5 424,-76.5 386,-76.5"/>
<text text-anchor="middle" x="405" y="-83.5" font-family="Helvetica,sans-Serif" font-size="10.00">main</text>
</a>
</g>
</g>
<!-- Node26&#45;&gt;Node27 -->
<g id="edge3" class="edge"><title>Node26&#45;&gt;Node27</title>
<path fill="none" stroke="midnightblue" d="M360.488,-86C369.254,-86 378.158,-86 385.607,-86"/>
<polygon fill="midnightblue" stroke="midnightblue" points="360.355,-82.5001 350.354,-86 360.354,-89.5001 360.355,-82.5001"/>
</g>
<!-- Node28&#45;&gt;Node26 -->
<g id="edge5" class="edge"><title>Node28&#45;&gt;Node26</title>
<path fill="none" stroke="midnightblue" d="M257.705,-110.589C270.148,-105.638 283.987,-100.131 295.409,-95.5859"/>
<polygon fill="midnightblue" stroke="midnightblue" points="256.096,-107.462 248.099,-114.411 258.684,-113.966 256.096,-107.462"/>
</g>
<!-- Node29&#45;&gt;Node26 -->
<g id="edge7" class="edge"><title>Node29&#45;&gt;Node26</title>
<path fill="none" stroke="midnightblue" d="M265.032,-86C273.752,-86 282.778,-86 290.914,-86"/>
<polygon fill="midnightblue" stroke="midnightblue" points="265.006,-82.5001 255.006,-86 265.006,-89.5001 265.006,-82.5001"/>
</g>
<!-- Node30&#45;&gt;Node26 -->
<g id="edge9" class="edge"><title>Node30&#45;&gt;Node26</title>
<path fill="none" stroke="midnightblue" d="M257.705,-61.4114C270.148,-66.3624 283.987,-71.8691 295.409,-76.4141"/>
<polygon fill="midnightblue" stroke="midnightblue" points="258.684,-58.0342 248.099,-57.589 256.096,-64.5382 258.684,-58.0342"/>
</g>
<!-- Node31&#45;&gt;Node26 -->
<g id="edge11" class="edge"><title>Node31&#45;&gt;Node26</title>
<path fill="none" stroke="midnightblue" d="M249.326,-25.0121C251.273,-26.3205 253.186,-27.6581 255,-29 275.425,-44.1063 297.166,-64.2853 309.469,-76.1383"/>
<polygon fill="midnightblue" stroke="midnightblue" points="251.071,-21.9733 240.759,-19.5406 247.303,-27.8729 251.071,-21.9733"/>
</g>
</g>
</svg>
