<?xml version="1.0" encoding="UTF-8" standalone="no"?>
<!DOCTYPE svg PUBLIC "-//W3C//DTD SVG 1.1//EN"
 "http://www.w3.org/Graphics/SVG/1.1/DTD/svg11.dtd">
<!-- Generated by graphviz version 2.38.0 (20140413.2041)
 -->
<!-- Title: Menu_simple::setItemsFonts Pages: 1 -->
<svg width="420pt" height="180pt"
 viewBox="0.00 0.00 420.00 180.00" xmlns="http://www.w3.org/2000/svg" xmlns:xlink="http://www.w3.org/1999/xlink">
<g id="graph0" class="graph" transform="scale(1 1) rotate(0) translate(4 176)">
<title>Menu_simple::setItemsFonts</title>
<!-- Node15 -->
<g id="node1" class="node"><title>Node15</title>
<polygon fill="#bfbfbf" stroke="black" points="0,-76.5 0,-95.5 143,-95.5 143,-76.5 0,-76.5"/>
<text text-anchor="middle" x="71.5" y="-83.5" font-family="Helvetica,sans-Serif" font-size="10.00">Menu_simple::setItemsFonts</text>
</g>
<!-- Node16 -->
<g id="node2" class="node"><title>Node16</title>
<g id="a_node2"><a xlink:href="_main_8cpp.html#ab2ff3dd66804b9f8e614cc3d8f62b851" target="_top" xlink:title="loadMenu1">
<polygon fill="none" stroke="black" points="179,-152.5 179,-171.5 243,-171.5 243,-152.5 179,-152.5"/>
<text text-anchor="middle" x="211" y="-159.5" font-family="Helvetica,sans-Serif" font-size="10.00">loadMenu1</text>
</a>
</g>
</g>
<!-- Node15&#45;&gt;Node16 -->
<g id="edge1" class="edge"><title>Node15&#45;&gt;Node16</title>
<path fill="none" stroke="midnightblue" d="M99.0136,-100.655C126.647,-115.929 169.143,-139.417 192.727,-152.453"/>
<polygon fill="midnightblue" stroke="midnightblue" points="100.36,-97.3998 89.9145,-95.6255 96.9734,-103.526 100.36,-97.3998"/>
</g>
<!-- Node19 -->
<g id="node5" class="node"><title>Node19</title>
<g id="a_node5"><a xlink:href="_main_8cpp.html#a1862c57029f25299b350b89a3fef7bac" target="_top" xlink:title="loadMenu3">
<polygon fill="none" stroke="black" points="179,-114.5 179,-133.5 243,-133.5 243,-114.5 179,-114.5"/>
<text text-anchor="middle" x="211" y="-121.5" font-family="Helvetica,sans-Serif" font-size="10.00">loadMenu3</text>
</a>
</g>
</g>
<!-- Node15&#45;&gt;Node19 -->
<g id="edge4" class="edge"><title>Node15&#45;&gt;Node19</title>
<path fill="none" stroke="midnightblue" d="M117.067,-98.3167C137.151,-103.867 160.39,-110.29 178.606,-115.324"/>
<polygon fill="midnightblue" stroke="midnightblue" points="117.768,-94.8793 107.197,-95.589 115.903,-101.626 117.768,-94.8793"/>
</g>
<!-- Node20 -->
<g id="node6" class="node"><title>Node20</title>
<g id="a_node6"><a xlink:href="_main_8cpp.html#a3153201e1f35afab1a2de7fa1dea810a" target="_top" xlink:title="loadMenu4">
<polygon fill="none" stroke="black" points="179,-76.5 179,-95.5 243,-95.5 243,-76.5 179,-76.5"/>
<text text-anchor="middle" x="211" y="-83.5" font-family="Helvetica,sans-Serif" font-size="10.00">loadMenu4</text>
</a>
</g>
</g>
<!-- Node15&#45;&gt;Node20 -->
<g id="edge6" class="edge"><title>Node15&#45;&gt;Node20</title>
<path fill="none" stroke="midnightblue" d="M153.466,-86C162.425,-86 171.097,-86 178.849,-86"/>
<polygon fill="midnightblue" stroke="midnightblue" points="153.264,-82.5001 143.264,-86 153.264,-89.5001 153.264,-82.5001"/>
</g>
<!-- Node21 -->
<g id="node7" class="node"><title>Node21</title>
<g id="a_node7"><a xlink:href="_main_8cpp.html#aee704d9ab9bae25e3fecbe7f6a106f7a" target="_top" xlink:title="loadMenu5">
<polygon fill="none" stroke="black" points="179,-38.5 179,-57.5 243,-57.5 243,-38.5 179,-38.5"/>
<text text-anchor="middle" x="211" y="-45.5" font-family="Helvetica,sans-Serif" font-size="10.00">loadMenu5</text>
</a>
</g>
</g>
<!-- Node15&#45;&gt;Node21 -->
<g id="edge8" class="edge"><title>Node15&#45;&gt;Node21</title>
<path fill="none" stroke="midnightblue" d="M117.067,-73.6833C137.151,-68.1329 160.39,-61.7103 178.606,-56.6763"/>
<polygon fill="midnightblue" stroke="midnightblue" points="115.903,-70.3736 107.197,-76.411 117.768,-77.1207 115.903,-70.3736"/>
</g>
<!-- Node22 -->
<g id="node8" class="node"><title>Node22</title>
<g id="a_node8"><a xlink:href="_main_8cpp.html#a0a424bcea43ed2e1fc6b5d516bafd12c" target="_top" xlink:title="loadMenu6">
<polygon fill="none" stroke="black" points="179,-0.5 179,-19.5 243,-19.5 243,-0.5 179,-0.5"/>
<text text-anchor="middle" x="211" y="-7.5" font-family="Helvetica,sans-Serif" font-size="10.00">loadMenu6</text>
</a>
</g>
</g>
<!-- Node15&#45;&gt;Node22 -->
<g id="edge10" class="edge"><title>Node15&#45;&gt;Node22</title>
<path fill="none" stroke="midnightblue" d="M99.0136,-71.3452C126.647,-56.0715 169.143,-32.5828 192.727,-19.5473"/>
<polygon fill="midnightblue" stroke="midnightblue" points="96.9734,-68.4738 89.9145,-76.3745 100.36,-74.6002 96.9734,-68.4738"/>
</g>
<!-- Node17 -->
<g id="node3" class="node"><title>Node17</title>
<g id="a_node3"><a xlink:href="_main_8cpp.html#a38bed9713fcae949ee78e6bc604db8fe" target="_top" xlink:title="loadMenu">
<polygon fill="none" stroke="black" points="279,-76.5 279,-95.5 338,-95.5 338,-76.5 279,-76.5"/>
<text text-anchor="middle" x="308.5" y="-83.5" font-family="Helvetica,sans-Serif" font-size="10.00">loadMenu</text>
</a>
</g>
</g>
<!-- Node16&#45;&gt;Node17 -->
<g id="edge2" class="edge"><title>Node16&#45;&gt;Node17</title>
<path fill="none" stroke="midnightblue" d="M237.326,-146.988C239.273,-145.68 241.186,-144.342 243,-143 263.425,-127.894 285.166,-107.715 297.469,-95.8617"/>
<polygon fill="midnightblue" stroke="midnightblue" points="235.303,-144.127 228.759,-152.459 239.071,-150.027 235.303,-144.127"/>
</g>
<!-- Node18 -->
<g id="node4" class="node"><title>Node18</title>
<g id="a_node4"><a xlink:href="_main_8cpp.html#ae66f6b31b5ad750f1fe042a706a4e3d4" target="_top" xlink:title="main">
<polygon fill="none" stroke="black" points="374,-76.5 374,-95.5 412,-95.5 412,-76.5 374,-76.5"/>
<text text-anchor="middle" x="393" y="-83.5" font-family="Helvetica,sans-Serif" font-size="10.00">main</text>
</a>
</g>
</g>
<!-- Node17&#45;&gt;Node18 -->
<g id="edge3" class="edge"><title>Node17&#45;&gt;Node18</title>
<path fill="none" stroke="midnightblue" d="M348.488,-86C357.254,-86 366.158,-86 373.607,-86"/>
<polygon fill="midnightblue" stroke="midnightblue" points="348.355,-82.5001 338.354,-86 348.354,-89.5001 348.355,-82.5001"/>
</g>
<!-- Node19&#45;&gt;Node17 -->
<g id="edge5" class="edge"><title>Node19&#45;&gt;Node17</title>
<path fill="none" stroke="midnightblue" d="M245.705,-110.589C258.148,-105.638 271.987,-100.131 283.409,-95.5859"/>
<polygon fill="midnightblue" stroke="midnightblue" points="244.096,-107.462 236.099,-114.411 246.684,-113.966 244.096,-107.462"/>
</g>
<!-- Node20&#45;&gt;Node17 -->
<g id="edge7" class="edge"><title>Node20&#45;&gt;Node17</title>
<path fill="none" stroke="midnightblue" d="M253.032,-86C261.752,-86 270.778,-86 278.914,-86"/>
<polygon fill="midnightblue" stroke="midnightblue" points="253.006,-82.5001 243.006,-86 253.006,-89.5001 253.006,-82.5001"/>
</g>
<!-- Node21&#45;&gt;Node17 -->
<g id="edge9" class="edge"><title>Node21&#45;&gt;Node17</title>
<path fill="none" stroke="midnightblue" d="M245.705,-61.4114C258.148,-66.3624 271.987,-71.8691 283.409,-76.4141"/>
<polygon fill="midnightblue" stroke="midnightblue" points="246.684,-58.0342 236.099,-57.589 244.096,-64.5382 246.684,-58.0342"/>
</g>
<!-- Node22&#45;&gt;Node17 -->
<g id="edge11" class="edge"><title>Node22&#45;&gt;Node17</title>
<path fill="none" stroke="midnightblue" d="M237.326,-25.0121C239.273,-26.3205 241.186,-27.6581 243,-29 263.425,-44.1063 285.166,-64.2853 297.469,-76.1383"/>
<polygon fill="midnightblue" stroke="midnightblue" points="239.071,-21.9733 228.759,-19.5406 235.303,-27.8729 239.071,-21.9733"/>
</g>
</g>
</svg>
