<?xml version="1.0" encoding="UTF-8" standalone="no"?>
<!DOCTYPE svg PUBLIC "-//W3C//DTD SVG 1.1//EN"
 "http://www.w3.org/Graphics/SVG/1.1/DTD/svg11.dtd">
<!-- Generated by graphviz version 2.38.0 (20140413.2041)
 -->
<!-- Title: Etat::getY Pages: 1 -->
<svg width="1126pt" height="193pt"
 viewBox="0.00 0.00 1126.00 193.04" xmlns="http://www.w3.org/2000/svg" xmlns:xlink="http://www.w3.org/1999/xlink">
<g id="graph0" class="graph" transform="scale(1 1) rotate(0) translate(4 189.039)">
<title>Etat::getY</title>
<!-- Node46 -->
<g id="node1" class="node"><title>Node46</title>
<polygon fill="#bfbfbf" stroke="black" points="0,-89.539 0,-108.539 61,-108.539 61,-89.539 0,-89.539"/>
<text text-anchor="middle" x="30.5" y="-96.539" font-family="Helvetica,sans-Serif" font-size="10.00">Etat::getY</text>
</g>
<!-- Node47 -->
<g id="node2" class="node"><title>Node47</title>
<g id="a_node2"><a xlink:href="class_arbre.html#acd12cae4820bb7780a628716a0615d10" target="_top" xlink:title="Arbre::Tsumego">
<polygon fill="none" stroke="black" points="720,-80.539 720,-99.539 806,-99.539 806,-80.539 720,-80.539"/>
<text text-anchor="middle" x="763" y="-87.539" font-family="Helvetica,sans-Serif" font-size="10.00">Arbre::Tsumego</text>
</a>
</g>
</g>
<!-- Node46&#45;&gt;Node47 -->
<g id="edge1" class="edge"><title>Node46&#45;&gt;Node47</title>
<path fill="none" stroke="midnightblue" d="M70.9672,-108.075C123.592,-119.313 219.783,-137.039 303,-137.039 303,-137.039 303,-137.039 472,-137.039 566.6,-137.039 591.619,-138.408 684,-118.039 703.53,-113.733 724.847,-105.848 740.253,-99.5405"/>
<polygon fill="midnightblue" stroke="midnightblue" points="71.5546,-104.621 61.0398,-105.921 70.0702,-111.462 71.5546,-104.621"/>
</g>
<!-- Node50 -->
<g id="node5" class="node"><title>Node50</title>
<g id="a_node5"><a xlink:href="_etat_8h.html#a1a56483b3043376a37fcc4b81aac6f98" target="_top" xlink:title="operator\&lt;\&lt;">
<polygon fill="none" stroke="black" points="120,-13.539 120,-32.539 184,-32.539 184,-13.539 120,-13.539"/>
<text text-anchor="middle" x="152" y="-20.539" font-family="Helvetica,sans-Serif" font-size="10.00">operator&lt;&lt;</text>
</a>
</g>
</g>
<!-- Node46&#45;&gt;Node50 -->
<g id="edge5" class="edge"><title>Node46&#45;&gt;Node50</title>
<path fill="none" stroke="midnightblue" d="M47.7,-81.7959C60.1839,-69.3381 78.4053,-52.8647 97,-42.039 104.043,-37.9388 112.114,-34.5158 119.833,-31.757"/>
<polygon fill="midnightblue" stroke="midnightblue" points="44.855,-79.7002 40.3786,-89.303 49.8663,-84.5876 44.855,-79.7002"/>
</g>
<!-- Node51 -->
<g id="node6" class="node"><title>Node51</title>
<g id="a_node6"><a xlink:href="class_goban.html#a84f36324eb9ddc29f522d481f04c13e7" target="_top" xlink:title="Goban::listOfLiberties">
<polygon fill="none" stroke="black" points="97,-51.539 97,-70.539 207,-70.539 207,-51.539 97,-51.539"/>
<text text-anchor="middle" x="152" y="-58.539" font-family="Helvetica,sans-Serif" font-size="10.00">Goban::listOfLiberties</text>
</a>
</g>
</g>
<!-- Node46&#45;&gt;Node51 -->
<g id="edge6" class="edge"><title>Node46&#45;&gt;Node51</title>
<path fill="none" stroke="midnightblue" d="M70.8485,-86.5266C87.1637,-81.3385 105.785,-75.417 120.97,-70.5882"/>
<polygon fill="midnightblue" stroke="midnightblue" points="69.5085,-83.2799 61.0393,-89.6458 71.6298,-89.9507 69.5085,-83.2799"/>
</g>
<!-- Node55 -->
<g id="node10" class="node"><title>Node55</title>
<g id="a_node10"><a xlink:href="class_goban.html#a8b95ea2b51c078381562e361ff7febac" target="_top" xlink:title="Goban::isSuicide">
<polygon fill="none" stroke="black" points="585,-89.539 585,-108.539 676,-108.539 676,-89.539 585,-89.539"/>
<text text-anchor="middle" x="630.5" y="-96.539" font-family="Helvetica,sans-Serif" font-size="10.00">Goban::isSuicide</text>
</a>
</g>
</g>
<!-- Node46&#45;&gt;Node55 -->
<g id="edge17" class="edge"><title>Node46&#45;&gt;Node55</title>
<path fill="none" stroke="midnightblue" d="M71.2143,-99.039C178.274,-99.039 472.347,-99.039 584.887,-99.039"/>
<polygon fill="midnightblue" stroke="midnightblue" points="71.1549,-95.5391 61.1549,-99.039 71.1549,-102.539 71.1549,-95.5391"/>
</g>
<!-- Node59 -->
<g id="node14" class="node"><title>Node59</title>
<g id="a_node14"><a xlink:href="class_goban.html#ae7ee3b39f3c0d28c9bca286ca538f8ac" target="_top" xlink:title="Goban::cancel">
<polygon fill="none" stroke="black" points="264,-165.539 264,-184.539 344,-184.539 344,-165.539 264,-165.539"/>
<text text-anchor="middle" x="304" y="-172.539" font-family="Helvetica,sans-Serif" font-size="10.00">Goban::cancel</text>
</a>
</g>
</g>
<!-- Node46&#45;&gt;Node59 -->
<g id="edge18" class="edge"><title>Node46&#45;&gt;Node59</title>
<path fill="none" stroke="midnightblue" d="M47.3796,-115.903C59.7011,-127.843 77.8597,-143.093 97,-151.039 151.703,-173.749 221.163,-177.183 263.827,-176.736"/>
<polygon fill="midnightblue" stroke="midnightblue" points="49.7032,-113.276 40.1738,-108.645 44.7357,-118.208 49.7032,-113.276"/>
</g>
<!-- Node47&#45;&gt;Node47 -->
<g id="edge2" class="edge"><title>Node47&#45;&gt;Node47</title>
<path fill="none" stroke="midnightblue" d="M738.447,-109.068C739.786,-114.167 747.97,-118.039 763,-118.039 786.461,-118.039 793.243,-108.604 783.345,-99.7961"/>
<polygon fill="midnightblue" stroke="midnightblue" points="741.709,-110.349 742.655,-99.7961 735.335,-107.455 741.709,-110.349"/>
</g>
<!-- Node48 -->
<g id="node3" class="node"><title>Node48</title>
<g id="a_node3"><a xlink:href="class_game__window.html#a72304de2044c29f1373037bd818f674f" target="_top" xlink:title="Game_window::keyPressed">
<polygon fill="none" stroke="black" points="842,-80.539 842,-99.539 979,-99.539 979,-80.539 842,-80.539"/>
<text text-anchor="middle" x="910.5" y="-87.539" font-family="Helvetica,sans-Serif" font-size="10.00">Game_window::keyPressed</text>
</a>
</g>
</g>
<!-- Node47&#45;&gt;Node48 -->
<g id="edge3" class="edge"><title>Node47&#45;&gt;Node48</title>
<path fill="none" stroke="midnightblue" d="M816.302,-90.039C824.559,-90.039 833.197,-90.039 841.744,-90.039"/>
<polygon fill="midnightblue" stroke="midnightblue" points="816.085,-86.5391 806.085,-90.039 816.085,-93.5391 816.085,-86.5391"/>
</g>
<!-- Node49 -->
<g id="node4" class="node"><title>Node49</title>
<g id="a_node4"><a xlink:href="class_game__window.html#aec21feecf4c72d73c13d82aa12df6930" target="_top" xlink:title="Game_window::Run">
<polygon fill="none" stroke="black" points="1015,-51.539 1015,-70.539 1118,-70.539 1118,-51.539 1015,-51.539"/>
<text text-anchor="middle" x="1066.5" y="-58.539" font-family="Helvetica,sans-Serif" font-size="10.00">Game_window::Run</text>
</a>
</g>
</g>
<!-- Node48&#45;&gt;Node49 -->
<g id="edge4" class="edge"><title>Node48&#45;&gt;Node49</title>
<path fill="none" stroke="midnightblue" d="M972.45,-78.5615C986.538,-75.9085 1001.38,-73.1142 1014.96,-70.5556"/>
<polygon fill="midnightblue" stroke="midnightblue" points="971.532,-75.1728 962.352,-80.463 972.827,-82.0519 971.532,-75.1728"/>
</g>
<!-- Node52 -->
<g id="node7" class="node"><title>Node52</title>
<g id="a_node7"><a xlink:href="class_goban.html#a1ec70508987f66afff5f8df381731fac" target="_top" xlink:title="Goban::eliminateGroups">
<polygon fill="none" stroke="black" points="243,-13.539 243,-32.539 365,-32.539 365,-13.539 243,-13.539"/>
<text text-anchor="middle" x="304" y="-20.539" font-family="Helvetica,sans-Serif" font-size="10.00">Goban::eliminateGroups</text>
</a>
</g>
</g>
<!-- Node51&#45;&gt;Node52 -->
<g id="edge7" class="edge"><title>Node51&#45;&gt;Node52</title>
<path fill="none" stroke="midnightblue" d="M200.811,-48.9269C221.702,-43.6346 245.847,-37.5177 265.421,-32.5591"/>
<polygon fill="midnightblue" stroke="midnightblue" points="199.686,-45.6014 190.851,-51.45 201.405,-52.387 199.686,-45.6014"/>
</g>
<!-- Node51&#45;&gt;Node55 -->
<g id="edge16" class="edge"><title>Node51&#45;&gt;Node55</title>
<path fill="none" stroke="midnightblue" d="M217.155,-63.1377C294.226,-66.0904 427.359,-72.5644 541,-85.039 555.226,-86.6006 570.657,-88.8479 584.589,-91.0864"/>
<polygon fill="midnightblue" stroke="midnightblue" points="217.244,-59.6387 207.119,-62.7611 216.981,-66.6338 217.244,-59.6387"/>
</g>
<!-- Node53 -->
<g id="node8" class="node"><title>Node53</title>
<g id="a_node8"><a xlink:href="class_goban.html#a7858b815885e4af36f05f9d26182cb07" target="_top" xlink:title="Goban::eliminateOppGroups">
<polygon fill="none" stroke="black" points="401,-13.539 401,-32.539 541,-32.539 541,-13.539 401,-13.539"/>
<text text-anchor="middle" x="471" y="-20.539" font-family="Helvetica,sans-Serif" font-size="10.00">Goban::eliminateOppGroups</text>
</a>
</g>
</g>
<!-- Node52&#45;&gt;Node53 -->
<g id="edge8" class="edge"><title>Node52&#45;&gt;Node53</title>
<path fill="none" stroke="midnightblue" d="M375.24,-23.039C383.698,-23.039 392.331,-23.039 400.774,-23.039"/>
<polygon fill="midnightblue" stroke="midnightblue" points="375.036,-19.5391 365.036,-23.039 375.036,-26.5391 375.036,-19.5391"/>
</g>
<!-- Node54 -->
<g id="node9" class="node"><title>Node54</title>
<g id="a_node9"><a xlink:href="class_goban.html#a799390f04139eec16f7bb8c79b381303" target="_top" xlink:title="Goban::legalEvenKO">
<polygon fill="none" stroke="black" points="577,-13.539 577,-32.539 684,-32.539 684,-13.539 577,-13.539"/>
<text text-anchor="middle" x="630.5" y="-20.539" font-family="Helvetica,sans-Serif" font-size="10.00">Goban::legalEvenKO</text>
</a>
</g>
</g>
<!-- Node53&#45;&gt;Node54 -->
<g id="edge9" class="edge"><title>Node53&#45;&gt;Node54</title>
<path fill="none" stroke="midnightblue" d="M551.17,-23.039C559.783,-23.039 568.389,-23.039 576.576,-23.039"/>
<polygon fill="midnightblue" stroke="midnightblue" points="551.082,-19.5391 541.082,-23.039 551.082,-26.5391 551.082,-19.5391"/>
</g>
<!-- Node53&#45;&gt;Node55 -->
<g id="edge10" class="edge"><title>Node53&#45;&gt;Node55</title>
<path fill="none" stroke="midnightblue" d="M517.946,-36.0671C525.891,-39.1393 533.878,-42.7858 541,-47.039 559.635,-58.1675 558.435,-68.7943 577,-80.039 583.135,-83.7551 590.11,-86.9104 596.927,-89.5186"/>
<polygon fill="midnightblue" stroke="midnightblue" points="518.931,-32.7017 508.337,-32.6023 516.557,-39.2868 518.931,-32.7017"/>
</g>
<!-- Node56 -->
<g id="node11" class="node"><title>Node56</title>
<g id="a_node11"><a xlink:href="class_goban.html#a36ab256c9430e070b620052a0f13f051" target="_top" xlink:title="Goban::listFils">
<polygon fill="none" stroke="black" points="590.5,-51.539 590.5,-70.539 670.5,-70.539 670.5,-51.539 590.5,-51.539"/>
<text text-anchor="middle" x="630.5" y="-58.539" font-family="Helvetica,sans-Serif" font-size="10.00">Goban::listFils</text>
</a>
</g>
</g>
<!-- Node53&#45;&gt;Node56 -->
<g id="edge11" class="edge"><title>Node53&#45;&gt;Node56</title>
<path fill="none" stroke="midnightblue" d="M521.643,-35.0163C543.802,-40.3627 569.54,-46.5724 590.314,-51.5847"/>
<polygon fill="midnightblue" stroke="midnightblue" points="522.286,-31.5711 511.744,-32.628 520.644,-38.3759 522.286,-31.5711"/>
</g>
<!-- Node57 -->
<g id="node12" class="node"><title>Node57</title>
<g id="a_node12"><a xlink:href="class_board.html#a5fda73da080403d8a71a8593d581c350" target="_top" xlink:title="Board::click">
<polygon fill="none" stroke="black" points="729,-14.539 729,-33.539 797,-33.539 797,-14.539 729,-14.539"/>
<text text-anchor="middle" x="763" y="-21.539" font-family="Helvetica,sans-Serif" font-size="10.00">Board::click</text>
</a>
</g>
</g>
<!-- Node53&#45;&gt;Node57 -->
<g id="edge13" class="edge"><title>Node53&#45;&gt;Node57</title>
<path fill="none" stroke="midnightblue" d="M524.761,-11.5877C541.391,-8.49192 559.887,-5.57492 577,-4.03904 624.365,0.211862 636.818,1.91359 684,-4.03904 700.089,-6.0689 717.612,-10.3656 731.967,-14.4581"/>
<polygon fill="midnightblue" stroke="midnightblue" points="523.835,-8.20145 514.677,-13.5275 525.158,-15.0754 523.835,-8.20145"/>
</g>
<!-- Node56&#45;&gt;Node47 -->
<g id="edge12" class="edge"><title>Node56&#45;&gt;Node47</title>
<path fill="none" stroke="midnightblue" d="M680.713,-71.9752C693.542,-74.8261 707.253,-77.873 719.69,-80.6367"/>
<polygon fill="midnightblue" stroke="midnightblue" points="681.175,-68.4927 670.654,-69.74 679.657,-75.326 681.175,-68.4927"/>
</g>
<!-- Node58 -->
<g id="node13" class="node"><title>Node58</title>
<g id="a_node13"><a xlink:href="class_game__window.html#afa942088809bf10731bb31d0d37b878d" target="_top" xlink:title="Game_window::click">
<polygon fill="none" stroke="black" points="857.5,-23.539 857.5,-42.539 963.5,-42.539 963.5,-23.539 857.5,-23.539"/>
<text text-anchor="middle" x="910.5" y="-30.539" font-family="Helvetica,sans-Serif" font-size="10.00">Game_window::click</text>
</a>
</g>
</g>
<!-- Node57&#45;&gt;Node58 -->
<g id="edge14" class="edge"><title>Node57&#45;&gt;Node58</title>
<path fill="none" stroke="midnightblue" d="M807.049,-26.7019C822.875,-27.6808 840.963,-28.7996 857.493,-29.8221"/>
<polygon fill="midnightblue" stroke="midnightblue" points="807.213,-23.2054 797.016,-26.0813 806.781,-30.1921 807.213,-23.2054"/>
</g>
<!-- Node58&#45;&gt;Node49 -->
<g id="edge15" class="edge"><title>Node58&#45;&gt;Node49</title>
<path fill="none" stroke="midnightblue" d="M973.522,-44.3158C987.296,-46.8201 1001.73,-49.4452 1014.98,-51.8538"/>
<polygon fill="midnightblue" stroke="midnightblue" points="974.102,-40.864 963.637,-42.5186 972.85,-47.751 974.102,-40.864"/>
</g>
<!-- Node60 -->
<g id="node15" class="node"><title>Node60</title>
<g id="a_node15"><a xlink:href="class_board.html#ac7ec911a62371650afd340d1535a1742" target="_top" xlink:title="Board::cancel">
<polygon fill="none" stroke="black" points="432.5,-165.539 432.5,-184.539 509.5,-184.539 509.5,-165.539 432.5,-165.539"/>
<text text-anchor="middle" x="471" y="-172.539" font-family="Helvetica,sans-Serif" font-size="10.00">Board::cancel</text>
</a>
</g>
</g>
<!-- Node59&#45;&gt;Node60 -->
<g id="edge19" class="edge"><title>Node59&#45;&gt;Node60</title>
<path fill="none" stroke="midnightblue" d="M354.138,-175.039C379.171,-175.039 409.131,-175.039 432.314,-175.039"/>
<polygon fill="midnightblue" stroke="midnightblue" points="354.103,-171.539 344.103,-175.039 354.103,-178.539 354.103,-171.539"/>
</g>
<!-- Node60&#45;&gt;Node48 -->
<g id="edge20" class="edge"><title>Node60&#45;&gt;Node48</title>
<path fill="none" stroke="midnightblue" d="M519.725,-171.976C585.246,-166.917 706.285,-154.506 806,-127.039 833.964,-119.336 865.208,-107.737 885.979,-99.5832"/>
<polygon fill="midnightblue" stroke="midnightblue" points="519.409,-168.489 509.698,-172.726 519.931,-175.47 519.409,-168.489"/>
</g>
</g>
</svg>
