<?xml version="1.0" encoding="UTF-8" standalone="no"?>
<!DOCTYPE svg PUBLIC "-//W3C//DTD SVG 1.1//EN"
 "http://www.w3.org/Graphics/SVG/1.1/DTD/svg11.dtd">
<!-- Generated by graphviz version 2.38.0 (20140413.2041)
 -->
<!-- Title: Goban::DefineStone Pages: 1 -->
<svg width="1169pt" height="142pt"
 viewBox="0.00 0.00 1169.00 142.00" xmlns="http://www.w3.org/2000/svg" xmlns:xlink="http://www.w3.org/1999/xlink">
<g id="graph0" class="graph" transform="scale(1 1) rotate(0) translate(4 138)">
<title>Goban::DefineStone</title>
<!-- Node75 -->
<g id="node1" class="node"><title>Node75</title>
<polygon fill="#bfbfbf" stroke="black" points="0,-19.5 0,-38.5 104,-38.5 104,-19.5 0,-19.5"/>
<text text-anchor="middle" x="52" y="-26.5" font-family="Helvetica,sans-Serif" font-size="10.00">Goban::DefineStone</text>
</g>
<!-- Node76 -->
<g id="node2" class="node"><title>Node76</title>
<g id="a_node2"><a xlink:href="class_goban.html#a84f36324eb9ddc29f522d481f04c13e7" target="_top" xlink:title="Goban::listOfLiberties">
<polygon fill="none" stroke="black" points="140,-19.5 140,-38.5 250,-38.5 250,-19.5 140,-19.5"/>
<text text-anchor="middle" x="195" y="-26.5" font-family="Helvetica,sans-Serif" font-size="10.00">Goban::listOfLiberties</text>
</a>
</g>
</g>
<!-- Node75&#45;&gt;Node76 -->
<g id="edge1" class="edge"><title>Node75&#45;&gt;Node76</title>
<path fill="none" stroke="midnightblue" d="M114.425,-29C122.82,-29 131.39,-29 139.648,-29"/>
<polygon fill="midnightblue" stroke="midnightblue" points="114.303,-25.5001 104.303,-29 114.303,-32.5001 114.303,-25.5001"/>
</g>
<!-- Node77 -->
<g id="node3" class="node"><title>Node77</title>
<g id="a_node3"><a xlink:href="class_goban.html#a1ec70508987f66afff5f8df381731fac" target="_top" xlink:title="Goban::eliminateGroups">
<polygon fill="none" stroke="black" points="286,-38.5 286,-57.5 408,-57.5 408,-38.5 286,-38.5"/>
<text text-anchor="middle" x="347" y="-45.5" font-family="Helvetica,sans-Serif" font-size="10.00">Goban::eliminateGroups</text>
</a>
</g>
</g>
<!-- Node76&#45;&gt;Node77 -->
<g id="edge2" class="edge"><title>Node76&#45;&gt;Node77</title>
<path fill="none" stroke="midnightblue" d="M260.347,-37.1506C268.803,-38.2217 277.443,-39.3162 285.827,-40.378"/>
<polygon fill="midnightblue" stroke="midnightblue" points="260.514,-33.6439 250.153,-35.8594 259.634,-40.5884 260.514,-33.6439"/>
</g>
<!-- Node80 -->
<g id="node6" class="node"><title>Node80</title>
<g id="a_node6"><a xlink:href="class_goban.html#a8b95ea2b51c078381562e361ff7febac" target="_top" xlink:title="Goban::isSuicide">
<polygon fill="none" stroke="black" points="628,-0.5 628,-19.5 719,-19.5 719,-0.5 628,-0.5"/>
<text text-anchor="middle" x="673.5" y="-7.5" font-family="Helvetica,sans-Serif" font-size="10.00">Goban::isSuicide</text>
</a>
</g>
</g>
<!-- Node76&#45;&gt;Node80 -->
<g id="edge14" class="edge"><title>Node76&#45;&gt;Node80</title>
<path fill="none" stroke="midnightblue" d="M260.281,-26.4369C358.401,-22.5244 543.06,-15.1613 627.861,-11.78"/>
<polygon fill="midnightblue" stroke="midnightblue" points="260.049,-22.9432 250.197,-26.839 260.328,-29.9377 260.049,-22.9432"/>
</g>
<!-- Node78 -->
<g id="node4" class="node"><title>Node78</title>
<g id="a_node4"><a xlink:href="class_goban.html#a7858b815885e4af36f05f9d26182cb07" target="_top" xlink:title="Goban::eliminateOppGroups">
<polygon fill="none" stroke="black" points="444,-38.5 444,-57.5 584,-57.5 584,-38.5 444,-38.5"/>
<text text-anchor="middle" x="514" y="-45.5" font-family="Helvetica,sans-Serif" font-size="10.00">Goban::eliminateOppGroups</text>
</a>
</g>
</g>
<!-- Node77&#45;&gt;Node78 -->
<g id="edge3" class="edge"><title>Node77&#45;&gt;Node78</title>
<path fill="none" stroke="midnightblue" d="M418.24,-48C426.698,-48 435.331,-48 443.774,-48"/>
<polygon fill="midnightblue" stroke="midnightblue" points="418.036,-44.5001 408.036,-48 418.036,-51.5001 418.036,-44.5001"/>
</g>
<!-- Node79 -->
<g id="node5" class="node"><title>Node79</title>
<g id="a_node5"><a xlink:href="class_goban.html#a799390f04139eec16f7bb8c79b381303" target="_top" xlink:title="Goban::legalEvenKO">
<polygon fill="none" stroke="black" points="620,-114.5 620,-133.5 727,-133.5 727,-114.5 620,-114.5"/>
<text text-anchor="middle" x="673.5" y="-121.5" font-family="Helvetica,sans-Serif" font-size="10.00">Goban::legalEvenKO</text>
</a>
</g>
</g>
<!-- Node78&#45;&gt;Node79 -->
<g id="edge4" class="edge"><title>Node78&#45;&gt;Node79</title>
<path fill="none" stroke="midnightblue" d="M539.856,-62.8724C560.8,-75.0659 591.78,-92.32 620,-105 627.515,-108.377 635.828,-111.606 643.58,-114.413"/>
<polygon fill="midnightblue" stroke="midnightblue" points="541.38,-59.7086 530.985,-57.6606 537.834,-65.744 541.38,-59.7086"/>
</g>
<!-- Node78&#45;&gt;Node80 -->
<g id="edge5" class="edge"><title>Node78&#45;&gt;Node80</title>
<path fill="none" stroke="midnightblue" d="M564.604,-36.032C586.675,-30.7069 612.303,-24.5238 633.042,-19.5201"/>
<polygon fill="midnightblue" stroke="midnightblue" points="563.644,-32.6631 554.744,-38.411 565.286,-39.4679 563.644,-32.6631"/>
</g>
<!-- Node81 -->
<g id="node7" class="node"><title>Node81</title>
<g id="a_node7"><a xlink:href="class_goban.html#a36ab256c9430e070b620052a0f13f051" target="_top" xlink:title="Goban::listFils">
<polygon fill="none" stroke="black" points="633.5,-76.5 633.5,-95.5 713.5,-95.5 713.5,-76.5 633.5,-76.5"/>
<text text-anchor="middle" x="673.5" y="-83.5" font-family="Helvetica,sans-Serif" font-size="10.00">Goban::listFils</text>
</a>
</g>
</g>
<!-- Node78&#45;&gt;Node81 -->
<g id="edge6" class="edge"><title>Node78&#45;&gt;Node81</title>
<path fill="none" stroke="midnightblue" d="M564.643,-59.9773C586.802,-65.3237 612.54,-71.5334 633.314,-76.5457"/>
<polygon fill="midnightblue" stroke="midnightblue" points="565.286,-56.5321 554.744,-57.589 563.644,-63.3369 565.286,-56.5321"/>
</g>
<!-- Node85 -->
<g id="node11" class="node"><title>Node85</title>
<g id="a_node11"><a xlink:href="class_board.html#a5fda73da080403d8a71a8593d581c350" target="_top" xlink:title="Board::click">
<polygon fill="none" stroke="black" points="772,-38.5 772,-57.5 840,-57.5 840,-38.5 772,-38.5"/>
<text text-anchor="middle" x="806" y="-45.5" font-family="Helvetica,sans-Serif" font-size="10.00">Board::click</text>
</a>
</g>
</g>
<!-- Node78&#45;&gt;Node85 -->
<g id="edge11" class="edge"><title>Node78&#45;&gt;Node85</title>
<path fill="none" stroke="midnightblue" d="M594.387,-48C652.671,-48 728.877,-48 771.816,-48"/>
<polygon fill="midnightblue" stroke="midnightblue" points="594.094,-44.5001 584.094,-48 594.094,-51.5001 594.094,-44.5001"/>
</g>
<!-- Node82 -->
<g id="node8" class="node"><title>Node82</title>
<g id="a_node8"><a xlink:href="class_arbre.html#acd12cae4820bb7780a628716a0615d10" target="_top" xlink:title="Arbre::Tsumego">
<polygon fill="none" stroke="black" points="763,-76.5 763,-95.5 849,-95.5 849,-76.5 763,-76.5"/>
<text text-anchor="middle" x="806" y="-83.5" font-family="Helvetica,sans-Serif" font-size="10.00">Arbre::Tsumego</text>
</a>
</g>
</g>
<!-- Node81&#45;&gt;Node82 -->
<g id="edge7" class="edge"><title>Node81&#45;&gt;Node82</title>
<path fill="none" stroke="midnightblue" d="M723.713,-86C736.542,-86 750.253,-86 762.69,-86"/>
<polygon fill="midnightblue" stroke="midnightblue" points="723.654,-82.5001 713.654,-86 723.654,-89.5001 723.654,-82.5001"/>
</g>
<!-- Node82&#45;&gt;Node82 -->
<g id="edge8" class="edge"><title>Node82&#45;&gt;Node82</title>
<path fill="none" stroke="midnightblue" d="M781.447,-105.029C782.786,-110.128 790.97,-114 806,-114 829.461,-114 836.243,-104.565 826.345,-95.7571"/>
<polygon fill="midnightblue" stroke="midnightblue" points="784.709,-106.31 785.655,-95.7571 778.335,-103.416 784.709,-106.31"/>
</g>
<!-- Node83 -->
<g id="node9" class="node"><title>Node83</title>
<g id="a_node9"><a xlink:href="class_game__window.html#a72304de2044c29f1373037bd818f674f" target="_top" xlink:title="Game_window::keyPressed">
<polygon fill="none" stroke="black" points="885,-76.5 885,-95.5 1022,-95.5 1022,-76.5 885,-76.5"/>
<text text-anchor="middle" x="953.5" y="-83.5" font-family="Helvetica,sans-Serif" font-size="10.00">Game_window::keyPressed</text>
</a>
</g>
</g>
<!-- Node82&#45;&gt;Node83 -->
<g id="edge9" class="edge"><title>Node82&#45;&gt;Node83</title>
<path fill="none" stroke="midnightblue" d="M859.302,-86C867.559,-86 876.197,-86 884.744,-86"/>
<polygon fill="midnightblue" stroke="midnightblue" points="859.085,-82.5001 849.085,-86 859.085,-89.5001 859.085,-82.5001"/>
</g>
<!-- Node84 -->
<g id="node10" class="node"><title>Node84</title>
<g id="a_node10"><a xlink:href="class_game__window.html#aec21feecf4c72d73c13d82aa12df6930" target="_top" xlink:title="Game_window::Run">
<polygon fill="none" stroke="black" points="1058,-57.5 1058,-76.5 1161,-76.5 1161,-57.5 1058,-57.5"/>
<text text-anchor="middle" x="1109.5" y="-64.5" font-family="Helvetica,sans-Serif" font-size="10.00">Game_window::Run</text>
</a>
</g>
</g>
<!-- Node83&#45;&gt;Node84 -->
<g id="edge10" class="edge"><title>Node83&#45;&gt;Node84</title>
<path fill="none" stroke="midnightblue" d="M1032.19,-76.4154C1040.84,-75.3476 1049.48,-74.2812 1057.68,-73.2703"/>
<polygon fill="midnightblue" stroke="midnightblue" points="1031.54,-72.9681 1022.05,-77.6663 1032.4,-79.9154 1031.54,-72.9681"/>
</g>
<!-- Node86 -->
<g id="node12" class="node"><title>Node86</title>
<g id="a_node12"><a xlink:href="class_game__window.html#afa942088809bf10731bb31d0d37b878d" target="_top" xlink:title="Game_window::click">
<polygon fill="none" stroke="black" points="900.5,-38.5 900.5,-57.5 1006.5,-57.5 1006.5,-38.5 900.5,-38.5"/>
<text text-anchor="middle" x="953.5" y="-45.5" font-family="Helvetica,sans-Serif" font-size="10.00">Game_window::click</text>
</a>
</g>
</g>
<!-- Node85&#45;&gt;Node86 -->
<g id="edge12" class="edge"><title>Node85&#45;&gt;Node86</title>
<path fill="none" stroke="midnightblue" d="M850.049,-48C865.875,-48 883.963,-48 900.493,-48"/>
<polygon fill="midnightblue" stroke="midnightblue" points="850.016,-44.5001 840.016,-48 850.016,-51.5001 850.016,-44.5001"/>
</g>
<!-- Node86&#45;&gt;Node84 -->
<g id="edge13" class="edge"><title>Node86&#45;&gt;Node84</title>
<path fill="none" stroke="midnightblue" d="M1016.92,-55.7016C1030.58,-57.386 1044.86,-59.1486 1057.98,-60.7672"/>
<polygon fill="midnightblue" stroke="midnightblue" points="1016.99,-52.1834 1006.64,-54.4325 1016.13,-59.1308 1016.99,-52.1834"/>
</g>
</g>
</svg>
