<?xml version="1.0" encoding="UTF-8" standalone="no"?>
<!DOCTYPE svg PUBLIC "-//W3C//DTD SVG 1.1//EN"
 "http://www.w3.org/Graphics/SVG/1.1/DTD/svg11.dtd">
<!-- Generated by graphviz version 2.38.0 (20140413.2041)
 -->
<!-- Title: Board::getView Pages: 1 -->
<svg width="376pt" height="104pt"
 viewBox="0.00 0.00 376.00 104.00" xmlns="http://www.w3.org/2000/svg" xmlns:xlink="http://www.w3.org/1999/xlink">
<g id="graph0" class="graph" transform="scale(1 1) rotate(0) translate(4 100)">
<title>Board::getView</title>
<!-- Node54 -->
<g id="node1" class="node"><title>Node54</title>
<polygon fill="#bfbfbf" stroke="black" points="0,-38.5 0,-57.5 83,-57.5 83,-38.5 0,-38.5"/>
<text text-anchor="middle" x="41.5" y="-45.5" font-family="Helvetica,sans-Serif" font-size="10.00">Board::getView</text>
</g>
<!-- Node55 -->
<g id="node2" class="node"><title>Node55</title>
<g id="a_node2"><a xlink:href="class_game__window.html#aafdea9d00265261abfac6ad233b54638" target="_top" xlink:title="Game_window::draw">
<polygon fill="none" stroke="black" points="121,-76.5 121,-95.5 227,-95.5 227,-76.5 121,-76.5"/>
<text text-anchor="middle" x="174" y="-83.5" font-family="Helvetica,sans-Serif" font-size="10.00">Game_window::draw</text>
</a>
</g>
</g>
<!-- Node54&#45;&gt;Node55 -->
<g id="edge1" class="edge"><title>Node54&#45;&gt;Node55</title>
<path fill="none" stroke="midnightblue" d="M85.0518,-60.3906C102.923,-65.5945 123.39,-71.5541 140.08,-76.4141"/>
<polygon fill="midnightblue" stroke="midnightblue" points="86.0104,-57.0244 75.4307,-57.589 84.0534,-63.7453 86.0104,-57.0244"/>
</g>
<!-- Node56 -->
<g id="node3" class="node"><title>Node56</title>
<g id="a_node3"><a xlink:href="class_game__window.html#afa942088809bf10731bb31d0d37b878d" target="_top" xlink:title="Game_window::click">
<polygon fill="none" stroke="black" points="121,-38.5 121,-57.5 227,-57.5 227,-38.5 121,-38.5"/>
<text text-anchor="middle" x="174" y="-45.5" font-family="Helvetica,sans-Serif" font-size="10.00">Game_window::click</text>
</a>
</g>
</g>
<!-- Node54&#45;&gt;Node56 -->
<g id="edge2" class="edge"><title>Node54&#45;&gt;Node56</title>
<path fill="none" stroke="midnightblue" d="M93.147,-48C102.254,-48 111.76,-48 120.907,-48"/>
<polygon fill="midnightblue" stroke="midnightblue" points="93.0757,-44.5001 83.0757,-48 93.0756,-51.5001 93.0757,-44.5001"/>
</g>
<!-- Node58 -->
<g id="node5" class="node"><title>Node58</title>
<g id="a_node5"><a xlink:href="class_game__window.html#a9b9b15469cb0ced1a22f28e447983b56" target="_top" xlink:title="Game_window::zoom">
<polygon fill="none" stroke="black" points="119,-0.5 119,-19.5 229,-19.5 229,-0.5 119,-0.5"/>
<text text-anchor="middle" x="174" y="-7.5" font-family="Helvetica,sans-Serif" font-size="10.00">Game_window::zoom</text>
</a>
</g>
</g>
<!-- Node54&#45;&gt;Node58 -->
<g id="edge4" class="edge"><title>Node54&#45;&gt;Node58</title>
<path fill="none" stroke="midnightblue" d="M85.0518,-35.6094C102.923,-30.4055 123.39,-24.4459 140.08,-19.5859"/>
<polygon fill="midnightblue" stroke="midnightblue" points="84.0534,-32.2547 75.4307,-38.411 86.0104,-38.9756 84.0534,-32.2547"/>
</g>
<!-- Node57 -->
<g id="node4" class="node"><title>Node57</title>
<g id="a_node4"><a xlink:href="class_game__window.html#aec21feecf4c72d73c13d82aa12df6930" target="_top" xlink:title="Game_window::Run">
<polygon fill="none" stroke="black" points="265,-19.5 265,-38.5 368,-38.5 368,-19.5 265,-19.5"/>
<text text-anchor="middle" x="316.5" y="-26.5" font-family="Helvetica,sans-Serif" font-size="10.00">Game_window::Run</text>
</a>
</g>
</g>
<!-- Node56&#45;&gt;Node57 -->
<g id="edge3" class="edge"><title>Node56&#45;&gt;Node57</title>
<path fill="none" stroke="midnightblue" d="M237.441,-39.556C246.503,-38.3305 255.741,-37.0813 264.54,-35.8913"/>
<polygon fill="midnightblue" stroke="midnightblue" points="236.758,-36.1165 227.317,-40.9251 237.696,-43.0533 236.758,-36.1165"/>
</g>
<!-- Node58&#45;&gt;Node57 -->
<g id="edge5" class="edge"><title>Node58&#45;&gt;Node57</title>
<path fill="none" stroke="midnightblue" d="M239.486,-18.7205C247.891,-19.8571 256.407,-21.0088 264.548,-22.1097"/>
<polygon fill="midnightblue" stroke="midnightblue" points="239.7,-15.2177 229.321,-17.3459 238.762,-22.1545 239.7,-15.2177"/>
</g>
</g>
</svg>
