<?xml version="1.0" encoding="UTF-8" standalone="no"?>
<!DOCTYPE svg PUBLIC "-//W3C//DTD SVG 1.1//EN"
 "http://www.w3.org/Graphics/SVG/1.1/DTD/svg11.dtd">
<!-- Generated by graphviz version 2.38.0 (20140413.2041)
 -->
<!-- Title: Goban::move Pages: 1 -->
<svg width="365pt" height="142pt"
 viewBox="0.00 0.00 365.00 142.00" xmlns="http://www.w3.org/2000/svg" xmlns:xlink="http://www.w3.org/1999/xlink">
<g id="graph0" class="graph" transform="scale(1 1) rotate(0) translate(4 138)">
<title>Goban::move</title>
<!-- Node225 -->
<g id="node1" class="node"><title>Node225</title>
<polygon fill="#bfbfbf" stroke="black" points="0,-57.5 0,-76.5 74,-76.5 74,-57.5 0,-57.5"/>
<text text-anchor="middle" x="37" y="-64.5" font-family="Helvetica,sans-Serif" font-size="10.00">Goban::move</text>
</g>
<!-- Node226 -->
<g id="node2" class="node"><title>Node226</title>
<g id="a_node2"><a xlink:href="class_goban.html#a6c4b62a9469b3876d250ab94bcd562e5" target="_top" xlink:title="Goban::eliminateOppositeKO">
<polygon fill="none" stroke="black" points="110,-114.5 110,-133.5 253,-133.5 253,-114.5 110,-114.5"/>
<text text-anchor="middle" x="181.5" y="-121.5" font-family="Helvetica,sans-Serif" font-size="10.00">Goban::eliminateOppositeKO</text>
</a>
</g>
</g>
<!-- Node225&#45;&gt;Node226 -->
<g id="edge1" class="edge"><title>Node225&#45;&gt;Node226</title>
<path fill="none" stroke="midnightblue" d="M57.3254,-76.5066C71.6909,-83.4134 91.8596,-92.7768 110,-100 119.73,-103.874 130.36,-107.7 140.348,-111.119"/>
<polygon fill="midnightblue" stroke="midnightblue" points="139.469,-114.516 150.063,-114.39 141.703,-107.882 139.469,-114.516"/>
</g>
<!-- Node227 -->
<g id="node3" class="node"><title>Node227</title>
<g id="a_node3"><a xlink:href="class_etat.html#aa88987ca54aee676717f05e4570c0aec" target="_top" xlink:title="Etat::setVal">
<polygon fill="none" stroke="black" points="289,-95.5 289,-114.5 357,-114.5 357,-95.5 289,-95.5"/>
<text text-anchor="middle" x="323" y="-102.5" font-family="Helvetica,sans-Serif" font-size="10.00">Etat::setVal</text>
</a>
</g>
</g>
<!-- Node225&#45;&gt;Node227 -->
<g id="edge4" class="edge"><title>Node225&#45;&gt;Node227</title>
<path fill="none" stroke="midnightblue" d="M74.2573,-71.8513C126.485,-78.8395 222.74,-91.7188 278.653,-99.2001"/>
<polygon fill="midnightblue" stroke="midnightblue" points="278.229,-102.674 288.604,-100.532 279.157,-95.7362 278.229,-102.674"/>
</g>
<!-- Node228 -->
<g id="node4" class="node"><title>Node228</title>
<g id="a_node4"><a xlink:href="class_goban.html#a29aaf8df380fe614845d48cba057747c" target="_top" xlink:title="Goban::coord">
<polygon fill="none" stroke="black" points="144,-38.5 144,-57.5 219,-57.5 219,-38.5 144,-38.5"/>
<text text-anchor="middle" x="181.5" y="-45.5" font-family="Helvetica,sans-Serif" font-size="10.00">Goban::coord</text>
</a>
</g>
</g>
<!-- Node225&#45;&gt;Node228 -->
<g id="edge3" class="edge"><title>Node225&#45;&gt;Node228</title>
<path fill="none" stroke="midnightblue" d="M74.3275,-62.1563C92.361,-59.7519 114.36,-56.8187 133.646,-54.2472"/>
<polygon fill="midnightblue" stroke="midnightblue" points="134.294,-57.6919 143.743,-52.9009 133.368,-50.7533 134.294,-57.6919"/>
</g>
<!-- Node229 -->
<g id="node5" class="node"><title>Node229</title>
<g id="a_node5"><a xlink:href="class_history.html#a90222df7f73ae9cfda56bdb66cb1985e" target="_top" xlink:title="Add new state in history. ">
<polygon fill="none" stroke="black" points="147,-0.5 147,-19.5 216,-19.5 216,-0.5 147,-0.5"/>
<text text-anchor="middle" x="181.5" y="-7.5" font-family="Helvetica,sans-Serif" font-size="10.00">History::add</text>
</a>
</g>
</g>
<!-- Node225&#45;&gt;Node229 -->
<g id="edge5" class="edge"><title>Node225&#45;&gt;Node229</title>
<path fill="none" stroke="midnightblue" d="M53.8128,-57.3367C68.0863,-48.9379 89.8731,-36.9094 110,-29 118.486,-25.6651 127.769,-22.7043 136.732,-20.1706"/>
<polygon fill="midnightblue" stroke="midnightblue" points="137.911,-23.4776 146.655,-17.4942 136.088,-16.7192 137.911,-23.4776"/>
</g>
<!-- Node226&#45;&gt;Node227 -->
<g id="edge2" class="edge"><title>Node226&#45;&gt;Node227</title>
<path fill="none" stroke="midnightblue" d="M252.659,-114.444C261.532,-113.236 270.396,-112.028 278.678,-110.901"/>
<polygon fill="midnightblue" stroke="midnightblue" points="279.376,-114.338 288.812,-109.52 278.431,-107.402 279.376,-114.338"/>
</g>
</g>
</svg>
