<?xml version="1.0" encoding="UTF-8" standalone="no"?>
<!DOCTYPE svg PUBLIC "-//W3C//DTD SVG 1.1//EN"
 "http://www.w3.org/Graphics/SVG/1.1/DTD/svg11.dtd">
<!-- Generated by graphviz version 2.38.0 (20140413.2041)
 -->
<!-- Title: History Pages: 1 -->
<svg width="93pt" height="248pt"
 viewBox="0.00 0.00 93.00 248.00" xmlns="http://www.w3.org/2000/svg" xmlns:xlink="http://www.w3.org/1999/xlink">
<g id="graph0" class="graph" transform="scale(1 1) rotate(0) translate(4 244)">
<title>History</title>
<!-- Node0 -->
<g id="node1" class="node"><title>Node0</title>
<polygon fill="#bfbfbf" stroke="black" points="8.5,-0.5 8.5,-145.5 76.5,-145.5 76.5,-0.5 8.5,-0.5"/>
<text text-anchor="middle" x="42.5" y="-133.5" font-family="Helvetica,sans-Serif" font-size="10.00">History</text>
<polyline fill="none" stroke="black" points="8.5,-126.5 76.5,-126.5 "/>
<text text-anchor="middle" x="42.5" y="-114.5" font-family="Helvetica,sans-Serif" font-size="10.00"> </text>
<polyline fill="none" stroke="black" points="8.5,-107.5 76.5,-107.5 "/>
<text text-anchor="start" x="16.5" y="-95.5" font-family="Helvetica,sans-Serif" font-size="10.00">+ History()</text>
<text text-anchor="start" x="16.5" y="-84.5" font-family="Helvetica,sans-Serif" font-size="10.00">+ ~History()</text>
<text text-anchor="start" x="16.5" y="-73.5" font-family="Helvetica,sans-Serif" font-size="10.00">+ current()</text>
<text text-anchor="start" x="16.5" y="-62.5" font-family="Helvetica,sans-Serif" font-size="10.00">+ previous()</text>
<text text-anchor="start" x="16.5" y="-51.5" font-family="Helvetica,sans-Serif" font-size="10.00">+ next()</text>
<text text-anchor="start" x="16.5" y="-40.5" font-family="Helvetica,sans-Serif" font-size="10.00">+ add()</text>
<text text-anchor="start" x="16.5" y="-29.5" font-family="Helvetica,sans-Serif" font-size="10.00">+ cancel()</text>
<text text-anchor="start" x="16.5" y="-18.5" font-family="Helvetica,sans-Serif" font-size="10.00">+ clear()</text>
<text text-anchor="start" x="16.5" y="-7.5" font-family="Helvetica,sans-Serif" font-size="10.00">+ display()</text>
</g>
<!-- Node1 -->
<g id="node2" class="node"><title>Node1</title>
<polygon fill="none" stroke="#bfbfbf" points="0,-182.5 0,-239.5 85,-239.5 85,-182.5 0,-182.5"/>
<text text-anchor="middle" x="42.5" y="-227.5" font-family="Helvetica,sans-Serif" font-size="10.00">std::list&lt; Etat &gt;</text>
<polyline fill="none" stroke="#bfbfbf" points="0,-220.5 85,-220.5 "/>
<text text-anchor="middle" x="42.5" y="-208.5" font-family="Helvetica,sans-Serif" font-size="10.00"> </text>
<polyline fill="none" stroke="#bfbfbf" points="0,-201.5 85,-201.5 "/>
<text text-anchor="middle" x="42.5" y="-189.5" font-family="Helvetica,sans-Serif" font-size="10.00"> </text>
</g>
<!-- Node1&#45;&gt;Node0 -->
<g id="edge1" class="edge"><title>Node1&#45;&gt;Node0</title>
<path fill="none" stroke="#8b1a1a" d="M42.5,-172.356C42.5,-163.999 42.5,-154.872 42.5,-145.656"/>
<polygon fill="none" stroke="#8b1a1a" points="39.0001,-172.478 42.5,-182.478 46.0001,-172.478 39.0001,-172.478"/>
</g>
</g>
</svg>
