<?xml version="1.0" encoding="UTF-8" standalone="no"?>
<!DOCTYPE svg PUBLIC "-//W3C//DTD SVG 1.1//EN"
 "http://www.w3.org/Graphics/SVG/1.1/DTD/svg11.dtd">
<!-- Generated by graphviz version 2.38.0 (20140413.2041)
 -->
<!-- Title: Menu_Miniature Pages: 1 -->
<svg width="115pt" height="480pt"
 viewBox="0.00 0.00 115.00 480.00" xmlns="http://www.w3.org/2000/svg" xmlns:xlink="http://www.w3.org/1999/xlink">
<g id="graph0" class="graph" transform="scale(1 1) rotate(0) translate(4 476)">
<title>Menu_Miniature</title>
<!-- Node0 -->
<g id="node1" class="node"><title>Node0</title>
<polygon fill="#bfbfbf" stroke="black" points="0,-0.5 0,-79.5 107,-79.5 107,-0.5 0,-0.5"/>
<text text-anchor="middle" x="53.5" y="-67.5" font-family="Helvetica,sans-Serif" font-size="10.00">Menu_Miniature</text>
<polyline fill="none" stroke="black" points="0,-60.5 107,-60.5 "/>
<text text-anchor="middle" x="53.5" y="-48.5" font-family="Helvetica,sans-Serif" font-size="10.00"> </text>
<polyline fill="none" stroke="black" points="0,-41.5 107,-41.5 "/>
<text text-anchor="start" x="8" y="-29.5" font-family="Helvetica,sans-Serif" font-size="10.00">+ Menu_Miniature()</text>
<text text-anchor="start" x="8" y="-18.5" font-family="Helvetica,sans-Serif" font-size="10.00">+ ~Menu_Miniature()</text>
<text text-anchor="start" x="8" y="-7.5" font-family="Helvetica,sans-Serif" font-size="10.00">+ setItemsTextures()</text>
</g>
<!-- Node1 -->
<g id="node2" class="node"><title>Node1</title>
<g id="a_node2"><a xlink:href="class_menu.html" target="_top" xlink:title="{Menu\n|# choices\l# cur_choice\l|+ Menu()\l+ ~Menu()\l+ draw()\l+ Run()\l+ getSize()\l+ getPosition()\l+ addItem()\l+ setPrevious()\l+ showAdresses()\l}">
<polygon fill="none" stroke="black" points="6,-116.5 6,-272.5 101,-272.5 101,-116.5 6,-116.5"/>
<text text-anchor="middle" x="53.5" y="-260.5" font-family="Helvetica,sans-Serif" font-size="10.00">Menu</text>
<polyline fill="none" stroke="black" points="6,-253.5 101,-253.5 "/>
<text text-anchor="start" x="14" y="-241.5" font-family="Helvetica,sans-Serif" font-size="10.00"># choices</text>
<text text-anchor="start" x="14" y="-230.5" font-family="Helvetica,sans-Serif" font-size="10.00"># cur_choice</text>
<polyline fill="none" stroke="black" points="6,-223.5 101,-223.5 "/>
<text text-anchor="start" x="14" y="-211.5" font-family="Helvetica,sans-Serif" font-size="10.00">+ Menu()</text>
<text text-anchor="start" x="14" y="-200.5" font-family="Helvetica,sans-Serif" font-size="10.00">+ ~Menu()</text>
<text text-anchor="start" x="14" y="-189.5" font-family="Helvetica,sans-Serif" font-size="10.00">+ draw()</text>
<text text-anchor="start" x="14" y="-178.5" font-family="Helvetica,sans-Serif" font-size="10.00">+ Run()</text>
<text text-anchor="start" x="14" y="-167.5" font-family="Helvetica,sans-Serif" font-size="10.00">+ getSize()</text>
<text text-anchor="start" x="14" y="-156.5" font-family="Helvetica,sans-Serif" font-size="10.00">+ getPosition()</text>
<text text-anchor="start" x="14" y="-145.5" font-family="Helvetica,sans-Serif" font-size="10.00">+ addItem()</text>
<text text-anchor="start" x="14" y="-134.5" font-family="Helvetica,sans-Serif" font-size="10.00">+ setPrevious()</text>
<text text-anchor="start" x="14" y="-123.5" font-family="Helvetica,sans-Serif" font-size="10.00">+ showAdresses()</text>
</a>
</g>
</g>
<!-- Node1&#45;&gt;Node0 -->
<g id="edge1" class="edge"><title>Node1&#45;&gt;Node0</title>
<path fill="none" stroke="midnightblue" d="M53.5,-106.264C53.5,-97.0187 53.5,-87.9933 53.5,-79.7472"/>
<polygon fill="none" stroke="midnightblue" points="50.0001,-106.356 53.5,-116.356 57.0001,-106.356 50.0001,-106.356"/>
</g>
<!-- Node2 -->
<g id="node3" class="node"><title>Node2</title>
<g id="a_node3"><a xlink:href="class_screen.html" target="_top" xlink:title="{Screen\n||+ Run()\l+ draw()\l}">
<polygon fill="none" stroke="black" points="27.5,-309.5 27.5,-377.5 79.5,-377.5 79.5,-309.5 27.5,-309.5"/>
<text text-anchor="middle" x="53.5" y="-365.5" font-family="Helvetica,sans-Serif" font-size="10.00">Screen</text>
<polyline fill="none" stroke="black" points="27.5,-358.5 79.5,-358.5 "/>
<text text-anchor="middle" x="53.5" y="-346.5" font-family="Helvetica,sans-Serif" font-size="10.00"> </text>
<polyline fill="none" stroke="black" points="27.5,-339.5 79.5,-339.5 "/>
<text text-anchor="start" x="35.5" y="-327.5" font-family="Helvetica,sans-Serif" font-size="10.00">+ Run()</text>
<text text-anchor="start" x="35.5" y="-316.5" font-family="Helvetica,sans-Serif" font-size="10.00">+ draw()</text>
</a>
</g>
</g>
<!-- Node2&#45;&gt;Node1 -->
<g id="edge2" class="edge"><title>Node2&#45;&gt;Node1</title>
<path fill="none" stroke="midnightblue" d="M53.5,-299C53.5,-290.7 53.5,-281.784 53.5,-272.792"/>
<polygon fill="none" stroke="midnightblue" points="50.0001,-299.143 53.5,-309.143 57.0001,-299.143 50.0001,-299.143"/>
</g>
<!-- Node3 -->
<g id="node4" class="node"><title>Node3</title>
<polygon fill="none" stroke="#bfbfbf" points="25.5,-414.5 25.5,-471.5 81.5,-471.5 81.5,-414.5 25.5,-414.5"/>
<text text-anchor="middle" x="53.5" y="-459.5" font-family="Helvetica,sans-Serif" font-size="10.00">Drawable</text>
<polyline fill="none" stroke="#bfbfbf" points="25.5,-452.5 81.5,-452.5 "/>
<text text-anchor="middle" x="53.5" y="-440.5" font-family="Helvetica,sans-Serif" font-size="10.00"> </text>
<polyline fill="none" stroke="#bfbfbf" points="25.5,-433.5 81.5,-433.5 "/>
<text text-anchor="middle" x="53.5" y="-421.5" font-family="Helvetica,sans-Serif" font-size="10.00"> </text>
</g>
<!-- Node3&#45;&gt;Node2 -->
<g id="edge3" class="edge"><title>Node3&#45;&gt;Node2</title>
<path fill="none" stroke="midnightblue" d="M53.5,-404.063C53.5,-395.393 53.5,-386.243 53.5,-377.786"/>
<polygon fill="none" stroke="midnightblue" points="50.0001,-404.321 53.5,-414.321 57.0001,-404.321 50.0001,-404.321"/>
</g>
</g>
</svg>
