<?xml version="1.0" encoding="UTF-8" standalone="no"?>
<!DOCTYPE svg PUBLIC "-//W3C//DTD SVG 1.1//EN"
 "http://www.w3.org/Graphics/SVG/1.1/DTD/svg11.dtd">
<!-- Generated by graphviz version 2.38.0 (20140413.2041)
 -->
<!-- Title: Goban::ctoi Pages: 1 -->
<svg width="1272pt" height="142pt"
 viewBox="0.00 0.00 1272.00 142.00" xmlns="http://www.w3.org/2000/svg" xmlns:xlink="http://www.w3.org/1999/xlink">
<g id="graph0" class="graph" transform="scale(1 1) rotate(0) translate(4 138)">
<title>Goban::ctoi</title>
<!-- Node57 -->
<g id="node1" class="node"><title>Node57</title>
<polygon fill="#bfbfbf" stroke="black" points="0,-19.5 0,-38.5 67,-38.5 67,-19.5 0,-19.5"/>
<text text-anchor="middle" x="33.5" y="-26.5" font-family="Helvetica,sans-Serif" font-size="10.00">Goban::ctoi</text>
</g>
<!-- Node58 -->
<g id="node2" class="node"><title>Node58</title>
<g id="a_node2"><a xlink:href="class_goban.html#a0e2596110cdbb9b007b2b2fd8d5a9973" target="_top" xlink:title="Goban::DefineStone">
<polygon fill="none" stroke="black" points="103,-19.5 103,-38.5 207,-38.5 207,-19.5 103,-19.5"/>
<text text-anchor="middle" x="155" y="-26.5" font-family="Helvetica,sans-Serif" font-size="10.00">Goban::DefineStone</text>
</a>
</g>
</g>
<!-- Node57&#45;&gt;Node58 -->
<g id="edge1" class="edge"><title>Node57&#45;&gt;Node58</title>
<path fill="none" stroke="midnightblue" d="M77.3627,-29C85.6649,-29 94.4411,-29 102.975,-29"/>
<polygon fill="midnightblue" stroke="midnightblue" points="77.1539,-25.5001 67.1539,-29 77.1539,-32.5001 77.1539,-25.5001"/>
</g>
<!-- Node59 -->
<g id="node3" class="node"><title>Node59</title>
<g id="a_node3"><a xlink:href="class_goban.html#a84f36324eb9ddc29f522d481f04c13e7" target="_top" xlink:title="Goban::listOfLiberties">
<polygon fill="none" stroke="black" points="243,-19.5 243,-38.5 353,-38.5 353,-19.5 243,-19.5"/>
<text text-anchor="middle" x="298" y="-26.5" font-family="Helvetica,sans-Serif" font-size="10.00">Goban::listOfLiberties</text>
</a>
</g>
</g>
<!-- Node58&#45;&gt;Node59 -->
<g id="edge2" class="edge"><title>Node58&#45;&gt;Node59</title>
<path fill="none" stroke="midnightblue" d="M217.425,-29C225.82,-29 234.39,-29 242.648,-29"/>
<polygon fill="midnightblue" stroke="midnightblue" points="217.303,-25.5001 207.303,-29 217.303,-32.5001 217.303,-25.5001"/>
</g>
<!-- Node60 -->
<g id="node4" class="node"><title>Node60</title>
<g id="a_node4"><a xlink:href="class_goban.html#a1ec70508987f66afff5f8df381731fac" target="_top" xlink:title="Goban::eliminateGroups">
<polygon fill="none" stroke="black" points="389,-38.5 389,-57.5 511,-57.5 511,-38.5 389,-38.5"/>
<text text-anchor="middle" x="450" y="-45.5" font-family="Helvetica,sans-Serif" font-size="10.00">Goban::eliminateGroups</text>
</a>
</g>
</g>
<!-- Node59&#45;&gt;Node60 -->
<g id="edge3" class="edge"><title>Node59&#45;&gt;Node60</title>
<path fill="none" stroke="midnightblue" d="M363.347,-37.1506C371.803,-38.2217 380.443,-39.3162 388.827,-40.378"/>
<polygon fill="midnightblue" stroke="midnightblue" points="363.514,-33.6439 353.153,-35.8594 362.634,-40.5884 363.514,-33.6439"/>
</g>
<!-- Node63 -->
<g id="node7" class="node"><title>Node63</title>
<g id="a_node7"><a xlink:href="class_goban.html#a8b95ea2b51c078381562e361ff7febac" target="_top" xlink:title="Goban::isSuicide">
<polygon fill="none" stroke="black" points="731,-0.5 731,-19.5 822,-19.5 822,-0.5 731,-0.5"/>
<text text-anchor="middle" x="776.5" y="-7.5" font-family="Helvetica,sans-Serif" font-size="10.00">Goban::isSuicide</text>
</a>
</g>
</g>
<!-- Node59&#45;&gt;Node63 -->
<g id="edge15" class="edge"><title>Node59&#45;&gt;Node63</title>
<path fill="none" stroke="midnightblue" d="M363.281,-26.4369C461.401,-22.5244 646.06,-15.1613 730.861,-11.78"/>
<polygon fill="midnightblue" stroke="midnightblue" points="363.049,-22.9432 353.197,-26.839 363.328,-29.9377 363.049,-22.9432"/>
</g>
<!-- Node61 -->
<g id="node5" class="node"><title>Node61</title>
<g id="a_node5"><a xlink:href="class_goban.html#a7858b815885e4af36f05f9d26182cb07" target="_top" xlink:title="Goban::eliminateOppGroups">
<polygon fill="none" stroke="black" points="547,-38.5 547,-57.5 687,-57.5 687,-38.5 547,-38.5"/>
<text text-anchor="middle" x="617" y="-45.5" font-family="Helvetica,sans-Serif" font-size="10.00">Goban::eliminateOppGroups</text>
</a>
</g>
</g>
<!-- Node60&#45;&gt;Node61 -->
<g id="edge4" class="edge"><title>Node60&#45;&gt;Node61</title>
<path fill="none" stroke="midnightblue" d="M521.24,-48C529.698,-48 538.331,-48 546.774,-48"/>
<polygon fill="midnightblue" stroke="midnightblue" points="521.036,-44.5001 511.036,-48 521.036,-51.5001 521.036,-44.5001"/>
</g>
<!-- Node62 -->
<g id="node6" class="node"><title>Node62</title>
<g id="a_node6"><a xlink:href="class_goban.html#a799390f04139eec16f7bb8c79b381303" target="_top" xlink:title="Goban::legalEvenKO">
<polygon fill="none" stroke="black" points="723,-114.5 723,-133.5 830,-133.5 830,-114.5 723,-114.5"/>
<text text-anchor="middle" x="776.5" y="-121.5" font-family="Helvetica,sans-Serif" font-size="10.00">Goban::legalEvenKO</text>
</a>
</g>
</g>
<!-- Node61&#45;&gt;Node62 -->
<g id="edge5" class="edge"><title>Node61&#45;&gt;Node62</title>
<path fill="none" stroke="midnightblue" d="M642.856,-62.8724C663.8,-75.0659 694.78,-92.32 723,-105 730.515,-108.377 738.828,-111.606 746.58,-114.413"/>
<polygon fill="midnightblue" stroke="midnightblue" points="644.38,-59.7086 633.985,-57.6606 640.834,-65.744 644.38,-59.7086"/>
</g>
<!-- Node61&#45;&gt;Node63 -->
<g id="edge6" class="edge"><title>Node61&#45;&gt;Node63</title>
<path fill="none" stroke="midnightblue" d="M667.604,-36.032C689.675,-30.7069 715.303,-24.5238 736.042,-19.5201"/>
<polygon fill="midnightblue" stroke="midnightblue" points="666.644,-32.6631 657.744,-38.411 668.286,-39.4679 666.644,-32.6631"/>
</g>
<!-- Node64 -->
<g id="node8" class="node"><title>Node64</title>
<g id="a_node8"><a xlink:href="class_goban.html#a36ab256c9430e070b620052a0f13f051" target="_top" xlink:title="Goban::listFils">
<polygon fill="none" stroke="black" points="736.5,-76.5 736.5,-95.5 816.5,-95.5 816.5,-76.5 736.5,-76.5"/>
<text text-anchor="middle" x="776.5" y="-83.5" font-family="Helvetica,sans-Serif" font-size="10.00">Goban::listFils</text>
</a>
</g>
</g>
<!-- Node61&#45;&gt;Node64 -->
<g id="edge7" class="edge"><title>Node61&#45;&gt;Node64</title>
<path fill="none" stroke="midnightblue" d="M667.643,-59.9773C689.802,-65.3237 715.54,-71.5334 736.314,-76.5457"/>
<polygon fill="midnightblue" stroke="midnightblue" points="668.286,-56.5321 657.744,-57.589 666.644,-63.3369 668.286,-56.5321"/>
</g>
<!-- Node68 -->
<g id="node12" class="node"><title>Node68</title>
<g id="a_node12"><a xlink:href="class_board.html#a5fda73da080403d8a71a8593d581c350" target="_top" xlink:title="Board::click">
<polygon fill="none" stroke="black" points="875,-38.5 875,-57.5 943,-57.5 943,-38.5 875,-38.5"/>
<text text-anchor="middle" x="909" y="-45.5" font-family="Helvetica,sans-Serif" font-size="10.00">Board::click</text>
</a>
</g>
</g>
<!-- Node61&#45;&gt;Node68 -->
<g id="edge12" class="edge"><title>Node61&#45;&gt;Node68</title>
<path fill="none" stroke="midnightblue" d="M697.387,-48C755.671,-48 831.877,-48 874.816,-48"/>
<polygon fill="midnightblue" stroke="midnightblue" points="697.094,-44.5001 687.094,-48 697.094,-51.5001 697.094,-44.5001"/>
</g>
<!-- Node65 -->
<g id="node9" class="node"><title>Node65</title>
<g id="a_node9"><a xlink:href="class_arbre.html#acd12cae4820bb7780a628716a0615d10" target="_top" xlink:title="Arbre::Tsumego">
<polygon fill="none" stroke="black" points="866,-76.5 866,-95.5 952,-95.5 952,-76.5 866,-76.5"/>
<text text-anchor="middle" x="909" y="-83.5" font-family="Helvetica,sans-Serif" font-size="10.00">Arbre::Tsumego</text>
</a>
</g>
</g>
<!-- Node64&#45;&gt;Node65 -->
<g id="edge8" class="edge"><title>Node64&#45;&gt;Node65</title>
<path fill="none" stroke="midnightblue" d="M826.713,-86C839.542,-86 853.253,-86 865.69,-86"/>
<polygon fill="midnightblue" stroke="midnightblue" points="826.654,-82.5001 816.654,-86 826.654,-89.5001 826.654,-82.5001"/>
</g>
<!-- Node65&#45;&gt;Node65 -->
<g id="edge9" class="edge"><title>Node65&#45;&gt;Node65</title>
<path fill="none" stroke="midnightblue" d="M884.447,-105.029C885.786,-110.128 893.97,-114 909,-114 932.461,-114 939.243,-104.565 929.345,-95.7571"/>
<polygon fill="midnightblue" stroke="midnightblue" points="887.709,-106.31 888.655,-95.7571 881.335,-103.416 887.709,-106.31"/>
</g>
<!-- Node66 -->
<g id="node10" class="node"><title>Node66</title>
<g id="a_node10"><a xlink:href="class_game__window.html#a72304de2044c29f1373037bd818f674f" target="_top" xlink:title="Game_window::keyPressed">
<polygon fill="none" stroke="black" points="988,-76.5 988,-95.5 1125,-95.5 1125,-76.5 988,-76.5"/>
<text text-anchor="middle" x="1056.5" y="-83.5" font-family="Helvetica,sans-Serif" font-size="10.00">Game_window::keyPressed</text>
</a>
</g>
</g>
<!-- Node65&#45;&gt;Node66 -->
<g id="edge10" class="edge"><title>Node65&#45;&gt;Node66</title>
<path fill="none" stroke="midnightblue" d="M962.302,-86C970.559,-86 979.197,-86 987.744,-86"/>
<polygon fill="midnightblue" stroke="midnightblue" points="962.085,-82.5001 952.085,-86 962.085,-89.5001 962.085,-82.5001"/>
</g>
<!-- Node67 -->
<g id="node11" class="node"><title>Node67</title>
<g id="a_node11"><a xlink:href="class_game__window.html#aec21feecf4c72d73c13d82aa12df6930" target="_top" xlink:title="Game_window::Run">
<polygon fill="none" stroke="black" points="1161,-57.5 1161,-76.5 1264,-76.5 1264,-57.5 1161,-57.5"/>
<text text-anchor="middle" x="1212.5" y="-64.5" font-family="Helvetica,sans-Serif" font-size="10.00">Game_window::Run</text>
</a>
</g>
</g>
<!-- Node66&#45;&gt;Node67 -->
<g id="edge11" class="edge"><title>Node66&#45;&gt;Node67</title>
<path fill="none" stroke="midnightblue" d="M1135.19,-76.4154C1143.84,-75.3476 1152.48,-74.2812 1160.68,-73.2703"/>
<polygon fill="midnightblue" stroke="midnightblue" points="1134.54,-72.9681 1125.05,-77.6663 1135.4,-79.9154 1134.54,-72.9681"/>
</g>
<!-- Node69 -->
<g id="node13" class="node"><title>Node69</title>
<g id="a_node13"><a xlink:href="class_game__window.html#afa942088809bf10731bb31d0d37b878d" target="_top" xlink:title="Game_window::click">
<polygon fill="none" stroke="black" points="1003.5,-38.5 1003.5,-57.5 1109.5,-57.5 1109.5,-38.5 1003.5,-38.5"/>
<text text-anchor="middle" x="1056.5" y="-45.5" font-family="Helvetica,sans-Serif" font-size="10.00">Game_window::click</text>
</a>
</g>
</g>
<!-- Node68&#45;&gt;Node69 -->
<g id="edge13" class="edge"><title>Node68&#45;&gt;Node69</title>
<path fill="none" stroke="midnightblue" d="M953.049,-48C968.875,-48 986.963,-48 1003.49,-48"/>
<polygon fill="midnightblue" stroke="midnightblue" points="953.016,-44.5001 943.016,-48 953.016,-51.5001 953.016,-44.5001"/>
</g>
<!-- Node69&#45;&gt;Node67 -->
<g id="edge14" class="edge"><title>Node69&#45;&gt;Node67</title>
<path fill="none" stroke="midnightblue" d="M1119.92,-55.7016C1133.58,-57.386 1147.86,-59.1486 1160.98,-60.7672"/>
<polygon fill="midnightblue" stroke="midnightblue" points="1119.99,-52.1834 1109.64,-54.4325 1119.13,-59.1308 1119.99,-52.1834"/>
</g>
</g>
</svg>
