<?xml version="1.0" encoding="UTF-8" standalone="no"?>
<!DOCTYPE svg PUBLIC "-//W3C//DTD SVG 1.1//EN"
 "http://www.w3.org/Graphics/SVG/1.1/DTD/svg11.dtd">
<!-- Generated by graphviz version 2.38.0 (20140413.2041)
 -->
<!-- Title: Goban::coord Pages: 1 -->
<svg width="994pt" height="509pt"
 viewBox="0.00 0.00 994.00 508.63" xmlns="http://www.w3.org/2000/svg" xmlns:xlink="http://www.w3.org/1999/xlink">
<g id="graph0" class="graph" transform="scale(1 1) rotate(0) translate(4 504.627)">
<title>Goban::coord</title>
<!-- Node32 -->
<g id="node1" class="node"><title>Node32</title>
<polygon fill="#bfbfbf" stroke="black" points="0,-209.5 0,-228.5 75,-228.5 75,-209.5 0,-209.5"/>
<text text-anchor="middle" x="37.5" y="-216.5" font-family="Helvetica,sans-Serif" font-size="10.00">Goban::coord</text>
</g>
<!-- Node33 -->
<g id="node2" class="node"><title>Node33</title>
<g id="a_node2"><a xlink:href="class_arbre.html#acd12cae4820bb7780a628716a0615d10" target="_top" xlink:title="Arbre::Tsumego">
<polygon fill="none" stroke="black" points="588,-381.5 588,-400.5 674,-400.5 674,-381.5 588,-381.5"/>
<text text-anchor="middle" x="631" y="-388.5" font-family="Helvetica,sans-Serif" font-size="10.00">Arbre::Tsumego</text>
</a>
</g>
</g>
<!-- Node32&#45;&gt;Node33 -->
<g id="edge1" class="edge"><title>Node32&#45;&gt;Node33</title>
<path fill="none" stroke="midnightblue" d="M43.8114,-238.376C52.7444,-267.224 73.5751,-321.155 111,-350 257.042,-462.559 499.9,-421.763 592.535,-400.545"/>
<polygon fill="midnightblue" stroke="midnightblue" points="47.1327,-237.264 40.9605,-228.653 40.4155,-239.234 47.1327,-237.264"/>
</g>
<!-- Node34 -->
<g id="node3" class="node"><title>Node34</title>
<g id="a_node3"><a xlink:href="class_game__window.html#a72304de2044c29f1373037bd818f674f" target="_top" xlink:title="Game_window::keyPressed">
<polygon fill="none" stroke="black" points="710,-409.5 710,-428.5 847,-428.5 847,-409.5 710,-409.5"/>
<text text-anchor="middle" x="778.5" y="-416.5" font-family="Helvetica,sans-Serif" font-size="10.00">Game_window::keyPressed</text>
</a>
</g>
</g>
<!-- Node32&#45;&gt;Node34 -->
<g id="edge28" class="edge"><title>Node32&#45;&gt;Node34</title>
<path fill="none" stroke="midnightblue" d="M41.4217,-238.883C49.6938,-292.262 75.0306,-436.65 111,-466 189.442,-530.006 236.758,-485 338,-485 338,-485 338,-485 499.5,-485 595.983,-485 706.331,-446.902 753.781,-428.597"/>
<polygon fill="midnightblue" stroke="midnightblue" points="44.8353,-238.048 39.8789,-228.684 37.914,-239.095 44.8353,-238.048"/>
</g>
<!-- Node36 -->
<g id="node5" class="node"><title>Node36</title>
<g id="a_node5"><a xlink:href="class_goban.html#a8c49da36e406f11d33671a4c8a4c19b2" target="_top" xlink:title="Goban::Goban">
<polygon fill="none" stroke="black" points="132,-152.5 132,-171.5 212,-171.5 212,-152.5 132,-152.5"/>
<text text-anchor="middle" x="172" y="-159.5" font-family="Helvetica,sans-Serif" font-size="10.00">Goban::Goban</text>
</a>
</g>
</g>
<!-- Node32&#45;&gt;Node36 -->
<g id="edge5" class="edge"><title>Node32&#45;&gt;Node36</title>
<path fill="none" stroke="midnightblue" d="M68.1455,-205.129C81.222,-199.108 96.8126,-192.062 111,-186 122.555,-181.063 135.483,-175.852 146.372,-171.552"/>
<polygon fill="midnightblue" stroke="midnightblue" points="66.306,-202.123 58.7007,-209.5 69.246,-208.476 66.306,-202.123"/>
</g>
<!-- Node37 -->
<g id="node6" class="node"><title>Node37</title>
<g id="a_node6"><a xlink:href="class_goban.html#a1ec70508987f66afff5f8df381731fac" target="_top" xlink:title="Goban::eliminateGroups">
<polygon fill="none" stroke="black" points="111,-228.5 111,-247.5 233,-247.5 233,-228.5 111,-228.5"/>
<text text-anchor="middle" x="172" y="-235.5" font-family="Helvetica,sans-Serif" font-size="10.00">Goban::eliminateGroups</text>
</a>
</g>
</g>
<!-- Node32&#45;&gt;Node37 -->
<g id="edge6" class="edge"><title>Node32&#45;&gt;Node37</title>
<path fill="none" stroke="midnightblue" d="M85,-225.668C93.3733,-226.869 102.21,-228.136 110.904,-229.382"/>
<polygon fill="midnightblue" stroke="midnightblue" points="85.4525,-222.197 75.057,-224.242 84.4589,-229.126 85.4525,-222.197"/>
</g>
<!-- Node40 -->
<g id="node9" class="node"><title>Node40</title>
<g id="a_node9"><a xlink:href="class_goban.html#a8b95ea2b51c078381562e361ff7febac" target="_top" xlink:title="Goban::isSuicide">
<polygon fill="none" stroke="black" points="453,-171.5 453,-190.5 544,-190.5 544,-171.5 453,-171.5"/>
<text text-anchor="middle" x="498.5" y="-178.5" font-family="Helvetica,sans-Serif" font-size="10.00">Goban::isSuicide</text>
</a>
</g>
</g>
<!-- Node32&#45;&gt;Node40 -->
<g id="edge15" class="edge"><title>Node32&#45;&gt;Node40</title>
<path fill="none" stroke="midnightblue" d="M85.336,-215.123C174.128,-207.772 365.835,-191.9 452.882,-184.694"/>
<polygon fill="midnightblue" stroke="midnightblue" points="84.9631,-211.641 75.286,-215.955 85.5407,-218.617 84.9631,-211.641"/>
</g>
<!-- Node44 -->
<g id="node13" class="node"><title>Node44</title>
<g id="a_node13"><a xlink:href="class_goban.html#a7dd1a7b53322bde2a831a923059e43a3" target="_top" xlink:title="Goban::move">
<polygon fill="none" stroke="black" points="302,-361.5 302,-380.5 376,-380.5 376,-361.5 302,-361.5"/>
<text text-anchor="middle" x="339" y="-368.5" font-family="Helvetica,sans-Serif" font-size="10.00">Goban::move</text>
</a>
</g>
</g>
<!-- Node32&#45;&gt;Node44 -->
<g id="edge16" class="edge"><title>Node32&#45;&gt;Node44</title>
<path fill="none" stroke="midnightblue" d="M47.5828,-237.403C59.2475,-259.084 81.551,-294.602 111,-314 170.213,-353.004 254.174,-365.319 301.632,-369.207"/>
<polygon fill="midnightblue" stroke="midnightblue" points="50.6908,-235.794 42.9845,-228.523 44.4747,-239.013 50.6908,-235.794"/>
</g>
<!-- Node45 -->
<g id="node14" class="node"><title>Node45</title>
<g id="a_node14"><a xlink:href="class_goban.html#ae7ee3b39f3c0d28c9bca286ca538f8ac" target="_top" xlink:title="Goban::cancel">
<polygon fill="none" stroke="black" points="132,-437.5 132,-456.5 212,-456.5 212,-437.5 132,-437.5"/>
<text text-anchor="middle" x="172" y="-444.5" font-family="Helvetica,sans-Serif" font-size="10.00">Goban::cancel</text>
</a>
</g>
</g>
<!-- Node32&#45;&gt;Node45 -->
<g id="edge19" class="edge"><title>Node32&#45;&gt;Node45</title>
<path fill="none" stroke="midnightblue" d="M40.1584,-238.552C44.5484,-278.432 59.907,-369.873 111,-423 117.066,-429.307 125.005,-433.999 133.114,-437.474"/>
<polygon fill="midnightblue" stroke="midnightblue" points="43.6358,-238.149 39.1728,-228.54 36.6694,-238.834 43.6358,-238.149"/>
</g>
<!-- Node47 -->
<g id="node16" class="node"><title>Node47</title>
<g id="a_node16"><a xlink:href="_parser_8h.html#a0d953eb90c8a03cbbe46abaf3d8d96e9" target="_top" xlink:title="parseur">
<polygon fill="none" stroke="black" points="147.5,-114.5 147.5,-133.5 196.5,-133.5 196.5,-114.5 147.5,-114.5"/>
<text text-anchor="middle" x="172" y="-121.5" font-family="Helvetica,sans-Serif" font-size="10.00">parseur</text>
</a>
</g>
</g>
<!-- Node32&#45;&gt;Node47 -->
<g id="edge22" class="edge"><title>Node32&#45;&gt;Node47</title>
<path fill="none" stroke="midnightblue" d="M51.1836,-201.224C64.3243,-184.026 86.3638,-158.371 111,-143 122.031,-136.117 135.772,-131.528 147.319,-128.587"/>
<polygon fill="midnightblue" stroke="midnightblue" points="48.3044,-199.23 45.1564,-209.347 53.926,-203.401 48.3044,-199.23"/>
</g>
<!-- Node48 -->
<g id="node17" class="node"><title>Node48</title>
<g id="a_node17"><a xlink:href="class_board.html#a841a248dac4743611ba1825afd5d1297" target="_top" xlink:title="Board::load">
<polygon fill="none" stroke="black" points="139,-285.5 139,-304.5 205,-304.5 205,-285.5 139,-285.5"/>
<text text-anchor="middle" x="172" y="-292.5" font-family="Helvetica,sans-Serif" font-size="10.00">Board::load</text>
</a>
</g>
</g>
<!-- Node32&#45;&gt;Node48 -->
<g id="edge23" class="edge"><title>Node32&#45;&gt;Node48</title>
<path fill="none" stroke="midnightblue" d="M64.0494,-233.655C90.678,-248.929 131.629,-272.417 154.355,-285.453"/>
<polygon fill="midnightblue" stroke="midnightblue" points="65.697,-230.565 55.2812,-228.625 62.2142,-236.637 65.697,-230.565"/>
</g>
<!-- Node51 -->
<g id="node20" class="node"><title>Node51</title>
<g id="a_node20"><a xlink:href="_main_8cpp.html#a015a298e56541fc04e0b8a214322507f" target="_top" xlink:title="compressGoban">
<polygon fill="none" stroke="black" points="128,-38.5 128,-57.5 216,-57.5 216,-38.5 128,-38.5"/>
<text text-anchor="middle" x="172" y="-45.5" font-family="Helvetica,sans-Serif" font-size="10.00">compressGoban</text>
</a>
</g>
</g>
<!-- Node32&#45;&gt;Node51 -->
<g id="edge29" class="edge"><title>Node32&#45;&gt;Node51</title>
<path fill="none" stroke="midnightblue" d="M43.3083,-199.277C51.8472,-168.178 72.4918,-107.627 111,-72 117.753,-65.7524 126.336,-61.0447 134.883,-57.5315"/>
<polygon fill="midnightblue" stroke="midnightblue" points="39.8309,-198.742 40.6994,-209.302 46.6053,-200.506 39.8309,-198.742"/>
</g>
<!-- Node52 -->
<g id="node21" class="node"><title>Node52</title>
<g id="a_node21"><a xlink:href="_main_8cpp.html#ae1a3968e7947464bee7714f6d43b7002" target="_top" xlink:title="test">
<polygon fill="none" stroke="black" points="322.5,-38.5 322.5,-57.5 355.5,-57.5 355.5,-38.5 322.5,-38.5"/>
<text text-anchor="middle" x="339" y="-45.5" font-family="Helvetica,sans-Serif" font-size="10.00">test</text>
</a>
</g>
</g>
<!-- Node32&#45;&gt;Node52 -->
<g id="edge33" class="edge"><title>Node32&#45;&gt;Node52</title>
<path fill="none" stroke="midnightblue" d="M45.3932,-199.925C55.6492,-174.319 77.4016,-129.25 111,-105 128.545,-92.3369 274.041,-61.2863 322.423,-51.2125"/>
<polygon fill="midnightblue" stroke="midnightblue" points="42.1127,-198.705 41.8079,-209.296 48.6505,-201.207 42.1127,-198.705"/>
</g>
<!-- Node53 -->
<g id="node22" class="node"><title>Node53</title>
<g id="a_node22"><a xlink:href="_main_8cpp.html#abe2b758b8f0c5163537fb4f1ae2b3838" target="_top" xlink:title="uncompressGoban">
<polygon fill="none" stroke="black" points="123,-0.5 123,-19.5 221,-19.5 221,-0.5 123,-0.5"/>
<text text-anchor="middle" x="172" y="-7.5" font-family="Helvetica,sans-Serif" font-size="10.00">uncompressGoban</text>
</a>
</g>
</g>
<!-- Node32&#45;&gt;Node53 -->
<g id="edge31" class="edge"><title>Node32&#45;&gt;Node53</title>
<path fill="none" stroke="midnightblue" d="M40.5052,-198.659C45.3968,-160.038 61.436,-75.7766 111,-29 115.132,-25.1003 120.061,-22.0009 125.293,-19.5375"/>
<polygon fill="midnightblue" stroke="midnightblue" points="36.9717,-198.757 39.3202,-209.088 43.9269,-199.547 36.9717,-198.757"/>
</g>
<!-- Node33&#45;&gt;Node33 -->
<g id="edge2" class="edge"><title>Node33&#45;&gt;Node33</title>
<path fill="none" stroke="midnightblue" d="M606.447,-410.029C607.786,-415.128 615.97,-419 631,-419 654.461,-419 661.243,-409.565 651.345,-400.757"/>
<polygon fill="midnightblue" stroke="midnightblue" points="609.709,-411.31 610.655,-400.757 603.335,-408.416 609.709,-411.31"/>
</g>
<!-- Node33&#45;&gt;Node34 -->
<g id="edge3" class="edge"><title>Node33&#45;&gt;Node34</title>
<path fill="none" stroke="midnightblue" d="M684.242,-401.053C698.519,-403.801 713.943,-406.769 728.058,-409.485"/>
<polygon fill="midnightblue" stroke="midnightblue" points="684.566,-397.552 674.085,-399.099 683.243,-404.426 684.566,-397.552"/>
</g>
<!-- Node35 -->
<g id="node4" class="node"><title>Node35</title>
<g id="a_node4"><a xlink:href="class_game__window.html#aec21feecf4c72d73c13d82aa12df6930" target="_top" xlink:title="Game_window::Run">
<polygon fill="none" stroke="black" points="883,-378.5 883,-397.5 986,-397.5 986,-378.5 883,-378.5"/>
<text text-anchor="middle" x="934.5" y="-385.5" font-family="Helvetica,sans-Serif" font-size="10.00">Game_window::Run</text>
</a>
</g>
</g>
<!-- Node34&#45;&gt;Node35 -->
<g id="edge4" class="edge"><title>Node34&#45;&gt;Node35</title>
<path fill="none" stroke="midnightblue" d="M836.886,-407.448C853.129,-404.179 870.619,-400.658 886.195,-397.522"/>
<polygon fill="midnightblue" stroke="midnightblue" points="836.074,-404.041 826.962,-409.446 837.456,-410.904 836.074,-404.041"/>
</g>
<!-- Node38 -->
<g id="node7" class="node"><title>Node38</title>
<g id="a_node7"><a xlink:href="class_goban.html#a7858b815885e4af36f05f9d26182cb07" target="_top" xlink:title="Goban::eliminateOppGroups">
<polygon fill="none" stroke="black" points="269,-209.5 269,-228.5 409,-228.5 409,-209.5 269,-209.5"/>
<text text-anchor="middle" x="339" y="-216.5" font-family="Helvetica,sans-Serif" font-size="10.00">Goban::eliminateOppGroups</text>
</a>
</g>
</g>
<!-- Node37&#45;&gt;Node38 -->
<g id="edge7" class="edge"><title>Node37&#45;&gt;Node38</title>
<path fill="none" stroke="midnightblue" d="M243.24,-229.912C251.698,-228.938 260.331,-227.944 268.774,-226.971"/>
<polygon fill="midnightblue" stroke="midnightblue" points="242.569,-226.466 233.036,-231.087 243.37,-233.42 242.569,-226.466"/>
</g>
<!-- Node39 -->
<g id="node8" class="node"><title>Node39</title>
<g id="a_node8"><a xlink:href="class_goban.html#a799390f04139eec16f7bb8c79b381303" target="_top" xlink:title="Goban::legalEvenKO">
<polygon fill="none" stroke="black" points="445,-209.5 445,-228.5 552,-228.5 552,-209.5 445,-209.5"/>
<text text-anchor="middle" x="498.5" y="-216.5" font-family="Helvetica,sans-Serif" font-size="10.00">Goban::legalEvenKO</text>
</a>
</g>
</g>
<!-- Node38&#45;&gt;Node39 -->
<g id="edge8" class="edge"><title>Node38&#45;&gt;Node39</title>
<path fill="none" stroke="midnightblue" d="M419.17,-219C427.783,-219 436.389,-219 444.576,-219"/>
<polygon fill="midnightblue" stroke="midnightblue" points="419.082,-215.5 409.082,-219 419.082,-222.5 419.082,-215.5"/>
</g>
<!-- Node38&#45;&gt;Node40 -->
<g id="edge9" class="edge"><title>Node38&#45;&gt;Node40</title>
<path fill="none" stroke="midnightblue" d="M389.604,-207.032C411.675,-201.707 437.303,-195.524 458.042,-190.52"/>
<polygon fill="midnightblue" stroke="midnightblue" points="388.644,-203.663 379.744,-209.411 390.286,-210.468 388.644,-203.663"/>
</g>
<!-- Node41 -->
<g id="node10" class="node"><title>Node41</title>
<g id="a_node10"><a xlink:href="class_goban.html#a36ab256c9430e070b620052a0f13f051" target="_top" xlink:title="Goban::listFils">
<polygon fill="none" stroke="black" points="458.5,-361.5 458.5,-380.5 538.5,-380.5 538.5,-361.5 458.5,-361.5"/>
<text text-anchor="middle" x="498.5" y="-368.5" font-family="Helvetica,sans-Serif" font-size="10.00">Goban::listFils</text>
</a>
</g>
</g>
<!-- Node38&#45;&gt;Node41 -->
<g id="edge10" class="edge"><title>Node38&#45;&gt;Node41</title>
<path fill="none" stroke="midnightblue" d="M360.68,-234.923C374.707,-246 393.453,-261.353 409,-276 440.336,-305.523 474.177,-343.875 489.341,-361.447"/>
<polygon fill="midnightblue" stroke="midnightblue" points="362.66,-232.028 352.627,-228.623 358.347,-237.541 362.66,-232.028"/>
</g>
<!-- Node42 -->
<g id="node11" class="node"><title>Node42</title>
<g id="a_node11"><a xlink:href="class_board.html#a5fda73da080403d8a71a8593d581c350" target="_top" xlink:title="Board::click">
<polygon fill="none" stroke="black" points="464.5,-271.5 464.5,-290.5 532.5,-290.5 532.5,-271.5 464.5,-271.5"/>
<text text-anchor="middle" x="498.5" y="-278.5" font-family="Helvetica,sans-Serif" font-size="10.00">Board::click</text>
</a>
</g>
</g>
<!-- Node38&#45;&gt;Node42 -->
<g id="edge12" class="edge"><title>Node38&#45;&gt;Node42</title>
<path fill="none" stroke="midnightblue" d="M378.679,-231.913C388.612,-235.377 399.245,-239.215 409,-243 432.227,-252.013 458.397,-263.407 476.215,-271.357"/>
<polygon fill="midnightblue" stroke="midnightblue" points="379.633,-228.54 369.038,-228.59 377.352,-235.158 379.633,-228.54"/>
</g>
<!-- Node41&#45;&gt;Node33 -->
<g id="edge11" class="edge"><title>Node41&#45;&gt;Node33</title>
<path fill="none" stroke="midnightblue" d="M548.713,-378.542C561.542,-380.508 575.253,-382.61 587.69,-384.516"/>
<polygon fill="midnightblue" stroke="midnightblue" points="549.069,-375.056 538.654,-377.001 548.009,-381.975 549.069,-375.056"/>
</g>
<!-- Node43 -->
<g id="node12" class="node"><title>Node43</title>
<g id="a_node12"><a xlink:href="class_game__window.html#afa942088809bf10731bb31d0d37b878d" target="_top" xlink:title="Game_window::click">
<polygon fill="none" stroke="black" points="725.5,-347.5 725.5,-366.5 831.5,-366.5 831.5,-347.5 725.5,-347.5"/>
<text text-anchor="middle" x="778.5" y="-354.5" font-family="Helvetica,sans-Serif" font-size="10.00">Game_window::click</text>
</a>
</g>
</g>
<!-- Node42&#45;&gt;Node43 -->
<g id="edge13" class="edge"><title>Node42&#45;&gt;Node43</title>
<path fill="none" stroke="midnightblue" d="M542.549,-292.769C597.531,-307.8 691.628,-333.524 742.457,-347.42"/>
<polygon fill="midnightblue" stroke="midnightblue" points="543.326,-289.353 532.757,-290.092 541.48,-296.105 543.326,-289.353"/>
</g>
<!-- Node43&#45;&gt;Node35 -->
<g id="edge14" class="edge"><title>Node43&#45;&gt;Node35</title>
<path fill="none" stroke="midnightblue" d="M836.886,-368.552C853.129,-371.821 870.619,-375.342 886.195,-378.478"/>
<polygon fill="midnightblue" stroke="midnightblue" points="837.456,-365.096 826.962,-366.554 836.074,-371.959 837.456,-365.096"/>
</g>
<!-- Node44&#45;&gt;Node41 -->
<g id="edge17" class="edge"><title>Node44&#45;&gt;Node41</title>
<path fill="none" stroke="midnightblue" d="M386.286,-371C409.136,-371 436.406,-371 458.224,-371"/>
<polygon fill="midnightblue" stroke="midnightblue" points="386.134,-367.5 376.134,-371 386.134,-374.5 386.134,-367.5"/>
</g>
<!-- Node44&#45;&gt;Node42 -->
<g id="edge18" class="edge"><title>Node44&#45;&gt;Node42</title>
<path fill="none" stroke="midnightblue" d="M385.756,-361.236C393.72,-358.747 401.763,-355.698 409,-352 441.275,-335.508 472.874,-306.044 488.095,-290.776"/>
<polygon fill="midnightblue" stroke="midnightblue" points="384.782,-357.874 376.138,-364.002 386.716,-364.602 384.782,-357.874"/>
</g>
<!-- Node46 -->
<g id="node15" class="node"><title>Node46</title>
<g id="a_node15"><a xlink:href="class_board.html#ac7ec911a62371650afd340d1535a1742" target="_top" xlink:title="Board::cancel">
<polygon fill="none" stroke="black" points="300.5,-437.5 300.5,-456.5 377.5,-456.5 377.5,-437.5 300.5,-437.5"/>
<text text-anchor="middle" x="339" y="-444.5" font-family="Helvetica,sans-Serif" font-size="10.00">Board::cancel</text>
</a>
</g>
</g>
<!-- Node45&#45;&gt;Node46 -->
<g id="edge20" class="edge"><title>Node45&#45;&gt;Node46</title>
<path fill="none" stroke="midnightblue" d="M222.138,-447C247.171,-447 277.131,-447 300.314,-447"/>
<polygon fill="midnightblue" stroke="midnightblue" points="222.103,-443.5 212.103,-447 222.103,-450.5 222.103,-443.5"/>
</g>
<!-- Node46&#45;&gt;Node34 -->
<g id="edge21" class="edge"><title>Node46&#45;&gt;Node34</title>
<path fill="none" stroke="midnightblue" d="M387.908,-444.726C452.793,-441.543 572.206,-435.32 674,-428 685.604,-427.166 697.93,-426.18 709.879,-425.173"/>
<polygon fill="midnightblue" stroke="midnightblue" points="387.408,-441.246 377.591,-445.229 387.749,-448.238 387.408,-441.246"/>
</g>
<!-- Node48&#45;&gt;Node42 -->
<g id="edge24" class="edge"><title>Node48&#45;&gt;Node42</title>
<path fill="none" stroke="midnightblue" d="M215.185,-284.801C231.842,-281.261 251.217,-277.743 269,-276 330.926,-269.931 346.803,-274.244 409,-276 427.306,-276.517 447.716,-277.633 464.319,-278.681"/>
<polygon fill="midnightblue" stroke="midnightblue" points="214.221,-281.429 205.204,-286.992 215.722,-288.266 214.221,-281.429"/>
</g>
<!-- Node48&#45;&gt;Node46 -->
<g id="edge25" class="edge"><title>Node48&#45;&gt;Node46</title>
<path fill="none" stroke="midnightblue" d="M189.214,-311.941C207.958,-331.311 239.961,-363.734 269,-390 288.244,-407.407 311.744,-426.359 325.757,-437.434"/>
<polygon fill="midnightblue" stroke="midnightblue" points="191.723,-309.501 182.264,-304.728 186.682,-314.358 191.723,-309.501"/>
</g>
<!-- Node49 -->
<g id="node18" class="node"><title>Node49</title>
<g id="a_node18"><a xlink:href="class_board.html#a3cea4df16e41c21666cf51789b7e9e78" target="_top" xlink:title="Board::load">
<polygon fill="none" stroke="black" points="306,-323.5 306,-342.5 372,-342.5 372,-323.5 306,-323.5"/>
<text text-anchor="middle" x="339" y="-330.5" font-family="Helvetica,sans-Serif" font-size="10.00">Board::load</text>
</a>
</g>
</g>
<!-- Node48&#45;&gt;Node49 -->
<g id="edge26" class="edge"><title>Node48&#45;&gt;Node49</title>
<path fill="none" stroke="midnightblue" d="M215.193,-304.717C243.425,-311.219 280.005,-319.644 305.876,-325.602"/>
<polygon fill="midnightblue" stroke="midnightblue" points="215.736,-301.251 205.205,-302.417 214.165,-308.072 215.736,-301.251"/>
</g>
<!-- Node50 -->
<g id="node19" class="node"><title>Node50</title>
<g id="a_node19"><a xlink:href="class_game__window.html#a35801adc41e40f90a36cff6db14defcd" target="_top" xlink:title="Game_window::setGoban">
<polygon fill="none" stroke="black" points="275,-285.5 275,-304.5 403,-304.5 403,-285.5 275,-285.5"/>
<text text-anchor="middle" x="339" y="-292.5" font-family="Helvetica,sans-Serif" font-size="10.00">Game_window::setGoban</text>
</a>
</g>
</g>
<!-- Node48&#45;&gt;Node50 -->
<g id="edge27" class="edge"><title>Node48&#45;&gt;Node50</title>
<path fill="none" stroke="midnightblue" d="M215.412,-295C233.475,-295 254.925,-295 274.794,-295"/>
<polygon fill="midnightblue" stroke="midnightblue" points="215.205,-291.5 205.205,-295 215.205,-298.5 215.205,-291.5"/>
</g>
<!-- Node51&#45;&gt;Node52 -->
<g id="edge30" class="edge"><title>Node51&#45;&gt;Node52</title>
<path fill="none" stroke="midnightblue" d="M226.473,-48C259.935,-48 300.699,-48 322.491,-48"/>
<polygon fill="midnightblue" stroke="midnightblue" points="226.352,-44.5001 216.352,-48 226.352,-51.5001 226.352,-44.5001"/>
</g>
<!-- Node53&#45;&gt;Node52 -->
<g id="edge32" class="edge"><title>Node53&#45;&gt;Node52</title>
<path fill="none" stroke="midnightblue" d="M224.779,-21.9248C258.376,-29.6624 299.904,-39.2265 322.151,-44.3499"/>
<polygon fill="midnightblue" stroke="midnightblue" points="225.167,-18.4226 214.636,-19.589 223.596,-25.2441 225.167,-18.4226"/>
</g>
</g>
</svg>
