<?xml version="1.0" encoding="UTF-8" standalone="no"?>
<!DOCTYPE svg PUBLIC "-//W3C//DTD SVG 1.1//EN"
 "http://www.w3.org/Graphics/SVG/1.1/DTD/svg11.dtd">
<!-- Generated by graphviz version 2.38.0 (20140413.2041)
 -->
<!-- Title: Choice_Simple::setFont Pages: 1 -->
<svg width="549pt" height="180pt"
 viewBox="0.00 0.00 549.00 180.00" xmlns="http://www.w3.org/2000/svg" xmlns:xlink="http://www.w3.org/1999/xlink">
<g id="graph0" class="graph" transform="scale(1 1) rotate(0) translate(4 176)">
<title>Choice_Simple::setFont</title>
<!-- Node10 -->
<g id="node1" class="node"><title>Node10</title>
<polygon fill="#bfbfbf" stroke="black" points="0,-76.5 0,-95.5 121,-95.5 121,-76.5 0,-76.5"/>
<text text-anchor="middle" x="60.5" y="-83.5" font-family="Helvetica,sans-Serif" font-size="10.00">Choice_Simple::setFont</text>
</g>
<!-- Node11 -->
<g id="node2" class="node"><title>Node11</title>
<g id="a_node2"><a xlink:href="class_menu__simple.html#a0fc5b4ec10c844f34495364f70cd333e" target="_top" xlink:title="Menu_simple::addItem">
<polygon fill="none" stroke="black" points="157,-76.5 157,-95.5 272,-95.5 272,-76.5 157,-76.5"/>
<text text-anchor="middle" x="214.5" y="-83.5" font-family="Helvetica,sans-Serif" font-size="10.00">Menu_simple::addItem</text>
</a>
</g>
</g>
<!-- Node10&#45;&gt;Node11 -->
<g id="edge1" class="edge"><title>Node10&#45;&gt;Node11</title>
<path fill="none" stroke="midnightblue" d="M131.342,-86C139.772,-86 148.304,-86 156.519,-86"/>
<polygon fill="midnightblue" stroke="midnightblue" points="131.138,-82.5001 121.138,-86 131.138,-89.5001 131.138,-82.5001"/>
</g>
<!-- Node12 -->
<g id="node3" class="node"><title>Node12</title>
<g id="a_node3"><a xlink:href="_main_8cpp.html#ab2ff3dd66804b9f8e614cc3d8f62b851" target="_top" xlink:title="loadMenu1">
<polygon fill="none" stroke="black" points="308,-152.5 308,-171.5 372,-171.5 372,-152.5 308,-152.5"/>
<text text-anchor="middle" x="340" y="-159.5" font-family="Helvetica,sans-Serif" font-size="10.00">loadMenu1</text>
</a>
</g>
</g>
<!-- Node11&#45;&gt;Node12 -->
<g id="edge2" class="edge"><title>Node11&#45;&gt;Node12</title>
<path fill="none" stroke="midnightblue" d="M239.944,-101.085C258.586,-112.584 284.903,-128.806 308,-143 312.948,-146.041 318.343,-149.35 323.225,-152.342"/>
<polygon fill="midnightblue" stroke="midnightblue" points="241.553,-97.9654 231.205,-95.6936 237.878,-103.923 241.553,-97.9654"/>
</g>
<!-- Node15 -->
<g id="node6" class="node"><title>Node15</title>
<g id="a_node6"><a xlink:href="_main_8cpp.html#a1862c57029f25299b350b89a3fef7bac" target="_top" xlink:title="loadMenu3">
<polygon fill="none" stroke="black" points="308,-114.5 308,-133.5 372,-133.5 372,-114.5 308,-114.5"/>
<text text-anchor="middle" x="340" y="-121.5" font-family="Helvetica,sans-Serif" font-size="10.00">loadMenu3</text>
</a>
</g>
</g>
<!-- Node11&#45;&gt;Node15 -->
<g id="edge5" class="edge"><title>Node11&#45;&gt;Node15</title>
<path fill="none" stroke="midnightblue" d="M256.24,-98.5353C273.04,-103.705 292.197,-109.599 307.846,-114.414"/>
<polygon fill="midnightblue" stroke="midnightblue" points="257.251,-95.1847 246.664,-95.589 255.193,-101.875 257.251,-95.1847"/>
</g>
<!-- Node16 -->
<g id="node7" class="node"><title>Node16</title>
<g id="a_node7"><a xlink:href="_main_8cpp.html#a3153201e1f35afab1a2de7fa1dea810a" target="_top" xlink:title="loadMenu4">
<polygon fill="none" stroke="black" points="308,-76.5 308,-95.5 372,-95.5 372,-76.5 308,-76.5"/>
<text text-anchor="middle" x="340" y="-83.5" font-family="Helvetica,sans-Serif" font-size="10.00">loadMenu4</text>
</a>
</g>
</g>
<!-- Node11&#45;&gt;Node16 -->
<g id="edge7" class="edge"><title>Node11&#45;&gt;Node16</title>
<path fill="none" stroke="midnightblue" d="M282.301,-86C291.239,-86 300.035,-86 307.933,-86"/>
<polygon fill="midnightblue" stroke="midnightblue" points="282.19,-82.5001 272.19,-86 282.19,-89.5001 282.19,-82.5001"/>
</g>
<!-- Node17 -->
<g id="node8" class="node"><title>Node17</title>
<g id="a_node8"><a xlink:href="_main_8cpp.html#aee704d9ab9bae25e3fecbe7f6a106f7a" target="_top" xlink:title="loadMenu5">
<polygon fill="none" stroke="black" points="308,-38.5 308,-57.5 372,-57.5 372,-38.5 308,-38.5"/>
<text text-anchor="middle" x="340" y="-45.5" font-family="Helvetica,sans-Serif" font-size="10.00">loadMenu5</text>
</a>
</g>
</g>
<!-- Node11&#45;&gt;Node17 -->
<g id="edge9" class="edge"><title>Node11&#45;&gt;Node17</title>
<path fill="none" stroke="midnightblue" d="M256.24,-73.4647C273.04,-68.2952 292.197,-62.4009 307.846,-57.5859"/>
<polygon fill="midnightblue" stroke="midnightblue" points="255.193,-70.1248 246.664,-76.411 257.251,-76.8153 255.193,-70.1248"/>
</g>
<!-- Node18 -->
<g id="node9" class="node"><title>Node18</title>
<g id="a_node9"><a xlink:href="_main_8cpp.html#a0a424bcea43ed2e1fc6b5d516bafd12c" target="_top" xlink:title="loadMenu6">
<polygon fill="none" stroke="black" points="308,-0.5 308,-19.5 372,-19.5 372,-0.5 308,-0.5"/>
<text text-anchor="middle" x="340" y="-7.5" font-family="Helvetica,sans-Serif" font-size="10.00">loadMenu6</text>
</a>
</g>
</g>
<!-- Node11&#45;&gt;Node18 -->
<g id="edge11" class="edge"><title>Node11&#45;&gt;Node18</title>
<path fill="none" stroke="midnightblue" d="M239.944,-70.9151C258.586,-59.4161 284.903,-43.1944 308,-29 312.948,-25.9593 318.343,-22.6503 323.225,-19.6585"/>
<polygon fill="midnightblue" stroke="midnightblue" points="237.878,-68.0771 231.205,-76.3064 241.553,-74.0346 237.878,-68.0771"/>
</g>
<!-- Node13 -->
<g id="node4" class="node"><title>Node13</title>
<g id="a_node4"><a xlink:href="_main_8cpp.html#a38bed9713fcae949ee78e6bc604db8fe" target="_top" xlink:title="loadMenu">
<polygon fill="none" stroke="black" points="408,-76.5 408,-95.5 467,-95.5 467,-76.5 408,-76.5"/>
<text text-anchor="middle" x="437.5" y="-83.5" font-family="Helvetica,sans-Serif" font-size="10.00">loadMenu</text>
</a>
</g>
</g>
<!-- Node12&#45;&gt;Node13 -->
<g id="edge3" class="edge"><title>Node12&#45;&gt;Node13</title>
<path fill="none" stroke="midnightblue" d="M366.326,-146.988C368.273,-145.68 370.186,-144.342 372,-143 392.425,-127.894 414.166,-107.715 426.469,-95.8617"/>
<polygon fill="midnightblue" stroke="midnightblue" points="364.303,-144.127 357.759,-152.459 368.071,-150.027 364.303,-144.127"/>
</g>
<!-- Node14 -->
<g id="node5" class="node"><title>Node14</title>
<g id="a_node5"><a xlink:href="_main_8cpp.html#ae66f6b31b5ad750f1fe042a706a4e3d4" target="_top" xlink:title="main">
<polygon fill="none" stroke="black" points="503,-76.5 503,-95.5 541,-95.5 541,-76.5 503,-76.5"/>
<text text-anchor="middle" x="522" y="-83.5" font-family="Helvetica,sans-Serif" font-size="10.00">main</text>
</a>
</g>
</g>
<!-- Node13&#45;&gt;Node14 -->
<g id="edge4" class="edge"><title>Node13&#45;&gt;Node14</title>
<path fill="none" stroke="midnightblue" d="M477.488,-86C486.254,-86 495.158,-86 502.607,-86"/>
<polygon fill="midnightblue" stroke="midnightblue" points="477.355,-82.5001 467.354,-86 477.354,-89.5001 477.355,-82.5001"/>
</g>
<!-- Node15&#45;&gt;Node13 -->
<g id="edge6" class="edge"><title>Node15&#45;&gt;Node13</title>
<path fill="none" stroke="midnightblue" d="M374.705,-110.589C387.148,-105.638 400.987,-100.131 412.409,-95.5859"/>
<polygon fill="midnightblue" stroke="midnightblue" points="373.096,-107.462 365.099,-114.411 375.684,-113.966 373.096,-107.462"/>
</g>
<!-- Node16&#45;&gt;Node13 -->
<g id="edge8" class="edge"><title>Node16&#45;&gt;Node13</title>
<path fill="none" stroke="midnightblue" d="M382.032,-86C390.752,-86 399.778,-86 407.914,-86"/>
<polygon fill="midnightblue" stroke="midnightblue" points="382.006,-82.5001 372.006,-86 382.006,-89.5001 382.006,-82.5001"/>
</g>
<!-- Node17&#45;&gt;Node13 -->
<g id="edge10" class="edge"><title>Node17&#45;&gt;Node13</title>
<path fill="none" stroke="midnightblue" d="M374.705,-61.4114C387.148,-66.3624 400.987,-71.8691 412.409,-76.4141"/>
<polygon fill="midnightblue" stroke="midnightblue" points="375.684,-58.0342 365.099,-57.589 373.096,-64.5382 375.684,-58.0342"/>
</g>
<!-- Node18&#45;&gt;Node13 -->
<g id="edge12" class="edge"><title>Node18&#45;&gt;Node13</title>
<path fill="none" stroke="midnightblue" d="M366.326,-25.0121C368.273,-26.3205 370.186,-27.6581 372,-29 392.425,-44.1063 414.166,-64.2853 426.469,-76.1383"/>
<polygon fill="midnightblue" stroke="midnightblue" points="368.071,-21.9733 357.759,-19.5406 364.303,-27.8729 368.071,-21.9733"/>
</g>
</g>
</svg>
