<?xml version="1.0" encoding="UTF-8" standalone="no"?>
<!DOCTYPE svg PUBLIC "-//W3C//DTD SVG 1.1//EN"
 "http://www.w3.org/Graphics/SVG/1.1/DTD/svg11.dtd">
<!-- Generated by graphviz version 2.38.0 (20140413.2041)
 -->
<!-- Title: Infos::Infos Pages: 1 -->
<svg width="196pt" height="66pt"
 viewBox="0.00 0.00 196.00 66.00" xmlns="http://www.w3.org/2000/svg" xmlns:xlink="http://www.w3.org/1999/xlink">
<g id="graph0" class="graph" transform="scale(1 1) rotate(0) translate(4 62)">
<title>Infos::Infos</title>
<!-- Node0 -->
<g id="node1" class="node"><title>Node0</title>
<polygon fill="#bfbfbf" stroke="black" points="0,-19.5 0,-38.5 63,-38.5 63,-19.5 0,-19.5"/>
<text text-anchor="middle" x="31.5" y="-26.5" font-family="Helvetica,sans-Serif" font-size="10.00">Infos::Infos</text>
</g>
<!-- Node1 -->
<g id="node2" class="node"><title>Node1</title>
<g id="a_node2"><a xlink:href="class_timer.html#aac2ddf298c3916e8839e827b387e6973" target="_top" xlink:title="Timer::initFont">
<polygon fill="none" stroke="black" points="104,-38.5 104,-57.5 183,-57.5 183,-38.5 104,-38.5"/>
<text text-anchor="middle" x="143.5" y="-45.5" font-family="Helvetica,sans-Serif" font-size="10.00">Timer::initFont</text>
</a>
</g>
</g>
<!-- Node0&#45;&gt;Node1 -->
<g id="edge1" class="edge"><title>Node0&#45;&gt;Node1</title>
<path fill="none" stroke="midnightblue" d="M63.1411,-34.2926C72.6797,-35.9401 83.4432,-37.7993 93.8944,-39.6045"/>
<polygon fill="midnightblue" stroke="midnightblue" points="93.319,-43.0569 103.769,-41.3101 94.5105,-36.159 93.319,-43.0569"/>
</g>
<!-- Node2 -->
<g id="node3" class="node"><title>Node2</title>
<g id="a_node3"><a xlink:href="class_timer.html#a735fb44ab37e1fa12679d5ab291c488d" target="_top" xlink:title="Timer::applyFont">
<polygon fill="none" stroke="black" points="99,-0.5 99,-19.5 188,-19.5 188,-0.5 99,-0.5"/>
<text text-anchor="middle" x="143.5" y="-7.5" font-family="Helvetica,sans-Serif" font-size="10.00">Timer::applyFont</text>
</a>
</g>
</g>
<!-- Node0&#45;&gt;Node2 -->
<g id="edge2" class="edge"><title>Node0&#45;&gt;Node2</title>
<path fill="none" stroke="midnightblue" d="M63.1411,-23.7074C71.1778,-22.3193 80.0841,-20.7809 88.9405,-19.2512"/>
<polygon fill="midnightblue" stroke="midnightblue" points="89.6112,-22.6872 98.8696,-17.5362 88.4197,-15.7894 89.6112,-22.6872"/>
</g>
</g>
</svg>
