<?xml version="1.0" encoding="UTF-8" standalone="no"?>
<!DOCTYPE svg PUBLIC "-//W3C//DTD SVG 1.1//EN"
 "http://www.w3.org/Graphics/SVG/1.1/DTD/svg11.dtd">
<!-- Generated by graphviz version 2.38.0 (20140413.2041)
 -->
<!-- Title: History::add Pages: 1 -->
<svg width="737pt" height="84pt"
 viewBox="0.00 0.00 737.00 84.00" xmlns="http://www.w3.org/2000/svg" xmlns:xlink="http://www.w3.org/1999/xlink">
<g id="graph0" class="graph" transform="scale(1 1) rotate(0) translate(4 80)">
<title>History::add</title>
<!-- Node5 -->
<g id="node1" class="node"><title>Node5</title>
<polygon fill="#bfbfbf" stroke="black" points="0,-19.5 0,-38.5 69,-38.5 69,-19.5 0,-19.5"/>
<text text-anchor="middle" x="34.5" y="-26.5" font-family="Helvetica,sans-Serif" font-size="10.00">History::add</text>
</g>
<!-- Node6 -->
<g id="node2" class="node"><title>Node6</title>
<g id="a_node2"><a xlink:href="class_goban.html#a7dd1a7b53322bde2a831a923059e43a3" target="_top" xlink:title="Goban::move">
<polygon fill="none" stroke="black" points="105,-19.5 105,-38.5 179,-38.5 179,-19.5 105,-19.5"/>
<text text-anchor="middle" x="142" y="-26.5" font-family="Helvetica,sans-Serif" font-size="10.00">Goban::move</text>
</a>
</g>
</g>
<!-- Node5&#45;&gt;Node6 -->
<g id="edge1" class="edge"><title>Node5&#45;&gt;Node6</title>
<path fill="none" stroke="midnightblue" d="M79.2819,-29C87.7502,-29 96.5362,-29 104.732,-29"/>
<polygon fill="midnightblue" stroke="midnightblue" points="79.171,-25.5001 69.1709,-29 79.1709,-32.5001 79.171,-25.5001"/>
</g>
<!-- Node7 -->
<g id="node3" class="node"><title>Node7</title>
<g id="a_node3"><a xlink:href="class_goban.html#a36ab256c9430e070b620052a0f13f051" target="_top" xlink:title="Goban::listFils">
<polygon fill="none" stroke="black" points="215,-38.5 215,-57.5 295,-57.5 295,-38.5 215,-38.5"/>
<text text-anchor="middle" x="255" y="-45.5" font-family="Helvetica,sans-Serif" font-size="10.00">Goban::listFils</text>
</a>
</g>
</g>
<!-- Node6&#45;&gt;Node7 -->
<g id="edge2" class="edge"><title>Node6&#45;&gt;Node7</title>
<path fill="none" stroke="midnightblue" d="M188.899,-36.8566C197.465,-38.3229 206.347,-39.8431 214.692,-41.2716"/>
<polygon fill="midnightblue" stroke="midnightblue" points="189.486,-33.4062 179.039,-35.1688 188.305,-40.3058 189.486,-33.4062"/>
</g>
<!-- Node11 -->
<g id="node7" class="node"><title>Node11</title>
<g id="a_node7"><a xlink:href="class_board.html#a5fda73da080403d8a71a8593d581c350" target="_top" xlink:title="Board::click">
<polygon fill="none" stroke="black" points="340,-0.5 340,-19.5 408,-19.5 408,-0.5 340,-0.5"/>
<text text-anchor="middle" x="374" y="-7.5" font-family="Helvetica,sans-Serif" font-size="10.00">Board::click</text>
</a>
</g>
</g>
<!-- Node6&#45;&gt;Node11 -->
<g id="edge7" class="edge"><title>Node6&#45;&gt;Node11</title>
<path fill="none" stroke="midnightblue" d="M189.177,-25.1854C233.707,-21.5068 300.015,-16.0292 339.635,-12.7563"/>
<polygon fill="midnightblue" stroke="midnightblue" points="188.868,-21.6989 179.191,-26.0103 189.445,-28.6751 188.868,-21.6989"/>
</g>
<!-- Node8 -->
<g id="node4" class="node"><title>Node8</title>
<g id="a_node4"><a xlink:href="class_arbre.html#acd12cae4820bb7780a628716a0615d10" target="_top" xlink:title="Arbre::Tsumego">
<polygon fill="none" stroke="black" points="331,-38.5 331,-57.5 417,-57.5 417,-38.5 331,-38.5"/>
<text text-anchor="middle" x="374" y="-45.5" font-family="Helvetica,sans-Serif" font-size="10.00">Arbre::Tsumego</text>
</a>
</g>
</g>
<!-- Node7&#45;&gt;Node8 -->
<g id="edge3" class="edge"><title>Node7&#45;&gt;Node8</title>
<path fill="none" stroke="midnightblue" d="M305.413,-48C313.862,-48 322.57,-48 330.809,-48"/>
<polygon fill="midnightblue" stroke="midnightblue" points="305.285,-44.5001 295.285,-48 305.285,-51.5001 305.285,-44.5001"/>
</g>
<!-- Node8&#45;&gt;Node8 -->
<g id="edge4" class="edge"><title>Node8&#45;&gt;Node8</title>
<path fill="none" stroke="midnightblue" d="M352.051,-67.0292C353.248,-72.128 360.564,-76 374,-76 394.973,-76 401.035,-66.5653 392.187,-57.7571"/>
<polygon fill="midnightblue" stroke="midnightblue" points="355.296,-68.3393 355.813,-57.7571 348.81,-65.7074 355.296,-68.3393"/>
</g>
<!-- Node9 -->
<g id="node5" class="node"><title>Node9</title>
<g id="a_node5"><a xlink:href="class_game__window.html#a72304de2044c29f1373037bd818f674f" target="_top" xlink:title="Game_window::keyPressed">
<polygon fill="none" stroke="black" points="453,-38.5 453,-57.5 590,-57.5 590,-38.5 453,-38.5"/>
<text text-anchor="middle" x="521.5" y="-45.5" font-family="Helvetica,sans-Serif" font-size="10.00">Game_window::keyPressed</text>
</a>
</g>
</g>
<!-- Node8&#45;&gt;Node9 -->
<g id="edge5" class="edge"><title>Node8&#45;&gt;Node9</title>
<path fill="none" stroke="midnightblue" d="M427.302,-48C435.559,-48 444.197,-48 452.744,-48"/>
<polygon fill="midnightblue" stroke="midnightblue" points="427.085,-44.5001 417.085,-48 427.085,-51.5001 427.085,-44.5001"/>
</g>
<!-- Node10 -->
<g id="node6" class="node"><title>Node10</title>
<g id="a_node6"><a xlink:href="class_game__window.html#aec21feecf4c72d73c13d82aa12df6930" target="_top" xlink:title="Game_window::Run">
<polygon fill="none" stroke="black" points="626,-19.5 626,-38.5 729,-38.5 729,-19.5 626,-19.5"/>
<text text-anchor="middle" x="677.5" y="-26.5" font-family="Helvetica,sans-Serif" font-size="10.00">Game_window::Run</text>
</a>
</g>
</g>
<!-- Node9&#45;&gt;Node10 -->
<g id="edge6" class="edge"><title>Node9&#45;&gt;Node10</title>
<path fill="none" stroke="midnightblue" d="M600.186,-38.4154C608.84,-37.3476 617.484,-36.2812 625.678,-35.2703"/>
<polygon fill="midnightblue" stroke="midnightblue" points="599.543,-34.9681 590.047,-39.6663 600.4,-41.9154 599.543,-34.9681"/>
</g>
<!-- Node12 -->
<g id="node8" class="node"><title>Node12</title>
<g id="a_node8"><a xlink:href="class_game__window.html#afa942088809bf10731bb31d0d37b878d" target="_top" xlink:title="Game_window::click">
<polygon fill="none" stroke="black" points="468.5,-0.5 468.5,-19.5 574.5,-19.5 574.5,-0.5 468.5,-0.5"/>
<text text-anchor="middle" x="521.5" y="-7.5" font-family="Helvetica,sans-Serif" font-size="10.00">Game_window::click</text>
</a>
</g>
</g>
<!-- Node11&#45;&gt;Node12 -->
<g id="edge8" class="edge"><title>Node11&#45;&gt;Node12</title>
<path fill="none" stroke="midnightblue" d="M418.049,-10C433.875,-10 451.963,-10 468.493,-10"/>
<polygon fill="midnightblue" stroke="midnightblue" points="418.016,-6.5001 408.016,-10 418.016,-13.5001 418.016,-6.5001"/>
</g>
<!-- Node12&#45;&gt;Node10 -->
<g id="edge9" class="edge"><title>Node12&#45;&gt;Node10</title>
<path fill="none" stroke="midnightblue" d="M584.924,-17.7016C598.576,-19.386 612.862,-21.1486 625.981,-22.7672"/>
<polygon fill="midnightblue" stroke="midnightblue" points="584.991,-14.1834 574.637,-16.4325 584.134,-21.1308 584.991,-14.1834"/>
</g>
</g>
</svg>
