<?xml version="1.0" encoding="UTF-8" standalone="no"?>
<!DOCTYPE svg PUBLIC "-//W3C//DTD SVG 1.1//EN"
 "http://www.w3.org/Graphics/SVG/1.1/DTD/svg11.dtd">
<!-- Generated by graphviz version 2.38.0 (20140413.2041)
 -->
<!-- Title: Game_window Pages: 1 -->
<svg width="109pt" height="364pt"
 viewBox="0.00 0.00 109.00 364.00" xmlns="http://www.w3.org/2000/svg" xmlns:xlink="http://www.w3.org/1999/xlink">
<g id="graph0" class="graph" transform="scale(1 1) rotate(0) translate(4 360)">
<title>Game_window</title>
<!-- Node0 -->
<g id="node1" class="node"><title>Node0</title>
<polygon fill="#bfbfbf" stroke="black" points="0,-0.5 0,-156.5 101,-156.5 101,-0.5 0,-0.5"/>
<text text-anchor="middle" x="50.5" y="-144.5" font-family="Helvetica,sans-Serif" font-size="10.00">Game_window</text>
<polyline fill="none" stroke="black" points="0,-137.5 101,-137.5 "/>
<text text-anchor="middle" x="50.5" y="-125.5" font-family="Helvetica,sans-Serif" font-size="10.00"> </text>
<polyline fill="none" stroke="black" points="0,-118.5 101,-118.5 "/>
<text text-anchor="start" x="8" y="-106.5" font-family="Helvetica,sans-Serif" font-size="10.00">+ Game_window()</text>
<text text-anchor="start" x="8" y="-95.5" font-family="Helvetica,sans-Serif" font-size="10.00">+ ~Game_window()</text>
<text text-anchor="start" x="8" y="-84.5" font-family="Helvetica,sans-Serif" font-size="10.00">+ draw()</text>
<text text-anchor="start" x="8" y="-73.5" font-family="Helvetica,sans-Serif" font-size="10.00">+ Run()</text>
<text text-anchor="start" x="8" y="-62.5" font-family="Helvetica,sans-Serif" font-size="10.00">+ click()</text>
<text text-anchor="start" x="8" y="-51.5" font-family="Helvetica,sans-Serif" font-size="10.00">+ zoom()</text>
<text text-anchor="start" x="8" y="-40.5" font-family="Helvetica,sans-Serif" font-size="10.00">+ keyPressed()</text>
<text text-anchor="start" x="8" y="-29.5" font-family="Helvetica,sans-Serif" font-size="10.00">+ setGoban()</text>
<text text-anchor="start" x="8" y="-18.5" font-family="Helvetica,sans-Serif" font-size="10.00">+ setView()</text>
<text text-anchor="start" x="8" y="-7.5" font-family="Helvetica,sans-Serif" font-size="10.00">+ territoire()</text>
</g>
<!-- Node1 -->
<g id="node2" class="node"><title>Node1</title>
<g id="a_node2"><a xlink:href="class_screen.html" target="_top" xlink:title="{Screen\n||+ Run()\l+ draw()\l}">
<polygon fill="none" stroke="black" points="24.5,-193.5 24.5,-261.5 76.5,-261.5 76.5,-193.5 24.5,-193.5"/>
<text text-anchor="middle" x="50.5" y="-249.5" font-family="Helvetica,sans-Serif" font-size="10.00">Screen</text>
<polyline fill="none" stroke="black" points="24.5,-242.5 76.5,-242.5 "/>
<text text-anchor="middle" x="50.5" y="-230.5" font-family="Helvetica,sans-Serif" font-size="10.00"> </text>
<polyline fill="none" stroke="black" points="24.5,-223.5 76.5,-223.5 "/>
<text text-anchor="start" x="32.5" y="-211.5" font-family="Helvetica,sans-Serif" font-size="10.00">+ Run()</text>
<text text-anchor="start" x="32.5" y="-200.5" font-family="Helvetica,sans-Serif" font-size="10.00">+ draw()</text>
</a>
</g>
</g>
<!-- Node1&#45;&gt;Node0 -->
<g id="edge1" class="edge"><title>Node1&#45;&gt;Node0</title>
<path fill="none" stroke="midnightblue" d="M50.5,-183C50.5,-174.7 50.5,-165.784 50.5,-156.792"/>
<polygon fill="none" stroke="midnightblue" points="47.0001,-183.143 50.5,-193.143 54.0001,-183.143 47.0001,-183.143"/>
</g>
<!-- Node2 -->
<g id="node3" class="node"><title>Node2</title>
<polygon fill="none" stroke="#bfbfbf" points="22.5,-298.5 22.5,-355.5 78.5,-355.5 78.5,-298.5 22.5,-298.5"/>
<text text-anchor="middle" x="50.5" y="-343.5" font-family="Helvetica,sans-Serif" font-size="10.00">Drawable</text>
<polyline fill="none" stroke="#bfbfbf" points="22.5,-336.5 78.5,-336.5 "/>
<text text-anchor="middle" x="50.5" y="-324.5" font-family="Helvetica,sans-Serif" font-size="10.00"> </text>
<polyline fill="none" stroke="#bfbfbf" points="22.5,-317.5 78.5,-317.5 "/>
<text text-anchor="middle" x="50.5" y="-305.5" font-family="Helvetica,sans-Serif" font-size="10.00"> </text>
</g>
<!-- Node2&#45;&gt;Node1 -->
<g id="edge2" class="edge"><title>Node2&#45;&gt;Node1</title>
<path fill="none" stroke="midnightblue" d="M50.5,-288.063C50.5,-279.393 50.5,-270.243 50.5,-261.786"/>
<polygon fill="none" stroke="midnightblue" points="47.0001,-288.321 50.5,-298.321 54.0001,-288.321 47.0001,-288.321"/>
</g>
</g>
</svg>
