<?xml version="1.0" encoding="UTF-8" standalone="no"?>
<!DOCTYPE svg PUBLIC "-//W3C//DTD SVG 1.1//EN"
 "http://www.w3.org/Graphics/SVG/1.1/DTD/svg11.dtd">
<!-- Generated by graphviz version 2.38.0 (20140413.2041)
 -->
<!-- Title: Infos::setCurPlayer Pages: 1 -->
<svg width="216pt" height="66pt"
 viewBox="0.00 0.00 216.00 66.00" xmlns="http://www.w3.org/2000/svg" xmlns:xlink="http://www.w3.org/1999/xlink">
<g id="graph0" class="graph" transform="scale(1 1) rotate(0) translate(4 62)">
<title>Infos::setCurPlayer</title>
<!-- Node11 -->
<g id="node1" class="node"><title>Node11</title>
<polygon fill="#bfbfbf" stroke="black" points="0,-19.5 0,-38.5 99,-38.5 99,-19.5 0,-19.5"/>
<text text-anchor="middle" x="49.5" y="-26.5" font-family="Helvetica,sans-Serif" font-size="10.00">Infos::setCurPlayer</text>
</g>
<!-- Node12 -->
<g id="node2" class="node"><title>Node12</title>
<g id="a_node2"><a xlink:href="class_timer.html#a0289effad7b573c508bc27e405900a23" target="_top" xlink:title="Timer::pause">
<polygon fill="none" stroke="black" points="135,-38.5 135,-57.5 208,-57.5 208,-38.5 135,-38.5"/>
<text text-anchor="middle" x="171.5" y="-45.5" font-family="Helvetica,sans-Serif" font-size="10.00">Timer::pause</text>
</a>
</g>
</g>
<!-- Node11&#45;&gt;Node12 -->
<g id="edge1" class="edge"><title>Node11&#45;&gt;Node12</title>
<path fill="none" stroke="midnightblue" d="M99.3086,-36.728C107.797,-38.072 116.595,-39.465 124.99,-40.7943"/>
<polygon fill="midnightblue" stroke="midnightblue" points="124.559,-44.2695 134.983,-42.3765 125.654,-37.3556 124.559,-44.2695"/>
</g>
<!-- Node13 -->
<g id="node3" class="node"><title>Node13</title>
<g id="a_node3"><a xlink:href="class_timer.html#a84acbe09a8dddae46c997c57a70c5076" target="_top" xlink:title="Timer::play">
<polygon fill="none" stroke="black" points="139,-0.5 139,-19.5 204,-19.5 204,-0.5 139,-0.5"/>
<text text-anchor="middle" x="171.5" y="-7.5" font-family="Helvetica,sans-Serif" font-size="10.00">Timer::play</text>
</a>
</g>
</g>
<!-- Node11&#45;&gt;Node13 -->
<g id="edge2" class="edge"><title>Node11&#45;&gt;Node13</title>
<path fill="none" stroke="midnightblue" d="M99.3086,-21.272C109.125,-19.7177 119.356,-18.0979 128.899,-16.5869"/>
<polygon fill="midnightblue" stroke="midnightblue" points="129.603,-20.0191 138.932,-14.9982 128.508,-13.1052 129.603,-20.0191"/>
</g>
</g>
</svg>
