<?xml version="1.0" encoding="UTF-8" standalone="no"?>
<!DOCTYPE svg PUBLIC "-//W3C//DTD SVG 1.1//EN"
 "http://www.w3.org/Graphics/SVG/1.1/DTD/svg11.dtd">
<!-- Generated by graphviz version 2.38.0 (20140413.2041)
 -->
<!-- Title: Goban::move Pages: 1 -->
<svg width="632pt" height="84pt"
 viewBox="0.00 0.00 632.00 84.00" xmlns="http://www.w3.org/2000/svg" xmlns:xlink="http://www.w3.org/1999/xlink">
<g id="graph0" class="graph" transform="scale(1 1) rotate(0) translate(4 80)">
<title>Goban::move</title>
<!-- Node230 -->
<g id="node1" class="node"><title>Node230</title>
<polygon fill="#bfbfbf" stroke="black" points="0,-19.5 0,-38.5 74,-38.5 74,-19.5 0,-19.5"/>
<text text-anchor="middle" x="37" y="-26.5" font-family="Helvetica,sans-Serif" font-size="10.00">Goban::move</text>
</g>
<!-- Node231 -->
<g id="node2" class="node"><title>Node231</title>
<g id="a_node2"><a xlink:href="class_goban.html#a36ab256c9430e070b620052a0f13f051" target="_top" xlink:title="Goban::listFils">
<polygon fill="none" stroke="black" points="110,-38.5 110,-57.5 190,-57.5 190,-38.5 110,-38.5"/>
<text text-anchor="middle" x="150" y="-45.5" font-family="Helvetica,sans-Serif" font-size="10.00">Goban::listFils</text>
</a>
</g>
</g>
<!-- Node230&#45;&gt;Node231 -->
<g id="edge1" class="edge"><title>Node230&#45;&gt;Node231</title>
<path fill="none" stroke="midnightblue" d="M83.8991,-36.8566C92.4655,-38.3229 101.347,-39.8431 109.692,-41.2716"/>
<polygon fill="midnightblue" stroke="midnightblue" points="84.4857,-33.4062 74.0385,-35.1688 83.3046,-40.3058 84.4857,-33.4062"/>
</g>
<!-- Node235 -->
<g id="node6" class="node"><title>Node235</title>
<g id="a_node6"><a xlink:href="class_board.html#a5fda73da080403d8a71a8593d581c350" target="_top" xlink:title="Board::click">
<polygon fill="none" stroke="black" points="235,-0.5 235,-19.5 303,-19.5 303,-0.5 235,-0.5"/>
<text text-anchor="middle" x="269" y="-7.5" font-family="Helvetica,sans-Serif" font-size="10.00">Board::click</text>
</a>
</g>
</g>
<!-- Node230&#45;&gt;Node235 -->
<g id="edge6" class="edge"><title>Node230&#45;&gt;Node235</title>
<path fill="none" stroke="midnightblue" d="M84.1771,-25.1854C128.707,-21.5068 195.015,-16.0292 234.635,-12.7563"/>
<polygon fill="midnightblue" stroke="midnightblue" points="83.8684,-21.6989 74.1905,-26.0103 84.4447,-28.6751 83.8684,-21.6989"/>
</g>
<!-- Node232 -->
<g id="node3" class="node"><title>Node232</title>
<g id="a_node3"><a xlink:href="class_arbre.html#acd12cae4820bb7780a628716a0615d10" target="_top" xlink:title="Arbre::Tsumego">
<polygon fill="none" stroke="black" points="226,-38.5 226,-57.5 312,-57.5 312,-38.5 226,-38.5"/>
<text text-anchor="middle" x="269" y="-45.5" font-family="Helvetica,sans-Serif" font-size="10.00">Arbre::Tsumego</text>
</a>
</g>
</g>
<!-- Node231&#45;&gt;Node232 -->
<g id="edge2" class="edge"><title>Node231&#45;&gt;Node232</title>
<path fill="none" stroke="midnightblue" d="M200.413,-48C208.862,-48 217.57,-48 225.809,-48"/>
<polygon fill="midnightblue" stroke="midnightblue" points="200.285,-44.5001 190.285,-48 200.285,-51.5001 200.285,-44.5001"/>
</g>
<!-- Node232&#45;&gt;Node232 -->
<g id="edge3" class="edge"><title>Node232&#45;&gt;Node232</title>
<path fill="none" stroke="midnightblue" d="M247.051,-67.0292C248.248,-72.128 255.564,-76 269,-76 289.973,-76 296.035,-66.5653 287.187,-57.7571"/>
<polygon fill="midnightblue" stroke="midnightblue" points="250.296,-68.3393 250.813,-57.7571 243.81,-65.7074 250.296,-68.3393"/>
</g>
<!-- Node233 -->
<g id="node4" class="node"><title>Node233</title>
<g id="a_node4"><a xlink:href="class_game__window.html#a72304de2044c29f1373037bd818f674f" target="_top" xlink:title="Game_window::keyPressed">
<polygon fill="none" stroke="black" points="348,-38.5 348,-57.5 485,-57.5 485,-38.5 348,-38.5"/>
<text text-anchor="middle" x="416.5" y="-45.5" font-family="Helvetica,sans-Serif" font-size="10.00">Game_window::keyPressed</text>
</a>
</g>
</g>
<!-- Node232&#45;&gt;Node233 -->
<g id="edge4" class="edge"><title>Node232&#45;&gt;Node233</title>
<path fill="none" stroke="midnightblue" d="M322.302,-48C330.559,-48 339.197,-48 347.744,-48"/>
<polygon fill="midnightblue" stroke="midnightblue" points="322.085,-44.5001 312.085,-48 322.085,-51.5001 322.085,-44.5001"/>
</g>
<!-- Node234 -->
<g id="node5" class="node"><title>Node234</title>
<g id="a_node5"><a xlink:href="class_game__window.html#aec21feecf4c72d73c13d82aa12df6930" target="_top" xlink:title="Game_window::Run">
<polygon fill="none" stroke="black" points="521,-19.5 521,-38.5 624,-38.5 624,-19.5 521,-19.5"/>
<text text-anchor="middle" x="572.5" y="-26.5" font-family="Helvetica,sans-Serif" font-size="10.00">Game_window::Run</text>
</a>
</g>
</g>
<!-- Node233&#45;&gt;Node234 -->
<g id="edge5" class="edge"><title>Node233&#45;&gt;Node234</title>
<path fill="none" stroke="midnightblue" d="M495.186,-38.4154C503.84,-37.3476 512.484,-36.2812 520.678,-35.2703"/>
<polygon fill="midnightblue" stroke="midnightblue" points="494.543,-34.9681 485.047,-39.6663 495.4,-41.9154 494.543,-34.9681"/>
</g>
<!-- Node236 -->
<g id="node7" class="node"><title>Node236</title>
<g id="a_node7"><a xlink:href="class_game__window.html#afa942088809bf10731bb31d0d37b878d" target="_top" xlink:title="Game_window::click">
<polygon fill="none" stroke="black" points="363.5,-0.5 363.5,-19.5 469.5,-19.5 469.5,-0.5 363.5,-0.5"/>
<text text-anchor="middle" x="416.5" y="-7.5" font-family="Helvetica,sans-Serif" font-size="10.00">Game_window::click</text>
</a>
</g>
</g>
<!-- Node235&#45;&gt;Node236 -->
<g id="edge7" class="edge"><title>Node235&#45;&gt;Node236</title>
<path fill="none" stroke="midnightblue" d="M313.049,-10C328.875,-10 346.963,-10 363.493,-10"/>
<polygon fill="midnightblue" stroke="midnightblue" points="313.016,-6.5001 303.016,-10 313.016,-13.5001 313.016,-6.5001"/>
</g>
<!-- Node236&#45;&gt;Node234 -->
<g id="edge8" class="edge"><title>Node236&#45;&gt;Node234</title>
<path fill="none" stroke="midnightblue" d="M479.924,-17.7016C493.576,-19.386 507.862,-21.1486 520.981,-22.7672"/>
<polygon fill="midnightblue" stroke="midnightblue" points="479.991,-14.1834 469.637,-16.4325 479.134,-21.1308 479.991,-14.1834"/>
</g>
</g>
</svg>
