<?xml version="1.0" encoding="UTF-8" standalone="no"?>
<!DOCTYPE svg PUBLIC "-//W3C//DTD SVG 1.1//EN"
 "http://www.w3.org/Graphics/SVG/1.1/DTD/svg11.dtd">
<!-- Generated by graphviz version 2.38.0 (20140413.2041)
 -->
<!-- Title: Menu Pages: 1 -->
<svg width="240pt" height="502pt"
 viewBox="0.00 0.00 240.00 502.00" xmlns="http://www.w3.org/2000/svg" xmlns:xlink="http://www.w3.org/1999/xlink">
<g id="graph0" class="graph" transform="scale(1 1) rotate(0) translate(4 498)">
<title>Menu</title>
<!-- Node0 -->
<g id="node1" class="node"><title>Node0</title>
<polygon fill="#bfbfbf" stroke="black" points="68,-138.5 68,-294.5 163,-294.5 163,-138.5 68,-138.5"/>
<text text-anchor="middle" x="115.5" y="-282.5" font-family="Helvetica,sans-Serif" font-size="10.00">Menu</text>
<polyline fill="none" stroke="black" points="68,-275.5 163,-275.5 "/>
<text text-anchor="start" x="76" y="-263.5" font-family="Helvetica,sans-Serif" font-size="10.00"># choices</text>
<text text-anchor="start" x="76" y="-252.5" font-family="Helvetica,sans-Serif" font-size="10.00"># cur_choice</text>
<polyline fill="none" stroke="black" points="68,-245.5 163,-245.5 "/>
<text text-anchor="start" x="76" y="-233.5" font-family="Helvetica,sans-Serif" font-size="10.00">+ Menu()</text>
<text text-anchor="start" x="76" y="-222.5" font-family="Helvetica,sans-Serif" font-size="10.00">+ ~Menu()</text>
<text text-anchor="start" x="76" y="-211.5" font-family="Helvetica,sans-Serif" font-size="10.00">+ draw()</text>
<text text-anchor="start" x="76" y="-200.5" font-family="Helvetica,sans-Serif" font-size="10.00">+ Run()</text>
<text text-anchor="start" x="76" y="-189.5" font-family="Helvetica,sans-Serif" font-size="10.00">+ getSize()</text>
<text text-anchor="start" x="76" y="-178.5" font-family="Helvetica,sans-Serif" font-size="10.00">+ getPosition()</text>
<text text-anchor="start" x="76" y="-167.5" font-family="Helvetica,sans-Serif" font-size="10.00">+ addItem()</text>
<text text-anchor="start" x="76" y="-156.5" font-family="Helvetica,sans-Serif" font-size="10.00">+ setPrevious()</text>
<text text-anchor="start" x="76" y="-145.5" font-family="Helvetica,sans-Serif" font-size="10.00">+ showAdresses()</text>
</g>
<!-- Node3 -->
<g id="node4" class="node"><title>Node3</title>
<g id="a_node4"><a xlink:href="class_menu___miniature.html" target="_top" xlink:title="{Menu_Miniature\n||+ Menu_Miniature()\l+ ~Menu_Miniature()\l+ setItemsTextures()\l}">
<polygon fill="none" stroke="black" points="0,-11.5 0,-90.5 107,-90.5 107,-11.5 0,-11.5"/>
<text text-anchor="middle" x="53.5" y="-78.5" font-family="Helvetica,sans-Serif" font-size="10.00">Menu_Miniature</text>
<polyline fill="none" stroke="black" points="0,-71.5 107,-71.5 "/>
<text text-anchor="middle" x="53.5" y="-59.5" font-family="Helvetica,sans-Serif" font-size="10.00"> </text>
<polyline fill="none" stroke="black" points="0,-52.5 107,-52.5 "/>
<text text-anchor="start" x="8" y="-40.5" font-family="Helvetica,sans-Serif" font-size="10.00">+ Menu_Miniature()</text>
<text text-anchor="start" x="8" y="-29.5" font-family="Helvetica,sans-Serif" font-size="10.00">+ ~Menu_Miniature()</text>
<text text-anchor="start" x="8" y="-18.5" font-family="Helvetica,sans-Serif" font-size="10.00">+ setItemsTextures()</text>
</a>
</g>
</g>
<!-- Node0&#45;&gt;Node3 -->
<g id="edge3" class="edge"><title>Node0&#45;&gt;Node3</title>
<path fill="none" stroke="midnightblue" d="M82.4637,-128.38C77.4299,-115.106 72.4681,-102.021 68.1122,-90.5337"/>
<polygon fill="none" stroke="midnightblue" points="79.3157,-129.95 86.1341,-138.059 85.861,-127.468 79.3157,-129.95"/>
</g>
<!-- Node4 -->
<g id="node5" class="node"><title>Node4</title>
<g id="a_node5"><a xlink:href="class_menu__simple.html" target="_top" xlink:title="{Menu_simple\n||+ Menu_simple()\l+ ~Menu_simple()\l+ setItemsTextures()\l+ setItemsFonts()\l+ addItem()\l}">
<polygon fill="none" stroke="black" points="125,-0.5 125,-101.5 232,-101.5 232,-0.5 125,-0.5"/>
<text text-anchor="middle" x="178.5" y="-89.5" font-family="Helvetica,sans-Serif" font-size="10.00">Menu_simple</text>
<polyline fill="none" stroke="black" points="125,-82.5 232,-82.5 "/>
<text text-anchor="middle" x="178.5" y="-70.5" font-family="Helvetica,sans-Serif" font-size="10.00"> </text>
<polyline fill="none" stroke="black" points="125,-63.5 232,-63.5 "/>
<text text-anchor="start" x="133" y="-51.5" font-family="Helvetica,sans-Serif" font-size="10.00">+ Menu_simple()</text>
<text text-anchor="start" x="133" y="-40.5" font-family="Helvetica,sans-Serif" font-size="10.00">+ ~Menu_simple()</text>
<text text-anchor="start" x="133" y="-29.5" font-family="Helvetica,sans-Serif" font-size="10.00">+ setItemsTextures()</text>
<text text-anchor="start" x="133" y="-18.5" font-family="Helvetica,sans-Serif" font-size="10.00">+ setItemsFonts()</text>
<text text-anchor="start" x="133" y="-7.5" font-family="Helvetica,sans-Serif" font-size="10.00">+ addItem()</text>
</a>
</g>
</g>
<!-- Node0&#45;&gt;Node4 -->
<g id="edge4" class="edge"><title>Node0&#45;&gt;Node4</title>
<path fill="none" stroke="midnightblue" d="M149.032,-128.477C152.57,-119.293 156.075,-110.199 159.365,-101.661"/>
<polygon fill="none" stroke="midnightblue" points="145.669,-127.47 145.34,-138.059 152.201,-129.986 145.669,-127.47"/>
</g>
<!-- Node1 -->
<g id="node2" class="node"><title>Node1</title>
<g id="a_node2"><a xlink:href="class_screen.html" target="_top" xlink:title="{Screen\n||+ Run()\l+ draw()\l}">
<polygon fill="none" stroke="black" points="89.5,-331.5 89.5,-399.5 141.5,-399.5 141.5,-331.5 89.5,-331.5"/>
<text text-anchor="middle" x="115.5" y="-387.5" font-family="Helvetica,sans-Serif" font-size="10.00">Screen</text>
<polyline fill="none" stroke="black" points="89.5,-380.5 141.5,-380.5 "/>
<text text-anchor="middle" x="115.5" y="-368.5" font-family="Helvetica,sans-Serif" font-size="10.00"> </text>
<polyline fill="none" stroke="black" points="89.5,-361.5 141.5,-361.5 "/>
<text text-anchor="start" x="97.5" y="-349.5" font-family="Helvetica,sans-Serif" font-size="10.00">+ Run()</text>
<text text-anchor="start" x="97.5" y="-338.5" font-family="Helvetica,sans-Serif" font-size="10.00">+ draw()</text>
</a>
</g>
</g>
<!-- Node1&#45;&gt;Node0 -->
<g id="edge1" class="edge"><title>Node1&#45;&gt;Node0</title>
<path fill="none" stroke="midnightblue" d="M115.5,-321C115.5,-312.7 115.5,-303.784 115.5,-294.792"/>
<polygon fill="none" stroke="midnightblue" points="112,-321.143 115.5,-331.143 119,-321.143 112,-321.143"/>
</g>
<!-- Node2 -->
<g id="node3" class="node"><title>Node2</title>
<polygon fill="none" stroke="#bfbfbf" points="87.5,-436.5 87.5,-493.5 143.5,-493.5 143.5,-436.5 87.5,-436.5"/>
<text text-anchor="middle" x="115.5" y="-481.5" font-family="Helvetica,sans-Serif" font-size="10.00">Drawable</text>
<polyline fill="none" stroke="#bfbfbf" points="87.5,-474.5 143.5,-474.5 "/>
<text text-anchor="middle" x="115.5" y="-462.5" font-family="Helvetica,sans-Serif" font-size="10.00"> </text>
<polyline fill="none" stroke="#bfbfbf" points="87.5,-455.5 143.5,-455.5 "/>
<text text-anchor="middle" x="115.5" y="-443.5" font-family="Helvetica,sans-Serif" font-size="10.00"> </text>
</g>
<!-- Node2&#45;&gt;Node1 -->
<g id="edge2" class="edge"><title>Node2&#45;&gt;Node1</title>
<path fill="none" stroke="midnightblue" d="M115.5,-426.063C115.5,-417.393 115.5,-408.243 115.5,-399.786"/>
<polygon fill="none" stroke="midnightblue" points="112,-426.321 115.5,-436.321 119,-426.321 112,-426.321"/>
</g>
</g>
</svg>
