<?xml version="1.0" encoding="UTF-8" standalone="no"?>
<!DOCTYPE svg PUBLIC "-//W3C//DTD SVG 1.1//EN"
 "http://www.w3.org/Graphics/SVG/1.1/DTD/svg11.dtd">
<!-- Generated by graphviz version 2.38.0 (20140413.2041)
 -->
<!-- Title: Graphical Class Hierarchy Pages: 1 -->
<svg width="397pt" height="180pt"
 viewBox="0.00 0.00 397.00 180.00" xmlns="http://www.w3.org/2000/svg" xmlns:xlink="http://www.w3.org/1999/xlink">
<g id="graph0" class="graph" transform="scale(1 1) rotate(0) translate(4 176)">
<title>Graphical Class Hierarchy</title>
<!-- Node8 -->
<g id="node1" class="node"><title>Node8</title>
<polygon fill="none" stroke="#bfbfbf" points="0,-76.5 0,-95.5 56,-95.5 56,-76.5 0,-76.5"/>
<text text-anchor="middle" x="28" y="-83.5" font-family="Helvetica,sans-Serif" font-size="10.00">Drawable</text>
</g>
<!-- Node0 -->
<g id="node2" class="node"><title>Node0</title>
<g id="a_node2"><a xlink:href="class_board.html" target="_top" xlink:title="Board">
<polygon fill="none" stroke="black" points="94.5,-152.5 94.5,-171.5 136.5,-171.5 136.5,-152.5 94.5,-152.5"/>
<text text-anchor="middle" x="115.5" y="-159.5" font-family="Helvetica,sans-Serif" font-size="10.00">Board</text>
</a>
</g>
</g>
<!-- Node8&#45;&gt;Node0 -->
<g id="edge1" class="edge"><title>Node8&#45;&gt;Node0</title>
<path fill="none" stroke="midnightblue" d="M47.0992,-102.675C59.6118,-114.129 76.6959,-129.622 92,-143 95.5414,-146.096 99.4433,-149.42 102.989,-152.409"/>
<polygon fill="midnightblue" stroke="midnightblue" points="49.3357,-99.977 39.6015,-95.7942 44.6027,-105.134 49.3357,-99.977"/>
</g>
<!-- Node10 -->
<g id="node3" class="node"><title>Node10</title>
<g id="a_node3"><a xlink:href="class_choice.html" target="_top" xlink:title="Choice">
<polygon fill="none" stroke="black" points="92,-114.5 92,-133.5 139,-133.5 139,-114.5 92,-114.5"/>
<text text-anchor="middle" x="115.5" y="-121.5" font-family="Helvetica,sans-Serif" font-size="10.00">Choice</text>
</a>
</g>
</g>
<!-- Node8&#45;&gt;Node10 -->
<g id="edge2" class="edge"><title>Node8&#45;&gt;Node10</title>
<path fill="none" stroke="midnightblue" d="M59.839,-99.7062C70.8053,-104.58 82.908,-109.959 92.9316,-114.414"/>
<polygon fill="midnightblue" stroke="midnightblue" points="61.1349,-96.4521 50.5753,-95.589 58.2919,-102.849 61.1349,-96.4521"/>
</g>
<!-- Node13 -->
<g id="node6" class="node"><title>Node13</title>
<g id="a_node6"><a xlink:href="class_infos.html" target="_top" xlink:title="Infos">
<polygon fill="none" stroke="black" points="97,-76.5 97,-95.5 134,-95.5 134,-76.5 97,-76.5"/>
<text text-anchor="middle" x="115.5" y="-83.5" font-family="Helvetica,sans-Serif" font-size="10.00">Infos</text>
</a>
</g>
</g>
<!-- Node8&#45;&gt;Node13 -->
<g id="edge5" class="edge"><title>Node8&#45;&gt;Node13</title>
<path fill="none" stroke="midnightblue" d="M66.3772,-86C76.9478,-86 87.9638,-86 96.7843,-86"/>
<polygon fill="midnightblue" stroke="midnightblue" points="66.0528,-82.5001 56.0527,-86 66.0527,-89.5001 66.0528,-82.5001"/>
</g>
<!-- Node14 -->
<g id="node7" class="node"><title>Node14</title>
<g id="a_node7"><a xlink:href="class_screen.html" target="_top" xlink:title="Screen">
<polygon fill="none" stroke="black" points="92,-38.5 92,-57.5 139,-57.5 139,-38.5 92,-38.5"/>
<text text-anchor="middle" x="115.5" y="-45.5" font-family="Helvetica,sans-Serif" font-size="10.00">Screen</text>
</a>
</g>
</g>
<!-- Node8&#45;&gt;Node14 -->
<g id="edge6" class="edge"><title>Node8&#45;&gt;Node14</title>
<path fill="none" stroke="midnightblue" d="M59.839,-72.2938C70.8053,-67.4199 82.908,-62.0409 92.9316,-57.5859"/>
<polygon fill="midnightblue" stroke="midnightblue" points="58.2919,-69.1512 50.5753,-76.411 61.1349,-75.5479 58.2919,-69.1512"/>
</g>
<!-- Node19 -->
<g id="node12" class="node"><title>Node19</title>
<g id="a_node12"><a xlink:href="class_square.html" target="_top" xlink:title="Square">
<polygon fill="none" stroke="black" points="92,-0.5 92,-19.5 139,-19.5 139,-0.5 92,-0.5"/>
<text text-anchor="middle" x="115.5" y="-7.5" font-family="Helvetica,sans-Serif" font-size="10.00">Square</text>
</a>
</g>
</g>
<!-- Node8&#45;&gt;Node19 -->
<g id="edge11" class="edge"><title>Node8&#45;&gt;Node19</title>
<path fill="none" stroke="#8b1a1a" d="M47.0992,-69.325C59.6118,-57.8711 76.6959,-42.3781 92,-29 95.5414,-25.9043 99.4433,-22.5798 102.989,-19.5907"/>
<polygon fill="#8b1a1a" stroke="#8b1a1a" points="44.6027,-66.8656 39.6015,-76.2058 49.3357,-72.023 44.6027,-66.8656"/>
</g>
<!-- Node11 -->
<g id="node4" class="node"><title>Node11</title>
<g id="a_node4"><a xlink:href="class_choice__miniature.html" target="_top" xlink:title="Choice_miniature">
<polygon fill="none" stroke="black" points="175,-133.5 175,-152.5 267,-152.5 267,-133.5 175,-133.5"/>
<text text-anchor="middle" x="221" y="-140.5" font-family="Helvetica,sans-Serif" font-size="10.00">Choice_miniature</text>
</a>
</g>
</g>
<!-- Node10&#45;&gt;Node11 -->
<g id="edge3" class="edge"><title>Node10&#45;&gt;Node11</title>
<path fill="none" stroke="midnightblue" d="M149.087,-129.982C157.253,-131.481 166.161,-133.117 174.82,-134.706"/>
<polygon fill="midnightblue" stroke="midnightblue" points="149.681,-126.533 139.214,-128.17 148.417,-133.418 149.681,-126.533"/>
</g>
<!-- Node12 -->
<g id="node5" class="node"><title>Node12</title>
<g id="a_node5"><a xlink:href="class_choice___simple.html" target="_top" xlink:title="Choice_Simple">
<polygon fill="none" stroke="black" points="180,-95.5 180,-114.5 262,-114.5 262,-95.5 180,-95.5"/>
<text text-anchor="middle" x="221" y="-102.5" font-family="Helvetica,sans-Serif" font-size="10.00">Choice_Simple</text>
</a>
</g>
</g>
<!-- Node10&#45;&gt;Node12 -->
<g id="edge4" class="edge"><title>Node10&#45;&gt;Node12</title>
<path fill="none" stroke="midnightblue" d="M149.26,-117.986C158.965,-116.204 169.705,-114.233 179.822,-112.376"/>
<polygon fill="midnightblue" stroke="midnightblue" points="148.417,-114.582 139.214,-119.83 149.681,-121.467 148.417,-114.582"/>
</g>
<!-- Node15 -->
<g id="node8" class="node"><title>Node15</title>
<g id="a_node8"><a xlink:href="class_game__window.html" target="_top" xlink:title="Game_window">
<polygon fill="none" stroke="black" points="181,-57.5 181,-76.5 261,-76.5 261,-57.5 181,-57.5"/>
<text text-anchor="middle" x="221" y="-64.5" font-family="Helvetica,sans-Serif" font-size="10.00">Game_window</text>
</a>
</g>
</g>
<!-- Node14&#45;&gt;Node15 -->
<g id="edge7" class="edge"><title>Node14&#45;&gt;Node15</title>
<path fill="none" stroke="midnightblue" d="M149.155,-53.9946C159.151,-55.8297 170.254,-57.8679 180.647,-59.7758"/>
<polygon fill="midnightblue" stroke="midnightblue" points="149.681,-50.5328 139.214,-52.1696 148.417,-57.4178 149.681,-50.5328"/>
</g>
<!-- Node16 -->
<g id="node9" class="node"><title>Node16</title>
<g id="a_node9"><a xlink:href="class_menu.html" target="_top" xlink:title="Menu">
<polygon fill="none" stroke="black" points="200.5,-19.5 200.5,-38.5 241.5,-38.5 241.5,-19.5 200.5,-19.5"/>
<text text-anchor="middle" x="221" y="-26.5" font-family="Helvetica,sans-Serif" font-size="10.00">Menu</text>
</a>
</g>
</g>
<!-- Node14&#45;&gt;Node16 -->
<g id="edge8" class="edge"><title>Node14&#45;&gt;Node16</title>
<path fill="none" stroke="midnightblue" d="M149.223,-41.9929C166.072,-38.8998 186.047,-35.2329 200.474,-32.5846"/>
<polygon fill="midnightblue" stroke="midnightblue" points="148.417,-38.5822 139.214,-43.8304 149.681,-45.4672 148.417,-38.5822"/>
</g>
<!-- Node17 -->
<g id="node10" class="node"><title>Node17</title>
<g id="a_node10"><a xlink:href="class_menu___miniature.html" target="_top" xlink:title="Menu_Miniature">
<polygon fill="none" stroke="black" points="303,-38.5 303,-57.5 389,-57.5 389,-38.5 303,-38.5"/>
<text text-anchor="middle" x="346" y="-45.5" font-family="Helvetica,sans-Serif" font-size="10.00">Menu_Miniature</text>
</a>
</g>
</g>
<!-- Node16&#45;&gt;Node17 -->
<g id="edge9" class="edge"><title>Node16&#45;&gt;Node17</title>
<path fill="none" stroke="midnightblue" d="M251.729,-33.5923C267.067,-35.9616 286.04,-38.8924 302.861,-41.4908"/>
<polygon fill="midnightblue" stroke="midnightblue" points="252.179,-30.1204 241.762,-32.0527 251.111,-37.0383 252.179,-30.1204"/>
</g>
<!-- Node18 -->
<g id="node11" class="node"><title>Node18</title>
<g id="a_node11"><a xlink:href="class_menu__simple.html" target="_top" xlink:title="Menu_simple">
<polygon fill="none" stroke="black" points="309,-0.5 309,-19.5 383,-19.5 383,-0.5 309,-0.5"/>
<text text-anchor="middle" x="346" y="-7.5" font-family="Helvetica,sans-Serif" font-size="10.00">Menu_simple</text>
</a>
</g>
</g>
<!-- Node16&#45;&gt;Node18 -->
<g id="edge10" class="edge"><title>Node16&#45;&gt;Node18</title>
<path fill="none" stroke="midnightblue" d="M251.81,-24.3953C269.007,-21.7387 290.754,-18.3794 308.914,-15.5742"/>
<polygon fill="midnightblue" stroke="midnightblue" points="251.111,-20.9617 241.762,-25.9473 252.179,-27.8796 251.111,-20.9617"/>
</g>
</g>
</svg>
