<?xml version="1.0" encoding="UTF-8" standalone="no"?>
<!DOCTYPE svg PUBLIC "-//W3C//DTD SVG 1.1//EN"
 "http://www.w3.org/Graphics/SVG/1.1/DTD/svg11.dtd">
<!-- Generated by graphviz version 2.38.0 (20140413.2041)
 -->
<!-- Title: Graphical Class Hierarchy Pages: 1 -->
<svg width="126pt" height="66pt"
 viewBox="0.00 0.00 126.00 66.00" xmlns="http://www.w3.org/2000/svg" xmlns:xlink="http://www.w3.org/1999/xlink">
<g id="graph0" class="graph" transform="scale(1 1) rotate(0) translate(4 62)">
<title>Graphical Class Hierarchy</title>
<!-- Node20 -->
<g id="node1" class="node"><title>Node20</title>
<polygon fill="none" stroke="#bfbfbf" points="0,-38.5 0,-57.5 41,-57.5 41,-38.5 0,-38.5"/>
<text text-anchor="middle" x="20.5" y="-45.5" font-family="Helvetica,sans-Serif" font-size="10.00">Clock</text>
</g>
<!-- Node0 -->
<g id="node2" class="node"><title>Node0</title>
<g id="a_node2"><a xlink:href="class_timer.html" target="_top" xlink:title="Timer">
<polygon fill="none" stroke="black" points="77,-19.5 77,-38.5 118,-38.5 118,-19.5 77,-19.5"/>
<text text-anchor="middle" x="97.5" y="-26.5" font-family="Helvetica,sans-Serif" font-size="10.00">Timer</text>
</a>
</g>
</g>
<!-- Node20&#45;&gt;Node0 -->
<g id="edge1" class="edge"><title>Node20&#45;&gt;Node0</title>
<path fill="none" stroke="midnightblue" d="M51.0212,-40.5213C59.7194,-38.3177 69.0182,-35.962 76.9262,-33.9587"/>
<polygon fill="midnightblue" stroke="midnightblue" points="50.0396,-37.1593 41.2054,-43.008 51.7587,-43.945 50.0396,-37.1593"/>
</g>
<!-- Node2 -->
<g id="node3" class="node"><title>Node2</title>
<polygon fill="none" stroke="#bfbfbf" points="3,-0.5 3,-19.5 38,-19.5 38,-0.5 3,-0.5"/>
<text text-anchor="middle" x="20.5" y="-7.5" font-family="Helvetica,sans-Serif" font-size="10.00">Text</text>
</g>
<!-- Node2&#45;&gt;Node0 -->
<g id="edge2" class="edge"><title>Node2&#45;&gt;Node0</title>
<path fill="none" stroke="midnightblue" d="M47.9692,-16.7055C57.5245,-19.1262 68.1287,-21.8126 76.9813,-24.0553"/>
<polygon fill="midnightblue" stroke="midnightblue" points="48.6982,-13.2797 38.1449,-14.2167 46.9792,-20.0654 48.6982,-13.2797"/>
</g>
</g>
</svg>
